<?xml version="1.0" encoding="UTF-8" standalone="no"?>
<!DOCTYPE svg PUBLIC "-//W3C//DTD SVG 1.1//EN"
 "http://www.w3.org/Graphics/SVG/1.1/DTD/svg11.dtd">
<!-- Generated by graphviz version 2.38.0 (20140413.2041)
 -->
<!-- Title: CoolSI114X::ReadByte Pages: 1 -->
<svg width="896pt" height="85pt"
 viewBox="0.00 0.00 896.00 85.00" xmlns="http://www.w3.org/2000/svg" xmlns:xlink="http://www.w3.org/1999/xlink">
<g id="graph0" class="graph" transform="scale(1 1) rotate(0) translate(4 81)">
<title>CoolSI114X::ReadByte</title>
<polygon fill="white" stroke="none" points="-4,4 -4,-81 892,-81 892,4 -4,4"/>
<!-- Node72 -->
<g id="node1" class="node"><title>Node72</title>
<polygon fill="#bfbfbf" stroke="black" points="0,-38.5 0,-57.5 119,-57.5 119,-38.5 0,-38.5"/>
<text text-anchor="middle" x="59.5" y="-45.5" font-family="Helvetica,sans-Serif" font-size="10.00">CoolSI114X::ReadByte</text>
</g>
<!-- Node73 -->
<g id="node2" class="node"><title>Node73</title>
<g id="a_node2"><a xlink:href="../../dd/d67/class_cool_s_i114_x.html#a206b36aca7049f63be1d11088c30a09f" target="_top" xlink:title="CoolSI114X::Begin">
<polygon fill="white" stroke="black" points="486,-57.5 486,-76.5 586,-76.5 586,-57.5 486,-57.5"/>
<text text-anchor="middle" x="536" y="-64.5" font-family="Helvetica,sans-Serif" font-size="10.00">CoolSI114X::Begin</text>
</a>
</g>
</g>
<!-- Node72&#45;&gt;Node73 -->
<g id="edge1" class="edge"><title>Node72&#45;&gt;Node73</title>
<path fill="none" stroke="midnightblue" d="M108.781,-59.6247C123.525,-62.6549 139.846,-65.4917 155,-67 273.33,-78.7778 413.416,-73.9701 485.958,-70.0936"/>
<polygon fill="midnightblue" stroke="midnightblue" points="109.37,-56.1716 98.8598,-57.5099 107.91,-63.0178 109.37,-56.1716"/>
</g>
<!-- Node76 -->
<g id="node5" class="node"><title>Node76</title>
<g id="a_node5"><a xlink:href="../../dd/d67/class_cool_s_i114_x.html#a33cf431103c722442f6a0cc93848d640" target="_top" xlink:title="CoolSI114X::ReadParamData">
<polygon fill="white" stroke="black" points="155,-38.5 155,-57.5 303,-57.5 303,-38.5 155,-38.5"/>
<text text-anchor="middle" x="229" y="-45.5" font-family="Helvetica,sans-Serif" font-size="10.00">CoolSI114X::ReadParamData</text>
</a>
</g>
</g>
<!-- Node72&#45;&gt;Node76 -->
<g id="edge4" class="edge"><title>Node72&#45;&gt;Node76</title>
<path fill="none" stroke="midnightblue" d="M129.216,-48C137.627,-48 146.247,-48 154.722,-48"/>
<polygon fill="midnightblue" stroke="midnightblue" points="129.083,-44.5001 119.083,-48 129.083,-51.5001 129.083,-44.5001"/>
</g>
<!-- Node77 -->
<g id="node6" class="node"><title>Node77</title>
<g id="a_node6"><a xlink:href="../../dd/d67/class_cool_s_i114_x.html#abf45eb10a6de1be16e68a51624fa2608" target="_top" xlink:title="CoolSI114X::WriteParamData">
<polygon fill="white" stroke="black" points="155,-0.5 155,-19.5 303,-19.5 303,-0.5 155,-0.5"/>
<text text-anchor="middle" x="229" y="-7.5" font-family="Helvetica,sans-Serif" font-size="10.00">CoolSI114X::WriteParamData</text>
</a>
</g>
</g>
<!-- Node72&#45;&gt;Node77 -->
<g id="edge5" class="edge"><title>Node72&#45;&gt;Node77</title>
<path fill="none" stroke="midnightblue" d="M112.62,-36.1757C136.235,-30.8184 163.782,-24.5689 186.037,-19.5201"/>
<polygon fill="midnightblue" stroke="midnightblue" points="111.745,-32.7852 102.767,-38.411 113.294,-39.6117 111.745,-32.7852"/>
</g>
<!-- Node74 -->
<g id="node3" class="node"><title>Node74</title>
<g id="a_node3"><a xlink:href="../../de/d46/class_cool_board_sensors.html#a97095823ef7c8f5290812f1405b966b3" target="_top" xlink:title="CoolBoardSensors::begin">
<polygon fill="white" stroke="black" points="632,-57.5 632,-76.5 760,-76.5 760,-57.5 632,-57.5"/>
<text text-anchor="middle" x="696" y="-64.5" font-family="Helvetica,sans-Serif" font-size="10.00">CoolBoardSensors::begin</text>
</a>
</g>
</g>
<!-- Node73&#45;&gt;Node74 -->
<g id="edge2" class="edge"><title>Node73&#45;&gt;Node74</title>
<path fill="none" stroke="midnightblue" d="M596.192,-67C607.858,-67 620.141,-67 631.93,-67"/>
<polygon fill="midnightblue" stroke="midnightblue" points="596.126,-63.5001 586.126,-67 596.126,-70.5001 596.126,-63.5001"/>
</g>
<!-- Node75 -->
<g id="node4" class="node"><title>Node75</title>
<g id="a_node4"><a xlink:href="../../d7/df9/class_cool_board.html#acba7c5aef7268b2c0044bdb54d3b9d76" target="_top" xlink:title="CoolBoard::begin">
<polygon fill="white" stroke="black" points="796,-57.5 796,-76.5 888,-76.5 888,-57.5 796,-57.5"/>
<text text-anchor="middle" x="842" y="-64.5" font-family="Helvetica,sans-Serif" font-size="10.00">CoolBoard::begin</text>
</a>
</g>
</g>
<!-- Node74&#45;&gt;Node75 -->
<g id="edge3" class="edge"><title>Node74&#45;&gt;Node75</title>
<path fill="none" stroke="midnightblue" d="M770.283,-67C778.922,-67 787.536,-67 795.627,-67"/>
<polygon fill="midnightblue" stroke="midnightblue" points="770.161,-63.5001 760.16,-67 770.16,-70.5001 770.161,-63.5001"/>
</g>
<!-- Node78 -->
<g id="node7" class="node"><title>Node78</title>
<g id="a_node7"><a xlink:href="../../dd/d67/class_cool_s_i114_x.html#a6840abd53a2e3d71a6bb918077c6d6e6" target="_top" xlink:title="CoolSI114X::DeInit">
<polygon fill="white" stroke="black" points="339,-10.5 339,-29.5 440,-29.5 440,-10.5 339,-10.5"/>
<text text-anchor="middle" x="389.5" y="-17.5" font-family="Helvetica,sans-Serif" font-size="10.00">CoolSI114X::DeInit</text>
</a>
</g>
</g>
<!-- Node77&#45;&gt;Node78 -->
<g id="edge6" class="edge"><title>Node77&#45;&gt;Node78</title>
<path fill="none" stroke="midnightblue" d="M313.367,-15.2597C322.007,-15.8049 330.582,-16.3459 338.679,-16.8567"/>
<polygon fill="midnightblue" stroke="midnightblue" points="313.419,-11.7562 303.219,-14.6195 312.978,-18.7423 313.419,-11.7562"/>
</g>
<!-- Node78&#45;&gt;Node73 -->
<g id="edge7" class="edge"><title>Node78&#45;&gt;Node73</title>
<path fill="none" stroke="midnightblue" d="M429.542,-32.6988C453.388,-40.4548 483.401,-50.217 505.306,-57.3417"/>
<polygon fill="midnightblue" stroke="midnightblue" points="430.334,-29.2759 419.742,-29.5112 428.169,-35.9327 430.334,-29.2759"/>
</g>
<!-- Node79 -->
<g id="node8" class="node"><title>Node79</title>
<g id="a_node8"><a xlink:href="../../de/d46/class_cool_board_sensors.html#a4902b69f6e628bd6557193758fdd2bae" target="_top" xlink:title="CoolBoardSensors::end">
<polygon fill="white" stroke="black" points="476,-10.5 476,-29.5 596,-29.5 596,-10.5 476,-10.5"/>
<text text-anchor="middle" x="536" y="-17.5" font-family="Helvetica,sans-Serif" font-size="10.00">CoolBoardSensors::end</text>
</a>
</g>
</g>
<!-- Node78&#45;&gt;Node79 -->
<g id="edge8" class="edge"><title>Node78&#45;&gt;Node79</title>
<path fill="none" stroke="midnightblue" d="M450.391,-20C458.843,-20 467.528,-20 475.964,-20"/>
<polygon fill="midnightblue" stroke="midnightblue" points="450.229,-16.5001 440.229,-20 450.229,-23.5001 450.229,-16.5001"/>
</g>
</g>
</svg>
