<?xml version="1.0" encoding="UTF-8" standalone="no"?>
<!DOCTYPE svg PUBLIC "-//W3C//DTD SVG 1.1//EN"
 "http://www.w3.org/Graphics/SVG/1.1/DTD/svg11.dtd">
<!-- Generated by graphviz version 2.38.0 (20140413.2041)
 -->
<!-- Title: CoolSI114X::WriteByte Pages: 1 -->
<svg width="896pt" height="125pt"
 viewBox="0.00 0.00 896.00 125.24" xmlns="http://www.w3.org/2000/svg" xmlns:xlink="http://www.w3.org/1999/xlink">
<g id="graph0" class="graph" transform="scale(1 1) rotate(0) translate(4 121.245)">
<title>CoolSI114X::WriteByte</title>
<polygon fill="white" stroke="none" points="-4,4 -4,-121.245 892,-121.245 892,4 -4,4"/>
<!-- Node62 -->
<g id="node1" class="node"><title>Node62</title>
<polygon fill="#bfbfbf" stroke="black" points="0,-57.5 0,-76.5 119,-76.5 119,-57.5 0,-57.5"/>
<text text-anchor="middle" x="59.5" y="-64.5" font-family="Helvetica,sans-Serif" font-size="10.00">CoolSI114X::WriteByte</text>
</g>
<!-- Node63 -->
<g id="node2" class="node"><title>Node63</title>
<g id="a_node2"><a xlink:href="../../dd/d67/class_cool_s_i114_x.html#a6840abd53a2e3d71a6bb918077c6d6e6" target="_top" xlink:title="CoolSI114X::DeInit">
<polygon fill="white" stroke="black" points="339,-38.5 339,-57.5 440,-57.5 440,-38.5 339,-38.5"/>
<text text-anchor="middle" x="389.5" y="-45.5" font-family="Helvetica,sans-Serif" font-size="10.00">CoolSI114X::DeInit</text>
</a>
</g>
</g>
<!-- Node62&#45;&gt;Node63 -->
<g id="edge1" class="edge"><title>Node62&#45;&gt;Node63</title>
<path fill="none" stroke="midnightblue" d="M87.3158,-80.996C105.786,-89.8221 131.198,-100.394 155,-105 219.58,-117.498 240.045,-124.061 303,-105 333.734,-95.6945 363.518,-71.2949 378.494,-57.6278"/>
<polygon fill="midnightblue" stroke="midnightblue" points="88.8532,-77.8518 78.3349,-76.5804 85.7646,-84.1335 88.8532,-77.8518"/>
</g>
<!-- Node68 -->
<g id="node7" class="node"><title>Node68</title>
<g id="a_node7"><a xlink:href="../../dd/d67/class_cool_s_i114_x.html#a33cf431103c722442f6a0cc93848d640" target="_top" xlink:title="CoolSI114X::ReadParamData">
<polygon fill="white" stroke="black" points="155,-76.5 155,-95.5 303,-95.5 303,-76.5 155,-76.5"/>
<text text-anchor="middle" x="229" y="-83.5" font-family="Helvetica,sans-Serif" font-size="10.00">CoolSI114X::ReadParamData</text>
</a>
</g>
</g>
<!-- Node62&#45;&gt;Node68 -->
<g id="edge6" class="edge"><title>Node62&#45;&gt;Node68</title>
<path fill="none" stroke="midnightblue" d="M129.216,-74.7946C137.627,-75.7487 146.247,-76.7266 154.722,-77.6879"/>
<polygon fill="midnightblue" stroke="midnightblue" points="129.414,-71.2948 119.083,-73.6453 128.625,-78.2502 129.414,-71.2948"/>
</g>
<!-- Node69 -->
<g id="node8" class="node"><title>Node69</title>
<g id="a_node8"><a xlink:href="../../dd/d67/class_cool_s_i114_x.html#a9d9f9c9129c0c29ed497f8563f3dd823" target="_top" xlink:title="CoolSI114X::Reset">
<polygon fill="white" stroke="black" points="339,-0.5 339,-19.5 440,-19.5 440,-0.5 339,-0.5"/>
<text text-anchor="middle" x="389.5" y="-7.5" font-family="Helvetica,sans-Serif" font-size="10.00">CoolSI114X::Reset</text>
</a>
</g>
</g>
<!-- Node62&#45;&gt;Node69 -->
<g id="edge7" class="edge"><title>Node62&#45;&gt;Node69</title>
<path fill="none" stroke="midnightblue" d="M88.7464,-53.0299C107.154,-44.5883 131.95,-34.4397 155,-29 217.148,-14.333 290.89,-10.5098 338.631,-9.74631"/>
<polygon fill="midnightblue" stroke="midnightblue" points="87.0513,-49.9592 79.4882,-57.3787 90.0275,-56.295 87.0513,-49.9592"/>
</g>
<!-- Node70 -->
<g id="node9" class="node"><title>Node70</title>
<g id="a_node9"><a xlink:href="../../dd/d67/class_cool_s_i114_x.html#abf45eb10a6de1be16e68a51624fa2608" target="_top" xlink:title="CoolSI114X::WriteParamData">
<polygon fill="white" stroke="black" points="155,-38.5 155,-57.5 303,-57.5 303,-38.5 155,-38.5"/>
<text text-anchor="middle" x="229" y="-45.5" font-family="Helvetica,sans-Serif" font-size="10.00">CoolSI114X::WriteParamData</text>
</a>
</g>
</g>
<!-- Node62&#45;&gt;Node70 -->
<g id="edge9" class="edge"><title>Node62&#45;&gt;Node70</title>
<path fill="none" stroke="midnightblue" d="M129.216,-59.2054C137.627,-58.2513 146.247,-57.2734 154.722,-56.3121"/>
<polygon fill="midnightblue" stroke="midnightblue" points="128.625,-55.7498 119.083,-60.3547 129.414,-62.7052 128.625,-55.7498"/>
</g>
<!-- Node64 -->
<g id="node3" class="node"><title>Node64</title>
<g id="a_node3"><a xlink:href="../../dd/d67/class_cool_s_i114_x.html#a206b36aca7049f63be1d11088c30a09f" target="_top" xlink:title="CoolSI114X::Begin">
<polygon fill="white" stroke="black" points="486,-0.5 486,-19.5 586,-19.5 586,-0.5 486,-0.5"/>
<text text-anchor="middle" x="536" y="-7.5" font-family="Helvetica,sans-Serif" font-size="10.00">CoolSI114X::Begin</text>
</a>
</g>
</g>
<!-- Node63&#45;&gt;Node64 -->
<g id="edge2" class="edge"><title>Node63&#45;&gt;Node64</title>
<path fill="none" stroke="midnightblue" d="M436.833,-35.8157C456.894,-30.54 480.029,-24.4562 498.799,-19.5201"/>
<polygon fill="midnightblue" stroke="midnightblue" points="435.744,-32.4827 426.963,-38.411 437.525,-39.2526 435.744,-32.4827"/>
</g>
<!-- Node67 -->
<g id="node6" class="node"><title>Node67</title>
<g id="a_node6"><a xlink:href="../../de/d46/class_cool_board_sensors.html#a4902b69f6e628bd6557193758fdd2bae" target="_top" xlink:title="CoolBoardSensors::end">
<polygon fill="white" stroke="black" points="476,-38.5 476,-57.5 596,-57.5 596,-38.5 476,-38.5"/>
<text text-anchor="middle" x="536" y="-45.5" font-family="Helvetica,sans-Serif" font-size="10.00">CoolBoardSensors::end</text>
</a>
</g>
</g>
<!-- Node63&#45;&gt;Node67 -->
<g id="edge5" class="edge"><title>Node63&#45;&gt;Node67</title>
<path fill="none" stroke="midnightblue" d="M450.391,-48C458.843,-48 467.528,-48 475.964,-48"/>
<polygon fill="midnightblue" stroke="midnightblue" points="450.229,-44.5001 440.229,-48 450.229,-51.5001 450.229,-44.5001"/>
</g>
<!-- Node65 -->
<g id="node4" class="node"><title>Node65</title>
<g id="a_node4"><a xlink:href="../../de/d46/class_cool_board_sensors.html#a97095823ef7c8f5290812f1405b966b3" target="_top" xlink:title="CoolBoardSensors::begin">
<polygon fill="white" stroke="black" points="632,-0.5 632,-19.5 760,-19.5 760,-0.5 632,-0.5"/>
<text text-anchor="middle" x="696" y="-7.5" font-family="Helvetica,sans-Serif" font-size="10.00">CoolBoardSensors::begin</text>
</a>
</g>
</g>
<!-- Node64&#45;&gt;Node65 -->
<g id="edge3" class="edge"><title>Node64&#45;&gt;Node65</title>
<path fill="none" stroke="midnightblue" d="M596.192,-10C607.858,-10 620.141,-10 631.93,-10"/>
<polygon fill="midnightblue" stroke="midnightblue" points="596.126,-6.5001 586.126,-10 596.126,-13.5001 596.126,-6.5001"/>
</g>
<!-- Node66 -->
<g id="node5" class="node"><title>Node66</title>
<g id="a_node5"><a xlink:href="../../d7/df9/class_cool_board.html#acba7c5aef7268b2c0044bdb54d3b9d76" target="_top" xlink:title="CoolBoard::begin">
<polygon fill="white" stroke="black" points="796,-0.5 796,-19.5 888,-19.5 888,-0.5 796,-0.5"/>
<text text-anchor="middle" x="842" y="-7.5" font-family="Helvetica,sans-Serif" font-size="10.00">CoolBoard::begin</text>
</a>
</g>
</g>
<!-- Node65&#45;&gt;Node66 -->
<g id="edge4" class="edge"><title>Node65&#45;&gt;Node66</title>
<path fill="none" stroke="midnightblue" d="M770.283,-10C778.922,-10 787.536,-10 795.627,-10"/>
<polygon fill="midnightblue" stroke="midnightblue" points="770.161,-6.5001 760.16,-10 770.16,-13.5001 770.161,-6.5001"/>
</g>
<!-- Node69&#45;&gt;Node64 -->
<g id="edge8" class="edge"><title>Node69&#45;&gt;Node64</title>
<path fill="none" stroke="midnightblue" d="M450.397,-10C462.136,-10 474.323,-10 485.669,-10"/>
<polygon fill="midnightblue" stroke="midnightblue" points="450.229,-6.5001 440.229,-10 450.229,-13.5001 450.229,-6.5001"/>
</g>
<!-- Node70&#45;&gt;Node63 -->
<g id="edge10" class="edge"><title>Node70&#45;&gt;Node63</title>
<path fill="none" stroke="midnightblue" d="M313.367,-48C322.007,-48 330.582,-48 338.679,-48"/>
<polygon fill="midnightblue" stroke="midnightblue" points="313.219,-44.5001 303.219,-48 313.219,-51.5001 313.219,-44.5001"/>
</g>
</g>
</svg>
