<?xml version="1.0" encoding="UTF-8" standalone="no"?>
<!DOCTYPE svg PUBLIC "-//W3C//DTD SVG 1.1//EN"
 "http://www.w3.org/Graphics/SVG/1.1/DTD/svg11.dtd">
<!-- Generated by graphviz version 2.38.0 (20140413.2041)
 -->
<!-- Title: /home/ashiroji/Arduino/libraries/CoolBoard/src/CoolBoard.h Pages: 1 -->
<svg width="1924pt" height="240pt"
 viewBox="0.00 0.00 1924.03 240.00" xmlns="http://www.w3.org/2000/svg" xmlns:xlink="http://www.w3.org/1999/xlink">
<g id="graph0" class="graph" transform="scale(1 1) rotate(0) translate(4 236)">
<title>/home/ashiroji/Arduino/libraries/CoolBoard/src/CoolBoard.h</title>
<polygon fill="white" stroke="none" points="-4,4 -4,-236 1920.03,-236 1920.03,4 -4,4"/>
<!-- Node0 -->
<g id="node1" class="node"><title>Node0</title>
<polygon fill="#bfbfbf" stroke="black" points="742.026,-190.5 742.026,-231.5 861.026,-231.5 861.026,-190.5 742.026,-190.5"/>
<text text-anchor="start" x="750.026" y="-219.5" font-family="Helvetica,sans-Serif" font-size="10.00">/home/ashiroji/Arduino</text>
<text text-anchor="start" x="750.026" y="-208.5" font-family="Helvetica,sans-Serif" font-size="10.00">/libraries/CoolBoard/src</text>
<text text-anchor="middle" x="801.526" y="-197.5" font-family="Helvetica,sans-Serif" font-size="10.00">/CoolBoard.h</text>
</g>
<!-- Node1 -->
<g id="node2" class="node"><title>Node1</title>
<g id="a_node2"><a xlink:href="../../d9/d41/_cool_file_system_8h.html" target="_top" xlink:title="CoolFileSystem Header File. ">
<polygon fill="white" stroke="black" points="754.026,-134.5 754.026,-153.5 849.026,-153.5 849.026,-134.5 754.026,-134.5"/>
<text text-anchor="middle" x="801.526" y="-141.5" font-family="Helvetica,sans-Serif" font-size="10.00">CoolFileSystem.h</text>
</a>
</g>
</g>
<!-- Node0&#45;&gt;Node1 -->
<g id="edge1" class="edge"><title>Node0&#45;&gt;Node1</title>
<path fill="none" stroke="midnightblue" d="M801.526,-190.498C801.526,-182.065 801.526,-172.235 801.526,-163.874"/>
<polygon fill="midnightblue" stroke="midnightblue" points="805.026,-163.652 801.526,-153.652 798.026,-163.653 805.026,-163.652"/>
</g>
<!-- Node2 -->
<g id="node3" class="node"><title>Node2</title>
<polygon fill="white" stroke="#bfbfbf" points="867.526,-6 867.526,-25 925.526,-25 925.526,-6 867.526,-6"/>
<text text-anchor="middle" x="896.526" y="-13" font-family="Helvetica,sans-Serif" font-size="10.00">Arduino.h</text>
</g>
<!-- Node0&#45;&gt;Node2 -->
<g id="edge45" class="edge"><title>Node0&#45;&gt;Node2</title>
<path fill="none" stroke="midnightblue" d="M741.773,-208.623C540.903,-202.971 -91.78,-176.369 11.526,-67 40.9465,-35.8528 689.051,-20.6779 857.044,-17.2592"/>
<polygon fill="midnightblue" stroke="midnightblue" points="857.252,-20.7558 867.18,-17.0554 857.111,-13.7572 857.252,-20.7558"/>
</g>
<!-- Node3 -->
<g id="node4" class="node"><title>Node3</title>
<g id="a_node4"><a xlink:href="../../d7/df3/_cool_board_sensors_8h.html" target="_top" xlink:title="CoolBoardSensors Header File. ">
<polygon fill="white" stroke="black" points="282.026,-134.5 282.026,-153.5 389.026,-153.5 389.026,-134.5 282.026,-134.5"/>
<text text-anchor="middle" x="335.526" y="-141.5" font-family="Helvetica,sans-Serif" font-size="10.00">CoolBoardSensors.h</text>
</a>
</g>
</g>
<!-- Node0&#45;&gt;Node3 -->
<g id="edge3" class="edge"><title>Node0&#45;&gt;Node3</title>
<path fill="none" stroke="midnightblue" d="M741.559,-201.635C653.389,-189.337 489.489,-166.476 399.233,-153.886"/>
<polygon fill="midnightblue" stroke="midnightblue" points="399.522,-150.393 389.134,-152.478 398.555,-157.326 399.522,-150.393"/>
</g>
<!-- Node7 -->
<g id="node8" class="node"><title>Node7</title>
<g id="a_node8"><a xlink:href="../../d0/da6/_cool_board_led_8h.html" target="_top" xlink:title="CoolBoardLed Header File. ">
<polygon fill="white" stroke="black" points="481.526,-134.5 481.526,-153.5 567.526,-153.5 567.526,-134.5 481.526,-134.5"/>
<text text-anchor="middle" x="524.526" y="-141.5" font-family="Helvetica,sans-Serif" font-size="10.00">CoolBoardLed.h</text>
</a>
</g>
</g>
<!-- Node0&#45;&gt;Node7 -->
<g id="edge9" class="edge"><title>Node0&#45;&gt;Node7</title>
<path fill="none" stroke="midnightblue" d="M741.762,-195.976C690.495,-183.946 617.674,-166.858 570.761,-155.849"/>
<polygon fill="midnightblue" stroke="midnightblue" points="571.406,-152.406 560.871,-153.529 569.807,-159.221 571.406,-152.406"/>
</g>
<!-- Node9 -->
<g id="node10" class="node"><title>Node9</title>
<g id="a_node10"><a xlink:href="../../d4/daa/_cool_time_8h.html" target="_top" xlink:title="CoolTime Header File. ">
<polygon fill="white" stroke="black" points="669.026,-134.5 669.026,-153.5 736.026,-153.5 736.026,-134.5 669.026,-134.5"/>
<text text-anchor="middle" x="702.526" y="-141.5" font-family="Helvetica,sans-Serif" font-size="10.00">CoolTime.h</text>
</a>
</g>
</g>
<!-- Node0&#45;&gt;Node9 -->
<g id="edge12" class="edge"><title>Node0&#45;&gt;Node9</title>
<path fill="none" stroke="midnightblue" d="M771.823,-190.498C756.498,-180.436 738.143,-168.385 724.174,-159.214"/>
<polygon fill="midnightblue" stroke="midnightblue" points="725.985,-156.215 715.704,-153.652 722.143,-162.067 725.985,-156.215"/>
</g>
<!-- Node13 -->
<g id="node14" class="node"><title>Node13</title>
<g id="a_node14"><a xlink:href="../../de/d2e/_cool_m_q_t_t_8h.html" target="_top" xlink:title="CoolMQTT Header File. ">
<polygon fill="white" stroke="black" points="1259.03,-134.5 1259.03,-153.5 1332.03,-153.5 1332.03,-134.5 1259.03,-134.5"/>
<text text-anchor="middle" x="1295.53" y="-141.5" font-family="Helvetica,sans-Serif" font-size="10.00">CoolMQTT.h</text>
</a>
</g>
</g>
<!-- Node0&#45;&gt;Node13 -->
<g id="edge17" class="edge"><title>Node0&#45;&gt;Node13</title>
<path fill="none" stroke="midnightblue" d="M861.114,-202.159C960.694,-189.057 1158.86,-162.982 1248.98,-151.125"/>
<polygon fill="midnightblue" stroke="midnightblue" points="1249.45,-154.593 1258.9,-149.819 1248.53,-147.653 1249.45,-154.593"/>
</g>
<!-- Node19 -->
<g id="node20" class="node"><title>Node19</title>
<g id="a_node20"><a xlink:href="../../db/d6c/_jetpack_8h.html" target="_top" xlink:title="Jetpack Header File. ">
<polygon fill="white" stroke="black" points="867.026,-134.5 867.026,-153.5 926.026,-153.5 926.026,-134.5 867.026,-134.5"/>
<text text-anchor="middle" x="896.526" y="-141.5" font-family="Helvetica,sans-Serif" font-size="10.00">Jetpack.h</text>
</a>
</g>
</g>
<!-- Node0&#45;&gt;Node19 -->
<g id="edge25" class="edge"><title>Node0&#45;&gt;Node19</title>
<path fill="none" stroke="midnightblue" d="M830.029,-190.498C844.594,-180.532 862.013,-168.614 875.368,-159.476"/>
<polygon fill="midnightblue" stroke="midnightblue" points="877.603,-162.188 883.88,-153.652 873.651,-156.411 877.603,-162.188"/>
</g>
<!-- Node20 -->
<g id="node21" class="node"><title>Node20</title>
<g id="a_node21"><a xlink:href="../../d7/d31/_irene3000_8h.html" target="_top" xlink:title="Irene3000 Header File. ">
<polygon fill="white" stroke="black" points="944.526,-134.5 944.526,-153.5 1012.53,-153.5 1012.53,-134.5 944.526,-134.5"/>
<text text-anchor="middle" x="978.526" y="-141.5" font-family="Helvetica,sans-Serif" font-size="10.00">Irene3000.h</text>
</a>
</g>
</g>
<!-- Node0&#45;&gt;Node20 -->
<g id="edge27" class="edge"><title>Node0&#45;&gt;Node20</title>
<path fill="none" stroke="midnightblue" d="M854.632,-190.498C884.118,-179.67 919.879,-166.537 945.387,-157.17"/>
<polygon fill="midnightblue" stroke="midnightblue" points="946.784,-160.385 954.965,-153.652 944.371,-153.814 946.784,-160.385"/>
</g>
<!-- Node22 -->
<g id="node23" class="node"><title>Node22</title>
<g id="a_node23"><a xlink:href="../../d7/dcc/_external_sensors_8h.html" target="_top" xlink:title="ExternalSensors Header File. ">
<polygon fill="white" stroke="black" points="1052.03,-134.5 1052.03,-153.5 1149.03,-153.5 1149.03,-134.5 1052.03,-134.5"/>
<text text-anchor="middle" x="1100.53" y="-141.5" font-family="Helvetica,sans-Serif" font-size="10.00">ExternalSensors.h</text>
</a>
</g>
</g>
<!-- Node0&#45;&gt;Node22 -->
<g id="edge31" class="edge"><title>Node0&#45;&gt;Node22</title>
<path fill="none" stroke="midnightblue" d="M861.315,-197.003C917.074,-184.881 999.256,-167.015 1051.32,-155.697"/>
<polygon fill="midnightblue" stroke="midnightblue" points="1052.29,-159.069 1061.31,-153.524 1050.8,-152.229 1052.29,-159.069"/>
</g>
<!-- Node26 -->
<g id="node27" class="node"><title>Node26</title>
<g id="a_node27"><a xlink:href="../../dc/d38/_cool_wifi_8h.html" target="_top" xlink:title="CoolWifi Header File. ">
<polygon fill="white" stroke="black" points="1547.53,-134.5 1547.53,-153.5 1609.53,-153.5 1609.53,-134.5 1547.53,-134.5"/>
<text text-anchor="middle" x="1578.53" y="-141.5" font-family="Helvetica,sans-Serif" font-size="10.00">CoolWifi.h</text>
</a>
</g>
</g>
<!-- Node0&#45;&gt;Node26 -->
<g id="edge37" class="edge"><title>Node0&#45;&gt;Node26</title>
<path fill="none" stroke="midnightblue" d="M861.206,-205.007C1012.42,-192.357 1407.78,-159.283 1537,-148.474"/>
<polygon fill="midnightblue" stroke="midnightblue" points="1537.59,-151.937 1547.26,-147.616 1537,-144.962 1537.59,-151.937"/>
</g>
<!-- Node30 -->
<g id="node31" class="node"><title>Node30</title>
<g id="a_node31"><a xlink:href="../../d1/d25/_cool_board_actor_8h.html" target="_top" xlink:title="CoolBoardActor Header File. ">
<polygon fill="white" stroke="black" points="168.526,-134.5 168.526,-153.5 262.526,-153.5 262.526,-134.5 168.526,-134.5"/>
<text text-anchor="middle" x="215.526" y="-141.5" font-family="Helvetica,sans-Serif" font-size="10.00">CoolBoardActor.h</text>
</a>
</g>
</g>
<!-- Node0&#45;&gt;Node30 -->
<g id="edge43" class="edge"><title>Node0&#45;&gt;Node30</title>
<path fill="none" stroke="midnightblue" d="M741.909,-204.691C645.65,-195.898 449.813,-177.099 272.795,-153.968"/>
<polygon fill="midnightblue" stroke="midnightblue" points="273.147,-150.484 262.776,-152.651 272.235,-157.424 273.147,-150.484"/>
</g>
<!-- Node1&#45;&gt;Node2 -->
<g id="edge2" class="edge"><title>Node1&#45;&gt;Node2</title>
<path fill="none" stroke="midnightblue" d="M808.056,-134.305C823.648,-113.543 863.277,-60.774 883.789,-33.4599"/>
<polygon fill="midnightblue" stroke="midnightblue" points="886.744,-35.3537 889.951,-25.2557 881.147,-31.1501 886.744,-35.3537"/>
</g>
<!-- Node3&#45;&gt;Node2 -->
<g id="edge4" class="edge"><title>Node3&#45;&gt;Node2</title>
<path fill="none" stroke="midnightblue" d="M313.067,-134.382C297.757,-127.184 278.663,-115.288 269.526,-98 263.088,-85.8188 260.183,-77.1259 269.526,-67 309.408,-23.7764 726.132,-17.5379 857.256,-16.6462"/>
<polygon fill="midnightblue" stroke="midnightblue" points="857.289,-20.1462 867.268,-16.5849 857.246,-13.1463 857.289,-20.1462"/>
</g>
<!-- Node4 -->
<g id="node5" class="node"><title>Node4</title>
<g id="a_node5"><a xlink:href="../../d1/dd7/_cool_s_i114_x_8h.html" target="_top" xlink:title="internals/CoolSI114X.h">
<polygon fill="white" stroke="black" points="279.026,-73 279.026,-92 396.026,-92 396.026,-73 279.026,-73"/>
<text text-anchor="middle" x="337.526" y="-80" font-family="Helvetica,sans-Serif" font-size="10.00">internals/CoolSI114X.h</text>
</a>
</g>
</g>
<!-- Node3&#45;&gt;Node4 -->
<g id="edge5" class="edge"><title>Node3&#45;&gt;Node4</title>
<path fill="none" stroke="midnightblue" d="M335.813,-134.475C336.095,-126.08 336.535,-112.981 336.899,-102.163"/>
<polygon fill="midnightblue" stroke="midnightblue" points="340.402,-102.121 337.24,-92.0091 333.406,-101.886 340.402,-102.121"/>
</g>
<!-- Node5 -->
<g id="node6" class="node"><title>Node5</title>
<g id="a_node6"><a xlink:href="../../d2/d3a/_cool_spark_fun_b_m_e280_8h.html" target="_top" xlink:title="internals/CoolSparkFunBME280.h">
<polygon fill="white" stroke="black" points="20.526,-73 20.526,-92 184.526,-92 184.526,-73 20.526,-73"/>
<text text-anchor="middle" x="102.526" y="-80" font-family="Helvetica,sans-Serif" font-size="10.00">internals/CoolSparkFunBME280.h</text>
</a>
</g>
</g>
<!-- Node3&#45;&gt;Node5 -->
<g id="edge7" class="edge"><title>Node3&#45;&gt;Node5</title>
<path fill="none" stroke="midnightblue" d="M302.143,-134.475C260.964,-123.959 190.876,-106.062 145.657,-94.5142"/>
<polygon fill="midnightblue" stroke="midnightblue" points="146.402,-91.0922 135.847,-92.0091 144.67,-97.8746 146.402,-91.0922"/>
</g>
<!-- Node4&#45;&gt;Node2 -->
<g id="edge6" class="edge"><title>Node4&#45;&gt;Node2</title>
<path fill="none" stroke="midnightblue" d="M374.094,-72.9474C384.233,-70.7824 395.272,-68.6159 405.526,-67 572.546,-40.6818 773.785,-24.9334 857.276,-19.0958"/>
<polygon fill="midnightblue" stroke="midnightblue" points="857.595,-22.5822 867.33,-18.4012 857.113,-15.5988 857.595,-22.5822"/>
</g>
<!-- Node6 -->
<g id="node7" class="node"><title>Node6</title>
<polygon fill="white" stroke="#bfbfbf" points="78.026,-6 78.026,-25 127.026,-25 127.026,-6 78.026,-6"/>
<text text-anchor="middle" x="102.526" y="-13" font-family="Helvetica,sans-Serif" font-size="10.00">stdint.h</text>
</g>
<!-- Node5&#45;&gt;Node6 -->
<g id="edge8" class="edge"><title>Node5&#45;&gt;Node6</title>
<path fill="none" stroke="midnightblue" d="M102.526,-72.7338C102.526,-63.1826 102.526,-47.6183 102.526,-35.2829"/>
<polygon fill="midnightblue" stroke="midnightblue" points="106.026,-35.1273 102.526,-25.1273 99.0261,-35.1273 106.026,-35.1273"/>
</g>
<!-- Node7&#45;&gt;Node2 -->
<g id="edge10" class="edge"><title>Node7&#45;&gt;Node2</title>
<path fill="none" stroke="midnightblue" d="M523.859,-134.405C523.144,-118.495 524.136,-84.4908 543.526,-67 588.996,-25.983 774.992,-18.2021 857.172,-16.7839"/>
<polygon fill="midnightblue" stroke="midnightblue" points="857.413,-20.2808 867.36,-16.6318 857.309,-13.2816 857.413,-20.2808"/>
</g>
<!-- Node8 -->
<g id="node9" class="node"><title>Node8</title>
<polygon fill="white" stroke="#bfbfbf" points="414.526,-73 414.526,-92 496.526,-92 496.526,-73 414.526,-73"/>
<text text-anchor="middle" x="455.526" y="-80" font-family="Helvetica,sans-Serif" font-size="10.00">NeoPixelBus.h</text>
</g>
<!-- Node7&#45;&gt;Node8 -->
<g id="edge11" class="edge"><title>Node7&#45;&gt;Node8</title>
<path fill="none" stroke="midnightblue" d="M514.64,-134.475C503.88,-125.197 486.455,-110.171 473.305,-98.831"/>
<polygon fill="midnightblue" stroke="midnightblue" points="475.253,-95.889 465.394,-92.0091 470.681,-101.19 475.253,-95.889"/>
</g>
<!-- Node9&#45;&gt;Node2 -->
<g id="edge13" class="edge"><title>Node9&#45;&gt;Node2</title>
<path fill="none" stroke="midnightblue" d="M726.565,-134.376C747.095,-126.459 776.955,-113.608 800.526,-98 817.576,-86.7101 819.037,-80.3513 834.526,-67 848.709,-54.775 865.157,-41.414 877.546,-31.5074"/>
<polygon fill="midnightblue" stroke="midnightblue" points="879.754,-34.2237 885.397,-25.2573 875.394,-28.7472 879.754,-34.2237"/>
</g>
<!-- Node10 -->
<g id="node11" class="node"><title>Node10</title>
<polygon fill="white" stroke="#bfbfbf" points="553.026,-73 553.026,-92 612.026,-92 612.026,-73 553.026,-73"/>
<text text-anchor="middle" x="582.526" y="-80" font-family="Helvetica,sans-Serif" font-size="10.00">TimeLib.h</text>
</g>
<!-- Node9&#45;&gt;Node10 -->
<g id="edge14" class="edge"><title>Node9&#45;&gt;Node10</title>
<path fill="none" stroke="midnightblue" d="M685.333,-134.475C665.283,-124.534 631.927,-107.995 608.666,-96.461"/>
<polygon fill="midnightblue" stroke="midnightblue" points="610.201,-93.3157 599.687,-92.0091 607.092,-99.5871 610.201,-93.3157"/>
</g>
<!-- Node11 -->
<g id="node12" class="node"><title>Node11</title>
<polygon fill="white" stroke="#bfbfbf" points="630.026,-73 630.026,-92 693.026,-92 693.026,-73 630.026,-73"/>
<text text-anchor="middle" x="661.526" y="-80" font-family="Helvetica,sans-Serif" font-size="10.00">WiFiUdp.h</text>
</g>
<!-- Node9&#45;&gt;Node11 -->
<g id="edge15" class="edge"><title>Node9&#45;&gt;Node11</title>
<path fill="none" stroke="midnightblue" d="M696.652,-134.475C690.563,-125.638 680.881,-111.589 673.223,-100.475"/>
<polygon fill="midnightblue" stroke="midnightblue" points="675.946,-98.2575 667.389,-92.0091 670.182,-102.229 675.946,-98.2575"/>
</g>
<!-- Node12 -->
<g id="node13" class="node"><title>Node12</title>
<polygon fill="white" stroke="#bfbfbf" points="711.026,-73 711.026,-92 792.026,-92 792.026,-73 711.026,-73"/>
<text text-anchor="middle" x="751.526" y="-80" font-family="Helvetica,sans-Serif" font-size="10.00">DS1337RTC.h</text>
</g>
<!-- Node9&#45;&gt;Node12 -->
<g id="edge16" class="edge"><title>Node9&#45;&gt;Node12</title>
<path fill="none" stroke="midnightblue" d="M709.547,-134.475C716.969,-125.462 728.859,-111.025 738.093,-99.8118"/>
<polygon fill="midnightblue" stroke="midnightblue" points="740.863,-101.953 744.519,-92.0091 735.46,-97.5034 740.863,-101.953"/>
</g>
<!-- Node13&#45;&gt;Node2 -->
<g id="edge18" class="edge"><title>Node13&#45;&gt;Node2</title>
<path fill="none" stroke="midnightblue" d="M1265.97,-134.466C1238.68,-126.244 1197.25,-112.888 1162.53,-98 1135.3,-86.3281 1131.23,-77.4774 1103.53,-67 1046.79,-45.5446 977.805,-30.8554 935.543,-23.0675"/>
<polygon fill="midnightblue" stroke="midnightblue" points="936.119,-19.6149 925.656,-21.2819 934.875,-26.5035 936.119,-19.6149"/>
</g>
<!-- Node14 -->
<g id="node15" class="node"><title>Node14</title>
<polygon fill="white" stroke="#bfbfbf" points="1478.53,-73 1478.53,-92 1564.53,-92 1564.53,-73 1478.53,-73"/>
<text text-anchor="middle" x="1521.53" y="-80" font-family="Helvetica,sans-Serif" font-size="10.00">ESP8266WiFi.h</text>
</g>
<!-- Node13&#45;&gt;Node14 -->
<g id="edge19" class="edge"><title>Node13&#45;&gt;Node14</title>
<path fill="none" stroke="midnightblue" d="M1329.26,-134.477C1364.35,-125.564 1420.86,-111.077 1469.53,-98 1473.39,-96.9626 1477.4,-95.8683 1481.42,-94.7649"/>
<polygon fill="midnightblue" stroke="midnightblue" points="1482.6,-98.0698 1491.31,-92.0306 1480.73,-91.3231 1482.6,-98.0698"/>
</g>
<!-- Node15 -->
<g id="node16" class="node"><title>Node15</title>
<g id="a_node16"><a xlink:href="../../d5/dfb/_cool_pub_sub_client_8h.html" target="_top" xlink:title="internals/CoolPubSubClient.h">
<polygon fill="white" stroke="black" points="1315.03,-73 1315.03,-92 1460.03,-92 1460.03,-73 1315.03,-73"/>
<text text-anchor="middle" x="1387.53" y="-80" font-family="Helvetica,sans-Serif" font-size="10.00">internals/CoolPubSubClient.h</text>
</a>
</g>
</g>
<!-- Node13&#45;&gt;Node15 -->
<g id="edge20" class="edge"><title>Node13&#45;&gt;Node15</title>
<path fill="none" stroke="midnightblue" d="M1308.71,-134.475C1323.6,-124.843 1348.07,-109.017 1365.8,-97.5517"/>
<polygon fill="midnightblue" stroke="midnightblue" points="1367.87,-100.379 1374.37,-92.0091 1364.07,-94.5008 1367.87,-100.379"/>
</g>
<!-- Node15&#45;&gt;Node2 -->
<g id="edge21" class="edge"><title>Node15&#45;&gt;Node2</title>
<path fill="none" stroke="midnightblue" d="M1341.62,-72.948C1329.88,-70.8789 1317.25,-68.7591 1305.53,-67 1170.15,-46.6866 1008.65,-28.5273 935.713,-20.6499"/>
<polygon fill="midnightblue" stroke="midnightblue" points="935.924,-17.1525 925.607,-19.5632 935.175,-24.1124 935.924,-17.1525"/>
</g>
<!-- Node16 -->
<g id="node17" class="node"><title>Node16</title>
<polygon fill="white" stroke="#bfbfbf" points="1462.03,-6 1462.03,-25 1533.03,-25 1533.03,-6 1462.03,-6"/>
<text text-anchor="middle" x="1497.53" y="-13" font-family="Helvetica,sans-Serif" font-size="10.00">IPAddress.h</text>
</g>
<!-- Node15&#45;&gt;Node16 -->
<g id="edge22" class="edge"><title>Node15&#45;&gt;Node16</title>
<path fill="none" stroke="midnightblue" d="M1402.36,-72.7338C1420.83,-61.8182 1452.6,-43.0487 1474.31,-30.2209"/>
<polygon fill="midnightblue" stroke="midnightblue" points="1476.1,-33.2279 1482.93,-25.1273 1472.54,-27.2014 1476.1,-33.2279"/>
</g>
<!-- Node17 -->
<g id="node18" class="node"><title>Node17</title>
<polygon fill="white" stroke="#bfbfbf" points="1319.53,-6 1319.53,-25 1369.53,-25 1369.53,-6 1319.53,-6"/>
<text text-anchor="middle" x="1344.53" y="-13" font-family="Helvetica,sans-Serif" font-size="10.00">Client.h</text>
</g>
<!-- Node15&#45;&gt;Node17 -->
<g id="edge23" class="edge"><title>Node15&#45;&gt;Node17</title>
<path fill="none" stroke="midnightblue" d="M1381.73,-72.7338C1375.15,-62.7928 1364.26,-46.3377 1355.96,-33.7892"/>
<polygon fill="midnightblue" stroke="midnightblue" points="1358.67,-31.5364 1350.23,-25.1273 1352.83,-35.3986 1358.67,-31.5364"/>
</g>
<!-- Node18 -->
<g id="node19" class="node"><title>Node18</title>
<polygon fill="white" stroke="#bfbfbf" points="1387.53,-6 1387.53,-25 1443.53,-25 1443.53,-6 1387.53,-6"/>
<text text-anchor="middle" x="1415.53" y="-13" font-family="Helvetica,sans-Serif" font-size="10.00">Stream.h</text>
</g>
<!-- Node15&#45;&gt;Node18 -->
<g id="edge24" class="edge"><title>Node15&#45;&gt;Node18</title>
<path fill="none" stroke="midnightblue" d="M1391.3,-72.7338C1395.5,-62.9877 1402.4,-46.9805 1407.76,-34.5318"/>
<polygon fill="midnightblue" stroke="midnightblue" points="1411.07,-35.6961 1411.81,-25.1273 1404.64,-32.9267 1411.07,-35.6961"/>
</g>
<!-- Node19&#45;&gt;Node2 -->
<g id="edge26" class="edge"><title>Node19&#45;&gt;Node2</title>
<path fill="none" stroke="midnightblue" d="M896.526,-134.305C896.526,-113.994 896.526,-63.0532 896.526,-35.2768"/>
<polygon fill="midnightblue" stroke="midnightblue" points="900.026,-35.2557 896.526,-25.2557 893.026,-35.2557 900.026,-35.2557"/>
</g>
<!-- Node20&#45;&gt;Node2 -->
<g id="edge30" class="edge"><title>Node20&#45;&gt;Node2</title>
<path fill="none" stroke="midnightblue" d="M972.89,-134.305C959.49,-113.633 925.522,-61.2323 907.752,-33.8176"/>
<polygon fill="midnightblue" stroke="midnightblue" points="910.578,-31.7432 902.202,-25.2557 904.704,-35.5508 910.578,-31.7432"/>
</g>
<!-- Node21 -->
<g id="node22" class="node"><title>Node21</title>
<g id="a_node22"><a xlink:href="../../df/d06/_cool_adafruit___a_d_s1015_8h.html" target="_top" xlink:title="internals/CoolAdafruit\l_ADS1015.h">
<polygon fill="white" stroke="black" points="962.526,-67.5 962.526,-97.5 1072.53,-97.5 1072.53,-67.5 962.526,-67.5"/>
<text text-anchor="start" x="970.526" y="-85.5" font-family="Helvetica,sans-Serif" font-size="10.00">internals/CoolAdafruit</text>
<text text-anchor="middle" x="1017.53" y="-74.5" font-family="Helvetica,sans-Serif" font-size="10.00">_ADS1015.h</text>
</a>
</g>
</g>
<!-- Node20&#45;&gt;Node21 -->
<g id="edge28" class="edge"><title>Node20&#45;&gt;Node21</title>
<path fill="none" stroke="midnightblue" d="M984.114,-134.475C988.951,-127.094 996.173,-116.077 1002.67,-106.171"/>
<polygon fill="midnightblue" stroke="midnightblue" points="1005.78,-107.805 1008.33,-97.523 999.925,-103.968 1005.78,-107.805"/>
</g>
<!-- Node21&#45;&gt;Node2 -->
<g id="edge29" class="edge"><title>Node21&#45;&gt;Node2</title>
<path fill="none" stroke="midnightblue" d="M991.271,-67.396C970.51,-56.2433 941.726,-40.7812 921.347,-29.8336"/>
<polygon fill="midnightblue" stroke="midnightblue" points="922.828,-26.6561 912.362,-25.007 919.515,-32.8227 922.828,-26.6561"/>
</g>
<!-- Node22&#45;&gt;Node2 -->
<g id="edge32" class="edge"><title>Node22&#45;&gt;Node2</title>
<path fill="none" stroke="midnightblue" d="M1100.99,-134.38C1101.33,-118.733 1099.7,-85.5649 1081.53,-67 1043.21,-27.8466 977.711,-18.1625 935.81,-16.2399"/>
<polygon fill="midnightblue" stroke="midnightblue" points="935.807,-12.738 925.696,-15.9051 935.575,-19.7342 935.807,-12.738"/>
</g>
<!-- Node23 -->
<g id="node24" class="node"><title>Node23</title>
<g id="a_node24"><a xlink:href="../../d6/d20/_external_sensor_8h.html" target="_top" xlink:title="ExternalSensor Header File. ">
<polygon fill="white" stroke="black" points="1204.53,-73 1204.53,-92 1296.53,-92 1296.53,-73 1204.53,-73"/>
<text text-anchor="middle" x="1250.53" y="-80" font-family="Helvetica,sans-Serif" font-size="10.00">ExternalSensor.h</text>
</a>
</g>
</g>
<!-- Node22&#45;&gt;Node23 -->
<g id="edge33" class="edge"><title>Node22&#45;&gt;Node23</title>
<path fill="none" stroke="midnightblue" d="M1122.02,-134.475C1147.64,-124.313 1190.64,-107.256 1219.77,-95.6996"/>
<polygon fill="midnightblue" stroke="midnightblue" points="1221.07,-98.9497 1229.07,-92.0091 1218.49,-92.4429 1221.07,-98.9497"/>
</g>
<!-- Node23&#45;&gt;Node2 -->
<g id="edge36" class="edge"><title>Node23&#45;&gt;Node2</title>
<path fill="none" stroke="midnightblue" d="M1216.98,-72.9727C1208.38,-70.9032 1199.13,-68.7769 1190.53,-67 1099.81,-48.2685 992.333,-31.0592 935.805,-22.3894"/>
<polygon fill="midnightblue" stroke="midnightblue" points="936.272,-18.9202 925.858,-20.8715 935.216,-25.8401 936.272,-18.9202"/>
</g>
<!-- Node24 -->
<g id="node25" class="node"><title>Node24</title>
<g id="a_node25"><a xlink:href="../../d0/d08/_cool_n_d_i_r___i2_c_8h.html" target="_top" xlink:title="internals/CoolNDIR\l_I2C.h">
<polygon fill="white" stroke="black" points="1199.53,-0.5 1199.53,-30.5 1301.53,-30.5 1301.53,-0.5 1199.53,-0.5"/>
<text text-anchor="start" x="1207.53" y="-18.5" font-family="Helvetica,sans-Serif" font-size="10.00">internals/CoolNDIR</text>
<text text-anchor="middle" x="1250.53" y="-7.5" font-family="Helvetica,sans-Serif" font-size="10.00">_I2C.h</text>
</a>
</g>
</g>
<!-- Node23&#45;&gt;Node24 -->
<g id="edge34" class="edge"><title>Node23&#45;&gt;Node24</title>
<path fill="none" stroke="midnightblue" d="M1250.53,-72.7338C1250.53,-64.5406 1250.53,-51.9225 1250.53,-40.7136"/>
<polygon fill="midnightblue" stroke="midnightblue" points="1254.03,-40.589 1250.53,-30.589 1247.03,-40.5891 1254.03,-40.589"/>
</g>
<!-- Node25 -->
<g id="node26" class="node"><title>Node25</title>
<polygon fill="white" stroke="#bfbfbf" points="1075.03,-6 1075.03,-25 1182.03,-25 1182.03,-6 1075.03,-6"/>
<text text-anchor="middle" x="1128.53" y="-13" font-family="Helvetica,sans-Serif" font-size="10.00">DallasTemperature.h</text>
</g>
<!-- Node23&#45;&gt;Node25 -->
<g id="edge35" class="edge"><title>Node23&#45;&gt;Node25</title>
<path fill="none" stroke="midnightblue" d="M1234.33,-72.8685C1213.73,-61.8932 1177.93,-42.8243 1153.75,-29.9385"/>
<polygon fill="midnightblue" stroke="midnightblue" points="1155.26,-26.7804 1144.79,-25.1672 1151.97,-32.9583 1155.26,-26.7804"/>
</g>
<!-- Node26&#45;&gt;Node2 -->
<g id="edge38" class="edge"><title>Node26&#45;&gt;Node2</title>
<path fill="none" stroke="midnightblue" d="M1547.26,-141.12C1467.91,-136.062 1260.37,-120.975 1195.53,-98 1171.24,-89.3934 1170.44,-76.5994 1146.53,-67 1075.36,-38.4353 986.071,-25.4073 935.747,-19.9675"/>
<polygon fill="midnightblue" stroke="midnightblue" points="935.927,-16.4676 925.62,-18.919 935.206,-23.4303 935.927,-16.4676"/>
</g>
<!-- Node26&#45;&gt;Node14 -->
<g id="edge39" class="edge"><title>Node26&#45;&gt;Node14</title>
<path fill="none" stroke="midnightblue" d="M1570.36,-134.475C1561.64,-125.373 1547.62,-110.741 1536.84,-99.483"/>
<polygon fill="midnightblue" stroke="midnightblue" points="1539.12,-96.809 1529.68,-92.0091 1534.07,-101.651 1539.12,-96.809"/>
</g>
<!-- Node27 -->
<g id="node28" class="node"><title>Node27</title>
<polygon fill="white" stroke="#bfbfbf" points="1583.03,-73 1583.03,-92 1690.03,-92 1690.03,-73 1583.03,-73"/>
<text text-anchor="middle" x="1636.53" y="-80" font-family="Helvetica,sans-Serif" font-size="10.00">ESP8266WiFiMulti.h</text>
</g>
<!-- Node26&#45;&gt;Node27 -->
<g id="edge40" class="edge"><title>Node26&#45;&gt;Node27</title>
<path fill="none" stroke="midnightblue" d="M1586.84,-134.475C1595.71,-125.373 1609.97,-110.741 1620.95,-99.483"/>
<polygon fill="midnightblue" stroke="midnightblue" points="1623.76,-101.613 1628.23,-92.0091 1618.74,-96.7268 1623.76,-101.613"/>
</g>
<!-- Node28 -->
<g id="node29" class="node"><title>Node28</title>
<polygon fill="white" stroke="#bfbfbf" points="1708.03,-73 1708.03,-92 1783.03,-92 1783.03,-73 1708.03,-73"/>
<text text-anchor="middle" x="1745.53" y="-80" font-family="Helvetica,sans-Serif" font-size="10.00">DNSServer.h</text>
</g>
<!-- Node26&#45;&gt;Node28 -->
<g id="edge41" class="edge"><title>Node26&#45;&gt;Node28</title>
<path fill="none" stroke="midnightblue" d="M1602.45,-134.475C1631.22,-124.225 1679.68,-106.959 1712.13,-95.3994"/>
<polygon fill="midnightblue" stroke="midnightblue" points="1713.4,-98.6624 1721.64,-92.0091 1711.05,-92.0684 1713.4,-98.6624"/>
</g>
<!-- Node29 -->
<g id="node30" class="node"><title>Node29</title>
<polygon fill="white" stroke="#bfbfbf" points="1801.03,-73 1801.03,-92 1916.03,-92 1916.03,-73 1801.03,-73"/>
<text text-anchor="middle" x="1858.53" y="-80" font-family="Helvetica,sans-Serif" font-size="10.00">ESP8266WebServer.h</text>
</g>
<!-- Node26&#45;&gt;Node29 -->
<g id="edge42" class="edge"><title>Node26&#45;&gt;Node29</title>
<path fill="none" stroke="midnightblue" d="M1609.73,-136.53C1651.42,-127.865 1727.57,-111.964 1792.53,-98 1798.18,-96.7837 1804.11,-95.4977 1810,-94.2142"/>
<polygon fill="midnightblue" stroke="midnightblue" points="1810.78,-97.6255 1819.8,-92.0689 1809.28,-90.7872 1810.78,-97.6255"/>
</g>
<!-- Node30&#45;&gt;Node2 -->
<g id="edge44" class="edge"><title>Node30&#45;&gt;Node2</title>
<path fill="none" stroke="midnightblue" d="M217.874,-134.047C222.724,-117.541 235.546,-82.5818 260.526,-67 311.087,-35.4612 726.073,-21.2612 857.065,-17.536"/>
<polygon fill="midnightblue" stroke="midnightblue" points="857.526,-21.0246 867.424,-17.2465 857.33,-14.0273 857.526,-21.0246"/>
</g>
</g>
</svg>
