<?xml version="1.0" encoding="UTF-8" standalone="no"?>
<!DOCTYPE svg PUBLIC "-//W3C//DTD SVG 1.1//EN"
 "http://www.w3.org/Graphics/SVG/1.1/DTD/svg11.dtd">
<!-- Generated by graphviz version 2.38.0 (20140413.2041)
 -->
<!-- Title: CoolBoard.h Pages: 1 -->
<!--zoomable 274 -->
<svg id="main" version="1.1" xmlns="http://www.w3.org/2000/svg" xmlns:xlink="http://www.w3.org/1999/xlink" xml:space="preserve" onload="init(evt)">
<style type="text/css"><![CDATA[
.edge:hover path { stroke: red; }
.edge:hover polygon { stroke: red; fill: red; }
]]></style>
<script type="text/javascript"><![CDATA[
var edges = document.getElementsByTagName('g');
if (edges && edges.length) {
  for (var i=0;i<edges.length;i++) {
    if (edges[i].id.substr(0,4)=='edge') {
      edges[i].setAttribute('class','edge');
    }
  }
}
]]></script>
        <defs>
                <circle id="rim" cx="0" cy="0" r="7"/>
                <circle id="rim2" cx="0" cy="0" r="3.5"/>
                <g id="zoomPlus">
                        <use xlink:href="#rim" fill="#404040">
                                <set attributeName="fill" to="#808080" begin="zoomplus.mouseover" end="zoomplus.mouseout"/>
                        </use>
                        <path d="M-4,0h8M0,-4v8" fill="none" stroke="white" stroke-width="1.5" pointer-events="none"/>
                </g>
                <g id="zoomMin">
                        <use xlink:href="#rim" fill="#404040">
                                <set attributeName="fill" to="#808080" begin="zoomminus.mouseover" end="zoomminus.mouseout"/>
                        </use>
                        <path d="M-4,0h8" fill="none" stroke="white" stroke-width="1.5" pointer-events="none"/>
                </g>
                <g id="dirArrow">
                        <path fill="none" stroke="white" stroke-width="1.5" d="M0,-3.0v7 M-2.5,-0.5L0,-3.0L2.5,-0.5"/>
                </g>
               <g id="resetDef">
                       <use xlink:href="#rim2" fill="#404040">
                               <set attributeName="fill" to="#808080" begin="reset.mouseover" end="reset.mouseout"/>
                       </use>
               </g>
        </defs>

<script type="text/javascript">
var viewWidth = 1924;
var viewHeight = 274;
var sectionId = 'dynsection-0';
</script>
<script xlink:href="../../svgpan.js"/>
<svg id="graph" class="graph">
<g id="viewport">
<title>CoolBoard.h</title>
<polygon fill="white" stroke="none" points="-4,4 -4,-270 1920,-270 1920,4 -4,4"/>
<!-- Node0 -->
<g id="node1" class="node"><title>Node0</title>
<polygon fill="#bfbfbf" stroke="black" points="765.996,-246.5 765.996,-265.5 836.996,-265.5 836.996,-246.5 765.996,-246.5"/>
<text text-anchor="middle" x="801.496" y="-253.5" font-family="Helvetica,sans-Serif" font-size="10.00">CoolBoard.h</text>
</g>
<!-- Node1 -->
<g id="node2" class="node"><title>Node1</title>
<g id="a_node2"><a xlink:href="../../d9/d41/_cool_file_system_8h.html" target="_top" xlink:title="CoolFileSystem Header file. ">
<polygon fill="white" stroke="black" points="848.996,-190.5 848.996,-209.5 943.996,-209.5 943.996,-190.5 848.996,-190.5"/>
<text text-anchor="middle" x="896.496" y="-197.5" font-family="Helvetica,sans-Serif" font-size="10.00">CoolFileSystem.h</text>
</a>
</g>
</g>
<!-- Node0&#45;&gt;Node1 -->
<g id="edge1" class="edge"><title>Node0&#45;&gt;Node1</title>
<path fill="none" stroke="midnightblue" d="M816.76,-246.324C831.718,-237.822 854.751,-224.729 872.223,-214.797"/>
<polygon fill="midnightblue" stroke="midnightblue" points="874.307,-217.639 881.271,-209.655 870.848,-211.553 874.307,-217.639"/>
</g>
<!-- Node2 -->
<g id="node3" class="node"><title>Node2</title>
<polygon fill="white" stroke="#bfbfbf" points="867.496,-62 867.496,-81 925.496,-81 925.496,-62 867.496,-62"/>
<text text-anchor="middle" x="896.496" y="-69" font-family="Helvetica,sans-Serif" font-size="10.00">Arduino.h</text>
</g>
<!-- Node0&#45;&gt;Node2 -->
<g id="edge47" class="edge"><title>Node0&#45;&gt;Node2</title>
<path fill="none" stroke="midnightblue" d="M765.943,-254.679C598.815,-252.579 -96.1622,-236.977 11.4964,-123 40.9169,-91.8528 689.022,-76.6779 857.015,-73.2592"/>
<polygon fill="midnightblue" stroke="midnightblue" points="857.222,-76.7558 867.15,-73.0554 857.082,-69.7572 857.222,-76.7558"/>
</g>
<!-- Node3 -->
<g id="node4" class="node"><title>Node3</title>
<g id="a_node4"><a xlink:href="../../d7/df3/_cool_board_sensors_8h.html" target="_top" xlink:title="CoolBoardSensors Header file. ">
<polygon fill="white" stroke="black" points="281.996,-190.5 281.996,-209.5 388.996,-209.5 388.996,-190.5 281.996,-190.5"/>
<text text-anchor="middle" x="335.496" y="-197.5" font-family="Helvetica,sans-Serif" font-size="10.00">CoolBoardSensors.h</text>
</a>
</g>
</g>
<!-- Node0&#45;&gt;Node3 -->
<g id="edge3" class="edge"><title>Node0&#45;&gt;Node3</title>
<path fill="none" stroke="midnightblue" d="M765.704,-250.852C687.176,-241.753 498.871,-219.932 399.46,-208.412"/>
<polygon fill="midnightblue" stroke="midnightblue" points="399.585,-204.903 389.248,-207.229 398.779,-211.857 399.585,-204.903"/>
</g>
<!-- Node7 -->
<g id="node8" class="node"><title>Node7</title>
<g id="a_node8"><a xlink:href="../../d0/da6/_cool_board_led_8h.html" target="_top" xlink:title="CoolBoardLed Header file. ">
<polygon fill="white" stroke="black" points="481.496,-190.5 481.496,-209.5 567.496,-209.5 567.496,-190.5 481.496,-190.5"/>
<text text-anchor="middle" x="524.496" y="-197.5" font-family="Helvetica,sans-Serif" font-size="10.00">CoolBoardLed.h</text>
</a>
</g>
</g>
<!-- Node0&#45;&gt;Node7 -->
<g id="edge9" class="edge"><title>Node0&#45;&gt;Node7</title>
<path fill="none" stroke="midnightblue" d="M765.851,-248.051C718.118,-238.746 633.045,-222.161 577.711,-211.374"/>
<polygon fill="midnightblue" stroke="midnightblue" points="578.226,-207.909 567.741,-209.43 576.886,-214.779 578.226,-207.909"/>
</g>
<!-- Node9 -->
<g id="node10" class="node"><title>Node9</title>
<g id="a_node10"><a xlink:href="../../d4/daa/_cool_time_8h.html" target="_top" xlink:title="CoolTime Header file. ">
<polygon fill="white" stroke="black" points="686.996,-190.5 686.996,-209.5 753.996,-209.5 753.996,-190.5 686.996,-190.5"/>
<text text-anchor="middle" x="720.496" y="-197.5" font-family="Helvetica,sans-Serif" font-size="10.00">CoolTime.h</text>
</a>
</g>
</g>
<!-- Node0&#45;&gt;Node9 -->
<g id="edge12" class="edge"><title>Node0&#45;&gt;Node9</title>
<path fill="none" stroke="midnightblue" d="M788.482,-246.324C775.965,-237.979 756.815,-225.212 742.025,-215.352"/>
<polygon fill="midnightblue" stroke="midnightblue" points="743.74,-212.289 733.478,-209.655 739.857,-218.114 743.74,-212.289"/>
</g>
<!-- Node13 -->
<g id="node14" class="node"><title>Node13</title>
<g id="a_node14"><a xlink:href="../../de/d2e/_cool_m_q_t_t_8h.html" target="_top" xlink:title="CoolMQTT Header file. ">
<polygon fill="white" stroke="black" points="1259,-190.5 1259,-209.5 1332,-209.5 1332,-190.5 1259,-190.5"/>
<text text-anchor="middle" x="1295.5" y="-197.5" font-family="Helvetica,sans-Serif" font-size="10.00">CoolMQTT.h</text>
</a>
</g>
</g>
<!-- Node0&#45;&gt;Node13 -->
<g id="edge17" class="edge"><title>Node0&#45;&gt;Node13</title>
<path fill="none" stroke="midnightblue" d="M837.024,-251.116C924.539,-241.55 1150.51,-216.849 1248.74,-206.111"/>
<polygon fill="midnightblue" stroke="midnightblue" points="1249.4,-209.56 1258.96,-204.994 1248.64,-202.602 1249.4,-209.56"/>
</g>
<!-- Node19 -->
<g id="node20" class="node"><title>Node19</title>
<g id="a_node20"><a xlink:href="../../db/d6c/_jetpack_8h.html" target="_top" xlink:title="Jetpack Header file. ">
<polygon fill="white" stroke="black" points="771.996,-190.5 771.996,-209.5 830.996,-209.5 830.996,-190.5 771.996,-190.5"/>
<text text-anchor="middle" x="801.496" y="-197.5" font-family="Helvetica,sans-Serif" font-size="10.00">Jetpack.h</text>
</a>
</g>
</g>
<!-- Node0&#45;&gt;Node19 -->
<g id="edge25" class="edge"><title>Node0&#45;&gt;Node19</title>
<path fill="none" stroke="midnightblue" d="M801.496,-246.083C801.496,-239.006 801.496,-228.861 801.496,-219.986"/>
<polygon fill="midnightblue" stroke="midnightblue" points="804.996,-219.751 801.496,-209.751 797.996,-219.751 804.996,-219.751"/>
</g>
<!-- Node20 -->
<g id="node21" class="node"><title>Node20</title>
<g id="a_node21"><a xlink:href="../../d7/d31/_irene3000_8h.html" target="_top" xlink:title="Irene3000 Header file. ">
<polygon fill="white" stroke="black" points="962.496,-190.5 962.496,-209.5 1030.5,-209.5 1030.5,-190.5 962.496,-190.5"/>
<text text-anchor="middle" x="996.496" y="-197.5" font-family="Helvetica,sans-Serif" font-size="10.00">Irene3000.h</text>
</a>
</g>
</g>
<!-- Node0&#45;&gt;Node20 -->
<g id="edge27" class="edge"><title>Node0&#45;&gt;Node20</title>
<path fill="none" stroke="midnightblue" d="M832.395,-246.444C865.77,-237.201 919.09,-222.436 955.845,-212.257"/>
<polygon fill="midnightblue" stroke="midnightblue" points="957.039,-215.558 965.743,-209.516 955.171,-208.812 957.039,-215.558"/>
</g>
<!-- Node22 -->
<g id="node23" class="node"><title>Node22</title>
<g id="a_node23"><a xlink:href="../../d7/dcc/_external_sensors_8h.html" target="_top" xlink:title="ExternalSensors header file. ">
<polygon fill="white" stroke="black" points="1052,-190.5 1052,-209.5 1149,-209.5 1149,-190.5 1052,-190.5"/>
<text text-anchor="middle" x="1100.5" y="-197.5" font-family="Helvetica,sans-Serif" font-size="10.00">ExternalSensors.h</text>
</a>
</g>
</g>
<!-- Node0&#45;&gt;Node22 -->
<g id="edge31" class="edge"><title>Node0&#45;&gt;Node22</title>
<path fill="none" stroke="midnightblue" d="M837.266,-248.54C888.259,-239.331 982.393,-222.33 1043.18,-211.352"/>
<polygon fill="midnightblue" stroke="midnightblue" points="1044.16,-214.731 1053.38,-209.509 1042.92,-207.843 1044.16,-214.731"/>
</g>
<!-- Node28 -->
<g id="node29" class="node"><title>Node28</title>
<g id="a_node29"><a xlink:href="../../dc/d38/_cool_wifi_8h.html" target="_top" xlink:title="CoolWifi Header file. ">
<polygon fill="white" stroke="black" points="1547.5,-190.5 1547.5,-209.5 1609.5,-209.5 1609.5,-190.5 1547.5,-190.5"/>
<text text-anchor="middle" x="1578.5" y="-197.5" font-family="Helvetica,sans-Serif" font-size="10.00">CoolWifi.h</text>
</a>
</g>
</g>
<!-- Node0&#45;&gt;Node28 -->
<g id="edge39" class="edge"><title>Node0&#45;&gt;Node28</title>
<path fill="none" stroke="midnightblue" d="M837.158,-252.522C965.098,-243.63 1400.65,-213.36 1537.2,-203.87"/>
<polygon fill="midnightblue" stroke="midnightblue" points="1537.52,-207.356 1547.26,-203.171 1537.04,-200.373 1537.52,-207.356"/>
</g>
<!-- Node32 -->
<g id="node33" class="node"><title>Node32</title>
<g id="a_node33"><a xlink:href="../../d1/d25/_cool_board_actor_8h.html" target="_top" xlink:title="CoolBoardActor Header file. ">
<polygon fill="white" stroke="black" points="168.496,-190.5 168.496,-209.5 262.496,-209.5 262.496,-190.5 168.496,-190.5"/>
<text text-anchor="middle" x="215.496" y="-197.5" font-family="Helvetica,sans-Serif" font-size="10.00">CoolBoardActor.h</text>
</a>
</g>
</g>
<!-- Node0&#45;&gt;Node32 -->
<g id="edge45" class="edge"><title>Node0&#45;&gt;Node32</title>
<path fill="none" stroke="midnightblue" d="M765.803,-252.851C681.849,-247.607 465.133,-232.964 272.749,-209.935"/>
<polygon fill="midnightblue" stroke="midnightblue" points="273.085,-206.45 262.737,-208.726 272.246,-213.4 273.085,-206.45"/>
</g>
<!-- Node1&#45;&gt;Node2 -->
<g id="edge2" class="edge"><title>Node1&#45;&gt;Node2</title>
<path fill="none" stroke="midnightblue" d="M896.496,-190.305C896.496,-169.994 896.496,-119.053 896.496,-91.2768"/>
<polygon fill="midnightblue" stroke="midnightblue" points="899.996,-91.2557 896.496,-81.2557 892.996,-91.2557 899.996,-91.2557"/>
</g>
<!-- Node3&#45;&gt;Node2 -->
<g id="edge4" class="edge"><title>Node3&#45;&gt;Node2</title>
<path fill="none" stroke="midnightblue" d="M313.038,-190.382C297.727,-183.184 278.633,-171.288 269.496,-154 263.059,-141.819 260.153,-133.126 269.496,-123 309.379,-79.7764 726.102,-73.5379 857.226,-72.6462"/>
<polygon fill="midnightblue" stroke="midnightblue" points="857.26,-76.1462 867.238,-72.5849 857.217,-69.1463 857.26,-76.1462"/>
</g>
<!-- Node4 -->
<g id="node5" class="node"><title>Node4</title>
<g id="a_node5"><a xlink:href="../../d1/dd7/_cool_s_i114_x_8h.html" target="_top" xlink:title="internals/CoolSI114X.h">
<polygon fill="white" stroke="black" points="278.996,-129 278.996,-148 395.996,-148 395.996,-129 278.996,-129"/>
<text text-anchor="middle" x="337.496" y="-136" font-family="Helvetica,sans-Serif" font-size="10.00">internals/CoolSI114X.h</text>
</a>
</g>
</g>
<!-- Node3&#45;&gt;Node4 -->
<g id="edge5" class="edge"><title>Node3&#45;&gt;Node4</title>
<path fill="none" stroke="midnightblue" d="M335.783,-190.475C336.065,-182.08 336.505,-168.981 336.869,-158.163"/>
<polygon fill="midnightblue" stroke="midnightblue" points="340.372,-158.121 337.21,-148.009 333.376,-157.886 340.372,-158.121"/>
</g>
<!-- Node5 -->
<g id="node6" class="node"><title>Node5</title>
<g id="a_node6"><a xlink:href="../../d2/d3a/_cool_spark_fun_b_m_e280_8h.html" target="_top" xlink:title="internals/CoolSparkFunBME280.h">
<polygon fill="white" stroke="black" points="20.4964,-129 20.4964,-148 184.496,-148 184.496,-129 20.4964,-129"/>
<text text-anchor="middle" x="102.496" y="-136" font-family="Helvetica,sans-Serif" font-size="10.00">internals/CoolSparkFunBME280.h</text>
</a>
</g>
</g>
<!-- Node3&#45;&gt;Node5 -->
<g id="edge7" class="edge"><title>Node3&#45;&gt;Node5</title>
<path fill="none" stroke="midnightblue" d="M302.113,-190.475C260.934,-179.959 190.847,-162.062 145.627,-150.514"/>
<polygon fill="midnightblue" stroke="midnightblue" points="146.373,-147.092 135.818,-148.009 144.641,-153.875 146.373,-147.092"/>
</g>
<!-- Node4&#45;&gt;Node2 -->
<g id="edge6" class="edge"><title>Node4&#45;&gt;Node2</title>
<path fill="none" stroke="midnightblue" d="M374.064,-128.947C384.203,-126.782 395.242,-124.616 405.496,-123 572.517,-96.6818 773.755,-80.9334 857.246,-75.0958"/>
<polygon fill="midnightblue" stroke="midnightblue" points="857.566,-78.5822 867.301,-74.4012 857.083,-71.5988 857.566,-78.5822"/>
</g>
<!-- Node6 -->
<g id="node7" class="node"><title>Node6</title>
<polygon fill="white" stroke="#bfbfbf" points="77.9964,-62 77.9964,-81 126.996,-81 126.996,-62 77.9964,-62"/>
<text text-anchor="middle" x="102.496" y="-69" font-family="Helvetica,sans-Serif" font-size="10.00">stdint.h</text>
</g>
<!-- Node5&#45;&gt;Node6 -->
<g id="edge8" class="edge"><title>Node5&#45;&gt;Node6</title>
<path fill="none" stroke="midnightblue" d="M102.496,-128.734C102.496,-119.183 102.496,-103.618 102.496,-91.2829"/>
<polygon fill="midnightblue" stroke="midnightblue" points="105.996,-91.1273 102.496,-81.1273 98.9965,-91.1273 105.996,-91.1273"/>
</g>
<!-- Node7&#45;&gt;Node2 -->
<g id="edge10" class="edge"><title>Node7&#45;&gt;Node2</title>
<path fill="none" stroke="midnightblue" d="M523.83,-190.405C523.114,-174.495 524.107,-140.491 543.496,-123 588.966,-81.983 774.962,-74.2021 857.142,-72.7839"/>
<polygon fill="midnightblue" stroke="midnightblue" points="857.384,-76.2808 867.33,-72.6318 857.279,-69.2816 857.384,-76.2808"/>
</g>
<!-- Node8 -->
<g id="node9" class="node"><title>Node8</title>
<polygon fill="white" stroke="#bfbfbf" points="414.496,-129 414.496,-148 496.496,-148 496.496,-129 414.496,-129"/>
<text text-anchor="middle" x="455.496" y="-136" font-family="Helvetica,sans-Serif" font-size="10.00">NeoPixelBus.h</text>
</g>
<!-- Node7&#45;&gt;Node8 -->
<g id="edge11" class="edge"><title>Node7&#45;&gt;Node8</title>
<path fill="none" stroke="midnightblue" d="M514.61,-190.475C503.85,-181.197 486.425,-166.171 473.275,-154.831"/>
<polygon fill="midnightblue" stroke="midnightblue" points="475.223,-151.889 465.364,-148.009 470.652,-157.19 475.223,-151.889"/>
</g>
<!-- Node9&#45;&gt;Node2 -->
<g id="edge13" class="edge"><title>Node9&#45;&gt;Node2</title>
<path fill="none" stroke="midnightblue" d="M738.358,-190.431C755.049,-182.087 780.349,-168.562 800.496,-154 817.07,-142.021 819.007,-136.351 834.496,-123 848.679,-110.775 865.127,-97.414 877.517,-87.5074"/>
<polygon fill="midnightblue" stroke="midnightblue" points="879.724,-90.2237 885.368,-81.2573 875.364,-84.7472 879.724,-90.2237"/>
</g>
<!-- Node10 -->
<g id="node11" class="node"><title>Node10</title>
<polygon fill="white" stroke="#bfbfbf" points="552.996,-129 552.996,-148 611.996,-148 611.996,-129 552.996,-129"/>
<text text-anchor="middle" x="582.496" y="-136" font-family="Helvetica,sans-Serif" font-size="10.00">TimeLib.h</text>
</g>
<!-- Node9&#45;&gt;Node10 -->
<g id="edge14" class="edge"><title>Node9&#45;&gt;Node10</title>
<path fill="none" stroke="midnightblue" d="M700.724,-190.475C677.36,-180.401 638.282,-163.553 611.493,-152.002"/>
<polygon fill="midnightblue" stroke="midnightblue" points="612.8,-148.754 602.232,-148.009 610.029,-155.182 612.8,-148.754"/>
</g>
<!-- Node11 -->
<g id="node12" class="node"><title>Node11</title>
<polygon fill="white" stroke="#bfbfbf" points="629.996,-129 629.996,-148 692.996,-148 692.996,-129 629.996,-129"/>
<text text-anchor="middle" x="661.496" y="-136" font-family="Helvetica,sans-Serif" font-size="10.00">WiFiUdp.h</text>
</g>
<!-- Node9&#45;&gt;Node11 -->
<g id="edge15" class="edge"><title>Node9&#45;&gt;Node11</title>
<path fill="none" stroke="midnightblue" d="M712.043,-190.475C702.93,-181.285 688.226,-166.456 677.021,-155.156"/>
<polygon fill="midnightblue" stroke="midnightblue" points="679.46,-152.646 669.934,-148.009 674.49,-157.574 679.46,-152.646"/>
</g>
<!-- Node12 -->
<g id="node13" class="node"><title>Node12</title>
<polygon fill="white" stroke="#bfbfbf" points="710.996,-129 710.996,-148 791.996,-148 791.996,-129 710.996,-129"/>
<text text-anchor="middle" x="751.496" y="-136" font-family="Helvetica,sans-Serif" font-size="10.00">DS1337RTC.h</text>
</g>
<!-- Node9&#45;&gt;Node12 -->
<g id="edge16" class="edge"><title>Node9&#45;&gt;Node12</title>
<path fill="none" stroke="midnightblue" d="M724.938,-190.475C729.45,-181.815 736.57,-168.149 742.303,-157.145"/>
<polygon fill="midnightblue" stroke="midnightblue" points="745.546,-158.495 747.063,-148.009 739.338,-155.26 745.546,-158.495"/>
</g>
<!-- Node13&#45;&gt;Node2 -->
<g id="edge18" class="edge"><title>Node13&#45;&gt;Node2</title>
<path fill="none" stroke="midnightblue" d="M1265.94,-190.466C1238.65,-182.244 1197.22,-168.888 1162.5,-154 1135.27,-142.328 1131.2,-133.477 1103.5,-123 1087.86,-117.088 991.112,-94.3492 935.586,-81.4924"/>
<polygon fill="midnightblue" stroke="midnightblue" points="936.257,-78.0555 925.726,-79.213 934.681,-84.8756 936.257,-78.0555"/>
</g>
<!-- Node14 -->
<g id="node15" class="node"><title>Node14</title>
<polygon fill="white" stroke="#bfbfbf" points="1478.5,-129 1478.5,-148 1564.5,-148 1564.5,-129 1478.5,-129"/>
<text text-anchor="middle" x="1521.5" y="-136" font-family="Helvetica,sans-Serif" font-size="10.00">ESP8266WiFi.h</text>
</g>
<!-- Node13&#45;&gt;Node14 -->
<g id="edge19" class="edge"><title>Node13&#45;&gt;Node14</title>
<path fill="none" stroke="midnightblue" d="M1329.23,-190.477C1364.32,-181.564 1420.83,-167.077 1469.5,-154 1473.36,-152.963 1477.38,-151.868 1481.39,-150.765"/>
<polygon fill="midnightblue" stroke="midnightblue" points="1482.57,-154.07 1491.28,-148.031 1480.71,-147.323 1482.57,-154.07"/>
</g>
<!-- Node15 -->
<g id="node16" class="node"><title>Node15</title>
<g id="a_node16"><a xlink:href="../../d5/dfb/_cool_pub_sub_client_8h.html" target="_top" xlink:title="internals/CoolPubSubClient.h">
<polygon fill="white" stroke="black" points="1315,-129 1315,-148 1460,-148 1460,-129 1315,-129"/>
<text text-anchor="middle" x="1387.5" y="-136" font-family="Helvetica,sans-Serif" font-size="10.00">internals/CoolPubSubClient.h</text>
</a>
</g>
</g>
<!-- Node13&#45;&gt;Node15 -->
<g id="edge20" class="edge"><title>Node13&#45;&gt;Node15</title>
<path fill="none" stroke="midnightblue" d="M1308.68,-190.475C1323.57,-180.843 1348.04,-165.017 1365.77,-153.552"/>
<polygon fill="midnightblue" stroke="midnightblue" points="1367.84,-156.379 1374.34,-148.009 1364.04,-150.501 1367.84,-156.379"/>
</g>
<!-- Node15&#45;&gt;Node2 -->
<g id="edge21" class="edge"><title>Node15&#45;&gt;Node2</title>
<path fill="none" stroke="midnightblue" d="M1342.47,-128.946C1330.48,-126.83 1317.52,-124.689 1305.5,-123 1152.83,-101.564 1112.61,-112.077 960.496,-87 952.345,-85.6562 943.676,-83.9102 935.437,-82.0978"/>
<polygon fill="midnightblue" stroke="midnightblue" points="936.192,-78.68 925.665,-79.8765 934.64,-85.5059 936.192,-78.68"/>
</g>
<!-- Node16 -->
<g id="node17" class="node"><title>Node16</title>
<polygon fill="white" stroke="#bfbfbf" points="1485,-62 1485,-81 1556,-81 1556,-62 1485,-62"/>
<text text-anchor="middle" x="1520.5" y="-69" font-family="Helvetica,sans-Serif" font-size="10.00">IPAddress.h</text>
</g>
<!-- Node15&#45;&gt;Node16 -->
<g id="edge22" class="edge"><title>Node15&#45;&gt;Node16</title>
<path fill="none" stroke="midnightblue" d="M1405.16,-128.869C1427.81,-117.796 1467.32,-98.4862 1493.7,-85.5978"/>
<polygon fill="midnightblue" stroke="midnightblue" points="1495.31,-88.7027 1502.76,-81.1672 1492.24,-82.4136 1495.31,-88.7027"/>
</g>
<!-- Node17 -->
<g id="node18" class="node"><title>Node17</title>
<polygon fill="white" stroke="#bfbfbf" points="1342.5,-62 1342.5,-81 1392.5,-81 1392.5,-62 1342.5,-62"/>
<text text-anchor="middle" x="1367.5" y="-69" font-family="Helvetica,sans-Serif" font-size="10.00">Client.h</text>
</g>
<!-- Node15&#45;&gt;Node17 -->
<g id="edge23" class="edge"><title>Node15&#45;&gt;Node17</title>
<path fill="none" stroke="midnightblue" d="M1384.8,-128.734C1381.83,-119.085 1376.97,-103.3 1373.16,-90.9063"/>
<polygon fill="midnightblue" stroke="midnightblue" points="1376.44,-89.6558 1370.15,-81.1273 1369.75,-91.7144 1376.44,-89.6558"/>
</g>
<!-- Node18 -->
<g id="node19" class="node"><title>Node18</title>
<polygon fill="white" stroke="#bfbfbf" points="1410.5,-62 1410.5,-81 1466.5,-81 1466.5,-62 1410.5,-62"/>
<text text-anchor="middle" x="1438.5" y="-69" font-family="Helvetica,sans-Serif" font-size="10.00">Stream.h</text>
</g>
<!-- Node15&#45;&gt;Node18 -->
<g id="edge24" class="edge"><title>Node15&#45;&gt;Node18</title>
<path fill="none" stroke="midnightblue" d="M1394.37,-128.734C1402.33,-118.598 1415.59,-101.69 1425.51,-89.0556"/>
<polygon fill="midnightblue" stroke="midnightblue" points="1428.31,-91.1552 1431.73,-81.1273 1422.8,-86.8342 1428.31,-91.1552"/>
</g>
<!-- Node19&#45;&gt;Node2 -->
<g id="edge26" class="edge"><title>Node19&#45;&gt;Node2</title>
<path fill="none" stroke="midnightblue" d="M808.026,-190.305C823.618,-169.543 863.247,-116.774 883.76,-89.4599"/>
<polygon fill="midnightblue" stroke="midnightblue" points="886.715,-91.3537 889.921,-81.2557 881.117,-87.1501 886.715,-91.3537"/>
</g>
<!-- Node20&#45;&gt;Node2 -->
<g id="edge30" class="edge"><title>Node20&#45;&gt;Node2</title>
<path fill="none" stroke="midnightblue" d="M987.514,-190.403C978.512,-181.608 964.455,-167.373 953.496,-154 936.297,-133.012 918.734,-107.078 907.735,-90.1807"/>
<polygon fill="midnightblue" stroke="midnightblue" points="910.426,-87.8952 902.07,-81.3817 904.54,-91.6845 910.426,-87.8952"/>
</g>
<!-- Node21 -->
<g id="node22" class="node"><title>Node21</title>
<g id="a_node22"><a xlink:href="../../df/d06/_cool_adafruit___a_d_s1015_8h.html" target="_top" xlink:title="internals/CoolAdafruit\l_ADS1015.h">
<polygon fill="white" stroke="black" points="962.496,-123.5 962.496,-153.5 1072.5,-153.5 1072.5,-123.5 962.496,-123.5"/>
<text text-anchor="start" x="970.496" y="-141.5" font-family="Helvetica,sans-Serif" font-size="10.00">internals/CoolAdafruit</text>
<text text-anchor="middle" x="1017.5" y="-130.5" font-family="Helvetica,sans-Serif" font-size="10.00">_ADS1015.h</text>
</a>
</g>
</g>
<!-- Node20&#45;&gt;Node21 -->
<g id="edge28" class="edge"><title>Node20&#45;&gt;Node21</title>
<path fill="none" stroke="midnightblue" d="M999.505,-190.475C1002.03,-183.32 1005.76,-172.748 1009.17,-163.084"/>
<polygon fill="midnightblue" stroke="midnightblue" points="1012.52,-164.118 1012.55,-153.523 1005.92,-161.788 1012.52,-164.118"/>
</g>
<!-- Node21&#45;&gt;Node2 -->
<g id="edge29" class="edge"><title>Node21&#45;&gt;Node2</title>
<path fill="none" stroke="midnightblue" d="M991.241,-123.396C970.48,-112.243 941.697,-96.7812 921.317,-85.8336"/>
<polygon fill="midnightblue" stroke="midnightblue" points="922.798,-82.6561 912.332,-81.007 919.486,-88.8227 922.798,-82.6561"/>
</g>
<!-- Node22&#45;&gt;Node2 -->
<g id="edge32" class="edge"><title>Node22&#45;&gt;Node2</title>
<path fill="none" stroke="midnightblue" d="M1100.96,-190.38C1101.3,-174.733 1099.67,-141.565 1081.5,-123 1076.29,-117.677 987.948,-95.1162 935.255,-82.0203"/>
<polygon fill="midnightblue" stroke="midnightblue" points="936.091,-78.6217 925.542,-79.6134 934.407,-85.4162 936.091,-78.6217"/>
</g>
<!-- Node23 -->
<g id="node24" class="node"><title>Node23</title>
<g id="a_node24"><a xlink:href="../../d6/d20/_external_sensor_8h.html" target="_top" xlink:title="ExternalSensor Header file. ">
<polygon fill="white" stroke="black" points="1204.5,-129 1204.5,-148 1296.5,-148 1296.5,-129 1204.5,-129"/>
<text text-anchor="middle" x="1250.5" y="-136" font-family="Helvetica,sans-Serif" font-size="10.00">ExternalSensor.h</text>
</a>
</g>
</g>
<!-- Node22&#45;&gt;Node23 -->
<g id="edge33" class="edge"><title>Node22&#45;&gt;Node23</title>
<path fill="none" stroke="midnightblue" d="M1121.99,-190.475C1147.61,-180.313 1190.61,-163.256 1219.74,-151.7"/>
<polygon fill="midnightblue" stroke="midnightblue" points="1221.04,-154.95 1229.04,-148.009 1218.46,-148.443 1221.04,-154.95"/>
</g>
<!-- Node23&#45;&gt;Node2 -->
<g id="edge38" class="edge"><title>Node23&#45;&gt;Node2</title>
<path fill="none" stroke="midnightblue" d="M1217.28,-128.96C1208.59,-126.868 1199.22,-124.734 1190.5,-123 1089.01,-102.831 1062.12,-106.442 960.496,-87 952.382,-85.4476 943.729,-83.6112 935.495,-81.7763"/>
<polygon fill="midnightblue" stroke="midnightblue" points="936.248,-78.3584 925.721,-79.558 934.699,-85.1847 936.248,-78.3584"/>
</g>
<!-- Node24 -->
<g id="node25" class="node"><title>Node24</title>
<g id="a_node25"><a xlink:href="../../d0/d08/_cool_n_d_i_r___i2_c_8h.html" target="_top" xlink:title="internals/CoolNDIR\l_I2C.h">
<polygon fill="white" stroke="black" points="969.496,-56.5 969.496,-86.5 1071.5,-86.5 1071.5,-56.5 969.496,-56.5"/>
<text text-anchor="start" x="977.496" y="-74.5" font-family="Helvetica,sans-Serif" font-size="10.00">internals/CoolNDIR</text>
<text text-anchor="middle" x="1020.5" y="-63.5" font-family="Helvetica,sans-Serif" font-size="10.00">_I2C.h</text>
</a>
</g>
</g>
<!-- Node23&#45;&gt;Node24 -->
<g id="edge34" class="edge"><title>Node23&#45;&gt;Node24</title>
<path fill="none" stroke="midnightblue" d="M1219.95,-128.869C1184.4,-118.819 1124.83,-101.985 1080.03,-89.3243"/>
<polygon fill="midnightblue" stroke="midnightblue" points="1080.71,-85.8796 1070.13,-86.5281 1078.81,-92.6158 1080.71,-85.8796"/>
</g>
<!-- Node25 -->
<g id="node26" class="node"><title>Node25</title>
<polygon fill="white" stroke="#bfbfbf" points="1089,-62 1089,-81 1196,-81 1196,-62 1089,-62"/>
<text text-anchor="middle" x="1142.5" y="-69" font-family="Helvetica,sans-Serif" font-size="10.00">DallasTemperature.h</text>
</g>
<!-- Node23&#45;&gt;Node25 -->
<g id="edge35" class="edge"><title>Node23&#45;&gt;Node25</title>
<path fill="none" stroke="midnightblue" d="M1235.93,-128.734C1217.88,-117.867 1186.89,-99.2161 1165.58,-86.3931"/>
<polygon fill="midnightblue" stroke="midnightblue" points="1167.2,-83.2852 1156.83,-81.1273 1163.59,-89.2827 1167.2,-83.2852"/>
</g>
<!-- Node26 -->
<g id="node27" class="node"><title>Node26</title>
<g id="a_node27"><a xlink:href="../../d3/d18/_cool_adafruit___t_c_s34725_8h.html" target="_top" xlink:title="internals/CoolAdafruit\l_TCS34725.h">
<polygon fill="white" stroke="black" points="1214.5,-56.5 1214.5,-86.5 1324.5,-86.5 1324.5,-56.5 1214.5,-56.5"/>
<text text-anchor="start" x="1222.5" y="-74.5" font-family="Helvetica,sans-Serif" font-size="10.00">internals/CoolAdafruit</text>
<text text-anchor="middle" x="1269.5" y="-63.5" font-family="Helvetica,sans-Serif" font-size="10.00">_TCS34725.h</text>
</a>
</g>
</g>
<!-- Node23&#45;&gt;Node26 -->
<g id="edge36" class="edge"><title>Node23&#45;&gt;Node26</title>
<path fill="none" stroke="midnightblue" d="M1253.06,-128.734C1255.48,-120.456 1259.22,-107.662 1262.52,-96.3674"/>
<polygon fill="midnightblue" stroke="midnightblue" points="1265.93,-97.1694 1265.38,-86.589 1259.21,-95.2054 1265.93,-97.1694"/>
</g>
<!-- Node27 -->
<g id="node28" class="node"><title>Node27</title>
<polygon fill="white" stroke="#bfbfbf" points="1234,-0.5 1234,-19.5 1305,-19.5 1305,-0.5 1234,-0.5"/>
<text text-anchor="middle" x="1269.5" y="-7.5" font-family="Helvetica,sans-Serif" font-size="10.00">WProgram.h</text>
</g>
<!-- Node26&#45;&gt;Node27 -->
<g id="edge37" class="edge"><title>Node26&#45;&gt;Node27</title>
<path fill="none" stroke="midnightblue" d="M1269.5,-56.3993C1269.5,-48.4664 1269.5,-38.458 1269.5,-29.8583"/>
<polygon fill="midnightblue" stroke="midnightblue" points="1273,-29.6577 1269.5,-19.6578 1266,-29.6578 1273,-29.6577"/>
</g>
<!-- Node28&#45;&gt;Node2 -->
<g id="edge40" class="edge"><title>Node28&#45;&gt;Node2</title>
<path fill="none" stroke="midnightblue" d="M1547.23,-197.12C1467.88,-192.062 1260.34,-176.975 1195.5,-154 1171.21,-145.393 1170.45,-132.502 1146.5,-123 1068.23,-91.9533 1042.9,-104.305 960.496,-87 952.411,-85.3021 943.771,-83.4027 935.54,-81.5521"/>
<polygon fill="midnightblue" stroke="midnightblue" points="936.292,-78.134 925.766,-79.3359 934.744,-84.9607 936.292,-78.134"/>
</g>
<!-- Node28&#45;&gt;Node14 -->
<g id="edge41" class="edge"><title>Node28&#45;&gt;Node14</title>
<path fill="none" stroke="midnightblue" d="M1570.33,-190.475C1561.61,-181.373 1547.59,-166.741 1536.81,-155.483"/>
<polygon fill="midnightblue" stroke="midnightblue" points="1539.09,-152.809 1529.65,-148.009 1534.04,-157.651 1539.09,-152.809"/>
</g>
<!-- Node29 -->
<g id="node30" class="node"><title>Node29</title>
<polygon fill="white" stroke="#bfbfbf" points="1583,-129 1583,-148 1690,-148 1690,-129 1583,-129"/>
<text text-anchor="middle" x="1636.5" y="-136" font-family="Helvetica,sans-Serif" font-size="10.00">ESP8266WiFiMulti.h</text>
</g>
<!-- Node28&#45;&gt;Node29 -->
<g id="edge42" class="edge"><title>Node28&#45;&gt;Node29</title>
<path fill="none" stroke="midnightblue" d="M1586.81,-190.475C1595.68,-181.373 1609.94,-166.741 1620.92,-155.483"/>
<polygon fill="midnightblue" stroke="midnightblue" points="1623.73,-157.613 1628.2,-148.009 1618.72,-152.727 1623.73,-157.613"/>
</g>
<!-- Node30 -->
<g id="node31" class="node"><title>Node30</title>
<polygon fill="white" stroke="#bfbfbf" points="1708,-129 1708,-148 1783,-148 1783,-129 1708,-129"/>
<text text-anchor="middle" x="1745.5" y="-136" font-family="Helvetica,sans-Serif" font-size="10.00">DNSServer.h</text>
</g>
<!-- Node28&#45;&gt;Node30 -->
<g id="edge43" class="edge"><title>Node28&#45;&gt;Node30</title>
<path fill="none" stroke="midnightblue" d="M1602.42,-190.475C1631.19,-180.225 1679.65,-162.959 1712.1,-151.399"/>
<polygon fill="midnightblue" stroke="midnightblue" points="1713.37,-154.662 1721.61,-148.009 1711.02,-148.068 1713.37,-154.662"/>
</g>
<!-- Node31 -->
<g id="node32" class="node"><title>Node31</title>
<polygon fill="white" stroke="#bfbfbf" points="1801,-129 1801,-148 1916,-148 1916,-129 1801,-129"/>
<text text-anchor="middle" x="1858.5" y="-136" font-family="Helvetica,sans-Serif" font-size="10.00">ESP8266WebServer.h</text>
</g>
<!-- Node28&#45;&gt;Node31 -->
<g id="edge44" class="edge"><title>Node28&#45;&gt;Node31</title>
<path fill="none" stroke="midnightblue" d="M1609.7,-192.53C1651.39,-183.865 1727.54,-167.964 1792.5,-154 1798.15,-152.784 1804.08,-151.498 1809.97,-150.214"/>
<polygon fill="midnightblue" stroke="midnightblue" points="1810.75,-153.625 1819.77,-148.069 1809.25,-146.787 1810.75,-153.625"/>
</g>
<!-- Node32&#45;&gt;Node2 -->
<g id="edge46" class="edge"><title>Node32&#45;&gt;Node2</title>
<path fill="none" stroke="midnightblue" d="M217.844,-190.047C222.694,-173.541 235.517,-138.582 260.496,-123 311.057,-91.4612 726.043,-77.2612 857.035,-73.536"/>
<polygon fill="midnightblue" stroke="midnightblue" points="857.496,-77.0246 867.395,-73.2465 857.301,-70.0273 857.496,-77.0246"/>
</g>
</g>
</svg>
        <g id="navigator" transform="translate(0 0)" fill="#404254">
                <rect fill="#f2f5e9" fill-opacity="0.5" stroke="#606060" stroke-width=".5" x="0" y="0" width="60" height="60"/>
                <use id="zoomplus" xlink:href="#zoomPlus" x="17" y="9" onmousedown="handleZoom(evt,'in')"/>
                <use id="zoomminus" xlink:href="#zoomMin" x="42" y="9" onmousedown="handleZoom(evt,'out')"/>
                <use id="reset" xlink:href="#resetDef" x="30" y="36" onmousedown="handleReset()"/>
                <g id="arrowUp" xlink:href="#dirArrow" transform="translate(30 24)" onmousedown="handlePan(0,-1)">
                  <use xlink:href="#rim" fill="#404040">
                        <set attributeName="fill" to="#808080" begin="arrowUp.mouseover" end="arrowUp.mouseout"/>
                  </use>
                  <path fill="none" stroke="white" stroke-width="1.5" d="M0,-3.0v7 M-2.5,-0.5L0,-3.0L2.5,-0.5"/>
                </g>
                <g id="arrowRight" xlink:href="#dirArrow" transform="rotate(90) translate(36 -43)" onmousedown="handlePan(1,0)">
                  <use xlink:href="#rim" fill="#404040">
                        <set attributeName="fill" to="#808080" begin="arrowRight.mouseover" end="arrowRight.mouseout"/>
                  </use>
                  <path fill="none" stroke="white" stroke-width="1.5" d="M0,-3.0v7 M-2.5,-0.5L0,-3.0L2.5,-0.5"/>
                </g>
                <g id="arrowDown" xlink:href="#dirArrow" transform="rotate(180) translate(-30 -48)" onmousedown="handlePan(0,1)">
                  <use xlink:href="#rim" fill="#404040">
                        <set attributeName="fill" to="#808080" begin="arrowDown.mouseover" end="arrowDown.mouseout"/>
                  </use>
                  <path fill="none" stroke="white" stroke-width="1.5" d="M0,-3.0v7 M-2.5,-0.5L0,-3.0L2.5,-0.5"/>
                </g>
                <g id="arrowLeft" xlink:href="#dirArrow" transform="rotate(270) translate(-36 17)" onmousedown="handlePan(-1,0)">
                  <use xlink:href="#rim" fill="#404040">
                        <set attributeName="fill" to="#808080" begin="arrowLeft.mouseover" end="arrowLeft.mouseout"/>
                  </use>
                  <path fill="none" stroke="white" stroke-width="1.5" d="M0,-3.0v7 M-2.5,-0.5L0,-3.0L2.5,-0.5"/>
                </g>
        </g>
        <svg viewBox="0 0 15 15" width="100%" height="30px" preserveAspectRatio="xMaxYMin meet">
         <g id="arrow_out" transform="scale(0.3 0.3)">
          <a xlink:href="_cool_board_8h__incl_org.svg" target="_base">
           <rect id="button" ry="5" rx="5" y="6" x="6" height="38" width="38"
                fill="#f2f5e9" fill-opacity="0.5" stroke="#606060" stroke-width="1.0"/>
           <path id="arrow"
             d="M 11.500037,31.436501 C 11.940474,20.09759 22.043105,11.32322 32.158766,21.979434 L 37.068811,17.246167 C 37.068811,17.246167 37.088388,32 37.088388,32 L 22.160133,31.978069 C 22.160133,31.978069 26.997745,27.140456 26.997745,27.140456 C 18.528582,18.264221 13.291696,25.230495 11.500037,31.436501 z"
             style="fill:#404040;"/>
          </a>
         </g>
        </svg>
</svg>
