<?xml version="1.0" encoding="UTF-8" standalone="no"?>
<!DOCTYPE svg PUBLIC "-//W3C//DTD SVG 1.1//EN"
 "http://www.w3.org/Graphics/SVG/1.1/DTD/svg11.dtd">
<!-- Generated by graphviz version 2.38.0 (20140413.2041)
 -->
<!-- Title: Irene3000::calcpHSlope Pages: 1 -->
<svg width="538pt" height="66pt"
 viewBox="0.00 0.00 538.00 66.00" xmlns="http://www.w3.org/2000/svg" xmlns:xlink="http://www.w3.org/1999/xlink">
<g id="graph0" class="graph" transform="scale(1 1) rotate(0) translate(4 62)">
<title>Irene3000::calcpHSlope</title>
<polygon fill="white" stroke="none" points="-4,4 -4,-62 534,-62 534,4 -4,4"/>
<!-- Node130 -->
<g id="node1" class="node"><title>Node130</title>
<polygon fill="#bfbfbf" stroke="black" points="0,-19.5 0,-38.5 121,-38.5 121,-19.5 0,-19.5"/>
<text text-anchor="middle" x="60.5" y="-26.5" font-family="Helvetica,sans-Serif" font-size="10.00">Irene3000::calcpHSlope</text>
</g>
<!-- Node131 -->
<g id="node2" class="node"><title>Node131</title>
<g id="a_node2"><a xlink:href="../../d6/d03/class_irene3000.html#aa140dd026922a04981edfd04d46cabbe" target="_top" xlink:title="Irene3000::calibratepH4">
<polygon fill="white" stroke="black" points="157,-38.5 157,-57.5 277,-57.5 277,-38.5 157,-38.5"/>
<text text-anchor="middle" x="217" y="-45.5" font-family="Helvetica,sans-Serif" font-size="10.00">Irene3000::calibratepH4</text>
</a>
</g>
</g>
<!-- Node130&#45;&gt;Node131 -->
<g id="edge1" class="edge"><title>Node130&#45;&gt;Node131</title>
<path fill="none" stroke="midnightblue" d="M131.23,-37.5752C139.816,-38.6311 148.527,-39.7024 156.934,-40.7362"/>
<polygon fill="midnightblue" stroke="midnightblue" points="131.586,-34.0927 121.234,-36.3459 130.732,-41.0404 131.586,-34.0927"/>
</g>
<!-- Node134 -->
<g id="node5" class="node"><title>Node134</title>
<g id="a_node5"><a xlink:href="../../d6/d03/class_irene3000.html#a1d3299202e4cb7afcff9c9e3e95d94c1" target="_top" xlink:title="Irene3000::calibratepH7">
<polygon fill="white" stroke="black" points="157,-0.5 157,-19.5 277,-19.5 277,-0.5 157,-0.5"/>
<text text-anchor="middle" x="217" y="-7.5" font-family="Helvetica,sans-Serif" font-size="10.00">Irene3000::calibratepH7</text>
</a>
</g>
</g>
<!-- Node130&#45;&gt;Node134 -->
<g id="edge4" class="edge"><title>Node130&#45;&gt;Node134</title>
<path fill="none" stroke="midnightblue" d="M131.23,-20.4248C139.816,-19.3689 148.527,-18.2976 156.934,-17.2638"/>
<polygon fill="midnightblue" stroke="midnightblue" points="130.732,-16.9596 121.234,-21.6541 131.586,-23.9073 130.732,-16.9596"/>
</g>
<!-- Node132 -->
<g id="node3" class="node"><title>Node132</title>
<g id="a_node3"><a xlink:href="../../d6/d03/class_irene3000.html#ad5891806c500ae1007afe52b9e304c2b" target="_top" xlink:title="Irene3000::begin">
<polygon fill="white" stroke="black" points="313,-19.5 313,-38.5 402,-38.5 402,-19.5 313,-19.5"/>
<text text-anchor="middle" x="357.5" y="-26.5" font-family="Helvetica,sans-Serif" font-size="10.00">Irene3000::begin</text>
</a>
</g>
</g>
<!-- Node131&#45;&gt;Node132 -->
<g id="edge2" class="edge"><title>Node131&#45;&gt;Node132</title>
<path fill="none" stroke="midnightblue" d="M287.252,-38.4997C295.896,-37.3139 304.539,-36.1282 312.644,-35.0164"/>
<polygon fill="midnightblue" stroke="midnightblue" points="286.57,-35.0605 277.138,-39.8872 287.521,-41.9955 286.57,-35.0605"/>
</g>
<!-- Node133 -->
<g id="node4" class="node"><title>Node133</title>
<g id="a_node4"><a xlink:href="../../d7/df9/class_cool_board.html#acba7c5aef7268b2c0044bdb54d3b9d76" target="_top" xlink:title="CoolBoard::begin">
<polygon fill="white" stroke="black" points="438,-19.5 438,-38.5 530,-38.5 530,-19.5 438,-19.5"/>
<text text-anchor="middle" x="484" y="-26.5" font-family="Helvetica,sans-Serif" font-size="10.00">CoolBoard::begin</text>
</a>
</g>
</g>
<!-- Node132&#45;&gt;Node133 -->
<g id="edge3" class="edge"><title>Node132&#45;&gt;Node133</title>
<path fill="none" stroke="midnightblue" d="M412.209,-29C420.665,-29 429.335,-29 437.579,-29"/>
<polygon fill="midnightblue" stroke="midnightblue" points="412.044,-25.5001 402.044,-29 412.044,-32.5001 412.044,-25.5001"/>
</g>
<!-- Node134&#45;&gt;Node132 -->
<g id="edge5" class="edge"><title>Node134&#45;&gt;Node132</title>
<path fill="none" stroke="midnightblue" d="M287.252,-19.5003C295.896,-20.6861 304.539,-21.8718 312.644,-22.9836"/>
<polygon fill="midnightblue" stroke="midnightblue" points="287.521,-16.0045 277.138,-18.1128 286.57,-22.9395 287.521,-16.0045"/>
</g>
</g>
</svg>
