<?xml version="1.0" encoding="UTF-8" standalone="no"?>
<!DOCTYPE svg PUBLIC "-//W3C//DTD SVG 1.1//EN"
 "http://www.w3.org/Graphics/SVG/1.1/DTD/svg11.dtd">
<!-- Generated by graphviz version 2.38.0 (20140413.2041)
 -->
<!-- Title: CoolBoard::offLineMode Pages: 1 -->
<svg width="663pt" height="256pt"
 viewBox="0.00 0.00 663.00 256.00" xmlns="http://www.w3.org/2000/svg" xmlns:xlink="http://www.w3.org/1999/xlink">
<g id="graph0" class="graph" transform="scale(1 1) rotate(0) translate(4 252)">
<title>CoolBoard::offLineMode</title>
<polygon fill="white" stroke="none" points="-4,4 -4,-252 659,-252 659,4 -4,4"/>
<!-- Node44 -->
<g id="node1" class="node"><title>Node44</title>
<polygon fill="#bfbfbf" stroke="black" points="0,-76.5 0,-95.5 122,-95.5 122,-76.5 0,-76.5"/>
<text text-anchor="middle" x="61" y="-83.5" font-family="Helvetica,sans-Serif" font-size="10.00">CoolBoard::offLineMode</text>
</g>
<!-- Node45 -->
<g id="node2" class="node"><title>Node45</title>
<g id="a_node2"><a xlink:href="$de/d46/class_cool_board_sensors.html#a91badb2539d91fda8679f2a597874c48" xlink:title="CoolBoardSensors::read">
<polygon fill="white" stroke="black" points="179,-171.5 179,-190.5 302,-190.5 302,-171.5 179,-171.5"/>
<text text-anchor="middle" x="240.5" y="-178.5" font-family="Helvetica,sans-Serif" font-size="10.00">CoolBoardSensors::read</text>
</a>
</g>
</g>
<!-- Node44&#45;&gt;Node45 -->
<g id="edge1" class="edge"><title>Node44&#45;&gt;Node45</title>
<path fill="none" stroke="midnightblue" d="M77.0298,-95.558C95.7052,-107.286 128.694,-127.517 158,-143 174.192,-151.555 192.658,-160.248 207.913,-167.157"/>
<polygon fill="midnightblue" stroke="midnightblue" points="206.862,-170.522 217.418,-171.42 209.726,-164.135 206.862,-170.522"/>
</g>
<!-- Node49 -->
<g id="node6" class="node"><title>Node49</title>
<g id="a_node6"><a xlink:href="$d1/d2f/class_external_sensors.html#a53177b81eca3be89508b5511ddcd00fc" xlink:title="ExternalSensors::read">
<polygon fill="white" stroke="black" points="184,-114.5 184,-133.5 297,-133.5 297,-114.5 184,-114.5"/>
<text text-anchor="middle" x="240.5" y="-121.5" font-family="Helvetica,sans-Serif" font-size="10.00">ExternalSensors::read</text>
</a>
</g>
</g>
<!-- Node44&#45;&gt;Node49 -->
<g id="edge5" class="edge"><title>Node44&#45;&gt;Node49</title>
<path fill="none" stroke="midnightblue" d="M106.791,-95.589C130.53,-100.671 159.884,-106.955 184.944,-112.32"/>
<polygon fill="midnightblue" stroke="midnightblue" points="184.52,-115.809 195.031,-114.48 185.986,-108.964 184.52,-115.809"/>
</g>
<!-- Node50 -->
<g id="node7" class="node"><title>Node50</title>
<g id="a_node7"><a xlink:href="$d6/d03/class_irene3000.html#a852a170feea994ea1df01c6b245b5d9a" xlink:title="Irene3000::read">
<polygon fill="white" stroke="black" points="198.5,-76.5 198.5,-95.5 282.5,-95.5 282.5,-76.5 198.5,-76.5"/>
<text text-anchor="middle" x="240.5" y="-83.5" font-family="Helvetica,sans-Serif" font-size="10.00">Irene3000::read</text>
</a>
</g>
</g>
<!-- Node44&#45;&gt;Node50 -->
<g id="edge6" class="edge"><title>Node44&#45;&gt;Node50</title>
<path fill="none" stroke="midnightblue" d="M122.093,-86C143.603,-86 167.628,-86 188.315,-86"/>
<polygon fill="midnightblue" stroke="midnightblue" points="188.485,-89.5001 198.485,-86 188.485,-82.5001 188.485,-89.5001"/>
</g>
<!-- Node55 -->
<g id="node12" class="node"><title>Node55</title>
<g id="a_node12"><a xlink:href="$df/d1d/class_jetpack.html#a86d2e83436ef4b85f4c3a6e85ac785b0" xlink:title="Jetpack::doAction">
<polygon fill="white" stroke="black" points="193,-38.5 193,-57.5 288,-57.5 288,-38.5 193,-38.5"/>
<text text-anchor="middle" x="240.5" y="-45.5" font-family="Helvetica,sans-Serif" font-size="10.00">Jetpack::doAction</text>
</a>
</g>
</g>
<!-- Node44&#45;&gt;Node55 -->
<g id="edge13" class="edge"><title>Node44&#45;&gt;Node55</title>
<path fill="none" stroke="midnightblue" d="M106.791,-76.411C130.53,-71.3287 159.884,-65.0446 184.944,-59.6797"/>
<polygon fill="midnightblue" stroke="midnightblue" points="185.986,-63.036 195.031,-57.5201 184.52,-56.1911 185.986,-63.036"/>
</g>
<!-- Node57 -->
<g id="node14" class="node"><title>Node57</title>
<g id="a_node14"><a xlink:href="$db/d0c/class_cool_file_system.html#a4c560c2ddd40b74b7758e6ceb2c58957" xlink:title="CoolFileSystem::saveSensorData">
<polygon fill="white" stroke="black" points="158,-0.5 158,-19.5 323,-19.5 323,-0.5 158,-0.5"/>
<text text-anchor="middle" x="240.5" y="-7.5" font-family="Helvetica,sans-Serif" font-size="10.00">CoolFileSystem::saveSensorData</text>
</a>
</g>
</g>
<!-- Node44&#45;&gt;Node57 -->
<g id="edge15" class="edge"><title>Node44&#45;&gt;Node57</title>
<path fill="none" stroke="midnightblue" d="M75.299,-76.2935C93.2245,-63.6463 126.53,-41.6581 158,-29 164.339,-26.4501 171.1,-24.1958 177.914,-22.2147"/>
<polygon fill="midnightblue" stroke="midnightblue" points="179.158,-25.5036 187.891,-19.5047 177.323,-18.7483 179.158,-25.5036"/>
</g>
<!-- Node46 -->
<g id="node3" class="node"><title>Node46</title>
<g id="a_node3"><a xlink:href="$de/d46/class_cool_board_sensors.html#acad6a8418c66d36868caca23c844ecb6" xlink:title="CoolBoardSensors::initReadI2C">
<polygon fill="white" stroke="black" points="361.5,-228.5 361.5,-247.5 517.5,-247.5 517.5,-228.5 361.5,-228.5"/>
<text text-anchor="middle" x="439.5" y="-235.5" font-family="Helvetica,sans-Serif" font-size="10.00">CoolBoardSensors::initReadI2C</text>
</a>
</g>
</g>
<!-- Node45&#45;&gt;Node46 -->
<g id="edge2" class="edge"><title>Node45&#45;&gt;Node46</title>
<path fill="none" stroke="midnightblue" d="M268.855,-190.518C292.552,-198.601 327.831,-210.25 359,-219 367.636,-221.425 376.855,-223.81 385.841,-226.028"/>
<polygon fill="midnightblue" stroke="midnightblue" points="385.302,-229.499 395.845,-228.454 386.952,-222.696 385.302,-229.499"/>
</g>
<!-- Node47 -->
<g id="node4" class="node"><title>Node47</title>
<g id="a_node4"><a xlink:href="$de/d46/class_cool_board_sensors.html#a6944b6ea7bce8e2fce1b434acfd9d5f3" xlink:title="CoolBoardSensors::readVBat">
<polygon fill="white" stroke="black" points="367,-190.5 367,-209.5 512,-209.5 512,-190.5 367,-190.5"/>
<text text-anchor="middle" x="439.5" y="-197.5" font-family="Helvetica,sans-Serif" font-size="10.00">CoolBoardSensors::readVBat</text>
</a>
</g>
</g>
<!-- Node45&#45;&gt;Node47 -->
<g id="edge3" class="edge"><title>Node45&#45;&gt;Node47</title>
<path fill="none" stroke="midnightblue" d="M302.214,-186.856C319.479,-188.521 338.57,-190.362 356.862,-192.126"/>
<polygon fill="midnightblue" stroke="midnightblue" points="356.635,-195.621 366.925,-193.097 357.307,-188.653 356.635,-195.621"/>
</g>
<!-- Node48 -->
<g id="node5" class="node"><title>Node48</title>
<g id="a_node5"><a xlink:href="$de/d46/class_cool_board_sensors.html#a8761bff50373c485f4465c8db47d0633" xlink:title="CoolBoardSensors::readMoisture">
<polygon fill="white" stroke="black" points="359,-152.5 359,-171.5 520,-171.5 520,-152.5 359,-152.5"/>
<text text-anchor="middle" x="439.5" y="-159.5" font-family="Helvetica,sans-Serif" font-size="10.00">CoolBoardSensors::readMoisture</text>
</a>
</g>
</g>
<!-- Node45&#45;&gt;Node48 -->
<g id="edge4" class="edge"><title>Node45&#45;&gt;Node48</title>
<path fill="none" stroke="midnightblue" d="M302.214,-175.144C316.867,-173.731 332.834,-172.191 348.512,-170.679"/>
<polygon fill="midnightblue" stroke="midnightblue" points="349.139,-174.135 358.756,-169.691 348.467,-167.167 349.139,-174.135"/>
</g>
<!-- Node51 -->
<g id="node8" class="node"><title>Node51</title>
<g id="a_node8"><a xlink:href="$d6/d03/class_irene3000.html#a94ad40f281d83ad1be20bf1edd6fe802" xlink:title="Irene3000::readTemp">
<polygon fill="white" stroke="black" points="385,-114.5 385,-133.5 494,-133.5 494,-114.5 385,-114.5"/>
<text text-anchor="middle" x="439.5" y="-121.5" font-family="Helvetica,sans-Serif" font-size="10.00">Irene3000::readTemp</text>
</a>
</g>
</g>
<!-- Node50&#45;&gt;Node51 -->
<g id="edge7" class="edge"><title>Node50&#45;&gt;Node51</title>
<path fill="none" stroke="midnightblue" d="M282.798,-93.966C310.795,-99.3665 348.227,-106.587 379.373,-112.595"/>
<polygon fill="midnightblue" stroke="midnightblue" points="378.762,-116.041 389.244,-114.499 380.088,-109.168 378.762,-116.041"/>
</g>
<!-- Node53 -->
<g id="node10" class="node"><title>Node53</title>
<g id="a_node10"><a xlink:href="$d6/d03/class_irene3000.html#abf3db725fabb0634ec889b32068a5eec" xlink:title="Irene3000::readPh">
<polygon fill="white" stroke="black" points="391.5,-76.5 391.5,-95.5 487.5,-95.5 487.5,-76.5 391.5,-76.5"/>
<text text-anchor="middle" x="439.5" y="-83.5" font-family="Helvetica,sans-Serif" font-size="10.00">Irene3000::readPh</text>
</a>
</g>
</g>
<!-- Node50&#45;&gt;Node53 -->
<g id="edge9" class="edge"><title>Node50&#45;&gt;Node53</title>
<path fill="none" stroke="midnightblue" d="M282.798,-86C311.282,-86 349.532,-86 380.992,-86"/>
<polygon fill="midnightblue" stroke="midnightblue" points="381.377,-89.5001 391.377,-86 381.377,-82.5001 381.377,-89.5001"/>
</g>
<!-- Node54 -->
<g id="node11" class="node"><title>Node54</title>
<g id="a_node11"><a xlink:href="$d6/d03/class_irene3000.html#ae73bd2ed14a199a7e83f4d6458476a7c" xlink:title="Irene3000::readADSChannel2">
<polygon fill="white" stroke="black" points="366.5,-38.5 366.5,-57.5 512.5,-57.5 512.5,-38.5 366.5,-38.5"/>
<text text-anchor="middle" x="439.5" y="-45.5" font-family="Helvetica,sans-Serif" font-size="10.00">Irene3000::readADSChannel2</text>
</a>
</g>
</g>
<!-- Node50&#45;&gt;Node54 -->
<g id="edge11" class="edge"><title>Node50&#45;&gt;Node54</title>
<path fill="none" stroke="midnightblue" d="M282.798,-78.034C310.795,-72.6335 348.227,-65.413 379.373,-59.4052"/>
<polygon fill="midnightblue" stroke="midnightblue" points="380.088,-62.8319 389.244,-57.5011 378.762,-55.9586 380.088,-62.8319"/>
</g>
<!-- Node52 -->
<g id="node9" class="node"><title>Node52</title>
<g id="a_node9"><a xlink:href="$d6/d03/class_irene3000.html#aff7c5da186b388e7272e63ff88a20c34" xlink:title="Irene3000::setGain">
<polygon fill="white" stroke="black" points="556,-76.5 556,-95.5 655,-95.5 655,-76.5 556,-76.5"/>
<text text-anchor="middle" x="605.5" y="-83.5" font-family="Helvetica,sans-Serif" font-size="10.00">Irene3000::setGain</text>
</a>
</g>
</g>
<!-- Node51&#45;&gt;Node52 -->
<g id="edge8" class="edge"><title>Node51&#45;&gt;Node52</title>
<path fill="none" stroke="midnightblue" d="M481.884,-114.411C503.623,-109.374 530.457,-103.156 553.475,-97.8229"/>
<polygon fill="midnightblue" stroke="midnightblue" points="554.462,-101.187 563.413,-95.5201 552.881,-94.3677 554.462,-101.187"/>
</g>
<!-- Node53&#45;&gt;Node52 -->
<g id="edge10" class="edge"><title>Node53&#45;&gt;Node52</title>
<path fill="none" stroke="midnightblue" d="M487.936,-86C505.978,-86 526.753,-86 545.722,-86"/>
<polygon fill="midnightblue" stroke="midnightblue" points="545.747,-89.5001 555.747,-86 545.747,-82.5001 545.747,-89.5001"/>
</g>
<!-- Node54&#45;&gt;Node52 -->
<g id="edge12" class="edge"><title>Node54&#45;&gt;Node52</title>
<path fill="none" stroke="midnightblue" d="M481.884,-57.589C503.623,-62.6261 530.457,-68.8438 553.475,-74.1771"/>
<polygon fill="midnightblue" stroke="midnightblue" points="552.881,-77.6323 563.413,-76.4799 554.462,-70.8129 552.881,-77.6323"/>
</g>
<!-- Node56 -->
<g id="node13" class="node"><title>Node56</title>
<g id="a_node13"><a xlink:href="$df/d1d/class_jetpack.html#a338f1af8cbc6504ac69b47c7328569b5" xlink:title="Jetpack::write">
<polygon fill="white" stroke="black" points="400.5,-0.5 400.5,-19.5 478.5,-19.5 478.5,-0.5 400.5,-0.5"/>
<text text-anchor="middle" x="439.5" y="-7.5" font-family="Helvetica,sans-Serif" font-size="10.00">Jetpack::write</text>
</a>
</g>
</g>
<!-- Node55&#45;&gt;Node56 -->
<g id="edge14" class="edge"><title>Node55&#45;&gt;Node56</title>
<path fill="none" stroke="midnightblue" d="M288.186,-38.9945C318.956,-33.0593 359.156,-25.305 390.24,-19.3091"/>
<polygon fill="midnightblue" stroke="midnightblue" points="391.249,-22.679 400.405,-17.3482 389.923,-15.8057 391.249,-22.679"/>
</g>
</g>
</svg>
