<?xml version="1.0" encoding="UTF-8" standalone="no"?>
<!DOCTYPE svg PUBLIC "-//W3C//DTD SVG 1.1//EN"
 "http://www.w3.org/Graphics/SVG/1.1/DTD/svg11.dtd">
<!-- Generated by graphviz version 2.38.0 (20140413.2041)
 -->
<!-- Title: CoolBoard::update Pages: 1 -->
<svg width="446pt" height="344pt"
 viewBox="0.00 0.00 446.00 343.50" xmlns="http://www.w3.org/2000/svg" xmlns:xlink="http://www.w3.org/1999/xlink">
<g id="graph0" class="graph" transform="scale(1 1) rotate(0) translate(4 339.5)">
<title>CoolBoard::update</title>
<polygon fill="white" stroke="none" points="-4,4 -4,-339.5 442,-339.5 442,4 -4,4"/>
<!-- Node98 -->
<g id="node1" class="node"><title>Node98</title>
<polygon fill="#bfbfbf" stroke="black" points="0,-152.5 0,-171.5 98,-171.5 98,-152.5 0,-152.5"/>
<text text-anchor="middle" x="49" y="-159.5" font-family="Helvetica,sans-Serif" font-size="10.00">CoolBoard::update</text>
</g>
<!-- Node99 -->
<g id="node2" class="node"><title>Node99</title>
<g id="a_node2"><a xlink:href="$db/d0c/class_cool_file_system.html#a32dad79ae80182a83e2e8f52286b7c7b" xlink:title="CoolFileSystem::updateConfig\lFiles">
<polygon fill="white" stroke="black" points="134,-305 134,-335 284,-335 284,-305 134,-305"/>
<text text-anchor="start" x="142" y="-323" font-family="Helvetica,sans-Serif" font-size="10.00">CoolFileSystem::updateConfig</text>
<text text-anchor="middle" x="209" y="-312" font-family="Helvetica,sans-Serif" font-size="10.00">Files</text>
</a>
</g>
</g>
<!-- Node98&#45;&gt;Node99 -->
<g id="edge1" class="edge"><title>Node98&#45;&gt;Node99</title>
<path fill="none" stroke="midnightblue" d="M53.4344,-171.611C62.604,-195.92 90.0008,-260.381 134,-295 136.298,-296.808 138.734,-298.489 141.268,-300.051"/>
<polygon fill="midnightblue" stroke="midnightblue" points="139.75,-303.209 150.206,-304.918 143.097,-297.062 139.75,-303.209"/>
</g>
<!-- Node100 -->
<g id="node3" class="node"><title>Node100</title>
<g id="a_node3"><a xlink:href="$d7/df9/class_cool_board.html#a583a874c09c07e70a6eb9229fc4beddb" xlink:title="CoolBoard::config">
<polygon fill="white" stroke="black" points="161.5,-266.5 161.5,-285.5 256.5,-285.5 256.5,-266.5 161.5,-266.5"/>
<text text-anchor="middle" x="209" y="-273.5" font-family="Helvetica,sans-Serif" font-size="10.00">CoolBoard::config</text>
</a>
</g>
</g>
<!-- Node98&#45;&gt;Node100 -->
<g id="edge2" class="edge"><title>Node98&#45;&gt;Node100</title>
<path fill="none" stroke="midnightblue" d="M55.7974,-171.795C67.8098,-191.202 97.3792,-234.595 134,-257 139.42,-260.316 145.403,-263.057 151.549,-265.321"/>
<polygon fill="midnightblue" stroke="midnightblue" points="150.689,-268.722 161.282,-268.5 152.863,-262.068 150.689,-268.722"/>
</g>
<!-- Node102 -->
<g id="node5" class="node"><title>Node102</title>
<g id="a_node5"><a xlink:href="$de/d46/class_cool_board_sensors.html#a9a218895c5423375c33c08f2c56fb23a" xlink:title="CoolBoardSensors::config">
<polygon fill="white" stroke="black" points="143.5,-228.5 143.5,-247.5 274.5,-247.5 274.5,-228.5 143.5,-228.5"/>
<text text-anchor="middle" x="209" y="-235.5" font-family="Helvetica,sans-Serif" font-size="10.00">CoolBoardSensors::config</text>
</a>
</g>
</g>
<!-- Node98&#45;&gt;Node102 -->
<g id="edge4" class="edge"><title>Node98&#45;&gt;Node102</title>
<path fill="none" stroke="midnightblue" d="M61.4632,-171.699C76.956,-184.339 105.886,-206.318 134,-219 139.344,-221.411 145.05,-223.556 150.831,-225.454"/>
<polygon fill="midnightblue" stroke="midnightblue" points="149.998,-228.859 160.584,-228.421 152.036,-222.162 149.998,-228.859"/>
</g>
<!-- Node103 -->
<g id="node6" class="node"><title>Node103</title>
<g id="a_node6"><a xlink:href="$d6/d49/class_cool_time.html#a87c28260c1bc77091162cbcf1ee2e129" xlink:title="CoolTime::config">
<polygon fill="white" stroke="black" points="163.5,-190.5 163.5,-209.5 254.5,-209.5 254.5,-190.5 163.5,-190.5"/>
<text text-anchor="middle" x="209" y="-197.5" font-family="Helvetica,sans-Serif" font-size="10.00">CoolTime::config</text>
</a>
</g>
</g>
<!-- Node98&#45;&gt;Node103 -->
<g id="edge5" class="edge"><title>Node98&#45;&gt;Node103</title>
<path fill="none" stroke="midnightblue" d="M89.8701,-171.589C110.72,-176.604 136.435,-182.788 158.543,-188.105"/>
<polygon fill="midnightblue" stroke="midnightblue" points="157.875,-191.544 168.417,-190.48 159.512,-184.739 157.875,-191.544"/>
</g>
<!-- Node104 -->
<g id="node7" class="node"><title>Node104</title>
<g id="a_node7"><a xlink:href="$de/dc0/class_cool_board_led.html#a1b60e5e30bea96c49ed62ed1bf1ffc8b" xlink:title="CoolBoardLed::config">
<polygon fill="white" stroke="black" points="154,-152.5 154,-171.5 264,-171.5 264,-152.5 154,-152.5"/>
<text text-anchor="middle" x="209" y="-159.5" font-family="Helvetica,sans-Serif" font-size="10.00">CoolBoardLed::config</text>
</a>
</g>
</g>
<!-- Node98&#45;&gt;Node104 -->
<g id="edge6" class="edge"><title>Node98&#45;&gt;Node104</title>
<path fill="none" stroke="midnightblue" d="M98.2637,-162C112.568,-162 128.466,-162 143.62,-162"/>
<polygon fill="midnightblue" stroke="midnightblue" points="143.964,-165.5 153.964,-162 143.964,-158.5 143.964,-165.5"/>
</g>
<!-- Node105 -->
<g id="node8" class="node"><title>Node105</title>
<g id="a_node8"><a xlink:href="$d0/dd0/class_cool_m_q_t_t.html#a0158596b9a2297c8ba609b56ce6bace1" xlink:title="CoolMQTT::config">
<polygon fill="white" stroke="black" points="160.5,-114.5 160.5,-133.5 257.5,-133.5 257.5,-114.5 160.5,-114.5"/>
<text text-anchor="middle" x="209" y="-121.5" font-family="Helvetica,sans-Serif" font-size="10.00">CoolMQTT::config</text>
</a>
</g>
</g>
<!-- Node98&#45;&gt;Node105 -->
<g id="edge7" class="edge"><title>Node98&#45;&gt;Node105</title>
<path fill="none" stroke="midnightblue" d="M89.8701,-152.411C110.72,-147.396 136.435,-141.212 158.543,-135.895"/>
<polygon fill="midnightblue" stroke="midnightblue" points="159.512,-139.261 168.417,-133.52 157.875,-132.456 159.512,-139.261"/>
</g>
<!-- Node106 -->
<g id="node9" class="node"><title>Node106</title>
<g id="a_node9"><a xlink:href="$df/d1d/class_jetpack.html#ab065ee83e244265a2223a22f3ee4a719" xlink:title="Jetpack::config">
<polygon fill="white" stroke="black" points="167.5,-76.5 167.5,-95.5 250.5,-95.5 250.5,-76.5 167.5,-76.5"/>
<text text-anchor="middle" x="209" y="-83.5" font-family="Helvetica,sans-Serif" font-size="10.00">Jetpack::config</text>
</a>
</g>
</g>
<!-- Node98&#45;&gt;Node106 -->
<g id="edge8" class="edge"><title>Node98&#45;&gt;Node106</title>
<path fill="none" stroke="midnightblue" d="M61.4632,-152.301C76.956,-139.661 105.886,-117.682 134,-105 141.392,-101.665 149.475,-98.8398 157.496,-96.4703"/>
<polygon fill="midnightblue" stroke="midnightblue" points="158.484,-99.8285 167.199,-93.8028 156.628,-93.0789 158.484,-99.8285"/>
</g>
<!-- Node107 -->
<g id="node10" class="node"><title>Node107</title>
<g id="a_node10"><a xlink:href="$d6/d03/class_irene3000.html#afed5c35e4b23963c157847ef27c11e9c" xlink:title="Irene3000::config">
<polygon fill="white" stroke="black" points="163,-38.5 163,-57.5 255,-57.5 255,-38.5 163,-38.5"/>
<text text-anchor="middle" x="209" y="-45.5" font-family="Helvetica,sans-Serif" font-size="10.00">Irene3000::config</text>
</a>
</g>
</g>
<!-- Node98&#45;&gt;Node107 -->
<g id="edge9" class="edge"><title>Node98&#45;&gt;Node107</title>
<path fill="none" stroke="midnightblue" d="M55.7974,-152.205C67.8098,-132.798 97.3792,-89.4046 134,-67 139.853,-63.4189 146.363,-60.5092 153.025,-58.1458"/>
<polygon fill="midnightblue" stroke="midnightblue" points="154.346,-61.3993 162.835,-55.0596 152.246,-54.7219 154.346,-61.3993"/>
</g>
<!-- Node109 -->
<g id="node12" class="node"><title>Node109</title>
<g id="a_node12"><a xlink:href="$d1/d2f/class_external_sensors.html#a862a4bd11346b37270d0244c2adabe5a" xlink:title="ExternalSensors::config">
<polygon fill="white" stroke="black" points="148.5,-0.5 148.5,-19.5 269.5,-19.5 269.5,-0.5 148.5,-0.5"/>
<text text-anchor="middle" x="209" y="-7.5" font-family="Helvetica,sans-Serif" font-size="10.00">ExternalSensors::config</text>
</a>
</g>
</g>
<!-- Node98&#45;&gt;Node109 -->
<g id="edge11" class="edge"><title>Node98&#45;&gt;Node109</title>
<path fill="none" stroke="midnightblue" d="M53.2845,-152.192C62.1027,-127.417 88.7426,-61.9566 134,-29 136.681,-27.048 139.543,-25.2961 142.527,-23.7237"/>
<polygon fill="midnightblue" stroke="midnightblue" points="144.12,-26.8444 151.78,-19.525 141.228,-20.4699 144.12,-26.8444"/>
</g>
<!-- Node101 -->
<g id="node4" class="node"><title>Node101</title>
<g id="a_node4"><a xlink:href="$db/d0c/class_cool_file_system.html#a6ba6f666ed4c530174f8569d2c636748" xlink:title="CoolFileSystem::begin">
<polygon fill="white" stroke="black" points="321,-266.5 321,-285.5 437,-285.5 437,-266.5 321,-266.5"/>
<text text-anchor="middle" x="379" y="-273.5" font-family="Helvetica,sans-Serif" font-size="10.00">CoolFileSystem::begin</text>
</a>
</g>
</g>
<!-- Node100&#45;&gt;Node101 -->
<g id="edge3" class="edge"><title>Node100&#45;&gt;Node101</title>
<path fill="none" stroke="midnightblue" d="M256.797,-276C273.513,-276 292.692,-276 310.787,-276"/>
<polygon fill="midnightblue" stroke="midnightblue" points="310.997,-279.5 320.997,-276 310.996,-272.5 310.997,-279.5"/>
</g>
<!-- Node108 -->
<g id="node11" class="node"><title>Node108</title>
<g id="a_node11"><a xlink:href="$d6/d03/class_irene3000.html#abcad62d1201a59f8dd3ba87048002728" xlink:title="Irene3000::gainConvert">
<polygon fill="white" stroke="black" points="320,-38.5 320,-57.5 438,-57.5 438,-38.5 320,-38.5"/>
<text text-anchor="middle" x="379" y="-45.5" font-family="Helvetica,sans-Serif" font-size="10.00">Irene3000::gainConvert</text>
</a>
</g>
</g>
<!-- Node107&#45;&gt;Node108 -->
<g id="edge10" class="edge"><title>Node107&#45;&gt;Node108</title>
<path fill="none" stroke="midnightblue" d="M255.021,-48C271.833,-48 291.321,-48 309.758,-48"/>
<polygon fill="midnightblue" stroke="midnightblue" points="309.87,-51.5001 319.87,-48 309.87,-44.5001 309.87,-51.5001"/>
</g>
</g>
</svg>
