<?xml version="1.0" encoding="UTF-8" standalone="no"?>
<!DOCTYPE svg PUBLIC "-//W3C//DTD SVG 1.1//EN"
 "http://www.w3.org/Graphics/SVG/1.1/DTD/svg11.dtd">
<!-- Generated by graphviz version 2.38.0 (20140413.2041)
 -->
<!-- Title: Irene3000::calibratepH7 Pages: 1 -->
<svg width="381pt" height="28pt"
 viewBox="0.00 0.00 381.00 28.00" xmlns="http://www.w3.org/2000/svg" xmlns:xlink="http://www.w3.org/1999/xlink">
<g id="graph0" class="graph" transform="scale(1 1) rotate(0) translate(4 24)">
<title>Irene3000::calibratepH7</title>
<polygon fill="white" stroke="none" points="-4,4 -4,-24 377,-24 377,4 -4,4"/>
<!-- Node114 -->
<g id="node1" class="node"><title>Node114</title>
<polygon fill="#bfbfbf" stroke="black" points="0,-0.5 0,-19.5 120,-19.5 120,-0.5 0,-0.5"/>
<text text-anchor="middle" x="60" y="-7.5" font-family="Helvetica,sans-Serif" font-size="10.00">Irene3000::calibratepH7</text>
</g>
<!-- Node115 -->
<g id="node2" class="node"><title>Node115</title>
<g id="a_node2"><a xlink:href="$d6/d03/class_irene3000.html#ad5891806c500ae1007afe52b9e304c2b" xlink:title="Irene3000::begin">
<polygon fill="white" stroke="black" points="156,-0.5 156,-19.5 245,-19.5 245,-0.5 156,-0.5"/>
<text text-anchor="middle" x="200.5" y="-7.5" font-family="Helvetica,sans-Serif" font-size="10.00">Irene3000::begin</text>
</a>
</g>
</g>
<!-- Node114&#45;&gt;Node115 -->
<g id="edge1" class="edge"><title>Node114&#45;&gt;Node115</title>
<path fill="none" stroke="midnightblue" d="M130.252,-10C138.896,-10 147.539,-10 155.644,-10"/>
<polygon fill="midnightblue" stroke="midnightblue" points="130.138,-6.5001 120.138,-10 130.138,-13.5001 130.138,-6.5001"/>
</g>
<!-- Node116 -->
<g id="node3" class="node"><title>Node116</title>
<g id="a_node3"><a xlink:href="$d7/df9/class_cool_board.html#acba7c5aef7268b2c0044bdb54d3b9d76" xlink:title="CoolBoard::begin">
<polygon fill="white" stroke="black" points="281,-0.5 281,-19.5 373,-19.5 373,-0.5 281,-0.5"/>
<text text-anchor="middle" x="327" y="-7.5" font-family="Helvetica,sans-Serif" font-size="10.00">CoolBoard::begin</text>
</a>
</g>
</g>
<!-- Node115&#45;&gt;Node116 -->
<g id="edge2" class="edge"><title>Node115&#45;&gt;Node116</title>
<path fill="none" stroke="midnightblue" d="M255.209,-10C263.665,-10 272.335,-10 280.579,-10"/>
<polygon fill="midnightblue" stroke="midnightblue" points="255.044,-6.5001 245.044,-10 255.044,-13.5001 255.044,-6.5001"/>
</g>
</g>
</svg>
