<?xml version="1.0" encoding="UTF-8" standalone="no"?>
<!DOCTYPE svg PUBLIC "-//W3C//DTD SVG 1.1//EN"
 "http://www.w3.org/Graphics/SVG/1.1/DTD/svg11.dtd">
<!-- Generated by graphviz version 2.38.0 (20140413.2041)
 -->
<!-- Title: CoolBoard.cpp Pages: 1 -->
<svg width="1551pt" height="252pt"
 viewBox="0.00 0.00 1550.50 252.00" xmlns="http://www.w3.org/2000/svg" xmlns:xlink="http://www.w3.org/1999/xlink">
<g id="graph0" class="graph" transform="scale(1 1) rotate(0) translate(4 248)">
<title>CoolBoard.cpp</title>
<polygon fill="white" stroke="none" points="-4,4 -4,-248 1546.5,-248 1546.5,4 -4,4"/>
<!-- Node0 -->
<g id="node1" class="node"><title>Node0</title>
<polygon fill="#bfbfbf" stroke="black" points="403.5,-224.5 403.5,-243.5 484.5,-243.5 484.5,-224.5 403.5,-224.5"/>
<text text-anchor="middle" x="444" y="-231.5" font-family="Helvetica,sans-Serif" font-size="10.00">CoolBoard.cpp</text>
</g>
<!-- Node1 -->
<g id="node2" class="node"><title>Node1</title>
<polygon fill="white" stroke="#bfbfbf" points="0,-168.5 0,-187.5 38,-187.5 38,-168.5 0,-168.5"/>
<text text-anchor="middle" x="19" y="-175.5" font-family="Helvetica,sans-Serif" font-size="10.00">FS.h</text>
</g>
<!-- Node0&#45;&gt;Node1 -->
<g id="edge1" class="edge"><title>Node0&#45;&gt;Node1</title>
<path fill="none" stroke="midnightblue" d="M403.343,-230.378C331.805,-225.311 178.965,-212.454 52,-188 50.7208,-187.754 49.4185,-187.483 48.1064,-187.195"/>
<polygon fill="midnightblue" stroke="midnightblue" points="48.6256,-183.719 38.0794,-184.732 46.9557,-190.517 48.6256,-183.719"/>
</g>
<!-- Node2 -->
<g id="node3" class="node"><title>Node2</title>
<polygon fill="white" stroke="#bfbfbf" points="525,-0.5 525,-19.5 583,-19.5 583,-0.5 525,-0.5"/>
<text text-anchor="middle" x="554" y="-7.5" font-family="Helvetica,sans-Serif" font-size="10.00">Arduino.h</text>
</g>
<!-- Node0&#45;&gt;Node2 -->
<g id="edge2" class="edge"><title>Node0&#45;&gt;Node2</title>
<path fill="none" stroke="midnightblue" d="M403.378,-226.411C324.214,-212.653 154.044,-178.272 120,-132 114.732,-124.84 118.279,-120.721 120,-112 125.21,-85.6028 121.5,-72.1776 143,-56 200.931,-12.4095 423.34,-9.59251 514.588,-10.3435"/>
<polygon fill="midnightblue" stroke="midnightblue" points="514.757,-13.8453 524.792,-10.4472 514.828,-6.84568 514.757,-13.8453"/>
</g>
<!-- Node3 -->
<g id="node4" class="node"><title>Node3</title>
<g id="a_node4"><a xlink:href="$_cool_board_8h.html" xlink:title="CoolBoard Header file. ">
<polygon fill="white" stroke="black" points="787.5,-168.5 787.5,-187.5 858.5,-187.5 858.5,-168.5 787.5,-168.5"/>
<text text-anchor="middle" x="823" y="-175.5" font-family="Helvetica,sans-Serif" font-size="10.00">CoolBoard.h</text>
</a>
</g>
</g>
<!-- Node0&#45;&gt;Node3 -->
<g id="edge3" class="edge"><title>Node0&#45;&gt;Node3</title>
<path fill="none" stroke="midnightblue" d="M484.56,-227.221C555.78,-217.074 702.823,-196.123 777.435,-185.492"/>
<polygon fill="midnightblue" stroke="midnightblue" points="778.061,-188.938 787.467,-184.063 777.073,-182.008 778.061,-188.938"/>
</g>
<!-- Node28 -->
<g id="node29" class="node"><title>Node28</title>
<polygon fill="white" stroke="#bfbfbf" points="876.5,-168.5 876.5,-187.5 955.5,-187.5 955.5,-168.5 876.5,-168.5"/>
<text text-anchor="middle" x="916" y="-175.5" font-family="Helvetica,sans-Serif" font-size="10.00">ArduinoJson.h</text>
</g>
<!-- Node0&#45;&gt;Node28 -->
<g id="edge39" class="edge"><title>Node0&#45;&gt;Node28</title>
<path fill="none" stroke="midnightblue" d="M484.666,-229.705C558.51,-223.498 719.76,-208.917 866.38,-187.981"/>
<polygon fill="midnightblue" stroke="midnightblue" points="867.064,-191.418 876.462,-186.527 866.065,-184.49 867.064,-191.418"/>
</g>
<!-- Node3&#45;&gt;Node2 -->
<g id="edge38" class="edge"><title>Node3&#45;&gt;Node2</title>
<path fill="none" stroke="midnightblue" d="M787.205,-177.453C652.031,-178.794 177.988,-180.018 133,-132 104.638,-101.728 141.691,-76.1429 178,-56 235.13,-24.306 430.184,-14.7008 514.568,-11.9898"/>
<polygon fill="midnightblue" stroke="midnightblue" points="514.88,-15.482 524.769,-11.6786 514.667,-8.48525 514.88,-15.482"/>
</g>
<!-- Node4 -->
<g id="node5" class="node"><title>Node4</title>
<g id="a_node5"><a xlink:href="$_cool_file_system_8h.html" xlink:title="CoolFileSystem Header File. ">
<polygon fill="white" stroke="black" points="142.5,-112.5 142.5,-131.5 237.5,-131.5 237.5,-112.5 142.5,-112.5"/>
<text text-anchor="middle" x="190" y="-119.5" font-family="Helvetica,sans-Serif" font-size="10.00">CoolFileSystem.h</text>
</a>
</g>
</g>
<!-- Node3&#45;&gt;Node4 -->
<g id="edge4" class="edge"><title>Node3&#45;&gt;Node4</title>
<path fill="none" stroke="midnightblue" d="M787.312,-174.633C698.669,-168.644 461.372,-151.938 264,-132 258.821,-131.477 253.443,-130.896 248.057,-130.288"/>
<polygon fill="midnightblue" stroke="midnightblue" points="248.072,-126.767 237.737,-129.095 247.268,-133.721 248.072,-126.767"/>
</g>
<!-- Node5 -->
<g id="node6" class="node"><title>Node5</title>
<g id="a_node6"><a xlink:href="$_cool_board_sensors_8h.html" xlink:title="CoolBoardSensors Header File. ">
<polygon fill="white" stroke="black" points="273.5,-112.5 273.5,-131.5 380.5,-131.5 380.5,-112.5 273.5,-112.5"/>
<text text-anchor="middle" x="327" y="-119.5" font-family="Helvetica,sans-Serif" font-size="10.00">CoolBoardSensors.h</text>
</a>
</g>
</g>
<!-- Node3&#45;&gt;Node5 -->
<g id="edge6" class="edge"><title>Node3&#45;&gt;Node5</title>
<path fill="none" stroke="midnightblue" d="M787.329,-173.116C704.137,-164.059 496.336,-141.436 390.745,-129.94"/>
<polygon fill="midnightblue" stroke="midnightblue" points="390.865,-126.432 380.545,-128.829 390.107,-133.391 390.865,-126.432"/>
</g>
<!-- Node8 -->
<g id="node9" class="node"><title>Node8</title>
<g id="a_node9"><a xlink:href="$_cool_board_led_8h.html" xlink:title="CoolBoardLed Header File. ">
<polygon fill="white" stroke="black" points="442,-112.5 442,-131.5 528,-131.5 528,-112.5 442,-112.5"/>
<text text-anchor="middle" x="485" y="-119.5" font-family="Helvetica,sans-Serif" font-size="10.00">CoolBoardLed.h</text>
</a>
</g>
</g>
<!-- Node3&#45;&gt;Node8 -->
<g id="edge10" class="edge"><title>Node3&#45;&gt;Node8</title>
<path fill="none" stroke="midnightblue" d="M787.467,-171.323C727.937,-161.812 607.745,-142.61 538.132,-131.489"/>
<polygon fill="midnightblue" stroke="midnightblue" points="538.669,-128.03 528.242,-129.908 537.565,-134.942 538.669,-128.03"/>
</g>
<!-- Node10 -->
<g id="node11" class="node"><title>Node10</title>
<g id="a_node11"><a xlink:href="$_cool_time_8h.html" xlink:title="CoolTime Header File. ">
<polygon fill="white" stroke="black" points="618.5,-112.5 618.5,-131.5 685.5,-131.5 685.5,-112.5 618.5,-112.5"/>
<text text-anchor="middle" x="652" y="-119.5" font-family="Helvetica,sans-Serif" font-size="10.00">CoolTime.h</text>
</a>
</g>
</g>
<!-- Node3&#45;&gt;Node10 -->
<g id="edge13" class="edge"><title>Node3&#45;&gt;Node10</title>
<path fill="none" stroke="midnightblue" d="M795.905,-168.444C767.012,-159.32 721.075,-144.813 688.895,-134.651"/>
<polygon fill="midnightblue" stroke="midnightblue" points="689.559,-131.19 678.969,-131.516 687.451,-137.865 689.559,-131.19"/>
</g>
<!-- Node13 -->
<g id="node14" class="node"><title>Node13</title>
<g id="a_node14"><a xlink:href="$_cool_m_q_t_t_8h.html" xlink:title="CoolMQTT Header File. ">
<polygon fill="white" stroke="black" points="786.5,-112.5 786.5,-131.5 859.5,-131.5 859.5,-112.5 786.5,-112.5"/>
<text text-anchor="middle" x="823" y="-119.5" font-family="Helvetica,sans-Serif" font-size="10.00">CoolMQTT.h</text>
</a>
</g>
</g>
<!-- Node3&#45;&gt;Node13 -->
<g id="edge17" class="edge"><title>Node3&#45;&gt;Node13</title>
<path fill="none" stroke="midnightblue" d="M823,-168.083C823,-161.006 823,-150.861 823,-141.986"/>
<polygon fill="midnightblue" stroke="midnightblue" points="826.5,-141.751 823,-131.751 819.5,-141.751 826.5,-141.751"/>
</g>
<!-- Node14 -->
<g id="node15" class="node"><title>Node14</title>
<polygon fill="white" stroke="#bfbfbf" points="884,-56.5 884,-75.5 970,-75.5 970,-56.5 884,-56.5"/>
<text text-anchor="middle" x="927" y="-63.5" font-family="Helvetica,sans-Serif" font-size="10.00">ESP8266WiFi.h</text>
</g>
<!-- Node3&#45;&gt;Node14 -->
<g id="edge34" class="edge"><title>Node3&#45;&gt;Node14</title>
<path fill="none" stroke="midnightblue" d="M831.752,-168.495C840.913,-159.537 855.653,-144.958 868,-132 883.523,-115.708 900.767,-96.5857 912.583,-83.3182"/>
<polygon fill="midnightblue" stroke="midnightblue" points="915.471,-85.3363 919.491,-75.5335 910.236,-80.6901 915.471,-85.3363"/>
</g>
<!-- Node16 -->
<g id="node17" class="node"><title>Node16</title>
<g id="a_node17"><a xlink:href="$_jetpack_8h.html" xlink:title="Jetpack Header File. ">
<polygon fill="white" stroke="black" points="922.5,-112.5 922.5,-131.5 981.5,-131.5 981.5,-112.5 922.5,-112.5"/>
<text text-anchor="middle" x="952" y="-119.5" font-family="Helvetica,sans-Serif" font-size="10.00">Jetpack.h</text>
</a>
</g>
</g>
<!-- Node3&#45;&gt;Node16 -->
<g id="edge21" class="edge"><title>Node3&#45;&gt;Node16</title>
<path fill="none" stroke="midnightblue" d="M843.44,-168.444C864.67,-159.557 898.099,-145.563 922.255,-135.451"/>
<polygon fill="midnightblue" stroke="midnightblue" points="923.782,-138.606 931.655,-131.516 921.079,-132.149 923.782,-138.606"/>
</g>
<!-- Node17 -->
<g id="node18" class="node"><title>Node17</title>
<g id="a_node18"><a xlink:href="$_irene3000_8h.html" xlink:title="Irene3000 Header File. ">
<polygon fill="white" stroke="black" points="1002,-112.5 1002,-131.5 1070,-131.5 1070,-112.5 1002,-112.5"/>
<text text-anchor="middle" x="1036" y="-119.5" font-family="Helvetica,sans-Serif" font-size="10.00">Irene3000.h</text>
</a>
</g>
</g>
<!-- Node3&#45;&gt;Node17 -->
<g id="edge23" class="edge"><title>Node3&#45;&gt;Node17</title>
<path fill="none" stroke="midnightblue" d="M856.75,-168.444C893.518,-159.122 952.446,-144.183 992.622,-133.997"/>
<polygon fill="midnightblue" stroke="midnightblue" points="993.574,-137.367 1002.41,-131.516 991.854,-130.581 993.574,-137.367"/>
</g>
<!-- Node19 -->
<g id="node20" class="node"><title>Node19</title>
<g id="a_node20"><a xlink:href="$_external_sensors_8h.html" xlink:title="ExternalSensors Header File. ">
<polygon fill="white" stroke="black" points="1118.5,-112.5 1118.5,-131.5 1215.5,-131.5 1215.5,-112.5 1118.5,-112.5"/>
<text text-anchor="middle" x="1167" y="-119.5" font-family="Helvetica,sans-Serif" font-size="10.00">ExternalSensors.h</text>
</a>
</g>
</g>
<!-- Node3&#45;&gt;Node19 -->
<g id="edge26" class="edge"><title>Node3&#45;&gt;Node19</title>
<path fill="none" stroke="midnightblue" d="M858.511,-169.569C861.379,-169.019 864.236,-168.49 867,-168 950.461,-153.215 1047.55,-139.235 1108.15,-130.891"/>
<polygon fill="midnightblue" stroke="midnightblue" points="1108.86,-134.326 1118.29,-129.5 1107.91,-127.391 1108.86,-134.326"/>
</g>
<!-- Node25 -->
<g id="node26" class="node"><title>Node25</title>
<polygon fill="white" stroke="#bfbfbf" points="1233.5,-112.5 1233.5,-131.5 1308.5,-131.5 1308.5,-112.5 1233.5,-112.5"/>
<text text-anchor="middle" x="1271" y="-119.5" font-family="Helvetica,sans-Serif" font-size="10.00">DNSServer.h</text>
</g>
<!-- Node3&#45;&gt;Node25 -->
<g id="edge35" class="edge"><title>Node3&#45;&gt;Node25</title>
<path fill="none" stroke="midnightblue" d="M858.965,-169.335C861.678,-168.851 864.379,-168.399 867,-168 1021.42,-144.483 1064.45,-154.581 1223.21,-131.979"/>
<polygon fill="midnightblue" stroke="midnightblue" points="1223.94,-135.41 1233.34,-130.516 1222.94,-128.482 1223.94,-135.41"/>
</g>
<!-- Node26 -->
<g id="node27" class="node"><title>Node26</title>
<polygon fill="white" stroke="#bfbfbf" points="1326.5,-112.5 1326.5,-131.5 1441.5,-131.5 1441.5,-112.5 1326.5,-112.5"/>
<text text-anchor="middle" x="1384" y="-119.5" font-family="Helvetica,sans-Serif" font-size="10.00">ESP8266WebServer.h</text>
</g>
<!-- Node3&#45;&gt;Node26 -->
<g id="edge36" class="edge"><title>Node3&#45;&gt;Node26</title>
<path fill="none" stroke="midnightblue" d="M858.956,-169.273C861.672,-168.804 864.375,-168.372 867,-168 1062.45,-140.298 1115.79,-152.939 1316.31,-132.009"/>
<polygon fill="midnightblue" stroke="midnightblue" points="1316.7,-135.487 1326.28,-130.954 1315.97,-128.526 1316.7,-135.487"/>
</g>
<!-- Node27 -->
<g id="node28" class="node"><title>Node27</title>
<polygon fill="white" stroke="#bfbfbf" points="1459.5,-112.5 1459.5,-131.5 1542.5,-131.5 1542.5,-112.5 1459.5,-112.5"/>
<text text-anchor="middle" x="1501" y="-119.5" font-family="Helvetica,sans-Serif" font-size="10.00">WiFiManager.h</text>
</g>
<!-- Node3&#45;&gt;Node27 -->
<g id="edge37" class="edge"><title>Node3&#45;&gt;Node27</title>
<path fill="none" stroke="midnightblue" d="M858.949,-169.22C861.666,-168.763 864.372,-168.348 867,-168 1121.09,-134.337 1190.45,-161.888 1449.23,-131.937"/>
<polygon fill="midnightblue" stroke="midnightblue" points="1449.79,-135.396 1459.31,-130.753 1448.97,-128.444 1449.79,-135.396"/>
</g>
<!-- Node4&#45;&gt;Node2 -->
<g id="edge5" class="edge"><title>Node4&#45;&gt;Node2</title>
<path fill="none" stroke="midnightblue" d="M186.543,-112.159C181.779,-98.3296 175.244,-71.5565 189,-56 210.334,-31.8745 424.76,-17.8254 514.663,-12.9551"/>
<polygon fill="midnightblue" stroke="midnightblue" points="514.936,-16.4456 524.736,-12.4198 514.564,-9.45551 514.936,-16.4456"/>
</g>
<!-- Node5&#45;&gt;Node2 -->
<g id="edge7" class="edge"><title>Node5&#45;&gt;Node2</title>
<path fill="none" stroke="midnightblue" d="M273.207,-112.616C227.478,-103.266 173.047,-85.4505 199,-56 219.648,-32.5699 426.873,-18.1841 514.841,-13.0898"/>
<polygon fill="midnightblue" stroke="midnightblue" points="515.172,-16.5767 524.957,-12.5146 514.774,-9.58801 515.172,-16.5767"/>
</g>
<!-- Node6 -->
<g id="node7" class="node"><title>Node6</title>
<polygon fill="white" stroke="#bfbfbf" points="208.5,-56.5 208.5,-75.5 265.5,-75.5 265.5,-56.5 208.5,-56.5"/>
<text text-anchor="middle" x="237" y="-63.5" font-family="Helvetica,sans-Serif" font-size="10.00">SI114X.h</text>
</g>
<!-- Node5&#45;&gt;Node6 -->
<g id="edge8" class="edge"><title>Node5&#45;&gt;Node6</title>
<path fill="none" stroke="midnightblue" d="M312.54,-112.324C298.5,-103.9 276.952,-90.9709 260.457,-81.0741"/>
<polygon fill="midnightblue" stroke="midnightblue" points="261.8,-77.7983 251.424,-75.6545 258.198,-83.8007 261.8,-77.7983"/>
</g>
<!-- Node7 -->
<g id="node8" class="node"><title>Node7</title>
<polygon fill="white" stroke="#bfbfbf" points="284,-56.5 284,-75.5 388,-75.5 388,-56.5 284,-56.5"/>
<text text-anchor="middle" x="336" y="-63.5" font-family="Helvetica,sans-Serif" font-size="10.00">SparkFunBME280.h</text>
</g>
<!-- Node5&#45;&gt;Node7 -->
<g id="edge9" class="edge"><title>Node5&#45;&gt;Node7</title>
<path fill="none" stroke="midnightblue" d="M328.486,-112.083C329.679,-104.927 331.394,-94.6353 332.885,-85.6911"/>
<polygon fill="midnightblue" stroke="midnightblue" points="336.35,-86.1904 334.541,-75.7511 329.445,-85.0396 336.35,-86.1904"/>
</g>
<!-- Node8&#45;&gt;Node2 -->
<g id="edge11" class="edge"><title>Node8&#45;&gt;Node2</title>
<path fill="none" stroke="midnightblue" d="M469.891,-112.381C450.394,-100.13 420.594,-76.8493 435,-56 452.814,-30.219 487.432,-19.1924 514.757,-14.4848"/>
<polygon fill="midnightblue" stroke="midnightblue" points="515.454,-17.9196 524.823,-12.9724 514.414,-10.9973 515.454,-17.9196"/>
</g>
<!-- Node9 -->
<g id="node10" class="node"><title>Node9</title>
<polygon fill="white" stroke="#bfbfbf" points="444,-56.5 444,-75.5 526,-75.5 526,-56.5 444,-56.5"/>
<text text-anchor="middle" x="485" y="-63.5" font-family="Helvetica,sans-Serif" font-size="10.00">NeoPixelBus.h</text>
</g>
<!-- Node8&#45;&gt;Node9 -->
<g id="edge12" class="edge"><title>Node8&#45;&gt;Node9</title>
<path fill="none" stroke="midnightblue" d="M485,-112.083C485,-105.006 485,-94.8611 485,-85.9865"/>
<polygon fill="midnightblue" stroke="midnightblue" points="488.5,-85.751 485,-75.7511 481.5,-85.7511 488.5,-85.751"/>
</g>
<!-- Node10&#45;&gt;Node2 -->
<g id="edge14" class="edge"><title>Node10&#45;&gt;Node2</title>
<path fill="none" stroke="midnightblue" d="M626.85,-112.488C609.362,-105.34 586.798,-93.4626 573,-76 562.417,-62.6067 557.727,-43.4981 555.65,-29.4649"/>
<polygon fill="midnightblue" stroke="midnightblue" points="559.122,-29.0286 554.481,-19.5047 552.17,-29.8445 559.122,-29.0286"/>
</g>
<!-- Node11 -->
<g id="node12" class="node"><title>Node11</title>
<polygon fill="white" stroke="#bfbfbf" points="582,-56.5 582,-75.5 642,-75.5 642,-56.5 582,-56.5"/>
<text text-anchor="middle" x="612" y="-63.5" font-family="Helvetica,sans-Serif" font-size="10.00">DS1337.h</text>
</g>
<!-- Node10&#45;&gt;Node11 -->
<g id="edge15" class="edge"><title>Node10&#45;&gt;Node11</title>
<path fill="none" stroke="midnightblue" d="M645.395,-112.083C639.745,-104.455 631.455,-93.2645 624.549,-83.9408"/>
<polygon fill="midnightblue" stroke="midnightblue" points="627.247,-81.7034 618.482,-75.7511 621.622,-85.87 627.247,-81.7034"/>
</g>
<!-- Node12 -->
<g id="node13" class="node"><title>Node12</title>
<polygon fill="white" stroke="#bfbfbf" points="660.5,-56.5 660.5,-75.5 723.5,-75.5 723.5,-56.5 660.5,-56.5"/>
<text text-anchor="middle" x="692" y="-63.5" font-family="Helvetica,sans-Serif" font-size="10.00">WiFiUdp.h</text>
</g>
<!-- Node10&#45;&gt;Node12 -->
<g id="edge16" class="edge"><title>Node10&#45;&gt;Node12</title>
<path fill="none" stroke="midnightblue" d="M658.605,-112.083C664.255,-104.455 672.545,-93.2645 679.451,-83.9408"/>
<polygon fill="midnightblue" stroke="midnightblue" points="682.378,-85.87 685.518,-75.7511 676.753,-81.7034 682.378,-85.87"/>
</g>
<!-- Node13&#45;&gt;Node2 -->
<g id="edge18" class="edge"><title>Node13&#45;&gt;Node2</title>
<path fill="none" stroke="midnightblue" d="M813.659,-112.484C797.957,-98.6163 764.765,-71.183 732,-56 686.663,-34.9913 630.105,-22.8382 593.069,-16.5729"/>
<polygon fill="midnightblue" stroke="midnightblue" points="593.598,-13.1131 583.166,-14.9594 592.473,-20.022 593.598,-13.1131"/>
</g>
<!-- Node13&#45;&gt;Node14 -->
<g id="edge19" class="edge"><title>Node13&#45;&gt;Node14</title>
<path fill="none" stroke="midnightblue" d="M839.709,-112.324C856.312,-103.703 882.002,-90.3643 901.22,-80.3855"/>
<polygon fill="midnightblue" stroke="midnightblue" points="903.07,-83.3689 910.332,-75.6545 899.844,-77.1565 903.07,-83.3689"/>
</g>
<!-- Node15 -->
<g id="node16" class="node"><title>Node15</title>
<polygon fill="white" stroke="#bfbfbf" points="780.5,-56.5 780.5,-75.5 865.5,-75.5 865.5,-56.5 780.5,-56.5"/>
<text text-anchor="middle" x="823" y="-63.5" font-family="Helvetica,sans-Serif" font-size="10.00">PubSubClient.h</text>
</g>
<!-- Node13&#45;&gt;Node15 -->
<g id="edge20" class="edge"><title>Node13&#45;&gt;Node15</title>
<path fill="none" stroke="midnightblue" d="M823,-112.083C823,-105.006 823,-94.8611 823,-85.9865"/>
<polygon fill="midnightblue" stroke="midnightblue" points="826.5,-85.751 823,-75.7511 819.5,-85.7511 826.5,-85.751"/>
</g>
<!-- Node16&#45;&gt;Node2 -->
<g id="edge22" class="edge"><title>Node16&#45;&gt;Node2</title>
<path fill="none" stroke="midnightblue" d="M960.775,-112.434C973.511,-98.9811 994.038,-72.7146 979,-56 953.417,-27.5655 693.309,-15.7419 593.084,-12.218"/>
<polygon fill="midnightblue" stroke="midnightblue" points="593.175,-8.71918 583.061,-11.8747 592.935,-15.7151 593.175,-8.71918"/>
</g>
<!-- Node17&#45;&gt;Node2 -->
<g id="edge25" class="edge"><title>Node17&#45;&gt;Node2</title>
<path fill="none" stroke="midnightblue" d="M1033.5,-112.48C1028.78,-98.0879 1017.1,-69.2385 996,-56 929.401,-14.2178 688.587,-10.4439 593.252,-10.64"/>
<polygon fill="midnightblue" stroke="midnightblue" points="593.147,-7.14025 583.16,-10.677 593.173,-14.1402 593.147,-7.14025"/>
</g>
<!-- Node18 -->
<g id="node19" class="node"><title>Node18</title>
<polygon fill="white" stroke="#bfbfbf" points="1064,-56.5 1064,-75.5 1170,-75.5 1170,-56.5 1064,-56.5"/>
<text text-anchor="middle" x="1117" y="-63.5" font-family="Helvetica,sans-Serif" font-size="10.00">Adafruit_ADS1015.h</text>
</g>
<!-- Node17&#45;&gt;Node18 -->
<g id="edge24" class="edge"><title>Node17&#45;&gt;Node18</title>
<path fill="none" stroke="midnightblue" d="M1049.01,-112.324C1061.53,-103.979 1080.68,-91.2122 1095.47,-81.3524"/>
<polygon fill="midnightblue" stroke="midnightblue" points="1097.64,-84.1137 1104.02,-75.6545 1093.76,-78.2894 1097.64,-84.1137"/>
</g>
<!-- Node19&#45;&gt;Node2 -->
<g id="edge27" class="edge"><title>Node19&#45;&gt;Node2</title>
<path fill="none" stroke="midnightblue" d="M1172.73,-112.135C1180.89,-98.2738 1193.38,-71.4572 1179,-56 1139.13,-13.1543 724.634,-10.5437 593.527,-10.7998"/>
<polygon fill="midnightblue" stroke="midnightblue" points="593.147,-7.30073 583.156,-10.8274 593.165,-14.3007 593.147,-7.30073"/>
</g>
<!-- Node20 -->
<g id="node21" class="node"><title>Node20</title>
<polygon fill="white" stroke="#bfbfbf" points="1226.5,-56.5 1226.5,-75.5 1271.5,-75.5 1271.5,-56.5 1226.5,-56.5"/>
<text text-anchor="middle" x="1249" y="-63.5" font-family="Helvetica,sans-Serif" font-size="10.00">Wire.h</text>
</g>
<!-- Node19&#45;&gt;Node20 -->
<g id="edge28" class="edge"><title>Node19&#45;&gt;Node20</title>
<path fill="none" stroke="midnightblue" d="M1180.17,-112.324C1192.85,-103.979 1212.23,-91.2122 1227.21,-81.3524"/>
<polygon fill="midnightblue" stroke="midnightblue" points="1229.43,-84.0776 1235.86,-75.6545 1225.58,-78.2313 1229.43,-84.0776"/>
</g>
<!-- Node21 -->
<g id="node22" class="node"><title>Node21</title>
<polygon fill="white" stroke="#bfbfbf" points="1289.5,-56.5 1289.5,-75.5 1352.5,-75.5 1352.5,-56.5 1289.5,-56.5"/>
<text text-anchor="middle" x="1321" y="-63.5" font-family="Helvetica,sans-Serif" font-size="10.00">OneWire.h</text>
</g>
<!-- Node19&#45;&gt;Node21 -->
<g id="edge29" class="edge"><title>Node19&#45;&gt;Node21</title>
<path fill="none" stroke="midnightblue" d="M1191.4,-112.444C1217.2,-103.399 1258.08,-89.064 1287.02,-78.9158"/>
<polygon fill="midnightblue" stroke="midnightblue" points="1288.43,-82.1283 1296.71,-75.5164 1286.12,-75.5226 1288.43,-82.1283"/>
</g>
<!-- Node22 -->
<g id="node23" class="node"><title>Node22</title>
<g id="a_node23"><a xlink:href="$_external_sensor_8h.html" xlink:title="ExternalSensor Header File. ">
<polygon fill="white" stroke="black" points="1371,-56.5 1371,-75.5 1463,-75.5 1463,-56.5 1371,-56.5"/>
<text text-anchor="middle" x="1417" y="-63.5" font-family="Helvetica,sans-Serif" font-size="10.00">ExternalSensor.h</text>
</a>
</g>
</g>
<!-- Node19&#45;&gt;Node22 -->
<g id="edge30" class="edge"><title>Node19&#45;&gt;Node22</title>
<path fill="none" stroke="midnightblue" d="M1206.61,-112.444C1250.23,-103.023 1320.4,-87.8656 1367.58,-77.6752"/>
<polygon fill="midnightblue" stroke="midnightblue" points="1368.54,-81.0489 1377.57,-75.5164 1367.06,-74.2067 1368.54,-81.0489"/>
</g>
<!-- Node22&#45;&gt;Node2 -->
<g id="edge33" class="edge"><title>Node22&#45;&gt;Node2</title>
<path fill="none" stroke="midnightblue" d="M1370.91,-57.204C1367.56,-56.7571 1364.23,-56.3487 1361,-56 1067.09,-24.2738 710.393,-14.2897 593.296,-11.7488"/>
<polygon fill="midnightblue" stroke="midnightblue" points="593.111,-8.24422 583.039,-11.5322 592.963,-15.2427 593.111,-8.24422"/>
</g>
<!-- Node23 -->
<g id="node24" class="node"><title>Node23</title>
<polygon fill="white" stroke="#bfbfbf" points="1327.5,-0.5 1327.5,-19.5 1398.5,-19.5 1398.5,-0.5 1327.5,-0.5"/>
<text text-anchor="middle" x="1363" y="-7.5" font-family="Helvetica,sans-Serif" font-size="10.00">NDIR_I2C.h</text>
</g>
<!-- Node22&#45;&gt;Node23 -->
<g id="edge31" class="edge"><title>Node22&#45;&gt;Node23</title>
<path fill="none" stroke="midnightblue" d="M1408.08,-56.083C1400.22,-48.2195 1388.57,-36.5688 1379.08,-27.0813"/>
<polygon fill="midnightblue" stroke="midnightblue" points="1381.3,-24.3473 1371.75,-19.7511 1376.35,-29.2971 1381.3,-24.3473"/>
</g>
<!-- Node24 -->
<g id="node25" class="node"><title>Node24</title>
<polygon fill="white" stroke="#bfbfbf" points="1416.5,-0.5 1416.5,-19.5 1523.5,-19.5 1523.5,-0.5 1416.5,-0.5"/>
<text text-anchor="middle" x="1470" y="-7.5" font-family="Helvetica,sans-Serif" font-size="10.00">DallasTemperature.h</text>
</g>
<!-- Node22&#45;&gt;Node24 -->
<g id="edge32" class="edge"><title>Node22&#45;&gt;Node24</title>
<path fill="none" stroke="midnightblue" d="M1425.75,-56.083C1433.47,-48.2195 1444.9,-36.5688 1454.22,-27.0813"/>
<polygon fill="midnightblue" stroke="midnightblue" points="1456.9,-29.3396 1461.41,-19.7511 1451.91,-24.4363 1456.9,-29.3396"/>
</g>
</g>
</svg>
