<?xml version="1.0" encoding="UTF-8" standalone="no"?>
<!DOCTYPE svg PUBLIC "-//W3C//DTD SVG 1.1//EN"
 "http://www.w3.org/Graphics/SVG/1.1/DTD/svg11.dtd">
<!-- Generated by graphviz version 2.38.0 (20140413.2041)
 -->
<!-- Title: CoolBoard::onLineMode Pages: 1 -->
<svg width="832pt" height="790pt"
 viewBox="0.00 0.00 832.00 790.00" xmlns="http://www.w3.org/2000/svg" xmlns:xlink="http://www.w3.org/1999/xlink">
<g id="graph0" class="graph" transform="scale(1 1) rotate(0) translate(4 786)">
<title>CoolBoard::onLineMode</title>
<polygon fill="white" stroke="none" points="-4,4 -4,-786 828,-786 828,4 -4,4"/>
<!-- Node69 -->
<g id="node1" class="node"><title>Node69</title>
<polygon fill="#bfbfbf" stroke="black" points="0,-531.5 0,-550.5 121,-550.5 121,-531.5 0,-531.5"/>
<text text-anchor="middle" x="60.5" y="-538.5" font-family="Helvetica,sans-Serif" font-size="10.00">CoolBoard::onLineMode</text>
</g>
<!-- Node70 -->
<g id="node2" class="node"><title>Node70</title>
<g id="a_node2"><a xlink:href="$class_jetpack.html#a86d2e83436ef4b85f4c3a6e85ac785b0" xlink:title="Jetpack::doAction">
<polygon fill="white" stroke="black" points="184,-752.5 184,-771.5 279,-771.5 279,-752.5 184,-752.5"/>
<text text-anchor="middle" x="231.5" y="-759.5" font-family="Helvetica,sans-Serif" font-size="10.00">Jetpack::doAction</text>
</a>
</g>
</g>
<!-- Node69&#45;&gt;Node70 -->
<g id="edge1" class="edge"><title>Node69&#45;&gt;Node70</title>
<path fill="none" stroke="midnightblue" d="M64.2237,-550.608C73.0049,-580.069 103.176,-670.381 157,-724 167.218,-734.179 180.728,-742.219 193.375,-748.232"/>
<polygon fill="midnightblue" stroke="midnightblue" points="192.25,-751.563 202.809,-752.437 195.1,-745.169 192.25,-751.563"/>
</g>
<!-- Node72 -->
<g id="node4" class="node"><title>Node72</title>
<g id="a_node4"><a xlink:href="$class_cool_board.html#aaa24480b273fc095a1356a589c333781" xlink:title="CoolBoard::getLogInterval">
<polygon fill="white" stroke="black" points="166.5,-695.5 166.5,-714.5 296.5,-714.5 296.5,-695.5 166.5,-695.5"/>
<text text-anchor="middle" x="231.5" y="-702.5" font-family="Helvetica,sans-Serif" font-size="10.00">CoolBoard::getLogInterval</text>
</a>
</g>
</g>
<!-- Node69&#45;&gt;Node72 -->
<g id="edge3" class="edge"><title>Node69&#45;&gt;Node72</title>
<path fill="none" stroke="midnightblue" d="M64.934,-550.536C74.8287,-576.603 105.996,-649.536 157,-686 159.734,-687.955 162.653,-689.708 165.692,-691.282"/>
<polygon fill="midnightblue" stroke="midnightblue" points="164.55,-694.605 175.108,-695.482 167.401,-688.212 164.55,-694.605"/>
</g>
<!-- Node73 -->
<g id="node5" class="node"><title>Node73</title>
<g id="a_node5"><a xlink:href="$class_cool_file_system.html#a5c58bca3735c0ed3efb268d70ef998ef" xlink:title="CoolFileSystem::getSensor\lSavedData">
<polygon fill="white" stroke="black" points="163,-646 163,-676 300,-676 300,-646 163,-646"/>
<text text-anchor="start" x="171" y="-664" font-family="Helvetica,sans-Serif" font-size="10.00">CoolFileSystem::getSensor</text>
<text text-anchor="middle" x="231.5" y="-653" font-family="Helvetica,sans-Serif" font-size="10.00">SavedData</text>
</a>
</g>
</g>
<!-- Node69&#45;&gt;Node73 -->
<g id="edge4" class="edge"><title>Node69&#45;&gt;Node73</title>
<path fill="none" stroke="midnightblue" d="M68.5823,-550.516C83.1224,-569.422 118.25,-611.958 157,-636 160.32,-638.06 163.83,-639.973 167.445,-641.748"/>
<polygon fill="midnightblue" stroke="midnightblue" points="166.042,-644.955 176.597,-645.875 168.92,-638.574 166.042,-644.955"/>
</g>
<!-- Node74 -->
<g id="node6" class="node"><title>Node74</title>
<g id="a_node6"><a xlink:href="$class_cool_file_system.html#a5a7eaeea7a9fbf8aaef651d862fa3b5b" xlink:title="CoolFileSystem::isDataSaved">
<polygon fill="white" stroke="black" points="157,-607.5 157,-626.5 306,-626.5 306,-607.5 157,-607.5"/>
<text text-anchor="middle" x="231.5" y="-614.5" font-family="Helvetica,sans-Serif" font-size="10.00">CoolFileSystem::isDataSaved</text>
</a>
</g>
</g>
<!-- Node69&#45;&gt;Node74 -->
<g id="edge5" class="edge"><title>Node69&#45;&gt;Node74</title>
<path fill="none" stroke="midnightblue" d="M76.9415,-550.558C95.4678,-561.752 127.703,-580.367 157,-593 166.522,-597.106 176.99,-600.919 186.966,-604.243"/>
<polygon fill="midnightblue" stroke="midnightblue" points="186.133,-607.652 196.725,-607.396 188.285,-600.991 186.133,-607.652"/>
</g>
<!-- Node75 -->
<g id="node7" class="node"><title>Node75</title>
<g id="a_node7"><a xlink:href="$class_cool_m_q_t_t.html#aa5eaae967b562b62cbcf2b8d81f6e5d5" xlink:title="CoolMQTT::mqttLoop">
<polygon fill="white" stroke="black" points="361.5,-724.5 361.5,-743.5 472.5,-743.5 472.5,-724.5 361.5,-724.5"/>
<text text-anchor="middle" x="417" y="-731.5" font-family="Helvetica,sans-Serif" font-size="10.00">CoolMQTT::mqttLoop</text>
</a>
</g>
</g>
<!-- Node69&#45;&gt;Node75 -->
<g id="edge6" class="edge"><title>Node69&#45;&gt;Node75</title>
<path fill="none" stroke="midnightblue" d="M107.745,-550.543C176.569,-564.923 298.699,-591.19 306,-598 345.783,-635.112 302.633,-677.447 342,-715 345.077,-717.935 348.544,-720.434 352.256,-722.558"/>
<polygon fill="midnightblue" stroke="midnightblue" points="350.757,-725.721 361.289,-726.866 353.77,-719.402 350.757,-725.721"/>
</g>
<!-- Node76 -->
<g id="node8" class="node"><title>Node76</title>
<g id="a_node8"><a xlink:href="$class_cool_m_q_t_t.html#ace977b3e90ab14b1199fe5c4fb0a13ec" xlink:title="CoolMQTT::publish">
<polygon fill="white" stroke="black" points="366.5,-686.5 366.5,-705.5 467.5,-705.5 467.5,-686.5 366.5,-686.5"/>
<text text-anchor="middle" x="417" y="-693.5" font-family="Helvetica,sans-Serif" font-size="10.00">CoolMQTT::publish</text>
</a>
</g>
</g>
<!-- Node69&#45;&gt;Node76 -->
<g id="edge7" class="edge"><title>Node69&#45;&gt;Node76</title>
<path fill="none" stroke="midnightblue" d="M109.505,-531.469C163.406,-523.69 250.562,-520.277 306,-565 346.695,-597.829 303.942,-641.148 342,-677 346.329,-681.079 351.413,-684.311 356.853,-686.869"/>
<polygon fill="midnightblue" stroke="midnightblue" points="355.688,-690.172 366.276,-690.567 358.246,-683.656 355.688,-690.172"/>
</g>
<!-- Node77 -->
<g id="node9" class="node"><title>Node77</title>
<g id="a_node9"><a xlink:href="$class_cool_m_q_t_t.html#ae3c18f6ae9723746d32765f1c8f176ca" xlink:title="CoolMQTT::read">
<polygon fill="white" stroke="black" points="187,-455.5 187,-474.5 276,-474.5 276,-455.5 187,-455.5"/>
<text text-anchor="middle" x="231.5" y="-462.5" font-family="Helvetica,sans-Serif" font-size="10.00">CoolMQTT::read</text>
</a>
</g>
</g>
<!-- Node69&#45;&gt;Node77 -->
<g id="edge8" class="edge"><title>Node69&#45;&gt;Node77</title>
<path fill="none" stroke="midnightblue" d="M74.7673,-531.402C92.6411,-518.875 125.819,-497.019 157,-484 163.292,-481.373 170.043,-479.032 176.81,-476.968"/>
<polygon fill="midnightblue" stroke="midnightblue" points="178.033,-480.258 186.684,-474.142 176.107,-473.528 178.033,-480.258"/>
</g>
<!-- Node78 -->
<g id="node10" class="node"><title>Node78</title>
<g id="a_node10"><a xlink:href="$class_cool_board.html#ad03abdce2e65f520bbf2cff0f2d083cf" xlink:title="CoolBoard::readSensors">
<polygon fill="white" stroke="black" points="170,-237.5 170,-256.5 293,-256.5 293,-237.5 170,-237.5"/>
<text text-anchor="middle" x="231.5" y="-244.5" font-family="Helvetica,sans-Serif" font-size="10.00">CoolBoard::readSensors</text>
</a>
</g>
</g>
<!-- Node69&#45;&gt;Node78 -->
<g id="edge9" class="edge"><title>Node69&#45;&gt;Node78</title>
<path fill="none" stroke="midnightblue" d="M67.1229,-531.218C91.4363,-488.922 187.745,-321.378 219.949,-265.355"/>
<polygon fill="midnightblue" stroke="midnightblue" points="223.078,-266.935 225.027,-256.521 217.009,-263.447 223.078,-266.935"/>
</g>
<!-- Node89 -->
<g id="node21" class="node"><title>Node89</title>
<g id="a_node21"><a xlink:href="$class_cool_time.html#aae601f795452cfa48d9fb337aed483a8" xlink:title="CoolTime::update">
<polygon fill="white" stroke="black" points="184.5,-114.5 184.5,-133.5 278.5,-133.5 278.5,-114.5 184.5,-114.5"/>
<text text-anchor="middle" x="231.5" y="-121.5" font-family="Helvetica,sans-Serif" font-size="10.00">CoolTime::update</text>
</a>
</g>
</g>
<!-- Node69&#45;&gt;Node89 -->
<g id="edge22" class="edge"><title>Node69&#45;&gt;Node89</title>
<path fill="none" stroke="midnightblue" d="M63.2687,-531.37C70.7194,-492.094 101.745,-340.746 157,-228 173.104,-195.141 199.107,-161.3 215.477,-141.48"/>
<polygon fill="midnightblue" stroke="midnightblue" points="218.301,-143.561 222.049,-133.652 212.939,-139.061 218.301,-143.561"/>
</g>
<!-- Node94 -->
<g id="node26" class="node"><title>Node94</title>
<g id="a_node26"><a xlink:href="$class_cool_board.html#a8612756d3f73198cdde857a66f0fe690" xlink:title="CoolBoard::update">
<polygon fill="white" stroke="black" points="182.5,-493.5 182.5,-512.5 280.5,-512.5 280.5,-493.5 182.5,-493.5"/>
<text text-anchor="middle" x="231.5" y="-500.5" font-family="Helvetica,sans-Serif" font-size="10.00">CoolBoard::update</text>
</a>
</g>
</g>
<!-- Node69&#45;&gt;Node94 -->
<g id="edge27" class="edge"><title>Node69&#45;&gt;Node94</title>
<path fill="none" stroke="midnightblue" d="M104.146,-531.411C126.648,-526.351 154.448,-520.1 178.238,-514.751"/>
<polygon fill="midnightblue" stroke="midnightblue" points="179.172,-518.129 188.161,-512.52 177.637,-511.299 179.172,-518.129"/>
</g>
<!-- Node108 -->
<g id="node40" class="node"><title>Node108</title>
<g id="a_node40"><a xlink:href="$class_cool_board.html#ae7358fb6e623cfc81b775f5f1734909b" xlink:title="CoolBoard::userData">
<polygon fill="white" stroke="black" points="177.5,-38.5 177.5,-57.5 285.5,-57.5 285.5,-38.5 177.5,-38.5"/>
<text text-anchor="middle" x="231.5" y="-45.5" font-family="Helvetica,sans-Serif" font-size="10.00">CoolBoard::userData</text>
</a>
</g>
</g>
<!-- Node69&#45;&gt;Node108 -->
<g id="edge43" class="edge"><title>Node69&#45;&gt;Node108</title>
<path fill="none" stroke="midnightblue" d="M61.2823,-531.208C60.6275,-481.507 63.0583,-253.714 157,-105 168.246,-87.1967 187.107,-72.7406 202.907,-62.8413"/>
<polygon fill="midnightblue" stroke="midnightblue" points="204.982,-65.6789 211.775,-57.5484 201.394,-59.6681 204.982,-65.6789"/>
</g>
<!-- Node71 -->
<g id="node3" class="node"><title>Node71</title>
<g id="a_node3"><a xlink:href="$class_jetpack.html#a338f1af8cbc6504ac69b47c7328569b5" xlink:title="Jetpack::write">
<polygon fill="white" stroke="black" points="378,-762.5 378,-781.5 456,-781.5 456,-762.5 378,-762.5"/>
<text text-anchor="middle" x="417" y="-769.5" font-family="Helvetica,sans-Serif" font-size="10.00">Jetpack::write</text>
</a>
</g>
</g>
<!-- Node70&#45;&gt;Node71 -->
<g id="edge2" class="edge"><title>Node70&#45;&gt;Node71</title>
<path fill="none" stroke="midnightblue" d="M279.28,-764.549C306.396,-766.027 340.476,-767.884 367.827,-769.375"/>
<polygon fill="midnightblue" stroke="midnightblue" points="367.775,-772.877 377.951,-769.926 368.156,-765.887 367.775,-772.877"/>
</g>
<!-- Node79 -->
<g id="node11" class="node"><title>Node79</title>
<g id="a_node11"><a xlink:href="$class_cool_board_sensors.html#a91badb2539d91fda8679f2a597874c48" xlink:title="CoolBoardSensors::read">
<polygon fill="white" stroke="black" points="355.5,-256.5 355.5,-275.5 478.5,-275.5 478.5,-256.5 355.5,-256.5"/>
<text text-anchor="middle" x="417" y="-263.5" font-family="Helvetica,sans-Serif" font-size="10.00">CoolBoardSensors::read</text>
</a>
</g>
</g>
<!-- Node78&#45;&gt;Node79 -->
<g id="edge10" class="edge"><title>Node78&#45;&gt;Node79</title>
<path fill="none" stroke="midnightblue" d="M293.093,-253.274C309.848,-255.009 328.177,-256.907 345.445,-258.695"/>
<polygon fill="midnightblue" stroke="midnightblue" points="345.163,-262.184 355.47,-259.733 345.884,-255.221 345.163,-262.184"/>
</g>
<!-- Node83 -->
<g id="node15" class="node"><title>Node83</title>
<g id="a_node15"><a xlink:href="$class_external_sensors.html#a53177b81eca3be89508b5511ddcd00fc" xlink:title="ExternalSensors::read">
<polygon fill="white" stroke="black" points="360.5,-218.5 360.5,-237.5 473.5,-237.5 473.5,-218.5 360.5,-218.5"/>
<text text-anchor="middle" x="417" y="-225.5" font-family="Helvetica,sans-Serif" font-size="10.00">ExternalSensors::read</text>
</a>
</g>
</g>
<!-- Node78&#45;&gt;Node83 -->
<g id="edge14" class="edge"><title>Node78&#45;&gt;Node83</title>
<path fill="none" stroke="midnightblue" d="M293.093,-240.726C311.414,-238.829 331.616,-236.737 350.257,-234.807"/>
<polygon fill="midnightblue" stroke="midnightblue" points="350.844,-238.265 360.43,-233.754 350.123,-231.302 350.844,-238.265"/>
</g>
<!-- Node84 -->
<g id="node16" class="node"><title>Node84</title>
<g id="a_node16"><a xlink:href="$class_irene3000.html#a852a170feea994ea1df01c6b245b5d9a" xlink:title="Irene3000::read">
<polygon fill="white" stroke="black" points="375,-171.5 375,-190.5 459,-190.5 459,-171.5 375,-171.5"/>
<text text-anchor="middle" x="417" y="-178.5" font-family="Helvetica,sans-Serif" font-size="10.00">Irene3000::read</text>
</a>
</g>
</g>
<!-- Node78&#45;&gt;Node84 -->
<g id="edge15" class="edge"><title>Node78&#45;&gt;Node84</title>
<path fill="none" stroke="midnightblue" d="M259.182,-237.403C291.074,-225.933 344.574,-206.69 380.079,-193.92"/>
<polygon fill="midnightblue" stroke="midnightblue" points="381.358,-197.179 389.583,-190.501 378.989,-190.593 381.358,-197.179"/>
</g>
<!-- Node80 -->
<g id="node12" class="node"><title>Node80</title>
<g id="a_node12"><a xlink:href="$class_cool_board_sensors.html#acad6a8418c66d36868caca23c844ecb6" xlink:title="CoolBoardSensors::initReadI2C">
<polygon fill="white" stroke="black" points="530.5,-313.5 530.5,-332.5 686.5,-332.5 686.5,-313.5 530.5,-313.5"/>
<text text-anchor="middle" x="608.5" y="-320.5" font-family="Helvetica,sans-Serif" font-size="10.00">CoolBoardSensors::initReadI2C</text>
</a>
</g>
</g>
<!-- Node79&#45;&gt;Node80 -->
<g id="edge11" class="edge"><title>Node79&#45;&gt;Node80</title>
<path fill="none" stroke="midnightblue" d="M462.359,-275.585C472.254,-278.219 482.596,-281.369 492,-285 508.877,-291.516 511.069,-297.625 528,-304 534.756,-306.544 541.967,-308.827 549.185,-310.853"/>
<polygon fill="midnightblue" stroke="midnightblue" points="548.426,-314.273 558.99,-313.456 550.222,-307.507 548.426,-314.273"/>
</g>
<!-- Node81 -->
<g id="node13" class="node"><title>Node81</title>
<g id="a_node13"><a xlink:href="$class_cool_board_sensors.html#a6944b6ea7bce8e2fce1b434acfd9d5f3" xlink:title="CoolBoardSensors::readVBat">
<polygon fill="white" stroke="black" points="536,-275.5 536,-294.5 681,-294.5 681,-275.5 536,-275.5"/>
<text text-anchor="middle" x="608.5" y="-282.5" font-family="Helvetica,sans-Serif" font-size="10.00">CoolBoardSensors::readVBat</text>
</a>
</g>
</g>
<!-- Node79&#45;&gt;Node81 -->
<g id="edge12" class="edge"><title>Node79&#45;&gt;Node81</title>
<path fill="none" stroke="midnightblue" d="M478.741,-272.09C493.66,-273.586 509.877,-275.212 525.611,-276.789"/>
<polygon fill="midnightblue" stroke="midnightblue" points="525.563,-280.302 535.862,-277.817 526.261,-273.337 525.563,-280.302"/>
</g>
<!-- Node82 -->
<g id="node14" class="node"><title>Node82</title>
<g id="a_node14"><a xlink:href="$class_cool_board_sensors.html#a8761bff50373c485f4465c8db47d0633" xlink:title="CoolBoardSensors::readMoisture">
<polygon fill="white" stroke="black" points="528,-237.5 528,-256.5 689,-256.5 689,-237.5 528,-237.5"/>
<text text-anchor="middle" x="608.5" y="-244.5" font-family="Helvetica,sans-Serif" font-size="10.00">CoolBoardSensors::readMoisture</text>
</a>
</g>
</g>
<!-- Node79&#45;&gt;Node82 -->
<g id="edge13" class="edge"><title>Node79&#45;&gt;Node82</title>
<path fill="none" stroke="midnightblue" d="M478.741,-259.91C491.163,-258.664 504.485,-257.329 517.679,-256.006"/>
<polygon fill="midnightblue" stroke="midnightblue" points="518.126,-259.479 527.727,-254.998 517.428,-252.514 518.126,-259.479"/>
</g>
<!-- Node85 -->
<g id="node17" class="node"><title>Node85</title>
<g id="a_node17"><a xlink:href="$class_irene3000.html#a94ad40f281d83ad1be20bf1edd6fe802" xlink:title="Irene3000::readTemp">
<polygon fill="white" stroke="black" points="554,-199.5 554,-218.5 663,-218.5 663,-199.5 554,-199.5"/>
<text text-anchor="middle" x="608.5" y="-206.5" font-family="Helvetica,sans-Serif" font-size="10.00">Irene3000::readTemp</text>
</a>
</g>
</g>
<!-- Node84&#45;&gt;Node85 -->
<g id="edge16" class="edge"><title>Node84&#45;&gt;Node85</title>
<path fill="none" stroke="midnightblue" d="M459.119,-187.076C483.841,-190.728 515.826,-195.454 543.766,-199.583"/>
<polygon fill="midnightblue" stroke="midnightblue" points="543.452,-203.074 553.856,-201.074 544.475,-196.15 543.452,-203.074"/>
</g>
<!-- Node87 -->
<g id="node19" class="node"><title>Node87</title>
<g id="a_node19"><a xlink:href="$class_irene3000.html#abf3db725fabb0634ec889b32068a5eec" xlink:title="Irene3000::readPh">
<polygon fill="white" stroke="black" points="560.5,-161.5 560.5,-180.5 656.5,-180.5 656.5,-161.5 560.5,-161.5"/>
<text text-anchor="middle" x="608.5" y="-168.5" font-family="Helvetica,sans-Serif" font-size="10.00">Irene3000::readPh</text>
</a>
</g>
</g>
<!-- Node84&#45;&gt;Node87 -->
<g id="edge18" class="edge"><title>Node84&#45;&gt;Node87</title>
<path fill="none" stroke="midnightblue" d="M459.119,-178.83C485.799,-177.422 520.939,-175.568 550.325,-174.017"/>
<polygon fill="midnightblue" stroke="midnightblue" points="550.654,-177.505 560.456,-173.483 550.285,-170.514 550.654,-177.505"/>
</g>
<!-- Node88 -->
<g id="node20" class="node"><title>Node88</title>
<g id="a_node20"><a xlink:href="$class_irene3000.html#ae73bd2ed14a199a7e83f4d6458476a7c" xlink:title="Irene3000::readADSChannel2">
<polygon fill="white" stroke="black" points="535.5,-123.5 535.5,-142.5 681.5,-142.5 681.5,-123.5 535.5,-123.5"/>
<text text-anchor="middle" x="608.5" y="-130.5" font-family="Helvetica,sans-Serif" font-size="10.00">Irene3000::readADSChannel2</text>
</a>
</g>
</g>
<!-- Node84&#45;&gt;Node88 -->
<g id="edge20" class="edge"><title>Node84&#45;&gt;Node88</title>
<path fill="none" stroke="midnightblue" d="M453.615,-171.387C475.122,-165.638 503.099,-158.257 528,-152 537.295,-149.664 547.219,-147.239 556.794,-144.933"/>
<polygon fill="midnightblue" stroke="midnightblue" points="557.694,-148.316 566.603,-142.582 556.063,-141.509 557.694,-148.316"/>
</g>
<!-- Node86 -->
<g id="node18" class="node"><title>Node86</title>
<g id="a_node18"><a xlink:href="$class_irene3000.html#aff7c5da186b388e7272e63ff88a20c34" xlink:title="Irene3000::setGain">
<polygon fill="white" stroke="black" points="725,-161.5 725,-180.5 824,-180.5 824,-161.5 725,-161.5"/>
<text text-anchor="middle" x="774.5" y="-168.5" font-family="Helvetica,sans-Serif" font-size="10.00">Irene3000::setGain</text>
</a>
</g>
</g>
<!-- Node85&#45;&gt;Node86 -->
<g id="edge17" class="edge"><title>Node85&#45;&gt;Node86</title>
<path fill="none" stroke="midnightblue" d="M650.884,-199.411C672.623,-194.374 699.457,-188.156 722.475,-182.823"/>
<polygon fill="midnightblue" stroke="midnightblue" points="723.462,-186.187 732.413,-180.52 721.881,-179.368 723.462,-186.187"/>
</g>
<!-- Node87&#45;&gt;Node86 -->
<g id="edge19" class="edge"><title>Node87&#45;&gt;Node86</title>
<path fill="none" stroke="midnightblue" d="M656.936,-171C674.978,-171 695.753,-171 714.722,-171"/>
<polygon fill="midnightblue" stroke="midnightblue" points="714.747,-174.5 724.747,-171 714.747,-167.5 714.747,-174.5"/>
</g>
<!-- Node88&#45;&gt;Node86 -->
<g id="edge21" class="edge"><title>Node88&#45;&gt;Node86</title>
<path fill="none" stroke="midnightblue" d="M650.884,-142.589C672.623,-147.626 699.457,-153.844 722.475,-159.177"/>
<polygon fill="midnightblue" stroke="midnightblue" points="721.881,-162.632 732.413,-161.48 723.462,-155.813 721.881,-162.632"/>
</g>
<!-- Node90 -->
<g id="node22" class="node"><title>Node90</title>
<g id="a_node22"><a xlink:href="$class_cool_time.html#a5ae038a4498602b189f76a10bf02adf8" xlink:title="CoolTime::isTimeSync">
<polygon fill="white" stroke="black" points="359,-114.5 359,-133.5 475,-133.5 475,-114.5 359,-114.5"/>
<text text-anchor="middle" x="417" y="-121.5" font-family="Helvetica,sans-Serif" font-size="10.00">CoolTime::isTimeSync</text>
</a>
</g>
</g>
<!-- Node89&#45;&gt;Node90 -->
<g id="edge23" class="edge"><title>Node89&#45;&gt;Node90</title>
<path fill="none" stroke="midnightblue" d="M278.805,-124C299.984,-124 325.486,-124 348.727,-124"/>
<polygon fill="midnightblue" stroke="midnightblue" points="348.875,-127.5 358.875,-124 348.875,-120.5 348.875,-127.5"/>
</g>
<!-- Node92 -->
<g id="node24" class="node"><title>Node92</title>
<g id="a_node24"><a xlink:href="$class_cool_time.html#a41fbbbfd651c2079f54d4b2911e4c705" xlink:title="CoolTime::getNtpTime">
<polygon fill="white" stroke="black" points="359,-76.5 359,-95.5 475,-95.5 475,-76.5 359,-76.5"/>
<text text-anchor="middle" x="417" y="-83.5" font-family="Helvetica,sans-Serif" font-size="10.00">CoolTime::getNtpTime</text>
</a>
</g>
</g>
<!-- Node89&#45;&gt;Node92 -->
<g id="edge25" class="edge"><title>Node89&#45;&gt;Node92</title>
<path fill="none" stroke="midnightblue" d="M278.805,-114.411C303.456,-109.306 333.963,-102.989 359.945,-97.6082"/>
<polygon fill="midnightblue" stroke="midnightblue" points="360.946,-100.975 370.028,-95.5201 359.526,-94.1207 360.946,-100.975"/>
</g>
<!-- Node91 -->
<g id="node23" class="node"><title>Node91</title>
<g id="a_node23"><a xlink:href="$class_cool_time.html#a5d17f707a9d337720493b2bce9d41c21" xlink:title="CoolTime::getLastSyncTime">
<polygon fill="white" stroke="black" points="538,-85.5 538,-104.5 679,-104.5 679,-85.5 538,-85.5"/>
<text text-anchor="middle" x="608.5" y="-92.5" font-family="Helvetica,sans-Serif" font-size="10.00">CoolTime::getLastSyncTime</text>
</a>
</g>
</g>
<!-- Node90&#45;&gt;Node91 -->
<g id="edge24" class="edge"><title>Node90&#45;&gt;Node91</title>
<path fill="none" stroke="midnightblue" d="M475.113,-115.26C494.038,-112.364 515.356,-109.101 535.265,-106.054"/>
<polygon fill="midnightblue" stroke="midnightblue" points="535.862,-109.504 545.217,-104.531 534.803,-102.584 535.862,-109.504"/>
</g>
<!-- Node93 -->
<g id="node25" class="node"><title>Node93</title>
<g id="a_node25"><a xlink:href="$class_cool_time.html#a236a38d120dc53bc67456d763838c5a1" xlink:title="CoolTime::sendNTPpacket">
<polygon fill="white" stroke="black" points="541,-47.5 541,-66.5 676,-66.5 676,-47.5 541,-47.5"/>
<text text-anchor="middle" x="608.5" y="-54.5" font-family="Helvetica,sans-Serif" font-size="10.00">CoolTime::sendNTPpacket</text>
</a>
</g>
</g>
<!-- Node92&#45;&gt;Node93 -->
<g id="edge26" class="edge"><title>Node92&#45;&gt;Node93</title>
<path fill="none" stroke="midnightblue" d="M475.113,-77.2597C494.038,-74.3635 515.356,-71.1012 535.265,-68.0544"/>
<polygon fill="midnightblue" stroke="midnightblue" points="535.862,-71.5039 545.217,-66.5314 534.803,-64.5845 535.862,-71.5039"/>
</g>
<!-- Node94&#45;&gt;Node75 -->
<g id="edge42" class="edge"><title>Node94&#45;&gt;Node75</title>
<path fill="none" stroke="midnightblue" d="M249.208,-512.629C266.138,-523.27 291.8,-541.984 306,-565 341.999,-623.348 293.905,-666.14 342,-715 345.036,-718.084 348.499,-720.69 352.233,-722.891"/>
<polygon fill="midnightblue" stroke="midnightblue" points="350.835,-726.103 361.359,-727.323 353.893,-719.806 350.835,-726.103"/>
</g>
<!-- Node94&#45;&gt;Node76 -->
<g id="edge41" class="edge"><title>Node94&#45;&gt;Node76</title>
<path fill="none" stroke="midnightblue" d="M280.531,-510.932C290.036,-514.479 299.172,-519.602 306,-527 352.5,-577.381 293.905,-628.14 342,-677 346.232,-681.3 351.297,-684.671 356.764,-687.309"/>
<polygon fill="midnightblue" stroke="midnightblue" points="355.683,-690.645 366.269,-691.089 358.27,-684.141 355.683,-690.645"/>
</g>
<!-- Node95 -->
<g id="node27" class="node"><title>Node95</title>
<g id="a_node27"><a xlink:href="$class_cool_file_system.html#a32dad79ae80182a83e2e8f52286b7c7b" xlink:title="CoolFileSystem::updateConfig\lFiles">
<polygon fill="white" stroke="black" points="342,-637 342,-667 492,-667 492,-637 342,-637"/>
<text text-anchor="start" x="350" y="-655" font-family="Helvetica,sans-Serif" font-size="10.00">CoolFileSystem::updateConfig</text>
<text text-anchor="middle" x="417" y="-644" font-family="Helvetica,sans-Serif" font-size="10.00">Files</text>
</a>
</g>
</g>
<!-- Node94&#45;&gt;Node95 -->
<g id="edge28" class="edge"><title>Node94&#45;&gt;Node95</title>
<path fill="none" stroke="midnightblue" d="M280.699,-511.796C289.97,-515.292 298.968,-520.175 306,-527 339.898,-559.898 308.27,-593.93 342,-627 343.613,-628.581 345.329,-630.063 347.128,-631.45"/>
<polygon fill="midnightblue" stroke="midnightblue" points="345.21,-634.378 355.487,-636.955 349.06,-628.532 345.21,-634.378"/>
</g>
<!-- Node96 -->
<g id="node28" class="node"><title>Node96</title>
<g id="a_node28"><a xlink:href="$class_cool_board.html#a583a874c09c07e70a6eb9229fc4beddb" xlink:title="CoolBoard::config">
<polygon fill="white" stroke="black" points="369.5,-598.5 369.5,-617.5 464.5,-617.5 464.5,-598.5 369.5,-598.5"/>
<text text-anchor="middle" x="417" y="-605.5" font-family="Helvetica,sans-Serif" font-size="10.00">CoolBoard::config</text>
</a>
</g>
</g>
<!-- Node94&#45;&gt;Node96 -->
<g id="edge29" class="edge"><title>Node94&#45;&gt;Node96</title>
<path fill="none" stroke="midnightblue" d="M279.032,-512.532C288.623,-515.987 298.173,-520.668 306,-527 330.773,-547.04 316.596,-569.766 342,-589 347.205,-592.941 353.144,-596.068 359.342,-598.55"/>
<polygon fill="midnightblue" stroke="midnightblue" points="358.633,-602.007 369.227,-601.942 360.905,-595.386 358.633,-602.007"/>
</g>
<!-- Node98 -->
<g id="node30" class="node"><title>Node98</title>
<g id="a_node30"><a xlink:href="$class_cool_board_sensors.html#a9a218895c5423375c33c08f2c56fb23a" xlink:title="CoolBoardSensors::config">
<polygon fill="white" stroke="black" points="351.5,-560.5 351.5,-579.5 482.5,-579.5 482.5,-560.5 351.5,-560.5"/>
<text text-anchor="middle" x="417" y="-567.5" font-family="Helvetica,sans-Serif" font-size="10.00">CoolBoardSensors::config</text>
</a>
</g>
</g>
<!-- Node94&#45;&gt;Node98 -->
<g id="edge31" class="edge"><title>Node94&#45;&gt;Node98</title>
<path fill="none" stroke="midnightblue" d="M268.409,-512.578C280.62,-516.393 294.165,-521.257 306,-527 323.3,-535.396 324.439,-543.165 342,-551 347.432,-553.424 353.231,-555.581 359.103,-557.491"/>
<polygon fill="midnightblue" stroke="midnightblue" points="358.416,-560.94 369.001,-560.476 360.437,-554.238 358.416,-560.94"/>
</g>
<!-- Node99 -->
<g id="node31" class="node"><title>Node99</title>
<g id="a_node31"><a xlink:href="$class_cool_time.html#a87c28260c1bc77091162cbcf1ee2e129" xlink:title="CoolTime::config">
<polygon fill="white" stroke="black" points="371.5,-522.5 371.5,-541.5 462.5,-541.5 462.5,-522.5 371.5,-522.5"/>
<text text-anchor="middle" x="417" y="-529.5" font-family="Helvetica,sans-Serif" font-size="10.00">CoolTime::config</text>
</a>
</g>
</g>
<!-- Node94&#45;&gt;Node99 -->
<g id="edge32" class="edge"><title>Node94&#45;&gt;Node99</title>
<path fill="none" stroke="midnightblue" d="M280.712,-510.619C305.461,-514.531 335.711,-519.311 361.326,-523.359"/>
<polygon fill="midnightblue" stroke="midnightblue" points="360.834,-526.825 371.258,-524.929 361.927,-519.911 360.834,-526.825"/>
</g>
<!-- Node100 -->
<g id="node32" class="node"><title>Node100</title>
<g id="a_node32"><a xlink:href="$class_cool_board_led.html#a1b60e5e30bea96c49ed62ed1bf1ffc8b" xlink:title="CoolBoardLed::config">
<polygon fill="white" stroke="black" points="362,-484.5 362,-503.5 472,-503.5 472,-484.5 362,-484.5"/>
<text text-anchor="middle" x="417" y="-491.5" font-family="Helvetica,sans-Serif" font-size="10.00">CoolBoardLed::config</text>
</a>
</g>
</g>
<!-- Node94&#45;&gt;Node100 -->
<g id="edge33" class="edge"><title>Node94&#45;&gt;Node100</title>
<path fill="none" stroke="midnightblue" d="M280.712,-500.635C302.45,-499.569 328.431,-498.295 351.789,-497.149"/>
<polygon fill="midnightblue" stroke="midnightblue" points="352.147,-500.636 361.964,-496.65 351.804,-493.644 352.147,-500.636"/>
</g>
<!-- Node101 -->
<g id="node33" class="node"><title>Node101</title>
<g id="a_node33"><a xlink:href="$class_cool_m_q_t_t.html#a9b703de4f1358f0ee7a5e8c44979c648" xlink:title="CoolMQTT::config">
<polygon fill="white" stroke="black" points="368.5,-446.5 368.5,-465.5 465.5,-465.5 465.5,-446.5 368.5,-446.5"/>
<text text-anchor="middle" x="417" y="-453.5" font-family="Helvetica,sans-Serif" font-size="10.00">CoolMQTT::config</text>
</a>
</g>
</g>
<!-- Node94&#45;&gt;Node101 -->
<g id="edge34" class="edge"><title>Node94&#45;&gt;Node101</title>
<path fill="none" stroke="midnightblue" d="M269.634,-493.489C298.143,-486.187 337.713,-476.052 368.523,-468.16"/>
<polygon fill="midnightblue" stroke="midnightblue" points="369.788,-471.449 378.607,-465.578 368.051,-464.668 369.788,-471.449"/>
</g>
<!-- Node102 -->
<g id="node34" class="node"><title>Node102</title>
<g id="a_node34"><a xlink:href="$class_jetpack.html#ab065ee83e244265a2223a22f3ee4a719" xlink:title="Jetpack::config">
<polygon fill="white" stroke="black" points="375.5,-408.5 375.5,-427.5 458.5,-427.5 458.5,-408.5 375.5,-408.5"/>
<text text-anchor="middle" x="417" y="-415.5" font-family="Helvetica,sans-Serif" font-size="10.00">Jetpack::config</text>
</a>
</g>
</g>
<!-- Node94&#45;&gt;Node102 -->
<g id="edge35" class="edge"><title>Node94&#45;&gt;Node102</title>
<path fill="none" stroke="midnightblue" d="M280.723,-495.436C289.584,-492.717 298.418,-489.022 306,-484 327.936,-469.469 320.052,-451.513 342,-437 349.077,-432.32 357.238,-428.793 365.499,-426.134"/>
<polygon fill="midnightblue" stroke="midnightblue" points="366.514,-429.484 375.184,-423.395 364.609,-422.748 366.514,-429.484"/>
</g>
<!-- Node103 -->
<g id="node35" class="node"><title>Node103</title>
<g id="a_node35"><a xlink:href="$class_irene3000.html#afed5c35e4b23963c157847ef27c11e9c" xlink:title="Irene3000::config">
<polygon fill="white" stroke="black" points="371,-370.5 371,-389.5 463,-389.5 463,-370.5 371,-370.5"/>
<text text-anchor="middle" x="417" y="-377.5" font-family="Helvetica,sans-Serif" font-size="10.00">Irene3000::config</text>
</a>
</g>
</g>
<!-- Node94&#45;&gt;Node103 -->
<g id="edge36" class="edge"><title>Node94&#45;&gt;Node103</title>
<path fill="none" stroke="midnightblue" d="M280.69,-497.267C289.855,-494.411 298.813,-490.197 306,-484 337.071,-457.209 310.907,-425.766 342,-399 347.598,-394.181 354.262,-390.56 361.264,-387.843"/>
<polygon fill="midnightblue" stroke="midnightblue" points="362.537,-391.109 370.952,-384.671 360.359,-384.456 362.537,-391.109"/>
</g>
<!-- Node105 -->
<g id="node37" class="node"><title>Node105</title>
<g id="a_node37"><a xlink:href="$class_external_sensors.html#a862a4bd11346b37270d0244c2adabe5a" xlink:title="ExternalSensors::config">
<polygon fill="white" stroke="black" points="356.5,-332.5 356.5,-351.5 477.5,-351.5 477.5,-332.5 356.5,-332.5"/>
<text text-anchor="middle" x="417" y="-339.5" font-family="Helvetica,sans-Serif" font-size="10.00">ExternalSensors::config</text>
</a>
</g>
</g>
<!-- Node94&#45;&gt;Node105 -->
<g id="edge38" class="edge"><title>Node94&#45;&gt;Node105</title>
<path fill="none" stroke="midnightblue" d="M280.504,-498.135C289.898,-495.237 298.995,-490.786 306,-484 346.911,-444.368 301.056,-400.599 342,-361 343.704,-359.352 345.531,-357.841 347.456,-356.457"/>
<polygon fill="midnightblue" stroke="midnightblue" points="349.6,-359.255 356.438,-351.162 346.046,-353.225 349.6,-359.255"/>
</g>
<!-- Node106 -->
<g id="node38" class="node"><title>Node106</title>
<g id="a_node38"><a xlink:href="$class_cool_m_q_t_t.html#ac9248808641ebf3054ed0620ea9d0100" xlink:title="CoolMQTT::begin">
<polygon fill="white" stroke="black" points="370,-294.5 370,-313.5 464,-313.5 464,-294.5 370,-294.5"/>
<text text-anchor="middle" x="417" y="-301.5" font-family="Helvetica,sans-Serif" font-size="10.00">CoolMQTT::begin</text>
</a>
</g>
</g>
<!-- Node94&#45;&gt;Node106 -->
<g id="edge39" class="edge"><title>Node94&#45;&gt;Node106</title>
<path fill="none" stroke="midnightblue" d="M280.843,-498.473C290.216,-495.554 299.218,-491.009 306,-484 356.985,-431.305 290.972,-375.653 342,-323 347.077,-317.761 353.388,-313.897 360.169,-311.057"/>
<polygon fill="midnightblue" stroke="midnightblue" points="361.325,-314.361 369.634,-307.789 359.04,-307.745 361.325,-314.361"/>
</g>
<!-- Node97 -->
<g id="node29" class="node"><title>Node97</title>
<g id="a_node29"><a xlink:href="$class_cool_file_system.html#a6ba6f666ed4c530174f8569d2c636748" xlink:title="CoolFileSystem::begin">
<polygon fill="white" stroke="black" points="550.5,-598.5 550.5,-617.5 666.5,-617.5 666.5,-598.5 550.5,-598.5"/>
<text text-anchor="middle" x="608.5" y="-605.5" font-family="Helvetica,sans-Serif" font-size="10.00">CoolFileSystem::begin</text>
</a>
</g>
</g>
<!-- Node96&#45;&gt;Node97 -->
<g id="edge30" class="edge"><title>Node96&#45;&gt;Node97</title>
<path fill="none" stroke="midnightblue" d="M464.843,-608C487.577,-608 515.304,-608 540.248,-608"/>
<polygon fill="midnightblue" stroke="midnightblue" points="540.379,-611.5 550.379,-608 540.379,-604.5 540.379,-611.5"/>
</g>
<!-- Node104 -->
<g id="node36" class="node"><title>Node104</title>
<g id="a_node36"><a xlink:href="$class_irene3000.html#abcad62d1201a59f8dd3ba87048002728" xlink:title="Irene3000::gainConvert">
<polygon fill="white" stroke="black" points="549.5,-389.5 549.5,-408.5 667.5,-408.5 667.5,-389.5 549.5,-389.5"/>
<text text-anchor="middle" x="608.5" y="-396.5" font-family="Helvetica,sans-Serif" font-size="10.00">Irene3000::gainConvert</text>
</a>
</g>
</g>
<!-- Node103&#45;&gt;Node104 -->
<g id="edge37" class="edge"><title>Node103&#45;&gt;Node104</title>
<path fill="none" stroke="midnightblue" d="M463.39,-384.551C486.006,-386.819 513.826,-389.608 538.973,-392.129"/>
<polygon fill="midnightblue" stroke="midnightblue" points="538.894,-395.639 549.193,-393.154 539.593,-388.674 538.894,-395.639"/>
</g>
<!-- Node107 -->
<g id="node39" class="node"><title>Node107</title>
<g id="a_node39"><a xlink:href="$class_cool_m_q_t_t.html#a30d82ad665bfb603f46ecdbc290775df" xlink:title="CoolMQTT::callback">
<polygon fill="white" stroke="black" points="555,-351.5 555,-370.5 662,-370.5 662,-351.5 555,-351.5"/>
<text text-anchor="middle" x="608.5" y="-358.5" font-family="Helvetica,sans-Serif" font-size="10.00">CoolMQTT::callback</text>
</a>
</g>
</g>
<!-- Node106&#45;&gt;Node107 -->
<g id="edge40" class="edge"><title>Node106&#45;&gt;Node107</title>
<path fill="none" stroke="midnightblue" d="M462.359,-313.585C472.254,-316.219 482.596,-319.369 492,-323 508.877,-329.516 511.069,-335.625 528,-342 534.756,-344.544 541.967,-346.827 549.185,-348.853"/>
<polygon fill="midnightblue" stroke="midnightblue" points="548.426,-352.273 558.99,-351.456 550.222,-345.507 548.426,-352.273"/>
</g>
<!-- Node109 -->
<g id="node41" class="node"><title>Node109</title>
<g id="a_node41"><a xlink:href="$class_cool_m_q_t_t.html#a373cc92fca7760d886f02d8a6e5b3f63" xlink:title="CoolMQTT::getUser">
<polygon fill="white" stroke="black" points="364.5,-38.5 364.5,-57.5 469.5,-57.5 469.5,-38.5 364.5,-38.5"/>
<text text-anchor="middle" x="417" y="-45.5" font-family="Helvetica,sans-Serif" font-size="10.00">CoolMQTT::getUser</text>
</a>
</g>
</g>
<!-- Node108&#45;&gt;Node109 -->
<g id="edge44" class="edge"><title>Node108&#45;&gt;Node109</title>
<path fill="none" stroke="midnightblue" d="M285.576,-48C307.055,-48 331.995,-48 354.279,-48"/>
<polygon fill="midnightblue" stroke="midnightblue" points="354.309,-51.5001 364.309,-48 354.309,-44.5001 354.309,-51.5001"/>
</g>
<!-- Node110 -->
<g id="node42" class="node"><title>Node110</title>
<g id="a_node42"><a xlink:href="$class_cool_time.html#ac4f32ee513c1328d984306645e8785a4" xlink:title="CoolTime::getESDate">
<polygon fill="white" stroke="black" points="360.5,-0.5 360.5,-19.5 473.5,-19.5 473.5,-0.5 360.5,-0.5"/>
<text text-anchor="middle" x="417" y="-7.5" font-family="Helvetica,sans-Serif" font-size="10.00">CoolTime::getESDate</text>
</a>
</g>
</g>
<!-- Node108&#45;&gt;Node110 -->
<g id="edge45" class="edge"><title>Node108&#45;&gt;Node110</title>
<path fill="none" stroke="midnightblue" d="M278.805,-38.411C303.456,-33.3061 333.963,-26.9887 359.945,-21.6082"/>
<polygon fill="midnightblue" stroke="midnightblue" points="360.946,-24.9752 370.028,-19.5201 359.526,-18.1207 360.946,-24.9752"/>
</g>
<!-- Node111 -->
<g id="node43" class="node"><title>Node111</title>
<g id="a_node43"><a xlink:href="$class_cool_time.html#a7a7501c5ca77dd1248bea704c44f986c" xlink:title="CoolTime::getTimeDate">
<polygon fill="white" stroke="black" points="548,-0.5 548,-19.5 669,-19.5 669,-0.5 548,-0.5"/>
<text text-anchor="middle" x="608.5" y="-7.5" font-family="Helvetica,sans-Serif" font-size="10.00">CoolTime::getTimeDate</text>
</a>
</g>
</g>
<!-- Node110&#45;&gt;Node111 -->
<g id="edge46" class="edge"><title>Node110&#45;&gt;Node111</title>
<path fill="none" stroke="midnightblue" d="M473.576,-10C493.66,-10 516.595,-10 537.742,-10"/>
<polygon fill="midnightblue" stroke="midnightblue" points="537.959,-13.5001 547.958,-10 537.958,-6.5001 537.959,-13.5001"/>
</g>
</g>
</svg>
