<?xml version="1.0" encoding="UTF-8" standalone="no"?>
<!DOCTYPE svg PUBLIC "-//W3C//DTD SVG 1.1//EN"
 "http://www.w3.org/Graphics/SVG/1.1/DTD/svg11.dtd">
<!-- Generated by graphviz version 2.38.0 (20140413.2041)
 -->
<!-- Title: CoolBoard::update Pages: 1 -->
<svg width="458pt" height="458pt"
 viewBox="0.00 0.00 458.00 457.50" xmlns="http://www.w3.org/2000/svg" xmlns:xlink="http://www.w3.org/1999/xlink">
<g id="graph0" class="graph" transform="scale(1 1) rotate(0) translate(4 453.5)">
<title>CoolBoard::update</title>
<polygon fill="white" stroke="none" points="-4,4 -4,-453.5 454,-453.5 454,4 -4,4"/>
<!-- Node144 -->
<g id="node1" class="node"><title>Node144</title>
<polygon fill="#bfbfbf" stroke="black" points="0,-221 0,-240 98,-240 98,-221 0,-221"/>
<text text-anchor="middle" x="49" y="-228" font-family="Helvetica,sans-Serif" font-size="10.00">CoolBoard::update</text>
</g>
<!-- Node145 -->
<g id="node2" class="node"><title>Node145</title>
<g id="a_node2"><a xlink:href="$classCoolMQTT.html#ac9248808641ebf3054ed0620ea9d0100" xlink:title="CoolMQTT::begin">
<polygon fill="white" stroke="black" points="162,-430 162,-449 256,-449 256,-430 162,-430"/>
<text text-anchor="middle" x="209" y="-437" font-family="Helvetica,sans-Serif" font-size="10.00">CoolMQTT::begin</text>
</a>
</g>
</g>
<!-- Node144&#45;&gt;Node145 -->
<g id="edge1" class="edge"><title>Node144&#45;&gt;Node145</title>
<path fill="none" stroke="midnightblue" d="M51.2861,-240.135C55.9797,-271.358 75.1143,-370.606 134,-420.5 139.303,-424.994 145.537,-428.444 152.097,-431.089"/>
<polygon fill="midnightblue" stroke="midnightblue" points="151.277,-434.507 161.871,-434.417 153.533,-427.881 151.277,-434.507"/>
</g>
<!-- Node147 -->
<g id="node4" class="node"><title>Node147</title>
<g id="a_node4"><a xlink:href="$classCoolBoardLed.html#a1b60e5e30bea96c49ed62ed1bf1ffc8b" xlink:title="CoolBoardLed::config">
<polygon fill="white" stroke="black" points="154,-392 154,-411 264,-411 264,-392 154,-392"/>
<text text-anchor="middle" x="209" y="-399" font-family="Helvetica,sans-Serif" font-size="10.00">CoolBoardLed::config</text>
</a>
</g>
</g>
<!-- Node144&#45;&gt;Node147 -->
<g id="edge3" class="edge"><title>Node144&#45;&gt;Node147</title>
<path fill="none" stroke="midnightblue" d="M52.4153,-240.089C59.7141,-267.028 84.1663,-343.933 134,-382.5 137.212,-384.986 140.715,-387.149 144.393,-389.031"/>
<polygon fill="midnightblue" stroke="midnightblue" points="143.265,-392.358 153.83,-393.154 146.067,-385.943 143.265,-392.358"/>
</g>
<!-- Node148 -->
<g id="node5" class="node"><title>Node148</title>
<g id="a_node5"><a xlink:href="$classJetpack.html#ab065ee83e244265a2223a22f3ee4a719" xlink:title="Jetpack::config">
<polygon fill="white" stroke="black" points="167.5,-354 167.5,-373 250.5,-373 250.5,-354 167.5,-354"/>
<text text-anchor="middle" x="209" y="-361" font-family="Helvetica,sans-Serif" font-size="10.00">Jetpack::config</text>
</a>
</g>
</g>
<!-- Node144&#45;&gt;Node148 -->
<g id="edge4" class="edge"><title>Node144&#45;&gt;Node148</title>
<path fill="none" stroke="midnightblue" d="M54.2935,-240.198C64.6154,-262.347 93.0375,-316.862 134,-344.5 141.113,-349.299 149.356,-352.886 157.704,-355.567"/>
<polygon fill="midnightblue" stroke="midnightblue" points="156.916,-358.981 167.49,-358.316 158.809,-352.242 156.916,-358.981"/>
</g>
<!-- Node149 -->
<g id="node6" class="node"><title>Node149</title>
<g id="a_node6"><a xlink:href="$classExternalSensors.html#a862a4bd11346b37270d0244c2adabe5a" xlink:title="ExternalSensors::config">
<polygon fill="white" stroke="black" points="148.5,-316 148.5,-335 269.5,-335 269.5,-316 148.5,-316"/>
<text text-anchor="middle" x="209" y="-323" font-family="Helvetica,sans-Serif" font-size="10.00">ExternalSensors::config</text>
</a>
</g>
</g>
<!-- Node144&#45;&gt;Node149 -->
<g id="edge5" class="edge"><title>Node144&#45;&gt;Node149</title>
<path fill="none" stroke="midnightblue" d="M57.739,-240.032C71.399,-256.21 101.437,-288.989 134,-306.5 138.231,-308.775 142.746,-310.787 147.38,-312.564"/>
<polygon fill="midnightblue" stroke="midnightblue" points="146.412,-315.933 157.006,-315.892 148.699,-309.317 146.412,-315.933"/>
</g>
<!-- Node150 -->
<g id="node7" class="node"><title>Node150</title>
<g id="a_node7"><a xlink:href="$classCoolMQTT.html#a9b703de4f1358f0ee7a5e8c44979c648" xlink:title="CoolMQTT::config">
<polygon fill="white" stroke="black" points="160.5,-278 160.5,-297 257.5,-297 257.5,-278 160.5,-278"/>
<text text-anchor="middle" x="209" y="-285" font-family="Helvetica,sans-Serif" font-size="10.00">CoolMQTT::config</text>
</a>
</g>
</g>
<!-- Node144&#45;&gt;Node150 -->
<g id="edge6" class="edge"><title>Node144&#45;&gt;Node150</title>
<path fill="none" stroke="midnightblue" d="M68.6319,-240.06C85.405,-248.391 110.897,-260.377 134,-268.5 141.047,-270.978 148.576,-273.285 156.032,-275.377"/>
<polygon fill="midnightblue" stroke="midnightblue" points="155.18,-278.772 165.746,-277.998 157.004,-272.013 155.18,-278.772"/>
</g>
<!-- Node151 -->
<g id="node8" class="node"><title>Node151</title>
<g id="a_node8"><a xlink:href="$classCoolTime.html#a87c28260c1bc77091162cbcf1ee2e129" xlink:title="CoolTime::config">
<polygon fill="white" stroke="black" points="163.5,-240 163.5,-259 254.5,-259 254.5,-240 163.5,-240"/>
<text text-anchor="middle" x="209" y="-247" font-family="Helvetica,sans-Serif" font-size="10.00">CoolTime::config</text>
</a>
</g>
</g>
<!-- Node144&#45;&gt;Node151 -->
<g id="edge7" class="edge"><title>Node144&#45;&gt;Node151</title>
<path fill="none" stroke="midnightblue" d="M98.2637,-236.304C115.641,-238.394 135.37,-240.766 153.26,-242.917"/>
<polygon fill="midnightblue" stroke="midnightblue" points="152.918,-246.401 163.265,-244.12 153.754,-239.451 152.918,-246.401"/>
</g>
<!-- Node155 -->
<g id="node12" class="node"><title>Node155</title>
<g id="a_node12"><a xlink:href="$classIrene3000.html#afed5c35e4b23963c157847ef27c11e9c" xlink:title="Irene3000::config">
<polygon fill="white" stroke="black" points="163,-202 163,-221 255,-221 255,-202 163,-202"/>
<text text-anchor="middle" x="209" y="-209" font-family="Helvetica,sans-Serif" font-size="10.00">Irene3000::config</text>
</a>
</g>
</g>
<!-- Node144&#45;&gt;Node155 -->
<g id="edge11" class="edge"><title>Node144&#45;&gt;Node155</title>
<path fill="none" stroke="midnightblue" d="M98.2637,-224.696C115.485,-222.625 135.014,-220.277 152.775,-218.141"/>
<polygon fill="midnightblue" stroke="midnightblue" points="153.487,-221.581 162.998,-216.912 152.651,-214.631 153.487,-221.581"/>
</g>
<!-- Node157 -->
<g id="node14" class="node"><title>Node157</title>
<g id="a_node14"><a xlink:href="$classCoolBoard.html#a583a874c09c07e70a6eb9229fc4beddb" xlink:title="CoolBoard::config">
<polygon fill="white" stroke="black" points="161.5,-164 161.5,-183 256.5,-183 256.5,-164 161.5,-164"/>
<text text-anchor="middle" x="209" y="-171" font-family="Helvetica,sans-Serif" font-size="10.00">CoolBoard::config</text>
</a>
</g>
</g>
<!-- Node144&#45;&gt;Node157 -->
<g id="edge13" class="edge"><title>Node144&#45;&gt;Node157</title>
<path fill="none" stroke="midnightblue" d="M68.6319,-220.94C85.405,-212.609 110.897,-200.623 134,-192.5 141.047,-190.022 148.576,-187.715 156.032,-185.623"/>
<polygon fill="midnightblue" stroke="midnightblue" points="157.004,-188.987 165.746,-183.002 155.18,-182.228 157.004,-188.987"/>
</g>
<!-- Node159 -->
<g id="node16" class="node"><title>Node159</title>
<g id="a_node16"><a xlink:href="$classCoolBoardSensors.html#a9a218895c5423375c33c08f2c56fb23a" xlink:title="CoolBoardSensors::config">
<polygon fill="white" stroke="black" points="143.5,-126 143.5,-145 274.5,-145 274.5,-126 143.5,-126"/>
<text text-anchor="middle" x="209" y="-133" font-family="Helvetica,sans-Serif" font-size="10.00">CoolBoardSensors::config</text>
</a>
</g>
</g>
<!-- Node144&#45;&gt;Node159 -->
<g id="edge15" class="edge"><title>Node144&#45;&gt;Node159</title>
<path fill="none" stroke="midnightblue" d="M57.739,-220.968C71.399,-204.79 101.437,-172.011 134,-154.5 138.231,-152.225 142.746,-150.213 147.38,-148.436"/>
<polygon fill="midnightblue" stroke="midnightblue" points="148.699,-151.683 157.006,-145.108 146.412,-145.067 148.699,-151.683"/>
</g>
<!-- Node160 -->
<g id="node17" class="node"><title>Node160</title>
<g id="a_node17"><a xlink:href="$classCoolMQTT.html#aa5eaae967b562b62cbcf2b8d81f6e5d5" xlink:title="CoolMQTT::mqttLoop">
<polygon fill="white" stroke="black" points="153.5,-88 153.5,-107 264.5,-107 264.5,-88 153.5,-88"/>
<text text-anchor="middle" x="209" y="-95" font-family="Helvetica,sans-Serif" font-size="10.00">CoolMQTT::mqttLoop</text>
</a>
</g>
</g>
<!-- Node144&#45;&gt;Node160 -->
<g id="edge16" class="edge"><title>Node144&#45;&gt;Node160</title>
<path fill="none" stroke="midnightblue" d="M54.2935,-220.802C64.6154,-198.653 93.0375,-144.138 134,-116.5 137.096,-114.411 140.406,-112.552 143.846,-110.897"/>
<polygon fill="midnightblue" stroke="midnightblue" points="145.326,-114.072 153.195,-106.977 142.619,-107.616 145.326,-114.072"/>
</g>
<!-- Node161 -->
<g id="node18" class="node"><title>Node161</title>
<g id="a_node18"><a xlink:href="$classCoolMQTT.html#ace977b3e90ab14b1199fe5c4fb0a13ec" xlink:title="CoolMQTT::publish">
<polygon fill="white" stroke="black" points="158.5,-50 158.5,-69 259.5,-69 259.5,-50 158.5,-50"/>
<text text-anchor="middle" x="209" y="-57" font-family="Helvetica,sans-Serif" font-size="10.00">CoolMQTT::publish</text>
</a>
</g>
</g>
<!-- Node144&#45;&gt;Node161 -->
<g id="edge17" class="edge"><title>Node144&#45;&gt;Node161</title>
<path fill="none" stroke="midnightblue" d="M52.4153,-220.911C59.7141,-193.972 84.1663,-117.067 134,-78.5 138.458,-75.0499 143.475,-72.2216 148.744,-69.9038"/>
<polygon fill="midnightblue" stroke="midnightblue" points="150.303,-73.0566 158.43,-66.2592 147.838,-66.505 150.303,-73.0566"/>
</g>
<!-- Node162 -->
<g id="node19" class="node"><title>Node162</title>
<g id="a_node19"><a xlink:href="$classCoolFileSystem.html#a32dad79ae80182a83e2e8f52286b7c7b" xlink:title="CoolFileSystem::updateConfig\lFiles">
<polygon fill="white" stroke="black" points="134,-0.5 134,-30.5 284,-30.5 284,-0.5 134,-0.5"/>
<text text-anchor="start" x="142" y="-18.5" font-family="Helvetica,sans-Serif" font-size="10.00">CoolFileSystem::updateConfig</text>
<text text-anchor="middle" x="209" y="-7.5" font-family="Helvetica,sans-Serif" font-size="10.00">Files</text>
</a>
</g>
</g>
<!-- Node144&#45;&gt;Node162 -->
<g id="edge18" class="edge"><title>Node144&#45;&gt;Node162</title>
<path fill="none" stroke="midnightblue" d="M51.5127,-220.604C56.7941,-189.437 77.2788,-92.3085 134,-40.5 135.708,-38.9396 137.518,-37.4761 139.407,-36.1036"/>
<polygon fill="midnightblue" stroke="midnightblue" points="141.511,-38.9163 148.138,-30.6498 137.802,-32.9794 141.511,-38.9163"/>
</g>
<!-- Node146 -->
<g id="node3" class="node"><title>Node146</title>
<g id="a_node3"><a xlink:href="$classCoolMQTT.html#a30d82ad665bfb603f46ecdbc290775df" xlink:title="CoolMQTT::callback">
<polygon fill="white" stroke="black" points="331.5,-430 331.5,-449 438.5,-449 438.5,-430 331.5,-430"/>
<text text-anchor="middle" x="385" y="-437" font-family="Helvetica,sans-Serif" font-size="10.00">CoolMQTT::callback</text>
</a>
</g>
</g>
<!-- Node145&#45;&gt;Node146 -->
<g id="edge2" class="edge"><title>Node145&#45;&gt;Node146</title>
<path fill="none" stroke="midnightblue" d="M256.172,-439.5C276.163,-439.5 299.872,-439.5 321.411,-439.5"/>
<polygon fill="midnightblue" stroke="midnightblue" points="321.457,-443 331.457,-439.5 321.457,-436 321.457,-443"/>
</g>
<!-- Node152 -->
<g id="node9" class="node"><title>Node152</title>
<g id="a_node9"><a xlink:href="$classCoolTime.html#ae9658c9b377510d469e3b88edf33ee85" xlink:title="CoolTime::saveTimeSync">
<polygon fill="white" stroke="black" points="320,-316 320,-335 450,-335 450,-316 320,-316"/>
<text text-anchor="middle" x="385" y="-323" font-family="Helvetica,sans-Serif" font-size="10.00">CoolTime::saveTimeSync</text>
</a>
</g>
</g>
<!-- Node151&#45;&gt;Node152 -->
<g id="edge8" class="edge"><title>Node151&#45;&gt;Node152</title>
<path fill="none" stroke="midnightblue" d="M254.644,-256.673C264.73,-259.44 275.083,-263.253 284,-268.5 304.051,-280.299 300.173,-294.33 320,-306.5 323.403,-308.589 327.05,-310.46 330.812,-312.133"/>
<polygon fill="midnightblue" stroke="midnightblue" points="329.745,-315.475 340.332,-315.899 332.32,-308.966 329.745,-315.475"/>
</g>
<!-- Node153 -->
<g id="node10" class="node"><title>Node153</title>
<g id="a_node10"><a xlink:href="$classCoolTime.html#af355e7f9b3898211cd2ff25eab5933b1" xlink:title="CoolTime::printConf">
<polygon fill="white" stroke="black" points="333,-278 333,-297 437,-297 437,-278 333,-278"/>
<text text-anchor="middle" x="385" y="-285" font-family="Helvetica,sans-Serif" font-size="10.00">CoolTime::printConf</text>
</a>
</g>
</g>
<!-- Node151&#45;&gt;Node153 -->
<g id="edge9" class="edge"><title>Node151&#45;&gt;Node153</title>
<path fill="none" stroke="midnightblue" d="M253.908,-259.089C277.179,-264.171 305.954,-270.455 330.519,-275.82"/>
<polygon fill="midnightblue" stroke="midnightblue" points="329.892,-279.266 340.408,-277.98 331.385,-272.427 329.892,-279.266"/>
</g>
<!-- Node154 -->
<g id="node11" class="node"><title>Node154</title>
<g id="a_node11"><a xlink:href="$classCoolTime.html#acd537cd4210d7bde4e1f5c47d2ac0456" xlink:title="CoolTime::formatDigits">
<polygon fill="white" stroke="black" points="326,-240 326,-259 444,-259 444,-240 326,-240"/>
<text text-anchor="middle" x="385" y="-247" font-family="Helvetica,sans-Serif" font-size="10.00">CoolTime::formatDigits</text>
</a>
</g>
</g>
<!-- Node151&#45;&gt;Node154 -->
<g id="edge10" class="edge"><title>Node151&#45;&gt;Node154</title>
<path fill="none" stroke="midnightblue" d="M254.809,-249.5C273.329,-249.5 295.215,-249.5 315.658,-249.5"/>
<polygon fill="midnightblue" stroke="midnightblue" points="315.873,-253 325.873,-249.5 315.873,-246 315.873,-253"/>
</g>
<!-- Node156 -->
<g id="node13" class="node"><title>Node156</title>
<g id="a_node13"><a xlink:href="$classIrene3000.html#abcad62d1201a59f8dd3ba87048002728" xlink:title="Irene3000::gainConvert">
<polygon fill="white" stroke="black" points="326,-202 326,-221 444,-221 444,-202 326,-202"/>
<text text-anchor="middle" x="385" y="-209" font-family="Helvetica,sans-Serif" font-size="10.00">Irene3000::gainConvert</text>
</a>
</g>
</g>
<!-- Node155&#45;&gt;Node156 -->
<g id="edge12" class="edge"><title>Node155&#45;&gt;Node156</title>
<path fill="none" stroke="midnightblue" d="M255.262,-211.5C273.696,-211.5 295.407,-211.5 315.694,-211.5"/>
<polygon fill="midnightblue" stroke="midnightblue" points="315.832,-215 325.832,-211.5 315.832,-208 315.832,-215"/>
</g>
<!-- Node158 -->
<g id="node15" class="node"><title>Node158</title>
<g id="a_node15"><a xlink:href="$classCoolFileSystem.html#a6ba6f666ed4c530174f8569d2c636748" xlink:title="CoolFileSystem::begin">
<polygon fill="white" stroke="black" points="327,-164 327,-183 443,-183 443,-164 327,-164"/>
<text text-anchor="middle" x="385" y="-171" font-family="Helvetica,sans-Serif" font-size="10.00">CoolFileSystem::begin</text>
</a>
</g>
</g>
<!-- Node157&#45;&gt;Node158 -->
<g id="edge14" class="edge"><title>Node157&#45;&gt;Node158</title>
<path fill="none" stroke="midnightblue" d="M256.629,-173.5C275.144,-173.5 296.793,-173.5 316.936,-173.5"/>
<polygon fill="midnightblue" stroke="midnightblue" points="316.994,-177 326.994,-173.5 316.994,-170 316.994,-177"/>
</g>
</g>
</svg>
