<?xml version="1.0" encoding="UTF-8" standalone="no"?>
<!DOCTYPE svg PUBLIC "-//W3C//DTD SVG 1.1//EN"
 "http://www.w3.org/Graphics/SVG/1.1/DTD/svg11.dtd">
<!-- Generated by graphviz version 2.38.0 (20140413.2041)
 -->
<!-- Title: CoolBoardLed::begin Pages: 1 -->
<svg width="537pt" height="66pt"
 viewBox="0.00 0.00 537.00 66.00" xmlns="http://www.w3.org/2000/svg" xmlns:xlink="http://www.w3.org/1999/xlink">
<g id="graph0" class="graph" transform="scale(1 1) rotate(0) translate(4 62)">
<title>CoolBoardLed::begin</title>
<polygon fill="white" stroke="none" points="-4,4 -4,-62 533,-62 533,4 -4,4"/>
<!-- Node1 -->
<g id="node1" class="node"><title>Node1</title>
<polygon fill="#bfbfbf" stroke="black" points="0,-19.5 0,-38.5 107,-38.5 107,-19.5 0,-19.5"/>
<text text-anchor="middle" x="53.5" y="-26.5" font-family="Helvetica,sans-Serif" font-size="10.00">CoolBoardLed::begin</text>
</g>
<!-- Node2 -->
<g id="node2" class="node"><title>Node2</title>
<g id="a_node2"><a xlink:href="$classCoolBoard.html#acba7c5aef7268b2c0044bdb54d3b9d76" xlink:title="CoolBoard::begin">
<polygon fill="white" stroke="black" points="144.5,-38.5 144.5,-57.5 236.5,-57.5 236.5,-38.5 144.5,-38.5"/>
<text text-anchor="middle" x="190.5" y="-45.5" font-family="Helvetica,sans-Serif" font-size="10.00">CoolBoard::begin</text>
</a>
</g>
</g>
<!-- Node1&#45;&gt;Node2 -->
<g id="edge1" class="edge"><title>Node1&#45;&gt;Node2</title>
<path fill="none" stroke="midnightblue" d="M116.989,-37.7947C126.195,-39.0904 135.526,-40.4036 144.292,-41.6374"/>
<polygon fill="midnightblue" stroke="midnightblue" points="117.471,-34.3282 107.081,-36.4003 116.496,-41.2599 117.471,-34.3282"/>
</g>
<!-- Node3 -->
<g id="node3" class="node"><title>Node3</title>
<g id="a_node3"><a xlink:href="$classCoolBoard.html#a583a874c09c07e70a6eb9229fc4beddb" xlink:title="CoolBoard::config">
<polygon fill="white" stroke="black" points="143,-0.5 143,-19.5 238,-19.5 238,-0.5 143,-0.5"/>
<text text-anchor="middle" x="190.5" y="-7.5" font-family="Helvetica,sans-Serif" font-size="10.00">CoolBoard::config</text>
</a>
</g>
</g>
<!-- Node1&#45;&gt;Node3 -->
<g id="edge2" class="edge"><title>Node1&#45;&gt;Node3</title>
<path fill="none" stroke="midnightblue" d="M117.194,-20.1764C125.88,-18.9539 134.673,-17.7164 142.993,-16.5454"/>
<polygon fill="midnightblue" stroke="midnightblue" points="116.496,-16.7401 107.081,-21.5997 117.471,-23.6718 116.496,-16.7401"/>
</g>
<!-- Node4 -->
<g id="node4" class="node"><title>Node4</title>
<g id="a_node4"><a xlink:href="$classCoolBoard.html#a8612756d3f73198cdde857a66f0fe690" xlink:title="CoolBoard::update">
<polygon fill="white" stroke="black" points="274,-0.5 274,-19.5 372,-19.5 372,-0.5 274,-0.5"/>
<text text-anchor="middle" x="323" y="-7.5" font-family="Helvetica,sans-Serif" font-size="10.00">CoolBoard::update</text>
</a>
</g>
</g>
<!-- Node3&#45;&gt;Node4 -->
<g id="edge3" class="edge"><title>Node3&#45;&gt;Node4</title>
<path fill="none" stroke="midnightblue" d="M248.438,-10C256.904,-10 265.56,-10 273.822,-10"/>
<polygon fill="midnightblue" stroke="midnightblue" points="248.245,-6.5001 238.245,-10 248.245,-13.5001 248.245,-6.5001"/>
</g>
<!-- Node5 -->
<g id="node5" class="node"><title>Node5</title>
<g id="a_node5"><a xlink:href="$classCoolBoard.html#aa0bbc4bc605e35618d18e68795c61363" xlink:title="CoolBoard::onLineMode">
<polygon fill="white" stroke="black" points="408,-0.5 408,-19.5 529,-19.5 529,-0.5 408,-0.5"/>
<text text-anchor="middle" x="468.5" y="-7.5" font-family="Helvetica,sans-Serif" font-size="10.00">CoolBoard::onLineMode</text>
</a>
</g>
</g>
<!-- Node4&#45;&gt;Node5 -->
<g id="edge4" class="edge"><title>Node4&#45;&gt;Node5</title>
<path fill="none" stroke="midnightblue" d="M382.332,-10C390.785,-10 399.496,-10 407.972,-10"/>
<polygon fill="midnightblue" stroke="midnightblue" points="382.183,-6.5001 372.183,-10 382.183,-13.5001 382.183,-6.5001"/>
</g>
</g>
</svg>
