<?xml version="1.0" encoding="UTF-8" standalone="no"?>
<!DOCTYPE svg PUBLIC "-//W3C//DTD SVG 1.1//EN"
 "http://www.w3.org/Graphics/SVG/1.1/DTD/svg11.dtd">
<!-- Generated by graphviz version 2.38.0 (20140413.2041)
 -->
<!-- Title: CoolBoardSensors::readVBat Pages: 1 -->
<svg width="470pt" height="66pt"
 viewBox="0.00 0.00 470.00 66.00" xmlns="http://www.w3.org/2000/svg" xmlns:xlink="http://www.w3.org/1999/xlink">
<g id="graph0" class="graph" transform="scale(1 1) rotate(0) translate(4 62)">
<title>CoolBoardSensors::readVBat</title>
<polygon fill="white" stroke="none" points="-4,4 -4,-62 466,-62 466,4 -4,4"/>
<!-- Node41 -->
<g id="node1" class="node"><title>Node41</title>
<polygon fill="#bfbfbf" stroke="black" points="0,-19.5 0,-38.5 145,-38.5 145,-19.5 0,-19.5"/>
<text text-anchor="middle" x="72.5" y="-26.5" font-family="Helvetica,sans-Serif" font-size="10.00">CoolBoardSensors::readVBat</text>
</g>
<!-- Node42 -->
<g id="node2" class="node"><title>Node42</title>
<g id="a_node2"><a xlink:href="$classCoolBoardSensors.html#a91badb2539d91fda8679f2a597874c48" xlink:title="CoolBoardSensors::read">
<polygon fill="white" stroke="black" points="181,-19.5 181,-38.5 304,-38.5 304,-19.5 181,-19.5"/>
<text text-anchor="middle" x="242.5" y="-26.5" font-family="Helvetica,sans-Serif" font-size="10.00">CoolBoardSensors::read</text>
</a>
</g>
</g>
<!-- Node41&#45;&gt;Node42 -->
<g id="edge1" class="edge"><title>Node41&#45;&gt;Node42</title>
<path fill="none" stroke="midnightblue" d="M155.3,-29C163.905,-29 172.54,-29 180.845,-29"/>
<polygon fill="midnightblue" stroke="midnightblue" points="155.234,-25.5001 145.234,-29 155.234,-32.5001 155.234,-25.5001"/>
</g>
<!-- Node43 -->
<g id="node3" class="node"><title>Node43</title>
<g id="a_node3"><a xlink:href="$classCoolBoard.html#ae6b5e1274d760462290192acea4adca8" xlink:title="CoolBoard::offLineMode">
<polygon fill="white" stroke="black" points="340,-38.5 340,-57.5 462,-57.5 462,-38.5 340,-38.5"/>
<text text-anchor="middle" x="401" y="-45.5" font-family="Helvetica,sans-Serif" font-size="10.00">CoolBoard::offLineMode</text>
</a>
</g>
</g>
<!-- Node42&#45;&gt;Node43 -->
<g id="edge2" class="edge"><title>Node42&#45;&gt;Node43</title>
<path fill="none" stroke="midnightblue" d="M314.059,-37.5662C322.692,-38.6144 331.452,-39.6779 339.912,-40.7049"/>
<polygon fill="midnightblue" stroke="midnightblue" points="314.356,-34.0767 304.007,-36.3459 313.512,-41.0257 314.356,-34.0767"/>
</g>
<!-- Node44 -->
<g id="node4" class="node"><title>Node44</title>
<g id="a_node4"><a xlink:href="$classCoolBoard.html#aa0bbc4bc605e35618d18e68795c61363" xlink:title="CoolBoard::onLineMode">
<polygon fill="white" stroke="black" points="340.5,-0.5 340.5,-19.5 461.5,-19.5 461.5,-0.5 340.5,-0.5"/>
<text text-anchor="middle" x="401" y="-7.5" font-family="Helvetica,sans-Serif" font-size="10.00">CoolBoard::onLineMode</text>
</a>
</g>
</g>
<!-- Node42&#45;&gt;Node44 -->
<g id="edge3" class="edge"><title>Node42&#45;&gt;Node44</title>
<path fill="none" stroke="midnightblue" d="M314.207,-20.4158C322.968,-19.3522 331.856,-18.2731 340.427,-17.2325"/>
<polygon fill="midnightblue" stroke="midnightblue" points="313.512,-16.9743 304.007,-21.6541 314.356,-23.9233 313.512,-16.9743"/>
</g>
</g>
</svg>
