<?xml version="1.0" encoding="UTF-8" standalone="no"?>
<!DOCTYPE svg PUBLIC "-//W3C//DTD SVG 1.1//EN"
 "http://www.w3.org/Graphics/SVG/1.1/DTD/svg11.dtd">
<!-- Generated by graphviz version 2.38.0 (20140413.2041)
 -->
<!-- Title: CoolBoard Pages: 1 -->
<svg width="1054pt" height="931pt"
 viewBox="0.00 0.00 1053.50 931.00" xmlns="http://www.w3.org/2000/svg" xmlns:xlink="http://www.w3.org/1999/xlink">
<g id="graph0" class="graph" transform="scale(1 1) rotate(0) translate(4 927)">
<title>CoolBoard</title>
<polygon fill="white" stroke="none" points="-4,4 -4,-927 1049.5,-927 1049.5,4 -4,4"/>
<!-- Node1 -->
<g id="node1" class="node"><title>Node1</title>
<polygon fill="#bfbfbf" stroke="black" points="419,-0.5 419,-277.5 540,-277.5 540,-0.5 419,-0.5"/>
<text text-anchor="middle" x="479.5" y="-265.5" font-family="Helvetica,sans-Serif" font-size="10.00">CoolBoard</text>
<polyline fill="none" stroke="black" points="419,-258.5 540,-258.5 "/>
<text text-anchor="start" x="427" y="-246.5" font-family="Helvetica,sans-Serif" font-size="10.00">&#45; userActive</text>
<text text-anchor="start" x="427" y="-235.5" font-family="Helvetica,sans-Serif" font-size="10.00">&#45; ireneActive</text>
<text text-anchor="start" x="427" y="-224.5" font-family="Helvetica,sans-Serif" font-size="10.00">&#45; jetpackActive</text>
<text text-anchor="start" x="427" y="-213.5" font-family="Helvetica,sans-Serif" font-size="10.00">&#45; externalSensorsActive</text>
<text text-anchor="start" x="427" y="-202.5" font-family="Helvetica,sans-Serif" font-size="10.00">&#45; sleepActive</text>
<text text-anchor="start" x="427" y="-191.5" font-family="Helvetica,sans-Serif" font-size="10.00">&#45; logInterval</text>
<text text-anchor="start" x="427" y="-180.5" font-family="Helvetica,sans-Serif" font-size="10.00">&#45; answerJsonSize</text>
<text text-anchor="start" x="427" y="-169.5" font-family="Helvetica,sans-Serif" font-size="10.00">&#45; sensorJsonSize</text>
<text text-anchor="start" x="427" y="-158.5" font-family="Helvetica,sans-Serif" font-size="10.00">&#45; serverTimeOut</text>
<text text-anchor="start" x="427" y="-147.5" font-family="Helvetica,sans-Serif" font-size="10.00">&#45; data</text>
<text text-anchor="start" x="427" y="-136.5" font-family="Helvetica,sans-Serif" font-size="10.00">&#45; answer</text>
<polyline fill="none" stroke="black" points="419,-129.5 540,-129.5 "/>
<text text-anchor="start" x="427" y="-117.5" font-family="Helvetica,sans-Serif" font-size="10.00">+ begin()</text>
<text text-anchor="start" x="427" y="-106.5" font-family="Helvetica,sans-Serif" font-size="10.00">+ config()</text>
<text text-anchor="start" x="427" y="-95.5" font-family="Helvetica,sans-Serif" font-size="10.00">+ update()</text>
<text text-anchor="start" x="427" y="-84.5" font-family="Helvetica,sans-Serif" font-size="10.00">+ offLineMode()</text>
<text text-anchor="start" x="427" y="-73.5" font-family="Helvetica,sans-Serif" font-size="10.00">+ onLineMode()</text>
<text text-anchor="start" x="427" y="-62.5" font-family="Helvetica,sans-Serif" font-size="10.00">+ connect()</text>
<text text-anchor="start" x="427" y="-51.5" font-family="Helvetica,sans-Serif" font-size="10.00">+ getLogInterval()</text>
<text text-anchor="start" x="427" y="-40.5" font-family="Helvetica,sans-Serif" font-size="10.00">+ printConf()</text>
<text text-anchor="start" x="427" y="-29.5" font-family="Helvetica,sans-Serif" font-size="10.00">+ sleep()</text>
<text text-anchor="start" x="427" y="-18.5" font-family="Helvetica,sans-Serif" font-size="10.00">+ readSensors()</text>
<text text-anchor="start" x="427" y="-7.5" font-family="Helvetica,sans-Serif" font-size="10.00">+ userData()</text>
</g>
<!-- Node2 -->
<g id="node2" class="node"><title>Node2</title>
<g id="a_node2"><a xlink:href="$classCoolMQTT.html" xlink:title="This class handles the mqtt client. ">
<polygon fill="white" stroke="black" points="0,-325.5 0,-602.5 97,-602.5 97,-325.5 0,-325.5"/>
<text text-anchor="middle" x="48.5" y="-590.5" font-family="Helvetica,sans-Serif" font-size="10.00">CoolMQTT</text>
<polyline fill="none" stroke="black" points="0,-583.5 97,-583.5 "/>
<text text-anchor="start" x="8" y="-571.5" font-family="Helvetica,sans-Serif" font-size="10.00">&#45; mqttServer</text>
<text text-anchor="start" x="8" y="-560.5" font-family="Helvetica,sans-Serif" font-size="10.00">&#45; msg</text>
<text text-anchor="start" x="8" y="-549.5" font-family="Helvetica,sans-Serif" font-size="10.00">&#45; inTopic</text>
<text text-anchor="start" x="8" y="-538.5" font-family="Helvetica,sans-Serif" font-size="10.00">&#45; outTopic</text>
<text text-anchor="start" x="8" y="-527.5" font-family="Helvetica,sans-Serif" font-size="10.00">&#45; user</text>
<text text-anchor="start" x="8" y="-516.5" font-family="Helvetica,sans-Serif" font-size="10.00">&#45; bufferSize</text>
<text text-anchor="start" x="8" y="-505.5" font-family="Helvetica,sans-Serif" font-size="10.00">&#45; espClient</text>
<text text-anchor="start" x="8" y="-494.5" font-family="Helvetica,sans-Serif" font-size="10.00">&#45; client</text>
<text text-anchor="start" x="8" y="-483.5" font-family="Helvetica,sans-Serif" font-size="10.00">&#45; newMsg</text>
<text text-anchor="start" x="8" y="-472.5" font-family="Helvetica,sans-Serif" font-size="10.00">&#45; previousLogTime</text>
<polyline fill="none" stroke="black" points="0,-465.5 97,-465.5 "/>
<text text-anchor="start" x="8" y="-453.5" font-family="Helvetica,sans-Serif" font-size="10.00">+ begin()</text>
<text text-anchor="start" x="8" y="-442.5" font-family="Helvetica,sans-Serif" font-size="10.00">+ connect()</text>
<text text-anchor="start" x="8" y="-431.5" font-family="Helvetica,sans-Serif" font-size="10.00">+ publish()</text>
<text text-anchor="start" x="8" y="-420.5" font-family="Helvetica,sans-Serif" font-size="10.00">+ publish()</text>
<text text-anchor="start" x="8" y="-409.5" font-family="Helvetica,sans-Serif" font-size="10.00">+ read()</text>
<text text-anchor="start" x="8" y="-398.5" font-family="Helvetica,sans-Serif" font-size="10.00">+ config()</text>
<text text-anchor="start" x="8" y="-387.5" font-family="Helvetica,sans-Serif" font-size="10.00">+ config()</text>
<text text-anchor="start" x="8" y="-376.5" font-family="Helvetica,sans-Serif" font-size="10.00">+ callback()</text>
<text text-anchor="start" x="8" y="-365.5" font-family="Helvetica,sans-Serif" font-size="10.00">+ printConf()</text>
<text text-anchor="start" x="8" y="-354.5" font-family="Helvetica,sans-Serif" font-size="10.00">+ state()</text>
<text text-anchor="start" x="8" y="-343.5" font-family="Helvetica,sans-Serif" font-size="10.00">+ mqttLoop()</text>
<text text-anchor="start" x="8" y="-332.5" font-family="Helvetica,sans-Serif" font-size="10.00">+ getUser()</text>
</a>
</g>
</g>
<!-- Node2&#45;&gt;Node1 -->
<g id="edge1" class="edge"><title>Node2&#45;&gt;Node1</title>
<path fill="none" stroke="#404040" d="M97.1522,-334.851C99.799,-331.42 102.58,-328.125 105.5,-325 188.792,-235.873 324.338,-183.951 407.35,-158.853"/>
<polygon fill="none" stroke="#404040" points="407.448,-158.824 412.065,-153.285 418.954,-155.416 414.337,-160.956 407.448,-158.824"/>
<text text-anchor="middle" x="143.5" y="-299" font-family="Helvetica,sans-Serif" font-size="10.00"> &#45;mqtt</text>
</g>
<!-- Node3 -->
<g id="node3" class="node"><title>Node3</title>
<g id="a_node3"><a xlink:href="$classCoolWifi.html" xlink:title="This class manages the WiFi connection . ">
<polygon fill="white" stroke="black" points="115,-375 115,-553 190,-553 190,-375 115,-375"/>
<text text-anchor="middle" x="152.5" y="-541" font-family="Helvetica,sans-Serif" font-size="10.00">CoolWifi</text>
<polyline fill="none" stroke="black" points="115,-534 190,-534 "/>
<text text-anchor="start" x="123" y="-522" font-family="Helvetica,sans-Serif" font-size="10.00">&#45; wifiManager</text>
<text text-anchor="start" x="123" y="-511" font-family="Helvetica,sans-Serif" font-size="10.00">&#45; wifiMulti</text>
<text text-anchor="start" x="123" y="-500" font-family="Helvetica,sans-Serif" font-size="10.00">&#45; wifiCount</text>
<text text-anchor="start" x="123" y="-489" font-family="Helvetica,sans-Serif" font-size="10.00">&#45; ssid</text>
<text text-anchor="start" x="123" y="-478" font-family="Helvetica,sans-Serif" font-size="10.00">&#45; pass</text>
<text text-anchor="start" x="123" y="-467" font-family="Helvetica,sans-Serif" font-size="10.00">&#45; timeOut</text>
<polyline fill="none" stroke="black" points="115,-460 190,-460 "/>
<text text-anchor="start" x="123" y="-448" font-family="Helvetica,sans-Serif" font-size="10.00">+ begin()</text>
<text text-anchor="start" x="123" y="-437" font-family="Helvetica,sans-Serif" font-size="10.00">+ config()</text>
<text text-anchor="start" x="123" y="-426" font-family="Helvetica,sans-Serif" font-size="10.00">+ config()</text>
<text text-anchor="start" x="123" y="-415" font-family="Helvetica,sans-Serif" font-size="10.00">+ connect()</text>
<text text-anchor="start" x="123" y="-404" font-family="Helvetica,sans-Serif" font-size="10.00">+ state()</text>
<text text-anchor="start" x="123" y="-393" font-family="Helvetica,sans-Serif" font-size="10.00">+ printConf()</text>
<text text-anchor="start" x="123" y="-382" font-family="Helvetica,sans-Serif" font-size="10.00">+ addWifi()</text>
</a>
</g>
</g>
<!-- Node3&#45;&gt;Node1 -->
<g id="edge2" class="edge"><title>Node3&#45;&gt;Node1</title>
<path fill="none" stroke="#404040" d="M172.902,-374.682C179.533,-357.128 188.207,-339.623 199.5,-325 254.343,-253.984 344.531,-201.461 407.692,-170.881"/>
<polygon fill="none" stroke="#404040" points="407.928,-170.768 411.627,-164.578 418.763,-165.611 415.065,-171.801 407.928,-170.768"/>
<text text-anchor="middle" x="253" y="-299" font-family="Helvetica,sans-Serif" font-size="10.00"> &#45;wifiManager</text>
</g>
<!-- Node4 -->
<g id="node4" class="node"><title>Node4</title>
<g id="a_node4"><a xlink:href="$classCoolBoardLed.html" xlink:title="This class handles the led in the Sensor Board. ">
<polygon fill="white" stroke="black" points="208.5,-380.5 208.5,-547.5 286.5,-547.5 286.5,-380.5 208.5,-380.5"/>
<text text-anchor="middle" x="247.5" y="-535.5" font-family="Helvetica,sans-Serif" font-size="10.00">CoolBoardLed</text>
<polyline fill="none" stroke="black" points="208.5,-528.5 286.5,-528.5 "/>
<text text-anchor="start" x="216.5" y="-516.5" font-family="Helvetica,sans-Serif" font-size="10.00">&#45; neoPixelLed</text>
<text text-anchor="start" x="216.5" y="-505.5" font-family="Helvetica,sans-Serif" font-size="10.00">&#45; ledActive</text>
<polyline fill="none" stroke="black" points="208.5,-498.5 286.5,-498.5 "/>
<text text-anchor="start" x="216.5" y="-486.5" font-family="Helvetica,sans-Serif" font-size="10.00">+ begin()</text>
<text text-anchor="start" x="216.5" y="-475.5" font-family="Helvetica,sans-Serif" font-size="10.00">+ write()</text>
<text text-anchor="start" x="216.5" y="-464.5" font-family="Helvetica,sans-Serif" font-size="10.00">+ end()</text>
<text text-anchor="start" x="216.5" y="-453.5" font-family="Helvetica,sans-Serif" font-size="10.00">+ config()</text>
<text text-anchor="start" x="216.5" y="-442.5" font-family="Helvetica,sans-Serif" font-size="10.00">+ printConf()</text>
<text text-anchor="start" x="216.5" y="-431.5" font-family="Helvetica,sans-Serif" font-size="10.00">+ colorFade()</text>
<text text-anchor="start" x="216.5" y="-420.5" font-family="Helvetica,sans-Serif" font-size="10.00">+ blink()</text>
<text text-anchor="start" x="216.5" y="-409.5" font-family="Helvetica,sans-Serif" font-size="10.00">+ fadeIn()</text>
<text text-anchor="start" x="216.5" y="-398.5" font-family="Helvetica,sans-Serif" font-size="10.00">+ fadeOut()</text>
<text text-anchor="start" x="216.5" y="-387.5" font-family="Helvetica,sans-Serif" font-size="10.00">+ strobe()</text>
</a>
</g>
</g>
<!-- Node4&#45;&gt;Node1 -->
<g id="edge3" class="edge"><title>Node4&#45;&gt;Node1</title>
<path fill="none" stroke="#404040" d="M269.504,-380.322C276.349,-361.39 284.944,-341.885 295.5,-325 326.067,-276.105 371.73,-230.094 409.918,-196.188"/>
<polygon fill="none" stroke="#404040" points="409.924,-196.183 411.799,-189.219 418.947,-188.271 417.073,-195.235 409.924,-196.183"/>
<text text-anchor="middle" x="344.5" y="-299" font-family="Helvetica,sans-Serif" font-size="10.00"> &#45;coolBoardLed</text>
</g>
<!-- Node5 -->
<g id="node5" class="node"><title>Node5</title>
<g id="a_node5"><a xlink:href="$classExternalSensors.html" xlink:title="This class handles the external sensors run time defintion , configuartion and actions. ">
<polygon fill="white" stroke="black" points="304.5,-408 304.5,-520 396.5,-520 396.5,-408 304.5,-408"/>
<text text-anchor="middle" x="350.5" y="-508" font-family="Helvetica,sans-Serif" font-size="10.00">ExternalSensors</text>
<polyline fill="none" stroke="black" points="304.5,-501 396.5,-501 "/>
<text text-anchor="start" x="312.5" y="-489" font-family="Helvetica,sans-Serif" font-size="10.00">&#45; sensorsNumber</text>
<text text-anchor="start" x="312.5" y="-478" font-family="Helvetica,sans-Serif" font-size="10.00">&#45; jsonSize</text>
<polyline fill="none" stroke="black" points="304.5,-471 396.5,-471 "/>
<text text-anchor="start" x="312.5" y="-459" font-family="Helvetica,sans-Serif" font-size="10.00">+ begin()</text>
<text text-anchor="start" x="312.5" y="-448" font-family="Helvetica,sans-Serif" font-size="10.00">+ read()</text>
<text text-anchor="start" x="312.5" y="-437" font-family="Helvetica,sans-Serif" font-size="10.00">+ config()</text>
<text text-anchor="start" x="312.5" y="-426" font-family="Helvetica,sans-Serif" font-size="10.00">+ getJsonSize()</text>
<text text-anchor="start" x="312.5" y="-415" font-family="Helvetica,sans-Serif" font-size="10.00">+ printConf()</text>
</a>
</g>
</g>
<!-- Node5&#45;&gt;Node1 -->
<g id="edge4" class="edge"><title>Node5&#45;&gt;Node1</title>
<path fill="none" stroke="#404040" d="M363.382,-407.931C371.825,-374.924 383.976,-332.428 398.5,-296 403.082,-284.507 408.245,-272.742 413.689,-261.079"/>
<polygon fill="none" stroke="#404040" points="413.832,-260.778 412.796,-253.642 418.985,-249.941 420.021,-257.077 413.832,-260.778"/>
<text text-anchor="middle" x="437" y="-299" font-family="Helvetica,sans-Serif" font-size="10.00"> &#45;externalSensors</text>
</g>
<!-- Node6 -->
<g id="node6" class="node"><title>Node6</title>
<g id="a_node6"><a xlink:href="$structExternalSensors_1_1sensor.html" xlink:title="{ExternalSensors::sensor\n|+ reference\l+ type\l+ connection\l+ dataSize\l+ address\l|}">
<polygon fill="white" stroke="black" points="102.5,-683.5 102.5,-784.5 226.5,-784.5 226.5,-683.5 102.5,-683.5"/>
<text text-anchor="middle" x="164.5" y="-772.5" font-family="Helvetica,sans-Serif" font-size="10.00">ExternalSensors::sensor</text>
<polyline fill="none" stroke="black" points="102.5,-765.5 226.5,-765.5 "/>
<text text-anchor="start" x="110.5" y="-753.5" font-family="Helvetica,sans-Serif" font-size="10.00">+ reference</text>
<text text-anchor="start" x="110.5" y="-742.5" font-family="Helvetica,sans-Serif" font-size="10.00">+ type</text>
<text text-anchor="start" x="110.5" y="-731.5" font-family="Helvetica,sans-Serif" font-size="10.00">+ connection</text>
<text text-anchor="start" x="110.5" y="-720.5" font-family="Helvetica,sans-Serif" font-size="10.00">+ dataSize</text>
<text text-anchor="start" x="110.5" y="-709.5" font-family="Helvetica,sans-Serif" font-size="10.00">+ address</text>
<polyline fill="none" stroke="black" points="102.5,-702.5 226.5,-702.5 "/>
<text text-anchor="middle" x="164.5" y="-690.5" font-family="Helvetica,sans-Serif" font-size="10.00"> </text>
</a>
</g>
</g>
<!-- Node6&#45;&gt;Node5 -->
<g id="edge5" class="edge"><title>Node6&#45;&gt;Node5</title>
<path fill="none" stroke="#404040" d="M218.721,-683.462C249.372,-654.651 283.836,-620.639 295.5,-603 309.864,-581.277 321.454,-555.22 330.223,-531.628"/>
<polygon fill="none" stroke="#404040" points="330.245,-531.568 328.508,-524.569 334.301,-520.275 336.037,-527.274 330.245,-531.568"/>
<text text-anchor="middle" x="300" y="-635" font-family="Helvetica,sans-Serif" font-size="10.00"> &#45;sensors</text>
</g>
<!-- Node7 -->
<g id="node7" class="node"><title>Node7</title>
<g id="a_node7"><a xlink:href="$classBaseExternalSensor.html" xlink:title="This class is a generic external Sensor it is a way to access real external sensor methods through ru...">
<polygon fill="white" stroke="black" points="104,-843.5 104,-922.5 225,-922.5 225,-843.5 104,-843.5"/>
<text text-anchor="middle" x="164.5" y="-910.5" font-family="Helvetica,sans-Serif" font-size="10.00">BaseExternalSensor</text>
<polyline fill="none" stroke="black" points="104,-903.5 225,-903.5 "/>
<text text-anchor="middle" x="164.5" y="-891.5" font-family="Helvetica,sans-Serif" font-size="10.00"> </text>
<polyline fill="none" stroke="black" points="104,-884.5 225,-884.5 "/>
<text text-anchor="start" x="112" y="-872.5" font-family="Helvetica,sans-Serif" font-size="10.00">+ BaseExternalSensor()</text>
<text text-anchor="start" x="112" y="-861.5" font-family="Helvetica,sans-Serif" font-size="10.00">+ begin()</text>
<text text-anchor="start" x="112" y="-850.5" font-family="Helvetica,sans-Serif" font-size="10.00">+ read()</text>
</a>
</g>
</g>
<!-- Node7&#45;&gt;Node6 -->
<g id="edge6" class="edge"><title>Node7&#45;&gt;Node6</title>
<path fill="none" stroke="#404040" d="M164.5,-843.377C164.5,-829.215 164.5,-812.803 164.5,-797.102"/>
<polygon fill="none" stroke="#404040" points="164.5,-796.719 160.5,-790.719 164.5,-784.719 168.5,-790.719 164.5,-796.719"/>
<text text-anchor="middle" x="190" y="-817" font-family="Helvetica,sans-Serif" font-size="10.00"> +exSensor</text>
</g>
<!-- Node8 -->
<g id="node8" class="node"><title>Node8</title>
<g id="a_node8"><a xlink:href="$classCoolBoardSensors.html" xlink:title="This class handles the On&#45;Board Sensors. ">
<polygon fill="white" stroke="black" points="415,-325.5 415,-602.5 544,-602.5 544,-325.5 415,-325.5"/>
<text text-anchor="middle" x="479.5" y="-590.5" font-family="Helvetica,sans-Serif" font-size="10.00">CoolBoardSensors</text>
<polyline fill="none" stroke="black" points="415,-583.5 544,-583.5 "/>
<text text-anchor="start" x="423" y="-571.5" font-family="Helvetica,sans-Serif" font-size="10.00">+ lightSensor</text>
<text text-anchor="start" x="423" y="-560.5" font-family="Helvetica,sans-Serif" font-size="10.00">+ envSensor</text>
<text text-anchor="start" x="423" y="-549.5" font-family="Helvetica,sans-Serif" font-size="10.00">&#45; EnMoisture</text>
<text text-anchor="start" x="423" y="-538.5" font-family="Helvetica,sans-Serif" font-size="10.00">&#45; AnMplex</text>
<text text-anchor="start" x="423" y="-527.5" font-family="Helvetica,sans-Serif" font-size="10.00">&#45; EnI2C</text>
<text text-anchor="start" x="423" y="-516.5" font-family="Helvetica,sans-Serif" font-size="10.00">&#45; vbatActive</text>
<text text-anchor="start" x="423" y="-505.5" font-family="Helvetica,sans-Serif" font-size="10.00">&#45; soilMoistureActive</text>
<text text-anchor="start" x="423" y="-494.5" font-family="Helvetica,sans-Serif" font-size="10.00">&#45; jsonSize</text>
<polyline fill="none" stroke="black" points="415,-487.5 544,-487.5 "/>
<text text-anchor="start" x="423" y="-475.5" font-family="Helvetica,sans-Serif" font-size="10.00">+ CoolBoardSensors()</text>
<text text-anchor="start" x="423" y="-464.5" font-family="Helvetica,sans-Serif" font-size="10.00">+ begin()</text>
<text text-anchor="start" x="423" y="-453.5" font-family="Helvetica,sans-Serif" font-size="10.00">+ read()</text>
<text text-anchor="start" x="423" y="-442.5" font-family="Helvetica,sans-Serif" font-size="10.00">+ getJsonSize()</text>
<text text-anchor="start" x="423" y="-431.5" font-family="Helvetica,sans-Serif" font-size="10.00">+ setJsonSize()</text>
<text text-anchor="start" x="423" y="-420.5" font-family="Helvetica,sans-Serif" font-size="10.00">+ allActive()</text>
<text text-anchor="start" x="423" y="-409.5" font-family="Helvetica,sans-Serif" font-size="10.00">+ initReadI2C()</text>
<text text-anchor="start" x="423" y="-398.5" font-family="Helvetica,sans-Serif" font-size="10.00">+ stopReadI2C()</text>
<text text-anchor="start" x="423" y="-387.5" font-family="Helvetica,sans-Serif" font-size="10.00">+ end()</text>
<text text-anchor="start" x="423" y="-376.5" font-family="Helvetica,sans-Serif" font-size="10.00">+ config()</text>
<text text-anchor="start" x="423" y="-365.5" font-family="Helvetica,sans-Serif" font-size="10.00">+ printConf()</text>
<text text-anchor="start" x="423" y="-354.5" font-family="Helvetica,sans-Serif" font-size="10.00">+ setEnvSensorSettings()</text>
<text text-anchor="start" x="423" y="-343.5" font-family="Helvetica,sans-Serif" font-size="10.00">+ readVBat()</text>
<text text-anchor="start" x="423" y="-332.5" font-family="Helvetica,sans-Serif" font-size="10.00">+ readMoisture()</text>
</a>
</g>
</g>
<!-- Node8&#45;&gt;Node1 -->
<g id="edge7" class="edge"><title>Node8&#45;&gt;Node1</title>
<path fill="none" stroke="#404040" d="M479.5,-325.082C479.5,-313.438 479.5,-301.626 479.5,-289.897"/>
<polygon fill="none" stroke="#404040" points="479.5,-289.714 475.5,-283.714 479.5,-277.714 483.5,-283.714 479.5,-289.714"/>
<text text-anchor="middle" x="522.5" y="-299" font-family="Helvetica,sans-Serif" font-size="10.00"> &#45;coolBoardSensors</text>
</g>
<!-- Node9 -->
<g id="node9" class="node"><title>Node9</title>
<g id="a_node9"><a xlink:href="$structCoolBoardSensors_1_1airActive.html" xlink:title="{CoolBoardSensors::airActive\n|+ temperature\l+ humidity\l+ pressure\l|}">
<polygon fill="white" stroke="black" points="245,-694.5 245,-773.5 388,-773.5 388,-694.5 245,-694.5"/>
<text text-anchor="middle" x="316.5" y="-761.5" font-family="Helvetica,sans-Serif" font-size="10.00">CoolBoardSensors::airActive</text>
<polyline fill="none" stroke="black" points="245,-754.5 388,-754.5 "/>
<text text-anchor="start" x="253" y="-742.5" font-family="Helvetica,sans-Serif" font-size="10.00">+ temperature</text>
<text text-anchor="start" x="253" y="-731.5" font-family="Helvetica,sans-Serif" font-size="10.00">+ humidity</text>
<text text-anchor="start" x="253" y="-720.5" font-family="Helvetica,sans-Serif" font-size="10.00">+ pressure</text>
<polyline fill="none" stroke="black" points="245,-713.5 388,-713.5 "/>
<text text-anchor="middle" x="316.5" y="-701.5" font-family="Helvetica,sans-Serif" font-size="10.00"> </text>
</a>
</g>
</g>
<!-- Node9&#45;&gt;Node8 -->
<g id="edge8" class="edge"><title>Node9&#45;&gt;Node8</title>
<path fill="none" stroke="#404040" d="M344.497,-694.473C362.616,-668.978 386.317,-634.551 405.5,-603 406.568,-601.243 407.638,-599.47 408.708,-597.682"/>
<polygon fill="none" stroke="#404040" points="408.732,-597.641 408.338,-590.441 414.834,-587.308 415.227,-594.509 408.732,-597.641"/>
<text text-anchor="middle" x="427.5" y="-635" font-family="Helvetica,sans-Serif" font-size="10.00"> &#45;airDataActive</text>
</g>
<!-- Node10 -->
<g id="node10" class="node"><title>Node10</title>
<g id="a_node10"><a xlink:href="$structCoolBoardSensors_1_1lightActive.html" xlink:title="{CoolBoardSensors::lightActive\n|+ visible\l+ ir\l+ uv\l|}">
<polygon fill="white" stroke="black" points="406.5,-694.5 406.5,-773.5 556.5,-773.5 556.5,-694.5 406.5,-694.5"/>
<text text-anchor="middle" x="481.5" y="-761.5" font-family="Helvetica,sans-Serif" font-size="10.00">CoolBoardSensors::lightActive</text>
<polyline fill="none" stroke="black" points="406.5,-754.5 556.5,-754.5 "/>
<text text-anchor="start" x="414.5" y="-742.5" font-family="Helvetica,sans-Serif" font-size="10.00">+ visible</text>
<text text-anchor="start" x="414.5" y="-731.5" font-family="Helvetica,sans-Serif" font-size="10.00">+ ir</text>
<text text-anchor="start" x="414.5" y="-720.5" font-family="Helvetica,sans-Serif" font-size="10.00">+ uv</text>
<polyline fill="none" stroke="black" points="406.5,-713.5 556.5,-713.5 "/>
<text text-anchor="middle" x="481.5" y="-701.5" font-family="Helvetica,sans-Serif" font-size="10.00"> </text>
</a>
</g>
</g>
<!-- Node10&#45;&gt;Node8 -->
<g id="edge9" class="edge"><title>Node10&#45;&gt;Node8</title>
<path fill="none" stroke="#404040" d="M481.211,-694.317C481.05,-672.722 480.838,-644.28 480.618,-614.803"/>
<polygon fill="none" stroke="#404040" points="480.616,-614.575 476.572,-608.605 480.527,-602.575 484.571,-608.545 480.616,-614.575"/>
<text text-anchor="middle" x="518" y="-635" font-family="Helvetica,sans-Serif" font-size="10.00"> &#45;lightDataActive</text>
</g>
<!-- Node11 -->
<g id="node11" class="node"><title>Node11</title>
<g id="a_node11"><a xlink:href="$classIrene3000.html" xlink:title="This class is provided to manage the Irene3000 Ph/Temperature Shield. ">
<polygon fill="white" stroke="black" points="562,-347.5 562,-580.5 675,-580.5 675,-347.5 562,-347.5"/>
<text text-anchor="middle" x="618.5" y="-568.5" font-family="Helvetica,sans-Serif" font-size="10.00">Irene3000</text>
<polyline fill="none" stroke="black" points="562,-561.5 675,-561.5 "/>
<text text-anchor="start" x="570" y="-549.5" font-family="Helvetica,sans-Serif" font-size="10.00">&#45; ads</text>
<text text-anchor="start" x="570" y="-538.5" font-family="Helvetica,sans-Serif" font-size="10.00">&#45; ireneJsonSize</text>
<text text-anchor="start" x="570" y="-527.5" font-family="Helvetica,sans-Serif" font-size="10.00">&#45; vRef</text>
<text text-anchor="start" x="570" y="-516.5" font-family="Helvetica,sans-Serif" font-size="10.00">&#45; opampGain</text>
<polyline fill="none" stroke="black" points="562,-509.5 675,-509.5 "/>
<text text-anchor="start" x="570" y="-497.5" font-family="Helvetica,sans-Serif" font-size="10.00">+ begin()</text>
<text text-anchor="start" x="570" y="-486.5" font-family="Helvetica,sans-Serif" font-size="10.00">+ config()</text>
<text text-anchor="start" x="570" y="-475.5" font-family="Helvetica,sans-Serif" font-size="10.00">+ printConf()</text>
<text text-anchor="start" x="570" y="-464.5" font-family="Helvetica,sans-Serif" font-size="10.00">+ read()</text>
<text text-anchor="start" x="570" y="-453.5" font-family="Helvetica,sans-Serif" font-size="10.00">+ readButton()</text>
<text text-anchor="start" x="570" y="-442.5" font-family="Helvetica,sans-Serif" font-size="10.00">+ setGain()</text>
<text text-anchor="start" x="570" y="-431.5" font-family="Helvetica,sans-Serif" font-size="10.00">+ readADSChannel2()</text>
<text text-anchor="start" x="570" y="-420.5" font-family="Helvetica,sans-Serif" font-size="10.00">+ readPh()</text>
<text text-anchor="start" x="570" y="-409.5" font-family="Helvetica,sans-Serif" font-size="10.00">+ readTemp()</text>
<text text-anchor="start" x="570" y="-398.5" font-family="Helvetica,sans-Serif" font-size="10.00">+ resetParams()</text>
<text text-anchor="start" x="570" y="-387.5" font-family="Helvetica,sans-Serif" font-size="10.00">+ calibratepH7()</text>
<text text-anchor="start" x="570" y="-376.5" font-family="Helvetica,sans-Serif" font-size="10.00">+ calibratepH4()</text>
<text text-anchor="start" x="570" y="-365.5" font-family="Helvetica,sans-Serif" font-size="10.00">+ calcpHSlope()</text>
<text text-anchor="start" x="570" y="-354.5" font-family="Helvetica,sans-Serif" font-size="10.00">+ gainConvert()</text>
</a>
</g>
</g>
<!-- Node11&#45;&gt;Node1 -->
<g id="edge10" class="edge"><title>Node11&#45;&gt;Node1</title>
<path fill="none" stroke="#404040" d="M588.424,-347.193C582.788,-329.795 576.454,-312.251 569.5,-296 562.654,-280.001 554.53,-263.585 546.009,-247.69"/>
<polygon fill="none" stroke="#404040" points="545.804,-247.314 539.419,-243.963 540.057,-236.78 546.442,-240.131 545.804,-247.314"/>
<text text-anchor="middle" x="598" y="-299" font-family="Helvetica,sans-Serif" font-size="10.00"> &#45;irene3000</text>
</g>
<!-- Node12 -->
<g id="node12" class="node"><title>Node12</title>
<g id="a_node12"><a xlink:href="$structIrene3000_1_1state.html" xlink:title="{Irene3000::state\n|+ active\l+ gain\l+ type\l|}">
<polygon fill="white" stroke="black" points="575,-694.5 575,-773.5 662,-773.5 662,-694.5 575,-694.5"/>
<text text-anchor="middle" x="618.5" y="-761.5" font-family="Helvetica,sans-Serif" font-size="10.00">Irene3000::state</text>
<polyline fill="none" stroke="black" points="575,-754.5 662,-754.5 "/>
<text text-anchor="start" x="583" y="-742.5" font-family="Helvetica,sans-Serif" font-size="10.00">+ active</text>
<text text-anchor="start" x="583" y="-731.5" font-family="Helvetica,sans-Serif" font-size="10.00">+ gain</text>
<text text-anchor="start" x="583" y="-720.5" font-family="Helvetica,sans-Serif" font-size="10.00">+ type</text>
<polyline fill="none" stroke="black" points="575,-713.5 662,-713.5 "/>
<text text-anchor="middle" x="618.5" y="-701.5" font-family="Helvetica,sans-Serif" font-size="10.00"> </text>
</a>
</g>
</g>
<!-- Node12&#45;&gt;Node11 -->
<g id="edge11" class="edge"><title>Node12&#45;&gt;Node11</title>
<path fill="none" stroke="#404040" d="M618.5,-694.317C618.5,-667.423 618.5,-629.91 618.5,-593.004"/>
<polygon fill="none" stroke="#404040" points="618.5,-592.528 614.5,-586.528 618.5,-580.528 622.5,-586.528 618.5,-592.528"/>
<text text-anchor="middle" x="646" y="-646" font-family="Helvetica,sans-Serif" font-size="10.00"> &#45;waterTemp</text>
<text text-anchor="middle" x="646" y="-635" font-family="Helvetica,sans-Serif" font-size="10.00">&#45;phProbe</text>
<text text-anchor="middle" x="646" y="-624" font-family="Helvetica,sans-Serif" font-size="10.00">&#45;adc2</text>
</g>
<!-- Node13 -->
<g id="node13" class="node"><title>Node13</title>
<g id="a_node13"><a xlink:href="$structIrene3000_1_1parameters__T.html" xlink:title="{Irene3000::parameters_T\n|+ WriteCheck\l+ pH7Cal\l+ pH4Cal\l+ pHStep\l|}">
<polygon fill="white" stroke="black" points="680,-689 680,-779 805,-779 805,-689 680,-689"/>
<text text-anchor="middle" x="742.5" y="-767" font-family="Helvetica,sans-Serif" font-size="10.00">Irene3000::parameters_T</text>
<polyline fill="none" stroke="black" points="680,-760 805,-760 "/>
<text text-anchor="start" x="688" y="-748" font-family="Helvetica,sans-Serif" font-size="10.00">+ WriteCheck</text>
<text text-anchor="start" x="688" y="-737" font-family="Helvetica,sans-Serif" font-size="10.00">+ pH7Cal</text>
<text text-anchor="start" x="688" y="-726" font-family="Helvetica,sans-Serif" font-size="10.00">+ pH4Cal</text>
<text text-anchor="start" x="688" y="-715" font-family="Helvetica,sans-Serif" font-size="10.00">+ pHStep</text>
<polyline fill="none" stroke="black" points="680,-708 805,-708 "/>
<text text-anchor="middle" x="742.5" y="-696" font-family="Helvetica,sans-Serif" font-size="10.00"> </text>
</a>
</g>
</g>
<!-- Node13&#45;&gt;Node11 -->
<g id="edge12" class="edge"><title>Node13&#45;&gt;Node11</title>
<path fill="none" stroke="#404040" d="M722.024,-688.745C709.703,-662.116 693.333,-626.736 677.255,-591.986"/>
<polygon fill="none" stroke="#404040" points="677.089,-591.628 670.939,-587.863 672.05,-580.738 678.2,-584.503 677.089,-591.628"/>
<text text-anchor="middle" x="726" y="-635" font-family="Helvetica,sans-Serif" font-size="10.00"> &#45;params</text>
</g>
<!-- Node14 -->
<g id="node14" class="node"><title>Node14</title>
<g id="a_node14"><a xlink:href="$classCoolFileSystem.html" xlink:title="This class handles the file system. ">
<polygon fill="white" stroke="black" points="693,-413.5 693,-514.5 818,-514.5 818,-413.5 693,-413.5"/>
<text text-anchor="middle" x="755.5" y="-502.5" font-family="Helvetica,sans-Serif" font-size="10.00">CoolFileSystem</text>
<polyline fill="none" stroke="black" points="693,-495.5 818,-495.5 "/>
<text text-anchor="start" x="701" y="-483.5" font-family="Helvetica,sans-Serif" font-size="10.00">&#45; savedData</text>
<polyline fill="none" stroke="black" points="693,-476.5 818,-476.5 "/>
<text text-anchor="start" x="701" y="-464.5" font-family="Helvetica,sans-Serif" font-size="10.00">+ begin()</text>
<text text-anchor="start" x="701" y="-453.5" font-family="Helvetica,sans-Serif" font-size="10.00">+ updateConfigFiles()</text>
<text text-anchor="start" x="701" y="-442.5" font-family="Helvetica,sans-Serif" font-size="10.00">+ saveSensorData()</text>
<text text-anchor="start" x="701" y="-431.5" font-family="Helvetica,sans-Serif" font-size="10.00">+ isDataSaved()</text>
<text text-anchor="start" x="701" y="-420.5" font-family="Helvetica,sans-Serif" font-size="10.00">+ getSensorSavedData()</text>
</a>
</g>
</g>
<!-- Node14&#45;&gt;Node1 -->
<g id="edge13" class="edge"><title>Node14&#45;&gt;Node1</title>
<path fill="none" stroke="#404040" d="M734.755,-413.232C722.077,-385.801 704.31,-351.95 683.5,-325 644.924,-275.042 591.884,-227.412 549.556,-192.994"/>
<polygon fill="none" stroke="#404040" points="549.493,-192.944 542.311,-192.295 540.147,-185.417 547.329,-186.065 549.493,-192.944"/>
<text text-anchor="middle" x="692" y="-299" font-family="Helvetica,sans-Serif" font-size="10.00"> &#45;fileSystem</text>
</g>
<!-- Node15 -->
<g id="node15" class="node"><title>Node15</title>
<g id="a_node15"><a xlink:href="$classJetpack.html" xlink:title="This class manages the Jetpack shield. ">
<polygon fill="white" stroke="black" points="835.5,-386 835.5,-542 919.5,-542 919.5,-386 835.5,-386"/>
<text text-anchor="middle" x="877.5" y="-530" font-family="Helvetica,sans-Serif" font-size="10.00">Jetpack</text>
<polyline fill="none" stroke="black" points="835.5,-523 919.5,-523 "/>
<text text-anchor="start" x="843.5" y="-511" font-family="Helvetica,sans-Serif" font-size="10.00">&#45; action</text>
<text text-anchor="start" x="843.5" y="-500" font-family="Helvetica,sans-Serif" font-size="10.00">&#45; actorsNumber</text>
<text text-anchor="start" x="843.5" y="-489" font-family="Helvetica,sans-Serif" font-size="10.00">&#45; clockPin</text>
<text text-anchor="start" x="843.5" y="-478" font-family="Helvetica,sans-Serif" font-size="10.00">&#45; dataPin</text>
<text text-anchor="start" x="843.5" y="-467" font-family="Helvetica,sans-Serif" font-size="10.00">&#45; EnI2C</text>
<polyline fill="none" stroke="black" points="835.5,-460 919.5,-460 "/>
<text text-anchor="start" x="843.5" y="-448" font-family="Helvetica,sans-Serif" font-size="10.00">+ begin()</text>
<text text-anchor="start" x="843.5" y="-437" font-family="Helvetica,sans-Serif" font-size="10.00">+ write()</text>
<text text-anchor="start" x="843.5" y="-426" font-family="Helvetica,sans-Serif" font-size="10.00">+ writeBit()</text>
<text text-anchor="start" x="843.5" y="-415" font-family="Helvetica,sans-Serif" font-size="10.00">+ doAction()</text>
<text text-anchor="start" x="843.5" y="-404" font-family="Helvetica,sans-Serif" font-size="10.00">+ config()</text>
<text text-anchor="start" x="843.5" y="-393" font-family="Helvetica,sans-Serif" font-size="10.00">+ printConf()</text>
</a>
</g>
</g>
<!-- Node15&#45;&gt;Node1 -->
<g id="edge14" class="edge"><title>Node15&#45;&gt;Node1</title>
<path fill="none" stroke="#404040" d="M859.916,-385.666C852.285,-364.272 841.531,-342.224 826.5,-325 752.423,-240.112 629.652,-187.789 551.751,-161.323"/>
<polygon fill="none" stroke="#404040" points="551.507,-161.241 544.55,-163.141 540.121,-157.45 547.078,-155.551 551.507,-161.241"/>
<text text-anchor="middle" x="825.5" y="-299" font-family="Helvetica,sans-Serif" font-size="10.00"> &#45;jetPack</text>
</g>
<!-- Node16 -->
<g id="node16" class="node"><title>Node16</title>
<g id="a_node16"><a xlink:href="$structJetpack_1_1state.html" xlink:title="{Jetpack::state\n|+ type\l+ actif\l+ low\l+ high\l+ temporal\l+ actifTime\l+ inactifTime\l|}">
<polygon fill="white" stroke="black" points="838,-672.5 838,-795.5 917,-795.5 917,-672.5 838,-672.5"/>
<text text-anchor="middle" x="877.5" y="-783.5" font-family="Helvetica,sans-Serif" font-size="10.00">Jetpack::state</text>
<polyline fill="none" stroke="black" points="838,-776.5 917,-776.5 "/>
<text text-anchor="start" x="846" y="-764.5" font-family="Helvetica,sans-Serif" font-size="10.00">+ type</text>
<text text-anchor="start" x="846" y="-753.5" font-family="Helvetica,sans-Serif" font-size="10.00">+ actif</text>
<text text-anchor="start" x="846" y="-742.5" font-family="Helvetica,sans-Serif" font-size="10.00">+ low</text>
<text text-anchor="start" x="846" y="-731.5" font-family="Helvetica,sans-Serif" font-size="10.00">+ high</text>
<text text-anchor="start" x="846" y="-720.5" font-family="Helvetica,sans-Serif" font-size="10.00">+ temporal</text>
<text text-anchor="start" x="846" y="-709.5" font-family="Helvetica,sans-Serif" font-size="10.00">+ actifTime</text>
<text text-anchor="start" x="846" y="-698.5" font-family="Helvetica,sans-Serif" font-size="10.00">+ inactifTime</text>
<polyline fill="none" stroke="black" points="838,-691.5 917,-691.5 "/>
<text text-anchor="middle" x="877.5" y="-679.5" font-family="Helvetica,sans-Serif" font-size="10.00"> </text>
</a>
</g>
</g>
<!-- Node16&#45;&gt;Node15 -->
<g id="edge15" class="edge"><title>Node16&#45;&gt;Node15</title>
<path fill="none" stroke="#404040" d="M877.5,-672.187C877.5,-637.412 877.5,-593.152 877.5,-554.476"/>
<polygon fill="none" stroke="#404040" points="877.5,-554.401 873.5,-548.402 877.5,-542.401 881.5,-548.401 877.5,-554.401"/>
<text text-anchor="middle" x="894.5" y="-635" font-family="Helvetica,sans-Serif" font-size="10.00"> &#45;actors</text>
</g>
<!-- Node17 -->
<g id="node17" class="node"><title>Node17</title>
<g id="a_node17"><a xlink:href="$classCoolTime.html" xlink:title="This class manages the DS1337 RTC . ">
<polygon fill="white" stroke="black" points="937.5,-331 937.5,-597 1045.5,-597 1045.5,-331 937.5,-331"/>
<text text-anchor="middle" x="991.5" y="-585" font-family="Helvetica,sans-Serif" font-size="10.00">CoolTime</text>
<polyline fill="none" stroke="black" points="937.5,-578 1045.5,-578 "/>
<text text-anchor="start" x="945.5" y="-566" font-family="Helvetica,sans-Serif" font-size="10.00">&#45; timeSync</text>
<text text-anchor="start" x="945.5" y="-555" font-family="Helvetica,sans-Serif" font-size="10.00">&#45; timeServer</text>
<text text-anchor="start" x="945.5" y="-544" font-family="Helvetica,sans-Serif" font-size="10.00">&#45; Udp</text>
<text text-anchor="start" x="945.5" y="-533" font-family="Helvetica,sans-Serif" font-size="10.00">&#45; localPort</text>
<text text-anchor="start" x="945.5" y="-522" font-family="Helvetica,sans-Serif" font-size="10.00">&#45; packetBuffer</text>
<text text-anchor="start" x="945.5" y="-511" font-family="Helvetica,sans-Serif" font-size="10.00">&#45; tmSet</text>
<text text-anchor="start" x="945.5" y="-500" font-family="Helvetica,sans-Serif" font-size="10.00">&#45; rtc</text>
<polyline fill="none" stroke="black" points="937.5,-493 1045.5,-493 "/>
<text text-anchor="start" x="945.5" y="-481" font-family="Helvetica,sans-Serif" font-size="10.00">+ begin()</text>
<text text-anchor="start" x="945.5" y="-470" font-family="Helvetica,sans-Serif" font-size="10.00">+ update()</text>
<text text-anchor="start" x="945.5" y="-459" font-family="Helvetica,sans-Serif" font-size="10.00">+ config()</text>
<text text-anchor="start" x="945.5" y="-448" font-family="Helvetica,sans-Serif" font-size="10.00">+ config()</text>
<text text-anchor="start" x="945.5" y="-437" font-family="Helvetica,sans-Serif" font-size="10.00">+ printConf()</text>
<text text-anchor="start" x="945.5" y="-426" font-family="Helvetica,sans-Serif" font-size="10.00">+ setDateTime()</text>
<text text-anchor="start" x="945.5" y="-415" font-family="Helvetica,sans-Serif" font-size="10.00">+ getTimeDate()</text>
<text text-anchor="start" x="945.5" y="-404" font-family="Helvetica,sans-Serif" font-size="10.00">+ getESDate()</text>
<text text-anchor="start" x="945.5" y="-393" font-family="Helvetica,sans-Serif" font-size="10.00">+ getLastSyncTime()</text>
<text text-anchor="start" x="945.5" y="-382" font-family="Helvetica,sans-Serif" font-size="10.00">+ isTimeSync()</text>
<text text-anchor="start" x="945.5" y="-371" font-family="Helvetica,sans-Serif" font-size="10.00">+ getNtpTime()</text>
<text text-anchor="start" x="945.5" y="-360" font-family="Helvetica,sans-Serif" font-size="10.00">+ sendNTPpacket()</text>
<text text-anchor="start" x="945.5" y="-349" font-family="Helvetica,sans-Serif" font-size="10.00">+ formatDigits()</text>
<text text-anchor="start" x="945.5" y="-338" font-family="Helvetica,sans-Serif" font-size="10.00">+ saveTimeSync()</text>
</a>
</g>
</g>
<!-- Node17&#45;&gt;Node1 -->
<g id="edge16" class="edge"><title>Node17&#45;&gt;Node1</title>
<path fill="none" stroke="#404040" d="M937.469,-334.562C934.618,-331.214 931.63,-328.015 928.5,-325 821.648,-222.074 649.536,-173.235 552.373,-152.758"/>
<polygon fill="none" stroke="#404040" points="552.083,-152.699 545.401,-155.41 540.328,-150.285 547.01,-147.574 552.083,-152.699"/>
<text text-anchor="middle" x="908.5" y="-299" font-family="Helvetica,sans-Serif" font-size="10.00"> &#45;rtc</text>
</g>
</g>
</svg>
