<?xml version="1.0" encoding="UTF-8" standalone="no"?>
<!DOCTYPE svg PUBLIC "-//W3C//DTD SVG 1.1//EN"
 "http://www.w3.org/Graphics/SVG/1.1/DTD/svg11.dtd">
<!-- Generated by graphviz version 2.38.0 (20140413.2041)
 -->
<!-- Title: CoolTime::getLastSyncTime Pages: 1 -->
<svg width="588pt" height="28pt"
 viewBox="0.00 0.00 588.00 28.00" xmlns="http://www.w3.org/2000/svg" xmlns:xlink="http://www.w3.org/1999/xlink">
<g id="graph0" class="graph" transform="scale(1 1) rotate(0) translate(4 24)">
<title>CoolTime::getLastSyncTime</title>
<polygon fill="white" stroke="none" points="-4,4 -4,-24 584,-24 584,4 -4,4"/>
<!-- Node13 -->
<g id="node1" class="node"><title>Node13</title>
<polygon fill="#bfbfbf" stroke="black" points="0,-0.5 0,-19.5 141,-19.5 141,-0.5 0,-0.5"/>
<text text-anchor="middle" x="70.5" y="-7.5" font-family="Helvetica,sans-Serif" font-size="10.00">CoolTime::getLastSyncTime</text>
</g>
<!-- Node14 -->
<g id="node2" class="node"><title>Node14</title>
<g id="a_node2"><a xlink:href="$classCoolTime.html#a5ae038a4498602b189f76a10bf02adf8" xlink:title="CoolTime::isTimeSync">
<polygon fill="white" stroke="black" points="177,-0.5 177,-19.5 293,-19.5 293,-0.5 177,-0.5"/>
<text text-anchor="middle" x="235" y="-7.5" font-family="Helvetica,sans-Serif" font-size="10.00">CoolTime::isTimeSync</text>
</a>
</g>
</g>
<!-- Node13&#45;&gt;Node14 -->
<g id="edge1" class="edge"><title>Node13&#45;&gt;Node14</title>
<path fill="none" stroke="midnightblue" d="M151.429,-10C160.036,-10 168.663,-10 176.923,-10"/>
<polygon fill="midnightblue" stroke="midnightblue" points="151.358,-6.5001 141.358,-10 151.358,-13.5001 151.358,-6.5001"/>
</g>
<!-- Node15 -->
<g id="node3" class="node"><title>Node15</title>
<g id="a_node3"><a xlink:href="$classCoolTime.html#aae601f795452cfa48d9fb337aed483a8" xlink:title="CoolTime::update">
<polygon fill="white" stroke="black" points="329,-0.5 329,-19.5 423,-19.5 423,-0.5 329,-0.5"/>
<text text-anchor="middle" x="376" y="-7.5" font-family="Helvetica,sans-Serif" font-size="10.00">CoolTime::update</text>
</a>
</g>
</g>
<!-- Node14&#45;&gt;Node15 -->
<g id="edge2" class="edge"><title>Node14&#45;&gt;Node15</title>
<path fill="none" stroke="midnightblue" d="M303.392,-10C311.999,-10 320.65,-10 328.815,-10"/>
<polygon fill="midnightblue" stroke="midnightblue" points="303.339,-6.5001 293.339,-10 303.339,-13.5001 303.339,-6.5001"/>
</g>
<!-- Node16 -->
<g id="node4" class="node"><title>Node16</title>
<g id="a_node4"><a xlink:href="$classCoolBoard.html#aa0bbc4bc605e35618d18e68795c61363" xlink:title="CoolBoard::onLineMode">
<polygon fill="white" stroke="black" points="459,-0.5 459,-19.5 580,-19.5 580,-0.5 459,-0.5"/>
<text text-anchor="middle" x="519.5" y="-7.5" font-family="Helvetica,sans-Serif" font-size="10.00">CoolBoard::onLineMode</text>
</a>
</g>
</g>
<!-- Node15&#45;&gt;Node16 -->
<g id="edge3" class="edge"><title>Node15&#45;&gt;Node16</title>
<path fill="none" stroke="midnightblue" d="M433.394,-10C441.785,-10 450.457,-10 458.911,-10"/>
<polygon fill="midnightblue" stroke="midnightblue" points="433.332,-6.5001 423.332,-10 433.332,-13.5001 433.332,-6.5001"/>
</g>
</g>
</svg>
