<?xml version="1.0" encoding="UTF-8" standalone="no"?>
<!DOCTYPE svg PUBLIC "-//W3C//DTD SVG 1.1//EN"
 "http://www.w3.org/Graphics/SVG/1.1/DTD/svg11.dtd">
<!-- Generated by graphviz version 2.38.0 (20140413.2041)
 -->
<!-- Title: CoolBoard::update Pages: 1 -->
<svg width="446pt" height="534pt"
 viewBox="0.00 0.00 446.00 533.50" xmlns="http://www.w3.org/2000/svg" xmlns:xlink="http://www.w3.org/1999/xlink">
<g id="graph0" class="graph" transform="scale(1 1) rotate(0) translate(4 529.5)">
<title>CoolBoard::update</title>
<polygon fill="white" stroke="none" points="-4,4 -4,-529.5 442,-529.5 442,4 -4,4"/>
<!-- Node153 -->
<g id="node1" class="node"><title>Node153</title>
<polygon fill="#bfbfbf" stroke="black" points="0,-259 0,-278 98,-278 98,-259 0,-259"/>
<text text-anchor="middle" x="49" y="-266" font-family="Helvetica,sans-Serif" font-size="10.00">CoolBoard::update</text>
</g>
<!-- Node154 -->
<g id="node2" class="node"><title>Node154</title>
<g id="a_node2"><a xlink:href="$classCoolMQTT.html#ac9248808641ebf3054ed0620ea9d0100" xlink:title="CoolMQTT::begin">
<polygon fill="white" stroke="black" points="162,-506 162,-525 256,-525 256,-506 162,-506"/>
<text text-anchor="middle" x="209" y="-513" font-family="Helvetica,sans-Serif" font-size="10.00">CoolMQTT::begin</text>
</a>
</g>
</g>
<!-- Node153&#45;&gt;Node154 -->
<g id="edge1" class="edge"><title>Node153&#45;&gt;Node154</title>
<path fill="none" stroke="midnightblue" d="M50.4918,-278.005C52.8259,-312.865 65.7532,-434.861 134,-496.5 139.225,-501.219 145.464,-504.798 152.073,-507.506"/>
<polygon fill="midnightblue" stroke="midnightblue" points="151.349,-510.958 161.944,-510.884 153.615,-504.335 151.349,-510.958"/>
</g>
<!-- Node156 -->
<g id="node4" class="node"><title>Node156</title>
<g id="a_node4"><a xlink:href="$classCoolWifi.html#a46942fed90e475112cc10b78a32e7aaa" xlink:title="CoolWifi::begin">
<polygon fill="white" stroke="black" points="167.5,-468 167.5,-487 250.5,-487 250.5,-468 167.5,-468"/>
<text text-anchor="middle" x="209" y="-475" font-family="Helvetica,sans-Serif" font-size="10.00">CoolWifi::begin</text>
</a>
</g>
</g>
<!-- Node153&#45;&gt;Node156 -->
<g id="edge3" class="edge"><title>Node153&#45;&gt;Node156</title>
<path fill="none" stroke="midnightblue" d="M51.2861,-278.135C55.9797,-309.358 75.1143,-408.606 134,-458.5 140.764,-464.232 149.041,-468.265 157.58,-471.097"/>
<polygon fill="midnightblue" stroke="midnightblue" points="156.691,-474.483 167.265,-473.81 158.58,-467.742 156.691,-474.483"/>
</g>
<!-- Node157 -->
<g id="node5" class="node"><title>Node157</title>
<g id="a_node5"><a xlink:href="$classCoolBoardLed.html#a1b60e5e30bea96c49ed62ed1bf1ffc8b" xlink:title="CoolBoardLed::config">
<polygon fill="white" stroke="black" points="154,-430 154,-449 264,-449 264,-430 154,-430"/>
<text text-anchor="middle" x="209" y="-437" font-family="Helvetica,sans-Serif" font-size="10.00">CoolBoardLed::config</text>
</a>
</g>
</g>
<!-- Node153&#45;&gt;Node157 -->
<g id="edge4" class="edge"><title>Node153&#45;&gt;Node157</title>
<path fill="none" stroke="midnightblue" d="M52.4153,-278.089C59.7141,-305.028 84.1663,-381.933 134,-420.5 137.212,-422.986 140.715,-425.149 144.393,-427.031"/>
<polygon fill="midnightblue" stroke="midnightblue" points="143.265,-430.358 153.83,-431.154 146.067,-423.943 143.265,-430.358"/>
</g>
<!-- Node158 -->
<g id="node6" class="node"><title>Node158</title>
<g id="a_node6"><a xlink:href="$classJetpack.html#ab065ee83e244265a2223a22f3ee4a719" xlink:title="Jetpack::config">
<polygon fill="white" stroke="black" points="167.5,-392 167.5,-411 250.5,-411 250.5,-392 167.5,-392"/>
<text text-anchor="middle" x="209" y="-399" font-family="Helvetica,sans-Serif" font-size="10.00">Jetpack::config</text>
</a>
</g>
</g>
<!-- Node153&#45;&gt;Node158 -->
<g id="edge5" class="edge"><title>Node153&#45;&gt;Node158</title>
<path fill="none" stroke="midnightblue" d="M54.2935,-278.198C64.6154,-300.347 93.0375,-354.862 134,-382.5 141.113,-387.299 149.356,-390.886 157.704,-393.567"/>
<polygon fill="midnightblue" stroke="midnightblue" points="156.916,-396.981 167.49,-396.316 158.809,-390.242 156.916,-396.981"/>
</g>
<!-- Node159 -->
<g id="node7" class="node"><title>Node159</title>
<g id="a_node7"><a xlink:href="$classExternalSensors.html#a862a4bd11346b37270d0244c2adabe5a" xlink:title="ExternalSensors::config">
<polygon fill="white" stroke="black" points="148.5,-354 148.5,-373 269.5,-373 269.5,-354 148.5,-354"/>
<text text-anchor="middle" x="209" y="-361" font-family="Helvetica,sans-Serif" font-size="10.00">ExternalSensors::config</text>
</a>
</g>
</g>
<!-- Node153&#45;&gt;Node159 -->
<g id="edge6" class="edge"><title>Node153&#45;&gt;Node159</title>
<path fill="none" stroke="midnightblue" d="M57.739,-278.032C71.399,-294.21 101.437,-326.989 134,-344.5 138.231,-346.775 142.746,-348.787 147.38,-350.564"/>
<polygon fill="midnightblue" stroke="midnightblue" points="146.412,-353.933 157.006,-353.892 148.699,-347.317 146.412,-353.933"/>
</g>
<!-- Node160 -->
<g id="node8" class="node"><title>Node160</title>
<g id="a_node8"><a xlink:href="$classCoolWifi.html#a4eb2f6b9b09dd588964b88b6c70122c0" xlink:title="CoolWifi::config">
<polygon fill="white" stroke="black" points="166,-316 166,-335 252,-335 252,-316 166,-316"/>
<text text-anchor="middle" x="209" y="-323" font-family="Helvetica,sans-Serif" font-size="10.00">CoolWifi::config</text>
</a>
</g>
</g>
<!-- Node153&#45;&gt;Node160 -->
<g id="edge7" class="edge"><title>Node153&#45;&gt;Node160</title>
<path fill="none" stroke="midnightblue" d="M68.6319,-278.06C85.405,-286.391 110.897,-298.377 134,-306.5 141.047,-308.978 148.576,-311.285 156.032,-313.377"/>
<polygon fill="midnightblue" stroke="midnightblue" points="155.18,-316.772 165.746,-315.998 157.004,-310.013 155.18,-316.772"/>
</g>
<!-- Node161 -->
<g id="node9" class="node"><title>Node161</title>
<g id="a_node9"><a xlink:href="$classCoolMQTT.html#a9b703de4f1358f0ee7a5e8c44979c648" xlink:title="CoolMQTT::config">
<polygon fill="white" stroke="black" points="160.5,-278 160.5,-297 257.5,-297 257.5,-278 160.5,-278"/>
<text text-anchor="middle" x="209" y="-285" font-family="Helvetica,sans-Serif" font-size="10.00">CoolMQTT::config</text>
</a>
</g>
</g>
<!-- Node153&#45;&gt;Node161 -->
<g id="edge8" class="edge"><title>Node153&#45;&gt;Node161</title>
<path fill="none" stroke="midnightblue" d="M98.2637,-274.304C114.572,-276.265 132.951,-278.475 149.938,-280.518"/>
<polygon fill="midnightblue" stroke="midnightblue" points="149.957,-284.045 160.303,-281.764 150.793,-277.095 149.957,-284.045"/>
</g>
<!-- Node162 -->
<g id="node10" class="node"><title>Node162</title>
<g id="a_node10"><a xlink:href="$classCoolTime.html#a87c28260c1bc77091162cbcf1ee2e129" xlink:title="CoolTime::config">
<polygon fill="white" stroke="black" points="163.5,-240 163.5,-259 254.5,-259 254.5,-240 163.5,-240"/>
<text text-anchor="middle" x="209" y="-247" font-family="Helvetica,sans-Serif" font-size="10.00">CoolTime::config</text>
</a>
</g>
</g>
<!-- Node153&#45;&gt;Node162 -->
<g id="edge9" class="edge"><title>Node153&#45;&gt;Node162</title>
<path fill="none" stroke="midnightblue" d="M98.2637,-262.696C115.641,-260.606 135.37,-258.234 153.26,-256.083"/>
<polygon fill="midnightblue" stroke="midnightblue" points="153.754,-259.549 163.265,-254.88 152.918,-252.599 153.754,-259.549"/>
</g>
<!-- Node163 -->
<g id="node11" class="node"><title>Node163</title>
<g id="a_node11"><a xlink:href="$classCoolBoard.html#a583a874c09c07e70a6eb9229fc4beddb" xlink:title="CoolBoard::config">
<polygon fill="white" stroke="black" points="161.5,-202 161.5,-221 256.5,-221 256.5,-202 161.5,-202"/>
<text text-anchor="middle" x="209" y="-209" font-family="Helvetica,sans-Serif" font-size="10.00">CoolBoard::config</text>
</a>
</g>
</g>
<!-- Node153&#45;&gt;Node163 -->
<g id="edge10" class="edge"><title>Node153&#45;&gt;Node163</title>
<path fill="none" stroke="midnightblue" d="M68.6319,-258.94C85.405,-250.609 110.897,-238.623 134,-230.5 141.047,-228.022 148.576,-225.715 156.032,-223.623"/>
<polygon fill="midnightblue" stroke="midnightblue" points="157.004,-226.987 165.746,-221.002 155.18,-220.228 157.004,-226.987"/>
</g>
<!-- Node165 -->
<g id="node13" class="node"><title>Node165</title>
<g id="a_node13"><a xlink:href="$classIrene3000.html#afed5c35e4b23963c157847ef27c11e9c" xlink:title="Irene3000::config">
<polygon fill="white" stroke="black" points="163,-164 163,-183 255,-183 255,-164 163,-164"/>
<text text-anchor="middle" x="209" y="-171" font-family="Helvetica,sans-Serif" font-size="10.00">Irene3000::config</text>
</a>
</g>
</g>
<!-- Node153&#45;&gt;Node165 -->
<g id="edge12" class="edge"><title>Node153&#45;&gt;Node165</title>
<path fill="none" stroke="midnightblue" d="M57.739,-258.968C71.399,-242.79 101.437,-210.011 134,-192.5 139.965,-189.292 146.495,-186.608 153.126,-184.367"/>
<polygon fill="midnightblue" stroke="midnightblue" points="154.322,-187.661 162.861,-181.39 152.275,-180.967 154.322,-187.661"/>
</g>
<!-- Node167 -->
<g id="node15" class="node"><title>Node167</title>
<g id="a_node15"><a xlink:href="$classCoolBoardSensors.html#a9a218895c5423375c33c08f2c56fb23a" xlink:title="CoolBoardSensors::config">
<polygon fill="white" stroke="black" points="143.5,-126 143.5,-145 274.5,-145 274.5,-126 143.5,-126"/>
<text text-anchor="middle" x="209" y="-133" font-family="Helvetica,sans-Serif" font-size="10.00">CoolBoardSensors::config</text>
</a>
</g>
</g>
<!-- Node153&#45;&gt;Node167 -->
<g id="edge14" class="edge"><title>Node153&#45;&gt;Node167</title>
<path fill="none" stroke="midnightblue" d="M54.2935,-258.802C64.6154,-236.653 93.0375,-182.138 134,-154.5 136.948,-152.511 140.09,-150.73 143.354,-149.136"/>
<polygon fill="midnightblue" stroke="midnightblue" points="144.976,-152.249 152.811,-145.118 142.239,-145.807 144.976,-152.249"/>
</g>
<!-- Node168 -->
<g id="node16" class="node"><title>Node168</title>
<g id="a_node16"><a xlink:href="$classCoolMQTT.html#aa5eaae967b562b62cbcf2b8d81f6e5d5" xlink:title="CoolMQTT::mqttLoop">
<polygon fill="white" stroke="black" points="153.5,-88 153.5,-107 264.5,-107 264.5,-88 153.5,-88"/>
<text text-anchor="middle" x="209" y="-95" font-family="Helvetica,sans-Serif" font-size="10.00">CoolMQTT::mqttLoop</text>
</a>
</g>
</g>
<!-- Node153&#45;&gt;Node168 -->
<g id="edge15" class="edge"><title>Node153&#45;&gt;Node168</title>
<path fill="none" stroke="midnightblue" d="M52.4153,-258.911C59.7141,-231.972 84.1663,-155.067 134,-116.5 137.155,-114.058 140.59,-111.928 144.196,-110.07"/>
<polygon fill="midnightblue" stroke="midnightblue" points="145.712,-113.227 153.449,-105.988 142.887,-106.822 145.712,-113.227"/>
</g>
<!-- Node169 -->
<g id="node17" class="node"><title>Node169</title>
<g id="a_node17"><a xlink:href="$classCoolMQTT.html#ace977b3e90ab14b1199fe5c4fb0a13ec" xlink:title="CoolMQTT::publish">
<polygon fill="white" stroke="black" points="158.5,-50 158.5,-69 259.5,-69 259.5,-50 158.5,-50"/>
<text text-anchor="middle" x="209" y="-57" font-family="Helvetica,sans-Serif" font-size="10.00">CoolMQTT::publish</text>
</a>
</g>
</g>
<!-- Node153&#45;&gt;Node169 -->
<g id="edge16" class="edge"><title>Node153&#45;&gt;Node169</title>
<path fill="none" stroke="midnightblue" d="M51.2861,-258.865C55.9797,-227.642 75.1143,-128.394 134,-78.5 138.473,-74.7098 143.608,-71.662 149.042,-69.2133"/>
<polygon fill="midnightblue" stroke="midnightblue" points="150.317,-72.4732 158.407,-65.6324 147.817,-65.9349 150.317,-72.4732"/>
</g>
<!-- Node170 -->
<g id="node18" class="node"><title>Node170</title>
<g id="a_node18"><a xlink:href="$classCoolFileSystem.html#a32dad79ae80182a83e2e8f52286b7c7b" xlink:title="CoolFileSystem::updateConfig\lFiles">
<polygon fill="white" stroke="black" points="134,-0.5 134,-30.5 284,-30.5 284,-0.5 134,-0.5"/>
<text text-anchor="start" x="142" y="-18.5" font-family="Helvetica,sans-Serif" font-size="10.00">CoolFileSystem::updateConfig</text>
<text text-anchor="middle" x="209" y="-7.5" font-family="Helvetica,sans-Serif" font-size="10.00">Files</text>
</a>
</g>
</g>
<!-- Node153&#45;&gt;Node170 -->
<g id="edge17" class="edge"><title>Node153&#45;&gt;Node170</title>
<path fill="none" stroke="midnightblue" d="M50.6869,-258.683C53.656,-223.775 68.3975,-104.343 134,-40.5 135.619,-38.9247 137.34,-37.4486 139.144,-36.0654"/>
<polygon fill="midnightblue" stroke="midnightblue" points="141.073,-38.9859 147.518,-30.5766 137.235,-33.1315 141.073,-38.9859"/>
</g>
<!-- Node155 -->
<g id="node3" class="node"><title>Node155</title>
<g id="a_node3"><a xlink:href="$classCoolMQTT.html#a30d82ad665bfb603f46ecdbc290775df" xlink:title="CoolMQTT::callback">
<polygon fill="white" stroke="black" points="325.5,-506 325.5,-525 432.5,-525 432.5,-506 325.5,-506"/>
<text text-anchor="middle" x="379" y="-513" font-family="Helvetica,sans-Serif" font-size="10.00">CoolMQTT::callback</text>
</a>
</g>
</g>
<!-- Node154&#45;&gt;Node155 -->
<g id="edge2" class="edge"><title>Node154&#45;&gt;Node155</title>
<path fill="none" stroke="midnightblue" d="M256.351,-515.5C274.547,-515.5 295.714,-515.5 315.242,-515.5"/>
<polygon fill="midnightblue" stroke="midnightblue" points="315.28,-519 325.28,-515.5 315.279,-512 315.28,-519"/>
</g>
<!-- Node164 -->
<g id="node12" class="node"><title>Node164</title>
<g id="a_node12"><a xlink:href="$classCoolFileSystem.html#a6ba6f666ed4c530174f8569d2c636748" xlink:title="CoolFileSystem::begin">
<polygon fill="white" stroke="black" points="321,-202 321,-221 437,-221 437,-202 321,-202"/>
<text text-anchor="middle" x="379" y="-209" font-family="Helvetica,sans-Serif" font-size="10.00">CoolFileSystem::begin</text>
</a>
</g>
</g>
<!-- Node163&#45;&gt;Node164 -->
<g id="edge11" class="edge"><title>Node163&#45;&gt;Node164</title>
<path fill="none" stroke="midnightblue" d="M256.797,-211.5C273.513,-211.5 292.692,-211.5 310.787,-211.5"/>
<polygon fill="midnightblue" stroke="midnightblue" points="310.997,-215 320.997,-211.5 310.996,-208 310.997,-215"/>
</g>
<!-- Node166 -->
<g id="node14" class="node"><title>Node166</title>
<g id="a_node14"><a xlink:href="$classIrene3000.html#abcad62d1201a59f8dd3ba87048002728" xlink:title="Irene3000::gainConvert">
<polygon fill="white" stroke="black" points="320,-164 320,-183 438,-183 438,-164 320,-164"/>
<text text-anchor="middle" x="379" y="-171" font-family="Helvetica,sans-Serif" font-size="10.00">Irene3000::gainConvert</text>
</a>
</g>
</g>
<!-- Node165&#45;&gt;Node166 -->
<g id="edge13" class="edge"><title>Node165&#45;&gt;Node166</title>
<path fill="none" stroke="midnightblue" d="M255.021,-173.5C271.833,-173.5 291.321,-173.5 309.758,-173.5"/>
<polygon fill="midnightblue" stroke="midnightblue" points="309.87,-177 319.87,-173.5 309.87,-170 309.87,-177"/>
</g>
</g>
</svg>
