<?xml version="1.0" encoding="UTF-8" standalone="no"?>
<!DOCTYPE svg PUBLIC "-//W3C//DTD SVG 1.1//EN"
 "http://www.w3.org/Graphics/SVG/1.1/DTD/svg11.dtd">
<!-- Generated by graphviz version 2.38.0 (20140413.2041)
 -->
<!-- Title: CoolBoard::connect Pages: 1 -->
<svg width="575pt" height="256pt"
 viewBox="0.00 0.00 575.00 256.00" xmlns="http://www.w3.org/2000/svg" xmlns:xlink="http://www.w3.org/1999/xlink">
<g id="graph0" class="graph" transform="scale(1 1) rotate(0) translate(4 252)">
<title>CoolBoard::connect</title>
<polygon fill="white" stroke="none" points="-4,4 -4,-252 571,-252 571,4 -4,4"/>
<!-- Node56 -->
<g id="node1" class="node"><title>Node56</title>
<polygon fill="#bfbfbf" stroke="black" points="0,-114.5 0,-133.5 103,-133.5 103,-114.5 0,-114.5"/>
<text text-anchor="middle" x="51.5" y="-121.5" font-family="Helvetica,sans-Serif" font-size="10.00">CoolBoard::connect</text>
</g>
<!-- Node57 -->
<g id="node2" class="node"><title>Node57</title>
<g id="a_node2"><a xlink:href="$classCoolBoardLed.html#a96e1ea13003eee34c9dbcef340404426" xlink:title="CoolBoardLed::blink">
<polygon fill="white" stroke="black" points="152,-228.5 152,-247.5 256,-247.5 256,-228.5 152,-228.5"/>
<text text-anchor="middle" x="204" y="-235.5" font-family="Helvetica,sans-Serif" font-size="10.00">CoolBoardLed::blink</text>
</a>
</g>
</g>
<!-- Node56&#45;&gt;Node57 -->
<g id="edge1" class="edge"><title>Node56&#45;&gt;Node57</title>
<path fill="none" stroke="midnightblue" d="M58.6177,-133.673C71.2533,-152.862 102.157,-195.881 139,-219 142.329,-221.089 145.898,-222.958 149.587,-224.628"/>
<polygon fill="midnightblue" stroke="midnightblue" points="148.346,-227.901 158.93,-228.384 150.957,-221.407 148.346,-227.901"/>
</g>
<!-- Node58 -->
<g id="node3" class="node"><title>Node58</title>
<g id="a_node3"><a xlink:href="$classCoolMQTT.html#a50075d0ab23a327ab897fd6adad20eda" xlink:title="CoolMQTT::connect">
<polygon fill="white" stroke="black" points="151.5,-190.5 151.5,-209.5 256.5,-209.5 256.5,-190.5 151.5,-190.5"/>
<text text-anchor="middle" x="204" y="-197.5" font-family="Helvetica,sans-Serif" font-size="10.00">CoolMQTT::connect</text>
</a>
</g>
</g>
<!-- Node56&#45;&gt;Node58 -->
<g id="edge2" class="edge"><title>Node56&#45;&gt;Node58</title>
<path fill="none" stroke="midnightblue" d="M66.7403,-133.67C83.5245,-144.802 112.494,-163.195 139,-176 147.152,-179.938 156.128,-183.66 164.715,-186.946"/>
<polygon fill="midnightblue" stroke="midnightblue" points="163.585,-190.26 174.178,-190.457 166.021,-183.697 163.585,-190.26"/>
</g>
<!-- Node59 -->
<g id="node4" class="node"><title>Node59</title>
<g id="a_node4"><a xlink:href="$classCoolMQTT.html#a5d003307eff78efbd585e42b43b72b6d" xlink:title="CoolMQTT::state">
<polygon fill="white" stroke="black" points="325.5,-171.5 325.5,-190.5 417.5,-190.5 417.5,-171.5 325.5,-171.5"/>
<text text-anchor="middle" x="371.5" y="-178.5" font-family="Helvetica,sans-Serif" font-size="10.00">CoolMQTT::state</text>
</a>
</g>
</g>
<!-- Node56&#45;&gt;Node59 -->
<g id="edge10" class="edge"><title>Node56&#45;&gt;Node59</title>
<path fill="none" stroke="midnightblue" d="M93.7658,-133.536C108.057,-136.713 124.202,-140.162 139,-143 198.998,-154.505 268.161,-165.573 315.153,-172.767"/>
<polygon fill="midnightblue" stroke="midnightblue" points="314.714,-176.24 325.127,-174.287 315.768,-169.32 314.714,-176.24"/>
</g>
<!-- Node60 -->
<g id="node5" class="node"><title>Node60</title>
<g id="a_node5"><a xlink:href="$classCoolWifi.html#ad060353050f40d032a2dbf9e54a768bf" xlink:title="CoolWifi::connect">
<polygon fill="white" stroke="black" points="156.5,-114.5 156.5,-133.5 251.5,-133.5 251.5,-114.5 156.5,-114.5"/>
<text text-anchor="middle" x="204" y="-121.5" font-family="Helvetica,sans-Serif" font-size="10.00">CoolWifi::connect</text>
</a>
</g>
</g>
<!-- Node56&#45;&gt;Node60 -->
<g id="edge4" class="edge"><title>Node56&#45;&gt;Node60</title>
<path fill="none" stroke="midnightblue" d="M103.033,-124C116.914,-124 132.056,-124 146.261,-124"/>
<polygon fill="midnightblue" stroke="midnightblue" points="146.407,-127.5 156.407,-124 146.407,-120.5 146.407,-127.5"/>
</g>
<!-- Node64 -->
<g id="node9" class="node"><title>Node64</title>
<g id="a_node9"><a xlink:href="$classCoolBoard.html#a7508e029f2ee17bb747ffab599285e0d" xlink:title="CoolBoard::getLogInterval">
<polygon fill="white" stroke="black" points="139,-76.5 139,-95.5 269,-95.5 269,-76.5 139,-76.5"/>
<text text-anchor="middle" x="204" y="-83.5" font-family="Helvetica,sans-Serif" font-size="10.00">CoolBoard::getLogInterval</text>
</a>
</g>
</g>
<!-- Node56&#45;&gt;Node64 -->
<g id="edge8" class="edge"><title>Node56&#45;&gt;Node64</title>
<path fill="none" stroke="midnightblue" d="M90.4775,-114.411C110.159,-109.442 134.391,-103.323 155.321,-98.0387"/>
<polygon fill="midnightblue" stroke="midnightblue" points="156.457,-101.362 165.296,-95.5201 154.743,-94.5747 156.457,-101.362"/>
</g>
<!-- Node65 -->
<g id="node10" class="node"><title>Node65</title>
<g id="a_node10"><a xlink:href="$classCoolWifi.html#a1c7b4d82a4098d346e7593dce92039fa" xlink:title="CoolWifi::state">
<polygon fill="white" stroke="black" points="163,-38.5 163,-57.5 245,-57.5 245,-38.5 163,-38.5"/>
<text text-anchor="middle" x="204" y="-45.5" font-family="Helvetica,sans-Serif" font-size="10.00">CoolWifi::state</text>
</a>
</g>
</g>
<!-- Node56&#45;&gt;Node65 -->
<g id="edge9" class="edge"><title>Node56&#45;&gt;Node65</title>
<path fill="none" stroke="midnightblue" d="M64.4295,-114.481C80.5219,-102.04 110.466,-80.2808 139,-67 143.926,-64.7074 149.193,-62.6174 154.512,-60.7326"/>
<polygon fill="midnightblue" stroke="midnightblue" points="155.688,-64.0301 164.08,-57.5622 153.486,-57.3855 155.688,-64.0301"/>
</g>
<!-- Node66 -->
<g id="node11" class="node"><title>Node66</title>
<g id="a_node11"><a xlink:href="$classCoolBoardLed.html#a30fadd4cbec17ceea428bf7a32207e87" xlink:title="CoolBoardLed::write">
<polygon fill="white" stroke="black" points="151.5,-0.5 151.5,-19.5 256.5,-19.5 256.5,-0.5 151.5,-0.5"/>
<text text-anchor="middle" x="204" y="-7.5" font-family="Helvetica,sans-Serif" font-size="10.00">CoolBoardLed::write</text>
</a>
</g>
</g>
<!-- Node56&#45;&gt;Node66 -->
<g id="edge11" class="edge"><title>Node56&#45;&gt;Node66</title>
<path fill="none" stroke="midnightblue" d="M58.6177,-114.327C71.2533,-95.1381 102.157,-52.1189 139,-29 142.329,-26.9112 145.898,-25.0424 149.587,-23.372"/>
<polygon fill="midnightblue" stroke="midnightblue" points="150.957,-26.5934 158.93,-19.6161 148.346,-20.0985 150.957,-26.5934"/>
</g>
<!-- Node58&#45;&gt;Node59 -->
<g id="edge3" class="edge"><title>Node58&#45;&gt;Node59</title>
<path fill="none" stroke="midnightblue" d="M256.911,-194.04C275.553,-191.9 296.633,-189.48 315.526,-187.311"/>
<polygon fill="midnightblue" stroke="midnightblue" points="315.939,-190.787 325.475,-186.169 315.141,-183.833 315.939,-190.787"/>
</g>
<!-- Node61 -->
<g id="node6" class="node"><title>Node61</title>
<g id="a_node6"><a xlink:href="$classCoolWifi.html#a419de92d738f14b7444cf822b3ab0070" xlink:title="CoolWifi::connectWifiMulti">
<polygon fill="white" stroke="black" points="305,-133.5 305,-152.5 438,-152.5 438,-133.5 305,-133.5"/>
<text text-anchor="middle" x="371.5" y="-140.5" font-family="Helvetica,sans-Serif" font-size="10.00">CoolWifi::connectWifiMulti</text>
</a>
</g>
</g>
<!-- Node60&#45;&gt;Node61 -->
<g id="edge5" class="edge"><title>Node60&#45;&gt;Node61</title>
<path fill="none" stroke="midnightblue" d="M251.541,-129.343C264.98,-130.886 280.006,-132.611 294.735,-134.302"/>
<polygon fill="midnightblue" stroke="midnightblue" points="294.527,-137.801 304.861,-135.464 295.325,-130.847 294.527,-137.801"/>
</g>
<!-- Node62 -->
<g id="node7" class="node"><title>Node62</title>
<g id="a_node7"><a xlink:href="$classCoolWifi.html#a7c857f27161782f5ef1d62d552aff971" xlink:title="CoolWifi::connectAP">
<polygon fill="white" stroke="black" points="317.5,-95.5 317.5,-114.5 425.5,-114.5 425.5,-95.5 317.5,-95.5"/>
<text text-anchor="middle" x="371.5" y="-102.5" font-family="Helvetica,sans-Serif" font-size="10.00">CoolWifi::connectAP</text>
</a>
</g>
</g>
<!-- Node60&#45;&gt;Node62 -->
<g id="edge6" class="edge"><title>Node60&#45;&gt;Node62</title>
<path fill="none" stroke="midnightblue" d="M251.541,-118.657C268.804,-116.675 288.686,-114.393 307.193,-112.268"/>
<polygon fill="midnightblue" stroke="midnightblue" points="307.772,-115.724 317.308,-111.107 306.974,-108.77 307.772,-115.724"/>
</g>
<!-- Node63 -->
<g id="node8" class="node"><title>Node63</title>
<g id="a_node8"><a xlink:href="$classCoolWifi.html#a914d7a1df14dd6b75345fb614c34e9d6" xlink:title="CoolWifi::addWifi">
<polygon fill="white" stroke="black" points="474,-95.5 474,-114.5 567,-114.5 567,-95.5 474,-95.5"/>
<text text-anchor="middle" x="520.5" y="-102.5" font-family="Helvetica,sans-Serif" font-size="10.00">CoolWifi::addWifi</text>
</a>
</g>
</g>
<!-- Node62&#45;&gt;Node63 -->
<g id="edge7" class="edge"><title>Node62&#45;&gt;Node63</title>
<path fill="none" stroke="midnightblue" d="M425.57,-105C437.906,-105 451.076,-105 463.532,-105"/>
<polygon fill="midnightblue" stroke="midnightblue" points="463.794,-108.5 473.794,-105 463.794,-101.5 463.794,-108.5"/>
</g>
</g>
</svg>
