<?xml version="1.0" encoding="UTF-8" standalone="no"?>
<!DOCTYPE svg PUBLIC "-//W3C//DTD SVG 1.1//EN"
 "http://www.w3.org/Graphics/SVG/1.1/DTD/svg11.dtd">
<!-- Generated by graphviz version 2.38.0 (20140413.2041)
 -->
<!-- Title: Irene3000::read Pages: 1 -->
<svg width="409pt" height="104pt"
 viewBox="0.00 0.00 409.00 104.00" xmlns="http://www.w3.org/2000/svg" xmlns:xlink="http://www.w3.org/1999/xlink">
<g id="graph0" class="graph" transform="scale(1 1) rotate(0) translate(4 100)">
<title>Irene3000::read</title>
<polygon fill="white" stroke="none" points="-4,4 -4,-100 405,-100 405,4 -4,4"/>
<!-- Node26 -->
<g id="node1" class="node"><title>Node26</title>
<polygon fill="#bfbfbf" stroke="black" points="0,-38.5 0,-57.5 84,-57.5 84,-38.5 0,-38.5"/>
<text text-anchor="middle" x="42" y="-45.5" font-family="Helvetica,sans-Serif" font-size="10.00">Irene3000::read</text>
</g>
<!-- Node27 -->
<g id="node2" class="node"><title>Node27</title>
<g id="a_node2"><a xlink:href="$classIrene3000.html#ae73bd2ed14a199a7e83f4d6458476a7c" xlink:title="Irene3000::readADSChannel2">
<polygon fill="white" stroke="black" points="120,-76.5 120,-95.5 266,-95.5 266,-76.5 120,-76.5"/>
<text text-anchor="middle" x="193" y="-83.5" font-family="Helvetica,sans-Serif" font-size="10.00">Irene3000::readADSChannel2</text>
</a>
</g>
</g>
<!-- Node26&#45;&gt;Node27 -->
<g id="edge1" class="edge"><title>Node26&#45;&gt;Node27</title>
<path fill="none" stroke="midnightblue" d="M80.599,-57.589C100.084,-62.5583 124.075,-68.6767 144.796,-73.9613"/>
<polygon fill="midnightblue" stroke="midnightblue" points="144.117,-77.4001 154.671,-76.4799 145.846,-70.6172 144.117,-77.4001"/>
</g>
<!-- Node29 -->
<g id="node4" class="node"><title>Node29</title>
<g id="a_node4"><a xlink:href="$classIrene3000.html#abf3db725fabb0634ec889b32068a5eec" xlink:title="Irene3000::readPh">
<polygon fill="white" stroke="black" points="145,-38.5 145,-57.5 241,-57.5 241,-38.5 145,-38.5"/>
<text text-anchor="middle" x="193" y="-45.5" font-family="Helvetica,sans-Serif" font-size="10.00">Irene3000::readPh</text>
</a>
</g>
</g>
<!-- Node26&#45;&gt;Node29 -->
<g id="edge3" class="edge"><title>Node26&#45;&gt;Node29</title>
<path fill="none" stroke="midnightblue" d="M84.1093,-48C99.7314,-48 117.823,-48 134.675,-48"/>
<polygon fill="midnightblue" stroke="midnightblue" points="134.975,-51.5001 144.975,-48 134.974,-44.5001 134.975,-51.5001"/>
</g>
<!-- Node30 -->
<g id="node5" class="node"><title>Node30</title>
<g id="a_node5"><a xlink:href="$classIrene3000.html#a94ad40f281d83ad1be20bf1edd6fe802" xlink:title="Irene3000::readTemp">
<polygon fill="white" stroke="black" points="138.5,-0.5 138.5,-19.5 247.5,-19.5 247.5,-0.5 138.5,-0.5"/>
<text text-anchor="middle" x="193" y="-7.5" font-family="Helvetica,sans-Serif" font-size="10.00">Irene3000::readTemp</text>
</a>
</g>
</g>
<!-- Node26&#45;&gt;Node30 -->
<g id="edge5" class="edge"><title>Node26&#45;&gt;Node30</title>
<path fill="none" stroke="midnightblue" d="M80.599,-38.411C100.084,-33.4417 124.075,-27.3233 144.796,-22.0387"/>
<polygon fill="midnightblue" stroke="midnightblue" points="145.846,-25.3828 154.671,-19.5201 144.117,-18.5999 145.846,-25.3828"/>
</g>
<!-- Node28 -->
<g id="node3" class="node"><title>Node28</title>
<g id="a_node3"><a xlink:href="$classIrene3000.html#aff7c5da186b388e7272e63ff88a20c34" xlink:title="Irene3000::setGain">
<polygon fill="white" stroke="black" points="302,-38.5 302,-57.5 401,-57.5 401,-38.5 302,-38.5"/>
<text text-anchor="middle" x="351.5" y="-45.5" font-family="Helvetica,sans-Serif" font-size="10.00">Irene3000::setGain</text>
</a>
</g>
</g>
<!-- Node27&#45;&gt;Node28 -->
<g id="edge2" class="edge"><title>Node27&#45;&gt;Node28</title>
<path fill="none" stroke="midnightblue" d="M233.492,-76.411C254.143,-71.3965 279.614,-65.2119 301.512,-59.8947"/>
<polygon fill="midnightblue" stroke="midnightblue" points="302.401,-63.2809 311.292,-57.5201 300.749,-56.4785 302.401,-63.2809"/>
</g>
<!-- Node29&#45;&gt;Node28 -->
<g id="edge4" class="edge"><title>Node29&#45;&gt;Node28</title>
<path fill="none" stroke="midnightblue" d="M241.38,-48C257.249,-48 275.135,-48 291.765,-48"/>
<polygon fill="midnightblue" stroke="midnightblue" points="291.928,-51.5001 301.928,-48 291.928,-44.5001 291.928,-51.5001"/>
</g>
<!-- Node30&#45;&gt;Node28 -->
<g id="edge6" class="edge"><title>Node30&#45;&gt;Node28</title>
<path fill="none" stroke="midnightblue" d="M233.492,-19.589C254.143,-24.6035 279.614,-30.7881 301.512,-36.1053"/>
<polygon fill="midnightblue" stroke="midnightblue" points="300.749,-39.5215 311.292,-38.4799 302.401,-32.7191 300.749,-39.5215"/>
</g>
</g>
</svg>
