<?xml version="1.0" encoding="UTF-8" standalone="no"?>
<!DOCTYPE svg PUBLIC "-//W3C//DTD SVG 1.1//EN"
 "http://www.w3.org/Graphics/SVG/1.1/DTD/svg11.dtd">
<!-- Generated by graphviz version 2.38.0 (20140413.2041)
 -->
<!-- Title: CoolBoardSensors::initReadI2C Pages: 1 -->
<svg width="645pt" height="85pt"
 viewBox="0.00 0.00 645.00 85.00" xmlns="http://www.w3.org/2000/svg" xmlns:xlink="http://www.w3.org/1999/xlink">
<g id="graph0" class="graph" transform="scale(1 1) rotate(0) translate(4 81)">
<title>CoolBoardSensors::initReadI2C</title>
<polygon fill="white" stroke="none" points="-4,4 -4,-81 641,-81 641,4 -4,4"/>
<!-- Node15 -->
<g id="node1" class="node"><title>Node15</title>
<polygon fill="#bfbfbf" stroke="black" points="0,-38.5 0,-57.5 156,-57.5 156,-38.5 0,-38.5"/>
<text text-anchor="middle" x="78" y="-45.5" font-family="Helvetica,sans-Serif" font-size="10.00">CoolBoardSensors::initReadI2C</text>
</g>
<!-- Node16 -->
<g id="node2" class="node"><title>Node16</title>
<g id="a_node2"><a xlink:href="$classCoolBoardSensors.html#a97095823ef7c8f5290812f1405b966b3" xlink:title="CoolBoardSensors::begin">
<polygon fill="white" stroke="black" points="192,-57.5 192,-76.5 320,-76.5 320,-57.5 192,-57.5"/>
<text text-anchor="middle" x="256" y="-64.5" font-family="Helvetica,sans-Serif" font-size="10.00">CoolBoardSensors::begin</text>
</a>
</g>
</g>
<!-- Node15&#45;&gt;Node16 -->
<g id="edge1" class="edge"><title>Node15&#45;&gt;Node16</title>
<path fill="none" stroke="midnightblue" d="M166.293,-57.4237C174.914,-58.3544 183.545,-59.2861 191.853,-60.183"/>
<polygon fill="midnightblue" stroke="midnightblue" points="166.514,-53.9273 156.196,-56.3337 165.763,-60.8869 166.514,-53.9273"/>
</g>
<!-- Node18 -->
<g id="node4" class="node"><title>Node18</title>
<g id="a_node4"><a xlink:href="$classCoolBoardSensors.html#a91badb2539d91fda8679f2a597874c48" xlink:title="CoolBoardSensors::read">
<polygon fill="white" stroke="black" points="194.5,-19.5 194.5,-38.5 317.5,-38.5 317.5,-19.5 194.5,-19.5"/>
<text text-anchor="middle" x="256" y="-26.5" font-family="Helvetica,sans-Serif" font-size="10.00">CoolBoardSensors::read</text>
</a>
</g>
</g>
<!-- Node15&#45;&gt;Node18 -->
<g id="edge3" class="edge"><title>Node15&#45;&gt;Node18</title>
<path fill="none" stroke="midnightblue" d="M166.398,-38.565C175.821,-37.5477 185.254,-36.5294 194.263,-35.5568"/>
<polygon fill="midnightblue" stroke="midnightblue" points="165.763,-35.1131 156.196,-39.6663 166.514,-42.0727 165.763,-35.1131"/>
</g>
<!-- Node17 -->
<g id="node3" class="node"><title>Node17</title>
<g id="a_node3"><a xlink:href="$classCoolBoard.html#acba7c5aef7268b2c0044bdb54d3b9d76" xlink:title="CoolBoard::begin">
<polygon fill="white" stroke="black" points="371.5,-57.5 371.5,-76.5 463.5,-76.5 463.5,-57.5 371.5,-57.5"/>
<text text-anchor="middle" x="417.5" y="-64.5" font-family="Helvetica,sans-Serif" font-size="10.00">CoolBoard::begin</text>
</a>
</g>
</g>
<!-- Node16&#45;&gt;Node17 -->
<g id="edge2" class="edge"><title>Node16&#45;&gt;Node17</title>
<path fill="none" stroke="midnightblue" d="M330.136,-67C344.104,-67 358.344,-67 371.127,-67"/>
<polygon fill="midnightblue" stroke="midnightblue" points="330.039,-63.5001 320.039,-67 330.039,-70.5001 330.039,-63.5001"/>
</g>
<!-- Node19 -->
<g id="node5" class="node"><title>Node19</title>
<g id="a_node5"><a xlink:href="$classCoolBoard.html#ad03abdce2e65f520bbf2cff0f2d083cf" xlink:title="CoolBoard::readSensors">
<polygon fill="white" stroke="black" points="356,-19.5 356,-38.5 479,-38.5 479,-19.5 356,-19.5"/>
<text text-anchor="middle" x="417.5" y="-26.5" font-family="Helvetica,sans-Serif" font-size="10.00">CoolBoard::readSensors</text>
</a>
</g>
</g>
<!-- Node18&#45;&gt;Node19 -->
<g id="edge4" class="edge"><title>Node18&#45;&gt;Node19</title>
<path fill="none" stroke="midnightblue" d="M327.832,-29C337.202,-29 346.738,-29 355.914,-29"/>
<polygon fill="midnightblue" stroke="midnightblue" points="327.755,-25.5001 317.755,-29 327.755,-32.5001 327.755,-25.5001"/>
</g>
<!-- Node20 -->
<g id="node6" class="node"><title>Node20</title>
<g id="a_node6"><a xlink:href="$classCoolBoard.html#ae6b5e1274d760462290192acea4adca8" xlink:title="CoolBoard::offLineMode">
<polygon fill="white" stroke="black" points="515,-38.5 515,-57.5 637,-57.5 637,-38.5 515,-38.5"/>
<text text-anchor="middle" x="576" y="-45.5" font-family="Helvetica,sans-Serif" font-size="10.00">CoolBoard::offLineMode</text>
</a>
</g>
</g>
<!-- Node19&#45;&gt;Node20 -->
<g id="edge5" class="edge"><title>Node19&#45;&gt;Node20</title>
<path fill="none" stroke="midnightblue" d="M489.059,-37.5662C497.692,-38.6144 506.452,-39.6779 514.912,-40.7049"/>
<polygon fill="midnightblue" stroke="midnightblue" points="489.356,-34.0767 479.007,-36.3459 488.512,-41.0257 489.356,-34.0767"/>
</g>
<!-- Node21 -->
<g id="node7" class="node"><title>Node21</title>
<g id="a_node7"><a xlink:href="$classCoolBoard.html#aa0bbc4bc605e35618d18e68795c61363" xlink:title="CoolBoard::onLineMode">
<polygon fill="white" stroke="black" points="515.5,-0.5 515.5,-19.5 636.5,-19.5 636.5,-0.5 515.5,-0.5"/>
<text text-anchor="middle" x="576" y="-7.5" font-family="Helvetica,sans-Serif" font-size="10.00">CoolBoard::onLineMode</text>
</a>
</g>
</g>
<!-- Node19&#45;&gt;Node21 -->
<g id="edge6" class="edge"><title>Node19&#45;&gt;Node21</title>
<path fill="none" stroke="midnightblue" d="M489.207,-20.4158C497.968,-19.3522 506.856,-18.2731 515.427,-17.2325"/>
<polygon fill="midnightblue" stroke="midnightblue" points="488.512,-16.9743 479.007,-21.6541 489.356,-23.9233 488.512,-16.9743"/>
</g>
</g>
</svg>
