<?xml version="1.0" encoding="UTF-8" standalone="no"?>
<!DOCTYPE svg PUBLIC "-//W3C//DTD SVG 1.1//EN"
 "http://www.w3.org/Graphics/SVG/1.1/DTD/svg11.dtd">
<!-- Generated by graphviz version 2.38.0 (20140413.2041)
 -->
<!-- Title: Irene3000::gainConvert Pages: 1 -->
<svg width="545pt" height="66pt"
 viewBox="0.00 0.00 545.00 66.00" xmlns="http://www.w3.org/2000/svg" xmlns:xlink="http://www.w3.org/1999/xlink">
<g id="graph0" class="graph" transform="scale(1 1) rotate(0) translate(4 62)">
<title>Irene3000::gainConvert</title>
<polygon fill="white" stroke="none" points="-4,4 -4,-62 541,-62 541,4 -4,4"/>
<!-- Node22 -->
<g id="node1" class="node"><title>Node22</title>
<polygon fill="#bfbfbf" stroke="black" points="0,-19.5 0,-38.5 118,-38.5 118,-19.5 0,-19.5"/>
<text text-anchor="middle" x="59" y="-26.5" font-family="Helvetica,sans-Serif" font-size="10.00">Irene3000::gainConvert</text>
</g>
<!-- Node23 -->
<g id="node2" class="node"><title>Node23</title>
<g id="a_node2"><a xlink:href="$class_irene3000.html#afed5c35e4b23963c157847ef27c11e9c" xlink:title="Irene3000::config">
<polygon fill="white" stroke="black" points="154,-19.5 154,-38.5 246,-38.5 246,-19.5 154,-19.5"/>
<text text-anchor="middle" x="200" y="-26.5" font-family="Helvetica,sans-Serif" font-size="10.00">Irene3000::config</text>
</a>
</g>
</g>
<!-- Node22&#45;&gt;Node23 -->
<g id="edge1" class="edge"><title>Node22&#45;&gt;Node23</title>
<path fill="none" stroke="midnightblue" d="M128.262,-29C136.92,-29 145.603,-29 153.775,-29"/>
<polygon fill="midnightblue" stroke="midnightblue" points="128.143,-25.5001 118.143,-29 128.143,-32.5001 128.143,-25.5001"/>
</g>
<!-- Node24 -->
<g id="node3" class="node"><title>Node24</title>
<g id="a_node3"><a xlink:href="$class_cool_board.html#acba7c5aef7268b2c0044bdb54d3b9d76" xlink:title="CoolBoard::begin">
<polygon fill="white" stroke="black" points="285,-38.5 285,-57.5 377,-57.5 377,-38.5 285,-38.5"/>
<text text-anchor="middle" x="331" y="-45.5" font-family="Helvetica,sans-Serif" font-size="10.00">CoolBoard::begin</text>
</a>
</g>
</g>
<!-- Node23&#45;&gt;Node24 -->
<g id="edge2" class="edge"><title>Node23&#45;&gt;Node24</title>
<path fill="none" stroke="midnightblue" d="M256.263,-37.1395C265.747,-38.5365 275.504,-39.9735 284.689,-41.3264"/>
<polygon fill="midnightblue" stroke="midnightblue" points="256.521,-33.6399 246.118,-35.6453 255.501,-40.5652 256.521,-33.6399"/>
</g>
<!-- Node25 -->
<g id="node4" class="node"><title>Node25</title>
<g id="a_node4"><a xlink:href="$class_cool_board.html#a8612756d3f73198cdde857a66f0fe690" xlink:title="CoolBoard::update">
<polygon fill="white" stroke="black" points="282,-0.5 282,-19.5 380,-19.5 380,-0.5 282,-0.5"/>
<text text-anchor="middle" x="331" y="-7.5" font-family="Helvetica,sans-Serif" font-size="10.00">CoolBoard::update</text>
</a>
</g>
</g>
<!-- Node23&#45;&gt;Node25 -->
<g id="edge3" class="edge"><title>Node23&#45;&gt;Node25</title>
<path fill="none" stroke="midnightblue" d="M256.259,-20.861C264.694,-19.6187 273.344,-18.3448 281.615,-17.1264"/>
<polygon fill="midnightblue" stroke="midnightblue" points="255.501,-17.4348 246.118,-22.3547 256.521,-24.3601 255.501,-17.4348"/>
</g>
<!-- Node26 -->
<g id="node5" class="node"><title>Node26</title>
<g id="a_node5"><a xlink:href="$class_cool_board.html#aa0bbc4bc605e35618d18e68795c61363" xlink:title="CoolBoard::onLineMode">
<polygon fill="white" stroke="black" points="416,-0.5 416,-19.5 537,-19.5 537,-0.5 416,-0.5"/>
<text text-anchor="middle" x="476.5" y="-7.5" font-family="Helvetica,sans-Serif" font-size="10.00">CoolBoard::onLineMode</text>
</a>
</g>
</g>
<!-- Node25&#45;&gt;Node26 -->
<g id="edge4" class="edge"><title>Node25&#45;&gt;Node26</title>
<path fill="none" stroke="midnightblue" d="M390.332,-10C398.785,-10 407.496,-10 415.972,-10"/>
<polygon fill="midnightblue" stroke="midnightblue" points="390.183,-6.5001 380.183,-10 390.183,-13.5001 390.183,-6.5001"/>
</g>
</g>
</svg>
