<?xml version="1.0" encoding="UTF-8" standalone="no"?>
<!DOCTYPE svg PUBLIC "-//W3C//DTD SVG 1.1//EN"
 "http://www.w3.org/Graphics/SVG/1.1/DTD/svg11.dtd">
<!-- Generated by graphviz version 2.38.0 (20140413.2041)
 -->
<!-- Title: CoolBoard::begin Pages: 1 -->
<svg width="815pt" height="978pt"
 viewBox="0.00 0.00 815.00 978.00" xmlns="http://www.w3.org/2000/svg" xmlns:xlink="http://www.w3.org/1999/xlink">
<g id="graph0" class="graph" transform="scale(1 1) rotate(0) translate(4 974)">
<title>CoolBoard::begin</title>
<polygon fill="white" stroke="none" points="-4,4 -4,-974 811,-974 811,4 -4,4"/>
<!-- Node0 -->
<g id="node1" class="node"><title>Node0</title>
<polygon fill="#bfbfbf" stroke="black" points="0,-475.5 0,-494.5 92,-494.5 92,-475.5 0,-475.5"/>
<text text-anchor="middle" x="46" y="-482.5" font-family="Helvetica,sans-Serif" font-size="10.00">CoolBoard::begin</text>
</g>
<!-- Node1 -->
<g id="node2" class="node"><title>Node1</title>
<g id="a_node2"><a xlink:href="$classJetpack.html#a5a53e1ebf7aaf3bf3e0d37ea64ca09a7" xlink:title="Jetpack::begin">
<polygon fill="white" stroke="black" points="160,-950.5 160,-969.5 240,-969.5 240,-950.5 160,-950.5"/>
<text text-anchor="middle" x="200" y="-957.5" font-family="Helvetica,sans-Serif" font-size="10.00">Jetpack::begin</text>
</a>
</g>
</g>
<!-- Node0&#45;&gt;Node1 -->
<g id="edge1" class="edge"><title>Node0&#45;&gt;Node1</title>
<path fill="none" stroke="midnightblue" d="M47.3545,-494.846C49.7165,-554.98 65.0685,-872.432 128,-941 133.891,-947.419 141.691,-951.766 149.962,-954.688"/>
<polygon fill="midnightblue" stroke="midnightblue" points="149.224,-958.118 159.802,-957.505 151.151,-951.388 149.224,-958.118"/>
</g>
<!-- Node2 -->
<g id="node3" class="node"><title>Node2</title>
<g id="a_node3"><a xlink:href="$classCoolMQTT.html#ac9248808641ebf3054ed0620ea9d0100" xlink:title="CoolMQTT::begin">
<polygon fill="white" stroke="black" points="153,-912.5 153,-931.5 247,-931.5 247,-912.5 153,-912.5"/>
<text text-anchor="middle" x="200" y="-919.5" font-family="Helvetica,sans-Serif" font-size="10.00">CoolMQTT::begin</text>
</a>
</g>
</g>
<!-- Node0&#45;&gt;Node2 -->
<g id="edge2" class="edge"><title>Node0&#45;&gt;Node2</title>
<path fill="none" stroke="midnightblue" d="M47.5217,-494.761C50.7599,-551.712 69.9072,-840.687 128,-903 132.34,-907.655 137.683,-911.217 143.475,-913.936"/>
<polygon fill="midnightblue" stroke="midnightblue" points="142.275,-917.225 152.865,-917.55 144.79,-910.692 142.275,-917.225"/>
</g>
<!-- Node4 -->
<g id="node5" class="node"><title>Node4</title>
<g id="a_node5"><a xlink:href="$classExternalSensors.html#a58ede0d786a86417254708870f04a21e" xlink:title="ExternalSensors::begin">
<polygon fill="white" stroke="black" points="141,-874.5 141,-893.5 259,-893.5 259,-874.5 141,-874.5"/>
<text text-anchor="middle" x="200" y="-881.5" font-family="Helvetica,sans-Serif" font-size="10.00">ExternalSensors::begin</text>
</a>
</g>
</g>
<!-- Node0&#45;&gt;Node4 -->
<g id="edge4" class="edge"><title>Node0&#45;&gt;Node4</title>
<path fill="none" stroke="midnightblue" d="M47.7106,-494.568C51.8655,-547.981 74.6936,-808.877 128,-865 129.384,-866.457 130.867,-867.807 132.43,-869.057"/>
<polygon fill="midnightblue" stroke="midnightblue" points="130.549,-872.009 140.843,-874.513 134.357,-866.135 130.549,-872.009"/>
</g>
<!-- Node6 -->
<g id="node7" class="node"><title>Node6</title>
<g id="a_node7"><a xlink:href="$classCoolWifi.html#a46942fed90e475112cc10b78a32e7aaa" xlink:title="CoolWifi::begin">
<polygon fill="white" stroke="black" points="158.5,-836.5 158.5,-855.5 241.5,-855.5 241.5,-836.5 158.5,-836.5"/>
<text text-anchor="middle" x="200" y="-843.5" font-family="Helvetica,sans-Serif" font-size="10.00">CoolWifi::begin</text>
</a>
</g>
</g>
<!-- Node0&#45;&gt;Node6 -->
<g id="edge6" class="edge"><title>Node0&#45;&gt;Node6</title>
<path fill="none" stroke="midnightblue" d="M47.9555,-494.588C53.1469,-544.807 79.53,-777.108 128,-827 133.627,-832.792 140.81,-836.881 148.436,-839.756"/>
<polygon fill="midnightblue" stroke="midnightblue" points="147.662,-843.18 158.25,-842.784 149.727,-836.491 147.662,-843.18"/>
</g>
<!-- Node7 -->
<g id="node8" class="node"><title>Node7</title>
<g id="a_node8"><a xlink:href="$classCoolBoardSensors.html#a97095823ef7c8f5290812f1405b966b3" xlink:title="CoolBoardSensors::begin">
<polygon fill="white" stroke="black" points="136,-798.5 136,-817.5 264,-817.5 264,-798.5 136,-798.5"/>
<text text-anchor="middle" x="200" y="-805.5" font-family="Helvetica,sans-Serif" font-size="10.00">CoolBoardSensors::begin</text>
</a>
</g>
</g>
<!-- Node0&#45;&gt;Node7 -->
<g id="edge7" class="edge"><title>Node0&#45;&gt;Node7</title>
<path fill="none" stroke="midnightblue" d="M48.2793,-494.747C54.6489,-541.841 84.3813,-745.334 128,-789 129.454,-790.456 131.007,-791.803 132.64,-793.051"/>
<polygon fill="midnightblue" stroke="midnightblue" points="131.049,-796.183 141.39,-798.49 134.745,-790.238 131.049,-796.183"/>
</g>
<!-- Node10 -->
<g id="node11" class="node"><title>Node10</title>
<g id="a_node11"><a xlink:href="$classCoolTime.html#ab1976cf718b950bc31e003c3323b8adb" xlink:title="CoolTime::begin">
<polygon fill="white" stroke="black" points="156,-760.5 156,-779.5 244,-779.5 244,-760.5 156,-760.5"/>
<text text-anchor="middle" x="200" y="-767.5" font-family="Helvetica,sans-Serif" font-size="10.00">CoolTime::begin</text>
</a>
</g>
</g>
<!-- Node0&#45;&gt;Node10 -->
<g id="edge10" class="edge"><title>Node0&#45;&gt;Node10</title>
<path fill="none" stroke="midnightblue" d="M46.8253,-494.659C46.6792,-533.142 51.4596,-677.027 128,-751 133.236,-756.06 139.665,-759.808 146.495,-762.578"/>
<polygon fill="midnightblue" stroke="midnightblue" points="145.39,-765.899 155.984,-765.78 147.628,-759.267 145.39,-765.899"/>
</g>
<!-- Node17 -->
<g id="node18" class="node"><title>Node17</title>
<g id="a_node18"><a xlink:href="$classIrene3000.html#ad5891806c500ae1007afe52b9e304c2b" xlink:title="Irene3000::begin">
<polygon fill="white" stroke="black" points="155.5,-722.5 155.5,-741.5 244.5,-741.5 244.5,-722.5 155.5,-722.5"/>
<text text-anchor="middle" x="200" y="-729.5" font-family="Helvetica,sans-Serif" font-size="10.00">Irene3000::begin</text>
</a>
</g>
</g>
<!-- Node0&#45;&gt;Node17 -->
<g id="edge17" class="edge"><title>Node0&#45;&gt;Node17</title>
<path fill="none" stroke="midnightblue" d="M47.6172,-494.599C50.3278,-528.73 64.0918,-645.51 128,-708 133.181,-713.066 139.467,-717.063 146.133,-720.218"/>
<polygon fill="midnightblue" stroke="midnightblue" points="144.81,-723.458 155.39,-724.017 147.468,-716.982 144.81,-723.458"/>
</g>
<!-- Node18 -->
<g id="node19" class="node"><title>Node18</title>
<g id="a_node19"><a xlink:href="$classCoolBoardLed.html#a96e1ea13003eee34c9dbcef340404426" xlink:title="CoolBoardLed::blink">
<polygon fill="white" stroke="black" points="334,-684.5 334,-703.5 438,-703.5 438,-684.5 334,-684.5"/>
<text text-anchor="middle" x="386" y="-691.5" font-family="Helvetica,sans-Serif" font-size="10.00">CoolBoardLed::blink</text>
</a>
</g>
</g>
<!-- Node0&#45;&gt;Node18 -->
<g id="edge18" class="edge"><title>Node0&#45;&gt;Node18</title>
<path fill="none" stroke="midnightblue" d="M47.9904,-494.576C51.7514,-525.544 68.1249,-623.494 128,-667 184.547,-708.088 267.457,-709.164 323.696,-703.712"/>
<polygon fill="midnightblue" stroke="midnightblue" points="324.302,-707.168 333.874,-702.626 323.559,-700.207 324.302,-707.168"/>
</g>
<!-- Node19 -->
<g id="node20" class="node"><title>Node19</title>
<g id="a_node20"><a xlink:href="$classJetpack.html#ab065ee83e244265a2223a22f3ee4a719" xlink:title="Jetpack::config">
<polygon fill="white" stroke="black" points="158.5,-570.5 158.5,-589.5 241.5,-589.5 241.5,-570.5 158.5,-570.5"/>
<text text-anchor="middle" x="200" y="-577.5" font-family="Helvetica,sans-Serif" font-size="10.00">Jetpack::config</text>
</a>
</g>
</g>
<!-- Node0&#45;&gt;Node19 -->
<g id="edge19" class="edge"><title>Node0&#45;&gt;Node19</title>
<path fill="none" stroke="midnightblue" d="M54.4028,-494.509C67.4845,-510.652 96.3169,-543.381 128,-561 134.363,-564.539 141.418,-567.444 148.539,-569.822"/>
<polygon fill="midnightblue" stroke="midnightblue" points="147.647,-573.209 158.232,-572.749 149.67,-566.508 147.647,-573.209"/>
</g>
<!-- Node20 -->
<g id="node21" class="node"><title>Node20</title>
<g id="a_node21"><a xlink:href="$classExternalSensors.html#a862a4bd11346b37270d0244c2adabe5a" xlink:title="ExternalSensors::config">
<polygon fill="white" stroke="black" points="139.5,-532.5 139.5,-551.5 260.5,-551.5 260.5,-532.5 139.5,-532.5"/>
<text text-anchor="middle" x="200" y="-539.5" font-family="Helvetica,sans-Serif" font-size="10.00">ExternalSensors::config</text>
</a>
</g>
</g>
<!-- Node0&#45;&gt;Node20 -->
<g id="edge20" class="edge"><title>Node0&#45;&gt;Node20</title>
<path fill="none" stroke="midnightblue" d="M64.9441,-494.546C81.1033,-502.868 105.676,-514.849 128,-523 134.523,-525.382 141.481,-527.609 148.395,-529.641"/>
<polygon fill="midnightblue" stroke="midnightblue" points="147.862,-533.127 158.437,-532.472 149.762,-526.39 147.862,-533.127"/>
</g>
<!-- Node21 -->
<g id="node22" class="node"><title>Node21</title>
<g id="a_node22"><a xlink:href="$classCoolWifi.html#a4eb2f6b9b09dd588964b88b6c70122c0" xlink:title="CoolWifi::config">
<polygon fill="white" stroke="black" points="157,-494.5 157,-513.5 243,-513.5 243,-494.5 157,-494.5"/>
<text text-anchor="middle" x="200" y="-501.5" font-family="Helvetica,sans-Serif" font-size="10.00">CoolWifi::config</text>
</a>
</g>
</g>
<!-- Node0&#45;&gt;Node21 -->
<g id="edge21" class="edge"><title>Node0&#45;&gt;Node21</title>
<path fill="none" stroke="midnightblue" d="M92.1935,-490.649C109.311,-492.789 128.939,-495.242 146.661,-497.458"/>
<polygon fill="midnightblue" stroke="midnightblue" points="146.484,-500.963 156.841,-498.73 147.352,-494.017 146.484,-500.963"/>
</g>
<!-- Node22 -->
<g id="node23" class="node"><title>Node22</title>
<g id="a_node23"><a xlink:href="$classCoolMQTT.html#a9b703de4f1358f0ee7a5e8c44979c648" xlink:title="CoolMQTT::config">
<polygon fill="white" stroke="black" points="151.5,-456.5 151.5,-475.5 248.5,-475.5 248.5,-456.5 151.5,-456.5"/>
<text text-anchor="middle" x="200" y="-463.5" font-family="Helvetica,sans-Serif" font-size="10.00">CoolMQTT::config</text>
</a>
</g>
</g>
<!-- Node0&#45;&gt;Node22 -->
<g id="edge22" class="edge"><title>Node0&#45;&gt;Node22</title>
<path fill="none" stroke="midnightblue" d="M92.1935,-479.351C107.63,-477.421 125.107,-475.237 141.386,-473.202"/>
<polygon fill="midnightblue" stroke="midnightblue" points="141.85,-476.671 151.339,-471.958 140.982,-469.725 141.85,-476.671"/>
</g>
<!-- Node23 -->
<g id="node24" class="node"><title>Node23</title>
<g id="a_node24"><a xlink:href="$classCoolTime.html#a87c28260c1bc77091162cbcf1ee2e129" xlink:title="CoolTime::config">
<polygon fill="white" stroke="black" points="154.5,-418.5 154.5,-437.5 245.5,-437.5 245.5,-418.5 154.5,-418.5"/>
<text text-anchor="middle" x="200" y="-425.5" font-family="Helvetica,sans-Serif" font-size="10.00">CoolTime::config</text>
</a>
</g>
</g>
<!-- Node0&#45;&gt;Node23 -->
<g id="edge23" class="edge"><title>Node0&#45;&gt;Node23</title>
<path fill="none" stroke="midnightblue" d="M64.9441,-475.454C81.1033,-467.132 105.676,-455.151 128,-447 134.523,-444.618 141.481,-442.391 148.395,-440.359"/>
<polygon fill="midnightblue" stroke="midnightblue" points="149.762,-443.61 158.437,-437.528 147.862,-436.873 149.762,-443.61"/>
</g>
<!-- Node24 -->
<g id="node25" class="node"><title>Node24</title>
<g id="a_node25"><a xlink:href="$classIrene3000.html#afed5c35e4b23963c157847ef27c11e9c" xlink:title="Irene3000::config">
<polygon fill="white" stroke="black" points="154,-380.5 154,-399.5 246,-399.5 246,-380.5 154,-380.5"/>
<text text-anchor="middle" x="200" y="-387.5" font-family="Helvetica,sans-Serif" font-size="10.00">Irene3000::config</text>
</a>
</g>
</g>
<!-- Node0&#45;&gt;Node24 -->
<g id="edge24" class="edge"><title>Node0&#45;&gt;Node24</title>
<path fill="none" stroke="midnightblue" d="M54.4028,-475.491C67.4845,-459.348 96.3169,-426.619 128,-409 133.072,-406.179 138.583,-403.761 144.217,-401.691"/>
<polygon fill="midnightblue" stroke="midnightblue" points="145.369,-404.997 153.759,-398.528 143.166,-398.353 145.369,-404.997"/>
</g>
<!-- Node26 -->
<g id="node27" class="node"><title>Node26</title>
<g id="a_node27"><a xlink:href="$classCoolBoardSensors.html#a9a218895c5423375c33c08f2c56fb23a" xlink:title="CoolBoardSensors::config">
<polygon fill="white" stroke="black" points="134.5,-342.5 134.5,-361.5 265.5,-361.5 265.5,-342.5 134.5,-342.5"/>
<text text-anchor="middle" x="200" y="-349.5" font-family="Helvetica,sans-Serif" font-size="10.00">CoolBoardSensors::config</text>
</a>
</g>
</g>
<!-- Node0&#45;&gt;Node26 -->
<g id="edge26" class="edge"><title>Node0&#45;&gt;Node26</title>
<path fill="none" stroke="midnightblue" d="M51.0604,-475.331C60.8459,-453.243 87.9243,-398.847 128,-371 130.864,-369.01 133.925,-367.229 137.109,-365.634"/>
<polygon fill="midnightblue" stroke="midnightblue" points="138.573,-368.814 146.346,-361.614 135.78,-362.395 138.573,-368.814"/>
</g>
<!-- Node27 -->
<g id="node28" class="node"><title>Node27</title>
<g id="a_node28"><a xlink:href="$classCoolBoard.html#a519de78b807f8ec6463ff484eb925918" xlink:title="CoolBoard::connect">
<polygon fill="white" stroke="black" points="148.5,-608.5 148.5,-627.5 251.5,-627.5 251.5,-608.5 148.5,-608.5"/>
<text text-anchor="middle" x="200" y="-615.5" font-family="Helvetica,sans-Serif" font-size="10.00">CoolBoard::connect</text>
</a>
</g>
</g>
<!-- Node0&#45;&gt;Node27 -->
<g id="edge27" class="edge"><title>Node0&#45;&gt;Node27</title>
<path fill="none" stroke="midnightblue" d="M51.0604,-494.669C60.8459,-516.757 87.9243,-571.153 128,-599 131.324,-601.309 134.914,-603.338 138.653,-605.121"/>
<polygon fill="midnightblue" stroke="midnightblue" points="137.611,-608.477 148.189,-609.063 140.285,-602.008 137.611,-608.477"/>
</g>
<!-- Node28 -->
<g id="node29" class="node"><title>Node28</title>
<g id="a_node29"><a xlink:href="$classCoolBoardLed.html#a30fadd4cbec17ceea428bf7a32207e87" xlink:title="CoolBoardLed::write">
<polygon fill="white" stroke="black" points="333.5,-646.5 333.5,-665.5 438.5,-665.5 438.5,-646.5 333.5,-646.5"/>
<text text-anchor="middle" x="386" y="-653.5" font-family="Helvetica,sans-Serif" font-size="10.00">CoolBoardLed::write</text>
</a>
</g>
</g>
<!-- Node0&#45;&gt;Node28 -->
<g id="edge46" class="edge"><title>Node0&#45;&gt;Node28</title>
<path fill="none" stroke="midnightblue" d="M48.8099,-494.639C54.5869,-522.398 75.3888,-602.719 128,-637 186.755,-675.284 269.907,-673.81 325.554,-666.911"/>
<polygon fill="midnightblue" stroke="midnightblue" points="326.164,-670.361 335.612,-665.569 325.237,-663.423 326.164,-670.361"/>
</g>
<!-- Node35 -->
<g id="node36" class="node"><title>Node35</title>
<g id="a_node36"><a xlink:href="$classCoolBoardLed.html#a93d545679237e8cc858324367149775c" xlink:title="CoolBoardLed::fadeOut">
<polygon fill="white" stroke="black" points="140.5,-304.5 140.5,-323.5 259.5,-323.5 259.5,-304.5 140.5,-304.5"/>
<text text-anchor="middle" x="200" y="-311.5" font-family="Helvetica,sans-Serif" font-size="10.00">CoolBoardLed::fadeOut</text>
</a>
</g>
</g>
<!-- Node0&#45;&gt;Node35 -->
<g id="edge37" class="edge"><title>Node0&#45;&gt;Node35</title>
<path fill="none" stroke="midnightblue" d="M49.2401,-475.442C56.0442,-448.585 79.0666,-371.874 128,-333 130.295,-331.177 132.749,-329.528 135.317,-328.037"/>
<polygon fill="midnightblue" stroke="midnightblue" points="136.991,-331.113 144.41,-323.55 133.894,-324.836 136.991,-331.113"/>
</g>
<!-- Node36 -->
<g id="node37" class="node"><title>Node36</title>
<g id="a_node37"><a xlink:href="$classCoolBoardLed.html#a8ed3053a36f0ed4a131f43b5b17efb61" xlink:title="CoolBoardLed::printConf">
<polygon fill="white" stroke="black" points="138,-266.5 138,-285.5 262,-285.5 262,-266.5 138,-266.5"/>
<text text-anchor="middle" x="200" y="-273.5" font-family="Helvetica,sans-Serif" font-size="10.00">CoolBoardLed::printConf</text>
</a>
</g>
</g>
<!-- Node0&#45;&gt;Node36 -->
<g id="edge38" class="edge"><title>Node0&#45;&gt;Node36</title>
<path fill="none" stroke="midnightblue" d="M48.1449,-475.397C52.3792,-444.272 70.0383,-345.29 128,-295 129.94,-293.317 132.013,-291.781 134.187,-290.38"/>
<polygon fill="midnightblue" stroke="midnightblue" points="135.871,-293.449 143.003,-285.615 132.542,-287.291 135.871,-293.449"/>
</g>
<!-- Node37 -->
<g id="node38" class="node"><title>Node37</title>
<g id="a_node38"><a xlink:href="$classJetpack.html#ac54a7bb4f9166bee32052253d9b1d306" xlink:title="Jetpack::printConf">
<polygon fill="white" stroke="black" points="151.5,-228.5 151.5,-247.5 248.5,-247.5 248.5,-228.5 151.5,-228.5"/>
<text text-anchor="middle" x="200" y="-235.5" font-family="Helvetica,sans-Serif" font-size="10.00">Jetpack::printConf</text>
</a>
</g>
</g>
<!-- Node0&#45;&gt;Node37 -->
<g id="edge39" class="edge"><title>Node0&#45;&gt;Node37</title>
<path fill="none" stroke="midnightblue" d="M47.4035,-475.043C49.3922,-439.662 61.0212,-318.832 128,-257 132.102,-253.213 136.875,-250.166 141.971,-247.716"/>
<polygon fill="midnightblue" stroke="midnightblue" points="143.443,-250.897 151.416,-243.92 140.832,-244.402 143.443,-250.897"/>
</g>
<!-- Node38 -->
<g id="node39" class="node"><title>Node38</title>
<g id="a_node39"><a xlink:href="$classExternalSensors.html#a78c2bf55084435dd51d3c559b2d3c6f3" xlink:title="ExternalSensors::printConf">
<polygon fill="white" stroke="black" points="133,-190.5 133,-209.5 267,-209.5 267,-190.5 133,-190.5"/>
<text text-anchor="middle" x="200" y="-197.5" font-family="Helvetica,sans-Serif" font-size="10.00">ExternalSensors::printConf</text>
</a>
</g>
</g>
<!-- Node0&#45;&gt;Node38 -->
<g id="edge40" class="edge"><title>Node0&#45;&gt;Node38</title>
<path fill="none" stroke="midnightblue" d="M46.8253,-475.341C46.6792,-436.858 51.4596,-292.973 128,-219 129.48,-217.57 131.054,-216.245 132.707,-215.017"/>
<polygon fill="midnightblue" stroke="midnightblue" points="134.804,-217.838 141.53,-209.653 131.167,-211.857 134.804,-217.838"/>
</g>
<!-- Node39 -->
<g id="node40" class="node"><title>Node39</title>
<g id="a_node40"><a xlink:href="$classCoolMQTT.html#a40553a0ad4b5ecf1cb4411ab54ca85fb" xlink:title="CoolMQTT::printConf">
<polygon fill="white" stroke="black" points="145,-152.5 145,-171.5 255,-171.5 255,-152.5 145,-152.5"/>
<text text-anchor="middle" x="200" y="-159.5" font-family="Helvetica,sans-Serif" font-size="10.00">CoolMQTT::printConf</text>
</a>
</g>
</g>
<!-- Node0&#45;&gt;Node39 -->
<g id="edge41" class="edge"><title>Node0&#45;&gt;Node39</title>
<path fill="none" stroke="midnightblue" d="M48.2793,-475.253C54.6489,-428.159 84.3813,-224.666 128,-181 130.39,-178.608 133.046,-176.507 135.887,-174.663"/>
<polygon fill="midnightblue" stroke="midnightblue" points="137.706,-177.66 144.886,-169.868 134.414,-171.482 137.706,-177.66"/>
</g>
<!-- Node40 -->
<g id="node41" class="node"><title>Node40</title>
<g id="a_node41"><a xlink:href="$classCoolWifi.html#a9e6105c6d13d35ec510f6633da9e0223" xlink:title="CoolWifi::printConf">
<polygon fill="white" stroke="black" points="150,-114.5 150,-133.5 250,-133.5 250,-114.5 150,-114.5"/>
<text text-anchor="middle" x="200" y="-121.5" font-family="Helvetica,sans-Serif" font-size="10.00">CoolWifi::printConf</text>
</a>
</g>
</g>
<!-- Node0&#45;&gt;Node40 -->
<g id="edge42" class="edge"><title>Node0&#45;&gt;Node40</title>
<path fill="none" stroke="midnightblue" d="M47.9555,-475.412C53.1469,-425.193 79.53,-192.892 128,-143 131.63,-139.263 135.908,-136.235 140.535,-133.785"/>
<polygon fill="midnightblue" stroke="midnightblue" points="142.019,-136.956 149.785,-129.75 139.22,-130.54 142.019,-136.956"/>
</g>
<!-- Node41 -->
<g id="node42" class="node"><title>Node41</title>
<g id="a_node42"><a xlink:href="$classCoolTime.html#af355e7f9b3898211cd2ff25eab5933b1" xlink:title="CoolTime::printConf">
<polygon fill="white" stroke="black" points="148,-76.5 148,-95.5 252,-95.5 252,-76.5 148,-76.5"/>
<text text-anchor="middle" x="200" y="-83.5" font-family="Helvetica,sans-Serif" font-size="10.00">CoolTime::printConf</text>
</a>
</g>
</g>
<!-- Node0&#45;&gt;Node41 -->
<g id="edge43" class="edge"><title>Node0&#45;&gt;Node41</title>
<path fill="none" stroke="midnightblue" d="M47.7106,-475.432C51.8655,-422.019 74.6936,-161.123 128,-105 131.15,-101.684 134.809,-98.9237 138.774,-96.6291"/>
<polygon fill="midnightblue" stroke="midnightblue" points="140.331,-99.7648 147.863,-92.3139 137.328,-93.4413 140.331,-99.7648"/>
</g>
<!-- Node42 -->
<g id="node43" class="node"><title>Node42</title>
<g id="a_node43"><a xlink:href="$classIrene3000.html#a7bc2414100b5e19eacc6630fa34b2654" xlink:title="Irene3000::printConf">
<polygon fill="white" stroke="black" points="147.5,-38.5 147.5,-57.5 252.5,-57.5 252.5,-38.5 147.5,-38.5"/>
<text text-anchor="middle" x="200" y="-45.5" font-family="Helvetica,sans-Serif" font-size="10.00">Irene3000::printConf</text>
</a>
</g>
</g>
<!-- Node0&#45;&gt;Node42 -->
<g id="edge44" class="edge"><title>Node0&#45;&gt;Node42</title>
<path fill="none" stroke="midnightblue" d="M47.5217,-475.239C50.7599,-418.288 69.9072,-129.313 128,-67 130.986,-63.7975 134.446,-61.1122 138.201,-58.8629"/>
<polygon fill="midnightblue" stroke="midnightblue" points="139.96,-61.8993 147.411,-54.3677 136.889,-55.6085 139.96,-61.8993"/>
</g>
<!-- Node43 -->
<g id="node44" class="node"><title>Node43</title>
<g id="a_node44"><a xlink:href="$classCoolBoardSensors.html#af6fd79505815b204c178617ecf54c873" xlink:title="CoolBoardSensors::printConf">
<polygon fill="white" stroke="black" points="128,-0.5 128,-19.5 272,-19.5 272,-0.5 128,-0.5"/>
<text text-anchor="middle" x="200" y="-7.5" font-family="Helvetica,sans-Serif" font-size="10.00">CoolBoardSensors::printConf</text>
</a>
</g>
</g>
<!-- Node0&#45;&gt;Node43 -->
<g id="edge45" class="edge"><title>Node0&#45;&gt;Node43</title>
<path fill="none" stroke="midnightblue" d="M47.3545,-475.154C49.7165,-415.02 65.0685,-97.5684 128,-29 129.216,-27.6751 130.513,-26.4384 131.879,-25.2844"/>
<polygon fill="midnightblue" stroke="midnightblue" points="134.048,-28.0431 140.366,-19.5382 130.123,-22.2469 134.048,-28.0431"/>
</g>
<!-- Node3 -->
<g id="node4" class="node"><title>Node3</title>
<g id="a_node4"><a xlink:href="$classCoolMQTT.html#a30d82ad665bfb603f46ecdbc290775df" xlink:title="CoolMQTT::callback">
<polygon fill="white" stroke="black" points="332.5,-918.5 332.5,-937.5 439.5,-937.5 439.5,-918.5 332.5,-918.5"/>
<text text-anchor="middle" x="386" y="-925.5" font-family="Helvetica,sans-Serif" font-size="10.00">CoolMQTT::callback</text>
</a>
</g>
</g>
<!-- Node2&#45;&gt;Node3 -->
<g id="edge3" class="edge"><title>Node2&#45;&gt;Node3</title>
<path fill="none" stroke="midnightblue" d="M247.431,-923.514C270.067,-924.252 297.628,-925.151 322.119,-925.95"/>
<polygon fill="midnightblue" stroke="midnightblue" points="322.295,-929.457 332.404,-926.285 322.523,-922.461 322.295,-929.457"/>
</g>
<!-- Node5 -->
<g id="node6" class="node"><title>Node5</title>
<g id="a_node6"><a xlink:href="$classBaseExternalSensor.html#a87d132803d4f4fdd4e66332809f0c9a0" xlink:title="BaseExternalSensor\l::begin">
<polygon fill="white" stroke="black" points="333,-869 333,-899 439,-899 439,-869 333,-869"/>
<text text-anchor="start" x="341" y="-887" font-family="Helvetica,sans-Serif" font-size="10.00">BaseExternalSensor</text>
<text text-anchor="middle" x="386" y="-876" font-family="Helvetica,sans-Serif" font-size="10.00">::begin</text>
</a>
</g>
</g>
<!-- Node4&#45;&gt;Node5 -->
<g id="edge5" class="edge"><title>Node4&#45;&gt;Node5</title>
<path fill="none" stroke="midnightblue" d="M259.219,-884C279.394,-884 302.086,-884 322.586,-884"/>
<polygon fill="midnightblue" stroke="midnightblue" points="322.765,-887.5 332.765,-884 322.765,-880.5 322.765,-887.5"/>
</g>
<!-- Node8 -->
<g id="node9" class="node"><title>Node8</title>
<g id="a_node9"><a xlink:href="$classCoolBoardSensors.html#acad6a8418c66d36868caca23c844ecb6" xlink:title="CoolBoardSensors::initReadI2C">
<polygon fill="white" stroke="black" points="308,-781.5 308,-800.5 464,-800.5 464,-781.5 308,-781.5"/>
<text text-anchor="middle" x="386" y="-788.5" font-family="Helvetica,sans-Serif" font-size="10.00">CoolBoardSensors::initReadI2C</text>
</a>
</g>
</g>
<!-- Node7&#45;&gt;Node8 -->
<g id="edge8" class="edge"><title>Node7&#45;&gt;Node8</title>
<path fill="none" stroke="midnightblue" d="M264.065,-802.173C274.818,-801.18 286.157,-800.132 297.409,-799.093"/>
<polygon fill="midnightblue" stroke="midnightblue" points="298.062,-802.547 307.698,-798.142 297.418,-795.577 298.062,-802.547"/>
</g>
<!-- Node9 -->
<g id="node10" class="node"><title>Node9</title>
<g id="a_node10"><a xlink:href="$classCoolBoardSensors.html#a406307ffd70272282d91479c7ed8d66f" xlink:title="CoolBoardSensors::setEnv\lSensorSettings">
<polygon fill="white" stroke="black" points="318.5,-820 318.5,-850 453.5,-850 453.5,-820 318.5,-820"/>
<text text-anchor="start" x="326.5" y="-838" font-family="Helvetica,sans-Serif" font-size="10.00">CoolBoardSensors::setEnv</text>
<text text-anchor="middle" x="386" y="-827" font-family="Helvetica,sans-Serif" font-size="10.00">SensorSettings</text>
</a>
</g>
</g>
<!-- Node7&#45;&gt;Node9 -->
<g id="edge9" class="edge"><title>Node7&#45;&gt;Node9</title>
<path fill="none" stroke="midnightblue" d="M264.065,-817.254C278.265,-819.338 293.49,-821.572 308.183,-823.728"/>
<polygon fill="midnightblue" stroke="midnightblue" points="307.848,-827.216 318.251,-825.205 308.865,-820.29 307.848,-827.216"/>
</g>
<!-- Node11 -->
<g id="node12" class="node"><title>Node11</title>
<g id="a_node12"><a xlink:href="$classCoolTime.html#aae601f795452cfa48d9fb337aed483a8" xlink:title="CoolTime::update">
<polygon fill="white" stroke="black" points="339,-743.5 339,-762.5 433,-762.5 433,-743.5 339,-743.5"/>
<text text-anchor="middle" x="386" y="-750.5" font-family="Helvetica,sans-Serif" font-size="10.00">CoolTime::update</text>
</a>
</g>
</g>
<!-- Node10&#45;&gt;Node11 -->
<g id="edge11" class="edge"><title>Node10&#45;&gt;Node11</title>
<path fill="none" stroke="midnightblue" d="M244.14,-766.014C269.382,-763.682 301.538,-760.711 328.751,-758.197"/>
<polygon fill="midnightblue" stroke="midnightblue" points="329.278,-761.663 338.914,-757.258 328.634,-754.693 329.278,-761.663"/>
</g>
<!-- Node12 -->
<g id="node13" class="node"><title>Node12</title>
<g id="a_node13"><a xlink:href="$classCoolTime.html#a5ae038a4498602b189f76a10bf02adf8" xlink:title="CoolTime::isTimeSync">
<polygon fill="white" stroke="black" points="507,-781.5 507,-800.5 623,-800.5 623,-781.5 507,-781.5"/>
<text text-anchor="middle" x="565" y="-788.5" font-family="Helvetica,sans-Serif" font-size="10.00">CoolTime::isTimeSync</text>
</a>
</g>
</g>
<!-- Node11&#45;&gt;Node12 -->
<g id="edge12" class="edge"><title>Node11&#45;&gt;Node12</title>
<path fill="none" stroke="midnightblue" d="M431.665,-762.589C455.337,-767.671 484.608,-773.955 509.597,-779.32"/>
<polygon fill="midnightblue" stroke="midnightblue" points="509.145,-782.803 519.657,-781.48 510.614,-775.959 509.145,-782.803"/>
</g>
<!-- Node14 -->
<g id="node15" class="node"><title>Node14</title>
<g id="a_node15"><a xlink:href="$classCoolTime.html#a41fbbbfd651c2079f54d4b2911e4c705" xlink:title="CoolTime::getNtpTime">
<polygon fill="white" stroke="black" points="507,-743.5 507,-762.5 623,-762.5 623,-743.5 507,-743.5"/>
<text text-anchor="middle" x="565" y="-750.5" font-family="Helvetica,sans-Serif" font-size="10.00">CoolTime::getNtpTime</text>
</a>
</g>
</g>
<!-- Node11&#45;&gt;Node14 -->
<g id="edge14" class="edge"><title>Node11&#45;&gt;Node14</title>
<path fill="none" stroke="midnightblue" d="M433.043,-753C452.408,-753 475.329,-753 496.538,-753"/>
<polygon fill="midnightblue" stroke="midnightblue" points="496.789,-756.5 506.789,-753 496.789,-749.5 496.789,-756.5"/>
</g>
<!-- Node16 -->
<g id="node17" class="node"><title>Node16</title>
<g id="a_node17"><a xlink:href="$classCoolTime.html#ae9658c9b377510d469e3b88edf33ee85" xlink:title="CoolTime::saveTimeSync">
<polygon fill="white" stroke="black" points="500,-705.5 500,-724.5 630,-724.5 630,-705.5 500,-705.5"/>
<text text-anchor="middle" x="565" y="-712.5" font-family="Helvetica,sans-Serif" font-size="10.00">CoolTime::saveTimeSync</text>
</a>
</g>
</g>
<!-- Node11&#45;&gt;Node16 -->
<g id="edge16" class="edge"><title>Node11&#45;&gt;Node16</title>
<path fill="none" stroke="midnightblue" d="M431.665,-743.411C455.337,-738.329 484.608,-732.045 509.597,-726.68"/>
<polygon fill="midnightblue" stroke="midnightblue" points="510.614,-730.041 519.657,-724.52 509.145,-723.197 510.614,-730.041"/>
</g>
<!-- Node13 -->
<g id="node14" class="node"><title>Node13</title>
<g id="a_node14"><a xlink:href="$classCoolTime.html#a5d17f707a9d337720493b2bce9d41c21" xlink:title="CoolTime::getLastSyncTime">
<polygon fill="white" stroke="black" points="666,-781.5 666,-800.5 807,-800.5 807,-781.5 666,-781.5"/>
<text text-anchor="middle" x="736.5" y="-788.5" font-family="Helvetica,sans-Serif" font-size="10.00">CoolTime::getLastSyncTime</text>
</a>
</g>
</g>
<!-- Node12&#45;&gt;Node13 -->
<g id="edge13" class="edge"><title>Node12&#45;&gt;Node13</title>
<path fill="none" stroke="midnightblue" d="M623.385,-791C633.826,-791 644.889,-791 655.837,-791"/>
<polygon fill="midnightblue" stroke="midnightblue" points="655.839,-794.5 665.839,-791 655.839,-787.5 655.839,-794.5"/>
</g>
<!-- Node15 -->
<g id="node16" class="node"><title>Node15</title>
<g id="a_node16"><a xlink:href="$classCoolTime.html#a236a38d120dc53bc67456d763838c5a1" xlink:title="CoolTime::sendNTPpacket">
<polygon fill="white" stroke="black" points="669,-743.5 669,-762.5 804,-762.5 804,-743.5 669,-743.5"/>
<text text-anchor="middle" x="736.5" y="-750.5" font-family="Helvetica,sans-Serif" font-size="10.00">CoolTime::sendNTPpacket</text>
</a>
</g>
</g>
<!-- Node14&#45;&gt;Node15 -->
<g id="edge15" class="edge"><title>Node14&#45;&gt;Node15</title>
<path fill="none" stroke="midnightblue" d="M623.385,-753C634.676,-753 646.693,-753 658.507,-753"/>
<polygon fill="midnightblue" stroke="midnightblue" points="658.813,-756.5 668.813,-753 658.813,-749.5 658.813,-756.5"/>
</g>
<!-- Node25 -->
<g id="node26" class="node"><title>Node25</title>
<g id="a_node26"><a xlink:href="$classIrene3000.html#abcad62d1201a59f8dd3ba87048002728" xlink:title="Irene3000::gainConvert">
<polygon fill="white" stroke="black" points="327,-380.5 327,-399.5 445,-399.5 445,-380.5 327,-380.5"/>
<text text-anchor="middle" x="386" y="-387.5" font-family="Helvetica,sans-Serif" font-size="10.00">Irene3000::gainConvert</text>
</a>
</g>
</g>
<!-- Node24&#45;&gt;Node25 -->
<g id="edge25" class="edge"><title>Node24&#45;&gt;Node25</title>
<path fill="none" stroke="midnightblue" d="M246.011,-390C267.235,-390 293.018,-390 316.587,-390"/>
<polygon fill="midnightblue" stroke="midnightblue" points="316.883,-393.5 326.883,-390 316.883,-386.5 316.883,-393.5"/>
</g>
<!-- Node27&#45;&gt;Node18 -->
<g id="edge36" class="edge"><title>Node27&#45;&gt;Node18</title>
<path fill="none" stroke="midnightblue" d="M216.026,-627.552C236.231,-640.029 273.602,-661.828 308,-675 314.479,-677.481 321.392,-679.722 328.315,-681.72"/>
<polygon fill="midnightblue" stroke="midnightblue" points="327.849,-685.221 338.417,-684.475 329.69,-678.467 327.849,-685.221"/>
</g>
<!-- Node27&#45;&gt;Node28 -->
<g id="edge28" class="edge"><title>Node27&#45;&gt;Node28</title>
<path fill="none" stroke="midnightblue" d="M247.431,-627.589C272.149,-632.694 302.739,-639.011 328.792,-644.392"/>
<polygon fill="midnightblue" stroke="midnightblue" points="328.402,-647.885 338.903,-646.48 329.817,-641.03 328.402,-647.885"/>
</g>
<!-- Node29 -->
<g id="node30" class="node"><title>Node29</title>
<g id="a_node30"><a xlink:href="$classCoolWifi.html#a1c7b4d82a4098d346e7593dce92039fa" xlink:title="CoolWifi::state">
<polygon fill="white" stroke="black" points="345,-456.5 345,-475.5 427,-475.5 427,-456.5 345,-456.5"/>
<text text-anchor="middle" x="386" y="-463.5" font-family="Helvetica,sans-Serif" font-size="10.00">CoolWifi::state</text>
</a>
</g>
</g>
<!-- Node27&#45;&gt;Node29 -->
<g id="edge29" class="edge"><title>Node27&#45;&gt;Node29</title>
<path fill="none" stroke="midnightblue" d="M251.674,-611.225C259.171,-608.403 266.283,-604.469 272,-599 310.395,-562.273 269.247,-521.35 308,-485 315.457,-478.006 325.065,-473.47 334.95,-470.556"/>
<polygon fill="midnightblue" stroke="midnightblue" points="335.966,-473.911 344.858,-468.151 334.314,-467.109 335.966,-473.911"/>
</g>
<!-- Node30 -->
<g id="node31" class="node"><title>Node30</title>
<g id="a_node31"><a xlink:href="$classCoolWifi.html#ad060353050f40d032a2dbf9e54a768bf" xlink:title="CoolWifi::connect">
<polygon fill="white" stroke="black" points="338.5,-608.5 338.5,-627.5 433.5,-627.5 433.5,-608.5 338.5,-608.5"/>
<text text-anchor="middle" x="386" y="-615.5" font-family="Helvetica,sans-Serif" font-size="10.00">CoolWifi::connect</text>
</a>
</g>
</g>
<!-- Node27&#45;&gt;Node30 -->
<g id="edge30" class="edge"><title>Node27&#45;&gt;Node30</title>
<path fill="none" stroke="midnightblue" d="M251.766,-618C275.5,-618 303.851,-618 328.288,-618"/>
<polygon fill="midnightblue" stroke="midnightblue" points="328.496,-621.5 338.496,-618 328.496,-614.5 328.496,-621.5"/>
</g>
<!-- Node32 -->
<g id="node33" class="node"><title>Node32</title>
<g id="a_node33"><a xlink:href="$classCoolMQTT.html#a5d003307eff78efbd585e42b43b72b6d" xlink:title="CoolMQTT::state">
<polygon fill="white" stroke="black" points="519,-551.5 519,-570.5 611,-570.5 611,-551.5 519,-551.5"/>
<text text-anchor="middle" x="565" y="-558.5" font-family="Helvetica,sans-Serif" font-size="10.00">CoolMQTT::state</text>
</a>
</g>
</g>
<!-- Node27&#45;&gt;Node32 -->
<g id="edge32" class="edge"><title>Node27&#45;&gt;Node32</title>
<path fill="none" stroke="midnightblue" d="M250.932,-608.404C258.273,-605.936 265.531,-602.851 272,-599 291.991,-587.1 286.629,-570.192 308,-561 374.356,-532.458 459.639,-540.157 513.072,-549.584"/>
<polygon fill="midnightblue" stroke="midnightblue" points="512.523,-553.042 522.993,-551.419 513.797,-546.159 512.523,-553.042"/>
</g>
<!-- Node33 -->
<g id="node34" class="node"><title>Node33</title>
<g id="a_node34"><a xlink:href="$classCoolMQTT.html#a50075d0ab23a327ab897fd6adad20eda" xlink:title="CoolMQTT::connect">
<polygon fill="white" stroke="black" points="333.5,-570.5 333.5,-589.5 438.5,-589.5 438.5,-570.5 333.5,-570.5"/>
<text text-anchor="middle" x="386" y="-577.5" font-family="Helvetica,sans-Serif" font-size="10.00">CoolMQTT::connect</text>
</a>
</g>
</g>
<!-- Node27&#45;&gt;Node33 -->
<g id="edge33" class="edge"><title>Node27&#45;&gt;Node33</title>
<path fill="none" stroke="midnightblue" d="M247.431,-608.411C272.149,-603.306 302.739,-596.989 328.792,-591.608"/>
<polygon fill="midnightblue" stroke="midnightblue" points="329.817,-594.97 338.903,-589.52 328.402,-588.115 329.817,-594.97"/>
</g>
<!-- Node34 -->
<g id="node35" class="node"><title>Node34</title>
<g id="a_node35"><a xlink:href="$classCoolBoard.html#aaa24480b273fc095a1356a589c333781" xlink:title="CoolBoard::getLogInterval">
<polygon fill="white" stroke="black" points="321,-494.5 321,-513.5 451,-513.5 451,-494.5 321,-494.5"/>
<text text-anchor="middle" x="386" y="-501.5" font-family="Helvetica,sans-Serif" font-size="10.00">CoolBoard::getLogInterval</text>
</a>
</g>
</g>
<!-- Node27&#45;&gt;Node34 -->
<g id="edge35" class="edge"><title>Node27&#45;&gt;Node34</title>
<path fill="none" stroke="midnightblue" d="M251.672,-610.123C258.995,-607.429 266.054,-603.823 272,-599 299.477,-576.712 280.982,-550.842 308,-528 312.912,-523.847 318.541,-520.412 324.47,-517.57"/>
<polygon fill="midnightblue" stroke="midnightblue" points="326.113,-520.677 333.977,-513.576 323.402,-514.223 326.113,-520.677"/>
</g>
<!-- Node31 -->
<g id="node32" class="node"><title>Node31</title>
<g id="a_node32"><a xlink:href="$classCoolWifi.html#a914d7a1df14dd6b75345fb614c34e9d6" xlink:title="CoolWifi::addWifi">
<polygon fill="white" stroke="black" points="518.5,-608.5 518.5,-627.5 611.5,-627.5 611.5,-608.5 518.5,-608.5"/>
<text text-anchor="middle" x="565" y="-615.5" font-family="Helvetica,sans-Serif" font-size="10.00">CoolWifi::addWifi</text>
</a>
</g>
</g>
<!-- Node30&#45;&gt;Node31 -->
<g id="edge31" class="edge"><title>Node30&#45;&gt;Node31</title>
<path fill="none" stroke="midnightblue" d="M433.505,-618C456.448,-618 484.294,-618 508.36,-618"/>
<polygon fill="midnightblue" stroke="midnightblue" points="508.418,-621.5 518.418,-618 508.418,-614.5 508.418,-621.5"/>
</g>
<!-- Node33&#45;&gt;Node32 -->
<g id="edge34" class="edge"><title>Node33&#45;&gt;Node32</title>
<path fill="none" stroke="midnightblue" d="M438.672,-574.453C460.705,-572.088 486.445,-569.325 508.846,-566.92"/>
<polygon fill="midnightblue" stroke="midnightblue" points="509.309,-570.391 518.878,-565.844 508.562,-563.431 509.309,-570.391"/>
</g>
</g>
</svg>
