<?xml version="1.0" encoding="UTF-8" standalone="no"?>
<!DOCTYPE svg PUBLIC "-//W3C//DTD SVG 1.1//EN"
 "http://www.w3.org/Graphics/SVG/1.1/DTD/svg11.dtd">
<!-- Generated by graphviz version 2.38.0 (20140413.2041)
 -->
<!-- Title: CoolTime::begin Pages: 1 -->
<svg width="419pt" height="28pt"
 viewBox="0.00 0.00 419.00 28.00" xmlns="http://www.w3.org/2000/svg" xmlns:xlink="http://www.w3.org/1999/xlink">
<g id="graph0" class="graph" transform="scale(1 1) rotate(0) translate(4 24)">
<title>CoolTime::begin</title>
<polygon fill="white" stroke="none" points="-4,4 -4,-24 415,-24 415,4 -4,4"/>
<!-- Node0 -->
<g id="node1" class="node"><title>Node0</title>
<polygon fill="#bfbfbf" stroke="black" points="0,-0.5 0,-19.5 88,-19.5 88,-0.5 0,-0.5"/>
<text text-anchor="middle" x="44" y="-7.5" font-family="Helvetica,sans-Serif" font-size="10.00">CoolTime::begin</text>
</g>
<!-- Node1 -->
<g id="node2" class="node"><title>Node1</title>
<g id="a_node2"><a xlink:href="$classCoolTime.html#a41fbbbfd651c2079f54d4b2911e4c705" xlink:title="CoolTime::getNtpTime">
<polygon fill="white" stroke="black" points="124,-0.5 124,-19.5 240,-19.5 240,-0.5 124,-0.5"/>
<text text-anchor="middle" x="182" y="-7.5" font-family="Helvetica,sans-Serif" font-size="10.00">CoolTime::getNtpTime</text>
</a>
</g>
</g>
<!-- Node0&#45;&gt;Node1 -->
<g id="edge1" class="edge"><title>Node0&#45;&gt;Node1</title>
<path fill="none" stroke="midnightblue" d="M88.0312,-10C96.1975,-10 104.922,-10 113.632,-10"/>
<polygon fill="midnightblue" stroke="midnightblue" points="113.816,-13.5001 123.816,-10 113.816,-6.5001 113.816,-13.5001"/>
</g>
<!-- Node2 -->
<g id="node3" class="node"><title>Node2</title>
<g id="a_node3"><a xlink:href="$classCoolTime.html#a236a38d120dc53bc67456d763838c5a1" xlink:title="CoolTime::sendNTPpacket">
<polygon fill="white" stroke="black" points="276,-0.5 276,-19.5 411,-19.5 411,-0.5 276,-0.5"/>
<text text-anchor="middle" x="343.5" y="-7.5" font-family="Helvetica,sans-Serif" font-size="10.00">CoolTime::sendNTPpacket</text>
</a>
</g>
</g>
<!-- Node1&#45;&gt;Node2 -->
<g id="edge2" class="edge"><title>Node1&#45;&gt;Node2</title>
<path fill="none" stroke="midnightblue" d="M240.133,-10C248.485,-10 257.198,-10 265.862,-10"/>
<polygon fill="midnightblue" stroke="midnightblue" points="265.986,-13.5001 275.986,-10 265.986,-6.5001 265.986,-13.5001"/>
</g>
</g>
</svg>
