<?xml version="1.0" encoding="UTF-8" standalone="no"?>
<!DOCTYPE svg PUBLIC "-//W3C//DTD SVG 1.1//EN"
 "http://www.w3.org/Graphics/SVG/1.1/DTD/svg11.dtd">
<!-- Generated by graphviz version 2.38.0 (20140413.2041)
 -->
<!-- Title: CoolTime::getNtpTime Pages: 1 -->
<svg width="412pt" height="104pt"
 viewBox="0.00 0.00 412.00 104.00" xmlns="http://www.w3.org/2000/svg" xmlns:xlink="http://www.w3.org/1999/xlink">
<g id="graph0" class="graph" transform="scale(1 1) rotate(0) translate(4 100)">
<title>CoolTime::getNtpTime</title>
<polygon fill="white" stroke="none" points="-4,4 -4,-100 408,-100 408,4 -4,4"/>
<!-- Node26 -->
<g id="node1" class="node"><title>Node26</title>
<polygon fill="#bfbfbf" stroke="black" points="0,-57.5 0,-76.5 116,-76.5 116,-57.5 0,-57.5"/>
<text text-anchor="middle" x="58" y="-64.5" font-family="Helvetica,sans-Serif" font-size="10.00">CoolTime::getNtpTime</text>
</g>
<!-- Node27 -->
<g id="node2" class="node"><title>Node27</title>
<g id="a_node2"><a xlink:href="$classCoolTime.html#ab1976cf718b950bc31e003c3323b8adb" xlink:title="CoolTime::begin">
<polygon fill="white" stroke="black" points="155,-76.5 155,-95.5 243,-95.5 243,-76.5 155,-76.5"/>
<text text-anchor="middle" x="199" y="-83.5" font-family="Helvetica,sans-Serif" font-size="10.00">CoolTime::begin</text>
</a>
</g>
</g>
<!-- Node26&#45;&gt;Node27 -->
<g id="edge1" class="edge"><title>Node26&#45;&gt;Node27</title>
<path fill="none" stroke="midnightblue" d="M126.371,-76.2089C136.046,-77.5315 145.777,-78.8615 154.811,-80.0965"/>
<polygon fill="midnightblue" stroke="midnightblue" points="126.721,-72.7244 116.339,-74.8377 125.773,-79.6599 126.721,-72.7244"/>
</g>
<!-- Node29 -->
<g id="node4" class="node"><title>Node29</title>
<g id="a_node4"><a xlink:href="$classCoolTime.html#aae601f795452cfa48d9fb337aed483a8" xlink:title="CoolTime::update">
<polygon fill="white" stroke="black" points="152,-38.5 152,-57.5 246,-57.5 246,-38.5 152,-38.5"/>
<text text-anchor="middle" x="199" y="-45.5" font-family="Helvetica,sans-Serif" font-size="10.00">CoolTime::update</text>
</a>
</g>
</g>
<!-- Node26&#45;&gt;Node29 -->
<g id="edge3" class="edge"><title>Node26&#45;&gt;Node29</title>
<path fill="none" stroke="midnightblue" d="M126.392,-57.7882C134.999,-56.6116 143.65,-55.4292 151.815,-54.3131"/>
<polygon fill="midnightblue" stroke="midnightblue" points="125.773,-54.3401 116.339,-59.1623 126.721,-61.2756 125.773,-54.3401"/>
</g>
<!-- Node28 -->
<g id="node3" class="node"><title>Node28</title>
<g id="a_node3"><a xlink:href="$classCoolBoard.html#acba7c5aef7268b2c0044bdb54d3b9d76" xlink:title="CoolBoard::begin">
<polygon fill="white" stroke="black" points="297,-76.5 297,-95.5 389,-95.5 389,-76.5 297,-76.5"/>
<text text-anchor="middle" x="343" y="-83.5" font-family="Helvetica,sans-Serif" font-size="10.00">CoolBoard::begin</text>
</a>
</g>
</g>
<!-- Node27&#45;&gt;Node28 -->
<g id="edge2" class="edge"><title>Node27&#45;&gt;Node28</title>
<path fill="none" stroke="midnightblue" d="M253.566,-86C267.853,-86 283.144,-86 296.924,-86"/>
<polygon fill="midnightblue" stroke="midnightblue" points="253.376,-82.5001 243.376,-86 253.376,-89.5001 253.376,-82.5001"/>
</g>
<!-- Node30 -->
<g id="node5" class="node"><title>Node30</title>
<g id="a_node5"><a xlink:href="$classCoolBoard.html#aa0bbc4bc605e35618d18e68795c61363" xlink:title="CoolBoard::onLineMode">
<polygon fill="white" stroke="black" points="282.5,-38.5 282.5,-57.5 403.5,-57.5 403.5,-38.5 282.5,-38.5"/>
<text text-anchor="middle" x="343" y="-45.5" font-family="Helvetica,sans-Serif" font-size="10.00">CoolBoard::onLineMode</text>
</a>
</g>
</g>
<!-- Node29&#45;&gt;Node30 -->
<g id="edge4" class="edge"><title>Node29&#45;&gt;Node30</title>
<path fill="none" stroke="midnightblue" d="M256.364,-48C264.926,-48 273.784,-48 282.412,-48"/>
<polygon fill="midnightblue" stroke="midnightblue" points="256.103,-44.5001 246.103,-48 256.103,-51.5001 256.103,-44.5001"/>
</g>
<!-- Node31 -->
<g id="node6" class="node"><title>Node31</title>
<g id="a_node6"><a xlink:href="$classCoolBoard.html#ae6b5e1274d760462290192acea4adca8" xlink:title="CoolBoard::offLineMode">
<polygon fill="white" stroke="black" points="282,-0.5 282,-19.5 404,-19.5 404,-0.5 282,-0.5"/>
<text text-anchor="middle" x="343" y="-7.5" font-family="Helvetica,sans-Serif" font-size="10.00">CoolBoard::offLineMode</text>
</a>
</g>
</g>
<!-- Node29&#45;&gt;Node31 -->
<g id="edge5" class="edge"><title>Node29&#45;&gt;Node31</title>
<path fill="none" stroke="midnightblue" d="M245.493,-35.8258C265.128,-30.5713 287.766,-24.5134 306.179,-19.5859"/>
<polygon fill="midnightblue" stroke="midnightblue" points="244.588,-32.4448 235.833,-38.411 246.397,-39.2069 244.588,-32.4448"/>
</g>
</g>
</svg>
