<?xml version="1.0" encoding="UTF-8" standalone="no"?>
<!DOCTYPE svg PUBLIC "-//W3C//DTD SVG 1.1//EN"
 "http://www.w3.org/Graphics/SVG/1.1/DTD/svg11.dtd">
<!-- Generated by graphviz version 2.38.0 (20140413.2041)
 -->
<!-- Title: CoolBoard::onLineMode Pages: 1 -->
<svg width="874pt" height="1287pt"
 viewBox="0.00 0.00 874.00 1287.00" xmlns="http://www.w3.org/2000/svg" xmlns:xlink="http://www.w3.org/1999/xlink">
<g id="graph0" class="graph" transform="scale(1 1) rotate(0) translate(4 1283)">
<title>CoolBoard::onLineMode</title>
<polygon fill="white" stroke="none" points="-4,4 -4,-1283 870,-1283 870,4 -4,4"/>
<!-- Node102 -->
<g id="node1" class="node"><title>Node102</title>
<polygon fill="#bfbfbf" stroke="black" points="0,-354.5 0,-373.5 121,-373.5 121,-354.5 0,-354.5"/>
<text text-anchor="middle" x="60.5" y="-361.5" font-family="Helvetica,sans-Serif" font-size="10.00">CoolBoard::onLineMode</text>
</g>
<!-- Node103 -->
<g id="node2" class="node"><title>Node103</title>
<g id="a_node2"><a xlink:href="$classCoolBoardLed.html#a96e1ea13003eee34c9dbcef340404426" xlink:title="CoolBoardLed::blink">
<polygon fill="white" stroke="black" points="546.5,-340.5 546.5,-359.5 650.5,-359.5 650.5,-340.5 546.5,-340.5"/>
<text text-anchor="middle" x="598.5" y="-347.5" font-family="Helvetica,sans-Serif" font-size="10.00">CoolBoardLed::blink</text>
</a>
</g>
</g>
<!-- Node102&#45;&gt;Node103 -->
<g id="edge1" class="edge"><title>Node102&#45;&gt;Node103</title>
<path fill="none" stroke="midnightblue" d="M121.084,-358.791C177.826,-354.108 265.657,-347.583 342,-345 408.629,-342.746 425.352,-343.422 492,-345 506.235,-345.337 521.541,-345.93 535.958,-346.592"/>
<polygon fill="midnightblue" stroke="midnightblue" points="536.116,-350.103 546.272,-347.084 536.45,-343.111 536.116,-350.103"/>
</g>
<!-- Node104 -->
<g id="node3" class="node"><title>Node104</title>
<g id="a_node3"><a xlink:href="$classJetpack.html#a86d2e83436ef4b85f4c3a6e85ac785b0" xlink:title="Jetpack::doAction">
<polygon fill="white" stroke="black" points="184,-316.5 184,-335.5 279,-335.5 279,-316.5 184,-316.5"/>
<text text-anchor="middle" x="231.5" y="-323.5" font-family="Helvetica,sans-Serif" font-size="10.00">Jetpack::doAction</text>
</a>
</g>
</g>
<!-- Node102&#45;&gt;Node104 -->
<g id="edge2" class="edge"><title>Node102&#45;&gt;Node104</title>
<path fill="none" stroke="midnightblue" d="M104.146,-354.411C126.648,-349.351 154.448,-343.1 178.238,-337.751"/>
<polygon fill="midnightblue" stroke="midnightblue" points="179.172,-341.129 188.161,-335.52 177.637,-334.299 179.172,-341.129"/>
</g>
<!-- Node106 -->
<g id="node5" class="node"><title>Node106</title>
<g id="a_node5"><a xlink:href="$classCoolBoardLed.html#af1cacbaa88db8bcf6042c1083ba41155" xlink:title="CoolBoardLed::fade">
<polygon fill="white" stroke="black" points="180,-278.5 180,-297.5 283,-297.5 283,-278.5 180,-278.5"/>
<text text-anchor="middle" x="231.5" y="-285.5" font-family="Helvetica,sans-Serif" font-size="10.00">CoolBoardLed::fade</text>
</a>
</g>
</g>
<!-- Node102&#45;&gt;Node106 -->
<g id="edge4" class="edge"><title>Node102&#45;&gt;Node106</title>
<path fill="none" stroke="midnightblue" d="M74.7673,-354.402C92.6411,-341.875 125.819,-320.019 157,-307 162.826,-304.567 169.046,-302.38 175.308,-300.431"/>
<polygon fill="midnightblue" stroke="midnightblue" points="176.513,-303.725 185.132,-297.563 174.552,-297.005 176.513,-303.725"/>
</g>
<!-- Node107 -->
<g id="node6" class="node"><title>Node107</title>
<g id="a_node6"><a xlink:href="$classCoolBoardLed.html#ab778f5e7bed0ab74e3906d82110493c3" xlink:title="CoolBoardLed::fadeIn">
<polygon fill="white" stroke="black" points="543,-993.5 543,-1012.5 654,-1012.5 654,-993.5 543,-993.5"/>
<text text-anchor="middle" x="598.5" y="-1000.5" font-family="Helvetica,sans-Serif" font-size="10.00">CoolBoardLed::fadeIn</text>
</a>
</g>
</g>
<!-- Node102&#45;&gt;Node107 -->
<g id="edge5" class="edge"><title>Node102&#45;&gt;Node107</title>
<path fill="none" stroke="midnightblue" d="M61.9186,-373.791C65.1162,-444.985 87.4589,-883.422 157,-993 242.069,-1127.05 357.845,-1201.9 492,-1117 523.583,-1097.01 502.349,-1068.18 528,-1041 537.458,-1030.98 550.161,-1022.98 562.119,-1016.95"/>
<polygon fill="midnightblue" stroke="midnightblue" points="563.92,-1019.98 571.474,-1012.55 560.936,-1013.64 563.92,-1019.98"/>
</g>
<!-- Node108 -->
<g id="node7" class="node"><title>Node108</title>
<g id="a_node7"><a xlink:href="$classCoolBoardLed.html#a93d545679237e8cc858324367149775c" xlink:title="CoolBoardLed::fadeOut">
<polygon fill="white" stroke="black" points="539,-535.5 539,-554.5 658,-554.5 658,-535.5 539,-535.5"/>
<text text-anchor="middle" x="598.5" y="-542.5" font-family="Helvetica,sans-Serif" font-size="10.00">CoolBoardLed::fadeOut</text>
</a>
</g>
</g>
<!-- Node102&#45;&gt;Node108 -->
<g id="edge6" class="edge"><title>Node102&#45;&gt;Node108</title>
<path fill="none" stroke="midnightblue" d="M75.1213,-373.705C93.1162,-386.148 126.147,-407.702 157,-421 228.683,-451.897 449.857,-508.421 548.793,-533.026"/>
<polygon fill="midnightblue" stroke="midnightblue" points="547.994,-536.434 558.543,-535.446 549.681,-529.64 547.994,-536.434"/>
</g>
<!-- Node109 -->
<g id="node8" class="node"><title>Node109</title>
<g id="a_node8"><a xlink:href="$classCoolBoard.html#aaa24480b273fc095a1356a589c333781" xlink:title="CoolBoard::getLogInterval">
<polygon fill="white" stroke="black" points="166.5,-240.5 166.5,-259.5 296.5,-259.5 296.5,-240.5 166.5,-240.5"/>
<text text-anchor="middle" x="231.5" y="-247.5" font-family="Helvetica,sans-Serif" font-size="10.00">CoolBoard::getLogInterval</text>
</a>
</g>
</g>
<!-- Node102&#45;&gt;Node109 -->
<g id="edge7" class="edge"><title>Node102&#45;&gt;Node109</title>
<path fill="none" stroke="midnightblue" d="M68.4336,-354.234C82.7064,-334.879 117.377,-291.575 157,-269 160.906,-266.775 165.076,-264.805 169.37,-263.062"/>
<polygon fill="midnightblue" stroke="midnightblue" points="170.709,-266.3 178.916,-259.599 168.322,-259.72 170.709,-266.3"/>
</g>
<!-- Node110 -->
<g id="node9" class="node"><title>Node110</title>
<g id="a_node9"><a xlink:href="$classCoolFileSystem.html#a5c58bca3735c0ed3efb268d70ef998ef" xlink:title="CoolFileSystem::getSensor\lSavedData">
<polygon fill="white" stroke="black" points="163,-191 163,-221 300,-221 300,-191 163,-191"/>
<text text-anchor="start" x="171" y="-209" font-family="Helvetica,sans-Serif" font-size="10.00">CoolFileSystem::getSensor</text>
<text text-anchor="middle" x="231.5" y="-198" font-family="Helvetica,sans-Serif" font-size="10.00">SavedData</text>
</a>
</g>
</g>
<!-- Node102&#45;&gt;Node110 -->
<g id="edge8" class="edge"><title>Node102&#45;&gt;Node110</title>
<path fill="none" stroke="midnightblue" d="M65.7868,-354.4C77.1089,-330.114 110.188,-265.706 157,-231 159.517,-229.134 162.184,-227.4 164.951,-225.791"/>
<polygon fill="midnightblue" stroke="midnightblue" points="166.808,-228.771 174.076,-221.062 163.587,-222.556 166.808,-228.771"/>
</g>
<!-- Node111 -->
<g id="node10" class="node"><title>Node111</title>
<g id="a_node10"><a xlink:href="$classCoolFileSystem.html#a5a7eaeea7a9fbf8aaef651d862fa3b5b" xlink:title="CoolFileSystem::isDataSaved">
<polygon fill="white" stroke="black" points="157,-152.5 157,-171.5 306,-171.5 306,-152.5 157,-152.5"/>
<text text-anchor="middle" x="231.5" y="-159.5" font-family="Helvetica,sans-Serif" font-size="10.00">CoolFileSystem::isDataSaved</text>
</a>
</g>
</g>
<!-- Node102&#45;&gt;Node111 -->
<g id="edge9" class="edge"><title>Node102&#45;&gt;Node111</title>
<path fill="none" stroke="midnightblue" d="M63.6195,-354.264C70.8103,-323.638 97.235,-228.485 157,-181 159.273,-179.194 161.7,-177.558 164.236,-176.076"/>
<polygon fill="midnightblue" stroke="midnightblue" points="165.825,-179.195 173.221,-171.609 162.708,-172.927 165.825,-179.195"/>
</g>
<!-- Node112 -->
<g id="node11" class="node"><title>Node112</title>
<g id="a_node11"><a xlink:href="$classCoolMQTT.html#aa5eaae967b562b62cbcf2b8d81f6e5d5" xlink:title="CoolMQTT::mqttLoop">
<polygon fill="white" stroke="black" points="361.5,-1088.5 361.5,-1107.5 472.5,-1107.5 472.5,-1088.5 361.5,-1088.5"/>
<text text-anchor="middle" x="417" y="-1095.5" font-family="Helvetica,sans-Serif" font-size="10.00">CoolMQTT::mqttLoop</text>
</a>
</g>
</g>
<!-- Node102&#45;&gt;Node112 -->
<g id="edge10" class="edge"><title>Node102&#45;&gt;Node112</title>
<path fill="none" stroke="midnightblue" d="M62.4108,-373.888C68.5157,-438.822 104.834,-804.571 157,-902 210.713,-1002.32 242.539,-1023.72 342,-1079 346.13,-1081.3 350.544,-1083.32 355.082,-1085.11"/>
<polygon fill="midnightblue" stroke="midnightblue" points="353.927,-1088.41 364.522,-1088.44 356.26,-1081.81 353.927,-1088.41"/>
</g>
<!-- Node113 -->
<g id="node12" class="node"><title>Node113</title>
<g id="a_node12"><a xlink:href="$classCoolMQTT.html#ace977b3e90ab14b1199fe5c4fb0a13ec" xlink:title="CoolMQTT::publish">
<polygon fill="white" stroke="black" points="366.5,-1050.5 366.5,-1069.5 467.5,-1069.5 467.5,-1050.5 366.5,-1050.5"/>
<text text-anchor="middle" x="417" y="-1057.5" font-family="Helvetica,sans-Serif" font-size="10.00">CoolMQTT::publish</text>
</a>
</g>
</g>
<!-- Node102&#45;&gt;Node113 -->
<g id="edge11" class="edge"><title>Node102&#45;&gt;Node113</title>
<path fill="none" stroke="midnightblue" d="M62.2081,-373.589C65.9658,-420.466 86.1496,-629.414 157,-782 214.613,-906.077 234.525,-943.363 342,-1028 351.794,-1035.71 363.73,-1041.93 375.132,-1046.76"/>
<polygon fill="midnightblue" stroke="midnightblue" points="373.939,-1050.06 384.525,-1050.5 376.526,-1043.55 373.939,-1050.06"/>
</g>
<!-- Node114 -->
<g id="node13" class="node"><title>Node114</title>
<g id="a_node13"><a xlink:href="$classCoolMQTT.html#ae3c18f6ae9723746d32765f1c8f176ca" xlink:title="CoolMQTT::read">
<polygon fill="white" stroke="black" points="187,-114.5 187,-133.5 276,-133.5 276,-114.5 187,-114.5"/>
<text text-anchor="middle" x="231.5" y="-121.5" font-family="Helvetica,sans-Serif" font-size="10.00">CoolMQTT::read</text>
</a>
</g>
</g>
<!-- Node102&#45;&gt;Node114 -->
<g id="edge12" class="edge"><title>Node102&#45;&gt;Node114</title>
<path fill="none" stroke="midnightblue" d="M62.6764,-354.282C67.3867,-319.763 88.0948,-201.979 157,-143 162.782,-138.051 169.696,-134.367 176.937,-131.631"/>
<polygon fill="midnightblue" stroke="midnightblue" points="178.465,-134.818 186.937,-128.456 176.347,-128.146 178.465,-134.818"/>
</g>
<!-- Node115 -->
<g id="node14" class="node"><title>Node115</title>
<g id="a_node14"><a xlink:href="$classCoolBoard.html#ad03abdce2e65f520bbf2cff0f2d083cf" xlink:title="CoolBoard::readSensors">
<polygon fill="white" stroke="black" points="355.5,-1202.5 355.5,-1221.5 478.5,-1221.5 478.5,-1202.5 355.5,-1202.5"/>
<text text-anchor="middle" x="417" y="-1209.5" font-family="Helvetica,sans-Serif" font-size="10.00">CoolBoard::readSensors</text>
</a>
</g>
</g>
<!-- Node102&#45;&gt;Node115 -->
<g id="edge13" class="edge"><title>Node102&#45;&gt;Node115</title>
<path fill="none" stroke="midnightblue" d="M61.8933,-373.623C65.5892,-461.816 95.4598,-1127.86 157,-1188 212.45,-1242.19 310.02,-1234.49 368.272,-1223.54"/>
<polygon fill="midnightblue" stroke="midnightblue" points="369.195,-1226.92 378.322,-1221.54 367.832,-1220.06 369.195,-1226.92"/>
</g>
<!-- Node116 -->
<g id="node15" class="node"><title>Node116</title>
<g id="a_node15"><a xlink:href="$classCoolBoardLed.html#ad5f0de4c628cbfbf49896042831c64ad" xlink:title="CoolBoardLed::strobe">
<polygon fill="white" stroke="black" points="543,-1050.5 543,-1069.5 654,-1069.5 654,-1050.5 543,-1050.5"/>
<text text-anchor="middle" x="598.5" y="-1057.5" font-family="Helvetica,sans-Serif" font-size="10.00">CoolBoardLed::strobe</text>
</a>
</g>
</g>
<!-- Node102&#45;&gt;Node116 -->
<g id="edge29" class="edge"><title>Node102&#45;&gt;Node116</title>
<path fill="none" stroke="midnightblue" d="M61.4841,-373.764C61.5455,-450.832 65.4362,-961.128 157,-1077 251.362,-1196.41 349.318,-1200.97 492,-1148 511.795,-1140.65 511.836,-1130.58 528,-1117 544.62,-1103.03 563.702,-1087.41 577.662,-1076.06"/>
<polygon fill="midnightblue" stroke="midnightblue" points="580.066,-1078.62 585.623,-1069.6 575.654,-1073.18 580.066,-1078.62"/>
</g>
<!-- Node129 -->
<g id="node27" class="node"><title>Node129</title>
<g id="a_node27"><a xlink:href="$classCoolBoard.html#a5d0c8ff93b615efd676be432de9f164a" xlink:title="CoolBoard::sleep">
<polygon fill="white" stroke="black" points="185.5,-76.5 185.5,-95.5 277.5,-95.5 277.5,-76.5 185.5,-76.5"/>
<text text-anchor="middle" x="231.5" y="-83.5" font-family="Helvetica,sans-Serif" font-size="10.00">CoolBoard::sleep</text>
</a>
</g>
</g>
<!-- Node102&#45;&gt;Node129 -->
<g id="edge28" class="edge"><title>Node102&#45;&gt;Node129</title>
<path fill="none" stroke="midnightblue" d="M61.9954,-354.271C64.4781,-316.169 78.8035,-175.722 157,-105 162.254,-100.248 168.542,-96.6541 175.198,-93.9411"/>
<polygon fill="midnightblue" stroke="midnightblue" points="176.793,-97.0957 185.136,-90.5646 174.541,-90.4678 176.793,-97.0957"/>
</g>
<!-- Node130 -->
<g id="node28" class="node"><title>Node130</title>
<g id="a_node28"><a xlink:href="$classCoolTime.html#aae601f795452cfa48d9fb337aed483a8" xlink:title="CoolTime::update">
<polygon fill="white" stroke="black" points="184.5,-38.5 184.5,-57.5 278.5,-57.5 278.5,-38.5 184.5,-38.5"/>
<text text-anchor="middle" x="231.5" y="-45.5" font-family="Helvetica,sans-Serif" font-size="10.00">CoolTime::update</text>
</a>
</g>
</g>
<!-- Node102&#45;&gt;Node130 -->
<g id="edge30" class="edge"><title>Node102&#45;&gt;Node130</title>
<path fill="none" stroke="midnightblue" d="M61.475,-354.322C61.9177,-313 69.3445,-149.702 157,-67 162.024,-62.26 168.071,-58.6644 174.512,-55.9434"/>
<polygon fill="midnightblue" stroke="midnightblue" points="175.885,-59.1707 184.157,-52.551 173.562,-52.5673 175.885,-59.1707"/>
</g>
<!-- Node136 -->
<g id="node34" class="node"><title>Node136</title>
<g id="a_node34"><a xlink:href="$classCoolBoard.html#a8612756d3f73198cdde857a66f0fe690" xlink:title="CoolBoard::update">
<polygon fill="white" stroke="black" points="182.5,-753.5 182.5,-772.5 280.5,-772.5 280.5,-753.5 182.5,-753.5"/>
<text text-anchor="middle" x="231.5" y="-760.5" font-family="Helvetica,sans-Serif" font-size="10.00">CoolBoard::update</text>
</a>
</g>
</g>
<!-- Node102&#45;&gt;Node136 -->
<g id="edge36" class="edge"><title>Node102&#45;&gt;Node136</title>
<path fill="none" stroke="midnightblue" d="M65.6776,-373.863C87.9174,-426.37 192.514,-673.317 222.467,-744.034"/>
<polygon fill="midnightblue" stroke="midnightblue" points="219.345,-745.639 226.468,-753.482 225.791,-742.909 219.345,-745.639"/>
</g>
<!-- Node153 -->
<g id="node48" class="node"><title>Node153</title>
<g id="a_node48"><a xlink:href="$classCoolBoard.html#ae7358fb6e623cfc81b775f5f1734909b" xlink:title="CoolBoard::userData">
<polygon fill="white" stroke="black" points="177.5,-392.5 177.5,-411.5 285.5,-411.5 285.5,-392.5 177.5,-392.5"/>
<text text-anchor="middle" x="231.5" y="-399.5" font-family="Helvetica,sans-Serif" font-size="10.00">CoolBoard::userData</text>
</a>
</g>
</g>
<!-- Node102&#45;&gt;Node153 -->
<g id="edge60" class="edge"><title>Node102&#45;&gt;Node153</title>
<path fill="none" stroke="midnightblue" d="M104.146,-373.589C126.648,-378.649 154.448,-384.9 178.238,-390.249"/>
<polygon fill="midnightblue" stroke="midnightblue" points="177.637,-393.701 188.161,-392.48 179.172,-386.871 177.637,-393.701"/>
</g>
<!-- Node105 -->
<g id="node4" class="node"><title>Node105</title>
<g id="a_node4"><a xlink:href="$classJetpack.html#a338f1af8cbc6504ac69b47c7328569b5" xlink:title="Jetpack::write">
<polygon fill="white" stroke="black" points="378,-278.5 378,-297.5 456,-297.5 456,-278.5 378,-278.5"/>
<text text-anchor="middle" x="417" y="-285.5" font-family="Helvetica,sans-Serif" font-size="10.00">Jetpack::write</text>
</a>
</g>
</g>
<!-- Node104&#45;&gt;Node105 -->
<g id="edge3" class="edge"><title>Node104&#45;&gt;Node105</title>
<path fill="none" stroke="midnightblue" d="M278.805,-316.411C306.038,-310.771 340.418,-303.652 367.949,-297.951"/>
<polygon fill="midnightblue" stroke="midnightblue" points="368.673,-301.375 377.756,-295.92 367.254,-294.52 368.673,-301.375"/>
</g>
<!-- Node115&#45;&gt;Node107 -->
<g id="edge14" class="edge"><title>Node115&#45;&gt;Node107</title>
<path fill="none" stroke="midnightblue" d="M434.129,-1202.35C450.854,-1191.56 476.66,-1172.61 492,-1150 520.647,-1107.78 495.34,-1080.19 528,-1041 536.544,-1030.75 548.599,-1022.81 560.275,-1016.9"/>
<polygon fill="midnightblue" stroke="midnightblue" points="561.908,-1020 569.483,-1012.59 558.942,-1013.66 561.908,-1020"/>
</g>
<!-- Node115&#45;&gt;Node108 -->
<g id="edge27" class="edge"><title>Node115&#45;&gt;Node108</title>
<path fill="none" stroke="midnightblue" d="M428.747,-1202.47C445.729,-1186.66 478.253,-1153.15 492,-1117 535.773,-1001.89 450.137,-659.41 528,-564 528.867,-562.937 529.788,-561.93 530.756,-560.977"/>
<polygon fill="midnightblue" stroke="midnightblue" points="533.186,-563.524 538.996,-554.664 528.929,-557.967 533.186,-563.524"/>
</g>
<!-- Node115&#45;&gt;Node116 -->
<g id="edge15" class="edge"><title>Node115&#45;&gt;Node116</title>
<path fill="none" stroke="midnightblue" d="M466.279,-1202.42C475.523,-1198.98 484.61,-1194.32 492,-1188 518.887,-1165 505.847,-1144.59 528,-1117 541.027,-1100.78 559.336,-1085.99 573.892,-1075.55"/>
<polygon fill="midnightblue" stroke="midnightblue" points="576.183,-1078.22 582.39,-1069.63 572.183,-1072.47 576.183,-1078.22"/>
</g>
<!-- Node117 -->
<g id="node16" class="node"><title>Node117</title>
<g id="a_node16"><a xlink:href="$classCoolBoardSensors.html#a91badb2539d91fda8679f2a597874c48" xlink:title="CoolBoardSensors::read">
<polygon fill="white" stroke="black" points="537,-1126.5 537,-1145.5 660,-1145.5 660,-1126.5 537,-1126.5"/>
<text text-anchor="middle" x="598.5" y="-1133.5" font-family="Helvetica,sans-Serif" font-size="10.00">CoolBoardSensors::read</text>
</a>
</g>
</g>
<!-- Node115&#45;&gt;Node117 -->
<g id="edge16" class="edge"><title>Node115&#45;&gt;Node117</title>
<path fill="none" stroke="midnightblue" d="M450.783,-1202.49C463.769,-1198.43 478.736,-1193.39 492,-1188 519.563,-1176.81 549.922,-1161.51 570.968,-1150.41"/>
<polygon fill="midnightblue" stroke="midnightblue" points="572.757,-1153.42 579.939,-1145.63 569.467,-1147.24 572.757,-1153.42"/>
</g>
<!-- Node121 -->
<g id="node20" class="node"><title>Node121</title>
<g id="a_node20"><a xlink:href="$classExternalSensors.html#a53177b81eca3be89508b5511ddcd00fc" xlink:title="ExternalSensors::read">
<polygon fill="white" stroke="black" points="542,-1240.5 542,-1259.5 655,-1259.5 655,-1240.5 542,-1240.5"/>
<text text-anchor="middle" x="598.5" y="-1247.5" font-family="Helvetica,sans-Serif" font-size="10.00">ExternalSensors::read</text>
</a>
</g>
</g>
<!-- Node115&#45;&gt;Node121 -->
<g id="edge20" class="edge"><title>Node115&#45;&gt;Node121</title>
<path fill="none" stroke="midnightblue" d="M463.295,-1221.59C487.409,-1226.69 517.251,-1233.01 542.667,-1238.39"/>
<polygon fill="midnightblue" stroke="midnightblue" points="542.022,-1241.83 552.53,-1240.48 543.472,-1234.98 542.022,-1241.83"/>
</g>
<!-- Node122 -->
<g id="node21" class="node"><title>Node122</title>
<g id="a_node21"><a xlink:href="$classIrene3000.html#a852a170feea994ea1df01c6b245b5d9a" xlink:title="Irene3000::read">
<polygon fill="white" stroke="black" points="556.5,-1202.5 556.5,-1221.5 640.5,-1221.5 640.5,-1202.5 556.5,-1202.5"/>
<text text-anchor="middle" x="598.5" y="-1209.5" font-family="Helvetica,sans-Serif" font-size="10.00">Irene3000::read</text>
</a>
</g>
</g>
<!-- Node115&#45;&gt;Node122 -->
<g id="edge21" class="edge"><title>Node115&#45;&gt;Node122</title>
<path fill="none" stroke="midnightblue" d="M478.771,-1212C500.709,-1212 525.236,-1212 546.276,-1212"/>
<polygon fill="midnightblue" stroke="midnightblue" points="546.298,-1215.5 556.298,-1212 546.298,-1208.5 546.298,-1215.5"/>
</g>
<!-- Node127 -->
<g id="node25" class="node"><title>Node127</title>
<g id="a_node25"><a xlink:href="$classCoolTime.html#a7a7501c5ca77dd1248bea704c44f986c" xlink:title="CoolTime::getTimeDate">
<polygon fill="white" stroke="black" points="538,-497.5 538,-516.5 659,-516.5 659,-497.5 538,-497.5"/>
<text text-anchor="middle" x="598.5" y="-504.5" font-family="Helvetica,sans-Serif" font-size="10.00">CoolTime::getTimeDate</text>
</a>
</g>
</g>
<!-- Node115&#45;&gt;Node127 -->
<g id="edge25" class="edge"><title>Node115&#45;&gt;Node127</title>
<path fill="none" stroke="midnightblue" d="M428.764,-1202.48C445.771,-1186.68 478.328,-1153.18 492,-1117 538.512,-993.918 445.021,-628.113 528,-526 528.865,-524.935 529.784,-523.927 530.75,-522.972"/>
<polygon fill="midnightblue" stroke="midnightblue" points="533.181,-525.518 538.979,-516.651 528.917,-519.967 533.181,-525.518"/>
</g>
<!-- Node118 -->
<g id="node17" class="node"><title>Node118</title>
<g id="a_node17"><a xlink:href="$classCoolBoardSensors.html#acad6a8418c66d36868caca23c844ecb6" xlink:title="CoolBoardSensors::initReadI2C">
<polygon fill="white" stroke="black" points="707.5,-1069.5 707.5,-1088.5 863.5,-1088.5 863.5,-1069.5 707.5,-1069.5"/>
<text text-anchor="middle" x="785.5" y="-1076.5" font-family="Helvetica,sans-Serif" font-size="10.00">CoolBoardSensors::initReadI2C</text>
</a>
</g>
</g>
<!-- Node117&#45;&gt;Node118 -->
<g id="edge17" class="edge"><title>Node117&#45;&gt;Node118</title>
<path fill="none" stroke="midnightblue" d="M623.549,-1126.47C644.769,-1118.28 676.646,-1106.47 705,-1098 713.21,-1095.55 721.969,-1093.2 730.561,-1091.03"/>
<polygon fill="midnightblue" stroke="midnightblue" points="731.652,-1094.37 740.529,-1088.59 729.983,-1087.57 731.652,-1094.37"/>
</g>
<!-- Node119 -->
<g id="node18" class="node"><title>Node119</title>
<g id="a_node18"><a xlink:href="$classCoolBoardSensors.html#a6944b6ea7bce8e2fce1b434acfd9d5f3" xlink:title="CoolBoardSensors::readVBat">
<polygon fill="white" stroke="black" points="713,-1145.5 713,-1164.5 858,-1164.5 858,-1145.5 713,-1145.5"/>
<text text-anchor="middle" x="785.5" y="-1152.5" font-family="Helvetica,sans-Serif" font-size="10.00">CoolBoardSensors::readVBat</text>
</a>
</g>
</g>
<!-- Node117&#45;&gt;Node119 -->
<g id="edge18" class="edge"><title>Node117&#45;&gt;Node119</title>
<path fill="none" stroke="midnightblue" d="M660.076,-1142.22C673.643,-1143.61 688.255,-1145.12 702.528,-1146.58"/>
<polygon fill="midnightblue" stroke="midnightblue" points="702.537,-1150.1 712.842,-1147.64 703.252,-1143.14 702.537,-1150.1"/>
</g>
<!-- Node120 -->
<g id="node19" class="node"><title>Node120</title>
<g id="a_node19"><a xlink:href="$classCoolBoardSensors.html#a8761bff50373c485f4465c8db47d0633" xlink:title="CoolBoardSensors::readMoisture">
<polygon fill="white" stroke="black" points="705,-1107.5 705,-1126.5 866,-1126.5 866,-1107.5 705,-1107.5"/>
<text text-anchor="middle" x="785.5" y="-1114.5" font-family="Helvetica,sans-Serif" font-size="10.00">CoolBoardSensors::readMoisture</text>
</a>
</g>
</g>
<!-- Node117&#45;&gt;Node120 -->
<g id="edge19" class="edge"><title>Node117&#45;&gt;Node120</title>
<path fill="none" stroke="midnightblue" d="M660.076,-1129.78C671.16,-1128.64 682.942,-1127.43 694.666,-1126.23"/>
<polygon fill="midnightblue" stroke="midnightblue" points="695.346,-1129.67 704.936,-1125.17 694.631,-1122.71 695.346,-1129.67"/>
</g>
<!-- Node123 -->
<g id="node22" class="node"><title>Node123</title>
<g id="a_node22"><a xlink:href="$classIrene3000.html#a94ad40f281d83ad1be20bf1edd6fe802" xlink:title="Irene3000::readTemp">
<polygon fill="white" stroke="red" points="731,-1183.5 731,-1202.5 840,-1202.5 840,-1183.5 731,-1183.5"/>
<text text-anchor="middle" x="785.5" y="-1190.5" font-family="Helvetica,sans-Serif" font-size="10.00">Irene3000::readTemp</text>
</a>
</g>
</g>
<!-- Node122&#45;&gt;Node123 -->
<g id="edge22" class="edge"><title>Node122&#45;&gt;Node123</title>
<path fill="none" stroke="midnightblue" d="M640.557,-1207.78C664.155,-1205.36 694.303,-1202.26 720.904,-1199.53"/>
<polygon fill="midnightblue" stroke="midnightblue" points="721.315,-1203.01 730.905,-1198.5 720.6,-1196.04 721.315,-1203.01"/>
</g>
<!-- Node125 -->
<g id="node23" class="node"><title>Node125</title>
<g id="a_node23"><a xlink:href="$classIrene3000.html#abf3db725fabb0634ec889b32068a5eec" xlink:title="Irene3000::readPh">
<polygon fill="white" stroke="red" points="737.5,-1259.5 737.5,-1278.5 833.5,-1278.5 833.5,-1259.5 737.5,-1259.5"/>
<text text-anchor="middle" x="785.5" y="-1266.5" font-family="Helvetica,sans-Serif" font-size="10.00">Irene3000::readPh</text>
</a>
</g>
</g>
<!-- Node122&#45;&gt;Node125 -->
<g id="edge23" class="edge"><title>Node122&#45;&gt;Node125</title>
<path fill="none" stroke="midnightblue" d="M640.414,-1221.58C649.929,-1224.25 659.926,-1227.42 669,-1231 685.826,-1237.65 688.069,-1243.62 705,-1250 712.11,-1252.68 719.724,-1255.07 727.319,-1257.17"/>
<polygon fill="midnightblue" stroke="midnightblue" points="726.689,-1260.62 737.249,-1259.77 728.462,-1253.85 726.689,-1260.62"/>
</g>
<!-- Node126 -->
<g id="node24" class="node"><title>Node126</title>
<g id="a_node24"><a xlink:href="$classIrene3000.html#ae73bd2ed14a199a7e83f4d6458476a7c" xlink:title="Irene3000::readADSChannel2">
<polygon fill="white" stroke="red" points="712.5,-1221.5 712.5,-1240.5 858.5,-1240.5 858.5,-1221.5 712.5,-1221.5"/>
<text text-anchor="middle" x="785.5" y="-1228.5" font-family="Helvetica,sans-Serif" font-size="10.00">Irene3000::readADSChannel2</text>
</a>
</g>
</g>
<!-- Node122&#45;&gt;Node126 -->
<g id="edge24" class="edge"><title>Node122&#45;&gt;Node126</title>
<path fill="none" stroke="midnightblue" d="M640.557,-1216.22C658.753,-1218.09 680.842,-1220.35 702.198,-1222.55"/>
<polygon fill="midnightblue" stroke="midnightblue" points="701.965,-1226.04 712.27,-1223.58 702.68,-1219.08 701.965,-1226.04"/>
</g>
<!-- Node128 -->
<g id="node26" class="node"><title>Node128</title>
<g id="a_node26"><a xlink:href="$classCoolTime.html#acd537cd4210d7bde4e1f5c47d2ac0456" xlink:title="CoolTime::formatDigits">
<polygon fill="white" stroke="black" points="726.5,-450.5 726.5,-469.5 844.5,-469.5 844.5,-450.5 726.5,-450.5"/>
<text text-anchor="middle" x="785.5" y="-457.5" font-family="Helvetica,sans-Serif" font-size="10.00">CoolTime::formatDigits</text>
</a>
</g>
</g>
<!-- Node127&#45;&gt;Node128 -->
<g id="edge26" class="edge"><title>Node127&#45;&gt;Node128</title>
<path fill="none" stroke="midnightblue" d="M636.938,-497.489C665.804,-490.155 705.92,-479.964 737.039,-472.058"/>
<polygon fill="midnightblue" stroke="midnightblue" points="737.971,-475.432 746.801,-469.578 736.247,-468.648 737.971,-475.432"/>
</g>
<!-- Node131 -->
<g id="node29" class="node"><title>Node131</title>
<g id="a_node29"><a xlink:href="$classCoolTime.html#a5ae038a4498602b189f76a10bf02adf8" xlink:title="CoolTime::isTimeSync">
<polygon fill="white" stroke="black" points="359,-0.5 359,-19.5 475,-19.5 475,-0.5 359,-0.5"/>
<text text-anchor="middle" x="417" y="-7.5" font-family="Helvetica,sans-Serif" font-size="10.00">CoolTime::isTimeSync</text>
</a>
</g>
</g>
<!-- Node130&#45;&gt;Node131 -->
<g id="edge31" class="edge"><title>Node130&#45;&gt;Node131</title>
<path fill="none" stroke="midnightblue" d="M278.805,-38.411C303.456,-33.3061 333.963,-26.9887 359.945,-21.6082"/>
<polygon fill="midnightblue" stroke="midnightblue" points="360.946,-24.9752 370.028,-19.5201 359.526,-18.1207 360.946,-24.9752"/>
</g>
<!-- Node133 -->
<g id="node31" class="node"><title>Node133</title>
<g id="a_node31"><a xlink:href="$classCoolTime.html#a41fbbbfd651c2079f54d4b2911e4c705" xlink:title="CoolTime::getNtpTime">
<polygon fill="white" stroke="black" points="359,-76.5 359,-95.5 475,-95.5 475,-76.5 359,-76.5"/>
<text text-anchor="middle" x="417" y="-83.5" font-family="Helvetica,sans-Serif" font-size="10.00">CoolTime::getNtpTime</text>
</a>
</g>
</g>
<!-- Node130&#45;&gt;Node133 -->
<g id="edge33" class="edge"><title>Node130&#45;&gt;Node133</title>
<path fill="none" stroke="midnightblue" d="M278.805,-57.589C303.456,-62.6939 333.963,-69.0113 359.945,-74.3918"/>
<polygon fill="midnightblue" stroke="midnightblue" points="359.526,-77.8793 370.028,-76.4799 360.946,-71.0248 359.526,-77.8793"/>
</g>
<!-- Node135 -->
<g id="node33" class="node"><title>Node135</title>
<g id="a_node33"><a xlink:href="$classCoolTime.html#ae9658c9b377510d469e3b88edf33ee85" xlink:title="CoolTime::saveTimeSync">
<polygon fill="white" stroke="black" points="352,-38.5 352,-57.5 482,-57.5 482,-38.5 352,-38.5"/>
<text text-anchor="middle" x="417" y="-45.5" font-family="Helvetica,sans-Serif" font-size="10.00">CoolTime::saveTimeSync</text>
</a>
</g>
</g>
<!-- Node130&#45;&gt;Node135 -->
<g id="edge35" class="edge"><title>Node130&#45;&gt;Node135</title>
<path fill="none" stroke="midnightblue" d="M278.805,-48C297.783,-48 320.232,-48 341.415,-48"/>
<polygon fill="midnightblue" stroke="midnightblue" points="341.692,-51.5001 351.692,-48 341.692,-44.5001 341.692,-51.5001"/>
</g>
<!-- Node132 -->
<g id="node30" class="node"><title>Node132</title>
<g id="a_node30"><a xlink:href="$classCoolTime.html#a5d17f707a9d337720493b2bce9d41c21" xlink:title="CoolTime::getLastSyncTime">
<polygon fill="white" stroke="black" points="528,-0.5 528,-19.5 669,-19.5 669,-0.5 528,-0.5"/>
<text text-anchor="middle" x="598.5" y="-7.5" font-family="Helvetica,sans-Serif" font-size="10.00">CoolTime::getLastSyncTime</text>
</a>
</g>
</g>
<!-- Node131&#45;&gt;Node132 -->
<g id="edge32" class="edge"><title>Node131&#45;&gt;Node132</title>
<path fill="none" stroke="midnightblue" d="M475.288,-10C488.746,-10 503.329,-10 517.578,-10"/>
<polygon fill="midnightblue" stroke="midnightblue" points="517.873,-13.5001 527.873,-10 517.873,-6.5001 517.873,-13.5001"/>
</g>
<!-- Node134 -->
<g id="node32" class="node"><title>Node134</title>
<g id="a_node32"><a xlink:href="$classCoolTime.html#a236a38d120dc53bc67456d763838c5a1" xlink:title="CoolTime::sendNTPpacket">
<polygon fill="white" stroke="black" points="531,-76.5 531,-95.5 666,-95.5 666,-76.5 531,-76.5"/>
<text text-anchor="middle" x="598.5" y="-83.5" font-family="Helvetica,sans-Serif" font-size="10.00">CoolTime::sendNTPpacket</text>
</a>
</g>
</g>
<!-- Node133&#45;&gt;Node134 -->
<g id="edge34" class="edge"><title>Node133&#45;&gt;Node134</title>
<path fill="none" stroke="midnightblue" d="M475.288,-86C489.627,-86 505.243,-86 520.371,-86"/>
<polygon fill="midnightblue" stroke="midnightblue" points="520.745,-89.5001 530.745,-86 520.745,-82.5001 520.745,-89.5001"/>
</g>
<!-- Node136&#45;&gt;Node107 -->
<g id="edge37" class="edge"><title>Node136&#45;&gt;Node107</title>
<path fill="none" stroke="midnightblue" d="M237.437,-772.672C257.586,-812.069 332.953,-958.665 342,-965 371.945,-985.967 467.369,-995.64 532.729,-999.901"/>
<polygon fill="midnightblue" stroke="midnightblue" points="532.748,-1003.41 542.947,-1000.54 533.184,-996.422 532.748,-1003.41"/>
</g>
<!-- Node136&#45;&gt;Node108 -->
<g id="edge59" class="edge"><title>Node136&#45;&gt;Node108</title>
<path fill="none" stroke="midnightblue" d="M233.6,-753.298C238.335,-716.659 260.601,-586.207 342,-535 372.228,-515.984 465.381,-524.821 530.425,-534.011"/>
<polygon fill="midnightblue" stroke="midnightblue" points="530.21,-537.516 540.609,-535.485 531.213,-530.589 530.21,-537.516"/>
</g>
<!-- Node136&#45;&gt;Node112 -->
<g id="edge57" class="edge"><title>Node136&#45;&gt;Node112</title>
<path fill="none" stroke="midnightblue" d="M232.731,-772.735C234.302,-815.821 246.546,-991.09 342,-1079 345.128,-1081.88 348.634,-1084.34 352.373,-1086.43"/>
<polygon fill="midnightblue" stroke="midnightblue" points="350.914,-1089.61 361.454,-1090.69 353.885,-1083.28 350.914,-1089.61"/>
</g>
<!-- Node136&#45;&gt;Node113 -->
<g id="edge56" class="edge"><title>Node136&#45;&gt;Node113</title>
<path fill="none" stroke="midnightblue" d="M238.38,-772.806C251.877,-795.645 285.491,-854.443 306,-907 327.638,-962.452 300.792,-993.046 342,-1036 346.357,-1040.54 351.579,-1044.22 357.207,-1047.21"/>
<polygon fill="midnightblue" stroke="midnightblue" points="355.768,-1050.4 366.319,-1051.36 358.666,-1044.03 355.768,-1050.4"/>
</g>
<!-- Node136&#45;&gt;Node116 -->
<g id="edge58" class="edge"><title>Node136&#45;&gt;Node116</title>
<path fill="none" stroke="midnightblue" d="M237.762,-772.646C250.22,-795.622 282.254,-855.514 306,-907 323.526,-944.999 310.419,-966.545 342,-994 357.138,-1007.16 471.145,-1033.2 541.658,-1048.34"/>
<polygon fill="midnightblue" stroke="midnightblue" points="541.219,-1051.83 551.729,-1050.5 542.681,-1044.98 541.219,-1051.83"/>
</g>
<!-- Node137 -->
<g id="node35" class="node"><title>Node137</title>
<g id="a_node35"><a xlink:href="$classCoolFileSystem.html#a32dad79ae80182a83e2e8f52286b7c7b" xlink:title="CoolFileSystem::updateConfig\lFiles">
<polygon fill="white" stroke="black" points="342,-887 342,-917 492,-917 492,-887 342,-887"/>
<text text-anchor="start" x="350" y="-905" font-family="Helvetica,sans-Serif" font-size="10.00">CoolFileSystem::updateConfig</text>
<text text-anchor="middle" x="417" y="-894" font-family="Helvetica,sans-Serif" font-size="10.00">Files</text>
</a>
</g>
</g>
<!-- Node136&#45;&gt;Node137 -->
<g id="edge38" class="edge"><title>Node136&#45;&gt;Node137</title>
<path fill="none" stroke="midnightblue" d="M239.275,-772.756C254.894,-794.55 295.664,-847.583 342,-877 345.163,-879.008 348.504,-880.873 351.95,-882.604"/>
<polygon fill="midnightblue" stroke="midnightblue" points="350.712,-885.887 361.26,-886.875 353.63,-879.524 350.712,-885.887"/>
</g>
<!-- Node138 -->
<g id="node36" class="node"><title>Node138</title>
<g id="a_node36"><a xlink:href="$classCoolBoard.html#a583a874c09c07e70a6eb9229fc4beddb" xlink:title="CoolBoard::config">
<polygon fill="white" stroke="red" points="369.5,-544.5 369.5,-563.5 464.5,-563.5 464.5,-544.5 369.5,-544.5"/>
<text text-anchor="middle" x="417" y="-551.5" font-family="Helvetica,sans-Serif" font-size="10.00">CoolBoard::config</text>
</a>
</g>
</g>
<!-- Node136&#45;&gt;Node138 -->
<g id="edge39" class="edge"><title>Node136&#45;&gt;Node138</title>
<path fill="none" stroke="midnightblue" d="M235.136,-753.315C244.194,-721.942 277.123,-622.284 342,-573 347.198,-569.051 353.133,-565.918 359.329,-563.434"/>
<polygon fill="midnightblue" stroke="midnightblue" points="360.892,-566.598 369.213,-560.039 358.618,-559.977 360.892,-566.598"/>
</g>
<!-- Node141 -->
<g id="node38" class="node"><title>Node141</title>
<g id="a_node38"><a xlink:href="$classCoolBoardLed.html#a1b60e5e30bea96c49ed62ed1bf1ffc8b" xlink:title="CoolBoardLed::config">
<polygon fill="white" stroke="black" points="543.5,-459.5 543.5,-478.5 653.5,-478.5 653.5,-459.5 543.5,-459.5"/>
<text text-anchor="middle" x="598.5" y="-466.5" font-family="Helvetica,sans-Serif" font-size="10.00">CoolBoardLed::config</text>
</a>
</g>
</g>
<!-- Node136&#45;&gt;Node141 -->
<g id="edge48" class="edge"><title>Node136&#45;&gt;Node141</title>
<path fill="none" stroke="midnightblue" d="M233.697,-753.446C238.837,-716.683 262.528,-583.25 342,-520 396.225,-476.843 477.062,-467.077 533.233,-466.191"/>
<polygon fill="midnightblue" stroke="midnightblue" points="533.447,-469.69 543.423,-466.123 533.4,-462.69 533.447,-469.69"/>
</g>
<!-- Node142 -->
<g id="node39" class="node"><title>Node142</title>
<g id="a_node39"><a xlink:href="$classCoolBoardSensors.html#a9a218895c5423375c33c08f2c56fb23a" xlink:title="CoolBoardSensors::config">
<polygon fill="white" stroke="black" points="351.5,-848.5 351.5,-867.5 482.5,-867.5 482.5,-848.5 351.5,-848.5"/>
<text text-anchor="middle" x="417" y="-855.5" font-family="Helvetica,sans-Serif" font-size="10.00">CoolBoardSensors::config</text>
</a>
</g>
</g>
<!-- Node136&#45;&gt;Node142 -->
<g id="edge46" class="edge"><title>Node136&#45;&gt;Node142</title>
<path fill="none" stroke="midnightblue" d="M243.5,-772.664C262.36,-788.744 302.649,-820.999 342,-839 347.332,-841.439 353.028,-843.602 358.805,-845.512"/>
<polygon fill="midnightblue" stroke="midnightblue" points="357.966,-848.915 368.552,-848.491 360.012,-842.221 357.966,-848.915"/>
</g>
<!-- Node143 -->
<g id="node40" class="node"><title>Node143</title>
<g id="a_node40"><a xlink:href="$classCoolTime.html#a87c28260c1bc77091162cbcf1ee2e129" xlink:title="CoolTime::config">
<polygon fill="white" stroke="black" points="371.5,-810.5 371.5,-829.5 462.5,-829.5 462.5,-810.5 371.5,-810.5"/>
<text text-anchor="middle" x="417" y="-817.5" font-family="Helvetica,sans-Serif" font-size="10.00">CoolTime::config</text>
</a>
</g>
</g>
<!-- Node136&#45;&gt;Node143 -->
<g id="edge47" class="edge"><title>Node136&#45;&gt;Node143</title>
<path fill="none" stroke="midnightblue" d="M257.969,-772.51C280.038,-780.588 312.907,-792.233 342,-801 349.855,-803.367 358.234,-805.699 366.425,-807.876"/>
<polygon fill="midnightblue" stroke="midnightblue" points="365.717,-811.308 376.276,-810.445 367.483,-804.534 365.717,-811.308"/>
</g>
<!-- Node144 -->
<g id="node41" class="node"><title>Node144</title>
<g id="a_node41"><a xlink:href="$classCoolWifi.html#a4eb2f6b9b09dd588964b88b6c70122c0" xlink:title="CoolWifi::config">
<polygon fill="white" stroke="black" points="374,-772.5 374,-791.5 460,-791.5 460,-772.5 374,-772.5"/>
<text text-anchor="middle" x="417" y="-779.5" font-family="Helvetica,sans-Serif" font-size="10.00">CoolWifi::config</text>
</a>
</g>
</g>
<!-- Node136&#45;&gt;Node144 -->
<g id="edge49" class="edge"><title>Node136&#45;&gt;Node144</title>
<path fill="none" stroke="midnightblue" d="M280.712,-767.992C306.211,-770.632 337.549,-773.877 363.641,-776.579"/>
<polygon fill="midnightblue" stroke="midnightblue" points="363.421,-780.075 373.729,-777.623 364.142,-773.112 363.421,-780.075"/>
</g>
<!-- Node145 -->
<g id="node42" class="node"><title>Node145</title>
<g id="a_node42"><a xlink:href="$classCoolMQTT.html#a9b703de4f1358f0ee7a5e8c44979c648" xlink:title="CoolMQTT::config">
<polygon fill="white" stroke="black" points="368.5,-734.5 368.5,-753.5 465.5,-753.5 465.5,-734.5 368.5,-734.5"/>
<text text-anchor="middle" x="417" y="-741.5" font-family="Helvetica,sans-Serif" font-size="10.00">CoolMQTT::config</text>
</a>
</g>
</g>
<!-- Node136&#45;&gt;Node145 -->
<g id="edge50" class="edge"><title>Node136&#45;&gt;Node145</title>
<path fill="none" stroke="midnightblue" d="M280.712,-758.008C304.511,-755.544 333.398,-752.553 358.358,-749.968"/>
<polygon fill="midnightblue" stroke="midnightblue" points="358.841,-753.437 368.427,-748.926 358.12,-746.474 358.841,-753.437"/>
</g>
<!-- Node146 -->
<g id="node43" class="node"><title>Node146</title>
<g id="a_node43"><a xlink:href="$classJetpack.html#ab065ee83e244265a2223a22f3ee4a719" xlink:title="Jetpack::config">
<polygon fill="white" stroke="black" points="375.5,-696.5 375.5,-715.5 458.5,-715.5 458.5,-696.5 375.5,-696.5"/>
<text text-anchor="middle" x="417" y="-703.5" font-family="Helvetica,sans-Serif" font-size="10.00">Jetpack::config</text>
</a>
</g>
</g>
<!-- Node136&#45;&gt;Node146 -->
<g id="edge51" class="edge"><title>Node136&#45;&gt;Node146</title>
<path fill="none" stroke="midnightblue" d="M257.969,-753.49C280.038,-745.412 312.907,-733.767 342,-725 349.855,-722.633 358.234,-720.301 366.425,-718.124"/>
<polygon fill="midnightblue" stroke="midnightblue" points="367.483,-721.466 376.276,-715.555 365.717,-714.692 367.483,-721.466"/>
</g>
<!-- Node147 -->
<g id="node44" class="node"><title>Node147</title>
<g id="a_node44"><a xlink:href="$classIrene3000.html#afed5c35e4b23963c157847ef27c11e9c" xlink:title="Irene3000::config">
<polygon fill="white" stroke="red" points="371,-658.5 371,-677.5 463,-677.5 463,-658.5 371,-658.5"/>
<text text-anchor="middle" x="417" y="-665.5" font-family="Helvetica,sans-Serif" font-size="10.00">Irene3000::config</text>
</a>
</g>
</g>
<!-- Node136&#45;&gt;Node147 -->
<g id="edge52" class="edge"><title>Node136&#45;&gt;Node147</title>
<path fill="none" stroke="midnightblue" d="M243.5,-753.336C262.36,-737.256 302.649,-705.001 342,-687 348.078,-684.22 354.63,-681.798 361.235,-679.701"/>
<polygon fill="midnightblue" stroke="midnightblue" points="362.294,-683.038 370.9,-676.857 360.318,-676.322 362.294,-683.038"/>
</g>
<!-- Node149 -->
<g id="node45" class="node"><title>Node149</title>
<g id="a_node45"><a xlink:href="$classExternalSensors.html#a862a4bd11346b37270d0244c2adabe5a" xlink:title="ExternalSensors::config">
<polygon fill="white" stroke="black" points="356.5,-620.5 356.5,-639.5 477.5,-639.5 477.5,-620.5 356.5,-620.5"/>
<text text-anchor="middle" x="417" y="-627.5" font-family="Helvetica,sans-Serif" font-size="10.00">ExternalSensors::config</text>
</a>
</g>
</g>
<!-- Node136&#45;&gt;Node149 -->
<g id="edge53" class="edge"><title>Node136&#45;&gt;Node149</title>
<path fill="none" stroke="midnightblue" d="M238.895,-753.326C254.028,-731.227 294.364,-676.81 342,-649 345.841,-646.758 349.945,-644.777 354.178,-643.027"/>
<polygon fill="midnightblue" stroke="midnightblue" points="355.425,-646.298 363.597,-639.555 353.004,-639.73 355.425,-646.298"/>
</g>
<!-- Node150 -->
<g id="node46" class="node"><title>Node150</title>
<g id="a_node46"><a xlink:href="$classCoolWifi.html#a46942fed90e475112cc10b78a32e7aaa" xlink:title="CoolWifi::begin">
<polygon fill="white" stroke="black" points="375.5,-582.5 375.5,-601.5 458.5,-601.5 458.5,-582.5 375.5,-582.5"/>
<text text-anchor="middle" x="417" y="-589.5" font-family="Helvetica,sans-Serif" font-size="10.00">CoolWifi::begin</text>
</a>
</g>
</g>
<!-- Node136&#45;&gt;Node150 -->
<g id="edge54" class="edge"><title>Node136&#45;&gt;Node150</title>
<path fill="none" stroke="midnightblue" d="M236.54,-753.386C248.401,-726.382 285.857,-649.32 342,-611 349.087,-606.163 357.317,-602.557 365.66,-599.869"/>
<polygon fill="midnightblue" stroke="midnightblue" points="366.766,-603.194 375.445,-597.117 364.871,-596.456 366.766,-603.194"/>
</g>
<!-- Node151 -->
<g id="node47" class="node"><title>Node151</title>
<g id="a_node47"><a xlink:href="$classCoolMQTT.html#ac9248808641ebf3054ed0620ea9d0100" xlink:title="CoolMQTT::begin">
<polygon fill="white" stroke="red" points="370,-936.5 370,-955.5 464,-955.5 464,-936.5 370,-936.5"/>
<text text-anchor="middle" x="417" y="-943.5" font-family="Helvetica,sans-Serif" font-size="10.00">CoolMQTT::begin</text>
</a>
</g>
</g>
<!-- Node136&#45;&gt;Node151 -->
<g id="edge55" class="edge"><title>Node136&#45;&gt;Node151</title>
<path fill="none" stroke="midnightblue" d="M235.998,-772.548C246.895,-800.901 283.07,-885.222 342,-927 347.525,-930.917 353.79,-934.028 360.281,-936.497"/>
<polygon fill="midnightblue" stroke="midnightblue" points="359.297,-939.858 369.89,-939.676 361.496,-933.213 359.297,-939.858"/>
</g>
<!-- Node138&#45;&gt;Node103 -->
<g id="edge41" class="edge"><title>Node138&#45;&gt;Node103</title>
<path fill="none" stroke="midnightblue" d="M426.417,-544.434C454.56,-512.45 545.658,-408.918 582.163,-367.43"/>
<polygon fill="midnightblue" stroke="midnightblue" points="584.914,-369.602 588.892,-359.782 579.659,-364.978 584.914,-369.602"/>
</g>
<!-- Node138&#45;&gt;Node107 -->
<g id="edge43" class="edge"><title>Node138&#45;&gt;Node107</title>
<path fill="none" stroke="midnightblue" d="M464.639,-558.006C474.762,-560.89 484.63,-565.551 492,-573 551.391,-633.032 586.55,-906.775 595.322,-983.157"/>
<polygon fill="midnightblue" stroke="midnightblue" points="591.868,-983.758 596.465,-993.304 598.824,-982.975 591.868,-983.758"/>
</g>
<!-- Node138&#45;&gt;Node108 -->
<g id="edge44" class="edge"><title>Node138&#45;&gt;Node108</title>
<path fill="none" stroke="midnightblue" d="M464.693,-551.659C484.242,-550.679 507.363,-549.519 528.789,-548.445"/>
<polygon fill="midnightblue" stroke="midnightblue" points="529.008,-551.939 538.82,-547.942 528.657,-544.947 529.008,-551.939"/>
</g>
<!-- Node138&#45;&gt;Node116 -->
<g id="edge45" class="edge"><title>Node138&#45;&gt;Node116</title>
<path fill="none" stroke="midnightblue" d="M464.763,-556.975C475.132,-559.861 485.081,-564.781 492,-573 556.465,-649.576 473.544,-938.011 528,-1022 534.838,-1032.55 545.654,-1040.41 556.735,-1046.15"/>
<polygon fill="midnightblue" stroke="midnightblue" points="555.482,-1049.43 566.023,-1050.5 558.447,-1043.09 555.482,-1049.43"/>
</g>
<!-- Node139 -->
<g id="node37" class="node"><title>Node139</title>
<g id="a_node37"><a xlink:href="$classCoolFileSystem.html#a6ba6f666ed4c530174f8569d2c636748" xlink:title="CoolFileSystem::begin">
<polygon fill="white" stroke="black" points="540.5,-573.5 540.5,-592.5 656.5,-592.5 656.5,-573.5 540.5,-573.5"/>
<text text-anchor="middle" x="598.5" y="-580.5" font-family="Helvetica,sans-Serif" font-size="10.00">CoolFileSystem::begin</text>
</a>
</g>
</g>
<!-- Node138&#45;&gt;Node139 -->
<g id="edge40" class="edge"><title>Node138&#45;&gt;Node139</title>
<path fill="none" stroke="midnightblue" d="M464.693,-561.544C484.781,-564.789 508.64,-568.644 530.557,-572.185"/>
<polygon fill="midnightblue" stroke="midnightblue" points="530.039,-575.646 540.469,-573.786 531.155,-568.736 530.039,-575.646"/>
</g>
<!-- Node138&#45;&gt;Node141 -->
<g id="edge42" class="edge"><title>Node138&#45;&gt;Node141</title>
<path fill="none" stroke="midnightblue" d="M431.247,-544.402C451.29,-530.27 490.929,-503.833 528,-488 533.527,-485.639 539.428,-483.496 545.367,-481.57"/>
<polygon fill="midnightblue" stroke="midnightblue" points="546.79,-484.796 555.339,-478.537 544.753,-478.099 546.79,-484.796"/>
</g>
<!-- Node154 -->
<g id="node49" class="node"><title>Node154</title>
<g id="a_node49"><a xlink:href="$classCoolMQTT.html#a373cc92fca7760d886f02d8a6e5b3f63" xlink:title="CoolMQTT::getUser">
<polygon fill="white" stroke="black" points="364.5,-354.5 364.5,-373.5 469.5,-373.5 469.5,-354.5 364.5,-354.5"/>
<text text-anchor="middle" x="417" y="-361.5" font-family="Helvetica,sans-Serif" font-size="10.00">CoolMQTT::getUser</text>
</a>
</g>
</g>
<!-- Node153&#45;&gt;Node154 -->
<g id="edge61" class="edge"><title>Node153&#45;&gt;Node154</title>
<path fill="none" stroke="midnightblue" d="M278.805,-392.411C303.456,-387.306 333.963,-380.989 359.945,-375.608"/>
<polygon fill="midnightblue" stroke="midnightblue" points="360.946,-378.975 370.028,-373.52 359.526,-372.121 360.946,-378.975"/>
</g>
<!-- Node155 -->
<g id="node50" class="node"><title>Node155</title>
<g id="a_node50"><a xlink:href="$classCoolTime.html#ac4f32ee513c1328d984306645e8785a4" xlink:title="CoolTime::getESDate">
<polygon fill="white" stroke="black" points="360.5,-392.5 360.5,-411.5 473.5,-411.5 473.5,-392.5 360.5,-392.5"/>
<text text-anchor="middle" x="417" y="-399.5" font-family="Helvetica,sans-Serif" font-size="10.00">CoolTime::getESDate</text>
</a>
</g>
</g>
<!-- Node153&#45;&gt;Node155 -->
<g id="edge62" class="edge"><title>Node153&#45;&gt;Node155</title>
<path fill="none" stroke="midnightblue" d="M285.576,-402C305.77,-402 329.023,-402 350.252,-402"/>
<polygon fill="midnightblue" stroke="midnightblue" points="350.489,-405.5 360.489,-402 350.489,-398.5 350.489,-405.5"/>
</g>
<!-- Node155&#45;&gt;Node127 -->
<g id="edge63" class="edge"><title>Node155&#45;&gt;Node127</title>
<path fill="none" stroke="midnightblue" d="M465.233,-411.624C474.759,-415.068 484.223,-419.722 492,-426 516.793,-446.015 502.746,-468.57 528,-488 530.449,-489.884 533.073,-491.582 535.814,-493.111"/>
<polygon fill="midnightblue" stroke="midnightblue" points="534.37,-496.3 544.903,-497.445 537.383,-489.982 534.37,-496.3"/>
</g>
<!-- Node155&#45;&gt;Node128 -->
<g id="edge64" class="edge"><title>Node155&#45;&gt;Node128</title>
<path fill="none" stroke="midnightblue" d="M473.663,-410.809C538.747,-421.109 646.458,-438.154 716.45,-449.231"/>
<polygon fill="midnightblue" stroke="midnightblue" points="716.069,-452.714 726.493,-450.82 717.163,-445.8 716.069,-452.714"/>
</g>
</g>
</svg>
