<?xml version="1.0" encoding="UTF-8" standalone="no"?>
<!DOCTYPE svg PUBLIC "-//W3C//DTD SVG 1.1//EN"
 "http://www.w3.org/Graphics/SVG/1.1/DTD/svg11.dtd">
<!-- Generated by graphviz version 2.38.0 (20140413.2041)
 -->
<!-- Title: CoolTime::update Pages: 1 -->
<svg width="260pt" height="66pt"
 viewBox="0.00 0.00 260.00 66.00" xmlns="http://www.w3.org/2000/svg" xmlns:xlink="http://www.w3.org/1999/xlink">
<g id="graph0" class="graph" transform="scale(1 1) rotate(0) translate(4 62)">
<title>CoolTime::update</title>
<polygon fill="white" stroke="none" points="-4,4 -4,-62 256,-62 256,4 -4,4"/>
<!-- Node62 -->
<g id="node1" class="node"><title>Node62</title>
<polygon fill="#bfbfbf" stroke="black" points="0,-19.5 0,-38.5 94,-38.5 94,-19.5 0,-19.5"/>
<text text-anchor="middle" x="47" y="-26.5" font-family="Helvetica,sans-Serif" font-size="10.00">CoolTime::update</text>
</g>
<!-- Node63 -->
<g id="node2" class="node"><title>Node63</title>
<g id="a_node2"><a xlink:href="$class_cool_board.html#ae6b5e1274d760462290192acea4adca8" xlink:title="CoolBoard::offLineMode">
<polygon fill="white" stroke="black" points="130,-38.5 130,-57.5 252,-57.5 252,-38.5 130,-38.5"/>
<text text-anchor="middle" x="191" y="-45.5" font-family="Helvetica,sans-Serif" font-size="10.00">CoolBoard::offLineMode</text>
</a>
</g>
</g>
<!-- Node62&#45;&gt;Node63 -->
<g id="edge1" class="edge"><title>Node62&#45;&gt;Node63</title>
<path fill="none" stroke="midnightblue" d="M104.218,-36.5221C112.656,-37.6512 121.387,-38.8193 129.902,-39.9587"/>
<polygon fill="midnightblue" stroke="midnightblue" points="104.479,-33.026 94.1033,-35.1688 103.551,-39.9641 104.479,-33.026"/>
</g>
<!-- Node64 -->
<g id="node3" class="node"><title>Node64</title>
<g id="a_node3"><a xlink:href="$class_cool_board.html#aa0bbc4bc605e35618d18e68795c61363" xlink:title="CoolBoard::onLineMode">
<polygon fill="white" stroke="black" points="130.5,-0.5 130.5,-19.5 251.5,-19.5 251.5,-0.5 130.5,-0.5"/>
<text text-anchor="middle" x="191" y="-7.5" font-family="Helvetica,sans-Serif" font-size="10.00">CoolBoard::onLineMode</text>
</a>
</g>
</g>
<!-- Node62&#45;&gt;Node64 -->
<g id="edge2" class="edge"><title>Node62&#45;&gt;Node64</title>
<path fill="none" stroke="midnightblue" d="M104.082,-21.4961C112.731,-20.3388 121.689,-19.1402 130.412,-17.9731"/>
<polygon fill="midnightblue" stroke="midnightblue" points="103.551,-18.0359 94.1033,-22.8312 104.479,-24.974 103.551,-18.0359"/>
</g>
</g>
</svg>
