<?xml version="1.0" encoding="UTF-8" standalone="no"?>
<!DOCTYPE svg PUBLIC "-//W3C//DTD SVG 1.1//EN"
 "http://www.w3.org/Graphics/SVG/1.1/DTD/svg11.dtd">
<!-- Generated by graphviz version 2.38.0 (20140413.2041)
 -->
<!-- Title: CoolBoard::onLineMode Pages: 1 -->
<svg width="662pt" height="752pt"
 viewBox="0.00 0.00 662.00 752.00" xmlns="http://www.w3.org/2000/svg" xmlns:xlink="http://www.w3.org/1999/xlink">
<g id="graph0" class="graph" transform="scale(1 1) rotate(0) translate(4 748)">
<title>CoolBoard::onLineMode</title>
<polygon fill="white" stroke="none" points="-4,4 -4,-748 658,-748 658,4 -4,4"/>
<!-- Node60 -->
<g id="node1" class="node"><title>Node60</title>
<polygon fill="#bfbfbf" stroke="black" points="0,-572.5 0,-591.5 121,-591.5 121,-572.5 0,-572.5"/>
<text text-anchor="middle" x="60.5" y="-579.5" font-family="Helvetica,sans-Serif" font-size="10.00">CoolBoard::onLineMode</text>
</g>
<!-- Node61 -->
<g id="node2" class="node"><title>Node61</title>
<g id="a_node2"><a xlink:href="$classJetpack.html#a86d2e83436ef4b85f4c3a6e85ac785b0" xlink:title="Jetpack::doAction">
<polygon fill="white" stroke="black" points="171,-724.5 171,-743.5 266,-743.5 266,-724.5 171,-724.5"/>
<text text-anchor="middle" x="218.5" y="-731.5" font-family="Helvetica,sans-Serif" font-size="10.00">Jetpack::doAction</text>
</a>
</g>
</g>
<!-- Node60&#45;&gt;Node61 -->
<g id="edge1" class="edge"><title>Node60&#45;&gt;Node61</title>
<path fill="none" stroke="midnightblue" d="M65.7385,-591.666C76.9473,-616.106 109.782,-680.848 157,-715 159.676,-716.936 162.556,-718.678 165.555,-720.247"/>
<polygon fill="midnightblue" stroke="midnightblue" points="164.272,-723.508 174.825,-724.45 167.162,-717.133 164.272,-723.508"/>
</g>
<!-- Node63 -->
<g id="node4" class="node"><title>Node63</title>
<g id="a_node4"><a xlink:href="$classCoolMQTT.html#aa5eaae967b562b62cbcf2b8d81f6e5d5" xlink:title="CoolMQTT::mqttLoop">
<polygon fill="white" stroke="black" points="163,-686.5 163,-705.5 274,-705.5 274,-686.5 163,-686.5"/>
<text text-anchor="middle" x="218.5" y="-693.5" font-family="Helvetica,sans-Serif" font-size="10.00">CoolMQTT::mqttLoop</text>
</a>
</g>
</g>
<!-- Node60&#45;&gt;Node63 -->
<g id="edge3" class="edge"><title>Node60&#45;&gt;Node63</title>
<path fill="none" stroke="midnightblue" d="M68.5345,-591.594C82.9887,-610.64 117.969,-653.416 157,-677 160.453,-679.086 164.156,-680.964 167.968,-682.651"/>
<polygon fill="midnightblue" stroke="midnightblue" points="167,-686.032 177.586,-686.461 169.578,-679.524 167,-686.032"/>
</g>
<!-- Node64 -->
<g id="node5" class="node"><title>Node64</title>
<g id="a_node5"><a xlink:href="$classCoolMQTT.html#ace977b3e90ab14b1199fe5c4fb0a13ec" xlink:title="CoolMQTT::publish">
<polygon fill="white" stroke="black" points="168,-648.5 168,-667.5 269,-667.5 269,-648.5 168,-648.5"/>
<text text-anchor="middle" x="218.5" y="-655.5" font-family="Helvetica,sans-Serif" font-size="10.00">CoolMQTT::publish</text>
</a>
</g>
</g>
<!-- Node60&#45;&gt;Node64 -->
<g id="edge4" class="edge"><title>Node60&#45;&gt;Node64</title>
<path fill="none" stroke="midnightblue" d="M75.1806,-591.57C93.2395,-603.868 126.34,-625.264 157,-639 161.961,-641.222 167.258,-643.294 172.579,-645.191"/>
<polygon fill="midnightblue" stroke="midnightblue" points="171.517,-648.527 182.111,-648.411 173.757,-641.895 171.517,-648.527"/>
</g>
<!-- Node65 -->
<g id="node6" class="node"><title>Node65</title>
<g id="a_node6"><a xlink:href="$classCoolMQTT.html#ae3c18f6ae9723746d32765f1c8f176ca" xlink:title="CoolMQTT::read">
<polygon fill="white" stroke="black" points="174,-610.5 174,-629.5 263,-629.5 263,-610.5 174,-610.5"/>
<text text-anchor="middle" x="218.5" y="-617.5" font-family="Helvetica,sans-Serif" font-size="10.00">CoolMQTT::read</text>
</a>
</g>
</g>
<!-- Node60&#45;&gt;Node65 -->
<g id="edge5" class="edge"><title>Node60&#45;&gt;Node65</title>
<path fill="none" stroke="midnightblue" d="M100.865,-591.589C121.451,-596.604 146.84,-602.788 168.669,-608.105"/>
<polygon fill="midnightblue" stroke="midnightblue" points="167.873,-611.514 178.418,-610.48 169.53,-604.713 167.873,-611.514"/>
</g>
<!-- Node66 -->
<g id="node7" class="node"><title>Node66</title>
<g id="a_node7"><a xlink:href="$classExternalSensors.html#a53177b81eca3be89508b5511ddcd00fc" xlink:title="ExternalSensors::read">
<polygon fill="white" stroke="black" points="162,-572.5 162,-591.5 275,-591.5 275,-572.5 162,-572.5"/>
<text text-anchor="middle" x="218.5" y="-579.5" font-family="Helvetica,sans-Serif" font-size="10.00">ExternalSensors::read</text>
</a>
</g>
</g>
<!-- Node60&#45;&gt;Node66 -->
<g id="edge6" class="edge"><title>Node60&#45;&gt;Node66</title>
<path fill="none" stroke="midnightblue" d="M121.368,-582C131.356,-582 141.765,-582 151.888,-582"/>
<polygon fill="midnightblue" stroke="midnightblue" points="151.889,-585.5 161.889,-582 151.889,-578.5 151.889,-585.5"/>
</g>
<!-- Node67 -->
<g id="node8" class="node"><title>Node67</title>
<g id="a_node8"><a xlink:href="$classCoolBoardSensors.html#a91badb2539d91fda8679f2a597874c48" xlink:title="CoolBoardSensors::read">
<polygon fill="white" stroke="black" points="157,-534.5 157,-553.5 280,-553.5 280,-534.5 157,-534.5"/>
<text text-anchor="middle" x="218.5" y="-541.5" font-family="Helvetica,sans-Serif" font-size="10.00">CoolBoardSensors::read</text>
</a>
</g>
</g>
<!-- Node60&#45;&gt;Node67 -->
<g id="edge7" class="edge"><title>Node60&#45;&gt;Node67</title>
<path fill="none" stroke="midnightblue" d="M100.865,-572.411C121.451,-567.396 146.84,-561.212 168.669,-555.895"/>
<polygon fill="midnightblue" stroke="midnightblue" points="169.53,-559.287 178.418,-553.52 167.873,-552.486 169.53,-559.287"/>
</g>
<!-- Node71 -->
<g id="node12" class="node"><title>Node71</title>
<g id="a_node12"><a xlink:href="$classIrene3000.html#a852a170feea994ea1df01c6b245b5d9a" xlink:title="Irene3000::read">
<polygon fill="white" stroke="black" points="176.5,-477.5 176.5,-496.5 260.5,-496.5 260.5,-477.5 176.5,-477.5"/>
<text text-anchor="middle" x="218.5" y="-484.5" font-family="Helvetica,sans-Serif" font-size="10.00">Irene3000::read</text>
</a>
</g>
</g>
<!-- Node60&#45;&gt;Node71 -->
<g id="edge11" class="edge"><title>Node60&#45;&gt;Node71</title>
<path fill="none" stroke="midnightblue" d="M77.3166,-572.368C104.53,-555.796 160.4,-521.772 192.787,-502.049"/>
<polygon fill="midnightblue" stroke="midnightblue" points="194.921,-504.848 201.642,-496.657 191.28,-498.869 194.921,-504.848"/>
</g>
<!-- Node76 -->
<g id="node17" class="node"><title>Node76</title>
<g id="a_node17"><a xlink:href="$classCoolTime.html#aae601f795452cfa48d9fb337aed483a8" xlink:title="CoolTime::update">
<polygon fill="white" stroke="black" points="171.5,-392.5 171.5,-411.5 265.5,-411.5 265.5,-392.5 171.5,-392.5"/>
<text text-anchor="middle" x="218.5" y="-399.5" font-family="Helvetica,sans-Serif" font-size="10.00">CoolTime::update</text>
</a>
</g>
</g>
<!-- Node60&#45;&gt;Node76 -->
<g id="edge18" class="edge"><title>Node60&#45;&gt;Node76</title>
<path fill="none" stroke="midnightblue" d="M69.2823,-572.42C85.385,-552.664 123.646,-506.057 157,-468 171.763,-451.156 189.074,-432.364 201.388,-419.153"/>
<polygon fill="midnightblue" stroke="midnightblue" points="204.068,-421.411 208.342,-411.716 198.955,-416.63 204.068,-421.411"/>
</g>
<!-- Node81 -->
<g id="node22" class="node"><title>Node81</title>
<g id="a_node22"><a xlink:href="$classCoolBoard.html#a8612756d3f73198cdde857a66f0fe690" xlink:title="CoolBoard::update">
<polygon fill="white" stroke="black" points="169.5,-171.5 169.5,-190.5 267.5,-190.5 267.5,-171.5 169.5,-171.5"/>
<text text-anchor="middle" x="218.5" y="-178.5" font-family="Helvetica,sans-Serif" font-size="10.00">CoolBoard::update</text>
</a>
</g>
</g>
<!-- Node60&#45;&gt;Node81 -->
<g id="edge23" class="edge"><title>Node60&#45;&gt;Node81</title>
<path fill="none" stroke="midnightblue" d="M65.2023,-572.483C85.3904,-520.589 182.295,-271.494 210.054,-200.139"/>
<polygon fill="midnightblue" stroke="midnightblue" points="213.399,-201.194 213.763,-190.606 206.876,-198.656 213.399,-201.194"/>
</g>
<!-- Node62 -->
<g id="node3" class="node"><title>Node62</title>
<g id="a_node3"><a xlink:href="$classJetpack.html#a338f1af8cbc6504ac69b47c7328569b5" xlink:title="Jetpack::write">
<polygon fill="white" stroke="black" points="357.5,-724.5 357.5,-743.5 435.5,-743.5 435.5,-724.5 357.5,-724.5"/>
<text text-anchor="middle" x="396.5" y="-731.5" font-family="Helvetica,sans-Serif" font-size="10.00">Jetpack::write</text>
</a>
</g>
</g>
<!-- Node61&#45;&gt;Node62 -->
<g id="edge2" class="edge"><title>Node61&#45;&gt;Node62</title>
<path fill="none" stroke="midnightblue" d="M266.203,-734C291.264,-734 322.105,-734 347.38,-734"/>
<polygon fill="midnightblue" stroke="midnightblue" points="347.48,-737.5 357.48,-734 347.48,-730.5 347.48,-737.5"/>
</g>
<!-- Node68 -->
<g id="node9" class="node"><title>Node68</title>
<g id="a_node9"><a xlink:href="$classCoolBoardSensors.html#acad6a8418c66d36868caca23c844ecb6" xlink:title="CoolBoardSensors::initReadI2C">
<polygon fill="white" stroke="black" points="318.5,-620.5 318.5,-639.5 474.5,-639.5 474.5,-620.5 318.5,-620.5"/>
<text text-anchor="middle" x="396.5" y="-627.5" font-family="Helvetica,sans-Serif" font-size="10.00">CoolBoardSensors::initReadI2C</text>
</a>
</g>
</g>
<!-- Node67&#45;&gt;Node68 -->
<g id="edge8" class="edge"><title>Node67&#45;&gt;Node68</title>
<path fill="none" stroke="midnightblue" d="M261.789,-553.526C268.213,-556.012 274.518,-559.121 280,-563 301.768,-578.403 293.708,-596.365 316,-611 319.151,-613.069 322.504,-614.913 325.983,-616.556"/>
<polygon fill="midnightblue" stroke="midnightblue" points="324.856,-619.877 335.435,-620.456 327.526,-613.407 324.856,-619.877"/>
</g>
<!-- Node69 -->
<g id="node10" class="node"><title>Node69</title>
<g id="a_node10"><a xlink:href="$classCoolBoardSensors.html#a6944b6ea7bce8e2fce1b434acfd9d5f3" xlink:title="CoolBoardSensors::readVBat">
<polygon fill="white" stroke="black" points="324,-582.5 324,-601.5 469,-601.5 469,-582.5 324,-582.5"/>
<text text-anchor="middle" x="396.5" y="-589.5" font-family="Helvetica,sans-Serif" font-size="10.00">CoolBoardSensors::readVBat</text>
</a>
</g>
</g>
<!-- Node67&#45;&gt;Node69 -->
<g id="edge9" class="edge"><title>Node67&#45;&gt;Node69</title>
<path fill="none" stroke="midnightblue" d="M249.796,-553.591C268.744,-559.468 293.704,-566.991 316,-573 324.955,-575.414 334.52,-577.833 343.799,-580.099"/>
<polygon fill="midnightblue" stroke="midnightblue" points="343.172,-583.548 353.714,-582.489 344.812,-576.742 343.172,-583.548"/>
</g>
<!-- Node70 -->
<g id="node11" class="node"><title>Node70</title>
<g id="a_node11"><a xlink:href="$classCoolBoardSensors.html#a8761bff50373c485f4465c8db47d0633" xlink:title="CoolBoardSensors::readMoisture">
<polygon fill="white" stroke="black" points="316,-544.5 316,-563.5 477,-563.5 477,-544.5 316,-544.5"/>
<text text-anchor="middle" x="396.5" y="-551.5" font-family="Helvetica,sans-Serif" font-size="10.00">CoolBoardSensors::readMoisture</text>
</a>
</g>
</g>
<!-- Node67&#45;&gt;Node70 -->
<g id="edge10" class="edge"><title>Node67&#45;&gt;Node70</title>
<path fill="none" stroke="midnightblue" d="M280.069,-547.441C288.36,-547.912 297.011,-548.404 305.686,-548.897"/>
<polygon fill="midnightblue" stroke="midnightblue" points="305.677,-552.402 315.86,-549.475 306.074,-545.413 305.677,-552.402"/>
</g>
<!-- Node72 -->
<g id="node13" class="node"><title>Node72</title>
<g id="a_node13"><a xlink:href="$classIrene3000.html#a94ad40f281d83ad1be20bf1edd6fe802" xlink:title="Irene3000::readTemp">
<polygon fill="white" stroke="black" points="342,-506.5 342,-525.5 451,-525.5 451,-506.5 342,-506.5"/>
<text text-anchor="middle" x="396.5" y="-513.5" font-family="Helvetica,sans-Serif" font-size="10.00">Irene3000::readTemp</text>
</a>
</g>
</g>
<!-- Node71&#45;&gt;Node72 -->
<g id="edge12" class="edge"><title>Node71&#45;&gt;Node72</title>
<path fill="none" stroke="midnightblue" d="M260.764,-493.799C281.923,-497.286 308.16,-501.609 331.843,-505.511"/>
<polygon fill="midnightblue" stroke="midnightblue" points="331.379,-508.982 341.815,-507.154 332.517,-502.075 331.379,-508.982"/>
</g>
<!-- Node74 -->
<g id="node15" class="node"><title>Node74</title>
<g id="a_node15"><a xlink:href="$classIrene3000.html#abf3db725fabb0634ec889b32068a5eec" xlink:title="Irene3000::readPh">
<polygon fill="white" stroke="black" points="348.5,-468.5 348.5,-487.5 444.5,-487.5 444.5,-468.5 348.5,-468.5"/>
<text text-anchor="middle" x="396.5" y="-475.5" font-family="Helvetica,sans-Serif" font-size="10.00">Irene3000::readPh</text>
</a>
</g>
</g>
<!-- Node71&#45;&gt;Node74 -->
<g id="edge14" class="edge"><title>Node71&#45;&gt;Node74</title>
<path fill="none" stroke="midnightblue" d="M260.764,-484.89C283.803,-483.712 312.863,-482.226 338.092,-480.936"/>
<polygon fill="midnightblue" stroke="midnightblue" points="338.467,-484.421 348.276,-480.415 338.11,-477.43 338.467,-484.421"/>
</g>
<!-- Node75 -->
<g id="node16" class="node"><title>Node75</title>
<g id="a_node16"><a xlink:href="$classIrene3000.html#ae73bd2ed14a199a7e83f4d6458476a7c" xlink:title="Irene3000::readADSChannel2">
<polygon fill="white" stroke="black" points="323.5,-430.5 323.5,-449.5 469.5,-449.5 469.5,-430.5 323.5,-430.5"/>
<text text-anchor="middle" x="396.5" y="-437.5" font-family="Helvetica,sans-Serif" font-size="10.00">Irene3000::readADSChannel2</text>
</a>
</g>
</g>
<!-- Node71&#45;&gt;Node75 -->
<g id="edge16" class="edge"><title>Node71&#45;&gt;Node75</title>
<path fill="none" stroke="midnightblue" d="M251.122,-477.411C269.911,-471.817 294.244,-464.752 316,-459 324.967,-456.629 334.537,-454.23 343.818,-451.972"/>
<polygon fill="midnightblue" stroke="midnightblue" points="344.83,-455.329 353.733,-449.586 343.192,-448.523 344.83,-455.329"/>
</g>
<!-- Node73 -->
<g id="node14" class="node"><title>Node73</title>
<g id="a_node14"><a xlink:href="$classIrene3000.html#aff7c5da186b388e7272e63ff88a20c34" xlink:title="Irene3000::setGain">
<polygon fill="white" stroke="black" points="534,-468.5 534,-487.5 633,-487.5 633,-468.5 534,-468.5"/>
<text text-anchor="middle" x="583.5" y="-475.5" font-family="Helvetica,sans-Serif" font-size="10.00">Irene3000::setGain</text>
</a>
</g>
</g>
<!-- Node72&#45;&gt;Node73 -->
<g id="edge13" class="edge"><title>Node72&#45;&gt;Node73</title>
<path fill="none" stroke="midnightblue" d="M444.183,-506.411C469.146,-501.284 500.064,-494.933 526.334,-489.537"/>
<polygon fill="midnightblue" stroke="midnightblue" points="527.061,-492.961 536.152,-487.52 525.653,-486.104 527.061,-492.961"/>
</g>
<!-- Node74&#45;&gt;Node73 -->
<g id="edge15" class="edge"><title>Node74&#45;&gt;Node73</title>
<path fill="none" stroke="midnightblue" d="M444.662,-478C468.655,-478 498.054,-478 523.529,-478"/>
<polygon fill="midnightblue" stroke="midnightblue" points="523.811,-481.5 533.811,-478 523.811,-474.5 523.811,-481.5"/>
</g>
<!-- Node75&#45;&gt;Node73 -->
<g id="edge17" class="edge"><title>Node75&#45;&gt;Node73</title>
<path fill="none" stroke="midnightblue" d="M444.183,-449.589C469.146,-454.716 500.064,-461.067 526.334,-466.463"/>
<polygon fill="midnightblue" stroke="midnightblue" points="525.653,-469.896 536.152,-468.48 527.061,-463.039 525.653,-469.896"/>
</g>
<!-- Node77 -->
<g id="node18" class="node"><title>Node77</title>
<g id="a_node18"><a xlink:href="$classCoolTime.html#a5ae038a4498602b189f76a10bf02adf8" xlink:title="CoolTime::isTimeSync">
<polygon fill="white" stroke="black" points="338.5,-392.5 338.5,-411.5 454.5,-411.5 454.5,-392.5 338.5,-392.5"/>
<text text-anchor="middle" x="396.5" y="-399.5" font-family="Helvetica,sans-Serif" font-size="10.00">CoolTime::isTimeSync</text>
</a>
</g>
</g>
<!-- Node76&#45;&gt;Node77 -->
<g id="edge19" class="edge"><title>Node76&#45;&gt;Node77</title>
<path fill="none" stroke="midnightblue" d="M265.742,-402C284.822,-402 307.312,-402 328.162,-402"/>
<polygon fill="midnightblue" stroke="midnightblue" points="328.244,-405.5 338.244,-402 328.244,-398.5 328.244,-405.5"/>
</g>
<!-- Node79 -->
<g id="node20" class="node"><title>Node79</title>
<g id="a_node20"><a xlink:href="$classCoolTime.html#a41fbbbfd651c2079f54d4b2911e4c705" xlink:title="CoolTime::getNtpTime">
<polygon fill="white" stroke="black" points="338.5,-354.5 338.5,-373.5 454.5,-373.5 454.5,-354.5 338.5,-354.5"/>
<text text-anchor="middle" x="396.5" y="-361.5" font-family="Helvetica,sans-Serif" font-size="10.00">CoolTime::getNtpTime</text>
</a>
</g>
</g>
<!-- Node76&#45;&gt;Node79 -->
<g id="edge21" class="edge"><title>Node76&#45;&gt;Node79</title>
<path fill="none" stroke="midnightblue" d="M263.912,-392.411C287.451,-387.329 316.557,-381.045 341.405,-375.68"/>
<polygon fill="midnightblue" stroke="midnightblue" points="342.371,-379.052 351.407,-373.52 340.894,-372.209 342.371,-379.052"/>
</g>
<!-- Node78 -->
<g id="node19" class="node"><title>Node78</title>
<g id="a_node19"><a xlink:href="$classCoolTime.html#a5d17f707a9d337720493b2bce9d41c21" xlink:title="CoolTime::getLastSyncTime">
<polygon fill="white" stroke="black" points="513,-392.5 513,-411.5 654,-411.5 654,-392.5 513,-392.5"/>
<text text-anchor="middle" x="583.5" y="-399.5" font-family="Helvetica,sans-Serif" font-size="10.00">CoolTime::getLastSyncTime</text>
</a>
</g>
</g>
<!-- Node77&#45;&gt;Node78 -->
<g id="edge20" class="edge"><title>Node77&#45;&gt;Node78</title>
<path fill="none" stroke="midnightblue" d="M454.516,-402C469.814,-402 486.638,-402 502.918,-402"/>
<polygon fill="midnightblue" stroke="midnightblue" points="502.965,-405.5 512.965,-402 502.965,-398.5 502.965,-405.5"/>
</g>
<!-- Node80 -->
<g id="node21" class="node"><title>Node80</title>
<g id="a_node21"><a xlink:href="$classCoolTime.html#a236a38d120dc53bc67456d763838c5a1" xlink:title="CoolTime::sendNTPpacket">
<polygon fill="white" stroke="black" points="516,-354.5 516,-373.5 651,-373.5 651,-354.5 516,-354.5"/>
<text text-anchor="middle" x="583.5" y="-361.5" font-family="Helvetica,sans-Serif" font-size="10.00">CoolTime::sendNTPpacket</text>
</a>
</g>
</g>
<!-- Node79&#45;&gt;Node80 -->
<g id="edge22" class="edge"><title>Node79&#45;&gt;Node80</title>
<path fill="none" stroke="midnightblue" d="M454.516,-364C470.757,-364 488.718,-364 505.922,-364"/>
<polygon fill="midnightblue" stroke="midnightblue" points="505.945,-367.5 515.945,-364 505.945,-360.5 505.945,-367.5"/>
</g>
<!-- Node82 -->
<g id="node23" class="node"><title>Node82</title>
<g id="a_node23"><a xlink:href="$classCoolFileSystem.html#a32dad79ae80182a83e2e8f52286b7c7b" xlink:title="CoolFileSystem::updateConfig\lFiles">
<polygon fill="white" stroke="black" points="321.5,-305 321.5,-335 471.5,-335 471.5,-305 321.5,-305"/>
<text text-anchor="start" x="329.5" y="-323" font-family="Helvetica,sans-Serif" font-size="10.00">CoolFileSystem::updateConfig</text>
<text text-anchor="middle" x="396.5" y="-312" font-family="Helvetica,sans-Serif" font-size="10.00">Files</text>
</a>
</g>
</g>
<!-- Node81&#45;&gt;Node82 -->
<g id="edge24" class="edge"><title>Node81&#45;&gt;Node82</title>
<path fill="none" stroke="midnightblue" d="M224.938,-190.531C237.858,-212.327 272.59,-266.154 316,-295 319.073,-297.042 322.322,-298.925 325.683,-300.661"/>
<polygon fill="midnightblue" stroke="midnightblue" points="324.251,-303.855 334.792,-304.919 327.215,-297.514 324.251,-303.855"/>
</g>
<!-- Node83 -->
<g id="node24" class="node"><title>Node83</title>
<g id="a_node24"><a xlink:href="$classCoolBoard.html#a583a874c09c07e70a6eb9229fc4beddb" xlink:title="CoolBoard::config">
<polygon fill="white" stroke="black" points="349,-266.5 349,-285.5 444,-285.5 444,-266.5 349,-266.5"/>
<text text-anchor="middle" x="396.5" y="-273.5" font-family="Helvetica,sans-Serif" font-size="10.00">CoolBoard::config</text>
</a>
</g>
</g>
<!-- Node81&#45;&gt;Node83 -->
<g id="edge25" class="edge"><title>Node81&#45;&gt;Node83</title>
<path fill="none" stroke="midnightblue" d="M228.671,-190.54C244.786,-206.732 279.914,-239.531 316,-257 323.265,-260.517 331.225,-263.409 339.214,-265.78"/>
<polygon fill="midnightblue" stroke="midnightblue" points="338.36,-269.175 348.928,-268.421 340.196,-262.42 338.36,-269.175"/>
</g>
<!-- Node85 -->
<g id="node26" class="node"><title>Node85</title>
<g id="a_node26"><a xlink:href="$classCoolBoardSensors.html#a9a218895c5423375c33c08f2c56fb23a" xlink:title="CoolBoardSensors::config">
<polygon fill="white" stroke="black" points="331,-228.5 331,-247.5 462,-247.5 462,-228.5 331,-228.5"/>
<text text-anchor="middle" x="396.5" y="-235.5" font-family="Helvetica,sans-Serif" font-size="10.00">CoolBoardSensors::config</text>
</a>
</g>
</g>
<!-- Node81&#45;&gt;Node85 -->
<g id="edge27" class="edge"><title>Node81&#45;&gt;Node85</title>
<path fill="none" stroke="midnightblue" d="M241.413,-190.651C260.768,-198.929 289.893,-210.785 316,-219 323.978,-221.51 332.496,-223.872 340.883,-226.02"/>
<polygon fill="midnightblue" stroke="midnightblue" points="340.08,-229.427 350.628,-228.44 341.767,-222.633 340.08,-229.427"/>
</g>
<!-- Node86 -->
<g id="node27" class="node"><title>Node86</title>
<g id="a_node27"><a xlink:href="$classCoolTime.html#a87c28260c1bc77091162cbcf1ee2e129" xlink:title="CoolTime::config">
<polygon fill="white" stroke="black" points="351,-190.5 351,-209.5 442,-209.5 442,-190.5 351,-190.5"/>
<text text-anchor="middle" x="396.5" y="-197.5" font-family="Helvetica,sans-Serif" font-size="10.00">CoolTime::config</text>
</a>
</g>
</g>
<!-- Node81&#45;&gt;Node86 -->
<g id="edge28" class="edge"><title>Node81&#45;&gt;Node86</title>
<path fill="none" stroke="midnightblue" d="M267.593,-186.192C290.201,-188.632 317.267,-191.554 340.668,-194.081"/>
<polygon fill="midnightblue" stroke="midnightblue" points="340.471,-197.58 350.789,-195.173 341.223,-190.62 340.471,-197.58"/>
</g>
<!-- Node87 -->
<g id="node28" class="node"><title>Node87</title>
<g id="a_node28"><a xlink:href="$classCoolBoardLed.html#a1b60e5e30bea96c49ed62ed1bf1ffc8b" xlink:title="CoolBoardLed::config">
<polygon fill="white" stroke="black" points="341.5,-152.5 341.5,-171.5 451.5,-171.5 451.5,-152.5 341.5,-152.5"/>
<text text-anchor="middle" x="396.5" y="-159.5" font-family="Helvetica,sans-Serif" font-size="10.00">CoolBoardLed::config</text>
</a>
</g>
</g>
<!-- Node81&#45;&gt;Node87 -->
<g id="edge29" class="edge"><title>Node81&#45;&gt;Node87</title>
<path fill="none" stroke="midnightblue" d="M267.593,-175.808C287.185,-173.693 310.126,-171.217 331.127,-168.949"/>
<polygon fill="midnightblue" stroke="midnightblue" points="331.692,-172.409 341.258,-167.856 330.94,-165.449 331.692,-172.409"/>
</g>
<!-- Node88 -->
<g id="node29" class="node"><title>Node88</title>
<g id="a_node29"><a xlink:href="$classCoolMQTT.html#a0158596b9a2297c8ba609b56ce6bace1" xlink:title="CoolMQTT::config">
<polygon fill="white" stroke="black" points="348,-114.5 348,-133.5 445,-133.5 445,-114.5 348,-114.5"/>
<text text-anchor="middle" x="396.5" y="-121.5" font-family="Helvetica,sans-Serif" font-size="10.00">CoolMQTT::config</text>
</a>
</g>
</g>
<!-- Node81&#45;&gt;Node88 -->
<g id="edge30" class="edge"><title>Node81&#45;&gt;Node88</title>
<path fill="none" stroke="midnightblue" d="M241.413,-171.349C260.768,-163.071 289.893,-151.215 316,-143 323.978,-140.49 332.496,-138.128 340.883,-135.98"/>
<polygon fill="midnightblue" stroke="midnightblue" points="341.767,-139.367 350.628,-133.56 340.08,-132.573 341.767,-139.367"/>
</g>
<!-- Node89 -->
<g id="node30" class="node"><title>Node89</title>
<g id="a_node30"><a xlink:href="$classJetpack.html#ab065ee83e244265a2223a22f3ee4a719" xlink:title="Jetpack::config">
<polygon fill="white" stroke="black" points="355,-76.5 355,-95.5 438,-95.5 438,-76.5 355,-76.5"/>
<text text-anchor="middle" x="396.5" y="-83.5" font-family="Helvetica,sans-Serif" font-size="10.00">Jetpack::config</text>
</a>
</g>
</g>
<!-- Node81&#45;&gt;Node89 -->
<g id="edge31" class="edge"><title>Node81&#45;&gt;Node89</title>
<path fill="none" stroke="midnightblue" d="M228.671,-171.46C244.786,-155.268 279.914,-122.469 316,-105 325.005,-100.641 335.079,-97.2415 344.951,-94.6041"/>
<polygon fill="midnightblue" stroke="midnightblue" points="345.829,-97.9927 354.709,-92.2134 344.163,-91.1938 345.829,-97.9927"/>
</g>
<!-- Node90 -->
<g id="node31" class="node"><title>Node90</title>
<g id="a_node31"><a xlink:href="$classIrene3000.html#afed5c35e4b23963c157847ef27c11e9c" xlink:title="Irene3000::config">
<polygon fill="white" stroke="black" points="350.5,-38.5 350.5,-57.5 442.5,-57.5 442.5,-38.5 350.5,-38.5"/>
<text text-anchor="middle" x="396.5" y="-45.5" font-family="Helvetica,sans-Serif" font-size="10.00">Irene3000::config</text>
</a>
</g>
</g>
<!-- Node81&#45;&gt;Node90 -->
<g id="edge32" class="edge"><title>Node81&#45;&gt;Node90</title>
<path fill="none" stroke="midnightblue" d="M224.801,-171.256C237.435,-149.011 271.606,-94.3078 316,-67 323.465,-62.4082 331.955,-58.9262 340.54,-56.2856"/>
<polygon fill="midnightblue" stroke="midnightblue" points="341.497,-59.6527 350.225,-53.6476 339.657,-52.8988 341.497,-59.6527"/>
</g>
<!-- Node92 -->
<g id="node33" class="node"><title>Node92</title>
<g id="a_node33"><a xlink:href="$classExternalSensors.html#a862a4bd11346b37270d0244c2adabe5a" xlink:title="ExternalSensors::config">
<polygon fill="white" stroke="black" points="336,-0.5 336,-19.5 457,-19.5 457,-0.5 336,-0.5"/>
<text text-anchor="middle" x="396.5" y="-7.5" font-family="Helvetica,sans-Serif" font-size="10.00">ExternalSensors::config</text>
</a>
</g>
</g>
<!-- Node81&#45;&gt;Node92 -->
<g id="edge34" class="edge"><title>Node81&#45;&gt;Node92</title>
<path fill="none" stroke="midnightblue" d="M222.687,-171.349C232.156,-144.246 262.825,-66.9511 316,-29 319.285,-26.6557 322.821,-24.5977 326.512,-22.7915"/>
<polygon fill="midnightblue" stroke="midnightblue" points="328.103,-25.9187 335.95,-18.8003 325.377,-19.4714 328.103,-25.9187"/>
</g>
<!-- Node84 -->
<g id="node25" class="node"><title>Node84</title>
<g id="a_node25"><a xlink:href="$classCoolFileSystem.html#a6ba6f666ed4c530174f8569d2c636748" xlink:title="CoolFileSystem::begin">
<polygon fill="white" stroke="black" points="525.5,-266.5 525.5,-285.5 641.5,-285.5 641.5,-266.5 525.5,-266.5"/>
<text text-anchor="middle" x="583.5" y="-273.5" font-family="Helvetica,sans-Serif" font-size="10.00">CoolFileSystem::begin</text>
</a>
</g>
</g>
<!-- Node83&#45;&gt;Node84 -->
<g id="edge26" class="edge"><title>Node83&#45;&gt;Node84</title>
<path fill="none" stroke="midnightblue" d="M444.183,-276C465.629,-276 491.471,-276 514.984,-276"/>
<polygon fill="midnightblue" stroke="midnightblue" points="515.248,-279.5 525.248,-276 515.248,-272.5 515.248,-279.5"/>
</g>
<!-- Node91 -->
<g id="node32" class="node"><title>Node91</title>
<g id="a_node32"><a xlink:href="$classIrene3000.html#abcad62d1201a59f8dd3ba87048002728" xlink:title="Irene3000::gainConvert">
<polygon fill="white" stroke="black" points="524.5,-38.5 524.5,-57.5 642.5,-57.5 642.5,-38.5 524.5,-38.5"/>
<text text-anchor="middle" x="583.5" y="-45.5" font-family="Helvetica,sans-Serif" font-size="10.00">Irene3000::gainConvert</text>
</a>
</g>
</g>
<!-- Node90&#45;&gt;Node91 -->
<g id="edge33" class="edge"><title>Node90&#45;&gt;Node91</title>
<path fill="none" stroke="midnightblue" d="M442.756,-48C464.284,-48 490.479,-48 514.345,-48"/>
<polygon fill="midnightblue" stroke="midnightblue" points="514.411,-51.5001 524.411,-48 514.411,-44.5001 514.411,-51.5001"/>
</g>
</g>
</svg>
