<?xml version="1.0" encoding="UTF-8" standalone="no"?>
<!DOCTYPE svg PUBLIC "-//W3C//DTD SVG 1.1//EN"
 "http://www.w3.org/Graphics/SVG/1.1/DTD/svg11.dtd">
<!-- Generated by graphviz version 2.38.0 (20140413.2041)
 -->
<!-- Title: CoolBoardSensors Pages: 1 -->
<svg width="320pt" height="347pt"
 viewBox="0.00 0.00 319.50 347.00" xmlns="http://www.w3.org/2000/svg" xmlns:xlink="http://www.w3.org/1999/xlink">
<g id="graph0" class="graph" transform="scale(1 1) rotate(0) translate(4 343)">
<title>CoolBoardSensors</title>
<polygon fill="white" stroke="none" points="-4,4 -4,-343 315.5,-343 315.5,4 -4,4"/>
<!-- Node1 -->
<g id="node1" class="node"><title>Node1</title>
<polygon fill="#bfbfbf" stroke="black" points="89,-0.5 89,-211.5 218,-211.5 218,-0.5 89,-0.5"/>
<text text-anchor="middle" x="153.5" y="-199.5" font-family="Helvetica,sans-Serif" font-size="10.00">CoolBoardSensors</text>
<polyline fill="none" stroke="black" points="89,-192.5 218,-192.5 "/>
<text text-anchor="start" x="97" y="-180.5" font-family="Helvetica,sans-Serif" font-size="10.00">+ lightSensor</text>
<text text-anchor="start" x="97" y="-169.5" font-family="Helvetica,sans-Serif" font-size="10.00">+ envSensor</text>
<text text-anchor="start" x="97" y="-158.5" font-family="Helvetica,sans-Serif" font-size="10.00">&#45; EnMoisture</text>
<text text-anchor="start" x="97" y="-147.5" font-family="Helvetica,sans-Serif" font-size="10.00">&#45; AnMplex</text>
<text text-anchor="start" x="97" y="-136.5" font-family="Helvetica,sans-Serif" font-size="10.00">&#45; vbatActive</text>
<text text-anchor="start" x="97" y="-125.5" font-family="Helvetica,sans-Serif" font-size="10.00">&#45; soilMoistureActive</text>
<polyline fill="none" stroke="black" points="89,-118.5 218,-118.5 "/>
<text text-anchor="start" x="97" y="-106.5" font-family="Helvetica,sans-Serif" font-size="10.00">+ CoolBoardSensors()</text>
<text text-anchor="start" x="97" y="-95.5" font-family="Helvetica,sans-Serif" font-size="10.00">+ begin()</text>
<text text-anchor="start" x="97" y="-84.5" font-family="Helvetica,sans-Serif" font-size="10.00">+ read()</text>
<text text-anchor="start" x="97" y="-73.5" font-family="Helvetica,sans-Serif" font-size="10.00">+ allActive()</text>
<text text-anchor="start" x="97" y="-62.5" font-family="Helvetica,sans-Serif" font-size="10.00">+ end()</text>
<text text-anchor="start" x="97" y="-51.5" font-family="Helvetica,sans-Serif" font-size="10.00">+ config()</text>
<text text-anchor="start" x="97" y="-40.5" font-family="Helvetica,sans-Serif" font-size="10.00">+ printConf()</text>
<text text-anchor="start" x="97" y="-29.5" font-family="Helvetica,sans-Serif" font-size="10.00">+ setEnvSensorSettings()</text>
<text text-anchor="start" x="97" y="-18.5" font-family="Helvetica,sans-Serif" font-size="10.00">+ readVBat()</text>
<text text-anchor="start" x="97" y="-7.5" font-family="Helvetica,sans-Serif" font-size="10.00">+ readMoisture()</text>
</g>
<!-- Node2 -->
<g id="node2" class="node"><title>Node2</title>
<g id="a_node2"><a xlink:href="$structCoolBoardSensors_1_1airActive.html" xlink:title="{CoolBoardSensors::airActive\n|+ temperature\l+ humidity\l+ pressure\l|}">
<polygon fill="white" stroke="black" points="0,-259.5 0,-338.5 143,-338.5 143,-259.5 0,-259.5"/>
<text text-anchor="middle" x="71.5" y="-326.5" font-family="Helvetica,sans-Serif" font-size="10.00">CoolBoardSensors::airActive</text>
<polyline fill="none" stroke="black" points="0,-319.5 143,-319.5 "/>
<text text-anchor="start" x="8" y="-307.5" font-family="Helvetica,sans-Serif" font-size="10.00">+ temperature</text>
<text text-anchor="start" x="8" y="-296.5" font-family="Helvetica,sans-Serif" font-size="10.00">+ humidity</text>
<text text-anchor="start" x="8" y="-285.5" font-family="Helvetica,sans-Serif" font-size="10.00">+ pressure</text>
<polyline fill="none" stroke="black" points="0,-278.5 143,-278.5 "/>
<text text-anchor="middle" x="71.5" y="-266.5" font-family="Helvetica,sans-Serif" font-size="10.00"> </text>
</a>
</g>
</g>
<!-- Node2&#45;&gt;Node1 -->
<g id="edge1" class="edge"><title>Node2&#45;&gt;Node1</title>
<path fill="none" stroke="#404040" d="M88.0939,-259.348C92.8103,-248.363 98.2041,-235.799 103.826,-222.704"/>
<polygon fill="none" stroke="#404040" points="103.858,-222.629 102.549,-215.538 108.592,-211.603 109.901,-218.694 103.858,-222.629"/>
<text text-anchor="middle" x="133.5" y="-233" font-family="Helvetica,sans-Serif" font-size="10.00"> &#45;airDataActive</text>
</g>
<!-- Node3 -->
<g id="node3" class="node"><title>Node3</title>
<g id="a_node3"><a xlink:href="$structCoolBoardSensors_1_1lightActive.html" xlink:title="{CoolBoardSensors::lightActive\n|+ visible\l+ ir\l+ uv\l|}">
<polygon fill="white" stroke="black" points="161.5,-259.5 161.5,-338.5 311.5,-338.5 311.5,-259.5 161.5,-259.5"/>
<text text-anchor="middle" x="236.5" y="-326.5" font-family="Helvetica,sans-Serif" font-size="10.00">CoolBoardSensors::lightActive</text>
<polyline fill="none" stroke="black" points="161.5,-319.5 311.5,-319.5 "/>
<text text-anchor="start" x="169.5" y="-307.5" font-family="Helvetica,sans-Serif" font-size="10.00">+ visible</text>
<text text-anchor="start" x="169.5" y="-296.5" font-family="Helvetica,sans-Serif" font-size="10.00">+ ir</text>
<text text-anchor="start" x="169.5" y="-285.5" font-family="Helvetica,sans-Serif" font-size="10.00">+ uv</text>
<polyline fill="none" stroke="black" points="161.5,-278.5 311.5,-278.5 "/>
<text text-anchor="middle" x="236.5" y="-266.5" font-family="Helvetica,sans-Serif" font-size="10.00"> </text>
</a>
</g>
</g>
<!-- Node3&#45;&gt;Node1 -->
<g id="edge2" class="edge"><title>Node3&#45;&gt;Node1</title>
<path fill="none" stroke="#404040" d="M219.704,-259.348C214.93,-248.363 209.47,-235.799 203.78,-222.704"/>
<polygon fill="none" stroke="#404040" points="203.738,-222.608 197.678,-218.7 198.956,-211.603 205.015,-215.511 203.738,-222.608"/>
<text text-anchor="middle" x="247" y="-233" font-family="Helvetica,sans-Serif" font-size="10.00"> &#45;lightDataActive</text>
</g>
</g>
</svg>
