<?xml version="1.0" encoding="UTF-8" standalone="no"?>
<!DOCTYPE svg PUBLIC "-//W3C//DTD SVG 1.1//EN"
 "http://www.w3.org/Graphics/SVG/1.1/DTD/svg11.dtd">
<!-- Generated by graphviz version 2.38.0 (20140413.2041)
 -->
<!-- Title: CoolTime::sendNTPpacket Pages: 1 -->
<svg width="583pt" height="104pt"
 viewBox="0.00 0.00 583.00 104.00" xmlns="http://www.w3.org/2000/svg" xmlns:xlink="http://www.w3.org/1999/xlink">
<g id="graph0" class="graph" transform="scale(1 1) rotate(0) translate(4 100)">
<title>CoolTime::sendNTPpacket</title>
<polygon fill="white" stroke="none" points="-4,4 -4,-100 579,-100 579,4 -4,4"/>
<!-- Node48 -->
<g id="node1" class="node"><title>Node48</title>
<polygon fill="#bfbfbf" stroke="black" points="0,-57.5 0,-76.5 135,-76.5 135,-57.5 0,-57.5"/>
<text text-anchor="middle" x="67.5" y="-64.5" font-family="Helvetica,sans-Serif" font-size="10.00">CoolTime::sendNTPpacket</text>
</g>
<!-- Node49 -->
<g id="node2" class="node"><title>Node49</title>
<g id="a_node2"><a xlink:href="$class_cool_time.html#a41fbbbfd651c2079f54d4b2911e4c705" xlink:title="CoolTime::getNtpTime">
<polygon fill="white" stroke="black" points="171,-57.5 171,-76.5 287,-76.5 287,-57.5 171,-57.5"/>
<text text-anchor="middle" x="229" y="-64.5" font-family="Helvetica,sans-Serif" font-size="10.00">CoolTime::getNtpTime</text>
</a>
</g>
</g>
<!-- Node48&#45;&gt;Node49 -->
<g id="edge1" class="edge"><title>Node48&#45;&gt;Node49</title>
<path fill="none" stroke="midnightblue" d="M145.227,-67C153.791,-67 162.402,-67 170.663,-67"/>
<polygon fill="midnightblue" stroke="midnightblue" points="145.218,-63.5001 135.218,-67 145.218,-70.5001 145.218,-63.5001"/>
</g>
<!-- Node50 -->
<g id="node3" class="node"><title>Node50</title>
<g id="a_node3"><a xlink:href="$class_cool_time.html#ab1976cf718b950bc31e003c3323b8adb" xlink:title="CoolTime::begin">
<polygon fill="white" stroke="black" points="326,-76.5 326,-95.5 414,-95.5 414,-76.5 326,-76.5"/>
<text text-anchor="middle" x="370" y="-83.5" font-family="Helvetica,sans-Serif" font-size="10.00">CoolTime::begin</text>
</a>
</g>
</g>
<!-- Node49&#45;&gt;Node50 -->
<g id="edge2" class="edge"><title>Node49&#45;&gt;Node50</title>
<path fill="none" stroke="midnightblue" d="M297.371,-76.2089C307.046,-77.5315 316.777,-78.8615 325.811,-80.0965"/>
<polygon fill="midnightblue" stroke="midnightblue" points="297.721,-72.7244 287.339,-74.8377 296.773,-79.6599 297.721,-72.7244"/>
</g>
<!-- Node52 -->
<g id="node5" class="node"><title>Node52</title>
<g id="a_node5"><a xlink:href="$class_cool_time.html#aae601f795452cfa48d9fb337aed483a8" xlink:title="CoolTime::update">
<polygon fill="white" stroke="black" points="323,-38.5 323,-57.5 417,-57.5 417,-38.5 323,-38.5"/>
<text text-anchor="middle" x="370" y="-45.5" font-family="Helvetica,sans-Serif" font-size="10.00">CoolTime::update</text>
</a>
</g>
</g>
<!-- Node49&#45;&gt;Node52 -->
<g id="edge4" class="edge"><title>Node49&#45;&gt;Node52</title>
<path fill="none" stroke="midnightblue" d="M297.392,-57.7882C305.999,-56.6116 314.65,-55.4292 322.815,-54.3131"/>
<polygon fill="midnightblue" stroke="midnightblue" points="296.773,-54.3401 287.339,-59.1623 297.721,-61.2756 296.773,-54.3401"/>
</g>
<!-- Node51 -->
<g id="node4" class="node"><title>Node51</title>
<g id="a_node4"><a xlink:href="$class_cool_board.html#acba7c5aef7268b2c0044bdb54d3b9d76" xlink:title="CoolBoard::begin">
<polygon fill="white" stroke="black" points="468,-76.5 468,-95.5 560,-95.5 560,-76.5 468,-76.5"/>
<text text-anchor="middle" x="514" y="-83.5" font-family="Helvetica,sans-Serif" font-size="10.00">CoolBoard::begin</text>
</a>
</g>
</g>
<!-- Node50&#45;&gt;Node51 -->
<g id="edge3" class="edge"><title>Node50&#45;&gt;Node51</title>
<path fill="none" stroke="midnightblue" d="M424.566,-86C438.853,-86 454.144,-86 467.924,-86"/>
<polygon fill="midnightblue" stroke="midnightblue" points="424.376,-82.5001 414.376,-86 424.376,-89.5001 424.376,-82.5001"/>
</g>
<!-- Node53 -->
<g id="node6" class="node"><title>Node53</title>
<g id="a_node6"><a xlink:href="$class_cool_board.html#aa0bbc4bc605e35618d18e68795c61363" xlink:title="CoolBoard::onLineMode">
<polygon fill="white" stroke="black" points="453.5,-38.5 453.5,-57.5 574.5,-57.5 574.5,-38.5 453.5,-38.5"/>
<text text-anchor="middle" x="514" y="-45.5" font-family="Helvetica,sans-Serif" font-size="10.00">CoolBoard::onLineMode</text>
</a>
</g>
</g>
<!-- Node52&#45;&gt;Node53 -->
<g id="edge5" class="edge"><title>Node52&#45;&gt;Node53</title>
<path fill="none" stroke="midnightblue" d="M427.364,-48C435.926,-48 444.784,-48 453.412,-48"/>
<polygon fill="midnightblue" stroke="midnightblue" points="427.103,-44.5001 417.103,-48 427.103,-51.5001 427.103,-44.5001"/>
</g>
<!-- Node54 -->
<g id="node7" class="node"><title>Node54</title>
<g id="a_node7"><a xlink:href="$class_cool_board.html#ae6b5e1274d760462290192acea4adca8" xlink:title="CoolBoard::offLineMode">
<polygon fill="white" stroke="black" points="453,-0.5 453,-19.5 575,-19.5 575,-0.5 453,-0.5"/>
<text text-anchor="middle" x="514" y="-7.5" font-family="Helvetica,sans-Serif" font-size="10.00">CoolBoard::offLineMode</text>
</a>
</g>
</g>
<!-- Node52&#45;&gt;Node54 -->
<g id="edge6" class="edge"><title>Node52&#45;&gt;Node54</title>
<path fill="none" stroke="midnightblue" d="M416.493,-35.8258C436.128,-30.5713 458.766,-24.5134 477.179,-19.5859"/>
<polygon fill="midnightblue" stroke="midnightblue" points="415.588,-32.4448 406.833,-38.411 417.397,-39.2069 415.588,-32.4448"/>
</g>
</g>
</svg>
