<?xml version="1.0" encoding="UTF-8" standalone="no"?>
<!DOCTYPE svg PUBLIC "-//W3C//DTD SVG 1.1//EN"
 "http://www.w3.org/Graphics/SVG/1.1/DTD/svg11.dtd">
<!-- Generated by graphviz version 2.38.0 (20140413.2041)
 -->
<!-- Title: CoolBoard::update Pages: 1 -->
<svg width="447pt" height="686pt"
 viewBox="0.00 0.00 447.00 685.50" xmlns="http://www.w3.org/2000/svg" xmlns:xlink="http://www.w3.org/1999/xlink">
<g id="graph0" class="graph" transform="scale(1 1) rotate(0) translate(4 681.5)">
<title>CoolBoard::update</title>
<polygon fill="white" stroke="none" points="-4,4 -4,-681.5 443,-681.5 443,4 -4,4"/>
<!-- Node181 -->
<g id="node1" class="node"><title>Node181</title>
<polygon fill="#bfbfbf" stroke="black" points="0,-316 0,-335 98,-335 98,-316 0,-316"/>
<text text-anchor="middle" x="49" y="-323" font-family="Helvetica,sans-Serif" font-size="10.00">CoolBoard::update</text>
</g>
<!-- Node182 -->
<g id="node2" class="node"><title>Node182</title>
<g id="a_node2"><a xlink:href="$classCoolMQTT.html#ac9248808641ebf3054ed0620ea9d0100" xlink:title="CoolMQTT::begin">
<polygon fill="white" stroke="black" points="162,-639 162,-658 256,-658 256,-639 162,-639"/>
<text text-anchor="middle" x="209" y="-646" font-family="Helvetica,sans-Serif" font-size="10.00">CoolMQTT::begin</text>
</a>
</g>
</g>
<!-- Node181&#45;&gt;Node182 -->
<g id="edge1" class="edge"><title>Node181&#45;&gt;Node182</title>
<path fill="none" stroke="midnightblue" d="M50.2045,-335.101C51.5204,-374.091 61.3024,-522.688 134,-610.5 142.733,-621.049 155.15,-628.997 167.324,-634.824"/>
<polygon fill="midnightblue" stroke="midnightblue" points="165.958,-638.046 176.52,-638.873 168.779,-631.64 165.958,-638.046"/>
</g>
<!-- Node184 -->
<g id="node4" class="node"><title>Node184</title>
<g id="a_node4"><a xlink:href="$classCoolWifi.html#a46942fed90e475112cc10b78a32e7aaa" xlink:title="CoolWifi::begin">
<polygon fill="white" stroke="black" points="167.5,-582 167.5,-601 250.5,-601 250.5,-582 167.5,-582"/>
<text text-anchor="middle" x="209" y="-589" font-family="Helvetica,sans-Serif" font-size="10.00">CoolWifi::begin</text>
</a>
</g>
</g>
<!-- Node181&#45;&gt;Node184 -->
<g id="edge3" class="edge"><title>Node181&#45;&gt;Node184</title>
<path fill="none" stroke="midnightblue" d="M50.4253,-335.429C52.5272,-371.869 64.7471,-499.651 134,-567.5 140.66,-574.025 149.109,-578.776 157.897,-582.235"/>
<polygon fill="midnightblue" stroke="midnightblue" points="156.905,-585.594 167.499,-585.505 159.161,-578.968 156.905,-585.594"/>
</g>
<!-- Node185 -->
<g id="node5" class="node"><title>Node185</title>
<g id="a_node5"><a xlink:href="$classCoolBoardLed.html#a1b60e5e30bea96c49ed62ed1bf1ffc8b" xlink:title="CoolBoardLed::config">
<polygon fill="white" stroke="black" points="324.5,-620 324.5,-639 434.5,-639 434.5,-620 324.5,-620"/>
<text text-anchor="middle" x="379.5" y="-627" font-family="Helvetica,sans-Serif" font-size="10.00">CoolBoardLed::config</text>
</a>
</g>
</g>
<!-- Node181&#45;&gt;Node185 -->
<g id="edge4" class="edge"><title>Node181&#45;&gt;Node185</title>
<path fill="none" stroke="midnightblue" d="M50.8537,-335.141C54.3261,-368.337 70.406,-478.906 134,-534.5 185.777,-579.764 224.672,-537.717 284,-572.5 304.07,-584.266 300.329,-598.079 320,-610.5 323.308,-612.589 326.868,-614.469 330.539,-616.158"/>
<polygon fill="midnightblue" stroke="midnightblue" points="329.236,-619.406 339.816,-619.969 331.896,-612.931 329.236,-619.406"/>
</g>
<!-- Node186 -->
<g id="node6" class="node"><title>Node186</title>
<g id="a_node6"><a xlink:href="$classJetpack.html#ab065ee83e244265a2223a22f3ee4a719" xlink:title="Jetpack::config">
<polygon fill="white" stroke="black" points="167.5,-354 167.5,-373 250.5,-373 250.5,-354 167.5,-354"/>
<text text-anchor="middle" x="209" y="-361" font-family="Helvetica,sans-Serif" font-size="10.00">Jetpack::config</text>
</a>
</g>
</g>
<!-- Node181&#45;&gt;Node186 -->
<g id="edge5" class="edge"><title>Node181&#45;&gt;Node186</title>
<path fill="none" stroke="midnightblue" d="M89.8701,-335.089C110.72,-340.104 136.435,-346.288 158.543,-351.605"/>
<polygon fill="midnightblue" stroke="midnightblue" points="157.875,-355.044 168.417,-353.98 159.512,-348.239 157.875,-355.044"/>
</g>
<!-- Node187 -->
<g id="node7" class="node"><title>Node187</title>
<g id="a_node7"><a xlink:href="$classExternalSensors.html#a862a4bd11346b37270d0244c2adabe5a" xlink:title="ExternalSensors::config">
<polygon fill="white" stroke="black" points="148.5,-316 148.5,-335 269.5,-335 269.5,-316 148.5,-316"/>
<text text-anchor="middle" x="209" y="-323" font-family="Helvetica,sans-Serif" font-size="10.00">ExternalSensors::config</text>
</a>
</g>
</g>
<!-- Node181&#45;&gt;Node187 -->
<g id="edge6" class="edge"><title>Node181&#45;&gt;Node187</title>
<path fill="none" stroke="midnightblue" d="M98.2637,-325.5C110.847,-325.5 124.663,-325.5 138.121,-325.5"/>
<polygon fill="midnightblue" stroke="midnightblue" points="138.316,-329 148.316,-325.5 138.316,-322 138.316,-329"/>
</g>
<!-- Node188 -->
<g id="node8" class="node"><title>Node188</title>
<g id="a_node8"><a xlink:href="$classCoolWifi.html#a4eb2f6b9b09dd588964b88b6c70122c0" xlink:title="CoolWifi::config">
<polygon fill="white" stroke="black" points="166,-278 166,-297 252,-297 252,-278 166,-278"/>
<text text-anchor="middle" x="209" y="-285" font-family="Helvetica,sans-Serif" font-size="10.00">CoolWifi::config</text>
</a>
</g>
</g>
<!-- Node181&#45;&gt;Node188 -->
<g id="edge7" class="edge"><title>Node181&#45;&gt;Node188</title>
<path fill="none" stroke="midnightblue" d="M89.8701,-315.911C110.72,-310.896 136.435,-304.712 158.543,-299.395"/>
<polygon fill="midnightblue" stroke="midnightblue" points="159.512,-302.761 168.417,-297.02 157.875,-295.956 159.512,-302.761"/>
</g>
<!-- Node189 -->
<g id="node9" class="node"><title>Node189</title>
<g id="a_node9"><a xlink:href="$classCoolMQTT.html#a9b703de4f1358f0ee7a5e8c44979c648" xlink:title="CoolMQTT::config">
<polygon fill="white" stroke="black" points="160.5,-240 160.5,-259 257.5,-259 257.5,-240 160.5,-240"/>
<text text-anchor="middle" x="209" y="-247" font-family="Helvetica,sans-Serif" font-size="10.00">CoolMQTT::config</text>
</a>
</g>
</g>
<!-- Node181&#45;&gt;Node189 -->
<g id="edge8" class="edge"><title>Node181&#45;&gt;Node189</title>
<path fill="none" stroke="midnightblue" d="M61.4632,-315.801C76.956,-303.161 105.886,-281.182 134,-268.5 139.344,-266.089 145.05,-263.944 150.831,-262.046"/>
<polygon fill="midnightblue" stroke="midnightblue" points="152.036,-265.338 160.584,-259.079 149.998,-258.641 152.036,-265.338"/>
</g>
<!-- Node190 -->
<g id="node10" class="node"><title>Node190</title>
<g id="a_node10"><a xlink:href="$classCoolTime.html#a87c28260c1bc77091162cbcf1ee2e129" xlink:title="CoolTime::config">
<polygon fill="white" stroke="black" points="163.5,-202 163.5,-221 254.5,-221 254.5,-202 163.5,-202"/>
<text text-anchor="middle" x="209" y="-209" font-family="Helvetica,sans-Serif" font-size="10.00">CoolTime::config</text>
</a>
</g>
</g>
<!-- Node181&#45;&gt;Node190 -->
<g id="edge9" class="edge"><title>Node181&#45;&gt;Node190</title>
<path fill="none" stroke="midnightblue" d="M55.7974,-315.705C67.8098,-296.298 97.3792,-252.905 134,-230.5 139.929,-226.872 146.532,-223.934 153.285,-221.554"/>
<polygon fill="midnightblue" stroke="midnightblue" points="154.72,-224.773 163.223,-218.452 152.634,-218.091 154.72,-224.773"/>
</g>
<!-- Node191 -->
<g id="node11" class="node"><title>Node191</title>
<g id="a_node11"><a xlink:href="$classCoolBoard.html#a583a874c09c07e70a6eb9229fc4beddb" xlink:title="CoolBoard::config">
<polygon fill="white" stroke="black" points="161.5,-506 161.5,-525 256.5,-525 256.5,-506 161.5,-506"/>
<text text-anchor="middle" x="209" y="-513" font-family="Helvetica,sans-Serif" font-size="10.00">CoolBoard::config</text>
</a>
</g>
</g>
<!-- Node181&#45;&gt;Node191 -->
<g id="edge10" class="edge"><title>Node181&#45;&gt;Node191</title>
<path fill="none" stroke="midnightblue" d="M52.1707,-335.381C58.9577,-363.945 82.4725,-447.391 134,-491.5 139.239,-495.985 145.332,-499.635 151.73,-502.606"/>
<polygon fill="midnightblue" stroke="midnightblue" points="150.677,-505.956 161.259,-506.49 153.32,-499.474 150.677,-505.956"/>
</g>
<!-- Node195 -->
<g id="node15" class="node"><title>Node195</title>
<g id="a_node15"><a xlink:href="$classCoolBoardLed.html#ab778f5e7bed0ab74e3906d82110493c3" xlink:title="CoolBoardLed::fadeIn">
<polygon fill="white" stroke="black" points="324,-468 324,-487 435,-487 435,-468 324,-468"/>
<text text-anchor="middle" x="379.5" y="-475" font-family="Helvetica,sans-Serif" font-size="10.00">CoolBoardLed::fadeIn</text>
</a>
</g>
</g>
<!-- Node181&#45;&gt;Node195 -->
<g id="edge21" class="edge"><title>Node181&#45;&gt;Node195</title>
<path fill="none" stroke="midnightblue" d="M54.1799,-335.282C64.2627,-357.578 92.2166,-412.184 134,-437.5 188.491,-470.515 261.78,-478.716 313.871,-479.765"/>
<polygon fill="midnightblue" stroke="midnightblue" points="313.954,-483.266 323.995,-479.885 314.037,-476.266 313.954,-483.266"/>
</g>
<!-- Node196 -->
<g id="node16" class="node"><title>Node196</title>
<g id="a_node16"><a xlink:href="$classCoolBoardLed.html#a93d545679237e8cc858324367149775c" xlink:title="CoolBoardLed::fadeOut">
<polygon fill="white" stroke="black" points="320,-430 320,-449 439,-449 439,-430 320,-430"/>
<text text-anchor="middle" x="379.5" y="-437" font-family="Helvetica,sans-Serif" font-size="10.00">CoolBoardLed::fadeOut</text>
</a>
</g>
</g>
<!-- Node181&#45;&gt;Node196 -->
<g id="edge22" class="edge"><title>Node181&#45;&gt;Node196</title>
<path fill="none" stroke="midnightblue" d="M56.5242,-335.11C69.1479,-352.834 98.7958,-390.419 134,-407.5 189.041,-434.206 258.82,-441.068 309.733,-441.919"/>
<polygon fill="midnightblue" stroke="midnightblue" points="309.944,-445.421 319.976,-442.013 310.009,-438.421 309.944,-445.421"/>
</g>
<!-- Node197 -->
<g id="node17" class="node"><title>Node197</title>
<g id="a_node17"><a xlink:href="$classCoolBoardLed.html#ad5f0de4c628cbfbf49896042831c64ad" xlink:title="CoolBoardLed::strobe">
<polygon fill="white" stroke="black" points="324,-392 324,-411 435,-411 435,-392 324,-392"/>
<text text-anchor="middle" x="379.5" y="-399" font-family="Helvetica,sans-Serif" font-size="10.00">CoolBoardLed::strobe</text>
</a>
</g>
</g>
<!-- Node181&#45;&gt;Node197 -->
<g id="edge25" class="edge"><title>Node181&#45;&gt;Node197</title>
<path fill="none" stroke="midnightblue" d="M60.3966,-335.262C75.3475,-348.624 104.393,-372.131 134,-382.5 192.457,-402.973 263.432,-406.313 313.82,-405.382"/>
<polygon fill="midnightblue" stroke="midnightblue" points="314.02,-408.878 323.931,-405.132 313.847,-401.88 314.02,-408.878"/>
</g>
<!-- Node198 -->
<g id="node18" class="node"><title>Node198</title>
<g id="a_node18"><a xlink:href="$classIrene3000.html#afed5c35e4b23963c157847ef27c11e9c" xlink:title="Irene3000::config">
<polygon fill="white" stroke="black" points="163,-164 163,-183 255,-183 255,-164 163,-164"/>
<text text-anchor="middle" x="209" y="-171" font-family="Helvetica,sans-Serif" font-size="10.00">Irene3000::config</text>
</a>
</g>
</g>
<!-- Node181&#45;&gt;Node198 -->
<g id="edge18" class="edge"><title>Node181&#45;&gt;Node198</title>
<path fill="none" stroke="midnightblue" d="M53.2845,-315.692C62.1027,-290.917 88.7426,-225.457 134,-192.5 139.691,-188.356 146.204,-185.113 152.952,-182.577"/>
<polygon fill="midnightblue" stroke="midnightblue" points="154.504,-185.753 162.94,-179.342 152.348,-179.093 154.504,-185.753"/>
</g>
<!-- Node200 -->
<g id="node20" class="node"><title>Node200</title>
<g id="a_node20"><a xlink:href="$classCoolBoardSensors.html#a9a218895c5423375c33c08f2c56fb23a" xlink:title="CoolBoardSensors::config">
<polygon fill="white" stroke="black" points="143.5,-126 143.5,-145 274.5,-145 274.5,-126 143.5,-126"/>
<text text-anchor="middle" x="209" y="-133" font-family="Helvetica,sans-Serif" font-size="10.00">CoolBoardSensors::config</text>
</a>
</g>
</g>
<!-- Node181&#45;&gt;Node200 -->
<g id="edge20" class="edge"><title>Node181&#45;&gt;Node200</title>
<path fill="none" stroke="midnightblue" d="M51.8549,-315.588C57.9001,-286.147 79.8542,-198.533 134,-154.5 136.071,-152.816 138.274,-151.279 140.575,-149.877"/>
<polygon fill="midnightblue" stroke="midnightblue" points="142.567,-152.789 149.865,-145.109 139.37,-146.561 142.567,-152.789"/>
</g>
<!-- Node201 -->
<g id="node21" class="node"><title>Node201</title>
<g id="a_node21"><a xlink:href="$classCoolMQTT.html#aa5eaae967b562b62cbcf2b8d81f6e5d5" xlink:title="CoolMQTT::mqttLoop">
<polygon fill="white" stroke="black" points="153.5,-88 153.5,-107 264.5,-107 264.5,-88 153.5,-88"/>
<text text-anchor="middle" x="209" y="-95" font-family="Helvetica,sans-Serif" font-size="10.00">CoolMQTT::mqttLoop</text>
</a>
</g>
</g>
<!-- Node181&#45;&gt;Node201 -->
<g id="edge23" class="edge"><title>Node181&#45;&gt;Node201</title>
<path fill="none" stroke="midnightblue" d="M50.8603,-315.866C54.354,-282.695 70.4954,-172.196 134,-116.5 137.054,-113.822 140.436,-111.512 144.025,-109.522"/>
<polygon fill="midnightblue" stroke="midnightblue" points="145.712,-112.597 153.299,-105.202 142.756,-106.251 145.712,-112.597"/>
</g>
<!-- Node202 -->
<g id="node22" class="node"><title>Node202</title>
<g id="a_node22"><a xlink:href="$classCoolMQTT.html#ace977b3e90ab14b1199fe5c4fb0a13ec" xlink:title="CoolMQTT::publish">
<polygon fill="white" stroke="black" points="158.5,-50 158.5,-69 259.5,-69 259.5,-50 158.5,-50"/>
<text text-anchor="middle" x="209" y="-57" font-family="Helvetica,sans-Serif" font-size="10.00">CoolMQTT::publish</text>
</a>
</g>
</g>
<!-- Node181&#45;&gt;Node202 -->
<g id="edge24" class="edge"><title>Node181&#45;&gt;Node202</title>
<path fill="none" stroke="midnightblue" d="M50.1878,-315.989C51.4471,-279.353 61.0631,-146.061 134,-78.5 138.364,-74.458 143.469,-71.249 148.923,-68.7053"/>
<polygon fill="midnightblue" stroke="midnightblue" points="150.316,-71.9186 158.36,-65.0229 147.772,-65.3975 150.316,-71.9186"/>
</g>
<!-- Node203 -->
<g id="node23" class="node"><title>Node203</title>
<g id="a_node23"><a xlink:href="$classCoolFileSystem.html#a32dad79ae80182a83e2e8f52286b7c7b" xlink:title="CoolFileSystem::updateConfig\lFiles">
<polygon fill="white" stroke="black" points="134,-0.5 134,-30.5 284,-30.5 284,-0.5 134,-0.5"/>
<text text-anchor="start" x="142" y="-18.5" font-family="Helvetica,sans-Serif" font-size="10.00">CoolFileSystem::updateConfig</text>
<text text-anchor="middle" x="209" y="-7.5" font-family="Helvetica,sans-Serif" font-size="10.00">Files</text>
</a>
</g>
</g>
<!-- Node181&#45;&gt;Node203 -->
<g id="edge26" class="edge"><title>Node181&#45;&gt;Node203</title>
<path fill="none" stroke="midnightblue" d="M49.8506,-315.854C49.7697,-276.058 54.8058,-122.859 134,-40.5 135.41,-39.0338 136.909,-37.6536 138.481,-36.3543"/>
<polygon fill="midnightblue" stroke="midnightblue" points="140.674,-39.0924 146.885,-30.5091 136.677,-33.3457 140.674,-39.0924"/>
</g>
<!-- Node183 -->
<g id="node3" class="node"><title>Node183</title>
<g id="a_node3"><a xlink:href="$classCoolMQTT.html#a30d82ad665bfb603f46ecdbc290775df" xlink:title="CoolMQTT::callback">
<polygon fill="white" stroke="black" points="326,-658 326,-677 433,-677 433,-658 326,-658"/>
<text text-anchor="middle" x="379.5" y="-665" font-family="Helvetica,sans-Serif" font-size="10.00">CoolMQTT::callback</text>
</a>
</g>
</g>
<!-- Node182&#45;&gt;Node183 -->
<g id="edge2" class="edge"><title>Node182&#45;&gt;Node183</title>
<path fill="none" stroke="midnightblue" d="M256.043,-653.692C274.464,-655.769 295.977,-658.195 315.787,-660.428"/>
<polygon fill="midnightblue" stroke="midnightblue" points="315.636,-663.934 325.965,-661.576 316.42,-656.978 315.636,-663.934"/>
</g>
<!-- Node191&#45;&gt;Node185 -->
<g id="edge14" class="edge"><title>Node191&#45;&gt;Node185</title>
<path fill="none" stroke="midnightblue" d="M256.737,-524.515C266.509,-528.002 276.2,-532.828 284,-539.5 310.887,-562.497 293.118,-587.498 320,-610.5 321.988,-612.201 324.131,-613.75 326.382,-615.162"/>
<polygon fill="midnightblue" stroke="midnightblue" points="325.012,-618.396 335.493,-619.949 328.268,-612.199 325.012,-618.396"/>
</g>
<!-- Node192 -->
<g id="node12" class="node"><title>Node192</title>
<g id="a_node12"><a xlink:href="$classCoolFileSystem.html#a6ba6f666ed4c530174f8569d2c636748" xlink:title="CoolFileSystem::begin">
<polygon fill="white" stroke="black" points="321.5,-582 321.5,-601 437.5,-601 437.5,-582 321.5,-582"/>
<text text-anchor="middle" x="379.5" y="-589" font-family="Helvetica,sans-Serif" font-size="10.00">CoolFileSystem::begin</text>
</a>
</g>
</g>
<!-- Node191&#45;&gt;Node192 -->
<g id="edge11" class="edge"><title>Node191&#45;&gt;Node192</title>
<path fill="none" stroke="midnightblue" d="M250.129,-525.086C261.507,-528.701 273.615,-533.446 284,-539.5 302.752,-550.431 301.251,-561.565 320,-572.5 323.632,-574.618 327.531,-576.534 331.528,-578.261"/>
<polygon fill="midnightblue" stroke="midnightblue" points="330.368,-581.565 340.956,-581.949 332.918,-575.046 330.368,-581.565"/>
</g>
<!-- Node193 -->
<g id="node13" class="node"><title>Node193</title>
<g id="a_node13"><a xlink:href="$classCoolBoardLed.html#ae3cbde8affcc6f011cbd698c8ef911f6" xlink:title="CoolBoardLed::begin">
<polygon fill="white" stroke="black" points="326,-544 326,-563 433,-563 433,-544 326,-544"/>
<text text-anchor="middle" x="379.5" y="-551" font-family="Helvetica,sans-Serif" font-size="10.00">CoolBoardLed::begin</text>
</a>
</g>
</g>
<!-- Node191&#45;&gt;Node193 -->
<g id="edge12" class="edge"><title>Node191&#45;&gt;Node193</title>
<path fill="none" stroke="midnightblue" d="M252.52,-525.089C274.955,-530.149 302.673,-536.4 326.393,-541.749"/>
<polygon fill="midnightblue" stroke="midnightblue" points="325.761,-545.194 336.286,-543.98 327.301,-538.366 325.761,-545.194"/>
</g>
<!-- Node194 -->
<g id="node14" class="node"><title>Node194</title>
<g id="a_node14"><a xlink:href="$classCoolBoardLed.html#a96e1ea13003eee34c9dbcef340404426" xlink:title="CoolBoardLed::blink">
<polygon fill="white" stroke="black" points="327.5,-506 327.5,-525 431.5,-525 431.5,-506 327.5,-506"/>
<text text-anchor="middle" x="379.5" y="-513" font-family="Helvetica,sans-Serif" font-size="10.00">CoolBoardLed::blink</text>
</a>
</g>
</g>
<!-- Node191&#45;&gt;Node194 -->
<g id="edge13" class="edge"><title>Node191&#45;&gt;Node194</title>
<path fill="none" stroke="midnightblue" d="M256.937,-515.5C275.595,-515.5 297.312,-515.5 317.186,-515.5"/>
<polygon fill="midnightblue" stroke="midnightblue" points="317.385,-519 327.385,-515.5 317.385,-512 317.385,-519"/>
</g>
<!-- Node191&#45;&gt;Node195 -->
<g id="edge15" class="edge"><title>Node191&#45;&gt;Node195</title>
<path fill="none" stroke="midnightblue" d="M252.52,-505.911C274.955,-500.851 302.673,-494.6 326.393,-489.251"/>
<polygon fill="midnightblue" stroke="midnightblue" points="327.301,-492.634 336.286,-487.02 325.761,-485.806 327.301,-492.634"/>
</g>
<!-- Node191&#45;&gt;Node196 -->
<g id="edge16" class="edge"><title>Node191&#45;&gt;Node196</title>
<path fill="none" stroke="midnightblue" d="M226.365,-505.937C247.504,-493.839 285.67,-472.855 320,-458.5 325.172,-456.337 330.683,-454.262 336.177,-452.33"/>
<polygon fill="midnightblue" stroke="midnightblue" points="337.617,-455.538 345.969,-449.019 335.375,-448.907 337.617,-455.538"/>
</g>
<!-- Node191&#45;&gt;Node197 -->
<g id="edge17" class="edge"><title>Node191&#45;&gt;Node197</title>
<path fill="none" stroke="midnightblue" d="M218.727,-505.712C236.172,-486.698 277.353,-444.534 320,-420.5 323.715,-418.406 327.695,-416.503 331.767,-414.783"/>
<polygon fill="midnightblue" stroke="midnightblue" points="333.276,-417.952 341.351,-411.094 330.762,-411.419 333.276,-417.952"/>
</g>
<!-- Node199 -->
<g id="node19" class="node"><title>Node199</title>
<g id="a_node19"><a xlink:href="$classIrene3000.html#abcad62d1201a59f8dd3ba87048002728" xlink:title="Irene3000::gainConvert">
<polygon fill="white" stroke="black" points="320.5,-164 320.5,-183 438.5,-183 438.5,-164 320.5,-164"/>
<text text-anchor="middle" x="379.5" y="-171" font-family="Helvetica,sans-Serif" font-size="10.00">Irene3000::gainConvert</text>
</a>
</g>
</g>
<!-- Node198&#45;&gt;Node199 -->
<g id="edge19" class="edge"><title>Node198&#45;&gt;Node199</title>
<path fill="none" stroke="midnightblue" d="M255.155,-173.5C272.017,-173.5 291.563,-173.5 310.055,-173.5"/>
<polygon fill="midnightblue" stroke="midnightblue" points="310.197,-177 320.197,-173.5 310.197,-170 310.197,-177"/>
</g>
</g>
</svg>
