<?xml version="1.0" encoding="UTF-8" standalone="no"?>
<!DOCTYPE svg PUBLIC "-//W3C//DTD SVG 1.1//EN"
 "http://www.w3.org/Graphics/SVG/1.1/DTD/svg11.dtd">
<!-- Generated by graphviz version 2.38.0 (20140413.2041)
 -->
<!-- Title: CoolBoard::offLineMode Pages: 1 -->
<svg width="841pt" height="275pt"
 viewBox="0.00 0.00 841.00 275.00" xmlns="http://www.w3.org/2000/svg" xmlns:xlink="http://www.w3.org/1999/xlink">
<g id="graph0" class="graph" transform="scale(1 1) rotate(0) translate(4 271)">
<title>CoolBoard::offLineMode</title>
<polygon fill="white" stroke="none" points="-4,4 -4,-271 837,-271 837,4 -4,4"/>
<!-- Node64 -->
<g id="node1" class="node"><title>Node64</title>
<polygon fill="#bfbfbf" stroke="black" points="0,-114.5 0,-133.5 122,-133.5 122,-114.5 0,-114.5"/>
<text text-anchor="middle" x="61" y="-121.5" font-family="Helvetica,sans-Serif" font-size="10.00">CoolBoard::offLineMode</text>
</g>
<!-- Node65 -->
<g id="node2" class="node"><title>Node65</title>
<g id="a_node2"><a xlink:href="$classJetpack.html#a86d2e83436ef4b85f4c3a6e85ac785b0" xlink:title="Jetpack::doAction">
<polygon fill="white" stroke="black" points="193,-190.5 193,-209.5 288,-209.5 288,-190.5 193,-190.5"/>
<text text-anchor="middle" x="240.5" y="-197.5" font-family="Helvetica,sans-Serif" font-size="10.00">Jetpack::doAction</text>
</a>
</g>
</g>
<!-- Node64&#45;&gt;Node65 -->
<g id="edge1" class="edge"><title>Node64&#45;&gt;Node65</title>
<path fill="none" stroke="midnightblue" d="M84.4805,-133.625C115.689,-146.988 172.299,-171.227 207.79,-186.423"/>
<polygon fill="midnightblue" stroke="midnightblue" points="206.632,-189.734 217.202,-190.453 209.387,-183.299 206.632,-189.734"/>
</g>
<!-- Node67 -->
<g id="node4" class="node"><title>Node67</title>
<g id="a_node4"><a xlink:href="$classCoolBoard.html#ad03abdce2e65f520bbf2cff0f2d083cf" xlink:title="CoolBoard::readSensors">
<polygon fill="white" stroke="black" points="179,-133.5 179,-152.5 302,-152.5 302,-133.5 179,-133.5"/>
<text text-anchor="middle" x="240.5" y="-140.5" font-family="Helvetica,sans-Serif" font-size="10.00">CoolBoard::readSensors</text>
</a>
</g>
</g>
<!-- Node64&#45;&gt;Node67 -->
<g id="edge3" class="edge"><title>Node64&#45;&gt;Node67</title>
<path fill="none" stroke="midnightblue" d="M122.093,-130.433C137.109,-132.04 153.35,-133.778 168.826,-135.435"/>
<polygon fill="midnightblue" stroke="midnightblue" points="168.549,-138.925 178.865,-136.509 169.294,-131.965 168.549,-138.925"/>
</g>
<!-- Node78 -->
<g id="node15" class="node"><title>Node78</title>
<g id="a_node15"><a xlink:href="$classCoolFileSystem.html#a4c560c2ddd40b74b7758e6ceb2c58957" xlink:title="CoolFileSystem::saveSensorData">
<polygon fill="white" stroke="black" points="158,-95.5 158,-114.5 323,-114.5 323,-95.5 158,-95.5"/>
<text text-anchor="middle" x="240.5" y="-102.5" font-family="Helvetica,sans-Serif" font-size="10.00">CoolFileSystem::saveSensorData</text>
</a>
</g>
</g>
<!-- Node64&#45;&gt;Node78 -->
<g id="edge16" class="edge"><title>Node64&#45;&gt;Node78</title>
<path fill="none" stroke="midnightblue" d="M122.093,-117.567C130.334,-116.685 138.944,-115.764 147.594,-114.838"/>
<polygon fill="midnightblue" stroke="midnightblue" points="148.177,-118.296 157.748,-113.751 147.432,-111.335 148.177,-118.296"/>
</g>
<!-- Node79 -->
<g id="node16" class="node"><title>Node79</title>
<g id="a_node16"><a xlink:href="$classCoolBoard.html#ae7358fb6e623cfc81b775f5f1734909b" xlink:title="CoolBoard::userData">
<polygon fill="white" stroke="black" points="186.5,-57.5 186.5,-76.5 294.5,-76.5 294.5,-57.5 186.5,-57.5"/>
<text text-anchor="middle" x="240.5" y="-64.5" font-family="Helvetica,sans-Serif" font-size="10.00">CoolBoard::userData</text>
</a>
</g>
</g>
<!-- Node64&#45;&gt;Node79 -->
<g id="edge17" class="edge"><title>Node64&#45;&gt;Node79</title>
<path fill="none" stroke="midnightblue" d="M83.4042,-114.469C102.646,-106.158 131.824,-94.1825 158,-86 166.073,-83.4763 174.689,-81.1179 183.184,-78.98"/>
<polygon fill="midnightblue" stroke="midnightblue" points="184.173,-82.3416 193.061,-76.5749 182.517,-75.5404 184.173,-82.3416"/>
</g>
<!-- Node66 -->
<g id="node3" class="node"><title>Node66</title>
<g id="a_node3"><a xlink:href="$classJetpack.html#a338f1af8cbc6504ac69b47c7328569b5" xlink:title="Jetpack::write">
<polygon fill="white" stroke="black" points="381.5,-209.5 381.5,-228.5 459.5,-228.5 459.5,-209.5 381.5,-209.5"/>
<text text-anchor="middle" x="420.5" y="-216.5" font-family="Helvetica,sans-Serif" font-size="10.00">Jetpack::write</text>
</a>
</g>
</g>
<!-- Node65&#45;&gt;Node66 -->
<g id="edge2" class="edge"><title>Node65&#45;&gt;Node66</title>
<path fill="none" stroke="midnightblue" d="M288.267,-204.992C313.911,-207.729 345.643,-211.116 371.481,-213.874"/>
<polygon fill="midnightblue" stroke="midnightblue" points="371.116,-217.355 381.431,-214.936 371.859,-210.395 371.116,-217.355"/>
</g>
<!-- Node68 -->
<g id="node5" class="node"><title>Node68</title>
<g id="a_node5"><a xlink:href="$classCoolBoardSensors.html#a91badb2539d91fda8679f2a597874c48" xlink:title="CoolBoardSensors::read">
<polygon fill="white" stroke="black" points="359,-171.5 359,-190.5 482,-190.5 482,-171.5 359,-171.5"/>
<text text-anchor="middle" x="420.5" y="-178.5" font-family="Helvetica,sans-Serif" font-size="10.00">CoolBoardSensors::read</text>
</a>
</g>
</g>
<!-- Node67&#45;&gt;Node68 -->
<g id="edge4" class="edge"><title>Node67&#45;&gt;Node68</title>
<path fill="none" stroke="midnightblue" d="M286.417,-152.589C310.329,-157.694 339.921,-164.011 365.125,-169.392"/>
<polygon fill="midnightblue" stroke="midnightblue" points="364.396,-172.815 374.906,-171.48 365.857,-165.969 364.396,-172.815"/>
</g>
<!-- Node72 -->
<g id="node9" class="node"><title>Node72</title>
<g id="a_node9"><a xlink:href="$classExternalSensors.html#a53177b81eca3be89508b5511ddcd00fc" xlink:title="ExternalSensors::read">
<polygon fill="white" stroke="black" points="364,-133.5 364,-152.5 477,-152.5 477,-133.5 364,-133.5"/>
<text text-anchor="middle" x="420.5" y="-140.5" font-family="Helvetica,sans-Serif" font-size="10.00">ExternalSensors::read</text>
</a>
</g>
</g>
<!-- Node67&#45;&gt;Node72 -->
<g id="edge8" class="edge"><title>Node67&#45;&gt;Node72</title>
<path fill="none" stroke="midnightblue" d="M302.26,-143C318.773,-143 336.734,-143 353.522,-143"/>
<polygon fill="midnightblue" stroke="midnightblue" points="353.8,-146.5 363.8,-143 353.799,-139.5 353.8,-146.5"/>
</g>
<!-- Node73 -->
<g id="node10" class="node"><title>Node73</title>
<g id="a_node10"><a xlink:href="$classIrene3000.html#a852a170feea994ea1df01c6b245b5d9a" xlink:title="Irene3000::read">
<polygon fill="white" stroke="black" points="378.5,-95.5 378.5,-114.5 462.5,-114.5 462.5,-95.5 378.5,-95.5"/>
<text text-anchor="middle" x="420.5" y="-102.5" font-family="Helvetica,sans-Serif" font-size="10.00">Irene3000::read</text>
</a>
</g>
</g>
<!-- Node67&#45;&gt;Node73 -->
<g id="edge9" class="edge"><title>Node67&#45;&gt;Node73</title>
<path fill="none" stroke="midnightblue" d="M286.417,-133.411C311.329,-128.093 342.407,-121.458 368.264,-115.938"/>
<polygon fill="midnightblue" stroke="midnightblue" points="369.209,-119.315 378.258,-113.805 367.747,-112.47 369.209,-119.315"/>
</g>
<!-- Node69 -->
<g id="node6" class="node"><title>Node69</title>
<g id="a_node6"><a xlink:href="$classCoolBoardSensors.html#acad6a8418c66d36868caca23c844ecb6" xlink:title="CoolBoardSensors::initReadI2C">
<polygon fill="white" stroke="black" points="520.5,-247.5 520.5,-266.5 676.5,-266.5 676.5,-247.5 520.5,-247.5"/>
<text text-anchor="middle" x="598.5" y="-254.5" font-family="Helvetica,sans-Serif" font-size="10.00">CoolBoardSensors::initReadI2C</text>
</a>
</g>
</g>
<!-- Node68&#45;&gt;Node69 -->
<g id="edge5" class="edge"><title>Node68&#45;&gt;Node69</title>
<path fill="none" stroke="midnightblue" d="M461.826,-190.501C468.831,-193.023 475.837,-196.15 482,-200 501.731,-212.325 497.851,-226.37 518,-238 521.908,-240.256 526.072,-242.244 530.367,-243.997"/>
<polygon fill="midnightblue" stroke="midnightblue" points="529.339,-247.347 539.933,-247.47 531.728,-240.768 529.339,-247.347"/>
</g>
<!-- Node70 -->
<g id="node7" class="node"><title>Node70</title>
<g id="a_node7"><a xlink:href="$classCoolBoardSensors.html#a6944b6ea7bce8e2fce1b434acfd9d5f3" xlink:title="CoolBoardSensors::readVBat">
<polygon fill="white" stroke="black" points="526,-209.5 526,-228.5 671,-228.5 671,-209.5 526,-209.5"/>
<text text-anchor="middle" x="598.5" y="-216.5" font-family="Helvetica,sans-Serif" font-size="10.00">CoolBoardSensors::readVBat</text>
</a>
</g>
</g>
<!-- Node68&#45;&gt;Node70 -->
<g id="edge6" class="edge"><title>Node68&#45;&gt;Node70</title>
<path fill="none" stroke="midnightblue" d="M465.912,-190.589C489.451,-195.671 518.557,-201.955 543.405,-207.32"/>
<polygon fill="midnightblue" stroke="midnightblue" points="542.894,-210.791 553.407,-209.48 544.371,-203.948 542.894,-210.791"/>
</g>
<!-- Node71 -->
<g id="node8" class="node"><title>Node71</title>
<g id="a_node8"><a xlink:href="$classCoolBoardSensors.html#a8761bff50373c485f4465c8db47d0633" xlink:title="CoolBoardSensors::readMoisture">
<polygon fill="white" stroke="black" points="518,-171.5 518,-190.5 679,-190.5 679,-171.5 518,-171.5"/>
<text text-anchor="middle" x="598.5" y="-178.5" font-family="Helvetica,sans-Serif" font-size="10.00">CoolBoardSensors::readMoisture</text>
</a>
</g>
</g>
<!-- Node68&#45;&gt;Node71 -->
<g id="edge7" class="edge"><title>Node68&#45;&gt;Node71</title>
<path fill="none" stroke="midnightblue" d="M482.069,-181C490.36,-181 499.011,-181 507.686,-181"/>
<polygon fill="midnightblue" stroke="midnightblue" points="507.86,-184.5 517.86,-181 507.86,-177.5 507.86,-184.5"/>
</g>
<!-- Node74 -->
<g id="node11" class="node"><title>Node74</title>
<g id="a_node11"><a xlink:href="$classIrene3000.html#a94ad40f281d83ad1be20bf1edd6fe802" xlink:title="Irene3000::readTemp">
<polygon fill="white" stroke="black" points="544,-133.5 544,-152.5 653,-152.5 653,-133.5 544,-133.5"/>
<text text-anchor="middle" x="598.5" y="-140.5" font-family="Helvetica,sans-Serif" font-size="10.00">Irene3000::readTemp</text>
</a>
</g>
</g>
<!-- Node73&#45;&gt;Node74 -->
<g id="edge10" class="edge"><title>Node73&#45;&gt;Node74</title>
<path fill="none" stroke="midnightblue" d="M462.764,-113.909C486.803,-119.099 517.396,-125.705 543.352,-131.309"/>
<polygon fill="midnightblue" stroke="midnightblue" points="542.904,-134.793 553.418,-133.482 544.382,-127.951 542.904,-134.793"/>
</g>
<!-- Node76 -->
<g id="node13" class="node"><title>Node76</title>
<g id="a_node13"><a xlink:href="$classIrene3000.html#abf3db725fabb0634ec889b32068a5eec" xlink:title="Irene3000::readPh">
<polygon fill="white" stroke="black" points="550.5,-95.5 550.5,-114.5 646.5,-114.5 646.5,-95.5 550.5,-95.5"/>
<text text-anchor="middle" x="598.5" y="-102.5" font-family="Helvetica,sans-Serif" font-size="10.00">Irene3000::readPh</text>
</a>
</g>
</g>
<!-- Node73&#45;&gt;Node76 -->
<g id="edge12" class="edge"><title>Node73&#45;&gt;Node76</title>
<path fill="none" stroke="midnightblue" d="M462.764,-105C485.803,-105 514.863,-105 540.092,-105"/>
<polygon fill="midnightblue" stroke="midnightblue" points="540.276,-108.5 550.276,-105 540.276,-101.5 540.276,-108.5"/>
</g>
<!-- Node77 -->
<g id="node14" class="node"><title>Node77</title>
<g id="a_node14"><a xlink:href="$classIrene3000.html#ae73bd2ed14a199a7e83f4d6458476a7c" xlink:title="Irene3000::readADSChannel2">
<polygon fill="white" stroke="black" points="525.5,-57.5 525.5,-76.5 671.5,-76.5 671.5,-57.5 525.5,-57.5"/>
<text text-anchor="middle" x="598.5" y="-64.5" font-family="Helvetica,sans-Serif" font-size="10.00">Irene3000::readADSChannel2</text>
</a>
</g>
</g>
<!-- Node73&#45;&gt;Node77 -->
<g id="edge14" class="edge"><title>Node73&#45;&gt;Node77</title>
<path fill="none" stroke="midnightblue" d="M462.764,-96.0907C486.803,-90.9006 517.396,-84.2953 543.352,-78.691"/>
<polygon fill="midnightblue" stroke="midnightblue" points="544.382,-82.0495 553.418,-76.5178 542.904,-75.2071 544.382,-82.0495"/>
</g>
<!-- Node75 -->
<g id="node12" class="node"><title>Node75</title>
<g id="a_node12"><a xlink:href="$classIrene3000.html#aff7c5da186b388e7272e63ff88a20c34" xlink:title="Irene3000::setGain">
<polygon fill="white" stroke="black" points="724.5,-95.5 724.5,-114.5 823.5,-114.5 823.5,-95.5 724.5,-95.5"/>
<text text-anchor="middle" x="774" y="-102.5" font-family="Helvetica,sans-Serif" font-size="10.00">Irene3000::setGain</text>
</a>
</g>
</g>
<!-- Node74&#45;&gt;Node75 -->
<g id="edge11" class="edge"><title>Node74&#45;&gt;Node75</title>
<path fill="none" stroke="midnightblue" d="M643.281,-133.411C666.486,-128.329 695.178,-122.045 719.673,-116.68"/>
<polygon fill="midnightblue" stroke="midnightblue" points="720.514,-120.079 729.533,-114.52 719.016,-113.241 720.514,-120.079"/>
</g>
<!-- Node76&#45;&gt;Node75 -->
<g id="edge13" class="edge"><title>Node76&#45;&gt;Node75</title>
<path fill="none" stroke="midnightblue" d="M646.91,-105C667.697,-105 692.308,-105 714.245,-105"/>
<polygon fill="midnightblue" stroke="midnightblue" points="714.44,-108.5 724.44,-105 714.44,-101.5 714.44,-108.5"/>
</g>
<!-- Node77&#45;&gt;Node75 -->
<g id="edge15" class="edge"><title>Node77&#45;&gt;Node75</title>
<path fill="none" stroke="midnightblue" d="M643.281,-76.589C666.486,-81.6713 695.178,-87.9554 719.673,-93.3203"/>
<polygon fill="midnightblue" stroke="midnightblue" points="719.016,-96.7593 729.533,-95.4799 720.514,-89.9214 719.016,-96.7593"/>
</g>
<!-- Node80 -->
<g id="node17" class="node"><title>Node80</title>
<g id="a_node17"><a xlink:href="$classCoolMQTT.html#a373cc92fca7760d886f02d8a6e5b3f63" xlink:title="CoolMQTT::getUser">
<polygon fill="white" stroke="black" points="368,-57.5 368,-76.5 473,-76.5 473,-57.5 368,-57.5"/>
<text text-anchor="middle" x="420.5" y="-64.5" font-family="Helvetica,sans-Serif" font-size="10.00">CoolMQTT::getUser</text>
</a>
</g>
</g>
<!-- Node79&#45;&gt;Node80 -->
<g id="edge18" class="edge"><title>Node79&#45;&gt;Node80</title>
<path fill="none" stroke="midnightblue" d="M294.906,-67C314.704,-67 337.316,-67 357.794,-67"/>
<polygon fill="midnightblue" stroke="midnightblue" points="357.967,-70.5001 367.966,-67 357.966,-63.5001 357.967,-70.5001"/>
</g>
<!-- Node81 -->
<g id="node18" class="node"><title>Node81</title>
<g id="a_node18"><a xlink:href="$classCoolTime.html#ac4f32ee513c1328d984306645e8785a4" xlink:title="CoolTime::getESDate">
<polygon fill="white" stroke="black" points="364,-19.5 364,-38.5 477,-38.5 477,-19.5 364,-19.5"/>
<text text-anchor="middle" x="420.5" y="-26.5" font-family="Helvetica,sans-Serif" font-size="10.00">CoolTime::getESDate</text>
</a>
</g>
</g>
<!-- Node79&#45;&gt;Node81 -->
<g id="edge19" class="edge"><title>Node79&#45;&gt;Node81</title>
<path fill="none" stroke="midnightblue" d="M286.417,-57.411C310.329,-52.3061 339.921,-45.9887 365.125,-40.6082"/>
<polygon fill="midnightblue" stroke="midnightblue" points="365.857,-44.0308 374.906,-38.5201 364.396,-37.185 365.857,-44.0308"/>
</g>
<!-- Node82 -->
<g id="node19" class="node"><title>Node82</title>
<g id="a_node19"><a xlink:href="$classCoolTime.html#a7a7501c5ca77dd1248bea704c44f986c" xlink:title="CoolTime::getTimeDate">
<polygon fill="white" stroke="black" points="538,-19.5 538,-38.5 659,-38.5 659,-19.5 538,-19.5"/>
<text text-anchor="middle" x="598.5" y="-26.5" font-family="Helvetica,sans-Serif" font-size="10.00">CoolTime::getTimeDate</text>
</a>
</g>
</g>
<!-- Node81&#45;&gt;Node82 -->
<g id="edge20" class="edge"><title>Node81&#45;&gt;Node82</title>
<path fill="none" stroke="midnightblue" d="M477.188,-29C493.2,-29 510.87,-29 527.624,-29"/>
<polygon fill="midnightblue" stroke="midnightblue" points="527.914,-32.5001 537.914,-29 527.914,-25.5001 527.914,-32.5001"/>
</g>
<!-- Node83 -->
<g id="node20" class="node"><title>Node83</title>
<g id="a_node20"><a xlink:href="$classCoolTime.html#acd537cd4210d7bde4e1f5c47d2ac0456" xlink:title="CoolTime::formatDigits">
<polygon fill="white" stroke="black" points="715,-0.5 715,-19.5 833,-19.5 833,-0.5 715,-0.5"/>
<text text-anchor="middle" x="774" y="-7.5" font-family="Helvetica,sans-Serif" font-size="10.00">CoolTime::formatDigits</text>
</a>
</g>
</g>
<!-- Node81&#45;&gt;Node83 -->
<g id="edge22" class="edge"><title>Node81&#45;&gt;Node83</title>
<path fill="none" stroke="midnightblue" d="M460.682,-19.4898C478.116,-15.7247 498.966,-11.856 518,-10 581.098,-3.84735 653.397,-4.57812 704.858,-6.41658"/>
<polygon fill="midnightblue" stroke="midnightblue" points="704.738,-9.91444 714.864,-6.79733 705.004,-2.9195 704.738,-9.91444"/>
</g>
<!-- Node82&#45;&gt;Node83 -->
<g id="edge21" class="edge"><title>Node82&#45;&gt;Node83</title>
<path fill="none" stroke="midnightblue" d="M659.209,-22.4613C673.863,-20.8565 689.661,-19.1264 704.686,-17.4811"/>
<polygon fill="midnightblue" stroke="midnightblue" points="705.381,-20.926 714.941,-16.3581 704.619,-13.9676 705.381,-20.926"/>
</g>
</g>
</svg>
