<?xml version="1.0" encoding="UTF-8" standalone="no"?>
<!DOCTYPE svg PUBLIC "-//W3C//DTD SVG 1.1//EN"
 "http://www.w3.org/Graphics/SVG/1.1/DTD/svg11.dtd">
<!-- Generated by graphviz version 2.38.0 (20140413.2041)
 -->
<!-- Title: CoolTime::printConf Pages: 1 -->
<svg width="530pt" height="66pt"
 viewBox="0.00 0.00 530.00 66.00" xmlns="http://www.w3.org/2000/svg" xmlns:xlink="http://www.w3.org/1999/xlink">
<g id="graph0" class="graph" transform="scale(1 1) rotate(0) translate(4 62)">
<title>CoolTime::printConf</title>
<polygon fill="white" stroke="none" points="-4,4 -4,-62 526,-62 526,4 -4,4"/>
<!-- Node68 -->
<g id="node1" class="node"><title>Node68</title>
<polygon fill="#bfbfbf" stroke="black" points="0,-19.5 0,-38.5 104,-38.5 104,-19.5 0,-19.5"/>
<text text-anchor="middle" x="52" y="-26.5" font-family="Helvetica,sans-Serif" font-size="10.00">CoolTime::printConf</text>
</g>
<!-- Node69 -->
<g id="node2" class="node"><title>Node69</title>
<g id="a_node2"><a xlink:href="$classCoolBoard.html#acba7c5aef7268b2c0044bdb54d3b9d76" xlink:title="CoolBoard::begin">
<polygon fill="white" stroke="black" points="270,-38.5 270,-57.5 362,-57.5 362,-38.5 270,-38.5"/>
<text text-anchor="middle" x="316" y="-45.5" font-family="Helvetica,sans-Serif" font-size="10.00">CoolBoard::begin</text>
</a>
</g>
</g>
<!-- Node68&#45;&gt;Node69 -->
<g id="edge1" class="edge"><title>Node68&#45;&gt;Node69</title>
<path fill="none" stroke="midnightblue" d="M114.313,-33.4464C161.874,-36.8954 226.722,-41.5981 269.677,-44.7132"/>
<polygon fill="midnightblue" stroke="midnightblue" points="114.365,-29.941 104.138,-32.7085 113.859,-36.9227 114.365,-29.941"/>
</g>
<!-- Node70 -->
<g id="node3" class="node"><title>Node70</title>
<g id="a_node3"><a xlink:href="$classCoolTime.html#a87c28260c1bc77091162cbcf1ee2e129" xlink:title="CoolTime::config">
<polygon fill="white" stroke="black" points="140,-0.5 140,-19.5 231,-19.5 231,-0.5 140,-0.5"/>
<text text-anchor="middle" x="185.5" y="-7.5" font-family="Helvetica,sans-Serif" font-size="10.00">CoolTime::config</text>
</a>
</g>
</g>
<!-- Node68&#45;&gt;Node70 -->
<g id="edge2" class="edge"><title>Node68&#45;&gt;Node70</title>
<path fill="none" stroke="midnightblue" d="M114.193,-20.1584C122.761,-18.9205 131.432,-17.6676 139.622,-16.4843"/>
<polygon fill="midnightblue" stroke="midnightblue" points="113.615,-16.7056 104.218,-21.5997 114.616,-23.6336 113.615,-16.7056"/>
</g>
<!-- Node70&#45;&gt;Node69 -->
<g id="edge3" class="edge"><title>Node70&#45;&gt;Node69</title>
<path fill="none" stroke="midnightblue" d="M228.889,-22.5353C246.37,-27.7048 266.302,-33.5991 282.584,-38.4141"/>
<polygon fill="midnightblue" stroke="midnightblue" points="229.508,-19.0686 218.926,-19.589 227.523,-25.7812 229.508,-19.0686"/>
</g>
<!-- Node71 -->
<g id="node4" class="node"><title>Node71</title>
<g id="a_node4"><a xlink:href="$classCoolBoard.html#a8612756d3f73198cdde857a66f0fe690" xlink:title="CoolBoard::update">
<polygon fill="white" stroke="black" points="267,-0.5 267,-19.5 365,-19.5 365,-0.5 267,-0.5"/>
<text text-anchor="middle" x="316" y="-7.5" font-family="Helvetica,sans-Serif" font-size="10.00">CoolBoard::update</text>
</a>
</g>
</g>
<!-- Node70&#45;&gt;Node71 -->
<g id="edge4" class="edge"><title>Node70&#45;&gt;Node71</title>
<path fill="none" stroke="midnightblue" d="M241.336,-10C249.868,-10 258.626,-10 266.991,-10"/>
<polygon fill="midnightblue" stroke="midnightblue" points="241.082,-6.5001 231.082,-10 241.082,-13.5001 241.082,-6.5001"/>
</g>
<!-- Node72 -->
<g id="node5" class="node"><title>Node72</title>
<g id="a_node5"><a xlink:href="$classCoolBoard.html#aa0bbc4bc605e35618d18e68795c61363" xlink:title="CoolBoard::onLineMode">
<polygon fill="white" stroke="black" points="401,-0.5 401,-19.5 522,-19.5 522,-0.5 401,-0.5"/>
<text text-anchor="middle" x="461.5" y="-7.5" font-family="Helvetica,sans-Serif" font-size="10.00">CoolBoard::onLineMode</text>
</a>
</g>
</g>
<!-- Node71&#45;&gt;Node72 -->
<g id="edge5" class="edge"><title>Node71&#45;&gt;Node72</title>
<path fill="none" stroke="midnightblue" d="M375.332,-10C383.785,-10 392.496,-10 400.972,-10"/>
<polygon fill="midnightblue" stroke="midnightblue" points="375.183,-6.5001 365.183,-10 375.183,-13.5001 375.183,-6.5001"/>
</g>
</g>
</svg>
