<?xml version="1.0" encoding="UTF-8" standalone="no"?>
<!DOCTYPE svg PUBLIC "-//W3C//DTD SVG 1.1//EN"
 "http://www.w3.org/Graphics/SVG/1.1/DTD/svg11.dtd">
<!-- Generated by graphviz version 2.38.0 (20140413.2041)
 -->
<!-- Title: CoolBoard::getLogInterval Pages: 1 -->
<svg width="423pt" height="66pt"
 viewBox="0.00 0.00 423.00 66.00" xmlns="http://www.w3.org/2000/svg" xmlns:xlink="http://www.w3.org/1999/xlink">
<g id="graph0" class="graph" transform="scale(1 1) rotate(0) translate(4 62)">
<title>CoolBoard::getLogInterval</title>
<polygon fill="white" stroke="none" points="-4,4 -4,-62 419,-62 419,4 -4,4"/>
<!-- Node51 -->
<g id="node1" class="node"><title>Node51</title>
<polygon fill="#bfbfbf" stroke="black" points="0,-19.5 0,-38.5 130,-38.5 130,-19.5 0,-19.5"/>
<text text-anchor="middle" x="65" y="-26.5" font-family="Helvetica,sans-Serif" font-size="10.00">CoolBoard::getLogInterval</text>
</g>
<!-- Node52 -->
<g id="node2" class="node"><title>Node52</title>
<g id="a_node2"><a xlink:href="$classCoolBoard.html#a519de78b807f8ec6463ff484eb925918" xlink:title="CoolBoard::connect">
<polygon fill="white" stroke="black" points="175,-38.5 175,-57.5 278,-57.5 278,-38.5 175,-38.5"/>
<text text-anchor="middle" x="226.5" y="-45.5" font-family="Helvetica,sans-Serif" font-size="10.00">CoolBoard::connect</text>
</a>
</g>
</g>
<!-- Node51&#45;&gt;Node52 -->
<g id="edge1" class="edge"><title>Node51&#45;&gt;Node52</title>
<path fill="none" stroke="midnightblue" d="M140.492,-37.8736C152.03,-39.248 163.715,-40.64 174.576,-41.9338"/>
<polygon fill="midnightblue" stroke="midnightblue" points="140.759,-34.3808 130.415,-36.6733 139.931,-41.3316 140.759,-34.3808"/>
</g>
<!-- Node54 -->
<g id="node4" class="node"><title>Node54</title>
<g id="a_node4"><a xlink:href="$classCoolBoard.html#aa0bbc4bc605e35618d18e68795c61363" xlink:title="CoolBoard::onLineMode">
<polygon fill="white" stroke="black" points="166,-0.5 166,-19.5 287,-19.5 287,-0.5 166,-0.5"/>
<text text-anchor="middle" x="226.5" y="-7.5" font-family="Helvetica,sans-Serif" font-size="10.00">CoolBoard::onLineMode</text>
</a>
</g>
</g>
<!-- Node51&#45;&gt;Node54 -->
<g id="edge3" class="edge"><title>Node51&#45;&gt;Node54</title>
<path fill="none" stroke="midnightblue" d="M140.348,-20.1435C148.862,-19.1293 157.458,-18.1054 165.746,-17.1181"/>
<polygon fill="midnightblue" stroke="midnightblue" points="139.931,-16.6684 130.415,-21.3267 140.759,-23.6192 139.931,-16.6684"/>
</g>
<!-- Node53 -->
<g id="node3" class="node"><title>Node53</title>
<g id="a_node3"><a xlink:href="$classCoolBoard.html#acba7c5aef7268b2c0044bdb54d3b9d76" xlink:title="CoolBoard::begin">
<polygon fill="white" stroke="black" points="323,-38.5 323,-57.5 415,-57.5 415,-38.5 323,-38.5"/>
<text text-anchor="middle" x="369" y="-45.5" font-family="Helvetica,sans-Serif" font-size="10.00">CoolBoard::begin</text>
</a>
</g>
</g>
<!-- Node52&#45;&gt;Node53 -->
<g id="edge2" class="edge"><title>Node52&#45;&gt;Node53</title>
<path fill="none" stroke="midnightblue" d="M288.317,-48C299.942,-48 311.918,-48 322.941,-48"/>
<polygon fill="midnightblue" stroke="midnightblue" points="288.224,-44.5001 278.224,-48 288.224,-51.5001 288.224,-44.5001"/>
</g>
</g>
</svg>
