<?xml version="1.0" encoding="UTF-8" standalone="no"?>
<!DOCTYPE svg PUBLIC "-//W3C//DTD SVG 1.1//EN"
 "http://www.w3.org/Graphics/SVG/1.1/DTD/svg11.dtd">
<!-- Generated by graphviz version 2.38.0 (20140413.2041)
 -->
<!-- Title: CoolBoard::readSensors Pages: 1 -->
<svg width="622pt" height="332pt"
 viewBox="0.00 0.00 622.00 332.00" xmlns="http://www.w3.org/2000/svg" xmlns:xlink="http://www.w3.org/1999/xlink">
<g id="graph0" class="graph" transform="scale(1 1) rotate(0) translate(4 328)">
<title>CoolBoard::readSensors</title>
<polygon fill="white" stroke="none" points="-4,4 -4,-328 618,-328 618,4 -4,4"/>
<!-- Node168 -->
<g id="node1" class="node"><title>Node168</title>
<polygon fill="#bfbfbf" stroke="black" points="0,-171.5 0,-190.5 123,-190.5 123,-171.5 0,-171.5"/>
<text text-anchor="middle" x="61.5" y="-178.5" font-family="Helvetica,sans-Serif" font-size="10.00">CoolBoard::readSensors</text>
</g>
<!-- Node169 -->
<g id="node2" class="node"><title>Node169</title>
<g id="a_node2"><a xlink:href="$classCoolBoardLed.html#ab778f5e7bed0ab74e3906d82110493c3" xlink:title="CoolBoardLed::fadeIn">
<polygon fill="white" stroke="black" points="165,-304.5 165,-323.5 276,-323.5 276,-304.5 165,-304.5"/>
<text text-anchor="middle" x="220.5" y="-311.5" font-family="Helvetica,sans-Serif" font-size="10.00">CoolBoardLed::fadeIn</text>
</a>
</g>
</g>
<!-- Node168&#45;&gt;Node169 -->
<g id="edge1" class="edge"><title>Node168&#45;&gt;Node169</title>
<path fill="none" stroke="midnightblue" d="M67.9369,-190.532C80.8556,-212.331 115.585,-266.162 159,-295 162.069,-297.039 165.37,-298.869 168.789,-300.511"/>
<polygon fill="midnightblue" stroke="midnightblue" points="167.467,-303.752 178.04,-304.429 170.197,-297.306 167.467,-303.752"/>
</g>
<!-- Node170 -->
<g id="node3" class="node"><title>Node170</title>
<g id="a_node3"><a xlink:href="$classCoolBoardLed.html#a93d545679237e8cc858324367149775c" xlink:title="CoolBoardLed::fadeOut">
<polygon fill="white" stroke="black" points="161,-266.5 161,-285.5 280,-285.5 280,-266.5 161,-266.5"/>
<text text-anchor="middle" x="220.5" y="-273.5" font-family="Helvetica,sans-Serif" font-size="10.00">CoolBoardLed::fadeOut</text>
</a>
</g>
</g>
<!-- Node168&#45;&gt;Node170 -->
<g id="edge2" class="edge"><title>Node168&#45;&gt;Node170</title>
<path fill="none" stroke="midnightblue" d="M72.0663,-190.53C88.4983,-206.412 123.734,-238.383 159,-257 163.053,-259.139 167.387,-261.085 171.804,-262.844"/>
<polygon fill="midnightblue" stroke="midnightblue" points="170.935,-266.253 181.529,-266.398 173.338,-259.678 170.935,-266.253"/>
</g>
<!-- Node171 -->
<g id="node4" class="node"><title>Node171</title>
<g id="a_node4"><a xlink:href="$classCoolTime.html#a7a7501c5ca77dd1248bea704c44f986c" xlink:title="CoolTime::getTimeDate">
<polygon fill="white" stroke="black" points="160,-228.5 160,-247.5 281,-247.5 281,-228.5 160,-228.5"/>
<text text-anchor="middle" x="220.5" y="-235.5" font-family="Helvetica,sans-Serif" font-size="10.00">CoolTime::getTimeDate</text>
</a>
</g>
</g>
<!-- Node168&#45;&gt;Node171 -->
<g id="edge3" class="edge"><title>Node168&#45;&gt;Node171</title>
<path fill="none" stroke="midnightblue" d="M85.3353,-190.521C104.781,-198.501 133.535,-210 159,-219 165.063,-221.143 171.508,-223.297 177.846,-225.345"/>
<polygon fill="midnightblue" stroke="midnightblue" points="177.056,-228.767 187.647,-228.461 179.177,-222.096 177.056,-228.767"/>
</g>
<!-- Node173 -->
<g id="node6" class="node"><title>Node173</title>
<g id="a_node6"><a xlink:href="$classCoolBoard.html#a397b46fadab8f530a8cf4d914c561366" xlink:title="CoolBoard::initReadI2C">
<polygon fill="white" stroke="black" points="160.5,-190.5 160.5,-209.5 280.5,-209.5 280.5,-190.5 160.5,-190.5"/>
<text text-anchor="middle" x="220.5" y="-197.5" font-family="Helvetica,sans-Serif" font-size="10.00">CoolBoard::initReadI2C</text>
</a>
</g>
</g>
<!-- Node168&#45;&gt;Node173 -->
<g id="edge5" class="edge"><title>Node168&#45;&gt;Node173</title>
<path fill="none" stroke="midnightblue" d="M123.2,-188.346C132.04,-189.416 141.198,-190.524 150.192,-191.612"/>
<polygon fill="midnightblue" stroke="midnightblue" points="149.904,-195.103 160.253,-192.83 150.746,-188.154 149.904,-195.103"/>
</g>
<!-- Node174 -->
<g id="node7" class="node"><title>Node174</title>
<g id="a_node7"><a xlink:href="$classExternalSensors.html#a53177b81eca3be89508b5511ddcd00fc" xlink:title="ExternalSensors::read">
<polygon fill="white" stroke="black" points="164,-152.5 164,-171.5 277,-171.5 277,-152.5 164,-152.5"/>
<text text-anchor="middle" x="220.5" y="-159.5" font-family="Helvetica,sans-Serif" font-size="10.00">ExternalSensors::read</text>
</a>
</g>
</g>
<!-- Node168&#45;&gt;Node174 -->
<g id="edge6" class="edge"><title>Node168&#45;&gt;Node174</title>
<path fill="none" stroke="midnightblue" d="M123.2,-173.654C133.231,-172.44 143.672,-171.177 153.818,-169.949"/>
<polygon fill="midnightblue" stroke="midnightblue" points="154.334,-173.412 163.841,-168.736 153.493,-166.463 154.334,-173.412"/>
</g>
<!-- Node175 -->
<g id="node8" class="node"><title>Node175</title>
<g id="a_node8"><a xlink:href="$classCoolBoardSensors.html#a91badb2539d91fda8679f2a597874c48" xlink:title="CoolBoardSensors::read">
<polygon fill="white" stroke="black" points="159,-114.5 159,-133.5 282,-133.5 282,-114.5 159,-114.5"/>
<text text-anchor="middle" x="220.5" y="-121.5" font-family="Helvetica,sans-Serif" font-size="10.00">CoolBoardSensors::read</text>
</a>
</g>
</g>
<!-- Node168&#45;&gt;Node175 -->
<g id="edge7" class="edge"><title>Node168&#45;&gt;Node175</title>
<path fill="none" stroke="midnightblue" d="M85.3353,-171.479C104.781,-163.499 133.535,-152 159,-143 165.063,-140.857 171.508,-138.703 177.846,-136.655"/>
<polygon fill="midnightblue" stroke="midnightblue" points="179.177,-139.904 187.647,-133.539 177.056,-133.233 179.177,-139.904"/>
</g>
<!-- Node178 -->
<g id="node11" class="node"><title>Node178</title>
<g id="a_node11"><a xlink:href="$classIrene3000.html#a852a170feea994ea1df01c6b245b5d9a" xlink:title="Irene3000::read">
<polygon fill="white" stroke="black" points="178.5,-76.5 178.5,-95.5 262.5,-95.5 262.5,-76.5 178.5,-76.5"/>
<text text-anchor="middle" x="220.5" y="-83.5" font-family="Helvetica,sans-Serif" font-size="10.00">Irene3000::read</text>
</a>
</g>
</g>
<!-- Node168&#45;&gt;Node178 -->
<g id="edge10" class="edge"><title>Node168&#45;&gt;Node178</title>
<path fill="none" stroke="midnightblue" d="M72.0663,-171.47C88.4983,-155.588 123.734,-123.617 159,-105 163.053,-102.861 167.387,-100.915 171.804,-99.1559"/>
<polygon fill="midnightblue" stroke="midnightblue" points="173.338,-102.322 181.529,-95.6017 170.935,-95.747 173.338,-102.322"/>
</g>
<!-- Node183 -->
<g id="node16" class="node"><title>Node183</title>
<g id="a_node16"><a xlink:href="$classCoolBoardLed.html#ad5f0de4c628cbfbf49896042831c64ad" xlink:title="CoolBoardLed::strobe">
<polygon fill="white" stroke="black" points="165,-38.5 165,-57.5 276,-57.5 276,-38.5 165,-38.5"/>
<text text-anchor="middle" x="220.5" y="-45.5" font-family="Helvetica,sans-Serif" font-size="10.00">CoolBoardLed::strobe</text>
</a>
</g>
</g>
<!-- Node168&#45;&gt;Node183 -->
<g id="edge17" class="edge"><title>Node168&#45;&gt;Node183</title>
<path fill="none" stroke="midnightblue" d="M67.9369,-171.468C80.8556,-149.669 115.585,-95.8381 159,-67 162.069,-64.9613 165.37,-63.1309 168.789,-61.4892"/>
<polygon fill="midnightblue" stroke="midnightblue" points="170.197,-64.694 178.04,-57.5707 167.467,-58.2484 170.197,-64.694"/>
</g>
<!-- Node172 -->
<g id="node5" class="node"><title>Node172</title>
<g id="a_node5"><a xlink:href="$classCoolTime.html#acd537cd4210d7bde4e1f5c47d2ac0456" xlink:title="CoolTime::formatDigits">
<polygon fill="white" stroke="black" points="339.5,-228.5 339.5,-247.5 457.5,-247.5 457.5,-228.5 339.5,-228.5"/>
<text text-anchor="middle" x="398.5" y="-235.5" font-family="Helvetica,sans-Serif" font-size="10.00">CoolTime::formatDigits</text>
</a>
</g>
</g>
<!-- Node171&#45;&gt;Node172 -->
<g id="edge4" class="edge"><title>Node171&#45;&gt;Node172</title>
<path fill="none" stroke="midnightblue" d="M281.086,-238C296.547,-238 313.319,-238 329.19,-238"/>
<polygon fill="midnightblue" stroke="midnightblue" points="329.467,-241.5 339.467,-238 329.467,-234.5 329.467,-241.5"/>
</g>
<!-- Node176 -->
<g id="node9" class="node"><title>Node176</title>
<g id="a_node9"><a xlink:href="$classCoolBoardSensors.html#a6944b6ea7bce8e2fce1b434acfd9d5f3" xlink:title="CoolBoardSensors::readVBat">
<polygon fill="white" stroke="black" points="326,-152.5 326,-171.5 471,-171.5 471,-152.5 326,-152.5"/>
<text text-anchor="middle" x="398.5" y="-159.5" font-family="Helvetica,sans-Serif" font-size="10.00">CoolBoardSensors::readVBat</text>
</a>
</g>
</g>
<!-- Node175&#45;&gt;Node176 -->
<g id="edge8" class="edge"><title>Node175&#45;&gt;Node176</title>
<path fill="none" stroke="midnightblue" d="M265.912,-133.589C289.451,-138.671 318.557,-144.955 343.405,-150.32"/>
<polygon fill="midnightblue" stroke="midnightblue" points="342.894,-153.791 353.407,-152.48 344.371,-146.948 342.894,-153.791"/>
</g>
<!-- Node177 -->
<g id="node10" class="node"><title>Node177</title>
<g id="a_node10"><a xlink:href="$classCoolBoardSensors.html#a8761bff50373c485f4465c8db47d0633" xlink:title="CoolBoardSensors::readMoisture">
<polygon fill="white" stroke="black" points="318,-114.5 318,-133.5 479,-133.5 479,-114.5 318,-114.5"/>
<text text-anchor="middle" x="398.5" y="-121.5" font-family="Helvetica,sans-Serif" font-size="10.00">CoolBoardSensors::readMoisture</text>
</a>
</g>
</g>
<!-- Node175&#45;&gt;Node177 -->
<g id="edge9" class="edge"><title>Node175&#45;&gt;Node177</title>
<path fill="none" stroke="midnightblue" d="M282.069,-124C290.36,-124 299.011,-124 307.686,-124"/>
<polygon fill="midnightblue" stroke="midnightblue" points="307.86,-127.5 317.86,-124 307.86,-120.5 307.86,-127.5"/>
</g>
<!-- Node179 -->
<g id="node12" class="node"><title>Node179</title>
<g id="a_node12"><a xlink:href="$classIrene3000.html#a94ad40f281d83ad1be20bf1edd6fe802" xlink:title="Irene3000::readTemp">
<polygon fill="white" stroke="black" points="344,-76.5 344,-95.5 453,-95.5 453,-76.5 344,-76.5"/>
<text text-anchor="middle" x="398.5" y="-83.5" font-family="Helvetica,sans-Serif" font-size="10.00">Irene3000::readTemp</text>
</a>
</g>
</g>
<!-- Node178&#45;&gt;Node179 -->
<g id="edge11" class="edge"><title>Node178&#45;&gt;Node179</title>
<path fill="none" stroke="midnightblue" d="M262.764,-86C283.828,-86 309.925,-86 333.526,-86"/>
<polygon fill="midnightblue" stroke="midnightblue" points="333.815,-89.5001 343.815,-86 333.815,-82.5001 333.815,-89.5001"/>
</g>
<!-- Node181 -->
<g id="node14" class="node"><title>Node181</title>
<g id="a_node14"><a xlink:href="$classIrene3000.html#abf3db725fabb0634ec889b32068a5eec" xlink:title="Irene3000::readPh">
<polygon fill="white" stroke="black" points="350.5,-38.5 350.5,-57.5 446.5,-57.5 446.5,-38.5 350.5,-38.5"/>
<text text-anchor="middle" x="398.5" y="-45.5" font-family="Helvetica,sans-Serif" font-size="10.00">Irene3000::readPh</text>
</a>
</g>
</g>
<!-- Node178&#45;&gt;Node181 -->
<g id="edge13" class="edge"><title>Node178&#45;&gt;Node181</title>
<path fill="none" stroke="midnightblue" d="M262.764,-77.0907C286.803,-71.9006 317.396,-65.2953 343.352,-59.691"/>
<polygon fill="midnightblue" stroke="midnightblue" points="344.382,-63.0495 353.418,-57.5178 342.904,-56.2071 344.382,-63.0495"/>
</g>
<!-- Node182 -->
<g id="node15" class="node"><title>Node182</title>
<g id="a_node15"><a xlink:href="$classIrene3000.html#ae73bd2ed14a199a7e83f4d6458476a7c" xlink:title="Irene3000::readADSChannel2">
<polygon fill="white" stroke="black" points="325.5,-0.5 325.5,-19.5 471.5,-19.5 471.5,-0.5 325.5,-0.5"/>
<text text-anchor="middle" x="398.5" y="-7.5" font-family="Helvetica,sans-Serif" font-size="10.00">Irene3000::readADSChannel2</text>
</a>
</g>
</g>
<!-- Node178&#45;&gt;Node182 -->
<g id="edge15" class="edge"><title>Node178&#45;&gt;Node182</title>
<path fill="none" stroke="midnightblue" d="M261.826,-76.4989C268.831,-73.977 275.837,-70.8495 282,-67 301.731,-54.6746 297.851,-40.6304 318,-29 321.908,-26.7442 326.072,-24.7557 330.367,-23.0029"/>
<polygon fill="midnightblue" stroke="midnightblue" points="331.728,-26.2324 339.933,-19.5297 329.339,-19.6526 331.728,-26.2324"/>
</g>
<!-- Node180 -->
<g id="node13" class="node"><title>Node180</title>
<g id="a_node13"><a xlink:href="$classIrene3000.html#aff7c5da186b388e7272e63ff88a20c34" xlink:title="Irene3000::setGain">
<polygon fill="white" stroke="black" points="515,-38.5 515,-57.5 614,-57.5 614,-38.5 515,-38.5"/>
<text text-anchor="middle" x="564.5" y="-45.5" font-family="Helvetica,sans-Serif" font-size="10.00">Irene3000::setGain</text>
</a>
</g>
</g>
<!-- Node179&#45;&gt;Node180 -->
<g id="edge12" class="edge"><title>Node179&#45;&gt;Node180</title>
<path fill="none" stroke="midnightblue" d="M440.884,-76.411C462.623,-71.3739 489.457,-65.1562 512.475,-59.8229"/>
<polygon fill="midnightblue" stroke="midnightblue" points="513.462,-63.1871 522.413,-57.5201 511.881,-56.3677 513.462,-63.1871"/>
</g>
<!-- Node181&#45;&gt;Node180 -->
<g id="edge14" class="edge"><title>Node181&#45;&gt;Node180</title>
<path fill="none" stroke="midnightblue" d="M446.936,-48C464.978,-48 485.753,-48 504.722,-48"/>
<polygon fill="midnightblue" stroke="midnightblue" points="504.747,-51.5001 514.747,-48 504.747,-44.5001 504.747,-51.5001"/>
</g>
<!-- Node182&#45;&gt;Node180 -->
<g id="edge16" class="edge"><title>Node182&#45;&gt;Node180</title>
<path fill="none" stroke="midnightblue" d="M440.884,-19.589C462.623,-24.6261 489.457,-30.8438 512.475,-36.1771"/>
<polygon fill="midnightblue" stroke="midnightblue" points="511.881,-39.6323 522.413,-38.4799 513.462,-32.8129 511.881,-39.6323"/>
</g>
</g>
</svg>
