<?xml version="1.0" encoding="UTF-8" standalone="no"?>
<!DOCTYPE svg PUBLIC "-//W3C//DTD SVG 1.1//EN"
 "http://www.w3.org/Graphics/SVG/1.1/DTD/svg11.dtd">
<!-- Generated by graphviz version 2.38.0 (20140413.2041)
 -->
<!-- Title: CoolBoardLed::config Pages: 1 -->
<svg width="540pt" height="85pt"
 viewBox="0.00 0.00 540.00 85.00" xmlns="http://www.w3.org/2000/svg" xmlns:xlink="http://www.w3.org/1999/xlink">
<g id="graph0" class="graph" transform="scale(1 1) rotate(0) translate(4 81)">
<title>CoolBoardLed::config</title>
<polygon fill="white" stroke="none" points="-4,4 -4,-81 536,-81 536,4 -4,4"/>
<!-- Node15 -->
<g id="node1" class="node"><title>Node15</title>
<polygon fill="#bfbfbf" stroke="black" points="0,-19.5 0,-38.5 110,-38.5 110,-19.5 0,-19.5"/>
<text text-anchor="middle" x="55" y="-26.5" font-family="Helvetica,sans-Serif" font-size="10.00">CoolBoardLed::config</text>
</g>
<!-- Node16 -->
<g id="node2" class="node"><title>Node16</title>
<g id="a_node2"><a xlink:href="$classCoolBoard.html#acba7c5aef7268b2c0044bdb54d3b9d76" xlink:title="CoolBoard::begin">
<polygon fill="white" stroke="black" points="147.5,-57.5 147.5,-76.5 239.5,-76.5 239.5,-57.5 147.5,-57.5"/>
<text text-anchor="middle" x="193.5" y="-64.5" font-family="Helvetica,sans-Serif" font-size="10.00">CoolBoard::begin</text>
</a>
</g>
</g>
<!-- Node15&#45;&gt;Node16 -->
<g id="edge1" class="edge"><title>Node15&#45;&gt;Node16</title>
<path fill="none" stroke="midnightblue" d="M100.249,-41.3183C119.003,-46.5393 140.528,-52.5316 158.066,-57.4141"/>
<polygon fill="midnightblue" stroke="midnightblue" points="101.017,-37.8992 90.4447,-38.589 99.1397,-44.6428 101.017,-37.8992"/>
</g>
<!-- Node17 -->
<g id="node3" class="node"><title>Node17</title>
<g id="a_node3"><a xlink:href="$classCoolBoard.html#a583a874c09c07e70a6eb9229fc4beddb" xlink:title="CoolBoard::config">
<polygon fill="white" stroke="black" points="146,-19.5 146,-38.5 241,-38.5 241,-19.5 146,-19.5"/>
<text text-anchor="middle" x="193.5" y="-26.5" font-family="Helvetica,sans-Serif" font-size="10.00">CoolBoard::config</text>
</a>
</g>
</g>
<!-- Node15&#45;&gt;Node17 -->
<g id="edge2" class="edge"><title>Node15&#45;&gt;Node17</title>
<path fill="none" stroke="midnightblue" d="M120.355,-29C128.947,-29 137.621,-29 145.83,-29"/>
<polygon fill="midnightblue" stroke="midnightblue" points="120.341,-25.5001 110.341,-29 120.341,-32.5001 120.341,-25.5001"/>
</g>
<!-- Node18 -->
<g id="node4" class="node"><title>Node18</title>
<g id="a_node4"><a xlink:href="$classCoolBoard.html#a8612756d3f73198cdde857a66f0fe690" xlink:title="CoolBoard::update">
<polygon fill="white" stroke="black" points="277,-0.5 277,-19.5 375,-19.5 375,-0.5 277,-0.5"/>
<text text-anchor="middle" x="326" y="-7.5" font-family="Helvetica,sans-Serif" font-size="10.00">CoolBoard::update</text>
</a>
</g>
</g>
<!-- Node15&#45;&gt;Node18 -->
<g id="edge5" class="edge"><title>Node15&#45;&gt;Node18</title>
<path fill="none" stroke="midnightblue" d="M102.361,-17.2889C116.295,-14.2916 131.685,-11.4945 146,-10 190.199,-5.38541 240.872,-5.92618 276.996,-7.30268"/>
<polygon fill="midnightblue" stroke="midnightblue" points="101.504,-13.894 92.5079,-19.491 103.031,-20.7255 101.504,-13.894"/>
</g>
<!-- Node17&#45;&gt;Node18 -->
<g id="edge3" class="edge"><title>Node17&#45;&gt;Node18</title>
<path fill="none" stroke="midnightblue" d="M251.159,-20.7508C259.714,-19.5053 268.469,-18.2306 276.822,-17.0144"/>
<polygon fill="midnightblue" stroke="midnightblue" points="250.636,-17.2899 241.245,-22.1942 251.645,-24.2169 250.636,-17.2899"/>
</g>
<!-- Node19 -->
<g id="node5" class="node"><title>Node19</title>
<g id="a_node5"><a xlink:href="$classCoolBoard.html#aa0bbc4bc605e35618d18e68795c61363" xlink:title="CoolBoard::onLineMode">
<polygon fill="white" stroke="black" points="411,-0.5 411,-19.5 532,-19.5 532,-0.5 411,-0.5"/>
<text text-anchor="middle" x="471.5" y="-7.5" font-family="Helvetica,sans-Serif" font-size="10.00">CoolBoard::onLineMode</text>
</a>
</g>
</g>
<!-- Node18&#45;&gt;Node19 -->
<g id="edge4" class="edge"><title>Node18&#45;&gt;Node19</title>
<path fill="none" stroke="midnightblue" d="M385.332,-10C393.785,-10 402.496,-10 410.972,-10"/>
<polygon fill="midnightblue" stroke="midnightblue" points="385.183,-6.5001 375.183,-10 385.183,-13.5001 385.183,-6.5001"/>
</g>
</g>
</svg>
