<?xml version="1.0" encoding="UTF-8" standalone="no"?>
<!DOCTYPE svg PUBLIC "-//W3C//DTD SVG 1.1//EN"
 "http://www.w3.org/Graphics/SVG/1.1/DTD/svg11.dtd">
<!-- Generated by graphviz version 2.38.0 (20140413.2041)
 -->
<!-- Title: CoolBoardLed::fadeIn Pages: 1 -->
<svg width="593pt" height="180pt"
 viewBox="0.00 0.00 593.00 180.00" xmlns="http://www.w3.org/2000/svg" xmlns:xlink="http://www.w3.org/1999/xlink">
<g id="graph0" class="graph" transform="scale(1 1) rotate(0) translate(4 176)">
<title>CoolBoardLed::fadeIn</title>
<polygon fill="white" stroke="none" points="-4,4 -4,-176 589,-176 589,4 -4,4"/>
<!-- Node27 -->
<g id="node1" class="node"><title>Node27</title>
<polygon fill="#bfbfbf" stroke="black" points="0,-76.5 0,-95.5 111,-95.5 111,-76.5 0,-76.5"/>
<text text-anchor="middle" x="55.5" y="-83.5" font-family="Helvetica,sans-Serif" font-size="10.00">CoolBoardLed::fadeIn</text>
</g>
<!-- Node28 -->
<g id="node2" class="node"><title>Node28</title>
<g id="a_node2"><a xlink:href="$classCoolBoard.html#a583a874c09c07e70a6eb9229fc4beddb" xlink:title="CoolBoard::config">
<polygon fill="white" stroke="black" points="161,-152.5 161,-171.5 256,-171.5 256,-152.5 161,-152.5"/>
<text text-anchor="middle" x="208.5" y="-159.5" font-family="Helvetica,sans-Serif" font-size="10.00">CoolBoard::config</text>
</a>
</g>
</g>
<!-- Node27&#45;&gt;Node28 -->
<g id="edge1" class="edge"><title>Node27&#45;&gt;Node28</title>
<path fill="none" stroke="midnightblue" d="M80.1675,-100.854C98.1365,-111.82 123.652,-126.734 147,-138 157.889,-143.255 170.245,-148.309 180.939,-152.413"/>
<polygon fill="midnightblue" stroke="midnightblue" points="81.8598,-97.7854 71.5102,-95.5192 78.1877,-103.745 81.8598,-97.7854"/>
</g>
<!-- Node29 -->
<g id="node3" class="node"><title>Node29</title>
<g id="a_node3"><a xlink:href="$classCoolBoard.html#a8612756d3f73198cdde857a66f0fe690" xlink:title="CoolBoard::update">
<polygon fill="white" stroke="black" points="318,-114.5 318,-133.5 416,-133.5 416,-114.5 318,-114.5"/>
<text text-anchor="middle" x="367" y="-121.5" font-family="Helvetica,sans-Serif" font-size="10.00">CoolBoard::update</text>
</a>
</g>
</g>
<!-- Node27&#45;&gt;Node29 -->
<g id="edge9" class="edge"><title>Node27&#45;&gt;Node29</title>
<path fill="none" stroke="midnightblue" d="M121.119,-96.3533C129.81,-97.6413 138.617,-98.8928 147,-100 205.585,-107.738 273.223,-114.877 317.648,-119.322"/>
<polygon fill="midnightblue" stroke="midnightblue" points="121.41,-92.8578 111,-94.831 120.368,-99.7799 121.41,-92.8578"/>
</g>
<!-- Node30 -->
<g id="node4" class="node"><title>Node30</title>
<g id="a_node4"><a xlink:href="$classCoolBoard.html#aa0bbc4bc605e35618d18e68795c61363" xlink:title="CoolBoard::onLineMode">
<polygon fill="white" stroke="black" points="464,-76.5 464,-95.5 585,-95.5 585,-76.5 464,-76.5"/>
<text text-anchor="middle" x="524.5" y="-83.5" font-family="Helvetica,sans-Serif" font-size="10.00">CoolBoard::onLineMode</text>
</a>
</g>
</g>
<!-- Node27&#45;&gt;Node30 -->
<g id="edge5" class="edge"><title>Node27&#45;&gt;Node30</title>
<path fill="none" stroke="midnightblue" d="M121.623,-86C212.537,-86 376.189,-86 463.992,-86"/>
<polygon fill="midnightblue" stroke="midnightblue" points="121.444,-82.5001 111.444,-86 121.444,-89.5001 121.444,-82.5001"/>
</g>
<!-- Node31 -->
<g id="node5" class="node"><title>Node31</title>
<g id="a_node5"><a xlink:href="$classCoolBoard.html#ae6b5e1274d760462290192acea4adca8" xlink:title="CoolBoard::offLineMode">
<polygon fill="white" stroke="black" points="306,-38.5 306,-57.5 428,-57.5 428,-38.5 306,-38.5"/>
<text text-anchor="middle" x="367" y="-45.5" font-family="Helvetica,sans-Serif" font-size="10.00">CoolBoard::offLineMode</text>
</a>
</g>
</g>
<!-- Node27&#45;&gt;Node31 -->
<g id="edge4" class="edge"><title>Node27&#45;&gt;Node31</title>
<path fill="none" stroke="midnightblue" d="M121.119,-75.6467C129.81,-74.3587 138.617,-73.1072 147,-72 200.656,-64.9134 261.904,-58.3284 305.96,-53.8556"/>
<polygon fill="midnightblue" stroke="midnightblue" points="120.368,-72.2201 111,-77.169 121.41,-79.1422 120.368,-72.2201"/>
</g>
<!-- Node32 -->
<g id="node6" class="node"><title>Node32</title>
<g id="a_node6"><a xlink:href="$classCoolBoard.html#ad03abdce2e65f520bbf2cff0f2d083cf" xlink:title="CoolBoard::readSensors">
<polygon fill="white" stroke="black" points="147,-0.5 147,-19.5 270,-19.5 270,-0.5 147,-0.5"/>
<text text-anchor="middle" x="208.5" y="-7.5" font-family="Helvetica,sans-Serif" font-size="10.00">CoolBoard::readSensors</text>
</a>
</g>
</g>
<!-- Node27&#45;&gt;Node32 -->
<g id="edge6" class="edge"><title>Node27&#45;&gt;Node32</title>
<path fill="none" stroke="midnightblue" d="M80.1675,-71.1463C98.1365,-60.1802 123.652,-45.2664 147,-34 157.889,-28.7454 170.245,-23.6906 180.939,-19.5865"/>
<polygon fill="midnightblue" stroke="midnightblue" points="78.1877,-68.2551 71.5102,-76.4808 81.8598,-74.2146 78.1877,-68.2551"/>
</g>
<!-- Node28&#45;&gt;Node29 -->
<g id="edge2" class="edge"><title>Node28&#45;&gt;Node29</title>
<path fill="none" stroke="midnightblue" d="M258.789,-150.032C280.72,-144.707 306.185,-138.524 326.792,-133.52"/>
<polygon fill="midnightblue" stroke="midnightblue" points="257.883,-146.65 248.992,-152.411 259.535,-153.453 257.883,-146.65"/>
</g>
<!-- Node29&#45;&gt;Node30 -->
<g id="edge3" class="edge"><title>Node29&#45;&gt;Node30</title>
<path fill="none" stroke="midnightblue" d="M416.974,-112.032C438.765,-106.707 464.067,-100.524 484.543,-95.5201"/>
<polygon fill="midnightblue" stroke="midnightblue" points="416.122,-108.637 407.239,-114.411 417.784,-115.437 416.122,-108.637"/>
</g>
<!-- Node32&#45;&gt;Node30 -->
<g id="edge8" class="edge"><title>Node32&#45;&gt;Node30</title>
<path fill="none" stroke="midnightblue" d="M280.501,-8.19114C324.036,-9.02003 380.367,-13.6144 428,-29 460.705,-39.5639 494.1,-62.9945 511.414,-76.2919"/>
<polygon fill="midnightblue" stroke="midnightblue" points="280.332,-4.6888 270.288,-8.06077 280.243,-11.6882 280.332,-4.6888"/>
</g>
<!-- Node32&#45;&gt;Node31 -->
<g id="edge7" class="edge"><title>Node32&#45;&gt;Node31</title>
<path fill="none" stroke="midnightblue" d="M258.789,-21.968C280.72,-27.2931 306.185,-33.4762 326.792,-38.4799"/>
<polygon fill="midnightblue" stroke="midnightblue" points="259.535,-18.5475 248.992,-19.589 257.883,-25.3498 259.535,-18.5475"/>
</g>
</g>
</svg>
