<?xml version="1.0" encoding="UTF-8" standalone="no"?>
<!DOCTYPE svg PUBLIC "-//W3C//DTD SVG 1.1//EN"
 "http://www.w3.org/Graphics/SVG/1.1/DTD/svg11.dtd">
<!-- Generated by graphviz version 2.38.0 (20140413.2041)
 -->
<!-- Title: CoolBoard::isConnected Pages: 1 -->
<svg width="259pt" height="66pt"
 viewBox="0.00 0.00 259.00 66.00" xmlns="http://www.w3.org/2000/svg" xmlns:xlink="http://www.w3.org/1999/xlink">
<g id="graph0" class="graph" transform="scale(1 1) rotate(0) translate(4 62)">
<title>CoolBoard::isConnected</title>
<polygon fill="white" stroke="none" points="-4,4 -4,-62 255,-62 255,4 -4,4"/>
<!-- Node84 -->
<g id="node1" class="node"><title>Node84</title>
<polygon fill="#bfbfbf" stroke="black" points="0,-19.5 0,-38.5 123,-38.5 123,-19.5 0,-19.5"/>
<text text-anchor="middle" x="61.5" y="-26.5" font-family="Helvetica,sans-Serif" font-size="10.00">CoolBoard::isConnected</text>
</g>
<!-- Node85 -->
<g id="node2" class="node"><title>Node85</title>
<g id="a_node2"><a xlink:href="$classCoolMQTT.html#a5d003307eff78efbd585e42b43b72b6d" xlink:title="CoolMQTT::state">
<polygon fill="white" stroke="black" points="159,-38.5 159,-57.5 251,-57.5 251,-38.5 159,-38.5"/>
<text text-anchor="middle" x="205" y="-45.5" font-family="Helvetica,sans-Serif" font-size="10.00">CoolMQTT::state</text>
</a>
</g>
</g>
<!-- Node84&#45;&gt;Node85 -->
<g id="edge1" class="edge"><title>Node84&#45;&gt;Node85</title>
<path fill="none" stroke="midnightblue" d="M123.33,-37.168C131.744,-38.2978 140.349,-39.4532 148.656,-40.5686"/>
<polygon fill="midnightblue" stroke="midnightblue" points="148.231,-44.0429 158.608,-41.905 149.163,-37.1052 148.231,-44.0429"/>
</g>
<!-- Node86 -->
<g id="node3" class="node"><title>Node86</title>
<g id="a_node3"><a xlink:href="$classCoolWifi.html#a1c7b4d82a4098d346e7593dce92039fa" xlink:title="CoolWifi::state">
<polygon fill="white" stroke="black" points="164,-0.5 164,-19.5 246,-19.5 246,-0.5 164,-0.5"/>
<text text-anchor="middle" x="205" y="-7.5" font-family="Helvetica,sans-Serif" font-size="10.00">CoolWifi::state</text>
</a>
</g>
</g>
<!-- Node84&#45;&gt;Node86 -->
<g id="edge2" class="edge"><title>Node84&#45;&gt;Node86</title>
<path fill="none" stroke="midnightblue" d="M123.33,-20.832C133.448,-19.4734 143.842,-18.0777 153.662,-16.7591"/>
<polygon fill="midnightblue" stroke="midnightblue" points="154.208,-20.2174 163.653,-15.4176 153.276,-13.2797 154.208,-20.2174"/>
</g>
</g>
</svg>
