<?xml version="1.0" encoding="UTF-8" standalone="no"?>
<!DOCTYPE svg PUBLIC "-//W3C//DTD SVG 1.1//EN"
 "http://www.w3.org/Graphics/SVG/1.1/DTD/svg11.dtd">
<!-- Generated by graphviz version 2.38.0 (20140413.2041)
 -->
<!-- Title: CoolBoard::offLineMode Pages: 1 -->
<svg width="862pt" height="325pt"
 viewBox="0.00 0.00 862.00 325.00" xmlns="http://www.w3.org/2000/svg" xmlns:xlink="http://www.w3.org/1999/xlink">
<g id="graph0" class="graph" transform="scale(1 1) rotate(0) translate(4 321)">
<title>CoolBoard::offLineMode</title>
<polygon fill="white" stroke="none" points="-4,4 -4,-321 858,-321 858,4 -4,4"/>
<!-- Node64 -->
<g id="node1" class="node"><title>Node64</title>
<polygon fill="#bfbfbf" stroke="black" points="0,-134.5 0,-153.5 122,-153.5 122,-134.5 0,-134.5"/>
<text text-anchor="middle" x="61" y="-141.5" font-family="Helvetica,sans-Serif" font-size="10.00">CoolBoard::offLineMode</text>
</g>
<!-- Node65 -->
<g id="node2" class="node"><title>Node65</title>
<g id="a_node2"><a xlink:href="$classJetpack.html#a86d2e83436ef4b85f4c3a6e85ac785b0" xlink:title="Jetpack::doAction">
<polygon fill="white" stroke="black" points="193,-240.5 193,-259.5 288,-259.5 288,-240.5 193,-240.5"/>
<text text-anchor="middle" x="240.5" y="-247.5" font-family="Helvetica,sans-Serif" font-size="10.00">Jetpack::doAction</text>
</a>
</g>
</g>
<!-- Node64&#45;&gt;Node65 -->
<g id="edge1" class="edge"><title>Node64&#45;&gt;Node65</title>
<path fill="none" stroke="midnightblue" d="M78.065,-153.594C109.14,-172.151 177.671,-213.077 214.661,-235.166"/>
<polygon fill="midnightblue" stroke="midnightblue" points="212.963,-238.229 223.343,-240.352 216.552,-232.219 212.963,-238.229"/>
</g>
<!-- Node67 -->
<g id="node4" class="node"><title>Node67</title>
<g id="a_node4"><a xlink:href="$classCoolBoard.html#ad03abdce2e65f520bbf2cff0f2d083cf" xlink:title="CoolBoard::readSensors">
<polygon fill="white" stroke="black" points="179,-164.5 179,-183.5 302,-183.5 302,-164.5 179,-164.5"/>
<text text-anchor="middle" x="240.5" y="-171.5" font-family="Helvetica,sans-Serif" font-size="10.00">CoolBoard::readSensors</text>
</a>
</g>
</g>
<!-- Node64&#45;&gt;Node67 -->
<g id="edge3" class="edge"><title>Node64&#45;&gt;Node67</title>
<path fill="none" stroke="midnightblue" d="M118.65,-153.575C135.867,-156.485 154.947,-159.709 172.763,-162.721"/>
<polygon fill="midnightblue" stroke="midnightblue" points="172.64,-166.249 183.084,-164.465 173.807,-159.347 172.64,-166.249"/>
</g>
<!-- Node80 -->
<g id="node17" class="node"><title>Node80</title>
<g id="a_node17"><a xlink:href="$classCoolFileSystem.html#a4c560c2ddd40b74b7758e6ceb2c58957" xlink:title="CoolFileSystem::saveSensorData">
<polygon fill="white" stroke="black" points="158,-104.5 158,-123.5 323,-123.5 323,-104.5 158,-104.5"/>
<text text-anchor="middle" x="240.5" y="-111.5" font-family="Helvetica,sans-Serif" font-size="10.00">CoolFileSystem::saveSensorData</text>
</a>
</g>
</g>
<!-- Node64&#45;&gt;Node80 -->
<g id="edge18" class="edge"><title>Node64&#45;&gt;Node80</title>
<path fill="none" stroke="midnightblue" d="M118.65,-134.425C135.867,-131.515 154.947,-128.291 172.763,-125.279"/>
<polygon fill="midnightblue" stroke="midnightblue" points="173.807,-128.653 183.084,-123.535 172.64,-121.751 173.807,-128.653"/>
</g>
<!-- Node82 -->
<g id="node19" class="node"><title>Node82</title>
<g id="a_node19"><a xlink:href="$classCoolBoard.html#ae7358fb6e623cfc81b775f5f1734909b" xlink:title="CoolBoard::userData">
<polygon fill="white" stroke="black" points="186.5,-38.5 186.5,-57.5 294.5,-57.5 294.5,-38.5 186.5,-38.5"/>
<text text-anchor="middle" x="240.5" y="-45.5" font-family="Helvetica,sans-Serif" font-size="10.00">CoolBoard::userData</text>
</a>
</g>
</g>
<!-- Node64&#45;&gt;Node82 -->
<g id="edge20" class="edge"><title>Node64&#45;&gt;Node82</title>
<path fill="none" stroke="midnightblue" d="M79.6683,-134.444C110.901,-117.552 176.026,-82.3295 212.775,-62.4538"/>
<polygon fill="midnightblue" stroke="midnightblue" points="214.772,-65.353 221.903,-57.5172 211.442,-59.1959 214.772,-65.353"/>
</g>
<!-- Node66 -->
<g id="node3" class="node"><title>Node66</title>
<g id="a_node3"><a xlink:href="$classJetpack.html#a338f1af8cbc6504ac69b47c7328569b5" xlink:title="Jetpack::write">
<polygon fill="white" stroke="black" points="392,-278.5 392,-297.5 470,-297.5 470,-278.5 392,-278.5"/>
<text text-anchor="middle" x="431" y="-285.5" font-family="Helvetica,sans-Serif" font-size="10.00">Jetpack::write</text>
</a>
</g>
</g>
<!-- Node65&#45;&gt;Node66 -->
<g id="edge2" class="edge"><title>Node65&#45;&gt;Node66</title>
<path fill="none" stroke="midnightblue" d="M288.096,-259.393C316.67,-265.154 353.176,-272.513 382.005,-278.325"/>
<polygon fill="midnightblue" stroke="midnightblue" points="381.362,-281.765 391.856,-280.31 382.745,-274.903 381.362,-281.765"/>
</g>
<!-- Node68 -->
<g id="node5" class="node"><title>Node68</title>
<g id="a_node5"><a xlink:href="$classCoolBoardSensors.html#a91badb2539d91fda8679f2a597874c48" xlink:title="CoolBoardSensors::read">
<polygon fill="white" stroke="black" points="369.5,-240.5 369.5,-259.5 492.5,-259.5 492.5,-240.5 369.5,-240.5"/>
<text text-anchor="middle" x="431" y="-247.5" font-family="Helvetica,sans-Serif" font-size="10.00">CoolBoardSensors::read</text>
</a>
</g>
</g>
<!-- Node67&#45;&gt;Node68 -->
<g id="edge4" class="edge"><title>Node67&#45;&gt;Node68</title>
<path fill="none" stroke="midnightblue" d="M258.564,-183.559C281.034,-195.846 322.031,-217.229 359,-231 365.427,-233.394 372.285,-235.62 379.11,-237.644"/>
<polygon fill="midnightblue" stroke="midnightblue" points="378.456,-241.096 389.032,-240.459 380.367,-234.362 378.456,-241.096"/>
</g>
<!-- Node72 -->
<g id="node9" class="node"><title>Node72</title>
<g id="a_node9"><a xlink:href="$classExternalSensors.html#a53177b81eca3be89508b5511ddcd00fc" xlink:title="ExternalSensors::read">
<polygon fill="white" stroke="black" points="374.5,-202.5 374.5,-221.5 487.5,-221.5 487.5,-202.5 374.5,-202.5"/>
<text text-anchor="middle" x="431" y="-209.5" font-family="Helvetica,sans-Serif" font-size="10.00">ExternalSensors::read</text>
</a>
</g>
</g>
<!-- Node67&#45;&gt;Node72 -->
<g id="edge8" class="edge"><title>Node67&#45;&gt;Node72</title>
<path fill="none" stroke="midnightblue" d="M289.067,-183.589C314.501,-188.716 346.005,-195.067 372.771,-200.463"/>
<polygon fill="midnightblue" stroke="midnightblue" points="372.281,-203.935 382.776,-202.48 373.664,-197.073 372.281,-203.935"/>
</g>
<!-- Node73 -->
<g id="node10" class="node"><title>Node73</title>
<g id="a_node10"><a xlink:href="$classIrene3000.html#a852a170feea994ea1df01c6b245b5d9a" xlink:title="Irene3000::read">
<polygon fill="white" stroke="black" points="389,-164.5 389,-183.5 473,-183.5 473,-164.5 389,-164.5"/>
<text text-anchor="middle" x="431" y="-171.5" font-family="Helvetica,sans-Serif" font-size="10.00">Irene3000::read</text>
</a>
</g>
</g>
<!-- Node67&#45;&gt;Node73 -->
<g id="edge9" class="edge"><title>Node67&#45;&gt;Node73</title>
<path fill="none" stroke="midnightblue" d="M302.18,-174C326.837,-174 355.02,-174 378.637,-174"/>
<polygon fill="midnightblue" stroke="midnightblue" points="378.795,-177.5 388.795,-174 378.795,-170.5 378.795,-177.5"/>
</g>
<!-- Node78 -->
<g id="node15" class="node"><title>Node78</title>
<g id="a_node15"><a xlink:href="$classCoolTime.html#a7a7501c5ca77dd1248bea704c44f986c" xlink:title="CoolTime::getTimeDate">
<polygon fill="white" stroke="black" points="559,-38.5 559,-57.5 680,-57.5 680,-38.5 559,-38.5"/>
<text text-anchor="middle" x="619.5" y="-45.5" font-family="Helvetica,sans-Serif" font-size="10.00">CoolTime::getTimeDate</text>
</a>
</g>
</g>
<!-- Node67&#45;&gt;Node78 -->
<g id="edge16" class="edge"><title>Node67&#45;&gt;Node78</title>
<path fill="none" stroke="midnightblue" d="M293.495,-164.47C358.387,-152.23 465.411,-130.804 503,-116 521.479,-108.722 566.669,-80.9151 594.732,-63.1929"/>
<polygon fill="midnightblue" stroke="midnightblue" points="596.959,-65.9252 603.529,-57.6136 593.209,-60.0139 596.959,-65.9252"/>
</g>
<!-- Node69 -->
<g id="node6" class="node"><title>Node69</title>
<g id="a_node6"><a xlink:href="$classCoolBoardSensors.html#acad6a8418c66d36868caca23c844ecb6" xlink:title="CoolBoardSensors::initReadI2C">
<polygon fill="white" stroke="black" points="541.5,-297.5 541.5,-316.5 697.5,-316.5 697.5,-297.5 541.5,-297.5"/>
<text text-anchor="middle" x="619.5" y="-304.5" font-family="Helvetica,sans-Serif" font-size="10.00">CoolBoardSensors::initReadI2C</text>
</a>
</g>
</g>
<!-- Node68&#45;&gt;Node69 -->
<g id="edge5" class="edge"><title>Node68&#45;&gt;Node69</title>
<path fill="none" stroke="midnightblue" d="M473.803,-259.515C483.522,-262.185 493.733,-265.368 503,-269 519.844,-275.602 522.069,-281.625 539,-288 545.756,-290.544 552.967,-292.827 560.185,-294.853"/>
<polygon fill="midnightblue" stroke="midnightblue" points="559.426,-298.273 569.99,-297.456 561.222,-291.507 559.426,-298.273"/>
</g>
<!-- Node70 -->
<g id="node7" class="node"><title>Node70</title>
<g id="a_node7"><a xlink:href="$classCoolBoardSensors.html#a6944b6ea7bce8e2fce1b434acfd9d5f3" xlink:title="CoolBoardSensors::readVBat">
<polygon fill="white" stroke="black" points="547,-259.5 547,-278.5 692,-278.5 692,-259.5 547,-259.5"/>
<text text-anchor="middle" x="619.5" y="-266.5" font-family="Helvetica,sans-Serif" font-size="10.00">CoolBoardSensors::readVBat</text>
</a>
</g>
</g>
<!-- Node68&#45;&gt;Node70 -->
<g id="edge6" class="edge"><title>Node68&#45;&gt;Node70</title>
<path fill="none" stroke="midnightblue" d="M492.551,-256.169C506.637,-257.604 521.863,-259.155 536.697,-260.666"/>
<polygon fill="midnightblue" stroke="midnightblue" points="536.582,-264.172 546.885,-261.704 537.291,-257.209 536.582,-264.172"/>
</g>
<!-- Node71 -->
<g id="node8" class="node"><title>Node71</title>
<g id="a_node8"><a xlink:href="$classCoolBoardSensors.html#a8761bff50373c485f4465c8db47d0633" xlink:title="CoolBoardSensors::readMoisture">
<polygon fill="white" stroke="black" points="539,-221.5 539,-240.5 700,-240.5 700,-221.5 539,-221.5"/>
<text text-anchor="middle" x="619.5" y="-228.5" font-family="Helvetica,sans-Serif" font-size="10.00">CoolBoardSensors::readMoisture</text>
</a>
</g>
</g>
<!-- Node68&#45;&gt;Node71 -->
<g id="edge7" class="edge"><title>Node68&#45;&gt;Node71</title>
<path fill="none" stroke="midnightblue" d="M492.551,-243.831C504.101,-242.655 516.418,-241.4 528.656,-240.153"/>
<polygon fill="midnightblue" stroke="midnightblue" points="529.305,-243.605 538.899,-239.109 528.596,-236.641 529.305,-243.605"/>
</g>
<!-- Node74 -->
<g id="node11" class="node"><title>Node74</title>
<g id="a_node11"><a xlink:href="$classIrene3000.html#a94ad40f281d83ad1be20bf1edd6fe802" xlink:title="Irene3000::readTemp">
<polygon fill="white" stroke="black" points="565,-183.5 565,-202.5 674,-202.5 674,-183.5 565,-183.5"/>
<text text-anchor="middle" x="619.5" y="-190.5" font-family="Helvetica,sans-Serif" font-size="10.00">Irene3000::readTemp</text>
</a>
</g>
</g>
<!-- Node73&#45;&gt;Node74 -->
<g id="edge10" class="edge"><title>Node73&#45;&gt;Node74</title>
<path fill="none" stroke="midnightblue" d="M473.39,-178.217C497.275,-180.65 527.815,-183.761 554.71,-186.501"/>
<polygon fill="midnightblue" stroke="midnightblue" points="554.515,-189.999 564.818,-187.531 555.225,-183.036 554.515,-189.999"/>
</g>
<!-- Node76 -->
<g id="node13" class="node"><title>Node76</title>
<g id="a_node13"><a xlink:href="$classIrene3000.html#abf3db725fabb0634ec889b32068a5eec" xlink:title="Irene3000::readPh">
<polygon fill="white" stroke="black" points="571.5,-145.5 571.5,-164.5 667.5,-164.5 667.5,-145.5 571.5,-145.5"/>
<text text-anchor="middle" x="619.5" y="-152.5" font-family="Helvetica,sans-Serif" font-size="10.00">Irene3000::readPh</text>
</a>
</g>
</g>
<!-- Node73&#45;&gt;Node76 -->
<g id="edge12" class="edge"><title>Node73&#45;&gt;Node76</title>
<path fill="none" stroke="midnightblue" d="M473.39,-169.783C499.196,-167.154 532.771,-163.734 561.124,-160.845"/>
<polygon fill="midnightblue" stroke="midnightblue" points="561.716,-164.303 571.31,-159.808 561.007,-157.339 561.716,-164.303"/>
</g>
<!-- Node77 -->
<g id="node14" class="node"><title>Node77</title>
<g id="a_node14"><a xlink:href="$classIrene3000.html#ae73bd2ed14a199a7e83f4d6458476a7c" xlink:title="Irene3000::readADSChannel2">
<polygon fill="white" stroke="black" points="546.5,-107.5 546.5,-126.5 692.5,-126.5 692.5,-107.5 546.5,-107.5"/>
<text text-anchor="middle" x="619.5" y="-114.5" font-family="Helvetica,sans-Serif" font-size="10.00">Irene3000::readADSChannel2</text>
</a>
</g>
</g>
<!-- Node73&#45;&gt;Node77 -->
<g id="edge14" class="edge"><title>Node73&#45;&gt;Node77</title>
<path fill="none" stroke="midnightblue" d="M461.12,-164.485C474.001,-160.191 489.303,-154.976 503,-150 519.136,-144.139 522.613,-141.118 539,-136 546.983,-133.506 555.505,-131.154 563.893,-129.01"/>
<polygon fill="midnightblue" stroke="midnightblue" points="564.775,-132.397 573.639,-126.592 563.09,-125.603 564.775,-132.397"/>
</g>
<!-- Node75 -->
<g id="node12" class="node"><title>Node75</title>
<g id="a_node12"><a xlink:href="$classIrene3000.html#aff7c5da186b388e7272e63ff88a20c34" xlink:title="Irene3000::setGain">
<polygon fill="white" stroke="black" points="745.5,-145.5 745.5,-164.5 844.5,-164.5 844.5,-145.5 745.5,-145.5"/>
<text text-anchor="middle" x="795" y="-152.5" font-family="Helvetica,sans-Serif" font-size="10.00">Irene3000::setGain</text>
</a>
</g>
</g>
<!-- Node74&#45;&gt;Node75 -->
<g id="edge11" class="edge"><title>Node74&#45;&gt;Node75</title>
<path fill="none" stroke="midnightblue" d="M664.281,-183.411C687.486,-178.329 716.178,-172.045 740.673,-166.68"/>
<polygon fill="midnightblue" stroke="midnightblue" points="741.514,-170.079 750.533,-164.52 740.016,-163.241 741.514,-170.079"/>
</g>
<!-- Node76&#45;&gt;Node75 -->
<g id="edge13" class="edge"><title>Node76&#45;&gt;Node75</title>
<path fill="none" stroke="midnightblue" d="M667.91,-155C688.697,-155 713.308,-155 735.245,-155"/>
<polygon fill="midnightblue" stroke="midnightblue" points="735.44,-158.5 745.44,-155 735.44,-151.5 735.44,-158.5"/>
</g>
<!-- Node77&#45;&gt;Node75 -->
<g id="edge15" class="edge"><title>Node77&#45;&gt;Node75</title>
<path fill="none" stroke="midnightblue" d="M664.281,-126.589C687.486,-131.671 716.178,-137.955 740.673,-143.32"/>
<polygon fill="midnightblue" stroke="midnightblue" points="740.016,-146.759 750.533,-145.48 741.514,-139.921 740.016,-146.759"/>
</g>
<!-- Node79 -->
<g id="node16" class="node"><title>Node79</title>
<g id="a_node16"><a xlink:href="$classCoolTime.html#acd537cd4210d7bde4e1f5c47d2ac0456" xlink:title="CoolTime::formatDigits">
<polygon fill="white" stroke="black" points="736,-19.5 736,-38.5 854,-38.5 854,-19.5 736,-19.5"/>
<text text-anchor="middle" x="795" y="-26.5" font-family="Helvetica,sans-Serif" font-size="10.00">CoolTime::formatDigits</text>
</a>
</g>
</g>
<!-- Node78&#45;&gt;Node79 -->
<g id="edge17" class="edge"><title>Node78&#45;&gt;Node79</title>
<path fill="none" stroke="midnightblue" d="M680.209,-41.4613C694.863,-39.8565 710.661,-38.1264 725.686,-36.4811"/>
<polygon fill="midnightblue" stroke="midnightblue" points="726.381,-39.926 735.941,-35.3581 725.619,-32.9676 726.381,-39.926"/>
</g>
<!-- Node81 -->
<g id="node18" class="node"><title>Node81</title>
<g id="a_node18"><a xlink:href="$classCoolFileSystem.html#af5a51e2b9bb6e7e7edf75a508fe75f82" xlink:title="CoolFileSystem::saveSensor\lDataCSV">
<polygon fill="white" stroke="black" points="359,-77 359,-107 503,-107 503,-77 359,-77"/>
<text text-anchor="start" x="367" y="-95" font-family="Helvetica,sans-Serif" font-size="10.00">CoolFileSystem::saveSensor</text>
<text text-anchor="middle" x="431" y="-84" font-family="Helvetica,sans-Serif" font-size="10.00">DataCSV</text>
</a>
</g>
</g>
<!-- Node80&#45;&gt;Node81 -->
<g id="edge19" class="edge"><title>Node80&#45;&gt;Node81</title>
<path fill="none" stroke="midnightblue" d="M323.083,-104.478C331.664,-103.477 340.389,-102.459 348.965,-101.458"/>
<polygon fill="midnightblue" stroke="midnightblue" points="349.419,-104.928 358.946,-100.293 348.608,-97.9757 349.419,-104.928"/>
</g>
<!-- Node83 -->
<g id="node20" class="node"><title>Node83</title>
<g id="a_node20"><a xlink:href="$classCoolMQTT.html#a373cc92fca7760d886f02d8a6e5b3f63" xlink:title="CoolMQTT::getUser">
<polygon fill="white" stroke="black" points="378.5,-38.5 378.5,-57.5 483.5,-57.5 483.5,-38.5 378.5,-38.5"/>
<text text-anchor="middle" x="431" y="-45.5" font-family="Helvetica,sans-Serif" font-size="10.00">CoolMQTT::getUser</text>
</a>
</g>
</g>
<!-- Node82&#45;&gt;Node83 -->
<g id="edge21" class="edge"><title>Node82&#45;&gt;Node83</title>
<path fill="none" stroke="midnightblue" d="M294.509,-48C317.472,-48 344.504,-48 368.357,-48"/>
<polygon fill="midnightblue" stroke="midnightblue" points="368.364,-51.5001 378.364,-48 368.364,-44.5001 368.364,-51.5001"/>
</g>
<!-- Node84 -->
<g id="node21" class="node"><title>Node84</title>
<g id="a_node21"><a xlink:href="$classCoolTime.html#ac4f32ee513c1328d984306645e8785a4" xlink:title="CoolTime::getESDate">
<polygon fill="white" stroke="black" points="374.5,-0.5 374.5,-19.5 487.5,-19.5 487.5,-0.5 374.5,-0.5"/>
<text text-anchor="middle" x="431" y="-7.5" font-family="Helvetica,sans-Serif" font-size="10.00">CoolTime::getESDate</text>
</a>
</g>
</g>
<!-- Node82&#45;&gt;Node84 -->
<g id="edge22" class="edge"><title>Node82&#45;&gt;Node84</title>
<path fill="none" stroke="midnightblue" d="M289.067,-38.411C314.501,-33.2835 346.005,-26.9328 372.771,-21.5368"/>
<polygon fill="midnightblue" stroke="midnightblue" points="373.664,-24.9273 382.776,-19.5201 372.281,-18.0653 373.664,-24.9273"/>
</g>
<!-- Node84&#45;&gt;Node78 -->
<g id="edge23" class="edge"><title>Node84&#45;&gt;Node78</title>
<path fill="none" stroke="midnightblue" d="M479.062,-19.589C504.227,-24.7165 535.396,-31.0672 561.879,-36.4632"/>
<polygon fill="midnightblue" stroke="midnightblue" points="561.279,-39.9129 571.777,-38.4799 562.677,-33.0538 561.279,-39.9129"/>
</g>
<!-- Node84&#45;&gt;Node79 -->
<g id="edge24" class="edge"><title>Node84&#45;&gt;Node79</title>
<path fill="none" stroke="midnightblue" d="M487.769,-12.9271C551.719,-16.2836 656.579,-21.7873 725.455,-25.4024"/>
<polygon fill="midnightblue" stroke="midnightblue" points="725.598,-28.9146 735.768,-25.9436 725.965,-21.9242 725.598,-28.9146"/>
</g>
</g>
</svg>
