<?xml version="1.0" encoding="UTF-8" standalone="no"?>
<!DOCTYPE svg PUBLIC "-//W3C//DTD SVG 1.1//EN"
 "http://www.w3.org/Graphics/SVG/1.1/DTD/svg11.dtd">
<!-- Generated by graphviz version 2.38.0 (20140413.2041)
 -->
<!-- Title: CoolBoard::begin Pages: 1 -->
<svg width="815pt" height="864pt"
 viewBox="0.00 0.00 815.00 864.00" xmlns="http://www.w3.org/2000/svg" xmlns:xlink="http://www.w3.org/1999/xlink">
<g id="graph0" class="graph" transform="scale(1 1) rotate(0) translate(4 860)">
<title>CoolBoard::begin</title>
<polygon fill="white" stroke="none" points="-4,4 -4,-860 811,-860 811,4 -4,4"/>
<!-- Node0 -->
<g id="node1" class="node"><title>Node0</title>
<polygon fill="#bfbfbf" stroke="black" points="0,-418.5 0,-437.5 92,-437.5 92,-418.5 0,-418.5"/>
<text text-anchor="middle" x="46" y="-425.5" font-family="Helvetica,sans-Serif" font-size="10.00">CoolBoard::begin</text>
</g>
<!-- Node1 -->
<g id="node2" class="node"><title>Node1</title>
<g id="a_node2"><a xlink:href="$classJetpack.html#a5a53e1ebf7aaf3bf3e0d37ea64ca09a7" xlink:title="Jetpack::begin">
<polygon fill="white" stroke="black" points="160,-836.5 160,-855.5 240,-855.5 240,-836.5 160,-836.5"/>
<text text-anchor="middle" x="200" y="-843.5" font-family="Helvetica,sans-Serif" font-size="10.00">Jetpack::begin</text>
</a>
</g>
</g>
<!-- Node0&#45;&gt;Node1 -->
<g id="edge1" class="edge"><title>Node0&#45;&gt;Node1</title>
<path fill="none" stroke="midnightblue" d="M47.6134,-437.679C51.305,-492.904 72.3071,-767.79 128,-827 133.97,-833.346 141.806,-837.659 150.088,-840.571"/>
<polygon fill="midnightblue" stroke="midnightblue" points="149.354,-844.002 159.931,-843.385 151.278,-837.271 149.354,-844.002"/>
</g>
<!-- Node2 -->
<g id="node3" class="node"><title>Node2</title>
<g id="a_node3"><a xlink:href="$classCoolFileSystem.html#a6ba6f666ed4c530174f8569d2c636748" xlink:title="CoolFileSystem::begin">
<polygon fill="white" stroke="black" points="142,-798.5 142,-817.5 258,-817.5 258,-798.5 142,-798.5"/>
<text text-anchor="middle" x="200" y="-805.5" font-family="Helvetica,sans-Serif" font-size="10.00">CoolFileSystem::begin</text>
</a>
</g>
</g>
<!-- Node0&#45;&gt;Node2 -->
<g id="edge2" class="edge"><title>Node0&#45;&gt;Node2</title>
<path fill="none" stroke="midnightblue" d="M47.8439,-437.77C52.5487,-490.02 77.1772,-736.062 128,-789 129.616,-790.683 131.362,-792.222 133.214,-793.63"/>
<polygon fill="midnightblue" stroke="midnightblue" points="131.566,-796.726 141.915,-798.997 135.241,-790.768 131.566,-796.726"/>
</g>
<!-- Node3 -->
<g id="node4" class="node"><title>Node3</title>
<g id="a_node4"><a xlink:href="$classCoolBoardLed.html#ae3cbde8affcc6f011cbd698c8ef911f6" xlink:title="CoolBoardLed::begin">
<polygon fill="white" stroke="black" points="146.5,-760.5 146.5,-779.5 253.5,-779.5 253.5,-760.5 146.5,-760.5"/>
<text text-anchor="middle" x="200" y="-767.5" font-family="Helvetica,sans-Serif" font-size="10.00">CoolBoardLed::begin</text>
</a>
</g>
</g>
<!-- Node0&#45;&gt;Node3 -->
<g id="edge3" class="edge"><title>Node0&#45;&gt;Node3</title>
<path fill="none" stroke="midnightblue" d="M48.1107,-437.695C53.8832,-486.44 81.9688,-704.237 128,-751 130.711,-753.754 133.773,-756.122 137.067,-758.157"/>
<polygon fill="midnightblue" stroke="midnightblue" points="135.739,-761.408 146.242,-762.803 138.901,-755.163 135.739,-761.408"/>
</g>
<!-- Node4 -->
<g id="node5" class="node"><title>Node4</title>
<g id="a_node5"><a xlink:href="$classCoolMQTT.html#ac9248808641ebf3054ed0620ea9d0100" xlink:title="CoolMQTT::begin">
<polygon fill="white" stroke="black" points="153,-722.5 153,-741.5 247,-741.5 247,-722.5 153,-722.5"/>
<text text-anchor="middle" x="200" y="-729.5" font-family="Helvetica,sans-Serif" font-size="10.00">CoolMQTT::begin</text>
</a>
</g>
</g>
<!-- Node0&#45;&gt;Node4 -->
<g id="edge4" class="edge"><title>Node0&#45;&gt;Node4</title>
<path fill="none" stroke="midnightblue" d="M46.601,-437.506C45.4735,-477.394 46.6321,-632.878 128,-713 132.368,-717.302 137.598,-720.658 143.212,-723.272"/>
<polygon fill="midnightblue" stroke="midnightblue" points="142.348,-726.689 152.938,-727.007 144.857,-720.154 142.348,-726.689"/>
</g>
<!-- Node6 -->
<g id="node7" class="node"><title>Node6</title>
<g id="a_node7"><a xlink:href="$classExternalSensors.html#a58ede0d786a86417254708870f04a21e" xlink:title="ExternalSensors::begin">
<polygon fill="white" stroke="black" points="141,-684.5 141,-703.5 259,-703.5 259,-684.5 141,-684.5"/>
<text text-anchor="middle" x="200" y="-691.5" font-family="Helvetica,sans-Serif" font-size="10.00">ExternalSensors::begin</text>
</a>
</g>
</g>
<!-- Node0&#45;&gt;Node6 -->
<g id="edge6" class="edge"><title>Node0&#45;&gt;Node6</title>
<path fill="none" stroke="midnightblue" d="M47.0878,-437.731C47.9691,-474.605 56.2061,-607.078 128,-675 129.657,-676.568 131.429,-678.009 133.291,-679.334"/>
<polygon fill="midnightblue" stroke="midnightblue" points="131.567,-682.38 141.962,-684.429 135.114,-676.345 131.567,-682.38"/>
</g>
<!-- Node8 -->
<g id="node9" class="node"><title>Node8</title>
<g id="a_node9"><a xlink:href="$classCoolBoardSensors.html#a97095823ef7c8f5290812f1405b966b3" xlink:title="CoolBoardSensors::begin">
<polygon fill="white" stroke="black" points="136,-646.5 136,-665.5 264,-665.5 264,-646.5 136,-646.5"/>
<text text-anchor="middle" x="200" y="-653.5" font-family="Helvetica,sans-Serif" font-size="10.00">CoolBoardSensors::begin</text>
</a>
</g>
</g>
<!-- Node0&#45;&gt;Node8 -->
<g id="edge8" class="edge"><title>Node0&#45;&gt;Node8</title>
<path fill="none" stroke="midnightblue" d="M47.7323,-437.602C50.7835,-470.668 65.4354,-580.867 128,-637 129.736,-638.558 131.587,-639.99 133.526,-641.307"/>
<polygon fill="midnightblue" stroke="midnightblue" points="132.09,-644.514 142.521,-646.37 135.523,-638.414 132.09,-644.514"/>
</g>
<!-- Node11 -->
<g id="node12" class="node"><title>Node11</title>
<g id="a_node12"><a xlink:href="$classCoolTime.html#ab1976cf718b950bc31e003c3323b8adb" xlink:title="CoolTime::begin">
<polygon fill="white" stroke="black" points="156,-608.5 156,-627.5 244,-627.5 244,-608.5 156,-608.5"/>
<text text-anchor="middle" x="200" y="-615.5" font-family="Helvetica,sans-Serif" font-size="10.00">CoolTime::begin</text>
</a>
</g>
</g>
<!-- Node0&#45;&gt;Node11 -->
<g id="edge11" class="edge"><title>Node0&#45;&gt;Node11</title>
<path fill="none" stroke="midnightblue" d="M48.6935,-437.879C54.2572,-467.23 74.7618,-554.616 128,-599 133.334,-603.447 139.609,-606.862 146.183,-609.482"/>
<polygon fill="midnightblue" stroke="midnightblue" points="145.361,-612.899 155.955,-612.781 147.6,-606.266 145.361,-612.899"/>
</g>
<!-- Node18 -->
<g id="node19" class="node"><title>Node18</title>
<g id="a_node19"><a xlink:href="$classIrene3000.html#ad5891806c500ae1007afe52b9e304c2b" xlink:title="Irene3000::begin">
<polygon fill="white" stroke="black" points="155.5,-570.5 155.5,-589.5 244.5,-589.5 244.5,-570.5 155.5,-570.5"/>
<text text-anchor="middle" x="200" y="-577.5" font-family="Helvetica,sans-Serif" font-size="10.00">Irene3000::begin</text>
</a>
</g>
</g>
<!-- Node0&#45;&gt;Node18 -->
<g id="edge18" class="edge"><title>Node0&#45;&gt;Node18</title>
<path fill="none" stroke="midnightblue" d="M50.0808,-437.778C58.3811,-462.48 83.6327,-527.785 128,-561 133.229,-564.914 139.205,-568.023 145.421,-570.492"/>
<polygon fill="midnightblue" stroke="midnightblue" points="144.719,-573.95 155.313,-573.868 146.98,-567.325 144.719,-573.95"/>
</g>
<!-- Node19 -->
<g id="node20" class="node"><title>Node19</title>
<g id="a_node20"><a xlink:href="$classCoolBoardLed.html#a1b60e5e30bea96c49ed62ed1bf1ffc8b" xlink:title="CoolBoardLed::config">
<polygon fill="white" stroke="black" points="145,-532.5 145,-551.5 255,-551.5 255,-532.5 145,-532.5"/>
<text text-anchor="middle" x="200" y="-539.5" font-family="Helvetica,sans-Serif" font-size="10.00">CoolBoardLed::config</text>
</a>
</g>
</g>
<!-- Node0&#45;&gt;Node19 -->
<g id="edge19" class="edge"><title>Node0&#45;&gt;Node19</title>
<path fill="none" stroke="midnightblue" d="M52.5178,-437.768C63.9708,-457.127 92.2613,-500.438 128,-523 131.363,-525.123 134.96,-527.011 138.684,-528.69"/>
<polygon fill="midnightblue" stroke="midnightblue" points="137.555,-532.007 148.141,-532.445 140.139,-525.501 137.555,-532.007"/>
</g>
<!-- Node20 -->
<g id="node21" class="node"><title>Node20</title>
<g id="a_node21"><a xlink:href="$classJetpack.html#ab065ee83e244265a2223a22f3ee4a719" xlink:title="Jetpack::config">
<polygon fill="white" stroke="black" points="158.5,-494.5 158.5,-513.5 241.5,-513.5 241.5,-494.5 158.5,-494.5"/>
<text text-anchor="middle" x="200" y="-501.5" font-family="Helvetica,sans-Serif" font-size="10.00">Jetpack::config</text>
</a>
</g>
</g>
<!-- Node0&#45;&gt;Node20 -->
<g id="edge20" class="edge"><title>Node0&#45;&gt;Node20</title>
<path fill="none" stroke="midnightblue" d="M58.0087,-437.68C72.8984,-450.299 100.74,-472.255 128,-485 134.516,-488.047 141.606,-490.673 148.7,-492.916"/>
<polygon fill="midnightblue" stroke="midnightblue" points="147.743,-496.283 158.324,-495.741 149.714,-489.566 147.743,-496.283"/>
</g>
<!-- Node21 -->
<g id="node22" class="node"><title>Node21</title>
<g id="a_node22"><a xlink:href="$classExternalSensors.html#a862a4bd11346b37270d0244c2adabe5a" xlink:title="ExternalSensors::config">
<polygon fill="white" stroke="black" points="139.5,-456.5 139.5,-475.5 260.5,-475.5 260.5,-456.5 139.5,-456.5"/>
<text text-anchor="middle" x="200" y="-463.5" font-family="Helvetica,sans-Serif" font-size="10.00">ExternalSensors::config</text>
</a>
</g>
</g>
<!-- Node0&#45;&gt;Node21 -->
<g id="edge21" class="edge"><title>Node0&#45;&gt;Node21</title>
<path fill="none" stroke="midnightblue" d="M85.356,-437.589C105.324,-442.581 129.93,-448.732 151.133,-454.033"/>
<polygon fill="midnightblue" stroke="midnightblue" points="150.369,-457.45 160.92,-456.48 152.067,-450.659 150.369,-457.45"/>
</g>
<!-- Node22 -->
<g id="node23" class="node"><title>Node22</title>
<g id="a_node23"><a xlink:href="$classCoolMQTT.html#a9b703de4f1358f0ee7a5e8c44979c648" xlink:title="CoolMQTT::config">
<polygon fill="white" stroke="black" points="151.5,-418.5 151.5,-437.5 248.5,-437.5 248.5,-418.5 151.5,-418.5"/>
<text text-anchor="middle" x="200" y="-425.5" font-family="Helvetica,sans-Serif" font-size="10.00">CoolMQTT::config</text>
</a>
</g>
</g>
<!-- Node0&#45;&gt;Node22 -->
<g id="edge22" class="edge"><title>Node0&#45;&gt;Node22</title>
<path fill="none" stroke="midnightblue" d="M92.1935,-428C107.484,-428 124.777,-428 140.925,-428"/>
<polygon fill="midnightblue" stroke="midnightblue" points="141.339,-431.5 151.339,-428 141.339,-424.5 141.339,-431.5"/>
</g>
<!-- Node23 -->
<g id="node24" class="node"><title>Node23</title>
<g id="a_node24"><a xlink:href="$classCoolTime.html#a87c28260c1bc77091162cbcf1ee2e129" xlink:title="CoolTime::config">
<polygon fill="white" stroke="black" points="154.5,-380.5 154.5,-399.5 245.5,-399.5 245.5,-380.5 154.5,-380.5"/>
<text text-anchor="middle" x="200" y="-387.5" font-family="Helvetica,sans-Serif" font-size="10.00">CoolTime::config</text>
</a>
</g>
</g>
<!-- Node0&#45;&gt;Node23 -->
<g id="edge23" class="edge"><title>Node0&#45;&gt;Node23</title>
<path fill="none" stroke="midnightblue" d="M85.356,-418.411C105.324,-413.419 129.93,-407.268 151.133,-401.967"/>
<polygon fill="midnightblue" stroke="midnightblue" points="152.067,-405.341 160.92,-399.52 150.369,-398.55 152.067,-405.341"/>
</g>
<!-- Node24 -->
<g id="node25" class="node"><title>Node24</title>
<g id="a_node25"><a xlink:href="$classCoolTime.html#af355e7f9b3898211cd2ff25eab5933b1" xlink:title="CoolTime::printConf">
<polygon fill="white" stroke="black" points="334,-342.5 334,-361.5 438,-361.5 438,-342.5 334,-342.5"/>
<text text-anchor="middle" x="386" y="-349.5" font-family="Helvetica,sans-Serif" font-size="10.00">CoolTime::printConf</text>
</a>
</g>
</g>
<!-- Node0&#45;&gt;Node24 -->
<g id="edge40" class="edge"><title>Node0&#45;&gt;Node24</title>
<path fill="none" stroke="midnightblue" d="M56.9501,-418.221C71.2778,-404.839 99.1803,-381.308 128,-371 191.782,-348.186 270.015,-345.712 323.295,-347.499"/>
<polygon fill="midnightblue" stroke="midnightblue" points="323.475,-351.008 333.606,-347.908 323.753,-344.014 323.475,-351.008"/>
</g>
<!-- Node26 -->
<g id="node27" class="node"><title>Node26</title>
<g id="a_node27"><a xlink:href="$classIrene3000.html#afed5c35e4b23963c157847ef27c11e9c" xlink:title="Irene3000::config">
<polygon fill="white" stroke="black" points="154,-304.5 154,-323.5 246,-323.5 246,-304.5 154,-304.5"/>
<text text-anchor="middle" x="200" y="-311.5" font-family="Helvetica,sans-Serif" font-size="10.00">Irene3000::config</text>
</a>
</g>
</g>
<!-- Node0&#45;&gt;Node26 -->
<g id="edge27" class="edge"><title>Node0&#45;&gt;Node26</title>
<path fill="none" stroke="midnightblue" d="M53.1444,-418.383C65.2803,-400.13 94.1078,-360.301 128,-338 134.573,-333.675 142.002,-330.054 149.516,-327.046"/>
<polygon fill="midnightblue" stroke="midnightblue" points="150.84,-330.289 159.021,-323.557 148.427,-323.718 150.84,-330.289"/>
</g>
<!-- Node28 -->
<g id="node29" class="node"><title>Node28</title>
<g id="a_node29"><a xlink:href="$classCoolBoardSensors.html#a9a218895c5423375c33c08f2c56fb23a" xlink:title="CoolBoardSensors::config">
<polygon fill="white" stroke="black" points="134.5,-266.5 134.5,-285.5 265.5,-285.5 265.5,-266.5 134.5,-266.5"/>
<text text-anchor="middle" x="200" y="-273.5" font-family="Helvetica,sans-Serif" font-size="10.00">CoolBoardSensors::config</text>
</a>
</g>
</g>
<!-- Node0&#45;&gt;Node28 -->
<g id="edge29" class="edge"><title>Node0&#45;&gt;Node28</title>
<path fill="none" stroke="midnightblue" d="M50.0808,-418.222C58.3811,-393.52 83.6327,-328.215 128,-295 130.523,-293.111 133.221,-291.41 136.035,-289.877"/>
<polygon fill="midnightblue" stroke="midnightblue" points="137.767,-292.932 145.353,-285.536 134.81,-286.587 137.767,-292.932"/>
</g>
<!-- Node29 -->
<g id="node30" class="node"><title>Node29</title>
<g id="a_node30"><a xlink:href="$classCoolBoard.html#a519de78b807f8ec6463ff484eb925918" xlink:title="CoolBoard::connect">
<polygon fill="white" stroke="black" points="148.5,-228.5 148.5,-247.5 251.5,-247.5 251.5,-228.5 148.5,-228.5"/>
<text text-anchor="middle" x="200" y="-235.5" font-family="Helvetica,sans-Serif" font-size="10.00">CoolBoard::connect</text>
</a>
</g>
</g>
<!-- Node0&#45;&gt;Node29 -->
<g id="edge30" class="edge"><title>Node0&#45;&gt;Node29</title>
<path fill="none" stroke="midnightblue" d="M48.6935,-418.121C54.2572,-388.77 74.7618,-301.384 128,-257 131.308,-254.242 134.977,-251.882 138.856,-249.861"/>
<polygon fill="midnightblue" stroke="midnightblue" points="140.474,-252.973 148.213,-245.737 137.651,-246.567 140.474,-252.973"/>
</g>
<!-- Node33 -->
<g id="node34" class="node"><title>Node33</title>
<g id="a_node34"><a xlink:href="$classCoolBoardLed.html#a8ed3053a36f0ed4a131f43b5b17efb61" xlink:title="CoolBoardLed::printConf">
<polygon fill="white" stroke="black" points="138,-190.5 138,-209.5 262,-209.5 262,-190.5 138,-190.5"/>
<text text-anchor="middle" x="200" y="-197.5" font-family="Helvetica,sans-Serif" font-size="10.00">CoolBoardLed::printConf</text>
</a>
</g>
</g>
<!-- Node0&#45;&gt;Node33 -->
<g id="edge35" class="edge"><title>Node0&#45;&gt;Node33</title>
<path fill="none" stroke="midnightblue" d="M47.7323,-418.398C50.7835,-385.332 65.4354,-275.133 128,-219 129.736,-217.442 131.587,-216.01 133.526,-214.693"/>
<polygon fill="midnightblue" stroke="midnightblue" points="135.523,-217.586 142.521,-209.63 132.09,-211.486 135.523,-217.586"/>
</g>
<!-- Node34 -->
<g id="node35" class="node"><title>Node34</title>
<g id="a_node35"><a xlink:href="$classJetpack.html#ac54a7bb4f9166bee32052253d9b1d306" xlink:title="Jetpack::printConf">
<polygon fill="white" stroke="black" points="151.5,-152.5 151.5,-171.5 248.5,-171.5 248.5,-152.5 151.5,-152.5"/>
<text text-anchor="middle" x="200" y="-159.5" font-family="Helvetica,sans-Serif" font-size="10.00">Jetpack::printConf</text>
</a>
</g>
</g>
<!-- Node0&#45;&gt;Node34 -->
<g id="edge36" class="edge"><title>Node0&#45;&gt;Node34</title>
<path fill="none" stroke="midnightblue" d="M47.0878,-418.269C47.9691,-381.395 56.2061,-248.922 128,-181 132.055,-177.163 136.798,-174.083 141.875,-171.613"/>
<polygon fill="midnightblue" stroke="midnightblue" points="143.345,-174.794 151.298,-167.794 140.716,-168.306 143.345,-174.794"/>
</g>
<!-- Node35 -->
<g id="node36" class="node"><title>Node35</title>
<g id="a_node36"><a xlink:href="$classExternalSensors.html#a78c2bf55084435dd51d3c559b2d3c6f3" xlink:title="ExternalSensors::printConf">
<polygon fill="white" stroke="black" points="133,-114.5 133,-133.5 267,-133.5 267,-114.5 133,-114.5"/>
<text text-anchor="middle" x="200" y="-121.5" font-family="Helvetica,sans-Serif" font-size="10.00">ExternalSensors::printConf</text>
</a>
</g>
</g>
<!-- Node0&#45;&gt;Node35 -->
<g id="edge37" class="edge"><title>Node0&#45;&gt;Node35</title>
<path fill="none" stroke="midnightblue" d="M46.601,-418.494C45.4735,-378.606 46.6321,-223.122 128,-143 129.466,-141.556 131.029,-140.219 132.671,-138.981"/>
<polygon fill="midnightblue" stroke="midnightblue" points="134.773,-141.797 141.456,-133.577 131.105,-135.835 134.773,-141.797"/>
</g>
<!-- Node36 -->
<g id="node37" class="node"><title>Node36</title>
<g id="a_node37"><a xlink:href="$classCoolMQTT.html#a40553a0ad4b5ecf1cb4411ab54ca85fb" xlink:title="CoolMQTT::printConf">
<polygon fill="white" stroke="black" points="145,-76.5 145,-95.5 255,-95.5 255,-76.5 145,-76.5"/>
<text text-anchor="middle" x="200" y="-83.5" font-family="Helvetica,sans-Serif" font-size="10.00">CoolMQTT::printConf</text>
</a>
</g>
</g>
<!-- Node0&#45;&gt;Node36 -->
<g id="edge38" class="edge"><title>Node0&#45;&gt;Node36</title>
<path fill="none" stroke="midnightblue" d="M48.1107,-418.305C53.8832,-369.56 81.9688,-151.763 128,-105 130.372,-102.59 133.014,-100.476 135.844,-98.6212"/>
<polygon fill="midnightblue" stroke="midnightblue" points="137.664,-101.617 144.819,-93.8023 134.353,-95.4493 137.664,-101.617"/>
</g>
<!-- Node37 -->
<g id="node38" class="node"><title>Node37</title>
<g id="a_node38"><a xlink:href="$classIrene3000.html#a7bc2414100b5e19eacc6630fa34b2654" xlink:title="Irene3000::printConf">
<polygon fill="white" stroke="black" points="147.5,-38.5 147.5,-57.5 252.5,-57.5 252.5,-38.5 147.5,-38.5"/>
<text text-anchor="middle" x="200" y="-45.5" font-family="Helvetica,sans-Serif" font-size="10.00">Irene3000::printConf</text>
</a>
</g>
</g>
<!-- Node0&#45;&gt;Node37 -->
<g id="edge39" class="edge"><title>Node0&#45;&gt;Node37</title>
<path fill="none" stroke="midnightblue" d="M47.8439,-418.23C52.5487,-365.98 77.1772,-119.938 128,-67 130.982,-63.8934 134.413,-61.2757 138.121,-59.0719"/>
<polygon fill="midnightblue" stroke="midnightblue" points="139.742,-62.1751 147.196,-54.6459 136.674,-55.8833 139.742,-62.1751"/>
</g>
<!-- Node38 -->
<g id="node39" class="node"><title>Node38</title>
<g id="a_node39"><a xlink:href="$classCoolBoardSensors.html#af6fd79505815b204c178617ecf54c873" xlink:title="CoolBoardSensors::printConf">
<polygon fill="white" stroke="black" points="128,-0.5 128,-19.5 272,-19.5 272,-0.5 128,-0.5"/>
<text text-anchor="middle" x="200" y="-7.5" font-family="Helvetica,sans-Serif" font-size="10.00">CoolBoardSensors::printConf</text>
</a>
</g>
</g>
<!-- Node0&#45;&gt;Node38 -->
<g id="edge41" class="edge"><title>Node0&#45;&gt;Node38</title>
<path fill="none" stroke="midnightblue" d="M47.6134,-418.321C51.305,-363.096 72.3071,-88.2096 128,-29 129.232,-27.69 130.544,-26.4667 131.923,-25.3245"/>
<polygon fill="midnightblue" stroke="midnightblue" points="134.085,-28.0892 140.465,-19.6304 130.203,-22.2646 134.085,-28.0892"/>
</g>
<!-- Node5 -->
<g id="node6" class="node"><title>Node5</title>
<g id="a_node6"><a xlink:href="$classCoolMQTT.html#a30d82ad665bfb603f46ecdbc290775df" xlink:title="CoolMQTT::callback">
<polygon fill="white" stroke="black" points="332.5,-731.5 332.5,-750.5 439.5,-750.5 439.5,-731.5 332.5,-731.5"/>
<text text-anchor="middle" x="386" y="-738.5" font-family="Helvetica,sans-Serif" font-size="10.00">CoolMQTT::callback</text>
</a>
</g>
</g>
<!-- Node4&#45;&gt;Node5 -->
<g id="edge5" class="edge"><title>Node4&#45;&gt;Node5</title>
<path fill="none" stroke="midnightblue" d="M247.431,-734.271C270.067,-735.378 297.628,-736.726 322.119,-737.924"/>
<polygon fill="midnightblue" stroke="midnightblue" points="322.245,-741.435 332.404,-738.427 322.587,-734.443 322.245,-741.435"/>
</g>
<!-- Node7 -->
<g id="node8" class="node"><title>Node7</title>
<g id="a_node8"><a xlink:href="$classBaseExternalSensor.html#a87d132803d4f4fdd4e66332809f0c9a0" xlink:title="BaseExternalSensor\l::begin">
<polygon fill="white" stroke="black" points="333,-682 333,-712 439,-712 439,-682 333,-682"/>
<text text-anchor="start" x="341" y="-700" font-family="Helvetica,sans-Serif" font-size="10.00">BaseExternalSensor</text>
<text text-anchor="middle" x="386" y="-689" font-family="Helvetica,sans-Serif" font-size="10.00">::begin</text>
</a>
</g>
</g>
<!-- Node6&#45;&gt;Node7 -->
<g id="edge7" class="edge"><title>Node6&#45;&gt;Node7</title>
<path fill="none" stroke="midnightblue" d="M259.219,-694.949C279.394,-695.278 302.086,-695.648 322.586,-695.982"/>
<polygon fill="midnightblue" stroke="midnightblue" points="322.709,-699.485 332.765,-696.148 322.824,-692.486 322.709,-699.485"/>
</g>
<!-- Node9 -->
<g id="node10" class="node"><title>Node9</title>
<g id="a_node10"><a xlink:href="$classCoolBoardSensors.html#acad6a8418c66d36868caca23c844ecb6" xlink:title="CoolBoardSensors::initReadI2C">
<polygon fill="white" stroke="black" points="308,-643.5 308,-662.5 464,-662.5 464,-643.5 308,-643.5"/>
<text text-anchor="middle" x="386" y="-650.5" font-family="Helvetica,sans-Serif" font-size="10.00">CoolBoardSensors::initReadI2C</text>
</a>
</g>
</g>
<!-- Node8&#45;&gt;Node9 -->
<g id="edge9" class="edge"><title>Node8&#45;&gt;Node9</title>
<path fill="none" stroke="midnightblue" d="M264.065,-654.972C274.818,-654.796 286.157,-654.612 297.409,-654.428"/>
<polygon fill="midnightblue" stroke="midnightblue" points="297.756,-657.923 307.698,-654.26 297.642,-650.924 297.756,-657.923"/>
</g>
<!-- Node10 -->
<g id="node11" class="node"><title>Node10</title>
<g id="a_node11"><a xlink:href="$classCoolBoardSensors.html#a406307ffd70272282d91479c7ed8d66f" xlink:title="CoolBoardSensors::setEnv\lSensorSettings">
<polygon fill="white" stroke="black" points="318.5,-594 318.5,-624 453.5,-624 453.5,-594 318.5,-594"/>
<text text-anchor="start" x="326.5" y="-612" font-family="Helvetica,sans-Serif" font-size="10.00">CoolBoardSensors::setEnv</text>
<text text-anchor="middle" x="386" y="-601" font-family="Helvetica,sans-Serif" font-size="10.00">SensorSettings</text>
</a>
</g>
</g>
<!-- Node8&#45;&gt;Node10 -->
<g id="edge10" class="edge"><title>Node8&#45;&gt;Node10</title>
<path fill="none" stroke="midnightblue" d="M238.235,-646.489C260.583,-640.781 289.708,-633.341 316.117,-626.595"/>
<polygon fill="midnightblue" stroke="midnightblue" points="317.263,-629.915 326.085,-624.049 315.53,-623.133 317.263,-629.915"/>
</g>
<!-- Node12 -->
<g id="node13" class="node"><title>Node12</title>
<g id="a_node13"><a xlink:href="$classCoolTime.html#aae601f795452cfa48d9fb337aed483a8" xlink:title="CoolTime::update">
<polygon fill="white" stroke="black" points="339,-537.5 339,-556.5 433,-556.5 433,-537.5 339,-537.5"/>
<text text-anchor="middle" x="386" y="-544.5" font-family="Helvetica,sans-Serif" font-size="10.00">CoolTime::update</text>
</a>
</g>
</g>
<!-- Node11&#45;&gt;Node12 -->
<g id="edge12" class="edge"><title>Node11&#45;&gt;Node12</title>
<path fill="none" stroke="midnightblue" d="M241.545,-608.422C251.6,-605.7 262.278,-602.509 272,-599 302.038,-588.158 335.078,-572.491 357.629,-561.191"/>
<polygon fill="midnightblue" stroke="midnightblue" points="359.272,-564.282 366.612,-556.642 356.11,-558.037 359.272,-564.282"/>
</g>
<!-- Node13 -->
<g id="node14" class="node"><title>Node13</title>
<g id="a_node14"><a xlink:href="$classCoolTime.html#a5ae038a4498602b189f76a10bf02adf8" xlink:title="CoolTime::isTimeSync">
<polygon fill="white" stroke="black" points="507,-556.5 507,-575.5 623,-575.5 623,-556.5 507,-556.5"/>
<text text-anchor="middle" x="565" y="-563.5" font-family="Helvetica,sans-Serif" font-size="10.00">CoolTime::isTimeSync</text>
</a>
</g>
</g>
<!-- Node12&#45;&gt;Node13 -->
<g id="edge13" class="edge"><title>Node12&#45;&gt;Node13</title>
<path fill="none" stroke="midnightblue" d="M433.043,-551.942C452.496,-554.031 475.537,-556.504 496.827,-558.789"/>
<polygon fill="midnightblue" stroke="midnightblue" points="496.473,-562.271 506.789,-559.859 497.22,-555.311 496.473,-562.271"/>
</g>
<!-- Node15 -->
<g id="node16" class="node"><title>Node15</title>
<g id="a_node16"><a xlink:href="$classCoolTime.html#a41fbbbfd651c2079f54d4b2911e4c705" xlink:title="CoolTime::getNtpTime">
<polygon fill="white" stroke="black" points="507,-518.5 507,-537.5 623,-537.5 623,-518.5 507,-518.5"/>
<text text-anchor="middle" x="565" y="-525.5" font-family="Helvetica,sans-Serif" font-size="10.00">CoolTime::getNtpTime</text>
</a>
</g>
</g>
<!-- Node12&#45;&gt;Node15 -->
<g id="edge15" class="edge"><title>Node12&#45;&gt;Node15</title>
<path fill="none" stroke="midnightblue" d="M433.043,-542.058C452.496,-539.969 475.537,-537.496 496.827,-535.211"/>
<polygon fill="midnightblue" stroke="midnightblue" points="497.22,-538.689 506.789,-534.141 496.473,-531.729 497.22,-538.689"/>
</g>
<!-- Node17 -->
<g id="node18" class="node"><title>Node17</title>
<g id="a_node18"><a xlink:href="$classCoolTime.html#ae9658c9b377510d469e3b88edf33ee85" xlink:title="CoolTime::saveTimeSync">
<polygon fill="white" stroke="black" points="500,-464.5 500,-483.5 630,-483.5 630,-464.5 500,-464.5"/>
<text text-anchor="middle" x="565" y="-471.5" font-family="Helvetica,sans-Serif" font-size="10.00">CoolTime::saveTimeSync</text>
</a>
</g>
</g>
<!-- Node12&#45;&gt;Node17 -->
<g id="edge17" class="edge"><title>Node12&#45;&gt;Node17</title>
<path fill="none" stroke="midnightblue" d="M410.14,-537.457C441.146,-524.668 496.338,-501.906 531.504,-487.402"/>
<polygon fill="midnightblue" stroke="midnightblue" points="532.945,-490.594 540.855,-483.546 530.276,-484.123 532.945,-490.594"/>
</g>
<!-- Node14 -->
<g id="node15" class="node"><title>Node14</title>
<g id="a_node15"><a xlink:href="$classCoolTime.html#a5d17f707a9d337720493b2bce9d41c21" xlink:title="CoolTime::getLastSyncTime">
<polygon fill="white" stroke="black" points="666,-556.5 666,-575.5 807,-575.5 807,-556.5 666,-556.5"/>
<text text-anchor="middle" x="736.5" y="-563.5" font-family="Helvetica,sans-Serif" font-size="10.00">CoolTime::getLastSyncTime</text>
</a>
</g>
</g>
<!-- Node13&#45;&gt;Node14 -->
<g id="edge14" class="edge"><title>Node13&#45;&gt;Node14</title>
<path fill="none" stroke="midnightblue" d="M623.385,-566C633.826,-566 644.889,-566 655.837,-566"/>
<polygon fill="midnightblue" stroke="midnightblue" points="655.839,-569.5 665.839,-566 655.839,-562.5 655.839,-569.5"/>
</g>
<!-- Node16 -->
<g id="node17" class="node"><title>Node16</title>
<g id="a_node17"><a xlink:href="$classCoolTime.html#a236a38d120dc53bc67456d763838c5a1" xlink:title="CoolTime::sendNTPpacket">
<polygon fill="white" stroke="black" points="669,-518.5 669,-537.5 804,-537.5 804,-518.5 669,-518.5"/>
<text text-anchor="middle" x="736.5" y="-525.5" font-family="Helvetica,sans-Serif" font-size="10.00">CoolTime::sendNTPpacket</text>
</a>
</g>
</g>
<!-- Node15&#45;&gt;Node16 -->
<g id="edge16" class="edge"><title>Node15&#45;&gt;Node16</title>
<path fill="none" stroke="midnightblue" d="M623.385,-528C634.676,-528 646.693,-528 658.507,-528"/>
<polygon fill="midnightblue" stroke="midnightblue" points="658.813,-531.5 668.813,-528 658.813,-524.5 658.813,-531.5"/>
</g>
<!-- Node23&#45;&gt;Node17 -->
<g id="edge24" class="edge"><title>Node23&#45;&gt;Node17</title>
<path fill="none" stroke="midnightblue" d="M242.287,-399.554C309.019,-414.996 440.405,-445.4 512.922,-462.18"/>
<polygon fill="midnightblue" stroke="midnightblue" points="512.22,-465.61 522.751,-464.455 513.798,-458.79 512.22,-465.61"/>
</g>
<!-- Node23&#45;&gt;Node24 -->
<g id="edge25" class="edge"><title>Node23&#45;&gt;Node24</title>
<path fill="none" stroke="midnightblue" d="M245.541,-380.801C270.628,-375.62 302.197,-369.101 328.952,-363.575"/>
<polygon fill="midnightblue" stroke="midnightblue" points="329.862,-366.961 338.947,-361.511 328.446,-360.106 329.862,-366.961"/>
</g>
<!-- Node25 -->
<g id="node26" class="node"><title>Node25</title>
<g id="a_node26"><a xlink:href="$classCoolTime.html#acd537cd4210d7bde4e1f5c47d2ac0456" xlink:title="CoolTime::formatDigits">
<polygon fill="white" stroke="black" points="327,-380.5 327,-399.5 445,-399.5 445,-380.5 327,-380.5"/>
<text text-anchor="middle" x="386" y="-387.5" font-family="Helvetica,sans-Serif" font-size="10.00">CoolTime::formatDigits</text>
</a>
</g>
</g>
<!-- Node23&#45;&gt;Node25 -->
<g id="edge26" class="edge"><title>Node23&#45;&gt;Node25</title>
<path fill="none" stroke="midnightblue" d="M245.541,-390C266.946,-390 293.07,-390 316.897,-390"/>
<polygon fill="midnightblue" stroke="midnightblue" points="316.947,-393.5 326.947,-390 316.947,-386.5 316.947,-393.5"/>
</g>
<!-- Node27 -->
<g id="node28" class="node"><title>Node27</title>
<g id="a_node28"><a xlink:href="$classIrene3000.html#abcad62d1201a59f8dd3ba87048002728" xlink:title="Irene3000::gainConvert">
<polygon fill="white" stroke="black" points="327,-304.5 327,-323.5 445,-323.5 445,-304.5 327,-304.5"/>
<text text-anchor="middle" x="386" y="-311.5" font-family="Helvetica,sans-Serif" font-size="10.00">Irene3000::gainConvert</text>
</a>
</g>
</g>
<!-- Node26&#45;&gt;Node27 -->
<g id="edge28" class="edge"><title>Node26&#45;&gt;Node27</title>
<path fill="none" stroke="midnightblue" d="M246.011,-314C267.235,-314 293.018,-314 316.587,-314"/>
<polygon fill="midnightblue" stroke="midnightblue" points="316.883,-317.5 326.883,-314 316.883,-310.5 316.883,-317.5"/>
</g>
<!-- Node30 -->
<g id="node31" class="node"><title>Node30</title>
<g id="a_node31"><a xlink:href="$classCoolMQTT.html#a5d003307eff78efbd585e42b43b72b6d" xlink:title="CoolMQTT::state">
<polygon fill="white" stroke="black" points="519,-247.5 519,-266.5 611,-266.5 611,-247.5 519,-247.5"/>
<text text-anchor="middle" x="565" y="-254.5" font-family="Helvetica,sans-Serif" font-size="10.00">CoolMQTT::state</text>
</a>
</g>
</g>
<!-- Node29&#45;&gt;Node30 -->
<g id="edge31" class="edge"><title>Node29&#45;&gt;Node30</title>
<path fill="none" stroke="midnightblue" d="M244.498,-247.512C263.839,-251.277 286.951,-255.146 308,-257 376.9,-263.07 456.636,-261.76 508.571,-259.799"/>
<polygon fill="midnightblue" stroke="midnightblue" points="508.723,-263.296 518.576,-259.401 508.444,-256.302 508.723,-263.296"/>
</g>
<!-- Node31 -->
<g id="node32" class="node"><title>Node31</title>
<g id="a_node32"><a xlink:href="$classCoolMQTT.html#a58b0b1f64b269c2681685208262fba1d" xlink:title="CoolMQTT::connect">
<polygon fill="white" stroke="black" points="333.5,-228.5 333.5,-247.5 438.5,-247.5 438.5,-228.5 333.5,-228.5"/>
<text text-anchor="middle" x="386" y="-235.5" font-family="Helvetica,sans-Serif" font-size="10.00">CoolMQTT::connect</text>
</a>
</g>
</g>
<!-- Node29&#45;&gt;Node31 -->
<g id="edge32" class="edge"><title>Node29&#45;&gt;Node31</title>
<path fill="none" stroke="midnightblue" d="M251.766,-238C273.912,-238 300.077,-238 323.331,-238"/>
<polygon fill="midnightblue" stroke="midnightblue" points="323.441,-241.5 333.441,-238 323.441,-234.5 323.441,-241.5"/>
</g>
<!-- Node32 -->
<g id="node33" class="node"><title>Node32</title>
<g id="a_node33"><a xlink:href="$classCoolBoard.html#aaa24480b273fc095a1356a589c333781" xlink:title="CoolBoard::getLogInterval">
<polygon fill="white" stroke="black" points="321,-190.5 321,-209.5 451,-209.5 451,-190.5 321,-190.5"/>
<text text-anchor="middle" x="386" y="-197.5" font-family="Helvetica,sans-Serif" font-size="10.00">CoolBoard::getLogInterval</text>
</a>
</g>
</g>
<!-- Node29&#45;&gt;Node32 -->
<g id="edge34" class="edge"><title>Node29&#45;&gt;Node32</title>
<path fill="none" stroke="midnightblue" d="M247.431,-228.411C272.149,-223.306 302.739,-216.989 328.792,-211.608"/>
<polygon fill="midnightblue" stroke="midnightblue" points="329.817,-214.97 338.903,-209.52 328.402,-208.115 329.817,-214.97"/>
</g>
<!-- Node31&#45;&gt;Node30 -->
<g id="edge33" class="edge"><title>Node31&#45;&gt;Node30</title>
<path fill="none" stroke="midnightblue" d="M438.672,-243.547C460.705,-245.912 486.445,-248.675 508.846,-251.08"/>
<polygon fill="midnightblue" stroke="midnightblue" points="508.562,-254.569 518.878,-252.156 509.309,-247.609 508.562,-254.569"/>
</g>
</g>
</svg>
