<?xml version="1.0" encoding="UTF-8" standalone="no"?>
<!DOCTYPE svg PUBLIC "-//W3C//DTD SVG 1.1//EN"
 "http://www.w3.org/Graphics/SVG/1.1/DTD/svg11.dtd">
<!-- Generated by graphviz version 2.38.0 (20140413.2041)
 -->
<!-- Title: CoolBoard::readSensors Pages: 1 -->
<svg width="622pt" height="313pt"
 viewBox="0.00 0.00 622.00 313.00" xmlns="http://www.w3.org/2000/svg" xmlns:xlink="http://www.w3.org/1999/xlink">
<g id="graph0" class="graph" transform="scale(1 1) rotate(0) translate(4 309)">
<title>CoolBoard::readSensors</title>
<polygon fill="white" stroke="none" points="-4,4 -4,-309 618,-309 618,4 -4,4"/>
<!-- Node162 -->
<g id="node1" class="node"><title>Node162</title>
<polygon fill="#bfbfbf" stroke="black" points="0,-171.5 0,-190.5 123,-190.5 123,-171.5 0,-171.5"/>
<text text-anchor="middle" x="61.5" y="-178.5" font-family="Helvetica,sans-Serif" font-size="10.00">CoolBoard::readSensors</text>
</g>
<!-- Node163 -->
<g id="node2" class="node"><title>Node163</title>
<g id="a_node2"><a xlink:href="$classCoolBoardLed.html#ab778f5e7bed0ab74e3906d82110493c3" xlink:title="CoolBoardLed::fadeIn">
<polygon fill="white" stroke="black" points="165,-285.5 165,-304.5 276,-304.5 276,-285.5 165,-285.5"/>
<text text-anchor="middle" x="220.5" y="-292.5" font-family="Helvetica,sans-Serif" font-size="10.00">CoolBoardLed::fadeIn</text>
</a>
</g>
</g>
<!-- Node162&#45;&gt;Node163 -->
<g id="edge1" class="edge"><title>Node162&#45;&gt;Node163</title>
<path fill="none" stroke="midnightblue" d="M69.6322,-190.59C84.281,-209.63 119.701,-252.394 159,-276 162.458,-278.077 166.165,-279.949 169.98,-281.632"/>
<polygon fill="midnightblue" stroke="midnightblue" points="169.016,-285.014 179.602,-285.434 171.588,-278.504 169.016,-285.014"/>
</g>
<!-- Node164 -->
<g id="node3" class="node"><title>Node164</title>
<g id="a_node3"><a xlink:href="$classCoolBoardLed.html#a93d545679237e8cc858324367149775c" xlink:title="CoolBoardLed::fadeOut">
<polygon fill="white" stroke="black" points="161,-247.5 161,-266.5 280,-266.5 280,-247.5 161,-247.5"/>
<text text-anchor="middle" x="220.5" y="-254.5" font-family="Helvetica,sans-Serif" font-size="10.00">CoolBoardLed::fadeOut</text>
</a>
</g>
</g>
<!-- Node162&#45;&gt;Node164 -->
<g id="edge2" class="edge"><title>Node162&#45;&gt;Node164</title>
<path fill="none" stroke="midnightblue" d="M76.34,-190.559C94.6055,-202.845 128.071,-224.228 159,-238 164.029,-240.239 169.401,-242.328 174.791,-244.241"/>
<polygon fill="midnightblue" stroke="midnightblue" points="173.847,-247.616 184.441,-247.487 176.078,-240.981 173.847,-247.616"/>
</g>
<!-- Node165 -->
<g id="node4" class="node"><title>Node165</title>
<g id="a_node4"><a xlink:href="$classCoolTime.html#a7a7501c5ca77dd1248bea704c44f986c" xlink:title="CoolTime::getTimeDate">
<polygon fill="white" stroke="black" points="160,-209.5 160,-228.5 281,-228.5 281,-209.5 160,-209.5"/>
<text text-anchor="middle" x="220.5" y="-216.5" font-family="Helvetica,sans-Serif" font-size="10.00">CoolTime::getTimeDate</text>
</a>
</g>
</g>
<!-- Node162&#45;&gt;Node165 -->
<g id="edge3" class="edge"><title>Node162&#45;&gt;Node165</title>
<path fill="none" stroke="midnightblue" d="M102.118,-190.589C122.836,-195.604 148.388,-201.788 170.356,-207.105"/>
<polygon fill="midnightblue" stroke="midnightblue" points="169.624,-210.529 180.167,-209.48 171.271,-203.726 169.624,-210.529"/>
</g>
<!-- Node167 -->
<g id="node6" class="node"><title>Node167</title>
<g id="a_node6"><a xlink:href="$classExternalSensors.html#a53177b81eca3be89508b5511ddcd00fc" xlink:title="ExternalSensors::read">
<polygon fill="white" stroke="black" points="164,-171.5 164,-190.5 277,-190.5 277,-171.5 164,-171.5"/>
<text text-anchor="middle" x="220.5" y="-178.5" font-family="Helvetica,sans-Serif" font-size="10.00">ExternalSensors::read</text>
</a>
</g>
</g>
<!-- Node162&#45;&gt;Node167 -->
<g id="edge5" class="edge"><title>Node162&#45;&gt;Node167</title>
<path fill="none" stroke="midnightblue" d="M123.2,-181C133.231,-181 143.672,-181 153.818,-181"/>
<polygon fill="midnightblue" stroke="midnightblue" points="153.841,-184.5 163.841,-181 153.841,-177.5 153.841,-184.5"/>
</g>
<!-- Node168 -->
<g id="node7" class="node"><title>Node168</title>
<g id="a_node7"><a xlink:href="$classCoolBoardSensors.html#a91badb2539d91fda8679f2a597874c48" xlink:title="CoolBoardSensors::read">
<polygon fill="white" stroke="black" points="159,-133.5 159,-152.5 282,-152.5 282,-133.5 159,-133.5"/>
<text text-anchor="middle" x="220.5" y="-140.5" font-family="Helvetica,sans-Serif" font-size="10.00">CoolBoardSensors::read</text>
</a>
</g>
</g>
<!-- Node162&#45;&gt;Node168 -->
<g id="edge6" class="edge"><title>Node162&#45;&gt;Node168</title>
<path fill="none" stroke="midnightblue" d="M102.118,-171.411C122.836,-166.396 148.388,-160.212 170.356,-154.895"/>
<polygon fill="midnightblue" stroke="midnightblue" points="171.271,-158.274 180.167,-152.52 169.624,-151.471 171.271,-158.274"/>
</g>
<!-- Node172 -->
<g id="node11" class="node"><title>Node172</title>
<g id="a_node11"><a xlink:href="$classIrene3000.html#a852a170feea994ea1df01c6b245b5d9a" xlink:title="Irene3000::read">
<polygon fill="white" stroke="black" points="178.5,-76.5 178.5,-95.5 262.5,-95.5 262.5,-76.5 178.5,-76.5"/>
<text text-anchor="middle" x="220.5" y="-83.5" font-family="Helvetica,sans-Serif" font-size="10.00">Irene3000::read</text>
</a>
</g>
</g>
<!-- Node162&#45;&gt;Node172 -->
<g id="edge10" class="edge"><title>Node162&#45;&gt;Node172</title>
<path fill="none" stroke="midnightblue" d="M78.418,-171.368C105.806,-154.796 162.034,-120.772 194.629,-101.049"/>
<polygon fill="midnightblue" stroke="midnightblue" points="196.796,-103.829 203.54,-95.6574 193.172,-97.8399 196.796,-103.829"/>
</g>
<!-- Node177 -->
<g id="node16" class="node"><title>Node177</title>
<g id="a_node16"><a xlink:href="$classCoolBoardLed.html#ad5f0de4c628cbfbf49896042831c64ad" xlink:title="CoolBoardLed::strobe">
<polygon fill="white" stroke="black" points="165,-38.5 165,-57.5 276,-57.5 276,-38.5 165,-38.5"/>
<text text-anchor="middle" x="220.5" y="-45.5" font-family="Helvetica,sans-Serif" font-size="10.00">CoolBoardLed::strobe</text>
</a>
</g>
</g>
<!-- Node162&#45;&gt;Node177 -->
<g id="edge17" class="edge"><title>Node162&#45;&gt;Node177</title>
<path fill="none" stroke="midnightblue" d="M67.9369,-171.468C80.8556,-149.669 115.585,-95.8381 159,-67 162.069,-64.9613 165.37,-63.1309 168.789,-61.4892"/>
<polygon fill="midnightblue" stroke="midnightblue" points="170.197,-64.694 178.04,-57.5707 167.467,-58.2484 170.197,-64.694"/>
</g>
<!-- Node166 -->
<g id="node5" class="node"><title>Node166</title>
<g id="a_node5"><a xlink:href="$classCoolTime.html#acd537cd4210d7bde4e1f5c47d2ac0456" xlink:title="CoolTime::formatDigits">
<polygon fill="white" stroke="black" points="339.5,-228.5 339.5,-247.5 457.5,-247.5 457.5,-228.5 339.5,-228.5"/>
<text text-anchor="middle" x="398.5" y="-235.5" font-family="Helvetica,sans-Serif" font-size="10.00">CoolTime::formatDigits</text>
</a>
</g>
</g>
<!-- Node165&#45;&gt;Node166 -->
<g id="edge4" class="edge"><title>Node165&#45;&gt;Node166</title>
<path fill="none" stroke="midnightblue" d="M281.086,-225.433C296.547,-227.102 313.319,-228.912 329.19,-230.626"/>
<polygon fill="midnightblue" stroke="midnightblue" points="329.149,-234.141 339.467,-231.735 329.901,-227.182 329.149,-234.141"/>
</g>
<!-- Node169 -->
<g id="node8" class="node"><title>Node169</title>
<g id="a_node8"><a xlink:href="$classCoolBoardSensors.html#acad6a8418c66d36868caca23c844ecb6" xlink:title="CoolBoardSensors::initReadI2C">
<polygon fill="white" stroke="black" points="320.5,-190.5 320.5,-209.5 476.5,-209.5 476.5,-190.5 320.5,-190.5"/>
<text text-anchor="middle" x="398.5" y="-197.5" font-family="Helvetica,sans-Serif" font-size="10.00">CoolBoardSensors::initReadI2C</text>
</a>
</g>
</g>
<!-- Node168&#45;&gt;Node169 -->
<g id="edge7" class="edge"><title>Node168&#45;&gt;Node169</title>
<path fill="none" stroke="midnightblue" d="M255.806,-152.587C264.466,-155.329 273.667,-158.526 282,-162 298.699,-168.961 301.069,-174.625 318,-181 324.756,-183.544 331.967,-185.827 339.185,-187.853"/>
<polygon fill="midnightblue" stroke="midnightblue" points="338.426,-191.273 348.99,-190.456 340.222,-184.507 338.426,-191.273"/>
</g>
<!-- Node170 -->
<g id="node9" class="node"><title>Node170</title>
<g id="a_node9"><a xlink:href="$classCoolBoardSensors.html#a6944b6ea7bce8e2fce1b434acfd9d5f3" xlink:title="CoolBoardSensors::readVBat">
<polygon fill="white" stroke="black" points="326,-152.5 326,-171.5 471,-171.5 471,-152.5 326,-152.5"/>
<text text-anchor="middle" x="398.5" y="-159.5" font-family="Helvetica,sans-Serif" font-size="10.00">CoolBoardSensors::readVBat</text>
</a>
</g>
</g>
<!-- Node168&#45;&gt;Node170 -->
<g id="edge8" class="edge"><title>Node168&#45;&gt;Node170</title>
<path fill="none" stroke="midnightblue" d="M282.069,-149.539C292.99,-150.718 304.537,-151.964 315.939,-153.195"/>
<polygon fill="midnightblue" stroke="midnightblue" points="315.584,-156.677 325.902,-154.271 316.336,-149.718 315.584,-156.677"/>
</g>
<!-- Node171 -->
<g id="node10" class="node"><title>Node171</title>
<g id="a_node10"><a xlink:href="$classCoolBoardSensors.html#a8761bff50373c485f4465c8db47d0633" xlink:title="CoolBoardSensors::readMoisture">
<polygon fill="white" stroke="black" points="318,-114.5 318,-133.5 479,-133.5 479,-114.5 318,-114.5"/>
<text text-anchor="middle" x="398.5" y="-121.5" font-family="Helvetica,sans-Serif" font-size="10.00">CoolBoardSensors::readMoisture</text>
</a>
</g>
</g>
<!-- Node168&#45;&gt;Node171 -->
<g id="edge9" class="edge"><title>Node168&#45;&gt;Node171</title>
<path fill="none" stroke="midnightblue" d="M282.069,-136.461C290.36,-135.566 299.011,-134.632 307.686,-133.696"/>
<polygon fill="midnightblue" stroke="midnightblue" points="308.293,-137.151 317.86,-132.598 307.542,-130.191 308.293,-137.151"/>
</g>
<!-- Node173 -->
<g id="node12" class="node"><title>Node173</title>
<g id="a_node12"><a xlink:href="$classIrene3000.html#a94ad40f281d83ad1be20bf1edd6fe802" xlink:title="Irene3000::readTemp">
<polygon fill="white" stroke="black" points="344,-76.5 344,-95.5 453,-95.5 453,-76.5 344,-76.5"/>
<text text-anchor="middle" x="398.5" y="-83.5" font-family="Helvetica,sans-Serif" font-size="10.00">Irene3000::readTemp</text>
</a>
</g>
</g>
<!-- Node172&#45;&gt;Node173 -->
<g id="edge11" class="edge"><title>Node172&#45;&gt;Node173</title>
<path fill="none" stroke="midnightblue" d="M262.764,-86C283.828,-86 309.925,-86 333.526,-86"/>
<polygon fill="midnightblue" stroke="midnightblue" points="333.815,-89.5001 343.815,-86 333.815,-82.5001 333.815,-89.5001"/>
</g>
<!-- Node175 -->
<g id="node14" class="node"><title>Node175</title>
<g id="a_node14"><a xlink:href="$classIrene3000.html#abf3db725fabb0634ec889b32068a5eec" xlink:title="Irene3000::readPh">
<polygon fill="white" stroke="black" points="350.5,-38.5 350.5,-57.5 446.5,-57.5 446.5,-38.5 350.5,-38.5"/>
<text text-anchor="middle" x="398.5" y="-45.5" font-family="Helvetica,sans-Serif" font-size="10.00">Irene3000::readPh</text>
</a>
</g>
</g>
<!-- Node172&#45;&gt;Node175 -->
<g id="edge13" class="edge"><title>Node172&#45;&gt;Node175</title>
<path fill="none" stroke="midnightblue" d="M262.764,-77.0907C286.803,-71.9006 317.396,-65.2953 343.352,-59.691"/>
<polygon fill="midnightblue" stroke="midnightblue" points="344.382,-63.0495 353.418,-57.5178 342.904,-56.2071 344.382,-63.0495"/>
</g>
<!-- Node176 -->
<g id="node15" class="node"><title>Node176</title>
<g id="a_node15"><a xlink:href="$classIrene3000.html#ae73bd2ed14a199a7e83f4d6458476a7c" xlink:title="Irene3000::readADSChannel2">
<polygon fill="white" stroke="black" points="325.5,-0.5 325.5,-19.5 471.5,-19.5 471.5,-0.5 325.5,-0.5"/>
<text text-anchor="middle" x="398.5" y="-7.5" font-family="Helvetica,sans-Serif" font-size="10.00">Irene3000::readADSChannel2</text>
</a>
</g>
</g>
<!-- Node172&#45;&gt;Node176 -->
<g id="edge15" class="edge"><title>Node172&#45;&gt;Node176</title>
<path fill="none" stroke="midnightblue" d="M261.826,-76.4989C268.831,-73.977 275.837,-70.8495 282,-67 301.731,-54.6746 297.851,-40.6304 318,-29 321.908,-26.7442 326.072,-24.7557 330.367,-23.0029"/>
<polygon fill="midnightblue" stroke="midnightblue" points="331.728,-26.2324 339.933,-19.5297 329.339,-19.6526 331.728,-26.2324"/>
</g>
<!-- Node174 -->
<g id="node13" class="node"><title>Node174</title>
<g id="a_node13"><a xlink:href="$classIrene3000.html#aff7c5da186b388e7272e63ff88a20c34" xlink:title="Irene3000::setGain">
<polygon fill="white" stroke="black" points="515,-38.5 515,-57.5 614,-57.5 614,-38.5 515,-38.5"/>
<text text-anchor="middle" x="564.5" y="-45.5" font-family="Helvetica,sans-Serif" font-size="10.00">Irene3000::setGain</text>
</a>
</g>
</g>
<!-- Node173&#45;&gt;Node174 -->
<g id="edge12" class="edge"><title>Node173&#45;&gt;Node174</title>
<path fill="none" stroke="midnightblue" d="M440.884,-76.411C462.623,-71.3739 489.457,-65.1562 512.475,-59.8229"/>
<polygon fill="midnightblue" stroke="midnightblue" points="513.462,-63.1871 522.413,-57.5201 511.881,-56.3677 513.462,-63.1871"/>
</g>
<!-- Node175&#45;&gt;Node174 -->
<g id="edge14" class="edge"><title>Node175&#45;&gt;Node174</title>
<path fill="none" stroke="midnightblue" d="M446.936,-48C464.978,-48 485.753,-48 504.722,-48"/>
<polygon fill="midnightblue" stroke="midnightblue" points="504.747,-51.5001 514.747,-48 504.747,-44.5001 504.747,-51.5001"/>
</g>
<!-- Node176&#45;&gt;Node174 -->
<g id="edge16" class="edge"><title>Node176&#45;&gt;Node174</title>
<path fill="none" stroke="midnightblue" d="M440.884,-19.589C462.623,-24.6261 489.457,-30.8438 512.475,-36.1771"/>
<polygon fill="midnightblue" stroke="midnightblue" points="511.881,-39.6323 522.413,-38.4799 513.462,-32.8129 511.881,-39.6323"/>
</g>
</g>
</svg>
