<?xml version="1.0" encoding="UTF-8" standalone="no"?>
<!DOCTYPE svg PUBLIC "-//W3C//DTD SVG 1.1//EN"
 "http://www.w3.org/Graphics/SVG/1.1/DTD/svg11.dtd">
<!-- Generated by graphviz version 2.38.0 (20140413.2041)
 -->
<!-- Title: CoolMQTT::mqttLoop Pages: 1 -->
<svg width="410pt" height="47pt"
 viewBox="0.00 0.00 410.00 47.00" xmlns="http://www.w3.org/2000/svg" xmlns:xlink="http://www.w3.org/1999/xlink">
<g id="graph0" class="graph" transform="scale(1 1) rotate(0) translate(4 43)">
<title>CoolMQTT::mqttLoop</title>
<polygon fill="white" stroke="none" points="-4,4 -4,-43 406,-43 406,4 -4,4"/>
<!-- Node28 -->
<g id="node1" class="node"><title>Node28</title>
<polygon fill="#bfbfbf" stroke="black" points="0,-19.5 0,-38.5 111,-38.5 111,-19.5 0,-19.5"/>
<text text-anchor="middle" x="55.5" y="-26.5" font-family="Helvetica,sans-Serif" font-size="10.00">CoolMQTT::mqttLoop</text>
</g>
<!-- Node29 -->
<g id="node2" class="node"><title>Node29</title>
<g id="a_node2"><a xlink:href="$class_cool_board.html#aa0bbc4bc605e35618d18e68795c61363" xlink:title="CoolBoard::onLineMode">
<polygon fill="white" stroke="black" points="281,-19.5 281,-38.5 402,-38.5 402,-19.5 281,-19.5"/>
<text text-anchor="middle" x="341.5" y="-26.5" font-family="Helvetica,sans-Serif" font-size="10.00">CoolBoard::onLineMode</text>
</a>
</g>
</g>
<!-- Node28&#45;&gt;Node29 -->
<g id="edge1" class="edge"><title>Node28&#45;&gt;Node29</title>
<path fill="none" stroke="midnightblue" d="M121.505,-29C169.345,-29 233.896,-29 280.51,-29"/>
<polygon fill="midnightblue" stroke="midnightblue" points="121.258,-25.5001 111.258,-29 121.258,-32.5001 121.258,-25.5001"/>
</g>
<!-- Node30 -->
<g id="node3" class="node"><title>Node30</title>
<g id="a_node3"><a xlink:href="$class_cool_board.html#a8612756d3f73198cdde857a66f0fe690" xlink:title="CoolBoard::update">
<polygon fill="white" stroke="black" points="147,-0.5 147,-19.5 245,-19.5 245,-0.5 147,-0.5"/>
<text text-anchor="middle" x="196" y="-7.5" font-family="Helvetica,sans-Serif" font-size="10.00">CoolBoard::update</text>
</a>
</g>
</g>
<!-- Node28&#45;&gt;Node30 -->
<g id="edge2" class="edge"><title>Node28&#45;&gt;Node30</title>
<path fill="none" stroke="midnightblue" d="M121.298,-20.1107C129.932,-18.9264 138.657,-17.7293 146.936,-16.5936"/>
<polygon fill="midnightblue" stroke="midnightblue" points="120.67,-16.664 111.239,-21.4907 121.622,-23.599 120.67,-16.664"/>
</g>
<!-- Node30&#45;&gt;Node29 -->
<g id="edge3" class="edge"><title>Node30&#45;&gt;Node29</title>
<path fill="none" stroke="midnightblue" d="M255.332,-17.7234C263.785,-18.8426 272.496,-19.9959 280.972,-21.1182"/>
<polygon fill="midnightblue" stroke="midnightblue" points="255.556,-14.2225 245.183,-16.3796 254.637,-21.162 255.556,-14.2225"/>
</g>
</g>
</svg>
