<?xml version="1.0" encoding="UTF-8" standalone="no"?>
<!DOCTYPE svg PUBLIC "-//W3C//DTD SVG 1.1//EN"
 "http://www.w3.org/Graphics/SVG/1.1/DTD/svg11.dtd">
<!-- Generated by graphviz version 2.38.0 (20140413.2041)
 -->
<!-- Title: /home/ashiroji/Arduino/libraries/CoolBoard/CoolBoardLed.h Pages: 1 -->
<svg width="342pt" height="184pt"
 viewBox="0.00 0.00 341.50 184.00" xmlns="http://www.w3.org/2000/svg" xmlns:xlink="http://www.w3.org/1999/xlink">
<g id="graph0" class="graph" transform="scale(1 1) rotate(0) translate(4 180)">
<title>/home/ashiroji/Arduino/libraries/CoolBoard/CoolBoardLed.h</title>
<polygon fill="white" stroke="none" points="-4,4 -4,-180 337.5,-180 337.5,4 -4,4"/>
<!-- Node3 -->
<g id="node1" class="node"><title>Node3</title>
<polygon fill="#bfbfbf" stroke="black" points="83.5,-145.5 83.5,-175.5 258.5,-175.5 258.5,-145.5 83.5,-145.5"/>
<text text-anchor="start" x="91.5" y="-163.5" font-family="Helvetica,sans-Serif" font-size="10.00">/home/ashiroji/Arduino</text>
<text text-anchor="middle" x="171" y="-152.5" font-family="Helvetica,sans-Serif" font-size="10.00">/libraries/CoolBoard/CoolBoardLed.h</text>
</g>
<!-- Node4 -->
<g id="node2" class="node"><title>Node4</title>
<g id="a_node2"><a xlink:href="$CoolBoard_8h.html" xlink:title="CoolBoard Header file. ">
<polygon fill="white" stroke="black" points="5.5,-73 5.5,-103 164.5,-103 164.5,-73 5.5,-73"/>
<text text-anchor="start" x="13.5" y="-91" font-family="Helvetica,sans-Serif" font-size="10.00">/home/ashiroji/Arduino</text>
<text text-anchor="middle" x="85" y="-80" font-family="Helvetica,sans-Serif" font-size="10.00">/libraries/CoolBoard/CoolBoard.h</text>
</a>
</g>
</g>
<!-- Node3&#45;&gt;Node4 -->
<g id="edge1" class="edge"><title>Node3&#45;&gt;Node4</title>
<path fill="none" stroke="midnightblue" d="M145.734,-138.788C131.679,-127.266 114.56,-113.233 102.084,-103.005"/>
<polygon fill="midnightblue" stroke="midnightblue" points="143.644,-141.6 153.597,-145.233 148.082,-136.187 143.644,-141.6"/>
</g>
<!-- Node6 -->
<g id="node4" class="node"><title>Node6</title>
<g id="a_node4"><a xlink:href="$CoolBoardLed_8cpp.html" xlink:title="CoolBoardLed Source File. ">
<polygon fill="white" stroke="black" points="182.5,-67.5 182.5,-108.5 333.5,-108.5 333.5,-67.5 182.5,-67.5"/>
<text text-anchor="start" x="190.5" y="-96.5" font-family="Helvetica,sans-Serif" font-size="10.00">/home/ashiroji/Arduino</text>
<text text-anchor="start" x="190.5" y="-85.5" font-family="Helvetica,sans-Serif" font-size="10.00">/libraries/CoolBoard/CoolBoard</text>
<text text-anchor="middle" x="258" y="-74.5" font-family="Helvetica,sans-Serif" font-size="10.00">Led.cpp</text>
</a>
</g>
</g>
<!-- Node3&#45;&gt;Node6 -->
<g id="edge3" class="edge"><title>Node3&#45;&gt;Node6</title>
<path fill="none" stroke="midnightblue" d="M196.38,-138.933C208.191,-129.363 222.171,-118.034 233.827,-108.588"/>
<polygon fill="midnightblue" stroke="midnightblue" points="194.172,-136.218 188.606,-145.233 198.579,-141.657 194.172,-136.218"/>
</g>
<!-- Node5 -->
<g id="node3" class="node"><title>Node5</title>
<g id="a_node3"><a xlink:href="$CoolBoard_8cpp.html" xlink:title="CoolBoard Source file. ">
<polygon fill="white" stroke="black" points="0,-0.5 0,-30.5 170,-30.5 170,-0.5 0,-0.5"/>
<text text-anchor="start" x="8" y="-18.5" font-family="Helvetica,sans-Serif" font-size="10.00">/home/ashiroji/Arduino</text>
<text text-anchor="middle" x="85" y="-7.5" font-family="Helvetica,sans-Serif" font-size="10.00">/libraries/CoolBoard/CoolBoard.cpp</text>
</a>
</g>
</g>
<!-- Node4&#45;&gt;Node5 -->
<g id="edge2" class="edge"><title>Node4&#45;&gt;Node5</title>
<path fill="none" stroke="midnightblue" d="M85,-62.7317C85,-52.0679 85,-39.9145 85,-30.7455"/>
<polygon fill="midnightblue" stroke="midnightblue" points="81.5001,-62.7332 85,-72.7333 88.5001,-62.7333 81.5001,-62.7332"/>
</g>
</g>
</svg>
