<?xml version="1.0" encoding="UTF-8" standalone="no"?>
<!DOCTYPE svg PUBLIC "-//W3C//DTD SVG 1.1//EN"
 "http://www.w3.org/Graphics/SVG/1.1/DTD/svg11.dtd">
<!-- Generated by graphviz version 2.38.0 (20140413.2041)
 -->
<!-- Title: /home/ashiroji/Arduino/libraries/CoolBoard/CoolTime.h Pages: 1 -->
<svg width="324pt" height="95pt"
 viewBox="0.00 0.00 323.50 95.00" xmlns="http://www.w3.org/2000/svg" xmlns:xlink="http://www.w3.org/1999/xlink">
<g id="graph0" class="graph" transform="scale(1 1) rotate(0) translate(4 91)">
<title>/home/ashiroji/Arduino/libraries/CoolBoard/CoolTime.h</title>
<polygon fill="white" stroke="none" points="-4,4 -4,-91 319.5,-91 319.5,4 -4,4"/>
<!-- Node0 -->
<g id="node1" class="node"><title>Node0</title>
<polygon fill="#bfbfbf" stroke="black" points="67.5,-56.5 67.5,-86.5 222.5,-86.5 222.5,-56.5 67.5,-56.5"/>
<text text-anchor="start" x="75.5" y="-74.5" font-family="Helvetica,sans-Serif" font-size="10.00">/home/ashiroji/Arduino</text>
<text text-anchor="middle" x="145" y="-63.5" font-family="Helvetica,sans-Serif" font-size="10.00">/libraries/CoolBoard/CoolTime.h</text>
</g>
<!-- Node1 -->
<g id="node2" class="node"><title>Node1</title>
<polygon fill="white" stroke="#bfbfbf" points="0,-0.5 0,-19.5 58,-19.5 58,-0.5 0,-0.5"/>
<text text-anchor="middle" x="29" y="-7.5" font-family="Helvetica,sans-Serif" font-size="10.00">Arduino.h</text>
</g>
<!-- Node0&#45;&gt;Node1 -->
<g id="edge1" class="edge"><title>Node0&#45;&gt;Node1</title>
<path fill="none" stroke="midnightblue" d="M117.51,-56.3993C98.5681,-46.6837 73.5577,-33.8551 54.9562,-24.3137"/>
<polygon fill="midnightblue" stroke="midnightblue" points="56.3742,-21.1076 45.879,-19.6578 53.1794,-27.336 56.3742,-21.1076"/>
</g>
<!-- Node2 -->
<g id="node3" class="node"><title>Node2</title>
<polygon fill="white" stroke="#bfbfbf" points="76.5,-0.5 76.5,-19.5 135.5,-19.5 135.5,-0.5 76.5,-0.5"/>
<text text-anchor="middle" x="106" y="-7.5" font-family="Helvetica,sans-Serif" font-size="10.00">TimeLib.h</text>
</g>
<!-- Node0&#45;&gt;Node2 -->
<g id="edge2" class="edge"><title>Node0&#45;&gt;Node2</title>
<path fill="none" stroke="midnightblue" d="M135.758,-56.3993C130.207,-47.9315 123.107,-37.0991 117.234,-28.1393"/>
<polygon fill="midnightblue" stroke="midnightblue" points="120.084,-26.1026 111.675,-19.6578 114.23,-29.94 120.084,-26.1026"/>
</g>
<!-- Node3 -->
<g id="node4" class="node"><title>Node3</title>
<polygon fill="white" stroke="#bfbfbf" points="153.5,-0.5 153.5,-19.5 216.5,-19.5 216.5,-0.5 153.5,-0.5"/>
<text text-anchor="middle" x="185" y="-7.5" font-family="Helvetica,sans-Serif" font-size="10.00">WiFiUdp.h</text>
</g>
<!-- Node0&#45;&gt;Node3 -->
<g id="edge3" class="edge"><title>Node0&#45;&gt;Node3</title>
<path fill="none" stroke="midnightblue" d="M154.479,-56.3993C160.172,-47.9315 167.454,-37.0991 173.478,-28.1393"/>
<polygon fill="midnightblue" stroke="midnightblue" points="176.505,-29.9095 179.18,-19.6578 170.696,-26.0041 176.505,-29.9095"/>
</g>
<!-- Node4 -->
<g id="node5" class="node"><title>Node4</title>
<polygon fill="white" stroke="#bfbfbf" points="234.5,-0.5 234.5,-19.5 315.5,-19.5 315.5,-0.5 234.5,-0.5"/>
<text text-anchor="middle" x="275" y="-7.5" font-family="Helvetica,sans-Serif" font-size="10.00">DS1337RTC.h</text>
</g>
<!-- Node0&#45;&gt;Node4 -->
<g id="edge4" class="edge"><title>Node0&#45;&gt;Node4</title>
<path fill="none" stroke="midnightblue" d="M175.808,-56.3993C197.328,-46.55 225.837,-33.5014 246.768,-23.9217"/>
<polygon fill="midnightblue" stroke="midnightblue" points="248.448,-27.0021 256.084,-19.6578 245.534,-20.6371 248.448,-27.0021"/>
</g>
</g>
</svg>
