<?xml version="1.0" encoding="UTF-8" standalone="no"?>
<!DOCTYPE svg PUBLIC "-//W3C//DTD SVG 1.1//EN"
 "http://www.w3.org/Graphics/SVG/1.1/DTD/svg11.dtd">
<!-- Generated by graphviz version 2.38.0 (20140413.2041)
 -->
<!-- Title: /home/ashiroji/Arduino/libraries/CoolBoard/CoolMQTT.cpp Pages: 1 -->
<svg width="350pt" height="151pt"
 viewBox="0.00 0.00 349.50 151.00" xmlns="http://www.w3.org/2000/svg" xmlns:xlink="http://www.w3.org/1999/xlink">
<g id="graph0" class="graph" transform="scale(1 1) rotate(0) translate(4 147)">
<title>/home/ashiroji/Arduino/libraries/CoolBoard/CoolMQTT.cpp</title>
<polygon fill="white" stroke="none" points="-4,4 -4,-147 345.5,-147 345.5,4 -4,4"/>
<!-- Node0 -->
<g id="node1" class="node"><title>Node0</title>
<polygon fill="#bfbfbf" stroke="black" points="77,-112.5 77,-142.5 249,-142.5 249,-112.5 77,-112.5"/>
<text text-anchor="start" x="85" y="-130.5" font-family="Helvetica,sans-Serif" font-size="10.00">/home/ashiroji/Arduino</text>
<text text-anchor="middle" x="163" y="-119.5" font-family="Helvetica,sans-Serif" font-size="10.00">/libraries/CoolBoard/CoolMQTT.cpp</text>
</g>
<!-- Node1 -->
<g id="node2" class="node"><title>Node1</title>
<polygon fill="white" stroke="#bfbfbf" points="0,-56.5 0,-75.5 38,-75.5 38,-56.5 0,-56.5"/>
<text text-anchor="middle" x="19" y="-63.5" font-family="Helvetica,sans-Serif" font-size="10.00">FS.h</text>
</g>
<!-- Node0&#45;&gt;Node1 -->
<g id="edge1" class="edge"><title>Node0&#45;&gt;Node1</title>
<path fill="none" stroke="midnightblue" d="M128.874,-112.399C104.131,-102.176 71.046,-88.5051 47.6671,-78.8451"/>
<polygon fill="midnightblue" stroke="midnightblue" points="48.8731,-75.5564 38.2944,-74.9723 46.1999,-82.0259 48.8731,-75.5564"/>
</g>
<!-- Node2 -->
<g id="node3" class="node"><title>Node2</title>
<polygon fill="white" stroke="#bfbfbf" points="25,-0.5 25,-19.5 83,-19.5 83,-0.5 25,-0.5"/>
<text text-anchor="middle" x="54" y="-7.5" font-family="Helvetica,sans-Serif" font-size="10.00">Arduino.h</text>
</g>
<!-- Node0&#45;&gt;Node2 -->
<g id="edge2" class="edge"><title>Node0&#45;&gt;Node2</title>
<path fill="none" stroke="midnightblue" d="M133.462,-112.474C117.517,-103.745 98.4124,-91.2732 85,-76 73.0353,-62.3754 64.6777,-43.3262 59.6803,-29.3717"/>
<polygon fill="midnightblue" stroke="midnightblue" points="62.9945,-28.2462 56.5096,-19.8679 56.3543,-30.4616 62.9945,-28.2462"/>
</g>
<!-- Node3 -->
<g id="node4" class="node"><title>Node3</title>
<polygon fill="white" stroke="#bfbfbf" points="101,-0.5 101,-19.5 187,-19.5 187,-0.5 101,-0.5"/>
<text text-anchor="middle" x="144" y="-7.5" font-family="Helvetica,sans-Serif" font-size="10.00">ESP8266WiFi.h</text>
</g>
<!-- Node0&#45;&gt;Node3 -->
<g id="edge3" class="edge"><title>Node0&#45;&gt;Node3</title>
<path fill="none" stroke="midnightblue" d="M169.56,-112.466C175.382,-98.0516 182.095,-75.0885 176,-56 172.659,-45.538 165.9,-35.4277 159.451,-27.4496"/>
<polygon fill="midnightblue" stroke="midnightblue" points="161.944,-24.9815 152.751,-19.7136 156.652,-29.5641 161.944,-24.9815"/>
</g>
<!-- Node4 -->
<g id="node5" class="node"><title>Node4</title>
<polygon fill="white" stroke="#bfbfbf" points="205.5,-0.5 205.5,-19.5 290.5,-19.5 290.5,-0.5 205.5,-0.5"/>
<text text-anchor="middle" x="248" y="-7.5" font-family="Helvetica,sans-Serif" font-size="10.00">PubSubClient.h</text>
</g>
<!-- Node0&#45;&gt;Node4 -->
<g id="edge4" class="edge"><title>Node0&#45;&gt;Node4</title>
<path fill="none" stroke="midnightblue" d="M173.423,-112.337C189.155,-90.9596 218.909,-50.53 235.687,-27.7309"/>
<polygon fill="midnightblue" stroke="midnightblue" points="238.512,-29.7981 241.62,-19.6695 232.874,-25.649 238.512,-29.7981"/>
</g>
<!-- Node5 -->
<g id="node6" class="node"><title>Node5</title>
<g id="a_node6"><a xlink:href="$CoolMQTT_8h.html" xlink:title="CoolMQTT Header File. ">
<polygon fill="white" stroke="black" points="94.5,-56.5 94.5,-75.5 167.5,-75.5 167.5,-56.5 94.5,-56.5"/>
<text text-anchor="middle" x="131" y="-63.5" font-family="Helvetica,sans-Serif" font-size="10.00">CoolMQTT.h</text>
</a>
</g>
</g>
<!-- Node0&#45;&gt;Node5 -->
<g id="edge5" class="edge"><title>Node0&#45;&gt;Node5</title>
<path fill="none" stroke="midnightblue" d="M155.416,-112.399C150.958,-104.11 145.281,-93.5542 140.523,-84.7077"/>
<polygon fill="midnightblue" stroke="midnightblue" points="143.475,-82.8071 135.656,-75.6578 137.31,-86.1227 143.475,-82.8071"/>
</g>
<!-- Node6 -->
<g id="node7" class="node"><title>Node6</title>
<polygon fill="white" stroke="#bfbfbf" points="262.5,-56.5 262.5,-75.5 341.5,-75.5 341.5,-56.5 262.5,-56.5"/>
<text text-anchor="middle" x="302" y="-63.5" font-family="Helvetica,sans-Serif" font-size="10.00">ArduinoJson.h</text>
</g>
<!-- Node0&#45;&gt;Node6 -->
<g id="edge9" class="edge"><title>Node0&#45;&gt;Node6</title>
<path fill="none" stroke="midnightblue" d="M195.941,-112.399C219.159,-102.461 249.986,-89.2649 272.419,-79.6625"/>
<polygon fill="midnightblue" stroke="midnightblue" points="273.958,-82.8106 281.774,-75.6578 271.204,-76.3754 273.958,-82.8106"/>
</g>
<!-- Node5&#45;&gt;Node2 -->
<g id="edge6" class="edge"><title>Node5&#45;&gt;Node2</title>
<path fill="none" stroke="midnightblue" d="M118.629,-56.324C106.842,-48.0577 88.8677,-35.4527 74.8645,-25.6322"/>
<polygon fill="midnightblue" stroke="midnightblue" points="76.5376,-22.5307 66.3407,-19.6545 72.5184,-28.2619 76.5376,-22.5307"/>
</g>
<!-- Node5&#45;&gt;Node3 -->
<g id="edge7" class="edge"><title>Node5&#45;&gt;Node3</title>
<path fill="none" stroke="midnightblue" d="M133.147,-56.083C134.869,-48.9272 137.347,-38.6353 139.5,-29.6911"/>
<polygon fill="midnightblue" stroke="midnightblue" points="142.955,-30.2925 141.893,-19.7511 136.15,-28.6541 142.955,-30.2925"/>
</g>
<!-- Node5&#45;&gt;Node4 -->
<g id="edge8" class="edge"><title>Node5&#45;&gt;Node4</title>
<path fill="none" stroke="midnightblue" d="M149.539,-56.4435C168.623,-47.6356 198.575,-33.8116 220.436,-23.722"/>
<polygon fill="midnightblue" stroke="midnightblue" points="221.935,-26.8849 229.548,-19.5164 219.001,-20.5292 221.935,-26.8849"/>
</g>
</g>
</svg>
