<?xml version="1.0" encoding="UTF-8" standalone="no"?>
<!DOCTYPE svg PUBLIC "-//W3C//DTD SVG 1.1//EN"
 "http://www.w3.org/Graphics/SVG/1.1/DTD/svg11.dtd">
<!-- Generated by graphviz version 2.38.0 (20140413.2041)
 -->
<!-- Title: /home/ashiroji/Arduino/libraries/CoolBoard/CoolBoardLed.h Pages: 1 -->
<svg width="183pt" height="95pt"
 viewBox="0.00 0.00 183.00 95.00" xmlns="http://www.w3.org/2000/svg" xmlns:xlink="http://www.w3.org/1999/xlink">
<g id="graph0" class="graph" transform="scale(1 1) rotate(0) translate(4 91)">
<title>/home/ashiroji/Arduino/libraries/CoolBoard/CoolBoardLed.h</title>
<polygon fill="white" stroke="none" points="-4,4 -4,-91 179,-91 179,4 -4,4"/>
<!-- Node0 -->
<g id="node1" class="node"><title>Node0</title>
<polygon fill="#bfbfbf" stroke="black" points="0,-56.5 0,-86.5 175,-86.5 175,-56.5 0,-56.5"/>
<text text-anchor="start" x="8" y="-74.5" font-family="Helvetica,sans-Serif" font-size="10.00">/home/ashiroji/Arduino</text>
<text text-anchor="middle" x="87.5" y="-63.5" font-family="Helvetica,sans-Serif" font-size="10.00">/libraries/CoolBoard/CoolBoardLed.h</text>
</g>
<!-- Node1 -->
<g id="node2" class="node"><title>Node1</title>
<polygon fill="white" stroke="#bfbfbf" points="14.5,-0.5 14.5,-19.5 72.5,-19.5 72.5,-0.5 14.5,-0.5"/>
<text text-anchor="middle" x="43.5" y="-7.5" font-family="Helvetica,sans-Serif" font-size="10.00">Arduino.h</text>
</g>
<!-- Node0&#45;&gt;Node1 -->
<g id="edge1" class="edge"><title>Node0&#45;&gt;Node1</title>
<path fill="none" stroke="midnightblue" d="M77.0726,-56.3993C70.7448,-47.8424 62.6314,-36.8708 55.9657,-27.857"/>
<polygon fill="midnightblue" stroke="midnightblue" points="58.6624,-25.6171 49.9024,-19.6578 53.0341,-29.7792 58.6624,-25.6171"/>
</g>
<!-- Node2 -->
<g id="node3" class="node"><title>Node2</title>
<polygon fill="white" stroke="#bfbfbf" points="90.5,-0.5 90.5,-19.5 172.5,-19.5 172.5,-0.5 90.5,-0.5"/>
<text text-anchor="middle" x="131.5" y="-7.5" font-family="Helvetica,sans-Serif" font-size="10.00">NeoPixelBus.h</text>
</g>
<!-- Node0&#45;&gt;Node2 -->
<g id="edge2" class="edge"><title>Node0&#45;&gt;Node2</title>
<path fill="none" stroke="midnightblue" d="M97.9274,-56.3993C104.255,-47.8424 112.369,-36.8708 119.034,-27.857"/>
<polygon fill="midnightblue" stroke="midnightblue" points="121.966,-29.7792 125.098,-19.6578 116.338,-25.6171 121.966,-29.7792"/>
</g>
</g>
</svg>
