<?xml version="1.0" encoding="UTF-8" standalone="no"?>
<!DOCTYPE svg PUBLIC "-//W3C//DTD SVG 1.1//EN"
 "http://www.w3.org/Graphics/SVG/1.1/DTD/svg11.dtd">
<!-- Generated by graphviz version 2.38.0 (20140413.2041)
 -->
<!-- Title: /home/ashiroji/Arduino/libraries/CoolBoard/CoolFileSystem.cpp Pages: 1 -->
<svg width="257pt" height="162pt"
 viewBox="0.00 0.00 256.50 162.00" xmlns="http://www.w3.org/2000/svg" xmlns:xlink="http://www.w3.org/1999/xlink">
<g id="graph0" class="graph" transform="scale(1 1) rotate(0) translate(4 158)">
<title>/home/ashiroji/Arduino/libraries/CoolBoard/CoolFileSystem.cpp</title>
<polygon fill="white" stroke="none" points="-4,4 -4,-158 252.5,-158 252.5,4 -4,4"/>
<!-- Node0 -->
<g id="node1" class="node"><title>Node0</title>
<polygon fill="#bfbfbf" stroke="black" points="33.5,-112.5 33.5,-153.5 174.5,-153.5 174.5,-112.5 33.5,-112.5"/>
<text text-anchor="start" x="41.5" y="-141.5" font-family="Helvetica,sans-Serif" font-size="10.00">/home/ashiroji/Arduino</text>
<text text-anchor="start" x="41.5" y="-130.5" font-family="Helvetica,sans-Serif" font-size="10.00">/libraries/CoolBoard/CoolFile</text>
<text text-anchor="middle" x="104" y="-119.5" font-family="Helvetica,sans-Serif" font-size="10.00">System.cpp</text>
</g>
<!-- Node1 -->
<g id="node2" class="node"><title>Node1</title>
<polygon fill="white" stroke="#bfbfbf" points="0,-56.5 0,-75.5 38,-75.5 38,-56.5 0,-56.5"/>
<text text-anchor="middle" x="19" y="-63.5" font-family="Helvetica,sans-Serif" font-size="10.00">FS.h</text>
</g>
<!-- Node0&#45;&gt;Node1 -->
<g id="edge1" class="edge"><title>Node0&#45;&gt;Node1</title>
<path fill="none" stroke="midnightblue" d="M78.4972,-112.498C65.5904,-102.628 50.1796,-90.8432 38.2763,-81.7407"/>
<polygon fill="midnightblue" stroke="midnightblue" points="40.3845,-78.9468 30.3148,-75.6525 36.1323,-84.5073 40.3845,-78.9468"/>
</g>
<!-- Node2 -->
<g id="node3" class="node"><title>Node2</title>
<g id="a_node3"><a xlink:href="$CoolFileSystem_8h.html" xlink:title="CoolFileSystem Header File. ">
<polygon fill="white" stroke="black" points="56.5,-56.5 56.5,-75.5 151.5,-75.5 151.5,-56.5 56.5,-56.5"/>
<text text-anchor="middle" x="104" y="-63.5" font-family="Helvetica,sans-Serif" font-size="10.00">CoolFileSystem.h</text>
</a>
</g>
</g>
<!-- Node0&#45;&gt;Node2 -->
<g id="edge2" class="edge"><title>Node0&#45;&gt;Node2</title>
<path fill="none" stroke="midnightblue" d="M104,-112.498C104,-104.065 104,-94.2351 104,-85.874"/>
<polygon fill="midnightblue" stroke="midnightblue" points="107.5,-85.6525 104,-75.6525 100.5,-85.6525 107.5,-85.6525"/>
</g>
<!-- Node4 -->
<g id="node5" class="node"><title>Node4</title>
<polygon fill="white" stroke="#bfbfbf" points="169.5,-56.5 169.5,-75.5 248.5,-75.5 248.5,-56.5 169.5,-56.5"/>
<text text-anchor="middle" x="209" y="-63.5" font-family="Helvetica,sans-Serif" font-size="10.00">ArduinoJson.h</text>
</g>
<!-- Node0&#45;&gt;Node4 -->
<g id="edge4" class="edge"><title>Node0&#45;&gt;Node4</title>
<path fill="none" stroke="midnightblue" d="M135.503,-112.498C151.912,-102.34 171.596,-90.1551 186.462,-80.9523"/>
<polygon fill="midnightblue" stroke="midnightblue" points="188.362,-83.892 195.023,-75.6525 184.678,-77.9402 188.362,-83.892"/>
</g>
<!-- Node3 -->
<g id="node4" class="node"><title>Node3</title>
<polygon fill="white" stroke="#bfbfbf" points="75,-0.5 75,-19.5 133,-19.5 133,-0.5 75,-0.5"/>
<text text-anchor="middle" x="104" y="-7.5" font-family="Helvetica,sans-Serif" font-size="10.00">Arduino.h</text>
</g>
<!-- Node2&#45;&gt;Node3 -->
<g id="edge3" class="edge"><title>Node2&#45;&gt;Node3</title>
<path fill="none" stroke="midnightblue" d="M104,-56.083C104,-49.0059 104,-38.8611 104,-29.9865"/>
<polygon fill="midnightblue" stroke="midnightblue" points="107.5,-29.751 104,-19.7511 100.5,-29.7511 107.5,-29.751"/>
</g>
</g>
</svg>
