<?xml version="1.0" encoding="UTF-8" standalone="no"?>
<!DOCTYPE svg PUBLIC "-//W3C//DTD SVG 1.1//EN"
 "http://www.w3.org/Graphics/SVG/1.1/DTD/svg11.dtd">
<!-- Generated by graphviz version 2.38.0 (20140413.2041)
 -->
<!-- Title: /home/ashiroji/Arduino/libraries/CoolBoard/CoolWifi.h Pages: 1 -->
<svg width="689pt" height="95pt"
 viewBox="0.00 0.00 689.00 95.00" xmlns="http://www.w3.org/2000/svg" xmlns:xlink="http://www.w3.org/1999/xlink">
<g id="graph0" class="graph" transform="scale(1 1) rotate(0) translate(4 91)">
<title>/home/ashiroji/Arduino/libraries/CoolBoard/CoolWifi.h</title>
<polygon fill="white" stroke="none" points="-4,4 -4,-91 685,-91 685,4 -4,4"/>
<!-- Node0 -->
<g id="node1" class="node"><title>Node0</title>
<polygon fill="#bfbfbf" stroke="black" points="212.5,-56.5 212.5,-86.5 363.5,-86.5 363.5,-56.5 212.5,-56.5"/>
<text text-anchor="start" x="220.5" y="-74.5" font-family="Helvetica,sans-Serif" font-size="10.00">/home/ashiroji/Arduino</text>
<text text-anchor="middle" x="288" y="-63.5" font-family="Helvetica,sans-Serif" font-size="10.00">/libraries/CoolBoard/CoolWifi.h</text>
</g>
<!-- Node1 -->
<g id="node2" class="node"><title>Node1</title>
<polygon fill="white" stroke="#bfbfbf" points="0,-0.5 0,-19.5 58,-19.5 58,-0.5 0,-0.5"/>
<text text-anchor="middle" x="29" y="-7.5" font-family="Helvetica,sans-Serif" font-size="10.00">Arduino.h</text>
</g>
<!-- Node0&#45;&gt;Node1 -->
<g id="edge1" class="edge"><title>Node0&#45;&gt;Node1</title>
<path fill="none" stroke="midnightblue" d="M226.05,-56.4817C184.067,-46.9498 127.06,-33.9453 67.9329,-20.2042"/>
<polygon fill="midnightblue" stroke="midnightblue" points="68.5735,-16.7599 58.0406,-17.903 66.9874,-23.5778 68.5735,-16.7599"/>
</g>
<!-- Node2 -->
<g id="node3" class="node"><title>Node2</title>
<polygon fill="white" stroke="#bfbfbf" points="76,-0.5 76,-19.5 162,-19.5 162,-0.5 76,-0.5"/>
<text text-anchor="middle" x="119" y="-7.5" font-family="Helvetica,sans-Serif" font-size="10.00">ESP8266WiFi.h</text>
</g>
<!-- Node0&#45;&gt;Node2 -->
<g id="edge2" class="edge"><title>Node0&#45;&gt;Node2</title>
<path fill="none" stroke="midnightblue" d="M247.949,-56.3993C219.088,-46.238 180.555,-32.6716 153.147,-23.0221"/>
<polygon fill="midnightblue" stroke="midnightblue" points="154.186,-19.6774 143.591,-19.6578 151.861,-26.2801 154.186,-19.6774"/>
</g>
<!-- Node3 -->
<g id="node4" class="node"><title>Node3</title>
<polygon fill="white" stroke="#bfbfbf" points="180.5,-0.5 180.5,-19.5 287.5,-19.5 287.5,-0.5 180.5,-0.5"/>
<text text-anchor="middle" x="234" y="-7.5" font-family="Helvetica,sans-Serif" font-size="10.00">ESP8266WiFiMulti.h</text>
</g>
<!-- Node0&#45;&gt;Node3 -->
<g id="edge3" class="edge"><title>Node0&#45;&gt;Node3</title>
<path fill="none" stroke="midnightblue" d="M275.203,-56.3993C267.275,-47.6641 257.064,-36.4126 248.79,-27.2962"/>
<polygon fill="midnightblue" stroke="midnightblue" points="251.17,-24.7106 241.857,-19.6578 245.986,-29.415 251.17,-24.7106"/>
</g>
<!-- Node4 -->
<g id="node5" class="node"><title>Node4</title>
<polygon fill="white" stroke="#bfbfbf" points="305.5,-0.5 305.5,-19.5 380.5,-19.5 380.5,-0.5 305.5,-0.5"/>
<text text-anchor="middle" x="343" y="-7.5" font-family="Helvetica,sans-Serif" font-size="10.00">DNSServer.h</text>
</g>
<!-- Node0&#45;&gt;Node4 -->
<g id="edge4" class="edge"><title>Node0&#45;&gt;Node4</title>
<path fill="none" stroke="midnightblue" d="M301.034,-56.3993C309.191,-47.575 319.722,-36.1827 328.194,-27.0178"/>
<polygon fill="midnightblue" stroke="midnightblue" points="330.779,-29.3769 334.997,-19.6578 325.639,-24.6253 330.779,-29.3769"/>
</g>
<!-- Node5 -->
<g id="node6" class="node"><title>Node5</title>
<polygon fill="white" stroke="#bfbfbf" points="398.5,-0.5 398.5,-19.5 513.5,-19.5 513.5,-0.5 398.5,-0.5"/>
<text text-anchor="middle" x="456" y="-7.5" font-family="Helvetica,sans-Serif" font-size="10.00">ESP8266WebServer.h</text>
</g>
<!-- Node0&#45;&gt;Node5 -->
<g id="edge5" class="edge"><title>Node0&#45;&gt;Node5</title>
<path fill="none" stroke="midnightblue" d="M327.814,-56.3993C356.505,-46.238 394.81,-32.6716 422.055,-23.0221"/>
<polygon fill="midnightblue" stroke="midnightblue" points="423.297,-26.2955 431.555,-19.6578 420.96,-19.6971 423.297,-26.2955"/>
</g>
<!-- Node6 -->
<g id="node7" class="node"><title>Node6</title>
<polygon fill="white" stroke="#bfbfbf" points="531,-0.5 531,-19.5 681,-19.5 681,-0.5 531,-0.5"/>
<text text-anchor="middle" x="606" y="-7.5" font-family="Helvetica,sans-Serif" font-size="10.00">WiFiManagerReadFileButton.h</text>
</g>
<!-- Node0&#45;&gt;Node6 -->
<g id="edge6" class="edge"><title>Node0&#45;&gt;Node6</title>
<path fill="none" stroke="midnightblue" d="M362.959,-56.4747C420.456,-45.7166 498.528,-31.1088 550.504,-21.3837"/>
<polygon fill="midnightblue" stroke="midnightblue" points="551.352,-24.7859 560.537,-19.5064 550.064,-17.9053 551.352,-24.7859"/>
</g>
</g>
</svg>
