<?xml version="1.0" encoding="UTF-8" standalone="no"?>
<!DOCTYPE svg PUBLIC "-//W3C//DTD SVG 1.1//EN"
 "http://www.w3.org/Graphics/SVG/1.1/DTD/svg11.dtd">
<!-- Generated by graphviz version 2.38.0 (20140413.2041)
 -->
<!-- Title: /home/ashiroji/Arduino/libraries/CoolBoard/CoolBoard.h Pages: 1 -->
<svg width="2014pt" height="207pt"
 viewBox="0.00 0.00 2013.50 207.00" xmlns="http://www.w3.org/2000/svg" xmlns:xlink="http://www.w3.org/1999/xlink">
<g id="graph0" class="graph" transform="scale(1 1) rotate(0) translate(4 203)">
<title>/home/ashiroji/Arduino/libraries/CoolBoard/CoolBoard.h</title>
<polygon fill="white" stroke="none" points="-4,4 -4,-203 2009.5,-203 2009.5,4 -4,4"/>
<!-- Node0 -->
<g id="node1" class="node"><title>Node0</title>
<polygon fill="#bfbfbf" stroke="black" points="633,-168.5 633,-198.5 792,-198.5 792,-168.5 633,-168.5"/>
<text text-anchor="start" x="641" y="-186.5" font-family="Helvetica,sans-Serif" font-size="10.00">/home/ashiroji/Arduino</text>
<text text-anchor="middle" x="712.5" y="-175.5" font-family="Helvetica,sans-Serif" font-size="10.00">/libraries/CoolBoard/CoolBoard.h</text>
</g>
<!-- Node1 -->
<g id="node2" class="node"><title>Node1</title>
<g id="a_node2"><a xlink:href="$CoolFileSystem_8h.html" xlink:title="CoolFileSystem Header File. ">
<polygon fill="white" stroke="black" points="241,-112.5 241,-131.5 336,-131.5 336,-112.5 241,-112.5"/>
<text text-anchor="middle" x="288.5" y="-119.5" font-family="Helvetica,sans-Serif" font-size="10.00">CoolFileSystem.h</text>
</a>
</g>
</g>
<!-- Node0&#45;&gt;Node1 -->
<g id="edge1" class="edge"><title>Node0&#45;&gt;Node1</title>
<path fill="none" stroke="midnightblue" d="M632.97,-172.02C560.914,-162.418 451.533,-147.579 346.249,-132.085"/>
<polygon fill="midnightblue" stroke="midnightblue" points="346.479,-128.581 336.075,-130.584 345.457,-135.506 346.479,-128.581"/>
</g>
<!-- Node2 -->
<g id="node3" class="node"><title>Node2</title>
<polygon fill="white" stroke="#bfbfbf" points="731.5,-0.5 731.5,-19.5 789.5,-19.5 789.5,-0.5 731.5,-0.5"/>
<text text-anchor="middle" x="760.5" y="-7.5" font-family="Helvetica,sans-Serif" font-size="10.00">Arduino.h</text>
</g>
<!-- Node0&#45;&gt;Node2 -->
<g id="edge39" class="edge"><title>Node0&#45;&gt;Node2</title>
<path fill="none" stroke="midnightblue" d="M716.428,-168.465C725.075,-137.57 745.753,-63.6899 755.392,-29.2509"/>
<polygon fill="midnightblue" stroke="midnightblue" points="758.779,-30.133 758.104,-19.5597 752.038,-28.2463 758.779,-30.133"/>
</g>
<!-- Node3 -->
<g id="node4" class="node"><title>Node3</title>
<g id="a_node4"><a xlink:href="$CoolBoardSensors_8h.html" xlink:title="CoolBoardSensors Header File. ">
<polygon fill="white" stroke="black" points="116,-112.5 116,-131.5 223,-131.5 223,-112.5 116,-112.5"/>
<text text-anchor="middle" x="169.5" y="-119.5" font-family="Helvetica,sans-Serif" font-size="10.00">CoolBoardSensors.h</text>
</a>
</g>
</g>
<!-- Node0&#45;&gt;Node3 -->
<g id="edge3" class="edge"><title>Node0&#45;&gt;Node3</title>
<path fill="none" stroke="midnightblue" d="M632.811,-175.107C539.459,-166.226 379.883,-150.363 233.331,-132.191"/>
<polygon fill="midnightblue" stroke="midnightblue" points="233.607,-128.699 223.251,-130.935 232.741,-135.645 233.607,-128.699"/>
</g>
<!-- Node6 -->
<g id="node7" class="node"><title>Node6</title>
<g id="a_node7"><a xlink:href="$CoolBoardLed_8h.html" xlink:title="CoolBoardLed Header File. ">
<polygon fill="white" stroke="black" points="788.5,-112.5 788.5,-131.5 874.5,-131.5 874.5,-112.5 788.5,-112.5"/>
<text text-anchor="middle" x="831.5" y="-119.5" font-family="Helvetica,sans-Serif" font-size="10.00">CoolBoardLed.h</text>
</a>
</g>
</g>
<!-- Node0&#45;&gt;Node6 -->
<g id="edge7" class="edge"><title>Node0&#45;&gt;Node6</title>
<path fill="none" stroke="midnightblue" d="M740.701,-168.399C760.222,-158.639 786.025,-145.737 805.135,-136.183"/>
<polygon fill="midnightblue" stroke="midnightblue" points="806.805,-139.26 814.184,-131.658 803.675,-132.999 806.805,-139.26"/>
</g>
<!-- Node8 -->
<g id="node9" class="node"><title>Node8</title>
<g id="a_node9"><a xlink:href="$CoolTime_8h.html" xlink:title="CoolTime Header File. ">
<polygon fill="white" stroke="black" points="631,-112.5 631,-131.5 698,-131.5 698,-112.5 631,-112.5"/>
<text text-anchor="middle" x="664.5" y="-119.5" font-family="Helvetica,sans-Serif" font-size="10.00">CoolTime.h</text>
</a>
</g>
</g>
<!-- Node0&#45;&gt;Node8 -->
<g id="edge10" class="edge"><title>Node0&#45;&gt;Node8</title>
<path fill="none" stroke="midnightblue" d="M701.125,-168.399C694.15,-159.753 685.186,-148.642 677.872,-139.576"/>
<polygon fill="midnightblue" stroke="midnightblue" points="680.487,-137.243 671.484,-131.658 675.039,-141.638 680.487,-137.243"/>
</g>
<!-- Node12 -->
<g id="node13" class="node"><title>Node12</title>
<g id="a_node13"><a xlink:href="$CoolMQTT_8h.html" xlink:title="CoolMQTT Header File. ">
<polygon fill="white" stroke="black" points="966,-112.5 966,-131.5 1039,-131.5 1039,-112.5 966,-112.5"/>
<text text-anchor="middle" x="1002.5" y="-119.5" font-family="Helvetica,sans-Serif" font-size="10.00">CoolMQTT.h</text>
</a>
</g>
</g>
<!-- Node0&#45;&gt;Node12 -->
<g id="edge15" class="edge"><title>Node0&#45;&gt;Node12</title>
<path fill="none" stroke="midnightblue" d="M780.859,-168.475C834.837,-157.4 908.701,-142.245 956.016,-132.537"/>
<polygon fill="midnightblue" stroke="midnightblue" points="956.891,-135.931 965.984,-130.492 955.484,-129.074 956.891,-135.931"/>
</g>
<!-- Node15 -->
<g id="node16" class="node"><title>Node15</title>
<g id="a_node16"><a xlink:href="$Jetpack_8h.html" xlink:title="Jetpack Header File. ">
<polygon fill="white" stroke="black" points="0,-112.5 0,-131.5 59,-131.5 59,-112.5 0,-112.5"/>
<text text-anchor="middle" x="29.5" y="-119.5" font-family="Helvetica,sans-Serif" font-size="10.00">Jetpack.h</text>
</a>
</g>
</g>
<!-- Node0&#45;&gt;Node15 -->
<g id="edge19" class="edge"><title>Node0&#45;&gt;Node15</title>
<path fill="none" stroke="midnightblue" d="M632.528,-176.686C516.512,-168.058 294.799,-150.845 106.5,-132 94.3811,-130.787 81.2087,-129.307 69.2417,-127.9"/>
<polygon fill="midnightblue" stroke="midnightblue" points="69.4362,-124.399 59.0925,-126.692 68.6083,-131.35 69.4362,-124.399"/>
</g>
<!-- Node16 -->
<g id="node17" class="node"><title>Node16</title>
<g id="a_node17"><a xlink:href="$Irene3000_8h.html" xlink:title="Irene3000 Header File. ">
<polygon fill="white" stroke="black" points="354.5,-112.5 354.5,-131.5 422.5,-131.5 422.5,-112.5 354.5,-112.5"/>
<text text-anchor="middle" x="388.5" y="-119.5" font-family="Helvetica,sans-Serif" font-size="10.00">Irene3000.h</text>
</a>
</g>
</g>
<!-- Node0&#45;&gt;Node16 -->
<g id="edge21" class="edge"><title>Node0&#45;&gt;Node16</title>
<path fill="none" stroke="midnightblue" d="M636.127,-168.475C572.81,-156.847 485.002,-140.722 432.747,-131.126"/>
<polygon fill="midnightblue" stroke="midnightblue" points="433.255,-127.66 422.787,-129.297 431.991,-134.545 433.255,-127.66"/>
</g>
<!-- Node18 -->
<g id="node19" class="node"><title>Node18</title>
<g id="a_node19"><a xlink:href="$ExternalSensors_8h.html" xlink:title="ExternalSensors Header File. ">
<polygon fill="white" stroke="black" points="1090,-112.5 1090,-131.5 1187,-131.5 1187,-112.5 1090,-112.5"/>
<text text-anchor="middle" x="1138.5" y="-119.5" font-family="Helvetica,sans-Serif" font-size="10.00">ExternalSensors.h</text>
</a>
</g>
</g>
<!-- Node0&#45;&gt;Node18 -->
<g id="edge24" class="edge"><title>Node0&#45;&gt;Node18</title>
<path fill="none" stroke="midnightblue" d="M792.128,-171.378C875.618,-159.717 1004.86,-141.666 1079.61,-131.226"/>
<polygon fill="midnightblue" stroke="midnightblue" points="1080.36,-134.654 1089.78,-129.805 1079.39,-127.722 1080.36,-134.654"/>
</g>
<!-- Node24 -->
<g id="node25" class="node"><title>Node24</title>
<g id="a_node25"><a xlink:href="$CoolWifi_8h.html" xlink:title="CoolWifi Header File. ">
<polygon fill="white" stroke="black" points="1527.5,-112.5 1527.5,-131.5 1589.5,-131.5 1589.5,-112.5 1527.5,-112.5"/>
<text text-anchor="middle" x="1558.5" y="-119.5" font-family="Helvetica,sans-Serif" font-size="10.00">CoolWifi.h</text>
</a>
</g>
</g>
<!-- Node0&#45;&gt;Node24 -->
<g id="edge32" class="edge"><title>Node0&#45;&gt;Node24</title>
<path fill="none" stroke="midnightblue" d="M792.09,-176.902C967.901,-164.537 1384.3,-135.252 1517.06,-125.914"/>
<polygon fill="midnightblue" stroke="midnightblue" points="1517.49,-129.393 1527.22,-125.2 1516.99,-122.411 1517.49,-129.393"/>
</g>
<!-- Node1&#45;&gt;Node2 -->
<g id="edge2" class="edge"><title>Node1&#45;&gt;Node2</title>
<path fill="none" stroke="midnightblue" d="M288.933,-112.15C290.154,-97.8017 294.805,-69.6936 312.5,-56 344.513,-31.2263 618.02,-17.0819 721.264,-12.5848"/>
<polygon fill="midnightblue" stroke="midnightblue" points="721.441,-16.0806 731.282,-12.1556 721.141,-9.08697 721.441,-16.0806"/>
</g>
<!-- Node3&#45;&gt;Node2 -->
<g id="edge4" class="edge"><title>Node3&#45;&gt;Node2</title>
<path fill="none" stroke="midnightblue" d="M181.94,-112.442C203.663,-97.9913 250.408,-69.0567 294.5,-56 374.206,-32.3975 624.043,-17.7835 721.252,-12.8624"/>
<polygon fill="midnightblue" stroke="midnightblue" points="721.442,-16.3574 731.255,-12.3631 721.093,-9.36612 721.442,-16.3574"/>
</g>
<!-- Node4 -->
<g id="node5" class="node"><title>Node4</title>
<polygon fill="white" stroke="#bfbfbf" points="141,-56.5 141,-75.5 198,-75.5 198,-56.5 141,-56.5"/>
<text text-anchor="middle" x="169.5" y="-63.5" font-family="Helvetica,sans-Serif" font-size="10.00">SI114X.h</text>
</g>
<!-- Node3&#45;&gt;Node4 -->
<g id="edge5" class="edge"><title>Node3&#45;&gt;Node4</title>
<path fill="none" stroke="midnightblue" d="M169.5,-112.083C169.5,-105.006 169.5,-94.8611 169.5,-85.9865"/>
<polygon fill="midnightblue" stroke="midnightblue" points="173,-85.751 169.5,-75.7511 166,-85.7511 173,-85.751"/>
</g>
<!-- Node5 -->
<g id="node6" class="node"><title>Node5</title>
<polygon fill="white" stroke="#bfbfbf" points="18.5,-56.5 18.5,-75.5 122.5,-75.5 122.5,-56.5 18.5,-56.5"/>
<text text-anchor="middle" x="70.5" y="-63.5" font-family="Helvetica,sans-Serif" font-size="10.00">SparkFunBME280.h</text>
</g>
<!-- Node3&#45;&gt;Node5 -->
<g id="edge6" class="edge"><title>Node3&#45;&gt;Node5</title>
<path fill="none" stroke="midnightblue" d="M153.594,-112.324C137.862,-103.743 113.558,-90.486 95.2911,-80.5224"/>
<polygon fill="midnightblue" stroke="midnightblue" points="96.8216,-77.3704 86.3666,-75.6545 93.4696,-83.5157 96.8216,-77.3704"/>
</g>
<!-- Node6&#45;&gt;Node2 -->
<g id="edge8" class="edge"><title>Node6&#45;&gt;Node2</title>
<path fill="none" stroke="midnightblue" d="M846.106,-112.296C864.944,-99.9434 893.695,-76.5432 879.5,-56 861.686,-30.219 827.068,-19.1924 799.743,-14.4848"/>
<polygon fill="midnightblue" stroke="midnightblue" points="800.086,-10.9973 789.677,-12.9724 799.046,-17.9196 800.086,-10.9973"/>
</g>
<!-- Node7 -->
<g id="node8" class="node"><title>Node7</title>
<polygon fill="white" stroke="#bfbfbf" points="788.5,-56.5 788.5,-75.5 870.5,-75.5 870.5,-56.5 788.5,-56.5"/>
<text text-anchor="middle" x="829.5" y="-63.5" font-family="Helvetica,sans-Serif" font-size="10.00">NeoPixelBus.h</text>
</g>
<!-- Node6&#45;&gt;Node7 -->
<g id="edge9" class="edge"><title>Node6&#45;&gt;Node7</title>
<path fill="none" stroke="midnightblue" d="M831.17,-112.083C830.908,-105.006 830.532,-94.8611 830.203,-85.9865"/>
<polygon fill="midnightblue" stroke="midnightblue" points="833.692,-85.6147 829.824,-75.7511 826.697,-85.8738 833.692,-85.6147"/>
</g>
<!-- Node8&#45;&gt;Node2 -->
<g id="edge11" class="edge"><title>Node8&#45;&gt;Node2</title>
<path fill="none" stroke="midnightblue" d="M672.033,-112.368C688.016,-94.0547 725.548,-51.0489 746.22,-27.3624"/>
<polygon fill="midnightblue" stroke="midnightblue" points="749.064,-29.4271 753.002,-19.5914 743.79,-24.8243 749.064,-29.4271"/>
</g>
<!-- Node9 -->
<g id="node10" class="node"><title>Node9</title>
<polygon fill="white" stroke="#bfbfbf" points="635,-56.5 635,-75.5 694,-75.5 694,-56.5 635,-56.5"/>
<text text-anchor="middle" x="664.5" y="-63.5" font-family="Helvetica,sans-Serif" font-size="10.00">TimeLib.h</text>
</g>
<!-- Node8&#45;&gt;Node9 -->
<g id="edge12" class="edge"><title>Node8&#45;&gt;Node9</title>
<path fill="none" stroke="midnightblue" d="M664.5,-112.083C664.5,-105.006 664.5,-94.8611 664.5,-85.9865"/>
<polygon fill="midnightblue" stroke="midnightblue" points="668,-85.751 664.5,-75.7511 661,-85.7511 668,-85.751"/>
</g>
<!-- Node10 -->
<g id="node11" class="node"><title>Node10</title>
<polygon fill="white" stroke="#bfbfbf" points="455,-56.5 455,-75.5 518,-75.5 518,-56.5 455,-56.5"/>
<text text-anchor="middle" x="486.5" y="-63.5" font-family="Helvetica,sans-Serif" font-size="10.00">WiFiUdp.h</text>
</g>
<!-- Node8&#45;&gt;Node10 -->
<g id="edge13" class="edge"><title>Node8&#45;&gt;Node10</title>
<path fill="none" stroke="midnightblue" d="M636.295,-112.444C606.09,-103.28 557.989,-88.6876 524.471,-78.5192"/>
<polygon fill="midnightblue" stroke="midnightblue" points="525.158,-75.0703 514.573,-75.5164 523.126,-81.7688 525.158,-75.0703"/>
</g>
<!-- Node11 -->
<g id="node12" class="node"><title>Node11</title>
<polygon fill="white" stroke="#bfbfbf" points="536,-56.5 536,-75.5 617,-75.5 617,-56.5 536,-56.5"/>
<text text-anchor="middle" x="576.5" y="-63.5" font-family="Helvetica,sans-Serif" font-size="10.00">DS1337RTC.h</text>
</g>
<!-- Node8&#45;&gt;Node11 -->
<g id="edge14" class="edge"><title>Node8&#45;&gt;Node11</title>
<path fill="none" stroke="midnightblue" d="M650.361,-112.324C636.634,-103.9 615.564,-90.9709 599.436,-81.0741"/>
<polygon fill="midnightblue" stroke="midnightblue" points="600.957,-77.9016 590.604,-75.6545 597.296,-83.8678 600.957,-77.9016"/>
</g>
<!-- Node12&#45;&gt;Node2 -->
<g id="edge16" class="edge"><title>Node12&#45;&gt;Node2</title>
<path fill="none" stroke="midnightblue" d="M1009.26,-112.379C1019.01,-98.8507 1034.38,-72.4828 1020.5,-56 992.764,-23.0511 865.504,-14.2271 799.885,-11.8641"/>
<polygon fill="midnightblue" stroke="midnightblue" points="799.635,-8.35419 789.527,-11.5265 799.407,-15.3505 799.635,-8.35419"/>
</g>
<!-- Node13 -->
<g id="node14" class="node"><title>Node13</title>
<polygon fill="white" stroke="#bfbfbf" points="1188.5,-56.5 1188.5,-75.5 1274.5,-75.5 1274.5,-56.5 1188.5,-56.5"/>
<text text-anchor="middle" x="1231.5" y="-63.5" font-family="Helvetica,sans-Serif" font-size="10.00">ESP8266WiFi.h</text>
</g>
<!-- Node12&#45;&gt;Node13 -->
<g id="edge17" class="edge"><title>Node12&#45;&gt;Node13</title>
<path fill="none" stroke="midnightblue" d="M1038.79,-112.444C1078.48,-103.083 1142.21,-88.0561 1185.41,-77.868"/>
<polygon fill="midnightblue" stroke="midnightblue" points="1186.45,-81.2182 1195.38,-75.5164 1184.85,-74.4051 1186.45,-81.2182"/>
</g>
<!-- Node14 -->
<g id="node15" class="node"><title>Node14</title>
<polygon fill="white" stroke="#bfbfbf" points="927,-56.5 927,-75.5 1012,-75.5 1012,-56.5 927,-56.5"/>
<text text-anchor="middle" x="969.5" y="-63.5" font-family="Helvetica,sans-Serif" font-size="10.00">PubSubClient.h</text>
</g>
<!-- Node12&#45;&gt;Node14 -->
<g id="edge18" class="edge"><title>Node12&#45;&gt;Node14</title>
<path fill="none" stroke="midnightblue" d="M997.051,-112.083C992.486,-104.613 985.832,-93.7244 980.207,-84.5199"/>
<polygon fill="midnightblue" stroke="midnightblue" points="983.049,-82.4588 974.848,-75.7511 977.076,-86.109 983.049,-82.4588"/>
</g>
<!-- Node15&#45;&gt;Node2 -->
<g id="edge20" class="edge"><title>Node15&#45;&gt;Node2</title>
<path fill="none" stroke="midnightblue" d="M22.1091,-112.22C11.4535,-98.4747 -5.3951,-71.8143 9.5,-56 34.0969,-29.8851 569.725,-15.4483 721.021,-11.8814"/>
<polygon fill="midnightblue" stroke="midnightblue" points="721.322,-15.3755 731.238,-11.6434 721.159,-8.37737 721.322,-15.3755"/>
</g>
<!-- Node16&#45;&gt;Node2 -->
<g id="edge23" class="edge"><title>Node16&#45;&gt;Node2</title>
<path fill="none" stroke="midnightblue" d="M367.805,-112.334C341.666,-100.214 302.278,-77.2927 321.5,-56 348.058,-26.5802 618.508,-15.3196 721.218,-12.0836"/>
<polygon fill="midnightblue" stroke="midnightblue" points="721.586,-15.5741 731.474,-11.7697 721.372,-8.57733 721.586,-15.5741"/>
</g>
<!-- Node17 -->
<g id="node18" class="node"><title>Node17</title>
<polygon fill="white" stroke="#bfbfbf" points="330.5,-56.5 330.5,-75.5 436.5,-75.5 436.5,-56.5 330.5,-56.5"/>
<text text-anchor="middle" x="383.5" y="-63.5" font-family="Helvetica,sans-Serif" font-size="10.00">Adafruit_ADS1015.h</text>
</g>
<!-- Node16&#45;&gt;Node17 -->
<g id="edge22" class="edge"><title>Node16&#45;&gt;Node17</title>
<path fill="none" stroke="midnightblue" d="M387.674,-112.083C387.019,-105.006 386.08,-94.8611 385.258,-85.9865"/>
<polygon fill="midnightblue" stroke="midnightblue" points="388.717,-85.3858 384.31,-75.7511 381.747,-86.0312 388.717,-85.3858"/>
</g>
<!-- Node18&#45;&gt;Node2 -->
<g id="edge25" class="edge"><title>Node18&#45;&gt;Node2</title>
<path fill="none" stroke="midnightblue" d="M1128.38,-112.424C1111.02,-98.2144 1073.9,-69.9712 1037.5,-56 956.736,-25.0049 854.753,-15.3575 799.837,-12.3555"/>
<polygon fill="midnightblue" stroke="midnightblue" points="799.986,-8.85871 789.824,-11.854 799.636,-15.8499 799.986,-8.85871"/>
</g>
<!-- Node19 -->
<g id="node20" class="node"><title>Node19</title>
<polygon fill="white" stroke="#bfbfbf" points="1293,-56.5 1293,-75.5 1338,-75.5 1338,-56.5 1293,-56.5"/>
<text text-anchor="middle" x="1315.5" y="-63.5" font-family="Helvetica,sans-Serif" font-size="10.00">Wire.h</text>
</g>
<!-- Node18&#45;&gt;Node19 -->
<g id="edge26" class="edge"><title>Node18&#45;&gt;Node19</title>
<path fill="none" stroke="midnightblue" d="M1166.55,-112.444C1198.26,-102.768 1249.81,-87.0397 1283.19,-76.8577"/>
<polygon fill="midnightblue" stroke="midnightblue" points="1284.38,-80.1544 1292.92,-73.8886 1282.33,-73.4591 1284.38,-80.1544"/>
</g>
<!-- Node20 -->
<g id="node21" class="node"><title>Node20</title>
<polygon fill="white" stroke="#bfbfbf" points="1107,-56.5 1107,-75.5 1170,-75.5 1170,-56.5 1107,-56.5"/>
<text text-anchor="middle" x="1138.5" y="-63.5" font-family="Helvetica,sans-Serif" font-size="10.00">OneWire.h</text>
</g>
<!-- Node18&#45;&gt;Node20 -->
<g id="edge27" class="edge"><title>Node18&#45;&gt;Node20</title>
<path fill="none" stroke="midnightblue" d="M1138.5,-112.083C1138.5,-105.006 1138.5,-94.8611 1138.5,-85.9865"/>
<polygon fill="midnightblue" stroke="midnightblue" points="1142,-85.751 1138.5,-75.7511 1135,-85.7511 1142,-85.751"/>
</g>
<!-- Node21 -->
<g id="node22" class="node"><title>Node21</title>
<g id="a_node22"><a xlink:href="$ExternalSensor_8h.html" xlink:title="ExternalSensor Header File. ">
<polygon fill="white" stroke="black" points="1394.5,-56.5 1394.5,-75.5 1486.5,-75.5 1486.5,-56.5 1394.5,-56.5"/>
<text text-anchor="middle" x="1440.5" y="-63.5" font-family="Helvetica,sans-Serif" font-size="10.00">ExternalSensor.h</text>
</a>
</g>
</g>
<!-- Node18&#45;&gt;Node21 -->
<g id="edge28" class="edge"><title>Node18&#45;&gt;Node21</title>
<path fill="none" stroke="midnightblue" d="M1186.35,-112.444C1240.17,-102.821 1327.47,-87.2108 1384.44,-77.0245"/>
<polygon fill="midnightblue" stroke="midnightblue" points="1385.13,-80.4564 1394.36,-75.2508 1383.9,-73.5657 1385.13,-80.4564"/>
</g>
<!-- Node21&#45;&gt;Node2 -->
<g id="edge31" class="edge"><title>Node21&#45;&gt;Node2</title>
<path fill="none" stroke="midnightblue" d="M1394.36,-57.7154C1389.68,-57.0864 1385,-56.5002 1380.5,-56 1161.62,-31.6764 897.734,-17.5373 799.673,-12.8015"/>
<polygon fill="midnightblue" stroke="midnightblue" points="799.78,-9.30271 789.625,-12.3212 799.446,-16.2947 799.78,-9.30271"/>
</g>
<!-- Node22 -->
<g id="node23" class="node"><title>Node22</title>
<polygon fill="white" stroke="#bfbfbf" points="1458,-0.5 1458,-19.5 1529,-19.5 1529,-0.5 1458,-0.5"/>
<text text-anchor="middle" x="1493.5" y="-7.5" font-family="Helvetica,sans-Serif" font-size="10.00">NDIR_I2C.h</text>
</g>
<!-- Node21&#45;&gt;Node22 -->
<g id="edge29" class="edge"><title>Node21&#45;&gt;Node22</title>
<path fill="none" stroke="midnightblue" d="M1449.25,-56.083C1456.97,-48.2195 1468.4,-36.5688 1477.72,-27.0813"/>
<polygon fill="midnightblue" stroke="midnightblue" points="1480.4,-29.3396 1484.91,-19.7511 1475.41,-24.4363 1480.4,-29.3396"/>
</g>
<!-- Node23 -->
<g id="node24" class="node"><title>Node23</title>
<polygon fill="white" stroke="#bfbfbf" points="1333,-0.5 1333,-19.5 1440,-19.5 1440,-0.5 1333,-0.5"/>
<text text-anchor="middle" x="1386.5" y="-7.5" font-family="Helvetica,sans-Serif" font-size="10.00">DallasTemperature.h</text>
</g>
<!-- Node21&#45;&gt;Node23 -->
<g id="edge30" class="edge"><title>Node21&#45;&gt;Node23</title>
<path fill="none" stroke="midnightblue" d="M1431.58,-56.083C1423.72,-48.2195 1412.07,-36.5688 1402.58,-27.0813"/>
<polygon fill="midnightblue" stroke="midnightblue" points="1404.8,-24.3473 1395.25,-19.7511 1399.85,-29.2971 1404.8,-24.3473"/>
</g>
<!-- Node24&#45;&gt;Node2 -->
<g id="edge33" class="edge"><title>Node24&#45;&gt;Node2</title>
<path fill="none" stroke="midnightblue" d="M1527.24,-115.029C1492.09,-107.823 1433.64,-94.3486 1385.5,-76 1367.3,-69.062 1365.25,-61.2943 1346.5,-56 1243.18,-26.822 913.773,-15.2069 799.772,-11.9964"/>
<polygon fill="midnightblue" stroke="midnightblue" points="799.832,-8.49678 789.739,-11.72 799.639,-15.4941 799.832,-8.49678"/>
</g>
<!-- Node24&#45;&gt;Node13 -->
<g id="edge34" class="edge"><title>Node24&#45;&gt;Node13</title>
<path fill="none" stroke="midnightblue" d="M1527.14,-115.965C1477.81,-108.023 1378.83,-92.0024 1284.61,-76.1746"/>
<polygon fill="midnightblue" stroke="midnightblue" points="1285.07,-72.7028 1274.63,-74.4953 1283.91,-79.6058 1285.07,-72.7028"/>
</g>
<!-- Node25 -->
<g id="node26" class="node"><title>Node25</title>
<polygon fill="white" stroke="#bfbfbf" points="1505,-56.5 1505,-75.5 1612,-75.5 1612,-56.5 1505,-56.5"/>
<text text-anchor="middle" x="1558.5" y="-63.5" font-family="Helvetica,sans-Serif" font-size="10.00">ESP8266WiFiMulti.h</text>
</g>
<!-- Node24&#45;&gt;Node25 -->
<g id="edge35" class="edge"><title>Node24&#45;&gt;Node25</title>
<path fill="none" stroke="midnightblue" d="M1558.5,-112.083C1558.5,-105.006 1558.5,-94.8611 1558.5,-85.9865"/>
<polygon fill="midnightblue" stroke="midnightblue" points="1562,-85.751 1558.5,-75.7511 1555,-85.7511 1562,-85.751"/>
</g>
<!-- Node26 -->
<g id="node27" class="node"><title>Node26</title>
<polygon fill="white" stroke="#bfbfbf" points="1630,-56.5 1630,-75.5 1705,-75.5 1705,-56.5 1630,-56.5"/>
<text text-anchor="middle" x="1667.5" y="-63.5" font-family="Helvetica,sans-Serif" font-size="10.00">DNSServer.h</text>
</g>
<!-- Node24&#45;&gt;Node26 -->
<g id="edge36" class="edge"><title>Node24&#45;&gt;Node26</title>
<path fill="none" stroke="midnightblue" d="M1576.01,-112.324C1593.57,-103.625 1620.83,-90.1202 1641.03,-80.113"/>
<polygon fill="midnightblue" stroke="midnightblue" points="1642.62,-83.23 1650.03,-75.6545 1639.52,-76.9575 1642.62,-83.23"/>
</g>
<!-- Node27 -->
<g id="node28" class="node"><title>Node27</title>
<polygon fill="white" stroke="#bfbfbf" points="1723,-56.5 1723,-75.5 1838,-75.5 1838,-56.5 1723,-56.5"/>
<text text-anchor="middle" x="1780.5" y="-63.5" font-family="Helvetica,sans-Serif" font-size="10.00">ESP8266WebServer.h</text>
</g>
<!-- Node24&#45;&gt;Node27 -->
<g id="edge37" class="edge"><title>Node24&#45;&gt;Node27</title>
<path fill="none" stroke="midnightblue" d="M1589.84,-113.378C1627.79,-104.146 1692,-88.5261 1735.31,-77.993"/>
<polygon fill="midnightblue" stroke="midnightblue" points="1736.4,-81.3281 1745.29,-75.5637 1734.75,-74.5264 1736.4,-81.3281"/>
</g>
<!-- Node28 -->
<g id="node29" class="node"><title>Node28</title>
<polygon fill="white" stroke="#bfbfbf" points="1855.5,-56.5 1855.5,-75.5 2005.5,-75.5 2005.5,-56.5 1855.5,-56.5"/>
<text text-anchor="middle" x="1930.5" y="-63.5" font-family="Helvetica,sans-Serif" font-size="10.00">WiFiManagerReadFileButton.h</text>
</g>
<!-- Node24&#45;&gt;Node28 -->
<g id="edge38" class="edge"><title>Node24&#45;&gt;Node28</title>
<path fill="none" stroke="midnightblue" d="M1589.58,-116.489C1649.11,-107.847 1780.51,-88.772 1861.68,-76.9893"/>
<polygon fill="midnightblue" stroke="midnightblue" points="1862.42,-80.4192 1871.81,-75.5189 1861.42,-73.4918 1862.42,-80.4192"/>
</g>
</g>
</svg>
