<?xml version="1.0" encoding="UTF-8" standalone="no"?>
<!DOCTYPE svg PUBLIC "-//W3C//DTD SVG 1.1//EN"
 "http://www.w3.org/Graphics/SVG/1.1/DTD/svg11.dtd">
<!-- Generated by graphviz version 2.38.0 (20140413.2041)
 -->
<!-- Title: /home/ashiroji/Arduino/libraries/CoolBoard/CoolWifi.cpp Pages: 1 -->
<svg width="689pt" height="151pt"
 viewBox="0.00 0.00 689.00 151.00" xmlns="http://www.w3.org/2000/svg" xmlns:xlink="http://www.w3.org/1999/xlink">
<g id="graph0" class="graph" transform="scale(1 1) rotate(0) translate(4 147)">
<title>/home/ashiroji/Arduino/libraries/CoolBoard/CoolWifi.cpp</title>
<polygon fill="white" stroke="none" points="-4,4 -4,-147 685,-147 685,4 -4,4"/>
<!-- Node0 -->
<g id="node1" class="node"><title>Node0</title>
<polygon fill="#bfbfbf" stroke="black" points="75.5,-112.5 75.5,-142.5 236.5,-142.5 236.5,-112.5 75.5,-112.5"/>
<text text-anchor="start" x="83.5" y="-130.5" font-family="Helvetica,sans-Serif" font-size="10.00">/home/ashiroji/Arduino</text>
<text text-anchor="middle" x="156" y="-119.5" font-family="Helvetica,sans-Serif" font-size="10.00">/libraries/CoolBoard/CoolWifi.cpp</text>
</g>
<!-- Node1 -->
<g id="node2" class="node"><title>Node1</title>
<polygon fill="white" stroke="#bfbfbf" points="33,-56.5 33,-75.5 71,-75.5 71,-56.5 33,-56.5"/>
<text text-anchor="middle" x="52" y="-63.5" font-family="Helvetica,sans-Serif" font-size="10.00">FS.h</text>
</g>
<!-- Node0&#45;&gt;Node1 -->
<g id="edge1" class="edge"><title>Node0&#45;&gt;Node1</title>
<path fill="none" stroke="midnightblue" d="M131.353,-112.399C114.683,-102.862 92.7694,-90.3248 76.1948,-80.8422"/>
<polygon fill="midnightblue" stroke="midnightblue" points="77.5509,-77.5858 67.1329,-75.6578 74.0747,-83.6617 77.5509,-77.5858"/>
</g>
<!-- Node2 -->
<g id="node3" class="node"><title>Node2</title>
<polygon fill="white" stroke="#bfbfbf" points="0,-0.5 0,-19.5 58,-19.5 58,-0.5 0,-0.5"/>
<text text-anchor="middle" x="29" y="-7.5" font-family="Helvetica,sans-Serif" font-size="10.00">Arduino.h</text>
</g>
<!-- Node0&#45;&gt;Node2 -->
<g id="edge2" class="edge"><title>Node0&#45;&gt;Node2</title>
<path fill="none" stroke="midnightblue" d="M140.962,-112.344C125.702,-98.0284 101.353,-75.3191 80,-56 68.9179,-45.9736 56.3282,-34.8623 46.4302,-26.1894"/>
<polygon fill="midnightblue" stroke="midnightblue" points="48.6735,-23.5016 38.8412,-19.555 44.0664,-28.7717 48.6735,-23.5016"/>
</g>
<!-- Node3 -->
<g id="node4" class="node"><title>Node3</title>
<polygon fill="white" stroke="#bfbfbf" points="76,-0.5 76,-19.5 162,-19.5 162,-0.5 76,-0.5"/>
<text text-anchor="middle" x="119" y="-7.5" font-family="Helvetica,sans-Serif" font-size="10.00">ESP8266WiFi.h</text>
</g>
<!-- Node0&#45;&gt;Node3 -->
<g id="edge3" class="edge"><title>Node0&#45;&gt;Node3</title>
<path fill="none" stroke="midnightblue" d="M151.463,-112.337C144.766,-91.4325 132.233,-52.3096 124.853,-29.2696"/>
<polygon fill="midnightblue" stroke="midnightblue" points="128.161,-28.125 121.777,-19.6695 121.495,-30.2605 128.161,-28.125"/>
</g>
<!-- Node4 -->
<g id="node5" class="node"><title>Node4</title>
<polygon fill="white" stroke="#bfbfbf" points="180.5,-0.5 180.5,-19.5 287.5,-19.5 287.5,-0.5 180.5,-0.5"/>
<text text-anchor="middle" x="234" y="-7.5" font-family="Helvetica,sans-Serif" font-size="10.00">ESP8266WiFiMulti.h</text>
</g>
<!-- Node0&#45;&gt;Node4 -->
<g id="edge4" class="edge"><title>Node0&#45;&gt;Node4</title>
<path fill="none" stroke="midnightblue" d="M162.385,-112.43C169.3,-97.7855 181.087,-74.4561 194,-56 201.101,-45.851 210.199,-35.4557 217.923,-27.2167"/>
<polygon fill="midnightblue" stroke="midnightblue" points="220.659,-29.4209 225.065,-19.7855 215.612,-24.5703 220.659,-29.4209"/>
</g>
<!-- Node5 -->
<g id="node6" class="node"><title>Node5</title>
<g id="a_node6"><a xlink:href="$CoolWifi_8h.html" xlink:title="CoolWifi Header File. ">
<polygon fill="white" stroke="black" points="203,-56.5 203,-75.5 265,-75.5 265,-56.5 203,-56.5"/>
<text text-anchor="middle" x="234" y="-63.5" font-family="Helvetica,sans-Serif" font-size="10.00">CoolWifi.h</text>
</a>
</g>
</g>
<!-- Node0&#45;&gt;Node5 -->
<g id="edge5" class="edge"><title>Node0&#45;&gt;Node5</title>
<path fill="none" stroke="midnightblue" d="M174.485,-112.399C186.52,-103.218 202.2,-91.2579 214.443,-81.9182"/>
<polygon fill="midnightblue" stroke="midnightblue" points="216.822,-84.5056 222.65,-75.6578 212.577,-78.9401 216.822,-84.5056"/>
</g>
<!-- Node9 -->
<g id="node10" class="node"><title>Node9</title>
<polygon fill="white" stroke="#bfbfbf" points="282.5,-56.5 282.5,-75.5 361.5,-75.5 361.5,-56.5 282.5,-56.5"/>
<text text-anchor="middle" x="322" y="-63.5" font-family="Helvetica,sans-Serif" font-size="10.00">ArduinoJson.h</text>
</g>
<!-- Node0&#45;&gt;Node9 -->
<g id="edge12" class="edge"><title>Node0&#45;&gt;Node9</title>
<path fill="none" stroke="midnightblue" d="M195.34,-112.399C223.565,-102.283 261.206,-88.7905 288.105,-79.1493"/>
<polygon fill="midnightblue" stroke="midnightblue" points="289.613,-82.3267 297.846,-75.6578 287.251,-75.7372 289.613,-82.3267"/>
</g>
<!-- Node5&#45;&gt;Node2 -->
<g id="edge6" class="edge"><title>Node5&#45;&gt;Node2</title>
<path fill="none" stroke="midnightblue" d="M202.865,-56.7986C166.698,-47.2718 106.999,-31.5462 67.8334,-21.2293"/>
<polygon fill="midnightblue" stroke="midnightblue" points="68.6629,-17.8285 58.1012,-18.6657 66.8797,-24.5975 68.6629,-17.8285"/>
</g>
<!-- Node5&#45;&gt;Node3 -->
<g id="edge7" class="edge"><title>Node5&#45;&gt;Node3</title>
<path fill="none" stroke="midnightblue" d="M215.778,-56.4435C197.104,-47.6751 167.844,-33.9355 146.383,-23.8579"/>
<polygon fill="midnightblue" stroke="midnightblue" points="147.676,-20.5988 137.137,-19.5164 144.701,-26.935 147.676,-20.5988"/>
</g>
<!-- Node5&#45;&gt;Node4 -->
<g id="edge8" class="edge"><title>Node5&#45;&gt;Node4</title>
<path fill="none" stroke="midnightblue" d="M234,-56.083C234,-49.0059 234,-38.8611 234,-29.9865"/>
<polygon fill="midnightblue" stroke="midnightblue" points="237.5,-29.751 234,-19.7511 230.5,-29.7511 237.5,-29.751"/>
</g>
<!-- Node6 -->
<g id="node7" class="node"><title>Node6</title>
<polygon fill="white" stroke="#bfbfbf" points="305.5,-0.5 305.5,-19.5 380.5,-19.5 380.5,-0.5 305.5,-0.5"/>
<text text-anchor="middle" x="343" y="-7.5" font-family="Helvetica,sans-Serif" font-size="10.00">DNSServer.h</text>
</g>
<!-- Node5&#45;&gt;Node6 -->
<g id="edge9" class="edge"><title>Node5&#45;&gt;Node6</title>
<path fill="none" stroke="midnightblue" d="M251.513,-56.324C269.072,-47.6247 296.331,-34.1202 316.531,-24.113"/>
<polygon fill="midnightblue" stroke="midnightblue" points="318.124,-27.23 325.531,-19.6545 315.016,-20.9575 318.124,-27.23"/>
</g>
<!-- Node7 -->
<g id="node8" class="node"><title>Node7</title>
<polygon fill="white" stroke="#bfbfbf" points="398.5,-0.5 398.5,-19.5 513.5,-19.5 513.5,-0.5 398.5,-0.5"/>
<text text-anchor="middle" x="456" y="-7.5" font-family="Helvetica,sans-Serif" font-size="10.00">ESP8266WebServer.h</text>
</g>
<!-- Node5&#45;&gt;Node7 -->
<g id="edge10" class="edge"><title>Node5&#45;&gt;Node7</title>
<path fill="none" stroke="midnightblue" d="M265.336,-57.3776C303.289,-48.1459 367.504,-32.5261 410.807,-21.993"/>
<polygon fill="midnightblue" stroke="midnightblue" points="411.904,-25.3281 420.794,-19.5637 410.25,-18.5264 411.904,-25.3281"/>
</g>
<!-- Node8 -->
<g id="node9" class="node"><title>Node8</title>
<polygon fill="white" stroke="#bfbfbf" points="531,-0.5 531,-19.5 681,-19.5 681,-0.5 531,-0.5"/>
<text text-anchor="middle" x="606" y="-7.5" font-family="Helvetica,sans-Serif" font-size="10.00">WiFiManagerReadFileButton.h</text>
</g>
<!-- Node5&#45;&gt;Node8 -->
<g id="edge11" class="edge"><title>Node5&#45;&gt;Node8</title>
<path fill="none" stroke="midnightblue" d="M265.391,-57.6673C268.295,-57.0705 271.198,-56.5042 274,-56 357.447,-40.986 453.505,-28.4802 520.757,-20.494"/>
<polygon fill="midnightblue" stroke="midnightblue" points="521.36,-23.9473 530.881,-19.3001 520.54,-16.9955 521.36,-23.9473"/>
</g>
</g>
</svg>
