<?xml version="1.0" encoding="UTF-8" standalone="no"?>
<!DOCTYPE svg PUBLIC "-//W3C//DTD SVG 1.1//EN"
 "http://www.w3.org/Graphics/SVG/1.1/DTD/svg11.dtd">
<!-- Generated by graphviz version 2.38.0 (20140413.2041)
 -->
<!-- Title: /home/ashiroji/Arduino/libraries/CoolBoard/ExternalSensor.h Pages: 1 -->
<svg width="332pt" height="273pt"
 viewBox="0.00 0.00 331.50 273.00" xmlns="http://www.w3.org/2000/svg" xmlns:xlink="http://www.w3.org/1999/xlink">
<g id="graph0" class="graph" transform="scale(1 1) rotate(0) translate(4 269)">
<title>/home/ashiroji/Arduino/libraries/CoolBoard/ExternalSensor.h</title>
<polygon fill="white" stroke="none" points="-4,4 -4,-269 327.5,-269 327.5,4 -4,4"/>
<!-- Node4 -->
<g id="node1" class="node"><title>Node4</title>
<polygon fill="#bfbfbf" stroke="black" points="132.5,-223.5 132.5,-264.5 273.5,-264.5 273.5,-223.5 132.5,-223.5"/>
<text text-anchor="start" x="140.5" y="-252.5" font-family="Helvetica,sans-Serif" font-size="10.00">/home/ashiroji/Arduino</text>
<text text-anchor="start" x="140.5" y="-241.5" font-family="Helvetica,sans-Serif" font-size="10.00">/libraries/CoolBoard/External</text>
<text text-anchor="middle" x="203" y="-230.5" font-family="Helvetica,sans-Serif" font-size="10.00">Sensor.h</text>
</g>
<!-- Node5 -->
<g id="node2" class="node"><title>Node5</title>
<g id="a_node2"><a xlink:href="$ExternalSensors_8h.html" xlink:title="ExternalSensors Header File. ">
<polygon fill="white" stroke="black" points="83.5,-145.5 83.5,-186.5 224.5,-186.5 224.5,-145.5 83.5,-145.5"/>
<text text-anchor="start" x="91.5" y="-174.5" font-family="Helvetica,sans-Serif" font-size="10.00">/home/ashiroji/Arduino</text>
<text text-anchor="start" x="91.5" y="-163.5" font-family="Helvetica,sans-Serif" font-size="10.00">/libraries/CoolBoard/External</text>
<text text-anchor="middle" x="154" y="-152.5" font-family="Helvetica,sans-Serif" font-size="10.00">Sensors.h</text>
</a>
</g>
</g>
<!-- Node4&#45;&gt;Node5 -->
<g id="edge1" class="edge"><title>Node4&#45;&gt;Node5</title>
<path fill="none" stroke="midnightblue" d="M184.791,-214.757C178.728,-205.354 172.115,-195.096 166.576,-186.506"/>
<polygon fill="midnightblue" stroke="midnightblue" points="182.021,-216.92 190.381,-223.428 187.904,-213.127 182.021,-216.92"/>
</g>
<!-- Node8 -->
<g id="node5" class="node"><title>Node8</title>
<g id="a_node5"><a xlink:href="$ExternalSensors_8cpp.html" xlink:title="ExternalSensors Source File. ">
<polygon fill="white" stroke="black" points="182.5,-67.5 182.5,-108.5 323.5,-108.5 323.5,-67.5 182.5,-67.5"/>
<text text-anchor="start" x="190.5" y="-96.5" font-family="Helvetica,sans-Serif" font-size="10.00">/home/ashiroji/Arduino</text>
<text text-anchor="start" x="190.5" y="-85.5" font-family="Helvetica,sans-Serif" font-size="10.00">/libraries/CoolBoard/External</text>
<text text-anchor="middle" x="253" y="-74.5" font-family="Helvetica,sans-Serif" font-size="10.00">Sensors.cpp</text>
</a>
</g>
</g>
<!-- Node4&#45;&gt;Node8 -->
<g id="edge5" class="edge"><title>Node4&#45;&gt;Node8</title>
<path fill="none" stroke="midnightblue" d="M220.294,-214.557C224.962,-205.942 229.644,-196.294 233,-187 242.496,-160.705 247.958,-128.723 250.705,-108.607"/>
<polygon fill="midnightblue" stroke="midnightblue" points="217.152,-213.004 215.297,-223.435 223.252,-216.437 217.152,-213.004"/>
</g>
<!-- Node6 -->
<g id="node3" class="node"><title>Node6</title>
<g id="a_node3"><a xlink:href="$CoolBoard_8h.html" xlink:title="CoolBoard Header file. ">
<polygon fill="white" stroke="black" points="5.5,-73 5.5,-103 164.5,-103 164.5,-73 5.5,-73"/>
<text text-anchor="start" x="13.5" y="-91" font-family="Helvetica,sans-Serif" font-size="10.00">/home/ashiroji/Arduino</text>
<text text-anchor="middle" x="85" y="-80" font-family="Helvetica,sans-Serif" font-size="10.00">/libraries/CoolBoard/CoolBoard.h</text>
</a>
</g>
</g>
<!-- Node5&#45;&gt;Node6 -->
<g id="edge2" class="edge"><title>Node5&#45;&gt;Node6</title>
<path fill="none" stroke="midnightblue" d="M129.477,-137.99C118.823,-126.255 106.78,-112.99 97.9151,-103.225"/>
<polygon fill="midnightblue" stroke="midnightblue" points="126.918,-140.377 136.231,-145.428 132.1,-135.672 126.918,-140.377"/>
</g>
<!-- Node5&#45;&gt;Node8 -->
<g id="edge4" class="edge"><title>Node5&#45;&gt;Node8</title>
<path fill="none" stroke="midnightblue" d="M187.784,-139.065C200.82,-129.057 215.478,-117.804 227.591,-108.506"/>
<polygon fill="midnightblue" stroke="midnightblue" points="185.296,-136.562 179.495,-145.428 189.558,-142.115 185.296,-136.562"/>
</g>
<!-- Node7 -->
<g id="node4" class="node"><title>Node7</title>
<g id="a_node4"><a xlink:href="$CoolBoard_8cpp.html" xlink:title="CoolBoard Source file. ">
<polygon fill="white" stroke="black" points="0,-0.5 0,-30.5 170,-30.5 170,-0.5 0,-0.5"/>
<text text-anchor="start" x="8" y="-18.5" font-family="Helvetica,sans-Serif" font-size="10.00">/home/ashiroji/Arduino</text>
<text text-anchor="middle" x="85" y="-7.5" font-family="Helvetica,sans-Serif" font-size="10.00">/libraries/CoolBoard/CoolBoard.cpp</text>
</a>
</g>
</g>
<!-- Node6&#45;&gt;Node7 -->
<g id="edge3" class="edge"><title>Node6&#45;&gt;Node7</title>
<path fill="none" stroke="midnightblue" d="M85,-62.7317C85,-52.0679 85,-39.9145 85,-30.7455"/>
<polygon fill="midnightblue" stroke="midnightblue" points="81.5001,-62.7332 85,-72.7333 88.5001,-62.7333 81.5001,-62.7332"/>
</g>
</g>
</svg>
