<?xml version="1.0" encoding="UTF-8" standalone="no"?>
<!DOCTYPE svg PUBLIC "-//W3C//DTD SVG 1.1//EN"
 "http://www.w3.org/Graphics/SVG/1.1/DTD/svg11.dtd">
<!-- Generated by graphviz version 2.38.0 (20140413.2041)
 -->
<!-- Title: /home/ashiroji/Arduino/libraries/CoolBoard/ExternalSensors.h Pages: 1 -->
<svg width="332pt" height="195pt"
 viewBox="0.00 0.00 331.50 195.00" xmlns="http://www.w3.org/2000/svg" xmlns:xlink="http://www.w3.org/1999/xlink">
<g id="graph0" class="graph" transform="scale(1 1) rotate(0) translate(4 191)">
<title>/home/ashiroji/Arduino/libraries/CoolBoard/ExternalSensors.h</title>
<polygon fill="white" stroke="none" points="-4,4 -4,-191 327.5,-191 327.5,4 -4,4"/>
<!-- Node7 -->
<g id="node1" class="node"><title>Node7</title>
<polygon fill="#bfbfbf" stroke="black" points="98.5,-145.5 98.5,-186.5 239.5,-186.5 239.5,-145.5 98.5,-145.5"/>
<text text-anchor="start" x="106.5" y="-174.5" font-family="Helvetica,sans-Serif" font-size="10.00">/home/ashiroji/Arduino</text>
<text text-anchor="start" x="106.5" y="-163.5" font-family="Helvetica,sans-Serif" font-size="10.00">/libraries/CoolBoard/External</text>
<text text-anchor="middle" x="169" y="-152.5" font-family="Helvetica,sans-Serif" font-size="10.00">Sensors.h</text>
</g>
<!-- Node8 -->
<g id="node2" class="node"><title>Node8</title>
<g id="a_node2"><a xlink:href="$CoolBoard_8h.html" xlink:title="CoolBoard Header file. ">
<polygon fill="white" stroke="black" points="5.5,-73 5.5,-103 164.5,-103 164.5,-73 5.5,-73"/>
<text text-anchor="start" x="13.5" y="-91" font-family="Helvetica,sans-Serif" font-size="10.00">/home/ashiroji/Arduino</text>
<text text-anchor="middle" x="85" y="-80" font-family="Helvetica,sans-Serif" font-size="10.00">/libraries/CoolBoard/CoolBoard.h</text>
</a>
</g>
</g>
<!-- Node7&#45;&gt;Node8 -->
<g id="edge1" class="edge"><title>Node7&#45;&gt;Node8</title>
<path fill="none" stroke="midnightblue" d="M139.886,-138.658C126.736,-126.761 111.72,-113.176 100.723,-103.225"/>
<polygon fill="midnightblue" stroke="midnightblue" points="137.604,-141.314 147.368,-145.428 142.301,-136.124 137.604,-141.314"/>
</g>
<!-- Node10 -->
<g id="node4" class="node"><title>Node10</title>
<g id="a_node4"><a xlink:href="$ExternalSensors_8cpp.html" xlink:title="ExternalSensors Source File. ">
<polygon fill="white" stroke="black" points="182.5,-67.5 182.5,-108.5 323.5,-108.5 323.5,-67.5 182.5,-67.5"/>
<text text-anchor="start" x="190.5" y="-96.5" font-family="Helvetica,sans-Serif" font-size="10.00">/home/ashiroji/Arduino</text>
<text text-anchor="start" x="190.5" y="-85.5" font-family="Helvetica,sans-Serif" font-size="10.00">/libraries/CoolBoard/External</text>
<text text-anchor="middle" x="253" y="-74.5" font-family="Helvetica,sans-Serif" font-size="10.00">Sensors.cpp</text>
</a>
</g>
</g>
<!-- Node7&#45;&gt;Node10 -->
<g id="edge3" class="edge"><title>Node7&#45;&gt;Node10</title>
<path fill="none" stroke="midnightblue" d="M198.299,-138.492C209.199,-128.629 221.359,-117.627 231.441,-108.506"/>
<polygon fill="midnightblue" stroke="midnightblue" points="195.699,-136.124 190.632,-145.428 200.396,-141.314 195.699,-136.124"/>
</g>
<!-- Node9 -->
<g id="node3" class="node"><title>Node9</title>
<g id="a_node3"><a xlink:href="$CoolBoard_8cpp.html" xlink:title="CoolBoard Source file. ">
<polygon fill="white" stroke="black" points="0,-0.5 0,-30.5 170,-30.5 170,-0.5 0,-0.5"/>
<text text-anchor="start" x="8" y="-18.5" font-family="Helvetica,sans-Serif" font-size="10.00">/home/ashiroji/Arduino</text>
<text text-anchor="middle" x="85" y="-7.5" font-family="Helvetica,sans-Serif" font-size="10.00">/libraries/CoolBoard/CoolBoard.cpp</text>
</a>
</g>
</g>
<!-- Node8&#45;&gt;Node9 -->
<g id="edge2" class="edge"><title>Node8&#45;&gt;Node9</title>
<path fill="none" stroke="midnightblue" d="M85,-62.7317C85,-52.0679 85,-39.9145 85,-30.7455"/>
<polygon fill="midnightblue" stroke="midnightblue" points="81.5001,-62.7332 85,-72.7333 88.5001,-62.7333 81.5001,-62.7332"/>
</g>
</g>
</svg>
