<?xml version="1.0" encoding="UTF-8" standalone="no"?>
<!DOCTYPE svg PUBLIC "-//W3C//DTD SVG 1.1//EN"
 "http://www.w3.org/Graphics/SVG/1.1/DTD/svg11.dtd">
<!-- Generated by graphviz version 2.38.0 (20140413.2041)
 -->
<!-- Title: /home/ashiroji/Arduino/libraries/CoolBoard/irene3000.cpp Pages: 1 -->
<svg width="306pt" height="151pt"
 viewBox="0.00 0.00 305.50 151.00" xmlns="http://www.w3.org/2000/svg" xmlns:xlink="http://www.w3.org/1999/xlink">
<g id="graph0" class="graph" transform="scale(1 1) rotate(0) translate(4 147)">
<title>/home/ashiroji/Arduino/libraries/CoolBoard/irene3000.cpp</title>
<polygon fill="white" stroke="none" points="-4,4 -4,-147 301.5,-147 301.5,4 -4,4"/>
<!-- Node0 -->
<g id="node1" class="node"><title>Node0</title>
<polygon fill="#bfbfbf" stroke="black" points="45,-112.5 45,-142.5 211,-142.5 211,-112.5 45,-112.5"/>
<text text-anchor="start" x="53" y="-130.5" font-family="Helvetica,sans-Serif" font-size="10.00">/home/ashiroji/Arduino</text>
<text text-anchor="middle" x="128" y="-119.5" font-family="Helvetica,sans-Serif" font-size="10.00">/libraries/CoolBoard/irene3000.cpp</text>
</g>
<!-- Node1 -->
<g id="node2" class="node"><title>Node1</title>
<polygon fill="white" stroke="#bfbfbf" points="0,-56.5 0,-75.5 38,-75.5 38,-56.5 0,-56.5"/>
<text text-anchor="middle" x="19" y="-63.5" font-family="Helvetica,sans-Serif" font-size="10.00">FS.h</text>
</g>
<!-- Node0&#45;&gt;Node1 -->
<g id="edge1" class="edge"><title>Node0&#45;&gt;Node1</title>
<path fill="none" stroke="midnightblue" d="M102.169,-112.399C84.5334,-102.773 61.2996,-90.0902 43.8724,-80.5772"/>
<polygon fill="midnightblue" stroke="midnightblue" points="45.3149,-77.3771 34.8605,-75.6578 41.9609,-83.5213 45.3149,-77.3771"/>
</g>
<!-- Node2 -->
<g id="node3" class="node"><title>Node2</title>
<polygon fill="white" stroke="#bfbfbf" points="19,-0.5 19,-19.5 125,-19.5 125,-0.5 19,-0.5"/>
<text text-anchor="middle" x="72" y="-7.5" font-family="Helvetica,sans-Serif" font-size="10.00">Adafruit_ADS1015.h</text>
</g>
<!-- Node0&#45;&gt;Node2 -->
<g id="edge2" class="edge"><title>Node0&#45;&gt;Node2</title>
<path fill="none" stroke="midnightblue" d="M112.596,-112.484C103.197,-103.07 91.7307,-89.8848 85,-76 77.9407,-61.4374 74.7143,-43.2601 73.2399,-29.8336"/>
<polygon fill="midnightblue" stroke="midnightblue" points="76.7254,-29.5135 72.3678,-19.8563 69.752,-30.1231 76.7254,-29.5135"/>
</g>
<!-- Node3 -->
<g id="node4" class="node"><title>Node3</title>
<polygon fill="white" stroke="#bfbfbf" points="155,-0.5 155,-19.5 213,-19.5 213,-0.5 155,-0.5"/>
<text text-anchor="middle" x="184" y="-7.5" font-family="Helvetica,sans-Serif" font-size="10.00">Arduino.h</text>
</g>
<!-- Node0&#45;&gt;Node3 -->
<g id="edge3" class="edge"><title>Node0&#45;&gt;Node3</title>
<path fill="none" stroke="midnightblue" d="M143.404,-112.484C152.803,-103.07 164.269,-89.8848 171,-76 178.059,-61.4374 181.286,-43.2601 182.76,-29.8336"/>
<polygon fill="midnightblue" stroke="midnightblue" points="186.248,-30.1231 183.632,-19.8563 179.275,-29.5135 186.248,-30.1231"/>
</g>
<!-- Node4 -->
<g id="node5" class="node"><title>Node4</title>
<g id="a_node5"><a xlink:href="$Irene3000_8h.html" xlink:title="Irene3000 Header File. ">
<polygon fill="white" stroke="black" points="94,-56.5 94,-75.5 162,-75.5 162,-56.5 94,-56.5"/>
<text text-anchor="middle" x="128" y="-63.5" font-family="Helvetica,sans-Serif" font-size="10.00">Irene3000.h</text>
</a>
</g>
</g>
<!-- Node0&#45;&gt;Node4 -->
<g id="edge4" class="edge"><title>Node0&#45;&gt;Node4</title>
<path fill="none" stroke="midnightblue" d="M128,-112.399C128,-104.466 128,-94.458 128,-85.8583"/>
<polygon fill="midnightblue" stroke="midnightblue" points="131.5,-85.6577 128,-75.6578 124.5,-85.6578 131.5,-85.6577"/>
</g>
<!-- Node5 -->
<g id="node6" class="node"><title>Node5</title>
<polygon fill="white" stroke="#bfbfbf" points="218.5,-56.5 218.5,-75.5 297.5,-75.5 297.5,-56.5 218.5,-56.5"/>
<text text-anchor="middle" x="258" y="-63.5" font-family="Helvetica,sans-Serif" font-size="10.00">ArduinoJson.h</text>
</g>
<!-- Node0&#45;&gt;Node5 -->
<g id="edge7" class="edge"><title>Node0&#45;&gt;Node5</title>
<path fill="none" stroke="midnightblue" d="M158.808,-112.399C180.328,-102.55 208.837,-89.5014 229.768,-79.9217"/>
<polygon fill="midnightblue" stroke="midnightblue" points="231.448,-83.0021 239.084,-75.6578 228.534,-76.6371 231.448,-83.0021"/>
</g>
<!-- Node4&#45;&gt;Node2 -->
<g id="edge5" class="edge"><title>Node4&#45;&gt;Node2</title>
<path fill="none" stroke="midnightblue" d="M119.003,-56.324C110.806,-48.4196 98.4945,-36.5482 88.528,-26.9377"/>
<polygon fill="midnightblue" stroke="midnightblue" points="90.789,-24.2558 81.1611,-19.8339 85.9301,-29.2947 90.789,-24.2558"/>
</g>
<!-- Node4&#45;&gt;Node3 -->
<g id="edge6" class="edge"><title>Node4&#45;&gt;Node3</title>
<path fill="none" stroke="midnightblue" d="M136.997,-56.324C145.194,-48.4196 157.506,-36.5482 167.472,-26.9377"/>
<polygon fill="midnightblue" stroke="midnightblue" points="170.07,-29.2947 174.839,-19.8339 165.211,-24.2558 170.07,-29.2947"/>
</g>
</g>
</svg>
