<?xml version="1.0" encoding="UTF-8" standalone="no"?>
<!DOCTYPE svg PUBLIC "-//W3C//DTD SVG 1.1//EN"
 "http://www.w3.org/Graphics/SVG/1.1/DTD/svg11.dtd">
<!-- Generated by graphviz version 2.38.0 (20140413.2041)
 -->
<!-- Title: /home/ashiroji/Arduino/libraries/CoolBoard/Jetpack.cpp Pages: 1 -->
<svg width="259pt" height="151pt"
 viewBox="0.00 0.00 258.50 151.00" xmlns="http://www.w3.org/2000/svg" xmlns:xlink="http://www.w3.org/1999/xlink">
<g id="graph0" class="graph" transform="scale(1 1) rotate(0) translate(4 147)">
<title>/home/ashiroji/Arduino/libraries/CoolBoard/Jetpack.cpp</title>
<polygon fill="white" stroke="none" points="-4,4 -4,-147 254.5,-147 254.5,4 -4,4"/>
<!-- Node0 -->
<g id="node1" class="node"><title>Node0</title>
<polygon fill="#bfbfbf" stroke="black" points="21,-112.5 21,-142.5 179,-142.5 179,-112.5 21,-112.5"/>
<text text-anchor="start" x="29" y="-130.5" font-family="Helvetica,sans-Serif" font-size="10.00">/home/ashiroji/Arduino</text>
<text text-anchor="middle" x="100" y="-119.5" font-family="Helvetica,sans-Serif" font-size="10.00">/libraries/CoolBoard/Jetpack.cpp</text>
</g>
<!-- Node1 -->
<g id="node2" class="node"><title>Node1</title>
<polygon fill="white" stroke="#bfbfbf" points="0,-56.5 0,-75.5 38,-75.5 38,-56.5 0,-56.5"/>
<text text-anchor="middle" x="19" y="-63.5" font-family="Helvetica,sans-Serif" font-size="10.00">FS.h</text>
</g>
<!-- Node0&#45;&gt;Node1 -->
<g id="edge1" class="edge"><title>Node0&#45;&gt;Node1</title>
<path fill="none" stroke="midnightblue" d="M80.8041,-112.399C68.1845,-103.129 51.7069,-91.0254 38.9395,-81.6469"/>
<polygon fill="midnightblue" stroke="midnightblue" points="40.9176,-78.7572 30.7862,-75.6578 36.7735,-84.3987 40.9176,-78.7572"/>
</g>
<!-- Node2 -->
<g id="node3" class="node"><title>Node2</title>
<polygon fill="white" stroke="#bfbfbf" points="114,-0.5 114,-19.5 172,-19.5 172,-0.5 114,-0.5"/>
<text text-anchor="middle" x="143" y="-7.5" font-family="Helvetica,sans-Serif" font-size="10.00">Arduino.h</text>
</g>
<!-- Node0&#45;&gt;Node2 -->
<g id="edge2" class="edge"><title>Node0&#45;&gt;Node2</title>
<path fill="none" stroke="midnightblue" d="M92.1577,-112.323C85.1322,-97.5914 77.1842,-74.1918 86,-56 92.3969,-42.7996 104.752,-32.3032 116.329,-24.7794"/>
<polygon fill="midnightblue" stroke="midnightblue" points="118.155,-27.7653 124.918,-19.6099 114.546,-21.7678 118.155,-27.7653"/>
</g>
<!-- Node3 -->
<g id="node4" class="node"><title>Node3</title>
<polygon fill="white" stroke="#bfbfbf" points="94.5,-56.5 94.5,-75.5 173.5,-75.5 173.5,-56.5 94.5,-56.5"/>
<text text-anchor="middle" x="134" y="-63.5" font-family="Helvetica,sans-Serif" font-size="10.00">ArduinoJson.h</text>
</g>
<!-- Node0&#45;&gt;Node3 -->
<g id="edge3" class="edge"><title>Node0&#45;&gt;Node3</title>
<path fill="none" stroke="midnightblue" d="M108.058,-112.399C112.845,-104.021 118.956,-93.3269 124.044,-84.4229"/>
<polygon fill="midnightblue" stroke="midnightblue" points="127.13,-86.0767 129.053,-75.6578 121.052,-82.6037 127.13,-86.0767"/>
</g>
<!-- Node4 -->
<g id="node5" class="node"><title>Node4</title>
<g id="a_node5"><a xlink:href="$Jetpack_8h.html" xlink:title="Jetpack Header File. ">
<polygon fill="white" stroke="black" points="191.5,-56.5 191.5,-75.5 250.5,-75.5 250.5,-56.5 191.5,-56.5"/>
<text text-anchor="middle" x="221" y="-63.5" font-family="Helvetica,sans-Serif" font-size="10.00">Jetpack.h</text>
</a>
</g>
</g>
<!-- Node0&#45;&gt;Node4 -->
<g id="edge4" class="edge"><title>Node0&#45;&gt;Node4</title>
<path fill="none" stroke="midnightblue" d="M128.675,-112.399C148.524,-102.639 174.761,-89.7373 194.192,-80.1826"/>
<polygon fill="midnightblue" stroke="midnightblue" points="195.964,-83.2114 203.393,-75.6578 192.875,-76.9297 195.964,-83.2114"/>
</g>
<!-- Node4&#45;&gt;Node2 -->
<g id="edge5" class="edge"><title>Node4&#45;&gt;Node2</title>
<path fill="none" stroke="midnightblue" d="M208.468,-56.324C196.414,-47.979 177.973,-35.2122 163.731,-25.3524"/>
<polygon fill="midnightblue" stroke="midnightblue" points="165.715,-22.469 155.501,-19.6545 161.731,-28.2243 165.715,-22.469"/>
</g>
</g>
</svg>
