<?xml version="1.0" encoding="UTF-8" standalone="no"?>
<!DOCTYPE svg PUBLIC "-//W3C//DTD SVG 1.1//EN"
 "http://www.w3.org/Graphics/SVG/1.1/DTD/svg11.dtd">
<!-- Generated by graphviz version 2.38.0 (20140413.2041)
 -->
<!-- Title: ExternalSensors::sensor Pages: 1 -->
<svg width="132pt" height="237pt"
 viewBox="0.00 0.00 132.00 237.00" xmlns="http://www.w3.org/2000/svg" xmlns:xlink="http://www.w3.org/1999/xlink">
<g id="graph0" class="graph" transform="scale(1 1) rotate(0) translate(4 233)">
<title>ExternalSensors::sensor</title>
<polygon fill="white" stroke="none" points="-4,4 -4,-233 128,-233 128,4 -4,4"/>
<!-- Node1 -->
<g id="node1" class="node"><title>Node1</title>
<polygon fill="#bfbfbf" stroke="black" points="-7.10543e-15,-0.5 -7.10543e-15,-101.5 124,-101.5 124,-0.5 -7.10543e-15,-0.5"/>
<text text-anchor="middle" x="62" y="-89.5" font-family="Helvetica,sans-Serif" font-size="10.00">ExternalSensors::sensor</text>
<polyline fill="none" stroke="black" points="-7.10543e-15,-82.5 124,-82.5 "/>
<text text-anchor="start" x="8" y="-70.5" font-family="Helvetica,sans-Serif" font-size="10.00">+ reference</text>
<text text-anchor="start" x="8" y="-59.5" font-family="Helvetica,sans-Serif" font-size="10.00">+ type</text>
<text text-anchor="start" x="8" y="-48.5" font-family="Helvetica,sans-Serif" font-size="10.00">+ connection</text>
<text text-anchor="start" x="8" y="-37.5" font-family="Helvetica,sans-Serif" font-size="10.00">+ dataSize</text>
<text text-anchor="start" x="8" y="-26.5" font-family="Helvetica,sans-Serif" font-size="10.00">+ address</text>
<polyline fill="none" stroke="black" points="-7.10543e-15,-19.5 124,-19.5 "/>
<text text-anchor="middle" x="62" y="-7.5" font-family="Helvetica,sans-Serif" font-size="10.00"> </text>
</g>
<!-- Node2 -->
<g id="node2" class="node"><title>Node2</title>
<g id="a_node2"><a xlink:href="$classBaseExternalSensor.html" xlink:title="This class is a generic external Sensor it is a way to access real external sensor methods through ru...">
<polygon fill="white" stroke="black" points="1.5,-149.5 1.5,-228.5 122.5,-228.5 122.5,-149.5 1.5,-149.5"/>
<text text-anchor="middle" x="62" y="-216.5" font-family="Helvetica,sans-Serif" font-size="10.00">BaseExternalSensor</text>
<polyline fill="none" stroke="black" points="1.5,-209.5 122.5,-209.5 "/>
<text text-anchor="middle" x="62" y="-197.5" font-family="Helvetica,sans-Serif" font-size="10.00"> </text>
<polyline fill="none" stroke="black" points="1.5,-190.5 122.5,-190.5 "/>
<text text-anchor="start" x="9.5" y="-178.5" font-family="Helvetica,sans-Serif" font-size="10.00">+ BaseExternalSensor()</text>
<text text-anchor="start" x="9.5" y="-167.5" font-family="Helvetica,sans-Serif" font-size="10.00">+ begin()</text>
<text text-anchor="start" x="9.5" y="-156.5" font-family="Helvetica,sans-Serif" font-size="10.00">+ read()</text>
</a>
</g>
</g>
<!-- Node2&#45;&gt;Node1 -->
<g id="edge1" class="edge"><title>Node2&#45;&gt;Node1</title>
<path fill="none" stroke="#404040" d="M62,-149.392C62,-138.434 62,-126.216 62,-114.238"/>
<polygon fill="none" stroke="#404040" points="62.0001,-113.905 58,-107.905 62,-101.905 66,-107.905 62.0001,-113.905"/>
<text text-anchor="middle" x="87.5" y="-123" font-family="Helvetica,sans-Serif" font-size="10.00"> +exSensor</text>
</g>
</g>
</svg>
