<?xml version="1.0" encoding="UTF-8" standalone="no"?>
<!DOCTYPE svg PUBLIC "-//W3C//DTD SVG 1.1//EN"
 "http://www.w3.org/Graphics/SVG/1.1/DTD/svg11.dtd">
<!-- Generated by graphviz version 2.38.0 (20140413.2041)
 -->
<!-- Title: WiFiManager::handleNotFound Pages: 1 -->
<svg width="530pt" height="142pt"
 viewBox="0.00 0.00 530.00 142.00" xmlns="http://www.w3.org/2000/svg" xmlns:xlink="http://www.w3.org/1999/xlink">
<g id="graph0" class="graph" transform="scale(1 1) rotate(0) translate(4 138)">
<title>WiFiManager::handleNotFound</title>
<polygon fill="white" stroke="none" points="-4,4 -4,-138 526,-138 526,4 -4,4"/>
<!-- Node82 -->
<g id="node1" class="node"><title>Node82</title>
<polygon fill="#bfbfbf" stroke="black" points="0,-57.5 0,-76.5 152,-76.5 152,-57.5 0,-57.5"/>
<text text-anchor="middle" x="76" y="-64.5" font-family="Helvetica,sans-Serif" font-size="10.00">WiFiManager::handleNotFound</text>
</g>
<!-- Node83 -->
<g id="node2" class="node"><title>Node83</title>
<g id="a_node2"><a xlink:href="$d4/dc8/class_wi_fi_manager.html#a4ef4298deb224212e5242c456669a973" xlink:title="WiFiManager::captivePortal">
<polygon fill="white" stroke="black" points="193.5,-76.5 193.5,-95.5 330.5,-95.5 330.5,-76.5 193.5,-76.5"/>
<text text-anchor="middle" x="262" y="-83.5" font-family="Helvetica,sans-Serif" font-size="10.00">WiFiManager::captivePortal</text>
</a>
</g>
</g>
<!-- Node82&#45;&gt;Node83 -->
<g id="edge1" class="edge"><title>Node82&#45;&gt;Node83</title>
<path fill="none" stroke="midnightblue" d="M152.105,-74.7554C162.316,-75.8098 172.813,-76.8938 183.072,-77.9531"/>
<polygon fill="midnightblue" stroke="midnightblue" points="182.925,-81.4565 193.232,-79.0022 183.644,-74.4935 182.925,-81.4565"/>
</g>
<!-- Node87 -->
<g id="node6" class="node"><title>Node87</title>
<g id="a_node6"><a xlink:href="$d4/dc8/class_wi_fi_manager.html#abed7fbbdab409fc8aba2a5c00f3d2db1" xlink:title="WiFiManager::handleFileRead">
<polygon fill="white" stroke="black" points="188,-38.5 188,-57.5 336,-57.5 336,-38.5 188,-38.5"/>
<text text-anchor="middle" x="262" y="-45.5" font-family="Helvetica,sans-Serif" font-size="10.00">WiFiManager::handleFileRead</text>
</a>
</g>
</g>
<!-- Node82&#45;&gt;Node87 -->
<g id="edge5" class="edge"><title>Node82&#45;&gt;Node87</title>
<path fill="none" stroke="midnightblue" d="M152.105,-59.2446C160.605,-58.3669 169.303,-57.4687 177.897,-56.5813"/>
<polygon fill="midnightblue" stroke="midnightblue" points="178.332,-60.0551 187.92,-55.5463 177.613,-53.0921 178.332,-60.0551"/>
</g>
<!-- Node84 -->
<g id="node3" class="node"><title>Node84</title>
<g id="a_node3"><a xlink:href="$d4/dc8/class_wi_fi_manager.html#a9c78a8774f746ec22a99d03a53baa607" xlink:title="WiFiManager::isIp">
<polygon fill="white" stroke="black" points="399,-114.5 399,-133.5 495,-133.5 495,-114.5 399,-114.5"/>
<text text-anchor="middle" x="447" y="-121.5" font-family="Helvetica,sans-Serif" font-size="10.00">WiFiManager::isIp</text>
</a>
</g>
</g>
<!-- Node83&#45;&gt;Node84 -->
<g id="edge2" class="edge"><title>Node83&#45;&gt;Node84</title>
<path fill="none" stroke="midnightblue" d="M309.179,-95.589C333.763,-100.694 364.186,-107.011 390.097,-112.392"/>
<polygon fill="midnightblue" stroke="midnightblue" points="389.651,-115.874 400.153,-114.48 391.074,-109.02 389.651,-115.874"/>
</g>
<!-- Node85 -->
<g id="node4" class="node"><title>Node85</title>
<g id="a_node4"><a xlink:href="$d4/dc8/class_wi_fi_manager.html#ae5f595c670ccbcf9a191baf50f5c7c26" xlink:title="WiFiManager::DEBUG_WM">
<polygon fill="white" stroke="black" points="377,-38.5 377,-57.5 517,-57.5 517,-38.5 377,-38.5"/>
<text text-anchor="middle" x="447" y="-45.5" font-family="Helvetica,sans-Serif" font-size="10.00">WiFiManager::DEBUG_WM</text>
</a>
</g>
</g>
<!-- Node83&#45;&gt;Node85 -->
<g id="edge3" class="edge"><title>Node83&#45;&gt;Node85</title>
<path fill="none" stroke="midnightblue" d="M309.179,-76.411C333.763,-71.3061 364.186,-64.9887 390.097,-59.6082"/>
<polygon fill="midnightblue" stroke="midnightblue" points="391.074,-62.9802 400.153,-57.5201 389.651,-56.1264 391.074,-62.9802"/>
</g>
<!-- Node86 -->
<g id="node5" class="node"><title>Node86</title>
<g id="a_node5"><a xlink:href="$d4/dc8/class_wi_fi_manager.html#a8dfd64cefecbdf26242b16eca335c20b" xlink:title="WiFiManager::toStringIp">
<polygon fill="white" stroke="black" points="386,-76.5 386,-95.5 508,-95.5 508,-76.5 386,-76.5"/>
<text text-anchor="middle" x="447" y="-83.5" font-family="Helvetica,sans-Serif" font-size="10.00">WiFiManager::toStringIp</text>
</a>
</g>
</g>
<!-- Node83&#45;&gt;Node86 -->
<g id="edge4" class="edge"><title>Node83&#45;&gt;Node86</title>
<path fill="none" stroke="midnightblue" d="M330.623,-86C345.348,-86 360.96,-86 375.783,-86"/>
<polygon fill="midnightblue" stroke="midnightblue" points="375.899,-89.5001 385.899,-86 375.899,-82.5001 375.899,-89.5001"/>
</g>
<!-- Node87&#45;&gt;Node85 -->
<g id="edge6" class="edge"><title>Node87&#45;&gt;Node85</title>
<path fill="none" stroke="midnightblue" d="M336.115,-48C346.195,-48 356.586,-48 366.77,-48"/>
<polygon fill="midnightblue" stroke="midnightblue" points="366.866,-51.5001 376.866,-48 366.866,-44.5001 366.866,-51.5001"/>
</g>
<!-- Node88 -->
<g id="node7" class="node"><title>Node88</title>
<g id="a_node7"><a xlink:href="$d4/dc8/class_wi_fi_manager.html#a40f123fd290c3e331c9785d19a88f3b8" xlink:title="WiFiManager::getContentType">
<polygon fill="white" stroke="black" points="372,-0.5 372,-19.5 522,-19.5 522,-0.5 372,-0.5"/>
<text text-anchor="middle" x="447" y="-7.5" font-family="Helvetica,sans-Serif" font-size="10.00">WiFiManager::getContentType</text>
</a>
</g>
</g>
<!-- Node87&#45;&gt;Node88 -->
<g id="edge7" class="edge"><title>Node87&#45;&gt;Node88</title>
<path fill="none" stroke="midnightblue" d="M309.179,-38.411C333.763,-33.3061 364.186,-26.9887 390.097,-21.6082"/>
<polygon fill="midnightblue" stroke="midnightblue" points="391.074,-24.9802 400.153,-19.5201 389.651,-18.1264 391.074,-24.9802"/>
</g>
</g>
</svg>
