<?xml version="1.0" encoding="UTF-8" standalone="no"?>
<!DOCTYPE svg PUBLIC "-//W3C//DTD SVG 1.1//EN"
 "http://www.w3.org/Graphics/SVG/1.1/DTD/svg11.dtd">
<!-- Generated by graphviz version 2.38.0 (20140413.2041)
 -->
<!-- Title: WiFiManager::getContentType Pages: 1 -->
<svg width="863pt" height="53pt"
 viewBox="0.00 0.00 863.00 52.50" xmlns="http://www.w3.org/2000/svg" xmlns:xlink="http://www.w3.org/1999/xlink">
<g id="graph0" class="graph" transform="scale(1 1) rotate(0) translate(4 48.5)">
<title>WiFiManager::getContentType</title>
<polygon fill="white" stroke="none" points="-4,4 -4,-48.5 859,-48.5 859,4 -4,4"/>
<!-- Node58 -->
<g id="node1" class="node"><title>Node58</title>
<polygon fill="#bfbfbf" stroke="black" points="0,-19.5 0,-38.5 150,-38.5 150,-19.5 0,-19.5"/>
<text text-anchor="middle" x="75" y="-26.5" font-family="Helvetica,sans-Serif" font-size="10.00">WiFiManager::getContentType</text>
</g>
<!-- Node59 -->
<g id="node2" class="node"><title>Node59</title>
<g id="a_node2"><a xlink:href="$d4/dc8/class_wi_fi_manager.html#abed7fbbdab409fc8aba2a5c00f3d2db1" xlink:title="WiFiManager::handleFileRead">
<polygon fill="white" stroke="black" points="186,-19.5 186,-38.5 334,-38.5 334,-19.5 186,-19.5"/>
<text text-anchor="middle" x="260" y="-26.5" font-family="Helvetica,sans-Serif" font-size="10.00">WiFiManager::handleFileRead</text>
</a>
</g>
</g>
<!-- Node58&#45;&gt;Node59 -->
<g id="edge1" class="edge"><title>Node58&#45;&gt;Node59</title>
<path fill="none" stroke="midnightblue" d="M160.193,-29C168.782,-29 177.457,-29 185.913,-29"/>
<polygon fill="midnightblue" stroke="midnightblue" points="160.169,-25.5001 150.169,-29 160.169,-32.5001 160.169,-25.5001"/>
</g>
<!-- Node60 -->
<g id="node3" class="node"><title>Node60</title>
<g id="a_node3"><a xlink:href="$d4/dc8/class_wi_fi_manager.html#a1743325d0dd86d011df96b22d2a0ddd6" xlink:title="WiFiManager::setupConfig\lPortal">
<polygon fill="white" stroke="black" points="558,-14 558,-44 691,-44 691,-14 558,-14"/>
<text text-anchor="start" x="566" y="-32" font-family="Helvetica,sans-Serif" font-size="10.00">WiFiManager::setupConfig</text>
<text text-anchor="middle" x="624.5" y="-21" font-family="Helvetica,sans-Serif" font-size="10.00">Portal</text>
</a>
</g>
</g>
<!-- Node59&#45;&gt;Node60 -->
<g id="edge2" class="edge"><title>Node59&#45;&gt;Node60</title>
<path fill="none" stroke="midnightblue" d="M344.553,-29C409.403,-29 498.05,-29 557.864,-29"/>
<polygon fill="midnightblue" stroke="midnightblue" points="344.357,-25.5001 334.357,-29 344.357,-32.5001 344.357,-25.5001"/>
</g>
<!-- Node62 -->
<g id="node5" class="node"><title>Node62</title>
<g id="a_node5"><a xlink:href="$d4/dc8/class_wi_fi_manager.html#a7d01f7de3e4b76acdabffac79fa3d0ab" xlink:title="WiFiManager::handleNotFound">
<polygon fill="white" stroke="black" points="370,-0.5 370,-19.5 522,-19.5 522,-0.5 370,-0.5"/>
<text text-anchor="middle" x="446" y="-7.5" font-family="Helvetica,sans-Serif" font-size="10.00">WiFiManager::handleNotFound</text>
</a>
</g>
</g>
<!-- Node59&#45;&gt;Node62 -->
<g id="edge4" class="edge"><title>Node59&#45;&gt;Node62</title>
<path fill="none" stroke="midnightblue" d="M344.227,-20.406C352.78,-19.5227 361.435,-18.6289 369.894,-17.7555"/>
<polygon fill="midnightblue" stroke="midnightblue" points="343.838,-16.9274 334.25,-21.4361 344.557,-23.8904 343.838,-16.9274"/>
</g>
<!-- Node61 -->
<g id="node4" class="node"><title>Node61</title>
<g id="a_node4"><a xlink:href="$d4/dc8/class_wi_fi_manager.html#afaca5021edffb4d9a5bd39f7b0f7a686" xlink:title="WiFiManager::startConfig\lPortal">
<polygon fill="white" stroke="black" points="727,-14 727,-44 855,-44 855,-14 727,-14"/>
<text text-anchor="start" x="735" y="-32" font-family="Helvetica,sans-Serif" font-size="10.00">WiFiManager::startConfig</text>
<text text-anchor="middle" x="791" y="-21" font-family="Helvetica,sans-Serif" font-size="10.00">Portal</text>
</a>
</g>
</g>
<!-- Node60&#45;&gt;Node61 -->
<g id="edge3" class="edge"><title>Node60&#45;&gt;Node61</title>
<path fill="none" stroke="midnightblue" d="M701.706,-29C710.16,-29 718.699,-29 726.964,-29"/>
<polygon fill="midnightblue" stroke="midnightblue" points="701.461,-25.5001 691.461,-29 701.461,-32.5001 701.461,-25.5001"/>
</g>
<!-- Node62&#45;&gt;Node60 -->
<g id="edge5" class="edge"><title>Node62&#45;&gt;Node60</title>
<path fill="none" stroke="midnightblue" d="M532.22,-19.1738C540.865,-20.1045 549.55,-21.0394 557.941,-21.9427"/>
<polygon fill="midnightblue" stroke="midnightblue" points="532.425,-15.6758 522.108,-18.0853 531.676,-22.6355 532.425,-15.6758"/>
</g>
</g>
</svg>
