<?xml version="1.0" encoding="UTF-8" standalone="no"?>
<!DOCTYPE svg PUBLIC "-//W3C//DTD SVG 1.1//EN"
 "http://www.w3.org/Graphics/SVG/1.1/DTD/svg11.dtd">
<!-- Generated by graphviz version 2.38.0 (20140413.2041)
 -->
<!-- Title: CoolBoardSensors::read Pages: 1 -->
<svg width="504pt" height="294pt"
 viewBox="0.00 0.00 504.00 294.00" xmlns="http://www.w3.org/2000/svg" xmlns:xlink="http://www.w3.org/1999/xlink">
<g id="graph0" class="graph" transform="scale(1 1) rotate(0) translate(4 290)">
<title>CoolBoardSensors::read</title>
<polygon fill="white" stroke="none" points="-4,4 -4,-290 500,-290 500,4 -4,4"/>
<!-- Node29 -->
<g id="node1" class="node"><title>Node29</title>
<polygon fill="#bfbfbf" stroke="black" points="0,-133.5 0,-152.5 123,-152.5 123,-133.5 0,-133.5"/>
<text text-anchor="middle" x="61.5" y="-140.5" font-family="Helvetica,sans-Serif" font-size="10.00">CoolBoardSensors::read</text>
</g>
<!-- Node30 -->
<g id="node2" class="node"><title>Node30</title>
<g id="a_node2"><a xlink:href="../../dd/d67/class_cool_s_i114_x.html#a42e0e574256341443c647a4c0eda87d5" target="_top" xlink:title="CoolSI114X::ReadVisible">
<polygon fill="white" stroke="black" points="175.5,-266.5 175.5,-285.5 303.5,-285.5 303.5,-266.5 175.5,-266.5"/>
<text text-anchor="middle" x="239.5" y="-273.5" font-family="Helvetica,sans-Serif" font-size="10.00">CoolSI114X::ReadVisible</text>
</a>
</g>
</g>
<!-- Node29&#45;&gt;Node30 -->
<g id="edge1" class="edge"><title>Node29&#45;&gt;Node30</title>
<path fill="none" stroke="midnightblue" d="M67.8014,-152.744C80.4352,-174.989 114.606,-229.692 159,-257 162.437,-259.114 166.092,-260.993 169.873,-262.663"/>
<polygon fill="midnightblue" stroke="midnightblue" points="168.893,-266.037 179.482,-266.399 171.429,-259.513 168.893,-266.037"/>
</g>
<!-- Node32 -->
<g id="node4" class="node"><title>Node32</title>
<g id="a_node4"><a xlink:href="../../dd/d67/class_cool_s_i114_x.html#abc536ee7ae8e3ba9d1069acc3889a2cf" target="_top" xlink:title="CoolSI114X::ReadIR">
<polygon fill="white" stroke="black" points="185,-228.5 185,-247.5 294,-247.5 294,-228.5 185,-228.5"/>
<text text-anchor="middle" x="239.5" y="-235.5" font-family="Helvetica,sans-Serif" font-size="10.00">CoolSI114X::ReadIR</text>
</a>
</g>
</g>
<!-- Node29&#45;&gt;Node32 -->
<g id="edge3" class="edge"><title>Node29&#45;&gt;Node32</title>
<path fill="none" stroke="midnightblue" d="M71.6708,-152.54C87.7864,-168.732 122.914,-201.531 159,-219 164.029,-221.435 169.392,-223.57 174.867,-225.44"/>
<polygon fill="midnightblue" stroke="midnightblue" points="174.207,-228.9 184.795,-228.528 176.286,-222.216 174.207,-228.9"/>
</g>
<!-- Node33 -->
<g id="node5" class="node"><title>Node33</title>
<g id="a_node5"><a xlink:href="../../dd/d67/class_cool_s_i114_x.html#a14ced664d74e93438440b0274109c111" target="_top" xlink:title="CoolSI114X::ReadUV">
<polygon fill="white" stroke="black" points="183,-190.5 183,-209.5 296,-209.5 296,-190.5 183,-190.5"/>
<text text-anchor="middle" x="239.5" y="-197.5" font-family="Helvetica,sans-Serif" font-size="10.00">CoolSI114X::ReadUV</text>
</a>
</g>
</g>
<!-- Node29&#45;&gt;Node33 -->
<g id="edge5" class="edge"><title>Node29&#45;&gt;Node33</title>
<path fill="none" stroke="midnightblue" d="M84.4129,-152.651C103.768,-160.929 132.893,-172.785 159,-181 166.978,-183.51 175.496,-185.872 183.883,-188.02"/>
<polygon fill="midnightblue" stroke="midnightblue" points="183.08,-191.427 193.628,-190.44 184.767,-184.633 183.08,-191.427"/>
</g>
<!-- Node34 -->
<g id="node6" class="node"><title>Node34</title>
<g id="a_node6"><a xlink:href="../../df/dcf/class_b_m_e280.html#ada6e799917afb4f228e6253bc56ffe75" target="_top" xlink:title="BME280::readFloatPressure">
<polygon fill="white" stroke="black" points="169.5,-152.5 169.5,-171.5 309.5,-171.5 309.5,-152.5 169.5,-152.5"/>
<text text-anchor="middle" x="239.5" y="-159.5" font-family="Helvetica,sans-Serif" font-size="10.00">BME280::readFloatPressure</text>
</a>
</g>
</g>
<!-- Node29&#45;&gt;Node34 -->
<g id="edge7" class="edge"><title>Node29&#45;&gt;Node34</title>
<path fill="none" stroke="midnightblue" d="M123.069,-149.539C134.722,-150.797 147.087,-152.132 159.229,-153.442"/>
<polygon fill="midnightblue" stroke="midnightblue" points="159.037,-156.942 169.355,-154.535 159.788,-149.982 159.037,-156.942"/>
</g>
<!-- Node36 -->
<g id="node8" class="node"><title>Node36</title>
<g id="a_node8"><a xlink:href="../../df/dcf/class_b_m_e280.html#a42ea7232039eebf5aadb391ef6132c35" target="_top" xlink:title="BME280::readFloatHumidity">
<polygon fill="white" stroke="black" points="169.5,-114.5 169.5,-133.5 309.5,-133.5 309.5,-114.5 169.5,-114.5"/>
<text text-anchor="middle" x="239.5" y="-121.5" font-family="Helvetica,sans-Serif" font-size="10.00">BME280::readFloatHumidity</text>
</a>
</g>
</g>
<!-- Node29&#45;&gt;Node36 -->
<g id="edge9" class="edge"><title>Node29&#45;&gt;Node36</title>
<path fill="none" stroke="midnightblue" d="M123.069,-136.461C134.722,-135.203 147.087,-133.868 159.229,-132.558"/>
<polygon fill="midnightblue" stroke="midnightblue" points="159.788,-136.018 169.355,-131.465 159.037,-129.058 159.788,-136.018"/>
</g>
<!-- Node37 -->
<g id="node9" class="node"><title>Node37</title>
<g id="a_node9"><a xlink:href="../../df/dcf/class_b_m_e280.html#afffdd1d7ded9e1f92200e70669019d97" target="_top" xlink:title="BME280::readTempC">
<polygon fill="white" stroke="black" points="184,-76.5 184,-95.5 295,-95.5 295,-76.5 184,-76.5"/>
<text text-anchor="middle" x="239.5" y="-83.5" font-family="Helvetica,sans-Serif" font-size="10.00">BME280::readTempC</text>
</a>
</g>
</g>
<!-- Node29&#45;&gt;Node37 -->
<g id="edge11" class="edge"><title>Node29&#45;&gt;Node37</title>
<path fill="none" stroke="midnightblue" d="M84.4129,-133.349C103.768,-125.071 132.893,-113.215 159,-105 166.978,-102.49 175.496,-100.128 183.883,-97.9797"/>
<polygon fill="midnightblue" stroke="midnightblue" points="184.767,-101.367 193.628,-95.5598 183.08,-94.5731 184.767,-101.367"/>
</g>
<!-- Node38 -->
<g id="node10" class="node"><title>Node38</title>
<g id="a_node10"><a xlink:href="../../de/d46/class_cool_board_sensors.html#a6944b6ea7bce8e2fce1b434acfd9d5f3" target="_top" xlink:title="CoolBoardSensors::readVBat">
<polygon fill="white" stroke="black" points="167,-38.5 167,-57.5 312,-57.5 312,-38.5 167,-38.5"/>
<text text-anchor="middle" x="239.5" y="-45.5" font-family="Helvetica,sans-Serif" font-size="10.00">CoolBoardSensors::readVBat</text>
</a>
</g>
</g>
<!-- Node29&#45;&gt;Node38 -->
<g id="edge13" class="edge"><title>Node29&#45;&gt;Node38</title>
<path fill="none" stroke="midnightblue" d="M71.6708,-133.46C87.7864,-117.268 122.914,-84.4693 159,-67 163.949,-64.6039 169.222,-62.4979 174.607,-60.649"/>
<polygon fill="midnightblue" stroke="midnightblue" points="175.876,-63.9192 184.374,-57.5916 173.785,-57.2388 175.876,-63.9192"/>
</g>
<!-- Node39 -->
<g id="node11" class="node"><title>Node39</title>
<g id="a_node11"><a xlink:href="../../de/d46/class_cool_board_sensors.html#a8761bff50373c485f4465c8db47d0633" target="_top" xlink:title="CoolBoardSensors::readMoisture">
<polygon fill="white" stroke="black" points="159,-0.5 159,-19.5 320,-19.5 320,-0.5 159,-0.5"/>
<text text-anchor="middle" x="239.5" y="-7.5" font-family="Helvetica,sans-Serif" font-size="10.00">CoolBoardSensors::readMoisture</text>
</a>
</g>
</g>
<!-- Node29&#45;&gt;Node39 -->
<g id="edge14" class="edge"><title>Node29&#45;&gt;Node39</title>
<path fill="none" stroke="midnightblue" d="M67.8014,-133.256C80.4352,-111.011 114.606,-56.3078 159,-29 162.437,-26.8856 166.092,-25.0066 169.873,-23.3366"/>
<polygon fill="midnightblue" stroke="midnightblue" points="171.429,-26.4869 179.482,-19.6013 168.893,-19.9626 171.429,-26.4869"/>
</g>
<!-- Node31 -->
<g id="node3" class="node"><title>Node31</title>
<g id="a_node3"><a xlink:href="../../dd/d67/class_cool_s_i114_x.html#a1d25c9e137874af529804c2ec796a6b9" target="_top" xlink:title="CoolSI114X::ReadHalfWord">
<polygon fill="white" stroke="black" points="356,-228.5 356,-247.5 496,-247.5 496,-228.5 356,-228.5"/>
<text text-anchor="middle" x="426" y="-235.5" font-family="Helvetica,sans-Serif" font-size="10.00">CoolSI114X::ReadHalfWord</text>
</a>
</g>
</g>
<!-- Node30&#45;&gt;Node31 -->
<g id="edge2" class="edge"><title>Node30&#45;&gt;Node31</title>
<path fill="none" stroke="midnightblue" d="M287.057,-266.411C311.843,-261.306 342.515,-254.989 368.639,-249.608"/>
<polygon fill="midnightblue" stroke="midnightblue" points="369.689,-252.965 378.778,-247.52 368.277,-246.109 369.689,-252.965"/>
</g>
<!-- Node32&#45;&gt;Node31 -->
<g id="edge4" class="edge"><title>Node32&#45;&gt;Node31</title>
<path fill="none" stroke="midnightblue" d="M294.361,-238C310.454,-238 328.444,-238 345.805,-238"/>
<polygon fill="midnightblue" stroke="midnightblue" points="345.935,-241.5 355.935,-238 345.935,-234.5 345.935,-241.5"/>
</g>
<!-- Node33&#45;&gt;Node31 -->
<g id="edge6" class="edge"><title>Node33&#45;&gt;Node31</title>
<path fill="none" stroke="midnightblue" d="M287.057,-209.589C311.843,-214.694 342.515,-221.011 368.639,-226.392"/>
<polygon fill="midnightblue" stroke="midnightblue" points="368.277,-229.891 378.778,-228.48 369.689,-223.035 368.277,-229.891"/>
</g>
<!-- Node35 -->
<g id="node7" class="node"><title>Node35</title>
<g id="a_node7"><a xlink:href="../../df/dcf/class_b_m_e280.html#a1bbd14c8591966df531e40085342ff71" target="_top" xlink:title="BME280::readRegister">
<polygon fill="white" stroke="black" points="368,-114.5 368,-133.5 484,-133.5 484,-114.5 368,-114.5"/>
<text text-anchor="middle" x="426" y="-121.5" font-family="Helvetica,sans-Serif" font-size="10.00">BME280::readRegister</text>
</a>
</g>
</g>
<!-- Node34&#45;&gt;Node35 -->
<g id="edge8" class="edge"><title>Node34&#45;&gt;Node35</title>
<path fill="none" stroke="midnightblue" d="M287.057,-152.411C311.843,-147.306 342.515,-140.989 368.639,-135.608"/>
<polygon fill="midnightblue" stroke="midnightblue" points="369.689,-138.965 378.778,-133.52 368.277,-132.109 369.689,-138.965"/>
</g>
<!-- Node36&#45;&gt;Node35 -->
<g id="edge10" class="edge"><title>Node36&#45;&gt;Node35</title>
<path fill="none" stroke="midnightblue" d="M309.726,-124C325.411,-124 342.045,-124 357.651,-124"/>
<polygon fill="midnightblue" stroke="midnightblue" points="357.738,-127.5 367.738,-124 357.738,-120.5 357.738,-127.5"/>
</g>
<!-- Node37&#45;&gt;Node35 -->
<g id="edge12" class="edge"><title>Node37&#45;&gt;Node35</title>
<path fill="none" stroke="midnightblue" d="M287.057,-95.589C311.843,-100.694 342.515,-107.011 368.639,-112.392"/>
<polygon fill="midnightblue" stroke="midnightblue" points="368.277,-115.891 378.778,-114.48 369.689,-109.035 368.277,-115.891"/>
</g>
</g>
</svg>
