<?xml version="1.0" encoding="UTF-8" standalone="no"?>
<!DOCTYPE svg PUBLIC "-//W3C//DTD SVG 1.1//EN"
 "http://www.w3.org/Graphics/SVG/1.1/DTD/svg11.dtd">
<!-- Generated by graphviz version 2.38.0 (20140413.2041)
 -->
<!-- Title: CoolBoardSensors::read Pages: 1 -->
<svg width="504pt" height="294pt"
 viewBox="0.00 0.00 504.00 294.00" xmlns="http://www.w3.org/2000/svg" xmlns:xlink="http://www.w3.org/1999/xlink">
<g id="graph0" class="graph" transform="scale(1 1) rotate(0) translate(4 290)">
<title>CoolBoardSensors::read</title>
<polygon fill="white" stroke="none" points="-4,4 -4,-290 500,-290 500,4 -4,4"/>
<!-- Node15 -->
<g id="node1" class="node"><title>Node15</title>
<polygon fill="#bfbfbf" stroke="black" points="0,-133.5 0,-152.5 123,-152.5 123,-133.5 0,-133.5"/>
<text text-anchor="middle" x="61.5" y="-140.5" font-family="Helvetica,sans-Serif" font-size="10.00">CoolBoardSensors::read</text>
</g>
<!-- Node16 -->
<g id="node2" class="node"><title>Node16</title>
<g id="a_node2"><a xlink:href="../../df/dcf/class_b_m_e280.html#a42ea7232039eebf5aadb391ef6132c35" target="_top" xlink:title="BME280::readFloatHumidity">
<polygon fill="white" stroke="black" points="169.5,-190.5 169.5,-209.5 309.5,-209.5 309.5,-190.5 169.5,-190.5"/>
<text text-anchor="middle" x="239.5" y="-197.5" font-family="Helvetica,sans-Serif" font-size="10.00">BME280::readFloatHumidity</text>
</a>
</g>
</g>
<!-- Node15&#45;&gt;Node16 -->
<g id="edge1" class="edge"><title>Node15&#45;&gt;Node16</title>
<path fill="none" stroke="midnightblue" d="M84.4129,-152.651C103.768,-160.929 132.893,-172.785 159,-181 166.978,-183.51 175.496,-185.872 183.883,-188.02"/>
<polygon fill="midnightblue" stroke="midnightblue" points="183.08,-191.427 193.628,-190.44 184.767,-184.633 183.08,-191.427"/>
</g>
<!-- Node18 -->
<g id="node4" class="node"><title>Node18</title>
<g id="a_node4"><a xlink:href="../../df/dcf/class_b_m_e280.html#ada6e799917afb4f228e6253bc56ffe75" target="_top" xlink:title="BME280::readFloatPressure">
<polygon fill="white" stroke="black" points="169.5,-266.5 169.5,-285.5 309.5,-285.5 309.5,-266.5 169.5,-266.5"/>
<text text-anchor="middle" x="239.5" y="-273.5" font-family="Helvetica,sans-Serif" font-size="10.00">BME280::readFloatPressure</text>
</a>
</g>
</g>
<!-- Node15&#45;&gt;Node18 -->
<g id="edge3" class="edge"><title>Node15&#45;&gt;Node18</title>
<path fill="none" stroke="midnightblue" d="M67.8014,-152.744C80.4352,-174.989 114.606,-229.692 159,-257 162.437,-259.114 166.092,-260.993 169.873,-262.663"/>
<polygon fill="midnightblue" stroke="midnightblue" points="168.893,-266.037 179.482,-266.399 171.429,-259.513 168.893,-266.037"/>
</g>
<!-- Node19 -->
<g id="node5" class="node"><title>Node19</title>
<g id="a_node5"><a xlink:href="../../dd/d67/class_cool_s_i114_x.html#abc536ee7ae8e3ba9d1069acc3889a2cf" target="_top" xlink:title="CoolSI114X::ReadIR">
<polygon fill="white" stroke="black" points="185,-76.5 185,-95.5 294,-95.5 294,-76.5 185,-76.5"/>
<text text-anchor="middle" x="239.5" y="-83.5" font-family="Helvetica,sans-Serif" font-size="10.00">CoolSI114X::ReadIR</text>
</a>
</g>
</g>
<!-- Node15&#45;&gt;Node19 -->
<g id="edge5" class="edge"><title>Node15&#45;&gt;Node19</title>
<path fill="none" stroke="midnightblue" d="M84.4129,-133.349C103.768,-125.071 132.893,-113.215 159,-105 166.978,-102.49 175.496,-100.128 183.883,-97.9797"/>
<polygon fill="midnightblue" stroke="midnightblue" points="184.767,-101.367 193.628,-95.5598 183.08,-94.5731 184.767,-101.367"/>
</g>
<!-- Node21 -->
<g id="node7" class="node"><title>Node21</title>
<g id="a_node7"><a xlink:href="../../de/d46/class_cool_board_sensors.html#a8761bff50373c485f4465c8db47d0633" target="_top" xlink:title="CoolBoardSensors::readMoisture">
<polygon fill="white" stroke="black" points="159,-152.5 159,-171.5 320,-171.5 320,-152.5 159,-152.5"/>
<text text-anchor="middle" x="239.5" y="-159.5" font-family="Helvetica,sans-Serif" font-size="10.00">CoolBoardSensors::readMoisture</text>
</a>
</g>
</g>
<!-- Node15&#45;&gt;Node21 -->
<g id="edge7" class="edge"><title>Node15&#45;&gt;Node21</title>
<path fill="none" stroke="midnightblue" d="M123.069,-149.539C131.36,-150.434 140.011,-151.368 148.686,-152.304"/>
<polygon fill="midnightblue" stroke="midnightblue" points="148.542,-155.809 158.86,-153.402 149.293,-148.849 148.542,-155.809"/>
</g>
<!-- Node22 -->
<g id="node8" class="node"><title>Node22</title>
<g id="a_node8"><a xlink:href="../../df/dcf/class_b_m_e280.html#afffdd1d7ded9e1f92200e70669019d97" target="_top" xlink:title="BME280::readTempC">
<polygon fill="white" stroke="black" points="184,-228.5 184,-247.5 295,-247.5 295,-228.5 184,-228.5"/>
<text text-anchor="middle" x="239.5" y="-235.5" font-family="Helvetica,sans-Serif" font-size="10.00">BME280::readTempC</text>
</a>
</g>
</g>
<!-- Node15&#45;&gt;Node22 -->
<g id="edge8" class="edge"><title>Node15&#45;&gt;Node22</title>
<path fill="none" stroke="midnightblue" d="M71.6708,-152.54C87.7864,-168.732 122.914,-201.531 159,-219 163.949,-221.396 169.222,-223.502 174.607,-225.351"/>
<polygon fill="midnightblue" stroke="midnightblue" points="173.785,-228.761 184.374,-228.408 175.876,-222.081 173.785,-228.761"/>
</g>
<!-- Node23 -->
<g id="node9" class="node"><title>Node23</title>
<g id="a_node9"><a xlink:href="../../dd/d67/class_cool_s_i114_x.html#a14ced664d74e93438440b0274109c111" target="_top" xlink:title="CoolSI114X::ReadUV">
<polygon fill="white" stroke="black" points="183,-114.5 183,-133.5 296,-133.5 296,-114.5 183,-114.5"/>
<text text-anchor="middle" x="239.5" y="-121.5" font-family="Helvetica,sans-Serif" font-size="10.00">CoolSI114X::ReadUV</text>
</a>
</g>
</g>
<!-- Node15&#45;&gt;Node23 -->
<g id="edge10" class="edge"><title>Node15&#45;&gt;Node23</title>
<path fill="none" stroke="midnightblue" d="M123.069,-136.461C139.126,-134.728 156.537,-132.848 172.851,-131.087"/>
<polygon fill="midnightblue" stroke="midnightblue" points="173.278,-134.561 182.845,-130.008 172.527,-127.602 173.278,-134.561"/>
</g>
<!-- Node24 -->
<g id="node10" class="node"><title>Node24</title>
<g id="a_node10"><a xlink:href="../../de/d46/class_cool_board_sensors.html#a6944b6ea7bce8e2fce1b434acfd9d5f3" target="_top" xlink:title="CoolBoardSensors::readVBat">
<polygon fill="white" stroke="black" points="167,-38.5 167,-57.5 312,-57.5 312,-38.5 167,-38.5"/>
<text text-anchor="middle" x="239.5" y="-45.5" font-family="Helvetica,sans-Serif" font-size="10.00">CoolBoardSensors::readVBat</text>
</a>
</g>
</g>
<!-- Node15&#45;&gt;Node24 -->
<g id="edge12" class="edge"><title>Node15&#45;&gt;Node24</title>
<path fill="none" stroke="midnightblue" d="M71.6708,-133.46C87.7864,-117.268 122.914,-84.4693 159,-67 163.949,-64.6039 169.222,-62.4979 174.607,-60.649"/>
<polygon fill="midnightblue" stroke="midnightblue" points="175.876,-63.9192 184.374,-57.5916 173.785,-57.2388 175.876,-63.9192"/>
</g>
<!-- Node25 -->
<g id="node11" class="node"><title>Node25</title>
<g id="a_node11"><a xlink:href="../../dd/d67/class_cool_s_i114_x.html#a42e0e574256341443c647a4c0eda87d5" target="_top" xlink:title="CoolSI114X::ReadVisible">
<polygon fill="white" stroke="black" points="175.5,-0.5 175.5,-19.5 303.5,-19.5 303.5,-0.5 175.5,-0.5"/>
<text text-anchor="middle" x="239.5" y="-7.5" font-family="Helvetica,sans-Serif" font-size="10.00">CoolSI114X::ReadVisible</text>
</a>
</g>
</g>
<!-- Node15&#45;&gt;Node25 -->
<g id="edge13" class="edge"><title>Node15&#45;&gt;Node25</title>
<path fill="none" stroke="midnightblue" d="M67.8014,-133.256C80.4352,-111.011 114.606,-56.3078 159,-29 162.437,-26.8856 166.092,-25.0066 169.873,-23.3366"/>
<polygon fill="midnightblue" stroke="midnightblue" points="171.429,-26.4869 179.482,-19.6013 168.893,-19.9626 171.429,-26.4869"/>
</g>
<!-- Node17 -->
<g id="node3" class="node"><title>Node17</title>
<g id="a_node3"><a xlink:href="../../df/dcf/class_b_m_e280.html#a1bbd14c8591966df531e40085342ff71" target="_top" xlink:title="BME280::readRegister">
<polygon fill="white" stroke="black" points="368,-228.5 368,-247.5 484,-247.5 484,-228.5 368,-228.5"/>
<text text-anchor="middle" x="426" y="-235.5" font-family="Helvetica,sans-Serif" font-size="10.00">BME280::readRegister</text>
</a>
</g>
</g>
<!-- Node16&#45;&gt;Node17 -->
<g id="edge2" class="edge"><title>Node16&#45;&gt;Node17</title>
<path fill="none" stroke="midnightblue" d="M287.057,-209.589C311.843,-214.694 342.515,-221.011 368.639,-226.392"/>
<polygon fill="midnightblue" stroke="midnightblue" points="368.277,-229.891 378.778,-228.48 369.689,-223.035 368.277,-229.891"/>
</g>
<!-- Node18&#45;&gt;Node17 -->
<g id="edge4" class="edge"><title>Node18&#45;&gt;Node17</title>
<path fill="none" stroke="midnightblue" d="M287.057,-266.411C311.843,-261.306 342.515,-254.989 368.639,-249.608"/>
<polygon fill="midnightblue" stroke="midnightblue" points="369.689,-252.965 378.778,-247.52 368.277,-246.109 369.689,-252.965"/>
</g>
<!-- Node20 -->
<g id="node6" class="node"><title>Node20</title>
<g id="a_node6"><a xlink:href="../../dd/d67/class_cool_s_i114_x.html#a1d25c9e137874af529804c2ec796a6b9" target="_top" xlink:title="CoolSI114X::ReadHalfWord">
<polygon fill="white" stroke="black" points="356,-76.5 356,-95.5 496,-95.5 496,-76.5 356,-76.5"/>
<text text-anchor="middle" x="426" y="-83.5" font-family="Helvetica,sans-Serif" font-size="10.00">CoolSI114X::ReadHalfWord</text>
</a>
</g>
</g>
<!-- Node19&#45;&gt;Node20 -->
<g id="edge6" class="edge"><title>Node19&#45;&gt;Node20</title>
<path fill="none" stroke="midnightblue" d="M294.361,-86C310.454,-86 328.444,-86 345.805,-86"/>
<polygon fill="midnightblue" stroke="midnightblue" points="345.935,-89.5001 355.935,-86 345.935,-82.5001 345.935,-89.5001"/>
</g>
<!-- Node22&#45;&gt;Node17 -->
<g id="edge9" class="edge"><title>Node22&#45;&gt;Node17</title>
<path fill="none" stroke="midnightblue" d="M295.357,-238C314.893,-238 337.124,-238 357.591,-238"/>
<polygon fill="midnightblue" stroke="midnightblue" points="357.793,-241.5 367.793,-238 357.793,-234.5 357.793,-241.5"/>
</g>
<!-- Node23&#45;&gt;Node20 -->
<g id="edge11" class="edge"><title>Node23&#45;&gt;Node20</title>
<path fill="none" stroke="midnightblue" d="M287.057,-114.411C311.843,-109.306 342.515,-102.989 368.639,-97.6082"/>
<polygon fill="midnightblue" stroke="midnightblue" points="369.689,-100.965 378.778,-95.5201 368.277,-94.1094 369.689,-100.965"/>
</g>
<!-- Node25&#45;&gt;Node20 -->
<g id="edge14" class="edge"><title>Node25&#45;&gt;Node20</title>
<path fill="none" stroke="midnightblue" d="M289.464,-19.5632C299.706,-22.155 310.327,-25.2929 320,-29 349.393,-40.2644 380.836,-58.2043 401.57,-70.9468"/>
<polygon fill="midnightblue" stroke="midnightblue" points="399.96,-74.0678 410.296,-76.3931 403.666,-68.1294 399.96,-74.0678"/>
</g>
</g>
</svg>
