<?xml version="1.0" encoding="UTF-8" standalone="no"?>
<!DOCTYPE svg PUBLIC "-//W3C//DTD SVG 1.1//EN"
 "http://www.w3.org/Graphics/SVG/1.1/DTD/svg11.dtd">
<!-- Generated by graphviz version 2.38.0 (20140413.2041)
 -->
<!-- Title: Graphical Class Hierarchy Pages: 1 -->
<svg width="334pt" height="166pt"
 viewBox="0.00 0.00 334.00 165.50" xmlns="http://www.w3.org/2000/svg" xmlns:xlink="http://www.w3.org/1999/xlink">
<g id="graph0" class="graph" transform="scale(1 1) rotate(0) translate(4 161.5)">
<title>Graphical Class Hierarchy</title>
<polygon fill="white" stroke="none" points="-4,4 -4,-161.5 330,-161.5 330,4 -4,4"/>
<!-- Node0 -->
<g id="node1" class="node"><title>Node0</title>
<g id="a_node1"><a xlink:href="d1/d68/class_base_external_sensor.html" target="_top" xlink:title="This class is a generic external Sensor it is a way to access real external sensor methods through ru...">
<polygon fill="white" stroke="black" points="0,-72 0,-91 106,-91 106,-72 0,-72"/>
<text text-anchor="middle" x="53" y="-79" font-family="Helvetica,sans-Serif" font-size="10.00">BaseExternalSensor</text>
</a>
</g>
</g>
<!-- Node1 -->
<g id="node2" class="node"><title>Node1</title>
<g id="a_node2"><a xlink:href="db/d42/class_external_sensor.html" target="_top" xlink:title="template&lt;class SensorClass&gt; class External Sensor: Derived class from BaseExternalSensor. ">
<polygon fill="white" stroke="black" points="180.5,-138 180.5,-157 287.5,-157 287.5,-138 180.5,-138"/>
<text text-anchor="middle" x="234" y="-145" font-family="Helvetica,sans-Serif" font-size="10.00">ExternalSensor&lt; T &gt;</text>
</a>
</g>
</g>
<!-- Node0&#45;&gt;Node1 -->
<g id="edge1" class="edge"><title>Node0&#45;&gt;Node1</title>
<path fill="none" stroke="midnightblue" d="M77.4569,-96.4084C94.7121,-106.774 119.059,-120.173 142,-128.5 154.137,-132.905 167.575,-136.413 180.315,-139.153"/>
<polygon fill="midnightblue" stroke="midnightblue" points="79.0094,-93.2549 68.6543,-91.0136 75.3516,-99.2232 79.0094,-93.2549"/>
</g>
<!-- Node2 -->
<g id="node3" class="node"><title>Node2</title>
<g id="a_node3"><a xlink:href="d0/d50/class_external_sensor_3_01_adafruit___t_c_s34725_01_4.html" target="_top" xlink:title="Adafruit_TCS34725 Specialization Class This is the template specialization for the Adafruit RGB Senso...">
<polygon fill="white" stroke="black" points="171,-88.5 171,-118.5 297,-118.5 297,-88.5 171,-88.5"/>
<text text-anchor="start" x="179" y="-106.5" font-family="Helvetica,sans-Serif" font-size="10.00">ExternalSensor&lt; Adafruit</text>
<text text-anchor="middle" x="234" y="-95.5" font-family="Helvetica,sans-Serif" font-size="10.00">_TCS34725 &gt;</text>
</a>
</g>
</g>
<!-- Node0&#45;&gt;Node2 -->
<g id="edge2" class="edge"><title>Node0&#45;&gt;Node2</title>
<path fill="none" stroke="midnightblue" d="M116.436,-89.1737C134.071,-91.3411 153.253,-93.6987 170.869,-95.8638"/>
<polygon fill="midnightblue" stroke="midnightblue" points="116.608,-85.6685 106.255,-87.9225 115.754,-92.6163 116.608,-85.6685"/>
</g>
<!-- Node3 -->
<g id="node4" class="node"><title>Node3</title>
<g id="a_node4"><a xlink:href="d7/d59/class_external_sensor_3_01_dallas_temperature_01_4.html" target="_top" xlink:title="DallasTemperature Specialization Class This is the template specialization for the Dallas Temperature...">
<polygon fill="white" stroke="black" points="142,-50 142,-69 326,-69 326,-50 142,-50"/>
<text text-anchor="middle" x="234" y="-57" font-family="Helvetica,sans-Serif" font-size="10.00">ExternalSensor&lt; DallasTemperature &gt;</text>
</a>
</g>
</g>
<!-- Node0&#45;&gt;Node3 -->
<g id="edge3" class="edge"><title>Node0&#45;&gt;Node3</title>
<path fill="none" stroke="midnightblue" d="M116.202,-73.8551C128.846,-72.3011 142.294,-70.6482 155.396,-69.0379"/>
<polygon fill="midnightblue" stroke="midnightblue" points="115.754,-70.3837 106.255,-75.0775 116.608,-77.3315 115.754,-70.3837"/>
</g>
<!-- Node4 -->
<g id="node5" class="node"><title>Node4</title>
<g id="a_node5"><a xlink:href="db/dba/class_external_sensor_3_01_n_d_i_r___i2_c_01_4.html" target="_top" xlink:title="NDIR_I2C Specialization Class This is the template specialization for the NDIR_I2C CO2 sensor...">
<polygon fill="white" stroke="black" points="175,-0.5 175,-30.5 293,-30.5 293,-0.5 175,-0.5"/>
<text text-anchor="start" x="183" y="-18.5" font-family="Helvetica,sans-Serif" font-size="10.00">ExternalSensor&lt; NDIR</text>
<text text-anchor="middle" x="234" y="-7.5" font-family="Helvetica,sans-Serif" font-size="10.00">_I2C &gt;</text>
</a>
</g>
</g>
<!-- Node0&#45;&gt;Node4 -->
<g id="edge4" class="edge"><title>Node0&#45;&gt;Node4</title>
<path fill="none" stroke="midnightblue" d="M81.5348,-67.2134C98.6337,-58.7104 121.236,-48.1278 142,-40.5 152.458,-36.6582 163.78,-33.0935 174.771,-29.9296"/>
<polygon fill="midnightblue" stroke="midnightblue" points="79.5118,-64.3137 72.1587,-71.9415 82.6637,-70.5639 79.5118,-64.3137"/>
</g>
</g>
</svg>
