<?xml version="1.0" encoding="UTF-8" standalone="no"?>
<!DOCTYPE svg PUBLIC "-//W3C//DTD SVG 1.1//EN"
 "http://www.w3.org/Graphics/SVG/1.1/DTD/svg11.dtd">
<!-- Generated by graphviz version 2.38.0 (20140413.2041)
 -->
<!-- Title: Graphical Class Hierarchy Pages: 1 -->
<svg width="334pt" height="116pt"
 viewBox="0.00 0.00 334.00 115.50" xmlns="http://www.w3.org/2000/svg" xmlns:xlink="http://www.w3.org/1999/xlink">
<g id="graph0" class="graph" transform="scale(1 1) rotate(0) translate(4 111.5)">
<title>Graphical Class Hierarchy</title>
<polygon fill="white" stroke="none" points="-4,4 -4,-111.5 330,-111.5 330,4 -4,4"/>
<!-- Node0 -->
<g id="node1" class="node"><title>Node0</title>
<g id="a_node1"><a xlink:href="d1/d68/class_base_external_sensor.html" target="_top" xlink:title="This class is a generic external Sensor it is a way to access real external sensor methods through ru...">
<polygon fill="white" stroke="black" points="0,-50 0,-69 106,-69 106,-50 0,-50"/>
<text text-anchor="middle" x="53" y="-57" font-family="Helvetica,sans-Serif" font-size="10.00">BaseExternalSensor</text>
</a>
</g>
</g>
<!-- Node1 -->
<g id="node2" class="node"><title>Node1</title>
<g id="a_node2"><a xlink:href="db/d42/class_external_sensor.html" target="_top" xlink:title="template&lt;class SensorClass&gt; class External Sensor: Derived class from BaseExternalSensor. ">
<polygon fill="white" stroke="black" points="180.5,-88 180.5,-107 287.5,-107 287.5,-88 180.5,-88"/>
<text text-anchor="middle" x="234" y="-95" font-family="Helvetica,sans-Serif" font-size="10.00">ExternalSensor&lt; T &gt;</text>
</a>
</g>
</g>
<!-- Node0&#45;&gt;Node1 -->
<g id="edge1" class="edge"><title>Node0&#45;&gt;Node1</title>
<path fill="none" stroke="midnightblue" d="M107.643,-71.1429C118.985,-73.5875 130.884,-76.1396 142,-78.5 156.682,-81.6177 172.706,-84.9777 187.16,-87.9925"/>
<polygon fill="midnightblue" stroke="midnightblue" points="108.367,-67.7186 97.8536,-69.0299 106.89,-74.561 108.367,-67.7186"/>
</g>
<!-- Node2 -->
<g id="node3" class="node"><title>Node2</title>
<g id="a_node3"><a xlink:href="d7/d59/class_external_sensor_3_01_dallas_temperature_01_4.html" target="_top" xlink:title="DallasTemperature Specialization Class This is the template specialization for the Dallas Temperature...">
<polygon fill="white" stroke="black" points="142,-50 142,-69 326,-69 326,-50 142,-50"/>
<text text-anchor="middle" x="234" y="-57" font-family="Helvetica,sans-Serif" font-size="10.00">ExternalSensor&lt; DallasTemperature &gt;</text>
</a>
</g>
</g>
<!-- Node0&#45;&gt;Node2 -->
<g id="edge2" class="edge"><title>Node0&#45;&gt;Node2</title>
<path fill="none" stroke="midnightblue" d="M116.502,-59.5C124.752,-59.5 133.341,-59.5 141.948,-59.5"/>
<polygon fill="midnightblue" stroke="midnightblue" points="116.255,-56.0001 106.255,-59.5 116.255,-63.0001 116.255,-56.0001"/>
</g>
<!-- Node3 -->
<g id="node4" class="node"><title>Node3</title>
<g id="a_node4"><a xlink:href="db/dba/class_external_sensor_3_01_n_d_i_r___i2_c_01_4.html" target="_top" xlink:title="NDIR_I2C Specialization Class This is the template specialization for the NDIR_I2C CO2 sensor...">
<polygon fill="white" stroke="black" points="175,-0.5 175,-30.5 293,-30.5 293,-0.5 175,-0.5"/>
<text text-anchor="start" x="183" y="-18.5" font-family="Helvetica,sans-Serif" font-size="10.00">ExternalSensor&lt; NDIR</text>
<text text-anchor="middle" x="234" y="-7.5" font-family="Helvetica,sans-Serif" font-size="10.00">_I2C &gt;</text>
</a>
</g>
</g>
<!-- Node0&#45;&gt;Node3 -->
<g id="edge3" class="edge"><title>Node0&#45;&gt;Node3</title>
<path fill="none" stroke="midnightblue" d="M102.741,-47.5189C125.004,-42.0465 151.545,-35.5224 174.843,-29.7955"/>
<polygon fill="midnightblue" stroke="midnightblue" points="101.716,-44.1667 92.8403,-49.9527 103.387,-50.9644 101.716,-44.1667"/>
</g>
</g>
</svg>
