<?xml version="1.0" encoding="UTF-8" standalone="no"?>
<!DOCTYPE svg PUBLIC "-//W3C//DTD SVG 1.1//EN"
 "http://www.w3.org/Graphics/SVG/1.1/DTD/svg11.dtd">
<!-- Generated by graphviz version 2.38.0 (20140413.2041)
 -->
<!-- Title: CoolMQTT::publish Pages: 1 -->
<svg width="403pt" height="85pt"
 viewBox="0.00 0.00 403.00 85.00" xmlns="http://www.w3.org/2000/svg" xmlns:xlink="http://www.w3.org/1999/xlink">
<g id="graph0" class="graph" transform="scale(1 1) rotate(0) translate(4 81)">
<title>CoolMQTT::publish</title>
<polygon fill="white" stroke="none" points="-4,4 -4,-81 399,-81 399,4 -4,4"/>
<!-- Node45 -->
<g id="node1" class="node"><title>Node45</title>
<polygon fill="#bfbfbf" stroke="black" points="0,-38.5 0,-57.5 101,-57.5 101,-38.5 0,-38.5"/>
<text text-anchor="middle" x="50.5" y="-45.5" font-family="Helvetica,sans-Serif" font-size="10.00">CoolMQTT::publish</text>
</g>
<!-- Node46 -->
<g id="node2" class="node"><title>Node46</title>
<g id="a_node2"><a xlink:href="../../d7/df9/class_cool_board.html#aa0bbc4bc605e35618d18e68795c61363" target="_top" xlink:title="CoolBoard::onLineMode">
<polygon fill="white" stroke="black" points="274,-57.5 274,-76.5 395,-76.5 395,-57.5 274,-57.5"/>
<text text-anchor="middle" x="334.5" y="-64.5" font-family="Helvetica,sans-Serif" font-size="10.00">CoolBoard::onLineMode</text>
</a>
</g>
</g>
<!-- Node45&#45;&gt;Node46 -->
<g id="edge1" class="edge"><title>Node45&#45;&gt;Node46</title>
<path fill="none" stroke="midnightblue" d="M95.899,-59.7973C109.034,-62.7615 123.51,-65.5192 137,-67 182.78,-72.0253 234.921,-71.7505 273.984,-70.368"/>
<polygon fill="midnightblue" stroke="midnightblue" points="96.6901,-56.3879 86.1547,-57.508 95.0891,-63.2024 96.6901,-56.3879"/>
</g>
<!-- Node47 -->
<g id="node3" class="node"><title>Node47</title>
<g id="a_node3"><a xlink:href="../../d7/df9/class_cool_board.html#a8612756d3f73198cdde857a66f0fe690" target="_top" xlink:title="CoolBoard::update">
<polygon fill="white" stroke="black" points="138.5,-38.5 138.5,-57.5 236.5,-57.5 236.5,-38.5 138.5,-38.5"/>
<text text-anchor="middle" x="187.5" y="-45.5" font-family="Helvetica,sans-Serif" font-size="10.00">CoolBoard::update</text>
</a>
</g>
</g>
<!-- Node45&#45;&gt;Node47 -->
<g id="edge2" class="edge"><title>Node45&#45;&gt;Node47</title>
<path fill="none" stroke="midnightblue" d="M111.156,-48C120.254,-48 129.545,-48 138.354,-48"/>
<polygon fill="midnightblue" stroke="midnightblue" points="111.002,-44.5001 101.002,-48 111.002,-51.5001 111.002,-44.5001"/>
</g>
<!-- Node48 -->
<g id="node4" class="node"><title>Node48</title>
<g id="a_node4"><a xlink:href="../../d0/dd0/class_cool_m_q_t_t.html#a613c5e3927ae85bb94fbf648d84d8780" target="_top" xlink:title="CoolMQTT::publish">
<polygon fill="white" stroke="black" points="137,-0.5 137,-19.5 238,-19.5 238,-0.5 137,-0.5"/>
<text text-anchor="middle" x="187.5" y="-7.5" font-family="Helvetica,sans-Serif" font-size="10.00">CoolMQTT::publish</text>
</a>
</g>
</g>
<!-- Node45&#45;&gt;Node48 -->
<g id="edge4" class="edge"><title>Node45&#45;&gt;Node48</title>
<path fill="none" stroke="midnightblue" d="M95.2625,-35.6817C113.811,-30.4607 135.099,-24.4684 152.445,-19.5859"/>
<polygon fill="midnightblue" stroke="midnightblue" points="94.2438,-32.3323 85.5662,-38.411 96.1405,-39.0705 94.2438,-32.3323"/>
</g>
<!-- Node47&#45;&gt;Node46 -->
<g id="edge3" class="edge"><title>Node47&#45;&gt;Node46</title>
<path fill="none" stroke="midnightblue" d="M246.703,-55.6266C255.63,-56.7964 264.858,-58.0056 273.817,-59.1794"/>
<polygon fill="midnightblue" stroke="midnightblue" points="247.153,-52.1557 236.783,-54.3267 246.243,-59.0964 247.153,-52.1557"/>
</g>
</g>
</svg>
