<?xml version="1.0" encoding="UTF-8" standalone="no"?>
<!DOCTYPE svg PUBLIC "-//W3C//DTD SVG 1.1//EN"
 "http://www.w3.org/Graphics/SVG/1.1/DTD/svg11.dtd">
<!-- Generated by graphviz version 2.38.0 (20140413.2041)
 -->
<!-- Title: BaseExternalSensor Pages: 1 -->
<svg width="598pt" height="226pt"
 viewBox="0.00 0.00 597.50 226.00" xmlns="http://www.w3.org/2000/svg" xmlns:xlink="http://www.w3.org/1999/xlink">
<g id="graph0" class="graph" transform="scale(1 1) rotate(0) translate(4 222)">
<title>BaseExternalSensor</title>
<polygon fill="white" stroke="none" points="-4,4 -4,-222 593.5,-222 593.5,4 -4,4"/>
<!-- Node0 -->
<g id="node1" class="node"><title>Node0</title>
<polygon fill="#bfbfbf" stroke="black" points="214,-127.5 214,-217.5 335,-217.5 335,-127.5 214,-127.5"/>
<text text-anchor="middle" x="274.5" y="-205.5" font-family="Helvetica,sans-Serif" font-size="10.00">BaseExternalSensor</text>
<polyline fill="none" stroke="black" points="214,-198.5 335,-198.5 "/>
<text text-anchor="middle" x="274.5" y="-186.5" font-family="Helvetica,sans-Serif" font-size="10.00"> </text>
<polyline fill="none" stroke="black" points="214,-179.5 335,-179.5 "/>
<text text-anchor="start" x="222" y="-167.5" font-family="Helvetica,sans-Serif" font-size="10.00">+ BaseExternalSensor()</text>
<text text-anchor="start" x="222" y="-156.5" font-family="Helvetica,sans-Serif" font-size="10.00">+ begin()</text>
<text text-anchor="start" x="222" y="-145.5" font-family="Helvetica,sans-Serif" font-size="10.00">+ read()</text>
<text text-anchor="start" x="222" y="-134.5" font-family="Helvetica,sans-Serif" font-size="10.00">+ read()</text>
</g>
<!-- Node1 -->
<g id="node2" class="node"><title>Node1</title>
<g id="a_node2"><a xlink:href="$db/d42/class_external_sensor.html" xlink:title="template&lt;class SensorClass&gt; class External Sensor: Derived class from BaseExternalSensor. ">
<polygon fill="white" stroke="black" points="0,-6 0,-85 107,-85 107,-6 0,-6"/>
<text text-anchor="middle" x="53.5" y="-73" font-family="Helvetica,sans-Serif" font-size="10.00">ExternalSensor&lt; T &gt;</text>
<polyline fill="none" stroke="black" points="0,-66 107,-66 "/>
<text text-anchor="start" x="8" y="-54" font-family="Helvetica,sans-Serif" font-size="10.00">&#45; sensor</text>
<polyline fill="none" stroke="black" points="0,-47 107,-47 "/>
<text text-anchor="start" x="8" y="-35" font-family="Helvetica,sans-Serif" font-size="10.00">+ ExternalSensor()</text>
<text text-anchor="start" x="8" y="-24" font-family="Helvetica,sans-Serif" font-size="10.00">+ begin()</text>
<text text-anchor="start" x="8" y="-13" font-family="Helvetica,sans-Serif" font-size="10.00">+ read()</text>
</a>
</g>
</g>
<!-- Node0&#45;&gt;Node1 -->
<g id="edge1" class="edge"><title>Node0&#45;&gt;Node1</title>
<path fill="none" stroke="midnightblue" d="M204.473,-138.526C176.608,-124.711 144.56,-107.938 116.5,-91 113.405,-89.1315 110.262,-87.1622 107.115,-85.1341"/>
<polygon fill="none" stroke="midnightblue" points="203.234,-141.817 213.751,-143.094 206.325,-135.537 203.234,-141.817"/>
</g>
<!-- Node2 -->
<g id="node3" class="node"><title>Node2</title>
<g id="a_node3"><a xlink:href="$d0/d50/class_external_sensor_3_01_adafruit___t_c_s34725_01_4.html" xlink:title="Adafruit_TCS34725 Specialization Class This is the template specialization for the Adafruit RGB Senso...">
<polygon fill="white" stroke="black" points="125.5,-0.5 125.5,-90.5 251.5,-90.5 251.5,-0.5 125.5,-0.5"/>
<text text-anchor="start" x="133.5" y="-78.5" font-family="Helvetica,sans-Serif" font-size="10.00">ExternalSensor&lt; Adafruit</text>
<text text-anchor="middle" x="188.5" y="-67.5" font-family="Helvetica,sans-Serif" font-size="10.00">_TCS34725 &gt;</text>
<polyline fill="none" stroke="black" points="125.5,-60.5 251.5,-60.5 "/>
<text text-anchor="start" x="133.5" y="-48.5" font-family="Helvetica,sans-Serif" font-size="10.00">&#45; sensor</text>
<polyline fill="none" stroke="black" points="125.5,-41.5 251.5,-41.5 "/>
<text text-anchor="start" x="133.5" y="-29.5" font-family="Helvetica,sans-Serif" font-size="10.00">+ ExternalSensor()</text>
<text text-anchor="start" x="133.5" y="-18.5" font-family="Helvetica,sans-Serif" font-size="10.00">+ begin()</text>
<text text-anchor="start" x="133.5" y="-7.5" font-family="Helvetica,sans-Serif" font-size="10.00">+ read()</text>
</a>
</g>
</g>
<!-- Node0&#45;&gt;Node2 -->
<g id="edge2" class="edge"><title>Node0&#45;&gt;Node2</title>
<path fill="none" stroke="midnightblue" d="M238.503,-119.179C231.96,-109.669 225.196,-99.8367 218.836,-90.5937"/>
<polygon fill="none" stroke="midnightblue" points="235.628,-121.175 244.18,-127.43 241.395,-117.207 235.628,-121.175"/>
</g>
<!-- Node3 -->
<g id="node4" class="node"><title>Node3</title>
<g id="a_node4"><a xlink:href="$d7/d59/class_external_sensor_3_01_dallas_temperature_01_4.html" xlink:title="DallasTemperature Specialization Class This is the template specialization for the Dallas Temperature...">
<polygon fill="white" stroke="black" points="269.5,-0.5 269.5,-90.5 453.5,-90.5 453.5,-0.5 269.5,-0.5"/>
<text text-anchor="middle" x="361.5" y="-78.5" font-family="Helvetica,sans-Serif" font-size="10.00">ExternalSensor&lt; DallasTemperature &gt;</text>
<polyline fill="none" stroke="black" points="269.5,-71.5 453.5,-71.5 "/>
<text text-anchor="start" x="277.5" y="-59.5" font-family="Helvetica,sans-Serif" font-size="10.00">&#45; sensor</text>
<text text-anchor="start" x="277.5" y="-48.5" font-family="Helvetica,sans-Serif" font-size="10.00">&#45; dallasAddress</text>
<polyline fill="none" stroke="black" points="269.5,-41.5 453.5,-41.5 "/>
<text text-anchor="start" x="277.5" y="-29.5" font-family="Helvetica,sans-Serif" font-size="10.00">+ ExternalSensor()</text>
<text text-anchor="start" x="277.5" y="-18.5" font-family="Helvetica,sans-Serif" font-size="10.00">+ begin()</text>
<text text-anchor="start" x="277.5" y="-7.5" font-family="Helvetica,sans-Serif" font-size="10.00">+ read()</text>
</a>
</g>
</g>
<!-- Node0&#45;&gt;Node3 -->
<g id="edge3" class="edge"><title>Node0&#45;&gt;Node3</title>
<path fill="none" stroke="midnightblue" d="M310.915,-119.179C317.534,-109.669 324.378,-99.8367 330.811,-90.5937"/>
<polygon fill="none" stroke="midnightblue" points="308.013,-117.223 305.173,-127.43 313.758,-121.221 308.013,-117.223"/>
</g>
<!-- Node4 -->
<g id="node5" class="node"><title>Node4</title>
<g id="a_node5"><a xlink:href="$db/dba/class_external_sensor_3_01_n_d_i_r___i2_c_01_4.html" xlink:title="NDIR_I2C Specialization Class This is the template specialization for the NDIR_I2C CO2 sensor...">
<polygon fill="white" stroke="black" points="471.5,-0.5 471.5,-90.5 589.5,-90.5 589.5,-0.5 471.5,-0.5"/>
<text text-anchor="start" x="479.5" y="-78.5" font-family="Helvetica,sans-Serif" font-size="10.00">ExternalSensor&lt; NDIR</text>
<text text-anchor="middle" x="530.5" y="-67.5" font-family="Helvetica,sans-Serif" font-size="10.00">_I2C &gt;</text>
<polyline fill="none" stroke="black" points="471.5,-60.5 589.5,-60.5 "/>
<text text-anchor="start" x="479.5" y="-48.5" font-family="Helvetica,sans-Serif" font-size="10.00">&#45; sensor</text>
<polyline fill="none" stroke="black" points="471.5,-41.5 589.5,-41.5 "/>
<text text-anchor="start" x="479.5" y="-29.5" font-family="Helvetica,sans-Serif" font-size="10.00">+ ExternalSensor()</text>
<text text-anchor="start" x="479.5" y="-18.5" font-family="Helvetica,sans-Serif" font-size="10.00">+ begin()</text>
<text text-anchor="start" x="479.5" y="-7.5" font-family="Helvetica,sans-Serif" font-size="10.00">+ read()</text>
</a>
</g>
</g>
<!-- Node0&#45;&gt;Node4 -->
<g id="edge4" class="edge"><title>Node0&#45;&gt;Node4</title>
<path fill="none" stroke="midnightblue" d="M344.46,-144.945C380.439,-130.443 424.581,-111.324 462.5,-91 465.36,-89.467 468.255,-87.8503 471.156,-86.1773"/>
<polygon fill="none" stroke="midnightblue" points="343.006,-141.757 335.021,-148.72 345.605,-148.257 343.006,-141.757"/>
</g>
</g>
</svg>
