<?xml version="1.0" encoding="UTF-8" standalone="no"?>
<!DOCTYPE svg PUBLIC "-//W3C//DTD SVG 1.1//EN"
 "http://www.w3.org/Graphics/SVG/1.1/DTD/svg11.dtd">
<!-- Generated by graphviz version 2.38.0 (20140413.2041)
 -->
<!-- Title: CoolBoard::offLineMode Pages: 1 -->
<svg width="1119pt" height="842pt"
 viewBox="0.00 0.00 1119.00 841.57" xmlns="http://www.w3.org/2000/svg" xmlns:xlink="http://www.w3.org/1999/xlink">
<g id="graph0" class="graph" transform="scale(1 1) rotate(0) translate(4 837.571)">
<title>CoolBoard::offLineMode</title>
<polygon fill="white" stroke="none" points="-4,4 -4,-837.571 1115,-837.571 1115,4 -4,4"/>
<!-- Node133 -->
<g id="node1" class="node"><title>Node133</title>
<polygon fill="#bfbfbf" stroke="black" points="0,-373 0,-392 122,-392 122,-373 0,-373"/>
<text text-anchor="middle" x="61" y="-380" font-family="Helvetica,sans-Serif" font-size="10.00">CoolBoard::offLineMode</text>
</g>
<!-- Node134 -->
<g id="node2" class="node"><title>Node134</title>
<g id="a_node2"><a xlink:href="../../de/dc0/class_cool_board_led.html#af1cacbaa88db8bcf6042c1083ba41155" target="_top" xlink:title="CoolBoardLed::fade">
<polygon fill="white" stroke="black" points="189,-762 189,-781 292,-781 292,-762 189,-762"/>
<text text-anchor="middle" x="240.5" y="-769" font-family="Helvetica,sans-Serif" font-size="10.00">CoolBoardLed::fade</text>
</a>
</g>
</g>
<!-- Node133&#45;&gt;Node134 -->
<g id="edge1" class="edge"><title>Node133&#45;&gt;Node134</title>
<path fill="none" stroke="midnightblue" d="M63.1632,-392.208C69.7087,-445.239 103.607,-699.441 158,-752.5 163.915,-758.27 171.225,-762.414 179.017,-765.37"/>
<polygon fill="midnightblue" stroke="midnightblue" points="178.111,-768.754 188.7,-768.415 180.211,-762.076 178.111,-768.754"/>
</g>
<!-- Node135 -->
<g id="node3" class="node"><title>Node135</title>
<g id="a_node3"><a xlink:href="../../de/dc0/class_cool_board_led.html#ab778f5e7bed0ab74e3906d82110493c3" target="_top" xlink:title="CoolBoardLed::fadeIn">
<polygon fill="white" stroke="black" points="375.5,-696 375.5,-715 486.5,-715 486.5,-696 375.5,-696"/>
<text text-anchor="middle" x="431" y="-703" font-family="Helvetica,sans-Serif" font-size="10.00">CoolBoardLed::fadeIn</text>
</a>
</g>
</g>
<!-- Node133&#45;&gt;Node135 -->
<g id="edge2" class="edge"><title>Node133&#45;&gt;Node135</title>
<path fill="none" stroke="midnightblue" d="M64.5732,-392.002C73.1158,-421.999 103.151,-516.034 158,-572.5 221.186,-637.549 322.737,-675.326 382.249,-693.047"/>
<polygon fill="midnightblue" stroke="midnightblue" points="381.56,-696.491 392.14,-695.922 383.515,-689.769 381.56,-696.491"/>
</g>
<!-- Node136 -->
<g id="node4" class="node"><title>Node136</title>
<g id="a_node4"><a xlink:href="../../de/dc0/class_cool_board_led.html#a96e1ea13003eee34c9dbcef340404426" target="_top" xlink:title="CoolBoardLed::blink">
<polygon fill="white" stroke="black" points="379,-392 379,-411 483,-411 483,-392 379,-392"/>
<text text-anchor="middle" x="431" y="-399" font-family="Helvetica,sans-Serif" font-size="10.00">CoolBoardLed::blink</text>
</a>
</g>
</g>
<!-- Node133&#45;&gt;Node136 -->
<g id="edge3" class="edge"><title>Node133&#45;&gt;Node136</title>
<path fill="none" stroke="midnightblue" d="M122.356,-385.616C190.335,-389.126 300.224,-394.8 368.621,-398.331"/>
<polygon fill="midnightblue" stroke="midnightblue" points="368.648,-401.837 378.815,-398.857 369.009,-394.846 368.648,-401.837"/>
</g>
<!-- Node137 -->
<g id="node5" class="node"><title>Node137</title>
<g id="a_node5"><a xlink:href="../../d7/df9/class_cool_board.html#ae7358fb6e623cfc81b775f5f1734909b" target="_top" xlink:title="CoolBoard::userData">
<polygon fill="white" stroke="black" points="186.5,-724 186.5,-743 294.5,-743 294.5,-724 186.5,-724"/>
<text text-anchor="middle" x="240.5" y="-731" font-family="Helvetica,sans-Serif" font-size="10.00">CoolBoard::userData</text>
</a>
</g>
</g>
<!-- Node133&#45;&gt;Node137 -->
<g id="edge4" class="edge"><title>Node133&#45;&gt;Node137</title>
<path fill="none" stroke="midnightblue" d="M63.4582,-392.245C69.4687,-429.964 95.0354,-568.911 158,-662.5 173.303,-685.246 197.682,-705.154 215.795,-718.055"/>
<polygon fill="midnightblue" stroke="midnightblue" points="213.9,-721 224.116,-723.807 217.88,-715.241 213.9,-721"/>
</g>
<!-- Node142 -->
<g id="node10" class="node"><title>Node142</title>
<g id="a_node10"><a xlink:href="../../d7/df9/class_cool_board.html#ad03abdce2e65f520bbf2cff0f2d083cf" target="_top" xlink:title="CoolBoard::readSensors">
<polygon fill="white" stroke="black" points="179,-544 179,-563 302,-563 302,-544 179,-544"/>
<text text-anchor="middle" x="240.5" y="-551" font-family="Helvetica,sans-Serif" font-size="10.00">CoolBoard::readSensors</text>
</a>
</g>
</g>
<!-- Node133&#45;&gt;Node142 -->
<g id="edge10" class="edge"><title>Node133&#45;&gt;Node142</title>
<path fill="none" stroke="midnightblue" d="M72.0517,-392.184C101.097,-420.165 185.4,-501.381 222.094,-536.732"/>
<polygon fill="midnightblue" stroke="midnightblue" points="219.928,-539.505 229.558,-543.923 224.785,-534.464 219.928,-539.505"/>
</g>
<!-- Node168 -->
<g id="node28" class="node"><title>Node168</title>
<g id="a_node28"><a xlink:href="../../de/dc0/class_cool_board_led.html#a93d545679237e8cc858324367149775c" target="_top" xlink:title="CoolBoardLed::fadeOut">
<polygon fill="white" stroke="black" points="371.5,-430 371.5,-449 490.5,-449 490.5,-430 371.5,-430"/>
<text text-anchor="middle" x="431" y="-437" font-family="Helvetica,sans-Serif" font-size="10.00">CoolBoardLed::fadeOut</text>
</a>
</g>
</g>
<!-- Node133&#45;&gt;Node168 -->
<g id="edge33" class="edge"><title>Node133&#45;&gt;Node168</title>
<path fill="none" stroke="midnightblue" d="M95.9858,-392.091C114.248,-396.967 137.221,-402.658 158,-406.5 226.694,-419.203 306.087,-428.192 361.297,-433.547"/>
<polygon fill="midnightblue" stroke="midnightblue" points="361.028,-437.037 371.316,-434.505 361.695,-430.069 361.028,-437.037"/>
</g>
<!-- Node169 -->
<g id="node29" class="node"><title>Node169</title>
<g id="a_node29"><a xlink:href="../../df/d1d/class_jetpack.html#a9e703197093094b963f9ad57817495b8" target="_top" xlink:title="Jetpack::doAction">
<polygon fill="white" stroke="black" points="193,-50 193,-69 288,-69 288,-50 193,-50"/>
<text text-anchor="middle" x="240.5" y="-57" font-family="Helvetica,sans-Serif" font-size="10.00">Jetpack::doAction</text>
</a>
</g>
</g>
<!-- Node133&#45;&gt;Node169 -->
<g id="edge34" class="edge"><title>Node133&#45;&gt;Node169</title>
<path fill="none" stroke="midnightblue" d="M62.0418,-372.832C62.7608,-331.541 71.1881,-168.228 158,-83.5 164.973,-76.6948 173.773,-71.8035 182.994,-68.2916"/>
<polygon fill="midnightblue" stroke="midnightblue" points="184.285,-71.5516 192.696,-65.1088 182.103,-64.9003 184.285,-71.5516"/>
</g>
<!-- Node171 -->
<g id="node31" class="node"><title>Node171</title>
<g id="a_node31"><a xlink:href="../../db/d0c/class_cool_file_system.html#afa3a4feae94871d4d3b6bebb701c2e67" target="_top" xlink:title="CoolFileSystem::saveSensorData">
<polygon fill="white" stroke="black" points="158,-9 158,-28 323,-28 323,-9 158,-9"/>
<text text-anchor="middle" x="240.5" y="-16" font-family="Helvetica,sans-Serif" font-size="10.00">CoolFileSystem::saveSensorData</text>
</a>
</g>
</g>
<!-- Node133&#45;&gt;Node171 -->
<g id="edge36" class="edge"><title>Node133&#45;&gt;Node171</title>
<path fill="none" stroke="midnightblue" d="M61.5444,-372.964C59.9612,-328.33 59.3943,-138.124 158,-40.5 160.905,-37.6241 164.144,-35.1138 167.61,-32.9234"/>
<polygon fill="midnightblue" stroke="midnightblue" points="169.456,-35.9057 176.633,-28.112 166.162,-29.729 169.456,-35.9057"/>
</g>
<!-- Node173 -->
<g id="node33" class="node"><title>Node173</title>
<g id="a_node33"><a xlink:href="../../d7/d29/class_cool_wifi.html#a1c7b4d82a4098d346e7593dce92039fa" target="_top" xlink:title="CoolWifi::state">
<polygon fill="white" stroke="black" points="390,-354 390,-373 472,-373 472,-354 390,-354"/>
<text text-anchor="middle" x="431" y="-361" font-family="Helvetica,sans-Serif" font-size="10.00">CoolWifi::state</text>
</a>
</g>
</g>
<!-- Node133&#45;&gt;Node173 -->
<g id="edge38" class="edge"><title>Node133&#45;&gt;Node173</title>
<path fill="none" stroke="midnightblue" d="M122.356,-379.384C194.067,-375.681 312.414,-369.571 379.495,-366.108"/>
<polygon fill="midnightblue" stroke="midnightblue" points="380,-369.586 389.806,-365.575 379.639,-362.596 380,-369.586"/>
</g>
<!-- Node174 -->
<g id="node34" class="node"><title>Node174</title>
<g id="a_node34"><a xlink:href="../../d0/dd0/class_cool_m_q_t_t.html#a5d003307eff78efbd585e42b43b72b6d" target="_top" xlink:title="CoolMQTT::state">
<polygon fill="white" stroke="black" points="573.5,-221 573.5,-240 665.5,-240 665.5,-221 573.5,-221"/>
<text text-anchor="middle" x="619.5" y="-228" font-family="Helvetica,sans-Serif" font-size="10.00">CoolMQTT::state</text>
</a>
</g>
</g>
<!-- Node133&#45;&gt;Node174 -->
<g id="edge39" class="edge"><title>Node133&#45;&gt;Node174</title>
<path fill="none" stroke="midnightblue" d="M69.8451,-372.787C85.1903,-354.271 120.929,-313.456 158,-287.5 238.941,-230.828 262.589,-214.136 359,-192.5 421.447,-178.486 439.807,-182.372 503,-192.5 532.232,-197.185 564.1,-208.142 586.942,-217.092"/>
<polygon fill="midnightblue" stroke="midnightblue" points="585.868,-220.432 596.452,-220.907 588.474,-213.935 585.868,-220.432"/>
</g>
<!-- Node176 -->
<g id="node36" class="node"><title>Node176</title>
<g id="a_node36"><a xlink:href="../../d7/d29/class_cool_wifi.html#a7c857f27161782f5ef1d62d552aff971" target="_top" xlink:title="CoolWifi::connectAP">
<polygon fill="white" stroke="black" points="565.5,-88 565.5,-107 673.5,-107 673.5,-88 565.5,-88"/>
<text text-anchor="middle" x="619.5" y="-95" font-family="Helvetica,sans-Serif" font-size="10.00">CoolWifi::connectAP</text>
</a>
</g>
</g>
<!-- Node133&#45;&gt;Node176 -->
<g id="edge41" class="edge"><title>Node133&#45;&gt;Node176</title>
<path fill="none" stroke="midnightblue" d="M64.5276,-372.62C72.7495,-342.364 101.521,-249.928 158,-198.5 269.054,-97.3765 457.516,-89.3308 555.347,-92.8832"/>
<polygon fill="midnightblue" stroke="midnightblue" points="555.249,-96.382 565.386,-93.3003 555.54,-89.3881 555.249,-96.382"/>
</g>
<!-- Node182 -->
<g id="node42" class="node"><title>Node182</title>
<g id="a_node42"><a xlink:href="../../d7/df9/class_cool_board.html#a519de78b807f8ec6463ff484eb925918" target="_top" xlink:title="CoolBoard::connect">
<polygon fill="white" stroke="black" points="189,-297 189,-316 292,-316 292,-297 189,-297"/>
<text text-anchor="middle" x="240.5" y="-304" font-family="Helvetica,sans-Serif" font-size="10.00">CoolBoard::connect</text>
</a>
</g>
</g>
<!-- Node133&#45;&gt;Node182 -->
<g id="edge47" class="edge"><title>Node133&#45;&gt;Node182</title>
<path fill="none" stroke="midnightblue" d="M84.4805,-372.875C115.689,-359.512 172.299,-335.273 207.79,-320.077"/>
<polygon fill="midnightblue" stroke="midnightblue" points="209.387,-323.201 217.202,-316.047 206.632,-316.766 209.387,-323.201"/>
</g>
<!-- Node138 -->
<g id="node6" class="node"><title>Node138</title>
<g id="a_node6"><a xlink:href="../../d0/dd0/class_cool_m_q_t_t.html#a373cc92fca7760d886f02d8a6e5b3f63" target="_top" xlink:title="CoolMQTT::getUser">
<polygon fill="white" stroke="black" points="378.5,-810 378.5,-829 483.5,-829 483.5,-810 378.5,-810"/>
<text text-anchor="middle" x="431" y="-817" font-family="Helvetica,sans-Serif" font-size="10.00">CoolMQTT::getUser</text>
</a>
</g>
</g>
<!-- Node137&#45;&gt;Node138 -->
<g id="edge5" class="edge"><title>Node137&#45;&gt;Node138</title>
<path fill="none" stroke="midnightblue" d="M294.563,-740.213C304.53,-743.003 314.483,-746.942 323,-752.5 345.332,-767.073 336.907,-785.567 359,-800.5 362.089,-802.588 365.398,-804.447 368.836,-806.101"/>
<polygon fill="midnightblue" stroke="midnightblue" points="367.601,-809.379 378.177,-810.023 370.311,-802.925 367.601,-809.379"/>
</g>
<!-- Node139 -->
<g id="node7" class="node"><title>Node139</title>
<g id="a_node7"><a xlink:href="../../d6/d49/class_cool_time.html#ac4f32ee513c1328d984306645e8785a4" target="_top" xlink:title="CoolTime::getESDate">
<polygon fill="white" stroke="black" points="374.5,-772 374.5,-791 487.5,-791 487.5,-772 374.5,-772"/>
<text text-anchor="middle" x="431" y="-779" font-family="Helvetica,sans-Serif" font-size="10.00">CoolTime::getESDate</text>
</a>
</g>
</g>
<!-- Node137&#45;&gt;Node139 -->
<g id="edge6" class="edge"><title>Node137&#45;&gt;Node139</title>
<path fill="none" stroke="midnightblue" d="M283.869,-743.076C296.483,-746.008 310.321,-749.305 323,-752.5 343.82,-757.746 366.812,-763.927 386.131,-769.232"/>
<polygon fill="midnightblue" stroke="midnightblue" points="385.297,-772.632 395.868,-771.916 387.158,-765.884 385.297,-772.632"/>
</g>
<!-- Node140 -->
<g id="node8" class="node"><title>Node140</title>
<g id="a_node8"><a xlink:href="../../d6/d49/class_cool_time.html#a7a7501c5ca77dd1248bea704c44f986c" target="_top" xlink:title="CoolTime::getTimeDate">
<polygon fill="white" stroke="black" points="559,-791 559,-810 680,-810 680,-791 559,-791"/>
<text text-anchor="middle" x="619.5" y="-798" font-family="Helvetica,sans-Serif" font-size="10.00">CoolTime::getTimeDate</text>
</a>
</g>
</g>
<!-- Node139&#45;&gt;Node140 -->
<g id="edge7" class="edge"><title>Node139&#45;&gt;Node140</title>
<path fill="none" stroke="midnightblue" d="M487.704,-787.175C506.894,-789.13 528.632,-791.345 548.797,-793.399"/>
<polygon fill="midnightblue" stroke="midnightblue" points="548.56,-796.893 558.864,-794.424 549.27,-789.929 548.56,-796.893"/>
</g>
<!-- Node141 -->
<g id="node9" class="node"><title>Node141</title>
<g id="a_node9"><a xlink:href="../../d6/d49/class_cool_time.html#acd537cd4210d7bde4e1f5c47d2ac0456" target="_top" xlink:title="CoolTime::formatDigits">
<polygon fill="white" stroke="black" points="772.5,-810 772.5,-829 890.5,-829 890.5,-810 772.5,-810"/>
<text text-anchor="middle" x="831.5" y="-817" font-family="Helvetica,sans-Serif" font-size="10.00">CoolTime::formatDigits</text>
</a>
</g>
</g>
<!-- Node139&#45;&gt;Node141 -->
<g id="edge9" class="edge"><title>Node139&#45;&gt;Node141</title>
<path fill="none" stroke="midnightblue" d="M473.803,-791.015C483.522,-793.685 493.733,-796.868 503,-800.5 519.844,-807.102 521.439,-815.15 539,-819.5 613.647,-837.99 702.384,-834.529 762.182,-828.662"/>
<polygon fill="midnightblue" stroke="midnightblue" points="762.673,-832.13 772.262,-827.623 761.956,-825.167 762.673,-832.13"/>
</g>
<!-- Node140&#45;&gt;Node141 -->
<g id="edge8" class="edge"><title>Node140&#45;&gt;Node141</title>
<path fill="none" stroke="midnightblue" d="M680.116,-805.894C705.594,-808.199 735.486,-810.904 761.879,-813.291"/>
<polygon fill="midnightblue" stroke="midnightblue" points="761.912,-816.809 772.186,-814.224 762.542,-809.837 761.912,-816.809"/>
</g>
<!-- Node142&#45;&gt;Node135 -->
<g id="edge11" class="edge"><title>Node142&#45;&gt;Node135</title>
<path fill="none" stroke="midnightblue" d="M251.984,-563.056C267.95,-577.794 299.031,-607.23 323,-634.5 340.371,-654.264 337.609,-666.178 359,-681.5 364.963,-685.771 371.743,-689.325 378.691,-692.271"/>
<polygon fill="midnightblue" stroke="midnightblue" points="377.618,-695.608 388.209,-695.92 380.125,-689.072 377.618,-695.608"/>
</g>
<!-- Node142&#45;&gt;Node140 -->
<g id="edge31" class="edge"><title>Node142&#45;&gt;Node140</title>
<path fill="none" stroke="midnightblue" d="M250.562,-563.173C269.079,-582.362 313.369,-625.381 359,-648.5 418.045,-678.415 453.822,-642.197 503,-686.5 536.547,-716.721 505.101,-751.674 539,-781.5 542.236,-784.347 545.824,-786.787 549.633,-788.874"/>
<polygon fill="midnightblue" stroke="midnightblue" points="548.319,-792.123 558.866,-793.135 551.252,-785.767 548.319,-792.123"/>
</g>
<!-- Node143 -->
<g id="node11" class="node"><title>Node143</title>
<g id="a_node11"><a xlink:href="../../de/dc0/class_cool_board_led.html#ad5f0de4c628cbfbf49896042831c64ad" target="_top" xlink:title="CoolBoardLed::strobe">
<polygon fill="white" stroke="black" points="375.5,-506 375.5,-525 486.5,-525 486.5,-506 375.5,-506"/>
<text text-anchor="middle" x="431" y="-513" font-family="Helvetica,sans-Serif" font-size="10.00">CoolBoardLed::strobe</text>
</a>
</g>
</g>
<!-- Node142&#45;&gt;Node143 -->
<g id="edge12" class="edge"><title>Node142&#45;&gt;Node143</title>
<path fill="none" stroke="midnightblue" d="M289.067,-543.911C314.501,-538.784 346.005,-532.433 372.771,-527.037"/>
<polygon fill="midnightblue" stroke="midnightblue" points="373.664,-530.427 382.776,-525.02 372.281,-523.565 373.664,-530.427"/>
</g>
<!-- Node144 -->
<g id="node12" class="node"><title>Node144</title>
<g id="a_node12"><a xlink:href="../../d7/df9/class_cool_board.html#a397b46fadab8f530a8cf4d914c561366" target="_top" xlink:title="CoolBoard::initReadI2C">
<polygon fill="white" stroke="black" points="371,-468 371,-487 491,-487 491,-468 371,-468"/>
<text text-anchor="middle" x="431" y="-475" font-family="Helvetica,sans-Serif" font-size="10.00">CoolBoard::initReadI2C</text>
</a>
</g>
</g>
<!-- Node142&#45;&gt;Node144 -->
<g id="edge13" class="edge"><title>Node142&#45;&gt;Node144</title>
<path fill="none" stroke="midnightblue" d="M258.564,-543.941C281.034,-531.654 322.031,-510.271 359,-496.5 365.427,-494.106 372.285,-491.88 379.11,-489.856"/>
<polygon fill="midnightblue" stroke="midnightblue" points="380.367,-493.138 389.032,-487.041 378.456,-486.404 380.367,-493.138"/>
</g>
<!-- Node145 -->
<g id="node13" class="node"><title>Node145</title>
<g id="a_node13"><a xlink:href="../../de/d46/class_cool_board_sensors.html#a91badb2539d91fda8679f2a597874c48" target="_top" xlink:title="CoolBoardSensors::read">
<polygon fill="white" stroke="black" points="369.5,-582 369.5,-601 492.5,-601 492.5,-582 369.5,-582"/>
<text text-anchor="middle" x="431" y="-589" font-family="Helvetica,sans-Serif" font-size="10.00">CoolBoardSensors::read</text>
</a>
</g>
</g>
<!-- Node142&#45;&gt;Node145 -->
<g id="edge14" class="edge"><title>Node142&#45;&gt;Node145</title>
<path fill="none" stroke="midnightblue" d="M289.067,-563.089C314.501,-568.216 346.005,-574.567 372.771,-579.963"/>
<polygon fill="midnightblue" stroke="midnightblue" points="372.281,-583.435 382.776,-581.98 373.664,-576.573 372.281,-583.435"/>
</g>
<!-- Node156 -->
<g id="node23" class="node"><title>Node156</title>
<g id="a_node23"><a xlink:href="../../d1/d2f/class_external_sensors.html#a53177b81eca3be89508b5511ddcd00fc" target="_top" xlink:title="ExternalSensors::read">
<polygon fill="white" stroke="black" points="374.5,-620 374.5,-639 487.5,-639 487.5,-620 374.5,-620"/>
<text text-anchor="middle" x="431" y="-627" font-family="Helvetica,sans-Serif" font-size="10.00">ExternalSensors::read</text>
</a>
</g>
</g>
<!-- Node142&#45;&gt;Node156 -->
<g id="edge26" class="edge"><title>Node142&#45;&gt;Node156</title>
<path fill="none" stroke="midnightblue" d="M258.564,-563.059C281.034,-575.346 322.031,-596.729 359,-610.5 365.427,-612.894 372.285,-615.12 379.11,-617.144"/>
<polygon fill="midnightblue" stroke="midnightblue" points="378.456,-620.596 389.032,-619.959 380.367,-613.862 378.456,-620.596"/>
</g>
<!-- Node157 -->
<g id="node24" class="node"><title>Node157</title>
<g id="a_node24"><a xlink:href="../../d6/d03/class_irene3000.html#a852a170feea994ea1df01c6b245b5d9a" target="_top" xlink:title="Irene3000::read">
<polygon fill="white" stroke="black" points="389,-544 389,-563 473,-563 473,-544 389,-544"/>
<text text-anchor="middle" x="431" y="-551" font-family="Helvetica,sans-Serif" font-size="10.00">Irene3000::read</text>
</a>
</g>
</g>
<!-- Node142&#45;&gt;Node157 -->
<g id="edge27" class="edge"><title>Node142&#45;&gt;Node157</title>
<path fill="none" stroke="midnightblue" d="M302.18,-553.5C326.837,-553.5 355.02,-553.5 378.637,-553.5"/>
<polygon fill="midnightblue" stroke="midnightblue" points="378.795,-557 388.795,-553.5 378.795,-550 378.795,-557"/>
</g>
<!-- Node142&#45;&gt;Node168 -->
<g id="edge32" class="edge"><title>Node142&#45;&gt;Node168</title>
<path fill="none" stroke="midnightblue" d="M250.569,-543.84C269.098,-524.676 313.409,-481.698 359,-458.5 363.574,-456.173 368.463,-454.108 373.455,-452.28"/>
<polygon fill="midnightblue" stroke="midnightblue" points="374.751,-455.537 383.128,-449.051 372.534,-448.898 374.751,-455.537"/>
</g>
<!-- Node146 -->
<g id="node14" class="node"><title>Node146</title>
<g id="a_node14"><a xlink:href="../../dd/d67/class_cool_s_i114_x.html#a42e0e574256341443c647a4c0eda87d5" target="_top" xlink:title="CoolSI114X::ReadVisible">
<polygon fill="white" stroke="black" points="555.5,-639 555.5,-658 683.5,-658 683.5,-639 555.5,-639"/>
<text text-anchor="middle" x="619.5" y="-646" font-family="Helvetica,sans-Serif" font-size="10.00">CoolSI114X::ReadVisible</text>
</a>
</g>
</g>
<!-- Node145&#45;&gt;Node146 -->
<g id="edge15" class="edge"><title>Node145&#45;&gt;Node146</title>
<path fill="none" stroke="midnightblue" d="M473.803,-601.015C483.522,-603.685 493.733,-606.868 503,-610.5 519.844,-617.102 522.069,-623.125 539,-629.5 545.756,-632.044 552.967,-634.327 560.185,-636.353"/>
<polygon fill="midnightblue" stroke="midnightblue" points="559.426,-639.773 569.99,-638.956 561.222,-633.007 559.426,-639.773"/>
</g>
<!-- Node148 -->
<g id="node16" class="node"><title>Node148</title>
<g id="a_node16"><a xlink:href="../../dd/d67/class_cool_s_i114_x.html#abc536ee7ae8e3ba9d1069acc3889a2cf" target="_top" xlink:title="CoolSI114X::ReadIR">
<polygon fill="white" stroke="black" points="565,-601 565,-620 674,-620 674,-601 565,-601"/>
<text text-anchor="middle" x="619.5" y="-608" font-family="Helvetica,sans-Serif" font-size="10.00">CoolSI114X::ReadIR</text>
</a>
</g>
</g>
<!-- Node145&#45;&gt;Node148 -->
<g id="edge17" class="edge"><title>Node145&#45;&gt;Node148</title>
<path fill="none" stroke="midnightblue" d="M492.551,-597.669C512.478,-599.699 534.685,-601.961 554.836,-604.014"/>
<polygon fill="midnightblue" stroke="midnightblue" points="554.549,-607.503 564.853,-605.035 555.259,-600.539 554.549,-607.503"/>
</g>
<!-- Node149 -->
<g id="node17" class="node"><title>Node149</title>
<g id="a_node17"><a xlink:href="../../dd/d67/class_cool_s_i114_x.html#a14ced664d74e93438440b0274109c111" target="_top" xlink:title="CoolSI114X::ReadUV">
<polygon fill="white" stroke="black" points="563,-487 563,-506 676,-506 676,-487 563,-487"/>
<text text-anchor="middle" x="619.5" y="-494" font-family="Helvetica,sans-Serif" font-size="10.00">CoolSI114X::ReadUV</text>
</a>
</g>
</g>
<!-- Node145&#45;&gt;Node149 -->
<g id="edge19" class="edge"><title>Node145&#45;&gt;Node149</title>
<path fill="none" stroke="midnightblue" d="M485.587,-581.883C491.788,-579.432 497.759,-576.357 503,-572.5 527.132,-554.739 514.632,-532.935 539,-515.5 543.29,-512.431 548.01,-509.852 552.946,-507.686"/>
<polygon fill="midnightblue" stroke="midnightblue" points="554.534,-510.827 562.645,-504.01 552.053,-504.282 554.534,-510.827"/>
</g>
<!-- Node150 -->
<g id="node18" class="node"><title>Node150</title>
<g id="a_node18"><a xlink:href="../../df/dcf/class_b_m_e280.html#ada6e799917afb4f228e6253bc56ffe75" target="_top" xlink:title="BME280::readFloatPressure">
<polygon fill="white" stroke="red" points="549.5,-563 549.5,-582 689.5,-582 689.5,-563 549.5,-563"/>
<text text-anchor="middle" x="619.5" y="-570" font-family="Helvetica,sans-Serif" font-size="10.00">BME280::readFloatPressure</text>
</a>
</g>
</g>
<!-- Node145&#45;&gt;Node150 -->
<g id="edge21" class="edge"><title>Node145&#45;&gt;Node150</title>
<path fill="none" stroke="midnightblue" d="M492.551,-585.331C507.384,-583.82 523.48,-582.18 539.051,-580.594"/>
<polygon fill="midnightblue" stroke="midnightblue" points="539.595,-584.057 549.189,-579.561 538.886,-577.093 539.595,-584.057"/>
</g>
<!-- Node152 -->
<g id="node19" class="node"><title>Node152</title>
<g id="a_node19"><a xlink:href="../../df/dcf/class_b_m_e280.html#a42ea7232039eebf5aadb391ef6132c35" target="_top" xlink:title="BME280::readFloatHumidity">
<polygon fill="white" stroke="red" points="549.5,-525 549.5,-544 689.5,-544 689.5,-525 549.5,-525"/>
<text text-anchor="middle" x="619.5" y="-532" font-family="Helvetica,sans-Serif" font-size="10.00">BME280::readFloatHumidity</text>
</a>
</g>
</g>
<!-- Node145&#45;&gt;Node152 -->
<g id="edge22" class="edge"><title>Node145&#45;&gt;Node152</title>
<path fill="none" stroke="midnightblue" d="M473.803,-581.985C483.522,-579.315 493.733,-576.132 503,-572.5 519.844,-565.898 522.069,-559.875 539,-553.5 545.756,-550.956 552.967,-548.673 560.185,-546.647"/>
<polygon fill="midnightblue" stroke="midnightblue" points="561.222,-549.993 569.99,-544.044 559.426,-543.227 561.222,-549.993"/>
</g>
<!-- Node153 -->
<g id="node20" class="node"><title>Node153</title>
<g id="a_node20"><a xlink:href="../../df/dcf/class_b_m_e280.html#afffdd1d7ded9e1f92200e70669019d97" target="_top" xlink:title="BME280::readTempC">
<polygon fill="white" stroke="red" points="564,-753 564,-772 675,-772 675,-753 564,-753"/>
<text text-anchor="middle" x="619.5" y="-760" font-family="Helvetica,sans-Serif" font-size="10.00">BME280::readTempC</text>
</a>
</g>
</g>
<!-- Node145&#45;&gt;Node153 -->
<g id="edge23" class="edge"><title>Node145&#45;&gt;Node153</title>
<path fill="none" stroke="midnightblue" d="M489.594,-601.026C494.531,-603.517 499.115,-606.626 503,-610.5 546.364,-653.74 495.059,-700.847 539,-743.5 543.371,-747.742 548.51,-751.096 554.039,-753.74"/>
<polygon fill="midnightblue" stroke="midnightblue" points="553.056,-757.116 563.642,-757.552 555.638,-750.61 553.056,-757.116"/>
</g>
<!-- Node154 -->
<g id="node21" class="node"><title>Node154</title>
<g id="a_node21"><a xlink:href="../../de/d46/class_cool_board_sensors.html#a6944b6ea7bce8e2fce1b434acfd9d5f3" target="_top" xlink:title="CoolBoardSensors::readVBat">
<polygon fill="white" stroke="black" points="547,-715 547,-734 692,-734 692,-715 547,-715"/>
<text text-anchor="middle" x="619.5" y="-722" font-family="Helvetica,sans-Serif" font-size="10.00">CoolBoardSensors::readVBat</text>
</a>
</g>
</g>
<!-- Node145&#45;&gt;Node154 -->
<g id="edge24" class="edge"><title>Node145&#45;&gt;Node154</title>
<path fill="none" stroke="midnightblue" d="M488.509,-601.097C493.785,-603.565 498.74,-606.649 503,-610.5 536.495,-640.779 505.101,-675.674 539,-705.5 540.775,-707.061 542.655,-708.5 544.619,-709.825"/>
<polygon fill="midnightblue" stroke="midnightblue" points="543.276,-713.085 553.707,-714.939 546.708,-706.985 543.276,-713.085"/>
</g>
<!-- Node155 -->
<g id="node22" class="node"><title>Node155</title>
<g id="a_node22"><a xlink:href="../../de/d46/class_cool_board_sensors.html#a8761bff50373c485f4465c8db47d0633" target="_top" xlink:title="CoolBoardSensors::readMoisture">
<polygon fill="white" stroke="black" points="539,-677 539,-696 700,-696 700,-677 539,-677"/>
<text text-anchor="middle" x="619.5" y="-684" font-family="Helvetica,sans-Serif" font-size="10.00">CoolBoardSensors::readMoisture</text>
</a>
</g>
</g>
<!-- Node145&#45;&gt;Node155 -->
<g id="edge25" class="edge"><title>Node145&#45;&gt;Node155</title>
<path fill="none" stroke="midnightblue" d="M485.587,-601.117C491.788,-603.568 497.759,-606.643 503,-610.5 527.132,-628.261 514.632,-650.065 539,-667.5 541.712,-669.44 544.596,-671.185 547.598,-672.753"/>
<polygon fill="midnightblue" stroke="midnightblue" points="546.346,-676.028 556.901,-676.946 549.223,-669.646 546.346,-676.028"/>
</g>
<!-- Node147 -->
<g id="node15" class="node"><title>Node147</title>
<g id="a_node15"><a xlink:href="../../dd/d67/class_cool_s_i114_x.html#a1d25c9e137874af529804c2ec796a6b9" target="_top" xlink:title="CoolSI114X::ReadHalfWord">
<polygon fill="white" stroke="black" points="761.5,-601 761.5,-620 901.5,-620 901.5,-601 761.5,-601"/>
<text text-anchor="middle" x="831.5" y="-608" font-family="Helvetica,sans-Serif" font-size="10.00">CoolSI114X::ReadHalfWord</text>
</a>
</g>
</g>
<!-- Node146&#45;&gt;Node147 -->
<g id="edge16" class="edge"><title>Node146&#45;&gt;Node147</title>
<path fill="none" stroke="midnightblue" d="M673.221,-638.96C701.929,-633.765 737.637,-627.304 767.77,-621.851"/>
<polygon fill="midnightblue" stroke="midnightblue" points="768.541,-625.269 777.758,-620.044 767.294,-618.38 768.541,-625.269"/>
</g>
<!-- Node148&#45;&gt;Node147 -->
<g id="edge18" class="edge"><title>Node148&#45;&gt;Node147</title>
<path fill="none" stroke="midnightblue" d="M674.035,-610.5C697.422,-610.5 725.334,-610.5 751.065,-610.5"/>
<polygon fill="midnightblue" stroke="midnightblue" points="751.181,-614 761.181,-610.5 751.181,-607 751.181,-614"/>
</g>
<!-- Node149&#45;&gt;Node147 -->
<g id="edge20" class="edge"><title>Node149&#45;&gt;Node147</title>
<path fill="none" stroke="midnightblue" d="M673.66,-506.115C682.659,-508.61 691.752,-511.698 700,-515.5 744.393,-535.963 788.878,-572.647 812.718,-593.945"/>
<polygon fill="midnightblue" stroke="midnightblue" points="810.498,-596.657 820.256,-600.785 815.202,-591.473 810.498,-596.657"/>
</g>
<!-- Node158 -->
<g id="node25" class="node"><title>Node158</title>
<g id="a_node25"><a xlink:href="../../d6/d03/class_irene3000.html#a80bc6dfea106dc3bc54fa20204d4d5dc" target="_top" xlink:title="Irene3000::readTemp">
<polygon fill="white" stroke="red" points="565,-411 565,-430 674,-430 674,-411 565,-411"/>
<text text-anchor="middle" x="619.5" y="-418" font-family="Helvetica,sans-Serif" font-size="10.00">Irene3000::readTemp</text>
</a>
</g>
</g>
<!-- Node157&#45;&gt;Node158 -->
<g id="edge28" class="edge"><title>Node157&#45;&gt;Node158</title>
<path fill="none" stroke="midnightblue" d="M473.207,-549.325C483.927,-546.524 494.765,-541.945 503,-534.5 536.495,-504.221 505.101,-469.326 539,-439.5 543.824,-435.255 549.429,-431.918 555.388,-429.299"/>
<polygon fill="midnightblue" stroke="midnightblue" points="556.817,-432.502 564.98,-425.749 554.387,-425.938 556.817,-432.502"/>
</g>
<!-- Node166 -->
<g id="node26" class="node"><title>Node166</title>
<g id="a_node26"><a xlink:href="../../d6/d03/class_irene3000.html#a436fc0a06681cd0784aba56b9707f19a" target="_top" xlink:title="Irene3000::readPh">
<polygon fill="white" stroke="red" points="571.5,-373 571.5,-392 667.5,-392 667.5,-373 571.5,-373"/>
<text text-anchor="middle" x="619.5" y="-380" font-family="Helvetica,sans-Serif" font-size="10.00">Irene3000::readPh</text>
</a>
</g>
</g>
<!-- Node157&#45;&gt;Node166 -->
<g id="edge29" class="edge"><title>Node157&#45;&gt;Node166</title>
<path fill="none" stroke="midnightblue" d="M473.326,-549.936C484.174,-547.151 495.049,-542.429 503,-534.5 546.364,-491.26 495.059,-444.153 539,-401.5 545.362,-395.324 553.355,-391.031 561.803,-388.07"/>
<polygon fill="midnightblue" stroke="midnightblue" points="562.845,-391.412 571.473,-385.263 560.893,-384.689 562.845,-391.412"/>
</g>
<!-- Node167 -->
<g id="node27" class="node"><title>Node167</title>
<g id="a_node27"><a xlink:href="../../d6/d03/class_irene3000.html#ae73bd2ed14a199a7e83f4d6458476a7c" target="_top" xlink:title="Irene3000::readADSChannel2">
<polygon fill="white" stroke="red" points="546.5,-449 546.5,-468 692.5,-468 692.5,-449 546.5,-449"/>
<text text-anchor="middle" x="619.5" y="-456" font-family="Helvetica,sans-Serif" font-size="10.00">Irene3000::readADSChannel2</text>
</a>
</g>
</g>
<!-- Node157&#45;&gt;Node167 -->
<g id="edge30" class="edge"><title>Node157&#45;&gt;Node167</title>
<path fill="none" stroke="midnightblue" d="M473.023,-547.999C483.503,-545.184 494.265,-540.929 503,-534.5 527.132,-516.739 514.632,-494.935 539,-477.5 541.712,-475.56 544.596,-473.815 547.598,-472.247"/>
<polygon fill="midnightblue" stroke="midnightblue" points="549.223,-475.354 556.901,-468.054 546.346,-468.972 549.223,-475.354"/>
</g>
<!-- Node170 -->
<g id="node30" class="node"><title>Node170</title>
<g id="a_node30"><a xlink:href="../../df/d1d/class_jetpack.html#a338f1af8cbc6504ac69b47c7328569b5" target="_top" xlink:title="Jetpack::write">
<polygon fill="white" stroke="black" points="392,-50 392,-69 470,-69 470,-50 392,-50"/>
<text text-anchor="middle" x="431" y="-57" font-family="Helvetica,sans-Serif" font-size="10.00">Jetpack::write</text>
</a>
</g>
</g>
<!-- Node169&#45;&gt;Node170 -->
<g id="edge35" class="edge"><title>Node169&#45;&gt;Node170</title>
<path fill="none" stroke="midnightblue" d="M288.096,-59.5C316.546,-59.5 352.857,-59.5 381.627,-59.5"/>
<polygon fill="midnightblue" stroke="midnightblue" points="381.856,-63.0001 391.856,-59.5 381.856,-56.0001 381.856,-63.0001"/>
</g>
<!-- Node172 -->
<g id="node32" class="node"><title>Node172</title>
<g id="a_node32"><a xlink:href="../../db/d0c/class_cool_file_system.html#ab78704d5d21ce10fc6f1138ab5ab46c8" target="_top" xlink:title="CoolFileSystem::saveSensor\lDataCSV">
<polygon fill="white" stroke="black" points="359,-0.5 359,-30.5 503,-30.5 503,-0.5 359,-0.5"/>
<text text-anchor="start" x="367" y="-18.5" font-family="Helvetica,sans-Serif" font-size="10.00">CoolFileSystem::saveSensor</text>
<text text-anchor="middle" x="431" y="-7.5" font-family="Helvetica,sans-Serif" font-size="10.00">DataCSV</text>
</a>
</g>
</g>
<!-- Node171&#45;&gt;Node172 -->
<g id="edge37" class="edge"><title>Node171&#45;&gt;Node172</title>
<path fill="none" stroke="midnightblue" d="M323.083,-17.2016C331.571,-17.0665 340.199,-16.9292 348.685,-16.7941"/>
<polygon fill="midnightblue" stroke="midnightblue" points="349.003,-20.2896 358.946,-16.6308 348.892,-13.2905 349.003,-20.2896"/>
</g>
<!-- Node175 -->
<g id="node35" class="node"><title>Node175</title>
<g id="a_node35"><a xlink:href="../../d8/d4b/class_cool_pub_sub_client.html#a3245a5afc6d22e61270dcfe392ccb866" target="_top" xlink:title="CoolPubSubClient::state">
<polygon fill="white" stroke="black" points="769,-221 769,-240 894,-240 894,-221 769,-221"/>
<text text-anchor="middle" x="831.5" y="-228" font-family="Helvetica,sans-Serif" font-size="10.00">CoolPubSubClient::state</text>
</a>
</g>
</g>
<!-- Node174&#45;&gt;Node175 -->
<g id="edge40" class="edge"><title>Node174&#45;&gt;Node175</title>
<path fill="none" stroke="midnightblue" d="M665.55,-230.5C692.62,-230.5 727.683,-230.5 758.518,-230.5"/>
<polygon fill="midnightblue" stroke="midnightblue" points="758.795,-234 768.795,-230.5 758.795,-227 758.795,-234"/>
</g>
<!-- Node177 -->
<g id="node37" class="node"><title>Node177</title>
<g id="a_node37"><a xlink:href="../../d4/dc8/class_wi_fi_manager.html#a4dd1dbf4f22900f226a3897b88155212" target="_top" xlink:title="WiFiManager::setRemoveDuplicateAPs">
<polygon fill="white" stroke="black" points="736,-31 736,-50 927,-50 927,-31 736,-31"/>
<text text-anchor="middle" x="831.5" y="-38" font-family="Helvetica,sans-Serif" font-size="10.00">WiFiManager::setRemoveDuplicateAPs</text>
</a>
</g>
</g>
<!-- Node176&#45;&gt;Node177 -->
<g id="edge42" class="edge"><title>Node176&#45;&gt;Node177</title>
<path fill="none" stroke="midnightblue" d="M646.381,-87.9996C669.616,-79.7077 704.773,-67.7447 736,-59.5 746.054,-56.8454 756.796,-54.3601 767.298,-52.1182"/>
<polygon fill="midnightblue" stroke="midnightblue" points="768.186,-55.5085 777.264,-50.0458 766.761,-48.6551 768.186,-55.5085"/>
</g>
<!-- Node178 -->
<g id="node38" class="node"><title>Node178</title>
<g id="a_node38"><a xlink:href="../../d4/dc8/class_wi_fi_manager.html#aa6493d59c284ff245edb767ff684756d" target="_top" xlink:title="WiFiManager::setTimeout">
<polygon fill="white" stroke="black" points="767,-145 767,-164 896,-164 896,-145 767,-145"/>
<text text-anchor="middle" x="831.5" y="-152" font-family="Helvetica,sans-Serif" font-size="10.00">WiFiManager::setTimeout</text>
</a>
</g>
</g>
<!-- Node176&#45;&gt;Node178 -->
<g id="edge43" class="edge"><title>Node176&#45;&gt;Node178</title>
<path fill="none" stroke="midnightblue" d="M669.01,-107.044C679.384,-109.651 690.172,-112.8 700,-116.5 716.931,-122.875 718.956,-129.432 736,-135.5 743.622,-138.213 751.735,-140.579 759.882,-142.633"/>
<polygon fill="midnightblue" stroke="midnightblue" points="759.268,-146.084 769.805,-144.984 760.882,-139.273 759.268,-146.084"/>
</g>
<!-- Node180 -->
<g id="node40" class="node"><title>Node180</title>
<g id="a_node40"><a xlink:href="../../d4/dc8/class_wi_fi_manager.html#ae3cdfa6b02edcfe63d7da4f696b62136" target="_top" xlink:title="WiFiManager::autoConnect">
<polygon fill="white" stroke="black" points="763.5,-107 763.5,-126 899.5,-126 899.5,-107 763.5,-107"/>
<text text-anchor="middle" x="831.5" y="-114" font-family="Helvetica,sans-Serif" font-size="10.00">WiFiManager::autoConnect</text>
</a>
</g>
</g>
<!-- Node176&#45;&gt;Node180 -->
<g id="edge45" class="edge"><title>Node176&#45;&gt;Node180</title>
<path fill="none" stroke="midnightblue" d="M673.763,-102.319C697.899,-104.503 726.897,-107.126 753.352,-109.52"/>
<polygon fill="midnightblue" stroke="midnightblue" points="753.076,-113.009 763.351,-110.425 753.707,-106.038 753.076,-113.009"/>
</g>
<!-- Node181 -->
<g id="node41" class="node"><title>Node181</title>
<g id="a_node41"><a xlink:href="../../d7/d29/class_cool_wifi.html#a914d7a1df14dd6b75345fb614c34e9d6" target="_top" xlink:title="CoolWifi::addWifi">
<polygon fill="white" stroke="black" points="785,-69 785,-88 878,-88 878,-69 785,-69"/>
<text text-anchor="middle" x="831.5" y="-76" font-family="Helvetica,sans-Serif" font-size="10.00">CoolWifi::addWifi</text>
</a>
</g>
</g>
<!-- Node176&#45;&gt;Node181 -->
<g id="edge46" class="edge"><title>Node176&#45;&gt;Node181</title>
<path fill="none" stroke="midnightblue" d="M673.763,-92.6809C704.55,-89.8955 743.247,-86.3943 774.488,-83.5678"/>
<polygon fill="midnightblue" stroke="midnightblue" points="775.13,-87.024 784.774,-82.6371 774.5,-80.0525 775.13,-87.024"/>
</g>
<!-- Node179 -->
<g id="node39" class="node"><title>Node179</title>
<g id="a_node39"><a xlink:href="../../d4/dc8/class_wi_fi_manager.html#a904006cb4d2c769e93bfdef336853766" target="_top" xlink:title="WiFiManager::setConfigPortal\lTimeout">
<polygon fill="white" stroke="black" points="963,-139.5 963,-169.5 1111,-169.5 1111,-139.5 963,-139.5"/>
<text text-anchor="start" x="971" y="-157.5" font-family="Helvetica,sans-Serif" font-size="10.00">WiFiManager::setConfigPortal</text>
<text text-anchor="middle" x="1037" y="-146.5" font-family="Helvetica,sans-Serif" font-size="10.00">Timeout</text>
</a>
</g>
</g>
<!-- Node178&#45;&gt;Node179 -->
<g id="edge44" class="edge"><title>Node178&#45;&gt;Node179</title>
<path fill="none" stroke="midnightblue" d="M896.052,-154.5C914.043,-154.5 933.898,-154.5 952.861,-154.5"/>
<polygon fill="midnightblue" stroke="midnightblue" points="952.982,-158 962.982,-154.5 952.982,-151 952.982,-158"/>
</g>
<!-- Node182&#45;&gt;Node136 -->
<g id="edge60" class="edge"><title>Node182&#45;&gt;Node136</title>
<path fill="none" stroke="midnightblue" d="M253.457,-316.07C273.92,-332.011 317.477,-364.066 359,-382.5 364.379,-384.888 370.125,-387.032 375.931,-388.943"/>
<polygon fill="midnightblue" stroke="midnightblue" points="375.117,-392.355 385.703,-391.941 377.169,-385.662 375.117,-392.355"/>
</g>
<!-- Node182&#45;&gt;Node173 -->
<g id="edge52" class="edge"><title>Node182&#45;&gt;Node173</title>
<path fill="none" stroke="midnightblue" d="M269.865,-316.125C293.585,-324.064 328.363,-335.453 359,-344.5 366.83,-346.812 375.182,-349.156 383.305,-351.37"/>
<polygon fill="midnightblue" stroke="midnightblue" points="382.483,-354.773 393.049,-353.996 384.304,-348.014 382.483,-354.773"/>
</g>
<!-- Node182&#45;&gt;Node174 -->
<g id="edge59" class="edge"><title>Node182&#45;&gt;Node174</title>
<path fill="none" stroke="midnightblue" d="M266.824,-296.947C290.389,-288.385 326.637,-276.047 359,-268.5 428.424,-252.311 509.991,-241.711 562.882,-235.918"/>
<polygon fill="midnightblue" stroke="midnightblue" points="563.497,-239.372 573.066,-234.824 562.749,-232.413 563.497,-239.372"/>
</g>
<!-- Node183 -->
<g id="node43" class="node"><title>Node183</title>
<g id="a_node43"><a xlink:href="../../de/dc0/class_cool_board_led.html#a30fadd4cbec17ceea428bf7a32207e87" target="_top" xlink:title="CoolBoardLed::write">
<polygon fill="white" stroke="black" points="378.5,-202 378.5,-221 483.5,-221 483.5,-202 378.5,-202"/>
<text text-anchor="middle" x="431" y="-209" font-family="Helvetica,sans-Serif" font-size="10.00">CoolBoardLed::write</text>
</a>
</g>
</g>
<!-- Node182&#45;&gt;Node183 -->
<g id="edge48" class="edge"><title>Node182&#45;&gt;Node183</title>
<path fill="none" stroke="midnightblue" d="M255.064,-296.954C276.396,-282.258 319.441,-253.871 359,-235.5 367.934,-231.351 377.793,-227.557 387.248,-224.271"/>
<polygon fill="midnightblue" stroke="midnightblue" points="388.53,-227.533 396.9,-221.037 386.306,-220.896 388.53,-227.533"/>
</g>
<!-- Node184 -->
<g id="node44" class="node"><title>Node184</title>
<g id="a_node44"><a xlink:href="../../d7/d29/class_cool_wifi.html#ad060353050f40d032a2dbf9e54a768bf" target="_top" xlink:title="CoolWifi::connect">
<polygon fill="white" stroke="black" points="383.5,-126 383.5,-145 478.5,-145 478.5,-126 383.5,-126"/>
<text text-anchor="middle" x="431" y="-133" font-family="Helvetica,sans-Serif" font-size="10.00">CoolWifi::connect</text>
</a>
</g>
</g>
<!-- Node182&#45;&gt;Node184 -->
<g id="edge49" class="edge"><title>Node182&#45;&gt;Node184</title>
<path fill="none" stroke="midnightblue" d="M250.956,-296.725C270.55,-276.609 317.242,-229.374 359,-192.5 375.386,-178.03 394.789,-162.559 409.167,-151.392"/>
<polygon fill="midnightblue" stroke="midnightblue" points="411.618,-153.921 417.397,-145.042 407.342,-148.379 411.618,-153.921"/>
</g>
<!-- Node186 -->
<g id="node46" class="node"><title>Node186</title>
<g id="a_node46"><a xlink:href="../../d0/dd0/class_cool_m_q_t_t.html#a50075d0ab23a327ab897fd6adad20eda" target="_top" xlink:title="CoolMQTT::connect">
<polygon fill="white" stroke="black" points="378.5,-316 378.5,-335 483.5,-335 483.5,-316 378.5,-316"/>
<text text-anchor="middle" x="431" y="-323" font-family="Helvetica,sans-Serif" font-size="10.00">CoolMQTT::connect</text>
</a>
</g>
</g>
<!-- Node182&#45;&gt;Node186 -->
<g id="edge53" class="edge"><title>Node182&#45;&gt;Node186</title>
<path fill="none" stroke="midnightblue" d="M292.015,-311.592C315.497,-313.959 343.635,-316.795 368.358,-319.287"/>
<polygon fill="midnightblue" stroke="midnightblue" points="368.06,-322.774 378.361,-320.295 368.763,-315.81 368.06,-322.774"/>
</g>
<!-- Node190 -->
<g id="node50" class="node"><title>Node190</title>
<g id="a_node50"><a xlink:href="../../d7/df9/class_cool_board.html#a7508e029f2ee17bb747ffab599285e0d" target="_top" xlink:title="CoolBoard::getLogInterval">
<polygon fill="white" stroke="black" points="366,-278 366,-297 496,-297 496,-278 366,-278"/>
<text text-anchor="middle" x="431" y="-285" font-family="Helvetica,sans-Serif" font-size="10.00">CoolBoard::getLogInterval</text>
</a>
</g>
</g>
<!-- Node182&#45;&gt;Node190 -->
<g id="edge58" class="edge"><title>Node182&#45;&gt;Node190</title>
<path fill="none" stroke="midnightblue" d="M292.015,-301.408C311.597,-299.435 334.415,-297.135 355.792,-294.98"/>
<polygon fill="midnightblue" stroke="midnightblue" points="356.222,-298.454 365.821,-293.969 355.52,-291.49 356.222,-298.454"/>
</g>
<!-- Node184&#45;&gt;Node176 -->
<g id="edge51" class="edge"><title>Node184&#45;&gt;Node176</title>
<path fill="none" stroke="midnightblue" d="M478.581,-126.009C503.837,-120.863 535.248,-114.463 561.905,-109.031"/>
<polygon fill="midnightblue" stroke="midnightblue" points="562.767,-112.428 571.867,-107.002 561.369,-105.569 562.767,-112.428"/>
</g>
<!-- Node185 -->
<g id="node45" class="node"><title>Node185</title>
<g id="a_node45"><a xlink:href="../../d7/d29/class_cool_wifi.html#a419de92d738f14b7444cf822b3ab0070" target="_top" xlink:title="CoolWifi::connectWifiMulti">
<polygon fill="white" stroke="black" points="553,-126 553,-145 686,-145 686,-126 553,-126"/>
<text text-anchor="middle" x="619.5" y="-133" font-family="Helvetica,sans-Serif" font-size="10.00">CoolWifi::connectWifiMulti</text>
</a>
</g>
</g>
<!-- Node184&#45;&gt;Node185 -->
<g id="edge50" class="edge"><title>Node184&#45;&gt;Node185</title>
<path fill="none" stroke="midnightblue" d="M478.581,-135.5C497.954,-135.5 520.948,-135.5 542.64,-135.5"/>
<polygon fill="midnightblue" stroke="midnightblue" points="542.829,-139 552.829,-135.5 542.829,-132 542.829,-139"/>
</g>
<!-- Node186&#45;&gt;Node174 -->
<g id="edge57" class="edge"><title>Node186&#45;&gt;Node174</title>
<path fill="none" stroke="midnightblue" d="M483.756,-316.585C490.61,-314.027 497.245,-310.736 503,-306.5 527.132,-288.739 514.632,-266.935 539,-249.5 546.295,-244.28 554.835,-240.48 563.559,-237.716"/>
<polygon fill="midnightblue" stroke="midnightblue" points="564.71,-241.03 573.432,-235.016 562.863,-234.278 564.71,-241.03"/>
</g>
<!-- Node187 -->
<g id="node47" class="node"><title>Node187</title>
<g id="a_node47"><a xlink:href="../../d8/d4b/class_cool_pub_sub_client.html#a3d5a5da4ddb1e5c1bea64d80c665d148" target="_top" xlink:title="CoolPubSubClient::connected">
<polygon fill="white" stroke="black" points="545.5,-297 545.5,-316 693.5,-316 693.5,-297 545.5,-297"/>
<text text-anchor="middle" x="619.5" y="-304" font-family="Helvetica,sans-Serif" font-size="10.00">CoolPubSubClient::connected</text>
</a>
</g>
</g>
<!-- Node186&#45;&gt;Node187 -->
<g id="edge54" class="edge"><title>Node186&#45;&gt;Node187</title>
<path fill="none" stroke="midnightblue" d="M483.951,-320.207C499.808,-318.592 517.662,-316.773 535.056,-315.001"/>
<polygon fill="midnightblue" stroke="midnightblue" points="535.631,-318.461 545.225,-313.965 534.922,-311.497 535.631,-318.461"/>
</g>
<!-- Node188 -->
<g id="node48" class="node"><title>Node188</title>
<g id="a_node48"><a xlink:href="../../d8/d4b/class_cool_pub_sub_client.html#a2664c2ebc302b2fa49f493a339ecc891" target="_top" xlink:title="CoolPubSubClient::connect">
<polygon fill="white" stroke="black" points="551,-259 551,-278 688,-278 688,-259 551,-259"/>
<text text-anchor="middle" x="619.5" y="-266" font-family="Helvetica,sans-Serif" font-size="10.00">CoolPubSubClient::connect</text>
</a>
</g>
</g>
<!-- Node186&#45;&gt;Node188 -->
<g id="edge55" class="edge"><title>Node186&#45;&gt;Node188</title>
<path fill="none" stroke="midnightblue" d="M473.803,-315.985C483.522,-313.315 493.733,-310.132 503,-306.5 519.844,-299.898 522.069,-293.875 539,-287.5 545.756,-284.956 552.967,-282.673 560.185,-280.647"/>
<polygon fill="midnightblue" stroke="midnightblue" points="561.222,-283.993 569.99,-278.044 559.426,-277.227 561.222,-283.993"/>
</g>
<!-- Node189 -->
<g id="node49" class="node"><title>Node189</title>
<g id="a_node49"><a xlink:href="../../d8/d4b/class_cool_pub_sub_client.html#ac1ebc9ad874128aefa985d78496d2e8f" target="_top" xlink:title="CoolPubSubClient::subscribe">
<polygon fill="white" stroke="black" points="547,-335 547,-354 692,-354 692,-335 547,-335"/>
<text text-anchor="middle" x="619.5" y="-342" font-family="Helvetica,sans-Serif" font-size="10.00">CoolPubSubClient::subscribe</text>
</a>
</g>
</g>
<!-- Node186&#45;&gt;Node189 -->
<g id="edge56" class="edge"><title>Node186&#45;&gt;Node189</title>
<path fill="none" stroke="midnightblue" d="M483.951,-330.793C500.335,-332.462 518.85,-334.348 536.787,-336.175"/>
<polygon fill="midnightblue" stroke="midnightblue" points="536.664,-339.681 546.967,-337.212 537.373,-332.717 536.664,-339.681"/>
</g>
</g>
</svg>
