<?xml version="1.0" encoding="UTF-8" standalone="no"?>
<!DOCTYPE svg PUBLIC "-//W3C//DTD SVG 1.1//EN"
 "http://www.w3.org/Graphics/SVG/1.1/DTD/svg11.dtd">
<!-- Generated by graphviz version 2.38.0 (20140413.2041)
 -->
<!-- Title: CoolBoard::offLineMode Pages: 1 -->
<svg width="1157pt" height="857pt"
 viewBox="0.00 0.00 1157.00 856.77" xmlns="http://www.w3.org/2000/svg" xmlns:xlink="http://www.w3.org/1999/xlink">
<g id="graph0" class="graph" transform="scale(1 1) rotate(0) translate(4 852.771)">
<title>CoolBoard::offLineMode</title>
<polygon fill="white" stroke="none" points="-4,4 -4,-852.771 1153,-852.771 1153,4 -4,4"/>
<!-- Node137 -->
<g id="node1" class="node"><title>Node137</title>
<polygon fill="#bfbfbf" stroke="black" points="0,-411.271 0,-430.271 122,-430.271 122,-411.271 0,-411.271"/>
<text text-anchor="middle" x="61" y="-418.271" font-family="Helvetica,sans-Serif" font-size="10.00">CoolBoard::offLineMode</text>
</g>
<!-- Node138 -->
<g id="node2" class="node"><title>Node138</title>
<g id="a_node2"><a xlink:href="../../de/dc0/class_cool_board_led.html#af1cacbaa88db8bcf6042c1083ba41155" target="_top" xlink:title="CoolBoardLed::fade">
<polygon fill="white" stroke="black" points="189,-800.271 189,-819.271 292,-819.271 292,-800.271 189,-800.271"/>
<text text-anchor="middle" x="240.5" y="-807.271" font-family="Helvetica,sans-Serif" font-size="10.00">CoolBoardLed::fade</text>
</a>
</g>
</g>
<!-- Node137&#45;&gt;Node138 -->
<g id="edge1" class="edge"><title>Node137&#45;&gt;Node138</title>
<path fill="none" stroke="midnightblue" d="M63.1632,-430.48C69.7087,-483.51 103.607,-737.712 158,-790.771 163.915,-796.541 171.225,-800.685 179.017,-803.641"/>
<polygon fill="midnightblue" stroke="midnightblue" points="178.111,-807.025 188.7,-806.686 180.211,-800.347 178.111,-807.025"/>
</g>
<!-- Node139 -->
<g id="node3" class="node"><title>Node139</title>
<g id="a_node3"><a xlink:href="../../de/dc0/class_cool_board_led.html#ab778f5e7bed0ab74e3906d82110493c3" target="_top" xlink:title="CoolBoardLed::fadeIn">
<polygon fill="white" stroke="black" points="394.5,-753.271 394.5,-772.271 505.5,-772.271 505.5,-753.271 394.5,-753.271"/>
<text text-anchor="middle" x="450" y="-760.271" font-family="Helvetica,sans-Serif" font-size="10.00">CoolBoardLed::fadeIn</text>
</a>
</g>
</g>
<!-- Node137&#45;&gt;Node139 -->
<g id="edge2" class="edge"><title>Node137&#45;&gt;Node139</title>
<path fill="none" stroke="midnightblue" d="M64.0847,-430.313C71.4987,-462.278 99.342,-567.088 158,-629.771 221.948,-698.107 327.771,-734.103 392.649,-750.727"/>
<polygon fill="midnightblue" stroke="midnightblue" points="392.148,-754.209 402.698,-753.231 393.841,-747.417 392.148,-754.209"/>
</g>
<!-- Node140 -->
<g id="node4" class="node"><title>Node140</title>
<g id="a_node4"><a xlink:href="../../de/dc0/class_cool_board_led.html#a96e1ea13003eee34c9dbcef340404426" target="_top" xlink:title="CoolBoardLed::blink">
<polygon fill="white" stroke="black" points="398,-247.271 398,-266.271 502,-266.271 502,-247.271 398,-247.271"/>
<text text-anchor="middle" x="450" y="-254.271" font-family="Helvetica,sans-Serif" font-size="10.00">CoolBoardLed::blink</text>
</a>
</g>
</g>
<!-- Node137&#45;&gt;Node140 -->
<g id="edge3" class="edge"><title>Node137&#45;&gt;Node140</title>
<path fill="none" stroke="midnightblue" d="M65.2681,-411.097C74.7451,-384.735 104.987,-311.549 158,-280.771 228.597,-239.785 325.525,-240.866 387.721,-247.309"/>
<polygon fill="midnightblue" stroke="midnightblue" points="387.449,-250.8 397.775,-248.428 388.224,-243.843 387.449,-250.8"/>
</g>
<!-- Node141 -->
<g id="node5" class="node"><title>Node141</title>
<g id="a_node5"><a xlink:href="../../d7/df9/class_cool_board.html#ae7358fb6e623cfc81b775f5f1734909b" target="_top" xlink:title="CoolBoard::userData">
<polygon fill="white" stroke="black" points="186.5,-762.271 186.5,-781.271 294.5,-781.271 294.5,-762.271 186.5,-762.271"/>
<text text-anchor="middle" x="240.5" y="-769.271" font-family="Helvetica,sans-Serif" font-size="10.00">CoolBoard::userData</text>
</a>
</g>
</g>
<!-- Node137&#45;&gt;Node141 -->
<g id="edge4" class="edge"><title>Node137&#45;&gt;Node141</title>
<path fill="none" stroke="midnightblue" d="M62.7433,-430.388C66.2582,-470.153 84.2673,-624.133 158,-719.771 170.71,-736.258 190.236,-748.975 206.989,-757.706"/>
<polygon fill="midnightblue" stroke="midnightblue" points="205.435,-760.842 215.95,-762.145 208.542,-754.57 205.435,-760.842"/>
</g>
<!-- Node146 -->
<g id="node10" class="node"><title>Node146</title>
<g id="a_node10"><a xlink:href="../../d7/df9/class_cool_board.html#ad03abdce2e65f520bbf2cff0f2d083cf" target="_top" xlink:title="CoolBoard::readSensors">
<polygon fill="white" stroke="black" points="179,-601.271 179,-620.271 302,-620.271 302,-601.271 179,-601.271"/>
<text text-anchor="middle" x="240.5" y="-608.271" font-family="Helvetica,sans-Serif" font-size="10.00">CoolBoard::readSensors</text>
</a>
</g>
</g>
<!-- Node137&#45;&gt;Node146 -->
<g id="edge10" class="edge"><title>Node137&#45;&gt;Node146</title>
<path fill="none" stroke="midnightblue" d="M71.0463,-430.455C99.407,-460.813 186.854,-554.418 223.297,-593.427"/>
<polygon fill="midnightblue" stroke="midnightblue" points="220.875,-595.962 230.259,-600.88 225.99,-591.183 220.875,-595.962"/>
</g>
<!-- Node172 -->
<g id="node27" class="node"><title>Node172</title>
<g id="a_node27"><a xlink:href="../../de/dc0/class_cool_board_led.html#a93d545679237e8cc858324367149775c" target="_top" xlink:title="CoolBoardLed::fadeOut">
<polygon fill="white" stroke="black" points="390.5,-487.271 390.5,-506.271 509.5,-506.271 509.5,-487.271 390.5,-487.271"/>
<text text-anchor="middle" x="450" y="-494.271" font-family="Helvetica,sans-Serif" font-size="10.00">CoolBoardLed::fadeOut</text>
</a>
</g>
</g>
<!-- Node137&#45;&gt;Node172 -->
<g id="edge30" class="edge"><title>Node137&#45;&gt;Node172</title>
<path fill="none" stroke="midnightblue" d="M73.8358,-430.352C91.1286,-443.725 124.859,-467.501 158,-477.771 231.487,-500.544 320.265,-502.976 380.288,-501.192"/>
<polygon fill="midnightblue" stroke="midnightblue" points="380.535,-504.685 390.408,-500.843 380.293,-497.689 380.535,-504.685"/>
</g>
<!-- Node173 -->
<g id="node28" class="node"><title>Node173</title>
<g id="a_node28"><a xlink:href="../../df/d1d/class_jetpack.html#a9e703197093094b963f9ad57817495b8" target="_top" xlink:title="Jetpack::doAction">
<polygon fill="white" stroke="black" points="193,-449.271 193,-468.271 288,-468.271 288,-449.271 193,-449.271"/>
<text text-anchor="middle" x="240.5" y="-456.271" font-family="Helvetica,sans-Serif" font-size="10.00">Jetpack::doAction</text>
</a>
</g>
</g>
<!-- Node137&#45;&gt;Node173 -->
<g id="edge31" class="edge"><title>Node137&#45;&gt;Node173</title>
<path fill="none" stroke="midnightblue" d="M106.791,-430.36C130.53,-435.443 159.884,-441.727 184.944,-447.092"/>
<polygon fill="midnightblue" stroke="midnightblue" points="184.52,-450.58 195.031,-449.251 185.986,-443.735 184.52,-450.58"/>
</g>
<!-- Node175 -->
<g id="node30" class="node"><title>Node175</title>
<g id="a_node30"><a xlink:href="../../dc/d69/class_cool_board_actor.html#a96a45658d32c6b95caa2f385c7da32cd" target="_top" xlink:title="CoolBoardActor::doAction">
<polygon fill="white" stroke="black" points="175.5,-411.271 175.5,-430.271 305.5,-430.271 305.5,-411.271 175.5,-411.271"/>
<text text-anchor="middle" x="240.5" y="-418.271" font-family="Helvetica,sans-Serif" font-size="10.00">CoolBoardActor::doAction</text>
</a>
</g>
</g>
<!-- Node137&#45;&gt;Node175 -->
<g id="edge33" class="edge"><title>Node137&#45;&gt;Node175</title>
<path fill="none" stroke="midnightblue" d="M122.093,-420.771C135.852,-420.771 150.639,-420.771 164.924,-420.771"/>
<polygon fill="midnightblue" stroke="midnightblue" points="165.215,-424.271 175.215,-420.771 165.214,-417.271 165.215,-424.271"/>
</g>
<!-- Node177 -->
<g id="node32" class="node"><title>Node177</title>
<g id="a_node32"><a xlink:href="../../db/d0c/class_cool_file_system.html#afa3a4feae94871d4d3b6bebb701c2e67" target="_top" xlink:title="CoolFileSystem::saveSensorData">
<polygon fill="white" stroke="black" points="158,-373.271 158,-392.271 323,-392.271 323,-373.271 158,-373.271"/>
<text text-anchor="middle" x="240.5" y="-380.271" font-family="Helvetica,sans-Serif" font-size="10.00">CoolFileSystem::saveSensorData</text>
</a>
</g>
</g>
<!-- Node137&#45;&gt;Node177 -->
<g id="edge35" class="edge"><title>Node137&#45;&gt;Node177</title>
<path fill="none" stroke="midnightblue" d="M106.791,-411.182C130.53,-406.1 159.884,-399.816 184.944,-394.451"/>
<polygon fill="midnightblue" stroke="midnightblue" points="185.986,-397.807 195.031,-392.291 184.52,-390.962 185.986,-397.807"/>
</g>
<!-- Node180 -->
<g id="node35" class="node"><title>Node180</title>
<g id="a_node35"><a xlink:href="../../d7/d29/class_cool_wifi.html#a1c7b4d82a4098d346e7593dce92039fa" target="_top" xlink:title="CoolWifi::state">
<polygon fill="white" stroke="black" points="409,-209.271 409,-228.271 491,-228.271 491,-209.271 409,-209.271"/>
<text text-anchor="middle" x="450" y="-216.271" font-family="Helvetica,sans-Serif" font-size="10.00">CoolWifi::state</text>
</a>
</g>
</g>
<!-- Node137&#45;&gt;Node180 -->
<g id="edge38" class="edge"><title>Node137&#45;&gt;Node180</title>
<path fill="none" stroke="midnightblue" d="M63.7786,-411.171C70.0887,-380.144 94.5263,-282.189 158,-240.771 230.951,-193.169 337.168,-199.583 399.064,-208.929"/>
<polygon fill="midnightblue" stroke="midnightblue" points="398.55,-212.392 408.976,-210.509 399.651,-205.479 398.55,-212.392"/>
</g>
<!-- Node181 -->
<g id="node36" class="node"><title>Node181</title>
<g id="a_node36"><a xlink:href="../../d0/dd0/class_cool_m_q_t_t.html#a5d003307eff78efbd585e42b43b72b6d" target="_top" xlink:title="CoolMQTT::state">
<polygon fill="white" stroke="black" points="611.5,-19.2713 611.5,-38.2713 703.5,-38.2713 703.5,-19.2713 611.5,-19.2713"/>
<text text-anchor="middle" x="657.5" y="-26.2713" font-family="Helvetica,sans-Serif" font-size="10.00">CoolMQTT::state</text>
</a>
</g>
</g>
<!-- Node137&#45;&gt;Node181 -->
<g id="edge39" class="edge"><title>Node137&#45;&gt;Node181</title>
<path fill="none" stroke="midnightblue" d="M63.042,-411.063C67.5726,-372.916 88.5638,-231.074 158,-142.771 223.613,-59.3301 257.142,-43.6454 359,-13.7713 444.612,11.3381 549.944,-4.20737 609.537,-17.0161"/>
<polygon fill="midnightblue" stroke="midnightblue" points="608.887,-20.4569 619.408,-19.2032 610.402,-13.6227 608.887,-20.4569"/>
</g>
<!-- Node183 -->
<g id="node38" class="node"><title>Node183</title>
<g id="a_node38"><a xlink:href="../../d7/d29/class_cool_wifi.html#a7c857f27161782f5ef1d62d552aff971" target="_top" xlink:title="CoolWifi::connectAP">
<polygon fill="white" stroke="black" points="603.5,-228.271 603.5,-247.271 711.5,-247.271 711.5,-228.271 603.5,-228.271"/>
<text text-anchor="middle" x="657.5" y="-235.271" font-family="Helvetica,sans-Serif" font-size="10.00">CoolWifi::connectAP</text>
</a>
</g>
</g>
<!-- Node137&#45;&gt;Node183 -->
<g id="edge41" class="edge"><title>Node137&#45;&gt;Node183</title>
<path fill="none" stroke="midnightblue" d="M75.3273,-411.134C93.2842,-398.564 126.624,-376.661 158,-363.771 319.555,-297.399 372.296,-320.983 541,-275.771 567.998,-268.536 597.965,-258.62 620.609,-250.731"/>
<polygon fill="midnightblue" stroke="midnightblue" points="621.874,-253.997 630.147,-247.378 619.552,-247.393 621.874,-253.997"/>
</g>
<!-- Node189 -->
<g id="node44" class="node"><title>Node189</title>
<g id="a_node44"><a xlink:href="../../d7/df9/class_cool_board.html#a519de78b807f8ec6463ff484eb925918" target="_top" xlink:title="CoolBoard::connect">
<polygon fill="white" stroke="black" points="189,-152.271 189,-171.271 292,-171.271 292,-152.271 189,-152.271"/>
<text text-anchor="middle" x="240.5" y="-159.271" font-family="Helvetica,sans-Serif" font-size="10.00">CoolBoard::connect</text>
</a>
</g>
</g>
<!-- Node137&#45;&gt;Node189 -->
<g id="edge47" class="edge"><title>Node137&#45;&gt;Node189</title>
<path fill="none" stroke="midnightblue" d="M63.9619,-410.884C70.9873,-377.768 97.7455,-269.221 158,-204.771 169.83,-192.117 186.234,-182.475 201.225,-175.56"/>
<polygon fill="midnightblue" stroke="midnightblue" points="203.027,-178.594 210.81,-171.406 200.243,-172.171 203.027,-178.594"/>
</g>
<!-- Node142 -->
<g id="node6" class="node"><title>Node142</title>
<g id="a_node6"><a xlink:href="../../d0/dd0/class_cool_m_q_t_t.html#a373cc92fca7760d886f02d8a6e5b3f63" target="_top" xlink:title="CoolMQTT::getUser">
<polygon fill="white" stroke="black" points="397.5,-829.271 397.5,-848.271 502.5,-848.271 502.5,-829.271 397.5,-829.271"/>
<text text-anchor="middle" x="450" y="-836.271" font-family="Helvetica,sans-Serif" font-size="10.00">CoolMQTT::getUser</text>
</a>
</g>
</g>
<!-- Node141&#45;&gt;Node142 -->
<g id="edge5" class="edge"><title>Node141&#45;&gt;Node142</title>
<path fill="none" stroke="midnightblue" d="M294.867,-780.573C304.498,-783.172 314.25,-786.506 323,-790.771 341.468,-799.774 340.438,-810.963 359,-819.771 367.873,-823.982 377.677,-827.266 387.452,-829.826"/>
<polygon fill="midnightblue" stroke="midnightblue" points="386.643,-833.231 397.182,-832.151 388.27,-826.423 386.643,-833.231"/>
</g>
<!-- Node143 -->
<g id="node7" class="node"><title>Node143</title>
<g id="a_node7"><a xlink:href="../../d6/d49/class_cool_time.html#ac4f32ee513c1328d984306645e8785a4" target="_top" xlink:title="CoolTime::getESDate">
<polygon fill="white" stroke="black" points="393.5,-791.271 393.5,-810.271 506.5,-810.271 506.5,-791.271 393.5,-791.271"/>
<text text-anchor="middle" x="450" y="-798.271" font-family="Helvetica,sans-Serif" font-size="10.00">CoolTime::getESDate</text>
</a>
</g>
</g>
<!-- Node141&#45;&gt;Node143 -->
<g id="edge6" class="edge"><title>Node141&#45;&gt;Node143</title>
<path fill="none" stroke="midnightblue" d="M294.667,-779.202C321.735,-782.985 354.885,-787.618 383.514,-791.619"/>
<polygon fill="midnightblue" stroke="midnightblue" points="383.046,-795.088 393.434,-793.005 384.015,-788.155 383.046,-795.088"/>
</g>
<!-- Node144 -->
<g id="node8" class="node"><title>Node144</title>
<g id="a_node8"><a xlink:href="../../d6/d49/class_cool_time.html#a7a7501c5ca77dd1248bea704c44f986c" target="_top" xlink:title="CoolTime::getTimeDate">
<polygon fill="white" stroke="black" points="597,-772.271 597,-791.271 718,-791.271 718,-772.271 597,-772.271"/>
<text text-anchor="middle" x="657.5" y="-779.271" font-family="Helvetica,sans-Serif" font-size="10.00">CoolTime::getTimeDate</text>
</a>
</g>
</g>
<!-- Node143&#45;&gt;Node144 -->
<g id="edge7" class="edge"><title>Node143&#45;&gt;Node144</title>
<path fill="none" stroke="midnightblue" d="M506.611,-795.63C531.271,-793.35 560.557,-790.642 586.67,-788.228"/>
<polygon fill="midnightblue" stroke="midnightblue" points="587.248,-791.689 596.883,-787.283 586.603,-784.719 587.248,-791.689"/>
</g>
<!-- Node145 -->
<g id="node9" class="node"><title>Node145</title>
<g id="a_node9"><a xlink:href="../../d6/d49/class_cool_time.html#acd537cd4210d7bde4e1f5c47d2ac0456" target="_top" xlink:title="CoolTime::formatDigits">
<polygon fill="white" stroke="black" points="810.5,-791.271 810.5,-810.271 928.5,-810.271 928.5,-791.271 810.5,-791.271"/>
<text text-anchor="middle" x="869.5" y="-798.271" font-family="Helvetica,sans-Serif" font-size="10.00">CoolTime::formatDigits</text>
</a>
</g>
</g>
<!-- Node143&#45;&gt;Node145 -->
<g id="edge9" class="edge"><title>Node143&#45;&gt;Node145</title>
<path fill="none" stroke="midnightblue" d="M506.873,-800.771C582.73,-800.771 718.21,-800.771 800.073,-800.771"/>
<polygon fill="midnightblue" stroke="midnightblue" points="800.273,-804.271 810.273,-800.771 800.273,-797.271 800.273,-804.271"/>
</g>
<!-- Node144&#45;&gt;Node145 -->
<g id="edge8" class="edge"><title>Node144&#45;&gt;Node145</title>
<path fill="none" stroke="midnightblue" d="M718.116,-787.165C743.594,-789.47 773.486,-792.175 799.879,-794.563"/>
<polygon fill="midnightblue" stroke="midnightblue" points="799.912,-798.08 810.186,-795.495 800.542,-791.108 799.912,-798.08"/>
</g>
<!-- Node146&#45;&gt;Node139 -->
<g id="edge11" class="edge"><title>Node146&#45;&gt;Node139</title>
<path fill="none" stroke="midnightblue" d="M251.984,-620.327C267.95,-635.066 299.031,-664.501 323,-691.771 340.371,-711.535 337.12,-724.156 359,-738.771 366.703,-743.916 375.464,-747.96 384.425,-751.139"/>
<polygon fill="midnightblue" stroke="midnightblue" points="383.596,-754.548 394.187,-754.259 385.727,-747.88 383.596,-754.548"/>
</g>
<!-- Node146&#45;&gt;Node144 -->
<g id="edge28" class="edge"><title>Node146&#45;&gt;Node144</title>
<path fill="none" stroke="midnightblue" d="M250.182,-620.35C268.348,-639.756 312.544,-683.738 359,-705.771 433.661,-741.183 463.256,-715.768 541,-743.771 558.021,-749.902 560.069,-756.396 577,-762.771 583.756,-765.315 590.967,-767.598 598.185,-769.624"/>
<polygon fill="midnightblue" stroke="midnightblue" points="597.426,-773.044 607.99,-772.227 599.222,-766.278 597.426,-773.044"/>
</g>
<!-- Node147 -->
<g id="node11" class="node"><title>Node147</title>
<g id="a_node11"><a xlink:href="../../de/dc0/class_cool_board_led.html#ad5f0de4c628cbfbf49896042831c64ad" target="_top" xlink:title="CoolBoardLed::strobe">
<polygon fill="white" stroke="black" points="394.5,-677.271 394.5,-696.271 505.5,-696.271 505.5,-677.271 394.5,-677.271"/>
<text text-anchor="middle" x="450" y="-684.271" font-family="Helvetica,sans-Serif" font-size="10.00">CoolBoardLed::strobe</text>
</a>
</g>
</g>
<!-- Node146&#45;&gt;Node147 -->
<g id="edge12" class="edge"><title>Node146&#45;&gt;Node147</title>
<path fill="none" stroke="midnightblue" d="M258.072,-620.42C280.337,-633.002 321.462,-654.919 359,-667.771 367.036,-670.522 375.617,-672.951 384.171,-675.071"/>
<polygon fill="midnightblue" stroke="midnightblue" points="383.63,-678.539 394.165,-677.42 385.232,-671.725 383.63,-678.539"/>
</g>
<!-- Node148 -->
<g id="node12" class="node"><title>Node148</title>
<g id="a_node12"><a xlink:href="../../d7/df9/class_cool_board.html#a397b46fadab8f530a8cf4d914c561366" target="_top" xlink:title="CoolBoard::initReadI2C">
<polygon fill="white" stroke="black" points="390,-639.271 390,-658.271 510,-658.271 510,-639.271 390,-639.271"/>
<text text-anchor="middle" x="450" y="-646.271" font-family="Helvetica,sans-Serif" font-size="10.00">CoolBoard::initReadI2C</text>
</a>
</g>
</g>
<!-- Node146&#45;&gt;Node148 -->
<g id="edge13" class="edge"><title>Node146&#45;&gt;Node148</title>
<path fill="none" stroke="midnightblue" d="M293.593,-620.311C321.96,-625.506 357.243,-631.968 387.017,-637.42"/>
<polygon fill="midnightblue" stroke="midnightblue" points="386.418,-640.869 396.885,-639.227 387.679,-633.983 386.418,-640.869"/>
</g>
<!-- Node149 -->
<g id="node13" class="node"><title>Node149</title>
<g id="a_node13"><a xlink:href="../../de/d46/class_cool_board_sensors.html#a91badb2539d91fda8679f2a597874c48" target="_top" xlink:title="CoolBoardSensors::read">
<polygon fill="white" stroke="black" points="388.5,-563.271 388.5,-582.271 511.5,-582.271 511.5,-563.271 388.5,-563.271"/>
<text text-anchor="middle" x="450" y="-570.271" font-family="Helvetica,sans-Serif" font-size="10.00">CoolBoardSensors::read</text>
</a>
</g>
</g>
<!-- Node146&#45;&gt;Node149 -->
<g id="edge14" class="edge"><title>Node146&#45;&gt;Node149</title>
<path fill="none" stroke="midnightblue" d="M293.593,-601.231C321.96,-596.036 357.243,-589.575 387.017,-584.122"/>
<polygon fill="midnightblue" stroke="midnightblue" points="387.679,-587.559 396.885,-582.315 386.418,-580.674 387.679,-587.559"/>
</g>
<!-- Node160 -->
<g id="node22" class="node"><title>Node160</title>
<g id="a_node22"><a xlink:href="../../d1/d2f/class_external_sensors.html#a53177b81eca3be89508b5511ddcd00fc" target="_top" xlink:title="ExternalSensors::read">
<polygon fill="white" stroke="black" points="393.5,-601.271 393.5,-620.271 506.5,-620.271 506.5,-601.271 393.5,-601.271"/>
<text text-anchor="middle" x="450" y="-608.271" font-family="Helvetica,sans-Serif" font-size="10.00">ExternalSensors::read</text>
</a>
</g>
</g>
<!-- Node146&#45;&gt;Node160 -->
<g id="edge23" class="edge"><title>Node146&#45;&gt;Node160</title>
<path fill="none" stroke="midnightblue" d="M302.075,-610.771C327.526,-610.771 357.195,-610.771 383.182,-610.771"/>
<polygon fill="midnightblue" stroke="midnightblue" points="383.318,-614.271 393.318,-610.771 383.318,-607.271 383.318,-614.271"/>
</g>
<!-- Node161 -->
<g id="node23" class="node"><title>Node161</title>
<g id="a_node23"><a xlink:href="../../d6/d03/class_irene3000.html#a852a170feea994ea1df01c6b245b5d9a" target="_top" xlink:title="Irene3000::read">
<polygon fill="white" stroke="black" points="408,-525.271 408,-544.271 492,-544.271 492,-525.271 408,-525.271"/>
<text text-anchor="middle" x="450" y="-532.271" font-family="Helvetica,sans-Serif" font-size="10.00">Irene3000::read</text>
</a>
</g>
</g>
<!-- Node146&#45;&gt;Node161 -->
<g id="edge24" class="edge"><title>Node146&#45;&gt;Node161</title>
<path fill="none" stroke="midnightblue" d="M258.072,-601.123C280.337,-588.54 321.462,-566.623 359,-553.771 371.279,-549.567 384.833,-546.118 397.614,-543.367"/>
<polygon fill="midnightblue" stroke="midnightblue" points="398.565,-546.745 407.66,-541.31 397.161,-539.887 398.565,-546.745"/>
</g>
<!-- Node146&#45;&gt;Node172 -->
<g id="edge29" class="edge"><title>Node146&#45;&gt;Node172</title>
<path fill="none" stroke="midnightblue" d="M250.186,-601.201C268.359,-581.811 312.569,-537.856 359,-515.771 365.643,-512.612 372.809,-509.974 380.095,-507.773"/>
<polygon fill="midnightblue" stroke="midnightblue" points="381.351,-511.057 390.067,-505.033 379.497,-504.307 381.351,-511.057"/>
</g>
<!-- Node150 -->
<g id="node14" class="node"><title>Node150</title>
<g id="a_node14"><a xlink:href="../../dd/d67/class_cool_s_i114_x.html#a42e0e574256341443c647a4c0eda87d5" target="_top" xlink:title="CoolSI114X::ReadVisible">
<polygon fill="white" stroke="red" points="593.5,-620.271 593.5,-639.271 721.5,-639.271 721.5,-620.271 593.5,-620.271"/>
<text text-anchor="middle" x="657.5" y="-627.271" font-family="Helvetica,sans-Serif" font-size="10.00">CoolSI114X::ReadVisible</text>
</a>
</g>
</g>
<!-- Node149&#45;&gt;Node150 -->
<g id="edge15" class="edge"><title>Node149&#45;&gt;Node150</title>
<path fill="none" stroke="midnightblue" d="M508.322,-582.379C519.322,-584.919 530.637,-588.026 541,-591.771 558.014,-597.921 560.069,-604.396 577,-610.771 583.756,-613.315 590.967,-615.598 598.185,-617.624"/>
<polygon fill="midnightblue" stroke="midnightblue" points="597.426,-621.044 607.99,-620.227 599.222,-614.278 597.426,-621.044"/>
</g>
<!-- Node152 -->
<g id="node15" class="node"><title>Node152</title>
<g id="a_node15"><a xlink:href="../../dd/d67/class_cool_s_i114_x.html#abc536ee7ae8e3ba9d1069acc3889a2cf" target="_top" xlink:title="CoolSI114X::ReadIR">
<polygon fill="white" stroke="red" points="603,-582.271 603,-601.271 712,-601.271 712,-582.271 603,-582.271"/>
<text text-anchor="middle" x="657.5" y="-589.271" font-family="Helvetica,sans-Serif" font-size="10.00">CoolSI114X::ReadIR</text>
</a>
</g>
</g>
<!-- Node149&#45;&gt;Node152 -->
<g id="edge16" class="edge"><title>Node149&#45;&gt;Node152</title>
<path fill="none" stroke="midnightblue" d="M511.545,-578.369C537.048,-580.727 566.749,-583.473 592.602,-585.863"/>
<polygon fill="midnightblue" stroke="midnightblue" points="592.395,-589.359 602.675,-586.795 593.04,-582.389 592.395,-589.359"/>
</g>
<!-- Node153 -->
<g id="node16" class="node"><title>Node153</title>
<g id="a_node16"><a xlink:href="../../dd/d67/class_cool_s_i114_x.html#a14ced664d74e93438440b0274109c111" target="_top" xlink:title="CoolSI114X::ReadUV">
<polygon fill="white" stroke="red" points="601,-544.271 601,-563.271 714,-563.271 714,-544.271 601,-544.271"/>
<text text-anchor="middle" x="657.5" y="-551.271" font-family="Helvetica,sans-Serif" font-size="10.00">CoolSI114X::ReadUV</text>
</a>
</g>
</g>
<!-- Node149&#45;&gt;Node153 -->
<g id="edge17" class="edge"><title>Node149&#45;&gt;Node153</title>
<path fill="none" stroke="midnightblue" d="M511.545,-567.173C536.415,-564.874 565.277,-562.205 590.67,-559.858"/>
<polygon fill="midnightblue" stroke="midnightblue" points="591.313,-563.313 600.948,-558.907 590.668,-556.343 591.313,-563.313"/>
</g>
<!-- Node154 -->
<g id="node17" class="node"><title>Node154</title>
<g id="a_node17"><a xlink:href="../../df/dcf/class_b_m_e280.html#ada6e799917afb4f228e6253bc56ffe75" target="_top" xlink:title="BME280::readFloatPressure">
<polygon fill="white" stroke="red" points="587.5,-506.271 587.5,-525.271 727.5,-525.271 727.5,-506.271 587.5,-506.271"/>
<text text-anchor="middle" x="657.5" y="-513.271" font-family="Helvetica,sans-Serif" font-size="10.00">BME280::readFloatPressure</text>
</a>
</g>
</g>
<!-- Node149&#45;&gt;Node154 -->
<g id="edge18" class="edge"><title>Node149&#45;&gt;Node154</title>
<path fill="none" stroke="midnightblue" d="M508.322,-563.164C519.322,-560.624 530.637,-557.517 541,-553.771 558.014,-547.621 560.069,-541.146 577,-534.771 583.756,-532.227 590.967,-529.944 598.185,-527.918"/>
<polygon fill="midnightblue" stroke="midnightblue" points="599.222,-531.264 607.99,-525.315 597.426,-524.499 599.222,-531.264"/>
</g>
<!-- Node156 -->
<g id="node18" class="node"><title>Node156</title>
<g id="a_node18"><a xlink:href="../../df/dcf/class_b_m_e280.html#a42ea7232039eebf5aadb391ef6132c35" target="_top" xlink:title="BME280::readFloatHumidity">
<polygon fill="white" stroke="red" points="587.5,-468.271 587.5,-487.271 727.5,-487.271 727.5,-468.271 587.5,-468.271"/>
<text text-anchor="middle" x="657.5" y="-475.271" font-family="Helvetica,sans-Serif" font-size="10.00">BME280::readFloatHumidity</text>
</a>
</g>
</g>
<!-- Node149&#45;&gt;Node156 -->
<g id="edge19" class="edge"><title>Node149&#45;&gt;Node156</title>
<path fill="none" stroke="midnightblue" d="M511.84,-566.855C522.175,-563.968 532.348,-559.79 541,-553.771 565.597,-536.661 552.632,-514.206 577,-496.771 579.712,-494.831 582.596,-493.086 585.598,-491.519"/>
<polygon fill="midnightblue" stroke="midnightblue" points="587.223,-494.625 594.901,-487.325 584.346,-488.244 587.223,-494.625"/>
</g>
<!-- Node157 -->
<g id="node19" class="node"><title>Node157</title>
<g id="a_node19"><a xlink:href="../../df/dcf/class_b_m_e280.html#afffdd1d7ded9e1f92200e70669019d97" target="_top" xlink:title="BME280::readTempC">
<polygon fill="white" stroke="red" points="602,-734.271 602,-753.271 713,-753.271 713,-734.271 602,-734.271"/>
<text text-anchor="middle" x="657.5" y="-741.271" font-family="Helvetica,sans-Serif" font-size="10.00">BME280::readTempC</text>
</a>
</g>
</g>
<!-- Node149&#45;&gt;Node157 -->
<g id="edge20" class="edge"><title>Node149&#45;&gt;Node157</title>
<path fill="none" stroke="midnightblue" d="M511.627,-576.125C522.466,-579.192 532.876,-584.092 541,-591.771 585.503,-633.838 533.059,-682.118 577,-724.771 581.371,-729.014 586.51,-732.368 592.039,-735.012"/>
<polygon fill="midnightblue" stroke="midnightblue" points="591.056,-738.387 601.642,-738.823 593.638,-731.881 591.056,-738.387"/>
</g>
<!-- Node158 -->
<g id="node20" class="node"><title>Node158</title>
<g id="a_node20"><a xlink:href="../../de/d46/class_cool_board_sensors.html#a6944b6ea7bce8e2fce1b434acfd9d5f3" target="_top" xlink:title="CoolBoardSensors::readVBat">
<polygon fill="white" stroke="black" points="585,-696.271 585,-715.271 730,-715.271 730,-696.271 585,-696.271"/>
<text text-anchor="middle" x="657.5" y="-703.271" font-family="Helvetica,sans-Serif" font-size="10.00">CoolBoardSensors::readVBat</text>
</a>
</g>
</g>
<!-- Node149&#45;&gt;Node158 -->
<g id="edge21" class="edge"><title>Node149&#45;&gt;Node158</title>
<path fill="none" stroke="midnightblue" d="M511.514,-576.9C522.236,-579.918 532.632,-584.603 541,-591.771 575.291,-621.145 543.101,-656.945 577,-686.771 578.775,-688.333 580.655,-689.771 582.619,-691.096"/>
<polygon fill="midnightblue" stroke="midnightblue" points="581.276,-694.357 591.707,-696.21 584.708,-688.256 581.276,-694.357"/>
</g>
<!-- Node159 -->
<g id="node21" class="node"><title>Node159</title>
<g id="a_node21"><a xlink:href="../../de/d46/class_cool_board_sensors.html#a8761bff50373c485f4465c8db47d0633" target="_top" xlink:title="CoolBoardSensors::readMoisture">
<polygon fill="white" stroke="black" points="577,-658.271 577,-677.271 738,-677.271 738,-658.271 577,-658.271"/>
<text text-anchor="middle" x="657.5" y="-665.271" font-family="Helvetica,sans-Serif" font-size="10.00">CoolBoardSensors::readMoisture</text>
</a>
</g>
</g>
<!-- Node149&#45;&gt;Node159 -->
<g id="edge22" class="edge"><title>Node149&#45;&gt;Node159</title>
<path fill="none" stroke="midnightblue" d="M511.84,-578.688C522.175,-581.574 532.348,-585.753 541,-591.771 565.597,-608.881 552.632,-631.336 577,-648.771 579.712,-650.712 582.596,-652.456 585.598,-654.024"/>
<polygon fill="midnightblue" stroke="midnightblue" points="584.346,-657.299 594.901,-658.218 587.223,-650.917 584.346,-657.299"/>
</g>
<!-- Node162 -->
<g id="node24" class="node"><title>Node162</title>
<g id="a_node24"><a xlink:href="../../d6/d03/class_irene3000.html#a80bc6dfea106dc3bc54fa20204d4d5dc" target="_top" xlink:title="Irene3000::readTemp">
<polygon fill="white" stroke="red" points="603,-430.271 603,-449.271 712,-449.271 712,-430.271 603,-430.271"/>
<text text-anchor="middle" x="657.5" y="-437.271" font-family="Helvetica,sans-Serif" font-size="10.00">Irene3000::readTemp</text>
</a>
</g>
</g>
<!-- Node161&#45;&gt;Node162 -->
<g id="edge25" class="edge"><title>Node161&#45;&gt;Node162</title>
<path fill="none" stroke="midnightblue" d="M492.265,-532.938C508.611,-530.54 526.842,-525.62 541,-515.771 565.597,-498.661 552.632,-476.206 577,-458.771 581.88,-455.28 587.316,-452.424 592.992,-450.088"/>
<polygon fill="midnightblue" stroke="midnightblue" points="594.467,-453.278 602.715,-446.628 592.121,-446.683 594.467,-453.278"/>
</g>
<!-- Node170 -->
<g id="node25" class="node"><title>Node170</title>
<g id="a_node25"><a xlink:href="../../d6/d03/class_irene3000.html#a436fc0a06681cd0784aba56b9707f19a" target="_top" xlink:title="Irene3000::readPh">
<polygon fill="white" stroke="red" points="609.5,-392.271 609.5,-411.271 705.5,-411.271 705.5,-392.271 609.5,-392.271"/>
<text text-anchor="middle" x="657.5" y="-399.271" font-family="Helvetica,sans-Serif" font-size="10.00">Irene3000::readPh</text>
</a>
</g>
</g>
<!-- Node161&#45;&gt;Node170 -->
<g id="edge26" class="edge"><title>Node161&#45;&gt;Node170</title>
<path fill="none" stroke="midnightblue" d="M492.412,-534.431C509.166,-532.314 527.659,-527.199 541,-515.771 575.291,-486.397 543.101,-450.598 577,-420.771 583.432,-415.112 591.252,-411.065 599.448,-408.185"/>
<polygon fill="midnightblue" stroke="midnightblue" points="600.58,-411.5 609.181,-405.313 598.599,-404.786 600.58,-411.5"/>
</g>
<!-- Node171 -->
<g id="node26" class="node"><title>Node171</title>
<g id="a_node26"><a xlink:href="../../d6/d03/class_irene3000.html#ae73bd2ed14a199a7e83f4d6458476a7c" target="_top" xlink:title="Irene3000::readADSChannel2">
<polygon fill="white" stroke="red" points="584.5,-354.271 584.5,-373.271 730.5,-373.271 730.5,-354.271 584.5,-354.271"/>
<text text-anchor="middle" x="657.5" y="-361.271" font-family="Helvetica,sans-Serif" font-size="10.00">Irene3000::readADSChannel2</text>
</a>
</g>
</g>
<!-- Node161&#45;&gt;Node171 -->
<g id="edge27" class="edge"><title>Node161&#45;&gt;Node171</title>
<path fill="none" stroke="midnightblue" d="M492.056,-535.162C509.151,-533.23 528.002,-528.057 541,-515.771 585.503,-473.705 533.059,-425.424 577,-382.771 578.489,-381.326 580.068,-379.983 581.72,-378.737"/>
<polygon fill="midnightblue" stroke="midnightblue" points="583.878,-381.517 590.533,-373.274 580.19,-375.568 583.878,-381.517"/>
</g>
<!-- Node174 -->
<g id="node29" class="node"><title>Node174</title>
<g id="a_node29"><a xlink:href="../../df/d1d/class_jetpack.html#a338f1af8cbc6504ac69b47c7328569b5" target="_top" xlink:title="Jetpack::write">
<polygon fill="white" stroke="black" points="411,-449.271 411,-468.271 489,-468.271 489,-449.271 411,-449.271"/>
<text text-anchor="middle" x="450" y="-456.271" font-family="Helvetica,sans-Serif" font-size="10.00">Jetpack::write</text>
</a>
</g>
</g>
<!-- Node173&#45;&gt;Node174 -->
<g id="edge32" class="edge"><title>Node173&#45;&gt;Node174</title>
<path fill="none" stroke="midnightblue" d="M288.067,-458.771C321.636,-458.771 366.819,-458.771 400.764,-458.771"/>
<polygon fill="midnightblue" stroke="midnightblue" points="400.913,-462.271 410.913,-458.771 400.913,-455.271 400.913,-462.271"/>
</g>
<!-- Node176 -->
<g id="node31" class="node"><title>Node176</title>
<g id="a_node31"><a xlink:href="../../dc/d69/class_cool_board_actor.html#a958786ff01ea1056ee72c72d439f86da" target="_top" xlink:title="CoolBoardActor::write">
<polygon fill="white" stroke="black" points="393.5,-411.271 393.5,-430.271 506.5,-430.271 506.5,-411.271 393.5,-411.271"/>
<text text-anchor="middle" x="450" y="-418.271" font-family="Helvetica,sans-Serif" font-size="10.00">CoolBoardActor::write</text>
</a>
</g>
</g>
<!-- Node175&#45;&gt;Node176 -->
<g id="edge34" class="edge"><title>Node175&#45;&gt;Node176</title>
<path fill="none" stroke="midnightblue" d="M305.733,-420.771C330.422,-420.771 358.62,-420.771 383.432,-420.771"/>
<polygon fill="midnightblue" stroke="midnightblue" points="383.477,-424.271 393.477,-420.771 383.477,-417.271 383.477,-424.271"/>
</g>
<!-- Node178 -->
<g id="node33" class="node"><title>Node178</title>
<g id="a_node33"><a xlink:href="../../db/d0c/class_cool_file_system.html#ab78704d5d21ce10fc6f1138ab5ab46c8" target="_top" xlink:title="CoolFileSystem::saveSensor\lDataCSV">
<polygon fill="white" stroke="black" points="378,-323.771 378,-353.771 522,-353.771 522,-323.771 378,-323.771"/>
<text text-anchor="start" x="386" y="-341.771" font-family="Helvetica,sans-Serif" font-size="10.00">CoolFileSystem::saveSensor</text>
<text text-anchor="middle" x="450" y="-330.771" font-family="Helvetica,sans-Serif" font-size="10.00">DataCSV</text>
</a>
</g>
</g>
<!-- Node177&#45;&gt;Node178 -->
<g id="edge36" class="edge"><title>Node177&#45;&gt;Node178</title>
<path fill="none" stroke="midnightblue" d="M286.524,-373.224C310.304,-368.182 340.22,-361.838 367.88,-355.973"/>
<polygon fill="midnightblue" stroke="midnightblue" points="368.897,-359.335 377.953,-353.837 367.445,-352.487 368.897,-359.335"/>
</g>
<!-- Node179 -->
<g id="node34" class="node"><title>Node179</title>
<g id="a_node34"><a xlink:href="../../db/d0c/class_cool_file_system.html#aae045125288f255f3e258073dcada2a6" target="_top" xlink:title="CoolFileSystem::incrementsavedData">
<polygon fill="white" stroke="black" points="359,-373.271 359,-392.271 541,-392.271 541,-373.271 359,-373.271"/>
<text text-anchor="middle" x="450" y="-380.271" font-family="Helvetica,sans-Serif" font-size="10.00">CoolFileSystem::incrementsavedData</text>
</a>
</g>
</g>
<!-- Node177&#45;&gt;Node179 -->
<g id="edge37" class="edge"><title>Node177&#45;&gt;Node179</title>
<path fill="none" stroke="midnightblue" d="M323.212,-382.771C331.608,-382.771 340.205,-382.771 348.771,-382.771"/>
<polygon fill="midnightblue" stroke="midnightblue" points="348.798,-386.271 358.798,-382.771 348.798,-379.271 348.798,-386.271"/>
</g>
<!-- Node182 -->
<g id="node37" class="node"><title>Node182</title>
<g id="a_node37"><a xlink:href="../../d8/d4b/class_cool_pub_sub_client.html#a3245a5afc6d22e61270dcfe392ccb866" target="_top" xlink:title="CoolPubSubClient::state">
<polygon fill="white" stroke="black" points="807,-19.2713 807,-38.2713 932,-38.2713 932,-19.2713 807,-19.2713"/>
<text text-anchor="middle" x="869.5" y="-26.2713" font-family="Helvetica,sans-Serif" font-size="10.00">CoolPubSubClient::state</text>
</a>
</g>
</g>
<!-- Node181&#45;&gt;Node182 -->
<g id="edge40" class="edge"><title>Node181&#45;&gt;Node182</title>
<path fill="none" stroke="midnightblue" d="M703.55,-28.7713C730.62,-28.7713 765.683,-28.7713 796.518,-28.7713"/>
<polygon fill="midnightblue" stroke="midnightblue" points="796.795,-32.2713 806.795,-28.7713 796.795,-25.2713 796.795,-32.2713"/>
</g>
<!-- Node184 -->
<g id="node39" class="node"><title>Node184</title>
<g id="a_node39"><a xlink:href="../../d4/dc8/class_wi_fi_manager.html#a4dd1dbf4f22900f226a3897b88155212" target="_top" xlink:title="WiFiManager::setRemoveDuplicateAPs">
<polygon fill="white" stroke="black" points="774,-209.271 774,-228.271 965,-228.271 965,-209.271 774,-209.271"/>
<text text-anchor="middle" x="869.5" y="-216.271" font-family="Helvetica,sans-Serif" font-size="10.00">WiFiManager::setRemoveDuplicateAPs</text>
</a>
</g>
</g>
<!-- Node183&#45;&gt;Node184 -->
<g id="edge42" class="edge"><title>Node183&#45;&gt;Node184</title>
<path fill="none" stroke="midnightblue" d="M711.763,-232.952C727.655,-231.514 745.655,-229.886 763.648,-228.258"/>
<polygon fill="midnightblue" stroke="midnightblue" points="763.987,-231.742 773.631,-227.355 763.356,-224.77 763.987,-231.742"/>
</g>
<!-- Node185 -->
<g id="node40" class="node"><title>Node185</title>
<g id="a_node40"><a xlink:href="../../d4/dc8/class_wi_fi_manager.html#aa6493d59c284ff245edb767ff684756d" target="_top" xlink:title="WiFiManager::setTimeout">
<polygon fill="white" stroke="black" points="805,-171.271 805,-190.271 934,-190.271 934,-171.271 805,-171.271"/>
<text text-anchor="middle" x="869.5" y="-178.271" font-family="Helvetica,sans-Serif" font-size="10.00">WiFiManager::setTimeout</text>
</a>
</g>
</g>
<!-- Node183&#45;&gt;Node185 -->
<g id="edge43" class="edge"><title>Node183&#45;&gt;Node185</title>
<path fill="none" stroke="midnightblue" d="M684.381,-228.271C707.616,-219.979 742.773,-208.016 774,-199.771 784.054,-197.117 794.796,-194.631 805.298,-192.389"/>
<polygon fill="midnightblue" stroke="midnightblue" points="806.186,-195.78 815.264,-190.317 804.761,-188.926 806.186,-195.78"/>
</g>
<!-- Node187 -->
<g id="node42" class="node"><title>Node187</title>
<g id="a_node42"><a xlink:href="../../d4/dc8/class_wi_fi_manager.html#ae3cdfa6b02edcfe63d7da4f696b62136" target="_top" xlink:title="WiFiManager::autoConnect">
<polygon fill="white" stroke="black" points="801.5,-285.271 801.5,-304.271 937.5,-304.271 937.5,-285.271 801.5,-285.271"/>
<text text-anchor="middle" x="869.5" y="-292.271" font-family="Helvetica,sans-Serif" font-size="10.00">WiFiManager::autoConnect</text>
</a>
</g>
</g>
<!-- Node183&#45;&gt;Node187 -->
<g id="edge45" class="edge"><title>Node183&#45;&gt;Node187</title>
<path fill="none" stroke="midnightblue" d="M684.381,-247.272C707.616,-255.564 742.773,-267.527 774,-275.771 784.054,-278.426 794.796,-280.911 805.298,-283.153"/>
<polygon fill="midnightblue" stroke="midnightblue" points="804.761,-286.616 815.264,-285.225 806.186,-279.763 804.761,-286.616"/>
</g>
<!-- Node188 -->
<g id="node43" class="node"><title>Node188</title>
<g id="a_node43"><a xlink:href="../../d7/d29/class_cool_wifi.html#a914d7a1df14dd6b75345fb614c34e9d6" target="_top" xlink:title="CoolWifi::addWifi">
<polygon fill="white" stroke="black" points="823,-247.271 823,-266.271 916,-266.271 916,-247.271 823,-247.271"/>
<text text-anchor="middle" x="869.5" y="-254.271" font-family="Helvetica,sans-Serif" font-size="10.00">CoolWifi::addWifi</text>
</a>
</g>
</g>
<!-- Node183&#45;&gt;Node188 -->
<g id="edge46" class="edge"><title>Node183&#45;&gt;Node188</title>
<path fill="none" stroke="midnightblue" d="M711.763,-242.59C742.55,-245.376 781.247,-248.877 812.488,-251.703"/>
<polygon fill="midnightblue" stroke="midnightblue" points="812.5,-255.219 822.774,-252.634 813.13,-248.247 812.5,-255.219"/>
</g>
<!-- Node186 -->
<g id="node41" class="node"><title>Node186</title>
<g id="a_node41"><a xlink:href="../../d4/dc8/class_wi_fi_manager.html#a904006cb4d2c769e93bfdef336853766" target="_top" xlink:title="WiFiManager::setConfigPortal\lTimeout">
<polygon fill="white" stroke="black" points="1001,-165.771 1001,-195.771 1149,-195.771 1149,-165.771 1001,-165.771"/>
<text text-anchor="start" x="1009" y="-183.771" font-family="Helvetica,sans-Serif" font-size="10.00">WiFiManager::setConfigPortal</text>
<text text-anchor="middle" x="1075" y="-172.771" font-family="Helvetica,sans-Serif" font-size="10.00">Timeout</text>
</a>
</g>
</g>
<!-- Node185&#45;&gt;Node186 -->
<g id="edge44" class="edge"><title>Node185&#45;&gt;Node186</title>
<path fill="none" stroke="midnightblue" d="M934.052,-180.771C952.043,-180.771 971.898,-180.771 990.861,-180.771"/>
<polygon fill="midnightblue" stroke="midnightblue" points="990.982,-184.271 1000.98,-180.771 990.982,-177.271 990.982,-184.271"/>
</g>
<!-- Node189&#45;&gt;Node140 -->
<g id="edge58" class="edge"><title>Node189&#45;&gt;Node140</title>
<path fill="none" stroke="midnightblue" d="M253.029,-171.324C273.199,-187.534 316.775,-220.36 359,-237.771 368.08,-241.515 377.991,-244.557 387.81,-247.017"/>
<polygon fill="midnightblue" stroke="midnightblue" points="387.031,-250.43 397.565,-249.289 388.619,-243.612 387.031,-250.43"/>
</g>
<!-- Node189&#45;&gt;Node180 -->
<g id="edge52" class="edge"><title>Node189&#45;&gt;Node180</title>
<path fill="none" stroke="midnightblue" d="M268.329,-171.336C291.992,-179.557 327.511,-191.38 359,-199.771 371.911,-203.212 385.997,-206.433 399.11,-209.211"/>
<polygon fill="midnightblue" stroke="midnightblue" points="398.41,-212.64 408.913,-211.245 399.833,-205.786 398.41,-212.64"/>
</g>
<!-- Node189&#45;&gt;Node181 -->
<g id="edge57" class="edge"><title>Node189&#45;&gt;Node181</title>
<path fill="none" stroke="midnightblue" d="M247.74,-152.141C263.273,-129.131 306.247,-71.1415 359,-47.7713 437.503,-12.9932 539.201,-15.3118 601.06,-21.2517"/>
<polygon fill="midnightblue" stroke="midnightblue" points="601.079,-24.7719 611.384,-22.3124 601.794,-17.8086 601.079,-24.7719"/>
</g>
<!-- Node190 -->
<g id="node45" class="node"><title>Node190</title>
<g id="a_node45"><a xlink:href="../../de/dc0/class_cool_board_led.html#a30fadd4cbec17ceea428bf7a32207e87" target="_top" xlink:title="CoolBoardLed::write">
<polygon fill="white" stroke="black" points="397.5,-171.271 397.5,-190.271 502.5,-190.271 502.5,-171.271 397.5,-171.271"/>
<text text-anchor="middle" x="450" y="-178.271" font-family="Helvetica,sans-Serif" font-size="10.00">CoolBoardLed::write</text>
</a>
</g>
</g>
<!-- Node189&#45;&gt;Node190 -->
<g id="edge48" class="edge"><title>Node189&#45;&gt;Node190</title>
<path fill="none" stroke="midnightblue" d="M292.26,-166.419C320.934,-169.045 356.989,-172.346 387.287,-175.12"/>
<polygon fill="midnightblue" stroke="midnightblue" points="387.045,-178.613 397.322,-176.039 387.683,-171.642 387.045,-178.613"/>
</g>
<!-- Node191 -->
<g id="node46" class="node"><title>Node191</title>
<g id="a_node46"><a xlink:href="../../d7/d29/class_cool_wifi.html#ad060353050f40d032a2dbf9e54a768bf" target="_top" xlink:title="CoolWifi::connect">
<polygon fill="white" stroke="black" points="402.5,-133.271 402.5,-152.271 497.5,-152.271 497.5,-133.271 402.5,-133.271"/>
<text text-anchor="middle" x="450" y="-140.271" font-family="Helvetica,sans-Serif" font-size="10.00">CoolWifi::connect</text>
</a>
</g>
</g>
<!-- Node189&#45;&gt;Node191 -->
<g id="edge49" class="edge"><title>Node189&#45;&gt;Node191</title>
<path fill="none" stroke="midnightblue" d="M292.26,-157.123C322.443,-154.36 360.804,-150.847 392.021,-147.989"/>
<polygon fill="midnightblue" stroke="midnightblue" points="392.673,-151.444 402.312,-147.046 392.034,-144.473 392.673,-151.444"/>
</g>
<!-- Node193 -->
<g id="node48" class="node"><title>Node193</title>
<g id="a_node48"><a xlink:href="../../d0/dd0/class_cool_m_q_t_t.html#a50075d0ab23a327ab897fd6adad20eda" target="_top" xlink:title="CoolMQTT::connect">
<polygon fill="white" stroke="red" points="397.5,-95.2713 397.5,-114.271 502.5,-114.271 502.5,-95.2713 397.5,-95.2713"/>
<text text-anchor="middle" x="450" y="-102.271" font-family="Helvetica,sans-Serif" font-size="10.00">CoolMQTT::connect</text>
</a>
</g>
</g>
<!-- Node189&#45;&gt;Node193 -->
<g id="edge53" class="edge"><title>Node189&#45;&gt;Node193</title>
<path fill="none" stroke="midnightblue" d="M268.329,-152.207C291.992,-143.985 327.511,-132.162 359,-123.771 368.721,-121.181 379.109,-118.715 389.245,-116.468"/>
<polygon fill="midnightblue" stroke="midnightblue" points="390.232,-119.836 399.265,-114.299 388.75,-112.995 390.232,-119.836"/>
</g>
<!-- Node197 -->
<g id="node50" class="node"><title>Node197</title>
<g id="a_node50"><a xlink:href="../../d7/df9/class_cool_board.html#a7508e029f2ee17bb747ffab599285e0d" target="_top" xlink:title="CoolBoard::getLogInterval">
<polygon fill="white" stroke="black" points="385,-57.2713 385,-76.2713 515,-76.2713 515,-57.2713 385,-57.2713"/>
<text text-anchor="middle" x="450" y="-64.2713" font-family="Helvetica,sans-Serif" font-size="10.00">CoolBoard::getLogInterval</text>
</a>
</g>
</g>
<!-- Node189&#45;&gt;Node197 -->
<g id="edge56" class="edge"><title>Node189&#45;&gt;Node197</title>
<path fill="none" stroke="midnightblue" d="M253.029,-152.218C273.199,-136.008 316.775,-103.182 359,-85.7713 365.249,-83.1945 371.892,-80.9505 378.628,-78.9995"/>
<polygon fill="midnightblue" stroke="midnightblue" points="379.775,-82.3156 388.529,-76.3462 377.963,-75.5542 379.775,-82.3156"/>
</g>
<!-- Node191&#45;&gt;Node183 -->
<g id="edge51" class="edge"><title>Node191&#45;&gt;Node183</title>
<path fill="none" stroke="midnightblue" d="M497.788,-149.212C512.002,-152.073 527.44,-156.117 541,-161.771 577.771,-177.102 615.409,-204.498 637.336,-221.872"/>
<polygon fill="midnightblue" stroke="midnightblue" points="635.216,-224.658 645.198,-228.209 639.608,-219.208 635.216,-224.658"/>
</g>
<!-- Node192 -->
<g id="node47" class="node"><title>Node192</title>
<g id="a_node47"><a xlink:href="../../d7/d29/class_cool_wifi.html#a419de92d738f14b7444cf822b3ab0070" target="_top" xlink:title="CoolWifi::connectWifiMulti">
<polygon fill="white" stroke="black" points="591,-133.271 591,-152.271 724,-152.271 724,-133.271 591,-133.271"/>
<text text-anchor="middle" x="657.5" y="-140.271" font-family="Helvetica,sans-Serif" font-size="10.00">CoolWifi::connectWifiMulti</text>
</a>
</g>
</g>
<!-- Node191&#45;&gt;Node192 -->
<g id="edge50" class="edge"><title>Node191&#45;&gt;Node192</title>
<path fill="none" stroke="midnightblue" d="M497.631,-142.771C522.205,-142.771 552.957,-142.771 580.842,-142.771"/>
<polygon fill="midnightblue" stroke="midnightblue" points="580.969,-146.271 590.969,-142.771 580.969,-139.271 580.969,-146.271"/>
</g>
<!-- Node193&#45;&gt;Node181 -->
<g id="edge55" class="edge"><title>Node193&#45;&gt;Node181</title>
<path fill="none" stroke="midnightblue" d="M502.535,-96.2058C515.278,-93.4584 528.776,-90.0025 541,-85.7713 573.501,-74.5208 608.641,-56.2134 631.516,-43.3902"/>
<polygon fill="midnightblue" stroke="midnightblue" points="633.27,-46.4193 640.234,-38.435 629.811,-40.3337 633.27,-46.4193"/>
</g>
<!-- Node194 -->
<g id="node49" class="node"><title>Node194</title>
<g id="a_node49"><a xlink:href="../../d8/d4b/class_cool_pub_sub_client.html#a3d5a5da4ddb1e5c1bea64d80c665d148" target="_top" xlink:title="CoolPubSubClient::connected">
<polygon fill="white" stroke="black" points="583.5,-95.2713 583.5,-114.271 731.5,-114.271 731.5,-95.2713 583.5,-95.2713"/>
<text text-anchor="middle" x="657.5" y="-102.271" font-family="Helvetica,sans-Serif" font-size="10.00">CoolPubSubClient::connected</text>
</a>
</g>
</g>
<!-- Node193&#45;&gt;Node194 -->
<g id="edge54" class="edge"><title>Node193&#45;&gt;Node194</title>
<path fill="none" stroke="midnightblue" d="M502.591,-104.771C523.917,-104.771 549.191,-104.771 573.03,-104.771"/>
<polygon fill="midnightblue" stroke="midnightblue" points="573.142,-108.271 583.142,-104.771 573.142,-101.271 573.142,-108.271"/>
</g>
</g>
</svg>
