<?xml version="1.0" encoding="UTF-8" standalone="no"?>
<!DOCTYPE svg PUBLIC "-//W3C//DTD SVG 1.1//EN"
 "http://www.w3.org/Graphics/SVG/1.1/DTD/svg11.dtd">
<!-- Generated by graphviz version 2.38.0 (20140413.2041)
 -->
<!-- Title: CoolBoard::onLineMode Pages: 1 -->
<svg width="917pt" height="857pt"
 viewBox="0.00 0.00 917.00 857.00" xmlns="http://www.w3.org/2000/svg" xmlns:xlink="http://www.w3.org/1999/xlink">
<g id="graph0" class="graph" transform="scale(1 1) rotate(0) translate(4 853)">
<title>CoolBoard::onLineMode</title>
<polygon fill="white" stroke="none" points="-4,4 -4,-853 913,-853 913,4 -4,4"/>
<!-- Node199 -->
<g id="node1" class="node"><title>Node199</title>
<polygon fill="#bfbfbf" stroke="black" points="0,-323.5 0,-342.5 121,-342.5 121,-323.5 0,-323.5"/>
<text text-anchor="middle" x="60.5" y="-330.5" font-family="Helvetica,sans-Serif" font-size="10.00">CoolBoard::onLineMode</text>
</g>
<!-- Node200 -->
<g id="node2" class="node"><title>Node200</title>
<g id="a_node2"><a xlink:href="../../de/dc0/class_cool_board_led.html#ab778f5e7bed0ab74e3906d82110493c3" target="_top" xlink:title="CoolBoardLed::fadeIn">
<polygon fill="white" stroke="black" points="377.5,-373.5 377.5,-392.5 488.5,-392.5 488.5,-373.5 377.5,-373.5"/>
<text text-anchor="middle" x="433" y="-380.5" font-family="Helvetica,sans-Serif" font-size="10.00">CoolBoardLed::fadeIn</text>
</a>
</g>
</g>
<!-- Node199&#45;&gt;Node200 -->
<g id="edge1" class="edge"><title>Node199&#45;&gt;Node200</title>
<path fill="none" stroke="midnightblue" d="M69.4543,-342.629C84.4373,-359.916 118.793,-395.653 157,-409 219.517,-430.84 240.12,-415.726 306,-409 309.763,-408.616 344.835,-401.356 377.021,-394.606"/>
<polygon fill="midnightblue" stroke="midnightblue" points="377.813,-398.016 386.88,-392.535 376.374,-391.165 377.813,-398.016"/>
</g>
<!-- Node201 -->
<g id="node3" class="node"><title>Node201</title>
<g id="a_node3"><a xlink:href="../../db/d0c/class_cool_file_system.html#ac86a40e7c3a1842f7342f698d34324f9" target="_top" xlink:title="CoolFileSystem::isDataSaved">
<polygon fill="white" stroke="black" points="157,-753.5 157,-772.5 306,-772.5 306,-753.5 157,-753.5"/>
<text text-anchor="middle" x="231.5" y="-760.5" font-family="Helvetica,sans-Serif" font-size="10.00">CoolFileSystem::isDataSaved</text>
</a>
</g>
</g>
<!-- Node199&#45;&gt;Node201 -->
<g id="edge2" class="edge"><title>Node199&#45;&gt;Node201</title>
<path fill="none" stroke="midnightblue" d="M62.3989,-342.623C67.8323,-398.762 98.042,-683.57 157,-744 158.415,-745.45 159.925,-746.795 161.514,-748.042"/>
<polygon fill="midnightblue" stroke="midnightblue" points="159.726,-751.053 170.037,-753.49 163.497,-745.155 159.726,-751.053"/>
</g>
<!-- Node202 -->
<g id="node4" class="node"><title>Node202</title>
<g id="a_node4"><a xlink:href="../../de/dc0/class_cool_board_led.html#ad5f0de4c628cbfbf49896042831c64ad" target="_top" xlink:title="CoolBoardLed::strobe">
<polygon fill="white" stroke="black" points="377.5,-221.5 377.5,-240.5 488.5,-240.5 488.5,-221.5 377.5,-221.5"/>
<text text-anchor="middle" x="433" y="-228.5" font-family="Helvetica,sans-Serif" font-size="10.00">CoolBoardLed::strobe</text>
</a>
</g>
</g>
<!-- Node199&#45;&gt;Node202 -->
<g id="edge3" class="edge"><title>Node199&#45;&gt;Node202</title>
<path fill="none" stroke="midnightblue" d="M65.9782,-323.215C77.2849,-299.863 109.508,-241.169 157,-219 192.959,-202.214 298.005,-212.259 367.361,-221.386"/>
<polygon fill="midnightblue" stroke="midnightblue" points="366.946,-224.862 377.323,-222.723 367.877,-217.924 366.946,-224.862"/>
</g>
<!-- Node203 -->
<g id="node5" class="node"><title>Node203</title>
<g id="a_node5"><a xlink:href="../../d0/dd0/class_cool_m_q_t_t.html#ace977b3e90ab14b1199fe5c4fb0a13ec" target="_top" xlink:title="CoolMQTT::publish">
<polygon fill="white" stroke="black" points="382.5,-335.5 382.5,-354.5 483.5,-354.5 483.5,-335.5 382.5,-335.5"/>
<text text-anchor="middle" x="433" y="-342.5" font-family="Helvetica,sans-Serif" font-size="10.00">CoolMQTT::publish</text>
</a>
</g>
</g>
<!-- Node199&#45;&gt;Node203 -->
<g id="edge4" class="edge"><title>Node199&#45;&gt;Node203</title>
<path fill="none" stroke="midnightblue" d="M121.027,-334.928C190.001,-337.162 303.001,-340.822 372.123,-343.061"/>
<polygon fill="midnightblue" stroke="midnightblue" points="372.302,-346.568 382.41,-343.394 372.528,-339.572 372.302,-346.568"/>
</g>
<!-- Node205 -->
<g id="node7" class="node"><title>Node205</title>
<g id="a_node7"><a xlink:href="../../d0/dd0/class_cool_m_q_t_t.html#aa5eaae967b562b62cbcf2b8d81f6e5d5" target="_top" xlink:title="CoolMQTT::mqttLoop">
<polygon fill="white" stroke="black" points="377.5,-297.5 377.5,-316.5 488.5,-316.5 488.5,-297.5 377.5,-297.5"/>
<text text-anchor="middle" x="433" y="-304.5" font-family="Helvetica,sans-Serif" font-size="10.00">CoolMQTT::mqttLoop</text>
</a>
</g>
</g>
<!-- Node199&#45;&gt;Node205 -->
<g id="edge6" class="edge"><title>Node199&#45;&gt;Node205</title>
<path fill="none" stroke="midnightblue" d="M121.027,-328.823C188.347,-324.098 297.608,-316.431 367.077,-311.556"/>
<polygon fill="midnightblue" stroke="midnightblue" points="367.719,-315.02 377.45,-310.828 367.229,-308.037 367.719,-315.02"/>
</g>
<!-- Node210 -->
<g id="node11" class="node"><title>Node210</title>
<g id="a_node11"><a xlink:href="../../db/d0c/class_cool_file_system.html#a3223ffff4266a6300988fab956d6b4b2" target="_top" xlink:title="CoolFileSystem::getSensor\lSavedData">
<polygon fill="white" stroke="black" points="163,-808 163,-838 300,-838 300,-808 163,-808"/>
<text text-anchor="start" x="171" y="-826" font-family="Helvetica,sans-Serif" font-size="10.00">CoolFileSystem::getSensor</text>
<text text-anchor="middle" x="231.5" y="-815" font-family="Helvetica,sans-Serif" font-size="10.00">SavedData</text>
</a>
</g>
</g>
<!-- Node199&#45;&gt;Node210 -->
<g id="edge10" class="edge"><title>Node199&#45;&gt;Node210</title>
<path fill="none" stroke="midnightblue" d="M62.4516,-342.511C68.4201,-400.622 102.224,-707.777 157,-782 163.18,-790.375 171.612,-797.263 180.564,-802.844"/>
<polygon fill="midnightblue" stroke="midnightblue" points="178.83,-805.884 189.25,-807.801 182.299,-799.804 178.83,-805.884"/>
</g>
<!-- Node212 -->
<g id="node13" class="node"><title>Node212</title>
<g id="a_node13"><a xlink:href="../../de/dc0/class_cool_board_led.html#a93d545679237e8cc858324367149775c" target="_top" xlink:title="CoolBoardLed::fadeOut">
<polygon fill="white" stroke="black" points="373.5,-411.5 373.5,-430.5 492.5,-430.5 492.5,-411.5 373.5,-411.5"/>
<text text-anchor="middle" x="433" y="-418.5" font-family="Helvetica,sans-Serif" font-size="10.00">CoolBoardLed::fadeOut</text>
</a>
</g>
</g>
<!-- Node199&#45;&gt;Node212 -->
<g id="edge12" class="edge"><title>Node199&#45;&gt;Node212</title>
<path fill="none" stroke="midnightblue" d="M67.3936,-342.7C80.4762,-363.167 114.197,-410.336 157,-428 192.924,-442.825 294.313,-435.972 363.413,-429.011"/>
<polygon fill="midnightblue" stroke="midnightblue" points="363.773,-432.493 373.362,-427.986 363.056,-425.53 363.773,-432.493"/>
</g>
<!-- Node213 -->
<g id="node14" class="node"><title>Node213</title>
<g id="a_node14"><a xlink:href="../../de/dc0/class_cool_board_led.html#a96e1ea13003eee34c9dbcef340404426" target="_top" xlink:title="CoolBoardLed::blink">
<polygon fill="white" stroke="black" points="179.5,-380.5 179.5,-399.5 283.5,-399.5 283.5,-380.5 179.5,-380.5"/>
<text text-anchor="middle" x="231.5" y="-387.5" font-family="Helvetica,sans-Serif" font-size="10.00">CoolBoardLed::blink</text>
</a>
</g>
</g>
<!-- Node199&#45;&gt;Node213 -->
<g id="edge13" class="edge"><title>Node199&#45;&gt;Node213</title>
<path fill="none" stroke="midnightblue" d="M88.6264,-342.512C107.718,-349.172 133.887,-358.234 157,-366 168.009,-369.699 179.971,-373.639 190.985,-377.234"/>
<polygon fill="midnightblue" stroke="midnightblue" points="190.187,-380.655 200.779,-380.423 192.354,-373.999 190.187,-380.655"/>
</g>
<!-- Node214 -->
<g id="node15" class="node"><title>Node214</title>
<g id="a_node15"><a xlink:href="../../d6/d49/class_cool_time.html#aae601f795452cfa48d9fb337aed483a8" target="_top" xlink:title="CoolTime::update">
<polygon fill="white" stroke="black" points="184.5,-715.5 184.5,-734.5 278.5,-734.5 278.5,-715.5 184.5,-715.5"/>
<text text-anchor="middle" x="231.5" y="-722.5" font-family="Helvetica,sans-Serif" font-size="10.00">CoolTime::update</text>
</a>
</g>
</g>
<!-- Node199&#45;&gt;Node214 -->
<g id="edge14" class="edge"><title>Node199&#45;&gt;Node214</title>
<path fill="none" stroke="midnightblue" d="M62.0864,-342.695C65.0618,-384.995 81.4707,-556.271 157,-668 168.869,-685.558 187.886,-700.094 203.602,-710.092"/>
<polygon fill="midnightblue" stroke="midnightblue" points="202.034,-713.235 212.396,-715.443 205.673,-707.255 202.034,-713.235"/>
</g>
<!-- Node220 -->
<g id="node21" class="node"><title>Node220</title>
<g id="a_node21"><a xlink:href="../../d7/df9/class_cool_board.html#ae7358fb6e623cfc81b775f5f1734909b" target="_top" xlink:title="CoolBoard::userData">
<polygon fill="white" stroke="black" points="177.5,-639.5 177.5,-658.5 285.5,-658.5 285.5,-639.5 177.5,-639.5"/>
<text text-anchor="middle" x="231.5" y="-646.5" font-family="Helvetica,sans-Serif" font-size="10.00">CoolBoard::userData</text>
</a>
</g>
</g>
<!-- Node199&#45;&gt;Node220 -->
<g id="edge20" class="edge"><title>Node199&#45;&gt;Node220</title>
<path fill="none" stroke="midnightblue" d="M66.0623,-342.598C79.4547,-370.654 120.041,-454.848 157,-523 178.103,-561.913 204.654,-606.43 219.376,-630.756"/>
<polygon fill="midnightblue" stroke="midnightblue" points="216.391,-632.584 224.572,-639.315 222.374,-628.951 216.391,-632.584"/>
</g>
<!-- Node225 -->
<g id="node26" class="node"><title>Node225</title>
<g id="a_node26"><a xlink:href="../../d7/df9/class_cool_board.html#ad03abdce2e65f520bbf2cff0f2d083cf" target="_top" xlink:title="CoolBoard::readSensors">
<polygon fill="white" stroke="black" points="170,-494.5 170,-513.5 293,-513.5 293,-494.5 170,-494.5"/>
<text text-anchor="middle" x="231.5" y="-501.5" font-family="Helvetica,sans-Serif" font-size="10.00">CoolBoard::readSensors</text>
</a>
</g>
</g>
<!-- Node199&#45;&gt;Node225 -->
<g id="edge26" class="edge"><title>Node199&#45;&gt;Node225</title>
<path fill="none" stroke="midnightblue" d="M65.1665,-342.876C75.4365,-369.195 107.045,-441.618 157,-480 162.507,-484.231 168.79,-487.732 175.31,-490.626"/>
<polygon fill="midnightblue" stroke="midnightblue" points="174.383,-494.023 184.97,-494.444 176.957,-487.513 174.383,-494.023"/>
</g>
<!-- Node250 -->
<g id="node40" class="node"><title>Node250</title>
<g id="a_node40"><a xlink:href="../../de/dc0/class_cool_board_led.html#af1cacbaa88db8bcf6042c1083ba41155" target="_top" xlink:title="CoolBoardLed::fade">
<polygon fill="white" stroke="black" points="180,-228.5 180,-247.5 283,-247.5 283,-228.5 180,-228.5"/>
<text text-anchor="middle" x="231.5" y="-235.5" font-family="Helvetica,sans-Serif" font-size="10.00">CoolBoardLed::fade</text>
</a>
</g>
</g>
<!-- Node199&#45;&gt;Node250 -->
<g id="edge44" class="edge"><title>Node199&#45;&gt;Node250</title>
<path fill="none" stroke="midnightblue" d="M70.8453,-323.266C86.9277,-307.084 121.54,-274.682 157,-257 161.672,-254.67 166.658,-252.607 171.748,-250.783"/>
<polygon fill="midnightblue" stroke="midnightblue" points="173.192,-253.993 181.612,-247.563 171.02,-247.339 173.192,-253.993"/>
</g>
<!-- Node251 -->
<g id="node41" class="node"><title>Node251</title>
<g id="a_node41"><a xlink:href="../../df/d1d/class_jetpack.html#a9e703197093094b963f9ad57817495b8" target="_top" xlink:title="Jetpack::doAction">
<polygon fill="white" stroke="black" points="184,-76.5 184,-95.5 279,-95.5 279,-76.5 184,-76.5"/>
<text text-anchor="middle" x="231.5" y="-83.5" font-family="Helvetica,sans-Serif" font-size="10.00">Jetpack::doAction</text>
</a>
</g>
</g>
<!-- Node199&#45;&gt;Node251 -->
<g id="edge45" class="edge"><title>Node199&#45;&gt;Node251</title>
<path fill="none" stroke="midnightblue" d="M62.5125,-323.468C66.7488,-288.515 86.2681,-166.234 157,-105 161.97,-100.698 167.793,-97.3503 173.948,-94.7495"/>
<polygon fill="midnightblue" stroke="midnightblue" points="175.566,-97.8895 183.819,-91.2468 173.225,-91.2925 175.566,-97.8895"/>
</g>
<!-- Node253 -->
<g id="node43" class="node"><title>Node253</title>
<g id="a_node43"><a xlink:href="../../d0/dd0/class_cool_m_q_t_t.html#ae3c18f6ae9723746d32765f1c8f176ca" target="_top" xlink:title="CoolMQTT::read">
<polygon fill="white" stroke="black" points="187,-152.5 187,-171.5 276,-171.5 276,-152.5 187,-152.5"/>
<text text-anchor="middle" x="231.5" y="-159.5" font-family="Helvetica,sans-Serif" font-size="10.00">CoolMQTT::read</text>
</a>
</g>
</g>
<!-- Node199&#45;&gt;Node253 -->
<g id="edge47" class="edge"><title>Node199&#45;&gt;Node253</title>
<path fill="none" stroke="midnightblue" d="M65.1665,-323.124C75.4365,-296.805 107.045,-224.382 157,-186 163.001,-181.389 169.923,-177.646 177.07,-174.61"/>
<polygon fill="midnightblue" stroke="midnightblue" points="178.774,-177.708 186.889,-170.896 176.298,-171.16 178.774,-177.708"/>
</g>
<!-- Node254 -->
<g id="node44" class="node"><title>Node254</title>
<g id="a_node44"><a xlink:href="../../d7/df9/class_cool_board.html#a8612756d3f73198cdde857a66f0fe690" target="_top" xlink:title="CoolBoard::update">
<polygon fill="white" stroke="black" points="182.5,-266.5 182.5,-285.5 280.5,-285.5 280.5,-266.5 182.5,-266.5"/>
<text text-anchor="middle" x="231.5" y="-273.5" font-family="Helvetica,sans-Serif" font-size="10.00">CoolBoard::update</text>
</a>
</g>
</g>
<!-- Node199&#45;&gt;Node254 -->
<g id="edge48" class="edge"><title>Node199&#45;&gt;Node254</title>
<path fill="none" stroke="midnightblue" d="M88.6264,-323.488C107.718,-316.828 133.887,-307.766 157,-300 168.009,-296.301 179.971,-292.361 190.985,-288.766"/>
<polygon fill="midnightblue" stroke="midnightblue" points="192.354,-292.001 200.779,-285.577 190.187,-285.345 192.354,-292.001"/>
</g>
<!-- Node259 -->
<g id="node48" class="node"><title>Node259</title>
<g id="a_node48"><a xlink:href="../../dc/d69/class_cool_board_actor.html#a96a45658d32c6b95caa2f385c7da32cd" target="_top" xlink:title="CoolBoardActor::doAction">
<polygon fill="white" stroke="black" points="166.5,-114.5 166.5,-133.5 296.5,-133.5 296.5,-114.5 166.5,-114.5"/>
<text text-anchor="middle" x="231.5" y="-121.5" font-family="Helvetica,sans-Serif" font-size="10.00">CoolBoardActor::doAction</text>
</a>
</g>
</g>
<!-- Node199&#45;&gt;Node259 -->
<g id="edge57" class="edge"><title>Node199&#45;&gt;Node259</title>
<path fill="none" stroke="midnightblue" d="M63.4035,-323.342C70.0916,-292.051 95.5181,-192.617 157,-143 159.26,-141.176 161.675,-139.526 164.202,-138.032"/>
<polygon fill="midnightblue" stroke="midnightblue" points="165.794,-141.149 173.162,-133.535 162.654,-134.893 165.794,-141.149"/>
</g>
<!-- Node260 -->
<g id="node49" class="node"><title>Node260</title>
<g id="a_node49"><a xlink:href="../../d7/df9/class_cool_board.html#a7508e029f2ee17bb747ffab599285e0d" target="_top" xlink:title="CoolBoard::getLogInterval">
<polygon fill="white" stroke="black" points="166.5,-38.5 166.5,-57.5 296.5,-57.5 296.5,-38.5 166.5,-38.5"/>
<text text-anchor="middle" x="231.5" y="-45.5" font-family="Helvetica,sans-Serif" font-size="10.00">CoolBoard::getLogInterval</text>
</a>
</g>
</g>
<!-- Node199&#45;&gt;Node260 -->
<g id="edge59" class="edge"><title>Node199&#45;&gt;Node260</title>
<path fill="none" stroke="midnightblue" d="M61.8889,-323.28C63.9817,-284.564 77.0698,-139.915 157,-67 158.701,-65.4483 160.512,-64.02 162.41,-62.7053"/>
<polygon fill="midnightblue" stroke="midnightblue" points="164.296,-65.6585 171.22,-57.6395 160.806,-59.5902 164.296,-65.6585"/>
</g>
<!-- Node261 -->
<g id="node50" class="node"><title>Node261</title>
<g id="a_node50"><a xlink:href="../../d7/df9/class_cool_board.html#a069952cdcb2e7f68518aa429eceadb6e" target="_top" xlink:title="CoolBoard::sleep">
<polygon fill="white" stroke="black" points="185.5,-0.5 185.5,-19.5 277.5,-19.5 277.5,-0.5 185.5,-0.5"/>
<text text-anchor="middle" x="231.5" y="-7.5" font-family="Helvetica,sans-Serif" font-size="10.00">CoolBoard::sleep</text>
</a>
</g>
</g>
<!-- Node199&#45;&gt;Node261 -->
<g id="edge60" class="edge"><title>Node199&#45;&gt;Node261</title>
<path fill="none" stroke="midnightblue" d="M61.3927,-323.383C61.4739,-281.581 67.554,-113.961 157,-29 162.322,-23.9453 168.806,-20.1906 175.695,-17.4096"/>
<polygon fill="midnightblue" stroke="midnightblue" points="176.907,-20.6948 185.27,-14.19 174.676,-14.0598 176.907,-20.6948"/>
</g>
<!-- Node204 -->
<g id="node6" class="node"><title>Node204</title>
<g id="a_node6"><a xlink:href="../../d8/d4b/class_cool_pub_sub_client.html#ab6ad5fa2d3db8f91454027257f225a89" target="_top" xlink:title="CoolPubSubClient::publish">
<polygon fill="white" stroke="black" points="573.5,-297.5 573.5,-316.5 707.5,-316.5 707.5,-297.5 573.5,-297.5"/>
<text text-anchor="middle" x="640.5" y="-304.5" font-family="Helvetica,sans-Serif" font-size="10.00">CoolPubSubClient::publish</text>
</a>
</g>
</g>
<!-- Node203&#45;&gt;Node204 -->
<g id="edge5" class="edge"><title>Node203&#45;&gt;Node204</title>
<path fill="none" stroke="midnightblue" d="M483.746,-335.801C512.134,-330.552 547.955,-323.928 578.085,-318.357"/>
<polygon fill="midnightblue" stroke="midnightblue" points="578.869,-321.771 588.066,-316.511 577.596,-314.888 578.869,-321.771"/>
</g>
<!-- Node206 -->
<g id="node8" class="node"><title>Node206</title>
<g id="a_node8"><a xlink:href="../../d8/d4b/class_cool_pub_sub_client.html#afc15900f0fc4886a19394508e61793b8" target="_top" xlink:title="CoolPubSubClient::loop">
<polygon fill="white" stroke="black" points="580,-259.5 580,-278.5 701,-278.5 701,-259.5 580,-259.5"/>
<text text-anchor="middle" x="640.5" y="-266.5" font-family="Helvetica,sans-Serif" font-size="10.00">CoolPubSubClient::loop</text>
</a>
</g>
</g>
<!-- Node205&#45;&gt;Node206 -->
<g id="edge7" class="edge"><title>Node205&#45;&gt;Node206</title>
<path fill="none" stroke="midnightblue" d="M485.591,-297.46C513.562,-292.288 548.324,-285.86 577.73,-280.422"/>
<polygon fill="midnightblue" stroke="midnightblue" points="578.691,-283.804 587.888,-278.544 577.418,-276.921 578.691,-283.804"/>
</g>
<!-- Node207 -->
<g id="node9" class="node"><title>Node207</title>
<g id="a_node9"><a xlink:href="../../d8/d4b/class_cool_pub_sub_client.html#a3d5a5da4ddb1e5c1bea64d80c665d148" target="_top" xlink:title="CoolPubSubClient::connected">
<polygon fill="white" stroke="black" points="759,-240.5 759,-259.5 907,-259.5 907,-240.5 759,-240.5"/>
<text text-anchor="middle" x="833" y="-247.5" font-family="Helvetica,sans-Serif" font-size="10.00">CoolPubSubClient::connected</text>
</a>
</g>
</g>
<!-- Node206&#45;&gt;Node207 -->
<g id="edge8" class="edge"><title>Node206&#45;&gt;Node207</title>
<path fill="none" stroke="midnightblue" d="M701.253,-263.04C716.201,-261.55 732.51,-259.923 748.382,-258.34"/>
<polygon fill="midnightblue" stroke="midnightblue" points="749.127,-261.783 758.73,-257.308 748.432,-254.818 749.127,-261.783"/>
</g>
<!-- Node208 -->
<g id="node10" class="node"><title>Node208</title>
<g id="a_node10"><a xlink:href="../../d8/d4b/class_cool_pub_sub_client.html#a25a8779149cfa809b7c06f63568b25cf" target="_top" xlink:title="CoolPubSubClient::readPacket">
<polygon fill="white" stroke="red" points="757,-278.5 757,-297.5 909,-297.5 909,-278.5 757,-278.5"/>
<text text-anchor="middle" x="833" y="-285.5" font-family="Helvetica,sans-Serif" font-size="10.00">CoolPubSubClient::readPacket</text>
</a>
</g>
</g>
<!-- Node206&#45;&gt;Node208 -->
<g id="edge9" class="edge"><title>Node206&#45;&gt;Node208</title>
<path fill="none" stroke="midnightblue" d="M701.253,-274.96C715.664,-276.397 731.34,-277.96 746.669,-279.489"/>
<polygon fill="midnightblue" stroke="midnightblue" points="746.378,-282.978 756.676,-280.487 747.073,-276.012 746.378,-282.978"/>
</g>
<!-- Node211 -->
<g id="node12" class="node"><title>Node211</title>
<g id="a_node12"><a xlink:href="../../db/d0c/class_cool_file_system.html#aae045125288f255f3e258073dcada2a6" target="_top" xlink:title="CoolFileSystem::incrementsavedData">
<polygon fill="white" stroke="black" points="342,-829.5 342,-848.5 524,-848.5 524,-829.5 342,-829.5"/>
<text text-anchor="middle" x="433" y="-836.5" font-family="Helvetica,sans-Serif" font-size="10.00">CoolFileSystem::incrementsavedData</text>
</a>
</g>
</g>
<!-- Node210&#45;&gt;Node211 -->
<g id="edge11" class="edge"><title>Node210&#45;&gt;Node211</title>
<path fill="none" stroke="midnightblue" d="M300.042,-828.417C310.236,-829.234 320.932,-830.092 331.638,-830.951"/>
<polygon fill="midnightblue" stroke="midnightblue" points="331.642,-834.462 341.89,-831.773 332.201,-827.485 331.642,-834.462"/>
</g>
<!-- Node215 -->
<g id="node16" class="node"><title>Node215</title>
<g id="a_node16"><a xlink:href="../../d6/d49/class_cool_time.html#a5ae038a4498602b189f76a10bf02adf8" target="_top" xlink:title="CoolTime::isTimeSync">
<polygon fill="white" stroke="black" points="375,-715.5 375,-734.5 491,-734.5 491,-715.5 375,-715.5"/>
<text text-anchor="middle" x="433" y="-722.5" font-family="Helvetica,sans-Serif" font-size="10.00">CoolTime::isTimeSync</text>
</a>
</g>
</g>
<!-- Node214&#45;&gt;Node215 -->
<g id="edge15" class="edge"><title>Node214&#45;&gt;Node215</title>
<path fill="none" stroke="midnightblue" d="M278.771,-725C304.297,-725 336.458,-725 364.716,-725"/>
<polygon fill="midnightblue" stroke="midnightblue" points="364.932,-728.5 374.931,-725 364.931,-721.5 364.932,-728.5"/>
</g>
<!-- Node217 -->
<g id="node18" class="node"><title>Node217</title>
<g id="a_node18"><a xlink:href="../../d6/d49/class_cool_time.html#a41fbbbfd651c2079f54d4b2911e4c705" target="_top" xlink:title="CoolTime::getNtpTime">
<polygon fill="white" stroke="black" points="375,-791.5 375,-810.5 491,-810.5 491,-791.5 375,-791.5"/>
<text text-anchor="middle" x="433" y="-798.5" font-family="Helvetica,sans-Serif" font-size="10.00">CoolTime::getNtpTime</text>
</a>
</g>
</g>
<!-- Node214&#45;&gt;Node217 -->
<g id="edge17" class="edge"><title>Node214&#45;&gt;Node217</title>
<path fill="none" stroke="midnightblue" d="M278.773,-732.756C288.174,-735.469 297.712,-739.114 306,-744 326.041,-755.815 321.699,-770.638 342,-782 349.133,-785.992 357.012,-789.148 365.053,-791.641"/>
<polygon fill="midnightblue" stroke="midnightblue" points="364.332,-795.073 374.903,-794.366 366.198,-788.326 364.332,-795.073"/>
</g>
<!-- Node219 -->
<g id="node20" class="node"><title>Node219</title>
<g id="a_node20"><a xlink:href="../../d6/d49/class_cool_time.html#ae9658c9b377510d469e3b88edf33ee85" target="_top" xlink:title="CoolTime::saveTimeSync">
<polygon fill="white" stroke="black" points="368,-753.5 368,-772.5 498,-772.5 498,-753.5 368,-753.5"/>
<text text-anchor="middle" x="433" y="-760.5" font-family="Helvetica,sans-Serif" font-size="10.00">CoolTime::saveTimeSync</text>
</a>
</g>
</g>
<!-- Node214&#45;&gt;Node219 -->
<g id="edge19" class="edge"><title>Node214&#45;&gt;Node219</title>
<path fill="none" stroke="midnightblue" d="M278.771,-733.813C306.486,-739.093 342.022,-745.861 371.893,-751.551"/>
<polygon fill="midnightblue" stroke="midnightblue" points="371.308,-755.003 381.787,-753.436 372.618,-748.126 371.308,-755.003"/>
</g>
<!-- Node216 -->
<g id="node17" class="node"><title>Node216</title>
<g id="a_node17"><a xlink:href="../../d6/d49/class_cool_time.html#a5d17f707a9d337720493b2bce9d41c21" target="_top" xlink:title="CoolTime::getLastSyncTime">
<polygon fill="white" stroke="black" points="570,-753.5 570,-772.5 711,-772.5 711,-753.5 570,-753.5"/>
<text text-anchor="middle" x="640.5" y="-760.5" font-family="Helvetica,sans-Serif" font-size="10.00">CoolTime::getLastSyncTime</text>
</a>
</g>
</g>
<!-- Node215&#45;&gt;Node216 -->
<g id="edge16" class="edge"><title>Node215&#45;&gt;Node216</title>
<path fill="none" stroke="midnightblue" d="M485.591,-734.54C513.562,-739.712 548.324,-746.14 577.73,-751.578"/>
<polygon fill="midnightblue" stroke="midnightblue" points="577.418,-755.079 587.888,-753.456 578.691,-748.196 577.418,-755.079"/>
</g>
<!-- Node218 -->
<g id="node19" class="node"><title>Node218</title>
<g id="a_node19"><a xlink:href="../../d6/d49/class_cool_time.html#a236a38d120dc53bc67456d763838c5a1" target="_top" xlink:title="CoolTime::sendNTPpacket">
<polygon fill="white" stroke="black" points="573,-791.5 573,-810.5 708,-810.5 708,-791.5 573,-791.5"/>
<text text-anchor="middle" x="640.5" y="-798.5" font-family="Helvetica,sans-Serif" font-size="10.00">CoolTime::sendNTPpacket</text>
</a>
</g>
</g>
<!-- Node217&#45;&gt;Node218 -->
<g id="edge18" class="edge"><title>Node217&#45;&gt;Node218</title>
<path fill="none" stroke="midnightblue" d="M491.243,-801C513.377,-801 539.042,-801 562.734,-801"/>
<polygon fill="midnightblue" stroke="midnightblue" points="562.751,-804.5 572.751,-801 562.751,-797.5 562.751,-804.5"/>
</g>
<!-- Node221 -->
<g id="node22" class="node"><title>Node221</title>
<g id="a_node22"><a xlink:href="../../d0/dd0/class_cool_m_q_t_t.html#a373cc92fca7760d886f02d8a6e5b3f63" target="_top" xlink:title="CoolMQTT::getUser">
<polygon fill="white" stroke="black" points="380.5,-677.5 380.5,-696.5 485.5,-696.5 485.5,-677.5 380.5,-677.5"/>
<text text-anchor="middle" x="433" y="-684.5" font-family="Helvetica,sans-Serif" font-size="10.00">CoolMQTT::getUser</text>
</a>
</g>
</g>
<!-- Node220&#45;&gt;Node221 -->
<g id="edge21" class="edge"><title>Node220&#45;&gt;Node221</title>
<path fill="none" stroke="midnightblue" d="M282.585,-658.54C309.739,-663.712 343.486,-670.14 372.033,-675.578"/>
<polygon fill="midnightblue" stroke="midnightblue" points="371.416,-679.023 381.895,-677.456 372.726,-672.147 371.416,-679.023"/>
</g>
<!-- Node222 -->
<g id="node23" class="node"><title>Node222</title>
<g id="a_node23"><a xlink:href="../../d6/d49/class_cool_time.html#ac4f32ee513c1328d984306645e8785a4" target="_top" xlink:title="CoolTime::getESDate">
<polygon fill="white" stroke="black" points="376.5,-639.5 376.5,-658.5 489.5,-658.5 489.5,-639.5 376.5,-639.5"/>
<text text-anchor="middle" x="433" y="-646.5" font-family="Helvetica,sans-Serif" font-size="10.00">CoolTime::getESDate</text>
</a>
</g>
</g>
<!-- Node220&#45;&gt;Node222 -->
<g id="edge22" class="edge"><title>Node220&#45;&gt;Node222</title>
<path fill="none" stroke="midnightblue" d="M285.7,-649C310.36,-649 339.913,-649 365.982,-649"/>
<polygon fill="midnightblue" stroke="midnightblue" points="366.16,-652.5 376.16,-649 366.16,-645.5 366.16,-652.5"/>
</g>
<!-- Node223 -->
<g id="node24" class="node"><title>Node223</title>
<g id="a_node24"><a xlink:href="../../d6/d49/class_cool_time.html#a7a7501c5ca77dd1248bea704c44f986c" target="_top" xlink:title="CoolTime::getTimeDate">
<polygon fill="white" stroke="black" points="580,-677.5 580,-696.5 701,-696.5 701,-677.5 580,-677.5"/>
<text text-anchor="middle" x="640.5" y="-684.5" font-family="Helvetica,sans-Serif" font-size="10.00">CoolTime::getTimeDate</text>
</a>
</g>
</g>
<!-- Node222&#45;&gt;Node223 -->
<g id="edge23" class="edge"><title>Node222&#45;&gt;Node223</title>
<path fill="none" stroke="midnightblue" d="M485.591,-658.54C513.562,-663.712 548.324,-670.14 577.73,-675.578"/>
<polygon fill="midnightblue" stroke="midnightblue" points="577.418,-679.079 587.888,-677.456 578.691,-672.196 577.418,-679.079"/>
</g>
<!-- Node224 -->
<g id="node25" class="node"><title>Node224</title>
<g id="a_node25"><a xlink:href="../../d6/d49/class_cool_time.html#acd537cd4210d7bde4e1f5c47d2ac0456" target="_top" xlink:title="CoolTime::formatDigits">
<polygon fill="white" stroke="black" points="774,-696.5 774,-715.5 892,-715.5 892,-696.5 774,-696.5"/>
<text text-anchor="middle" x="833" y="-703.5" font-family="Helvetica,sans-Serif" font-size="10.00">CoolTime::formatDigits</text>
</a>
</g>
</g>
<!-- Node222&#45;&gt;Node224 -->
<g id="edge25" class="edge"><title>Node222&#45;&gt;Node224</title>
<path fill="none" stroke="midnightblue" d="M489.678,-655.291C501.496,-658.098 513.548,-662.151 524,-668 544.301,-679.362 538.629,-696.808 560,-706 632.079,-737.003 725.177,-727.761 781.645,-717.455"/>
<polygon fill="midnightblue" stroke="midnightblue" points="782.582,-720.84 791.749,-715.528 781.271,-713.964 782.582,-720.84"/>
</g>
<!-- Node223&#45;&gt;Node224 -->
<g id="edge24" class="edge"><title>Node223&#45;&gt;Node224</title>
<path fill="none" stroke="midnightblue" d="M701.253,-692.96C721.042,-694.933 743.217,-697.145 763.604,-699.178"/>
<polygon fill="midnightblue" stroke="midnightblue" points="763.466,-702.682 773.764,-700.192 764.161,-695.716 763.466,-702.682"/>
</g>
<!-- Node225&#45;&gt;Node200 -->
<g id="edge27" class="edge"><title>Node225&#45;&gt;Node200</title>
<path fill="none" stroke="midnightblue" d="M244.909,-494.394C259.891,-482.606 285.613,-461.743 306,-442 323.181,-425.361 321.28,-413.947 342,-402 349.823,-397.489 358.581,-394.044 367.48,-391.414"/>
<polygon fill="midnightblue" stroke="midnightblue" points="368.373,-394.799 377.153,-388.869 366.592,-388.029 368.373,-394.799"/>
</g>
<!-- Node225&#45;&gt;Node202 -->
<g id="edge28" class="edge"><title>Node225&#45;&gt;Node202</title>
<path fill="none" stroke="midnightblue" d="M242.271,-494.445C258.154,-478.336 289.459,-444.083 306,-409 336.899,-343.464 290.394,-300.858 342,-250 349.007,-243.095 357.853,-238.413 367.247,-235.284"/>
<polygon fill="midnightblue" stroke="midnightblue" points="368.464,-238.579 377.181,-232.557 366.611,-231.829 368.464,-238.579"/>
</g>
<!-- Node225&#45;&gt;Node212 -->
<g id="edge43" class="edge"><title>Node225&#45;&gt;Node212</title>
<path fill="none" stroke="midnightblue" d="M274.653,-494.384C285.386,-490.847 296.549,-486.149 306,-480 326.048,-466.957 321.28,-451.947 342,-440 348.712,-436.13 356.112,-433.045 363.699,-430.585"/>
<polygon fill="midnightblue" stroke="midnightblue" points="364.734,-433.929 373.371,-427.793 362.792,-427.204 364.734,-433.929"/>
</g>
<!-- Node225&#45;&gt;Node223 -->
<g id="edge42" class="edge"><title>Node225&#45;&gt;Node223</title>
<path fill="none" stroke="midnightblue" d="M241.398,-513.712C258.816,-532.086 299.441,-571.891 342,-592 416.713,-627.301 451.847,-589.723 524,-630 544.314,-641.339 539.851,-656.37 560,-668 563.908,-670.256 568.072,-672.244 572.367,-673.997"/>
<polygon fill="midnightblue" stroke="midnightblue" points="571.339,-677.347 581.933,-677.47 573.728,-670.768 571.339,-677.347"/>
</g>
<!-- Node226 -->
<g id="node27" class="node"><title>Node226</title>
<g id="a_node27"><a xlink:href="../../d7/df9/class_cool_board.html#a397b46fadab8f530a8cf4d914c561366" target="_top" xlink:title="CoolBoard::initReadI2C">
<polygon fill="white" stroke="black" points="373,-563.5 373,-582.5 493,-582.5 493,-563.5 373,-563.5"/>
<text text-anchor="middle" x="433" y="-570.5" font-family="Helvetica,sans-Serif" font-size="10.00">CoolBoard::initReadI2C</text>
</a>
</g>
</g>
<!-- Node225&#45;&gt;Node226 -->
<g id="edge29" class="edge"><title>Node225&#45;&gt;Node226</title>
<path fill="none" stroke="midnightblue" d="M250.221,-513.571C271.479,-524.699 308.455,-542.95 342,-554 350.067,-556.657 358.667,-559.031 367.231,-561.123"/>
<polygon fill="midnightblue" stroke="midnightblue" points="366.699,-564.593 377.232,-563.451 368.286,-557.775 366.699,-564.593"/>
</g>
<!-- Node227 -->
<g id="node28" class="node"><title>Node227</title>
<g id="a_node28"><a xlink:href="../../de/d46/class_cool_board_sensors.html#a91badb2539d91fda8679f2a597874c48" target="_top" xlink:title="CoolBoardSensors::read">
<polygon fill="white" stroke="black" points="371.5,-525.5 371.5,-544.5 494.5,-544.5 494.5,-525.5 371.5,-525.5"/>
<text text-anchor="middle" x="433" y="-532.5" font-family="Helvetica,sans-Serif" font-size="10.00">CoolBoardSensors::read</text>
</a>
</g>
</g>
<!-- Node225&#45;&gt;Node227 -->
<g id="edge30" class="edge"><title>Node225&#45;&gt;Node227</title>
<path fill="none" stroke="midnightblue" d="M293.169,-513.427C314.642,-516.764 338.985,-520.547 361.224,-524.002"/>
<polygon fill="midnightblue" stroke="midnightblue" points="360.857,-527.487 371.276,-525.564 361.932,-520.57 360.857,-527.487"/>
</g>
<!-- Node238 -->
<g id="node37" class="node"><title>Node238</title>
<g id="a_node37"><a xlink:href="../../d1/d2f/class_external_sensors.html#a53177b81eca3be89508b5511ddcd00fc" target="_top" xlink:title="ExternalSensors::read">
<polygon fill="white" stroke="black" points="376.5,-487.5 376.5,-506.5 489.5,-506.5 489.5,-487.5 376.5,-487.5"/>
<text text-anchor="middle" x="433" y="-494.5" font-family="Helvetica,sans-Serif" font-size="10.00">ExternalSensors::read</text>
</a>
</g>
</g>
<!-- Node225&#45;&gt;Node238 -->
<g id="edge39" class="edge"><title>Node225&#45;&gt;Node238</title>
<path fill="none" stroke="midnightblue" d="M293.169,-501.871C316.237,-501.062 342.616,-500.136 366.141,-499.311"/>
<polygon fill="midnightblue" stroke="midnightblue" points="366.507,-502.8 376.378,-498.952 366.261,-495.805 366.507,-502.8"/>
</g>
<!-- Node239 -->
<g id="node38" class="node"><title>Node239</title>
<g id="a_node38"><a xlink:href="../../d6/d03/class_irene3000.html#a852a170feea994ea1df01c6b245b5d9a" target="_top" xlink:title="Irene3000::read">
<polygon fill="white" stroke="red" points="391,-449.5 391,-468.5 475,-468.5 475,-449.5 391,-449.5"/>
<text text-anchor="middle" x="433" y="-456.5" font-family="Helvetica,sans-Serif" font-size="10.00">Irene3000::read</text>
</a>
</g>
</g>
<!-- Node225&#45;&gt;Node239 -->
<g id="edge40" class="edge"><title>Node225&#45;&gt;Node239</title>
<path fill="none" stroke="midnightblue" d="M271.468,-494.497C292.355,-489.466 318.549,-483.259 342,-478 354.541,-475.188 368.093,-472.266 380.779,-469.581"/>
<polygon fill="midnightblue" stroke="midnightblue" points="381.668,-472.971 390.733,-467.485 380.226,-466.121 381.668,-472.971"/>
</g>
<!-- Node228 -->
<g id="node29" class="node"><title>Node228</title>
<g id="a_node29"><a xlink:href="../../dd/d67/class_cool_s_i114_x.html#a42e0e574256341443c647a4c0eda87d5" target="_top" xlink:title="CoolSI114X::ReadVisible">
<polygon fill="white" stroke="red" points="576.5,-487.5 576.5,-506.5 704.5,-506.5 704.5,-487.5 576.5,-487.5"/>
<text text-anchor="middle" x="640.5" y="-494.5" font-family="Helvetica,sans-Serif" font-size="10.00">CoolSI114X::ReadVisible</text>
</a>
</g>
</g>
<!-- Node227&#45;&gt;Node228 -->
<g id="edge31" class="edge"><title>Node227&#45;&gt;Node228</title>
<path fill="none" stroke="midnightblue" d="M485.591,-525.46C513.562,-520.288 548.324,-513.86 577.73,-508.422"/>
<polygon fill="midnightblue" stroke="midnightblue" points="578.691,-511.804 587.888,-506.544 577.418,-504.921 578.691,-511.804"/>
</g>
<!-- Node230 -->
<g id="node30" class="node"><title>Node230</title>
<g id="a_node30"><a xlink:href="../../dd/d67/class_cool_s_i114_x.html#abc536ee7ae8e3ba9d1069acc3889a2cf" target="_top" xlink:title="CoolSI114X::ReadIR">
<polygon fill="white" stroke="red" points="586,-449.5 586,-468.5 695,-468.5 695,-449.5 586,-449.5"/>
<text text-anchor="middle" x="640.5" y="-456.5" font-family="Helvetica,sans-Serif" font-size="10.00">CoolSI114X::ReadIR</text>
</a>
</g>
</g>
<!-- Node227&#45;&gt;Node230 -->
<g id="edge32" class="edge"><title>Node227&#45;&gt;Node230</title>
<path fill="none" stroke="midnightblue" d="M494.887,-527.392C504.997,-524.675 515.081,-520.991 524,-516 544.301,-504.638 539.851,-489.63 560,-478 565.039,-475.091 570.503,-472.627 576.127,-470.539"/>
<polygon fill="midnightblue" stroke="midnightblue" points="577.303,-473.837 585.695,-467.369 575.102,-467.192 577.303,-473.837"/>
</g>
<!-- Node231 -->
<g id="node31" class="node"><title>Node231</title>
<g id="a_node31"><a xlink:href="../../dd/d67/class_cool_s_i114_x.html#a14ced664d74e93438440b0274109c111" target="_top" xlink:title="CoolSI114X::ReadUV">
<polygon fill="white" stroke="red" points="584,-411.5 584,-430.5 697,-430.5 697,-411.5 584,-411.5"/>
<text text-anchor="middle" x="640.5" y="-418.5" font-family="Helvetica,sans-Serif" font-size="10.00">CoolSI114X::ReadUV</text>
</a>
</g>
</g>
<!-- Node227&#45;&gt;Node231 -->
<g id="edge33" class="edge"><title>Node227&#45;&gt;Node231</title>
<path fill="none" stroke="midnightblue" d="M494.533,-530.196C505.131,-527.223 515.476,-522.728 524,-516 553.337,-492.842 530.973,-463.545 560,-440 564.339,-436.48 569.225,-433.593 574.385,-431.228"/>
<polygon fill="midnightblue" stroke="midnightblue" points="575.869,-434.406 583.913,-427.511 573.325,-427.885 575.869,-434.406"/>
</g>
<!-- Node232 -->
<g id="node32" class="node"><title>Node232</title>
<g id="a_node32"><a xlink:href="../../df/dcf/class_b_m_e280.html#ada6e799917afb4f228e6253bc56ffe75" target="_top" xlink:title="BME280::readFloatPressure">
<polygon fill="white" stroke="red" points="570.5,-373.5 570.5,-392.5 710.5,-392.5 710.5,-373.5 570.5,-373.5"/>
<text text-anchor="middle" x="640.5" y="-380.5" font-family="Helvetica,sans-Serif" font-size="10.00">BME280::readFloatPressure</text>
</a>
</g>
</g>
<!-- Node227&#45;&gt;Node232 -->
<g id="edge34" class="edge"><title>Node227&#45;&gt;Node232</title>
<path fill="none" stroke="midnightblue" d="M494.843,-531.244C505.536,-528.193 515.837,-523.401 524,-516 563.363,-480.311 521.114,-438.208 560,-402 561.519,-400.586 563.124,-399.271 564.8,-398.049"/>
<polygon fill="midnightblue" stroke="midnightblue" points="566.946,-400.842 573.704,-392.682 563.333,-394.847 566.946,-400.842"/>
</g>
<!-- Node234 -->
<g id="node33" class="node"><title>Node234</title>
<g id="a_node33"><a xlink:href="../../df/dcf/class_b_m_e280.html#a42ea7232039eebf5aadb391ef6132c35" target="_top" xlink:title="BME280::readFloatHumidity">
<polygon fill="white" stroke="red" points="570.5,-639.5 570.5,-658.5 710.5,-658.5 710.5,-639.5 570.5,-639.5"/>
<text text-anchor="middle" x="640.5" y="-646.5" font-family="Helvetica,sans-Serif" font-size="10.00">BME280::readFloatHumidity</text>
</a>
</g>
</g>
<!-- Node227&#45;&gt;Node234 -->
<g id="edge35" class="edge"><title>Node227&#45;&gt;Node234</title>
<path fill="none" stroke="midnightblue" d="M494.533,-539.804C505.131,-542.777 515.476,-547.272 524,-554 553.337,-577.158 530.973,-606.455 560,-630 562.073,-631.682 564.271,-633.219 566.564,-634.624"/>
<polygon fill="midnightblue" stroke="midnightblue" points="565.327,-637.925 575.817,-639.412 568.544,-631.708 565.327,-637.925"/>
</g>
<!-- Node235 -->
<g id="node34" class="node"><title>Node235</title>
<g id="a_node34"><a xlink:href="../../df/dcf/class_b_m_e280.html#afffdd1d7ded9e1f92200e70669019d97" target="_top" xlink:title="BME280::readTempC">
<polygon fill="white" stroke="red" points="585,-601.5 585,-620.5 696,-620.5 696,-601.5 585,-601.5"/>
<text text-anchor="middle" x="640.5" y="-608.5" font-family="Helvetica,sans-Serif" font-size="10.00">BME280::readTempC</text>
</a>
</g>
</g>
<!-- Node227&#45;&gt;Node235 -->
<g id="edge36" class="edge"><title>Node227&#45;&gt;Node235</title>
<path fill="none" stroke="midnightblue" d="M494.887,-542.608C504.997,-545.325 515.081,-549.009 524,-554 544.301,-565.362 539.851,-580.37 560,-592 564.762,-594.749 569.905,-597.101 575.203,-599.114"/>
<polygon fill="midnightblue" stroke="midnightblue" points="574.264,-602.491 584.858,-602.381 576.508,-595.86 574.264,-602.491"/>
</g>
<!-- Node236 -->
<g id="node35" class="node"><title>Node236</title>
<g id="a_node35"><a xlink:href="../../de/d46/class_cool_board_sensors.html#a6944b6ea7bce8e2fce1b434acfd9d5f3" target="_top" xlink:title="CoolBoardSensors::readVBat">
<polygon fill="white" stroke="black" points="568,-563.5 568,-582.5 713,-582.5 713,-563.5 568,-563.5"/>
<text text-anchor="middle" x="640.5" y="-570.5" font-family="Helvetica,sans-Serif" font-size="10.00">CoolBoardSensors::readVBat</text>
</a>
</g>
</g>
<!-- Node227&#45;&gt;Node236 -->
<g id="edge37" class="edge"><title>Node227&#45;&gt;Node236</title>
<path fill="none" stroke="midnightblue" d="M485.591,-544.54C513.562,-549.712 548.324,-556.14 577.73,-561.578"/>
<polygon fill="midnightblue" stroke="midnightblue" points="577.418,-565.079 587.888,-563.456 578.691,-558.196 577.418,-565.079"/>
</g>
<!-- Node237 -->
<g id="node36" class="node"><title>Node237</title>
<g id="a_node36"><a xlink:href="../../de/d46/class_cool_board_sensors.html#a8761bff50373c485f4465c8db47d0633" target="_top" xlink:title="CoolBoardSensors::readMoisture">
<polygon fill="white" stroke="black" points="560,-525.5 560,-544.5 721,-544.5 721,-525.5 560,-525.5"/>
<text text-anchor="middle" x="640.5" y="-532.5" font-family="Helvetica,sans-Serif" font-size="10.00">CoolBoardSensors::readMoisture</text>
</a>
</g>
</g>
<!-- Node227&#45;&gt;Node237 -->
<g id="edge38" class="edge"><title>Node227&#45;&gt;Node237</title>
<path fill="none" stroke="midnightblue" d="M494.545,-535C511.907,-535 531.215,-535 549.929,-535"/>
<polygon fill="midnightblue" stroke="midnightblue" points="549.947,-538.5 559.947,-535 549.947,-531.5 549.947,-538.5"/>
</g>
<!-- Node240 -->
<g id="node39" class="node"><title>Node240</title>
<g id="a_node39"><a xlink:href="../../d6/d03/class_irene3000.html#a80bc6dfea106dc3bc54fa20204d4d5dc" target="_top" xlink:title="Irene3000::readTemp">
<polygon fill="white" stroke="red" points="586,-335.5 586,-354.5 695,-354.5 695,-335.5 586,-335.5"/>
<text text-anchor="middle" x="640.5" y="-342.5" font-family="Helvetica,sans-Serif" font-size="10.00">Irene3000::readTemp</text>
</a>
</g>
</g>
<!-- Node239&#45;&gt;Node240 -->
<g id="edge41" class="edge"><title>Node239&#45;&gt;Node240</title>
<path fill="none" stroke="midnightblue" d="M475.431,-458.069C491.993,-455.831 510.337,-450.785 524,-440 553.337,-416.842 530.973,-387.545 560,-364 564.918,-360.011 570.537,-356.835 576.464,-354.31"/>
<polygon fill="midnightblue" stroke="midnightblue" points="577.769,-357.56 585.973,-350.855 575.379,-350.98 577.769,-357.56"/>
</g>
<!-- Node252 -->
<g id="node42" class="node"><title>Node252</title>
<g id="a_node42"><a xlink:href="../../df/d1d/class_jetpack.html#a338f1af8cbc6504ac69b47c7328569b5" target="_top" xlink:title="Jetpack::write">
<polygon fill="white" stroke="black" points="394,-76.5 394,-95.5 472,-95.5 472,-76.5 394,-76.5"/>
<text text-anchor="middle" x="433" y="-83.5" font-family="Helvetica,sans-Serif" font-size="10.00">Jetpack::write</text>
</a>
</g>
</g>
<!-- Node251&#45;&gt;Node252 -->
<g id="edge46" class="edge"><title>Node251&#45;&gt;Node252</title>
<path fill="none" stroke="midnightblue" d="M279.022,-86C310.366,-86 351.625,-86 383.396,-86"/>
<polygon fill="midnightblue" stroke="midnightblue" points="383.778,-89.5001 393.778,-86 383.778,-82.5001 383.778,-89.5001"/>
</g>
<!-- Node254&#45;&gt;Node200 -->
<g id="edge49" class="edge"><title>Node254&#45;&gt;Node200</title>
<path fill="none" stroke="midnightblue" d="M241.402,-285.703C258.827,-304.063 299.464,-343.844 342,-364 349.969,-367.776 358.687,-370.807 367.461,-373.239"/>
<polygon fill="midnightblue" stroke="midnightblue" points="366.801,-376.682 377.354,-375.737 368.515,-369.895 366.801,-376.682"/>
</g>
<!-- Node254&#45;&gt;Node202 -->
<g id="edge55" class="edge"><title>Node254&#45;&gt;Node202</title>
<path fill="none" stroke="midnightblue" d="M271.468,-266.497C292.355,-261.466 318.549,-255.259 342,-250 352.857,-247.566 364.47,-245.049 375.624,-242.675"/>
<polygon fill="midnightblue" stroke="midnightblue" points="376.645,-246.037 385.704,-240.542 375.196,-239.188 376.645,-246.037"/>
</g>
<!-- Node254&#45;&gt;Node203 -->
<g id="edge53" class="edge"><title>Node254&#45;&gt;Node203</title>
<path fill="none" stroke="midnightblue" d="M250.221,-285.571C271.479,-296.699 308.455,-314.95 342,-326 351.77,-329.218 362.322,-332.02 372.643,-334.411"/>
<polygon fill="midnightblue" stroke="midnightblue" points="371.915,-337.834 382.435,-336.577 373.427,-331 371.915,-337.834"/>
</g>
<!-- Node254&#45;&gt;Node205 -->
<g id="edge54" class="edge"><title>Node254&#45;&gt;Node205</title>
<path fill="none" stroke="midnightblue" d="M280.539,-283.465C306.519,-287.502 338.967,-292.544 367.158,-296.924"/>
<polygon fill="midnightblue" stroke="midnightblue" points="366.913,-300.428 377.332,-298.505 367.988,-293.511 366.913,-300.428"/>
</g>
<!-- Node254&#45;&gt;Node212 -->
<g id="edge56" class="edge"><title>Node254&#45;&gt;Node212</title>
<path fill="none" stroke="midnightblue" d="M239.578,-285.629C259.431,-312.381 315.896,-386.645 342,-402 348.678,-405.928 356.057,-409.05 363.632,-411.529"/>
<polygon fill="midnightblue" stroke="midnightblue" points="362.714,-414.907 373.294,-414.34 364.669,-408.186 362.714,-414.907"/>
</g>
<!-- Node255 -->
<g id="node45" class="node"><title>Node255</title>
<g id="a_node45"><a xlink:href="../../df/d1d/class_jetpack.html#a79ae7bc3c1828a0551a7c005c4f8bd00" target="_top" xlink:title="Jetpack::writeBit">
<polygon fill="white" stroke="black" points="388,-259.5 388,-278.5 478,-278.5 478,-259.5 388,-259.5"/>
<text text-anchor="middle" x="433" y="-266.5" font-family="Helvetica,sans-Serif" font-size="10.00">Jetpack::writeBit</text>
</a>
</g>
</g>
<!-- Node254&#45;&gt;Node255 -->
<g id="edge50" class="edge"><title>Node254&#45;&gt;Node255</title>
<path fill="none" stroke="midnightblue" d="M280.539,-274.314C309.854,-273.286 347.405,-271.968 377.783,-270.902"/>
<polygon fill="midnightblue" stroke="midnightblue" points="377.917,-274.4 387.788,-270.551 377.671,-267.404 377.917,-274.4"/>
</g>
<!-- Node256 -->
<g id="node46" class="node"><title>Node256</title>
<g id="a_node46"><a xlink:href="../../dc/d69/class_cool_board_actor.html#a958786ff01ea1056ee72c72d439f86da" target="_top" xlink:title="CoolBoardActor::write">
<polygon fill="white" stroke="black" points="376.5,-120.5 376.5,-139.5 489.5,-139.5 489.5,-120.5 376.5,-120.5"/>
<text text-anchor="middle" x="433" y="-127.5" font-family="Helvetica,sans-Serif" font-size="10.00">CoolBoardActor::write</text>
</a>
</g>
</g>
<!-- Node254&#45;&gt;Node256 -->
<g id="edge51" class="edge"><title>Node254&#45;&gt;Node256</title>
<path fill="none" stroke="midnightblue" d="M280.877,-270.479C290.028,-267.608 298.934,-263.334 306,-257 339.623,-226.864 309.745,-193.597 342,-162 350.338,-153.832 360.894,-147.737 371.818,-143.192"/>
<polygon fill="midnightblue" stroke="midnightblue" points="373.326,-146.365 381.467,-139.583 370.874,-139.808 373.326,-146.365"/>
</g>
<!-- Node257 -->
<g id="node47" class="node"><title>Node257</title>
<g id="a_node47"><a xlink:href="../../db/d0c/class_cool_file_system.html#adfa8e2e80641ae6f0cceabd348a9b841" target="_top" xlink:title="CoolFileSystem::updateConfig\lFiles">
<polygon fill="white" stroke="red" points="358,-172 358,-202 508,-202 508,-172 358,-172"/>
<text text-anchor="start" x="366" y="-190" font-family="Helvetica,sans-Serif" font-size="10.00">CoolFileSystem::updateConfig</text>
<text text-anchor="middle" x="433" y="-179" font-family="Helvetica,sans-Serif" font-size="10.00">Files</text>
</a>
</g>
</g>
<!-- Node254&#45;&gt;Node257 -->
<g id="edge52" class="edge"><title>Node254&#45;&gt;Node257</title>
<path fill="none" stroke="midnightblue" d="M280.639,-268.308C289.507,-265.6 298.366,-261.942 306,-257 327.501,-243.082 320.625,-226.111 342,-212 345.092,-209.959 348.348,-208.083 351.715,-206.359"/>
<polygon fill="midnightblue" stroke="midnightblue" points="353.238,-209.511 360.85,-202.142 350.304,-203.156 353.238,-209.511"/>
</g>
<!-- Node259&#45;&gt;Node256 -->
<g id="edge58" class="edge"><title>Node259&#45;&gt;Node256</title>
<path fill="none" stroke="midnightblue" d="M296.721,-125.931C318.946,-126.6 343.878,-127.35 366.226,-128.022"/>
<polygon fill="midnightblue" stroke="midnightblue" points="366.193,-131.522 376.293,-128.325 366.403,-124.525 366.193,-131.522"/>
</g>
</g>
</svg>
