<?xml version="1.0" encoding="UTF-8" standalone="no"?>
<!DOCTYPE svg PUBLIC "-//W3C//DTD SVG 1.1//EN"
 "http://www.w3.org/Graphics/SVG/1.1/DTD/svg11.dtd">
<!-- Generated by graphviz version 2.38.0 (20140413.2041)
 -->
<!-- Title: CoolBoard::offLineMode Pages: 1 -->
<svg width="1157pt" height="918pt"
 viewBox="0.00 0.00 1157.00 918.07" xmlns="http://www.w3.org/2000/svg" xmlns:xlink="http://www.w3.org/1999/xlink">
<g id="graph0" class="graph" transform="scale(1 1) rotate(0) translate(4 914.071)">
<title>CoolBoard::offLineMode</title>
<polygon fill="white" stroke="none" points="-4,4 -4,-914.071 1153,-914.071 1153,4 -4,4"/>
<!-- Node134 -->
<g id="node1" class="node"><title>Node134</title>
<polygon fill="#bfbfbf" stroke="black" points="0,-444.5 0,-463.5 122,-463.5 122,-444.5 0,-444.5"/>
<text text-anchor="middle" x="61" y="-451.5" font-family="Helvetica,sans-Serif" font-size="10.00">CoolBoard::offLineMode</text>
</g>
<!-- Node135 -->
<g id="node2" class="node"><title>Node135</title>
<g id="a_node2"><a xlink:href="../../de/dc0/class_cool_board_led.html#af1cacbaa88db8bcf6042c1083ba41155" target="_top" xlink:title="CoolBoardLed::fade">
<polygon fill="white" stroke="black" points="189,-838.5 189,-857.5 292,-857.5 292,-838.5 189,-838.5"/>
<text text-anchor="middle" x="240.5" y="-845.5" font-family="Helvetica,sans-Serif" font-size="10.00">CoolBoardLed::fade</text>
</a>
</g>
</g>
<!-- Node134&#45;&gt;Node135 -->
<g id="edge1" class="edge"><title>Node134&#45;&gt;Node135</title>
<path fill="none" stroke="midnightblue" d="M63.1431,-463.838C69.5817,-517.577 103.006,-775.18 158,-829 163.906,-834.78 171.21,-838.929 179,-841.887"/>
<polygon fill="midnightblue" stroke="midnightblue" points="178.092,-845.271 188.681,-844.934 180.194,-838.593 178.092,-845.271"/>
</g>
<!-- Node136 -->
<g id="node3" class="node"><title>Node136</title>
<g id="a_node3"><a xlink:href="../../de/dc0/class_cool_board_led.html#ab778f5e7bed0ab74e3906d82110493c3" target="_top" xlink:title="CoolBoardLed::fadeIn">
<polygon fill="white" stroke="black" points="394.5,-772.5 394.5,-791.5 505.5,-791.5 505.5,-772.5 394.5,-772.5"/>
<text text-anchor="middle" x="450" y="-779.5" font-family="Helvetica,sans-Serif" font-size="10.00">CoolBoardLed::fadeIn</text>
</a>
</g>
</g>
<!-- Node134&#45;&gt;Node136 -->
<g id="edge2" class="edge"><title>Node134&#45;&gt;Node136</title>
<path fill="none" stroke="midnightblue" d="M64.501,-463.752C72.8292,-494.541 102.298,-591.058 158,-649 223.226,-716.85 329.585,-753.147 394.057,-769.937"/>
<polygon fill="midnightblue" stroke="midnightblue" points="393.478,-773.401 404.032,-772.466 395.199,-766.615 393.478,-773.401"/>
</g>
<!-- Node137 -->
<g id="node4" class="node"><title>Node137</title>
<g id="a_node4"><a xlink:href="../../de/dc0/class_cool_board_led.html#a96e1ea13003eee34c9dbcef340404426" target="_top" xlink:title="CoolBoardLed::blink">
<polygon fill="white" stroke="black" points="398,-342.5 398,-361.5 502,-361.5 502,-342.5 398,-342.5"/>
<text text-anchor="middle" x="450" y="-349.5" font-family="Helvetica,sans-Serif" font-size="10.00">CoolBoardLed::blink</text>
</a>
</g>
</g>
<!-- Node134&#45;&gt;Node137 -->
<g id="edge3" class="edge"><title>Node134&#45;&gt;Node137</title>
<path fill="none" stroke="midnightblue" d="M82.6013,-444.435C101.792,-435.814 131.367,-423.259 158,-415 235.942,-390.83 328.417,-372.512 387.861,-362.02"/>
<polygon fill="midnightblue" stroke="midnightblue" points="388.588,-365.446 397.837,-360.278 387.384,-358.551 388.588,-365.446"/>
</g>
<!-- Node138 -->
<g id="node5" class="node"><title>Node138</title>
<g id="a_node5"><a xlink:href="../../d7/df9/class_cool_board.html#ae7358fb6e623cfc81b775f5f1734909b" target="_top" xlink:title="CoolBoard::userData">
<polygon fill="white" stroke="black" points="186.5,-800.5 186.5,-819.5 294.5,-819.5 294.5,-800.5 186.5,-800.5"/>
<text text-anchor="middle" x="240.5" y="-807.5" font-family="Helvetica,sans-Serif" font-size="10.00">CoolBoard::userData</text>
</a>
</g>
</g>
<!-- Node134&#45;&gt;Node138 -->
<g id="edge4" class="edge"><title>Node134&#45;&gt;Node138</title>
<path fill="none" stroke="midnightblue" d="M63.3728,-463.659C69.1409,-501.668 94.1398,-643.525 158,-739 173.242,-761.788 197.63,-781.689 215.761,-794.578"/>
<polygon fill="midnightblue" stroke="midnightblue" points="213.872,-797.527 224.092,-800.323 217.847,-791.764 213.872,-797.527"/>
</g>
<!-- Node143 -->
<g id="node10" class="node"><title>Node143</title>
<g id="a_node10"><a xlink:href="../../d7/df9/class_cool_board.html#ad03abdce2e65f520bbf2cff0f2d083cf" target="_top" xlink:title="CoolBoard::readSensors">
<polygon fill="white" stroke="black" points="179,-620.5 179,-639.5 302,-639.5 302,-620.5 179,-620.5"/>
<text text-anchor="middle" x="240.5" y="-627.5" font-family="Helvetica,sans-Serif" font-size="10.00">CoolBoard::readSensors</text>
</a>
</g>
</g>
<!-- Node134&#45;&gt;Node143 -->
<g id="edge10" class="edge"><title>Node134&#45;&gt;Node143</title>
<path fill="none" stroke="midnightblue" d="M71.796,-463.713C100.58,-492.254 185.179,-576.138 222.021,-612.668"/>
<polygon fill="midnightblue" stroke="midnightblue" points="219.95,-615.544 229.515,-620.1 224.879,-610.573 219.95,-615.544"/>
</g>
<!-- Node169 -->
<g id="node27" class="node"><title>Node169</title>
<g id="a_node27"><a xlink:href="../../de/dc0/class_cool_board_led.html#a93d545679237e8cc858324367149775c" target="_top" xlink:title="CoolBoardLed::fadeOut">
<polygon fill="white" stroke="black" points="390.5,-506.5 390.5,-525.5 509.5,-525.5 509.5,-506.5 390.5,-506.5"/>
<text text-anchor="middle" x="450" y="-513.5" font-family="Helvetica,sans-Serif" font-size="10.00">CoolBoardLed::fadeOut</text>
</a>
</g>
</g>
<!-- Node134&#45;&gt;Node169 -->
<g id="edge30" class="edge"><title>Node134&#45;&gt;Node169</title>
<path fill="none" stroke="midnightblue" d="M80.1697,-463.639C99.0484,-473.153 129.73,-487.228 158,-494 232.639,-511.88 320.84,-516.303 380.418,-516.934"/>
<polygon fill="midnightblue" stroke="midnightblue" points="380.436,-520.434 390.462,-517.007 380.488,-513.434 380.436,-520.434"/>
</g>
<!-- Node170 -->
<g id="node28" class="node"><title>Node170</title>
<g id="a_node28"><a xlink:href="../../df/d1d/class_jetpack.html#a9e703197093094b963f9ad57817495b8" target="_top" xlink:title="Jetpack::doAction">
<polygon fill="white" stroke="black" points="193,-465.5 193,-484.5 288,-484.5 288,-465.5 193,-465.5"/>
<text text-anchor="middle" x="240.5" y="-472.5" font-family="Helvetica,sans-Serif" font-size="10.00">Jetpack::doAction</text>
</a>
</g>
</g>
<!-- Node134&#45;&gt;Node170 -->
<g id="edge31" class="edge"><title>Node134&#45;&gt;Node170</title>
<path fill="none" stroke="midnightblue" d="M122.093,-461.11C141.701,-463.429 163.4,-465.997 182.754,-468.286"/>
<polygon fill="midnightblue" stroke="midnightblue" points="182.594,-471.792 192.936,-469.491 183.417,-464.84 182.594,-471.792"/>
</g>
<!-- Node172 -->
<g id="node30" class="node"><title>Node172</title>
<g id="a_node30"><a xlink:href="../../db/d0c/class_cool_file_system.html#afa3a4feae94871d4d3b6bebb701c2e67" target="_top" xlink:title="CoolFileSystem::saveSensorData">
<polygon fill="white" stroke="black" points="158,-424.5 158,-443.5 323,-443.5 323,-424.5 158,-424.5"/>
<text text-anchor="middle" x="240.5" y="-431.5" font-family="Helvetica,sans-Serif" font-size="10.00">CoolFileSystem::saveSensorData</text>
</a>
</g>
</g>
<!-- Node134&#45;&gt;Node172 -->
<g id="edge33" class="edge"><title>Node134&#45;&gt;Node172</title>
<path fill="none" stroke="midnightblue" d="M122.093,-447.229C130.334,-446.3 138.944,-445.33 147.594,-444.356"/>
<polygon fill="midnightblue" stroke="midnightblue" points="148.202,-447.809 157.748,-443.212 147.419,-440.853 148.202,-447.809"/>
</g>
<!-- Node175 -->
<g id="node33" class="node"><title>Node175</title>
<g id="a_node33"><a xlink:href="../../d7/d29/class_cool_wifi.html#a1c7b4d82a4098d346e7593dce92039fa" target="_top" xlink:title="CoolWifi::state">
<polygon fill="white" stroke="black" points="409,-304.5 409,-323.5 491,-323.5 491,-304.5 409,-304.5"/>
<text text-anchor="middle" x="450" y="-311.5" font-family="Helvetica,sans-Serif" font-size="10.00">CoolWifi::state</text>
</a>
</g>
</g>
<!-- Node134&#45;&gt;Node175 -->
<g id="edge36" class="edge"><title>Node134&#45;&gt;Node175</title>
<path fill="none" stroke="midnightblue" d="M70.1068,-444.228C85.3484,-426.558 120.166,-389.424 158,-371 236.538,-332.755 338.809,-320.167 398.847,-316.027"/>
<polygon fill="midnightblue" stroke="midnightblue" points="399.073,-319.52 408.83,-315.39 398.628,-312.534 399.073,-319.52"/>
</g>
<!-- Node176 -->
<g id="node34" class="node"><title>Node176</title>
<g id="a_node34"><a xlink:href="../../d0/dd0/class_cool_m_q_t_t.html#a5d003307eff78efbd585e42b43b72b6d" target="_top" xlink:title="CoolMQTT::state">
<polygon fill="white" stroke="black" points="611.5,-171.5 611.5,-190.5 703.5,-190.5 703.5,-171.5 611.5,-171.5"/>
<text text-anchor="middle" x="657.5" y="-178.5" font-family="Helvetica,sans-Serif" font-size="10.00">CoolMQTT::state</text>
</a>
</g>
</g>
<!-- Node134&#45;&gt;Node176 -->
<g id="edge37" class="edge"><title>Node134&#45;&gt;Node176</title>
<path fill="none" stroke="midnightblue" d="M63.762,-444.471C70.2989,-411.587 96.0565,-301.403 158,-238 227.05,-167.323 262.589,-164.636 359,-143 437.926,-125.288 461.13,-130.199 541,-143 570.232,-147.685 602.1,-158.642 624.942,-167.592"/>
<polygon fill="midnightblue" stroke="midnightblue" points="623.868,-170.932 634.452,-171.407 626.474,-164.435 623.868,-170.932"/>
</g>
<!-- Node178 -->
<g id="node36" class="node"><title>Node178</title>
<g id="a_node36"><a xlink:href="../../d7/d29/class_cool_wifi.html#a7c857f27161782f5ef1d62d552aff971" target="_top" xlink:title="CoolWifi::connectAP">
<polygon fill="white" stroke="black" points="603.5,-38.5 603.5,-57.5 711.5,-57.5 711.5,-38.5 603.5,-38.5"/>
<text text-anchor="middle" x="657.5" y="-45.5" font-family="Helvetica,sans-Serif" font-size="10.00">CoolWifi::connectAP</text>
</a>
</g>
</g>
<!-- Node134&#45;&gt;Node178 -->
<g id="edge39" class="edge"><title>Node134&#45;&gt;Node178</title>
<path fill="none" stroke="midnightblue" d="M62.1827,-444.326C63.4789,-402.969 73.9321,-238.993 158,-148 270.574,-26.1522 486.526,-29.3141 593.398,-39.6083"/>
<polygon fill="midnightblue" stroke="midnightblue" points="593.09,-43.095 603.393,-40.6228 593.797,-36.1308 593.09,-43.095"/>
</g>
<!-- Node184 -->
<g id="node42" class="node"><title>Node184</title>
<g id="a_node42"><a xlink:href="../../d7/df9/class_cool_board.html#a519de78b807f8ec6463ff484eb925918" target="_top" xlink:title="CoolBoard::connect">
<polygon fill="white" stroke="black" points="189,-247.5 189,-266.5 292,-266.5 292,-247.5 189,-247.5"/>
<text text-anchor="middle" x="240.5" y="-254.5" font-family="Helvetica,sans-Serif" font-size="10.00">CoolBoard::connect</text>
</a>
</g>
</g>
<!-- Node134&#45;&gt;Node184 -->
<g id="edge45" class="edge"><title>Node134&#45;&gt;Node184</title>
<path fill="none" stroke="midnightblue" d="M66.7357,-444.38C79.1175,-419.917 114.524,-354.213 158,-311 173.947,-295.149 195.213,-281.244 212.023,-271.514"/>
<polygon fill="midnightblue" stroke="midnightblue" points="213.842,-274.507 220.841,-266.553 210.41,-268.406 213.842,-274.507"/>
</g>
<!-- Node139 -->
<g id="node6" class="node"><title>Node139</title>
<g id="a_node6"><a xlink:href="../../d0/dd0/class_cool_m_q_t_t.html#a373cc92fca7760d886f02d8a6e5b3f63" target="_top" xlink:title="CoolMQTT::getUser">
<polygon fill="white" stroke="black" points="397.5,-886.5 397.5,-905.5 502.5,-905.5 502.5,-886.5 397.5,-886.5"/>
<text text-anchor="middle" x="450" y="-893.5" font-family="Helvetica,sans-Serif" font-size="10.00">CoolMQTT::getUser</text>
</a>
</g>
</g>
<!-- Node138&#45;&gt;Node139 -->
<g id="edge5" class="edge"><title>Node138&#45;&gt;Node139</title>
<path fill="none" stroke="midnightblue" d="M294.563,-816.713C304.53,-819.503 314.483,-823.442 323,-829 345.332,-843.573 336.516,-862.662 359,-877 367.584,-882.474 377.473,-886.4 387.487,-889.209"/>
<polygon fill="midnightblue" stroke="midnightblue" points="386.951,-892.681 397.497,-891.662 388.617,-885.882 386.951,-892.681"/>
</g>
<!-- Node140 -->
<g id="node7" class="node"><title>Node140</title>
<g id="a_node7"><a xlink:href="../../d6/d49/class_cool_time.html#ac4f32ee513c1328d984306645e8785a4" target="_top" xlink:title="CoolTime::getESDate">
<polygon fill="white" stroke="black" points="393.5,-848.5 393.5,-867.5 506.5,-867.5 506.5,-848.5 393.5,-848.5"/>
<text text-anchor="middle" x="450" y="-855.5" font-family="Helvetica,sans-Serif" font-size="10.00">CoolTime::getESDate</text>
</a>
</g>
</g>
<!-- Node138&#45;&gt;Node140 -->
<g id="edge6" class="edge"><title>Node138&#45;&gt;Node140</title>
<path fill="none" stroke="midnightblue" d="M282.992,-819.598C315.931,-827.218 362.155,-837.911 397.466,-846.079"/>
<polygon fill="midnightblue" stroke="midnightblue" points="397.048,-849.575 407.58,-848.418 398.626,-842.755 397.048,-849.575"/>
</g>
<!-- Node141 -->
<g id="node8" class="node"><title>Node141</title>
<g id="a_node8"><a xlink:href="../../d6/d49/class_cool_time.html#a7a7501c5ca77dd1248bea704c44f986c" target="_top" xlink:title="CoolTime::getTimeDate">
<polygon fill="white" stroke="black" points="597,-867.5 597,-886.5 718,-886.5 718,-867.5 597,-867.5"/>
<text text-anchor="middle" x="657.5" y="-874.5" font-family="Helvetica,sans-Serif" font-size="10.00">CoolTime::getTimeDate</text>
</a>
</g>
</g>
<!-- Node140&#45;&gt;Node141 -->
<g id="edge7" class="edge"><title>Node140&#45;&gt;Node141</title>
<path fill="none" stroke="midnightblue" d="M506.611,-863.142C531.271,-865.422 560.557,-868.129 586.67,-870.544"/>
<polygon fill="midnightblue" stroke="midnightblue" points="586.603,-874.052 596.883,-871.488 587.248,-867.082 586.603,-874.052"/>
</g>
<!-- Node142 -->
<g id="node9" class="node"><title>Node142</title>
<g id="a_node9"><a xlink:href="../../d6/d49/class_cool_time.html#acd537cd4210d7bde4e1f5c47d2ac0456" target="_top" xlink:title="CoolTime::formatDigits">
<polygon fill="white" stroke="black" points="810.5,-886.5 810.5,-905.5 928.5,-905.5 928.5,-886.5 810.5,-886.5"/>
<text text-anchor="middle" x="869.5" y="-893.5" font-family="Helvetica,sans-Serif" font-size="10.00">CoolTime::formatDigits</text>
</a>
</g>
</g>
<!-- Node140&#45;&gt;Node142 -->
<g id="edge9" class="edge"><title>Node140&#45;&gt;Node142</title>
<path fill="none" stroke="midnightblue" d="M506.889,-867.279C518.337,-869.879 530.187,-873.092 541,-877 558.014,-883.15 559.439,-891.65 577,-896 651.647,-914.49 740.384,-911.029 800.182,-905.162"/>
<polygon fill="midnightblue" stroke="midnightblue" points="800.673,-908.63 810.262,-904.123 799.956,-901.667 800.673,-908.63"/>
</g>
<!-- Node141&#45;&gt;Node142 -->
<g id="edge8" class="edge"><title>Node141&#45;&gt;Node142</title>
<path fill="none" stroke="midnightblue" d="M718.116,-882.394C743.594,-884.699 773.486,-887.404 799.879,-889.791"/>
<polygon fill="midnightblue" stroke="midnightblue" points="799.912,-893.309 810.186,-890.724 800.542,-886.337 799.912,-893.309"/>
</g>
<!-- Node143&#45;&gt;Node136 -->
<g id="edge11" class="edge"><title>Node143&#45;&gt;Node136</title>
<path fill="none" stroke="midnightblue" d="M251.984,-639.556C267.95,-654.294 299.031,-683.73 323,-711 340.371,-730.764 337.12,-743.385 359,-758 366.703,-763.145 375.464,-767.189 384.425,-770.367"/>
<polygon fill="midnightblue" stroke="midnightblue" points="383.596,-773.777 394.187,-773.488 385.727,-767.109 383.596,-773.777"/>
</g>
<!-- Node143&#45;&gt;Node141 -->
<g id="edge28" class="edge"><title>Node143&#45;&gt;Node141</title>
<path fill="none" stroke="midnightblue" d="M250.182,-639.578C268.348,-658.984 312.544,-702.966 359,-725 433.661,-760.411 478.184,-709.312 541,-763 575.324,-792.336 543.101,-828.174 577,-858 580.236,-860.847 583.824,-863.287 587.633,-865.374"/>
<polygon fill="midnightblue" stroke="midnightblue" points="586.319,-868.623 596.866,-869.635 589.252,-862.267 586.319,-868.623"/>
</g>
<!-- Node144 -->
<g id="node11" class="node"><title>Node144</title>
<g id="a_node11"><a xlink:href="../../de/dc0/class_cool_board_led.html#ad5f0de4c628cbfbf49896042831c64ad" target="_top" xlink:title="CoolBoardLed::strobe">
<polygon fill="white" stroke="black" points="394.5,-620.5 394.5,-639.5 505.5,-639.5 505.5,-620.5 394.5,-620.5"/>
<text text-anchor="middle" x="450" y="-627.5" font-family="Helvetica,sans-Serif" font-size="10.00">CoolBoardLed::strobe</text>
</a>
</g>
</g>
<!-- Node143&#45;&gt;Node144 -->
<g id="edge12" class="edge"><title>Node143&#45;&gt;Node144</title>
<path fill="none" stroke="midnightblue" d="M302.075,-630C327.843,-630 357.934,-630 384.151,-630"/>
<polygon fill="midnightblue" stroke="midnightblue" points="384.367,-633.5 394.367,-630 384.367,-626.5 384.367,-633.5"/>
</g>
<!-- Node145 -->
<g id="node12" class="node"><title>Node145</title>
<g id="a_node12"><a xlink:href="../../d7/df9/class_cool_board.html#a397b46fadab8f530a8cf4d914c561366" target="_top" xlink:title="CoolBoard::initReadI2C">
<polygon fill="white" stroke="black" points="390,-544.5 390,-563.5 510,-563.5 510,-544.5 390,-544.5"/>
<text text-anchor="middle" x="450" y="-551.5" font-family="Helvetica,sans-Serif" font-size="10.00">CoolBoard::initReadI2C</text>
</a>
</g>
</g>
<!-- Node143&#45;&gt;Node145 -->
<g id="edge13" class="edge"><title>Node143&#45;&gt;Node145</title>
<path fill="none" stroke="midnightblue" d="M258.072,-620.352C280.337,-607.769 321.462,-585.852 359,-573 366.819,-570.323 375.154,-567.952 383.478,-565.873"/>
<polygon fill="midnightblue" stroke="midnightblue" points="384.289,-569.277 393.212,-563.565 382.674,-562.466 384.289,-569.277"/>
</g>
<!-- Node146 -->
<g id="node13" class="node"><title>Node146</title>
<g id="a_node13"><a xlink:href="../../de/d46/class_cool_board_sensors.html#a91badb2539d91fda8679f2a597874c48" target="_top" xlink:title="CoolBoardSensors::read">
<polygon fill="white" stroke="black" points="388.5,-696.5 388.5,-715.5 511.5,-715.5 511.5,-696.5 388.5,-696.5"/>
<text text-anchor="middle" x="450" y="-703.5" font-family="Helvetica,sans-Serif" font-size="10.00">CoolBoardSensors::read</text>
</a>
</g>
</g>
<!-- Node143&#45;&gt;Node146 -->
<g id="edge14" class="edge"><title>Node143&#45;&gt;Node146</title>
<path fill="none" stroke="midnightblue" d="M258.072,-639.648C280.337,-652.231 321.462,-674.148 359,-687 366.819,-689.677 375.154,-692.048 383.478,-694.127"/>
<polygon fill="midnightblue" stroke="midnightblue" points="382.674,-697.534 393.212,-696.435 384.289,-690.723 382.674,-697.534"/>
</g>
<!-- Node157 -->
<g id="node22" class="node"><title>Node157</title>
<g id="a_node22"><a xlink:href="../../d1/d2f/class_external_sensors.html#a53177b81eca3be89508b5511ddcd00fc" target="_top" xlink:title="ExternalSensors::read">
<polygon fill="white" stroke="black" points="393.5,-658.5 393.5,-677.5 506.5,-677.5 506.5,-658.5 393.5,-658.5"/>
<text text-anchor="middle" x="450" y="-665.5" font-family="Helvetica,sans-Serif" font-size="10.00">ExternalSensors::read</text>
</a>
</g>
</g>
<!-- Node143&#45;&gt;Node157 -->
<g id="edge23" class="edge"><title>Node143&#45;&gt;Node157</title>
<path fill="none" stroke="midnightblue" d="M293.593,-639.54C321.96,-644.735 357.243,-651.196 387.017,-656.649"/>
<polygon fill="midnightblue" stroke="midnightblue" points="386.418,-660.097 396.885,-658.456 387.679,-653.212 386.418,-660.097"/>
</g>
<!-- Node158 -->
<g id="node23" class="node"><title>Node158</title>
<g id="a_node23"><a xlink:href="../../d6/d03/class_irene3000.html#a852a170feea994ea1df01c6b245b5d9a" target="_top" xlink:title="Irene3000::read">
<polygon fill="white" stroke="black" points="408,-582.5 408,-601.5 492,-601.5 492,-582.5 408,-582.5"/>
<text text-anchor="middle" x="450" y="-589.5" font-family="Helvetica,sans-Serif" font-size="10.00">Irene3000::read</text>
</a>
</g>
</g>
<!-- Node143&#45;&gt;Node158 -->
<g id="edge24" class="edge"><title>Node143&#45;&gt;Node158</title>
<path fill="none" stroke="midnightblue" d="M293.593,-620.46C325.441,-614.628 366.008,-607.199 397.708,-601.393"/>
<polygon fill="midnightblue" stroke="midnightblue" points="398.46,-604.814 407.666,-599.57 397.199,-597.928 398.46,-604.814"/>
</g>
<!-- Node143&#45;&gt;Node169 -->
<g id="edge29" class="edge"><title>Node143&#45;&gt;Node169</title>
<path fill="none" stroke="midnightblue" d="M250.186,-620.43C268.359,-601.04 312.569,-557.085 359,-535 365.643,-531.84 372.809,-529.203 380.095,-527.001"/>
<polygon fill="midnightblue" stroke="midnightblue" points="381.351,-530.286 390.067,-524.262 379.497,-523.536 381.351,-530.286"/>
</g>
<!-- Node147 -->
<g id="node14" class="node"><title>Node147</title>
<g id="a_node14"><a xlink:href="../../dd/d67/class_cool_s_i114_x.html#a42e0e574256341443c647a4c0eda87d5" target="_top" xlink:title="CoolSI114X::ReadVisible">
<polygon fill="white" stroke="red" points="593.5,-601.5 593.5,-620.5 721.5,-620.5 721.5,-601.5 593.5,-601.5"/>
<text text-anchor="middle" x="657.5" y="-608.5" font-family="Helvetica,sans-Serif" font-size="10.00">CoolSI114X::ReadVisible</text>
</a>
</g>
</g>
<!-- Node146&#45;&gt;Node147 -->
<g id="edge15" class="edge"><title>Node146&#45;&gt;Node147</title>
<path fill="none" stroke="midnightblue" d="M511.84,-700.083C522.175,-697.197 532.348,-693.019 541,-687 565.597,-669.89 552.632,-647.435 577,-630 579.712,-628.06 582.596,-626.315 585.598,-624.747"/>
<polygon fill="midnightblue" stroke="midnightblue" points="587.223,-627.854 594.901,-620.554 584.346,-621.472 587.223,-627.854"/>
</g>
<!-- Node149 -->
<g id="node15" class="node"><title>Node149</title>
<g id="a_node15"><a xlink:href="../../dd/d67/class_cool_s_i114_x.html#abc536ee7ae8e3ba9d1069acc3889a2cf" target="_top" xlink:title="CoolSI114X::ReadIR">
<polygon fill="white" stroke="red" points="603,-563.5 603,-582.5 712,-582.5 712,-563.5 603,-563.5"/>
<text text-anchor="middle" x="657.5" y="-570.5" font-family="Helvetica,sans-Serif" font-size="10.00">CoolSI114X::ReadIR</text>
</a>
</g>
</g>
<!-- Node146&#45;&gt;Node149 -->
<g id="edge16" class="edge"><title>Node146&#45;&gt;Node149</title>
<path fill="none" stroke="midnightblue" d="M511.514,-701.872C522.236,-698.853 532.632,-694.168 541,-687 575.291,-657.626 543.101,-621.826 577,-592 581.824,-587.755 587.429,-584.418 593.388,-581.799"/>
<polygon fill="midnightblue" stroke="midnightblue" points="594.817,-585.002 602.98,-578.249 592.387,-578.438 594.817,-585.002"/>
</g>
<!-- Node150 -->
<g id="node16" class="node"><title>Node150</title>
<g id="a_node16"><a xlink:href="../../dd/d67/class_cool_s_i114_x.html#a14ced664d74e93438440b0274109c111" target="_top" xlink:title="CoolSI114X::ReadUV">
<polygon fill="white" stroke="red" points="601,-829.5 601,-848.5 714,-848.5 714,-829.5 601,-829.5"/>
<text text-anchor="middle" x="657.5" y="-836.5" font-family="Helvetica,sans-Serif" font-size="10.00">CoolSI114X::ReadUV</text>
</a>
</g>
</g>
<!-- Node146&#45;&gt;Node150 -->
<g id="edge17" class="edge"><title>Node146&#45;&gt;Node150</title>
<path fill="none" stroke="midnightblue" d="M511.546,-713.859C522.265,-717.441 532.652,-722.597 541,-730 573.234,-758.583 544.397,-791.838 577,-820 581.229,-823.653 586.037,-826.631 591.147,-829.056"/>
<polygon fill="midnightblue" stroke="midnightblue" points="590.026,-832.378 600.611,-832.851 592.631,-825.88 590.026,-832.378"/>
</g>
<!-- Node151 -->
<g id="node17" class="node"><title>Node151</title>
<g id="a_node17"><a xlink:href="../../df/dcf/class_b_m_e280.html#ada6e799917afb4f228e6253bc56ffe75" target="_top" xlink:title="BME280::readFloatPressure">
<polygon fill="white" stroke="red" points="587.5,-791.5 587.5,-810.5 727.5,-810.5 727.5,-791.5 587.5,-791.5"/>
<text text-anchor="middle" x="657.5" y="-798.5" font-family="Helvetica,sans-Serif" font-size="10.00">BME280::readFloatPressure</text>
</a>
</g>
</g>
<!-- Node146&#45;&gt;Node151 -->
<g id="edge18" class="edge"><title>Node146&#45;&gt;Node151</title>
<path fill="none" stroke="midnightblue" d="M510.771,-715.585C521.439,-719.016 532.005,-723.674 541,-730 563.992,-746.17 553.799,-766.13 577,-782 579.899,-783.983 582.98,-785.76 586.182,-787.353"/>
<polygon fill="midnightblue" stroke="midnightblue" points="584.903,-790.613 595.471,-791.37 587.682,-784.188 584.903,-790.613"/>
</g>
<!-- Node153 -->
<g id="node18" class="node"><title>Node153</title>
<g id="a_node18"><a xlink:href="../../df/dcf/class_b_m_e280.html#a42ea7232039eebf5aadb391ef6132c35" target="_top" xlink:title="BME280::readFloatHumidity">
<polygon fill="white" stroke="red" points="587.5,-753.5 587.5,-772.5 727.5,-772.5 727.5,-753.5 587.5,-753.5"/>
<text text-anchor="middle" x="657.5" y="-760.5" font-family="Helvetica,sans-Serif" font-size="10.00">BME280::readFloatHumidity</text>
</a>
</g>
</g>
<!-- Node146&#45;&gt;Node153 -->
<g id="edge19" class="edge"><title>Node146&#45;&gt;Node153</title>
<path fill="none" stroke="midnightblue" d="M490.705,-715.581C506.475,-719.648 524.706,-724.677 541,-730 557.319,-735.331 560.613,-738.882 577,-744 584.983,-746.494 593.505,-748.846 601.893,-750.99"/>
<polygon fill="midnightblue" stroke="midnightblue" points="601.09,-754.397 611.639,-753.408 602.775,-747.603 601.09,-754.397"/>
</g>
<!-- Node154 -->
<g id="node19" class="node"><title>Node154</title>
<g id="a_node19"><a xlink:href="../../df/dcf/class_b_m_e280.html#afffdd1d7ded9e1f92200e70669019d97" target="_top" xlink:title="BME280::readTempC">
<polygon fill="white" stroke="red" points="602,-715.5 602,-734.5 713,-734.5 713,-715.5 602,-715.5"/>
<text text-anchor="middle" x="657.5" y="-722.5" font-family="Helvetica,sans-Serif" font-size="10.00">BME280::readTempC</text>
</a>
</g>
</g>
<!-- Node146&#45;&gt;Node154 -->
<g id="edge20" class="edge"><title>Node146&#45;&gt;Node154</title>
<path fill="none" stroke="midnightblue" d="M511.545,-711.598C536.839,-713.936 566.262,-716.657 591.965,-719.033"/>
<polygon fill="midnightblue" stroke="midnightblue" points="591.706,-722.524 601.986,-719.96 592.351,-715.554 591.706,-722.524"/>
</g>
<!-- Node155 -->
<g id="node20" class="node"><title>Node155</title>
<g id="a_node20"><a xlink:href="../../de/d46/class_cool_board_sensors.html#a6944b6ea7bce8e2fce1b434acfd9d5f3" target="_top" xlink:title="CoolBoardSensors::readVBat">
<polygon fill="white" stroke="black" points="585,-677.5 585,-696.5 730,-696.5 730,-677.5 585,-677.5"/>
<text text-anchor="middle" x="657.5" y="-684.5" font-family="Helvetica,sans-Serif" font-size="10.00">CoolBoardSensors::readVBat</text>
</a>
</g>
</g>
<!-- Node146&#45;&gt;Node155 -->
<g id="edge21" class="edge"><title>Node146&#45;&gt;Node155</title>
<path fill="none" stroke="midnightblue" d="M511.545,-700.402C531.284,-698.577 553.537,-696.52 574.575,-694.575"/>
<polygon fill="midnightblue" stroke="midnightblue" points="575.153,-698.036 584.788,-693.63 574.509,-691.066 575.153,-698.036"/>
</g>
<!-- Node156 -->
<g id="node21" class="node"><title>Node156</title>
<g id="a_node21"><a xlink:href="../../de/d46/class_cool_board_sensors.html#a8761bff50373c485f4465c8db47d0633" target="_top" xlink:title="CoolBoardSensors::readMoisture">
<polygon fill="white" stroke="black" points="577,-639.5 577,-658.5 738,-658.5 738,-639.5 577,-639.5"/>
<text text-anchor="middle" x="657.5" y="-646.5" font-family="Helvetica,sans-Serif" font-size="10.00">CoolBoardSensors::readMoisture</text>
</a>
</g>
</g>
<!-- Node146&#45;&gt;Node156 -->
<g id="edge22" class="edge"><title>Node146&#45;&gt;Node156</title>
<path fill="none" stroke="midnightblue" d="M508.322,-696.393C519.322,-693.852 530.637,-690.746 541,-687 558.014,-680.85 560.069,-674.375 577,-668 583.756,-665.456 590.967,-663.173 598.185,-661.147"/>
<polygon fill="midnightblue" stroke="midnightblue" points="599.222,-664.493 607.99,-658.544 597.426,-657.727 599.222,-664.493"/>
</g>
<!-- Node159 -->
<g id="node24" class="node"><title>Node159</title>
<g id="a_node24"><a xlink:href="../../d6/d03/class_irene3000.html#a80bc6dfea106dc3bc54fa20204d4d5dc" target="_top" xlink:title="Irene3000::readTemp">
<polygon fill="white" stroke="red" points="603,-449.5 603,-468.5 712,-468.5 712,-449.5 603,-449.5"/>
<text text-anchor="middle" x="657.5" y="-456.5" font-family="Helvetica,sans-Serif" font-size="10.00">Irene3000::readTemp</text>
</a>
</g>
</g>
<!-- Node158&#45;&gt;Node159 -->
<g id="edge25" class="edge"><title>Node158&#45;&gt;Node159</title>
<path fill="none" stroke="midnightblue" d="M492.412,-591.66C509.166,-589.543 527.659,-584.428 541,-573 575.291,-543.626 543.101,-507.826 577,-478 581.824,-473.755 587.429,-470.418 593.388,-467.799"/>
<polygon fill="midnightblue" stroke="midnightblue" points="594.817,-471.002 602.98,-464.249 592.387,-464.438 594.817,-471.002"/>
</g>
<!-- Node167 -->
<g id="node25" class="node"><title>Node167</title>
<g id="a_node25"><a xlink:href="../../d6/d03/class_irene3000.html#a436fc0a06681cd0784aba56b9707f19a" target="_top" xlink:title="Irene3000::readPh">
<polygon fill="white" stroke="red" points="609.5,-525.5 609.5,-544.5 705.5,-544.5 705.5,-525.5 609.5,-525.5"/>
<text text-anchor="middle" x="657.5" y="-532.5" font-family="Helvetica,sans-Serif" font-size="10.00">Irene3000::readPh</text>
</a>
</g>
</g>
<!-- Node158&#45;&gt;Node167 -->
<g id="edge26" class="edge"><title>Node158&#45;&gt;Node167</title>
<path fill="none" stroke="midnightblue" d="M492.44,-585.744C507.94,-582.759 525.531,-578.591 541,-573 558.014,-566.85 560.069,-560.375 577,-554 584.11,-551.323 591.724,-548.934 599.319,-546.831"/>
<polygon fill="midnightblue" stroke="midnightblue" points="600.462,-550.15 609.249,-544.23 598.689,-543.378 600.462,-550.15"/>
</g>
<!-- Node168 -->
<g id="node26" class="node"><title>Node168</title>
<g id="a_node26"><a xlink:href="../../d6/d03/class_irene3000.html#ae73bd2ed14a199a7e83f4d6458476a7c" target="_top" xlink:title="Irene3000::readADSChannel2">
<polygon fill="white" stroke="red" points="584.5,-487.5 584.5,-506.5 730.5,-506.5 730.5,-487.5 584.5,-487.5"/>
<text text-anchor="middle" x="657.5" y="-494.5" font-family="Helvetica,sans-Serif" font-size="10.00">Irene3000::readADSChannel2</text>
</a>
</g>
</g>
<!-- Node158&#45;&gt;Node168 -->
<g id="edge27" class="edge"><title>Node158&#45;&gt;Node168</title>
<path fill="none" stroke="midnightblue" d="M492.265,-590.167C508.611,-587.769 526.842,-582.849 541,-573 565.597,-555.89 552.632,-533.435 577,-516 579.712,-514.06 582.596,-512.315 585.598,-510.747"/>
<polygon fill="midnightblue" stroke="midnightblue" points="587.223,-513.854 594.901,-506.554 584.346,-507.472 587.223,-513.854"/>
</g>
<!-- Node171 -->
<g id="node29" class="node"><title>Node171</title>
<g id="a_node29"><a xlink:href="../../df/d1d/class_jetpack.html#a338f1af8cbc6504ac69b47c7328569b5" target="_top" xlink:title="Jetpack::write">
<polygon fill="white" stroke="black" points="411,-468.5 411,-487.5 489,-487.5 489,-468.5 411,-468.5"/>
<text text-anchor="middle" x="450" y="-475.5" font-family="Helvetica,sans-Serif" font-size="10.00">Jetpack::write</text>
</a>
</g>
</g>
<!-- Node170&#45;&gt;Node171 -->
<g id="edge32" class="edge"><title>Node170&#45;&gt;Node171</title>
<path fill="none" stroke="midnightblue" d="M288.067,-475.673C321.636,-476.159 366.819,-476.812 400.764,-477.303"/>
<polygon fill="midnightblue" stroke="midnightblue" points="400.863,-480.804 410.913,-477.449 400.965,-473.805 400.863,-480.804"/>
</g>
<!-- Node173 -->
<g id="node31" class="node"><title>Node173</title>
<g id="a_node31"><a xlink:href="../../db/d0c/class_cool_file_system.html#ab78704d5d21ce10fc6f1138ab5ab46c8" target="_top" xlink:title="CoolFileSystem::saveSensor\lDataCSV">
<polygon fill="white" stroke="black" points="378,-419 378,-449 522,-449 522,-419 378,-419"/>
<text text-anchor="start" x="386" y="-437" font-family="Helvetica,sans-Serif" font-size="10.00">CoolFileSystem::saveSensor</text>
<text text-anchor="middle" x="450" y="-426" font-family="Helvetica,sans-Serif" font-size="10.00">DataCSV</text>
</a>
</g>
</g>
<!-- Node172&#45;&gt;Node173 -->
<g id="edge34" class="edge"><title>Node172&#45;&gt;Node173</title>
<path fill="none" stroke="midnightblue" d="M323.212,-434C337.863,-434 353.129,-434 367.767,-434"/>
<polygon fill="midnightblue" stroke="midnightblue" points="367.785,-437.5 377.785,-434 367.785,-430.5 367.785,-437.5"/>
</g>
<!-- Node174 -->
<g id="node32" class="node"><title>Node174</title>
<g id="a_node32"><a xlink:href="../../db/d0c/class_cool_file_system.html#aae045125288f255f3e258073dcada2a6" target="_top" xlink:title="CoolFileSystem::incrementsavedData">
<polygon fill="white" stroke="black" points="359,-380.5 359,-399.5 541,-399.5 541,-380.5 359,-380.5"/>
<text text-anchor="middle" x="450" y="-387.5" font-family="Helvetica,sans-Serif" font-size="10.00">CoolFileSystem::incrementsavedData</text>
</a>
</g>
</g>
<!-- Node172&#45;&gt;Node174 -->
<g id="edge35" class="edge"><title>Node172&#45;&gt;Node174</title>
<path fill="none" stroke="midnightblue" d="M286.133,-424.486C308.079,-419.813 334.925,-414.102 359,-409 370.237,-406.618 382.265,-404.075 393.752,-401.649"/>
<polygon fill="midnightblue" stroke="midnightblue" points="394.612,-405.045 403.673,-399.554 393.166,-398.196 394.612,-405.045"/>
</g>
<!-- Node177 -->
<g id="node35" class="node"><title>Node177</title>
<g id="a_node35"><a xlink:href="../../d8/d4b/class_cool_pub_sub_client.html#a3245a5afc6d22e61270dcfe392ccb866" target="_top" xlink:title="CoolPubSubClient::state">
<polygon fill="white" stroke="black" points="807,-171.5 807,-190.5 932,-190.5 932,-171.5 807,-171.5"/>
<text text-anchor="middle" x="869.5" y="-178.5" font-family="Helvetica,sans-Serif" font-size="10.00">CoolPubSubClient::state</text>
</a>
</g>
</g>
<!-- Node176&#45;&gt;Node177 -->
<g id="edge38" class="edge"><title>Node176&#45;&gt;Node177</title>
<path fill="none" stroke="midnightblue" d="M703.55,-181C730.62,-181 765.683,-181 796.518,-181"/>
<polygon fill="midnightblue" stroke="midnightblue" points="796.795,-184.5 806.795,-181 796.795,-177.5 796.795,-184.5"/>
</g>
<!-- Node179 -->
<g id="node37" class="node"><title>Node179</title>
<g id="a_node37"><a xlink:href="../../d4/dc8/class_wi_fi_manager.html#a4dd1dbf4f22900f226a3897b88155212" target="_top" xlink:title="WiFiManager::setRemoveDuplicateAPs">
<polygon fill="white" stroke="black" points="774,-114.5 774,-133.5 965,-133.5 965,-114.5 774,-114.5"/>
<text text-anchor="middle" x="869.5" y="-121.5" font-family="Helvetica,sans-Serif" font-size="10.00">WiFiManager::setRemoveDuplicateAPs</text>
</a>
</g>
</g>
<!-- Node178&#45;&gt;Node179 -->
<g id="edge40" class="edge"><title>Node178&#45;&gt;Node179</title>
<path fill="none" stroke="midnightblue" d="M711.886,-56.2467C720.954,-58.8942 730.011,-62.3887 738,-67 758.149,-78.6304 753.644,-93.736 774,-105 778.173,-107.309 782.588,-109.34 787.14,-111.125"/>
<polygon fill="midnightblue" stroke="midnightblue" points="786.045,-114.45 796.64,-114.456 788.361,-107.844 786.045,-114.45"/>
</g>
<!-- Node180 -->
<g id="node38" class="node"><title>Node180</title>
<g id="a_node38"><a xlink:href="../../d4/dc8/class_wi_fi_manager.html#aa6493d59c284ff245edb767ff684756d" target="_top" xlink:title="WiFiManager::setTimeout">
<polygon fill="white" stroke="black" points="805,-76.5 805,-95.5 934,-95.5 934,-76.5 805,-76.5"/>
<text text-anchor="middle" x="869.5" y="-83.5" font-family="Helvetica,sans-Serif" font-size="10.00">WiFiManager::setTimeout</text>
</a>
</g>
</g>
<!-- Node178&#45;&gt;Node180 -->
<g id="edge41" class="edge"><title>Node178&#45;&gt;Node180</title>
<path fill="none" stroke="midnightblue" d="M711.221,-57.54C739.929,-62.7348 775.637,-69.1963 805.77,-74.6489"/>
<polygon fill="midnightblue" stroke="midnightblue" points="805.294,-78.1195 815.758,-76.4561 806.541,-71.2314 805.294,-78.1195"/>
</g>
<!-- Node182 -->
<g id="node40" class="node"><title>Node182</title>
<g id="a_node40"><a xlink:href="../../d4/dc8/class_wi_fi_manager.html#ae3cdfa6b02edcfe63d7da4f696b62136" target="_top" xlink:title="WiFiManager::autoConnect">
<polygon fill="white" stroke="black" points="801.5,-38.5 801.5,-57.5 937.5,-57.5 937.5,-38.5 801.5,-38.5"/>
<text text-anchor="middle" x="869.5" y="-45.5" font-family="Helvetica,sans-Serif" font-size="10.00">WiFiManager::autoConnect</text>
</a>
</g>
</g>
<!-- Node178&#45;&gt;Node182 -->
<g id="edge43" class="edge"><title>Node178&#45;&gt;Node182</title>
<path fill="none" stroke="midnightblue" d="M711.763,-48C735.793,-48 764.641,-48 791.002,-48"/>
<polygon fill="midnightblue" stroke="midnightblue" points="791.351,-51.5001 801.351,-48 791.351,-44.5001 791.351,-51.5001"/>
</g>
<!-- Node183 -->
<g id="node41" class="node"><title>Node183</title>
<g id="a_node41"><a xlink:href="../../d7/d29/class_cool_wifi.html#a914d7a1df14dd6b75345fb614c34e9d6" target="_top" xlink:title="CoolWifi::addWifi">
<polygon fill="white" stroke="black" points="823,-0.5 823,-19.5 916,-19.5 916,-0.5 823,-0.5"/>
<text text-anchor="middle" x="869.5" y="-7.5" font-family="Helvetica,sans-Serif" font-size="10.00">CoolWifi::addWifi</text>
</a>
</g>
</g>
<!-- Node178&#45;&gt;Node183 -->
<g id="edge44" class="edge"><title>Node178&#45;&gt;Node183</title>
<path fill="none" stroke="midnightblue" d="M711.221,-38.46C742.246,-32.8459 781.448,-25.7522 812.952,-20.0515"/>
<polygon fill="midnightblue" stroke="midnightblue" points="813.673,-23.478 822.89,-18.2532 812.427,-16.5898 813.673,-23.478"/>
</g>
<!-- Node181 -->
<g id="node39" class="node"><title>Node181</title>
<g id="a_node39"><a xlink:href="../../d4/dc8/class_wi_fi_manager.html#a904006cb4d2c769e93bfdef336853766" target="_top" xlink:title="WiFiManager::setConfigPortal\lTimeout">
<polygon fill="white" stroke="black" points="1001,-71 1001,-101 1149,-101 1149,-71 1001,-71"/>
<text text-anchor="start" x="1009" y="-89" font-family="Helvetica,sans-Serif" font-size="10.00">WiFiManager::setConfigPortal</text>
<text text-anchor="middle" x="1075" y="-78" font-family="Helvetica,sans-Serif" font-size="10.00">Timeout</text>
</a>
</g>
</g>
<!-- Node180&#45;&gt;Node181 -->
<g id="edge42" class="edge"><title>Node180&#45;&gt;Node181</title>
<path fill="none" stroke="midnightblue" d="M934.052,-86C952.043,-86 971.898,-86 990.861,-86"/>
<polygon fill="midnightblue" stroke="midnightblue" points="990.982,-89.5001 1000.98,-86 990.982,-82.5001 990.982,-89.5001"/>
</g>
<!-- Node184&#45;&gt;Node137 -->
<g id="edge58" class="edge"><title>Node184&#45;&gt;Node137</title>
<path fill="none" stroke="midnightblue" d="M253.029,-266.553C273.199,-282.763 316.775,-315.589 359,-333 368.08,-336.744 377.991,-339.785 387.81,-342.246"/>
<polygon fill="midnightblue" stroke="midnightblue" points="387.031,-345.658 397.565,-344.518 388.619,-338.841 387.031,-345.658"/>
</g>
<!-- Node184&#45;&gt;Node175 -->
<g id="edge50" class="edge"><title>Node184&#45;&gt;Node175</title>
<path fill="none" stroke="midnightblue" d="M268.329,-266.564C291.992,-274.786 327.511,-286.609 359,-295 371.911,-298.441 385.997,-301.662 399.11,-304.439"/>
<polygon fill="midnightblue" stroke="midnightblue" points="398.41,-307.869 408.913,-306.473 399.833,-301.015 398.41,-307.869"/>
</g>
<!-- Node184&#45;&gt;Node176 -->
<g id="edge57" class="edge"><title>Node184&#45;&gt;Node176</title>
<path fill="none" stroke="midnightblue" d="M266.339,-247.475C289.868,-238.811 326.36,-226.296 359,-219 442.462,-200.344 541.291,-189.984 601.411,-184.955"/>
<polygon fill="midnightblue" stroke="midnightblue" points="601.764,-188.438 611.446,-184.135 601.194,-181.462 601.764,-188.438"/>
</g>
<!-- Node185 -->
<g id="node43" class="node"><title>Node185</title>
<g id="a_node43"><a xlink:href="../../de/dc0/class_cool_board_led.html#a30fadd4cbec17ceea428bf7a32207e87" target="_top" xlink:title="CoolBoardLed::write">
<polygon fill="white" stroke="black" points="397.5,-266.5 397.5,-285.5 502.5,-285.5 502.5,-266.5 397.5,-266.5"/>
<text text-anchor="middle" x="450" y="-273.5" font-family="Helvetica,sans-Serif" font-size="10.00">CoolBoardLed::write</text>
</a>
</g>
</g>
<!-- Node184&#45;&gt;Node185 -->
<g id="edge46" class="edge"><title>Node184&#45;&gt;Node185</title>
<path fill="none" stroke="midnightblue" d="M292.26,-261.648C320.934,-264.273 356.989,-267.575 387.287,-270.349"/>
<polygon fill="midnightblue" stroke="midnightblue" points="387.045,-273.842 397.322,-271.268 387.683,-266.871 387.045,-273.842"/>
</g>
<!-- Node186 -->
<g id="node44" class="node"><title>Node186</title>
<g id="a_node44"><a xlink:href="../../d7/d29/class_cool_wifi.html#ad060353050f40d032a2dbf9e54a768bf" target="_top" xlink:title="CoolWifi::connect">
<polygon fill="white" stroke="black" points="402.5,-76.5 402.5,-95.5 497.5,-95.5 497.5,-76.5 402.5,-76.5"/>
<text text-anchor="middle" x="450" y="-83.5" font-family="Helvetica,sans-Serif" font-size="10.00">CoolWifi::connect</text>
</a>
</g>
</g>
<!-- Node184&#45;&gt;Node186 -->
<g id="edge47" class="edge"><title>Node184&#45;&gt;Node186</title>
<path fill="none" stroke="midnightblue" d="M250.055,-247.461C268.682,-226.979 314.799,-177.833 359,-143 379.38,-126.939 404.453,-111.363 422.954,-100.563"/>
<polygon fill="midnightblue" stroke="midnightblue" points="424.794,-103.542 431.714,-95.5194 421.302,-97.476 424.794,-103.542"/>
</g>
<!-- Node188 -->
<g id="node46" class="node"><title>Node188</title>
<g id="a_node46"><a xlink:href="../../d0/dd0/class_cool_m_q_t_t.html#a50075d0ab23a327ab897fd6adad20eda" target="_top" xlink:title="CoolMQTT::connect">
<polygon fill="white" stroke="black" points="397.5,-228.5 397.5,-247.5 502.5,-247.5 502.5,-228.5 397.5,-228.5"/>
<text text-anchor="middle" x="450" y="-235.5" font-family="Helvetica,sans-Serif" font-size="10.00">CoolMQTT::connect</text>
</a>
</g>
</g>
<!-- Node184&#45;&gt;Node188 -->
<g id="edge51" class="edge"><title>Node184&#45;&gt;Node188</title>
<path fill="none" stroke="midnightblue" d="M292.26,-252.352C320.934,-249.727 356.989,-246.425 387.287,-243.651"/>
<polygon fill="midnightblue" stroke="midnightblue" points="387.683,-247.129 397.322,-242.732 387.045,-240.158 387.683,-247.129"/>
</g>
<!-- Node192 -->
<g id="node50" class="node"><title>Node192</title>
<g id="a_node50"><a xlink:href="../../d7/df9/class_cool_board.html#a7508e029f2ee17bb747ffab599285e0d" target="_top" xlink:title="CoolBoard::getLogInterval">
<polygon fill="white" stroke="black" points="385,-152.5 385,-171.5 515,-171.5 515,-152.5 385,-152.5"/>
<text text-anchor="middle" x="450" y="-159.5" font-family="Helvetica,sans-Serif" font-size="10.00">CoolBoard::getLogInterval</text>
</a>
</g>
</g>
<!-- Node184&#45;&gt;Node192 -->
<g id="edge56" class="edge"><title>Node184&#45;&gt;Node192</title>
<path fill="none" stroke="midnightblue" d="M254.578,-247.383C275.598,-232.332 318.642,-203.162 359,-186 369.819,-181.399 381.752,-177.476 393.293,-174.216"/>
<polygon fill="midnightblue" stroke="midnightblue" points="394.551,-177.503 403.297,-171.523 392.731,-170.743 394.551,-177.503"/>
</g>
<!-- Node186&#45;&gt;Node178 -->
<g id="edge49" class="edge"><title>Node186&#45;&gt;Node178</title>
<path fill="none" stroke="midnightblue" d="M497.631,-77.3772C526.482,-72.0422 563.848,-65.1327 595.093,-59.355"/>
<polygon fill="midnightblue" stroke="midnightblue" points="595.807,-62.7824 605.004,-57.5223 594.534,-55.8991 595.807,-62.7824"/>
</g>
<!-- Node187 -->
<g id="node45" class="node"><title>Node187</title>
<g id="a_node45"><a xlink:href="../../d7/d29/class_cool_wifi.html#a419de92d738f14b7444cf822b3ab0070" target="_top" xlink:title="CoolWifi::connectWifiMulti">
<polygon fill="white" stroke="black" points="591,-76.5 591,-95.5 724,-95.5 724,-76.5 591,-76.5"/>
<text text-anchor="middle" x="657.5" y="-83.5" font-family="Helvetica,sans-Serif" font-size="10.00">CoolWifi::connectWifiMulti</text>
</a>
</g>
</g>
<!-- Node186&#45;&gt;Node187 -->
<g id="edge48" class="edge"><title>Node186&#45;&gt;Node187</title>
<path fill="none" stroke="midnightblue" d="M497.631,-86C522.205,-86 552.957,-86 580.842,-86"/>
<polygon fill="midnightblue" stroke="midnightblue" points="580.969,-89.5001 590.969,-86 580.969,-82.5001 580.969,-89.5001"/>
</g>
<!-- Node188&#45;&gt;Node176 -->
<g id="edge55" class="edge"><title>Node188&#45;&gt;Node176</title>
<path fill="none" stroke="midnightblue" d="M490.705,-228.419C506.475,-224.352 524.706,-219.323 541,-214 557.319,-208.669 560.613,-205.118 577,-200 584.983,-197.506 593.505,-195.154 601.893,-193.01"/>
<polygon fill="midnightblue" stroke="midnightblue" points="602.775,-196.397 611.639,-190.592 601.09,-189.603 602.775,-196.397"/>
</g>
<!-- Node189 -->
<g id="node47" class="node"><title>Node189</title>
<g id="a_node47"><a xlink:href="../../d8/d4b/class_cool_pub_sub_client.html#a3d5a5da4ddb1e5c1bea64d80c665d148" target="_top" xlink:title="CoolPubSubClient::connected">
<polygon fill="white" stroke="black" points="583.5,-285.5 583.5,-304.5 731.5,-304.5 731.5,-285.5 583.5,-285.5"/>
<text text-anchor="middle" x="657.5" y="-292.5" font-family="Helvetica,sans-Serif" font-size="10.00">CoolPubSubClient::connected</text>
</a>
</g>
</g>
<!-- Node188&#45;&gt;Node189 -->
<g id="edge52" class="edge"><title>Node188&#45;&gt;Node189</title>
<path fill="none" stroke="midnightblue" d="M502.617,-246.333C515.358,-249.086 528.835,-252.603 541,-257 558.014,-263.15 560.069,-269.625 577,-276 583.756,-278.544 590.967,-280.827 598.185,-282.853"/>
<polygon fill="midnightblue" stroke="midnightblue" points="597.426,-286.273 607.99,-285.456 599.222,-279.507 597.426,-286.273"/>
</g>
<!-- Node190 -->
<g id="node48" class="node"><title>Node190</title>
<g id="a_node48"><a xlink:href="../../d8/d4b/class_cool_pub_sub_client.html#a2664c2ebc302b2fa49f493a339ecc891" target="_top" xlink:title="CoolPubSubClient::connect">
<polygon fill="white" stroke="black" points="589,-247.5 589,-266.5 726,-266.5 726,-247.5 589,-247.5"/>
<text text-anchor="middle" x="657.5" y="-254.5" font-family="Helvetica,sans-Serif" font-size="10.00">CoolPubSubClient::connect</text>
</a>
</g>
</g>
<!-- Node188&#45;&gt;Node190 -->
<g id="edge53" class="edge"><title>Node188&#45;&gt;Node190</title>
<path fill="none" stroke="midnightblue" d="M502.591,-242.77C525.682,-244.905 553.401,-247.468 578.915,-249.827"/>
<polygon fill="midnightblue" stroke="midnightblue" points="578.663,-253.318 588.943,-250.754 579.307,-246.348 578.663,-253.318"/>
</g>
<!-- Node191 -->
<g id="node49" class="node"><title>Node191</title>
<g id="a_node49"><a xlink:href="../../d8/d4b/class_cool_pub_sub_client.html#ac1ebc9ad874128aefa985d78496d2e8f" target="_top" xlink:title="CoolPubSubClient::subscribe">
<polygon fill="white" stroke="black" points="585,-209.5 585,-228.5 730,-228.5 730,-209.5 585,-209.5"/>
<text text-anchor="middle" x="657.5" y="-216.5" font-family="Helvetica,sans-Serif" font-size="10.00">CoolPubSubClient::subscribe</text>
</a>
</g>
</g>
<!-- Node188&#45;&gt;Node191 -->
<g id="edge54" class="edge"><title>Node188&#45;&gt;Node191</title>
<path fill="none" stroke="midnightblue" d="M502.591,-233.23C524.334,-231.22 550.179,-228.83 574.423,-226.589"/>
<polygon fill="midnightblue" stroke="midnightblue" points="575.064,-230.044 584.699,-225.639 574.419,-223.074 575.064,-230.044"/>
</g>
</g>
</svg>
