<?xml version="1.0" encoding="UTF-8" standalone="no"?>
<!DOCTYPE svg PUBLIC "-//W3C//DTD SVG 1.1//EN"
 "http://www.w3.org/Graphics/SVG/1.1/DTD/svg11.dtd">
<!-- Generated by graphviz version 2.38.0 (20140413.2041)
 -->
<!-- Title: CoolBoard::begin Pages: 1 -->
<!--zoomable 1136 -->
<svg id="main" version="1.1" xmlns="http://www.w3.org/2000/svg" xmlns:xlink="http://www.w3.org/1999/xlink" xml:space="preserve" onload="init(evt)">
<style type="text/css"><![CDATA[
.edge:hover path { stroke: red; }
.edge:hover polygon { stroke: red; fill: red; }
]]></style>
<script type="text/javascript"><![CDATA[
var edges = document.getElementsByTagName('g');
if (edges && edges.length) {
  for (var i=0;i<edges.length;i++) {
    if (edges[i].id.substr(0,4)=='edge') {
      edges[i].setAttribute('class','edge');
    }
  }
}
]]></script>
        <defs>
                <circle id="rim" cx="0" cy="0" r="7"/>
                <circle id="rim2" cx="0" cy="0" r="3.5"/>
                <g id="zoomPlus">
                        <use xlink:href="#rim" fill="#404040">
                                <set attributeName="fill" to="#808080" begin="zoomplus.mouseover" end="zoomplus.mouseout"/>
                        </use>
                        <path d="M-4,0h8M0,-4v8" fill="none" stroke="white" stroke-width="1.5" pointer-events="none"/>
                </g>
                <g id="zoomMin">
                        <use xlink:href="#rim" fill="#404040">
                                <set attributeName="fill" to="#808080" begin="zoomminus.mouseover" end="zoomminus.mouseout"/>
                        </use>
                        <path d="M-4,0h8" fill="none" stroke="white" stroke-width="1.5" pointer-events="none"/>
                </g>
                <g id="dirArrow">
                        <path fill="none" stroke="white" stroke-width="1.5" d="M0,-3.0v7 M-2.5,-0.5L0,-3.0L2.5,-0.5"/>
                </g>
               <g id="resetDef">
                       <use xlink:href="#rim2" fill="#404040">
                               <set attributeName="fill" to="#808080" begin="reset.mouseover" end="reset.mouseout"/>
                       </use>
               </g>
        </defs>

<script type="text/javascript">
var viewWidth = 606;
var viewHeight = 1136;
var sectionId = 'dynsection-1';
</script>
<script xlink:href="../../svgpan.js"/>
<svg id="graph" class="graph">
<g id="viewport">
<title>CoolBoard::begin</title>
<polygon fill="white" stroke="none" points="-4,4 -4,-1132 602,-1132 602,4 -4,4"/>
<!-- Node2 -->
<g id="node1" class="node"><title>Node2</title>
<polygon fill="#bfbfbf" stroke="black" points="0,-494.5 0,-513.5 92,-513.5 92,-494.5 0,-494.5"/>
<text text-anchor="middle" x="46" y="-501.5" font-family="Helvetica,sans-Serif" font-size="10.00">CoolBoard::begin</text>
</g>
<!-- Node3 -->
<g id="node2" class="node"><title>Node3</title>
<g id="a_node2"><a xlink:href="../../de/dc0/class_cool_board_led.html#a30fadd4cbec17ceea428bf7a32207e87" target="_top" xlink:title="CoolBoardLed::write">
<polygon fill="white" stroke="black" points="336.5,-1108.5 336.5,-1127.5 441.5,-1127.5 441.5,-1108.5 336.5,-1108.5"/>
<text text-anchor="middle" x="389" y="-1115.5" font-family="Helvetica,sans-Serif" font-size="10.00">CoolBoardLed::write</text>
</a>
</g>
</g>
<!-- Node2&#45;&gt;Node3 -->
<g id="edge1" class="edge"><title>Node2&#45;&gt;Node3</title>
<path fill="none" stroke="midnightblue" d="M47.4147,-513.767C50.2394,-576.34 68.3623,-920.972 128,-1004 174.303,-1068.46 265.234,-1096.94 326.325,-1109.19"/>
<polygon fill="midnightblue" stroke="midnightblue" points="325.757,-1112.64 336.237,-1111.09 327.074,-1105.77 325.757,-1112.64"/>
</g>
<!-- Node4 -->
<g id="node3" class="node"><title>Node4</title>
<g id="a_node3"><a xlink:href="../../d7/df9/class_cool_board.html#a397b46fadab8f530a8cf4d914c561366" target="_top" xlink:title="CoolBoard::initReadI2C">
<polygon fill="white" stroke="black" points="140,-874.5 140,-893.5 260,-893.5 260,-874.5 140,-874.5"/>
<text text-anchor="middle" x="200" y="-881.5" font-family="Helvetica,sans-Serif" font-size="10.00">CoolBoard::initReadI2C</text>
</a>
</g>
</g>
<!-- Node2&#45;&gt;Node4 -->
<g id="edge2" class="edge"><title>Node2&#45;&gt;Node4</title>
<path fill="none" stroke="midnightblue" d="M47.8439,-513.77C52.5487,-566.02 77.1772,-812.062 128,-865 129.392,-866.45 130.881,-867.793 132.451,-869.037"/>
<polygon fill="midnightblue" stroke="midnightblue" points="130.585,-871.999 140.887,-874.471 134.375,-866.114 130.585,-871.999"/>
</g>
<!-- Node5 -->
<g id="node4" class="node"><title>Node5</title>
<g id="a_node4"><a xlink:href="../../de/d46/class_cool_board_sensors.html#a9a218895c5423375c33c08f2c56fb23a" target="_top" xlink:title="CoolBoardSensors::config">
<polygon fill="white" stroke="black" points="134.5,-836.5 134.5,-855.5 265.5,-855.5 265.5,-836.5 134.5,-836.5"/>
<text text-anchor="middle" x="200" y="-843.5" font-family="Helvetica,sans-Serif" font-size="10.00">CoolBoardSensors::config</text>
</a>
</g>
</g>
<!-- Node2&#45;&gt;Node5 -->
<g id="edge3" class="edge"><title>Node2&#45;&gt;Node5</title>
<path fill="none" stroke="midnightblue" d="M48.1107,-513.695C53.8832,-562.44 81.9688,-780.237 128,-827 129.41,-828.432 130.915,-829.76 132.498,-830.991"/>
<polygon fill="midnightblue" stroke="midnightblue" points="130.668,-833.975 140.988,-836.373 134.416,-828.063 130.668,-833.975"/>
</g>
<!-- Node6 -->
<g id="node5" class="node"><title>Node6</title>
<g id="a_node5"><a xlink:href="../../de/d46/class_cool_board_sensors.html#a97095823ef7c8f5290812f1405b966b3" target="_top" xlink:title="CoolBoardSensors::begin">
<polygon fill="white" stroke="black" points="136,-798.5 136,-817.5 264,-817.5 264,-798.5 136,-798.5"/>
<text text-anchor="middle" x="200" y="-805.5" font-family="Helvetica,sans-Serif" font-size="10.00">CoolBoardSensors::begin</text>
</a>
</g>
</g>
<!-- Node2&#45;&gt;Node6 -->
<g id="edge4" class="edge"><title>Node2&#45;&gt;Node6</title>
<path fill="none" stroke="midnightblue" d="M46.601,-513.506C45.4735,-553.394 46.6321,-708.878 128,-789 129.466,-790.444 131.029,-791.781 132.671,-793.019"/>
<polygon fill="midnightblue" stroke="midnightblue" points="131.105,-796.165 141.456,-798.423 134.773,-790.203 131.105,-796.165"/>
</g>
<!-- Node17 -->
<g id="node9" class="node"><title>Node17</title>
<g id="a_node9"><a xlink:href="../../d7/d29/class_cool_wifi.html#a4eb2f6b9b09dd588964b88b6c70122c0" target="_top" xlink:title="CoolWifi::config">
<polygon fill="white" stroke="black" points="157,-760.5 157,-779.5 243,-779.5 243,-760.5 157,-760.5"/>
<text text-anchor="middle" x="200" y="-767.5" font-family="Helvetica,sans-Serif" font-size="10.00">CoolWifi::config</text>
</a>
</g>
</g>
<!-- Node2&#45;&gt;Node17 -->
<g id="edge8" class="edge"><title>Node2&#45;&gt;Node17</title>
<path fill="none" stroke="midnightblue" d="M47.0878,-513.731C47.9691,-550.605 56.2061,-683.078 128,-751 133.417,-756.125 140.06,-759.9 147.088,-762.674"/>
<polygon fill="midnightblue" stroke="midnightblue" points="146.238,-766.079 156.83,-765.87 148.42,-759.428 146.238,-766.079"/>
</g>
<!-- Node18 -->
<g id="node10" class="node"><title>Node18</title>
<g id="a_node10"><a xlink:href="../../d7/d29/class_cool_wifi.html#a46942fed90e475112cc10b78a32e7aaa" target="_top" xlink:title="CoolWifi::begin">
<polygon fill="white" stroke="black" points="158.5,-722.5 158.5,-741.5 241.5,-741.5 241.5,-722.5 158.5,-722.5"/>
<text text-anchor="middle" x="200" y="-729.5" font-family="Helvetica,sans-Serif" font-size="10.00">CoolWifi::begin</text>
</a>
</g>
</g>
<!-- Node2&#45;&gt;Node18 -->
<g id="edge9" class="edge"><title>Node2&#45;&gt;Node18</title>
<path fill="none" stroke="midnightblue" d="M47.7323,-513.602C50.7835,-546.668 65.4354,-656.867 128,-713 133.877,-718.273 141.06,-722.106 148.576,-724.889"/>
<polygon fill="midnightblue" stroke="midnightblue" points="147.611,-728.254 158.2,-727.88 149.689,-721.57 147.611,-728.254"/>
</g>
<!-- Node19 -->
<g id="node11" class="node"><title>Node19</title>
<g id="a_node11"><a xlink:href="../../d0/dd0/class_cool_m_q_t_t.html#a9b703de4f1358f0ee7a5e8c44979c648" target="_top" xlink:title="CoolMQTT::config">
<polygon fill="white" stroke="black" points="151.5,-684.5 151.5,-703.5 248.5,-703.5 248.5,-684.5 151.5,-684.5"/>
<text text-anchor="middle" x="200" y="-691.5" font-family="Helvetica,sans-Serif" font-size="10.00">CoolMQTT::config</text>
</a>
</g>
</g>
<!-- Node2&#45;&gt;Node19 -->
<g id="edge10" class="edge"><title>Node2&#45;&gt;Node19</title>
<path fill="none" stroke="midnightblue" d="M48.6935,-513.879C54.2572,-543.23 74.7618,-630.616 128,-675 132.061,-678.386 136.668,-681.173 141.537,-683.468"/>
<polygon fill="midnightblue" stroke="midnightblue" points="140.565,-686.848 151.15,-687.299 143.157,-680.345 140.565,-686.848"/>
</g>
<!-- Node20 -->
<g id="node12" class="node"><title>Node20</title>
<g id="a_node12"><a xlink:href="../../d0/dd0/class_cool_m_q_t_t.html#ac9248808641ebf3054ed0620ea9d0100" target="_top" xlink:title="CoolMQTT::begin">
<polygon fill="white" stroke="black" points="153,-646.5 153,-665.5 247,-665.5 247,-646.5 153,-646.5"/>
<text text-anchor="middle" x="200" y="-653.5" font-family="Helvetica,sans-Serif" font-size="10.00">CoolMQTT::begin</text>
</a>
</g>
</g>
<!-- Node2&#45;&gt;Node20 -->
<g id="edge11" class="edge"><title>Node2&#45;&gt;Node20</title>
<path fill="none" stroke="midnightblue" d="M50.0808,-513.778C58.3811,-538.48 83.6327,-603.785 128,-637 132.533,-640.393 137.628,-643.181 142.953,-645.472"/>
<polygon fill="midnightblue" stroke="midnightblue" points="142.124,-648.896 152.717,-649.08 144.55,-642.33 142.124,-648.896"/>
</g>
<!-- Node26 -->
<g id="node18" class="node"><title>Node26</title>
<g id="a_node18"><a xlink:href="../../de/dc0/class_cool_board_led.html#a8ed3053a36f0ed4a131f43b5b17efb61" target="_top" xlink:title="CoolBoardLed::printConf">
<polygon fill="white" stroke="black" points="138,-608.5 138,-627.5 262,-627.5 262,-608.5 138,-608.5"/>
<text text-anchor="middle" x="200" y="-615.5" font-family="Helvetica,sans-Serif" font-size="10.00">CoolBoardLed::printConf</text>
</a>
</g>
</g>
<!-- Node2&#45;&gt;Node26 -->
<g id="edge17" class="edge"><title>Node2&#45;&gt;Node26</title>
<path fill="none" stroke="midnightblue" d="M52.5178,-513.768C63.9708,-533.127 92.2613,-576.438 128,-599 131.363,-601.123 134.96,-603.011 138.684,-604.69"/>
<polygon fill="midnightblue" stroke="midnightblue" points="137.555,-608.007 148.141,-608.445 140.139,-601.501 137.555,-608.007"/>
</g>
<!-- Node27 -->
<g id="node19" class="node"><title>Node27</title>
<g id="a_node19"><a xlink:href="../../de/d46/class_cool_board_sensors.html#af6fd79505815b204c178617ecf54c873" target="_top" xlink:title="CoolBoardSensors::printConf">
<polygon fill="white" stroke="black" points="128,-570.5 128,-589.5 272,-589.5 272,-570.5 128,-570.5"/>
<text text-anchor="middle" x="200" y="-577.5" font-family="Helvetica,sans-Serif" font-size="10.00">CoolBoardSensors::printConf</text>
</a>
</g>
</g>
<!-- Node2&#45;&gt;Node27 -->
<g id="edge18" class="edge"><title>Node2&#45;&gt;Node27</title>
<path fill="none" stroke="midnightblue" d="M58.0087,-513.68C72.8984,-526.299 100.74,-548.255 128,-561 133.057,-563.364 138.459,-565.476 143.941,-567.351"/>
<polygon fill="midnightblue" stroke="midnightblue" points="143.247,-570.802 153.837,-570.476 145.355,-564.127 143.247,-570.802"/>
</g>
<!-- Node28 -->
<g id="node20" class="node"><title>Node28</title>
<g id="a_node20"><a xlink:href="../../d7/d29/class_cool_wifi.html#a9e6105c6d13d35ec510f6633da9e0223" target="_top" xlink:title="CoolWifi::printConf">
<polygon fill="white" stroke="black" points="150,-532.5 150,-551.5 250,-551.5 250,-532.5 150,-532.5"/>
<text text-anchor="middle" x="200" y="-539.5" font-family="Helvetica,sans-Serif" font-size="10.00">CoolWifi::printConf</text>
</a>
</g>
</g>
<!-- Node2&#45;&gt;Node28 -->
<g id="edge19" class="edge"><title>Node2&#45;&gt;Node28</title>
<path fill="none" stroke="midnightblue" d="M85.356,-513.589C105.324,-518.581 129.93,-524.732 151.133,-530.033"/>
<polygon fill="midnightblue" stroke="midnightblue" points="150.369,-533.45 160.92,-532.48 152.067,-526.659 150.369,-533.45"/>
</g>
<!-- Node29 -->
<g id="node21" class="node"><title>Node29</title>
<g id="a_node21"><a xlink:href="../../d0/dd0/class_cool_m_q_t_t.html#a40553a0ad4b5ecf1cb4411ab54ca85fb" target="_top" xlink:title="CoolMQTT::printConf">
<polygon fill="white" stroke="black" points="145,-494.5 145,-513.5 255,-513.5 255,-494.5 145,-494.5"/>
<text text-anchor="middle" x="200" y="-501.5" font-family="Helvetica,sans-Serif" font-size="10.00">CoolMQTT::printConf</text>
</a>
</g>
</g>
<!-- Node2&#45;&gt;Node29 -->
<g id="edge20" class="edge"><title>Node2&#45;&gt;Node29</title>
<path fill="none" stroke="midnightblue" d="M92.1935,-504C105.503,-504 120.329,-504 134.597,-504"/>
<polygon fill="midnightblue" stroke="midnightblue" points="134.858,-507.5 144.858,-504 134.858,-500.5 134.858,-507.5"/>
</g>
<!-- Node30 -->
<g id="node22" class="node"><title>Node30</title>
<g id="a_node22"><a xlink:href="../../df/d1d/class_jetpack.html#ab065ee83e244265a2223a22f3ee4a719" target="_top" xlink:title="Jetpack::config">
<polygon fill="white" stroke="black" points="158.5,-456.5 158.5,-475.5 241.5,-475.5 241.5,-456.5 158.5,-456.5"/>
<text text-anchor="middle" x="200" y="-463.5" font-family="Helvetica,sans-Serif" font-size="10.00">Jetpack::config</text>
</a>
</g>
</g>
<!-- Node2&#45;&gt;Node30 -->
<g id="edge21" class="edge"><title>Node2&#45;&gt;Node30</title>
<path fill="none" stroke="midnightblue" d="M85.356,-494.411C105.324,-489.419 129.93,-483.268 151.133,-477.967"/>
<polygon fill="midnightblue" stroke="midnightblue" points="152.067,-481.341 160.92,-475.52 150.369,-474.55 152.067,-481.341"/>
</g>
<!-- Node31 -->
<g id="node23" class="node"><title>Node31</title>
<g id="a_node23"><a xlink:href="../../df/d1d/class_jetpack.html#a5a53e1ebf7aaf3bf3e0d37ea64ca09a7" target="_top" xlink:title="Jetpack::begin">
<polygon fill="white" stroke="black" points="160,-418.5 160,-437.5 240,-437.5 240,-418.5 160,-418.5"/>
<text text-anchor="middle" x="200" y="-425.5" font-family="Helvetica,sans-Serif" font-size="10.00">Jetpack::begin</text>
</a>
</g>
</g>
<!-- Node2&#45;&gt;Node31 -->
<g id="edge22" class="edge"><title>Node2&#45;&gt;Node31</title>
<path fill="none" stroke="midnightblue" d="M58.0087,-494.32C72.8984,-481.701 100.74,-459.745 128,-447 134.912,-443.768 142.469,-441.01 149.992,-438.68"/>
<polygon fill="midnightblue" stroke="midnightblue" points="151.161,-441.985 159.806,-435.859 149.228,-435.258 151.161,-441.985"/>
</g>
<!-- Node32 -->
<g id="node24" class="node"><title>Node32</title>
<g id="a_node24"><a xlink:href="../../df/d1d/class_jetpack.html#ac54a7bb4f9166bee32052253d9b1d306" target="_top" xlink:title="Jetpack::printConf">
<polygon fill="white" stroke="black" points="151.5,-380.5 151.5,-399.5 248.5,-399.5 248.5,-380.5 151.5,-380.5"/>
<text text-anchor="middle" x="200" y="-387.5" font-family="Helvetica,sans-Serif" font-size="10.00">Jetpack::printConf</text>
</a>
</g>
</g>
<!-- Node2&#45;&gt;Node32 -->
<g id="edge23" class="edge"><title>Node2&#45;&gt;Node32</title>
<path fill="none" stroke="midnightblue" d="M52.5178,-494.232C63.9708,-474.873 92.2613,-431.562 128,-409 132.34,-406.26 137.068,-403.913 141.956,-401.901"/>
<polygon fill="midnightblue" stroke="midnightblue" points="143.291,-405.14 151.492,-398.433 140.898,-398.562 143.291,-405.14"/>
</g>
<!-- Node33 -->
<g id="node25" class="node"><title>Node33</title>
<g id="a_node25"><a xlink:href="../../d6/d03/class_irene3000.html#afed5c35e4b23963c157847ef27c11e9c" target="_top" xlink:title="Irene3000::config">
<polygon fill="white" stroke="black" points="154,-342.5 154,-361.5 246,-361.5 246,-342.5 154,-342.5"/>
<text text-anchor="middle" x="200" y="-349.5" font-family="Helvetica,sans-Serif" font-size="10.00">Irene3000::config</text>
</a>
</g>
</g>
<!-- Node2&#45;&gt;Node33 -->
<g id="edge24" class="edge"><title>Node2&#45;&gt;Node33</title>
<path fill="none" stroke="midnightblue" d="M50.0808,-494.222C58.3811,-469.52 83.6327,-404.215 128,-371 132.842,-367.375 138.326,-364.441 144.048,-362.066"/>
<polygon fill="midnightblue" stroke="midnightblue" points="145.588,-365.233 153.83,-358.575 143.235,-358.64 145.588,-365.233"/>
</g>
<!-- Node35 -->
<g id="node27" class="node"><title>Node35</title>
<g id="a_node27"><a xlink:href="../../d6/d03/class_irene3000.html#ad5891806c500ae1007afe52b9e304c2b" target="_top" xlink:title="Irene3000::begin">
<polygon fill="white" stroke="black" points="155.5,-304.5 155.5,-323.5 244.5,-323.5 244.5,-304.5 155.5,-304.5"/>
<text text-anchor="middle" x="200" y="-311.5" font-family="Helvetica,sans-Serif" font-size="10.00">Irene3000::begin</text>
</a>
</g>
</g>
<!-- Node2&#45;&gt;Node35 -->
<g id="edge26" class="edge"><title>Node2&#45;&gt;Node35</title>
<path fill="none" stroke="midnightblue" d="M48.6935,-494.121C54.2572,-464.77 74.7618,-377.384 128,-333 133.202,-328.663 139.299,-325.308 145.697,-322.713"/>
<polygon fill="midnightblue" stroke="midnightblue" points="146.902,-326 155.215,-319.431 144.62,-319.382 146.902,-326"/>
</g>
<!-- Node49 -->
<g id="node33" class="node"><title>Node49</title>
<g id="a_node33"><a xlink:href="../../d6/d03/class_irene3000.html#a7bc2414100b5e19eacc6630fa34b2654" target="_top" xlink:title="Irene3000::printConf">
<polygon fill="white" stroke="black" points="147.5,-266.5 147.5,-285.5 252.5,-285.5 252.5,-266.5 147.5,-266.5"/>
<text text-anchor="middle" x="200" y="-273.5" font-family="Helvetica,sans-Serif" font-size="10.00">Irene3000::printConf</text>
</a>
</g>
</g>
<!-- Node2&#45;&gt;Node49 -->
<g id="edge32" class="edge"><title>Node2&#45;&gt;Node49</title>
<path fill="none" stroke="midnightblue" d="M47.7323,-494.398C50.7835,-461.332 65.4354,-351.133 128,-295 131.013,-292.297 134.369,-289.972 137.937,-287.973"/>
<polygon fill="midnightblue" stroke="midnightblue" points="139.599,-291.06 147.168,-283.646 136.628,-284.722 139.599,-291.06"/>
</g>
<!-- Node50 -->
<g id="node34" class="node"><title>Node50</title>
<g id="a_node34"><a xlink:href="../../d1/d2f/class_external_sensors.html#a862a4bd11346b37270d0244c2adabe5a" target="_top" xlink:title="ExternalSensors::config">
<polygon fill="white" stroke="black" points="139.5,-228.5 139.5,-247.5 260.5,-247.5 260.5,-228.5 139.5,-228.5"/>
<text text-anchor="middle" x="200" y="-235.5" font-family="Helvetica,sans-Serif" font-size="10.00">ExternalSensors::config</text>
</a>
</g>
</g>
<!-- Node2&#45;&gt;Node50 -->
<g id="edge33" class="edge"><title>Node2&#45;&gt;Node50</title>
<path fill="none" stroke="midnightblue" d="M47.0878,-494.269C47.9691,-457.395 56.2061,-324.922 128,-257 129.657,-255.432 131.429,-253.991 133.291,-252.666"/>
<polygon fill="midnightblue" stroke="midnightblue" points="135.114,-255.655 141.962,-247.571 131.567,-249.62 135.114,-255.655"/>
</g>
<!-- Node51 -->
<g id="node35" class="node"><title>Node51</title>
<g id="a_node35"><a xlink:href="../../d1/d2f/class_external_sensors.html#a58ede0d786a86417254708870f04a21e" target="_top" xlink:title="ExternalSensors::begin">
<polygon fill="white" stroke="black" points="141,-190.5 141,-209.5 259,-209.5 259,-190.5 141,-190.5"/>
<text text-anchor="middle" x="200" y="-197.5" font-family="Helvetica,sans-Serif" font-size="10.00">ExternalSensors::begin</text>
</a>
</g>
</g>
<!-- Node2&#45;&gt;Node51 -->
<g id="edge34" class="edge"><title>Node2&#45;&gt;Node51</title>
<path fill="none" stroke="midnightblue" d="M46.601,-494.494C45.4735,-454.606 46.6321,-299.122 128,-219 129.466,-217.556 131.029,-216.219 132.671,-214.981"/>
<polygon fill="midnightblue" stroke="midnightblue" points="134.773,-217.797 141.456,-209.577 131.105,-211.835 134.773,-217.797"/>
</g>
<!-- Node55 -->
<g id="node39" class="node"><title>Node55</title>
<g id="a_node39"><a xlink:href="../../d1/d2f/class_external_sensors.html#a78c2bf55084435dd51d3c559b2d3c6f3" target="_top" xlink:title="ExternalSensors::printConf">
<polygon fill="white" stroke="black" points="133,-152.5 133,-171.5 267,-171.5 267,-152.5 133,-152.5"/>
<text text-anchor="middle" x="200" y="-159.5" font-family="Helvetica,sans-Serif" font-size="10.00">ExternalSensors::printConf</text>
</a>
</g>
</g>
<!-- Node2&#45;&gt;Node55 -->
<g id="edge38" class="edge"><title>Node2&#45;&gt;Node55</title>
<path fill="none" stroke="midnightblue" d="M48.1107,-494.305C53.8832,-445.56 81.9688,-227.763 128,-181 129.41,-179.568 130.915,-178.24 132.498,-177.009"/>
<polygon fill="midnightblue" stroke="midnightblue" points="134.416,-179.937 140.988,-171.627 130.668,-174.025 134.416,-179.937"/>
</g>
<!-- Node56 -->
<g id="node40" class="node"><title>Node56</title>
<g id="a_node40"><a xlink:href="../../de/dc0/class_cool_board_led.html#a93d545679237e8cc858324367149775c" target="_top" xlink:title="CoolBoardLed::fadeOut">
<polygon fill="white" stroke="black" points="140.5,-114.5 140.5,-133.5 259.5,-133.5 259.5,-114.5 140.5,-114.5"/>
<text text-anchor="middle" x="200" y="-121.5" font-family="Helvetica,sans-Serif" font-size="10.00">CoolBoardLed::fadeOut</text>
</a>
</g>
</g>
<!-- Node2&#45;&gt;Node56 -->
<g id="edge39" class="edge"><title>Node2&#45;&gt;Node56</title>
<path fill="none" stroke="midnightblue" d="M47.8439,-494.23C52.5487,-441.98 77.1772,-195.938 128,-143 129.392,-141.55 130.881,-140.207 132.451,-138.963"/>
<polygon fill="midnightblue" stroke="midnightblue" points="134.375,-141.886 140.887,-133.529 130.585,-136.001 134.375,-141.886"/>
</g>
<!-- Node57 -->
<g id="node41" class="node"><title>Node57</title>
<g id="a_node41"><a xlink:href="../../d7/df9/class_cool_board.html#a519de78b807f8ec6463ff484eb925918" target="_top" xlink:title="CoolBoard::connect">
<polygon fill="white" stroke="black" points="148.5,-975.5 148.5,-994.5 251.5,-994.5 251.5,-975.5 148.5,-975.5"/>
<text text-anchor="middle" x="200" y="-982.5" font-family="Helvetica,sans-Serif" font-size="10.00">CoolBoard::connect</text>
</a>
</g>
</g>
<!-- Node2&#45;&gt;Node57 -->
<g id="edge40" class="edge"><title>Node2&#45;&gt;Node57</title>
<path fill="none" stroke="midnightblue" d="M47.8251,-513.81C52.7898,-571.083 80.0969,-862.248 128,-936 137.637,-950.837 153.497,-962.414 167.786,-970.581"/>
<polygon fill="midnightblue" stroke="midnightblue" points="166.401,-973.81 176.867,-975.455 169.711,-967.642 166.401,-973.81"/>
</g>
<!-- Node74 -->
<g id="node47" class="node"><title>Node74</title>
<g id="a_node47"><a xlink:href="../../de/dc0/class_cool_board_led.html#a96e1ea13003eee34c9dbcef340404426" target="_top" xlink:title="CoolBoardLed::blink">
<polygon fill="white" stroke="black" points="337,-880.5 337,-899.5 441,-899.5 441,-880.5 337,-880.5"/>
<text text-anchor="middle" x="389" y="-887.5" font-family="Helvetica,sans-Serif" font-size="10.00">CoolBoardLed::blink</text>
</a>
</g>
</g>
<!-- Node2&#45;&gt;Node74 -->
<g id="edge52" class="edge"><title>Node2&#45;&gt;Node74</title>
<path fill="none" stroke="midnightblue" d="M47.3735,-513.553C49.7676,-569.259 64.9266,-851.444 128,-903 157.997,-927.52 264.432,-913.366 331.466,-901.342"/>
<polygon fill="midnightblue" stroke="midnightblue" points="332.256,-904.755 341.462,-899.512 330.995,-897.87 332.256,-904.755"/>
</g>
<!-- Node75 -->
<g id="node48" class="node"><title>Node75</title>
<g id="a_node48"><a xlink:href="../../d6/d49/class_cool_time.html#a87c28260c1bc77091162cbcf1ee2e129" target="_top" xlink:title="CoolTime::config">
<polygon fill="white" stroke="black" points="154.5,-76.5 154.5,-95.5 245.5,-95.5 245.5,-76.5 154.5,-76.5"/>
<text text-anchor="middle" x="200" y="-83.5" font-family="Helvetica,sans-Serif" font-size="10.00">CoolTime::config</text>
</a>
</g>
</g>
<!-- Node2&#45;&gt;Node75 -->
<g id="edge49" class="edge"><title>Node2&#45;&gt;Node75</title>
<path fill="none" stroke="midnightblue" d="M47.6134,-494.321C51.305,-439.096 72.3071,-164.21 128,-105 132.699,-100.004 138.555,-96.2686 144.874,-93.4843"/>
<polygon fill="midnightblue" stroke="midnightblue" points="146.168,-96.7385 154.385,-90.0497 143.79,-90.1547 146.168,-96.7385"/>
</g>
<!-- Node76 -->
<g id="node49" class="node"><title>Node76</title>
<g id="a_node49"><a xlink:href="../../d6/d49/class_cool_time.html#ab1976cf718b950bc31e003c3323b8adb" target="_top" xlink:title="CoolTime::begin">
<polygon fill="white" stroke="red" points="156,-38.5 156,-57.5 244,-57.5 244,-38.5 156,-38.5"/>
<text text-anchor="middle" x="200" y="-45.5" font-family="Helvetica,sans-Serif" font-size="10.00">CoolTime::begin</text>
</a>
</g>
</g>
<!-- Node2&#45;&gt;Node76 -->
<g id="edge50" class="edge"><title>Node2&#45;&gt;Node76</title>
<path fill="none" stroke="midnightblue" d="M47.4355,-494.183C50.2303,-435.596 67.4942,-132.433 128,-67 133.003,-61.5896 139.362,-57.6534 146.21,-54.8015"/>
<polygon fill="midnightblue" stroke="midnightblue" points="147.432,-58.083 155.771,-51.5481 145.177,-51.4562 147.432,-58.083"/>
</g>
<!-- Node83 -->
<g id="node50" class="node"><title>Node83</title>
<g id="a_node50"><a xlink:href="../../d6/d49/class_cool_time.html#af355e7f9b3898211cd2ff25eab5933b1" target="_top" xlink:title="CoolTime::printConf">
<polygon fill="white" stroke="black" points="148,-0.5 148,-19.5 252,-19.5 252,-0.5 148,-0.5"/>
<text text-anchor="middle" x="200" y="-7.5" font-family="Helvetica,sans-Serif" font-size="10.00">CoolTime::printConf</text>
</a>
</g>
</g>
<!-- Node2&#45;&gt;Node83 -->
<g id="edge51" class="edge"><title>Node2&#45;&gt;Node83</title>
<path fill="none" stroke="midnightblue" d="M47.2786,-494.149C49.2188,-432.56 62.6305,-100.72 128,-29 131.081,-25.6197 134.691,-22.8135 138.622,-20.487"/>
<polygon fill="midnightblue" stroke="midnightblue" points="140.175,-23.6237 147.658,-16.1231 137.131,-17.3203 140.175,-23.6237"/>
</g>
<!-- Node7 -->
<g id="node6" class="node"><title>Node7</title>
<g id="a_node6"><a xlink:href="../../dd/d67/class_cool_s_i114_x.html#a206b36aca7049f63be1d11088c30a09f" target="_top" xlink:title="CoolSI114X::Begin">
<polygon fill="white" stroke="red" points="339,-842.5 339,-861.5 439,-861.5 439,-842.5 339,-842.5"/>
<text text-anchor="middle" x="389" y="-849.5" font-family="Helvetica,sans-Serif" font-size="10.00">CoolSI114X::Begin</text>
</a>
</g>
</g>
<!-- Node6&#45;&gt;Node7 -->
<g id="edge5" class="edge"><title>Node6&#45;&gt;Node7</title>
<path fill="none" stroke="midnightblue" d="M241.576,-817.547C269.757,-824.178 307.501,-833.059 337.61,-840.143"/>
<polygon fill="midnightblue" stroke="midnightblue" points="336.967,-843.588 347.503,-842.471 338.57,-836.774 336.967,-843.588"/>
</g>
<!-- Node13 -->
<g id="node7" class="node"><title>Node13</title>
<g id="a_node7"><a xlink:href="../../de/d46/class_cool_board_sensors.html#a406307ffd70272282d91479c7ed8d66f" target="_top" xlink:title="CoolBoardSensors::setEnv\lSensorSettings">
<polygon fill="white" stroke="black" points="321.5,-793 321.5,-823 456.5,-823 456.5,-793 321.5,-793"/>
<text text-anchor="start" x="329.5" y="-811" font-family="Helvetica,sans-Serif" font-size="10.00">CoolBoardSensors::setEnv</text>
<text text-anchor="middle" x="389" y="-800" font-family="Helvetica,sans-Serif" font-size="10.00">SensorSettings</text>
</a>
</g>
</g>
<!-- Node6&#45;&gt;Node13 -->
<g id="edge6" class="edge"><title>Node6&#45;&gt;Node13</title>
<path fill="none" stroke="midnightblue" d="M264.049,-808C279.183,-808 295.513,-808 311.194,-808"/>
<polygon fill="midnightblue" stroke="midnightblue" points="311.387,-811.5 321.387,-808 311.387,-804.5 311.387,-811.5"/>
</g>
<!-- Node14 -->
<g id="node8" class="node"><title>Node14</title>
<g id="a_node8"><a xlink:href="../../df/dcf/class_b_m_e280.html#a994c102f010547f9c740a338ef9905c7" target="_top" xlink:title="BME280::begin">
<polygon fill="white" stroke="red" points="347.5,-754.5 347.5,-773.5 430.5,-773.5 430.5,-754.5 347.5,-754.5"/>
<text text-anchor="middle" x="389" y="-761.5" font-family="Helvetica,sans-Serif" font-size="10.00">BME280::begin</text>
</a>
</g>
</g>
<!-- Node6&#45;&gt;Node14 -->
<g id="edge7" class="edge"><title>Node6&#45;&gt;Node14</title>
<path fill="none" stroke="midnightblue" d="M241.576,-798.453C269.757,-791.822 307.501,-782.941 337.61,-775.857"/>
<polygon fill="midnightblue" stroke="midnightblue" points="338.57,-779.226 347.503,-773.529 336.967,-772.412 338.57,-779.226"/>
</g>
<!-- Node21 -->
<g id="node13" class="node"><title>Node21</title>
<g id="a_node13"><a xlink:href="../../d8/d4b/class_cool_pub_sub_client.html#a7ee119b786010561ab6a9afa0798e91d" target="_top" xlink:title="CoolPubSubClient::setClient">
<polygon fill="white" stroke="black" points="318,-716.5 318,-735.5 460,-735.5 460,-716.5 318,-716.5"/>
<text text-anchor="middle" x="389" y="-723.5" font-family="Helvetica,sans-Serif" font-size="10.00">CoolPubSubClient::setClient</text>
</a>
</g>
</g>
<!-- Node20&#45;&gt;Node21 -->
<g id="edge12" class="edge"><title>Node20&#45;&gt;Node21</title>
<path fill="none" stroke="midnightblue" d="M247.273,-665.033C255.77,-667.616 264.361,-670.885 272,-675 290.847,-685.151 289.011,-697.116 308,-707 312.553,-709.37 317.404,-711.448 322.381,-713.271"/>
<polygon fill="midnightblue" stroke="midnightblue" points="321.468,-716.656 332.062,-716.471 323.665,-710.009 321.468,-716.656"/>
</g>
<!-- Node22 -->
<g id="node14" class="node"><title>Node22</title>
<g id="a_node14"><a xlink:href="../../d8/d4b/class_cool_pub_sub_client.html#a947e70c394c66c7d08d0c53caf8425e3" target="_top" xlink:title="CoolPubSubClient::setServer">
<polygon fill="white" stroke="black" points="316.5,-678.5 316.5,-697.5 461.5,-697.5 461.5,-678.5 316.5,-678.5"/>
<text text-anchor="middle" x="389" y="-685.5" font-family="Helvetica,sans-Serif" font-size="10.00">CoolPubSubClient::setServer</text>
</a>
</g>
</g>
<!-- Node20&#45;&gt;Node22 -->
<g id="edge13" class="edge"><title>Node20&#45;&gt;Node22</title>
<path fill="none" stroke="midnightblue" d="M247.225,-663.91C269.849,-667.782 297.484,-672.511 322.26,-676.75"/>
<polygon fill="midnightblue" stroke="midnightblue" points="321.87,-680.234 332.317,-678.471 323.051,-673.335 321.87,-680.234"/>
</g>
<!-- Node23 -->
<g id="node15" class="node"><title>Node23</title>
<g id="a_node15"><a xlink:href="../../d8/d4b/class_cool_pub_sub_client.html#ac5cab7658f1bdded32131241e468e661" target="_top" xlink:title="CoolPubSubClient::setCallback">
<polygon fill="white" stroke="black" points="311.5,-640.5 311.5,-659.5 466.5,-659.5 466.5,-640.5 311.5,-640.5"/>
<text text-anchor="middle" x="389" y="-647.5" font-family="Helvetica,sans-Serif" font-size="10.00">CoolPubSubClient::setCallback</text>
</a>
</g>
</g>
<!-- Node20&#45;&gt;Node23 -->
<g id="edge14" class="edge"><title>Node20&#45;&gt;Node23</title>
<path fill="none" stroke="midnightblue" d="M247.225,-654.517C263.635,-653.99 282.683,-653.379 301.363,-652.78"/>
<polygon fill="midnightblue" stroke="midnightblue" points="301.499,-656.277 311.381,-652.458 301.274,-649.281 301.499,-656.277"/>
</g>
<!-- Node24 -->
<g id="node16" class="node"><title>Node24</title>
<g id="a_node16"><a xlink:href="../../d0/dd0/class_cool_m_q_t_t.html#a30d82ad665bfb603f46ecdbc290775df" target="_top" xlink:title="CoolMQTT::callback">
<polygon fill="white" stroke="black" points="335.5,-602.5 335.5,-621.5 442.5,-621.5 442.5,-602.5 335.5,-602.5"/>
<text text-anchor="middle" x="389" y="-609.5" font-family="Helvetica,sans-Serif" font-size="10.00">CoolMQTT::callback</text>
</a>
</g>
</g>
<!-- Node20&#45;&gt;Node24 -->
<g id="edge15" class="edge"><title>Node20&#45;&gt;Node24</title>
<path fill="none" stroke="midnightblue" d="M241.576,-646.453C269.757,-639.822 307.501,-630.941 337.61,-623.857"/>
<polygon fill="midnightblue" stroke="midnightblue" points="338.57,-627.226 347.503,-621.529 336.967,-620.412 338.57,-627.226"/>
</g>
<!-- Node25 -->
<g id="node17" class="node"><title>Node25</title>
<g id="a_node17"><a xlink:href="../../d8/d4b/class_cool_pub_sub_client.html#a4f83e54f1ba96e32f725d93cdec283b7" target="_top" xlink:title="CoolPubSubClient::setBufferSize">
<polygon fill="white" stroke="black" points="308,-564.5 308,-583.5 470,-583.5 470,-564.5 308,-564.5"/>
<text text-anchor="middle" x="389" y="-571.5" font-family="Helvetica,sans-Serif" font-size="10.00">CoolPubSubClient::setBufferSize</text>
</a>
</g>
</g>
<!-- Node20&#45;&gt;Node25 -->
<g id="edge16" class="edge"><title>Node20&#45;&gt;Node25</title>
<path fill="none" stroke="midnightblue" d="M247.093,-648.157C255.787,-645.46 264.496,-641.845 272,-637 293.228,-623.296 286.581,-606.403 308,-593 311.375,-590.888 314.964,-589.011 318.681,-587.342"/>
<polygon fill="midnightblue" stroke="midnightblue" points="320.118,-590.538 328.133,-583.609 317.546,-584.027 320.118,-590.538"/>
</g>
<!-- Node34 -->
<g id="node26" class="node"><title>Node34</title>
<g id="a_node26"><a xlink:href="../../d6/d03/class_irene3000.html#abcad62d1201a59f8dd3ba87048002728" target="_top" xlink:title="Irene3000::gainConvert">
<polygon fill="white" stroke="black" points="330,-424.5 330,-443.5 448,-443.5 448,-424.5 330,-424.5"/>
<text text-anchor="middle" x="389" y="-431.5" font-family="Helvetica,sans-Serif" font-size="10.00">Irene3000::gainConvert</text>
</a>
</g>
</g>
<!-- Node33&#45;&gt;Node34 -->
<g id="edge25" class="edge"><title>Node33&#45;&gt;Node34</title>
<path fill="none" stroke="midnightblue" d="M246.348,-359.614C255.288,-362.334 264.281,-366.017 272,-371 293.228,-384.704 286.581,-401.597 308,-415 311.848,-417.408 315.974,-419.51 320.25,-421.347"/>
<polygon fill="midnightblue" stroke="midnightblue" points="319.209,-424.695 329.8,-424.956 321.684,-418.147 319.209,-424.695"/>
</g>
<!-- Node36 -->
<g id="node28" class="node"><title>Node36</title>
<g id="a_node28"><a xlink:href="../../df/df6/class_adafruit___a_d_s1015.html#a6eba7c3cd854927f60883bb371e5faa6" target="_top" xlink:title="Sets up the HW (reads coefficients values, etc.) ">
<polygon fill="white" stroke="black" points="325.5,-386.5 325.5,-405.5 452.5,-405.5 452.5,-386.5 325.5,-386.5"/>
<text text-anchor="middle" x="389" y="-393.5" font-family="Helvetica,sans-Serif" font-size="10.00">Adafruit_ADS1015::begin</text>
</a>
</g>
</g>
<!-- Node35&#45;&gt;Node36 -->
<g id="edge27" class="edge"><title>Node35&#45;&gt;Node36</title>
<path fill="none" stroke="midnightblue" d="M244.859,-321.169C254.285,-323.929 263.853,-327.74 272,-333 293.228,-346.704 286.581,-363.597 308,-377 311.375,-379.112 314.964,-380.989 318.681,-382.658"/>
<polygon fill="midnightblue" stroke="midnightblue" points="317.546,-385.973 328.133,-386.391 320.118,-379.462 317.546,-385.973"/>
</g>
<!-- Node37 -->
<g id="node29" class="node"><title>Node37</title>
<g id="a_node29"><a xlink:href="../../d6/d03/class_irene3000.html#a78a87eb7cf295b95c12b2ebd51c2bb77" target="_top" xlink:title="Irene3000::readButton">
<polygon fill="white" stroke="red" points="332.5,-348.5 332.5,-367.5 445.5,-367.5 445.5,-348.5 332.5,-348.5"/>
<text text-anchor="middle" x="389" y="-355.5" font-family="Helvetica,sans-Serif" font-size="10.00">Irene3000::readButton</text>
</a>
</g>
</g>
<!-- Node35&#45;&gt;Node37 -->
<g id="edge28" class="edge"><title>Node35&#45;&gt;Node37</title>
<path fill="none" stroke="midnightblue" d="M241.576,-323.547C269.757,-330.178 307.501,-339.059 337.61,-346.143"/>
<polygon fill="midnightblue" stroke="midnightblue" points="336.967,-349.588 347.503,-348.471 338.57,-342.774 336.967,-349.588"/>
</g>
<!-- Node45 -->
<g id="node30" class="node"><title>Node45</title>
<g id="a_node30"><a xlink:href="../../d6/d03/class_irene3000.html#a1d3299202e4cb7afcff9c9e3e95d94c1" target="_top" xlink:title="Irene3000::calibratepH7">
<polygon fill="white" stroke="red" points="329,-310.5 329,-329.5 449,-329.5 449,-310.5 329,-310.5"/>
<text text-anchor="middle" x="389" y="-317.5" font-family="Helvetica,sans-Serif" font-size="10.00">Irene3000::calibratepH7</text>
</a>
</g>
</g>
<!-- Node35&#45;&gt;Node45 -->
<g id="edge29" class="edge"><title>Node35&#45;&gt;Node45</title>
<path fill="none" stroke="midnightblue" d="M244.843,-315.407C266.855,-316.113 294.04,-316.985 318.786,-317.779"/>
<polygon fill="midnightblue" stroke="midnightblue" points="318.749,-321.28 328.856,-318.102 318.974,-314.283 318.749,-321.28"/>
</g>
<!-- Node47 -->
<g id="node31" class="node"><title>Node47</title>
<g id="a_node31"><a xlink:href="../../d6/d03/class_irene3000.html#aa140dd026922a04981edfd04d46cabbe" target="_top" xlink:title="Irene3000::calibratepH4">
<polygon fill="white" stroke="red" points="329,-272.5 329,-291.5 449,-291.5 449,-272.5 329,-272.5"/>
<text text-anchor="middle" x="389" y="-279.5" font-family="Helvetica,sans-Serif" font-size="10.00">Irene3000::calibratepH4</text>
</a>
</g>
</g>
<!-- Node35&#45;&gt;Node47 -->
<g id="edge30" class="edge"><title>Node35&#45;&gt;Node47</title>
<path fill="none" stroke="midnightblue" d="M244.843,-306.497C267.906,-302.551 296.648,-297.632 322.313,-293.241"/>
<polygon fill="midnightblue" stroke="midnightblue" points="323.084,-296.66 332.351,-291.523 321.904,-289.76 323.084,-296.66"/>
</g>
<!-- Node48 -->
<g id="node32" class="node"><title>Node48</title>
<g id="a_node32"><a xlink:href="../../d6/d03/class_irene3000.html#a63dbd38e79b8cd5f1fba4b245501a894" target="_top" xlink:title="Irene3000::saveParams">
<polygon fill="white" stroke="black" points="329,-234.5 329,-253.5 449,-253.5 449,-234.5 329,-234.5"/>
<text text-anchor="middle" x="389" y="-241.5" font-family="Helvetica,sans-Serif" font-size="10.00">Irene3000::saveParams</text>
</a>
</g>
</g>
<!-- Node35&#45;&gt;Node48 -->
<g id="edge31" class="edge"><title>Node35&#45;&gt;Node48</title>
<path fill="none" stroke="midnightblue" d="M244.653,-305.743C253.992,-303.048 263.574,-299.538 272,-295 290.847,-284.849 289.011,-272.884 308,-263 312.553,-260.63 317.404,-258.552 322.381,-256.729"/>
<polygon fill="midnightblue" stroke="midnightblue" points="323.665,-259.991 332.062,-253.529 321.468,-253.344 323.665,-259.991"/>
</g>
<!-- Node52 -->
<g id="node36" class="node"><title>Node52</title>
<g id="a_node36"><a xlink:href="../../d1/d68/class_base_external_sensor.html#a87d132803d4f4fdd4e66332809f0c9a0" target="_top" xlink:title="BaseExternalSensor\l::begin">
<polygon fill="white" stroke="black" points="336,-185 336,-215 442,-215 442,-185 336,-185"/>
<text text-anchor="start" x="344" y="-203" font-family="Helvetica,sans-Serif" font-size="10.00">BaseExternalSensor</text>
<text text-anchor="middle" x="389" y="-192" font-family="Helvetica,sans-Serif" font-size="10.00">::begin</text>
</a>
</g>
</g>
<!-- Node51&#45;&gt;Node52 -->
<g id="edge35" class="edge"><title>Node51&#45;&gt;Node52</title>
<path fill="none" stroke="midnightblue" d="M259.143,-200C280.338,-200 304.377,-200 325.903,-200"/>
<polygon fill="midnightblue" stroke="midnightblue" points="325.92,-203.5 335.92,-200 325.92,-196.5 325.92,-203.5"/>
</g>
<!-- Node53 -->
<g id="node37" class="node"><title>Node53</title>
<g id="a_node37"><a xlink:href="../../d9/d09/_external_sensors_8cpp.html#af39fa3dad1ba161b384c0b26b8145e65" target="_top" xlink:title="oneWire">
<polygon fill="white" stroke="black" points="362.5,-146.5 362.5,-165.5 415.5,-165.5 415.5,-146.5 362.5,-146.5"/>
<text text-anchor="middle" x="389" y="-153.5" font-family="Helvetica,sans-Serif" font-size="10.00">oneWire</text>
</a>
</g>
</g>
<!-- Node51&#45;&gt;Node53 -->
<g id="edge36" class="edge"><title>Node51&#45;&gt;Node53</title>
<path fill="none" stroke="midnightblue" d="M241.576,-190.453C274.582,-182.687 320.708,-171.834 352.319,-164.396"/>
<polygon fill="midnightblue" stroke="midnightblue" points="353.51,-167.711 362.442,-162.014 351.907,-160.897 353.51,-167.711"/>
</g>
<!-- Node54 -->
<g id="node38" class="node"><title>Node54</title>
<g id="a_node38"><a xlink:href="../../d1/d68/class_base_external_sensor.html#a1564f16deacf57b51b9948ac29db4291" target="_top" xlink:title="BaseExternalSensor\l::read">
<polygon fill="white" stroke="black" points="336,-97 336,-127 442,-127 442,-97 336,-97"/>
<text text-anchor="start" x="344" y="-115" font-family="Helvetica,sans-Serif" font-size="10.00">BaseExternalSensor</text>
<text text-anchor="middle" x="389" y="-104" font-family="Helvetica,sans-Serif" font-size="10.00">::read</text>
</a>
</g>
</g>
<!-- Node51&#45;&gt;Node54 -->
<g id="edge37" class="edge"><title>Node51&#45;&gt;Node54</title>
<path fill="none" stroke="midnightblue" d="M252.302,-190.426C259.222,-187.965 265.997,-184.876 272,-181 293.228,-167.296 287.061,-151.141 308,-137 313.59,-133.225 319.78,-129.997 326.167,-127.242"/>
<polygon fill="midnightblue" stroke="midnightblue" points="327.589,-130.444 335.622,-123.536 325.034,-123.927 327.589,-130.444"/>
</g>
<!-- Node57&#45;&gt;Node3 -->
<g id="edge41" class="edge"><title>Node57&#45;&gt;Node3</title>
<path fill="none" stroke="midnightblue" d="M211.398,-994.837C225.495,-1008.3 251.285,-1033.37 272,-1056 288.829,-1074.39 286.797,-1085.9 308,-1099 313.711,-1102.53 320.024,-1105.4 326.525,-1107.74"/>
<polygon fill="midnightblue" stroke="midnightblue" points="325.545,-1111.1 336.136,-1110.8 327.669,-1104.43 325.545,-1111.1"/>
</g>
<!-- Node58 -->
<g id="node42" class="node"><title>Node58</title>
<g id="a_node42"><a xlink:href="../../d7/d29/class_cool_wifi.html#ad060353050f40d032a2dbf9e54a768bf" target="_top" xlink:title="CoolWifi::connect">
<polygon fill="white" stroke="red" points="341.5,-1070.5 341.5,-1089.5 436.5,-1089.5 436.5,-1070.5 341.5,-1070.5"/>
<text text-anchor="middle" x="389" y="-1077.5" font-family="Helvetica,sans-Serif" font-size="10.00">CoolWifi::connect</text>
</a>
</g>
</g>
<!-- Node57&#45;&gt;Node58 -->
<g id="edge42" class="edge"><title>Node57&#45;&gt;Node58</title>
<path fill="none" stroke="midnightblue" d="M211.671,-994.755C229.985,-1010.97 269.189,-1043.42 308,-1061 315.395,-1064.35 323.454,-1067.15 331.515,-1069.48"/>
<polygon fill="midnightblue" stroke="midnightblue" points="330.741,-1072.89 341.305,-1072.09 332.545,-1066.13 330.741,-1072.89"/>
</g>
<!-- Node66 -->
<g id="node43" class="node"><title>Node66</title>
<g id="a_node43"><a xlink:href="../../d7/d29/class_cool_wifi.html#a1c7b4d82a4098d346e7593dce92039fa" target="_top" xlink:title="CoolWifi::state">
<polygon fill="white" stroke="black" points="348,-1032.5 348,-1051.5 430,-1051.5 430,-1032.5 348,-1032.5"/>
<text text-anchor="middle" x="389" y="-1039.5" font-family="Helvetica,sans-Serif" font-size="10.00">CoolWifi::state</text>
</a>
</g>
</g>
<!-- Node57&#45;&gt;Node66 -->
<g id="edge43" class="edge"><title>Node57&#45;&gt;Node66</title>
<path fill="none" stroke="midnightblue" d="M231.884,-994.594C253.247,-1001.21 282.334,-1010.19 308,-1018 320.479,-1021.8 334.066,-1025.89 346.441,-1029.6"/>
<polygon fill="midnightblue" stroke="midnightblue" points="345.478,-1032.96 356.061,-1032.48 347.486,-1026.26 345.478,-1032.96"/>
</g>
<!-- Node67 -->
<g id="node44" class="node"><title>Node67</title>
<g id="a_node44"><a xlink:href="../../d0/dd0/class_cool_m_q_t_t.html#a50075d0ab23a327ab897fd6adad20eda" target="_top" xlink:title="CoolMQTT::connect">
<polygon fill="white" stroke="red" points="336.5,-956.5 336.5,-975.5 441.5,-975.5 441.5,-956.5 336.5,-956.5"/>
<text text-anchor="middle" x="389" y="-963.5" font-family="Helvetica,sans-Serif" font-size="10.00">CoolMQTT::connect</text>
</a>
</g>
</g>
<!-- Node57&#45;&gt;Node67 -->
<g id="edge44" class="edge"><title>Node57&#45;&gt;Node67</title>
<path fill="none" stroke="midnightblue" d="M251.605,-979.858C274.604,-977.522 302.023,-974.736 326.225,-972.277"/>
<polygon fill="midnightblue" stroke="midnightblue" points="326.783,-975.738 336.378,-971.245 326.076,-968.774 326.783,-975.738"/>
</g>
<!-- Node71 -->
<g id="node45" class="node"><title>Node71</title>
<g id="a_node45"><a xlink:href="../../d0/dd0/class_cool_m_q_t_t.html#a5d003307eff78efbd585e42b43b72b6d" target="_top" xlink:title="CoolMQTT::state">
<polygon fill="white" stroke="red" points="506,-975.5 506,-994.5 598,-994.5 598,-975.5 506,-975.5"/>
<text text-anchor="middle" x="552" y="-982.5" font-family="Helvetica,sans-Serif" font-size="10.00">CoolMQTT::state</text>
</a>
</g>
</g>
<!-- Node57&#45;&gt;Node71 -->
<g id="edge47" class="edge"><title>Node57&#45;&gt;Node71</title>
<path fill="none" stroke="midnightblue" d="M251.519,-985C316.299,-985 428.262,-985 495.403,-985"/>
<polygon fill="midnightblue" stroke="midnightblue" points="495.78,-988.5 505.78,-985 495.78,-981.5 495.78,-988.5"/>
</g>
<!-- Node73 -->
<g id="node46" class="node"><title>Node73</title>
<g id="a_node46"><a xlink:href="../../d7/df9/class_cool_board.html#a7508e029f2ee17bb747ffab599285e0d" target="_top" xlink:title="CoolBoard::getLogInterval">
<polygon fill="white" stroke="black" points="324,-918.5 324,-937.5 454,-937.5 454,-918.5 324,-918.5"/>
<text text-anchor="middle" x="389" y="-925.5" font-family="Helvetica,sans-Serif" font-size="10.00">CoolBoard::getLogInterval</text>
</a>
</g>
</g>
<!-- Node57&#45;&gt;Node73 -->
<g id="edge46" class="edge"><title>Node57&#45;&gt;Node73</title>
<path fill="none" stroke="midnightblue" d="M225.402,-975.484C246.93,-967.293 279.264,-955.488 308,-947 316.455,-944.503 325.486,-942.104 334.324,-939.903"/>
<polygon fill="midnightblue" stroke="midnightblue" points="335.289,-943.27 344.179,-937.506 333.635,-936.469 335.289,-943.27"/>
</g>
<!-- Node57&#45;&gt;Node74 -->
<g id="edge48" class="edge"><title>Node57&#45;&gt;Node74</title>
<path fill="none" stroke="midnightblue" d="M215.259,-975.401C229.678,-965.639 252.55,-949.997 272,-936 288.233,-924.318 289.891,-917.489 308,-909 313.992,-906.191 320.438,-903.776 326.976,-901.705"/>
<polygon fill="midnightblue" stroke="midnightblue" points="327.955,-905.066 336.579,-898.911 325.999,-898.344 327.955,-905.066"/>
</g>
<!-- Node67&#45;&gt;Node71 -->
<g id="edge45" class="edge"><title>Node67&#45;&gt;Node71</title>
<path fill="none" stroke="midnightblue" d="M441.828,-972.116C459.041,-974.148 478.265,-976.416 495.728,-978.477"/>
<polygon fill="midnightblue" stroke="midnightblue" points="495.436,-981.967 505.778,-979.663 496.257,-975.015 495.436,-981.967"/>
</g>
</g>
</svg>
        <g id="navigator" transform="translate(0 0)" fill="#404254">
                <rect fill="#f2f5e9" fill-opacity="0.5" stroke="#606060" stroke-width=".5" x="0" y="0" width="60" height="60"/>
                <use id="zoomplus" xlink:href="#zoomPlus" x="17" y="9" onmousedown="handleZoom(evt,'in')"/>
                <use id="zoomminus" xlink:href="#zoomMin" x="42" y="9" onmousedown="handleZoom(evt,'out')"/>
                <use id="reset" xlink:href="#resetDef" x="30" y="36" onmousedown="handleReset()"/>
                <g id="arrowUp" xlink:href="#dirArrow" transform="translate(30 24)" onmousedown="handlePan(0,-1)">
                  <use xlink:href="#rim" fill="#404040">
                        <set attributeName="fill" to="#808080" begin="arrowUp.mouseover" end="arrowUp.mouseout"/>
                  </use>
                  <path fill="none" stroke="white" stroke-width="1.5" d="M0,-3.0v7 M-2.5,-0.5L0,-3.0L2.5,-0.5"/>
                </g>
                <g id="arrowRight" xlink:href="#dirArrow" transform="rotate(90) translate(36 -43)" onmousedown="handlePan(1,0)">
                  <use xlink:href="#rim" fill="#404040">
                        <set attributeName="fill" to="#808080" begin="arrowRight.mouseover" end="arrowRight.mouseout"/>
                  </use>
                  <path fill="none" stroke="white" stroke-width="1.5" d="M0,-3.0v7 M-2.5,-0.5L0,-3.0L2.5,-0.5"/>
                </g>
                <g id="arrowDown" xlink:href="#dirArrow" transform="rotate(180) translate(-30 -48)" onmousedown="handlePan(0,1)">
                  <use xlink:href="#rim" fill="#404040">
                        <set attributeName="fill" to="#808080" begin="arrowDown.mouseover" end="arrowDown.mouseout"/>
                  </use>
                  <path fill="none" stroke="white" stroke-width="1.5" d="M0,-3.0v7 M-2.5,-0.5L0,-3.0L2.5,-0.5"/>
                </g>
                <g id="arrowLeft" xlink:href="#dirArrow" transform="rotate(270) translate(-36 17)" onmousedown="handlePan(-1,0)">
                  <use xlink:href="#rim" fill="#404040">
                        <set attributeName="fill" to="#808080" begin="arrowLeft.mouseover" end="arrowLeft.mouseout"/>
                  </use>
                  <path fill="none" stroke="white" stroke-width="1.5" d="M0,-3.0v7 M-2.5,-0.5L0,-3.0L2.5,-0.5"/>
                </g>
        </g>
        <svg viewBox="0 0 15 15" width="100%" height="30px" preserveAspectRatio="xMaxYMin meet">
         <g id="arrow_out" transform="scale(0.3 0.3)">
          <a xlink:href="class_cool_board_acba7c5aef7268b2c0044bdb54d3b9d76_cgraph_org.svg" target="_base">
           <rect id="button" ry="5" rx="5" y="6" x="6" height="38" width="38"
                fill="#f2f5e9" fill-opacity="0.5" stroke="#606060" stroke-width="1.0"/>
           <path id="arrow"
             d="M 11.500037,31.436501 C 11.940474,20.09759 22.043105,11.32322 32.158766,21.979434 L 37.068811,17.246167 C 37.068811,17.246167 37.088388,32 37.088388,32 L 22.160133,31.978069 C 22.160133,31.978069 26.997745,27.140456 26.997745,27.140456 C 18.528582,18.264221 13.291696,25.230495 11.500037,31.436501 z"
             style="fill:#404040;"/>
          </a>
         </g>
        </svg>
</svg>
