<?xml version="1.0" encoding="UTF-8" standalone="no"?>
<!DOCTYPE svg PUBLIC "-//W3C//DTD SVG 1.1//EN"
 "http://www.w3.org/Graphics/SVG/1.1/DTD/svg11.dtd">
<!-- Generated by graphviz version 2.38.0 (20140413.2041)
 -->
<!-- Title: CoolBoard::readSensors Pages: 1 -->
<svg width="926pt" height="446pt"
 viewBox="0.00 0.00 926.00 446.00" xmlns="http://www.w3.org/2000/svg" xmlns:xlink="http://www.w3.org/1999/xlink">
<g id="graph0" class="graph" transform="scale(1 1) rotate(0) translate(4 442)">
<title>CoolBoard::readSensors</title>
<polygon fill="white" stroke="none" points="-4,4 -4,-442 922,-442 922,4 -4,4"/>
<!-- Node254 -->
<g id="node1" class="node"><title>Node254</title>
<polygon fill="#bfbfbf" stroke="black" points="0,-209.5 0,-228.5 123,-228.5 123,-209.5 0,-209.5"/>
<text text-anchor="middle" x="61.5" y="-216.5" font-family="Helvetica,sans-Serif" font-size="10.00">CoolBoard::readSensors</text>
</g>
<!-- Node255 -->
<g id="node2" class="node"><title>Node255</title>
<g id="a_node2"><a xlink:href="../../de/dc0/class_cool_board_led.html#ab778f5e7bed0ab74e3906d82110493c3" target="_top" xlink:title="CoolBoardLed::fadeIn">
<polygon fill="white" stroke="black" points="165,-342.5 165,-361.5 276,-361.5 276,-342.5 165,-342.5"/>
<text text-anchor="middle" x="220.5" y="-349.5" font-family="Helvetica,sans-Serif" font-size="10.00">CoolBoardLed::fadeIn</text>
</a>
</g>
</g>
<!-- Node254&#45;&gt;Node255 -->
<g id="edge1" class="edge"><title>Node254&#45;&gt;Node255</title>
<path fill="none" stroke="midnightblue" d="M67.9369,-228.532C80.8556,-250.331 115.585,-304.162 159,-333 162.069,-335.039 165.37,-336.869 168.789,-338.511"/>
<polygon fill="midnightblue" stroke="midnightblue" points="167.467,-341.752 178.04,-342.429 170.197,-335.306 167.467,-341.752"/>
</g>
<!-- Node256 -->
<g id="node3" class="node"><title>Node256</title>
<g id="a_node3"><a xlink:href="../../de/dc0/class_cool_board_led.html#ad5f0de4c628cbfbf49896042831c64ad" target="_top" xlink:title="CoolBoardLed::strobe">
<polygon fill="white" stroke="black" points="165,-304.5 165,-323.5 276,-323.5 276,-304.5 165,-304.5"/>
<text text-anchor="middle" x="220.5" y="-311.5" font-family="Helvetica,sans-Serif" font-size="10.00">CoolBoardLed::strobe</text>
</a>
</g>
</g>
<!-- Node254&#45;&gt;Node256 -->
<g id="edge2" class="edge"><title>Node254&#45;&gt;Node256</title>
<path fill="none" stroke="midnightblue" d="M72.0663,-228.53C88.4983,-244.412 123.734,-276.383 159,-295 163.053,-297.139 167.387,-299.085 171.804,-300.844"/>
<polygon fill="midnightblue" stroke="midnightblue" points="170.935,-304.253 181.529,-304.398 173.338,-297.678 170.935,-304.253"/>
</g>
<!-- Node257 -->
<g id="node4" class="node"><title>Node257</title>
<g id="a_node4"><a xlink:href="../../d7/df9/class_cool_board.html#a397b46fadab8f530a8cf4d914c561366" target="_top" xlink:title="CoolBoard::initReadI2C">
<polygon fill="white" stroke="black" points="160.5,-266.5 160.5,-285.5 280.5,-285.5 280.5,-266.5 160.5,-266.5"/>
<text text-anchor="middle" x="220.5" y="-273.5" font-family="Helvetica,sans-Serif" font-size="10.00">CoolBoard::initReadI2C</text>
</a>
</g>
</g>
<!-- Node254&#45;&gt;Node257 -->
<g id="edge3" class="edge"><title>Node254&#45;&gt;Node257</title>
<path fill="none" stroke="midnightblue" d="M85.3353,-228.521C104.781,-236.501 133.535,-248 159,-257 165.063,-259.143 171.508,-261.297 177.846,-263.345"/>
<polygon fill="midnightblue" stroke="midnightblue" points="177.056,-266.767 187.647,-266.461 179.177,-260.096 177.056,-266.767"/>
</g>
<!-- Node258 -->
<g id="node5" class="node"><title>Node258</title>
<g id="a_node5"><a xlink:href="../../de/d46/class_cool_board_sensors.html#a91badb2539d91fda8679f2a597874c48" target="_top" xlink:title="CoolBoardSensors::read">
<polygon fill="white" stroke="black" points="159,-228.5 159,-247.5 282,-247.5 282,-228.5 159,-228.5"/>
<text text-anchor="middle" x="220.5" y="-235.5" font-family="Helvetica,sans-Serif" font-size="10.00">CoolBoardSensors::read</text>
</a>
</g>
</g>
<!-- Node254&#45;&gt;Node258 -->
<g id="edge4" class="edge"><title>Node254&#45;&gt;Node258</title>
<path fill="none" stroke="midnightblue" d="M123.2,-226.346C131.635,-227.367 140.359,-228.422 148.955,-229.463"/>
<polygon fill="midnightblue" stroke="midnightblue" points="148.613,-232.947 158.961,-230.674 149.454,-225.997 148.613,-232.947"/>
</g>
<!-- Node269 -->
<g id="node16" class="node"><title>Node269</title>
<g id="a_node16"><a xlink:href="../../d1/d2f/class_external_sensors.html#a53177b81eca3be89508b5511ddcd00fc" target="_top" xlink:title="ExternalSensors::read">
<polygon fill="white" stroke="black" points="164,-190.5 164,-209.5 277,-209.5 277,-190.5 164,-190.5"/>
<text text-anchor="middle" x="220.5" y="-197.5" font-family="Helvetica,sans-Serif" font-size="10.00">ExternalSensors::read</text>
</a>
</g>
</g>
<!-- Node254&#45;&gt;Node269 -->
<g id="edge19" class="edge"><title>Node254&#45;&gt;Node269</title>
<path fill="none" stroke="midnightblue" d="M123.2,-211.654C133.231,-210.44 143.672,-209.177 153.818,-207.949"/>
<polygon fill="midnightblue" stroke="midnightblue" points="154.334,-211.412 163.841,-206.736 153.493,-204.463 154.334,-211.412"/>
</g>
<!-- Node270 -->
<g id="node17" class="node"><title>Node270</title>
<g id="a_node17"><a xlink:href="../../d6/d03/class_irene3000.html#a852a170feea994ea1df01c6b245b5d9a" target="_top" xlink:title="Irene3000::read">
<polygon fill="white" stroke="black" points="178.5,-114.5 178.5,-133.5 262.5,-133.5 262.5,-114.5 178.5,-114.5"/>
<text text-anchor="middle" x="220.5" y="-121.5" font-family="Helvetica,sans-Serif" font-size="10.00">Irene3000::read</text>
</a>
</g>
</g>
<!-- Node254&#45;&gt;Node270 -->
<g id="edge20" class="edge"><title>Node254&#45;&gt;Node270</title>
<path fill="none" stroke="midnightblue" d="M78.418,-209.368C105.806,-192.796 162.034,-158.772 194.629,-139.049"/>
<polygon fill="midnightblue" stroke="midnightblue" points="196.796,-141.829 203.54,-133.657 193.172,-135.84 196.796,-141.829"/>
</g>
<!-- Node281 -->
<g id="node28" class="node"><title>Node281</title>
<g id="a_node28"><a xlink:href="../../d6/d49/class_cool_time.html#a7a7501c5ca77dd1248bea704c44f986c" target="_top" xlink:title="CoolTime::getTimeDate">
<polygon fill="white" stroke="black" points="160,-76.5 160,-95.5 281,-95.5 281,-76.5 160,-76.5"/>
<text text-anchor="middle" x="220.5" y="-83.5" font-family="Helvetica,sans-Serif" font-size="10.00">CoolTime::getTimeDate</text>
</a>
</g>
</g>
<!-- Node254&#45;&gt;Node281 -->
<g id="edge36" class="edge"><title>Node254&#45;&gt;Node281</title>
<path fill="none" stroke="midnightblue" d="M67.9369,-209.468C80.8556,-187.669 115.585,-133.838 159,-105 162.069,-102.961 165.37,-101.131 168.789,-99.4892"/>
<polygon fill="midnightblue" stroke="midnightblue" points="170.197,-102.694 178.04,-95.5707 167.467,-96.2484 170.197,-102.694"/>
</g>
<!-- Node283 -->
<g id="node30" class="node"><title>Node283</title>
<g id="a_node30"><a xlink:href="../../de/dc0/class_cool_board_led.html#a93d545679237e8cc858324367149775c" target="_top" xlink:title="CoolBoardLed::fadeOut">
<polygon fill="white" stroke="black" points="161,-38.5 161,-57.5 280,-57.5 280,-38.5 161,-38.5"/>
<text text-anchor="middle" x="220.5" y="-45.5" font-family="Helvetica,sans-Serif" font-size="10.00">CoolBoardLed::fadeOut</text>
</a>
</g>
</g>
<!-- Node254&#45;&gt;Node283 -->
<g id="edge38" class="edge"><title>Node254&#45;&gt;Node283</title>
<path fill="none" stroke="midnightblue" d="M65.9662,-209.148C75.9553,-182.19 107.428,-106.591 159,-67 161.453,-65.1166 164.097,-63.4178 166.859,-61.8857"/>
<polygon fill="midnightblue" stroke="midnightblue" points="168.472,-64.9944 175.999,-57.5381 165.465,-58.6731 168.472,-64.9944"/>
</g>
<!-- Node259 -->
<g id="node6" class="node"><title>Node259</title>
<g id="a_node6"><a xlink:href="../../dd/d67/class_cool_s_i114_x.html#a42e0e574256341443c647a4c0eda87d5" target="_top" xlink:title="CoolSI114X::ReadVisible">
<polygon fill="white" stroke="black" points="334.5,-228.5 334.5,-247.5 462.5,-247.5 462.5,-228.5 334.5,-228.5"/>
<text text-anchor="middle" x="398.5" y="-235.5" font-family="Helvetica,sans-Serif" font-size="10.00">CoolSI114X::ReadVisible</text>
</a>
</g>
</g>
<!-- Node258&#45;&gt;Node259 -->
<g id="edge5" class="edge"><title>Node258&#45;&gt;Node259</title>
<path fill="none" stroke="midnightblue" d="M282.069,-238C295.672,-238 310.245,-238 324.301,-238"/>
<polygon fill="midnightblue" stroke="midnightblue" points="324.422,-241.5 334.422,-238 324.422,-234.5 324.422,-241.5"/>
</g>
<!-- Node261 -->
<g id="node8" class="node"><title>Node261</title>
<g id="a_node8"><a xlink:href="../../dd/d67/class_cool_s_i114_x.html#abc536ee7ae8e3ba9d1069acc3889a2cf" target="_top" xlink:title="CoolSI114X::ReadIR">
<polygon fill="white" stroke="black" points="344,-190.5 344,-209.5 453,-209.5 453,-190.5 344,-190.5"/>
<text text-anchor="middle" x="398.5" y="-197.5" font-family="Helvetica,sans-Serif" font-size="10.00">CoolSI114X::ReadIR</text>
</a>
</g>
</g>
<!-- Node258&#45;&gt;Node261 -->
<g id="edge7" class="edge"><title>Node258&#45;&gt;Node261</title>
<path fill="none" stroke="midnightblue" d="M265.912,-228.411C289.451,-223.329 318.557,-217.045 343.405,-211.68"/>
<polygon fill="midnightblue" stroke="midnightblue" points="344.371,-215.052 353.407,-209.52 342.894,-208.209 344.371,-215.052"/>
</g>
<!-- Node262 -->
<g id="node9" class="node"><title>Node262</title>
<g id="a_node9"><a xlink:href="../../dd/d67/class_cool_s_i114_x.html#a14ced664d74e93438440b0274109c111" target="_top" xlink:title="CoolSI114X::ReadUV">
<polygon fill="white" stroke="black" points="342,-152.5 342,-171.5 455,-171.5 455,-152.5 342,-152.5"/>
<text text-anchor="middle" x="398.5" y="-159.5" font-family="Helvetica,sans-Serif" font-size="10.00">CoolSI114X::ReadUV</text>
</a>
</g>
</g>
<!-- Node258&#45;&gt;Node262 -->
<g id="edge9" class="edge"><title>Node258&#45;&gt;Node262</title>
<path fill="none" stroke="midnightblue" d="M261.826,-228.499C268.831,-225.977 275.837,-222.85 282,-219 301.731,-206.675 297.851,-192.63 318,-181 322.419,-178.449 327.164,-176.24 332.058,-174.328"/>
<polygon fill="midnightblue" stroke="midnightblue" points="333.312,-177.597 341.604,-171.002 331.009,-170.987 333.312,-177.597"/>
</g>
<!-- Node263 -->
<g id="node10" class="node"><title>Node263</title>
<g id="a_node10"><a xlink:href="../../df/dcf/class_b_m_e280.html#ada6e799917afb4f228e6253bc56ffe75" target="_top" xlink:title="BME280::readFloatPressure">
<polygon fill="white" stroke="black" points="328.5,-266.5 328.5,-285.5 468.5,-285.5 468.5,-266.5 328.5,-266.5"/>
<text text-anchor="middle" x="398.5" y="-273.5" font-family="Helvetica,sans-Serif" font-size="10.00">BME280::readFloatPressure</text>
</a>
</g>
</g>
<!-- Node258&#45;&gt;Node263 -->
<g id="edge11" class="edge"><title>Node258&#45;&gt;Node263</title>
<path fill="none" stroke="midnightblue" d="M265.912,-247.589C289.451,-252.671 318.557,-258.955 343.405,-264.32"/>
<polygon fill="midnightblue" stroke="midnightblue" points="342.894,-267.791 353.407,-266.48 344.371,-260.948 342.894,-267.791"/>
</g>
<!-- Node265 -->
<g id="node12" class="node"><title>Node265</title>
<g id="a_node12"><a xlink:href="../../df/dcf/class_b_m_e280.html#a42ea7232039eebf5aadb391ef6132c35" target="_top" xlink:title="BME280::readFloatHumidity">
<polygon fill="white" stroke="black" points="328.5,-418.5 328.5,-437.5 468.5,-437.5 468.5,-418.5 328.5,-418.5"/>
<text text-anchor="middle" x="398.5" y="-425.5" font-family="Helvetica,sans-Serif" font-size="10.00">BME280::readFloatHumidity</text>
</a>
</g>
</g>
<!-- Node258&#45;&gt;Node265 -->
<g id="edge13" class="edge"><title>Node258&#45;&gt;Node265</title>
<path fill="none" stroke="midnightblue" d="M269.287,-247.586C274.023,-250.046 278.4,-253.132 282,-257 329.298,-307.819 268.96,-359.86 318,-409 319.428,-410.431 320.944,-411.762 322.533,-412.999"/>
<polygon fill="midnightblue" stroke="midnightblue" points="320.713,-415.99 331.022,-418.435 324.488,-410.095 320.713,-415.99"/>
</g>
<!-- Node266 -->
<g id="node13" class="node"><title>Node266</title>
<g id="a_node13"><a xlink:href="../../df/dcf/class_b_m_e280.html#afffdd1d7ded9e1f92200e70669019d97" target="_top" xlink:title="BME280::readTempC">
<polygon fill="white" stroke="black" points="343,-380.5 343,-399.5 454,-399.5 454,-380.5 343,-380.5"/>
<text text-anchor="middle" x="398.5" y="-387.5" font-family="Helvetica,sans-Serif" font-size="10.00">BME280::readTempC</text>
</a>
</g>
</g>
<!-- Node258&#45;&gt;Node266 -->
<g id="edge15" class="edge"><title>Node258&#45;&gt;Node266</title>
<path fill="none" stroke="midnightblue" d="M268.411,-247.554C273.423,-250.016 278.105,-253.111 282,-257 319.6,-294.541 279.114,-334.792 318,-371 322.458,-375.151 327.655,-378.444 333.22,-381.05"/>
<polygon fill="midnightblue" stroke="midnightblue" points="332.276,-384.439 342.864,-384.818 334.823,-377.919 332.276,-384.439"/>
</g>
<!-- Node267 -->
<g id="node14" class="node"><title>Node267</title>
<g id="a_node14"><a xlink:href="../../de/d46/class_cool_board_sensors.html#a6944b6ea7bce8e2fce1b434acfd9d5f3" target="_top" xlink:title="CoolBoardSensors::readVBat">
<polygon fill="white" stroke="black" points="326,-342.5 326,-361.5 471,-361.5 471,-342.5 326,-342.5"/>
<text text-anchor="middle" x="398.5" y="-349.5" font-family="Helvetica,sans-Serif" font-size="10.00">CoolBoardSensors::readVBat</text>
</a>
</g>
</g>
<!-- Node258&#45;&gt;Node267 -->
<g id="edge17" class="edge"><title>Node258&#45;&gt;Node267</title>
<path fill="none" stroke="midnightblue" d="M266.685,-247.529C272.232,-249.994 277.516,-253.096 282,-257 310.189,-281.542 288.973,-309.455 318,-333 320.073,-334.682 322.271,-336.219 324.564,-337.624"/>
<polygon fill="midnightblue" stroke="midnightblue" points="323.327,-340.925 333.817,-342.412 326.544,-334.708 323.327,-340.925"/>
</g>
<!-- Node268 -->
<g id="node15" class="node"><title>Node268</title>
<g id="a_node15"><a xlink:href="../../de/d46/class_cool_board_sensors.html#a8761bff50373c485f4465c8db47d0633" target="_top" xlink:title="CoolBoardSensors::readMoisture">
<polygon fill="white" stroke="black" points="318,-304.5 318,-323.5 479,-323.5 479,-304.5 318,-304.5"/>
<text text-anchor="middle" x="398.5" y="-311.5" font-family="Helvetica,sans-Serif" font-size="10.00">CoolBoardSensors::readMoisture</text>
</a>
</g>
</g>
<!-- Node258&#45;&gt;Node268 -->
<g id="edge18" class="edge"><title>Node258&#45;&gt;Node268</title>
<path fill="none" stroke="midnightblue" d="M261.826,-247.501C268.831,-250.023 275.837,-253.15 282,-257 301.731,-269.325 297.851,-283.37 318,-295 321.908,-297.256 326.072,-299.244 330.367,-300.997"/>
<polygon fill="midnightblue" stroke="midnightblue" points="329.339,-304.347 339.933,-304.47 331.728,-297.768 329.339,-304.347"/>
</g>
<!-- Node260 -->
<g id="node7" class="node"><title>Node260</title>
<g id="a_node7"><a xlink:href="../../dd/d67/class_cool_s_i114_x.html#a1d25c9e137874af529804c2ec796a6b9" target="_top" xlink:title="CoolSI114X::ReadHalfWord">
<polygon fill="white" stroke="black" points="517,-190.5 517,-209.5 657,-209.5 657,-190.5 517,-190.5"/>
<text text-anchor="middle" x="587" y="-197.5" font-family="Helvetica,sans-Serif" font-size="10.00">CoolSI114X::ReadHalfWord</text>
</a>
</g>
</g>
<!-- Node259&#45;&gt;Node260 -->
<g id="edge6" class="edge"><title>Node259&#45;&gt;Node260</title>
<path fill="none" stroke="midnightblue" d="M446.562,-228.411C471.727,-223.284 502.896,-216.933 529.379,-211.537"/>
<polygon fill="midnightblue" stroke="midnightblue" points="530.177,-214.946 539.277,-209.52 528.779,-208.087 530.177,-214.946"/>
</g>
<!-- Node261&#45;&gt;Node260 -->
<g id="edge8" class="edge"><title>Node261&#45;&gt;Node260</title>
<path fill="none" stroke="midnightblue" d="M453.193,-200C469.822,-200 488.511,-200 506.502,-200"/>
<polygon fill="midnightblue" stroke="midnightblue" points="506.699,-203.5 516.699,-200 506.699,-196.5 506.699,-203.5"/>
</g>
<!-- Node262&#45;&gt;Node260 -->
<g id="edge10" class="edge"><title>Node262&#45;&gt;Node260</title>
<path fill="none" stroke="midnightblue" d="M446.562,-171.589C471.727,-176.716 502.896,-183.067 529.379,-188.463"/>
<polygon fill="midnightblue" stroke="midnightblue" points="528.779,-191.913 539.277,-190.48 530.177,-185.054 528.779,-191.913"/>
</g>
<!-- Node264 -->
<g id="node11" class="node"><title>Node264</title>
<g id="a_node11"><a xlink:href="../../df/dcf/class_b_m_e280.html#a1bbd14c8591966df531e40085342ff71" target="_top" xlink:title="BME280::readRegister">
<polygon fill="white" stroke="black" points="529,-380.5 529,-399.5 645,-399.5 645,-380.5 529,-380.5"/>
<text text-anchor="middle" x="587" y="-387.5" font-family="Helvetica,sans-Serif" font-size="10.00">BME280::readRegister</text>
</a>
</g>
</g>
<!-- Node263&#45;&gt;Node264 -->
<g id="edge12" class="edge"><title>Node263&#45;&gt;Node264</title>
<path fill="none" stroke="midnightblue" d="M455.087,-285.565C463.35,-288.037 471.575,-291.131 479,-295 517.12,-314.861 552.591,-351.274 571.58,-372.791"/>
<polygon fill="midnightblue" stroke="midnightblue" points="569.052,-375.219 578.238,-380.498 574.349,-370.643 569.052,-375.219"/>
</g>
<!-- Node265&#45;&gt;Node264 -->
<g id="edge14" class="edge"><title>Node265&#45;&gt;Node264</title>
<path fill="none" stroke="midnightblue" d="M446.562,-418.411C471.727,-413.284 502.896,-406.933 529.379,-401.537"/>
<polygon fill="midnightblue" stroke="midnightblue" points="530.177,-404.946 539.277,-399.52 528.779,-398.087 530.177,-404.946"/>
</g>
<!-- Node266&#45;&gt;Node264 -->
<g id="edge16" class="edge"><title>Node266&#45;&gt;Node264</title>
<path fill="none" stroke="midnightblue" d="M454.196,-390C474.332,-390 497.379,-390 518.511,-390"/>
<polygon fill="midnightblue" stroke="midnightblue" points="518.71,-393.5 528.71,-390 518.71,-386.5 518.71,-393.5"/>
</g>
<!-- Node271 -->
<g id="node18" class="node"><title>Node271</title>
<g id="a_node18"><a xlink:href="../../d6/d03/class_irene3000.html#a80bc6dfea106dc3bc54fa20204d4d5dc" target="_top" xlink:title="Irene3000::readTemp">
<polygon fill="white" stroke="black" points="344,-114.5 344,-133.5 453,-133.5 453,-114.5 344,-114.5"/>
<text text-anchor="middle" x="398.5" y="-121.5" font-family="Helvetica,sans-Serif" font-size="10.00">Irene3000::readTemp</text>
</a>
</g>
</g>
<!-- Node270&#45;&gt;Node271 -->
<g id="edge21" class="edge"><title>Node270&#45;&gt;Node271</title>
<path fill="none" stroke="midnightblue" d="M262.764,-124C283.828,-124 309.925,-124 333.526,-124"/>
<polygon fill="midnightblue" stroke="midnightblue" points="333.815,-127.5 343.815,-124 333.815,-120.5 333.815,-127.5"/>
</g>
<!-- Node279 -->
<g id="node26" class="node"><title>Node279</title>
<g id="a_node26"><a xlink:href="../../d6/d03/class_irene3000.html#a436fc0a06681cd0784aba56b9707f19a" target="_top" xlink:title="Irene3000::readPh">
<polygon fill="white" stroke="black" points="350.5,-76.5 350.5,-95.5 446.5,-95.5 446.5,-76.5 350.5,-76.5"/>
<text text-anchor="middle" x="398.5" y="-83.5" font-family="Helvetica,sans-Serif" font-size="10.00">Irene3000::readPh</text>
</a>
</g>
</g>
<!-- Node270&#45;&gt;Node279 -->
<g id="edge30" class="edge"><title>Node270&#45;&gt;Node279</title>
<path fill="none" stroke="midnightblue" d="M262.764,-115.091C286.803,-109.901 317.396,-103.295 343.352,-97.691"/>
<polygon fill="midnightblue" stroke="midnightblue" points="344.382,-101.049 353.418,-95.5178 342.904,-94.2071 344.382,-101.049"/>
</g>
<!-- Node280 -->
<g id="node27" class="node"><title>Node280</title>
<g id="a_node27"><a xlink:href="../../d6/d03/class_irene3000.html#ae73bd2ed14a199a7e83f4d6458476a7c" target="_top" xlink:title="Irene3000::readADSChannel2">
<polygon fill="white" stroke="black" points="325.5,-38.5 325.5,-57.5 471.5,-57.5 471.5,-38.5 325.5,-38.5"/>
<text text-anchor="middle" x="398.5" y="-45.5" font-family="Helvetica,sans-Serif" font-size="10.00">Irene3000::readADSChannel2</text>
</a>
</g>
</g>
<!-- Node270&#45;&gt;Node280 -->
<g id="edge33" class="edge"><title>Node270&#45;&gt;Node280</title>
<path fill="none" stroke="midnightblue" d="M261.826,-114.499C268.831,-111.977 275.837,-108.85 282,-105 301.731,-92.6746 297.851,-78.6304 318,-67 321.908,-64.7442 326.072,-62.7557 330.367,-61.0029"/>
<polygon fill="midnightblue" stroke="midnightblue" points="331.728,-64.2324 339.933,-57.5297 329.339,-57.6526 331.728,-64.2324"/>
</g>
<!-- Node272 -->
<g id="node19" class="node"><title>Node272</title>
<g id="a_node19"><a xlink:href="../../d6/d03/class_irene3000.html#aff7c5da186b388e7272e63ff88a20c34" target="_top" xlink:title="Irene3000::setGain">
<polygon fill="white" stroke="black" points="537.5,-98.5 537.5,-117.5 636.5,-117.5 636.5,-98.5 537.5,-98.5"/>
<text text-anchor="middle" x="587" y="-105.5" font-family="Helvetica,sans-Serif" font-size="10.00">Irene3000::setGain</text>
</a>
</g>
</g>
<!-- Node271&#45;&gt;Node272 -->
<g id="edge22" class="edge"><title>Node271&#45;&gt;Node272</title>
<path fill="none" stroke="midnightblue" d="M453.193,-119.394C476.346,-117.407 503.493,-115.078 527.189,-113.045"/>
<polygon fill="midnightblue" stroke="midnightblue" points="527.793,-116.507 537.457,-112.165 527.195,-109.532 527.793,-116.507"/>
</g>
<!-- Node274 -->
<g id="node21" class="node"><title>Node274</title>
<g id="a_node21"><a xlink:href="../../df/df6/class_adafruit___a_d_s1015.html#a40f38b9e1f3ec397c0670dd632510235" target="_top" xlink:title="Gets a single&#45;ended ADC reading from the specified channel. ">
<polygon fill="white" stroke="black" points="515,-49 515,-79 659,-79 659,-49 515,-49"/>
<text text-anchor="start" x="523" y="-67" font-family="Helvetica,sans-Serif" font-size="10.00">Adafruit_ADS1015::readADC</text>
<text text-anchor="middle" x="587" y="-56" font-family="Helvetica,sans-Serif" font-size="10.00">_SingleEnded</text>
</a>
</g>
</g>
<!-- Node271&#45;&gt;Node274 -->
<g id="edge24" class="edge"><title>Node271&#45;&gt;Node274</title>
<path fill="none" stroke="midnightblue" d="M445.732,-114.467C456.745,-111.78 468.381,-108.595 479,-105 495.585,-99.3858 498.73,-95.4683 515,-89 520.446,-86.8351 526.162,-84.6615 531.887,-82.5487"/>
<polygon fill="midnightblue" stroke="midnightblue" points="533.281,-85.7665 541.485,-79.0627 530.891,-79.1871 533.281,-85.7665"/>
</g>
<!-- Node273 -->
<g id="node20" class="node"><title>Node273</title>
<g id="a_node20"><a xlink:href="../../df/df6/class_adafruit___a_d_s1015.html#a399441eace686975ff22937cbe45cc50" target="_top" xlink:title="Sets the gain and input voltage range. ">
<polygon fill="white" stroke="black" points="695,-98.5 695,-117.5 832,-117.5 832,-98.5 695,-98.5"/>
<text text-anchor="middle" x="763.5" y="-105.5" font-family="Helvetica,sans-Serif" font-size="10.00">Adafruit_ADS1015::setGain</text>
</a>
</g>
</g>
<!-- Node272&#45;&gt;Node273 -->
<g id="edge23" class="edge"><title>Node272&#45;&gt;Node273</title>
<path fill="none" stroke="midnightblue" d="M636.608,-108C651.557,-108 668.402,-108 684.793,-108"/>
<polygon fill="midnightblue" stroke="midnightblue" points="684.919,-111.5 694.919,-108 684.919,-104.5 684.919,-111.5"/>
</g>
<!-- Node275 -->
<g id="node22" class="node"><title>Node275</title>
<g id="a_node22"><a xlink:href="../../d8/daa/_cool_adafruit___a_d_s1015_8cpp.html#a00ef55774dfb93dd0a7bf561d8451b71" target="_top" xlink:title="Writes 16&#45;bits to the specified destination register. ">
<polygon fill="white" stroke="black" points="726.5,-19.5 726.5,-38.5 800.5,-38.5 800.5,-19.5 726.5,-19.5"/>
<text text-anchor="middle" x="763.5" y="-26.5" font-family="Helvetica,sans-Serif" font-size="10.00">writeRegister</text>
</a>
</g>
</g>
<!-- Node274&#45;&gt;Node275 -->
<g id="edge25" class="edge"><title>Node274&#45;&gt;Node275</title>
<path fill="none" stroke="midnightblue" d="M659.228,-49.7137C678.45,-45.8582 698.746,-41.7873 716.211,-38.2844"/>
<polygon fill="midnightblue" stroke="midnightblue" points="717.02,-41.6918 726.136,-36.2935 715.643,-34.8285 717.02,-41.6918"/>
</g>
<!-- Node277 -->
<g id="node24" class="node"><title>Node277</title>
<g id="a_node24"><a xlink:href="../../d8/daa/_cool_adafruit___a_d_s1015_8cpp.html#a319539381b7551b2f83a92b0b596e97d" target="_top" xlink:title="Writes 16&#45;bits to the specified destination register. ">
<polygon fill="white" stroke="black" points="727.5,-57.5 727.5,-76.5 799.5,-76.5 799.5,-57.5 727.5,-57.5"/>
<text text-anchor="middle" x="763.5" y="-64.5" font-family="Helvetica,sans-Serif" font-size="10.00">readRegister</text>
</a>
</g>
</g>
<!-- Node274&#45;&gt;Node277 -->
<g id="edge27" class="edge"><title>Node274&#45;&gt;Node277</title>
<path fill="none" stroke="midnightblue" d="M659.228,-65.2245C678.765,-65.5604 699.412,-65.9154 717.067,-66.2189"/>
<polygon fill="midnightblue" stroke="midnightblue" points="717.027,-69.7186 727.085,-66.3912 717.147,-62.7197 717.027,-69.7186"/>
</g>
<!-- Node276 -->
<g id="node23" class="node"><title>Node276</title>
<g id="a_node23"><a xlink:href="../../d8/daa/_cool_adafruit___a_d_s1015_8cpp.html#a6db5edba66e20bba6d5b421c2789af54" target="_top" xlink:title="Abstract away platform differences in Arduino wire library. ">
<polygon fill="white" stroke="black" points="868,-19.5 868,-38.5 918,-38.5 918,-19.5 868,-19.5"/>
<text text-anchor="middle" x="893" y="-26.5" font-family="Helvetica,sans-Serif" font-size="10.00">i2cwrite</text>
</a>
</g>
</g>
<!-- Node275&#45;&gt;Node276 -->
<g id="edge26" class="edge"><title>Node275&#45;&gt;Node276</title>
<path fill="none" stroke="midnightblue" d="M800.695,-29C818.498,-29 839.851,-29 857.43,-29"/>
<polygon fill="midnightblue" stroke="midnightblue" points="857.821,-32.5001 867.821,-29 857.821,-25.5001 857.821,-32.5001"/>
</g>
<!-- Node277&#45;&gt;Node276 -->
<g id="edge28" class="edge"><title>Node277&#45;&gt;Node276</title>
<path fill="none" stroke="midnightblue" d="M799.248,-57.4506C809.788,-54.4917 821.386,-51.1735 832,-48 840.502,-45.4579 849.649,-42.6163 858.176,-39.9213"/>
<polygon fill="midnightblue" stroke="midnightblue" points="859.356,-43.2187 867.824,-36.8515 857.234,-36.5481 859.356,-43.2187"/>
</g>
<!-- Node278 -->
<g id="node25" class="node"><title>Node278</title>
<g id="a_node25"><a xlink:href="../../d8/daa/_cool_adafruit___a_d_s1015_8cpp.html#af89e2442d757f6ec8100c473022f6701" target="_top" xlink:title="Abstract away platform differences in Arduino wire library. ">
<polygon fill="white" stroke="black" points="869,-57.5 869,-76.5 917,-76.5 917,-57.5 869,-57.5"/>
<text text-anchor="middle" x="893" y="-64.5" font-family="Helvetica,sans-Serif" font-size="10.00">i2cread</text>
</a>
</g>
</g>
<!-- Node277&#45;&gt;Node278 -->
<g id="edge29" class="edge"><title>Node277&#45;&gt;Node278</title>
<path fill="none" stroke="midnightblue" d="M799.677,-67C818.162,-67 840.688,-67 858.862,-67"/>
<polygon fill="midnightblue" stroke="midnightblue" points="858.996,-70.5001 868.996,-67 858.996,-63.5001 858.996,-70.5001"/>
</g>
<!-- Node279&#45;&gt;Node272 -->
<g id="edge31" class="edge"><title>Node279&#45;&gt;Node272</title>
<path fill="none" stroke="midnightblue" d="M446.562,-91.5515C471.044,-94.4396 501.21,-97.9979 527.214,-101.065"/>
<polygon fill="midnightblue" stroke="midnightblue" points="526.985,-104.563 537.327,-102.258 527.805,-97.6109 526.985,-104.563"/>
</g>
<!-- Node279&#45;&gt;Node274 -->
<g id="edge32" class="edge"><title>Node279&#45;&gt;Node274</title>
<path fill="none" stroke="midnightblue" d="M446.562,-80.4485C464.286,-78.3577 484.988,-75.9156 504.934,-73.5628"/>
<polygon fill="midnightblue" stroke="midnightblue" points="505.439,-77.0275 514.96,-72.38 504.619,-70.0757 505.439,-77.0275"/>
</g>
<!-- Node280&#45;&gt;Node272 -->
<g id="edge34" class="edge"><title>Node280&#45;&gt;Node272</title>
<path fill="none" stroke="midnightblue" d="M449.395,-57.5517C459.369,-60.1191 469.648,-63.2503 479,-67 496.193,-73.8936 497.949,-80.7641 515,-88 521.416,-90.7225 528.312,-93.1913 535.195,-95.3913"/>
<polygon fill="midnightblue" stroke="midnightblue" points="534.627,-98.876 545.212,-98.4203 536.654,-92.1757 534.627,-98.876"/>
</g>
<!-- Node280&#45;&gt;Node274 -->
<g id="edge35" class="edge"><title>Node280&#45;&gt;Node274</title>
<path fill="none" stroke="midnightblue" d="M471.606,-54.186C482.436,-55.1151 493.667,-56.0787 504.674,-57.0229"/>
<polygon fill="midnightblue" stroke="midnightblue" points="504.438,-60.5155 514.7,-57.8831 505.036,-53.5411 504.438,-60.5155"/>
</g>
<!-- Node282 -->
<g id="node29" class="node"><title>Node282</title>
<g id="a_node29"><a xlink:href="../../d6/d49/class_cool_time.html#acd537cd4210d7bde4e1f5c47d2ac0456" target="_top" xlink:title="CoolTime::formatDigits">
<polygon fill="white" stroke="black" points="339.5,-0.5 339.5,-19.5 457.5,-19.5 457.5,-0.5 339.5,-0.5"/>
<text text-anchor="middle" x="398.5" y="-7.5" font-family="Helvetica,sans-Serif" font-size="10.00">CoolTime::formatDigits</text>
</a>
</g>
</g>
<!-- Node281&#45;&gt;Node282 -->
<g id="edge37" class="edge"><title>Node281&#45;&gt;Node282</title>
<path fill="none" stroke="midnightblue" d="M261.826,-76.4989C268.831,-73.977 275.837,-70.8495 282,-67 301.731,-54.6746 297.851,-40.6304 318,-29 321.908,-26.7442 326.072,-24.7557 330.367,-23.0029"/>
<polygon fill="midnightblue" stroke="midnightblue" points="331.728,-26.2324 339.933,-19.5297 329.339,-19.6526 331.728,-26.2324"/>
</g>
</g>
</svg>
