<?xml version="1.0" encoding="UTF-8" standalone="no"?>
<!DOCTYPE svg PUBLIC "-//W3C//DTD SVG 1.1//EN"
 "http://www.w3.org/Graphics/SVG/1.1/DTD/svg11.dtd">
<!-- Generated by graphviz version 2.38.0 (20140413.2041)
 -->
<!-- Title: CoolBoard::update Pages: 1 -->
<!--zoomable 306 -->
<svg id="main" version="1.1" xmlns="http://www.w3.org/2000/svg" xmlns:xlink="http://www.w3.org/1999/xlink" xml:space="preserve" onload="init(evt)">
<style type="text/css"><![CDATA[
.edge:hover path { stroke: red; }
.edge:hover polygon { stroke: red; fill: red; }
]]></style>
<script type="text/javascript"><![CDATA[
var edges = document.getElementsByTagName('g');
if (edges && edges.length) {
  for (var i=0;i<edges.length;i++) {
    if (edges[i].id.substr(0,4)=='edge') {
      edges[i].setAttribute('class','edge');
    }
  }
}
]]></script>
        <defs>
                <circle id="rim" cx="0" cy="0" r="7"/>
                <circle id="rim2" cx="0" cy="0" r="3.5"/>
                <g id="zoomPlus">
                        <use xlink:href="#rim" fill="#404040">
                                <set attributeName="fill" to="#808080" begin="zoomplus.mouseover" end="zoomplus.mouseout"/>
                        </use>
                        <path d="M-4,0h8M0,-4v8" fill="none" stroke="white" stroke-width="1.5" pointer-events="none"/>
                </g>
                <g id="zoomMin">
                        <use xlink:href="#rim" fill="#404040">
                                <set attributeName="fill" to="#808080" begin="zoomminus.mouseover" end="zoomminus.mouseout"/>
                        </use>
                        <path d="M-4,0h8" fill="none" stroke="white" stroke-width="1.5" pointer-events="none"/>
                </g>
                <g id="dirArrow">
                        <path fill="none" stroke="white" stroke-width="1.5" d="M0,-3.0v7 M-2.5,-0.5L0,-3.0L2.5,-0.5"/>
                </g>
               <g id="resetDef">
                       <use xlink:href="#rim2" fill="#404040">
                               <set attributeName="fill" to="#808080" begin="reset.mouseover" end="reset.mouseout"/>
                       </use>
               </g>
        </defs>

<script type="text/javascript">
var viewWidth = 831;
var viewHeight = 306;
var sectionId = 'dynsection-13';
</script>
<script xlink:href="../../svgpan.js"/>
<svg id="graph" class="graph">
<g id="viewport">
<title>CoolBoard::update</title>
<polygon fill="white" stroke="none" points="-4,4 -4,-302 827,-302 827,4 -4,4"/>
<!-- Node301 -->
<g id="node1" class="node"><title>Node301</title>
<polygon fill="#bfbfbf" stroke="black" points="0,-136.5 0,-155.5 98,-155.5 98,-136.5 0,-136.5"/>
<text text-anchor="middle" x="49" y="-143.5" font-family="Helvetica,sans-Serif" font-size="10.00">CoolBoard::update</text>
</g>
<!-- Node302 -->
<g id="node2" class="node"><title>Node302</title>
<g id="a_node2"><a xlink:href="../../de/dc0/class_cool_board_led.html#ab778f5e7bed0ab74e3906d82110493c3" target="_top" xlink:title="CoolBoardLed::fadeIn">
<polygon fill="white" stroke="black" points="153.5,-278.5 153.5,-297.5 264.5,-297.5 264.5,-278.5 153.5,-278.5"/>
<text text-anchor="middle" x="209" y="-285.5" font-family="Helvetica,sans-Serif" font-size="10.00">CoolBoardLed::fadeIn</text>
</a>
</g>
</g>
<!-- Node301&#45;&gt;Node302 -->
<g id="edge1" class="edge"><title>Node301&#45;&gt;Node302</title>
<path fill="none" stroke="midnightblue" d="M53.7836,-155.758C63.3838,-179.18 91.0184,-238.865 134,-269 137.116,-271.184 140.462,-273.118 143.949,-274.829"/>
<polygon fill="midnightblue" stroke="midnightblue" points="142.871,-278.174 153.443,-278.86 145.606,-271.73 142.871,-278.174"/>
</g>
<!-- Node303 -->
<g id="node3" class="node"><title>Node303</title>
<g id="a_node3"><a xlink:href="../../df/d1d/class_jetpack.html#a79ae7bc3c1828a0551a7c005c4f8bd00" target="_top" xlink:title="Jetpack::writeBit">
<polygon fill="white" stroke="black" points="164,-240.5 164,-259.5 254,-259.5 254,-240.5 164,-240.5"/>
<text text-anchor="middle" x="209" y="-247.5" font-family="Helvetica,sans-Serif" font-size="10.00">Jetpack::writeBit</text>
</a>
</g>
</g>
<!-- Node301&#45;&gt;Node303 -->
<g id="edge2" class="edge"><title>Node301&#45;&gt;Node303</title>
<path fill="none" stroke="midnightblue" d="M56.6482,-155.562C69.4786,-173.268 99.4571,-211.161 134,-231 140.247,-234.588 147.174,-237.508 154.212,-239.883"/>
<polygon fill="midnightblue" stroke="midnightblue" points="153.238,-243.245 163.823,-242.795 155.268,-236.546 153.238,-243.245"/>
</g>
<!-- Node304 -->
<g id="node4" class="node"><title>Node304</title>
<g id="a_node4"><a xlink:href="../../dc/d69/class_cool_board_actor.html#a958786ff01ea1056ee72c72d439f86da" target="_top" xlink:title="CoolBoardActor::write">
<polygon fill="white" stroke="black" points="152.5,-202.5 152.5,-221.5 265.5,-221.5 265.5,-202.5 152.5,-202.5"/>
<text text-anchor="middle" x="209" y="-209.5" font-family="Helvetica,sans-Serif" font-size="10.00">CoolBoardActor::write</text>
</a>
</g>
</g>
<!-- Node301&#45;&gt;Node304 -->
<g id="edge3" class="edge"><title>Node301&#45;&gt;Node304</title>
<path fill="none" stroke="midnightblue" d="M64.2971,-155.52C80.5723,-165.99 108.246,-182.692 134,-193 140.205,-195.484 146.835,-197.726 153.481,-199.725"/>
<polygon fill="midnightblue" stroke="midnightblue" points="152.608,-203.115 163.183,-202.481 154.52,-196.382 152.608,-203.115"/>
</g>
<!-- Node305 -->
<g id="node5" class="node"><title>Node305</title>
<g id="a_node5"><a xlink:href="../../db/d0c/class_cool_file_system.html#adfa8e2e80641ae6f0cceabd348a9b841" target="_top" xlink:title="CoolFileSystem::updateConfig\lFiles">
<polygon fill="white" stroke="black" points="134,-153 134,-183 284,-183 284,-153 134,-153"/>
<text text-anchor="start" x="142" y="-171" font-family="Helvetica,sans-Serif" font-size="10.00">CoolFileSystem::updateConfig</text>
<text text-anchor="middle" x="209" y="-160" font-family="Helvetica,sans-Serif" font-size="10.00">Files</text>
</a>
</g>
</g>
<!-- Node301&#45;&gt;Node305 -->
<g id="edge4" class="edge"><title>Node301&#45;&gt;Node305</title>
<path fill="none" stroke="midnightblue" d="M98.2637,-152.72C106.44,-153.859 115.136,-155.07 123.917,-156.292"/>
<polygon fill="midnightblue" stroke="midnightblue" points="123.456,-159.762 133.843,-157.674 124.421,-152.829 123.456,-159.762"/>
</g>
<!-- Node307 -->
<g id="node7" class="node"><title>Node307</title>
<g id="a_node7"><a xlink:href="../../d0/dd0/class_cool_m_q_t_t.html#ace977b3e90ab14b1199fe5c4fb0a13ec" target="_top" xlink:title="CoolMQTT::publish">
<polygon fill="white" stroke="black" points="158.5,-114.5 158.5,-133.5 259.5,-133.5 259.5,-114.5 158.5,-114.5"/>
<text text-anchor="middle" x="209" y="-121.5" font-family="Helvetica,sans-Serif" font-size="10.00">CoolMQTT::publish</text>
</a>
</g>
</g>
<!-- Node301&#45;&gt;Node307 -->
<g id="edge6" class="edge"><title>Node301&#45;&gt;Node307</title>
<path fill="none" stroke="midnightblue" d="M98.2637,-139.28C114.046,-137.082 131.767,-134.615 148.29,-132.314"/>
<polygon fill="midnightblue" stroke="midnightblue" points="148.972,-135.753 158.394,-130.907 148.007,-128.82 148.972,-135.753"/>
</g>
<!-- Node309 -->
<g id="node9" class="node"><title>Node309</title>
<g id="a_node9"><a xlink:href="../../d0/dd0/class_cool_m_q_t_t.html#aa5eaae967b562b62cbcf2b8d81f6e5d5" target="_top" xlink:title="CoolMQTT::mqttLoop">
<polygon fill="white" stroke="black" points="153.5,-76.5 153.5,-95.5 264.5,-95.5 264.5,-76.5 153.5,-76.5"/>
<text text-anchor="middle" x="209" y="-83.5" font-family="Helvetica,sans-Serif" font-size="10.00">CoolMQTT::mqttLoop</text>
</a>
</g>
</g>
<!-- Node301&#45;&gt;Node309 -->
<g id="edge8" class="edge"><title>Node301&#45;&gt;Node309</title>
<path fill="none" stroke="midnightblue" d="M66.9264,-136.469C83.5806,-127.399 109.938,-113.857 134,-105 140.523,-102.599 147.477,-100.385 154.411,-98.3812"/>
<polygon fill="midnightblue" stroke="midnightblue" points="155.794,-101.631 164.505,-95.5999 153.934,-94.8822 155.794,-101.631"/>
</g>
<!-- Node314 -->
<g id="node14" class="node"><title>Node314</title>
<g id="a_node14"><a xlink:href="../../de/dc0/class_cool_board_led.html#ad5f0de4c628cbfbf49896042831c64ad" target="_top" xlink:title="CoolBoardLed::strobe">
<polygon fill="white" stroke="black" points="153.5,-38.5 153.5,-57.5 264.5,-57.5 264.5,-38.5 153.5,-38.5"/>
<text text-anchor="middle" x="209" y="-45.5" font-family="Helvetica,sans-Serif" font-size="10.00">CoolBoardLed::strobe</text>
</a>
</g>
</g>
<!-- Node301&#45;&gt;Node314 -->
<g id="edge13" class="edge"><title>Node301&#45;&gt;Node314</title>
<path fill="none" stroke="midnightblue" d="M57.4375,-136.347C70.8631,-119.607 100.85,-85.2405 134,-67 138.14,-64.722 142.561,-62.7101 147.104,-60.9343"/>
<polygon fill="midnightblue" stroke="midnightblue" points="148.279,-64.2313 156.551,-57.6113 145.956,-57.6279 148.279,-64.2313"/>
</g>
<!-- Node315 -->
<g id="node15" class="node"><title>Node315</title>
<g id="a_node15"><a xlink:href="../../de/dc0/class_cool_board_led.html#a93d545679237e8cc858324367149775c" target="_top" xlink:title="CoolBoardLed::fadeOut">
<polygon fill="white" stroke="black" points="149.5,-0.5 149.5,-19.5 268.5,-19.5 268.5,-0.5 149.5,-0.5"/>
<text text-anchor="middle" x="209" y="-7.5" font-family="Helvetica,sans-Serif" font-size="10.00">CoolBoardLed::fadeOut</text>
</a>
</g>
</g>
<!-- Node301&#45;&gt;Node315 -->
<g id="edge14" class="edge"><title>Node301&#45;&gt;Node315</title>
<path fill="none" stroke="midnightblue" d="M54.0701,-136.384C64.1093,-113.874 92.3037,-57.5092 134,-29 136.936,-26.9927 140.068,-25.1975 143.324,-23.5919"/>
<polygon fill="midnightblue" stroke="midnightblue" points="144.95,-26.7033 152.766,-19.5505 142.195,-20.268 144.95,-26.7033"/>
</g>
<!-- Node306 -->
<g id="node6" class="node"><title>Node306</title>
<g id="a_node6"><a xlink:href="../../db/d0c/class_cool_file_system.html#a13f2958f5b87757c31fc53797a30d23a" target="_top" xlink:title="CoolFileSystem::fileUpdate">
<polygon fill="white" stroke="black" points="320,-158.5 320,-177.5 457,-177.5 457,-158.5 320,-158.5"/>
<text text-anchor="middle" x="388.5" y="-165.5" font-family="Helvetica,sans-Serif" font-size="10.00">CoolFileSystem::fileUpdate</text>
</a>
</g>
</g>
<!-- Node305&#45;&gt;Node306 -->
<g id="edge5" class="edge"><title>Node305&#45;&gt;Node306</title>
<path fill="none" stroke="midnightblue" d="M284.248,-168C292.622,-168 301.174,-168 309.594,-168"/>
<polygon fill="midnightblue" stroke="midnightblue" points="309.778,-171.5 319.778,-168 309.778,-164.5 309.778,-171.5"/>
</g>
<!-- Node308 -->
<g id="node8" class="node"><title>Node308</title>
<g id="a_node8"><a xlink:href="../../d8/d4b/class_cool_pub_sub_client.html#ab6ad5fa2d3db8f91454027257f225a89" target="_top" xlink:title="CoolPubSubClient::publish">
<polygon fill="white" stroke="black" points="321.5,-114.5 321.5,-133.5 455.5,-133.5 455.5,-114.5 321.5,-114.5"/>
<text text-anchor="middle" x="388.5" y="-121.5" font-family="Helvetica,sans-Serif" font-size="10.00">CoolPubSubClient::publish</text>
</a>
</g>
</g>
<!-- Node307&#45;&gt;Node308 -->
<g id="edge7" class="edge"><title>Node307&#45;&gt;Node308</title>
<path fill="none" stroke="midnightblue" d="M259.916,-124C275.859,-124 293.885,-124 311.259,-124"/>
<polygon fill="midnightblue" stroke="midnightblue" points="311.392,-127.5 321.392,-124 311.392,-120.5 311.392,-127.5"/>
</g>
<!-- Node310 -->
<g id="node10" class="node"><title>Node310</title>
<g id="a_node10"><a xlink:href="../../d8/d4b/class_cool_pub_sub_client.html#afc15900f0fc4886a19394508e61793b8" target="_top" xlink:title="CoolPubSubClient::loop">
<polygon fill="white" stroke="black" points="328,-76.5 328,-95.5 449,-95.5 449,-76.5 328,-76.5"/>
<text text-anchor="middle" x="388.5" y="-83.5" font-family="Helvetica,sans-Serif" font-size="10.00">CoolPubSubClient::loop</text>
</a>
</g>
</g>
<!-- Node309&#45;&gt;Node310 -->
<g id="edge9" class="edge"><title>Node309&#45;&gt;Node310</title>
<path fill="none" stroke="midnightblue" d="M264.704,-86C281.394,-86 299.977,-86 317.532,-86"/>
<polygon fill="midnightblue" stroke="midnightblue" points="317.728,-89.5001 327.727,-86 317.727,-82.5001 317.728,-89.5001"/>
</g>
<!-- Node311 -->
<g id="node11" class="node"><title>Node311</title>
<g id="a_node11"><a xlink:href="../../d8/d4b/class_cool_pub_sub_client.html#a3d5a5da4ddb1e5c1bea64d80c665d148" target="_top" xlink:title="CoolPubSubClient::connected">
<polygon fill="white" stroke="black" points="495,-95.5 495,-114.5 643,-114.5 643,-95.5 495,-95.5"/>
<text text-anchor="middle" x="569" y="-102.5" font-family="Helvetica,sans-Serif" font-size="10.00">CoolPubSubClient::connected</text>
</a>
</g>
</g>
<!-- Node310&#45;&gt;Node311 -->
<g id="edge10" class="edge"><title>Node310&#45;&gt;Node311</title>
<path fill="none" stroke="midnightblue" d="M449.434,-92.3796C460.829,-93.5924 472.94,-94.8816 484.903,-96.1549"/>
<polygon fill="midnightblue" stroke="midnightblue" points="484.584,-99.6407 494.898,-97.2189 485.325,-92.68 484.584,-99.6407"/>
</g>
<!-- Node312 -->
<g id="node12" class="node"><title>Node312</title>
<g id="a_node12"><a xlink:href="../../d8/d4b/class_cool_pub_sub_client.html#a25a8779149cfa809b7c06f63568b25cf" target="_top" xlink:title="CoolPubSubClient::readPacket">
<polygon fill="white" stroke="black" points="493,-57.5 493,-76.5 645,-76.5 645,-57.5 493,-57.5"/>
<text text-anchor="middle" x="569" y="-64.5" font-family="Helvetica,sans-Serif" font-size="10.00">CoolPubSubClient::readPacket</text>
</a>
</g>
</g>
<!-- Node310&#45;&gt;Node312 -->
<g id="edge11" class="edge"><title>Node310&#45;&gt;Node312</title>
<path fill="none" stroke="midnightblue" d="M449.434,-79.6204C460.058,-78.4896 471.305,-77.2925 482.474,-76.1036"/>
<polygon fill="midnightblue" stroke="midnightblue" points="483.116,-79.5552 492.689,-75.0163 482.375,-72.5945 483.116,-79.5552"/>
</g>
<!-- Node313 -->
<g id="node13" class="node"><title>Node313</title>
<g id="a_node13"><a xlink:href="../../d8/d4b/class_cool_pub_sub_client.html#ad409bbd287d5894f0cf082f62446c002" target="_top" xlink:title="CoolPubSubClient::readByte">
<polygon fill="white" stroke="black" points="681,-57.5 681,-76.5 823,-76.5 823,-57.5 681,-57.5"/>
<text text-anchor="middle" x="752" y="-64.5" font-family="Helvetica,sans-Serif" font-size="10.00">CoolPubSubClient::readByte</text>
</a>
</g>
</g>
<!-- Node312&#45;&gt;Node313 -->
<g id="edge12" class="edge"><title>Node312&#45;&gt;Node313</title>
<path fill="none" stroke="midnightblue" d="M645.188,-67C653.612,-67 662.219,-67 670.704,-67"/>
<polygon fill="midnightblue" stroke="midnightblue" points="670.974,-70.5001 680.974,-67 670.974,-63.5001 670.974,-70.5001"/>
</g>
</g>
</svg>
        <g id="navigator" transform="translate(0 0)" fill="#404254">
                <rect fill="#f2f5e9" fill-opacity="0.5" stroke="#606060" stroke-width=".5" x="0" y="0" width="60" height="60"/>
                <use id="zoomplus" xlink:href="#zoomPlus" x="17" y="9" onmousedown="handleZoom(evt,'in')"/>
                <use id="zoomminus" xlink:href="#zoomMin" x="42" y="9" onmousedown="handleZoom(evt,'out')"/>
                <use id="reset" xlink:href="#resetDef" x="30" y="36" onmousedown="handleReset()"/>
                <g id="arrowUp" xlink:href="#dirArrow" transform="translate(30 24)" onmousedown="handlePan(0,-1)">
                  <use xlink:href="#rim" fill="#404040">
                        <set attributeName="fill" to="#808080" begin="arrowUp.mouseover" end="arrowUp.mouseout"/>
                  </use>
                  <path fill="none" stroke="white" stroke-width="1.5" d="M0,-3.0v7 M-2.5,-0.5L0,-3.0L2.5,-0.5"/>
                </g>
                <g id="arrowRight" xlink:href="#dirArrow" transform="rotate(90) translate(36 -43)" onmousedown="handlePan(1,0)">
                  <use xlink:href="#rim" fill="#404040">
                        <set attributeName="fill" to="#808080" begin="arrowRight.mouseover" end="arrowRight.mouseout"/>
                  </use>
                  <path fill="none" stroke="white" stroke-width="1.5" d="M0,-3.0v7 M-2.5,-0.5L0,-3.0L2.5,-0.5"/>
                </g>
                <g id="arrowDown" xlink:href="#dirArrow" transform="rotate(180) translate(-30 -48)" onmousedown="handlePan(0,1)">
                  <use xlink:href="#rim" fill="#404040">
                        <set attributeName="fill" to="#808080" begin="arrowDown.mouseover" end="arrowDown.mouseout"/>
                  </use>
                  <path fill="none" stroke="white" stroke-width="1.5" d="M0,-3.0v7 M-2.5,-0.5L0,-3.0L2.5,-0.5"/>
                </g>
                <g id="arrowLeft" xlink:href="#dirArrow" transform="rotate(270) translate(-36 17)" onmousedown="handlePan(-1,0)">
                  <use xlink:href="#rim" fill="#404040">
                        <set attributeName="fill" to="#808080" begin="arrowLeft.mouseover" end="arrowLeft.mouseout"/>
                  </use>
                  <path fill="none" stroke="white" stroke-width="1.5" d="M0,-3.0v7 M-2.5,-0.5L0,-3.0L2.5,-0.5"/>
                </g>
        </g>
        <svg viewBox="0 0 15 15" width="100%" height="30px" preserveAspectRatio="xMaxYMin meet">
         <g id="arrow_out" transform="scale(0.3 0.3)">
          <a xlink:href="class_cool_board_a8612756d3f73198cdde857a66f0fe690_cgraph_org.svg" target="_base">
           <rect id="button" ry="5" rx="5" y="6" x="6" height="38" width="38"
                fill="#f2f5e9" fill-opacity="0.5" stroke="#606060" stroke-width="1.0"/>
           <path id="arrow"
             d="M 11.500037,31.436501 C 11.940474,20.09759 22.043105,11.32322 32.158766,21.979434 L 37.068811,17.246167 C 37.068811,17.246167 37.088388,32 37.088388,32 L 22.160133,31.978069 C 22.160133,31.978069 26.997745,27.140456 26.997745,27.140456 C 18.528582,18.264221 13.291696,25.230495 11.500037,31.436501 z"
             style="fill:#404040;"/>
          </a>
         </g>
        </svg>
</svg>
