<?xml version="1.0" encoding="UTF-8" standalone="no"?>
<!DOCTYPE svg PUBLIC "-//W3C//DTD SVG 1.1//EN"
 "http://www.w3.org/Graphics/SVG/1.1/DTD/svg11.dtd">
<!-- Generated by graphviz version 2.38.0 (20140413.2041)
 -->
<!-- Title: CoolBoard::readSensors Pages: 1 -->
<svg width="926pt" height="465pt"
 viewBox="0.00 0.00 926.00 465.00" xmlns="http://www.w3.org/2000/svg" xmlns:xlink="http://www.w3.org/1999/xlink">
<g id="graph0" class="graph" transform="scale(1 1) rotate(0) translate(4 461)">
<title>CoolBoard::readSensors</title>
<polygon fill="white" stroke="none" points="-4,4 -4,-461 922,-461 922,4 -4,4"/>
<!-- Node327 -->
<g id="node1" class="node"><title>Node327</title>
<polygon fill="#bfbfbf" stroke="black" points="0,-304.5 0,-323.5 123,-323.5 123,-304.5 0,-304.5"/>
<text text-anchor="middle" x="61.5" y="-311.5" font-family="Helvetica,sans-Serif" font-size="10.00">CoolBoard::readSensors</text>
</g>
<!-- Node328 -->
<g id="node2" class="node"><title>Node328</title>
<g id="a_node2"><a xlink:href="../../de/dc0/class_cool_board_led.html#ab778f5e7bed0ab74e3906d82110493c3" target="_top" xlink:title="CoolBoardLed::fadeIn">
<polygon fill="white" stroke="black" points="165,-437.5 165,-456.5 276,-456.5 276,-437.5 165,-437.5"/>
<text text-anchor="middle" x="220.5" y="-444.5" font-family="Helvetica,sans-Serif" font-size="10.00">CoolBoardLed::fadeIn</text>
</a>
</g>
</g>
<!-- Node327&#45;&gt;Node328 -->
<g id="edge1" class="edge"><title>Node327&#45;&gt;Node328</title>
<path fill="none" stroke="midnightblue" d="M67.9369,-323.532C80.8556,-345.331 115.585,-399.162 159,-428 162.069,-430.039 165.37,-431.869 168.789,-433.511"/>
<polygon fill="midnightblue" stroke="midnightblue" points="167.467,-436.752 178.04,-437.429 170.197,-430.306 167.467,-436.752"/>
</g>
<!-- Node329 -->
<g id="node3" class="node"><title>Node329</title>
<g id="a_node3"><a xlink:href="../../de/dc0/class_cool_board_led.html#a93d545679237e8cc858324367149775c" target="_top" xlink:title="CoolBoardLed::fadeOut">
<polygon fill="white" stroke="black" points="161,-399.5 161,-418.5 280,-418.5 280,-399.5 161,-399.5"/>
<text text-anchor="middle" x="220.5" y="-406.5" font-family="Helvetica,sans-Serif" font-size="10.00">CoolBoardLed::fadeOut</text>
</a>
</g>
</g>
<!-- Node327&#45;&gt;Node329 -->
<g id="edge2" class="edge"><title>Node327&#45;&gt;Node329</title>
<path fill="none" stroke="midnightblue" d="M72.0663,-323.53C88.4983,-339.412 123.734,-371.383 159,-390 163.053,-392.139 167.387,-394.085 171.804,-395.844"/>
<polygon fill="midnightblue" stroke="midnightblue" points="170.935,-399.253 181.529,-399.398 173.338,-392.678 170.935,-399.253"/>
</g>
<!-- Node330 -->
<g id="node4" class="node"><title>Node330</title>
<g id="a_node4"><a xlink:href="../../d6/d49/class_cool_time.html#a7a7501c5ca77dd1248bea704c44f986c" target="_top" xlink:title="CoolTime::getTimeDate">
<polygon fill="white" stroke="black" points="160,-361.5 160,-380.5 281,-380.5 281,-361.5 160,-361.5"/>
<text text-anchor="middle" x="220.5" y="-368.5" font-family="Helvetica,sans-Serif" font-size="10.00">CoolTime::getTimeDate</text>
</a>
</g>
</g>
<!-- Node327&#45;&gt;Node330 -->
<g id="edge3" class="edge"><title>Node327&#45;&gt;Node330</title>
<path fill="none" stroke="midnightblue" d="M85.3353,-323.521C104.781,-331.501 133.535,-343 159,-352 165.063,-354.143 171.508,-356.297 177.846,-358.345"/>
<polygon fill="midnightblue" stroke="midnightblue" points="177.056,-361.767 187.647,-361.461 179.177,-355.096 177.056,-361.767"/>
</g>
<!-- Node332 -->
<g id="node6" class="node"><title>Node332</title>
<g id="a_node6"><a xlink:href="../../d7/df9/class_cool_board.html#a397b46fadab8f530a8cf4d914c561366" target="_top" xlink:title="CoolBoard::initReadI2C">
<polygon fill="white" stroke="black" points="160.5,-323.5 160.5,-342.5 280.5,-342.5 280.5,-323.5 160.5,-323.5"/>
<text text-anchor="middle" x="220.5" y="-330.5" font-family="Helvetica,sans-Serif" font-size="10.00">CoolBoard::initReadI2C</text>
</a>
</g>
</g>
<!-- Node327&#45;&gt;Node332 -->
<g id="edge5" class="edge"><title>Node327&#45;&gt;Node332</title>
<path fill="none" stroke="midnightblue" d="M123.2,-321.346C132.04,-322.416 141.198,-323.524 150.192,-324.612"/>
<polygon fill="midnightblue" stroke="midnightblue" points="149.904,-328.103 160.253,-325.83 150.746,-321.154 149.904,-328.103"/>
</g>
<!-- Node333 -->
<g id="node7" class="node"><title>Node333</title>
<g id="a_node7"><a xlink:href="../../d1/d2f/class_external_sensors.html#a53177b81eca3be89508b5511ddcd00fc" target="_top" xlink:title="ExternalSensors::read">
<polygon fill="white" stroke="black" points="164,-285.5 164,-304.5 277,-304.5 277,-285.5 164,-285.5"/>
<text text-anchor="middle" x="220.5" y="-292.5" font-family="Helvetica,sans-Serif" font-size="10.00">ExternalSensors::read</text>
</a>
</g>
</g>
<!-- Node327&#45;&gt;Node333 -->
<g id="edge6" class="edge"><title>Node327&#45;&gt;Node333</title>
<path fill="none" stroke="midnightblue" d="M123.2,-306.654C133.231,-305.44 143.672,-304.177 153.818,-302.949"/>
<polygon fill="midnightblue" stroke="midnightblue" points="154.334,-306.412 163.841,-301.736 153.493,-299.463 154.334,-306.412"/>
</g>
<!-- Node334 -->
<g id="node8" class="node"><title>Node334</title>
<g id="a_node8"><a xlink:href="../../de/d46/class_cool_board_sensors.html#a91badb2539d91fda8679f2a597874c48" target="_top" xlink:title="CoolBoardSensors::read">
<polygon fill="white" stroke="black" points="159,-247.5 159,-266.5 282,-266.5 282,-247.5 159,-247.5"/>
<text text-anchor="middle" x="220.5" y="-254.5" font-family="Helvetica,sans-Serif" font-size="10.00">CoolBoardSensors::read</text>
</a>
</g>
</g>
<!-- Node327&#45;&gt;Node334 -->
<g id="edge7" class="edge"><title>Node327&#45;&gt;Node334</title>
<path fill="none" stroke="midnightblue" d="M85.3353,-304.479C104.781,-296.499 133.535,-285 159,-276 165.063,-273.857 171.508,-271.703 177.846,-269.655"/>
<polygon fill="midnightblue" stroke="midnightblue" points="179.177,-272.904 187.647,-266.539 177.056,-266.233 179.177,-272.904"/>
</g>
<!-- Node345 -->
<g id="node19" class="node"><title>Node345</title>
<g id="a_node19"><a xlink:href="../../d6/d03/class_irene3000.html#a852a170feea994ea1df01c6b245b5d9a" target="_top" xlink:title="Irene3000::read">
<polygon fill="white" stroke="black" points="178.5,-95.5 178.5,-114.5 262.5,-114.5 262.5,-95.5 178.5,-95.5"/>
<text text-anchor="middle" x="220.5" y="-102.5" font-family="Helvetica,sans-Serif" font-size="10.00">Irene3000::read</text>
</a>
</g>
</g>
<!-- Node327&#45;&gt;Node345 -->
<g id="edge22" class="edge"><title>Node327&#45;&gt;Node345</title>
<path fill="none" stroke="midnightblue" d="M69.6539,-304.477C94.0718,-271.971 174.374,-165.072 206.27,-122.612"/>
<polygon fill="midnightblue" stroke="midnightblue" points="209.096,-124.677 212.304,-114.579 203.499,-120.473 209.096,-124.677"/>
</g>
<!-- Node356 -->
<g id="node30" class="node"><title>Node356</title>
<g id="a_node30"><a xlink:href="../../de/dc0/class_cool_board_led.html#ad5f0de4c628cbfbf49896042831c64ad" target="_top" xlink:title="CoolBoardLed::strobe">
<polygon fill="white" stroke="black" points="165,-57.5 165,-76.5 276,-76.5 276,-57.5 165,-57.5"/>
<text text-anchor="middle" x="220.5" y="-64.5" font-family="Helvetica,sans-Serif" font-size="10.00">CoolBoardLed::strobe</text>
</a>
</g>
</g>
<!-- Node327&#45;&gt;Node356 -->
<g id="edge38" class="edge"><title>Node327&#45;&gt;Node356</title>
<path fill="none" stroke="midnightblue" d="M63.7292,-304.104C68.6255,-268.93 89.9549,-148.71 159,-86 160.722,-84.4364 162.571,-83.0014 164.516,-81.6845"/>
<polygon fill="midnightblue" stroke="midnightblue" points="166.528,-84.5695 173.548,-76.6343 163.111,-78.4597 166.528,-84.5695"/>
</g>
<!-- Node331 -->
<g id="node5" class="node"><title>Node331</title>
<g id="a_node5"><a xlink:href="../../d6/d49/class_cool_time.html#acd537cd4210d7bde4e1f5c47d2ac0456" target="_top" xlink:title="CoolTime::formatDigits">
<polygon fill="white" stroke="black" points="339.5,-437.5 339.5,-456.5 457.5,-456.5 457.5,-437.5 339.5,-437.5"/>
<text text-anchor="middle" x="398.5" y="-444.5" font-family="Helvetica,sans-Serif" font-size="10.00">CoolTime::formatDigits</text>
</a>
</g>
</g>
<!-- Node330&#45;&gt;Node331 -->
<g id="edge4" class="edge"><title>Node330&#45;&gt;Node331</title>
<path fill="none" stroke="midnightblue" d="M261.826,-380.501C268.831,-383.023 275.837,-386.15 282,-390 301.731,-402.325 297.851,-416.37 318,-428 321.908,-430.256 326.072,-432.244 330.367,-433.997"/>
<polygon fill="midnightblue" stroke="midnightblue" points="329.339,-437.347 339.933,-437.47 331.728,-430.768 329.339,-437.347"/>
</g>
<!-- Node335 -->
<g id="node9" class="node"><title>Node335</title>
<g id="a_node9"><a xlink:href="../../dd/d67/class_cool_s_i114_x.html#a42e0e574256341443c647a4c0eda87d5" target="_top" xlink:title="CoolSI114X::ReadVisible">
<polygon fill="white" stroke="black" points="334.5,-209.5 334.5,-228.5 462.5,-228.5 462.5,-209.5 334.5,-209.5"/>
<text text-anchor="middle" x="398.5" y="-216.5" font-family="Helvetica,sans-Serif" font-size="10.00">CoolSI114X::ReadVisible</text>
</a>
</g>
</g>
<!-- Node334&#45;&gt;Node335 -->
<g id="edge8" class="edge"><title>Node334&#45;&gt;Node335</title>
<path fill="none" stroke="midnightblue" d="M265.912,-247.411C289.451,-242.329 318.557,-236.045 343.405,-230.68"/>
<polygon fill="midnightblue" stroke="midnightblue" points="344.371,-234.052 353.407,-228.52 342.894,-227.209 344.371,-234.052"/>
</g>
<!-- Node337 -->
<g id="node11" class="node"><title>Node337</title>
<g id="a_node11"><a xlink:href="../../dd/d67/class_cool_s_i114_x.html#abc536ee7ae8e3ba9d1069acc3889a2cf" target="_top" xlink:title="CoolSI114X::ReadIR">
<polygon fill="white" stroke="black" points="344,-171.5 344,-190.5 453,-190.5 453,-171.5 344,-171.5"/>
<text text-anchor="middle" x="398.5" y="-178.5" font-family="Helvetica,sans-Serif" font-size="10.00">CoolSI114X::ReadIR</text>
</a>
</g>
</g>
<!-- Node334&#45;&gt;Node337 -->
<g id="edge10" class="edge"><title>Node334&#45;&gt;Node337</title>
<path fill="none" stroke="midnightblue" d="M234.887,-247.324C252.927,-234.71 286.429,-212.759 318,-200 324.276,-197.464 330.974,-195.213 337.718,-193.229"/>
<polygon fill="midnightblue" stroke="midnightblue" points="338.876,-196.54 347.589,-190.512 337.018,-189.791 338.876,-196.54"/>
</g>
<!-- Node338 -->
<g id="node12" class="node"><title>Node338</title>
<g id="a_node12"><a xlink:href="../../dd/d67/class_cool_s_i114_x.html#a14ced664d74e93438440b0274109c111" target="_top" xlink:title="CoolSI114X::ReadUV">
<polygon fill="white" stroke="black" points="342,-133.5 342,-152.5 455,-152.5 455,-133.5 342,-133.5"/>
<text text-anchor="middle" x="398.5" y="-140.5" font-family="Helvetica,sans-Serif" font-size="10.00">CoolSI114X::ReadUV</text>
</a>
</g>
</g>
<!-- Node334&#45;&gt;Node338 -->
<g id="edge12" class="edge"><title>Node334&#45;&gt;Node338</title>
<path fill="none" stroke="midnightblue" d="M228.276,-247.472C242.542,-228.158 277.697,-184.337 318,-162 322.462,-159.527 327.24,-157.373 332.155,-155.499"/>
<polygon fill="midnightblue" stroke="midnightblue" points="333.4,-158.772 341.731,-152.227 331.137,-152.148 333.4,-158.772"/>
</g>
<!-- Node339 -->
<g id="node13" class="node"><title>Node339</title>
<g id="a_node13"><a xlink:href="../../df/dcf/class_b_m_e280.html#ada6e799917afb4f228e6253bc56ffe75" target="_top" xlink:title="BME280::readFloatPressure">
<polygon fill="white" stroke="black" points="328.5,-247.5 328.5,-266.5 468.5,-266.5 468.5,-247.5 328.5,-247.5"/>
<text text-anchor="middle" x="398.5" y="-254.5" font-family="Helvetica,sans-Serif" font-size="10.00">BME280::readFloatPressure</text>
</a>
</g>
</g>
<!-- Node334&#45;&gt;Node339 -->
<g id="edge14" class="edge"><title>Node334&#45;&gt;Node339</title>
<path fill="none" stroke="midnightblue" d="M282.069,-257C293.722,-257 306.087,-257 318.229,-257"/>
<polygon fill="midnightblue" stroke="midnightblue" points="318.355,-260.5 328.355,-257 318.355,-253.5 318.355,-260.5"/>
</g>
<!-- Node341 -->
<g id="node15" class="node"><title>Node341</title>
<g id="a_node15"><a xlink:href="../../df/dcf/class_b_m_e280.html#a42ea7232039eebf5aadb391ef6132c35" target="_top" xlink:title="BME280::readFloatHumidity">
<polygon fill="white" stroke="black" points="328.5,-399.5 328.5,-418.5 468.5,-418.5 468.5,-399.5 328.5,-399.5"/>
<text text-anchor="middle" x="398.5" y="-406.5" font-family="Helvetica,sans-Serif" font-size="10.00">BME280::readFloatHumidity</text>
</a>
</g>
</g>
<!-- Node334&#45;&gt;Node341 -->
<g id="edge16" class="edge"><title>Node334&#45;&gt;Node341</title>
<path fill="none" stroke="midnightblue" d="M268.411,-266.554C273.423,-269.016 278.105,-272.111 282,-276 319.6,-313.541 279.114,-353.792 318,-390 319.519,-391.414 321.124,-392.729 322.8,-393.951"/>
<polygon fill="midnightblue" stroke="midnightblue" points="321.333,-397.153 331.704,-399.318 324.946,-391.158 321.333,-397.153"/>
</g>
<!-- Node342 -->
<g id="node16" class="node"><title>Node342</title>
<g id="a_node16"><a xlink:href="../../df/dcf/class_b_m_e280.html#afffdd1d7ded9e1f92200e70669019d97" target="_top" xlink:title="BME280::readTempC">
<polygon fill="white" stroke="black" points="343,-361.5 343,-380.5 454,-380.5 454,-361.5 343,-361.5"/>
<text text-anchor="middle" x="398.5" y="-368.5" font-family="Helvetica,sans-Serif" font-size="10.00">BME280::readTempC</text>
</a>
</g>
</g>
<!-- Node334&#45;&gt;Node342 -->
<g id="edge18" class="edge"><title>Node334&#45;&gt;Node342</title>
<path fill="none" stroke="midnightblue" d="M266.685,-266.529C272.232,-268.994 277.516,-272.096 282,-276 310.189,-300.542 288.973,-328.455 318,-352 322.589,-355.723 327.789,-358.737 333.279,-361.175"/>
<polygon fill="midnightblue" stroke="midnightblue" points="332.145,-364.488 342.736,-364.757 334.624,-357.941 332.145,-364.488"/>
</g>
<!-- Node343 -->
<g id="node17" class="node"><title>Node343</title>
<g id="a_node17"><a xlink:href="../../de/d46/class_cool_board_sensors.html#a6944b6ea7bce8e2fce1b434acfd9d5f3" target="_top" xlink:title="CoolBoardSensors::readVBat">
<polygon fill="white" stroke="black" points="326,-323.5 326,-342.5 471,-342.5 471,-323.5 326,-323.5"/>
<text text-anchor="middle" x="398.5" y="-330.5" font-family="Helvetica,sans-Serif" font-size="10.00">CoolBoardSensors::readVBat</text>
</a>
</g>
</g>
<!-- Node334&#45;&gt;Node343 -->
<g id="edge20" class="edge"><title>Node334&#45;&gt;Node343</title>
<path fill="none" stroke="midnightblue" d="M261.826,-266.501C268.831,-269.023 275.837,-272.15 282,-276 301.731,-288.325 297.851,-302.37 318,-314 321.908,-316.256 326.072,-318.244 330.367,-319.997"/>
<polygon fill="midnightblue" stroke="midnightblue" points="329.339,-323.347 339.933,-323.47 331.728,-316.768 329.339,-323.347"/>
</g>
<!-- Node344 -->
<g id="node18" class="node"><title>Node344</title>
<g id="a_node18"><a xlink:href="../../de/d46/class_cool_board_sensors.html#a8761bff50373c485f4465c8db47d0633" target="_top" xlink:title="CoolBoardSensors::readMoisture">
<polygon fill="white" stroke="black" points="318,-285.5 318,-304.5 479,-304.5 479,-285.5 318,-285.5"/>
<text text-anchor="middle" x="398.5" y="-292.5" font-family="Helvetica,sans-Serif" font-size="10.00">CoolBoardSensors::readMoisture</text>
</a>
</g>
</g>
<!-- Node334&#45;&gt;Node344 -->
<g id="edge21" class="edge"><title>Node334&#45;&gt;Node344</title>
<path fill="none" stroke="midnightblue" d="M265.912,-266.589C289.451,-271.671 318.557,-277.955 343.405,-283.32"/>
<polygon fill="midnightblue" stroke="midnightblue" points="342.894,-286.791 353.407,-285.48 344.371,-279.948 342.894,-286.791"/>
</g>
<!-- Node336 -->
<g id="node10" class="node"><title>Node336</title>
<g id="a_node10"><a xlink:href="../../dd/d67/class_cool_s_i114_x.html#a1d25c9e137874af529804c2ec796a6b9" target="_top" xlink:title="CoolSI114X::ReadHalfWord">
<polygon fill="white" stroke="black" points="517,-171.5 517,-190.5 657,-190.5 657,-171.5 517,-171.5"/>
<text text-anchor="middle" x="587" y="-178.5" font-family="Helvetica,sans-Serif" font-size="10.00">CoolSI114X::ReadHalfWord</text>
</a>
</g>
</g>
<!-- Node335&#45;&gt;Node336 -->
<g id="edge9" class="edge"><title>Node335&#45;&gt;Node336</title>
<path fill="none" stroke="midnightblue" d="M446.562,-209.411C471.727,-204.284 502.896,-197.933 529.379,-192.537"/>
<polygon fill="midnightblue" stroke="midnightblue" points="530.177,-195.946 539.277,-190.52 528.779,-189.087 530.177,-195.946"/>
</g>
<!-- Node337&#45;&gt;Node336 -->
<g id="edge11" class="edge"><title>Node337&#45;&gt;Node336</title>
<path fill="none" stroke="midnightblue" d="M453.193,-181C469.822,-181 488.511,-181 506.502,-181"/>
<polygon fill="midnightblue" stroke="midnightblue" points="506.699,-184.5 516.699,-181 506.699,-177.5 506.699,-184.5"/>
</g>
<!-- Node338&#45;&gt;Node336 -->
<g id="edge13" class="edge"><title>Node338&#45;&gt;Node336</title>
<path fill="none" stroke="midnightblue" d="M446.562,-152.589C471.727,-157.716 502.896,-164.067 529.379,-169.463"/>
<polygon fill="midnightblue" stroke="midnightblue" points="528.779,-172.913 539.277,-171.48 530.177,-166.054 528.779,-172.913"/>
</g>
<!-- Node340 -->
<g id="node14" class="node"><title>Node340</title>
<g id="a_node14"><a xlink:href="../../df/dcf/class_b_m_e280.html#a1bbd14c8591966df531e40085342ff71" target="_top" xlink:title="BME280::readRegister">
<polygon fill="white" stroke="black" points="529,-361.5 529,-380.5 645,-380.5 645,-361.5 529,-361.5"/>
<text text-anchor="middle" x="587" y="-368.5" font-family="Helvetica,sans-Serif" font-size="10.00">BME280::readRegister</text>
</a>
</g>
</g>
<!-- Node339&#45;&gt;Node340 -->
<g id="edge15" class="edge"><title>Node339&#45;&gt;Node340</title>
<path fill="none" stroke="midnightblue" d="M455.087,-266.565C463.35,-269.037 471.575,-272.131 479,-276 517.12,-295.861 552.591,-332.274 571.58,-353.791"/>
<polygon fill="midnightblue" stroke="midnightblue" points="569.052,-356.219 578.238,-361.498 574.349,-351.643 569.052,-356.219"/>
</g>
<!-- Node341&#45;&gt;Node340 -->
<g id="edge17" class="edge"><title>Node341&#45;&gt;Node340</title>
<path fill="none" stroke="midnightblue" d="M446.562,-399.411C471.727,-394.284 502.896,-387.933 529.379,-382.537"/>
<polygon fill="midnightblue" stroke="midnightblue" points="530.177,-385.946 539.277,-380.52 528.779,-379.087 530.177,-385.946"/>
</g>
<!-- Node342&#45;&gt;Node340 -->
<g id="edge19" class="edge"><title>Node342&#45;&gt;Node340</title>
<path fill="none" stroke="midnightblue" d="M454.196,-371C474.332,-371 497.379,-371 518.511,-371"/>
<polygon fill="midnightblue" stroke="midnightblue" points="518.71,-374.5 528.71,-371 518.71,-367.5 518.71,-374.5"/>
</g>
<!-- Node346 -->
<g id="node20" class="node"><title>Node346</title>
<g id="a_node20"><a xlink:href="../../d6/d03/class_irene3000.html#a80bc6dfea106dc3bc54fa20204d4d5dc" target="_top" xlink:title="Irene3000::readTemp">
<polygon fill="white" stroke="black" points="344,-95.5 344,-114.5 453,-114.5 453,-95.5 344,-95.5"/>
<text text-anchor="middle" x="398.5" y="-102.5" font-family="Helvetica,sans-Serif" font-size="10.00">Irene3000::readTemp</text>
</a>
</g>
</g>
<!-- Node345&#45;&gt;Node346 -->
<g id="edge23" class="edge"><title>Node345&#45;&gt;Node346</title>
<path fill="none" stroke="midnightblue" d="M262.764,-105C283.828,-105 309.925,-105 333.526,-105"/>
<polygon fill="midnightblue" stroke="midnightblue" points="333.815,-108.5 343.815,-105 333.815,-101.5 333.815,-108.5"/>
</g>
<!-- Node354 -->
<g id="node28" class="node"><title>Node354</title>
<g id="a_node28"><a xlink:href="../../d6/d03/class_irene3000.html#a436fc0a06681cd0784aba56b9707f19a" target="_top" xlink:title="Irene3000::readPh">
<polygon fill="white" stroke="black" points="350.5,-57.5 350.5,-76.5 446.5,-76.5 446.5,-57.5 350.5,-57.5"/>
<text text-anchor="middle" x="398.5" y="-64.5" font-family="Helvetica,sans-Serif" font-size="10.00">Irene3000::readPh</text>
</a>
</g>
</g>
<!-- Node345&#45;&gt;Node354 -->
<g id="edge32" class="edge"><title>Node345&#45;&gt;Node354</title>
<path fill="none" stroke="midnightblue" d="M262.764,-96.0907C286.803,-90.9006 317.396,-84.2953 343.352,-78.691"/>
<polygon fill="midnightblue" stroke="midnightblue" points="344.382,-82.0495 353.418,-76.5178 342.904,-75.2071 344.382,-82.0495"/>
</g>
<!-- Node355 -->
<g id="node29" class="node"><title>Node355</title>
<g id="a_node29"><a xlink:href="../../d6/d03/class_irene3000.html#ae73bd2ed14a199a7e83f4d6458476a7c" target="_top" xlink:title="Irene3000::readADSChannel2">
<polygon fill="white" stroke="black" points="325.5,-19.5 325.5,-38.5 471.5,-38.5 471.5,-19.5 325.5,-19.5"/>
<text text-anchor="middle" x="398.5" y="-26.5" font-family="Helvetica,sans-Serif" font-size="10.00">Irene3000::readADSChannel2</text>
</a>
</g>
</g>
<!-- Node345&#45;&gt;Node355 -->
<g id="edge35" class="edge"><title>Node345&#45;&gt;Node355</title>
<path fill="none" stroke="midnightblue" d="M261.826,-95.4989C268.831,-92.977 275.837,-89.8495 282,-86 301.731,-73.6746 297.851,-59.6304 318,-48 321.908,-45.7442 326.072,-43.7557 330.367,-42.0029"/>
<polygon fill="midnightblue" stroke="midnightblue" points="331.728,-45.2324 339.933,-38.5297 329.339,-38.6526 331.728,-45.2324"/>
</g>
<!-- Node347 -->
<g id="node21" class="node"><title>Node347</title>
<g id="a_node21"><a xlink:href="../../d6/d03/class_irene3000.html#aff7c5da186b388e7272e63ff88a20c34" target="_top" xlink:title="Irene3000::setGain">
<polygon fill="white" stroke="black" points="537.5,-79.5 537.5,-98.5 636.5,-98.5 636.5,-79.5 537.5,-79.5"/>
<text text-anchor="middle" x="587" y="-86.5" font-family="Helvetica,sans-Serif" font-size="10.00">Irene3000::setGain</text>
</a>
</g>
</g>
<!-- Node346&#45;&gt;Node347 -->
<g id="edge24" class="edge"><title>Node346&#45;&gt;Node347</title>
<path fill="none" stroke="midnightblue" d="M453.193,-100.394C476.346,-98.4073 503.493,-96.0783 527.189,-94.0455"/>
<polygon fill="midnightblue" stroke="midnightblue" points="527.793,-97.5066 537.457,-93.1645 527.195,-90.5322 527.793,-97.5066"/>
</g>
<!-- Node349 -->
<g id="node23" class="node"><title>Node349</title>
<g id="a_node23"><a xlink:href="../../df/df6/class_adafruit___a_d_s1015.html#a40f38b9e1f3ec397c0670dd632510235" target="_top" xlink:title="Gets a single&#45;ended ADC reading from the specified channel. ">
<polygon fill="white" stroke="black" points="515,-30 515,-60 659,-60 659,-30 515,-30"/>
<text text-anchor="start" x="523" y="-48" font-family="Helvetica,sans-Serif" font-size="10.00">Adafruit_ADS1015::readADC</text>
<text text-anchor="middle" x="587" y="-37" font-family="Helvetica,sans-Serif" font-size="10.00">_SingleEnded</text>
</a>
</g>
</g>
<!-- Node346&#45;&gt;Node349 -->
<g id="edge26" class="edge"><title>Node346&#45;&gt;Node349</title>
<path fill="none" stroke="midnightblue" d="M445.732,-95.4666C456.745,-92.7801 468.381,-89.5946 479,-86 495.585,-80.3858 498.73,-76.4683 515,-70 520.446,-67.8351 526.162,-65.6615 531.887,-63.5487"/>
<polygon fill="midnightblue" stroke="midnightblue" points="533.281,-66.7665 541.485,-60.0627 530.891,-60.1871 533.281,-66.7665"/>
</g>
<!-- Node348 -->
<g id="node22" class="node"><title>Node348</title>
<g id="a_node22"><a xlink:href="../../df/df6/class_adafruit___a_d_s1015.html#a399441eace686975ff22937cbe45cc50" target="_top" xlink:title="Sets the gain and input voltage range. ">
<polygon fill="white" stroke="black" points="695,-79.5 695,-98.5 832,-98.5 832,-79.5 695,-79.5"/>
<text text-anchor="middle" x="763.5" y="-86.5" font-family="Helvetica,sans-Serif" font-size="10.00">Adafruit_ADS1015::setGain</text>
</a>
</g>
</g>
<!-- Node347&#45;&gt;Node348 -->
<g id="edge25" class="edge"><title>Node347&#45;&gt;Node348</title>
<path fill="none" stroke="midnightblue" d="M636.608,-89C651.557,-89 668.402,-89 684.793,-89"/>
<polygon fill="midnightblue" stroke="midnightblue" points="684.919,-92.5001 694.919,-89 684.919,-85.5001 684.919,-92.5001"/>
</g>
<!-- Node350 -->
<g id="node24" class="node"><title>Node350</title>
<g id="a_node24"><a xlink:href="../../d8/daa/_cool_adafruit___a_d_s1015_8cpp.html#a319539381b7551b2f83a92b0b596e97d" target="_top" xlink:title="Writes 16&#45;bits to the specified destination register. ">
<polygon fill="white" stroke="black" points="727.5,-0.5 727.5,-19.5 799.5,-19.5 799.5,-0.5 727.5,-0.5"/>
<text text-anchor="middle" x="763.5" y="-7.5" font-family="Helvetica,sans-Serif" font-size="10.00">readRegister</text>
</a>
</g>
</g>
<!-- Node349&#45;&gt;Node350 -->
<g id="edge27" class="edge"><title>Node349&#45;&gt;Node350</title>
<path fill="none" stroke="midnightblue" d="M659.228,-30.7137C678.765,-26.795 699.412,-22.6538 717.067,-19.1126"/>
<polygon fill="midnightblue" stroke="midnightblue" points="717.969,-22.5015 727.085,-17.1032 716.592,-15.6382 717.969,-22.5015"/>
</g>
<!-- Node353 -->
<g id="node27" class="node"><title>Node353</title>
<g id="a_node27"><a xlink:href="../../d8/daa/_cool_adafruit___a_d_s1015_8cpp.html#a00ef55774dfb93dd0a7bf561d8451b71" target="_top" xlink:title="Writes 16&#45;bits to the specified destination register. ">
<polygon fill="white" stroke="black" points="726.5,-38.5 726.5,-57.5 800.5,-57.5 800.5,-38.5 726.5,-38.5"/>
<text text-anchor="middle" x="763.5" y="-45.5" font-family="Helvetica,sans-Serif" font-size="10.00">writeRegister</text>
</a>
</g>
</g>
<!-- Node349&#45;&gt;Node353 -->
<g id="edge30" class="edge"><title>Node349&#45;&gt;Node353</title>
<path fill="none" stroke="midnightblue" d="M659.228,-46.2245C678.27,-46.5519 698.367,-46.8974 715.72,-47.1958"/>
<polygon fill="midnightblue" stroke="midnightblue" points="716.078,-50.7023 726.136,-47.3748 716.198,-43.7034 716.078,-50.7023"/>
</g>
<!-- Node351 -->
<g id="node25" class="node"><title>Node351</title>
<g id="a_node25"><a xlink:href="../../d8/daa/_cool_adafruit___a_d_s1015_8cpp.html#af89e2442d757f6ec8100c473022f6701" target="_top" xlink:title="Abstract away platform differences in Arduino wire library. ">
<polygon fill="white" stroke="black" points="869,-0.5 869,-19.5 917,-19.5 917,-0.5 869,-0.5"/>
<text text-anchor="middle" x="893" y="-7.5" font-family="Helvetica,sans-Serif" font-size="10.00">i2cread</text>
</a>
</g>
</g>
<!-- Node350&#45;&gt;Node351 -->
<g id="edge28" class="edge"><title>Node350&#45;&gt;Node351</title>
<path fill="none" stroke="midnightblue" d="M799.677,-10C818.162,-10 840.688,-10 858.862,-10"/>
<polygon fill="midnightblue" stroke="midnightblue" points="858.996,-13.5001 868.996,-10 858.996,-6.5001 858.996,-13.5001"/>
</g>
<!-- Node352 -->
<g id="node26" class="node"><title>Node352</title>
<g id="a_node26"><a xlink:href="../../d8/daa/_cool_adafruit___a_d_s1015_8cpp.html#a6db5edba66e20bba6d5b421c2789af54" target="_top" xlink:title="Abstract away platform differences in Arduino wire library. ">
<polygon fill="white" stroke="black" points="868,-38.5 868,-57.5 918,-57.5 918,-38.5 868,-38.5"/>
<text text-anchor="middle" x="893" y="-45.5" font-family="Helvetica,sans-Serif" font-size="10.00">i2cwrite</text>
</a>
</g>
</g>
<!-- Node350&#45;&gt;Node352 -->
<g id="edge29" class="edge"><title>Node350&#45;&gt;Node352</title>
<path fill="none" stroke="midnightblue" d="M799.248,-19.5494C809.788,-22.5083 821.386,-25.8265 832,-29 840.502,-31.5421 849.649,-34.3837 858.176,-37.0787"/>
<polygon fill="midnightblue" stroke="midnightblue" points="857.234,-40.4519 867.824,-40.1485 859.356,-33.7813 857.234,-40.4519"/>
</g>
<!-- Node353&#45;&gt;Node352 -->
<g id="edge31" class="edge"><title>Node353&#45;&gt;Node352</title>
<path fill="none" stroke="midnightblue" d="M800.695,-48C818.498,-48 839.851,-48 857.43,-48"/>
<polygon fill="midnightblue" stroke="midnightblue" points="857.821,-51.5001 867.821,-48 857.821,-44.5001 857.821,-51.5001"/>
</g>
<!-- Node354&#45;&gt;Node347 -->
<g id="edge33" class="edge"><title>Node354&#45;&gt;Node347</title>
<path fill="none" stroke="midnightblue" d="M446.562,-72.5515C471.044,-75.4396 501.21,-78.9979 527.214,-82.0654"/>
<polygon fill="midnightblue" stroke="midnightblue" points="526.985,-85.5627 537.327,-83.2584 527.805,-78.6109 526.985,-85.5627"/>
</g>
<!-- Node354&#45;&gt;Node349 -->
<g id="edge34" class="edge"><title>Node354&#45;&gt;Node349</title>
<path fill="none" stroke="midnightblue" d="M446.562,-61.4485C464.286,-59.3577 484.988,-56.9156 504.934,-54.5628"/>
<polygon fill="midnightblue" stroke="midnightblue" points="505.439,-58.0275 514.96,-53.38 504.619,-51.0757 505.439,-58.0275"/>
</g>
<!-- Node355&#45;&gt;Node347 -->
<g id="edge36" class="edge"><title>Node355&#45;&gt;Node347</title>
<path fill="none" stroke="midnightblue" d="M449.395,-38.5517C459.369,-41.1191 469.648,-44.2503 479,-48 496.193,-54.8936 497.949,-61.7641 515,-69 521.416,-71.7225 528.312,-74.1913 535.195,-76.3913"/>
<polygon fill="midnightblue" stroke="midnightblue" points="534.627,-79.876 545.212,-79.4203 536.654,-73.1757 534.627,-79.876"/>
</g>
<!-- Node355&#45;&gt;Node349 -->
<g id="edge37" class="edge"><title>Node355&#45;&gt;Node349</title>
<path fill="none" stroke="midnightblue" d="M471.606,-35.186C482.436,-36.1151 493.667,-37.0787 504.674,-38.0229"/>
<polygon fill="midnightblue" stroke="midnightblue" points="504.438,-41.5155 514.7,-38.8831 505.036,-34.5411 504.438,-41.5155"/>
</g>
</g>
</svg>
