<?xml version="1.0" encoding="UTF-8" standalone="no"?>
<!DOCTYPE svg PUBLIC "-//W3C//DTD SVG 1.1//EN"
 "http://www.w3.org/Graphics/SVG/1.1/DTD/svg11.dtd">
<!-- Generated by graphviz version 2.38.0 (20140413.2041)
 -->
<!-- Title: CoolBoard::update Pages: 1 -->
<svg width="831pt" height="230pt"
 viewBox="0.00 0.00 831.00 230.00" xmlns="http://www.w3.org/2000/svg" xmlns:xlink="http://www.w3.org/1999/xlink">
<g id="graph0" class="graph" transform="scale(1 1) rotate(0) translate(4 226)">
<title>CoolBoard::update</title>
<polygon fill="white" stroke="none" points="-4,4 -4,-226 827,-226 827,4 -4,4"/>
<!-- Node290 -->
<g id="node1" class="node"><title>Node290</title>
<polygon fill="#bfbfbf" stroke="black" points="0,-95.5 0,-114.5 98,-114.5 98,-95.5 0,-95.5"/>
<text text-anchor="middle" x="49" y="-102.5" font-family="Helvetica,sans-Serif" font-size="10.00">CoolBoard::update</text>
</g>
<!-- Node291 -->
<g id="node2" class="node"><title>Node291</title>
<g id="a_node2"><a xlink:href="../../de/dc0/class_cool_board_led.html#ab778f5e7bed0ab74e3906d82110493c3" target="_top" xlink:title="CoolBoardLed::fadeIn">
<polygon fill="white" stroke="black" points="153.5,-202.5 153.5,-221.5 264.5,-221.5 264.5,-202.5 153.5,-202.5"/>
<text text-anchor="middle" x="209" y="-209.5" font-family="Helvetica,sans-Serif" font-size="10.00">CoolBoardLed::fadeIn</text>
</a>
</g>
</g>
<!-- Node290&#45;&gt;Node291 -->
<g id="edge1" class="edge"><title>Node290&#45;&gt;Node291</title>
<path fill="none" stroke="midnightblue" d="M56.3677,-114.621C68.9459,-132.841 98.8292,-172.393 134,-193 137.837,-195.248 141.939,-197.234 146.17,-198.986"/>
<polygon fill="midnightblue" stroke="midnightblue" points="144.993,-202.283 155.586,-202.463 147.418,-195.716 144.993,-202.283"/>
</g>
<!-- Node292 -->
<g id="node3" class="node"><title>Node292</title>
<g id="a_node3"><a xlink:href="../../db/d0c/class_cool_file_system.html#adfa8e2e80641ae6f0cceabd348a9b841" target="_top" xlink:title="CoolFileSystem::updateConfig\lFiles">
<polygon fill="white" stroke="black" points="134,-153 134,-183 284,-183 284,-153 134,-153"/>
<text text-anchor="start" x="142" y="-171" font-family="Helvetica,sans-Serif" font-size="10.00">CoolFileSystem::updateConfig</text>
<text text-anchor="middle" x="209" y="-160" font-family="Helvetica,sans-Serif" font-size="10.00">Files</text>
</a>
</g>
</g>
<!-- Node290&#45;&gt;Node292 -->
<g id="edge2" class="edge"><title>Node290&#45;&gt;Node292</title>
<path fill="none" stroke="midnightblue" d="M69.7891,-114.623C86.6622,-122.665 111.662,-134.199 134,-143 139.577,-145.197 145.434,-147.381 151.309,-149.491"/>
<polygon fill="midnightblue" stroke="midnightblue" points="150.57,-152.941 161.165,-152.96 152.894,-146.338 150.57,-152.941"/>
</g>
<!-- Node294 -->
<g id="node5" class="node"><title>Node294</title>
<g id="a_node5"><a xlink:href="../../d0/dd0/class_cool_m_q_t_t.html#ace977b3e90ab14b1199fe5c4fb0a13ec" target="_top" xlink:title="CoolMQTT::publish">
<polygon fill="white" stroke="black" points="158.5,-114.5 158.5,-133.5 259.5,-133.5 259.5,-114.5 158.5,-114.5"/>
<text text-anchor="middle" x="209" y="-121.5" font-family="Helvetica,sans-Serif" font-size="10.00">CoolMQTT::publish</text>
</a>
</g>
</g>
<!-- Node290&#45;&gt;Node294 -->
<g id="edge4" class="edge"><title>Node290&#45;&gt;Node294</title>
<path fill="none" stroke="midnightblue" d="M98.2637,-110.804C114.046,-112.702 131.767,-114.833 148.29,-116.82"/>
<polygon fill="midnightblue" stroke="midnightblue" points="148.048,-120.316 158.394,-118.035 148.883,-113.366 148.048,-120.316"/>
</g>
<!-- Node296 -->
<g id="node7" class="node"><title>Node296</title>
<g id="a_node7"><a xlink:href="../../d0/dd0/class_cool_m_q_t_t.html#aa5eaae967b562b62cbcf2b8d81f6e5d5" target="_top" xlink:title="CoolMQTT::mqttLoop">
<polygon fill="white" stroke="black" points="153.5,-76.5 153.5,-95.5 264.5,-95.5 264.5,-76.5 153.5,-76.5"/>
<text text-anchor="middle" x="209" y="-83.5" font-family="Helvetica,sans-Serif" font-size="10.00">CoolMQTT::mqttLoop</text>
</a>
</g>
</g>
<!-- Node290&#45;&gt;Node296 -->
<g id="edge6" class="edge"><title>Node290&#45;&gt;Node296</title>
<path fill="none" stroke="midnightblue" d="M98.2637,-99.1961C112.421,-97.4937 128.139,-95.6036 143.151,-93.7983"/>
<polygon fill="midnightblue" stroke="midnightblue" points="143.894,-97.2343 153.404,-92.5653 143.058,-90.2844 143.894,-97.2343"/>
</g>
<!-- Node301 -->
<g id="node12" class="node"><title>Node301</title>
<g id="a_node12"><a xlink:href="../../de/dc0/class_cool_board_led.html#ad5f0de4c628cbfbf49896042831c64ad" target="_top" xlink:title="CoolBoardLed::strobe">
<polygon fill="white" stroke="black" points="153.5,-38.5 153.5,-57.5 264.5,-57.5 264.5,-38.5 153.5,-38.5"/>
<text text-anchor="middle" x="209" y="-45.5" font-family="Helvetica,sans-Serif" font-size="10.00">CoolBoardLed::strobe</text>
</a>
</g>
</g>
<!-- Node290&#45;&gt;Node301 -->
<g id="edge11" class="edge"><title>Node290&#45;&gt;Node301</title>
<path fill="none" stroke="midnightblue" d="M68.6319,-95.4403C85.405,-87.1095 110.897,-75.1226 134,-67 141.047,-64.5223 148.576,-62.2152 156.032,-60.1235"/>
<polygon fill="midnightblue" stroke="midnightblue" points="157.004,-63.4865 165.746,-57.5016 155.18,-56.7284 157.004,-63.4865"/>
</g>
<!-- Node302 -->
<g id="node13" class="node"><title>Node302</title>
<g id="a_node13"><a xlink:href="../../de/dc0/class_cool_board_led.html#a93d545679237e8cc858324367149775c" target="_top" xlink:title="CoolBoardLed::fadeOut">
<polygon fill="white" stroke="black" points="149.5,-0.5 149.5,-19.5 268.5,-19.5 268.5,-0.5 149.5,-0.5"/>
<text text-anchor="middle" x="209" y="-7.5" font-family="Helvetica,sans-Serif" font-size="10.00">CoolBoardLed::fadeOut</text>
</a>
</g>
</g>
<!-- Node290&#45;&gt;Node302 -->
<g id="edge12" class="edge"><title>Node290&#45;&gt;Node302</title>
<path fill="none" stroke="midnightblue" d="M57.739,-95.4683C71.399,-79.2898 101.437,-46.5107 134,-29 138.231,-26.7248 142.746,-24.713 147.38,-22.9357"/>
<polygon fill="midnightblue" stroke="midnightblue" points="148.699,-26.1832 157.006,-19.6077 146.412,-19.5674 148.699,-26.1832"/>
</g>
<!-- Node293 -->
<g id="node4" class="node"><title>Node293</title>
<g id="a_node4"><a xlink:href="../../db/d0c/class_cool_file_system.html#a13f2958f5b87757c31fc53797a30d23a" target="_top" xlink:title="CoolFileSystem::fileUpdate">
<polygon fill="white" stroke="black" points="320,-158.5 320,-177.5 457,-177.5 457,-158.5 320,-158.5"/>
<text text-anchor="middle" x="388.5" y="-165.5" font-family="Helvetica,sans-Serif" font-size="10.00">CoolFileSystem::fileUpdate</text>
</a>
</g>
</g>
<!-- Node292&#45;&gt;Node293 -->
<g id="edge3" class="edge"><title>Node292&#45;&gt;Node293</title>
<path fill="none" stroke="midnightblue" d="M284.248,-168C292.622,-168 301.174,-168 309.594,-168"/>
<polygon fill="midnightblue" stroke="midnightblue" points="309.778,-171.5 319.778,-168 309.778,-164.5 309.778,-171.5"/>
</g>
<!-- Node295 -->
<g id="node6" class="node"><title>Node295</title>
<g id="a_node6"><a xlink:href="../../d8/d4b/class_cool_pub_sub_client.html#ab6ad5fa2d3db8f91454027257f225a89" target="_top" xlink:title="CoolPubSubClient::publish">
<polygon fill="white" stroke="black" points="321.5,-114.5 321.5,-133.5 455.5,-133.5 455.5,-114.5 321.5,-114.5"/>
<text text-anchor="middle" x="388.5" y="-121.5" font-family="Helvetica,sans-Serif" font-size="10.00">CoolPubSubClient::publish</text>
</a>
</g>
</g>
<!-- Node294&#45;&gt;Node295 -->
<g id="edge5" class="edge"><title>Node294&#45;&gt;Node295</title>
<path fill="none" stroke="midnightblue" d="M259.916,-124C275.859,-124 293.885,-124 311.259,-124"/>
<polygon fill="midnightblue" stroke="midnightblue" points="311.392,-127.5 321.392,-124 311.392,-120.5 311.392,-127.5"/>
</g>
<!-- Node297 -->
<g id="node8" class="node"><title>Node297</title>
<g id="a_node8"><a xlink:href="../../d8/d4b/class_cool_pub_sub_client.html#afc15900f0fc4886a19394508e61793b8" target="_top" xlink:title="CoolPubSubClient::loop">
<polygon fill="white" stroke="black" points="328,-76.5 328,-95.5 449,-95.5 449,-76.5 328,-76.5"/>
<text text-anchor="middle" x="388.5" y="-83.5" font-family="Helvetica,sans-Serif" font-size="10.00">CoolPubSubClient::loop</text>
</a>
</g>
</g>
<!-- Node296&#45;&gt;Node297 -->
<g id="edge7" class="edge"><title>Node296&#45;&gt;Node297</title>
<path fill="none" stroke="midnightblue" d="M264.704,-86C281.394,-86 299.977,-86 317.532,-86"/>
<polygon fill="midnightblue" stroke="midnightblue" points="317.728,-89.5001 327.727,-86 317.727,-82.5001 317.728,-89.5001"/>
</g>
<!-- Node298 -->
<g id="node9" class="node"><title>Node298</title>
<g id="a_node9"><a xlink:href="../../d8/d4b/class_cool_pub_sub_client.html#a3d5a5da4ddb1e5c1bea64d80c665d148" target="_top" xlink:title="CoolPubSubClient::connected">
<polygon fill="white" stroke="black" points="495,-95.5 495,-114.5 643,-114.5 643,-95.5 495,-95.5"/>
<text text-anchor="middle" x="569" y="-102.5" font-family="Helvetica,sans-Serif" font-size="10.00">CoolPubSubClient::connected</text>
</a>
</g>
</g>
<!-- Node297&#45;&gt;Node298 -->
<g id="edge8" class="edge"><title>Node297&#45;&gt;Node298</title>
<path fill="none" stroke="midnightblue" d="M449.434,-92.3796C460.829,-93.5924 472.94,-94.8816 484.903,-96.1549"/>
<polygon fill="midnightblue" stroke="midnightblue" points="484.584,-99.6407 494.898,-97.2189 485.325,-92.68 484.584,-99.6407"/>
</g>
<!-- Node299 -->
<g id="node10" class="node"><title>Node299</title>
<g id="a_node10"><a xlink:href="../../d8/d4b/class_cool_pub_sub_client.html#a25a8779149cfa809b7c06f63568b25cf" target="_top" xlink:title="CoolPubSubClient::readPacket">
<polygon fill="white" stroke="black" points="493,-57.5 493,-76.5 645,-76.5 645,-57.5 493,-57.5"/>
<text text-anchor="middle" x="569" y="-64.5" font-family="Helvetica,sans-Serif" font-size="10.00">CoolPubSubClient::readPacket</text>
</a>
</g>
</g>
<!-- Node297&#45;&gt;Node299 -->
<g id="edge9" class="edge"><title>Node297&#45;&gt;Node299</title>
<path fill="none" stroke="midnightblue" d="M449.434,-79.6204C460.058,-78.4896 471.305,-77.2925 482.474,-76.1036"/>
<polygon fill="midnightblue" stroke="midnightblue" points="483.116,-79.5552 492.689,-75.0163 482.375,-72.5945 483.116,-79.5552"/>
</g>
<!-- Node300 -->
<g id="node11" class="node"><title>Node300</title>
<g id="a_node11"><a xlink:href="../../d8/d4b/class_cool_pub_sub_client.html#ad409bbd287d5894f0cf082f62446c002" target="_top" xlink:title="CoolPubSubClient::readByte">
<polygon fill="white" stroke="black" points="681,-57.5 681,-76.5 823,-76.5 823,-57.5 681,-57.5"/>
<text text-anchor="middle" x="752" y="-64.5" font-family="Helvetica,sans-Serif" font-size="10.00">CoolPubSubClient::readByte</text>
</a>
</g>
</g>
<!-- Node299&#45;&gt;Node300 -->
<g id="edge10" class="edge"><title>Node299&#45;&gt;Node300</title>
<path fill="none" stroke="midnightblue" d="M645.188,-67C653.612,-67 662.219,-67 670.704,-67"/>
<polygon fill="midnightblue" stroke="midnightblue" points="670.974,-70.5001 680.974,-67 670.974,-63.5001 670.974,-70.5001"/>
</g>
</g>
</svg>
