<?xml version="1.0" encoding="UTF-8" standalone="no"?>
<!DOCTYPE svg PUBLIC "-//W3C//DTD SVG 1.1//EN"
 "http://www.w3.org/Graphics/SVG/1.1/DTD/svg11.dtd">
<!-- Generated by graphviz version 2.38.0 (20140413.2041)
 -->
<!-- Title: CoolBoard::update Pages: 1 -->
<svg width="831pt" height="306pt"
 viewBox="0.00 0.00 831.00 306.00" xmlns="http://www.w3.org/2000/svg" xmlns:xlink="http://www.w3.org/1999/xlink">
<g id="graph0" class="graph" transform="scale(1 1) rotate(0) translate(4 302)">
<title>CoolBoard::update</title>
<polygon fill="white" stroke="none" points="-4,4 -4,-302 827,-302 827,4 -4,4"/>
<!-- Node98 -->
<g id="node1" class="node"><title>Node98</title>
<polygon fill="#bfbfbf" stroke="black" points="0,-145.5 0,-164.5 98,-164.5 98,-145.5 0,-145.5"/>
<text text-anchor="middle" x="49" y="-152.5" font-family="Helvetica,sans-Serif" font-size="10.00">CoolBoard::update</text>
</g>
<!-- Node99 -->
<g id="node2" class="node"><title>Node99</title>
<g id="a_node2"><a xlink:href="../../de/dc0/class_cool_board_led.html#ab778f5e7bed0ab74e3906d82110493c3" target="_top" xlink:title="CoolBoardLed::fadeIn">
<polygon fill="white" stroke="black" points="153.5,-278.5 153.5,-297.5 264.5,-297.5 264.5,-278.5 153.5,-278.5"/>
<text text-anchor="middle" x="209" y="-285.5" font-family="Helvetica,sans-Serif" font-size="10.00">CoolBoardLed::fadeIn</text>
</a>
</g>
</g>
<!-- Node98&#45;&gt;Node99 -->
<g id="edge1" class="edge"><title>Node98&#45;&gt;Node99</title>
<path fill="none" stroke="midnightblue" d="M54.2935,-164.698C64.6154,-186.847 93.0375,-241.362 134,-269 137.096,-271.089 140.406,-272.948 143.846,-274.603"/>
<polygon fill="midnightblue" stroke="midnightblue" points="142.619,-277.884 153.195,-278.523 145.326,-271.428 142.619,-277.884"/>
</g>
<!-- Node100 -->
<g id="node3" class="node"><title>Node100</title>
<g id="a_node3"><a xlink:href="../../de/dc0/class_cool_board_led.html#a93d545679237e8cc858324367149775c" target="_top" xlink:title="CoolBoardLed::fadeOut">
<polygon fill="white" stroke="black" points="149.5,-240.5 149.5,-259.5 268.5,-259.5 268.5,-240.5 149.5,-240.5"/>
<text text-anchor="middle" x="209" y="-247.5" font-family="Helvetica,sans-Serif" font-size="10.00">CoolBoardLed::fadeOut</text>
</a>
</g>
</g>
<!-- Node98&#45;&gt;Node100 -->
<g id="edge2" class="edge"><title>Node98&#45;&gt;Node100</title>
<path fill="none" stroke="midnightblue" d="M57.739,-164.532C71.399,-180.71 101.437,-213.489 134,-231 138.231,-233.275 142.746,-235.287 147.38,-237.064"/>
<polygon fill="midnightblue" stroke="midnightblue" points="146.412,-240.433 157.006,-240.392 148.699,-233.817 146.412,-240.433"/>
</g>
<!-- Node101 -->
<g id="node4" class="node"><title>Node101</title>
<g id="a_node4"><a xlink:href="../../d0/dd0/class_cool_m_q_t_t.html#aa5eaae967b562b62cbcf2b8d81f6e5d5" target="_top" xlink:title="CoolMQTT::mqttLoop">
<polygon fill="white" stroke="black" points="153.5,-202.5 153.5,-221.5 264.5,-221.5 264.5,-202.5 153.5,-202.5"/>
<text text-anchor="middle" x="209" y="-209.5" font-family="Helvetica,sans-Serif" font-size="10.00">CoolMQTT::mqttLoop</text>
</a>
</g>
</g>
<!-- Node98&#45;&gt;Node101 -->
<g id="edge3" class="edge"><title>Node98&#45;&gt;Node101</title>
<path fill="none" stroke="midnightblue" d="M68.6319,-164.56C85.405,-172.891 110.897,-184.877 134,-193 141.047,-195.478 148.576,-197.785 156.032,-199.877"/>
<polygon fill="midnightblue" stroke="midnightblue" points="155.18,-203.272 165.746,-202.498 157.004,-196.513 155.18,-203.272"/>
</g>
<!-- Node106 -->
<g id="node9" class="node"><title>Node106</title>
<g id="a_node9"><a xlink:href="../../d0/dd0/class_cool_m_q_t_t.html#ace977b3e90ab14b1199fe5c4fb0a13ec" target="_top" xlink:title="CoolMQTT::publish">
<polygon fill="white" stroke="black" points="158.5,-164.5 158.5,-183.5 259.5,-183.5 259.5,-164.5 158.5,-164.5"/>
<text text-anchor="middle" x="209" y="-171.5" font-family="Helvetica,sans-Serif" font-size="10.00">CoolMQTT::publish</text>
</a>
</g>
</g>
<!-- Node98&#45;&gt;Node106 -->
<g id="edge8" class="edge"><title>Node98&#45;&gt;Node106</title>
<path fill="none" stroke="midnightblue" d="M98.2637,-160.804C114.046,-162.702 131.767,-164.833 148.29,-166.82"/>
<polygon fill="midnightblue" stroke="midnightblue" points="148.048,-170.316 158.394,-168.035 148.883,-163.366 148.048,-170.316"/>
</g>
<!-- Node108 -->
<g id="node11" class="node"><title>Node108</title>
<g id="a_node11"><a xlink:href="../../de/dc0/class_cool_board_led.html#ad5f0de4c628cbfbf49896042831c64ad" target="_top" xlink:title="CoolBoardLed::strobe">
<polygon fill="white" stroke="black" points="153.5,-126.5 153.5,-145.5 264.5,-145.5 264.5,-126.5 153.5,-126.5"/>
<text text-anchor="middle" x="209" y="-133.5" font-family="Helvetica,sans-Serif" font-size="10.00">CoolBoardLed::strobe</text>
</a>
</g>
</g>
<!-- Node98&#45;&gt;Node108 -->
<g id="edge10" class="edge"><title>Node98&#45;&gt;Node108</title>
<path fill="none" stroke="midnightblue" d="M98.2637,-149.196C112.421,-147.494 128.139,-145.604 143.151,-143.798"/>
<polygon fill="midnightblue" stroke="midnightblue" points="143.894,-147.234 153.404,-142.565 143.058,-140.284 143.894,-147.234"/>
</g>
<!-- Node109 -->
<g id="node12" class="node"><title>Node109</title>
<g id="a_node12"><a xlink:href="../../db/d0c/class_cool_file_system.html#adfa8e2e80641ae6f0cceabd348a9b841" target="_top" xlink:title="CoolFileSystem::updateConfig\lFiles">
<polygon fill="white" stroke="black" points="134,-77 134,-107 284,-107 284,-77 134,-77"/>
<text text-anchor="start" x="142" y="-95" font-family="Helvetica,sans-Serif" font-size="10.00">CoolFileSystem::updateConfig</text>
<text text-anchor="middle" x="209" y="-84" font-family="Helvetica,sans-Serif" font-size="10.00">Files</text>
</a>
</g>
</g>
<!-- Node98&#45;&gt;Node109 -->
<g id="edge11" class="edge"><title>Node98&#45;&gt;Node109</title>
<path fill="none" stroke="midnightblue" d="M69.7891,-145.377C86.6622,-137.335 111.662,-125.801 134,-117 139.577,-114.803 145.434,-112.619 151.309,-110.509"/>
<polygon fill="midnightblue" stroke="midnightblue" points="152.894,-113.662 161.165,-107.04 150.57,-107.059 152.894,-113.662"/>
</g>
<!-- Node111 -->
<g id="node14" class="node"><title>Node111</title>
<g id="a_node14"><a xlink:href="../../dc/d69/class_cool_board_actor.html#a958786ff01ea1056ee72c72d439f86da" target="_top" xlink:title="CoolBoardActor::write">
<polygon fill="white" stroke="black" points="152.5,-38.5 152.5,-57.5 265.5,-57.5 265.5,-38.5 152.5,-38.5"/>
<text text-anchor="middle" x="209" y="-45.5" font-family="Helvetica,sans-Serif" font-size="10.00">CoolBoardActor::write</text>
</a>
</g>
</g>
<!-- Node98&#45;&gt;Node111 -->
<g id="edge13" class="edge"><title>Node98&#45;&gt;Node111</title>
<path fill="none" stroke="midnightblue" d="M56.6168,-145.25C69.3948,-127.187 99.2897,-88.4986 134,-68 138.469,-65.3607 143.294,-63.0615 148.262,-61.0598"/>
<polygon fill="midnightblue" stroke="midnightblue" points="149.721,-64.2543 157.938,-57.5663 147.344,-57.6703 149.721,-64.2543"/>
</g>
<!-- Node112 -->
<g id="node15" class="node"><title>Node112</title>
<g id="a_node15"><a xlink:href="../../df/d1d/class_jetpack.html#a79ae7bc3c1828a0551a7c005c4f8bd00" target="_top" xlink:title="Jetpack::writeBit">
<polygon fill="white" stroke="black" points="164,-0.5 164,-19.5 254,-19.5 254,-0.5 164,-0.5"/>
<text text-anchor="middle" x="209" y="-7.5" font-family="Helvetica,sans-Serif" font-size="10.00">Jetpack::writeBit</text>
</a>
</g>
</g>
<!-- Node98&#45;&gt;Node112 -->
<g id="edge14" class="edge"><title>Node98&#45;&gt;Node112</title>
<path fill="none" stroke="midnightblue" d="M53.5751,-145.357C62.8891,-121.619 90.2582,-60.034 134,-29 140.024,-24.726 146.929,-21.4123 154.047,-18.8435"/>
<polygon fill="midnightblue" stroke="midnightblue" points="155.324,-22.111 163.821,-15.7819 153.232,-15.431 155.324,-22.111"/>
</g>
<!-- Node102 -->
<g id="node5" class="node"><title>Node102</title>
<g id="a_node5"><a xlink:href="../../d8/d4b/class_cool_pub_sub_client.html#afc15900f0fc4886a19394508e61793b8" target="_top" xlink:title="CoolPubSubClient::loop">
<polygon fill="white" stroke="black" points="328,-202.5 328,-221.5 449,-221.5 449,-202.5 328,-202.5"/>
<text text-anchor="middle" x="388.5" y="-209.5" font-family="Helvetica,sans-Serif" font-size="10.00">CoolPubSubClient::loop</text>
</a>
</g>
</g>
<!-- Node101&#45;&gt;Node102 -->
<g id="edge4" class="edge"><title>Node101&#45;&gt;Node102</title>
<path fill="none" stroke="midnightblue" d="M264.704,-212C281.394,-212 299.977,-212 317.532,-212"/>
<polygon fill="midnightblue" stroke="midnightblue" points="317.728,-215.5 327.727,-212 317.727,-208.5 317.728,-215.5"/>
</g>
<!-- Node103 -->
<g id="node6" class="node"><title>Node103</title>
<g id="a_node6"><a xlink:href="../../d8/d4b/class_cool_pub_sub_client.html#a3d5a5da4ddb1e5c1bea64d80c665d148" target="_top" xlink:title="CoolPubSubClient::connected">
<polygon fill="white" stroke="black" points="495,-221.5 495,-240.5 643,-240.5 643,-221.5 495,-221.5"/>
<text text-anchor="middle" x="569" y="-228.5" font-family="Helvetica,sans-Serif" font-size="10.00">CoolPubSubClient::connected</text>
</a>
</g>
</g>
<!-- Node102&#45;&gt;Node103 -->
<g id="edge5" class="edge"><title>Node102&#45;&gt;Node103</title>
<path fill="none" stroke="midnightblue" d="M449.434,-218.38C460.829,-219.592 472.94,-220.882 484.903,-222.155"/>
<polygon fill="midnightblue" stroke="midnightblue" points="484.584,-225.641 494.898,-223.219 485.325,-218.68 484.584,-225.641"/>
</g>
<!-- Node104 -->
<g id="node7" class="node"><title>Node104</title>
<g id="a_node7"><a xlink:href="../../d8/d4b/class_cool_pub_sub_client.html#a25a8779149cfa809b7c06f63568b25cf" target="_top" xlink:title="CoolPubSubClient::readPacket">
<polygon fill="white" stroke="black" points="493,-183.5 493,-202.5 645,-202.5 645,-183.5 493,-183.5"/>
<text text-anchor="middle" x="569" y="-190.5" font-family="Helvetica,sans-Serif" font-size="10.00">CoolPubSubClient::readPacket</text>
</a>
</g>
</g>
<!-- Node102&#45;&gt;Node104 -->
<g id="edge6" class="edge"><title>Node102&#45;&gt;Node104</title>
<path fill="none" stroke="midnightblue" d="M449.434,-205.62C460.058,-204.49 471.305,-203.292 482.474,-202.104"/>
<polygon fill="midnightblue" stroke="midnightblue" points="483.116,-205.555 492.689,-201.016 482.375,-198.594 483.116,-205.555"/>
</g>
<!-- Node105 -->
<g id="node8" class="node"><title>Node105</title>
<g id="a_node8"><a xlink:href="../../d8/d4b/class_cool_pub_sub_client.html#ad409bbd287d5894f0cf082f62446c002" target="_top" xlink:title="CoolPubSubClient::readByte">
<polygon fill="white" stroke="black" points="681,-183.5 681,-202.5 823,-202.5 823,-183.5 681,-183.5"/>
<text text-anchor="middle" x="752" y="-190.5" font-family="Helvetica,sans-Serif" font-size="10.00">CoolPubSubClient::readByte</text>
</a>
</g>
</g>
<!-- Node104&#45;&gt;Node105 -->
<g id="edge7" class="edge"><title>Node104&#45;&gt;Node105</title>
<path fill="none" stroke="midnightblue" d="M645.188,-193C653.612,-193 662.219,-193 670.704,-193"/>
<polygon fill="midnightblue" stroke="midnightblue" points="670.974,-196.5 680.974,-193 670.974,-189.5 670.974,-196.5"/>
</g>
<!-- Node107 -->
<g id="node10" class="node"><title>Node107</title>
<g id="a_node10"><a xlink:href="../../d8/d4b/class_cool_pub_sub_client.html#ab6ad5fa2d3db8f91454027257f225a89" target="_top" xlink:title="CoolPubSubClient::publish">
<polygon fill="white" stroke="black" points="321.5,-164.5 321.5,-183.5 455.5,-183.5 455.5,-164.5 321.5,-164.5"/>
<text text-anchor="middle" x="388.5" y="-171.5" font-family="Helvetica,sans-Serif" font-size="10.00">CoolPubSubClient::publish</text>
</a>
</g>
</g>
<!-- Node106&#45;&gt;Node107 -->
<g id="edge9" class="edge"><title>Node106&#45;&gt;Node107</title>
<path fill="none" stroke="midnightblue" d="M259.916,-174C275.859,-174 293.885,-174 311.259,-174"/>
<polygon fill="midnightblue" stroke="midnightblue" points="311.392,-177.5 321.392,-174 311.392,-170.5 311.392,-177.5"/>
</g>
<!-- Node110 -->
<g id="node13" class="node"><title>Node110</title>
<g id="a_node13"><a xlink:href="../../db/d0c/class_cool_file_system.html#a13f2958f5b87757c31fc53797a30d23a" target="_top" xlink:title="CoolFileSystem::fileUpdate">
<polygon fill="white" stroke="black" points="320,-82.5 320,-101.5 457,-101.5 457,-82.5 320,-82.5"/>
<text text-anchor="middle" x="388.5" y="-89.5" font-family="Helvetica,sans-Serif" font-size="10.00">CoolFileSystem::fileUpdate</text>
</a>
</g>
</g>
<!-- Node109&#45;&gt;Node110 -->
<g id="edge12" class="edge"><title>Node109&#45;&gt;Node110</title>
<path fill="none" stroke="midnightblue" d="M284.248,-92C292.622,-92 301.174,-92 309.594,-92"/>
<polygon fill="midnightblue" stroke="midnightblue" points="309.778,-95.5001 319.778,-92 309.778,-88.5001 309.778,-95.5001"/>
</g>
</g>
</svg>
