<?xml version="1.0" encoding="UTF-8" standalone="no"?>
<!DOCTYPE svg PUBLIC "-//W3C//DTD SVG 1.1//EN"
 "http://www.w3.org/Graphics/SVG/1.1/DTD/svg11.dtd">
<!-- Generated by graphviz version 2.38.0 (20140413.2041)
 -->
<!-- Title: CoolPubSubClient::publish Pages: 1 -->
<svg width="606pt" height="78pt"
 viewBox="0.00 0.00 606.00 78.23" xmlns="http://www.w3.org/2000/svg" xmlns:xlink="http://www.w3.org/1999/xlink">
<g id="graph0" class="graph" transform="scale(1 1) rotate(0) translate(4 74.2323)">
<title>CoolPubSubClient::publish</title>
<polygon fill="white" stroke="none" points="-4,4 -4,-74.2323 602,-74.2323 602,4 -4,4"/>
<!-- Node150 -->
<g id="node1" class="node"><title>Node150</title>
<polygon fill="#bfbfbf" stroke="black" points="0,-19.5 0,-38.5 134,-38.5 134,-19.5 0,-19.5"/>
<text text-anchor="middle" x="67" y="-26.5" font-family="Helvetica,sans-Serif" font-size="10.00">CoolPubSubClient::publish</text>
</g>
<!-- Node151 -->
<g id="node2" class="node"><title>Node151</title>
<g id="a_node2"><a xlink:href="$d0/dd0/class_cool_m_q_t_t.html#ace977b3e90ab14b1199fe5c4fb0a13ec" xlink:title="CoolMQTT::publish">
<polygon fill="white" stroke="black" points="186.5,-38.5 186.5,-57.5 287.5,-57.5 287.5,-38.5 186.5,-38.5"/>
<text text-anchor="middle" x="237" y="-45.5" font-family="Helvetica,sans-Serif" font-size="10.00">CoolMQTT::publish</text>
</a>
</g>
</g>
<!-- Node150&#45;&gt;Node151 -->
<g id="edge1" class="edge"><title>Node150&#45;&gt;Node151</title>
<path fill="none" stroke="midnightblue" d="M144.651,-37.6689C158.833,-39.2728 173.296,-40.9085 186.407,-42.3913"/>
<polygon fill="midnightblue" stroke="midnightblue" points="144.728,-34.1553 134.398,-36.5093 143.941,-41.111 144.728,-34.1553"/>
</g>
<!-- Node155 -->
<g id="node6" class="node"><title>Node155</title>
<g id="a_node6"><a xlink:href="$d8/d4b/class_cool_pub_sub_client.html#a0b01cef98af0b57d8da4df373e196448" xlink:title="CoolPubSubClient::publish">
<polygon fill="white" stroke="black" points="170,-0.5 170,-19.5 304,-19.5 304,-0.5 170,-0.5"/>
<text text-anchor="middle" x="237" y="-7.5" font-family="Helvetica,sans-Serif" font-size="10.00">CoolPubSubClient::publish</text>
</a>
</g>
</g>
<!-- Node150&#45;&gt;Node155 -->
<g id="edge6" class="edge"><title>Node150&#45;&gt;Node155</title>
<path fill="none" stroke="midnightblue" d="M144.595,-20.3375C153.013,-19.3854 161.532,-18.422 169.809,-17.4859"/>
<polygon fill="midnightblue" stroke="midnightblue" points="143.941,-16.889 134.398,-21.4907 144.728,-23.8447 143.941,-16.889"/>
</g>
<!-- Node152 -->
<g id="node3" class="node"><title>Node152</title>
<g id="a_node3"><a xlink:href="$d7/df9/class_cool_board.html#aa0bbc4bc605e35618d18e68795c61363" xlink:title="CoolBoard::onLineMode">
<polygon fill="white" stroke="black" points="477,-38.5 477,-57.5 598,-57.5 598,-38.5 477,-38.5"/>
<text text-anchor="middle" x="537.5" y="-45.5" font-family="Helvetica,sans-Serif" font-size="10.00">CoolBoard::onLineMode</text>
</a>
</g>
</g>
<!-- Node151&#45;&gt;Node152 -->
<g id="edge2" class="edge"><title>Node151&#45;&gt;Node152</title>
<path fill="none" stroke="midnightblue" d="M289.697,-59.5385C305.732,-62.6016 323.521,-65.4783 340,-67 384.699,-71.1276 396.327,-71.4008 441,-67 459.842,-65.1438 480.477,-61.2751 497.729,-57.5101"/>
<polygon fill="midnightblue" stroke="midnightblue" points="289.933,-56.0175 279.444,-57.5111 288.575,-62.8845 289.933,-56.0175"/>
</g>
<!-- Node153 -->
<g id="node4" class="node"><title>Node153</title>
<g id="a_node4"><a xlink:href="$d0/dd0/class_cool_m_q_t_t.html#a613c5e3927ae85bb94fbf648d84d8780" xlink:title="CoolMQTT::publish">
<polygon fill="white" stroke="black" points="340,-38.5 340,-57.5 441,-57.5 441,-38.5 340,-38.5"/>
<text text-anchor="middle" x="390.5" y="-45.5" font-family="Helvetica,sans-Serif" font-size="10.00">CoolMQTT::publish</text>
</a>
</g>
</g>
<!-- Node151&#45;&gt;Node153 -->
<g id="edge3" class="edge"><title>Node151&#45;&gt;Node153</title>
<path fill="none" stroke="midnightblue" d="M297.61,-48C311.573,-48 326.303,-48 339.782,-48"/>
<polygon fill="midnightblue" stroke="midnightblue" points="297.607,-44.5001 287.607,-48 297.607,-51.5001 297.607,-44.5001"/>
</g>
<!-- Node154 -->
<g id="node5" class="node"><title>Node154</title>
<g id="a_node5"><a xlink:href="$d7/df9/class_cool_board.html#a8612756d3f73198cdde857a66f0fe690" xlink:title="CoolBoard::update">
<polygon fill="white" stroke="black" points="341.5,-0.5 341.5,-19.5 439.5,-19.5 439.5,-0.5 341.5,-0.5"/>
<text text-anchor="middle" x="390.5" y="-7.5" font-family="Helvetica,sans-Serif" font-size="10.00">CoolBoard::update</text>
</a>
</g>
</g>
<!-- Node151&#45;&gt;Node154 -->
<g id="edge4" class="edge"><title>Node151&#45;&gt;Node154</title>
<path fill="none" stroke="midnightblue" d="M286.002,-35.96C307.167,-30.6512 331.686,-24.5012 351.545,-19.5201"/>
<polygon fill="midnightblue" stroke="midnightblue" points="285.078,-32.5832 276.23,-38.411 286.781,-39.3729 285.078,-32.5832"/>
</g>
<!-- Node154&#45;&gt;Node152 -->
<g id="edge5" class="edge"><title>Node154&#45;&gt;Node152</title>
<path fill="none" stroke="midnightblue" d="M437.993,-22.1843C458.124,-27.46 481.338,-33.5438 500.173,-38.4799"/>
<polygon fill="midnightblue" stroke="midnightblue" points="438.65,-18.7385 428.09,-19.589 436.876,-25.5098 438.65,-18.7385"/>
</g>
</g>
</svg>
