<?xml version="1.0" encoding="UTF-8" standalone="no"?>
<!DOCTYPE svg PUBLIC "-//W3C//DTD SVG 1.1//EN"
 "http://www.w3.org/Graphics/SVG/1.1/DTD/svg11.dtd">
<!-- Generated by graphviz version 2.38.0 (20140413.2041)
 -->
<!-- Title: CoolPubSubClient::readByte Pages: 1 -->
<svg width="949pt" height="104pt"
 viewBox="0.00 0.00 949.00 104.00" xmlns="http://www.w3.org/2000/svg" xmlns:xlink="http://www.w3.org/1999/xlink">
<g id="graph0" class="graph" transform="scale(1 1) rotate(0) translate(4 100)">
<title>CoolPubSubClient::readByte</title>
<polygon fill="white" stroke="none" points="-4,4 -4,-100 945,-100 945,4 -4,4"/>
<!-- Node77 -->
<g id="node1" class="node"><title>Node77</title>
<polygon fill="#bfbfbf" stroke="black" points="0,-57.5 0,-76.5 142,-76.5 142,-57.5 0,-57.5"/>
<text text-anchor="middle" x="71" y="-64.5" font-family="Helvetica,sans-Serif" font-size="10.00">CoolPubSubClient::readByte</text>
</g>
<!-- Node78 -->
<g id="node2" class="node"><title>Node78</title>
<g id="a_node2"><a xlink:href="$d8/d4b/class_cool_pub_sub_client.html#abef3735bb9a2a8c87b3da659dc4ade03" xlink:title="CoolPubSubClient::readByte">
<polygon fill="white" stroke="black" points="183,-76.5 183,-95.5 325,-95.5 325,-76.5 183,-76.5"/>
<text text-anchor="middle" x="254" y="-83.5" font-family="Helvetica,sans-Serif" font-size="10.00">CoolPubSubClient::readByte</text>
</a>
</g>
</g>
<!-- Node77&#45;&gt;Node78 -->
<g id="edge1" class="edge"><title>Node77&#45;&gt;Node78</title>
<path fill="none" stroke="midnightblue" d="M152.322,-75.4315C162.482,-76.4981 172.815,-77.5828 182.801,-78.6311"/>
<polygon fill="midnightblue" stroke="midnightblue" points="152.549,-71.9363 142.238,-74.3731 151.818,-78.898 152.549,-71.9363"/>
</g>
<!-- Node79 -->
<g id="node3" class="node"><title>Node79</title>
<g id="a_node3"><a xlink:href="$d8/d4b/class_cool_pub_sub_client.html#a25a8779149cfa809b7c06f63568b25cf" xlink:title="CoolPubSubClient::readPacket">
<polygon fill="white" stroke="black" points="178,-38.5 178,-57.5 330,-57.5 330,-38.5 178,-38.5"/>
<text text-anchor="middle" x="254" y="-45.5" font-family="Helvetica,sans-Serif" font-size="10.00">CoolPubSubClient::readPacket</text>
</a>
</g>
</g>
<!-- Node77&#45;&gt;Node79 -->
<g id="edge2" class="edge"><title>Node77&#45;&gt;Node79</title>
<path fill="none" stroke="midnightblue" d="M152.419,-58.5583C160.829,-57.6754 169.356,-56.7803 177.706,-55.9038"/>
<polygon fill="midnightblue" stroke="midnightblue" points="151.818,-55.102 142.238,-59.6269 152.549,-62.0637 151.818,-55.102"/>
</g>
<!-- Node80 -->
<g id="node4" class="node"><title>Node80</title>
<g id="a_node4"><a xlink:href="$d8/d4b/class_cool_pub_sub_client.html#a7e5a85731dd25d90a41f6d859e61da77" xlink:title="CoolPubSubClient::connect">
<polygon fill="white" stroke="black" points="366,-57.5 366,-76.5 503,-76.5 503,-57.5 366,-57.5"/>
<text text-anchor="middle" x="434.5" y="-64.5" font-family="Helvetica,sans-Serif" font-size="10.00">CoolPubSubClient::connect</text>
</a>
</g>
</g>
<!-- Node79&#45;&gt;Node80 -->
<g id="edge3" class="edge"><title>Node79&#45;&gt;Node80</title>
<path fill="none" stroke="midnightblue" d="M340.212,-57.0702C348.792,-57.9834 357.421,-58.902 365.782,-59.7919"/>
<polygon fill="midnightblue" stroke="midnightblue" points="340.497,-53.5808 330.183,-56.0026 339.756,-60.5415 340.497,-53.5808"/>
</g>
<!-- Node81 -->
<g id="node5" class="node"><title>Node81</title>
<g id="a_node5"><a xlink:href="$d8/d4b/class_cool_pub_sub_client.html#afc15900f0fc4886a19394508e61793b8" xlink:title="CoolPubSubClient::loop">
<polygon fill="white" stroke="black" points="374,-19.5 374,-38.5 495,-38.5 495,-19.5 374,-19.5"/>
<text text-anchor="middle" x="434.5" y="-26.5" font-family="Helvetica,sans-Serif" font-size="10.00">CoolPubSubClient::loop</text>
</a>
</g>
</g>
<!-- Node79&#45;&gt;Node81 -->
<g id="edge4" class="edge"><title>Node79&#45;&gt;Node81</title>
<path fill="none" stroke="midnightblue" d="M340.151,-38.9363C351.542,-37.7238 363.023,-36.5018 373.848,-35.3495"/>
<polygon fill="midnightblue" stroke="midnightblue" points="339.756,-35.4585 330.183,-39.9974 340.497,-42.4192 339.756,-35.4585"/>
</g>
<!-- Node82 -->
<g id="node6" class="node"><title>Node82</title>
<g id="a_node6"><a xlink:href="$d0/dd0/class_cool_m_q_t_t.html#aa5eaae967b562b62cbcf2b8d81f6e5d5" xlink:title="CoolMQTT::mqttLoop">
<polygon fill="white" stroke="black" points="539,-19.5 539,-38.5 650,-38.5 650,-19.5 539,-19.5"/>
<text text-anchor="middle" x="594.5" y="-26.5" font-family="Helvetica,sans-Serif" font-size="10.00">CoolMQTT::mqttLoop</text>
</a>
</g>
</g>
<!-- Node81&#45;&gt;Node82 -->
<g id="edge5" class="edge"><title>Node81&#45;&gt;Node82</title>
<path fill="none" stroke="midnightblue" d="M505.432,-29C516.642,-29 528.099,-29 538.883,-29"/>
<polygon fill="midnightblue" stroke="midnightblue" points="505.233,-25.5001 495.233,-29 505.233,-32.5001 505.233,-25.5001"/>
</g>
<!-- Node83 -->
<g id="node7" class="node"><title>Node83</title>
<g id="a_node7"><a xlink:href="$d7/df9/class_cool_board.html#aa0bbc4bc605e35618d18e68795c61363" xlink:title="CoolBoard::onLineMode">
<polygon fill="white" stroke="black" points="820,-19.5 820,-38.5 941,-38.5 941,-19.5 820,-19.5"/>
<text text-anchor="middle" x="880.5" y="-26.5" font-family="Helvetica,sans-Serif" font-size="10.00">CoolBoard::onLineMode</text>
</a>
</g>
</g>
<!-- Node82&#45;&gt;Node83 -->
<g id="edge6" class="edge"><title>Node82&#45;&gt;Node83</title>
<path fill="none" stroke="midnightblue" d="M660.505,-29C708.345,-29 772.896,-29 819.51,-29"/>
<polygon fill="midnightblue" stroke="midnightblue" points="660.258,-25.5001 650.258,-29 660.258,-32.5001 660.258,-25.5001"/>
</g>
<!-- Node84 -->
<g id="node8" class="node"><title>Node84</title>
<g id="a_node8"><a xlink:href="$d7/df9/class_cool_board.html#a8612756d3f73198cdde857a66f0fe690" xlink:title="CoolBoard::update">
<polygon fill="white" stroke="black" points="686,-0.5 686,-19.5 784,-19.5 784,-0.5 686,-0.5"/>
<text text-anchor="middle" x="735" y="-7.5" font-family="Helvetica,sans-Serif" font-size="10.00">CoolBoard::update</text>
</a>
</g>
</g>
<!-- Node82&#45;&gt;Node84 -->
<g id="edge7" class="edge"><title>Node82&#45;&gt;Node84</title>
<path fill="none" stroke="midnightblue" d="M660.298,-20.1107C668.932,-18.9264 677.657,-17.7293 685.936,-16.5936"/>
<polygon fill="midnightblue" stroke="midnightblue" points="659.67,-16.664 650.239,-21.4907 660.622,-23.599 659.67,-16.664"/>
</g>
<!-- Node84&#45;&gt;Node83 -->
<g id="edge8" class="edge"><title>Node84&#45;&gt;Node83</title>
<path fill="none" stroke="midnightblue" d="M794.332,-17.7234C802.785,-18.8426 811.496,-19.9959 819.972,-21.1182"/>
<polygon fill="midnightblue" stroke="midnightblue" points="794.556,-14.2225 784.183,-16.3796 793.637,-21.162 794.556,-14.2225"/>
</g>
</g>
</svg>
