<?xml version="1.0" encoding="UTF-8" standalone="no"?>
<!DOCTYPE svg PUBLIC "-//W3C//DTD SVG 1.1//EN"
 "http://www.w3.org/Graphics/SVG/1.1/DTD/svg11.dtd">
<!-- Generated by graphviz version 2.38.0 (20140413.2041)
 -->
<!-- Title: CoolBoardActor Pages: 1 -->
<svg width="121pt" height="369pt"
 viewBox="0.00 0.00 121.00 369.00" xmlns="http://www.w3.org/2000/svg" xmlns:xlink="http://www.w3.org/1999/xlink">
<g id="graph0" class="graph" transform="scale(1 1) rotate(0) translate(4 365)">
<title>CoolBoardActor</title>
<polygon fill="white" stroke="none" points="-4,4 -4,-365 117,-365 117,4 -4,4"/>
<!-- Node1 -->
<g id="node1" class="node"><title>Node1</title>
<polygon fill="#bfbfbf" stroke="black" points="13.5,-0.5 13.5,-101.5 99.5,-101.5 99.5,-0.5 13.5,-0.5"/>
<text text-anchor="middle" x="56.5" y="-89.5" font-family="Helvetica,sans-Serif" font-size="10.00">CoolBoardActor</text>
<polyline fill="none" stroke="black" points="13.5,-82.5 99.5,-82.5 "/>
<text text-anchor="start" x="21.5" y="-70.5" font-family="Helvetica,sans-Serif" font-size="10.00">&#45; pin</text>
<polyline fill="none" stroke="black" points="13.5,-63.5 99.5,-63.5 "/>
<text text-anchor="start" x="21.5" y="-51.5" font-family="Helvetica,sans-Serif" font-size="10.00">+ begin()</text>
<text text-anchor="start" x="21.5" y="-40.5" font-family="Helvetica,sans-Serif" font-size="10.00">+ write()</text>
<text text-anchor="start" x="21.5" y="-29.5" font-family="Helvetica,sans-Serif" font-size="10.00">+ doAction()</text>
<text text-anchor="start" x="21.5" y="-18.5" font-family="Helvetica,sans-Serif" font-size="10.00">+ config()</text>
<text text-anchor="start" x="21.5" y="-7.5" font-family="Helvetica,sans-Serif" font-size="10.00">+ printConf()</text>
</g>
<!-- Node2 -->
<g id="node2" class="node"><title>Node2</title>
<g id="a_node2"><a xlink:href="../../d5/ddc/struct_cool_board_actor_1_1state.html" target="_top" xlink:title="{CoolBoardActor::state\n|+ actif\l+ temporal\l+ inverted\l+ primaryType\l+ secondaryType\l+ rangeLow\l+ timeLow\l+ hourLow\l+ minuteLow\l+ rangeHigh\l+ timeHigh\l+ hourHigh\l+ minuteHigh\l+ actifTime\l+ inactifTime\l|}">
<polygon fill="white" stroke="black" points="0,-149.5 0,-360.5 113,-360.5 113,-149.5 0,-149.5"/>
<text text-anchor="middle" x="56.5" y="-348.5" font-family="Helvetica,sans-Serif" font-size="10.00">CoolBoardActor::state</text>
<polyline fill="none" stroke="black" points="0,-341.5 113,-341.5 "/>
<text text-anchor="start" x="8" y="-329.5" font-family="Helvetica,sans-Serif" font-size="10.00">+ actif</text>
<text text-anchor="start" x="8" y="-318.5" font-family="Helvetica,sans-Serif" font-size="10.00">+ temporal</text>
<text text-anchor="start" x="8" y="-307.5" font-family="Helvetica,sans-Serif" font-size="10.00">+ inverted</text>
<text text-anchor="start" x="8" y="-296.5" font-family="Helvetica,sans-Serif" font-size="10.00">+ primaryType</text>
<text text-anchor="start" x="8" y="-285.5" font-family="Helvetica,sans-Serif" font-size="10.00">+ secondaryType</text>
<text text-anchor="start" x="8" y="-274.5" font-family="Helvetica,sans-Serif" font-size="10.00">+ rangeLow</text>
<text text-anchor="start" x="8" y="-263.5" font-family="Helvetica,sans-Serif" font-size="10.00">+ timeLow</text>
<text text-anchor="start" x="8" y="-252.5" font-family="Helvetica,sans-Serif" font-size="10.00">+ hourLow</text>
<text text-anchor="start" x="8" y="-241.5" font-family="Helvetica,sans-Serif" font-size="10.00">+ minuteLow</text>
<text text-anchor="start" x="8" y="-230.5" font-family="Helvetica,sans-Serif" font-size="10.00">+ rangeHigh</text>
<text text-anchor="start" x="8" y="-219.5" font-family="Helvetica,sans-Serif" font-size="10.00">+ timeHigh</text>
<text text-anchor="start" x="8" y="-208.5" font-family="Helvetica,sans-Serif" font-size="10.00">+ hourHigh</text>
<text text-anchor="start" x="8" y="-197.5" font-family="Helvetica,sans-Serif" font-size="10.00">+ minuteHigh</text>
<text text-anchor="start" x="8" y="-186.5" font-family="Helvetica,sans-Serif" font-size="10.00">+ actifTime</text>
<text text-anchor="start" x="8" y="-175.5" font-family="Helvetica,sans-Serif" font-size="10.00">+ inactifTime</text>
<polyline fill="none" stroke="black" points="0,-168.5 113,-168.5 "/>
<text text-anchor="middle" x="56.5" y="-156.5" font-family="Helvetica,sans-Serif" font-size="10.00"> </text>
</a>
</g>
</g>
<!-- Node2&#45;&gt;Node1 -->
<g id="edge1" class="edge"><title>Node2&#45;&gt;Node1</title>
<path fill="none" stroke="#404040" d="M56.5,-149.45C56.5,-137.349 56.5,-125.317 56.5,-114.048"/>
<polygon fill="none" stroke="#404040" points="56.5001,-113.688 52.5,-107.688 56.5,-101.688 60.5,-107.688 56.5001,-113.688"/>
<text text-anchor="middle" x="70.5" y="-123" font-family="Helvetica,sans-Serif" font-size="10.00"> &#45;actor</text>
</g>
</g>
</svg>
