<?xml version="1.0" encoding="UTF-8" standalone="no"?>
<!DOCTYPE svg PUBLIC "-//W3C//DTD SVG 1.1//EN"
 "http://www.w3.org/Graphics/SVG/1.1/DTD/svg11.dtd">
<!-- Generated by graphviz version 2.38.0 (20140413.2041)
 -->
<!-- Title: WiFiManager::DEBUG_WM Pages: 1 -->
<svg width="857pt" height="622pt"
 viewBox="0.00 0.00 857.00 621.50" xmlns="http://www.w3.org/2000/svg" xmlns:xlink="http://www.w3.org/1999/xlink">
<g id="graph0" class="graph" transform="scale(1 1) rotate(0) translate(4 617.5)">
<title>WiFiManager::DEBUG_WM</title>
<polygon fill="white" stroke="none" points="-4,4 -4,-617.5 853,-617.5 853,4 -4,4"/>
<!-- Node37 -->
<g id="node1" class="node"><title>Node37</title>
<polygon fill="#bfbfbf" stroke="black" points="0,-309 0,-328 140,-328 140,-309 0,-309"/>
<text text-anchor="middle" x="70" y="-316" font-family="Helvetica,sans-Serif" font-size="10.00">WiFiManager::DEBUG_WM</text>
</g>
<!-- Node38 -->
<g id="node2" class="node"><title>Node38</title>
<g id="a_node2"><a xlink:href="../../d4/dc8/class_wi_fi_manager.html#a62907428e5874de097d83c33ef46c80d" target="_top" xlink:title="WiFiManager::addParameter">
<polygon fill="white" stroke="black" points="180,-594 180,-613 321,-613 321,-594 180,-594"/>
<text text-anchor="middle" x="250.5" y="-601" font-family="Helvetica,sans-Serif" font-size="10.00">WiFiManager::addParameter</text>
</a>
</g>
</g>
<!-- Node37&#45;&gt;Node38 -->
<g id="edge1" class="edge"><title>Node37&#45;&gt;Node38</title>
<path fill="none" stroke="midnightblue" d="M73.2611,-338.24C79.8367,-386.516 103.347,-511.55 176,-579.5 182.765,-585.827 191.222,-590.487 199.969,-593.918"/>
<polygon fill="midnightblue" stroke="midnightblue" points="76.7157,-337.66 71.9895,-328.178 69.771,-338.538 76.7157,-337.66"/>
</g>
<!-- Node39 -->
<g id="node3" class="node"><title>Node39</title>
<g id="a_node3"><a xlink:href="../../d4/dc8/class_wi_fi_manager.html#a1743325d0dd86d011df96b22d2a0ddd6" target="_top" xlink:title="WiFiManager::setupConfig\lPortal">
<polygon fill="white" stroke="black" points="550.5,-398.5 550.5,-428.5 683.5,-428.5 683.5,-398.5 550.5,-398.5"/>
<text text-anchor="start" x="558.5" y="-416.5" font-family="Helvetica,sans-Serif" font-size="10.00">WiFiManager::setupConfig</text>
<text text-anchor="middle" x="617" y="-405.5" font-family="Helvetica,sans-Serif" font-size="10.00">Portal</text>
</a>
</g>
</g>
<!-- Node37&#45;&gt;Node39 -->
<g id="edge2" class="edge"><title>Node37&#45;&gt;Node39</title>
<path fill="none" stroke="midnightblue" d="M75.0392,-338.408C84.4796,-379.044 112.207,-470.868 176,-508.5 207.814,-527.267 512.587,-494.66 513,-494.5 549.899,-480.173 584.222,-447.902 602.424,-428.698"/>
<polygon fill="midnightblue" stroke="midnightblue" points="78.4041,-337.412 72.8467,-328.391 71.566,-338.909 78.4041,-337.412"/>
</g>
<!-- Node40 -->
<g id="node4" class="node"><title>Node40</title>
<g id="a_node4"><a xlink:href="../../d4/dc8/class_wi_fi_manager.html#afaca5021edffb4d9a5bd39f7b0f7a686" target="_top" xlink:title="WiFiManager::startConfig\lPortal">
<polygon fill="white" stroke="black" points="721,-148.5 721,-178.5 849,-178.5 849,-148.5 721,-148.5"/>
<text text-anchor="start" x="729" y="-166.5" font-family="Helvetica,sans-Serif" font-size="10.00">WiFiManager::startConfig</text>
<text text-anchor="middle" x="785" y="-155.5" font-family="Helvetica,sans-Serif" font-size="10.00">Portal</text>
</a>
</g>
</g>
<!-- Node37&#45;&gt;Node40 -->
<g id="edge5" class="edge"><title>Node37&#45;&gt;Node40</title>
<path fill="none" stroke="midnightblue" d="M72.6507,-298.871C77.8462,-251.14 98.4779,-129.201 176,-78.5 268.098,-18.2665 607.223,-110.513 734.925,-148.439"/>
<polygon fill="midnightblue" stroke="midnightblue" points="69.1653,-298.553 71.6775,-308.846 76.1322,-299.233 69.1653,-298.553"/>
</g>
<!-- Node41 -->
<g id="node5" class="node"><title>Node41</title>
<g id="a_node5"><a xlink:href="../../d4/dc8/class_wi_fi_manager.html#ab1d094034e5e3e36e2e1b3624edad469" target="_top" xlink:title="WiFiManager::autoConnect">
<polygon fill="white" stroke="black" points="549,-203 549,-222 685,-222 685,-203 549,-203"/>
<text text-anchor="middle" x="617" y="-210" font-family="Helvetica,sans-Serif" font-size="10.00">WiFiManager::autoConnect</text>
</a>
</g>
</g>
<!-- Node37&#45;&gt;Node41 -->
<g id="edge4" class="edge"><title>Node37&#45;&gt;Node41</title>
<path fill="none" stroke="midnightblue" d="M99.8916,-304.722C120.658,-295.304 149.544,-283.182 176,-275.5 304.761,-238.111 461.424,-222.454 548.801,-216.252"/>
<polygon fill="midnightblue" stroke="midnightblue" points="98.2976,-301.602 90.6784,-308.964 101.226,-307.961 98.2976,-301.602"/>
</g>
<!-- Node42 -->
<g id="node6" class="node"><title>Node42</title>
<g id="a_node6"><a xlink:href="../../d4/dc8/class_wi_fi_manager.html#ae0ae27b5543b47585728c084c3bbdca7" target="_top" xlink:title="WiFiManager::connectWifi">
<polygon fill="white" stroke="black" points="371,-154 371,-173 503,-173 503,-154 371,-154"/>
<text text-anchor="middle" x="437" y="-161" font-family="Helvetica,sans-Serif" font-size="10.00">WiFiManager::connectWifi</text>
</a>
</g>
</g>
<!-- Node37&#45;&gt;Node42 -->
<g id="edge6" class="edge"><title>Node37&#45;&gt;Node42</title>
<path fill="none" stroke="midnightblue" d="M82.9992,-300.16C100.34,-275.275 134.876,-231.414 176,-209.5 236.884,-177.056 316.042,-166.861 370.945,-163.968"/>
<polygon fill="midnightblue" stroke="midnightblue" points="79.9351,-298.442 77.2174,-308.682 85.7279,-302.372 79.9351,-298.442"/>
</g>
<!-- Node43 -->
<g id="node7" class="node"><title>Node43</title>
<g id="a_node7"><a xlink:href="../../d4/dc8/class_wi_fi_manager.html#a89a3f33997aa662ad223d6c150c1eede" target="_top" xlink:title="WiFiManager::waitForConnect\lResult">
<polygon fill="white" stroke="black" points="176,-126.5 176,-156.5 325,-156.5 325,-126.5 176,-126.5"/>
<text text-anchor="start" x="184" y="-144.5" font-family="Helvetica,sans-Serif" font-size="10.00">WiFiManager::waitForConnect</text>
<text text-anchor="middle" x="250.5" y="-133.5" font-family="Helvetica,sans-Serif" font-size="10.00">Result</text>
</a>
</g>
</g>
<!-- Node37&#45;&gt;Node43 -->
<g id="edge9" class="edge"><title>Node37&#45;&gt;Node43</title>
<path fill="none" stroke="midnightblue" d="M80.0006,-299.642C95.5556,-268.871 130.247,-207.676 176,-171.5 183.568,-165.516 192.492,-160.562 201.466,-156.521"/>
<polygon fill="midnightblue" stroke="midnightblue" points="76.7532,-298.314 75.4707,-308.831 83.0317,-301.409 76.7532,-298.314"/>
</g>
<!-- Node44 -->
<g id="node8" class="node"><title>Node44</title>
<g id="a_node8"><a xlink:href="../../d4/dc8/class_wi_fi_manager.html#abcc403fc26a47f7a111d1271f1d0869e" target="_top" xlink:title="WiFiManager::startWPS">
<polygon fill="white" stroke="black" points="189,-88 189,-107 312,-107 312,-88 189,-88"/>
<text text-anchor="middle" x="250.5" y="-95" font-family="Helvetica,sans-Serif" font-size="10.00">WiFiManager::startWPS</text>
</a>
</g>
</g>
<!-- Node37&#45;&gt;Node44 -->
<g id="edge11" class="edge"><title>Node37&#45;&gt;Node44</title>
<path fill="none" stroke="midnightblue" d="M75.4615,-298.949C85.756,-258.415 115.093,-164.972 176,-116.5 180.847,-112.643 186.392,-109.561 192.214,-107.101"/>
<polygon fill="midnightblue" stroke="midnightblue" points="72.0551,-298.144 73.1006,-308.688 78.8581,-299.794 72.0551,-298.144"/>
</g>
<!-- Node45 -->
<g id="node9" class="node"><title>Node45</title>
<g id="a_node9"><a xlink:href="../../d4/dc8/class_wi_fi_manager.html#a0027749816b6c66bc845d7c5db760a33" target="_top" xlink:title="WiFiManager::resetSettings">
<polygon fill="white" stroke="black" points="181.5,-328 181.5,-347 319.5,-347 319.5,-328 181.5,-328"/>
<text text-anchor="middle" x="250.5" y="-335" font-family="Helvetica,sans-Serif" font-size="10.00">WiFiManager::resetSettings</text>
</a>
</g>
</g>
<!-- Node37&#45;&gt;Node45 -->
<g id="edge13" class="edge"><title>Node37&#45;&gt;Node45</title>
<path fill="none" stroke="midnightblue" d="M150.269,-326.938C160.606,-328.038 171.124,-329.157 181.259,-330.236"/>
<polygon fill="midnightblue" stroke="midnightblue" points="150.327,-323.424 140.013,-325.846 149.586,-330.385 150.327,-323.424"/>
</g>
<!-- Node46 -->
<g id="node10" class="node"><title>Node46</title>
<g id="a_node10"><a xlink:href="../../d4/dc8/class_wi_fi_manager.html#a47e4c7df7478f690c53ff9f5125c9760" target="_top" xlink:title="WiFiManager::handleRoot">
<polygon fill="white" stroke="black" points="372,-404 372,-423 502,-423 502,-404 372,-404"/>
<text text-anchor="middle" x="437" y="-411" font-family="Helvetica,sans-Serif" font-size="10.00">WiFiManager::handleRoot</text>
</a>
</g>
</g>
<!-- Node37&#45;&gt;Node46 -->
<g id="edge14" class="edge"><title>Node37&#45;&gt;Node46</title>
<path fill="none" stroke="midnightblue" d="M92.035,-333.791C112.444,-347.809 144.819,-367.942 176,-378.5 240.495,-400.338 318.331,-408.606 371.932,-411.706"/>
<polygon fill="midnightblue" stroke="midnightblue" points="94.0007,-330.894 83.8033,-328.02 89.9825,-336.626 94.0007,-330.894"/>
</g>
<!-- Node47 -->
<g id="node11" class="node"><title>Node47</title>
<g id="a_node11"><a xlink:href="../../d4/dc8/class_wi_fi_manager.html#a57a9048175c1918340ab9d0a2c53601f" target="_top" xlink:title="WiFiManager::handleWifi">
<polygon fill="white" stroke="black" points="374,-366 374,-385 500,-385 500,-366 374,-366"/>
<text text-anchor="middle" x="437" y="-373" font-family="Helvetica,sans-Serif" font-size="10.00">WiFiManager::handleWifi</text>
</a>
</g>
</g>
<!-- Node37&#45;&gt;Node47 -->
<g id="edge16" class="edge"><title>Node37&#45;&gt;Node47</title>
<path fill="none" stroke="midnightblue" d="M101.687,-332.138C122.282,-340.654 150.256,-351.01 176,-356.5 242.617,-370.706 320.767,-374.775 373.866,-375.717"/>
<polygon fill="midnightblue" stroke="midnightblue" points="102.785,-328.802 92.2109,-328.134 100.06,-335.25 102.785,-328.802"/>
</g>
<!-- Node48 -->
<g id="node12" class="node"><title>Node48</title>
<g id="a_node12"><a xlink:href="../../d4/dc8/class_wi_fi_manager.html#a2a8c2b60aa86dfdeab8a1a90f7122dc7" target="_top" xlink:title="WiFiManager::handleWifiSave">
<polygon fill="white" stroke="black" points="362.5,-309 362.5,-328 511.5,-328 511.5,-309 362.5,-309"/>
<text text-anchor="middle" x="437" y="-316" font-family="Helvetica,sans-Serif" font-size="10.00">WiFiManager::handleWifiSave</text>
</a>
</g>
</g>
<!-- Node37&#45;&gt;Node48 -->
<g id="edge18" class="edge"><title>Node37&#45;&gt;Node48</title>
<path fill="none" stroke="midnightblue" d="M150.365,-318.5C213.339,-318.5 300.706,-318.5 362.186,-318.5"/>
<polygon fill="midnightblue" stroke="midnightblue" points="150.083,-315 140.083,-318.5 150.083,-322 150.083,-315"/>
</g>
<!-- Node49 -->
<g id="node13" class="node"><title>Node49</title>
<g id="a_node13"><a xlink:href="../../d4/dc8/class_wi_fi_manager.html#ac35e46661f8a209d84bba62d9aa43a35" target="_top" xlink:title="WiFiManager::handleInfo">
<polygon fill="white" stroke="black" points="374.5,-252 374.5,-271 499.5,-271 499.5,-252 374.5,-252"/>
<text text-anchor="middle" x="437" y="-259" font-family="Helvetica,sans-Serif" font-size="10.00">WiFiManager::handleInfo</text>
</a>
</g>
</g>
<!-- Node37&#45;&gt;Node49 -->
<g id="edge20" class="edge"><title>Node37&#45;&gt;Node49</title>
<path fill="none" stroke="midnightblue" d="M142.258,-307.372C210.022,-296.79 310.869,-281.041 375.012,-271.024"/>
<polygon fill="midnightblue" stroke="midnightblue" points="141.433,-303.958 132.093,-308.959 142.513,-310.875 141.433,-303.958"/>
</g>
<!-- Node50 -->
<g id="node14" class="node"><title>Node50</title>
<g id="a_node14"><a xlink:href="../../d4/dc8/class_wi_fi_manager.html#a94fb1a8fcfbd0d02714c69138bf72f9c" target="_top" xlink:title="WiFiManager::handleReset">
<polygon fill="white" stroke="black" points="369.5,-556 369.5,-575 504.5,-575 504.5,-556 369.5,-556"/>
<text text-anchor="middle" x="437" y="-563" font-family="Helvetica,sans-Serif" font-size="10.00">WiFiManager::handleReset</text>
</a>
</g>
</g>
<!-- Node37&#45;&gt;Node50 -->
<g id="edge22" class="edge"><title>Node37&#45;&gt;Node50</title>
<path fill="none" stroke="midnightblue" d="M73.7078,-338.141C81.0148,-382.847 105.58,-492.136 176,-541.5 236.69,-584.043 325.912,-582.034 382.466,-575.027"/>
<polygon fill="midnightblue" stroke="midnightblue" points="77.1663,-337.603 72.2044,-328.242 70.2457,-338.654 77.1663,-337.603"/>
</g>
<!-- Node51 -->
<g id="node15" class="node"><title>Node51</title>
<g id="a_node15"><a xlink:href="../../d4/dc8/class_wi_fi_manager.html#abed7fbbdab409fc8aba2a5c00f3d2db1" target="_top" xlink:title="WiFiManager::handleFileRead">
<polygon fill="white" stroke="black" points="176.5,-480 176.5,-499 324.5,-499 324.5,-480 176.5,-480"/>
<text text-anchor="middle" x="250.5" y="-487" font-family="Helvetica,sans-Serif" font-size="10.00">WiFiManager::handleFileRead</text>
</a>
</g>
</g>
<!-- Node37&#45;&gt;Node51 -->
<g id="edge24" class="edge"><title>Node37&#45;&gt;Node51</title>
<path fill="none" stroke="midnightblue" d="M78.6917,-337.364C92.9004,-369.772 126.409,-435.868 176,-470.5 181.511,-474.349 187.743,-477.418 194.191,-479.865"/>
<polygon fill="midnightblue" stroke="midnightblue" points="81.8914,-335.944 74.7607,-328.108 75.4484,-338.681 81.8914,-335.944"/>
</g>
<!-- Node53 -->
<g id="node17" class="node"><title>Node53</title>
<g id="a_node17"><a xlink:href="../../d4/dc8/class_wi_fi_manager.html#a4ef4298deb224212e5242c456669a973" target="_top" xlink:title="WiFiManager::captivePortal">
<polygon fill="white" stroke="black" points="182,-442 182,-461 319,-461 319,-442 182,-442"/>
<text text-anchor="middle" x="250.5" y="-449" font-family="Helvetica,sans-Serif" font-size="10.00">WiFiManager::captivePortal</text>
</a>
</g>
</g>
<!-- Node37&#45;&gt;Node53 -->
<g id="edge28" class="edge"><title>Node37&#45;&gt;Node53</title>
<path fill="none" stroke="midnightblue" d="M83.7331,-336.399C101.699,-360.411 136.713,-402.877 176,-427.5 185.782,-433.631 197.286,-438.351 208.252,-441.916"/>
<polygon fill="midnightblue" stroke="midnightblue" points="86.4419,-334.174 77.7088,-328.175 80.7949,-338.31 86.4419,-334.174"/>
</g>
<!-- Node54 -->
<g id="node18" class="node"><title>Node54</title>
<g id="a_node18"><a xlink:href="../../d4/dc8/class_wi_fi_manager.html#aa248b818eee0423b14a88c637f7c4637" target="_top" xlink:title="WiFiManager::optionalIPFrom\lString">
<polygon fill="white" stroke="black" points="177.5,-0.5 177.5,-30.5 323.5,-30.5 323.5,-0.5 177.5,-0.5"/>
<text text-anchor="start" x="185.5" y="-18.5" font-family="Helvetica,sans-Serif" font-size="10.00">WiFiManager::optionalIPFrom</text>
<text text-anchor="middle" x="250.5" y="-7.5" font-family="Helvetica,sans-Serif" font-size="10.00">String</text>
</a>
</g>
</g>
<!-- Node37&#45;&gt;Node54 -->
<g id="edge31" class="edge"><title>Node37&#45;&gt;Node54</title>
<path fill="none" stroke="midnightblue" d="M73.2081,-298.853C79.7395,-249.635 103.297,-119.697 176,-45.5 181.981,-39.3965 189.375,-34.4898 197.149,-30.5581"/>
<polygon fill="midnightblue" stroke="midnightblue" points="69.7292,-298.467 71.9765,-308.821 76.6764,-299.325 69.7292,-298.467"/>
</g>
<!-- Node39&#45;&gt;Node40 -->
<g id="edge3" class="edge"><title>Node39&#45;&gt;Node40</title>
<path fill="none" stroke="midnightblue" d="M633.709,-389.842C667.469,-338.998 746.136,-220.524 773.998,-178.563"/>
<polygon fill="midnightblue" stroke="midnightblue" points="630.75,-387.971 628.134,-398.238 636.582,-391.843 630.75,-387.971"/>
</g>
<!-- Node42&#45;&gt;Node40 -->
<g id="edge8" class="edge"><title>Node42&#45;&gt;Node40</title>
<path fill="none" stroke="midnightblue" d="M513.211,-163.5C575.318,-163.5 662.465,-163.5 720.963,-163.5"/>
<polygon fill="midnightblue" stroke="midnightblue" points="513.08,-160 503.08,-163.5 513.08,-167 513.08,-160"/>
</g>
<!-- Node42&#45;&gt;Node41 -->
<g id="edge7" class="edge"><title>Node42&#45;&gt;Node41</title>
<path fill="none" stroke="midnightblue" d="M482.718,-175.81C513.28,-184.223 553.191,-195.21 581.345,-202.96"/>
<polygon fill="midnightblue" stroke="midnightblue" points="483.313,-172.344 472.743,-173.064 481.455,-179.093 483.313,-172.344"/>
</g>
<!-- Node43&#45;&gt;Node42 -->
<g id="edge10" class="edge"><title>Node43&#45;&gt;Node42</title>
<path fill="none" stroke="midnightblue" d="M335.176,-151.478C347.11,-152.901 359.237,-154.347 370.748,-155.719"/>
<polygon fill="midnightblue" stroke="midnightblue" points="335.559,-147.999 325.215,-150.29 334.73,-154.949 335.559,-147.999"/>
</g>
<!-- Node44&#45;&gt;Node42 -->
<g id="edge12" class="edge"><title>Node44&#45;&gt;Node42</title>
<path fill="none" stroke="midnightblue" d="M302.787,-109.721C310.29,-111.808 317.883,-114.088 325,-116.5 357.505,-127.516 393.917,-143.706 415.891,-153.921"/>
<polygon fill="midnightblue" stroke="midnightblue" points="303.588,-106.312 293.022,-107.093 301.769,-113.071 303.588,-106.312"/>
</g>
<!-- Node46&#45;&gt;Node39 -->
<g id="edge15" class="edge"><title>Node46&#45;&gt;Node39</title>
<path fill="none" stroke="midnightblue" d="M512.107,-413.5C524.834,-413.5 537.979,-413.5 550.461,-413.5"/>
<polygon fill="midnightblue" stroke="midnightblue" points="512.011,-410 502.011,-413.5 512.011,-417 512.011,-410"/>
</g>
<!-- Node47&#45;&gt;Node39 -->
<g id="edge17" class="edge"><title>Node47&#45;&gt;Node39</title>
<path fill="none" stroke="midnightblue" d="M492.754,-387.189C510.921,-391.067 531.333,-395.425 550.241,-399.462"/>
<polygon fill="midnightblue" stroke="midnightblue" points="493.427,-383.754 482.917,-385.089 491.966,-390.6 493.427,-383.754"/>
</g>
<!-- Node48&#45;&gt;Node39 -->
<g id="edge19" class="edge"><title>Node48&#45;&gt;Node39</title>
<path fill="none" stroke="midnightblue" d="M466.684,-332.726C480.711,-339.76 497.804,-348.449 513,-356.5 539.186,-370.374 568.752,-386.818 589.469,-398.469"/>
<polygon fill="midnightblue" stroke="midnightblue" points="468.035,-329.488 457.525,-328.148 464.905,-335.75 468.035,-329.488"/>
</g>
<!-- Node49&#45;&gt;Node39 -->
<g id="edge21" class="edge"><title>Node49&#45;&gt;Node39</title>
<path fill="none" stroke="midnightblue" d="M471.723,-275.35C485.217,-281.696 500.494,-289.943 513,-299.5 551.785,-329.138 587.753,-374.657 605.112,-398.207"/>
<polygon fill="midnightblue" stroke="midnightblue" points="472.83,-272.009 462.276,-271.073 469.943,-278.386 472.83,-272.009"/>
</g>
<!-- Node50&#45;&gt;Node39 -->
<g id="edge23" class="edge"><title>Node50&#45;&gt;Node39</title>
<path fill="none" stroke="midnightblue" d="M491.872,-552.526C499.305,-549.539 506.58,-545.906 513,-541.5 557.684,-510.834 592.777,-455.18 607.902,-428.522"/>
<polygon fill="midnightblue" stroke="midnightblue" points="490.621,-549.256 482.426,-555.972 493.02,-555.832 490.621,-549.256"/>
</g>
<!-- Node51&#45;&gt;Node39 -->
<g id="edge25" class="edge"><title>Node51&#45;&gt;Node39</title>
<path fill="none" stroke="midnightblue" d="M334.81,-492.503C387.008,-492.184 455.12,-487.708 513,-470.5 543.56,-461.414 575.123,-442.235 595.118,-428.638"/>
<polygon fill="midnightblue" stroke="midnightblue" points="334.586,-489.003 324.59,-492.513 334.594,-496.003 334.586,-489.003"/>
</g>
<!-- Node52 -->
<g id="node16" class="node"><title>Node52</title>
<g id="a_node16"><a xlink:href="../../d4/dc8/class_wi_fi_manager.html#a7d01f7de3e4b76acdabffac79fa3d0ab" target="_top" xlink:title="WiFiManager::handleNotFound">
<polygon fill="white" stroke="black" points="361,-442 361,-461 513,-461 513,-442 361,-442"/>
<text text-anchor="middle" x="437" y="-449" font-family="Helvetica,sans-Serif" font-size="10.00">WiFiManager::handleNotFound</text>
</a>
</g>
</g>
<!-- Node51&#45;&gt;Node52 -->
<g id="edge26" class="edge"><title>Node51&#45;&gt;Node52</title>
<path fill="none" stroke="midnightblue" d="M307.867,-477.89C334.107,-472.486 364.936,-466.136 389.778,-461.02"/>
<polygon fill="midnightblue" stroke="midnightblue" points="307.145,-474.466 298.057,-479.911 308.558,-481.322 307.145,-474.466"/>
</g>
<!-- Node52&#45;&gt;Node39 -->
<g id="edge27" class="edge"><title>Node52&#45;&gt;Node39</title>
<path fill="none" stroke="midnightblue" d="M492.754,-439.811C510.921,-435.933 531.333,-431.575 550.241,-427.538"/>
<polygon fill="midnightblue" stroke="midnightblue" points="491.966,-436.4 482.917,-441.911 493.427,-443.246 491.966,-436.4"/>
</g>
<!-- Node53&#45;&gt;Node46 -->
<g id="edge29" class="edge"><title>Node53&#45;&gt;Node46</title>
<path fill="none" stroke="midnightblue" d="M307.867,-439.89C334.107,-434.486 364.936,-428.136 389.778,-423.02"/>
<polygon fill="midnightblue" stroke="midnightblue" points="307.145,-436.466 298.057,-441.911 308.558,-443.322 307.145,-436.466"/>
</g>
<!-- Node53&#45;&gt;Node52 -->
<g id="edge30" class="edge"><title>Node53&#45;&gt;Node52</title>
<path fill="none" stroke="midnightblue" d="M329.458,-451.5C339.867,-451.5 350.524,-451.5 360.882,-451.5"/>
<polygon fill="midnightblue" stroke="midnightblue" points="329.153,-448 319.153,-451.5 329.153,-455 329.153,-448"/>
</g>
</g>
</svg>
