<?xml version="1.0" encoding="UTF-8" standalone="no"?>
<!DOCTYPE svg PUBLIC "-//W3C//DTD SVG 1.1//EN"
 "http://www.w3.org/Graphics/SVG/1.1/DTD/svg11.dtd">
<!-- Generated by graphviz version 2.38.0 (20140413.2041)
 -->
<!-- Title: WiFiManager::startConfigPortal Pages: 1 -->
<svg width="874pt" height="598pt"
 viewBox="0.00 0.00 874.00 598.21" xmlns="http://www.w3.org/2000/svg" xmlns:xlink="http://www.w3.org/1999/xlink">
<g id="graph0" class="graph" transform="scale(1 1) rotate(0) translate(4 594.214)">
<title>WiFiManager::startConfigPortal</title>
<polygon fill="white" stroke="none" points="-4,4 -4,-594.214 870,-594.214 870,4 -4,4"/>
<!-- Node198 -->
<g id="node1" class="node"><title>Node198</title>
<polygon fill="#bfbfbf" stroke="black" points="0,-121 0,-151 128,-151 128,-121 0,-121"/>
<text text-anchor="start" x="8" y="-139" font-family="Helvetica,sans-Serif" font-size="10.00">WiFiManager::startConfig</text>
<text text-anchor="middle" x="64" y="-128" font-family="Helvetica,sans-Serif" font-size="10.00">Portal</text>
</g>
<!-- Node199 -->
<g id="node2" class="node"><title>Node199</title>
<g id="a_node2"><a xlink:href="../../d4/dc8/class_wi_fi_manager.html#ae5f595c670ccbcf9a191baf50f5c7c26" target="_top" xlink:title="WiFiManager::DEBUG_WM">
<polygon fill="white" stroke="black" points="721,-271.5 721,-290.5 861,-290.5 861,-271.5 721,-271.5"/>
<text text-anchor="middle" x="791" y="-278.5" font-family="Helvetica,sans-Serif" font-size="10.00">WiFiManager::DEBUG_WM</text>
</a>
</g>
</g>
<!-- Node198&#45;&gt;Node199 -->
<g id="edge1" class="edge"><title>Node198&#45;&gt;Node199</title>
<path fill="none" stroke="midnightblue" d="M128.123,-134.855C264.532,-133.239 582.374,-134.34 680,-177 722.709,-195.663 759.034,-238.378 777.324,-262.865"/>
<polygon fill="midnightblue" stroke="midnightblue" points="774.718,-265.234 783.426,-271.269 780.383,-261.121 774.718,-265.234"/>
</g>
<!-- Node200 -->
<g id="node3" class="node"><title>Node200</title>
<g id="a_node3"><a xlink:href="../../d4/dc8/class_wi_fi_manager.html#a1743325d0dd86d011df96b22d2a0ddd6" target="_top" xlink:title="WiFiManager::setupConfig\lPortal">
<polygon fill="white" stroke="black" points="164,-411 164,-441 297,-441 297,-411 164,-411"/>
<text text-anchor="start" x="172" y="-429" font-family="Helvetica,sans-Serif" font-size="10.00">WiFiManager::setupConfig</text>
<text text-anchor="middle" x="230.5" y="-418" font-family="Helvetica,sans-Serif" font-size="10.00">Portal</text>
</a>
</g>
</g>
<!-- Node198&#45;&gt;Node200 -->
<g id="edge2" class="edge"><title>Node198&#45;&gt;Node200</title>
<path fill="none" stroke="midnightblue" d="M73.6126,-151.183C100.54,-198.654 183.285,-344.527 215.994,-402.189"/>
<polygon fill="midnightblue" stroke="midnightblue" points="212.994,-403.996 220.973,-410.967 219.083,-400.542 212.994,-403.996"/>
</g>
<!-- Node215 -->
<g id="node18" class="node"><title>Node215</title>
<g id="a_node18"><a xlink:href="../../d4/dc8/class_wi_fi_manager.html#ae0ae27b5543b47585728c084c3bbdca7" target="_top" xlink:title="WiFiManager::connectWifi">
<polygon fill="white" stroke="black" points="343,-55.5 343,-74.5 475,-74.5 475,-55.5 343,-55.5"/>
<text text-anchor="middle" x="409" y="-62.5" font-family="Helvetica,sans-Serif" font-size="10.00">WiFiManager::connectWifi</text>
</a>
</g>
</g>
<!-- Node198&#45;&gt;Node215 -->
<g id="edge27" class="edge"><title>Node198&#45;&gt;Node215</title>
<path fill="none" stroke="midnightblue" d="M128.311,-122.895C192.488,-109.61 290.828,-89.2543 352.176,-76.5554"/>
<polygon fill="midnightblue" stroke="midnightblue" points="352.983,-79.9627 362.065,-74.5083 351.564,-73.108 352.983,-79.9627"/>
</g>
<!-- Node200&#45;&gt;Node199 -->
<g id="edge3" class="edge"><title>Node200&#45;&gt;Node199</title>
<path fill="none" stroke="midnightblue" d="M247.134,-410.927C266.076,-393.39 299.617,-364.599 333,-347 410.586,-306.098 434.492,-301.459 521,-287 584.195,-276.437 656.892,-275.471 710.769,-276.85"/>
<polygon fill="midnightblue" stroke="midnightblue" points="710.846,-280.353 720.943,-277.144 711.049,-273.356 710.846,-280.353"/>
</g>
<!-- Node201 -->
<g id="node4" class="node"><title>Node201</title>
<g id="a_node4"><a xlink:href="../../d4/dc8/class_wi_fi_manager.html#a47e4c7df7478f690c53ff9f5125c9760" target="_top" xlink:title="WiFiManager::handleRoot">
<polygon fill="white" stroke="black" points="344,-492.5 344,-511.5 474,-511.5 474,-492.5 344,-492.5"/>
<text text-anchor="middle" x="409" y="-499.5" font-family="Helvetica,sans-Serif" font-size="10.00">WiFiManager::handleRoot</text>
</a>
</g>
</g>
<!-- Node200&#45;&gt;Node201 -->
<g id="edge4" class="edge"><title>Node200&#45;&gt;Node201</title>
<path fill="none" stroke="midnightblue" d="M254.415,-441.19C274.438,-453.886 304.659,-471.683 333,-483 339.202,-485.477 345.824,-487.708 352.469,-489.696"/>
<polygon fill="midnightblue" stroke="midnightblue" points="351.6,-493.087 362.174,-492.434 353.501,-486.35 351.6,-493.087"/>
</g>
<!-- Node205 -->
<g id="node8" class="node"><title>Node205</title>
<g id="a_node8"><a xlink:href="../../d4/dc8/class_wi_fi_manager.html#a57a9048175c1918340ab9d0a2c53601f" target="_top" xlink:title="WiFiManager::handleWifi">
<polygon fill="white" stroke="black" points="346,-356.5 346,-375.5 472,-375.5 472,-356.5 346,-356.5"/>
<text text-anchor="middle" x="409" y="-363.5" font-family="Helvetica,sans-Serif" font-size="10.00">WiFiManager::handleWifi</text>
</a>
</g>
</g>
<!-- Node200&#45;&gt;Node205 -->
<g id="edge10" class="edge"><title>Node200&#45;&gt;Node205</title>
<path fill="none" stroke="midnightblue" d="M276.038,-410.859C305.143,-400.965 342.734,-388.187 370.346,-378.8"/>
<polygon fill="midnightblue" stroke="midnightblue" points="371.692,-382.04 380.033,-375.507 369.439,-375.412 371.692,-382.04"/>
</g>
<!-- Node208 -->
<g id="node11" class="node"><title>Node208</title>
<g id="a_node11"><a xlink:href="../../d4/dc8/class_wi_fi_manager.html#a2a8c2b60aa86dfdeab8a1a90f7122dc7" target="_top" xlink:title="WiFiManager::handleWifiSave">
<polygon fill="white" stroke="black" points="334.5,-208.5 334.5,-227.5 483.5,-227.5 483.5,-208.5 334.5,-208.5"/>
<text text-anchor="middle" x="409" y="-215.5" font-family="Helvetica,sans-Serif" font-size="10.00">WiFiManager::handleWifiSave</text>
</a>
</g>
</g>
<!-- Node200&#45;&gt;Node208 -->
<g id="edge14" class="edge"><title>Node200&#45;&gt;Node208</title>
<path fill="none" stroke="midnightblue" d="M236.244,-410.882C247.577,-377.086 279.348,-294.728 333,-248 341.014,-241.02 350.856,-235.544 360.74,-231.292"/>
<polygon fill="midnightblue" stroke="midnightblue" points="362.148,-234.5 370.173,-227.583 359.585,-227.986 362.148,-234.5"/>
</g>
<!-- Node210 -->
<g id="node13" class="node"><title>Node210</title>
<g id="a_node13"><a xlink:href="../../d4/dc8/class_wi_fi_manager.html#ac35e46661f8a209d84bba62d9aa43a35" target="_top" xlink:title="WiFiManager::handleInfo">
<polygon fill="white" stroke="black" points="346.5,-454.5 346.5,-473.5 471.5,-473.5 471.5,-454.5 346.5,-454.5"/>
<text text-anchor="middle" x="409" y="-461.5" font-family="Helvetica,sans-Serif" font-size="10.00">WiFiManager::handleInfo</text>
</a>
</g>
</g>
<!-- Node200&#45;&gt;Node210 -->
<g id="edge17" class="edge"><title>Node200&#45;&gt;Node210</title>
<path fill="none" stroke="midnightblue" d="M297.222,-440.15C315.738,-444.136 335.673,-448.428 353.458,-452.257"/>
<polygon fill="midnightblue" stroke="midnightblue" points="353.141,-455.769 363.654,-454.452 354.615,-448.926 353.141,-455.769"/>
</g>
<!-- Node211 -->
<g id="node14" class="node"><title>Node211</title>
<g id="a_node14"><a xlink:href="../../d4/dc8/class_wi_fi_manager.html#a94fb1a8fcfbd0d02714c69138bf72f9c" target="_top" xlink:title="WiFiManager::handleReset">
<polygon fill="white" stroke="black" points="341.5,-416.5 341.5,-435.5 476.5,-435.5 476.5,-416.5 341.5,-416.5"/>
<text text-anchor="middle" x="409" y="-423.5" font-family="Helvetica,sans-Serif" font-size="10.00">WiFiManager::handleReset</text>
</a>
</g>
</g>
<!-- Node200&#45;&gt;Node211 -->
<g id="edge19" class="edge"><title>Node200&#45;&gt;Node211</title>
<path fill="none" stroke="midnightblue" d="M297.222,-426C308.253,-426 319.787,-426 331.07,-426"/>
<polygon fill="midnightblue" stroke="midnightblue" points="331.34,-429.5 341.34,-426 331.34,-422.5 331.34,-429.5"/>
</g>
<!-- Node212 -->
<g id="node15" class="node"><title>Node212</title>
<g id="a_node15"><a xlink:href="../../d4/dc8/class_wi_fi_manager.html#abed7fbbdab409fc8aba2a5c00f3d2db1" target="_top" xlink:title="WiFiManager::handleFileRead">
<polygon fill="white" stroke="black" points="526.5,-568.5 526.5,-587.5 674.5,-587.5 674.5,-568.5 526.5,-568.5"/>
<text text-anchor="middle" x="600.5" y="-575.5" font-family="Helvetica,sans-Serif" font-size="10.00">WiFiManager::handleFileRead</text>
</a>
</g>
</g>
<!-- Node200&#45;&gt;Node212 -->
<g id="edge21" class="edge"><title>Node200&#45;&gt;Node212</title>
<path fill="none" stroke="midnightblue" d="M237.953,-441.361C251.031,-470.298 283.671,-532.368 333,-559 392.174,-590.947 469.795,-592.804 525.993,-588.405"/>
<polygon fill="midnightblue" stroke="midnightblue" points="526.567,-591.869 536.227,-587.517 525.962,-584.895 526.567,-591.869"/>
</g>
<!-- Node214 -->
<g id="node17" class="node"><title>Node214</title>
<g id="a_node17"><a xlink:href="../../d4/dc8/class_wi_fi_manager.html#a7d01f7de3e4b76acdabffac79fa3d0ab" target="_top" xlink:title="WiFiManager::handleNotFound">
<polygon fill="white" stroke="black" points="333,-530.5 333,-549.5 485,-549.5 485,-530.5 333,-530.5"/>
<text text-anchor="middle" x="409" y="-537.5" font-family="Helvetica,sans-Serif" font-size="10.00">WiFiManager::handleNotFound</text>
</a>
</g>
</g>
<!-- Node200&#45;&gt;Node214 -->
<g id="edge24" class="edge"><title>Node200&#45;&gt;Node214</title>
<path fill="none" stroke="midnightblue" d="M243.527,-441.345C260.957,-462.515 295.302,-500.395 333,-521 337.199,-523.295 341.682,-525.319 346.288,-527.104"/>
<polygon fill="midnightblue" stroke="midnightblue" points="345.27,-530.455 355.865,-530.439 347.572,-523.845 345.27,-530.455"/>
</g>
<!-- Node201&#45;&gt;Node199 -->
<g id="edge5" class="edge"><title>Node201&#45;&gt;Node199</title>
<path fill="none" stroke="midnightblue" d="M474.072,-508.771C532.476,-511.662 618.732,-507.388 680,-467 741.27,-426.61 773.131,-339.349 784.753,-300.426"/>
<polygon fill="midnightblue" stroke="midnightblue" points="788.119,-301.385 787.502,-290.809 781.388,-299.462 788.119,-301.385"/>
</g>
<!-- Node202 -->
<g id="node5" class="node"><title>Node202</title>
<g id="a_node5"><a xlink:href="../../d4/dc8/class_wi_fi_manager.html#a4ef4298deb224212e5242c456669a973" target="_top" xlink:title="WiFiManager::captivePortal">
<polygon fill="white" stroke="black" points="532,-530.5 532,-549.5 669,-549.5 669,-530.5 532,-530.5"/>
<text text-anchor="middle" x="600.5" y="-537.5" font-family="Helvetica,sans-Serif" font-size="10.00">WiFiManager::captivePortal</text>
</a>
</g>
</g>
<!-- Node201&#45;&gt;Node202 -->
<g id="edge6" class="edge"><title>Node201&#45;&gt;Node202</title>
<path fill="none" stroke="midnightblue" d="M457.819,-511.589C483.389,-516.716 515.059,-523.067 541.968,-528.463"/>
<polygon fill="midnightblue" stroke="midnightblue" points="541.532,-531.945 552.025,-530.48 542.908,-525.082 541.532,-531.945"/>
</g>
<!-- Node202&#45;&gt;Node199 -->
<g id="edge8" class="edge"><title>Node202&#45;&gt;Node199</title>
<path fill="none" stroke="midnightblue" d="M654.486,-530.458C663.712,-527.023 672.682,-522.352 680,-516 748.367,-456.657 777.184,-345.661 786.414,-300.683"/>
<polygon fill="midnightblue" stroke="midnightblue" points="789.874,-301.226 788.351,-290.741 783.003,-299.888 789.874,-301.226"/>
</g>
<!-- Node203 -->
<g id="node6" class="node"><title>Node203</title>
<g id="a_node6"><a xlink:href="../../d4/dc8/class_wi_fi_manager.html#a9c78a8774f746ec22a99d03a53baa607" target="_top" xlink:title="WiFiManager::isIp">
<polygon fill="white" stroke="black" points="743,-492.5 743,-511.5 839,-511.5 839,-492.5 743,-492.5"/>
<text text-anchor="middle" x="791" y="-499.5" font-family="Helvetica,sans-Serif" font-size="10.00">WiFiManager::isIp</text>
</a>
</g>
</g>
<!-- Node202&#45;&gt;Node203 -->
<g id="edge7" class="edge"><title>Node202&#45;&gt;Node203</title>
<path fill="none" stroke="midnightblue" d="M649.067,-530.411C674.501,-525.284 706.005,-518.933 732.771,-513.537"/>
<polygon fill="midnightblue" stroke="midnightblue" points="733.664,-516.927 742.776,-511.52 732.281,-510.065 733.664,-516.927"/>
</g>
<!-- Node204 -->
<g id="node7" class="node"><title>Node204</title>
<g id="a_node7"><a xlink:href="../../d4/dc8/class_wi_fi_manager.html#a8dfd64cefecbdf26242b16eca335c20b" target="_top" xlink:title="WiFiManager::toStringIp">
<polygon fill="white" stroke="black" points="730,-530.5 730,-549.5 852,-549.5 852,-530.5 730,-530.5"/>
<text text-anchor="middle" x="791" y="-537.5" font-family="Helvetica,sans-Serif" font-size="10.00">WiFiManager::toStringIp</text>
</a>
</g>
</g>
<!-- Node202&#45;&gt;Node204 -->
<g id="edge9" class="edge"><title>Node202&#45;&gt;Node204</title>
<path fill="none" stroke="midnightblue" d="M669.02,-540C685.467,-540 703.098,-540 719.672,-540"/>
<polygon fill="midnightblue" stroke="midnightblue" points="719.835,-543.5 729.835,-540 719.835,-536.5 719.835,-543.5"/>
</g>
<!-- Node205&#45;&gt;Node199 -->
<g id="edge11" class="edge"><title>Node205&#45;&gt;Node199</title>
<path fill="none" stroke="midnightblue" d="M428.321,-356.487C449.904,-345.698 487.12,-328.392 521,-319 583.447,-301.688 656.348,-292.013 710.494,-286.764"/>
<polygon fill="midnightblue" stroke="midnightblue" points="711.093,-290.223 720.721,-285.803 710.438,-283.254 711.093,-290.223"/>
</g>
<!-- Node206 -->
<g id="node9" class="node"><title>Node206</title>
<g id="a_node9"><a xlink:href="../../d4/dc8/class_wi_fi_manager.html#ae71cfd6bd70ada2ca02e1d20b152d0e5" target="_top" xlink:title="WiFiManager::getRSSIasQuality">
<polygon fill="white" stroke="black" points="521,-378.5 521,-397.5 680,-397.5 680,-378.5 521,-378.5"/>
<text text-anchor="middle" x="600.5" y="-385.5" font-family="Helvetica,sans-Serif" font-size="10.00">WiFiManager::getRSSIasQuality</text>
</a>
</g>
</g>
<!-- Node205&#45;&gt;Node206 -->
<g id="edge12" class="edge"><title>Node205&#45;&gt;Node206</title>
<path fill="none" stroke="midnightblue" d="M472.049,-373.204C484.436,-374.642 497.672,-376.178 510.755,-377.697"/>
<polygon fill="midnightblue" stroke="midnightblue" points="510.376,-381.177 520.713,-378.853 511.183,-374.223 510.376,-381.177"/>
</g>
<!-- Node207 -->
<g id="node10" class="node"><title>Node207</title>
<g id="a_node10"><a xlink:href="../../d7/d08/class_wi_fi_manager_parameter.html#a596273c189eb40107500cee3ad31b13b" target="_top" xlink:title="WiFiManagerParameter\l::getCustomHTML">
<polygon fill="white" stroke="black" points="541,-329 541,-359 660,-359 660,-329 541,-329"/>
<text text-anchor="start" x="549" y="-347" font-family="Helvetica,sans-Serif" font-size="10.00">WiFiManagerParameter</text>
<text text-anchor="middle" x="600.5" y="-336" font-family="Helvetica,sans-Serif" font-size="10.00">::getCustomHTML</text>
</a>
</g>
</g>
<!-- Node205&#45;&gt;Node207 -->
<g id="edge13" class="edge"><title>Node205&#45;&gt;Node207</title>
<path fill="none" stroke="midnightblue" d="M472.049,-358.796C490.806,-356.619 511.512,-354.215 530.683,-351.989"/>
<polygon fill="midnightblue" stroke="midnightblue" points="531.321,-355.439 540.851,-350.809 530.514,-348.486 531.321,-355.439"/>
</g>
<!-- Node208&#45;&gt;Node199 -->
<g id="edge15" class="edge"><title>Node208&#45;&gt;Node199</title>
<path fill="none" stroke="midnightblue" d="M436.196,-208.484C485.48,-192.103 594.71,-163.082 680,-193 719.932,-207.007 756.136,-242.282 775.41,-263.675"/>
<polygon fill="midnightblue" stroke="midnightblue" points="772.937,-266.164 782.159,-271.379 778.202,-261.551 772.937,-266.164"/>
</g>
<!-- Node209 -->
<g id="node12" class="node"><title>Node209</title>
<g id="a_node12"><a xlink:href="../../d4/dc8/class_wi_fi_manager.html#a6a94f08eb43e0871932556a4ccfa11b7" target="_top" xlink:title="WiFiManager::optionalIPFrom\lString">
<polygon fill="white" stroke="black" points="527.5,-203 527.5,-233 673.5,-233 673.5,-203 527.5,-203"/>
<text text-anchor="start" x="535.5" y="-221" font-family="Helvetica,sans-Serif" font-size="10.00">WiFiManager::optionalIPFrom</text>
<text text-anchor="middle" x="600.5" y="-210" font-family="Helvetica,sans-Serif" font-size="10.00">String</text>
</a>
</g>
</g>
<!-- Node208&#45;&gt;Node209 -->
<g id="edge16" class="edge"><title>Node208&#45;&gt;Node209</title>
<path fill="none" stroke="midnightblue" d="M483.537,-218C494.529,-218 505.923,-218 517.084,-218"/>
<polygon fill="midnightblue" stroke="midnightblue" points="517.251,-221.5 527.251,-218 517.251,-214.5 517.251,-221.5"/>
</g>
<!-- Node210&#45;&gt;Node199 -->
<g id="edge18" class="edge"><title>Node210&#45;&gt;Node199</title>
<path fill="none" stroke="midnightblue" d="M471.51,-471.114C529.297,-474.779 616.193,-472.28 680,-435 733.757,-403.592 768.201,-334.304 782.469,-300.422"/>
<polygon fill="midnightblue" stroke="midnightblue" points="785.874,-301.341 786.392,-290.758 779.388,-298.708 785.874,-301.341"/>
</g>
<!-- Node211&#45;&gt;Node199 -->
<g id="edge20" class="edge"><title>Node211&#45;&gt;Node199</title>
<path fill="none" stroke="midnightblue" d="M476.66,-434.962C533.677,-439.541 616.367,-438.66 680,-407 727.675,-383.28 763.492,-328.889 779.976,-299.939"/>
<polygon fill="midnightblue" stroke="midnightblue" points="783.223,-301.299 784.988,-290.852 777.094,-297.918 783.223,-301.299"/>
</g>
<!-- Node212&#45;&gt;Node199 -->
<g id="edge22" class="edge"><title>Node212&#45;&gt;Node199</title>
<path fill="none" stroke="midnightblue" d="M665.038,-568.468C670.457,-565.972 675.556,-562.864 680,-559 690.484,-549.883 760.398,-361.496 782.98,-300.135"/>
<polygon fill="midnightblue" stroke="midnightblue" points="786.349,-301.116 786.513,-290.522 779.778,-298.701 786.349,-301.116"/>
</g>
<!-- Node213 -->
<g id="node16" class="node"><title>Node213</title>
<g id="a_node16"><a xlink:href="../../d4/dc8/class_wi_fi_manager.html#a40f123fd290c3e331c9785d19a88f3b8" target="_top" xlink:title="WiFiManager::getContentType">
<polygon fill="white" stroke="black" points="716,-568.5 716,-587.5 866,-587.5 866,-568.5 716,-568.5"/>
<text text-anchor="middle" x="791" y="-575.5" font-family="Helvetica,sans-Serif" font-size="10.00">WiFiManager::getContentType</text>
</a>
</g>
</g>
<!-- Node212&#45;&gt;Node213 -->
<g id="edge23" class="edge"><title>Node212&#45;&gt;Node213</title>
<path fill="none" stroke="midnightblue" d="M674.649,-578C684.817,-578 695.33,-578 705.681,-578"/>
<polygon fill="midnightblue" stroke="midnightblue" points="705.96,-581.5 715.96,-578 705.96,-574.5 705.96,-581.5"/>
</g>
<!-- Node214&#45;&gt;Node202 -->
<g id="edge25" class="edge"><title>Node214&#45;&gt;Node202</title>
<path fill="none" stroke="midnightblue" d="M485.168,-540C497.196,-540 509.665,-540 521.753,-540"/>
<polygon fill="midnightblue" stroke="midnightblue" points="521.798,-543.5 531.798,-540 521.798,-536.5 521.798,-543.5"/>
</g>
<!-- Node214&#45;&gt;Node212 -->
<g id="edge26" class="edge"><title>Node214&#45;&gt;Node212</title>
<path fill="none" stroke="midnightblue" d="M457.819,-549.589C483.389,-554.716 515.059,-561.067 541.968,-566.463"/>
<polygon fill="midnightblue" stroke="midnightblue" points="541.532,-569.945 552.025,-568.48 542.908,-563.082 541.532,-569.945"/>
</g>
<!-- Node215&#45;&gt;Node199 -->
<g id="edge28" class="edge"><title>Node215&#45;&gt;Node199</title>
<path fill="none" stroke="midnightblue" d="M475.306,-73.1472C544.127,-82.7095 647.038,-100.082 680,-122 733.194,-157.372 768.09,-228.024 782.496,-261.953"/>
<polygon fill="midnightblue" stroke="midnightblue" points="779.268,-263.306 786.307,-271.224 785.743,-260.645 779.268,-263.306"/>
</g>
<!-- Node216 -->
<g id="node19" class="node"><title>Node216</title>
<g id="a_node19"><a xlink:href="../../d4/dc8/class_wi_fi_manager.html#a89a3f33997aa662ad223d6c150c1eede" target="_top" xlink:title="WiFiManager::waitForConnect\lResult">
<polygon fill="white" stroke="black" points="526,-39 526,-69 675,-69 675,-39 526,-39"/>
<text text-anchor="start" x="534" y="-57" font-family="Helvetica,sans-Serif" font-size="10.00">WiFiManager::waitForConnect</text>
<text text-anchor="middle" x="600.5" y="-46" font-family="Helvetica,sans-Serif" font-size="10.00">Result</text>
</a>
</g>
</g>
<!-- Node215&#45;&gt;Node216 -->
<g id="edge29" class="edge"><title>Node215&#45;&gt;Node216</title>
<path fill="none" stroke="midnightblue" d="M475.215,-61.2144C488.183,-60.4617 501.971,-59.6613 515.465,-58.878"/>
<polygon fill="midnightblue" stroke="midnightblue" points="515.928,-62.3571 525.709,-58.2834 515.523,-55.3689 515.928,-62.3571"/>
</g>
<!-- Node217 -->
<g id="node20" class="node"><title>Node217</title>
<g id="a_node20"><a xlink:href="../../d4/dc8/class_wi_fi_manager.html#abcc403fc26a47f7a111d1271f1d0869e" target="_top" xlink:title="WiFiManager::startWPS">
<polygon fill="white" stroke="black" points="539,-0.5 539,-19.5 662,-19.5 662,-0.5 539,-0.5"/>
<text text-anchor="middle" x="600.5" y="-7.5" font-family="Helvetica,sans-Serif" font-size="10.00">WiFiManager::startWPS</text>
</a>
</g>
</g>
<!-- Node215&#45;&gt;Node217 -->
<g id="edge31" class="edge"><title>Node215&#45;&gt;Node217</title>
<path fill="none" stroke="midnightblue" d="M437.648,-55.3851C459.997,-47.77 492.343,-37.1025 521,-29 529.529,-26.5885 538.632,-24.2095 547.506,-21.9939"/>
<polygon fill="midnightblue" stroke="midnightblue" points="548.507,-25.3522 557.384,-19.569 546.838,-18.554 548.507,-25.3522"/>
</g>
<!-- Node216&#45;&gt;Node199 -->
<g id="edge30" class="edge"><title>Node216&#45;&gt;Node199</title>
<path fill="none" stroke="midnightblue" d="M655.819,-69.0023C664.502,-72.9604 672.939,-77.8902 680,-84 737.944,-134.137 771.561,-222.673 784.197,-261.654"/>
<polygon fill="midnightblue" stroke="midnightblue" points="780.878,-262.765 787.208,-271.261 787.558,-260.672 780.878,-262.765"/>
</g>
<!-- Node217&#45;&gt;Node199 -->
<g id="edge32" class="edge"><title>Node217&#45;&gt;Node199</title>
<path fill="none" stroke="midnightblue" d="M662.151,-18.5133C668.614,-21.1599 674.738,-24.5824 680,-29 754.466,-91.5114 780.069,-214.064 787.425,-261.553"/>
<polygon fill="midnightblue" stroke="midnightblue" points="783.962,-262.062 788.858,-271.457 790.89,-261.059 783.962,-262.062"/>
</g>
</g>
</svg>
