<?xml version="1.0" encoding="UTF-8" standalone="no"?>
<!DOCTYPE svg PUBLIC "-//W3C//DTD SVG 1.1//EN"
 "http://www.w3.org/Graphics/SVG/1.1/DTD/svg11.dtd">
<!-- Generated by graphviz version 2.38.0 (20140413.2041)
 -->
<!-- Title: WiFiManager::setupConfigPortal Pages: 1 -->
<!--zoomable 432 -->
<svg id="main" version="1.1" xmlns="http://www.w3.org/2000/svg" xmlns:xlink="http://www.w3.org/1999/xlink" xml:space="preserve" onload="init(evt)">
<style type="text/css"><![CDATA[
.edge:hover path { stroke: red; }
.edge:hover polygon { stroke: red; fill: red; }
]]></style>
<script type="text/javascript"><![CDATA[
var edges = document.getElementsByTagName('g');
if (edges && edges.length) {
  for (var i=0;i<edges.length;i++) {
    if (edges[i].id.substr(0,4)=='edge') {
      edges[i].setAttribute('class','edge');
    }
  }
}
]]></script>
        <defs>
                <circle id="rim" cx="0" cy="0" r="7"/>
                <circle id="rim2" cx="0" cy="0" r="3.5"/>
                <g id="zoomPlus">
                        <use xlink:href="#rim" fill="#404040">
                                <set attributeName="fill" to="#808080" begin="zoomplus.mouseover" end="zoomplus.mouseout"/>
                        </use>
                        <path d="M-4,0h8M0,-4v8" fill="none" stroke="white" stroke-width="1.5" pointer-events="none"/>
                </g>
                <g id="zoomMin">
                        <use xlink:href="#rim" fill="#404040">
                                <set attributeName="fill" to="#808080" begin="zoomminus.mouseover" end="zoomminus.mouseout"/>
                        </use>
                        <path d="M-4,0h8" fill="none" stroke="white" stroke-width="1.5" pointer-events="none"/>
                </g>
                <g id="dirArrow">
                        <path fill="none" stroke="white" stroke-width="1.5" d="M0,-3.0v7 M-2.5,-0.5L0,-3.0L2.5,-0.5"/>
                </g>
               <g id="resetDef">
                       <use xlink:href="#rim2" fill="#404040">
                               <set attributeName="fill" to="#808080" begin="reset.mouseover" end="reset.mouseout"/>
                       </use>
               </g>
        </defs>

<script type="text/javascript">
var viewWidth = 710;
var viewHeight = 432;
var sectionId = 'dynsection-33';
</script>
<script xlink:href="../../svgpan.js"/>
<svg id="graph" class="graph">
<g id="viewport">
<title>WiFiManager::setupConfigPortal</title>
<polygon fill="white" stroke="none" points="-4,4 -4,-428.213 706,-428.213 706,4 -4,4"/>
<!-- Node177 -->
<g id="node1" class="node"><title>Node177</title>
<polygon fill="#bfbfbf" stroke="black" points="0,-128.713 0,-158.713 133,-158.713 133,-128.713 0,-128.713"/>
<text text-anchor="start" x="8" y="-146.713" font-family="Helvetica,sans-Serif" font-size="10.00">WiFiManager::setupConfig</text>
<text text-anchor="middle" x="66.5" y="-135.713" font-family="Helvetica,sans-Serif" font-size="10.00">Portal</text>
</g>
<!-- Node178 -->
<g id="node2" class="node"><title>Node178</title>
<g id="a_node2"><a xlink:href="../../d4/dc8/class_wi_fi_manager.html#ae5f595c670ccbcf9a191baf50f5c7c26" target="_top" xlink:title="WiFiManager::DEBUG_WM">
<polygon fill="white" stroke="black" points="557,-115.213 557,-134.213 697,-134.213 697,-115.213 557,-115.213"/>
<text text-anchor="middle" x="627" y="-122.213" font-family="Helvetica,sans-Serif" font-size="10.00">WiFiManager::DEBUG_WM</text>
</a>
</g>
</g>
<!-- Node177&#45;&gt;Node178 -->
<g id="edge1" class="edge"><title>Node177&#45;&gt;Node178</title>
<path fill="none" stroke="midnightblue" d="M133.209,-141.478C236.249,-137.972 435.505,-131.194 546.479,-127.418"/>
<polygon fill="midnightblue" stroke="midnightblue" points="546.733,-130.912 556.609,-127.074 546.495,-123.916 546.733,-130.912"/>
</g>
<!-- Node179 -->
<g id="node3" class="node"><title>Node179</title>
<g id="a_node3"><a xlink:href="../../d4/dc8/class_wi_fi_manager.html#a47e4c7df7478f690c53ff9f5125c9760" target="_top" xlink:title="WiFiManager::handleRoot">
<polygon fill="white" stroke="black" points="180,-77.2131 180,-96.2131 310,-96.2131 310,-77.2131 180,-77.2131"/>
<text text-anchor="middle" x="245" y="-84.2131" font-family="Helvetica,sans-Serif" font-size="10.00">WiFiManager::handleRoot</text>
</a>
</g>
</g>
<!-- Node177&#45;&gt;Node179 -->
<g id="edge2" class="edge"><title>Node177&#45;&gt;Node179</title>
<path fill="none" stroke="midnightblue" d="M113.719,-128.636C131.052,-122.995 150.924,-116.544 169,-110.713 180.472,-107.013 192.939,-103.014 204.354,-99.362"/>
<polygon fill="midnightblue" stroke="midnightblue" points="205.604,-102.637 214.063,-96.2578 203.472,-95.9693 205.604,-102.637"/>
</g>
<!-- Node183 -->
<g id="node7" class="node"><title>Node183</title>
<g id="a_node7"><a xlink:href="../../d4/dc8/class_wi_fi_manager.html#a57a9048175c1918340ab9d0a2c53601f" target="_top" xlink:title="WiFiManager::handleWifi">
<polygon fill="white" stroke="black" points="182,-336.213 182,-355.213 308,-355.213 308,-336.213 182,-336.213"/>
<text text-anchor="middle" x="245" y="-343.213" font-family="Helvetica,sans-Serif" font-size="10.00">WiFiManager::handleWifi</text>
</a>
</g>
</g>
<!-- Node177&#45;&gt;Node183 -->
<g id="edge8" class="edge"><title>Node177&#45;&gt;Node183</title>
<path fill="none" stroke="midnightblue" d="M80.1315,-159.029C99.1476,-181.998 136.38,-226.63 169,-263.713 188.857,-286.287 212.331,-311.764 227.66,-328.244"/>
<polygon fill="midnightblue" stroke="midnightblue" points="225.492,-331.051 234.871,-335.979 230.612,-326.278 225.492,-331.051"/>
</g>
<!-- Node186 -->
<g id="node10" class="node"><title>Node186</title>
<g id="a_node10"><a xlink:href="../../d4/dc8/class_wi_fi_manager.html#a2a8c2b60aa86dfdeab8a1a90f7122dc7" target="_top" xlink:title="WiFiManager::handleWifiSave">
<polygon fill="white" stroke="black" points="170.5,-235.213 170.5,-254.213 319.5,-254.213 319.5,-235.213 170.5,-235.213"/>
<text text-anchor="middle" x="245" y="-242.213" font-family="Helvetica,sans-Serif" font-size="10.00">WiFiManager::handleWifiSave</text>
</a>
</g>
</g>
<!-- Node177&#45;&gt;Node186 -->
<g id="edge12" class="edge"><title>Node177&#45;&gt;Node186</title>
<path fill="none" stroke="midnightblue" d="M86.475,-158.988C106.248,-174.414 138.54,-198.252 169,-214.713 180.682,-221.026 193.983,-226.773 206.107,-231.51"/>
<polygon fill="midnightblue" stroke="midnightblue" points="204.933,-234.808 215.524,-235.083 207.416,-228.263 204.933,-234.808"/>
</g>
<!-- Node188 -->
<g id="node12" class="node"><title>Node188</title>
<g id="a_node12"><a xlink:href="../../d4/dc8/class_wi_fi_manager.html#ac35e46661f8a209d84bba62d9aa43a35" target="_top" xlink:title="WiFiManager::handleInfo">
<polygon fill="white" stroke="black" points="374,-191.213 374,-210.213 499,-210.213 499,-191.213 374,-191.213"/>
<text text-anchor="middle" x="436.5" y="-198.213" font-family="Helvetica,sans-Serif" font-size="10.00">WiFiManager::handleInfo</text>
</a>
</g>
</g>
<!-- Node177&#45;&gt;Node188 -->
<g id="edge15" class="edge"><title>Node177&#45;&gt;Node188</title>
<path fill="none" stroke="midnightblue" d="M100.601,-158.865C120.094,-167.082 145.469,-176.582 169,-181.713 233.928,-195.872 309.65,-200.133 363.749,-201.142"/>
<polygon fill="midnightblue" stroke="midnightblue" points="363.878,-204.644 373.931,-201.298 363.986,-197.645 363.878,-204.644"/>
</g>
<!-- Node189 -->
<g id="node13" class="node"><title>Node189</title>
<g id="a_node13"><a xlink:href="../../d4/dc8/class_wi_fi_manager.html#a94fb1a8fcfbd0d02714c69138bf72f9c" target="_top" xlink:title="WiFiManager::handleReset">
<polygon fill="white" stroke="black" points="177.5,-153.213 177.5,-172.213 312.5,-172.213 312.5,-153.213 177.5,-153.213"/>
<text text-anchor="middle" x="245" y="-160.213" font-family="Helvetica,sans-Serif" font-size="10.00">WiFiManager::handleReset</text>
</a>
</g>
</g>
<!-- Node177&#45;&gt;Node189 -->
<g id="edge17" class="edge"><title>Node177&#45;&gt;Node189</title>
<path fill="none" stroke="midnightblue" d="M133.222,-150.788C144.253,-151.975 155.787,-153.217 167.07,-154.432"/>
<polygon fill="midnightblue" stroke="midnightblue" points="167.023,-157.947 177.34,-155.537 167.772,-150.987 167.023,-157.947"/>
</g>
<!-- Node190 -->
<g id="node14" class="node"><title>Node190</title>
<g id="a_node14"><a xlink:href="../../d4/dc8/class_wi_fi_manager.html#abed7fbbdab409fc8aba2a5c00f3d2db1" target="_top" xlink:title="WiFiManager::handleFileRead">
<polygon fill="white" stroke="black" points="362.5,-1.21309 362.5,-20.2131 510.5,-20.2131 510.5,-1.21309 362.5,-1.21309"/>
<text text-anchor="middle" x="436.5" y="-8.21309" font-family="Helvetica,sans-Serif" font-size="10.00">WiFiManager::handleFileRead</text>
</a>
</g>
</g>
<!-- Node177&#45;&gt;Node190 -->
<g id="edge19" class="edge"><title>Node177&#45;&gt;Node190</title>
<path fill="none" stroke="midnightblue" d="M75.7181,-128.511C90.5129,-102.879 124.299,-51.7077 169,-29.7131 225.714,-1.80758 297.561,1.77328 352.361,-0.981344"/>
<polygon fill="midnightblue" stroke="midnightblue" points="352.201,-4.47786 362.388,-1.56498 352.608,2.51031 352.201,-4.47786"/>
</g>
<!-- Node192 -->
<g id="node16" class="node"><title>Node192</title>
<g id="a_node16"><a xlink:href="../../d4/dc8/class_wi_fi_manager.html#a7d01f7de3e4b76acdabffac79fa3d0ab" target="_top" xlink:title="WiFiManager::handleNotFound">
<polygon fill="white" stroke="black" points="169,-39.2131 169,-58.2131 321,-58.2131 321,-39.2131 169,-39.2131"/>
<text text-anchor="middle" x="245" y="-46.2131" font-family="Helvetica,sans-Serif" font-size="10.00">WiFiManager::handleNotFound</text>
</a>
</g>
</g>
<!-- Node177&#45;&gt;Node192 -->
<g id="edge22" class="edge"><title>Node177&#45;&gt;Node192</title>
<path fill="none" stroke="midnightblue" d="M83.4041,-128.594C102.342,-111.398 135.625,-83.6466 169,-67.7131 174,-65.326 179.336,-63.2148 184.77,-61.3527"/>
<polygon fill="midnightblue" stroke="midnightblue" points="186.113,-64.5994 194.605,-58.2639 184.016,-57.921 186.113,-64.5994"/>
</g>
<!-- Node179&#45;&gt;Node178 -->
<g id="edge3" class="edge"><title>Node179&#45;&gt;Node178</title>
<path fill="none" stroke="midnightblue" d="M310.167,-91.7276C364.915,-96.171 445.702,-103.118 516,-110.713 525.905,-111.783 536.3,-112.993 546.583,-114.242"/>
<polygon fill="midnightblue" stroke="midnightblue" points="546.453,-117.752 556.806,-115.5 547.309,-110.805 546.453,-117.752"/>
</g>
<!-- Node180 -->
<g id="node4" class="node"><title>Node180</title>
<g id="a_node4"><a xlink:href="../../d4/dc8/class_wi_fi_manager.html#a4ef4298deb224212e5242c456669a973" target="_top" xlink:title="WiFiManager::captivePortal">
<polygon fill="white" stroke="black" points="368,-39.2131 368,-58.2131 505,-58.2131 505,-39.2131 368,-39.2131"/>
<text text-anchor="middle" x="436.5" y="-46.2131" font-family="Helvetica,sans-Serif" font-size="10.00">WiFiManager::captivePortal</text>
</a>
</g>
</g>
<!-- Node179&#45;&gt;Node180 -->
<g id="edge4" class="edge"><title>Node179&#45;&gt;Node180</title>
<path fill="none" stroke="midnightblue" d="M293.819,-77.1241C319.389,-71.9966 351.059,-65.6458 377.968,-60.2499"/>
<polygon fill="midnightblue" stroke="midnightblue" points="378.908,-63.631 388.025,-58.2331 377.532,-56.7677 378.908,-63.631"/>
</g>
<!-- Node180&#45;&gt;Node178 -->
<g id="edge6" class="edge"><title>Node180&#45;&gt;Node178</title>
<path fill="none" stroke="midnightblue" d="M480.891,-58.2365C492.722,-61.8169 505.236,-66.5597 516,-72.7131 534.843,-83.4852 532.917,-95.3712 552,-105.713 556.224,-108.002 560.733,-110.024 565.364,-111.808"/>
<polygon fill="midnightblue" stroke="midnightblue" points="564.39,-115.174 574.985,-115.146 566.684,-108.561 564.39,-115.174"/>
</g>
<!-- Node181 -->
<g id="node5" class="node"><title>Node181</title>
<g id="a_node5"><a xlink:href="../../d4/dc8/class_wi_fi_manager.html#a9c78a8774f746ec22a99d03a53baa607" target="_top" xlink:title="WiFiManager::isIp">
<polygon fill="white" stroke="black" points="579,-39.2131 579,-58.2131 675,-58.2131 675,-39.2131 579,-39.2131"/>
<text text-anchor="middle" x="627" y="-46.2131" font-family="Helvetica,sans-Serif" font-size="10.00">WiFiManager::isIp</text>
</a>
</g>
</g>
<!-- Node180&#45;&gt;Node181 -->
<g id="edge5" class="edge"><title>Node180&#45;&gt;Node181</title>
<path fill="none" stroke="midnightblue" d="M505.02,-48.7131C525.801,-48.7131 548.472,-48.7131 568.513,-48.7131"/>
<polygon fill="midnightblue" stroke="midnightblue" points="568.729,-52.2132 578.729,-48.7131 568.729,-45.2132 568.729,-52.2132"/>
</g>
<!-- Node182 -->
<g id="node6" class="node"><title>Node182</title>
<g id="a_node6"><a xlink:href="../../d4/dc8/class_wi_fi_manager.html#a8dfd64cefecbdf26242b16eca335c20b" target="_top" xlink:title="WiFiManager::toStringIp">
<polygon fill="white" stroke="black" points="566,-77.2131 566,-96.2131 688,-96.2131 688,-77.2131 566,-77.2131"/>
<text text-anchor="middle" x="627" y="-84.2131" font-family="Helvetica,sans-Serif" font-size="10.00">WiFiManager::toStringIp</text>
</a>
</g>
</g>
<!-- Node180&#45;&gt;Node182 -->
<g id="edge7" class="edge"><title>Node180&#45;&gt;Node182</title>
<path fill="none" stroke="midnightblue" d="M485.067,-58.3021C510.501,-63.4295 542.005,-69.7803 568.771,-75.1763"/>
<polygon fill="midnightblue" stroke="midnightblue" points="568.281,-78.6478 578.776,-77.193 569.664,-71.7858 568.281,-78.6478"/>
</g>
<!-- Node183&#45;&gt;Node178 -->
<g id="edge9" class="edge"><title>Node183&#45;&gt;Node178</title>
<path fill="none" stroke="midnightblue" d="M308.259,-346.536C366.587,-344.422 453.856,-333.581 516,-291.713 571.057,-254.62 605.237,-179.766 619.01,-144.257"/>
<polygon fill="midnightblue" stroke="midnightblue" points="622.402,-145.178 622.63,-134.585 615.847,-142.724 622.402,-145.178"/>
</g>
<!-- Node184 -->
<g id="node8" class="node"><title>Node184</title>
<g id="a_node8"><a xlink:href="../../d4/dc8/class_wi_fi_manager.html#ae71cfd6bd70ada2ca02e1d20b152d0e5" target="_top" xlink:title="WiFiManager::getRSSIasQuality">
<polygon fill="white" stroke="black" points="357,-355.213 357,-374.213 516,-374.213 516,-355.213 357,-355.213"/>
<text text-anchor="middle" x="436.5" y="-362.213" font-family="Helvetica,sans-Serif" font-size="10.00">WiFiManager::getRSSIasQuality</text>
</a>
</g>
</g>
<!-- Node183&#45;&gt;Node184 -->
<g id="edge10" class="edge"><title>Node183&#45;&gt;Node184</title>
<path fill="none" stroke="midnightblue" d="M308.049,-351.934C320.436,-353.176 333.672,-354.503 346.755,-355.815"/>
<polygon fill="midnightblue" stroke="midnightblue" points="346.413,-359.298 356.713,-356.814 347.112,-352.333 346.413,-359.298"/>
</g>
<!-- Node185 -->
<g id="node9" class="node"><title>Node185</title>
<g id="a_node9"><a xlink:href="../../d7/d08/class_wi_fi_manager_parameter.html#a596273c189eb40107500cee3ad31b13b" target="_top" xlink:title="WiFiManagerParameter\l::getCustomHTML">
<polygon fill="white" stroke="black" points="377,-393.713 377,-423.713 496,-423.713 496,-393.713 377,-393.713"/>
<text text-anchor="start" x="385" y="-411.713" font-family="Helvetica,sans-Serif" font-size="10.00">WiFiManagerParameter</text>
<text text-anchor="middle" x="436.5" y="-400.713" font-family="Helvetica,sans-Serif" font-size="10.00">::getCustomHTML</text>
</a>
</g>
</g>
<!-- Node183&#45;&gt;Node185 -->
<g id="edge11" class="edge"><title>Node183&#45;&gt;Node185</title>
<path fill="none" stroke="midnightblue" d="M273.315,-355.247C295.749,-363.034 328.376,-374.257 357,-383.713 363.816,-385.965 370.976,-388.295 378.085,-390.585"/>
<polygon fill="midnightblue" stroke="midnightblue" points="377.116,-393.95 387.707,-393.673 379.255,-387.285 377.116,-393.95"/>
</g>
<!-- Node186&#45;&gt;Node178 -->
<g id="edge13" class="edge"><title>Node186&#45;&gt;Node178</title>
<path fill="none" stroke="midnightblue" d="M268.802,-254.354C317.222,-273.257 432.686,-309.911 516,-268.713 569.183,-242.415 603.705,-176.715 618.198,-143.938"/>
<polygon fill="midnightblue" stroke="midnightblue" points="621.5,-145.117 622.198,-134.545 615.06,-142.374 621.5,-145.117"/>
</g>
<!-- Node187 -->
<g id="node11" class="node"><title>Node187</title>
<g id="a_node11"><a xlink:href="../../d4/dc8/class_wi_fi_manager.html#a6a94f08eb43e0871932556a4ccfa11b7" target="_top" xlink:title="WiFiManager::optionalIPFrom\lString">
<polygon fill="white" stroke="black" points="363.5,-229.713 363.5,-259.713 509.5,-259.713 509.5,-229.713 363.5,-229.713"/>
<text text-anchor="start" x="371.5" y="-247.713" font-family="Helvetica,sans-Serif" font-size="10.00">WiFiManager::optionalIPFrom</text>
<text text-anchor="middle" x="436.5" y="-236.713" font-family="Helvetica,sans-Serif" font-size="10.00">String</text>
</a>
</g>
</g>
<!-- Node186&#45;&gt;Node187 -->
<g id="edge14" class="edge"><title>Node186&#45;&gt;Node187</title>
<path fill="none" stroke="midnightblue" d="M319.537,-244.713C330.529,-244.713 341.923,-244.713 353.084,-244.713"/>
<polygon fill="midnightblue" stroke="midnightblue" points="353.251,-248.213 363.251,-244.713 353.251,-241.213 353.251,-248.213"/>
</g>
<!-- Node188&#45;&gt;Node178 -->
<g id="edge16" class="edge"><title>Node188&#45;&gt;Node178</title>
<path fill="none" stroke="midnightblue" d="M472.649,-191.149C486.331,-187.12 502.044,-182.112 516,-176.713 544.831,-165.559 576.646,-150.164 598.612,-139.023"/>
<polygon fill="midnightblue" stroke="midnightblue" points="600.368,-142.055 607.675,-134.383 597.178,-135.824 600.368,-142.055"/>
</g>
<!-- Node189&#45;&gt;Node178 -->
<g id="edge18" class="edge"><title>Node189&#45;&gt;Node178</title>
<path fill="none" stroke="midnightblue" d="M312.644,-157.497C367.332,-153.047 446.754,-146.194 516,-138.713 525.905,-137.643 536.3,-136.433 546.583,-135.184"/>
<polygon fill="midnightblue" stroke="midnightblue" points="547.309,-138.622 556.806,-133.926 546.453,-131.674 547.309,-138.622"/>
</g>
<!-- Node190&#45;&gt;Node178 -->
<g id="edge20" class="edge"><title>Node190&#45;&gt;Node178</title>
<path fill="none" stroke="midnightblue" d="M500.386,-20.3825C506.002,-22.8451 511.323,-25.908 516,-29.7131 544.993,-53.3002 523.171,-81.9257 552,-105.713 554.059,-107.412 556.252,-108.961 558.544,-110.374"/>
<polygon fill="midnightblue" stroke="midnightblue" points="557.32,-113.681 567.81,-115.172 560.539,-107.466 557.32,-113.681"/>
</g>
<!-- Node191 -->
<g id="node15" class="node"><title>Node191</title>
<g id="a_node15"><a xlink:href="../../d4/dc8/class_wi_fi_manager.html#a40f123fd290c3e331c9785d19a88f3b8" target="_top" xlink:title="WiFiManager::getContentType">
<polygon fill="white" stroke="black" points="552,-1.21309 552,-20.2131 702,-20.2131 702,-1.21309 552,-1.21309"/>
<text text-anchor="middle" x="627" y="-8.21309" font-family="Helvetica,sans-Serif" font-size="10.00">WiFiManager::getContentType</text>
</a>
</g>
</g>
<!-- Node190&#45;&gt;Node191 -->
<g id="edge21" class="edge"><title>Node190&#45;&gt;Node191</title>
<path fill="none" stroke="midnightblue" d="M510.649,-10.7131C520.817,-10.7131 531.33,-10.7131 541.681,-10.7131"/>
<polygon fill="midnightblue" stroke="midnightblue" points="541.96,-14.2132 551.96,-10.7131 541.96,-7.21319 541.96,-14.2132"/>
</g>
<!-- Node192&#45;&gt;Node180 -->
<g id="edge23" class="edge"><title>Node192&#45;&gt;Node180</title>
<path fill="none" stroke="midnightblue" d="M321.168,-48.7131C333.196,-48.7131 345.665,-48.7131 357.753,-48.7131"/>
<polygon fill="midnightblue" stroke="midnightblue" points="357.798,-52.2132 367.798,-48.7131 357.798,-45.2132 357.798,-52.2132"/>
</g>
<!-- Node192&#45;&gt;Node190 -->
<g id="edge24" class="edge"><title>Node192&#45;&gt;Node190</title>
<path fill="none" stroke="midnightblue" d="M293.819,-39.1241C319.389,-33.9966 351.059,-27.6458 377.968,-22.2499"/>
<polygon fill="midnightblue" stroke="midnightblue" points="378.908,-25.631 388.025,-20.2331 377.532,-18.7677 378.908,-25.631"/>
</g>
</g>
</svg>
        <g id="navigator" transform="translate(0 0)" fill="#404254">
                <rect fill="#f2f5e9" fill-opacity="0.5" stroke="#606060" stroke-width=".5" x="0" y="0" width="60" height="60"/>
                <use id="zoomplus" xlink:href="#zoomPlus" x="17" y="9" onmousedown="handleZoom(evt,'in')"/>
                <use id="zoomminus" xlink:href="#zoomMin" x="42" y="9" onmousedown="handleZoom(evt,'out')"/>
                <use id="reset" xlink:href="#resetDef" x="30" y="36" onmousedown="handleReset()"/>
                <g id="arrowUp" xlink:href="#dirArrow" transform="translate(30 24)" onmousedown="handlePan(0,-1)">
                  <use xlink:href="#rim" fill="#404040">
                        <set attributeName="fill" to="#808080" begin="arrowUp.mouseover" end="arrowUp.mouseout"/>
                  </use>
                  <path fill="none" stroke="white" stroke-width="1.5" d="M0,-3.0v7 M-2.5,-0.5L0,-3.0L2.5,-0.5"/>
                </g>
                <g id="arrowRight" xlink:href="#dirArrow" transform="rotate(90) translate(36 -43)" onmousedown="handlePan(1,0)">
                  <use xlink:href="#rim" fill="#404040">
                        <set attributeName="fill" to="#808080" begin="arrowRight.mouseover" end="arrowRight.mouseout"/>
                  </use>
                  <path fill="none" stroke="white" stroke-width="1.5" d="M0,-3.0v7 M-2.5,-0.5L0,-3.0L2.5,-0.5"/>
                </g>
                <g id="arrowDown" xlink:href="#dirArrow" transform="rotate(180) translate(-30 -48)" onmousedown="handlePan(0,1)">
                  <use xlink:href="#rim" fill="#404040">
                        <set attributeName="fill" to="#808080" begin="arrowDown.mouseover" end="arrowDown.mouseout"/>
                  </use>
                  <path fill="none" stroke="white" stroke-width="1.5" d="M0,-3.0v7 M-2.5,-0.5L0,-3.0L2.5,-0.5"/>
                </g>
                <g id="arrowLeft" xlink:href="#dirArrow" transform="rotate(270) translate(-36 17)" onmousedown="handlePan(-1,0)">
                  <use xlink:href="#rim" fill="#404040">
                        <set attributeName="fill" to="#808080" begin="arrowLeft.mouseover" end="arrowLeft.mouseout"/>
                  </use>
                  <path fill="none" stroke="white" stroke-width="1.5" d="M0,-3.0v7 M-2.5,-0.5L0,-3.0L2.5,-0.5"/>
                </g>
        </g>
        <svg viewBox="0 0 15 15" width="100%" height="30px" preserveAspectRatio="xMaxYMin meet">
         <g id="arrow_out" transform="scale(0.3 0.3)">
          <a xlink:href="class_wi_fi_manager_a1743325d0dd86d011df96b22d2a0ddd6_cgraph_org.svg" target="_base">
           <rect id="button" ry="5" rx="5" y="6" x="6" height="38" width="38"
                fill="#f2f5e9" fill-opacity="0.5" stroke="#606060" stroke-width="1.0"/>
           <path id="arrow"
             d="M 11.500037,31.436501 C 11.940474,20.09759 22.043105,11.32322 32.158766,21.979434 L 37.068811,17.246167 C 37.068811,17.246167 37.088388,32 37.088388,32 L 22.160133,31.978069 C 22.160133,31.978069 26.997745,27.140456 26.997745,27.140456 C 18.528582,18.264221 13.291696,25.230495 11.500037,31.436501 z"
             style="fill:#404040;"/>
          </a>
         </g>
        </svg>
</svg>
