<?xml version="1.0" encoding="UTF-8" standalone="no"?>
<!DOCTYPE svg PUBLIC "-//W3C//DTD SVG 1.1//EN"
 "http://www.w3.org/Graphics/SVG/1.1/DTD/svg11.dtd">
<!-- Generated by graphviz version 2.38.0 (20140413.2041)
 -->
<!-- Title: WiFiManager::handleNotFound Pages: 1 -->
<!--zoomable 142 -->
<svg id="main" version="1.1" xmlns="http://www.w3.org/2000/svg" xmlns:xlink="http://www.w3.org/1999/xlink" xml:space="preserve" onload="init(evt)">
<style type="text/css"><![CDATA[
.edge:hover path { stroke: red; }
.edge:hover polygon { stroke: red; fill: red; }
]]></style>
<script type="text/javascript"><![CDATA[
var edges = document.getElementsByTagName('g');
if (edges && edges.length) {
  for (var i=0;i<edges.length;i++) {
    if (edges[i].id.substr(0,4)=='edge') {
      edges[i].setAttribute('class','edge');
    }
  }
}
]]></script>
        <defs>
                <circle id="rim" cx="0" cy="0" r="7"/>
                <circle id="rim2" cx="0" cy="0" r="3.5"/>
                <g id="zoomPlus">
                        <use xlink:href="#rim" fill="#404040">
                                <set attributeName="fill" to="#808080" begin="zoomplus.mouseover" end="zoomplus.mouseout"/>
                        </use>
                        <path d="M-4,0h8M0,-4v8" fill="none" stroke="white" stroke-width="1.5" pointer-events="none"/>
                </g>
                <g id="zoomMin">
                        <use xlink:href="#rim" fill="#404040">
                                <set attributeName="fill" to="#808080" begin="zoomminus.mouseover" end="zoomminus.mouseout"/>
                        </use>
                        <path d="M-4,0h8" fill="none" stroke="white" stroke-width="1.5" pointer-events="none"/>
                </g>
                <g id="dirArrow">
                        <path fill="none" stroke="white" stroke-width="1.5" d="M0,-3.0v7 M-2.5,-0.5L0,-3.0L2.5,-0.5"/>
                </g>
               <g id="resetDef">
                       <use xlink:href="#rim2" fill="#404040">
                               <set attributeName="fill" to="#808080" begin="reset.mouseover" end="reset.mouseout"/>
                       </use>
               </g>
        </defs>

<script type="text/javascript">
var viewWidth = 530;
var viewHeight = 142;
var sectionId = 'dynsection-15';
</script>
<script xlink:href="../../svgpan.js"/>
<svg id="graph" class="graph">
<g id="viewport">
<title>WiFiManager::handleNotFound</title>
<polygon fill="white" stroke="none" points="-4,4 -4,-138 526,-138 526,4 -4,4"/>
<!-- Node82 -->
<g id="node1" class="node"><title>Node82</title>
<polygon fill="#bfbfbf" stroke="black" points="0,-57.5 0,-76.5 152,-76.5 152,-57.5 0,-57.5"/>
<text text-anchor="middle" x="76" y="-64.5" font-family="Helvetica,sans-Serif" font-size="10.00">WiFiManager::handleNotFound</text>
</g>
<!-- Node83 -->
<g id="node2" class="node"><title>Node83</title>
<g id="a_node2"><a xlink:href="../../d4/dc8/class_wi_fi_manager.html#a4ef4298deb224212e5242c456669a973" target="_top" xlink:title="WiFiManager::captivePortal">
<polygon fill="white" stroke="black" points="193.5,-76.5 193.5,-95.5 330.5,-95.5 330.5,-76.5 193.5,-76.5"/>
<text text-anchor="middle" x="262" y="-83.5" font-family="Helvetica,sans-Serif" font-size="10.00">WiFiManager::captivePortal</text>
</a>
</g>
</g>
<!-- Node82&#45;&gt;Node83 -->
<g id="edge1" class="edge"><title>Node82&#45;&gt;Node83</title>
<path fill="none" stroke="midnightblue" d="M152.105,-74.7554C162.316,-75.8098 172.813,-76.8938 183.072,-77.9531"/>
<polygon fill="midnightblue" stroke="midnightblue" points="182.925,-81.4565 193.232,-79.0022 183.644,-74.4935 182.925,-81.4565"/>
</g>
<!-- Node87 -->
<g id="node6" class="node"><title>Node87</title>
<g id="a_node6"><a xlink:href="../../d4/dc8/class_wi_fi_manager.html#abed7fbbdab409fc8aba2a5c00f3d2db1" target="_top" xlink:title="WiFiManager::handleFileRead">
<polygon fill="white" stroke="black" points="188,-38.5 188,-57.5 336,-57.5 336,-38.5 188,-38.5"/>
<text text-anchor="middle" x="262" y="-45.5" font-family="Helvetica,sans-Serif" font-size="10.00">WiFiManager::handleFileRead</text>
</a>
</g>
</g>
<!-- Node82&#45;&gt;Node87 -->
<g id="edge5" class="edge"><title>Node82&#45;&gt;Node87</title>
<path fill="none" stroke="midnightblue" d="M152.105,-59.2446C160.605,-58.3669 169.303,-57.4687 177.897,-56.5813"/>
<polygon fill="midnightblue" stroke="midnightblue" points="178.332,-60.0551 187.92,-55.5463 177.613,-53.0921 178.332,-60.0551"/>
</g>
<!-- Node84 -->
<g id="node3" class="node"><title>Node84</title>
<g id="a_node3"><a xlink:href="../../d4/dc8/class_wi_fi_manager.html#a9c78a8774f746ec22a99d03a53baa607" target="_top" xlink:title="WiFiManager::isIp">
<polygon fill="white" stroke="black" points="399,-114.5 399,-133.5 495,-133.5 495,-114.5 399,-114.5"/>
<text text-anchor="middle" x="447" y="-121.5" font-family="Helvetica,sans-Serif" font-size="10.00">WiFiManager::isIp</text>
</a>
</g>
</g>
<!-- Node83&#45;&gt;Node84 -->
<g id="edge2" class="edge"><title>Node83&#45;&gt;Node84</title>
<path fill="none" stroke="midnightblue" d="M309.179,-95.589C333.763,-100.694 364.186,-107.011 390.097,-112.392"/>
<polygon fill="midnightblue" stroke="midnightblue" points="389.651,-115.874 400.153,-114.48 391.074,-109.02 389.651,-115.874"/>
</g>
<!-- Node85 -->
<g id="node4" class="node"><title>Node85</title>
<g id="a_node4"><a xlink:href="../../d4/dc8/class_wi_fi_manager.html#ae5f595c670ccbcf9a191baf50f5c7c26" target="_top" xlink:title="WiFiManager::DEBUG_WM">
<polygon fill="white" stroke="black" points="377,-38.5 377,-57.5 517,-57.5 517,-38.5 377,-38.5"/>
<text text-anchor="middle" x="447" y="-45.5" font-family="Helvetica,sans-Serif" font-size="10.00">WiFiManager::DEBUG_WM</text>
</a>
</g>
</g>
<!-- Node83&#45;&gt;Node85 -->
<g id="edge3" class="edge"><title>Node83&#45;&gt;Node85</title>
<path fill="none" stroke="midnightblue" d="M309.179,-76.411C333.763,-71.3061 364.186,-64.9887 390.097,-59.6082"/>
<polygon fill="midnightblue" stroke="midnightblue" points="391.074,-62.9802 400.153,-57.5201 389.651,-56.1264 391.074,-62.9802"/>
</g>
<!-- Node86 -->
<g id="node5" class="node"><title>Node86</title>
<g id="a_node5"><a xlink:href="../../d4/dc8/class_wi_fi_manager.html#a8dfd64cefecbdf26242b16eca335c20b" target="_top" xlink:title="WiFiManager::toStringIp">
<polygon fill="white" stroke="black" points="386,-76.5 386,-95.5 508,-95.5 508,-76.5 386,-76.5"/>
<text text-anchor="middle" x="447" y="-83.5" font-family="Helvetica,sans-Serif" font-size="10.00">WiFiManager::toStringIp</text>
</a>
</g>
</g>
<!-- Node83&#45;&gt;Node86 -->
<g id="edge4" class="edge"><title>Node83&#45;&gt;Node86</title>
<path fill="none" stroke="midnightblue" d="M330.623,-86C345.348,-86 360.96,-86 375.783,-86"/>
<polygon fill="midnightblue" stroke="midnightblue" points="375.899,-89.5001 385.899,-86 375.899,-82.5001 375.899,-89.5001"/>
</g>
<!-- Node87&#45;&gt;Node85 -->
<g id="edge6" class="edge"><title>Node87&#45;&gt;Node85</title>
<path fill="none" stroke="midnightblue" d="M336.115,-48C346.195,-48 356.586,-48 366.77,-48"/>
<polygon fill="midnightblue" stroke="midnightblue" points="366.866,-51.5001 376.866,-48 366.866,-44.5001 366.866,-51.5001"/>
</g>
<!-- Node88 -->
<g id="node7" class="node"><title>Node88</title>
<g id="a_node7"><a xlink:href="../../d4/dc8/class_wi_fi_manager.html#a40f123fd290c3e331c9785d19a88f3b8" target="_top" xlink:title="WiFiManager::getContentType">
<polygon fill="white" stroke="black" points="372,-0.5 372,-19.5 522,-19.5 522,-0.5 372,-0.5"/>
<text text-anchor="middle" x="447" y="-7.5" font-family="Helvetica,sans-Serif" font-size="10.00">WiFiManager::getContentType</text>
</a>
</g>
</g>
<!-- Node87&#45;&gt;Node88 -->
<g id="edge7" class="edge"><title>Node87&#45;&gt;Node88</title>
<path fill="none" stroke="midnightblue" d="M309.179,-38.411C333.763,-33.3061 364.186,-26.9887 390.097,-21.6082"/>
<polygon fill="midnightblue" stroke="midnightblue" points="391.074,-24.9802 400.153,-19.5201 389.651,-18.1264 391.074,-24.9802"/>
</g>
</g>
</svg>
        <g id="navigator" transform="translate(0 0)" fill="#404254">
                <rect fill="#f2f5e9" fill-opacity="0.5" stroke="#606060" stroke-width=".5" x="0" y="0" width="60" height="60"/>
                <use id="zoomplus" xlink:href="#zoomPlus" x="17" y="9" onmousedown="handleZoom(evt,'in')"/>
                <use id="zoomminus" xlink:href="#zoomMin" x="42" y="9" onmousedown="handleZoom(evt,'out')"/>
                <use id="reset" xlink:href="#resetDef" x="30" y="36" onmousedown="handleReset()"/>
                <g id="arrowUp" xlink:href="#dirArrow" transform="translate(30 24)" onmousedown="handlePan(0,-1)">
                  <use xlink:href="#rim" fill="#404040">
                        <set attributeName="fill" to="#808080" begin="arrowUp.mouseover" end="arrowUp.mouseout"/>
                  </use>
                  <path fill="none" stroke="white" stroke-width="1.5" d="M0,-3.0v7 M-2.5,-0.5L0,-3.0L2.5,-0.5"/>
                </g>
                <g id="arrowRight" xlink:href="#dirArrow" transform="rotate(90) translate(36 -43)" onmousedown="handlePan(1,0)">
                  <use xlink:href="#rim" fill="#404040">
                        <set attributeName="fill" to="#808080" begin="arrowRight.mouseover" end="arrowRight.mouseout"/>
                  </use>
                  <path fill="none" stroke="white" stroke-width="1.5" d="M0,-3.0v7 M-2.5,-0.5L0,-3.0L2.5,-0.5"/>
                </g>
                <g id="arrowDown" xlink:href="#dirArrow" transform="rotate(180) translate(-30 -48)" onmousedown="handlePan(0,1)">
                  <use xlink:href="#rim" fill="#404040">
                        <set attributeName="fill" to="#808080" begin="arrowDown.mouseover" end="arrowDown.mouseout"/>
                  </use>
                  <path fill="none" stroke="white" stroke-width="1.5" d="M0,-3.0v7 M-2.5,-0.5L0,-3.0L2.5,-0.5"/>
                </g>
                <g id="arrowLeft" xlink:href="#dirArrow" transform="rotate(270) translate(-36 17)" onmousedown="handlePan(-1,0)">
                  <use xlink:href="#rim" fill="#404040">
                        <set attributeName="fill" to="#808080" begin="arrowLeft.mouseover" end="arrowLeft.mouseout"/>
                  </use>
                  <path fill="none" stroke="white" stroke-width="1.5" d="M0,-3.0v7 M-2.5,-0.5L0,-3.0L2.5,-0.5"/>
                </g>
        </g>
        <svg viewBox="0 0 15 15" width="100%" height="30px" preserveAspectRatio="xMaxYMin meet">
         <g id="arrow_out" transform="scale(0.3 0.3)">
          <a xlink:href="class_wi_fi_manager_a7d01f7de3e4b76acdabffac79fa3d0ab_cgraph_org.svg" target="_base">
           <rect id="button" ry="5" rx="5" y="6" x="6" height="38" width="38"
                fill="#f2f5e9" fill-opacity="0.5" stroke="#606060" stroke-width="1.0"/>
           <path id="arrow"
             d="M 11.500037,31.436501 C 11.940474,20.09759 22.043105,11.32322 32.158766,21.979434 L 37.068811,17.246167 C 37.068811,17.246167 37.088388,32 37.088388,32 L 22.160133,31.978069 C 22.160133,31.978069 26.997745,27.140456 26.997745,27.140456 C 18.528582,18.264221 13.291696,25.230495 11.500037,31.436501 z"
             style="fill:#404040;"/>
          </a>
         </g>
        </svg>
</svg>
