<?xml version="1.0" encoding="UTF-8" standalone="no"?>
<!DOCTYPE svg PUBLIC "-//W3C//DTD SVG 1.1//EN"
 "http://www.w3.org/Graphics/SVG/1.1/DTD/svg11.dtd">
<!-- Generated by graphviz version 2.38.0 (20140413.2041)
 -->
<!-- Title: ExternalSensors.h Pages: 1 -->
<svg width="311pt" height="151pt"
 viewBox="0.00 0.00 310.50 151.00" xmlns="http://www.w3.org/2000/svg" xmlns:xlink="http://www.w3.org/1999/xlink">
<g id="graph0" class="graph" transform="scale(1 1) rotate(0) translate(4 147)">
<title>ExternalSensors.h</title>
<polygon fill="white" stroke="none" points="-4,4 -4,-147 306.5,-147 306.5,4 -4,4"/>
<!-- Node0 -->
<g id="node1" class="node"><title>Node0</title>
<polygon fill="#bfbfbf" stroke="black" points="29.5,-123.5 29.5,-142.5 126.5,-142.5 126.5,-123.5 29.5,-123.5"/>
<text text-anchor="middle" x="78" y="-130.5" font-family="Helvetica,sans-Serif" font-size="10.00">ExternalSensors.h</text>
</g>
<!-- Node1 -->
<g id="node2" class="node"><title>Node1</title>
<polygon fill="white" stroke="#bfbfbf" points="0,-6 0,-25 58,-25 58,-6 0,-6"/>
<text text-anchor="middle" x="29" y="-13" font-family="Helvetica,sans-Serif" font-size="10.00">Arduino.h</text>
</g>
<!-- Node0&#45;&gt;Node1 -->
<g id="edge1" class="edge"><title>Node0&#45;&gt;Node1</title>
<path fill="none" stroke="midnightblue" d="M74.317,-123.319C66.3713,-104.59 47.474,-60.0458 36.7604,-34.7924"/>
<polygon fill="midnightblue" stroke="midnightblue" points="39.8533,-33.1209 32.7257,-25.282 33.4092,-35.8548 39.8533,-33.1209"/>
</g>
<!-- Node2 -->
<g id="node3" class="node"><title>Node2</title>
<g id="a_node3"><a xlink:href="../../d6/d20/_external_sensor_8h.html" target="_top" xlink:title="ExternalSensor Header file. ">
<polygon fill="white" stroke="black" points="75,-67.5 75,-86.5 167,-86.5 167,-67.5 75,-67.5"/>
<text text-anchor="middle" x="121" y="-74.5" font-family="Helvetica,sans-Serif" font-size="10.00">ExternalSensor.h</text>
</a>
</g>
</g>
<!-- Node0&#45;&gt;Node2 -->
<g id="edge2" class="edge"><title>Node0&#45;&gt;Node2</title>
<path fill="none" stroke="midnightblue" d="M85.1006,-123.083C91.237,-115.377 100.27,-104.033 107.739,-94.6531"/>
<polygon fill="midnightblue" stroke="midnightblue" points="110.54,-96.7542 114.032,-86.7511 105.064,-92.3936 110.54,-96.7542"/>
</g>
<!-- Node2&#45;&gt;Node1 -->
<g id="edge5" class="edge"><title>Node2&#45;&gt;Node1</title>
<path fill="none" stroke="midnightblue" d="M107.819,-67.4751C92.9255,-57.8431 68.4556,-42.0175 50.7269,-30.5517"/>
<polygon fill="midnightblue" stroke="midnightblue" points="52.4546,-27.5008 42.1569,-25.0091 48.6531,-33.3787 52.4546,-27.5008"/>
</g>
<!-- Node3 -->
<g id="node4" class="node"><title>Node3</title>
<g id="a_node4"><a xlink:href="../../d0/d08/_cool_n_d_i_r___i2_c_8h.html" target="_top" xlink:title="internals/CoolNDIR\l_I2C.h">
<polygon fill="white" stroke="black" points="76,-0.5 76,-30.5 178,-30.5 178,-0.5 76,-0.5"/>
<text text-anchor="start" x="84" y="-18.5" font-family="Helvetica,sans-Serif" font-size="10.00">internals/CoolNDIR</text>
<text text-anchor="middle" x="127" y="-7.5" font-family="Helvetica,sans-Serif" font-size="10.00">_I2C.h</text>
</a>
</g>
</g>
<!-- Node2&#45;&gt;Node3 -->
<g id="edge3" class="edge"><title>Node2&#45;&gt;Node3</title>
<path fill="none" stroke="midnightblue" d="M121.86,-67.4751C122.566,-60.471 123.602,-50.1919 124.56,-40.6956"/>
<polygon fill="midnightblue" stroke="midnightblue" points="128.065,-40.8237 125.586,-30.523 121.1,-40.1213 128.065,-40.8237"/>
</g>
<!-- Node4 -->
<g id="node5" class="node"><title>Node4</title>
<polygon fill="white" stroke="#bfbfbf" points="195.5,-6 195.5,-25 302.5,-25 302.5,-6 195.5,-6"/>
<text text-anchor="middle" x="249" y="-13" font-family="Helvetica,sans-Serif" font-size="10.00">DallasTemperature.h</text>
</g>
<!-- Node2&#45;&gt;Node4 -->
<g id="edge4" class="edge"><title>Node2&#45;&gt;Node4</title>
<path fill="none" stroke="midnightblue" d="M139.339,-67.4751C160.821,-57.4897 196.622,-40.8476 221.448,-29.3075"/>
<polygon fill="midnightblue" stroke="midnightblue" points="223.102,-32.3983 230.695,-25.0091 220.151,-26.0506 223.102,-32.3983"/>
</g>
</g>
</svg>
