<?xml version="1.0" encoding="UTF-8" standalone="no"?>
<!DOCTYPE svg PUBLIC "-//W3C//DTD SVG 1.1//EN"
 "http://www.w3.org/Graphics/SVG/1.1/DTD/svg11.dtd">
<!-- Generated by graphviz version 2.38.0 (20140413.2041)
 -->
<!-- Title: ExternalSensors.h Pages: 1 -->
<svg width="439pt" height="207pt"
 viewBox="0.00 0.00 439.00 207.00" xmlns="http://www.w3.org/2000/svg" xmlns:xlink="http://www.w3.org/1999/xlink">
<g id="graph0" class="graph" transform="scale(1 1) rotate(0) translate(4 203)">
<title>ExternalSensors.h</title>
<polygon fill="white" stroke="none" points="-4,4 -4,-203 435,-203 435,4 -4,4"/>
<!-- Node0 -->
<g id="node1" class="node"><title>Node0</title>
<polygon fill="#bfbfbf" stroke="black" points="35.5,-179.5 35.5,-198.5 132.5,-198.5 132.5,-179.5 35.5,-179.5"/>
<text text-anchor="middle" x="84" y="-186.5" font-family="Helvetica,sans-Serif" font-size="10.00">ExternalSensors.h</text>
</g>
<!-- Node1 -->
<g id="node2" class="node"><title>Node1</title>
<polygon fill="white" stroke="#bfbfbf" points="0,-62 0,-81 58,-81 58,-62 0,-62"/>
<text text-anchor="middle" x="29" y="-69" font-family="Helvetica,sans-Serif" font-size="10.00">Arduino.h</text>
</g>
<!-- Node0&#45;&gt;Node1 -->
<g id="edge1" class="edge"><title>Node0&#45;&gt;Node1</title>
<path fill="none" stroke="midnightblue" d="M79.8661,-179.319C70.9076,-160.506 49.5464,-115.648 37.5501,-90.4553"/>
<polygon fill="midnightblue" stroke="midnightblue" points="40.6413,-88.8058 33.1819,-81.282 34.3213,-91.8154 40.6413,-88.8058"/>
</g>
<!-- Node2 -->
<g id="node3" class="node"><title>Node2</title>
<g id="a_node3"><a xlink:href="../../d6/d20/_external_sensor_8h.html" target="_top" xlink:title="ExternalSensor Header file. ">
<polygon fill="white" stroke="black" points="81,-123.5 81,-142.5 173,-142.5 173,-123.5 81,-123.5"/>
<text text-anchor="middle" x="127" y="-130.5" font-family="Helvetica,sans-Serif" font-size="10.00">ExternalSensor.h</text>
</a>
</g>
</g>
<!-- Node0&#45;&gt;Node2 -->
<g id="edge2" class="edge"><title>Node0&#45;&gt;Node2</title>
<path fill="none" stroke="midnightblue" d="M91.1006,-179.083C97.237,-171.377 106.27,-160.033 113.739,-150.653"/>
<polygon fill="midnightblue" stroke="midnightblue" points="116.54,-152.754 120.032,-142.751 111.064,-148.394 116.54,-152.754"/>
</g>
<!-- Node2&#45;&gt;Node1 -->
<g id="edge7" class="edge"><title>Node2&#45;&gt;Node1</title>
<path fill="none" stroke="midnightblue" d="M112.959,-123.475C96.949,-113.755 70.5496,-97.7266 51.626,-86.2372"/>
<polygon fill="midnightblue" stroke="midnightblue" points="53.3793,-83.2072 43.015,-81.0091 49.7464,-89.1907 53.3793,-83.2072"/>
</g>
<!-- Node3 -->
<g id="node4" class="node"><title>Node3</title>
<g id="a_node4"><a xlink:href="../../d0/d08/_cool_n_d_i_r___i2_c_8h.html" target="_top" xlink:title="internals/CoolNDIR\l_I2C.h">
<polygon fill="white" stroke="black" points="76,-56.5 76,-86.5 178,-86.5 178,-56.5 76,-56.5"/>
<text text-anchor="start" x="84" y="-74.5" font-family="Helvetica,sans-Serif" font-size="10.00">internals/CoolNDIR</text>
<text text-anchor="middle" x="127" y="-63.5" font-family="Helvetica,sans-Serif" font-size="10.00">_I2C.h</text>
</a>
</g>
</g>
<!-- Node2&#45;&gt;Node3 -->
<g id="edge3" class="edge"><title>Node2&#45;&gt;Node3</title>
<path fill="none" stroke="midnightblue" d="M127,-123.475C127,-116.471 127,-106.192 127,-96.6956"/>
<polygon fill="midnightblue" stroke="midnightblue" points="130.5,-96.5229 127,-86.523 123.5,-96.523 130.5,-96.5229"/>
</g>
<!-- Node4 -->
<g id="node5" class="node"><title>Node4</title>
<polygon fill="white" stroke="#bfbfbf" points="195.5,-62 195.5,-81 302.5,-81 302.5,-62 195.5,-62"/>
<text text-anchor="middle" x="249" y="-69" font-family="Helvetica,sans-Serif" font-size="10.00">DallasTemperature.h</text>
</g>
<!-- Node2&#45;&gt;Node4 -->
<g id="edge4" class="edge"><title>Node2&#45;&gt;Node4</title>
<path fill="none" stroke="midnightblue" d="M144.48,-123.475C164.863,-113.534 198.775,-96.9947 222.425,-85.461"/>
<polygon fill="midnightblue" stroke="midnightblue" points="224.099,-88.5385 231.553,-81.0091 221.031,-82.2468 224.099,-88.5385"/>
</g>
<!-- Node5 -->
<g id="node6" class="node"><title>Node5</title>
<g id="a_node6"><a xlink:href="../../d3/d18/_cool_adafruit___t_c_s34725_8h.html" target="_top" xlink:title="internals/CoolAdafruit\l_TCS34725.h">
<polygon fill="white" stroke="black" points="321,-56.5 321,-86.5 431,-86.5 431,-56.5 321,-56.5"/>
<text text-anchor="start" x="329" y="-74.5" font-family="Helvetica,sans-Serif" font-size="10.00">internals/CoolAdafruit</text>
<text text-anchor="middle" x="376" y="-63.5" font-family="Helvetica,sans-Serif" font-size="10.00">_TCS34725.h</text>
</a>
</g>
</g>
<!-- Node2&#45;&gt;Node5 -->
<g id="edge5" class="edge"><title>Node2&#45;&gt;Node5</title>
<path fill="none" stroke="midnightblue" d="M162.676,-123.475C201.218,-114.265 263.457,-99.3927 310.786,-88.0834"/>
<polygon fill="midnightblue" stroke="midnightblue" points="311.732,-91.4559 320.645,-85.7275 310.105,-84.6475 311.732,-91.4559"/>
</g>
<!-- Node6 -->
<g id="node7" class="node"><title>Node6</title>
<polygon fill="white" stroke="#bfbfbf" points="340.5,-0.5 340.5,-19.5 411.5,-19.5 411.5,-0.5 340.5,-0.5"/>
<text text-anchor="middle" x="376" y="-7.5" font-family="Helvetica,sans-Serif" font-size="10.00">WProgram.h</text>
</g>
<!-- Node5&#45;&gt;Node6 -->
<g id="edge6" class="edge"><title>Node5&#45;&gt;Node6</title>
<path fill="none" stroke="midnightblue" d="M376,-56.3993C376,-48.4664 376,-38.458 376,-29.8583"/>
<polygon fill="midnightblue" stroke="midnightblue" points="379.5,-29.6577 376,-19.6578 372.5,-29.6578 379.5,-29.6577"/>
</g>
</g>
</svg>
