<?xml version="1.0" encoding="UTF-8" standalone="no"?>
<!-- Created with Bouml (http://bouml.free.fr/) -->
<!DOCTYPE svg PUBLIC "-//W3C//DTD SVG 1.1//EN" "http://www.w3.org/Graphics/SVG/1.1/DTD/svg11.dtd">
<svg width="846" height="641" version="1.1" xmlns="http://www.w3.org/2000/svg">
<g>
	<rect fill="#cbcbcb" stroke="none" stroke-opacity="1" x="315" y="529" width="2" height="26" />
	<rect fill="#cbcbcb" stroke="none" stroke-opacity="1" x="263" y="553" width="54" height="2" />
	<rect fill="#ffffc0" stroke="black" stroke-width="1" stroke-opacity="1" x="260" y="526" width="55" height="27" />
	<text font-family="Helvetica" font-size="7" fill="#000000" xml:space="preserve" font-weight="bold" text-anchor="middle" x="288" y="534">CoolBoard</text>
</g>
<g>
	<rect fill="#cbcbcb" stroke="none" stroke-opacity="1" x="606" y="38" width="2" height="26" />
	<rect fill="#cbcbcb" stroke="none" stroke-opacity="1" x="510" y="62" width="98" height="2" />
	<rect fill="#ffffc0" stroke="black" stroke-width="1" stroke-opacity="1" x="507" y="35" width="99" height="27" />
	<text font-family="Helvetica" font-size="7" fill="#000000" xml:space="preserve" font-weight="bold" text-anchor="middle" x="557" y="43">BaseExternalSensor</text>
</g>
<g>
	<rect fill="#cbcbcb" stroke="none" stroke-opacity="1" x="421" y="307" width="2" height="26" />
	<rect fill="#cbcbcb" stroke="none" stroke-opacity="1" x="375" y="331" width="48" height="2" />
	<rect fill="#ffffc0" stroke="black" stroke-width="1" stroke-opacity="1" x="372" y="304" width="49" height="27" />
	<text font-family="Helvetica" font-size="7" fill="#000000" xml:space="preserve" font-weight="bold" text-anchor="middle" x="397" y="312">CoolTime</text>
</g>
<g>
	<rect fill="#cbcbcb" stroke="none" stroke-opacity="1" x="301" y="165" width="2" height="26" />
	<rect fill="#cbcbcb" stroke="none" stroke-opacity="1" x="231" y="189" width="72" height="2" />
	<rect fill="#ffffc0" stroke="black" stroke-width="1" stroke-opacity="1" x="228" y="162" width="73" height="27" />
	<text font-family="Helvetica" font-size="7" fill="#000000" xml:space="preserve" font-weight="bold" text-anchor="middle" x="265" y="170">CoolBoardLed</text>
</g>
<g>
	<rect fill="#cbcbcb" stroke="none" stroke-opacity="1" x="453" y="437" width="2" height="26" />
	<rect fill="#cbcbcb" stroke="none" stroke-opacity="1" x="401" y="461" width="54" height="2" />
	<rect fill="#ffffc0" stroke="black" stroke-width="1" stroke-opacity="1" x="398" y="434" width="55" height="27" />
	<text font-family="Helvetica" font-size="7" fill="#000000" xml:space="preserve" font-weight="bold" text-anchor="middle" x="426" y="442">CoolMQTT</text>
</g>
<g>
	<rect fill="#cbcbcb" stroke="none" stroke-opacity="1" x="502" y="265" width="2" height="26" />
	<rect fill="#cbcbcb" stroke="none" stroke-opacity="1" x="456" y="289" width="48" height="2" />
	<rect fill="#ffffc0" stroke="black" stroke-width="1" stroke-opacity="1" x="453" y="262" width="49" height="27" />
	<text font-family="Helvetica" font-size="7" fill="#000000" xml:space="preserve" font-weight="bold" text-anchor="middle" x="478" y="270">Irene3000</text>
</g>
<g>
	<rect fill="#cbcbcb" stroke="none" stroke-opacity="1" x="460" y="122" width="2" height="40" />
	<rect fill="#cbcbcb" stroke="none" stroke-opacity="1" x="386" y="160" width="76" height="2" />
	<rect fill="#ffffc0" stroke="black" stroke-width="1" stroke-opacity="1" x="383" y="119" width="77" height="41" />
	<text font-family="Helvetica" font-size="7" fill="#000000" xml:space="preserve" font-weight="bold" text-anchor="middle" x="422" y="141">ExternalSensor</text>
</g>
<g>
	<rect fill="#cbcbcb" stroke="none" stroke-opacity="1" x="831" y="122" width="2" height="26" />
	<rect fill="#cbcbcb" stroke="none" stroke-opacity="1" x="657" y="146" width="176" height="2" />
	<rect fill="#ffffc0" stroke="black" stroke-width="1" stroke-opacity="1" x="654" y="119" width="177" height="27" />
	<text font-family="Helvetica" font-size="7" fill="#000000" xml:space="preserve" font-weight="bold" text-anchor="middle" x="743" y="127">ExternalSensor&lt;DallasTemperature&gt;</text>
</g>
<g>
	<rect fill="white" stroke-dasharray="4,4" stroke="black" stroke-width="1" stroke-opacity="1" x="436" y="110" width="39" height="17" />
	<text font-family="Helvetica" font-size="7" fill="#000000" xml:space="preserve" text-anchor="middle" x="456" y="122">T</text>
</g>
<g>
	<line stroke="black" stroke-opacity="1" x1="318" y1="553" x2="347" y2="530" />
	<polygon fill="#000000" stroke="black" stroke-opacity="1" points="318,553 318,544 327,545 326,553" />
</g>
<g>
	<line stroke="black" stroke-opacity="1" x1="266" y1="192" x2="260" y2="198" />
	<line stroke="black" stroke-opacity="1" x1="266" y1="192" x2="272" y2="198" />
	<line stroke="black" stroke-opacity="1" x1="266" y1="525" x2="266" y2="192" />
	<polygon fill="#000000" stroke="black" stroke-opacity="1" points="266,525 260,519 266,513 272,519" />
</g>
<g>
	<line stroke="black" stroke-opacity="1" x1="318" y1="533" x2="373" y2="535" />
	<polygon fill="#000000" stroke="black" stroke-opacity="1" points="318,533 324,527 329,533 323,539" />
</g>
<g>
	<line stroke="black" stroke-opacity="1" x1="306" y1="525" x2="306" y2="276" />
	<polygon fill="#000000" stroke="black" stroke-opacity="1" points="306,525 300,519 306,513 312,519" />
</g>
<g>
	<line stroke="#000000" stroke-opacity="1" x1="423" y1="118" x2="423" y2="94" />
</g>
<g>
	<line stroke="#000000" stroke-opacity="1" x1="744" y1="118" x2="745" y2="94" />
</g>
<g>
	<line stroke="#000000" stroke-opacity="1" x1="745" y1="94" x2="559" y2="94" />
</g>
<g>
	<line stroke="#000000" stroke-opacity="1" x1="559" y1="94" x2="558" y2="70" />
	<line stroke="#000000" stroke-opacity="1" x1="558" y1="65" x2="552" y2="71" />
	<line stroke="#000000" stroke-opacity="1" x1="558" y1="65" x2="564" y2="70" />
	<line stroke="#000000" stroke-opacity="1" x1="552" y1="71" x2="564" y2="70" />
</g>
<g>
	<line stroke="#000000" stroke-opacity="1" x1="423" y1="94" x2="559" y2="94" />
</g>
<g>
	<line stroke="black" stroke-opacity="1" x1="347" y1="530" x2="347" y2="328" />
</g>
<g>
	<line stroke="black" stroke-opacity="1" x1="452" y1="276" x2="446" y2="270" />
	<line stroke="black" stroke-opacity="1" x1="452" y1="276" x2="446" y2="282" />
	<line stroke="black" stroke-opacity="1" x1="306" y1="276" x2="452" y2="276" />
</g>
<g>
	<line stroke="black" stroke-opacity="1" x1="373" y1="535" x2="373" y2="459" />
</g>
<g>
	<line stroke="#000000" stroke-opacity="1" x1="559" y1="94" x2="558" y2="70" />
	<line stroke="#000000" stroke-opacity="1" x1="558" y1="65" x2="552" y2="71" />
	<line stroke="#000000" stroke-opacity="1" x1="558" y1="65" x2="564" y2="70" />
	<line stroke="#000000" stroke-opacity="1" x1="552" y1="71" x2="564" y2="70" />
</g>
<g>
	<line stroke="black" stroke-opacity="1" x1="397" y1="457" x2="390" y2="451" />
	<line stroke="black" stroke-opacity="1" x1="397" y1="457" x2="391" y2="463" />
	<line stroke="black" stroke-opacity="1" x1="373" y1="459" x2="397" y2="457" />
</g>
<g>
	<line stroke="black" stroke-opacity="1" x1="371" y1="327" x2="364" y2="321" />
	<line stroke="black" stroke-opacity="1" x1="371" y1="327" x2="365" y2="333" />
	<line stroke="black" stroke-opacity="1" x1="347" y1="328" x2="371" y2="327" />
</g>
<g>
	<rect fill="#cbcbcb" stroke="none" stroke-opacity="1" x="625" y="122" width="2" height="26" />
	<rect fill="#cbcbcb" stroke="none" stroke-opacity="1" x="495" y="146" width="132" height="2" />
	<rect fill="#ffffc0" stroke="black" stroke-width="1" stroke-opacity="1" x="492" y="119" width="133" height="27" />
	<text font-family="Helvetica" font-size="7" fill="#000000" xml:space="preserve" font-weight="bold" text-anchor="middle" x="559" y="127">ExternalSensor&lt;NDIR_I2C&gt;</text>
</g>
<g>
	<line stroke="#000000" stroke-opacity="1" x1="559" y1="118" x2="558" y2="70" />
	<line stroke="#000000" stroke-opacity="1" x1="558" y1="65" x2="552" y2="71" />
	<line stroke="#000000" stroke-opacity="1" x1="558" y1="65" x2="564" y2="70" />
	<line stroke="#000000" stroke-opacity="1" x1="552" y1="71" x2="564" y2="70" />
</g>
<g>
	<text font-family="Helvetica" font-size="7" fill="#000000" xml:space="preserve" x="371" y="447">mqtt</text>
</g>
<g>
	<text font-family="Helvetica" font-size="7" fill="#000000" xml:space="preserve" x="273" y="205">coolBoardLed</text>
</g>
<g>
	<text font-family="Helvetica" font-size="7" fill="#000000" xml:space="preserve" x="458" y="41">exSensor</text>
</g>
<g>
	<text font-family="Helvetica" font-size="7" fill="#000000" xml:space="preserve" x="366" y="546">wifiManager</text>
</g>
<g>
	<text font-family="Helvetica" font-size="7" fill="#000000" xml:space="preserve" x="212" y="531">coolBoardSensors</text>
</g>
<g>
	<text font-family="Helvetica" font-size="7" fill="#000000" xml:space="preserve" x="296" y="582">jetPack</text>
</g>
<g>
	<text font-family="Helvetica" font-size="7" fill="#000000" xml:space="preserve" x="354" y="317">rtc</text>
</g>
<g>
	<text font-family="Helvetica" font-size="7" fill="#000000" xml:space="preserve" x="235" y="225">externalSensors</text>
</g>
<g>
	<text font-family="Helvetica" font-size="7" fill="#000000" xml:space="preserve" x="401" y="267">irene3000</text>
</g>
<g>
	<text font-family="Helvetica" font-size="7" fill="#000000" xml:space="preserve" x="373" y="504">fileSystem</text>
</g>
<g>
	<rect fill="#cbcbcb" stroke="none" stroke-opacity="1" x="505" y="495" width="2" height="26" />
	<rect fill="#cbcbcb" stroke="none" stroke-opacity="1" x="429" y="519" width="78" height="2" />
	<rect fill="#ffffc0" stroke="black" stroke-width="1" stroke-opacity="1" x="426" y="492" width="79" height="27" />
	<text font-family="Helvetica" font-size="7" fill="#000000" xml:space="preserve" font-weight="bold" text-anchor="middle" x="466" y="500">CoolFileSystem</text>
</g>
<g>
	<rect fill="#cbcbcb" stroke="none" stroke-opacity="1" x="201" y="529" width="2" height="26" />
	<rect fill="#cbcbcb" stroke="none" stroke-opacity="1" x="111" y="553" width="92" height="2" />
	<rect fill="#ffffc0" stroke="black" stroke-width="1" stroke-opacity="1" x="108" y="526" width="93" height="27" />
	<text font-family="Helvetica" font-size="7" fill="#000000" xml:space="preserve" font-weight="bold" text-anchor="middle" x="155" y="534">CoolBoardSensors</text>
</g>
<g>
	<rect fill="#cbcbcb" stroke="none" stroke-opacity="1" x="308" y="595" width="2" height="26" />
	<rect fill="#cbcbcb" stroke="none" stroke-opacity="1" x="270" y="619" width="40" height="2" />
	<rect fill="#ffffc0" stroke="black" stroke-width="1" stroke-opacity="1" x="267" y="592" width="41" height="27" />
	<text font-family="Helvetica" font-size="7" fill="#000000" xml:space="preserve" font-weight="bold" text-anchor="middle" x="288" y="600">Jetpack</text>
</g>
<g>
	<rect fill="#cbcbcb" stroke="none" stroke-opacity="1" x="394" y="223" width="2" height="26" />
	<rect fill="#cbcbcb" stroke="none" stroke-opacity="1" x="316" y="247" width="80" height="2" />
	<rect fill="#ffffc0" stroke="black" stroke-width="1" stroke-opacity="1" x="313" y="220" width="81" height="27" />
	<text font-family="Helvetica" font-size="7" fill="#000000" xml:space="preserve" font-weight="bold" text-anchor="middle" x="354" y="228">ExternalSensors</text>
</g>
<g>
	<rect fill="#cbcbcb" stroke="none" stroke-opacity="1" x="471" y="552" width="2" height="26" />
	<rect fill="#cbcbcb" stroke="none" stroke-opacity="1" x="429" y="576" width="44" height="2" />
	<rect fill="#ffffc0" stroke="black" stroke-width="1" stroke-opacity="1" x="426" y="549" width="45" height="27" />
	<text font-family="Helvetica" font-size="7" fill="#000000" xml:space="preserve" font-weight="bold" text-anchor="middle" x="449" y="557">CoolWifi</text>
</g>
<g>
	<line stroke="black" stroke-opacity="1" x1="318" y1="539" x2="400" y2="541" />
	<polygon fill="#000000" stroke="black" stroke-opacity="1" points="318,539 324,533 329,539 323,545" />
</g>
<g>
	<line stroke="black" stroke-opacity="1" x1="204" y1="541" x2="210" y2="547" />
	<line stroke="black" stroke-opacity="1" x1="204" y1="541" x2="210" y2="535" />
	<line stroke="black" stroke-opacity="1" x1="259" y1="541" x2="204" y2="541" />
	<polygon fill="#000000" stroke="black" stroke-opacity="1" points="259,541 253,547 247,541 253,535" />
</g>
<g>
	<line stroke="black" stroke-opacity="1" x1="289" y1="591" x2="295" y2="585" />
	<line stroke="black" stroke-opacity="1" x1="289" y1="591" x2="283" y2="585" />
	<line stroke="black" stroke-opacity="1" x1="289" y1="556" x2="289" y2="591" />
	<polygon fill="#000000" stroke="black" stroke-opacity="1" points="289,556 295,562 289,568 283,562" />
</g>
<g>
	<line stroke="black" stroke-opacity="1" x1="285" y1="525" x2="285" y2="232" />
	<polygon fill="#000000" stroke="black" stroke-opacity="1" points="285,525 279,519 285,513 291,519" />
</g>
<g>
	<line stroke="black" stroke-opacity="1" x1="425" y1="556" x2="419" y2="549" />
	<line stroke="black" stroke-opacity="1" x1="425" y1="556" x2="418" y2="561" />
	<line stroke="black" stroke-opacity="1" x1="318" y1="553" x2="425" y2="556" />
	<polygon fill="#000000" stroke="black" stroke-opacity="1" points="318,553 324,547 329,553 323,559" />
</g>
<g>
	<line stroke="black" stroke-opacity="1" x1="312" y1="232" x2="306" y2="226" />
	<line stroke="black" stroke-opacity="1" x1="312" y1="232" x2="306" y2="238" />
	<line stroke="black" stroke-opacity="1" x1="285" y1="232" x2="312" y2="232" />
</g>
<g>
	<line stroke="black" stroke-opacity="1" x1="400" y1="541" x2="400" y2="516" />
</g>
<g>
	<line stroke="black" stroke-opacity="1" x1="425" y1="515" x2="418" y2="509" />
	<line stroke="black" stroke-opacity="1" x1="425" y1="515" x2="419" y2="521" />
	<line stroke="black" stroke-opacity="1" x1="400" y1="516" x2="425" y2="515" />
</g>
<g>
	<rect fill="#cbcbcb" stroke="none" stroke-opacity="1" x="184" y="457" width="2" height="42" />
	<rect fill="#cbcbcb" stroke="none" stroke-opacity="1" x="132" y="497" width="54" height="2" />
	<rect fill="#ffffc0" stroke="black" stroke-width="1" stroke-opacity="1" x="129" y="454" width="55" height="43" />
	<text font-family="Helvetica" font-size="7" fill="#000000" xml:space="preserve" text-anchor="middle" x="157" y="462">&lt;&lt;struct&gt;&gt;</text>
	<text font-family="Helvetica" font-size="7" fill="#000000" xml:space="preserve" font-weight="bold" text-anchor="middle" x="157" y="478">lightActive</text>
</g>
<g>
	<rect fill="#cbcbcb" stroke="none" stroke-opacity="1" x="389" y="586" width="2" height="42" />
	<rect fill="#cbcbcb" stroke="none" stroke-opacity="1" x="341" y="626" width="50" height="2" />
	<rect fill="#ffffc0" stroke="black" stroke-width="1" stroke-opacity="1" x="338" y="583" width="51" height="43" />
	<text font-family="Helvetica" font-size="7" fill="#000000" xml:space="preserve" text-anchor="middle" x="364" y="591">&lt;&lt;struct&gt;&gt;</text>
	<text font-family="Helvetica" font-size="7" fill="#000000" xml:space="preserve" font-weight="bold" text-anchor="middle" x="364" y="607">state</text>
</g>
<g>
	<line stroke="black" stroke-opacity="1" x1="157" y1="500" x2="156" y2="513" />
<ellipse fill="none" stroke="black" stroke-width="1" stroke-opacity="1" cx="156" cy="519" rx="5" ry="5" />
	<line stroke="black" stroke-opacity="1" x1="151" y1="519" x2="161" y2="519" />
	<line stroke="black" stroke-opacity="1" x1="156" y1="514" x2="156" y2="524" />
</g>
<g>
	<line stroke="black" stroke-opacity="1" x1="337" y1="606" x2="323" y2="606" />
<ellipse fill="none" stroke="black" stroke-width="1" stroke-opacity="1" cx="317" cy="606" rx="5" ry="5" />
	<line stroke="black" stroke-opacity="1" x1="312" y1="606" x2="322" y2="606" />
	<line stroke="black" stroke-opacity="1" x1="317" y1="601" x2="317" y2="611" />
</g>
<g>
	<rect fill="#cbcbcb" stroke="none" stroke-opacity="1" x="79" y="522" width="2" height="42" />
	<rect fill="#cbcbcb" stroke="none" stroke-opacity="1" x="31" y="562" width="50" height="2" />
	<rect fill="#ffffc0" stroke="black" stroke-width="1" stroke-opacity="1" x="28" y="519" width="51" height="43" />
	<text font-family="Helvetica" font-size="7" fill="#000000" xml:space="preserve" text-anchor="middle" x="54" y="527">&lt;&lt;struct&gt;&gt;</text>
	<text font-family="Helvetica" font-size="7" fill="#000000" xml:space="preserve" font-weight="bold" text-anchor="middle" x="54" y="543">airActive</text>
</g>
<g>
	<rect fill="#cbcbcb" stroke="none" stroke-opacity="1" x="512" y="191" width="2" height="42" />
	<rect fill="#cbcbcb" stroke="none" stroke-opacity="1" x="446" y="231" width="68" height="2" />
	<rect fill="#ffffc0" stroke="black" stroke-width="1" stroke-opacity="1" x="443" y="188" width="69" height="43" />
	<text font-family="Helvetica" font-size="7" fill="#000000" xml:space="preserve" text-anchor="middle" x="478" y="196">&lt;&lt;struct&gt;&gt;</text>
	<text font-family="Helvetica" font-size="7" fill="#000000" xml:space="preserve" font-weight="bold" text-anchor="middle" x="478" y="212">parameters_T</text>
</g>
<g>
	<line stroke="black" stroke-opacity="1" x1="82" y1="541" x2="95" y2="541" />
<ellipse fill="none" stroke="black" stroke-width="1" stroke-opacity="1" cx="101" cy="541" rx="5" ry="5" />
	<line stroke="black" stroke-opacity="1" x1="96" y1="541" x2="106" y2="541" />
	<line stroke="black" stroke-opacity="1" x1="101" y1="536" x2="101" y2="546" />
</g>
<g>
	<line stroke="black" stroke-opacity="1" x1="479" y1="234" x2="479" y2="249" />
<ellipse fill="none" stroke="black" stroke-width="1" stroke-opacity="1" cx="479" cy="255" rx="5" ry="5" />
	<line stroke="black" stroke-opacity="1" x1="474" y1="255" x2="484" y2="255" />
	<line stroke="black" stroke-opacity="1" x1="479" y1="250" x2="479" y2="260" />
</g>
<g>
	<rect fill="#cbcbcb" stroke="none" stroke-opacity="1" x="502" y="364" width="2" height="42" />
	<rect fill="#cbcbcb" stroke="none" stroke-opacity="1" x="454" y="404" width="50" height="2" />
	<rect fill="#ffffc0" stroke="black" stroke-width="1" stroke-opacity="1" x="451" y="361" width="51" height="43" />
	<text font-family="Helvetica" font-size="7" fill="#000000" xml:space="preserve" text-anchor="middle" x="477" y="369">&lt;&lt;struct&gt;&gt;</text>
	<text font-family="Helvetica" font-size="7" fill="#000000" xml:space="preserve" font-weight="bold" text-anchor="middle" x="477" y="385">state</text>
</g>
<g>
	<line stroke="black" stroke-opacity="1" x1="478" y1="360" x2="478" y2="304" />
<ellipse fill="none" stroke="black" stroke-width="1" stroke-opacity="1" cx="478" cy="298" rx="5" ry="5" />
	<line stroke="black" stroke-opacity="1" x1="473" y1="298" x2="483" y2="298" />
	<line stroke="black" stroke-opacity="1" x1="478" y1="293" x2="478" y2="303" />
</g>
<g>
	<rect fill="#cbcbcb" stroke="none" stroke-opacity="1" x="379" y="29" width="2" height="42" />
	<rect fill="#cbcbcb" stroke="none" stroke-opacity="1" x="331" y="69" width="50" height="2" />
	<rect fill="#ffffc0" stroke="black" stroke-width="1" stroke-opacity="1" x="328" y="26" width="51" height="43" />
	<text font-family="Helvetica" font-size="7" fill="#000000" xml:space="preserve" text-anchor="middle" x="354" y="34">&lt;&lt;struct&gt;&gt;</text>
	<text font-family="Helvetica" font-size="7" fill="#000000" xml:space="preserve" font-weight="bold" text-anchor="middle" x="354" y="50">sensor</text>
</g>
<g>
	<line stroke="black" stroke-opacity="1" x1="506" y1="49" x2="500" y2="43" />
	<line stroke="black" stroke-opacity="1" x1="506" y1="49" x2="500" y2="55" />
	<line stroke="black" stroke-opacity="1" x1="382" y1="49" x2="506" y2="49" />
</g>
<g>
	<line stroke="black" stroke-opacity="1" x1="355" y1="72" x2="355" y2="207" />
<ellipse fill="none" stroke="black" stroke-width="1" stroke-opacity="1" cx="355" cy="213" rx="5" ry="5" />
	<line stroke="black" stroke-opacity="1" x1="350" y1="213" x2="360" y2="213" />
	<line stroke="black" stroke-opacity="1" x1="355" y1="208" x2="355" y2="218" />
</g>
</svg>
