<?xml version="1.0" encoding="UTF-8" standalone="no"?>
<!DOCTYPE svg PUBLIC "-//W3C//DTD SVG 1.1//EN"
 "http://www.w3.org/Graphics/SVG/1.1/DTD/svg11.dtd">
<!-- Generated by graphviz version 2.38.0 (20140413.2041)
 -->
<!-- Title: CoolBoard.cpp Pages: 1 -->
<svg width="2292pt" height="330pt"
 viewBox="0.00 0.00 2292.00 330.00" xmlns="http://www.w3.org/2000/svg" xmlns:xlink="http://www.w3.org/1999/xlink">
<g id="graph0" class="graph" transform="scale(1 1) rotate(0) translate(4 326)">
<title>CoolBoard.cpp</title>
<polygon fill="white" stroke="none" points="-4,4 -4,-326 2288,-326 2288,4 -4,4"/>
<!-- Node0 -->
<g id="node1" class="node"><title>Node0</title>
<polygon fill="#bfbfbf" stroke="black" points="829.5,-302.5 829.5,-321.5 910.5,-321.5 910.5,-302.5 829.5,-302.5"/>
<text text-anchor="middle" x="870" y="-309.5" font-family="Helvetica,sans-Serif" font-size="10.00">CoolBoard.cpp</text>
</g>
<!-- Node1 -->
<g id="node2" class="node"><title>Node1</title>
<polygon fill="white" stroke="#bfbfbf" points="0,-246.5 0,-265.5 38,-265.5 38,-246.5 0,-246.5"/>
<text text-anchor="middle" x="19" y="-253.5" font-family="Helvetica,sans-Serif" font-size="10.00">FS.h</text>
</g>
<!-- Node0&#45;&gt;Node1 -->
<g id="edge1" class="edge"><title>Node0&#45;&gt;Node1</title>
<path fill="none" stroke="midnightblue" d="M829.437,-309.903C686.164,-305.852 204.332,-290.678 52,-266 50.714,-265.792 49.4061,-265.553 48.0895,-265.291"/>
<polygon fill="midnightblue" stroke="midnightblue" points="48.5803,-261.811 38.0446,-262.928 46.9777,-268.625 48.5803,-261.811"/>
</g>
<!-- Node2 -->
<g id="node3" class="node"><title>Node2</title>
<g id="a_node3"><a xlink:href="../../d5/d51/_cool_board_8h.html" target="_top" xlink:title="CoolBoard Header file. ">
<polygon fill="white" stroke="black" points="788.5,-246.5 788.5,-265.5 859.5,-265.5 859.5,-246.5 788.5,-246.5"/>
<text text-anchor="middle" x="824" y="-253.5" font-family="Helvetica,sans-Serif" font-size="10.00">CoolBoard.h</text>
</a>
</g>
</g>
<!-- Node0&#45;&gt;Node2 -->
<g id="edge2" class="edge"><title>Node0&#45;&gt;Node2</title>
<path fill="none" stroke="midnightblue" d="M862.404,-302.083C855.773,-294.298 845.979,-282.801 837.942,-273.367"/>
<polygon fill="midnightblue" stroke="midnightblue" points="840.604,-271.094 831.455,-265.751 835.275,-275.633 840.604,-271.094"/>
</g>
<!-- Node4 -->
<g id="node5" class="node"><title>Node4</title>
<polygon fill="white" stroke="#bfbfbf" points="978,-62 978,-81 1036,-81 1036,-62 978,-62"/>
<text text-anchor="middle" x="1007" y="-69" font-family="Helvetica,sans-Serif" font-size="10.00">Arduino.h</text>
</g>
<!-- Node0&#45;&gt;Node4 -->
<g id="edge51" class="edge"><title>Node0&#45;&gt;Node4</title>
<path fill="none" stroke="midnightblue" d="M829.451,-308.864C675.694,-300.359 134.771,-266.585 85,-210 79.1293,-203.326 82.4095,-198.503 85,-190 95.4538,-155.686 98.8428,-140.775 130,-123 203.326,-81.1685 805.845,-73.9205 967.315,-72.7256"/>
<polygon fill="midnightblue" stroke="midnightblue" points="967.76,-76.2227 977.735,-72.6525 967.711,-69.2228 967.76,-76.2227"/>
</g>
<!-- Node35 -->
<g id="node36" class="node"><title>Node35</title>
<polygon fill="white" stroke="#bfbfbf" points="877.5,-246.5 877.5,-265.5 956.5,-265.5 956.5,-246.5 877.5,-246.5"/>
<text text-anchor="middle" x="917" y="-253.5" font-family="Helvetica,sans-Serif" font-size="10.00">ArduinoJson.h</text>
</g>
<!-- Node0&#45;&gt;Node35 -->
<g id="edge50" class="edge"><title>Node0&#45;&gt;Node35</title>
<path fill="none" stroke="midnightblue" d="M877.761,-302.083C884.537,-294.298 894.543,-282.801 902.755,-273.367"/>
<polygon fill="midnightblue" stroke="midnightblue" points="905.458,-275.592 909.383,-265.751 900.178,-270.996 905.458,-275.592"/>
</g>
<!-- Node36 -->
<g id="node37" class="node"><title>Node36</title>
<polygon fill="white" stroke="#bfbfbf" points="974.5,-246.5 974.5,-265.5 1019.5,-265.5 1019.5,-246.5 974.5,-246.5"/>
<text text-anchor="middle" x="997" y="-253.5" font-family="Helvetica,sans-Serif" font-size="10.00">Wire.h</text>
</g>
<!-- Node0&#45;&gt;Node36 -->
<g id="edge52" class="edge"><title>Node0&#45;&gt;Node36</title>
<path fill="none" stroke="midnightblue" d="M890.124,-302.444C911.024,-293.557 943.935,-279.563 967.716,-269.451"/>
<polygon fill="midnightblue" stroke="midnightblue" points="969.138,-272.65 976.971,-265.516 966.398,-266.208 969.138,-272.65"/>
</g>
<!-- Node37 -->
<g id="node38" class="node"><title>Node37</title>
<polygon fill="white" stroke="#bfbfbf" points="1038,-246.5 1038,-265.5 1090,-265.5 1090,-246.5 1038,-246.5"/>
<text text-anchor="middle" x="1064" y="-253.5" font-family="Helvetica,sans-Serif" font-size="10.00">memory</text>
</g>
<!-- Node0&#45;&gt;Node37 -->
<g id="edge53" class="edge"><title>Node0&#45;&gt;Node37</title>
<path fill="none" stroke="midnightblue" d="M900.74,-302.444C935.311,-292.821 991.393,-277.21 1027.99,-267.024"/>
<polygon fill="midnightblue" stroke="midnightblue" points="1029.06,-270.358 1037.76,-264.304 1027.19,-263.614 1029.06,-270.358"/>
</g>
<!-- Node3 -->
<g id="node4" class="node"><title>Node3</title>
<g id="a_node4"><a xlink:href="../../d9/d41/_cool_file_system_8h.html" target="_top" xlink:title="CoolFileSystem Header file. ">
<polygon fill="white" stroke="black" points="1784.5,-190.5 1784.5,-209.5 1879.5,-209.5 1879.5,-190.5 1784.5,-190.5"/>
<text text-anchor="middle" x="1832" y="-197.5" font-family="Helvetica,sans-Serif" font-size="10.00">CoolFileSystem.h</text>
</a>
</g>
</g>
<!-- Node2&#45;&gt;Node3 -->
<g id="edge3" class="edge"><title>Node2&#45;&gt;Node3</title>
<path fill="none" stroke="midnightblue" d="M859.941,-247.154C862.66,-246.712 865.368,-246.319 868,-246 1265.61,-197.777 1372.36,-249.246 1774.24,-210.052"/>
<polygon fill="midnightblue" stroke="midnightblue" points="1774.78,-213.515 1784.39,-209.049 1774.1,-206.549 1774.78,-213.515"/>
</g>
<!-- Node2&#45;&gt;Node4 -->
<g id="edge49" class="edge"><title>Node2&#45;&gt;Node4</title>
<path fill="none" stroke="midnightblue" d="M788.29,-253.523C640.956,-246.81 92.0608,-215.403 179,-123 206.313,-93.9702 805.757,-77.3797 967.237,-73.4267"/>
<polygon fill="midnightblue" stroke="midnightblue" points="967.75,-76.9154 977.662,-73.1742 967.58,-69.9174 967.75,-76.9154"/>
</g>
<!-- Node5 -->
<g id="node6" class="node"><title>Node5</title>
<g id="a_node6"><a xlink:href="../../d7/df3/_cool_board_sensors_8h.html" target="_top" xlink:title="CoolBoardSensors Header file. ">
<polygon fill="white" stroke="black" points="369.5,-190.5 369.5,-209.5 476.5,-209.5 476.5,-190.5 369.5,-190.5"/>
<text text-anchor="middle" x="423" y="-197.5" font-family="Helvetica,sans-Serif" font-size="10.00">CoolBoardSensors.h</text>
</a>
</g>
</g>
<!-- Node2&#45;&gt;Node5 -->
<g id="edge5" class="edge"><title>Node2&#45;&gt;Node5</title>
<path fill="none" stroke="midnightblue" d="M788.414,-250.208C720.631,-241.08 572.167,-221.087 486.804,-209.592"/>
<polygon fill="midnightblue" stroke="midnightblue" points="487.094,-206.1 476.716,-208.234 486.16,-213.037 487.094,-206.1"/>
</g>
<!-- Node9 -->
<g id="node10" class="node"><title>Node9</title>
<g id="a_node10"><a xlink:href="../../d0/da6/_cool_board_led_8h.html" target="_top" xlink:title="CoolBoardLed Header file. ">
<polygon fill="white" stroke="black" points="611,-190.5 611,-209.5 697,-209.5 697,-190.5 611,-190.5"/>
<text text-anchor="middle" x="654" y="-197.5" font-family="Helvetica,sans-Serif" font-size="10.00">CoolBoardLed.h</text>
</a>
</g>
</g>
<!-- Node2&#45;&gt;Node9 -->
<g id="edge11" class="edge"><title>Node2&#45;&gt;Node9</title>
<path fill="none" stroke="midnightblue" d="M797.063,-246.444C768.34,-237.32 722.671,-222.813 690.679,-212.651"/>
<polygon fill="midnightblue" stroke="midnightblue" points="691.401,-209.208 680.811,-209.516 689.282,-215.88 691.401,-209.208"/>
</g>
<!-- Node11 -->
<g id="node12" class="node"><title>Node11</title>
<g id="a_node12"><a xlink:href="../../d4/daa/_cool_time_8h.html" target="_top" xlink:title="CoolTime Header file. ">
<polygon fill="white" stroke="black" points="790.5,-190.5 790.5,-209.5 857.5,-209.5 857.5,-190.5 790.5,-190.5"/>
<text text-anchor="middle" x="824" y="-197.5" font-family="Helvetica,sans-Serif" font-size="10.00">CoolTime.h</text>
</a>
</g>
</g>
<!-- Node2&#45;&gt;Node11 -->
<g id="edge14" class="edge"><title>Node2&#45;&gt;Node11</title>
<path fill="none" stroke="midnightblue" d="M824,-246.083C824,-239.006 824,-228.861 824,-219.986"/>
<polygon fill="midnightblue" stroke="midnightblue" points="827.5,-219.751 824,-209.751 820.5,-219.751 827.5,-219.751"/>
</g>
<!-- Node15 -->
<g id="node16" class="node"><title>Node15</title>
<g id="a_node16"><a xlink:href="../../de/d2e/_cool_m_q_t_t_8h.html" target="_top" xlink:title="CoolMQTT Header file. ">
<polygon fill="white" stroke="black" points="1578.5,-190.5 1578.5,-209.5 1651.5,-209.5 1651.5,-190.5 1578.5,-190.5"/>
<text text-anchor="middle" x="1615" y="-197.5" font-family="Helvetica,sans-Serif" font-size="10.00">CoolMQTT.h</text>
</a>
</g>
</g>
<!-- Node2&#45;&gt;Node15 -->
<g id="edge19" class="edge"><title>Node2&#45;&gt;Node15</title>
<path fill="none" stroke="midnightblue" d="M859.948,-247.215C862.665,-246.759 865.372,-246.346 868,-246 1004.5,-228.02 1427.01,-208.967 1568.38,-202.942"/>
<polygon fill="midnightblue" stroke="midnightblue" points="1568.61,-206.435 1578.45,-202.514 1568.31,-199.441 1568.61,-206.435"/>
</g>
<!-- Node21 -->
<g id="node22" class="node"><title>Node21</title>
<g id="a_node22"><a xlink:href="../../db/d6c/_jetpack_8h.html" target="_top" xlink:title="Jetpack Header file. ">
<polygon fill="white" stroke="black" points="888.5,-190.5 888.5,-209.5 947.5,-209.5 947.5,-190.5 888.5,-190.5"/>
<text text-anchor="middle" x="918" y="-197.5" font-family="Helvetica,sans-Serif" font-size="10.00">Jetpack.h</text>
</a>
</g>
</g>
<!-- Node2&#45;&gt;Node21 -->
<g id="edge27" class="edge"><title>Node2&#45;&gt;Node21</title>
<path fill="none" stroke="midnightblue" d="M839.103,-246.324C853.903,-237.822 876.694,-224.729 893.982,-214.797"/>
<polygon fill="midnightblue" stroke="midnightblue" points="896.007,-217.671 902.935,-209.655 892.52,-211.601 896.007,-217.671"/>
</g>
<!-- Node22 -->
<g id="node23" class="node"><title>Node22</title>
<g id="a_node23"><a xlink:href="../../d7/d31/_irene3000_8h.html" target="_top" xlink:title="Irene3000 Header file. ">
<polygon fill="white" stroke="black" points="992,-190.5 992,-209.5 1060,-209.5 1060,-190.5 992,-190.5"/>
<text text-anchor="middle" x="1026" y="-197.5" font-family="Helvetica,sans-Serif" font-size="10.00">Irene3000.h</text>
</a>
</g>
</g>
<!-- Node2&#45;&gt;Node22 -->
<g id="edge29" class="edge"><title>Node2&#45;&gt;Node22</title>
<path fill="none" stroke="midnightblue" d="M856.008,-246.444C890.729,-237.162 946.288,-222.309 984.377,-212.127"/>
<polygon fill="midnightblue" stroke="midnightblue" points="985.385,-215.48 994.142,-209.516 983.578,-208.718 985.385,-215.48"/>
</g>
<!-- Node24 -->
<g id="node25" class="node"><title>Node24</title>
<g id="a_node25"><a xlink:href="../../d7/dcc/_external_sensors_8h.html" target="_top" xlink:title="ExternalSensors header file. ">
<polygon fill="white" stroke="black" points="1669.5,-190.5 1669.5,-209.5 1766.5,-209.5 1766.5,-190.5 1669.5,-190.5"/>
<text text-anchor="middle" x="1718" y="-197.5" font-family="Helvetica,sans-Serif" font-size="10.00">ExternalSensors.h</text>
</a>
</g>
</g>
<!-- Node2&#45;&gt;Node24 -->
<g id="edge33" class="edge"><title>Node2&#45;&gt;Node24</title>
<path fill="none" stroke="midnightblue" d="M859.943,-247.171C862.661,-246.725 865.369,-246.327 868,-246 1214.78,-202.931 1308.22,-244.755 1659.04,-210.087"/>
<polygon fill="midnightblue" stroke="midnightblue" points="1659.63,-213.546 1669.23,-209.066 1658.93,-206.581 1659.63,-213.546"/>
</g>
<!-- Node30 -->
<g id="node31" class="node"><title>Node30</title>
<g id="a_node31"><a xlink:href="../../dc/d38/_cool_wifi_8h.html" target="_top" xlink:title="CoolWifi Header file. ">
<polygon fill="white" stroke="black" points="1297,-190.5 1297,-209.5 1359,-209.5 1359,-190.5 1297,-190.5"/>
<text text-anchor="middle" x="1328" y="-197.5" font-family="Helvetica,sans-Serif" font-size="10.00">CoolWifi.h</text>
</a>
</g>
</g>
<!-- Node2&#45;&gt;Node30 -->
<g id="edge41" class="edge"><title>Node2&#45;&gt;Node30</title>
<path fill="none" stroke="midnightblue" d="M859.964,-247.326C862.677,-246.844 865.379,-246.395 868,-246 1021.58,-222.845 1205.89,-208.979 1286.66,-203.593"/>
<polygon fill="midnightblue" stroke="midnightblue" points="1287.15,-207.068 1296.9,-202.919 1286.69,-200.083 1287.15,-207.068"/>
</g>
<!-- Node34 -->
<g id="node35" class="node"><title>Node34</title>
<g id="a_node35"><a xlink:href="../../d1/d25/_cool_board_actor_8h.html" target="_top" xlink:title="CoolBoardActor Header file. ">
<polygon fill="white" stroke="black" points="94,-190.5 94,-209.5 188,-209.5 188,-190.5 94,-190.5"/>
<text text-anchor="middle" x="141" y="-197.5" font-family="Helvetica,sans-Serif" font-size="10.00">CoolBoardActor.h</text>
</a>
</g>
</g>
<!-- Node2&#45;&gt;Node34 -->
<g id="edge47" class="edge"><title>Node2&#45;&gt;Node34</title>
<path fill="none" stroke="midnightblue" d="M788.155,-253.34C692.66,-248.716 424.239,-234.4 202,-210 200.743,-209.862 199.472,-209.718 198.191,-209.568"/>
<polygon fill="midnightblue" stroke="midnightblue" points="198.601,-206.092 188.244,-208.324 197.732,-213.038 198.601,-206.092"/>
</g>
<!-- Node3&#45;&gt;Node4 -->
<g id="edge4" class="edge"><title>Node3&#45;&gt;Node4</title>
<path fill="none" stroke="midnightblue" d="M1821.91,-190.423C1801.8,-173.903 1754.64,-137.984 1708,-123 1583.43,-82.9744 1175.57,-74.5694 1046.52,-72.8958"/>
<polygon fill="midnightblue" stroke="midnightblue" points="1046.36,-69.3935 1036.31,-72.77 1046.27,-76.393 1046.36,-69.3935"/>
</g>
<!-- Node5&#45;&gt;Node4 -->
<g id="edge6" class="edge"><title>Node5&#45;&gt;Node4</title>
<path fill="none" stroke="midnightblue" d="M415.487,-190.307C403.04,-174.838 381.196,-142.344 399,-123 437.503,-81.1661 839.124,-73.9818 967.664,-72.7525"/>
<polygon fill="midnightblue" stroke="midnightblue" points="967.875,-76.2509 977.843,-72.6624 967.813,-69.2512 967.875,-76.2509"/>
</g>
<!-- Node6 -->
<g id="node7" class="node"><title>Node6</title>
<g id="a_node7"><a xlink:href="../../d1/dd7/_cool_s_i114_x_8h.html" target="_top" xlink:title="internals/CoolSI114X.h">
<polygon fill="white" stroke="black" points="408.5,-129 408.5,-148 525.5,-148 525.5,-129 408.5,-129"/>
<text text-anchor="middle" x="467" y="-136" font-family="Helvetica,sans-Serif" font-size="10.00">internals/CoolSI114X.h</text>
</a>
</g>
</g>
<!-- Node5&#45;&gt;Node6 -->
<g id="edge7" class="edge"><title>Node5&#45;&gt;Node6</title>
<path fill="none" stroke="midnightblue" d="M429.304,-190.475C435.904,-181.55 446.437,-167.307 454.693,-156.143"/>
<polygon fill="midnightblue" stroke="midnightblue" points="457.576,-158.131 460.708,-148.009 451.948,-153.968 457.576,-158.131"/>
</g>
<!-- Node7 -->
<g id="node8" class="node"><title>Node7</title>
<g id="a_node8"><a xlink:href="../../d2/d3a/_cool_spark_fun_b_m_e280_8h.html" target="_top" xlink:title="internals/CoolSparkFunBME280.h">
<polygon fill="white" stroke="black" points="188,-129 188,-148 352,-148 352,-129 188,-129"/>
<text text-anchor="middle" x="270" y="-136" font-family="Helvetica,sans-Serif" font-size="10.00">internals/CoolSparkFunBME280.h</text>
</a>
</g>
</g>
<!-- Node5&#45;&gt;Node7 -->
<g id="edge9" class="edge"><title>Node5&#45;&gt;Node7</title>
<path fill="none" stroke="midnightblue" d="M401.079,-190.475C374.948,-180.313 331.088,-163.256 301.37,-151.7"/>
<polygon fill="midnightblue" stroke="midnightblue" points="302.469,-148.372 291.881,-148.009 299.932,-154.896 302.469,-148.372"/>
</g>
<!-- Node6&#45;&gt;Node4 -->
<g id="edge8" class="edge"><title>Node6&#45;&gt;Node4</title>
<path fill="none" stroke="midnightblue" d="M503.572,-128.975C513.711,-126.81 524.749,-124.637 535,-123 694.468,-97.5371 886.353,-81.467 967.597,-75.3291"/>
<polygon fill="midnightblue" stroke="midnightblue" points="968.146,-78.7979 977.858,-74.5625 967.625,-71.8174 968.146,-78.7979"/>
</g>
<!-- Node8 -->
<g id="node9" class="node"><title>Node8</title>
<polygon fill="white" stroke="#bfbfbf" points="245.5,-62 245.5,-81 294.5,-81 294.5,-62 245.5,-62"/>
<text text-anchor="middle" x="270" y="-69" font-family="Helvetica,sans-Serif" font-size="10.00">stdint.h</text>
</g>
<!-- Node7&#45;&gt;Node8 -->
<g id="edge10" class="edge"><title>Node7&#45;&gt;Node8</title>
<path fill="none" stroke="midnightblue" d="M270,-128.734C270,-119.183 270,-103.618 270,-91.2829"/>
<polygon fill="midnightblue" stroke="midnightblue" points="273.5,-91.1273 270,-81.1273 266.5,-91.1273 273.5,-91.1273"/>
</g>
<!-- Node9&#45;&gt;Node4 -->
<g id="edge12" class="edge"><title>Node9&#45;&gt;Node4</title>
<path fill="none" stroke="midnightblue" d="M653.346,-190.419C652.653,-174.534 653.68,-140.568 673,-123 715.563,-84.2969 889.055,-75.2558 967.797,-73.1438"/>
<polygon fill="midnightblue" stroke="midnightblue" points="967.898,-76.6424 977.809,-72.8991 967.727,-69.6445 967.898,-76.6424"/>
</g>
<!-- Node10 -->
<g id="node11" class="node"><title>Node10</title>
<polygon fill="white" stroke="#bfbfbf" points="544,-129 544,-148 626,-148 626,-129 544,-129"/>
<text text-anchor="middle" x="585" y="-136" font-family="Helvetica,sans-Serif" font-size="10.00">NeoPixelBus.h</text>
</g>
<!-- Node9&#45;&gt;Node10 -->
<g id="edge13" class="edge"><title>Node9&#45;&gt;Node10</title>
<path fill="none" stroke="midnightblue" d="M644.114,-190.475C633.354,-181.197 615.929,-166.171 602.779,-154.831"/>
<polygon fill="midnightblue" stroke="midnightblue" points="604.727,-151.889 594.868,-148.009 600.155,-157.19 604.727,-151.889"/>
</g>
<!-- Node11&#45;&gt;Node4 -->
<g id="edge15" class="edge"><title>Node11&#45;&gt;Node4</title>
<path fill="none" stroke="midnightblue" d="M852.62,-190.445C874.929,-182.958 906.036,-170.665 930,-154 943.976,-144.281 974.797,-109.8 992.922,-88.9288"/>
<polygon fill="midnightblue" stroke="midnightblue" points="995.728,-91.0342 999.613,-81.1774 990.429,-86.4601 995.728,-91.0342"/>
</g>
<!-- Node12 -->
<g id="node13" class="node"><title>Node12</title>
<polygon fill="white" stroke="#bfbfbf" points="781.5,-129 781.5,-148 840.5,-148 840.5,-129 781.5,-129"/>
<text text-anchor="middle" x="811" y="-136" font-family="Helvetica,sans-Serif" font-size="10.00">TimeLib.h</text>
</g>
<!-- Node11&#45;&gt;Node12 -->
<g id="edge16" class="edge"><title>Node11&#45;&gt;Node12</title>
<path fill="none" stroke="midnightblue" d="M822.137,-190.475C820.284,-181.992 817.381,-168.704 815.003,-157.822"/>
<polygon fill="midnightblue" stroke="midnightblue" points="818.413,-157.032 812.859,-148.009 811.574,-158.526 818.413,-157.032"/>
</g>
<!-- Node13 -->
<g id="node14" class="node"><title>Node13</title>
<polygon fill="white" stroke="#bfbfbf" points="858.5,-129 858.5,-148 921.5,-148 921.5,-129 858.5,-129"/>
<text text-anchor="middle" x="890" y="-136" font-family="Helvetica,sans-Serif" font-size="10.00">WiFiUdp.h</text>
</g>
<!-- Node11&#45;&gt;Node13 -->
<g id="edge17" class="edge"><title>Node11&#45;&gt;Node13</title>
<path fill="none" stroke="midnightblue" d="M833.456,-190.475C843.748,-181.197 860.416,-166.171 872.994,-154.831"/>
<polygon fill="midnightblue" stroke="midnightblue" points="875.478,-157.305 880.561,-148.009 870.79,-152.105 875.478,-157.305"/>
</g>
<!-- Node14 -->
<g id="node15" class="node"><title>Node14</title>
<polygon fill="white" stroke="#bfbfbf" points="682.5,-129 682.5,-148 763.5,-148 763.5,-129 682.5,-129"/>
<text text-anchor="middle" x="723" y="-136" font-family="Helvetica,sans-Serif" font-size="10.00">DS1337RTC.h</text>
</g>
<!-- Node11&#45;&gt;Node14 -->
<g id="edge18" class="edge"><title>Node11&#45;&gt;Node14</title>
<path fill="none" stroke="midnightblue" d="M809.529,-190.475C793.029,-180.755 765.822,-164.727 746.319,-153.237"/>
<polygon fill="midnightblue" stroke="midnightblue" points="747.837,-150.069 737.444,-148.009 744.284,-156.101 747.837,-150.069"/>
</g>
<!-- Node15&#45;&gt;Node4 -->
<g id="edge20" class="edge"><title>Node15&#45;&gt;Node4</title>
<path fill="none" stroke="midnightblue" d="M1628.38,-190.429C1649.81,-175.701 1687.43,-145.049 1667,-123 1624.75,-77.3946 1182.36,-72.8057 1046.48,-72.4774"/>
<polygon fill="midnightblue" stroke="midnightblue" points="1046.13,-68.9769 1036.13,-72.4594 1046.12,-75.9769 1046.13,-68.9769"/>
</g>
<!-- Node16 -->
<g id="node17" class="node"><title>Node16</title>
<polygon fill="white" stroke="#bfbfbf" points="1572,-129 1572,-148 1658,-148 1658,-129 1572,-129"/>
<text text-anchor="middle" x="1615" y="-136" font-family="Helvetica,sans-Serif" font-size="10.00">ESP8266WiFi.h</text>
</g>
<!-- Node15&#45;&gt;Node16 -->
<g id="edge21" class="edge"><title>Node15&#45;&gt;Node16</title>
<path fill="none" stroke="midnightblue" d="M1615,-190.475C1615,-182.08 1615,-168.981 1615,-158.163"/>
<polygon fill="midnightblue" stroke="midnightblue" points="1618.5,-158.009 1615,-148.009 1611.5,-158.009 1618.5,-158.009"/>
</g>
<!-- Node17 -->
<g id="node18" class="node"><title>Node17</title>
<g id="a_node18"><a xlink:href="../../d5/dfb/_cool_pub_sub_client_8h.html" target="_top" xlink:title="internals/CoolPubSubClient.h">
<polygon fill="white" stroke="black" points="1790.5,-129 1790.5,-148 1935.5,-148 1935.5,-129 1790.5,-129"/>
<text text-anchor="middle" x="1863" y="-136" font-family="Helvetica,sans-Serif" font-size="10.00">internals/CoolPubSubClient.h</text>
</a>
</g>
</g>
<!-- Node15&#45;&gt;Node17 -->
<g id="edge22" class="edge"><title>Node15&#45;&gt;Node17</title>
<path fill="none" stroke="midnightblue" d="M1650.53,-190.475C1694.55,-179.915 1769.59,-161.911 1817.7,-150.369"/>
<polygon fill="midnightblue" stroke="midnightblue" points="1818.63,-153.746 1827.53,-148.009 1816.99,-146.939 1818.63,-153.746"/>
</g>
<!-- Node17&#45;&gt;Node4 -->
<g id="edge23" class="edge"><title>Node17&#45;&gt;Node4</title>
<path fill="none" stroke="midnightblue" d="M1817.07,-128.966C1803.85,-126.749 1789.39,-124.551 1776,-123 1497.57,-90.7369 1159.87,-77.4595 1046.35,-73.7001"/>
<polygon fill="midnightblue" stroke="midnightblue" points="1046.18,-70.1929 1036.08,-73.3657 1045.96,-77.1892 1046.18,-70.1929"/>
</g>
<!-- Node18 -->
<g id="node19" class="node"><title>Node18</title>
<polygon fill="white" stroke="#bfbfbf" points="1697.5,-62 1697.5,-81 1768.5,-81 1768.5,-62 1697.5,-62"/>
<text text-anchor="middle" x="1733" y="-69" font-family="Helvetica,sans-Serif" font-size="10.00">IPAddress.h</text>
</g>
<!-- Node17&#45;&gt;Node18 -->
<g id="edge24" class="edge"><title>Node17&#45;&gt;Node18</title>
<path fill="none" stroke="midnightblue" d="M1845.74,-128.869C1823.69,-117.845 1785.31,-98.6554 1759.54,-85.7678"/>
<polygon fill="midnightblue" stroke="midnightblue" points="1760.84,-82.5089 1750.33,-81.1672 1757.71,-88.7699 1760.84,-82.5089"/>
</g>
<!-- Node19 -->
<g id="node20" class="node"><title>Node19</title>
<polygon fill="white" stroke="#bfbfbf" points="1787,-62 1787,-81 1837,-81 1837,-62 1787,-62"/>
<text text-anchor="middle" x="1812" y="-69" font-family="Helvetica,sans-Serif" font-size="10.00">Client.h</text>
</g>
<!-- Node17&#45;&gt;Node19 -->
<g id="edge25" class="edge"><title>Node17&#45;&gt;Node19</title>
<path fill="none" stroke="midnightblue" d="M1856.12,-128.734C1848.17,-118.598 1834.9,-101.69 1824.99,-89.0556"/>
<polygon fill="midnightblue" stroke="midnightblue" points="1827.7,-86.8342 1818.77,-81.1273 1822.19,-91.1552 1827.7,-86.8342"/>
</g>
<!-- Node20 -->
<g id="node21" class="node"><title>Node20</title>
<polygon fill="white" stroke="#bfbfbf" points="1855,-62 1855,-81 1911,-81 1911,-62 1855,-62"/>
<text text-anchor="middle" x="1883" y="-69" font-family="Helvetica,sans-Serif" font-size="10.00">Stream.h</text>
</g>
<!-- Node17&#45;&gt;Node20 -->
<g id="edge26" class="edge"><title>Node17&#45;&gt;Node20</title>
<path fill="none" stroke="midnightblue" d="M1865.7,-128.734C1868.67,-119.085 1873.52,-103.3 1877.34,-90.9063"/>
<polygon fill="midnightblue" stroke="midnightblue" points="1880.75,-91.7144 1880.35,-81.1273 1874.06,-89.6558 1880.75,-91.7144"/>
</g>
<!-- Node21&#45;&gt;Node4 -->
<g id="edge28" class="edge"><title>Node21&#45;&gt;Node4</title>
<path fill="none" stroke="midnightblue" d="M928.422,-190.486C938.397,-181.974 953.445,-168.148 964,-154 979.051,-133.824 991.845,-107.662 999.47,-90.4934"/>
<polygon fill="midnightblue" stroke="midnightblue" points="1002.77,-91.6683 1003.52,-81.0999 996.348,-88.8946 1002.77,-91.6683"/>
</g>
<!-- Node22&#45;&gt;Node4 -->
<g id="edge32" class="edge"><title>Node22&#45;&gt;Node4</title>
<path fill="none" stroke="midnightblue" d="M1024.69,-190.305C1021.64,-169.994 1013.99,-119.053 1009.82,-91.2768"/>
<polygon fill="midnightblue" stroke="midnightblue" points="1013.26,-90.6249 1008.32,-81.2557 1006.34,-91.6647 1013.26,-90.6249"/>
</g>
<!-- Node23 -->
<g id="node24" class="node"><title>Node23</title>
<g id="a_node24"><a xlink:href="../../df/d06/_cool_adafruit___a_d_s1015_8h.html" target="_top" xlink:title="internals/CoolAdafruit\l_ADS1015.h">
<polygon fill="white" stroke="black" points="1054,-123.5 1054,-153.5 1164,-153.5 1164,-123.5 1054,-123.5"/>
<text text-anchor="start" x="1062" y="-141.5" font-family="Helvetica,sans-Serif" font-size="10.00">internals/CoolAdafruit</text>
<text text-anchor="middle" x="1109" y="-130.5" font-family="Helvetica,sans-Serif" font-size="10.00">_ADS1015.h</text>
</a>
</g>
</g>
<!-- Node22&#45;&gt;Node23 -->
<g id="edge30" class="edge"><title>Node22&#45;&gt;Node23</title>
<path fill="none" stroke="midnightblue" d="M1037.89,-190.475C1049.13,-182.417 1066.42,-170.023 1081.14,-159.474"/>
<polygon fill="midnightblue" stroke="midnightblue" points="1083.35,-162.194 1089.44,-153.523 1079.27,-156.505 1083.35,-162.194"/>
</g>
<!-- Node23&#45;&gt;Node4 -->
<g id="edge31" class="edge"><title>Node23&#45;&gt;Node4</title>
<path fill="none" stroke="midnightblue" d="M1086.87,-123.396C1069.76,-112.496 1046.2,-97.4787 1029.1,-86.5835"/>
<polygon fill="midnightblue" stroke="midnightblue" points="1030.66,-83.4295 1020.35,-81.007 1026.9,-89.3328 1030.66,-83.4295"/>
</g>
<!-- Node24&#45;&gt;Node4 -->
<g id="edge34" class="edge"><title>Node24&#45;&gt;Node4</title>
<path fill="none" stroke="midnightblue" d="M1716.83,-190.107C1714.14,-173.703 1705.91,-138.907 1683,-123 1630.65,-86.6535 1182.93,-75.6601 1046.38,-73.1374"/>
<polygon fill="midnightblue" stroke="midnightblue" points="1046.41,-69.6376 1036.35,-72.9572 1046.28,-76.6364 1046.41,-69.6376"/>
</g>
<!-- Node25 -->
<g id="node26" class="node"><title>Node25</title>
<g id="a_node26"><a xlink:href="../../d6/d20/_external_sensor_8h.html" target="_top" xlink:title="ExternalSensor Header file. ">
<polygon fill="white" stroke="black" points="1954,-129 1954,-148 2046,-148 2046,-129 1954,-129"/>
<text text-anchor="middle" x="2000" y="-136" font-family="Helvetica,sans-Serif" font-size="10.00">ExternalSensor.h</text>
</a>
</g>
</g>
<!-- Node24&#45;&gt;Node25 -->
<g id="edge35" class="edge"><title>Node24&#45;&gt;Node25</title>
<path fill="none" stroke="midnightblue" d="M1765.57,-190.458C1811.63,-181.98 1883.34,-168.225 1945,-154 1949.63,-152.932 1954.46,-151.754 1959.25,-150.545"/>
<polygon fill="midnightblue" stroke="midnightblue" points="1960.15,-153.927 1968.96,-148.043 1958.4,-147.149 1960.15,-153.927"/>
</g>
<!-- Node25&#45;&gt;Node4 -->
<g id="edge40" class="edge"><title>Node25&#45;&gt;Node4</title>
<path fill="none" stroke="midnightblue" d="M1971.97,-128.932C1963.39,-126.629 1953.88,-124.394 1945,-123 1767.61,-95.1404 1201.32,-77.8428 1046.46,-73.5513"/>
<polygon fill="midnightblue" stroke="midnightblue" points="1046.13,-70.0409 1036.04,-73.2648 1045.94,-77.0382 1046.13,-70.0409"/>
</g>
<!-- Node26 -->
<g id="node27" class="node"><title>Node26</title>
<g id="a_node27"><a xlink:href="../../d0/d08/_cool_n_d_i_r___i2_c_8h.html" target="_top" xlink:title="internals/CoolNDIR\l_I2C.h">
<polygon fill="white" stroke="black" points="1929,-56.5 1929,-86.5 2031,-86.5 2031,-56.5 1929,-56.5"/>
<text text-anchor="start" x="1937" y="-74.5" font-family="Helvetica,sans-Serif" font-size="10.00">internals/CoolNDIR</text>
<text text-anchor="middle" x="1980" y="-63.5" font-family="Helvetica,sans-Serif" font-size="10.00">_I2C.h</text>
</a>
</g>
</g>
<!-- Node25&#45;&gt;Node26 -->
<g id="edge36" class="edge"><title>Node25&#45;&gt;Node26</title>
<path fill="none" stroke="midnightblue" d="M1997.3,-128.734C1994.76,-120.456 1990.82,-107.662 1987.34,-96.3674"/>
<polygon fill="midnightblue" stroke="midnightblue" points="1990.62,-95.1175 1984.34,-86.589 1983.93,-97.1761 1990.62,-95.1175"/>
</g>
<!-- Node27 -->
<g id="node28" class="node"><title>Node27</title>
<polygon fill="white" stroke="#bfbfbf" points="2048.5,-62 2048.5,-81 2155.5,-81 2155.5,-62 2048.5,-62"/>
<text text-anchor="middle" x="2102" y="-69" font-family="Helvetica,sans-Serif" font-size="10.00">DallasTemperature.h</text>
</g>
<!-- Node25&#45;&gt;Node27 -->
<g id="edge37" class="edge"><title>Node25&#45;&gt;Node27</title>
<path fill="none" stroke="midnightblue" d="M2013.76,-128.734C2030.73,-117.916 2059.81,-99.3832 2079.93,-86.5659"/>
<polygon fill="midnightblue" stroke="midnightblue" points="2081.91,-89.4531 2088.46,-81.1273 2078.15,-83.5498 2081.91,-89.4531"/>
</g>
<!-- Node28 -->
<g id="node29" class="node"><title>Node28</title>
<g id="a_node29"><a xlink:href="../../d3/d18/_cool_adafruit___t_c_s34725_8h.html" target="_top" xlink:title="internals/CoolAdafruit\l_TCS34725.h">
<polygon fill="white" stroke="black" points="2174,-56.5 2174,-86.5 2284,-86.5 2284,-56.5 2174,-56.5"/>
<text text-anchor="start" x="2182" y="-74.5" font-family="Helvetica,sans-Serif" font-size="10.00">internals/CoolAdafruit</text>
<text text-anchor="middle" x="2229" y="-63.5" font-family="Helvetica,sans-Serif" font-size="10.00">_TCS34725.h</text>
</a>
</g>
</g>
<!-- Node25&#45;&gt;Node28 -->
<g id="edge38" class="edge"><title>Node25&#45;&gt;Node28</title>
<path fill="none" stroke="midnightblue" d="M2030.41,-128.869C2065.81,-118.819 2125.12,-101.985 2169.73,-89.3243"/>
<polygon fill="midnightblue" stroke="midnightblue" points="2170.91,-92.6257 2179.58,-86.5281 2169,-85.8917 2170.91,-92.6257"/>
</g>
<!-- Node29 -->
<g id="node30" class="node"><title>Node29</title>
<polygon fill="white" stroke="#bfbfbf" points="2193.5,-0.5 2193.5,-19.5 2264.5,-19.5 2264.5,-0.5 2193.5,-0.5"/>
<text text-anchor="middle" x="2229" y="-7.5" font-family="Helvetica,sans-Serif" font-size="10.00">WProgram.h</text>
</g>
<!-- Node28&#45;&gt;Node29 -->
<g id="edge39" class="edge"><title>Node28&#45;&gt;Node29</title>
<path fill="none" stroke="midnightblue" d="M2229,-56.3993C2229,-48.4664 2229,-38.458 2229,-29.8583"/>
<polygon fill="midnightblue" stroke="midnightblue" points="2232.5,-29.6577 2229,-19.6578 2225.5,-29.6578 2232.5,-29.6577"/>
</g>
<!-- Node30&#45;&gt;Node4 -->
<g id="edge42" class="edge"><title>Node30&#45;&gt;Node4</title>
<path fill="none" stroke="midnightblue" d="M1298.78,-190.381C1274.63,-182.632 1239.92,-170.016 1212,-154 1192.79,-142.982 1192.6,-133.293 1173,-123 1132.27,-101.617 1081.07,-87.7756 1046.38,-80.0868"/>
<polygon fill="midnightblue" stroke="midnightblue" points="1046.68,-76.5728 1036.17,-77.8966 1045.21,-83.417 1046.68,-76.5728"/>
</g>
<!-- Node30&#45;&gt;Node16 -->
<g id="edge43" class="edge"><title>Node30&#45;&gt;Node16</title>
<path fill="none" stroke="midnightblue" d="M1359.34,-193.848C1404.56,-186.223 1490.61,-170.993 1563,-154 1567.33,-152.985 1571.83,-151.848 1576.3,-150.67"/>
<polygon fill="midnightblue" stroke="midnightblue" points="1577.22,-154.048 1585.96,-148.056 1575.39,-147.292 1577.22,-154.048"/>
</g>
<!-- Node31 -->
<g id="node32" class="node"><title>Node31</title>
<polygon fill="white" stroke="#bfbfbf" points="1220.5,-129 1220.5,-148 1327.5,-148 1327.5,-129 1220.5,-129"/>
<text text-anchor="middle" x="1274" y="-136" font-family="Helvetica,sans-Serif" font-size="10.00">ESP8266WiFiMulti.h</text>
</g>
<!-- Node30&#45;&gt;Node31 -->
<g id="edge44" class="edge"><title>Node30&#45;&gt;Node31</title>
<path fill="none" stroke="midnightblue" d="M1320.26,-190.475C1312,-181.373 1298.72,-166.741 1288.51,-155.483"/>
<polygon fill="midnightblue" stroke="midnightblue" points="1291.03,-153.062 1281.72,-148.009 1285.85,-157.766 1291.03,-153.062"/>
</g>
<!-- Node32 -->
<g id="node33" class="node"><title>Node32</title>
<polygon fill="white" stroke="#bfbfbf" points="1345.5,-129 1345.5,-148 1420.5,-148 1420.5,-129 1345.5,-129"/>
<text text-anchor="middle" x="1383" y="-136" font-family="Helvetica,sans-Serif" font-size="10.00">DNSServer.h</text>
</g>
<!-- Node30&#45;&gt;Node32 -->
<g id="edge45" class="edge"><title>Node30&#45;&gt;Node32</title>
<path fill="none" stroke="midnightblue" d="M1335.88,-190.475C1344.29,-181.373 1357.82,-166.741 1368.23,-155.483"/>
<polygon fill="midnightblue" stroke="midnightblue" points="1370.92,-157.728 1375.13,-148.009 1365.78,-152.977 1370.92,-157.728"/>
</g>
<!-- Node33 -->
<g id="node34" class="node"><title>Node33</title>
<polygon fill="white" stroke="#bfbfbf" points="1438.5,-129 1438.5,-148 1553.5,-148 1553.5,-129 1438.5,-129"/>
<text text-anchor="middle" x="1496" y="-136" font-family="Helvetica,sans-Serif" font-size="10.00">ESP8266WebServer.h</text>
</g>
<!-- Node30&#45;&gt;Node33 -->
<g id="edge46" class="edge"><title>Node30&#45;&gt;Node33</title>
<path fill="none" stroke="midnightblue" d="M1352.07,-190.475C1381.01,-180.225 1429.76,-162.959 1462.4,-151.399"/>
<polygon fill="midnightblue" stroke="midnightblue" points="1463.72,-154.647 1471.97,-148.009 1461.38,-148.048 1463.72,-154.647"/>
</g>
<!-- Node34&#45;&gt;Node4 -->
<g id="edge48" class="edge"><title>Node34&#45;&gt;Node4</title>
<path fill="none" stroke="midnightblue" d="M138.403,-190.479C134.18,-174.694 127.984,-140.888 146,-123 175.502,-93.7069 802.01,-77.2283 967.308,-73.3801"/>
<polygon fill="midnightblue" stroke="midnightblue" points="967.601,-76.8743 977.517,-73.1448 967.439,-69.8762 967.601,-76.8743"/>
</g>
</g>
</svg>
