<?xml version="1.0" encoding="UTF-8" standalone="no"?>
<!DOCTYPE svg PUBLIC "-//W3C//DTD SVG 1.1//EN"
 "http://www.w3.org/Graphics/SVG/1.1/DTD/svg11.dtd">
<!-- Generated by graphviz version 2.38.0 (20140413.2041)
 -->
<!-- Title: CoolPubSubClient::publish Pages: 1 -->
<svg width="606pt" height="85pt"
 viewBox="0.00 0.00 606.00 85.00" xmlns="http://www.w3.org/2000/svg" xmlns:xlink="http://www.w3.org/1999/xlink">
<g id="graph0" class="graph" transform="scale(1 1) rotate(0) translate(4 81)">
<title>CoolPubSubClient::publish</title>
<polygon fill="white" stroke="none" points="-4,4 -4,-81 602,-81 602,4 -4,4"/>
<!-- Node116 -->
<g id="node1" class="node"><title>Node116</title>
<polygon fill="#bfbfbf" stroke="black" points="0,-19.5 0,-38.5 134,-38.5 134,-19.5 0,-19.5"/>
<text text-anchor="middle" x="67" y="-26.5" font-family="Helvetica,sans-Serif" font-size="10.00">CoolPubSubClient::publish</text>
</g>
<!-- Node117 -->
<g id="node2" class="node"><title>Node117</title>
<g id="a_node2"><a xlink:href="../../d0/dd0/class_cool_m_q_t_t.html#ace977b3e90ab14b1199fe5c4fb0a13ec" target="_top" xlink:title="CoolMQTT::publish">
<polygon fill="white" stroke="black" points="186.5,-38.5 186.5,-57.5 287.5,-57.5 287.5,-38.5 186.5,-38.5"/>
<text text-anchor="middle" x="237" y="-45.5" font-family="Helvetica,sans-Serif" font-size="10.00">CoolMQTT::publish</text>
</a>
</g>
</g>
<!-- Node116&#45;&gt;Node117 -->
<g id="edge1" class="edge"><title>Node116&#45;&gt;Node117</title>
<path fill="none" stroke="midnightblue" d="M144.651,-37.6689C158.833,-39.2728 173.296,-40.9085 186.407,-42.3913"/>
<polygon fill="midnightblue" stroke="midnightblue" points="144.728,-34.1553 134.398,-36.5093 143.941,-41.111 144.728,-34.1553"/>
</g>
<!-- Node121 -->
<g id="node6" class="node"><title>Node121</title>
<g id="a_node6"><a xlink:href="../../d8/d4b/class_cool_pub_sub_client.html#a0b01cef98af0b57d8da4df373e196448" target="_top" xlink:title="CoolPubSubClient::publish">
<polygon fill="white" stroke="black" points="170,-0.5 170,-19.5 304,-19.5 304,-0.5 170,-0.5"/>
<text text-anchor="middle" x="237" y="-7.5" font-family="Helvetica,sans-Serif" font-size="10.00">CoolPubSubClient::publish</text>
</a>
</g>
</g>
<!-- Node116&#45;&gt;Node121 -->
<g id="edge6" class="edge"><title>Node116&#45;&gt;Node121</title>
<path fill="none" stroke="midnightblue" d="M144.595,-20.3375C153.013,-19.3854 161.532,-18.422 169.809,-17.4859"/>
<polygon fill="midnightblue" stroke="midnightblue" points="143.941,-16.889 134.398,-21.4907 144.728,-23.8447 143.941,-16.889"/>
</g>
<!-- Node118 -->
<g id="node3" class="node"><title>Node118</title>
<g id="a_node3"><a xlink:href="../../d7/df9/class_cool_board.html#aa0bbc4bc605e35618d18e68795c61363" target="_top" xlink:title="CoolBoard::onLineMode">
<polygon fill="white" stroke="black" points="477,-57.5 477,-76.5 598,-76.5 598,-57.5 477,-57.5"/>
<text text-anchor="middle" x="537.5" y="-64.5" font-family="Helvetica,sans-Serif" font-size="10.00">CoolBoard::onLineMode</text>
</a>
</g>
</g>
<!-- Node117&#45;&gt;Node118 -->
<g id="edge2" class="edge"><title>Node117&#45;&gt;Node118</title>
<path fill="none" stroke="midnightblue" d="M289.697,-59.5385C305.732,-62.6016 323.521,-65.4783 340,-67 385.69,-71.2191 437.61,-71.0049 476.603,-69.8511"/>
<polygon fill="midnightblue" stroke="midnightblue" points="289.933,-56.0175 279.444,-57.5111 288.575,-62.8845 289.933,-56.0175"/>
</g>
<!-- Node119 -->
<g id="node4" class="node"><title>Node119</title>
<g id="a_node4"><a xlink:href="../../d7/df9/class_cool_board.html#a8612756d3f73198cdde857a66f0fe690" target="_top" xlink:title="CoolBoard::update">
<polygon fill="white" stroke="black" points="341.5,-38.5 341.5,-57.5 439.5,-57.5 439.5,-38.5 341.5,-38.5"/>
<text text-anchor="middle" x="390.5" y="-45.5" font-family="Helvetica,sans-Serif" font-size="10.00">CoolBoard::update</text>
</a>
</g>
</g>
<!-- Node117&#45;&gt;Node119 -->
<g id="edge3" class="edge"><title>Node117&#45;&gt;Node119</title>
<path fill="none" stroke="midnightblue" d="M297.924,-48C312.331,-48 327.537,-48 341.33,-48"/>
<polygon fill="midnightblue" stroke="midnightblue" points="297.607,-44.5001 287.607,-48 297.607,-51.5001 297.607,-44.5001"/>
</g>
<!-- Node120 -->
<g id="node5" class="node"><title>Node120</title>
<g id="a_node5"><a xlink:href="../../d0/dd0/class_cool_m_q_t_t.html#a613c5e3927ae85bb94fbf648d84d8780" target="_top" xlink:title="CoolMQTT::publish">
<polygon fill="white" stroke="black" points="340,-0.5 340,-19.5 441,-19.5 441,-0.5 340,-0.5"/>
<text text-anchor="middle" x="390.5" y="-7.5" font-family="Helvetica,sans-Serif" font-size="10.00">CoolMQTT::publish</text>
</a>
</g>
</g>
<!-- Node117&#45;&gt;Node120 -->
<g id="edge5" class="edge"><title>Node117&#45;&gt;Node120</title>
<path fill="none" stroke="midnightblue" d="M286.002,-35.96C307.167,-30.6512 331.686,-24.5012 351.545,-19.5201"/>
<polygon fill="midnightblue" stroke="midnightblue" points="285.078,-32.5832 276.23,-38.411 286.781,-39.3729 285.078,-32.5832"/>
</g>
<!-- Node119&#45;&gt;Node118 -->
<g id="edge4" class="edge"><title>Node119&#45;&gt;Node118</title>
<path fill="none" stroke="midnightblue" d="M449.703,-55.6266C458.63,-56.7964 467.858,-58.0056 476.817,-59.1794"/>
<polygon fill="midnightblue" stroke="midnightblue" points="450.153,-52.1557 439.783,-54.3267 449.243,-59.0964 450.153,-52.1557"/>
</g>
</g>
</svg>
