<?xml version="1.0" encoding="UTF-8" standalone="no"?>
<!DOCTYPE svg PUBLIC "-//W3C//DTD SVG 1.1//EN"
 "http://www.w3.org/Graphics/SVG/1.1/DTD/svg11.dtd">
<!-- Generated by graphviz version 2.38.0 (20140413.2041)
 -->
<!-- Title: CoolPubSubClient::loop Pages: 1 -->
<svg width="567pt" height="47pt"
 viewBox="0.00 0.00 567.00 47.00" xmlns="http://www.w3.org/2000/svg" xmlns:xlink="http://www.w3.org/1999/xlink">
<g id="graph0" class="graph" transform="scale(1 1) rotate(0) translate(4 43)">
<title>CoolPubSubClient::loop</title>
<polygon fill="white" stroke="none" points="-4,4 -4,-43 563,-43 563,4 -4,4"/>
<!-- Node111 -->
<g id="node1" class="node"><title>Node111</title>
<polygon fill="#bfbfbf" stroke="black" points="0,-19.5 0,-38.5 121,-38.5 121,-19.5 0,-19.5"/>
<text text-anchor="middle" x="60.5" y="-26.5" font-family="Helvetica,sans-Serif" font-size="10.00">CoolPubSubClient::loop</text>
</g>
<!-- Node112 -->
<g id="node2" class="node"><title>Node112</title>
<g id="a_node2"><a xlink:href="../../d0/dd0/class_cool_m_q_t_t.html#aa5eaae967b562b62cbcf2b8d81f6e5d5" target="_top" xlink:title="CoolMQTT::mqttLoop">
<polygon fill="white" stroke="black" points="157,-19.5 157,-38.5 268,-38.5 268,-19.5 157,-19.5"/>
<text text-anchor="middle" x="212.5" y="-26.5" font-family="Helvetica,sans-Serif" font-size="10.00">CoolMQTT::mqttLoop</text>
</a>
</g>
</g>
<!-- Node111&#45;&gt;Node112 -->
<g id="edge1" class="edge"><title>Node111&#45;&gt;Node112</title>
<path fill="none" stroke="midnightblue" d="M131.239,-29C139.837,-29 148.527,-29 156.856,-29"/>
<polygon fill="midnightblue" stroke="midnightblue" points="131.215,-25.5001 121.215,-29 131.215,-32.5001 131.215,-25.5001"/>
</g>
<!-- Node113 -->
<g id="node3" class="node"><title>Node113</title>
<g id="a_node3"><a xlink:href="../../d7/df9/class_cool_board.html#aa0bbc4bc605e35618d18e68795c61363" target="_top" xlink:title="CoolBoard::onLineMode">
<polygon fill="white" stroke="black" points="438,-19.5 438,-38.5 559,-38.5 559,-19.5 438,-19.5"/>
<text text-anchor="middle" x="498.5" y="-26.5" font-family="Helvetica,sans-Serif" font-size="10.00">CoolBoard::onLineMode</text>
</a>
</g>
</g>
<!-- Node112&#45;&gt;Node113 -->
<g id="edge2" class="edge"><title>Node112&#45;&gt;Node113</title>
<path fill="none" stroke="midnightblue" d="M278.505,-29C326.345,-29 390.896,-29 437.51,-29"/>
<polygon fill="midnightblue" stroke="midnightblue" points="278.258,-25.5001 268.258,-29 278.258,-32.5001 278.258,-25.5001"/>
</g>
<!-- Node114 -->
<g id="node4" class="node"><title>Node114</title>
<g id="a_node4"><a xlink:href="../../d7/df9/class_cool_board.html#a8612756d3f73198cdde857a66f0fe690" target="_top" xlink:title="CoolBoard::update">
<polygon fill="white" stroke="black" points="304,-0.5 304,-19.5 402,-19.5 402,-0.5 304,-0.5"/>
<text text-anchor="middle" x="353" y="-7.5" font-family="Helvetica,sans-Serif" font-size="10.00">CoolBoard::update</text>
</a>
</g>
</g>
<!-- Node112&#45;&gt;Node114 -->
<g id="edge3" class="edge"><title>Node112&#45;&gt;Node114</title>
<path fill="none" stroke="midnightblue" d="M278.298,-20.1107C286.932,-18.9264 295.657,-17.7293 303.936,-16.5936"/>
<polygon fill="midnightblue" stroke="midnightblue" points="277.67,-16.664 268.239,-21.4907 278.622,-23.599 277.67,-16.664"/>
</g>
<!-- Node114&#45;&gt;Node113 -->
<g id="edge4" class="edge"><title>Node114&#45;&gt;Node113</title>
<path fill="none" stroke="midnightblue" d="M412.332,-17.7234C420.785,-18.8426 429.496,-19.9959 437.972,-21.1182"/>
<polygon fill="midnightblue" stroke="midnightblue" points="412.556,-14.2225 402.183,-16.3796 411.637,-21.162 412.556,-14.2225"/>
</g>
</g>
</svg>
