<?xml version="1.0" encoding="UTF-8" standalone="no"?>
<!DOCTYPE svg PUBLIC "-//W3C//DTD SVG 1.1//EN"
 "http://www.w3.org/Graphics/SVG/1.1/DTD/svg11.dtd">
<!-- Generated by graphviz version 2.38.0 (20140413.2041)
 -->
<!-- Title: CoolPubSubClient::readPacket Pages: 1 -->
<svg width="771pt" height="85pt"
 viewBox="0.00 0.00 771.00 85.00" xmlns="http://www.w3.org/2000/svg" xmlns:xlink="http://www.w3.org/1999/xlink">
<g id="graph0" class="graph" transform="scale(1 1) rotate(0) translate(4 81)">
<title>CoolPubSubClient::readPacket</title>
<polygon fill="white" stroke="none" points="-4,4 -4,-81 767,-81 767,4 -4,4"/>
<!-- Node70 -->
<g id="node1" class="node"><title>Node70</title>
<polygon fill="#bfbfbf" stroke="black" points="0,-38.5 0,-57.5 152,-57.5 152,-38.5 0,-38.5"/>
<text text-anchor="middle" x="76" y="-45.5" font-family="Helvetica,sans-Serif" font-size="10.00">CoolPubSubClient::readPacket</text>
</g>
<!-- Node71 -->
<g id="node2" class="node"><title>Node71</title>
<g id="a_node2"><a xlink:href="../../d8/d4b/class_cool_pub_sub_client.html#a7e5a85731dd25d90a41f6d859e61da77" target="_top" xlink:title="CoolPubSubClient::connect">
<polygon fill="white" stroke="black" points="188,-57.5 188,-76.5 325,-76.5 325,-57.5 188,-57.5"/>
<text text-anchor="middle" x="256.5" y="-64.5" font-family="Helvetica,sans-Serif" font-size="10.00">CoolPubSubClient::connect</text>
</a>
</g>
</g>
<!-- Node70&#45;&gt;Node71 -->
<g id="edge1" class="edge"><title>Node70&#45;&gt;Node71</title>
<path fill="none" stroke="midnightblue" d="M162.212,-57.0702C170.792,-57.9834 179.421,-58.902 187.782,-59.7919"/>
<polygon fill="midnightblue" stroke="midnightblue" points="162.497,-53.5808 152.183,-56.0026 161.756,-60.5415 162.497,-53.5808"/>
</g>
<!-- Node72 -->
<g id="node3" class="node"><title>Node72</title>
<g id="a_node3"><a xlink:href="../../d8/d4b/class_cool_pub_sub_client.html#afc15900f0fc4886a19394508e61793b8" target="_top" xlink:title="CoolPubSubClient::loop">
<polygon fill="white" stroke="black" points="196,-19.5 196,-38.5 317,-38.5 317,-19.5 196,-19.5"/>
<text text-anchor="middle" x="256.5" y="-26.5" font-family="Helvetica,sans-Serif" font-size="10.00">CoolPubSubClient::loop</text>
</a>
</g>
</g>
<!-- Node70&#45;&gt;Node72 -->
<g id="edge2" class="edge"><title>Node70&#45;&gt;Node72</title>
<path fill="none" stroke="midnightblue" d="M162.151,-38.9363C173.542,-37.7238 185.023,-36.5018 195.848,-35.3495"/>
<polygon fill="midnightblue" stroke="midnightblue" points="161.756,-35.4585 152.183,-39.9974 162.497,-42.4192 161.756,-35.4585"/>
</g>
<!-- Node73 -->
<g id="node4" class="node"><title>Node73</title>
<g id="a_node4"><a xlink:href="../../d0/dd0/class_cool_m_q_t_t.html#aa5eaae967b562b62cbcf2b8d81f6e5d5" target="_top" xlink:title="CoolMQTT::mqttLoop">
<polygon fill="white" stroke="black" points="361,-19.5 361,-38.5 472,-38.5 472,-19.5 361,-19.5"/>
<text text-anchor="middle" x="416.5" y="-26.5" font-family="Helvetica,sans-Serif" font-size="10.00">CoolMQTT::mqttLoop</text>
</a>
</g>
</g>
<!-- Node72&#45;&gt;Node73 -->
<g id="edge3" class="edge"><title>Node72&#45;&gt;Node73</title>
<path fill="none" stroke="midnightblue" d="M327.432,-29C338.642,-29 350.099,-29 360.883,-29"/>
<polygon fill="midnightblue" stroke="midnightblue" points="327.233,-25.5001 317.233,-29 327.233,-32.5001 327.233,-25.5001"/>
</g>
<!-- Node74 -->
<g id="node5" class="node"><title>Node74</title>
<g id="a_node5"><a xlink:href="../../d7/df9/class_cool_board.html#aa0bbc4bc605e35618d18e68795c61363" target="_top" xlink:title="CoolBoard::onLineMode">
<polygon fill="white" stroke="black" points="642,-19.5 642,-38.5 763,-38.5 763,-19.5 642,-19.5"/>
<text text-anchor="middle" x="702.5" y="-26.5" font-family="Helvetica,sans-Serif" font-size="10.00">CoolBoard::onLineMode</text>
</a>
</g>
</g>
<!-- Node73&#45;&gt;Node74 -->
<g id="edge4" class="edge"><title>Node73&#45;&gt;Node74</title>
<path fill="none" stroke="midnightblue" d="M482.505,-29C530.345,-29 594.896,-29 641.51,-29"/>
<polygon fill="midnightblue" stroke="midnightblue" points="482.258,-25.5001 472.258,-29 482.258,-32.5001 482.258,-25.5001"/>
</g>
<!-- Node75 -->
<g id="node6" class="node"><title>Node75</title>
<g id="a_node6"><a xlink:href="../../d7/df9/class_cool_board.html#a8612756d3f73198cdde857a66f0fe690" target="_top" xlink:title="CoolBoard::update">
<polygon fill="white" stroke="black" points="508,-0.5 508,-19.5 606,-19.5 606,-0.5 508,-0.5"/>
<text text-anchor="middle" x="557" y="-7.5" font-family="Helvetica,sans-Serif" font-size="10.00">CoolBoard::update</text>
</a>
</g>
</g>
<!-- Node73&#45;&gt;Node75 -->
<g id="edge5" class="edge"><title>Node73&#45;&gt;Node75</title>
<path fill="none" stroke="midnightblue" d="M482.298,-20.1107C490.932,-18.9264 499.657,-17.7293 507.936,-16.5936"/>
<polygon fill="midnightblue" stroke="midnightblue" points="481.67,-16.664 472.239,-21.4907 482.622,-23.599 481.67,-16.664"/>
</g>
<!-- Node75&#45;&gt;Node74 -->
<g id="edge6" class="edge"><title>Node75&#45;&gt;Node74</title>
<path fill="none" stroke="midnightblue" d="M616.332,-17.7234C624.785,-18.8426 633.496,-19.9959 641.972,-21.1182"/>
<polygon fill="midnightblue" stroke="midnightblue" points="616.556,-14.2225 606.183,-16.3796 615.637,-21.162 616.556,-14.2225"/>
</g>
</g>
</svg>
