<?xml version="1.0" encoding="UTF-8" standalone="no"?>
<!DOCTYPE svg PUBLIC "-//W3C//DTD SVG 1.1//EN"
 "http://www.w3.org/Graphics/SVG/1.1/DTD/svg11.dtd">
<!-- Generated by graphviz version 2.38.0 (20140413.2041)
 -->
<!-- Title: /home/ashiroji/Arduino/libraries/CoolBoard/src/ExternalSensor.h Pages: 1 -->
<svg width="310pt" height="117pt"
 viewBox="0.00 0.00 310.00 117.00" xmlns="http://www.w3.org/2000/svg" xmlns:xlink="http://www.w3.org/1999/xlink">
<g id="graph0" class="graph" transform="scale(1 1) rotate(0) translate(4 113)">
<title>/home/ashiroji/Arduino/libraries/CoolBoard/src/ExternalSensor.h</title>
<polygon fill="white" stroke="none" points="-4,4 -4,-113 306,-113 306,4 -4,4"/>
<!-- Node0 -->
<g id="node1" class="node"><title>Node0</title>
<polygon fill="#bfbfbf" stroke="black" points="113.5,-67.5 113.5,-108.5 232.5,-108.5 232.5,-67.5 113.5,-67.5"/>
<text text-anchor="start" x="121.5" y="-96.5" font-family="Helvetica,sans-Serif" font-size="10.00">/home/ashiroji/Arduino</text>
<text text-anchor="start" x="121.5" y="-85.5" font-family="Helvetica,sans-Serif" font-size="10.00">/libraries/CoolBoard/src</text>
<text text-anchor="middle" x="173" y="-74.5" font-family="Helvetica,sans-Serif" font-size="10.00">/ExternalSensor.h</text>
</g>
<!-- Node1 -->
<g id="node2" class="node"><title>Node1</title>
<g id="a_node2"><a xlink:href="$d0/d08/_cool_n_d_i_r___i2_c_8h.html" xlink:title="internals/CoolNDIR\l_I2C.h">
<polygon fill="white" stroke="black" points="0,-0.5 0,-30.5 102,-30.5 102,-0.5 0,-0.5"/>
<text text-anchor="start" x="8" y="-18.5" font-family="Helvetica,sans-Serif" font-size="10.00">internals/CoolNDIR</text>
<text text-anchor="middle" x="51" y="-7.5" font-family="Helvetica,sans-Serif" font-size="10.00">_I2C.h</text>
</a>
</g>
</g>
<!-- Node0&#45;&gt;Node1 -->
<g id="edge1" class="edge"><title>Node0&#45;&gt;Node1</title>
<path fill="none" stroke="midnightblue" d="M139.016,-67.3618C122.002,-57.53 101.475,-45.6677 84.5247,-35.8729"/>
<polygon fill="midnightblue" stroke="midnightblue" points="85.9307,-32.643 75.5211,-30.67 82.4283,-38.7038 85.9307,-32.643"/>
</g>
<!-- Node2 -->
<g id="node3" class="node"><title>Node2</title>
<polygon fill="white" stroke="#bfbfbf" points="119.5,-6 119.5,-25 226.5,-25 226.5,-6 119.5,-6"/>
<text text-anchor="middle" x="173" y="-13" font-family="Helvetica,sans-Serif" font-size="10.00">DallasTemperature.h</text>
</g>
<!-- Node0&#45;&gt;Node2 -->
<g id="edge2" class="edge"><title>Node0&#45;&gt;Node2</title>
<path fill="none" stroke="midnightblue" d="M173,-67.3618C173,-57.297 173,-45.1043 173,-35.18"/>
<polygon fill="midnightblue" stroke="midnightblue" points="176.5,-35.1733 173,-25.1734 169.5,-35.1734 176.5,-35.1733"/>
</g>
<!-- Node3 -->
<g id="node4" class="node"><title>Node3</title>
<polygon fill="white" stroke="#bfbfbf" points="244,-6 244,-25 302,-25 302,-6 244,-6"/>
<text text-anchor="middle" x="273" y="-13" font-family="Helvetica,sans-Serif" font-size="10.00">Arduino.h</text>
</g>
<!-- Node0&#45;&gt;Node3 -->
<g id="edge3" class="edge"><title>Node0&#45;&gt;Node3</title>
<path fill="none" stroke="midnightblue" d="M200.856,-67.3618C217.127,-55.8901 237.321,-41.654 252.201,-31.1632"/>
<polygon fill="midnightblue" stroke="midnightblue" points="254.541,-33.796 260.697,-25.1734 250.508,-28.0749 254.541,-33.796"/>
</g>
</g>
</svg>
