<?xml version="1.0" encoding="UTF-8" standalone="no"?>
<!-- Created with Bouml (http://bouml.free.fr/) -->
<!DOCTYPE svg PUBLIC "-//W3C//DTD SVG 1.1//EN" "http://www.w3.org/Graphics/SVG/1.1/DTD/svg11.dtd">
<svg width="1095" height="1333" version="1.1" xmlns="http://www.w3.org/2000/svg">
<g>
	<rect fill="#cbcbcb" stroke="none" stroke-opacity="1" x="995" y="178" width="2" height="296" />
	<rect fill="#cbcbcb" stroke="none" stroke-opacity="1" x="901" y="472" width="96" height="2" />
	<rect fill="#ffffc0" stroke="black" stroke-width="1" stroke-opacity="1" x="898" y="175" width="97" height="297" />
	<text font-family="Helvetica" font-size="7" fill="#000000" xml:space="preserve" font-weight="bold" text-anchor="middle" x="947" y="183">CoolBoard</text>
	<line stroke="black" stroke-opacity="1" x1="898" y1="190" x2="995" y2="190" />
	<text font-family="Helvetica" font-size="7" fill="#000000" xml:space="preserve" x="900" y="198">userActive</text>
	<text font-family="Helvetica" font-size="7" fill="#000000" xml:space="preserve" x="900" y="212">ireneActive</text>
	<text font-family="Helvetica" font-size="7" fill="#000000" xml:space="preserve" x="900" y="226">jetpackActive</text>
	<text font-family="Helvetica" font-size="7" fill="#000000" xml:space="preserve" x="900" y="240">externalSensorsActive</text>
	<text font-family="Helvetica" font-size="7" fill="#000000" xml:space="preserve" x="900" y="254">sleepActive</text>
	<text font-family="Helvetica" font-size="7" fill="#000000" xml:space="preserve" x="900" y="268">logInterval</text>
	<text font-family="Helvetica" font-size="7" fill="#000000" xml:space="preserve" x="900" y="282">serverTimeOut</text>
	<text font-family="Helvetica" font-size="7" fill="#000000" xml:space="preserve" x="900" y="296">data</text>
	<text font-family="Helvetica" font-size="7" fill="#000000" xml:space="preserve" x="900" y="310">answer</text>
	<line stroke="black" stroke-opacity="1" x1="898" y1="317" x2="995" y2="317" />
	<text font-family="Helvetica" font-size="7" fill="#000000" xml:space="preserve" x="900" y="325">begin()</text>
	<text font-family="Helvetica" font-size="7" fill="#000000" xml:space="preserve" x="900" y="339">config()</text>
	<text font-family="Helvetica" font-size="7" fill="#000000" xml:space="preserve" x="900" y="353">update()</text>
	<text font-family="Helvetica" font-size="7" fill="#000000" xml:space="preserve" x="900" y="367">offLineMode()</text>
	<text font-family="Helvetica" font-size="7" fill="#000000" xml:space="preserve" x="900" y="381">onLineMode()</text>
	<text font-family="Helvetica" font-size="7" fill="#000000" xml:space="preserve" x="900" y="395">connect()</text>
	<text font-family="Helvetica" font-size="7" fill="#000000" xml:space="preserve" x="900" y="409">getLogInterval()</text>
	<text font-family="Helvetica" font-size="7" fill="#000000" xml:space="preserve" x="900" y="423">printConf()</text>
	<text font-family="Helvetica" font-size="7" fill="#000000" xml:space="preserve" x="900" y="437">sleep()</text>
	<text font-family="Helvetica" font-size="7" fill="#000000" xml:space="preserve" x="900" y="451">readSensors()</text>
	<text font-family="Helvetica" font-size="7" fill="#000000" xml:space="preserve" x="900" y="465">userData()</text>
</g>
<g>
	<rect fill="#cbcbcb" stroke="none" stroke-opacity="1" x="558" y="215" width="2" height="60" />
	<rect fill="#cbcbcb" stroke="none" stroke-opacity="1" x="466" y="273" width="94" height="2" />
	<rect fill="#ffffc0" stroke="black" stroke-width="1" stroke-opacity="1" x="463" y="212" width="95" height="61" />
	<text font-family="Helvetica" font-size="7" fill="#000000" xml:space="preserve" font-weight="bold" text-anchor="middle" x="511" y="220">BaseExternalSensor</text>
	<line stroke="black" stroke-opacity="1" x1="463" y1="227" x2="558" y2="227" />
	<line stroke="black" stroke-opacity="1" x1="463" y1="231" x2="558" y2="231" />
	<text font-family="Helvetica" font-size="7" fill="#000000" xml:space="preserve" x="465" y="239">BaseExternalSensor()</text>
	<text font-family="Helvetica" font-size="7" fill="#000000" xml:space="preserve" x="465" y="253">begin()</text>
	<text font-family="Helvetica" font-size="7" fill="#000000" xml:space="preserve" x="465" y="267">read()</text>
</g>
<g>
	<rect fill="#cbcbcb" stroke="none" stroke-opacity="1" x="107" y="28" width="2" height="324" />
	<rect fill="#cbcbcb" stroke="none" stroke-opacity="1" x="35" y="350" width="74" height="2" />
	<rect fill="#ffffc0" stroke="black" stroke-width="1" stroke-opacity="1" x="32" y="25" width="75" height="325" />
	<text font-family="Helvetica" font-size="7" fill="#000000" xml:space="preserve" font-weight="bold" text-anchor="middle" x="70" y="33">CoolMQTT</text>
	<line stroke="black" stroke-opacity="1" x1="32" y1="40" x2="107" y2="40" />
	<text font-family="Helvetica" font-size="7" fill="#000000" xml:space="preserve" x="34" y="48">mqttServer</text>
	<text font-family="Helvetica" font-size="7" fill="#000000" xml:space="preserve" x="34" y="62">msg</text>
	<text font-family="Helvetica" font-size="7" fill="#000000" xml:space="preserve" x="34" y="76">inTopic</text>
	<text font-family="Helvetica" font-size="7" fill="#000000" xml:space="preserve" x="34" y="90">outTopic</text>
	<text font-family="Helvetica" font-size="7" fill="#000000" xml:space="preserve" x="34" y="104">user</text>
	<text font-family="Helvetica" font-size="7" fill="#000000" xml:space="preserve" x="34" y="118">bufferSize</text>
	<text font-family="Helvetica" font-size="7" fill="#000000" xml:space="preserve" x="34" y="132">espClient</text>
	<text font-family="Helvetica" font-size="7" fill="#000000" xml:space="preserve" x="34" y="146">client</text>
	<text font-family="Helvetica" font-size="7" fill="#000000" xml:space="preserve" x="34" y="160">newMsg</text>
	<text font-family="Helvetica" font-size="7" fill="#000000" xml:space="preserve" x="34" y="174">previousLogTime</text>
	<line stroke="black" stroke-opacity="1" x1="32" y1="181" x2="107" y2="181" />
	<text font-family="Helvetica" font-size="7" fill="#000000" xml:space="preserve" x="34" y="189">begin()</text>
	<text font-family="Helvetica" font-size="7" fill="#000000" xml:space="preserve" x="34" y="203">connect()</text>
	<text font-family="Helvetica" font-size="7" fill="#000000" xml:space="preserve" x="34" y="217">publish()</text>
	<text font-family="Helvetica" font-size="7" fill="#000000" xml:space="preserve" x="34" y="231">publish()</text>
	<text font-family="Helvetica" font-size="7" fill="#000000" xml:space="preserve" x="34" y="245">read()</text>
	<text font-family="Helvetica" font-size="7" fill="#000000" xml:space="preserve" x="34" y="259">config()</text>
	<text font-family="Helvetica" font-size="7" fill="#000000" xml:space="preserve" x="34" y="273">config()</text>
	<text font-family="Helvetica" font-size="7" fill="#000000" xml:space="preserve" x="34" y="287">callback()</text>
	<text font-family="Helvetica" font-size="7" fill="#000000" xml:space="preserve" x="34" y="301">printConf()</text>
	<text font-family="Helvetica" font-size="7" fill="#000000" xml:space="preserve" x="34" y="315">state()</text>
	<text font-family="Helvetica" font-size="7" fill="#000000" xml:space="preserve" x="34" y="329">mqttLoop()</text>
	<text font-family="Helvetica" font-size="7" fill="#000000" xml:space="preserve" x="34" y="343">getUser()</text>
</g>
<g>
	<rect fill="#cbcbcb" stroke="none" stroke-opacity="1" x="590" y="331" width="2" height="86" />
	<rect fill="#cbcbcb" stroke="none" stroke-opacity="1" x="428" y="415" width="164" height="2" />
	<rect fill="#ffffc0" stroke="black" stroke-width="1" stroke-opacity="1" x="425" y="328" width="165" height="87" />
	<text font-family="Helvetica" font-size="7" fill="#000000" xml:space="preserve" font-weight="bold" text-anchor="middle" x="508" y="336">ExternalSensor&lt;DallasTemperature&gt;</text>
	<line stroke="black" stroke-opacity="1" x1="425" y1="343" x2="590" y2="343" />
	<text font-family="Helvetica" font-size="7" fill="#000000" xml:space="preserve" x="427" y="351">sensor</text>
	<text font-family="Helvetica" font-size="7" fill="#000000" xml:space="preserve" x="427" y="365">dallasAddress</text>
	<line stroke="black" stroke-opacity="1" x1="425" y1="372" x2="590" y2="372" />
	<text font-family="Helvetica" font-size="7" fill="#000000" xml:space="preserve" x="427" y="380">ExternalSensor()</text>
	<text font-family="Helvetica" font-size="7" fill="#000000" xml:space="preserve" x="427" y="394">begin()</text>
	<text font-family="Helvetica" font-size="7" fill="#000000" xml:space="preserve" x="427" y="408">read()</text>
</g>
<g>
	<rect fill="#cbcbcb" stroke="none" stroke-opacity="1" x="294" y="249" width="2" height="310" />
	<rect fill="#cbcbcb" stroke="none" stroke-opacity="1" x="216" y="557" width="80" height="2" />
	<rect fill="#ffffc0" stroke="black" stroke-width="1" stroke-opacity="1" x="213" y="246" width="81" height="311" />
	<text font-family="Helvetica" font-size="7" fill="#000000" xml:space="preserve" font-weight="bold" text-anchor="middle" x="254" y="254">CoolTime</text>
	<line stroke="black" stroke-opacity="1" x1="213" y1="261" x2="294" y2="261" />
	<text font-family="Helvetica" font-size="7" fill="#000000" xml:space="preserve" x="215" y="269">timeSync</text>
	<text font-family="Helvetica" font-size="7" fill="#000000" xml:space="preserve" x="215" y="283">timeServer</text>
	<text font-family="Helvetica" font-size="7" fill="#000000" xml:space="preserve" x="215" y="297">Udp</text>
	<text font-family="Helvetica" font-size="7" fill="#000000" xml:space="preserve" x="215" y="311">localPort</text>
	<text font-family="Helvetica" font-size="7" fill="#000000" xml:space="preserve" x="215" y="325">packetBuffer</text>
	<text font-family="Helvetica" font-size="7" fill="#000000" xml:space="preserve" x="215" y="339">tmSet</text>
	<text font-family="Helvetica" font-size="7" fill="#000000" xml:space="preserve" x="215" y="353">rtc</text>
	<line stroke="black" stroke-opacity="1" x1="213" y1="360" x2="294" y2="360" />
	<text font-family="Helvetica" font-size="7" fill="#000000" xml:space="preserve" x="215" y="368">begin()</text>
	<text font-family="Helvetica" font-size="7" fill="#000000" xml:space="preserve" x="215" y="382">update()</text>
	<text font-family="Helvetica" font-size="7" fill="#000000" xml:space="preserve" x="215" y="396">config()</text>
	<text font-family="Helvetica" font-size="7" fill="#000000" xml:space="preserve" x="215" y="410">config()</text>
	<text font-family="Helvetica" font-size="7" fill="#000000" xml:space="preserve" x="215" y="424">printConf()</text>
	<text font-family="Helvetica" font-size="7" fill="#000000" xml:space="preserve" x="215" y="438">setDateTime()</text>
	<text font-family="Helvetica" font-size="7" fill="#000000" xml:space="preserve" x="215" y="452">getTimeDate()</text>
	<text font-family="Helvetica" font-size="7" fill="#000000" xml:space="preserve" x="215" y="466">getESDate()</text>
	<text font-family="Helvetica" font-size="7" fill="#000000" xml:space="preserve" x="215" y="480">getLastSyncTime()</text>
	<text font-family="Helvetica" font-size="7" fill="#000000" xml:space="preserve" x="215" y="494">isTimeSync()</text>
	<text font-family="Helvetica" font-size="7" fill="#000000" xml:space="preserve" x="215" y="508">getNtpTime()</text>
	<text font-family="Helvetica" font-size="7" fill="#000000" xml:space="preserve" x="215" y="522">sendNTPpacket()</text>
	<text font-family="Helvetica" font-size="7" fill="#000000" xml:space="preserve" x="215" y="536">formatDigits()</text>
	<text font-family="Helvetica" font-size="7" fill="#000000" xml:space="preserve" x="215" y="550">saveTimeSync()</text>
</g>
<g>
	<rect fill="#cbcbcb" stroke="none" stroke-opacity="1" x="396" y="332" width="2" height="84" />
	<rect fill="#cbcbcb" stroke="none" stroke-opacity="1" x="326" y="414" width="72" height="2" />
	<rect fill="#ffffc0" stroke="black" stroke-width="1" stroke-opacity="1" x="323" y="329" width="73" height="85" />
	<text font-family="Helvetica" font-size="7" fill="#000000" xml:space="preserve" font-weight="bold" text-anchor="middle" x="360" y="350">ExternalSensor</text>
	<line stroke="black" stroke-opacity="1" x1="323" y1="357" x2="396" y2="357" />
	<text font-family="Helvetica" font-size="7" fill="#000000" xml:space="preserve" x="325" y="365">sensor</text>
	<line stroke="black" stroke-opacity="1" x1="323" y1="372" x2="396" y2="372" />
	<text font-family="Helvetica" font-size="7" fill="#000000" xml:space="preserve" x="325" y="380">ExternalSensor()</text>
	<text font-family="Helvetica" font-size="7" fill="#000000" xml:space="preserve" x="325" y="394">begin()</text>
	<text font-family="Helvetica" font-size="7" fill="#000000" xml:space="preserve" x="325" y="408">read()</text>
</g>
<g>
	<rect fill="white" stroke-dasharray="4,4" stroke="black" stroke-width="1" stroke-opacity="1" x="374" y="321" width="37" height="16" />
	<text font-family="Helvetica" font-size="7" fill="#000000" xml:space="preserve" text-anchor="middle" x="393" y="333">T</text>
</g>
<g>
	<line stroke="#000000" stroke-opacity="1" x1="363" y1="328" x2="363" y2="303" />
</g>
<g>
	<line stroke="#000000" stroke-opacity="1" x1="363" y1="303" x2="509" y2="303" />
</g>
<g>
	<line stroke="#000000" stroke-opacity="1" x1="509" y1="303" x2="509" y2="282" />
	<line stroke="#000000" stroke-opacity="1" x1="509" y1="276" x2="503" y2="282" />
	<line stroke="#000000" stroke-opacity="1" x1="509" y1="276" x2="515" y2="282" />
	<line stroke="#000000" stroke-opacity="1" x1="503" y1="282" x2="515" y2="282" />
</g>
<g>
	<line stroke="#000000" stroke-opacity="1" x1="509" y1="327" x2="509" y2="282" />
	<line stroke="#000000" stroke-opacity="1" x1="509" y1="276" x2="503" y2="282" />
	<line stroke="#000000" stroke-opacity="1" x1="509" y1="276" x2="515" y2="282" />
	<line stroke="#000000" stroke-opacity="1" x1="503" y1="282" x2="515" y2="282" />
</g>
<g>
	<line stroke="black" stroke-opacity="1" x1="897" y1="439" x2="847" y2="439" />
	<polygon fill="#000000" stroke="black" stroke-opacity="1" points="897,439 891,445 885,439 891,433" />
</g>
<g>
	<line stroke="black" stroke-opacity="1" x1="847" y1="439" x2="847" y2="747" />
</g>
<g>
	<line stroke="black" stroke-opacity="1" x1="110" y1="186" x2="116" y2="191" />
	<line stroke="black" stroke-opacity="1" x1="110" y1="186" x2="115" y2="179" />
	<line stroke="black" stroke-opacity="1" x1="897" y1="184" x2="110" y2="186" />
	<polygon fill="#000000" stroke="black" stroke-opacity="1" points="897,184 891,190 885,184 890,178" />
</g>
<g>
	<line stroke="black" stroke-opacity="1" x1="897" y1="413" x2="822" y2="414" />
	<polygon fill="#000000" stroke="black" stroke-opacity="1" points="897,413 891,419 885,413 890,407" />
</g>
<g>
	<line stroke="black" stroke-opacity="1" x1="822" y1="414" x2="822" y2="711" />
</g>
<g>
	<line stroke="black" stroke-opacity="1" x1="897" y1="363" x2="772" y2="364" />
	<polygon fill="#000000" stroke="black" stroke-opacity="1" points="897,363 891,369 885,363 890,357" />
</g>
<g>
	<line stroke="black" stroke-opacity="1" x1="772" y1="364" x2="772" y2="444" />
</g>
<g>
	<line stroke="black" stroke-opacity="1" x1="297" y1="443" x2="302" y2="449" />
	<line stroke="black" stroke-opacity="1" x1="297" y1="443" x2="303" y2="437" />
	<line stroke="black" stroke-opacity="1" x1="772" y1="444" x2="297" y2="443" />
</g>
<g>
	<rect fill="#cbcbcb" stroke="none" stroke-opacity="1" x="744" y="330" width="2" height="72" />
	<rect fill="#cbcbcb" stroke="none" stroke-opacity="1" x="622" y="400" width="124" height="2" />
	<rect fill="#ffffc0" stroke="black" stroke-width="1" stroke-opacity="1" x="619" y="327" width="125" height="73" />
	<text font-family="Helvetica" font-size="7" fill="#000000" xml:space="preserve" font-weight="bold" text-anchor="middle" x="682" y="335">ExternalSensor&lt;NDIR_I2C&gt;</text>
	<line stroke="black" stroke-opacity="1" x1="619" y1="342" x2="744" y2="342" />
	<text font-family="Helvetica" font-size="7" fill="#000000" xml:space="preserve" x="621" y="350">sensor</text>
	<line stroke="black" stroke-opacity="1" x1="619" y1="357" x2="744" y2="357" />
	<text font-family="Helvetica" font-size="7" fill="#000000" xml:space="preserve" x="621" y="365">ExternalSensor()</text>
	<text font-family="Helvetica" font-size="7" fill="#000000" xml:space="preserve" x="621" y="379">begin()</text>
	<text font-family="Helvetica" font-size="7" fill="#000000" xml:space="preserve" x="621" y="393">read()</text>
</g>
<g>
	<line stroke="#000000" stroke-opacity="1" x1="685" y1="326" x2="685" y2="303" />
</g>
<g>
	<line stroke="#000000" stroke-opacity="1" x1="685" y1="303" x2="509" y2="303" />
</g>
<g>
	<line stroke="#000000" stroke-opacity="1" x1="509" y1="303" x2="509" y2="282" />
	<line stroke="#000000" stroke-opacity="1" x1="509" y1="276" x2="503" y2="282" />
	<line stroke="#000000" stroke-opacity="1" x1="509" y1="276" x2="515" y2="282" />
	<line stroke="#000000" stroke-opacity="1" x1="503" y1="282" x2="515" y2="282" />
</g>
<g>
	<text font-family="Helvetica" font-size="7" fill="#000000" xml:space="preserve" x="954" y="165">fileSystem</text>
</g>
<g>
	<text font-family="Helvetica" font-size="7" fill="#000000" xml:space="preserve" x="208" y="586">externalSensors</text>
</g>
<g>
	<text font-family="Helvetica" font-size="7" fill="#000000" xml:space="preserve" x="418" y="213">exSensor</text>
</g>
<g>
	<text font-family="Helvetica" font-size="7" fill="#000000" xml:space="preserve" x="954" y="491">wifiManager</text>
</g>
<g>
	<text font-family="Helvetica" font-size="7" fill="#000000" xml:space="preserve" x="303" y="435">rtc</text>
</g>
<g>
	<text font-family="Helvetica" font-size="7" fill="#000000" xml:space="preserve" x="116" y="178">mqtt</text>
</g>
<g>
	<text font-family="Helvetica" font-size="7" fill="#000000" xml:space="preserve" x="987" y="319">jetPack</text>
</g>
<g>
	<rect fill="#cbcbcb" stroke="none" stroke-opacity="1" x="974" y="502" width="2" height="198" />
	<rect fill="#cbcbcb" stroke="none" stroke-opacity="1" x="922" y="698" width="54" height="2" />
	<rect fill="#ffffc0" stroke="black" stroke-width="1" stroke-opacity="1" x="919" y="499" width="55" height="199" />
	<text font-family="Helvetica" font-size="7" fill="#000000" xml:space="preserve" font-weight="bold" text-anchor="middle" x="947" y="507">CoolWifi</text>
	<line stroke="black" stroke-opacity="1" x1="919" y1="514" x2="974" y2="514" />
	<text font-family="Helvetica" font-size="7" fill="#000000" xml:space="preserve" x="921" y="522">wifiManager</text>
	<text font-family="Helvetica" font-size="7" fill="#000000" xml:space="preserve" x="921" y="536">wifiMulti</text>
	<text font-family="Helvetica" font-size="7" fill="#000000" xml:space="preserve" x="921" y="550">wifiCount</text>
	<text font-family="Helvetica" font-size="7" fill="#000000" xml:space="preserve" x="921" y="564">ssid</text>
	<text font-family="Helvetica" font-size="7" fill="#000000" xml:space="preserve" x="921" y="578">pass</text>
	<text font-family="Helvetica" font-size="7" fill="#000000" xml:space="preserve" x="921" y="592">timeOut</text>
	<line stroke="black" stroke-opacity="1" x1="919" y1="599" x2="974" y2="599" />
	<text font-family="Helvetica" font-size="7" fill="#000000" xml:space="preserve" x="921" y="607">begin()</text>
	<text font-family="Helvetica" font-size="7" fill="#000000" xml:space="preserve" x="921" y="621">config()</text>
	<text font-family="Helvetica" font-size="7" fill="#000000" xml:space="preserve" x="921" y="635">config()</text>
	<text font-family="Helvetica" font-size="7" fill="#000000" xml:space="preserve" x="921" y="649">connect()</text>
	<text font-family="Helvetica" font-size="7" fill="#000000" xml:space="preserve" x="921" y="663">state()</text>
	<text font-family="Helvetica" font-size="7" fill="#000000" xml:space="preserve" x="921" y="677">printConf()</text>
	<text font-family="Helvetica" font-size="7" fill="#000000" xml:space="preserve" x="921" y="691">addWifi()</text>
</g>
<g>
	<rect fill="#cbcbcb" stroke="none" stroke-opacity="1" x="996" y="37" width="2" height="114" />
	<rect fill="#cbcbcb" stroke="none" stroke-opacity="1" x="900" y="149" width="98" height="2" />
	<rect fill="#ffffc0" stroke="black" stroke-width="1" stroke-opacity="1" x="897" y="34" width="99" height="115" />
	<text font-family="Helvetica" font-size="7" fill="#000000" xml:space="preserve" font-weight="bold" text-anchor="middle" x="947" y="42">CoolFileSystem</text>
	<line stroke="black" stroke-opacity="1" x1="897" y1="49" x2="996" y2="49" />
	<text font-family="Helvetica" font-size="7" fill="#000000" xml:space="preserve" x="899" y="57">savedData</text>
	<line stroke="black" stroke-opacity="1" x1="897" y1="64" x2="996" y2="64" />
	<text font-family="Helvetica" font-size="7" fill="#000000" xml:space="preserve" x="899" y="72">begin()</text>
	<text font-family="Helvetica" font-size="7" fill="#000000" xml:space="preserve" x="899" y="86">updateConfigFiles()</text>
	<text font-family="Helvetica" font-size="7" fill="#000000" xml:space="preserve" x="899" y="100">saveSensorData()</text>
	<text font-family="Helvetica" font-size="7" fill="#000000" xml:space="preserve" x="899" y="114">saveSensorDataCSV()</text>
	<text font-family="Helvetica" font-size="7" fill="#000000" xml:space="preserve" x="899" y="128">isDataSaved()</text>
	<text font-family="Helvetica" font-size="7" fill="#000000" xml:space="preserve" x="899" y="142">getSensorSavedData()</text>
</g>
<g>
	<rect fill="#cbcbcb" stroke="none" stroke-opacity="1" x="198" y="588" width="2" height="86" />
	<rect fill="#cbcbcb" stroke="none" stroke-opacity="1" x="124" y="672" width="76" height="2" />
	<rect fill="#ffffc0" stroke="black" stroke-width="1" stroke-opacity="1" x="121" y="585" width="77" height="87" />
	<text font-family="Helvetica" font-size="7" fill="#000000" xml:space="preserve" font-weight="bold" text-anchor="middle" x="160" y="593">ExternalSensors</text>
	<line stroke="black" stroke-opacity="1" x1="121" y1="600" x2="198" y2="600" />
	<text font-family="Helvetica" font-size="7" fill="#000000" xml:space="preserve" x="123" y="608">sensorsNumber</text>
	<line stroke="black" stroke-opacity="1" x1="121" y1="615" x2="198" y2="615" />
	<text font-family="Helvetica" font-size="7" fill="#000000" xml:space="preserve" x="123" y="623">begin()</text>
	<text font-family="Helvetica" font-size="7" fill="#000000" xml:space="preserve" x="123" y="637">read()</text>
	<text font-family="Helvetica" font-size="7" fill="#000000" xml:space="preserve" x="123" y="651">config()</text>
	<text font-family="Helvetica" font-size="7" fill="#000000" xml:space="preserve" x="123" y="665">printConf()</text>
</g>
<g>
	<line stroke="black" stroke-opacity="1" x1="948" y1="152" x2="942" y2="158" />
	<line stroke="black" stroke-opacity="1" x1="948" y1="152" x2="954" y2="158" />
	<line stroke="black" stroke-opacity="1" x1="948" y1="174" x2="948" y2="152" />
	<polygon fill="#000000" stroke="black" stroke-opacity="1" points="948,174 942,168 948,162 954,168" />
</g>
<g>
	<line stroke="black" stroke-opacity="1" x1="897" y1="465" x2="872" y2="464" />
	<polygon fill="#000000" stroke="black" stroke-opacity="1" points="897,465 890,470 885,464 891,458" />
</g>
<g>
	<line stroke="black" stroke-opacity="1" x1="872" y1="464" x2="872" y2="958" />
</g>
<g>
	<line stroke="black" stroke-opacity="1" x1="948" y1="498" x2="954" y2="492" />
	<line stroke="black" stroke-opacity="1" x1="948" y1="498" x2="942" y2="492" />
	<line stroke="black" stroke-opacity="1" x1="948" y1="475" x2="948" y2="498" />
	<polygon fill="#000000" stroke="black" stroke-opacity="1" points="948,475 954,481 948,487 942,481" />
</g>
<g>
	<line stroke="black" stroke-opacity="1" x1="897" y1="388" x2="797" y2="389" />
	<polygon fill="#000000" stroke="black" stroke-opacity="1" points="897,388 891,394 885,388 890,382" />
</g>
<g>
	<line stroke="black" stroke-opacity="1" x1="797" y1="389" x2="797" y2="595" />
</g>
<g>
	<line stroke="black" stroke-opacity="1" x1="201" y1="594" x2="206" y2="600" />
	<line stroke="black" stroke-opacity="1" x1="201" y1="594" x2="207" y2="588" />
	<line stroke="black" stroke-opacity="1" x1="797" y1="595" x2="201" y2="594" />
</g>
<g>
	<line stroke="black" stroke-opacity="1" x1="1021" y1="327" x2="1015" y2="321" />
	<line stroke="black" stroke-opacity="1" x1="1021" y1="327" x2="1015" y2="333" />
	<line stroke="black" stroke-opacity="1" x1="998" y1="327" x2="1021" y2="327" />
	<polygon fill="#000000" stroke="black" stroke-opacity="1" points="998,327 1004,321 1010,327 1004,333" />
</g>
<g>
	<rect fill="#cbcbcb" stroke="none" stroke-opacity="1" x="94" y="598" width="2" height="76" />
	<rect fill="#cbcbcb" stroke="none" stroke-opacity="1" x="48" y="672" width="48" height="2" />
	<rect fill="#ffffc0" stroke="black" stroke-width="1" stroke-opacity="1" x="45" y="595" width="49" height="77" />
	<text font-family="Helvetica" font-size="7" fill="#000000" xml:space="preserve" text-anchor="middle" x="70" y="603">&lt;&lt;struct&gt;&gt;</text>
	<text font-family="Helvetica" font-size="7" fill="#000000" xml:space="preserve" font-weight="bold" text-anchor="middle" x="70" y="618">state</text>
	<line stroke="black" stroke-opacity="1" x1="45" y1="625" x2="94" y2="625" />
	<text font-family="Helvetica" font-size="7" fill="#000000" xml:space="preserve" x="47" y="633">active</text>
	<text font-family="Helvetica" font-size="7" fill="#000000" xml:space="preserve" x="47" y="647">gain</text>
	<text font-family="Helvetica" font-size="7" fill="#000000" xml:space="preserve" x="47" y="661">type</text>
	<line stroke="black" stroke-opacity="1" x1="45" y1="668" x2="94" y2="668" />
</g>
<g>
	<line stroke="black" stroke-opacity="1" x1="71" y1="675" x2="71" y2="687" />
<ellipse fill="none" stroke="black" stroke-width="1" stroke-opacity="1" cx="71" cy="693" rx="5" ry="5" />
	<line stroke="black" stroke-opacity="1" x1="66" y1="693" x2="76" y2="693" />
	<line stroke="black" stroke-opacity="1" x1="71" y1="688" x2="71" y2="698" />
</g>
<g>
	<rect fill="#cbcbcb" stroke="none" stroke-opacity="1" x="184" y="215" width="2" height="76" />
	<rect fill="#cbcbcb" stroke="none" stroke-opacity="1" x="138" y="289" width="48" height="2" />
	<rect fill="#ffffc0" stroke="black" stroke-width="1" stroke-opacity="1" x="135" y="212" width="49" height="77" />
	<text font-family="Helvetica" font-size="7" fill="#000000" xml:space="preserve" text-anchor="middle" x="160" y="220">&lt;&lt;struct&gt;&gt;</text>
	<text font-family="Helvetica" font-size="7" fill="#000000" xml:space="preserve" font-weight="bold" text-anchor="middle" x="160" y="235">sensor</text>
	<line stroke="black" stroke-opacity="1" x1="135" y1="242" x2="184" y2="242" />
	<text font-family="Helvetica" font-size="7" fill="#000000" xml:space="preserve" x="137" y="250">reference</text>
	<text font-family="Helvetica" font-size="7" fill="#000000" xml:space="preserve" x="137" y="264">type</text>
	<text font-family="Helvetica" font-size="7" fill="#000000" xml:space="preserve" x="137" y="278">address</text>
	<line stroke="black" stroke-opacity="1" x1="135" y1="285" x2="184" y2="285" />
</g>
<g>
	<line stroke="black" stroke-opacity="1" x1="462" y1="221" x2="455" y2="215" />
	<line stroke="black" stroke-opacity="1" x1="462" y1="221" x2="456" y2="227" />
	<line stroke="black" stroke-opacity="1" x1="187" y1="222" x2="462" y2="221" />
</g>
<g>
	<line stroke="black" stroke-opacity="1" x1="161" y1="292" x2="161" y2="572" />
<ellipse fill="none" stroke="black" stroke-width="1" stroke-opacity="1" cx="161" cy="578" rx="5" ry="5" />
	<line stroke="black" stroke-opacity="1" x1="156" y1="578" x2="166" y2="578" />
	<line stroke="black" stroke-opacity="1" x1="161" y1="573" x2="161" y2="583" />
</g>
</svg>
