<?xml version="1.0" encoding="UTF-8" standalone="no"?>
<!DOCTYPE svg PUBLIC "-//W3C//DTD SVG 1.1//EN"
 "http://www.w3.org/Graphics/SVG/1.1/DTD/svg11.dtd">
<!-- Generated by graphviz version 2.38.0 (20140413.2041)
 -->
<!-- Title: Irene3000::setGain Pages: 1 -->
<!--zoomable 218 -->
<svg id="main" version="1.1" xmlns="http://www.w3.org/2000/svg" xmlns:xlink="http://www.w3.org/1999/xlink" xml:space="preserve" onload="init(evt)">
<style type="text/css"><![CDATA[
.edge:hover path { stroke: red; }
.edge:hover polygon { stroke: red; fill: red; }
]]></style>
<script type="text/javascript"><![CDATA[
var edges = document.getElementsByTagName('g');
if (edges && edges.length) {
  for (var i=0;i<edges.length;i++) {
    if (edges[i].id.substr(0,4)=='edge') {
      edges[i].setAttribute('class','edge');
    }
  }
}
]]></script>
        <defs>
                <circle id="rim" cx="0" cy="0" r="7"/>
                <circle id="rim2" cx="0" cy="0" r="3.5"/>
                <g id="zoomPlus">
                        <use xlink:href="#rim" fill="#404040">
                                <set attributeName="fill" to="#808080" begin="zoomplus.mouseover" end="zoomplus.mouseout"/>
                        </use>
                        <path d="M-4,0h8M0,-4v8" fill="none" stroke="white" stroke-width="1.5" pointer-events="none"/>
                </g>
                <g id="zoomMin">
                        <use xlink:href="#rim" fill="#404040">
                                <set attributeName="fill" to="#808080" begin="zoomminus.mouseover" end="zoomminus.mouseout"/>
                        </use>
                        <path d="M-4,0h8" fill="none" stroke="white" stroke-width="1.5" pointer-events="none"/>
                </g>
                <g id="dirArrow">
                        <path fill="none" stroke="white" stroke-width="1.5" d="M0,-3.0v7 M-2.5,-0.5L0,-3.0L2.5,-0.5"/>
                </g>
               <g id="resetDef">
                       <use xlink:href="#rim2" fill="#404040">
                               <set attributeName="fill" to="#808080" begin="reset.mouseover" end="reset.mouseout"/>
                       </use>
               </g>
        </defs>

<script type="text/javascript">
var viewWidth = 567;
var viewHeight = 218;
var sectionId = 'dynsection-18';
</script>
<script xlink:href="../../svgpan.js"/>
<svg id="graph" class="graph">
<g id="viewport">
<title>Irene3000::setGain</title>
<polygon fill="white" stroke="none" points="-4,4 -4,-214 563,-214 563,4 -4,4"/>
<!-- Node62 -->
<g id="node1" class="node"><title>Node62</title>
<polygon fill="#bfbfbf" stroke="black" points="0,-95.5 0,-114.5 99,-114.5 99,-95.5 0,-95.5"/>
<text text-anchor="middle" x="49.5" y="-102.5" font-family="Helvetica,sans-Serif" font-size="10.00">Irene3000::setGain</text>
</g>
<!-- Node63 -->
<g id="node2" class="node"><title>Node63</title>
<g id="a_node2"><a xlink:href="../../d6/d03/class_irene3000.html#ae0e0a5b773c3625b44c1d113c76a1540" target="_top" xlink:title="Irene3000::readButton">
<polygon fill="white" stroke="black" points="151.5,-190.5 151.5,-209.5 264.5,-209.5 264.5,-190.5 151.5,-190.5"/>
<text text-anchor="middle" x="208" y="-197.5" font-family="Helvetica,sans-Serif" font-size="10.00">Irene3000::readButton</text>
</a>
</g>
</g>
<!-- Node62&#45;&gt;Node63 -->
<g id="edge1" class="edge"><title>Node62&#45;&gt;Node63</title>
<path fill="none" stroke="midnightblue" d="M65.0629,-122.212C80.651,-139.552 106.952,-165.85 135,-181 142.166,-184.871 150.165,-187.987 158.154,-190.486"/>
<polygon fill="midnightblue" stroke="midnightblue" points="67.5336,-119.721 58.3105,-114.507 62.2691,-124.334 67.5336,-119.721"/>
</g>
<!-- Node64 -->
<g id="node3" class="node"><title>Node64</title>
<g id="a_node3"><a xlink:href="../../d6/d03/class_irene3000.html#ae73bd2ed14a199a7e83f4d6458476a7c" target="_top" xlink:title="Irene3000::readADSChannel2">
<polygon fill="white" stroke="black" points="135,-152.5 135,-171.5 281,-171.5 281,-152.5 135,-152.5"/>
<text text-anchor="middle" x="208" y="-159.5" font-family="Helvetica,sans-Serif" font-size="10.00">Irene3000::readADSChannel2</text>
</a>
</g>
</g>
<!-- Node62&#45;&gt;Node64 -->
<g id="edge2" class="edge"><title>Node62&#45;&gt;Node64</title>
<path fill="none" stroke="midnightblue" d="M78.6898,-119.083C94.8945,-126.82 115.788,-136.197 135,-143 144.871,-146.495 155.704,-149.681 165.901,-152.403"/>
<polygon fill="midnightblue" stroke="midnightblue" points="79.7884,-115.726 69.263,-114.515 76.736,-122.025 79.7884,-115.726"/>
</g>
<!-- Node68 -->
<g id="node7" class="node"><title>Node68</title>
<g id="a_node7"><a xlink:href="../../d6/d03/class_irene3000.html#abf3db725fabb0634ec889b32068a5eec" target="_top" xlink:title="Irene3000::readPh">
<polygon fill="white" stroke="black" points="160,-114.5 160,-133.5 256,-133.5 256,-114.5 160,-114.5"/>
<text text-anchor="middle" x="208" y="-121.5" font-family="Helvetica,sans-Serif" font-size="10.00">Irene3000::readPh</text>
</a>
</g>
</g>
<!-- Node62&#45;&gt;Node68 -->
<g id="edge6" class="edge"><title>Node62&#45;&gt;Node68</title>
<path fill="none" stroke="midnightblue" d="M109.375,-112.148C126.091,-114.177 144.065,-116.359 159.979,-118.291"/>
<polygon fill="midnightblue" stroke="midnightblue" points="109.509,-108.638 99.1597,-110.908 108.665,-115.587 109.509,-108.638"/>
</g>
<!-- Node69 -->
<g id="node8" class="node"><title>Node69</title>
<g id="a_node8"><a xlink:href="../../d6/d03/class_irene3000.html#a94ad40f281d83ad1be20bf1edd6fe802" target="_top" xlink:title="Irene3000::readTemp">
<polygon fill="white" stroke="black" points="153.5,-76.5 153.5,-95.5 262.5,-95.5 262.5,-76.5 153.5,-76.5"/>
<text text-anchor="middle" x="208" y="-83.5" font-family="Helvetica,sans-Serif" font-size="10.00">Irene3000::readTemp</text>
</a>
</g>
</g>
<!-- Node62&#45;&gt;Node69 -->
<g id="edge8" class="edge"><title>Node62&#45;&gt;Node69</title>
<path fill="none" stroke="midnightblue" d="M109.48,-97.8394C123.923,-96.0861 139.299,-94.2193 153.47,-92.4989"/>
<polygon fill="midnightblue" stroke="midnightblue" points="108.665,-94.4127 99.1597,-99.0924 109.509,-101.362 108.665,-94.4127"/>
</g>
<!-- Node70 -->
<g id="node9" class="node"><title>Node70</title>
<g id="a_node9"><a xlink:href="../../d6/d03/class_irene3000.html#a2e810ddfa8b95eaa2446a408761c6bdc" target="_top" xlink:title="Irene3000::calibratepH7">
<polygon fill="white" stroke="black" points="148,-38.5 148,-57.5 268,-57.5 268,-38.5 148,-38.5"/>
<text text-anchor="middle" x="208" y="-45.5" font-family="Helvetica,sans-Serif" font-size="10.00">Irene3000::calibratepH7</text>
</a>
</g>
</g>
<!-- Node62&#45;&gt;Node70 -->
<g id="edge10" class="edge"><title>Node62&#45;&gt;Node70</title>
<path fill="none" stroke="midnightblue" d="M78.6898,-90.9171C94.8945,-83.18 115.788,-73.8026 135,-67 144.871,-63.5048 155.704,-60.3193 165.901,-57.5974"/>
<polygon fill="midnightblue" stroke="midnightblue" points="76.736,-87.9745 69.263,-95.4849 79.7884,-94.2739 76.736,-87.9745"/>
</g>
<!-- Node71 -->
<g id="node10" class="node"><title>Node71</title>
<g id="a_node10"><a xlink:href="../../d6/d03/class_irene3000.html#a9772eeea2305fad6236a82e33e93892e" target="_top" xlink:title="Irene3000::calibratepH4">
<polygon fill="white" stroke="black" points="148,-0.5 148,-19.5 268,-19.5 268,-0.5 148,-0.5"/>
<text text-anchor="middle" x="208" y="-7.5" font-family="Helvetica,sans-Serif" font-size="10.00">Irene3000::calibratepH4</text>
</a>
</g>
</g>
<!-- Node62&#45;&gt;Node71 -->
<g id="edge11" class="edge"><title>Node62&#45;&gt;Node71</title>
<path fill="none" stroke="midnightblue" d="M65.0629,-87.7883C80.651,-70.4476 106.952,-44.1498 135,-29 142.166,-25.1293 150.165,-22.013 158.154,-19.5143"/>
<polygon fill="midnightblue" stroke="midnightblue" points="62.2691,-85.6658 58.3105,-95.4933 67.5336,-90.2794 62.2691,-85.6658"/>
</g>
<!-- Node65 -->
<g id="node4" class="node"><title>Node65</title>
<g id="a_node4"><a xlink:href="../../d6/d03/class_irene3000.html#a852a170feea994ea1df01c6b245b5d9a" target="_top" xlink:title="Irene3000::read">
<polygon fill="white" stroke="black" points="317,-114.5 317,-133.5 401,-133.5 401,-114.5 317,-114.5"/>
<text text-anchor="middle" x="359" y="-121.5" font-family="Helvetica,sans-Serif" font-size="10.00">Irene3000::read</text>
</a>
</g>
</g>
<!-- Node64&#45;&gt;Node65 -->
<g id="edge3" class="edge"><title>Node64&#45;&gt;Node65</title>
<path fill="none" stroke="midnightblue" d="M256.492,-149.888C277.244,-144.596 301.228,-138.479 320.671,-133.52"/>
<polygon fill="midnightblue" stroke="midnightblue" points="255.424,-146.548 246.599,-152.411 257.154,-153.331 255.424,-146.548"/>
</g>
<!-- Node66 -->
<g id="node5" class="node"><title>Node66</title>
<g id="a_node5"><a xlink:href="../../d7/df9/class_cool_board.html#aa0bbc4bc605e35618d18e68795c61363" target="_top" xlink:title="CoolBoard::onLineMode">
<polygon fill="white" stroke="black" points="437.5,-133.5 437.5,-152.5 558.5,-152.5 558.5,-133.5 437.5,-133.5"/>
<text text-anchor="middle" x="498" y="-140.5" font-family="Helvetica,sans-Serif" font-size="10.00">CoolBoard::onLineMode</text>
</a>
</g>
</g>
<!-- Node65&#45;&gt;Node66 -->
<g id="edge4" class="edge"><title>Node65&#45;&gt;Node66</title>
<path fill="none" stroke="midnightblue" d="M411.282,-131.112C419.812,-132.295 428.723,-133.531 437.437,-134.74"/>
<polygon fill="midnightblue" stroke="midnightblue" points="411.491,-127.608 401.105,-129.701 410.529,-134.541 411.491,-127.608"/>
</g>
<!-- Node67 -->
<g id="node6" class="node"><title>Node67</title>
<g id="a_node6"><a xlink:href="../../d7/df9/class_cool_board.html#ae6b5e1274d760462290192acea4adca8" target="_top" xlink:title="CoolBoard::offLineMode">
<polygon fill="white" stroke="black" points="437,-95.5 437,-114.5 559,-114.5 559,-95.5 437,-95.5"/>
<text text-anchor="middle" x="498" y="-102.5" font-family="Helvetica,sans-Serif" font-size="10.00">CoolBoard::offLineMode</text>
</a>
</g>
</g>
<!-- Node65&#45;&gt;Node67 -->
<g id="edge5" class="edge"><title>Node65&#45;&gt;Node67</title>
<path fill="none" stroke="midnightblue" d="M411.138,-116.908C419.546,-115.742 428.328,-114.524 436.93,-113.331"/>
<polygon fill="midnightblue" stroke="midnightblue" points="410.529,-113.459 401.105,-118.299 411.491,-120.392 410.529,-113.459"/>
</g>
<!-- Node68&#45;&gt;Node65 -->
<g id="edge7" class="edge"><title>Node68&#45;&gt;Node65</title>
<path fill="none" stroke="midnightblue" d="M266.391,-124C283.153,-124 301.137,-124 316.693,-124"/>
<polygon fill="midnightblue" stroke="midnightblue" points="266.145,-120.5 256.145,-124 266.144,-127.5 266.145,-120.5"/>
</g>
<!-- Node69&#45;&gt;Node65 -->
<g id="edge9" class="edge"><title>Node69&#45;&gt;Node65</title>
<path fill="none" stroke="midnightblue" d="M256.492,-98.1121C277.244,-103.404 301.228,-109.521 320.671,-114.48"/>
<polygon fill="midnightblue" stroke="midnightblue" points="257.154,-94.6689 246.599,-95.589 255.424,-101.452 257.154,-94.6689"/>
</g>
</g>
</svg>
        <g id="navigator" transform="translate(0 0)" fill="#404254">
                <rect fill="#f2f5e9" fill-opacity="0.5" stroke="#606060" stroke-width=".5" x="0" y="0" width="60" height="60"/>
                <use id="zoomplus" xlink:href="#zoomPlus" x="17" y="9" onmousedown="handleZoom(evt,'in')"/>
                <use id="zoomminus" xlink:href="#zoomMin" x="42" y="9" onmousedown="handleZoom(evt,'out')"/>
                <use id="reset" xlink:href="#resetDef" x="30" y="36" onmousedown="handleReset()"/>
                <g id="arrowUp" xlink:href="#dirArrow" transform="translate(30 24)" onmousedown="handlePan(0,-1)">
                  <use xlink:href="#rim" fill="#404040">
                        <set attributeName="fill" to="#808080" begin="arrowUp.mouseover" end="arrowUp.mouseout"/>
                  </use>
                  <path fill="none" stroke="white" stroke-width="1.5" d="M0,-3.0v7 M-2.5,-0.5L0,-3.0L2.5,-0.5"/>
                </g>
                <g id="arrowRight" xlink:href="#dirArrow" transform="rotate(90) translate(36 -43)" onmousedown="handlePan(1,0)">
                  <use xlink:href="#rim" fill="#404040">
                        <set attributeName="fill" to="#808080" begin="arrowRight.mouseover" end="arrowRight.mouseout"/>
                  </use>
                  <path fill="none" stroke="white" stroke-width="1.5" d="M0,-3.0v7 M-2.5,-0.5L0,-3.0L2.5,-0.5"/>
                </g>
                <g id="arrowDown" xlink:href="#dirArrow" transform="rotate(180) translate(-30 -48)" onmousedown="handlePan(0,1)">
                  <use xlink:href="#rim" fill="#404040">
                        <set attributeName="fill" to="#808080" begin="arrowDown.mouseover" end="arrowDown.mouseout"/>
                  </use>
                  <path fill="none" stroke="white" stroke-width="1.5" d="M0,-3.0v7 M-2.5,-0.5L0,-3.0L2.5,-0.5"/>
                </g>
                <g id="arrowLeft" xlink:href="#dirArrow" transform="rotate(270) translate(-36 17)" onmousedown="handlePan(-1,0)">
                  <use xlink:href="#rim" fill="#404040">
                        <set attributeName="fill" to="#808080" begin="arrowLeft.mouseover" end="arrowLeft.mouseout"/>
                  </use>
                  <path fill="none" stroke="white" stroke-width="1.5" d="M0,-3.0v7 M-2.5,-0.5L0,-3.0L2.5,-0.5"/>
                </g>
        </g>
        <svg viewBox="0 0 15 15" width="100%" height="30px" preserveAspectRatio="xMaxYMin meet">
         <g id="arrow_out" transform="scale(0.3 0.3)">
          <a xlink:href="class_irene3000_aff7c5da186b388e7272e63ff88a20c34_icgraph_org.svg" target="_base">
           <rect id="button" ry="5" rx="5" y="6" x="6" height="38" width="38"
                fill="#f2f5e9" fill-opacity="0.5" stroke="#606060" stroke-width="1.0"/>
           <path id="arrow"
             d="M 11.500037,31.436501 C 11.940474,20.09759 22.043105,11.32322 32.158766,21.979434 L 37.068811,17.246167 C 37.068811,17.246167 37.088388,32 37.088388,32 L 22.160133,31.978069 C 22.160133,31.978069 26.997745,27.140456 26.997745,27.140456 C 18.528582,18.264221 13.291696,25.230495 11.500037,31.436501 z"
             style="fill:#404040;"/>
          </a>
         </g>
        </svg>
</svg>
