<?xml version="1.0" encoding="UTF-8" standalone="no"?>
<!DOCTYPE svg PUBLIC "-//W3C//DTD SVG 1.1//EN"
 "http://www.w3.org/Graphics/SVG/1.1/DTD/svg11.dtd">
<!-- Generated by graphviz version 2.38.0 (20140413.2041)
 -->
<!-- Title: CoolTime::update Pages: 1 -->
<svg width="431pt" height="66pt"
 viewBox="0.00 0.00 431.00 66.00" xmlns="http://www.w3.org/2000/svg" xmlns:xlink="http://www.w3.org/1999/xlink">
<g id="graph0" class="graph" transform="scale(1 1) rotate(0) translate(4 62)">
<title>CoolTime::update</title>
<polygon fill="white" stroke="none" points="-4,4 -4,-62 427,-62 427,4 -4,4"/>
<!-- Node43 -->
<g id="node1" class="node"><title>Node43</title>
<polygon fill="#bfbfbf" stroke="black" points="0,-19.5 0,-38.5 94,-38.5 94,-19.5 0,-19.5"/>
<text text-anchor="middle" x="47" y="-26.5" font-family="Helvetica,sans-Serif" font-size="10.00">CoolTime::update</text>
</g>
<!-- Node44 -->
<g id="node2" class="node"><title>Node44</title>
<g id="a_node2"><a xlink:href="../../d6/d49/class_cool_time.html#a5ae038a4498602b189f76a10bf02adf8" target="_top" xlink:title="CoolTime::isTimeSync">
<polygon fill="white" stroke="black" points="130,-38.5 130,-57.5 246,-57.5 246,-38.5 130,-38.5"/>
<text text-anchor="middle" x="188" y="-45.5" font-family="Helvetica,sans-Serif" font-size="10.00">CoolTime::isTimeSync</text>
</a>
</g>
</g>
<!-- Node43&#45;&gt;Node44 -->
<g id="edge1" class="edge"><title>Node43&#45;&gt;Node44</title>
<path fill="none" stroke="midnightblue" d="M94.285,-35.3267C102.459,-36.444 111.117,-37.6275 119.729,-38.8047"/>
<polygon fill="midnightblue" stroke="midnightblue" points="119.404,-42.2928 129.786,-40.1794 120.353,-35.3573 119.404,-42.2928"/>
</g>
<!-- Node46 -->
<g id="node4" class="node"><title>Node46</title>
<g id="a_node4"><a xlink:href="../../d6/d49/class_cool_time.html#a41fbbbfd651c2079f54d4b2911e4c705" target="_top" xlink:title="CoolTime::getNtpTime">
<polygon fill="white" stroke="black" points="130,-0.5 130,-19.5 246,-19.5 246,-0.5 130,-0.5"/>
<text text-anchor="middle" x="188" y="-7.5" font-family="Helvetica,sans-Serif" font-size="10.00">CoolTime::getNtpTime</text>
</a>
</g>
</g>
<!-- Node43&#45;&gt;Node46 -->
<g id="edge3" class="edge"><title>Node43&#45;&gt;Node46</title>
<path fill="none" stroke="midnightblue" d="M94.285,-22.6733C102.459,-21.556 111.117,-20.3725 119.729,-19.1953"/>
<polygon fill="midnightblue" stroke="midnightblue" points="120.353,-22.6427 129.786,-17.8206 119.404,-15.7072 120.353,-22.6427"/>
</g>
<!-- Node45 -->
<g id="node3" class="node"><title>Node45</title>
<g id="a_node3"><a xlink:href="../../d6/d49/class_cool_time.html#a5d17f707a9d337720493b2bce9d41c21" target="_top" xlink:title="CoolTime::getLastSyncTime">
<polygon fill="white" stroke="black" points="282,-38.5 282,-57.5 423,-57.5 423,-38.5 282,-38.5"/>
<text text-anchor="middle" x="352.5" y="-45.5" font-family="Helvetica,sans-Serif" font-size="10.00">CoolTime::getLastSyncTime</text>
</a>
</g>
</g>
<!-- Node44&#45;&gt;Node45 -->
<g id="edge2" class="edge"><title>Node44&#45;&gt;Node45</title>
<path fill="none" stroke="midnightblue" d="M246.291,-48C254.567,-48 263.206,-48 271.822,-48"/>
<polygon fill="midnightblue" stroke="midnightblue" points="271.902,-51.5001 281.902,-48 271.902,-44.5001 271.902,-51.5001"/>
</g>
<!-- Node47 -->
<g id="node5" class="node"><title>Node47</title>
<g id="a_node5"><a xlink:href="../../d6/d49/class_cool_time.html#a236a38d120dc53bc67456d763838c5a1" target="_top" xlink:title="CoolTime::sendNTPpacket">
<polygon fill="white" stroke="black" points="285,-0.5 285,-19.5 420,-19.5 420,-0.5 285,-0.5"/>
<text text-anchor="middle" x="352.5" y="-7.5" font-family="Helvetica,sans-Serif" font-size="10.00">CoolTime::sendNTPpacket</text>
</a>
</g>
</g>
<!-- Node46&#45;&gt;Node47 -->
<g id="edge4" class="edge"><title>Node46&#45;&gt;Node47</title>
<path fill="none" stroke="midnightblue" d="M246.291,-10C255.418,-10 264.987,-10 274.479,-10"/>
<polygon fill="midnightblue" stroke="midnightblue" points="274.724,-13.5001 284.724,-10 274.724,-6.5001 274.724,-13.5001"/>
</g>
</g>
</svg>
