<?xml version="1.0" encoding="UTF-8" standalone="no"?>
<!DOCTYPE svg PUBLIC "-//W3C//DTD SVG 1.1//EN"
 "http://www.w3.org/Graphics/SVG/1.1/DTD/svg11.dtd">
<!-- Generated by graphviz version 2.38.0 (20140413.2041)
 -->
<!-- Title: BME280::readRegister Pages: 1 -->
<svg width="817pt" height="154pt"
 viewBox="0.00 0.00 817.00 154.00" xmlns="http://www.w3.org/2000/svg" xmlns:xlink="http://www.w3.org/1999/xlink">
<g id="graph0" class="graph" transform="scale(1 1) rotate(0) translate(4 150)">
<title>BME280::readRegister</title>
<polygon fill="white" stroke="none" points="-4,4 -4,-150 813,-150 813,4 -4,4"/>
<!-- Node35 -->
<g id="node1" class="node"><title>Node35</title>
<polygon fill="#bfbfbf" stroke="black" points="0,-69.5 0,-88.5 116,-88.5 116,-69.5 0,-69.5"/>
<text text-anchor="middle" x="58" y="-76.5" font-family="Helvetica,sans-Serif" font-size="10.00">BME280::readRegister</text>
</g>
<!-- Node36 -->
<g id="node2" class="node"><title>Node36</title>
<g id="a_node2"><a xlink:href="../../df/dcf/class_b_m_e280.html#a994c102f010547f9c740a338ef9905c7" target="_top" xlink:title="BME280::begin">
<polygon fill="white" stroke="black" points="180.5,-126.5 180.5,-145.5 263.5,-145.5 263.5,-126.5 180.5,-126.5"/>
<text text-anchor="middle" x="222" y="-133.5" font-family="Helvetica,sans-Serif" font-size="10.00">BME280::begin</text>
</a>
</g>
</g>
<!-- Node35&#45;&gt;Node36 -->
<g id="edge1" class="edge"><title>Node35&#45;&gt;Node36</title>
<path fill="none" stroke="midnightblue" d="M89.9007,-92.7084C107.833,-100.39 130.965,-109.835 152,-117 161.997,-120.405 172.963,-123.644 183.151,-126.451"/>
<polygon fill="midnightblue" stroke="midnightblue" points="91.0873,-89.4083 80.5198,-88.6483 88.3068,-95.8324 91.0873,-89.4083"/>
</g>
<!-- Node39 -->
<g id="node5" class="node"><title>Node39</title>
<g id="a_node5"><a xlink:href="../../df/dcf/class_b_m_e280.html#ada6e799917afb4f228e6253bc56ffe75" target="_top" xlink:title="BME280::readFloatPressure">
<polygon fill="white" stroke="black" points="152,-50.5 152,-69.5 292,-69.5 292,-50.5 152,-50.5"/>
<text text-anchor="middle" x="222" y="-57.5" font-family="Helvetica,sans-Serif" font-size="10.00">BME280::readFloatPressure</text>
</a>
</g>
</g>
<!-- Node35&#45;&gt;Node39 -->
<g id="edge4" class="edge"><title>Node35&#45;&gt;Node39</title>
<path fill="none" stroke="midnightblue" d="M126.301,-71.1067C134.756,-70.115 143.416,-69.0994 151.898,-68.1045"/>
<polygon fill="midnightblue" stroke="midnightblue" points="125.639,-67.6602 116.115,-72.3013 126.455,-74.6125 125.639,-67.6602"/>
</g>
<!-- Node46 -->
<g id="node12" class="node"><title>Node46</title>
<g id="a_node12"><a xlink:href="../../df/dcf/class_b_m_e280.html#a42ea7232039eebf5aadb391ef6132c35" target="_top" xlink:title="BME280::readFloatHumidity">
<polygon fill="white" stroke="black" points="152,-88.5 152,-107.5 292,-107.5 292,-88.5 152,-88.5"/>
<text text-anchor="middle" x="222" y="-95.5" font-family="Helvetica,sans-Serif" font-size="10.00">BME280::readFloatHumidity</text>
</a>
</g>
</g>
<!-- Node35&#45;&gt;Node46 -->
<g id="edge11" class="edge"><title>Node35&#45;&gt;Node46</title>
<path fill="none" stroke="midnightblue" d="M126.301,-86.8933C134.756,-87.885 143.416,-88.9006 151.898,-89.8955"/>
<polygon fill="midnightblue" stroke="midnightblue" points="126.455,-83.3875 116.115,-85.6987 125.639,-90.3398 126.455,-83.3875"/>
</g>
<!-- Node47 -->
<g id="node13" class="node"><title>Node47</title>
<g id="a_node13"><a xlink:href="../../df/dcf/class_b_m_e280.html#afffdd1d7ded9e1f92200e70669019d97" target="_top" xlink:title="BME280::readTempC">
<polygon fill="white" stroke="black" points="166.5,-12.5 166.5,-31.5 277.5,-31.5 277.5,-12.5 166.5,-12.5"/>
<text text-anchor="middle" x="222" y="-19.5" font-family="Helvetica,sans-Serif" font-size="10.00">BME280::readTempC</text>
</a>
</g>
</g>
<!-- Node35&#45;&gt;Node47 -->
<g id="edge13" class="edge"><title>Node35&#45;&gt;Node47</title>
<path fill="none" stroke="midnightblue" d="M89.9007,-65.2916C107.833,-57.6104 130.965,-48.1651 152,-41 161.997,-37.5947 172.963,-34.356 183.151,-31.5488"/>
<polygon fill="midnightblue" stroke="midnightblue" points="88.3068,-62.1676 80.5198,-69.3517 91.0873,-68.5917 88.3068,-62.1676"/>
</g>
<!-- Node37 -->
<g id="node3" class="node"><title>Node37</title>
<g id="a_node3"><a xlink:href="../../de/d46/class_cool_board_sensors.html#a97095823ef7c8f5290812f1405b966b3" target="_top" xlink:title="CoolBoardSensors::begin">
<polygon fill="white" stroke="black" points="331,-126.5 331,-145.5 459,-145.5 459,-126.5 331,-126.5"/>
<text text-anchor="middle" x="395" y="-133.5" font-family="Helvetica,sans-Serif" font-size="10.00">CoolBoardSensors::begin</text>
</a>
</g>
</g>
<!-- Node36&#45;&gt;Node37 -->
<g id="edge2" class="edge"><title>Node36&#45;&gt;Node37</title>
<path fill="none" stroke="midnightblue" d="M273.735,-136C291.607,-136 311.921,-136 330.7,-136"/>
<polygon fill="midnightblue" stroke="midnightblue" points="273.525,-132.5 263.525,-136 273.525,-139.5 273.525,-132.5"/>
</g>
<!-- Node38 -->
<g id="node4" class="node"><title>Node38</title>
<g id="a_node4"><a xlink:href="../../d7/df9/class_cool_board.html#acba7c5aef7268b2c0044bdb54d3b9d76" target="_top" xlink:title="CoolBoard::begin">
<polygon fill="white" stroke="black" points="528.5,-126.5 528.5,-145.5 620.5,-145.5 620.5,-126.5 528.5,-126.5"/>
<text text-anchor="middle" x="574.5" y="-133.5" font-family="Helvetica,sans-Serif" font-size="10.00">CoolBoard::begin</text>
</a>
</g>
</g>
<!-- Node37&#45;&gt;Node38 -->
<g id="edge3" class="edge"><title>Node37&#45;&gt;Node38</title>
<path fill="none" stroke="midnightblue" d="M469.153,-136C489.254,-136 510.457,-136 528.462,-136"/>
<polygon fill="midnightblue" stroke="midnightblue" points="469.08,-132.5 459.08,-136 469.08,-139.5 469.08,-132.5"/>
</g>
<!-- Node40 -->
<g id="node6" class="node"><title>Node40</title>
<g id="a_node6"><a xlink:href="../../de/d46/class_cool_board_sensors.html#a91badb2539d91fda8679f2a597874c48" target="_top" xlink:title="CoolBoardSensors::read">
<polygon fill="white" stroke="black" points="333.5,-88.5 333.5,-107.5 456.5,-107.5 456.5,-88.5 333.5,-88.5"/>
<text text-anchor="middle" x="395" y="-95.5" font-family="Helvetica,sans-Serif" font-size="10.00">CoolBoardSensors::read</text>
</a>
</g>
</g>
<!-- Node39&#45;&gt;Node40 -->
<g id="edge5" class="edge"><title>Node39&#45;&gt;Node40</title>
<path fill="none" stroke="midnightblue" d="M276.209,-71.8243C300.317,-77.1816 328.44,-83.4311 351.16,-88.4799"/>
<polygon fill="midnightblue" stroke="midnightblue" points="276.672,-68.3417 266.151,-69.589 275.153,-75.175 276.672,-68.3417"/>
</g>
<!-- Node44 -->
<g id="node10" class="node"><title>Node44</title>
<g id="a_node10"><a xlink:href="../../df/dcf/class_b_m_e280.html#af67b56ba50760ee1d116acc6c5010221" target="_top" xlink:title="BME280::readFloatAltitude\lMeters">
<polygon fill="white" stroke="black" points="328,-39 328,-69 462,-69 462,-39 328,-39"/>
<text text-anchor="start" x="336" y="-57" font-family="Helvetica,sans-Serif" font-size="10.00">BME280::readFloatAltitude</text>
<text text-anchor="middle" x="395" y="-46" font-family="Helvetica,sans-Serif" font-size="10.00">Meters</text>
</a>
</g>
</g>
<!-- Node39&#45;&gt;Node44 -->
<g id="edge9" class="edge"><title>Node39&#45;&gt;Node44</title>
<path fill="none" stroke="midnightblue" d="M302.074,-57.2255C310.656,-56.9243 319.325,-56.6202 327.733,-56.3252"/>
<polygon fill="midnightblue" stroke="midnightblue" points="301.93,-53.7283 292.059,-57.5769 302.176,-60.724 301.93,-53.7283"/>
</g>
<!-- Node41 -->
<g id="node7" class="node"><title>Node41</title>
<g id="a_node7"><a xlink:href="../../d7/df9/class_cool_board.html#ad03abdce2e65f520bbf2cff0f2d083cf" target="_top" xlink:title="CoolBoard::readSensors">
<polygon fill="white" stroke="black" points="513,-88.5 513,-107.5 636,-107.5 636,-88.5 513,-88.5"/>
<text text-anchor="middle" x="574.5" y="-95.5" font-family="Helvetica,sans-Serif" font-size="10.00">CoolBoard::readSensors</text>
</a>
</g>
</g>
<!-- Node40&#45;&gt;Node41 -->
<g id="edge6" class="edge"><title>Node40&#45;&gt;Node41</title>
<path fill="none" stroke="midnightblue" d="M466.976,-98C482.181,-98 498.112,-98 512.883,-98"/>
<polygon fill="midnightblue" stroke="midnightblue" points="466.589,-94.5001 456.589,-98 466.589,-101.5 466.589,-94.5001"/>
</g>
<!-- Node42 -->
<g id="node8" class="node"><title>Node42</title>
<g id="a_node8"><a xlink:href="../../d7/df9/class_cool_board.html#aa0bbc4bc605e35618d18e68795c61363" target="_top" xlink:title="CoolBoard::onLineMode">
<polygon fill="white" stroke="black" points="687.5,-107.5 687.5,-126.5 808.5,-126.5 808.5,-107.5 687.5,-107.5"/>
<text text-anchor="middle" x="748" y="-114.5" font-family="Helvetica,sans-Serif" font-size="10.00">CoolBoard::onLineMode</text>
</a>
</g>
</g>
<!-- Node41&#45;&gt;Node42 -->
<g id="edge7" class="edge"><title>Node41&#45;&gt;Node42</title>
<path fill="none" stroke="midnightblue" d="M646.682,-105.886C660.224,-107.386 674.265,-108.942 687.401,-110.397"/>
<polygon fill="midnightblue" stroke="midnightblue" points="646.772,-102.375 636.447,-104.752 646.001,-109.332 646.772,-102.375"/>
</g>
<!-- Node43 -->
<g id="node9" class="node"><title>Node43</title>
<g id="a_node9"><a xlink:href="../../d7/df9/class_cool_board.html#ae6b5e1274d760462290192acea4adca8" target="_top" xlink:title="CoolBoard::offLineMode">
<polygon fill="white" stroke="black" points="687,-69.5 687,-88.5 809,-88.5 809,-69.5 687,-69.5"/>
<text text-anchor="middle" x="748" y="-76.5" font-family="Helvetica,sans-Serif" font-size="10.00">CoolBoard::offLineMode</text>
</a>
</g>
</g>
<!-- Node41&#45;&gt;Node43 -->
<g id="edge8" class="edge"><title>Node41&#45;&gt;Node43</title>
<path fill="none" stroke="midnightblue" d="M646.562,-90.1273C659.943,-88.6448 673.817,-87.1078 686.826,-85.6665"/>
<polygon fill="midnightblue" stroke="midnightblue" points="646.001,-86.6679 636.447,-91.2478 646.772,-93.6253 646.001,-86.6679"/>
</g>
<!-- Node45 -->
<g id="node11" class="node"><title>Node45</title>
<g id="a_node11"><a xlink:href="../../df/dcf/class_b_m_e280.html#a6525c8a26f887b52596c86bed99343cb" target="_top" xlink:title="BME280::readFloatAltitudeFeet">
<polygon fill="white" stroke="black" points="498,-44.5 498,-63.5 651,-63.5 651,-44.5 498,-44.5"/>
<text text-anchor="middle" x="574.5" y="-51.5" font-family="Helvetica,sans-Serif" font-size="10.00">BME280::readFloatAltitudeFeet</text>
</a>
</g>
</g>
<!-- Node44&#45;&gt;Node45 -->
<g id="edge10" class="edge"><title>Node44&#45;&gt;Node45</title>
<path fill="none" stroke="midnightblue" d="M472.299,-54C480.744,-54 489.343,-54 497.782,-54"/>
<polygon fill="midnightblue" stroke="midnightblue" points="472.094,-50.5001 462.094,-54 472.094,-57.5001 472.094,-50.5001"/>
</g>
<!-- Node46&#45;&gt;Node40 -->
<g id="edge12" class="edge"><title>Node46&#45;&gt;Node40</title>
<path fill="none" stroke="midnightblue" d="M302.109,-98C312.654,-98 323.33,-98 333.49,-98"/>
<polygon fill="midnightblue" stroke="midnightblue" points="302.059,-94.5001 292.059,-98 302.059,-101.5 302.059,-94.5001"/>
</g>
<!-- Node47&#45;&gt;Node40 -->
<g id="edge14" class="edge"><title>Node47&#45;&gt;Node40</title>
<path fill="none" stroke="midnightblue" d="M280.357,-35.1866C284.404,-36.9011 288.33,-38.8304 292,-41 311.751,-52.676 308.4,-66.0728 328,-78 335.057,-82.2946 343.105,-85.727 351.096,-88.4501"/>
<polygon fill="midnightblue" stroke="midnightblue" points="281.349,-31.82 270.757,-31.564 278.878,-38.3692 281.349,-31.82"/>
</g>
<!-- Node48 -->
<g id="node14" class="node"><title>Node48</title>
<g id="a_node14"><a xlink:href="../../df/dcf/class_b_m_e280.html#a9648b496f6b4700550782a715a98b3c7" target="_top" xlink:title="BME280::readTempF">
<polygon fill="white" stroke="black" points="340,-0.5 340,-19.5 450,-19.5 450,-0.5 340,-0.5"/>
<text text-anchor="middle" x="395" y="-7.5" font-family="Helvetica,sans-Serif" font-size="10.00">BME280::readTempF</text>
</a>
</g>
</g>
<!-- Node47&#45;&gt;Node48 -->
<g id="edge15" class="edge"><title>Node47&#45;&gt;Node48</title>
<path fill="none" stroke="midnightblue" d="M287.576,-17.4684C304.838,-16.257 323.312,-14.9606 339.942,-13.7935"/>
<polygon fill="midnightblue" stroke="midnightblue" points="287.306,-13.9786 277.576,-18.1701 287.796,-20.9614 287.306,-13.9786"/>
</g>
</g>
</svg>
