<?xml version="1.0" encoding="UTF-8" standalone="no"?>
<!DOCTYPE svg PUBLIC "-//W3C//DTD SVG 1.1//EN"
 "http://www.w3.org/Graphics/SVG/1.1/DTD/svg11.dtd">
<!-- Generated by graphviz version 2.38.0 (20140413.2041)
 -->
<!-- Title: CoolBoardSensors Pages: 1 -->
<!--zoomable 650 -->
<svg id="main" version="1.1" xmlns="http://www.w3.org/2000/svg" xmlns:xlink="http://www.w3.org/1999/xlink" xml:space="preserve" onload="init(evt)">
<style type="text/css"><![CDATA[
.edge:hover path { stroke: red; }
.edge:hover polygon { stroke: red; fill: red; }
]]></style>
<script type="text/javascript"><![CDATA[
var edges = document.getElementsByTagName('g');
if (edges && edges.length) {
  for (var i=0;i<edges.length;i++) {
    if (edges[i].id.substr(0,4)=='edge') {
      edges[i].setAttribute('class','edge');
    }
  }
}
]]></script>
        <defs>
                <circle id="rim" cx="0" cy="0" r="7"/>
                <circle id="rim2" cx="0" cy="0" r="3.5"/>
                <g id="zoomPlus">
                        <use xlink:href="#rim" fill="#404040">
                                <set attributeName="fill" to="#808080" begin="zoomplus.mouseover" end="zoomplus.mouseout"/>
                        </use>
                        <path d="M-4,0h8M0,-4v8" fill="none" stroke="white" stroke-width="1.5" pointer-events="none"/>
                </g>
                <g id="zoomMin">
                        <use xlink:href="#rim" fill="#404040">
                                <set attributeName="fill" to="#808080" begin="zoomminus.mouseover" end="zoomminus.mouseout"/>
                        </use>
                        <path d="M-4,0h8" fill="none" stroke="white" stroke-width="1.5" pointer-events="none"/>
                </g>
                <g id="dirArrow">
                        <path fill="none" stroke="white" stroke-width="1.5" d="M0,-3.0v7 M-2.5,-0.5L0,-3.0L2.5,-0.5"/>
                </g>
               <g id="resetDef">
                       <use xlink:href="#rim2" fill="#404040">
                               <set attributeName="fill" to="#808080" begin="reset.mouseover" end="reset.mouseout"/>
                       </use>
               </g>
        </defs>

<script type="text/javascript">
var viewWidth = 595;
var viewHeight = 650;
var sectionId = 'dynsection-0';
</script>
<script xlink:href="../../svgpan.js"/>
<svg id="graph" class="graph">
<g id="viewport">
<title>CoolBoardSensors</title>
<polygon fill="white" stroke="none" points="-4,4 -4,-646 591,-646 591,4 -4,4"/>
<!-- Node1 -->
<g id="node1" class="node"><title>Node1</title>
<polygon fill="#bfbfbf" stroke="black" points="242.5,-0.5 242.5,-189.5 371.5,-189.5 371.5,-0.5 242.5,-0.5"/>
<text text-anchor="middle" x="307" y="-177.5" font-family="Helvetica,sans-Serif" font-size="10.00">CoolBoardSensors</text>
<polyline fill="none" stroke="black" points="242.5,-170.5 371.5,-170.5 "/>
<text text-anchor="start" x="250.5" y="-158.5" font-family="Helvetica,sans-Serif" font-size="10.00">&#45; EnMoisture</text>
<text text-anchor="start" x="250.5" y="-147.5" font-family="Helvetica,sans-Serif" font-size="10.00">&#45; AnMplex</text>
<text text-anchor="start" x="250.5" y="-136.5" font-family="Helvetica,sans-Serif" font-size="10.00">&#45; vbatActive</text>
<text text-anchor="start" x="250.5" y="-125.5" font-family="Helvetica,sans-Serif" font-size="10.00">&#45; soilMoistureActive</text>
<polyline fill="none" stroke="black" points="242.5,-118.5 371.5,-118.5 "/>
<text text-anchor="start" x="250.5" y="-106.5" font-family="Helvetica,sans-Serif" font-size="10.00">+ CoolBoardSensors()</text>
<text text-anchor="start" x="250.5" y="-95.5" font-family="Helvetica,sans-Serif" font-size="10.00">+ begin()</text>
<text text-anchor="start" x="250.5" y="-84.5" font-family="Helvetica,sans-Serif" font-size="10.00">+ read()</text>
<text text-anchor="start" x="250.5" y="-73.5" font-family="Helvetica,sans-Serif" font-size="10.00">+ allActive()</text>
<text text-anchor="start" x="250.5" y="-62.5" font-family="Helvetica,sans-Serif" font-size="10.00">+ end()</text>
<text text-anchor="start" x="250.5" y="-51.5" font-family="Helvetica,sans-Serif" font-size="10.00">+ config()</text>
<text text-anchor="start" x="250.5" y="-40.5" font-family="Helvetica,sans-Serif" font-size="10.00">+ printConf()</text>
<text text-anchor="start" x="250.5" y="-29.5" font-family="Helvetica,sans-Serif" font-size="10.00">+ setEnvSensorSettings()</text>
<text text-anchor="start" x="250.5" y="-18.5" font-family="Helvetica,sans-Serif" font-size="10.00">+ readVBat()</text>
<text text-anchor="start" x="250.5" y="-7.5" font-family="Helvetica,sans-Serif" font-size="10.00">+ readMoisture()</text>
</g>
<!-- Node2 -->
<g id="node2" class="node"><title>Node2</title>
<g id="a_node2"><a xlink:href="../../dd/d67/class_cool_s_i114_x.html" target="_top" xlink:title="{CoolSI114X\n||+ Begin()\l+ Reset()\l+ DeInit()\l+ ReadParamData()\l+ WriteParamData()\l+ ReadVisible()\l+ ReadIR()\l+ ReadProximity()\l+ ReadUV()\l&#45; WriteByte()\l&#45; ReadByte()\l&#45; ReadHalfWord()\l}">
<polygon fill="white" stroke="black" points="0,-243 0,-421 104,-421 104,-243 0,-243"/>
<text text-anchor="middle" x="52" y="-409" font-family="Helvetica,sans-Serif" font-size="10.00">CoolSI114X</text>
<polyline fill="none" stroke="black" points="0,-402 104,-402 "/>
<text text-anchor="middle" x="52" y="-390" font-family="Helvetica,sans-Serif" font-size="10.00"> </text>
<polyline fill="none" stroke="black" points="0,-383 104,-383 "/>
<text text-anchor="start" x="8" y="-371" font-family="Helvetica,sans-Serif" font-size="10.00">+ Begin()</text>
<text text-anchor="start" x="8" y="-360" font-family="Helvetica,sans-Serif" font-size="10.00">+ Reset()</text>
<text text-anchor="start" x="8" y="-349" font-family="Helvetica,sans-Serif" font-size="10.00">+ DeInit()</text>
<text text-anchor="start" x="8" y="-338" font-family="Helvetica,sans-Serif" font-size="10.00">+ ReadParamData()</text>
<text text-anchor="start" x="8" y="-327" font-family="Helvetica,sans-Serif" font-size="10.00">+ WriteParamData()</text>
<text text-anchor="start" x="8" y="-316" font-family="Helvetica,sans-Serif" font-size="10.00">+ ReadVisible()</text>
<text text-anchor="start" x="8" y="-305" font-family="Helvetica,sans-Serif" font-size="10.00">+ ReadIR()</text>
<text text-anchor="start" x="8" y="-294" font-family="Helvetica,sans-Serif" font-size="10.00">+ ReadProximity()</text>
<text text-anchor="start" x="8" y="-283" font-family="Helvetica,sans-Serif" font-size="10.00">+ ReadUV()</text>
<text text-anchor="start" x="8" y="-272" font-family="Helvetica,sans-Serif" font-size="10.00">&#45; WriteByte()</text>
<text text-anchor="start" x="8" y="-261" font-family="Helvetica,sans-Serif" font-size="10.00">&#45; ReadByte()</text>
<text text-anchor="start" x="8" y="-250" font-family="Helvetica,sans-Serif" font-size="10.00">&#45; ReadHalfWord()</text>
</a>
</g>
</g>
<!-- Node2&#45;&gt;Node1 -->
<g id="edge1" class="edge"><title>Node2&#45;&gt;Node1</title>
<path fill="none" stroke="#404040" d="M104.343,-246.747C107.165,-243.371 110.055,-240.105 113,-237 147.983,-200.117 193.722,-166.345 232.002,-141.104"/>
<polygon fill="none" stroke="#404040" points="232.017,-141.094 234.862,-134.468 242.073,-134.546 239.228,-141.172 232.017,-141.094"/>
<text text-anchor="middle" x="171" y="-211" font-family="Helvetica,sans-Serif" font-size="10.00"> +lightSensor</text>
</g>
<!-- Node3 -->
<g id="node3" class="node"><title>Node3</title>
<g id="a_node3"><a xlink:href="../../df/dcf/class_b_m_e280.html" target="_top" xlink:title="{BME280\n|+ t_fine\l|+ BME280()\l+ begin()\l+ reset()\l+ readFloatPressure()\l+ readFloatAltitudeMeters()\l+ readFloatAltitudeFeet()\l+ readFloatHumidity()\l+ readTempC()\l+ readTempF()\l+ readRegisterRegion()\l+ readRegister()\l+ readRegisterInt16()\l+ writeRegister()\l}">
<polygon fill="white" stroke="black" points="122.5,-237.5 122.5,-426.5 257.5,-426.5 257.5,-237.5 122.5,-237.5"/>
<text text-anchor="middle" x="190" y="-414.5" font-family="Helvetica,sans-Serif" font-size="10.00">BME280</text>
<polyline fill="none" stroke="black" points="122.5,-407.5 257.5,-407.5 "/>
<text text-anchor="start" x="130.5" y="-395.5" font-family="Helvetica,sans-Serif" font-size="10.00">+ t_fine</text>
<polyline fill="none" stroke="black" points="122.5,-388.5 257.5,-388.5 "/>
<text text-anchor="start" x="130.5" y="-376.5" font-family="Helvetica,sans-Serif" font-size="10.00">+ BME280()</text>
<text text-anchor="start" x="130.5" y="-365.5" font-family="Helvetica,sans-Serif" font-size="10.00">+ begin()</text>
<text text-anchor="start" x="130.5" y="-354.5" font-family="Helvetica,sans-Serif" font-size="10.00">+ reset()</text>
<text text-anchor="start" x="130.5" y="-343.5" font-family="Helvetica,sans-Serif" font-size="10.00">+ readFloatPressure()</text>
<text text-anchor="start" x="130.5" y="-332.5" font-family="Helvetica,sans-Serif" font-size="10.00">+ readFloatAltitudeMeters()</text>
<text text-anchor="start" x="130.5" y="-321.5" font-family="Helvetica,sans-Serif" font-size="10.00">+ readFloatAltitudeFeet()</text>
<text text-anchor="start" x="130.5" y="-310.5" font-family="Helvetica,sans-Serif" font-size="10.00">+ readFloatHumidity()</text>
<text text-anchor="start" x="130.5" y="-299.5" font-family="Helvetica,sans-Serif" font-size="10.00">+ readTempC()</text>
<text text-anchor="start" x="130.5" y="-288.5" font-family="Helvetica,sans-Serif" font-size="10.00">+ readTempF()</text>
<text text-anchor="start" x="130.5" y="-277.5" font-family="Helvetica,sans-Serif" font-size="10.00">+ readRegisterRegion()</text>
<text text-anchor="start" x="130.5" y="-266.5" font-family="Helvetica,sans-Serif" font-size="10.00">+ readRegister()</text>
<text text-anchor="start" x="130.5" y="-255.5" font-family="Helvetica,sans-Serif" font-size="10.00">+ readRegisterInt16()</text>
<text text-anchor="start" x="130.5" y="-244.5" font-family="Helvetica,sans-Serif" font-size="10.00">+ writeRegister()</text>
</a>
</g>
</g>
<!-- Node3&#45;&gt;Node1 -->
<g id="edge2" class="edge"><title>Node3&#45;&gt;Node1</title>
<path fill="none" stroke="#404040" d="M236.578,-237.447C242.64,-225.27 248.881,-212.735 255.024,-200.395"/>
<polygon fill="none" stroke="#404040" points="255.043,-200.358 254.137,-193.204 260.391,-189.615 261.298,-196.769 255.043,-200.358"/>
<text text-anchor="middle" x="277" y="-211" font-family="Helvetica,sans-Serif" font-size="10.00"> +envSensor</text>
</g>
<!-- Node4 -->
<g id="node4" class="node"><title>Node4</title>
<g id="a_node4"><a xlink:href="../../d8/dd4/struct_sensor_settings.html" target="_top" xlink:title="{SensorSettings\n|+ commInterface\l+ I2CAddress\l+ chipSelectPin\l+ runMode\l+ tStandby\l+ filter\l+ tempOverSample\l+ pressOverSample\l+ humidOverSample\l|}">
<polygon fill="white" stroke="black" points="78,-485.5 78,-630.5 184,-630.5 184,-485.5 78,-485.5"/>
<text text-anchor="middle" x="131" y="-618.5" font-family="Helvetica,sans-Serif" font-size="10.00">SensorSettings</text>
<polyline fill="none" stroke="black" points="78,-611.5 184,-611.5 "/>
<text text-anchor="start" x="86" y="-599.5" font-family="Helvetica,sans-Serif" font-size="10.00">+ commInterface</text>
<text text-anchor="start" x="86" y="-588.5" font-family="Helvetica,sans-Serif" font-size="10.00">+ I2CAddress</text>
<text text-anchor="start" x="86" y="-577.5" font-family="Helvetica,sans-Serif" font-size="10.00">+ chipSelectPin</text>
<text text-anchor="start" x="86" y="-566.5" font-family="Helvetica,sans-Serif" font-size="10.00">+ runMode</text>
<text text-anchor="start" x="86" y="-555.5" font-family="Helvetica,sans-Serif" font-size="10.00">+ tStandby</text>
<text text-anchor="start" x="86" y="-544.5" font-family="Helvetica,sans-Serif" font-size="10.00">+ filter</text>
<text text-anchor="start" x="86" y="-533.5" font-family="Helvetica,sans-Serif" font-size="10.00">+ tempOverSample</text>
<text text-anchor="start" x="86" y="-522.5" font-family="Helvetica,sans-Serif" font-size="10.00">+ pressOverSample</text>
<text text-anchor="start" x="86" y="-511.5" font-family="Helvetica,sans-Serif" font-size="10.00">+ humidOverSample</text>
<polyline fill="none" stroke="black" points="78,-504.5 184,-504.5 "/>
<text text-anchor="middle" x="131" y="-492.5" font-family="Helvetica,sans-Serif" font-size="10.00"> </text>
</a>
</g>
</g>
<!-- Node4&#45;&gt;Node3 -->
<g id="edge3" class="edge"><title>Node4&#45;&gt;Node3</title>
<path fill="none" stroke="#404040" d="M149.911,-485.201C153.806,-470.415 157.984,-454.551 162.12,-438.848"/>
<polygon fill="none" stroke="#404040" points="162.213,-438.497 159.873,-431.676 165.269,-426.893 167.609,-433.714 162.213,-438.497"/>
<text text-anchor="middle" x="183" y="-448" font-family="Helvetica,sans-Serif" font-size="10.00"> +settings</text>
</g>
<!-- Node5 -->
<g id="node5" class="node"><title>Node5</title>
<g id="a_node5"><a xlink:href="../../d0/d9c/struct_sensor_calibration.html" target="_top" xlink:title="{SensorCalibration\n|+ dig_T1\l+ dig_T2\l+ dig_T3\l+ dig_P1\l+ dig_P2\l+ dig_P3\l+ dig_P4\l+ dig_P5\l+ dig_P6\l+ dig_P7\land 8 more...\l|}">
<polygon fill="white" stroke="black" points="202,-474.5 202,-641.5 296,-641.5 296,-474.5 202,-474.5"/>
<text text-anchor="middle" x="249" y="-629.5" font-family="Helvetica,sans-Serif" font-size="10.00">SensorCalibration</text>
<polyline fill="none" stroke="black" points="202,-622.5 296,-622.5 "/>
<text text-anchor="start" x="210" y="-610.5" font-family="Helvetica,sans-Serif" font-size="10.00">+ dig_T1</text>
<text text-anchor="start" x="210" y="-599.5" font-family="Helvetica,sans-Serif" font-size="10.00">+ dig_T2</text>
<text text-anchor="start" x="210" y="-588.5" font-family="Helvetica,sans-Serif" font-size="10.00">+ dig_T3</text>
<text text-anchor="start" x="210" y="-577.5" font-family="Helvetica,sans-Serif" font-size="10.00">+ dig_P1</text>
<text text-anchor="start" x="210" y="-566.5" font-family="Helvetica,sans-Serif" font-size="10.00">+ dig_P2</text>
<text text-anchor="start" x="210" y="-555.5" font-family="Helvetica,sans-Serif" font-size="10.00">+ dig_P3</text>
<text text-anchor="start" x="210" y="-544.5" font-family="Helvetica,sans-Serif" font-size="10.00">+ dig_P4</text>
<text text-anchor="start" x="210" y="-533.5" font-family="Helvetica,sans-Serif" font-size="10.00">+ dig_P5</text>
<text text-anchor="start" x="210" y="-522.5" font-family="Helvetica,sans-Serif" font-size="10.00">+ dig_P6</text>
<text text-anchor="start" x="210" y="-511.5" font-family="Helvetica,sans-Serif" font-size="10.00">+ dig_P7</text>
<text text-anchor="start" x="210" y="-500.5" font-family="Helvetica,sans-Serif" font-size="10.00">and 8 more...</text>
<polyline fill="none" stroke="black" points="202,-493.5 296,-493.5 "/>
<text text-anchor="middle" x="249" y="-481.5" font-family="Helvetica,sans-Serif" font-size="10.00"> </text>
</a>
</g>
</g>
<!-- Node5&#45;&gt;Node3 -->
<g id="edge4" class="edge"><title>Node5&#45;&gt;Node3</title>
<path fill="none" stroke="#404040" d="M227.198,-474.227C224.145,-462.637 220.974,-450.597 217.829,-438.655"/>
<polygon fill="none" stroke="#404040" points="217.753,-438.368 212.357,-433.585 214.697,-426.764 220.093,-431.547 217.753,-438.368"/>
<text text-anchor="middle" x="249" y="-448" font-family="Helvetica,sans-Serif" font-size="10.00"> +calibration</text>
</g>
<!-- Node6 -->
<g id="node6" class="node"><title>Node6</title>
<g id="a_node6"><a xlink:href="../../d7/db6/struct_cool_board_sensors_1_1air_active.html" target="_top" xlink:title="{CoolBoardSensors::airActive\n|+ temperature\l+ humidity\l+ pressure\l|}">
<polygon fill="white" stroke="black" points="275.5,-292.5 275.5,-371.5 418.5,-371.5 418.5,-292.5 275.5,-292.5"/>
<text text-anchor="middle" x="347" y="-359.5" font-family="Helvetica,sans-Serif" font-size="10.00">CoolBoardSensors::airActive</text>
<polyline fill="none" stroke="black" points="275.5,-352.5 418.5,-352.5 "/>
<text text-anchor="start" x="283.5" y="-340.5" font-family="Helvetica,sans-Serif" font-size="10.00">+ temperature</text>
<text text-anchor="start" x="283.5" y="-329.5" font-family="Helvetica,sans-Serif" font-size="10.00">+ humidity</text>
<text text-anchor="start" x="283.5" y="-318.5" font-family="Helvetica,sans-Serif" font-size="10.00">+ pressure</text>
<polyline fill="none" stroke="black" points="275.5,-311.5 418.5,-311.5 "/>
<text text-anchor="middle" x="347" y="-299.5" font-family="Helvetica,sans-Serif" font-size="10.00"> </text>
</a>
</g>
</g>
<!-- Node6&#45;&gt;Node1 -->
<g id="edge5" class="edge"><title>Node6&#45;&gt;Node1</title>
<path fill="none" stroke="#404040" d="M340.44,-292.458C336.205,-267.582 330.476,-233.919 324.956,-201.489"/>
<polygon fill="none" stroke="#404040" points="324.948,-201.445 319.998,-196.201 322.934,-189.615 327.885,-194.859 324.948,-201.445"/>
<text text-anchor="middle" x="360" y="-211" font-family="Helvetica,sans-Serif" font-size="10.00"> &#45;airDataActive</text>
</g>
<!-- Node7 -->
<g id="node7" class="node"><title>Node7</title>
<g id="a_node7"><a xlink:href="../../df/da3/struct_cool_board_sensors_1_1light_active.html" target="_top" xlink:title="{CoolBoardSensors::lightActive\n|+ visible\l+ ir\l+ uv\l|}">
<polygon fill="white" stroke="black" points="437,-292.5 437,-371.5 587,-371.5 587,-292.5 437,-292.5"/>
<text text-anchor="middle" x="512" y="-359.5" font-family="Helvetica,sans-Serif" font-size="10.00">CoolBoardSensors::lightActive</text>
<polyline fill="none" stroke="black" points="437,-352.5 587,-352.5 "/>
<text text-anchor="start" x="445" y="-340.5" font-family="Helvetica,sans-Serif" font-size="10.00">+ visible</text>
<text text-anchor="start" x="445" y="-329.5" font-family="Helvetica,sans-Serif" font-size="10.00">+ ir</text>
<text text-anchor="start" x="445" y="-318.5" font-family="Helvetica,sans-Serif" font-size="10.00">+ uv</text>
<polyline fill="none" stroke="black" points="437,-311.5 587,-311.5 "/>
<text text-anchor="middle" x="512" y="-299.5" font-family="Helvetica,sans-Serif" font-size="10.00"> </text>
</a>
</g>
</g>
<!-- Node7&#45;&gt;Node1 -->
<g id="edge6" class="edge"><title>Node7&#45;&gt;Node1</title>
<path fill="none" stroke="#404040" d="M478.378,-292.458C451.668,-261.838 413.343,-217.905 379.706,-179.346"/>
<polygon fill="none" stroke="#404040" points="379.603,-179.228 372.645,-177.336 371.715,-170.185 378.673,-172.077 379.603,-179.228"/>
<text text-anchor="middle" x="446.5" y="-211" font-family="Helvetica,sans-Serif" font-size="10.00"> &#45;lightDataActive</text>
</g>
</g>
</svg>
        <g id="navigator" transform="translate(0 0)" fill="#404254">
                <rect fill="#f2f5e9" fill-opacity="0.5" stroke="#606060" stroke-width=".5" x="0" y="0" width="60" height="60"/>
                <use id="zoomplus" xlink:href="#zoomPlus" x="17" y="9" onmousedown="handleZoom(evt,'in')"/>
                <use id="zoomminus" xlink:href="#zoomMin" x="42" y="9" onmousedown="handleZoom(evt,'out')"/>
                <use id="reset" xlink:href="#resetDef" x="30" y="36" onmousedown="handleReset()"/>
                <g id="arrowUp" xlink:href="#dirArrow" transform="translate(30 24)" onmousedown="handlePan(0,-1)">
                  <use xlink:href="#rim" fill="#404040">
                        <set attributeName="fill" to="#808080" begin="arrowUp.mouseover" end="arrowUp.mouseout"/>
                  </use>
                  <path fill="none" stroke="white" stroke-width="1.5" d="M0,-3.0v7 M-2.5,-0.5L0,-3.0L2.5,-0.5"/>
                </g>
                <g id="arrowRight" xlink:href="#dirArrow" transform="rotate(90) translate(36 -43)" onmousedown="handlePan(1,0)">
                  <use xlink:href="#rim" fill="#404040">
                        <set attributeName="fill" to="#808080" begin="arrowRight.mouseover" end="arrowRight.mouseout"/>
                  </use>
                  <path fill="none" stroke="white" stroke-width="1.5" d="M0,-3.0v7 M-2.5,-0.5L0,-3.0L2.5,-0.5"/>
                </g>
                <g id="arrowDown" xlink:href="#dirArrow" transform="rotate(180) translate(-30 -48)" onmousedown="handlePan(0,1)">
                  <use xlink:href="#rim" fill="#404040">
                        <set attributeName="fill" to="#808080" begin="arrowDown.mouseover" end="arrowDown.mouseout"/>
                  </use>
                  <path fill="none" stroke="white" stroke-width="1.5" d="M0,-3.0v7 M-2.5,-0.5L0,-3.0L2.5,-0.5"/>
                </g>
                <g id="arrowLeft" xlink:href="#dirArrow" transform="rotate(270) translate(-36 17)" onmousedown="handlePan(-1,0)">
                  <use xlink:href="#rim" fill="#404040">
                        <set attributeName="fill" to="#808080" begin="arrowLeft.mouseover" end="arrowLeft.mouseout"/>
                  </use>
                  <path fill="none" stroke="white" stroke-width="1.5" d="M0,-3.0v7 M-2.5,-0.5L0,-3.0L2.5,-0.5"/>
                </g>
        </g>
        <svg viewBox="0 0 15 15" width="100%" height="30px" preserveAspectRatio="xMaxYMin meet">
         <g id="arrow_out" transform="scale(0.3 0.3)">
          <a xlink:href="class_cool_board_sensors__coll__graph_org.svg" target="_base">
           <rect id="button" ry="5" rx="5" y="6" x="6" height="38" width="38"
                fill="#f2f5e9" fill-opacity="0.5" stroke="#606060" stroke-width="1.0"/>
           <path id="arrow"
             d="M 11.500037,31.436501 C 11.940474,20.09759 22.043105,11.32322 32.158766,21.979434 L 37.068811,17.246167 C 37.068811,17.246167 37.088388,32 37.088388,32 L 22.160133,31.978069 C 22.160133,31.978069 26.997745,27.140456 26.997745,27.140456 C 18.528582,18.264221 13.291696,25.230495 11.500037,31.436501 z"
             style="fill:#404040;"/>
          </a>
         </g>
        </svg>
</svg>
