<?xml version="1.0" encoding="UTF-8" standalone="no"?>
<!DOCTYPE svg PUBLIC "-//W3C//DTD SVG 1.1//EN"
 "http://www.w3.org/Graphics/SVG/1.1/DTD/svg11.dtd">
<!-- Generated by graphviz version 2.38.0 (20140413.2041)
 -->
<!-- Title: /home/ashiroji/Arduino/libraries/CoolBoard/src/internals/CoolAdafruit_ADS1015.h Pages: 1 -->
<svg width="332pt" height="306pt"
 viewBox="0.00 0.00 332.00 306.00" xmlns="http://www.w3.org/2000/svg" xmlns:xlink="http://www.w3.org/1999/xlink">
<g id="graph0" class="graph" transform="scale(1 1) rotate(0) translate(4 302)">
<title>/home/ashiroji/Arduino/libraries/CoolBoard/src/internals/CoolAdafruit_ADS1015.h</title>
<polygon fill="white" stroke="none" points="-4,4 -4,-302 328,-302 328,4 -4,4"/>
<!-- Node2 -->
<g id="node1" class="node"><title>Node2</title>
<polygon fill="#bfbfbf" stroke="black" points="136,-245.5 136,-297.5 255,-297.5 255,-245.5 136,-245.5"/>
<text text-anchor="start" x="144" y="-285.5" font-family="Helvetica,sans-Serif" font-size="10.00">/home/ashiroji/Arduino</text>
<text text-anchor="start" x="144" y="-274.5" font-family="Helvetica,sans-Serif" font-size="10.00">/libraries/CoolBoard/src</text>
<text text-anchor="start" x="144" y="-263.5" font-family="Helvetica,sans-Serif" font-size="10.00">/internals/CoolAdafruit</text>
<text text-anchor="middle" x="195.5" y="-252.5" font-family="Helvetica,sans-Serif" font-size="10.00">_ADS1015.h</text>
</g>
<!-- Node3 -->
<g id="node2" class="node"><title>Node3</title>
<g id="a_node2"><a xlink:href="../../d7/d31/_irene3000_8h.html" target="_top" xlink:title="Irene3000 Header File. ">
<polygon fill="white" stroke="black" points="68,-162 68,-203 187,-203 187,-162 68,-162"/>
<text text-anchor="start" x="76" y="-191" font-family="Helvetica,sans-Serif" font-size="10.00">/home/ashiroji/Arduino</text>
<text text-anchor="start" x="76" y="-180" font-family="Helvetica,sans-Serif" font-size="10.00">/libraries/CoolBoard/src</text>
<text text-anchor="middle" x="127.5" y="-169" font-family="Helvetica,sans-Serif" font-size="10.00">/Irene3000.h</text>
</a>
</g>
</g>
<!-- Node2&#45;&gt;Node3 -->
<g id="edge1" class="edge"><title>Node2&#45;&gt;Node3</title>
<path fill="none" stroke="midnightblue" d="M169.455,-237.178C160.453,-225.66 150.663,-213.135 142.806,-203.082"/>
<polygon fill="midnightblue" stroke="midnightblue" points="166.916,-239.612 175.832,-245.336 172.431,-235.302 166.916,-239.612"/>
</g>
<!-- Node7 -->
<g id="node6" class="node"><title>Node7</title>
<g id="a_node6"><a xlink:href="../../d8/daa/_cool_adafruit___a_d_s1015_8cpp.html" target="_top" xlink:title="/home/ashiroji/Arduino\l/libraries/CoolBoard/src\l/internals/CoolAdafruit\l_ADS1015.cpp">
<polygon fill="white" stroke="black" points="205,-156.5 205,-208.5 324,-208.5 324,-156.5 205,-156.5"/>
<text text-anchor="start" x="213" y="-196.5" font-family="Helvetica,sans-Serif" font-size="10.00">/home/ashiroji/Arduino</text>
<text text-anchor="start" x="213" y="-185.5" font-family="Helvetica,sans-Serif" font-size="10.00">/libraries/CoolBoard/src</text>
<text text-anchor="start" x="213" y="-174.5" font-family="Helvetica,sans-Serif" font-size="10.00">/internals/CoolAdafruit</text>
<text text-anchor="middle" x="264.5" y="-163.5" font-family="Helvetica,sans-Serif" font-size="10.00">_ADS1015.cpp</text>
</a>
</g>
</g>
<!-- Node2&#45;&gt;Node7 -->
<g id="edge5" class="edge"><title>Node2&#45;&gt;Node7</title>
<path fill="none" stroke="midnightblue" d="M221.898,-237.215C229.432,-227.717 237.511,-217.529 244.587,-208.607"/>
<polygon fill="midnightblue" stroke="midnightblue" points="218.929,-235.326 215.458,-245.336 224.414,-239.676 218.929,-235.326"/>
</g>
<!-- Node4 -->
<g id="node3" class="node"><title>Node4</title>
<g id="a_node3"><a xlink:href="../../d5/d51/_cool_board_8h.html" target="_top" xlink:title="CoolBoard Header file. ">
<polygon fill="white" stroke="black" points="0,-78.5 0,-119.5 119,-119.5 119,-78.5 0,-78.5"/>
<text text-anchor="start" x="8" y="-107.5" font-family="Helvetica,sans-Serif" font-size="10.00">/home/ashiroji/Arduino</text>
<text text-anchor="start" x="8" y="-96.5" font-family="Helvetica,sans-Serif" font-size="10.00">/libraries/CoolBoard/src</text>
<text text-anchor="middle" x="59.5" y="-85.5" font-family="Helvetica,sans-Serif" font-size="10.00">/CoolBoard.h</text>
</a>
</g>
</g>
<!-- Node3&#45;&gt;Node4 -->
<g id="edge2" class="edge"><title>Node3&#45;&gt;Node4</title>
<path fill="none" stroke="midnightblue" d="M104.458,-153.883C95.0496,-142.607 84.3881,-129.829 75.8093,-119.547"/>
<polygon fill="midnightblue" stroke="midnightblue" points="101.945,-156.335 111.039,-161.771 107.32,-151.85 101.945,-156.335"/>
</g>
<!-- Node6 -->
<g id="node5" class="node"><title>Node6</title>
<g id="a_node5"><a xlink:href="../../db/dd5/irene3000_8cpp.html" target="_top" xlink:title="Irene3000 Source File. ">
<polygon fill="white" stroke="black" points="137,-78.5 137,-119.5 256,-119.5 256,-78.5 137,-78.5"/>
<text text-anchor="start" x="145" y="-107.5" font-family="Helvetica,sans-Serif" font-size="10.00">/home/ashiroji/Arduino</text>
<text text-anchor="start" x="145" y="-96.5" font-family="Helvetica,sans-Serif" font-size="10.00">/libraries/CoolBoard/src</text>
<text text-anchor="middle" x="196.5" y="-85.5" font-family="Helvetica,sans-Serif" font-size="10.00">/irene3000.cpp</text>
</a>
</g>
</g>
<!-- Node3&#45;&gt;Node6 -->
<g id="edge4" class="edge"><title>Node3&#45;&gt;Node6</title>
<path fill="none" stroke="midnightblue" d="M150.881,-153.883C160.428,-142.607 171.246,-129.829 179.951,-119.547"/>
<polygon fill="midnightblue" stroke="midnightblue" points="147.993,-151.877 144.203,-161.771 153.336,-156.401 147.993,-151.877"/>
</g>
<!-- Node5 -->
<g id="node4" class="node"><title>Node5</title>
<g id="a_node4"><a xlink:href="../../d9/d50/_cool_board_8cpp.html" target="_top" xlink:title="CoolBoard Source file. ">
<polygon fill="white" stroke="black" points="0,-0.5 0,-41.5 119,-41.5 119,-0.5 0,-0.5"/>
<text text-anchor="start" x="8" y="-29.5" font-family="Helvetica,sans-Serif" font-size="10.00">/home/ashiroji/Arduino</text>
<text text-anchor="start" x="8" y="-18.5" font-family="Helvetica,sans-Serif" font-size="10.00">/libraries/CoolBoard/src</text>
<text text-anchor="middle" x="59.5" y="-7.5" font-family="Helvetica,sans-Serif" font-size="10.00">/CoolBoard.cpp</text>
</a>
</g>
</g>
<!-- Node4&#45;&gt;Node5 -->
<g id="edge3" class="edge"><title>Node4&#45;&gt;Node5</title>
<path fill="none" stroke="midnightblue" d="M59.5,-68.2965C59.5,-59.3009 59.5,-49.6532 59.5,-41.5056"/>
<polygon fill="midnightblue" stroke="midnightblue" points="56.0001,-68.4281 59.5,-78.4281 63.0001,-68.4281 56.0001,-68.4281"/>
</g>
</g>
</svg>
