<?xml version="1.0" encoding="UTF-8" standalone="no"?>
<!DOCTYPE svg PUBLIC "-//W3C//DTD SVG 1.1//EN"
 "http://www.w3.org/Graphics/SVG/1.1/DTD/svg11.dtd">
<!-- Generated by graphviz version 2.38.0 (20140413.2041)
 -->
<!-- Title: CoolAdafruit_ADS1015.h Pages: 1 -->
<svg width="284pt" height="196pt"
 viewBox="0.00 0.00 284.00 196.00" xmlns="http://www.w3.org/2000/svg" xmlns:xlink="http://www.w3.org/1999/xlink">
<g id="graph0" class="graph" transform="scale(1 1) rotate(0) translate(4 192)">
<title>CoolAdafruit_ADS1015.h</title>
<polygon fill="white" stroke="none" points="-4,4 -4,-192 280,-192 280,4 -4,4"/>
<!-- Node2 -->
<g id="node1" class="node"><title>Node2</title>
<polygon fill="#bfbfbf" stroke="black" points="83.5,-168.5 83.5,-187.5 209.5,-187.5 209.5,-168.5 83.5,-168.5"/>
<text text-anchor="middle" x="146.5" y="-175.5" font-family="Helvetica,sans-Serif" font-size="10.00">CoolAdafruit_ADS1015.h</text>
</g>
<!-- Node3 -->
<g id="node2" class="node"><title>Node3</title>
<g id="a_node2"><a xlink:href="../../d7/d31/_irene3000_8h.html" target="_top" xlink:title="Irene3000 Header file. ">
<polygon fill="white" stroke="black" points="52.5,-112.5 52.5,-131.5 120.5,-131.5 120.5,-112.5 52.5,-112.5"/>
<text text-anchor="middle" x="86.5" y="-119.5" font-family="Helvetica,sans-Serif" font-size="10.00">Irene3000.h</text>
</a>
</g>
</g>
<!-- Node2&#45;&gt;Node3 -->
<g id="edge1" class="edge"><title>Node2&#45;&gt;Node3</title>
<path fill="none" stroke="midnightblue" d="M129.319,-161.537C118.621,-151.909 105.244,-139.869 96.3154,-131.834"/>
<polygon fill="midnightblue" stroke="midnightblue" points="127.086,-164.236 136.86,-168.324 131.768,-159.033 127.086,-164.236"/>
</g>
<!-- Node7 -->
<g id="node6" class="node"><title>Node7</title>
<g id="a_node6"><a xlink:href="../../d8/daa/_cool_adafruit___a_d_s1015_8cpp.html" target="_top" xlink:title="CoolAdafruit_ADS1015.cpp">
<polygon fill="white" stroke="black" points="139,-112.5 139,-131.5 276,-131.5 276,-112.5 139,-112.5"/>
<text text-anchor="middle" x="207.5" y="-119.5" font-family="Helvetica,sans-Serif" font-size="10.00">CoolAdafruit_ADS1015.cpp</text>
</a>
</g>
</g>
<!-- Node2&#45;&gt;Node7 -->
<g id="edge5" class="edge"><title>Node2&#45;&gt;Node7</title>
<path fill="none" stroke="midnightblue" d="M163.967,-161.537C174.844,-151.909 188.444,-139.869 197.521,-131.834"/>
<polygon fill="midnightblue" stroke="midnightblue" points="161.468,-159.075 156.301,-168.324 166.108,-164.316 161.468,-159.075"/>
</g>
<!-- Node4 -->
<g id="node3" class="node"><title>Node4</title>
<g id="a_node3"><a xlink:href="../../d5/d51/_cool_board_8h.html" target="_top" xlink:title="CoolBoard Header file. ">
<polygon fill="white" stroke="black" points="5,-56.5 5,-75.5 76,-75.5 76,-56.5 5,-56.5"/>
<text text-anchor="middle" x="40.5" y="-63.5" font-family="Helvetica,sans-Serif" font-size="10.00">CoolBoard.h</text>
</a>
</g>
</g>
<!-- Node3&#45;&gt;Node4 -->
<g id="edge2" class="edge"><title>Node3&#45;&gt;Node4</title>
<path fill="none" stroke="midnightblue" d="M72.386,-104.431C64.324,-94.9673 54.5408,-83.4827 47.9546,-75.7511"/>
<polygon fill="midnightblue" stroke="midnightblue" points="69.755,-106.74 78.904,-112.083 75.0837,-102.201 69.755,-106.74"/>
</g>
<!-- Node6 -->
<g id="node5" class="node"><title>Node6</title>
<g id="a_node5"><a xlink:href="../../d5/df3/_irene3000_8cpp.html" target="_top" xlink:title="Irene3000 Source file. ">
<polygon fill="white" stroke="black" points="94.5,-56.5 94.5,-75.5 172.5,-75.5 172.5,-56.5 94.5,-56.5"/>
<text text-anchor="middle" x="133.5" y="-63.5" font-family="Helvetica,sans-Serif" font-size="10.00">Irene3000.cpp</text>
</a>
</g>
</g>
<!-- Node3&#45;&gt;Node6 -->
<g id="edge4" class="edge"><title>Node3&#45;&gt;Node6</title>
<path fill="none" stroke="midnightblue" d="M100.921,-104.431C109.158,-94.9673 119.154,-83.4827 125.883,-75.7511"/>
<polygon fill="midnightblue" stroke="midnightblue" points="98.1863,-102.242 94.2611,-112.083 103.466,-106.838 98.1863,-102.242"/>
</g>
<!-- Node5 -->
<g id="node4" class="node"><title>Node5</title>
<g id="a_node4"><a xlink:href="../../d9/d50/_cool_board_8cpp.html" target="_top" xlink:title="CoolBoard Source file. ">
<polygon fill="white" stroke="black" points="0,-0.5 0,-19.5 81,-19.5 81,-0.5 0,-0.5"/>
<text text-anchor="middle" x="40.5" y="-7.5" font-family="Helvetica,sans-Serif" font-size="10.00">CoolBoard.cpp</text>
</a>
</g>
</g>
<!-- Node4&#45;&gt;Node5 -->
<g id="edge3" class="edge"><title>Node4&#45;&gt;Node5</title>
<path fill="none" stroke="midnightblue" d="M40.5,-45.8045C40.5,-36.9102 40.5,-26.7798 40.5,-19.7511"/>
<polygon fill="midnightblue" stroke="midnightblue" points="37.0001,-46.083 40.5,-56.083 44.0001,-46.083 37.0001,-46.083"/>
</g>
</g>
</svg>
