<?xml version="1.0" encoding="UTF-8" standalone="no"?>
<!DOCTYPE svg PUBLIC "-//W3C//DTD SVG 1.1//EN"
 "http://www.w3.org/Graphics/SVG/1.1/DTD/svg11.dtd">
<!-- Generated by graphviz version 2.38.0 (20140413.2041)
 -->
<!-- Title: BME280::readTempF Pages: 1 -->
<svg width="417pt" height="28pt"
 viewBox="0.00 0.00 417.00 28.00" xmlns="http://www.w3.org/2000/svg" xmlns:xlink="http://www.w3.org/1999/xlink">
<g id="graph0" class="graph" transform="scale(1 1) rotate(0) translate(4 24)">
<title>BME280::readTempF</title>
<polygon fill="white" stroke="none" points="-4,4 -4,-24 413,-24 413,4 -4,4"/>
<!-- Node63 -->
<g id="node1" class="node"><title>Node63</title>
<polygon fill="#bfbfbf" stroke="black" points="0,-0.5 0,-19.5 110,-19.5 110,-0.5 0,-0.5"/>
<text text-anchor="middle" x="55" y="-7.5" font-family="Helvetica,sans-Serif" font-size="10.00">BME280::readTempF</text>
</g>
<!-- Node64 -->
<g id="node2" class="node"><title>Node64</title>
<g id="a_node2"><a xlink:href="$df/dcf/class_b_m_e280.html#afffdd1d7ded9e1f92200e70669019d97" xlink:title="BME280::readTempC">
<polygon fill="white" stroke="black" points="146,-0.5 146,-19.5 257,-19.5 257,-0.5 146,-0.5"/>
<text text-anchor="middle" x="201.5" y="-7.5" font-family="Helvetica,sans-Serif" font-size="10.00">BME280::readTempC</text>
</a>
</g>
</g>
<!-- Node63&#45;&gt;Node64 -->
<g id="edge1" class="edge"><title>Node63&#45;&gt;Node64</title>
<path fill="none" stroke="midnightblue" d="M110.218,-10C118.621,-10 127.373,-10 135.976,-10"/>
<polygon fill="midnightblue" stroke="midnightblue" points="135.979,-13.5001 145.979,-10 135.979,-6.5001 135.979,-13.5001"/>
</g>
<!-- Node65 -->
<g id="node3" class="node"><title>Node65</title>
<g id="a_node3"><a xlink:href="$df/dcf/class_b_m_e280.html#a1bbd14c8591966df531e40085342ff71" xlink:title="BME280::readRegister">
<polygon fill="white" stroke="black" points="293,-0.5 293,-19.5 409,-19.5 409,-0.5 293,-0.5"/>
<text text-anchor="middle" x="351" y="-7.5" font-family="Helvetica,sans-Serif" font-size="10.00">BME280::readRegister</text>
</a>
</g>
</g>
<!-- Node64&#45;&gt;Node65 -->
<g id="edge2" class="edge"><title>Node64&#45;&gt;Node65</title>
<path fill="none" stroke="midnightblue" d="M257.004,-10C265.38,-10 274.112,-10 282.725,-10"/>
<polygon fill="midnightblue" stroke="midnightblue" points="282.753,-13.5001 292.753,-10 282.753,-6.5001 282.753,-13.5001"/>
</g>
</g>
</svg>
