<?xml version="1.0" encoding="UTF-8" standalone="no"?>
<!DOCTYPE svg PUBLIC "-//W3C//DTD SVG 1.1//EN"
 "http://www.w3.org/Graphics/SVG/1.1/DTD/svg11.dtd">
<!-- Generated by graphviz version 2.38.0 (20140413.2041)
 -->
<!-- Title: CoolSI114X::WriteParamData Pages: 1 -->
<svg width="741pt" height="66pt"
 viewBox="0.00 0.00 741.00 66.00" xmlns="http://www.w3.org/2000/svg" xmlns:xlink="http://www.w3.org/1999/xlink">
<g id="graph0" class="graph" transform="scale(1 1) rotate(0) translate(4 62)">
<title>CoolSI114X::WriteParamData</title>
<polygon fill="white" stroke="none" points="-4,4 -4,-62 737,-62 737,4 -4,4"/>
<!-- Node84 -->
<g id="node1" class="node"><title>Node84</title>
<polygon fill="#bfbfbf" stroke="black" points="0,-19.5 0,-38.5 148,-38.5 148,-19.5 0,-19.5"/>
<text text-anchor="middle" x="74" y="-26.5" font-family="Helvetica,sans-Serif" font-size="10.00">CoolSI114X::WriteParamData</text>
</g>
<!-- Node85 -->
<g id="node2" class="node"><title>Node85</title>
<g id="a_node2"><a xlink:href="$dd/d67/class_cool_s_i114_x.html#a6840abd53a2e3d71a6bb918077c6d6e6" xlink:title="CoolSI114X::DeInit">
<polygon fill="white" stroke="black" points="184,-19.5 184,-38.5 285,-38.5 285,-19.5 184,-19.5"/>
<text text-anchor="middle" x="234.5" y="-26.5" font-family="Helvetica,sans-Serif" font-size="10.00">CoolSI114X::DeInit</text>
</a>
</g>
</g>
<!-- Node84&#45;&gt;Node85 -->
<g id="edge1" class="edge"><title>Node84&#45;&gt;Node85</title>
<path fill="none" stroke="midnightblue" d="M158.367,-29C167.007,-29 175.582,-29 183.679,-29"/>
<polygon fill="midnightblue" stroke="midnightblue" points="158.219,-25.5001 148.219,-29 158.219,-32.5001 158.219,-25.5001"/>
</g>
<!-- Node86 -->
<g id="node3" class="node"><title>Node86</title>
<g id="a_node3"><a xlink:href="$de/d46/class_cool_board_sensors.html#a4902b69f6e628bd6557193758fdd2bae" xlink:title="CoolBoardSensors::end">
<polygon fill="white" stroke="black" points="321,-38.5 321,-57.5 441,-57.5 441,-38.5 321,-38.5"/>
<text text-anchor="middle" x="381" y="-45.5" font-family="Helvetica,sans-Serif" font-size="10.00">CoolBoardSensors::end</text>
</a>
</g>
</g>
<!-- Node85&#45;&gt;Node86 -->
<g id="edge2" class="edge"><title>Node85&#45;&gt;Node86</title>
<path fill="none" stroke="midnightblue" d="M295.391,-36.8749C303.843,-37.9863 312.528,-39.1283 320.964,-40.2375"/>
<polygon fill="midnightblue" stroke="midnightblue" points="295.6,-33.3723 285.229,-35.5387 294.687,-40.3126 295.6,-33.3723"/>
</g>
<!-- Node87 -->
<g id="node4" class="node"><title>Node87</title>
<g id="a_node4"><a xlink:href="$dd/d67/class_cool_s_i114_x.html#a206b36aca7049f63be1d11088c30a09f" xlink:title="CoolSI114X::Begin">
<polygon fill="white" stroke="black" points="331,-0.5 331,-19.5 431,-19.5 431,-0.5 331,-0.5"/>
<text text-anchor="middle" x="381" y="-7.5" font-family="Helvetica,sans-Serif" font-size="10.00">CoolSI114X::Begin</text>
</a>
</g>
</g>
<!-- Node85&#45;&gt;Node87 -->
<g id="edge3" class="edge"><title>Node85&#45;&gt;Node87</title>
<path fill="none" stroke="midnightblue" d="M295.397,-21.1243C307.136,-19.5808 319.323,-17.9783 330.669,-16.4864"/>
<polygon fill="midnightblue" stroke="midnightblue" points="294.687,-17.6874 285.229,-22.4613 295.6,-24.6277 294.687,-17.6874"/>
</g>
<!-- Node88 -->
<g id="node5" class="node"><title>Node88</title>
<g id="a_node5"><a xlink:href="$de/d46/class_cool_board_sensors.html#a97095823ef7c8f5290812f1405b966b3" xlink:title="CoolBoardSensors::begin">
<polygon fill="white" stroke="black" points="477,-0.5 477,-19.5 605,-19.5 605,-0.5 477,-0.5"/>
<text text-anchor="middle" x="541" y="-7.5" font-family="Helvetica,sans-Serif" font-size="10.00">CoolBoardSensors::begin</text>
</a>
</g>
</g>
<!-- Node87&#45;&gt;Node88 -->
<g id="edge4" class="edge"><title>Node87&#45;&gt;Node88</title>
<path fill="none" stroke="midnightblue" d="M441.192,-10C452.858,-10 465.141,-10 476.93,-10"/>
<polygon fill="midnightblue" stroke="midnightblue" points="441.126,-6.5001 431.126,-10 441.126,-13.5001 441.126,-6.5001"/>
</g>
<!-- Node89 -->
<g id="node6" class="node"><title>Node89</title>
<g id="a_node6"><a xlink:href="$d7/df9/class_cool_board.html#acba7c5aef7268b2c0044bdb54d3b9d76" xlink:title="CoolBoard::begin">
<polygon fill="white" stroke="black" points="641,-0.5 641,-19.5 733,-19.5 733,-0.5 641,-0.5"/>
<text text-anchor="middle" x="687" y="-7.5" font-family="Helvetica,sans-Serif" font-size="10.00">CoolBoard::begin</text>
</a>
</g>
</g>
<!-- Node88&#45;&gt;Node89 -->
<g id="edge5" class="edge"><title>Node88&#45;&gt;Node89</title>
<path fill="none" stroke="midnightblue" d="M615.283,-10C623.922,-10 632.536,-10 640.627,-10"/>
<polygon fill="midnightblue" stroke="midnightblue" points="615.161,-6.5001 605.16,-10 615.16,-13.5001 615.161,-6.5001"/>
</g>
</g>
</svg>
