<?xml version="1.0" encoding="UTF-8" standalone="no"?>
<!DOCTYPE svg PUBLIC "-//W3C//DTD SVG 1.1//EN"
 "http://www.w3.org/Graphics/SVG/1.1/DTD/svg11.dtd">
<!-- Generated by graphviz version 2.38.0 (20140413.2041)
 -->
<!-- Title: ExternalSensor.h Pages: 1 -->
<svg width="439pt" height="151pt"
 viewBox="0.00 0.00 439.00 151.00" xmlns="http://www.w3.org/2000/svg" xmlns:xlink="http://www.w3.org/1999/xlink">
<g id="graph0" class="graph" transform="scale(1 1) rotate(0) translate(4 147)">
<title>ExternalSensor.h</title>
<polygon fill="white" stroke="none" points="-4,4 -4,-147 435,-147 435,4 -4,4"/>
<!-- Node0 -->
<g id="node1" class="node"><title>Node0</title>
<polygon fill="#bfbfbf" stroke="black" points="190,-123.5 190,-142.5 282,-142.5 282,-123.5 190,-123.5"/>
<text text-anchor="middle" x="236" y="-130.5" font-family="Helvetica,sans-Serif" font-size="10.00">ExternalSensor.h</text>
</g>
<!-- Node1 -->
<g id="node2" class="node"><title>Node1</title>
<g id="a_node2"><a xlink:href="../../d0/d08/_cool_n_d_i_r___i2_c_8h.html" target="_top" xlink:title="internals/CoolNDIR\l_I2C.h">
<polygon fill="white" stroke="black" points="-7.10543e-15,-56.5 -7.10543e-15,-86.5 102,-86.5 102,-56.5 -7.10543e-15,-56.5"/>
<text text-anchor="start" x="8" y="-74.5" font-family="Helvetica,sans-Serif" font-size="10.00">internals/CoolNDIR</text>
<text text-anchor="middle" x="51" y="-63.5" font-family="Helvetica,sans-Serif" font-size="10.00">_I2C.h</text>
</a>
</g>
</g>
<!-- Node0&#45;&gt;Node1 -->
<g id="edge1" class="edge"><title>Node0&#45;&gt;Node1</title>
<path fill="none" stroke="midnightblue" d="M209.494,-123.475C182.214,-114.701 138.954,-100.788 104.517,-89.7123"/>
<polygon fill="midnightblue" stroke="midnightblue" points="105.192,-86.2529 94.6008,-86.523 103.049,-92.9167 105.192,-86.2529"/>
</g>
<!-- Node2 -->
<g id="node3" class="node"><title>Node2</title>
<polygon fill="white" stroke="#bfbfbf" points="119.5,-62 119.5,-81 226.5,-81 226.5,-62 119.5,-62"/>
<text text-anchor="middle" x="173" y="-69" font-family="Helvetica,sans-Serif" font-size="10.00">DallasTemperature.h</text>
</g>
<!-- Node0&#45;&gt;Node2 -->
<g id="edge2" class="edge"><title>Node0&#45;&gt;Node2</title>
<path fill="none" stroke="midnightblue" d="M226.974,-123.475C217.243,-114.285 201.542,-99.4563 189.577,-88.156"/>
<polygon fill="midnightblue" stroke="midnightblue" points="191.683,-85.3308 182.01,-81.0091 186.877,-90.4199 191.683,-85.3308"/>
</g>
<!-- Node3 -->
<g id="node4" class="node"><title>Node3</title>
<g id="a_node4"><a xlink:href="../../d3/d18/_cool_adafruit___t_c_s34725_8h.html" target="_top" xlink:title="internals/CoolAdafruit\l_TCS34725.h">
<polygon fill="white" stroke="black" points="245,-56.5 245,-86.5 355,-86.5 355,-56.5 245,-56.5"/>
<text text-anchor="start" x="253" y="-74.5" font-family="Helvetica,sans-Serif" font-size="10.00">internals/CoolAdafruit</text>
<text text-anchor="middle" x="300" y="-63.5" font-family="Helvetica,sans-Serif" font-size="10.00">_TCS34725.h</text>
</a>
</g>
</g>
<!-- Node0&#45;&gt;Node3 -->
<g id="edge3" class="edge"><title>Node0&#45;&gt;Node3</title>
<path fill="none" stroke="midnightblue" d="M245.17,-123.475C253.595,-115.643 266.425,-103.714 277.556,-93.3656"/>
<polygon fill="midnightblue" stroke="midnightblue" points="279.976,-95.8953 284.916,-86.523 275.209,-90.7685 279.976,-95.8953"/>
</g>
<!-- Node5 -->
<g id="node6" class="node"><title>Node5</title>
<polygon fill="white" stroke="#bfbfbf" points="373,-62 373,-81 431,-81 431,-62 373,-62"/>
<text text-anchor="middle" x="402" y="-69" font-family="Helvetica,sans-Serif" font-size="10.00">Arduino.h</text>
</g>
<!-- Node0&#45;&gt;Node5 -->
<g id="edge5" class="edge"><title>Node0&#45;&gt;Node5</title>
<path fill="none" stroke="midnightblue" d="M261.087,-123.4C286.945,-114.484 328.392,-100.05 364,-87 366.101,-86.23 368.264,-85.4285 370.441,-84.6151"/>
<polygon fill="midnightblue" stroke="midnightblue" points="371.814,-87.8383 379.934,-81.0331 369.342,-81.289 371.814,-87.8383"/>
</g>
<!-- Node4 -->
<g id="node5" class="node"><title>Node4</title>
<polygon fill="white" stroke="#bfbfbf" points="264.5,-0.5 264.5,-19.5 335.5,-19.5 335.5,-0.5 264.5,-0.5"/>
<text text-anchor="middle" x="300" y="-7.5" font-family="Helvetica,sans-Serif" font-size="10.00">WProgram.h</text>
</g>
<!-- Node3&#45;&gt;Node4 -->
<g id="edge4" class="edge"><title>Node3&#45;&gt;Node4</title>
<path fill="none" stroke="midnightblue" d="M300,-56.3993C300,-48.4664 300,-38.458 300,-29.8583"/>
<polygon fill="midnightblue" stroke="midnightblue" points="303.5,-29.6577 300,-19.6578 296.5,-29.6578 303.5,-29.6577"/>
</g>
</g>
</svg>
