<?xml version="1.0" encoding="UTF-8" standalone="no"?>
<!DOCTYPE svg PUBLIC "-//W3C//DTD SVG 1.1//EN"
 "http://www.w3.org/Graphics/SVG/1.1/DTD/svg11.dtd">
<!-- Generated by graphviz version 2.38.0 (20140413.2041)
 -->
<!-- Title: writeRegister Pages: 1 -->
<svg width="916pt" height="227pt"
 viewBox="0.00 0.00 916.00 226.50" xmlns="http://www.w3.org/2000/svg" xmlns:xlink="http://www.w3.org/1999/xlink">
<g id="graph0" class="graph" transform="scale(1 1) rotate(0) translate(4 222.5)">
<title>writeRegister</title>
<polygon fill="white" stroke="none" points="-4,4 -4,-222.5 912,-222.5 912,4 -4,4"/>
<!-- Node42 -->
<g id="node1" class="node"><title>Node42</title>
<polygon fill="#bfbfbf" stroke="black" points="0,-119.5 0,-138.5 74,-138.5 74,-119.5 0,-119.5"/>
<text text-anchor="middle" x="37" y="-126.5" font-family="Helvetica,sans-Serif" font-size="10.00">writeRegister</text>
</g>
<!-- Node43 -->
<g id="node2" class="node"><title>Node43</title>
<g id="a_node2"><a xlink:href="$df/df6/class_adafruit___a_d_s1015.html#a56582333958e66efaccd3d4a8a47e3ff" xlink:title="Reads the conversion results, measuring the voltage difference between the P (AIN0) and N (AIN1) inpu...">
<polygon fill="white" stroke="black" points="125,-188 125,-218 269,-218 269,-188 125,-188"/>
<text text-anchor="start" x="133" y="-206" font-family="Helvetica,sans-Serif" font-size="10.00">Adafruit_ADS1015::readADC</text>
<text text-anchor="middle" x="197" y="-195" font-family="Helvetica,sans-Serif" font-size="10.00">_Differential_0_1</text>
</a>
</g>
</g>
<!-- Node42&#45;&gt;Node43 -->
<g id="edge1" class="edge"><title>Node42&#45;&gt;Node43</title>
<path fill="none" stroke="midnightblue" d="M57.3379,-145.115C71.2404,-156.006 90.8401,-169.99 110,-179 117.154,-182.364 124.871,-185.34 132.642,-187.95"/>
<polygon fill="midnightblue" stroke="midnightblue" points="59.4631,-142.333 49.4726,-138.806 55.083,-147.793 59.4631,-142.333"/>
</g>
<!-- Node44 -->
<g id="node3" class="node"><title>Node44</title>
<g id="a_node3"><a xlink:href="$df/df6/class_adafruit___a_d_s1015.html#a38311881bcab46f7496c4bb6e4cad576" xlink:title="Reads the conversion results, measuring the voltage difference between the P (AIN2) and N (AIN3) inpu...">
<polygon fill="white" stroke="black" points="125,-139 125,-169 269,-169 269,-139 125,-139"/>
<text text-anchor="start" x="133" y="-157" font-family="Helvetica,sans-Serif" font-size="10.00">Adafruit_ADS1015::readADC</text>
<text text-anchor="middle" x="197" y="-146" font-family="Helvetica,sans-Serif" font-size="10.00">_Differential_2_3</text>
</a>
</g>
</g>
<!-- Node42&#45;&gt;Node44 -->
<g id="edge2" class="edge"><title>Node42&#45;&gt;Node44</title>
<path fill="none" stroke="midnightblue" d="M84.5016,-136.358C97.1265,-138.355 111.093,-140.565 124.747,-142.726"/>
<polygon fill="midnightblue" stroke="midnightblue" points="84.6725,-132.841 74.2484,-134.736 83.5785,-139.755 84.6725,-132.841"/>
</g>
<!-- Node45 -->
<g id="node4" class="node"><title>Node45</title>
<g id="a_node4"><a xlink:href="$df/df6/class_adafruit___a_d_s1015.html#a40f38b9e1f3ec397c0670dd632510235" xlink:title="Gets a single&#45;ended ADC reading from the specified channel. ">
<polygon fill="white" stroke="black" points="125,-90 125,-120 269,-120 269,-90 125,-90"/>
<text text-anchor="start" x="133" y="-108" font-family="Helvetica,sans-Serif" font-size="10.00">Adafruit_ADS1015::readADC</text>
<text text-anchor="middle" x="197" y="-97" font-family="Helvetica,sans-Serif" font-size="10.00">_SingleEnded</text>
</a>
</g>
</g>
<!-- Node42&#45;&gt;Node45 -->
<g id="edge3" class="edge"><title>Node42&#45;&gt;Node45</title>
<path fill="none" stroke="midnightblue" d="M84.5016,-121.936C97.1265,-120.019 111.093,-117.897 124.747,-115.823"/>
<polygon fill="midnightblue" stroke="midnightblue" points="83.6093,-118.532 74.2484,-123.494 84.6606,-125.452 83.6093,-118.532"/>
</g>
<!-- Node58 -->
<g id="node17" class="node"><title>Node58</title>
<g id="a_node17"><a xlink:href="$df/df6/class_adafruit___a_d_s1015.html#aecd30775d943ea9d9cff0e3485926596" xlink:title="Sets up the comparator to operate in basic mode, causing the ALERT/RDY pin to assert (go from high to...">
<polygon fill="white" stroke="black" points="110,-41 110,-71 284,-71 284,-41 110,-41"/>
<text text-anchor="start" x="118" y="-59" font-family="Helvetica,sans-Serif" font-size="10.00">Adafruit_ADS1015::startComparator</text>
<text text-anchor="middle" x="197" y="-48" font-family="Helvetica,sans-Serif" font-size="10.00">_SingleEnded</text>
</a>
</g>
</g>
<!-- Node42&#45;&gt;Node58 -->
<g id="edge20" class="edge"><title>Node42&#45;&gt;Node58</title>
<path fill="none" stroke="midnightblue" d="M58.115,-113.153C72.0331,-102.817 91.3401,-89.6813 110,-81 118.036,-77.2615 126.756,-73.9485 135.459,-71.0567"/>
<polygon fill="midnightblue" stroke="midnightblue" points="55.6517,-110.629 49.8079,-119.467 59.8874,-116.202 55.6517,-110.629"/>
</g>
<!-- Node46 -->
<g id="node5" class="node"><title>Node46</title>
<g id="a_node5"><a xlink:href="$d6/d03/class_irene3000.html#a78a87eb7cf295b95c12b2ebd51c2bb77" xlink:title="Irene3000::readButton">
<polygon fill="white" stroke="black" points="336.5,-190.5 336.5,-209.5 449.5,-209.5 449.5,-190.5 336.5,-190.5"/>
<text text-anchor="middle" x="393" y="-197.5" font-family="Helvetica,sans-Serif" font-size="10.00">Irene3000::readButton</text>
</a>
</g>
</g>
<!-- Node45&#45;&gt;Node46 -->
<g id="edge4" class="edge"><title>Node45&#45;&gt;Node46</title>
<path fill="none" stroke="midnightblue" d="M275.431,-124.614C278.407,-126.268 281.278,-128.059 284,-130 306.589,-146.11 297.213,-165.173 320,-181 325.628,-184.909 332.011,-188.013 338.596,-190.479"/>
<polygon fill="midnightblue" stroke="midnightblue" points="276.746,-121.36 266.231,-120.058 273.639,-127.633 276.746,-121.36"/>
</g>
<!-- Node49 -->
<g id="node8" class="node"><title>Node49</title>
<g id="a_node8"><a xlink:href="$d6/d03/class_irene3000.html#ae73bd2ed14a199a7e83f4d6458476a7c" xlink:title="Irene3000::readADSChannel2">
<polygon fill="white" stroke="black" points="320,-76.5 320,-95.5 466,-95.5 466,-76.5 320,-76.5"/>
<text text-anchor="middle" x="393" y="-83.5" font-family="Helvetica,sans-Serif" font-size="10.00">Irene3000::readADSChannel2</text>
</a>
</g>
</g>
<!-- Node45&#45;&gt;Node49 -->
<g id="edge7" class="edge"><title>Node45&#45;&gt;Node49</title>
<path fill="none" stroke="midnightblue" d="M279.335,-97.0342C292.801,-95.7154 306.68,-94.3561 319.897,-93.0616"/>
<polygon fill="midnightblue" stroke="midnightblue" points="278.748,-93.5748 269.137,-98.033 279.43,-100.542 278.748,-93.5748"/>
</g>
<!-- Node54 -->
<g id="node13" class="node"><title>Node54</title>
<g id="a_node13"><a xlink:href="$d6/d03/class_irene3000.html#a436fc0a06681cd0784aba56b9707f19a" xlink:title="Irene3000::readPh">
<polygon fill="white" stroke="black" points="345,-38.5 345,-57.5 441,-57.5 441,-38.5 345,-38.5"/>
<text text-anchor="middle" x="393" y="-45.5" font-family="Helvetica,sans-Serif" font-size="10.00">Irene3000::readPh</text>
</a>
</g>
</g>
<!-- Node45&#45;&gt;Node54 -->
<g id="edge12" class="edge"><title>Node45&#45;&gt;Node54</title>
<path fill="none" stroke="midnightblue" d="M265.17,-86.9474C271.56,-85.0222 277.92,-83.0252 284,-81 300.288,-75.575 303.674,-72.3097 320,-67 330.45,-63.6013 341.898,-60.3649 352.529,-57.5577"/>
<polygon fill="midnightblue" stroke="midnightblue" points="263.741,-83.72 255.14,-89.9071 265.722,-90.4338 263.741,-83.72"/>
</g>
<!-- Node55 -->
<g id="node14" class="node"><title>Node55</title>
<g id="a_node14"><a xlink:href="$d6/d03/class_irene3000.html#a80bc6dfea106dc3bc54fa20204d4d5dc" xlink:title="Irene3000::readTemp">
<polygon fill="white" stroke="black" points="338.5,-0.5 338.5,-19.5 447.5,-19.5 447.5,-0.5 338.5,-0.5"/>
<text text-anchor="middle" x="393" y="-7.5" font-family="Helvetica,sans-Serif" font-size="10.00">Irene3000::readTemp</text>
</a>
</g>
</g>
<!-- Node45&#45;&gt;Node55 -->
<g id="edge14" class="edge"><title>Node45&#45;&gt;Node55</title>
<path fill="none" stroke="midnightblue" d="M277.452,-85.2109C279.711,-83.8963 281.901,-82.4946 284,-81 306.899,-64.6974 296.987,-45.1403 320,-29 325.504,-25.1399 331.742,-22.0641 338.19,-19.6131"/>
<polygon fill="midnightblue" stroke="midnightblue" points="275.721,-82.1659 268.439,-89.8615 278.93,-88.3867 275.721,-82.1659"/>
</g>
<!-- Node56 -->
<g id="node15" class="node"><title>Node56</title>
<g id="a_node15"><a xlink:href="$d6/d03/class_irene3000.html#a1d3299202e4cb7afcff9c9e3e95d94c1" xlink:title="Irene3000::calibratepH7">
<polygon fill="white" stroke="black" points="333,-152.5 333,-171.5 453,-171.5 453,-152.5 333,-152.5"/>
<text text-anchor="middle" x="393" y="-159.5" font-family="Helvetica,sans-Serif" font-size="10.00">Irene3000::calibratepH7</text>
</a>
</g>
</g>
<!-- Node45&#45;&gt;Node56 -->
<g id="edge16" class="edge"><title>Node45&#45;&gt;Node56</title>
<path fill="none" stroke="midnightblue" d="M261.442,-122.946C269.065,-125.249 276.723,-127.631 284,-130 300.176,-135.266 303.76,-137.936 320,-143 330.737,-146.348 342.492,-149.615 353.333,-152.469"/>
<polygon fill="midnightblue" stroke="midnightblue" points="262.419,-119.585 251.836,-120.079 260.417,-126.293 262.419,-119.585"/>
</g>
<!-- Node57 -->
<g id="node16" class="node"><title>Node57</title>
<g id="a_node16"><a xlink:href="$d6/d03/class_irene3000.html#aa140dd026922a04981edfd04d46cabbe" xlink:title="Irene3000::calibratepH4">
<polygon fill="white" stroke="black" points="333,-114.5 333,-133.5 453,-133.5 453,-114.5 333,-114.5"/>
<text text-anchor="middle" x="393" y="-121.5" font-family="Helvetica,sans-Serif" font-size="10.00">Irene3000::calibratepH4</text>
</a>
</g>
</g>
<!-- Node45&#45;&gt;Node57 -->
<g id="edge18" class="edge"><title>Node45&#45;&gt;Node57</title>
<path fill="none" stroke="midnightblue" d="M279.333,-112.966C297.327,-114.728 316.06,-116.563 332.966,-118.218"/>
<polygon fill="midnightblue" stroke="midnightblue" points="279.43,-109.458 269.137,-111.967 278.748,-116.425 279.43,-109.458"/>
</g>
<!-- Node47 -->
<g id="node6" class="node"><title>Node47</title>
<g id="a_node6"><a xlink:href="$d6/d03/class_irene3000.html#ad5891806c500ae1007afe52b9e304c2b" xlink:title="Irene3000::begin">
<polygon fill="white" stroke="black" points="502,-152.5 502,-171.5 591,-171.5 591,-152.5 502,-152.5"/>
<text text-anchor="middle" x="546.5" y="-159.5" font-family="Helvetica,sans-Serif" font-size="10.00">Irene3000::begin</text>
</a>
</g>
</g>
<!-- Node46&#45;&gt;Node47 -->
<g id="edge5" class="edge"><title>Node46&#45;&gt;Node47</title>
<path fill="none" stroke="midnightblue" d="M442.002,-187.96C463.167,-182.651 487.686,-176.501 507.545,-171.52"/>
<polygon fill="midnightblue" stroke="midnightblue" points="441.078,-184.583 432.23,-190.411 442.781,-191.373 441.078,-184.583"/>
</g>
<!-- Node48 -->
<g id="node7" class="node"><title>Node48</title>
<g id="a_node7"><a xlink:href="$d7/df9/class_cool_board.html#acba7c5aef7268b2c0044bdb54d3b9d76" xlink:title="CoolBoard::begin">
<polygon fill="white" stroke="black" points="642.5,-152.5 642.5,-171.5 734.5,-171.5 734.5,-152.5 642.5,-152.5"/>
<text text-anchor="middle" x="688.5" y="-159.5" font-family="Helvetica,sans-Serif" font-size="10.00">CoolBoard::begin</text>
</a>
</g>
</g>
<!-- Node47&#45;&gt;Node48 -->
<g id="edge6" class="edge"><title>Node47&#45;&gt;Node48</title>
<path fill="none" stroke="midnightblue" d="M601.149,-162C614.649,-162 629.007,-162 642.061,-162"/>
<polygon fill="midnightblue" stroke="midnightblue" points="601.029,-158.5 591.029,-162 601.029,-165.5 601.029,-158.5"/>
</g>
<!-- Node50 -->
<g id="node9" class="node"><title>Node50</title>
<g id="a_node9"><a xlink:href="$d6/d03/class_irene3000.html#a852a170feea994ea1df01c6b245b5d9a" xlink:title="Irene3000::read">
<polygon fill="white" stroke="black" points="504.5,-38.5 504.5,-57.5 588.5,-57.5 588.5,-38.5 504.5,-38.5"/>
<text text-anchor="middle" x="546.5" y="-45.5" font-family="Helvetica,sans-Serif" font-size="10.00">Irene3000::read</text>
</a>
</g>
</g>
<!-- Node49&#45;&gt;Node50 -->
<g id="edge8" class="edge"><title>Node49&#45;&gt;Node50</title>
<path fill="none" stroke="midnightblue" d="M442.002,-73.96C463.167,-68.6512 487.686,-62.5012 507.545,-57.5201"/>
<polygon fill="midnightblue" stroke="midnightblue" points="441.078,-70.5832 432.23,-76.411 442.781,-77.3729 441.078,-70.5832"/>
</g>
<!-- Node51 -->
<g id="node10" class="node"><title>Node51</title>
<g id="a_node10"><a xlink:href="$d7/df9/class_cool_board.html#ad03abdce2e65f520bbf2cff0f2d083cf" xlink:title="CoolBoard::readSensors">
<polygon fill="white" stroke="black" points="627,-38.5 627,-57.5 750,-57.5 750,-38.5 627,-38.5"/>
<text text-anchor="middle" x="688.5" y="-45.5" font-family="Helvetica,sans-Serif" font-size="10.00">CoolBoard::readSensors</text>
</a>
</g>
</g>
<!-- Node50&#45;&gt;Node51 -->
<g id="edge9" class="edge"><title>Node50&#45;&gt;Node51</title>
<path fill="none" stroke="midnightblue" d="M598.806,-48C607.919,-48 617.489,-48 626.832,-48"/>
<polygon fill="midnightblue" stroke="midnightblue" points="598.747,-44.5001 588.747,-48 598.747,-51.5001 598.747,-44.5001"/>
</g>
<!-- Node52 -->
<g id="node11" class="node"><title>Node52</title>
<g id="a_node11"><a xlink:href="$d7/df9/class_cool_board.html#aa0bbc4bc605e35618d18e68795c61363" xlink:title="CoolBoard::onLineMode">
<polygon fill="white" stroke="black" points="786.5,-57.5 786.5,-76.5 907.5,-76.5 907.5,-57.5 786.5,-57.5"/>
<text text-anchor="middle" x="847" y="-64.5" font-family="Helvetica,sans-Serif" font-size="10.00">CoolBoard::onLineMode</text>
</a>
</g>
</g>
<!-- Node51&#45;&gt;Node52 -->
<g id="edge10" class="edge"><title>Node51&#45;&gt;Node52</title>
<path fill="none" stroke="midnightblue" d="M760.207,-56.5842C768.968,-57.6478 777.856,-58.7269 786.427,-59.7675"/>
<polygon fill="midnightblue" stroke="midnightblue" points="760.356,-53.0767 750.007,-55.3459 759.512,-60.0257 760.356,-53.0767"/>
</g>
<!-- Node53 -->
<g id="node12" class="node"><title>Node53</title>
<g id="a_node12"><a xlink:href="$d7/df9/class_cool_board.html#ae6b5e1274d760462290192acea4adca8" xlink:title="CoolBoard::offLineMode">
<polygon fill="white" stroke="black" points="786,-19.5 786,-38.5 908,-38.5 908,-19.5 786,-19.5"/>
<text text-anchor="middle" x="847" y="-26.5" font-family="Helvetica,sans-Serif" font-size="10.00">CoolBoard::offLineMode</text>
</a>
</g>
</g>
<!-- Node51&#45;&gt;Node53 -->
<g id="edge11" class="edge"><title>Node51&#45;&gt;Node53</title>
<path fill="none" stroke="midnightblue" d="M760.059,-39.4338C768.692,-38.3856 777.452,-37.3221 785.912,-36.2951"/>
<polygon fill="midnightblue" stroke="midnightblue" points="759.512,-35.9743 750.007,-40.6541 760.356,-42.9233 759.512,-35.9743"/>
</g>
<!-- Node54&#45;&gt;Node50 -->
<g id="edge13" class="edge"><title>Node54&#45;&gt;Node50</title>
<path fill="none" stroke="midnightblue" d="M451.293,-48C468.929,-48 487.987,-48 504.316,-48"/>
<polygon fill="midnightblue" stroke="midnightblue" points="451.105,-44.5001 441.105,-48 451.105,-51.5001 451.105,-44.5001"/>
</g>
<!-- Node55&#45;&gt;Node50 -->
<g id="edge15" class="edge"><title>Node55&#45;&gt;Node50</title>
<path fill="none" stroke="midnightblue" d="M442.002,-22.04C463.167,-27.3488 487.686,-33.4988 507.545,-38.4799"/>
<polygon fill="midnightblue" stroke="midnightblue" points="442.781,-18.6271 432.23,-19.589 441.078,-25.4168 442.781,-18.6271"/>
</g>
<!-- Node56&#45;&gt;Node47 -->
<g id="edge17" class="edge"><title>Node56&#45;&gt;Node47</title>
<path fill="none" stroke="midnightblue" d="M463.038,-162C476.261,-162 489.758,-162 501.902,-162"/>
<polygon fill="midnightblue" stroke="midnightblue" points="463.008,-158.5 453.008,-162 463.008,-165.5 463.008,-158.5"/>
</g>
<!-- Node57&#45;&gt;Node47 -->
<g id="edge19" class="edge"><title>Node57&#45;&gt;Node47</title>
<path fill="none" stroke="midnightblue" d="M442.002,-136.04C463.167,-141.349 487.686,-147.499 507.545,-152.48"/>
<polygon fill="midnightblue" stroke="midnightblue" points="442.781,-132.627 432.23,-133.589 441.078,-139.417 442.781,-132.627"/>
</g>
</g>
</svg>
