<?xml version="1.0" encoding="UTF-8" standalone="no"?>
<!DOCTYPE svg PUBLIC "-//W3C//DTD SVG 1.1//EN"
 "http://www.w3.org/Graphics/SVG/1.1/DTD/svg11.dtd">
<!-- Generated by graphviz version 2.38.0 (20140413.2041)
 -->
<!-- Title: readRegister Pages: 1 -->
<svg width="884pt" height="276pt"
 viewBox="0.00 0.00 884.00 275.50" xmlns="http://www.w3.org/2000/svg" xmlns:xlink="http://www.w3.org/1999/xlink">
<g id="graph0" class="graph" transform="scale(1 1) rotate(0) translate(4 271.5)">
<title>readRegister</title>
<polygon fill="white" stroke="none" points="-4,4 -4,-271.5 880,-271.5 880,4 -4,4"/>
<!-- Node43 -->
<g id="node1" class="node"><title>Node43</title>
<polygon fill="#bfbfbf" stroke="black" points="0,-79 0,-98 72,-98 72,-79 0,-79"/>
<text text-anchor="middle" x="36" y="-86" font-family="Helvetica,sans-Serif" font-size="10.00">readRegister</text>
</g>
<!-- Node44 -->
<g id="node2" class="node"><title>Node44</title>
<g id="a_node2"><a xlink:href="$df/df6/class_adafruit___a_d_s1015.html#a40f38b9e1f3ec397c0670dd632510235" xlink:title="Gets a single&#45;ended ADC reading from the specified channel. ">
<polygon fill="white" stroke="black" points="108,-147.5 108,-177.5 252,-177.5 252,-147.5 108,-147.5"/>
<text text-anchor="start" x="116" y="-165.5" font-family="Helvetica,sans-Serif" font-size="10.00">Adafruit_ADS1015::readADC</text>
<text text-anchor="middle" x="180" y="-154.5" font-family="Helvetica,sans-Serif" font-size="10.00">_SingleEnded</text>
</a>
</g>
</g>
<!-- Node43&#45;&gt;Node44 -->
<g id="edge1" class="edge"><title>Node43&#45;&gt;Node44</title>
<path fill="none" stroke="midnightblue" d="M56.5798,-104.617C70.3182,-115.326 89.4738,-129.095 108,-138.5 114.497,-141.798 121.549,-144.802 128.603,-147.482"/>
<polygon fill="midnightblue" stroke="midnightblue" points="58.3978,-101.591 48.3951,-98.0983 54.0368,-107.066 58.3978,-101.591"/>
</g>
<!-- Node57 -->
<g id="node15" class="node"><title>Node57</title>
<g id="a_node15"><a xlink:href="$df/df6/class_adafruit___a_d_s1015.html#a56582333958e66efaccd3d4a8a47e3ff" xlink:title="Reads the conversion results, measuring the voltage difference between the P (AIN0) and N (AIN1) inpu...">
<polygon fill="white" stroke="black" points="108,-98.5 108,-128.5 252,-128.5 252,-98.5 108,-98.5"/>
<text text-anchor="start" x="116" y="-116.5" font-family="Helvetica,sans-Serif" font-size="10.00">Adafruit_ADS1015::readADC</text>
<text text-anchor="middle" x="180" y="-105.5" font-family="Helvetica,sans-Serif" font-size="10.00">_Differential_0_1</text>
</a>
</g>
</g>
<!-- Node43&#45;&gt;Node57 -->
<g id="edge18" class="edge"><title>Node43&#45;&gt;Node57</title>
<path fill="none" stroke="midnightblue" d="M82.1962,-96.4571C90.4236,-97.9056 99.1861,-99.4483 107.95,-100.991"/>
<polygon fill="midnightblue" stroke="midnightblue" points="82.5566,-92.9668 72.1011,-94.6798 81.3428,-99.8607 82.5566,-92.9668"/>
</g>
<!-- Node58 -->
<g id="node16" class="node"><title>Node58</title>
<g id="a_node16"><a xlink:href="$df/df6/class_adafruit___a_d_s1015.html#a38311881bcab46f7496c4bb6e4cad576" xlink:title="Reads the conversion results, measuring the voltage difference between the P (AIN2) and N (AIN3) inpu...">
<polygon fill="white" stroke="black" points="108,-49.5 108,-79.5 252,-79.5 252,-49.5 108,-49.5"/>
<text text-anchor="start" x="116" y="-67.5" font-family="Helvetica,sans-Serif" font-size="10.00">Adafruit_ADS1015::readADC</text>
<text text-anchor="middle" x="180" y="-56.5" font-family="Helvetica,sans-Serif" font-size="10.00">_Differential_2_3</text>
</a>
</g>
</g>
<!-- Node43&#45;&gt;Node58 -->
<g id="edge19" class="edge"><title>Node43&#45;&gt;Node58</title>
<path fill="none" stroke="midnightblue" d="M82.1962,-80.8612C90.4236,-79.4707 99.1861,-77.9897 107.95,-76.5085"/>
<polygon fill="midnightblue" stroke="midnightblue" points="81.378,-77.4498 72.1011,-82.5674 82.5446,-84.3519 81.378,-77.4498"/>
</g>
<!-- Node59 -->
<g id="node17" class="node"><title>Node59</title>
<g id="a_node17"><a xlink:href="$df/df6/class_adafruit___a_d_s1015.html#ad8f36d80847020778425107f6451a8c2" xlink:title="In order to clear the comparator, we need to read the conversion results. This function reads the las...">
<polygon fill="white" stroke="black" points="112,-0.5 112,-30.5 248,-30.5 248,-0.5 112,-0.5"/>
<text text-anchor="start" x="120" y="-18.5" font-family="Helvetica,sans-Serif" font-size="10.00">Adafruit_ADS1015::getLast</text>
<text text-anchor="middle" x="180" y="-7.5" font-family="Helvetica,sans-Serif" font-size="10.00">ConversionResults</text>
</a>
</g>
</g>
<!-- Node43&#45;&gt;Node59 -->
<g id="edge20" class="edge"><title>Node43&#45;&gt;Node59</title>
<path fill="none" stroke="midnightblue" d="M57.1234,-72.3545C70.8463,-61.9259 89.7713,-48.6457 108,-39.5 114.513,-36.2324 121.574,-33.246 128.631,-30.574"/>
<polygon fill="midnightblue" stroke="midnightblue" points="54.6706,-69.8276 48.9163,-78.7236 58.9623,-75.3577 54.6706,-69.8276"/>
</g>
<!-- Node45 -->
<g id="node3" class="node"><title>Node45</title>
<g id="a_node3"><a xlink:href="$d6/d03/class_irene3000.html#a78a87eb7cf295b95c12b2ebd51c2bb77" xlink:title="Irene3000::readButton">
<polygon fill="white" stroke="black" points="304.5,-248 304.5,-267 417.5,-267 417.5,-248 304.5,-248"/>
<text text-anchor="middle" x="361" y="-255" font-family="Helvetica,sans-Serif" font-size="10.00">Irene3000::readButton</text>
</a>
</g>
</g>
<!-- Node44&#45;&gt;Node45 -->
<g id="edge2" class="edge"><title>Node44&#45;&gt;Node45</title>
<path fill="none" stroke="midnightblue" d="M205.624,-183.925C226.337,-200.938 257.394,-224.173 288,-238.5 296.079,-242.282 305.033,-245.405 313.805,-247.95"/>
<polygon fill="midnightblue" stroke="midnightblue" points="207.867,-181.238 197.948,-177.514 203.38,-186.611 207.867,-181.238"/>
</g>
<!-- Node48 -->
<g id="node6" class="node"><title>Node48</title>
<g id="a_node6"><a xlink:href="$d6/d03/class_irene3000.html#ae73bd2ed14a199a7e83f4d6458476a7c" xlink:title="Irene3000::readADSChannel2">
<polygon fill="white" stroke="black" points="288,-134 288,-153 434,-153 434,-134 288,-134"/>
<text text-anchor="middle" x="361" y="-141" font-family="Helvetica,sans-Serif" font-size="10.00">Irene3000::readADSChannel2</text>
</a>
</g>
</g>
<!-- Node44&#45;&gt;Node48 -->
<g id="edge5" class="edge"><title>Node44&#45;&gt;Node48</title>
<path fill="none" stroke="midnightblue" d="M262.055,-153.896C270.676,-152.981 279.403,-152.055 287.911,-151.152"/>
<polygon fill="midnightblue" stroke="midnightblue" points="261.577,-150.427 252.003,-154.963 262.316,-157.388 261.577,-150.427"/>
</g>
<!-- Node53 -->
<g id="node11" class="node"><title>Node53</title>
<g id="a_node11"><a xlink:href="$d6/d03/class_irene3000.html#a436fc0a06681cd0784aba56b9707f19a" xlink:title="Irene3000::readPh">
<polygon fill="white" stroke="black" points="313,-96 313,-115 409,-115 409,-96 313,-96"/>
<text text-anchor="middle" x="361" y="-103" font-family="Helvetica,sans-Serif" font-size="10.00">Irene3000::readPh</text>
</a>
</g>
</g>
<!-- Node44&#45;&gt;Node53 -->
<g id="edge10" class="edge"><title>Node44&#45;&gt;Node53</title>
<path fill="none" stroke="midnightblue" d="M236.174,-144.121C241.533,-142.254 246.879,-140.36 252,-138.5 268.136,-132.639 271.674,-129.81 288,-124.5 298.45,-121.101 309.898,-117.865 320.529,-115.058"/>
<polygon fill="midnightblue" stroke="midnightblue" points="234.869,-140.868 226.557,-147.438 237.152,-147.486 234.869,-140.868"/>
</g>
<!-- Node54 -->
<g id="node12" class="node"><title>Node54</title>
<g id="a_node12"><a xlink:href="$d6/d03/class_irene3000.html#a80bc6dfea106dc3bc54fa20204d4d5dc" xlink:title="Irene3000::readTemp">
<polygon fill="white" stroke="black" points="306.5,-58 306.5,-77 415.5,-77 415.5,-58 306.5,-58"/>
<text text-anchor="middle" x="361" y="-65" font-family="Helvetica,sans-Serif" font-size="10.00">Irene3000::readTemp</text>
</a>
</g>
</g>
<!-- Node44&#45;&gt;Node54 -->
<g id="edge12" class="edge"><title>Node44&#45;&gt;Node54</title>
<path fill="none" stroke="midnightblue" d="M246.188,-142.467C248.198,-141.22 250.142,-139.899 252,-138.5 274.452,-121.587 264.987,-102.64 288,-86.5 293.504,-82.6399 299.742,-79.5641 306.19,-77.1131"/>
<polygon fill="midnightblue" stroke="midnightblue" points="244.122,-139.607 237.021,-147.47 247.475,-145.752 244.122,-139.607"/>
</g>
<!-- Node55 -->
<g id="node13" class="node"><title>Node55</title>
<g id="a_node13"><a xlink:href="$d6/d03/class_irene3000.html#a1d3299202e4cb7afcff9c9e3e95d94c1" xlink:title="Irene3000::calibratepH7">
<polygon fill="white" stroke="black" points="301,-210 301,-229 421,-229 421,-210 301,-210"/>
<text text-anchor="middle" x="361" y="-217" font-family="Helvetica,sans-Serif" font-size="10.00">Irene3000::calibratepH7</text>
</a>
</g>
</g>
<!-- Node44&#45;&gt;Node55 -->
<g id="edge14" class="edge"><title>Node44&#45;&gt;Node55</title>
<path fill="none" stroke="midnightblue" d="M230.574,-181.074C248.552,-187.553 269.089,-194.658 288,-200.5 298.746,-203.82 310.504,-207.078 321.344,-209.932"/>
<polygon fill="midnightblue" stroke="midnightblue" points="231.47,-177.676 220.876,-177.552 229.08,-184.255 231.47,-177.676"/>
</g>
<!-- Node56 -->
<g id="node14" class="node"><title>Node56</title>
<g id="a_node14"><a xlink:href="$d6/d03/class_irene3000.html#aa140dd026922a04981edfd04d46cabbe" xlink:title="Irene3000::calibratepH4">
<polygon fill="white" stroke="black" points="301,-172 301,-191 421,-191 421,-172 301,-172"/>
<text text-anchor="middle" x="361" y="-179" font-family="Helvetica,sans-Serif" font-size="10.00">Irene3000::calibratepH4</text>
</a>
</g>
</g>
<!-- Node44&#45;&gt;Node56 -->
<g id="edge16" class="edge"><title>Node44&#45;&gt;Node56</title>
<path fill="none" stroke="midnightblue" d="M261.962,-171.094C275.074,-172.485 288.432,-173.903 300.897,-175.227"/>
<polygon fill="midnightblue" stroke="midnightblue" points="262.316,-167.612 252.003,-170.037 261.577,-174.573 262.316,-167.612"/>
</g>
<!-- Node46 -->
<g id="node4" class="node"><title>Node46</title>
<g id="a_node4"><a xlink:href="$d6/d03/class_irene3000.html#ad5891806c500ae1007afe52b9e304c2b" xlink:title="Irene3000::begin">
<polygon fill="white" stroke="black" points="470,-210 470,-229 559,-229 559,-210 470,-210"/>
<text text-anchor="middle" x="514.5" y="-217" font-family="Helvetica,sans-Serif" font-size="10.00">Irene3000::begin</text>
</a>
</g>
</g>
<!-- Node45&#45;&gt;Node46 -->
<g id="edge3" class="edge"><title>Node45&#45;&gt;Node46</title>
<path fill="none" stroke="midnightblue" d="M410.002,-245.46C431.167,-240.151 455.686,-234.001 475.545,-229.02"/>
<polygon fill="midnightblue" stroke="midnightblue" points="409.078,-242.083 400.23,-247.911 410.781,-248.873 409.078,-242.083"/>
</g>
<!-- Node47 -->
<g id="node5" class="node"><title>Node47</title>
<g id="a_node5"><a xlink:href="$d7/df9/class_cool_board.html#acba7c5aef7268b2c0044bdb54d3b9d76" xlink:title="CoolBoard::begin">
<polygon fill="white" stroke="black" points="610.5,-210 610.5,-229 702.5,-229 702.5,-210 610.5,-210"/>
<text text-anchor="middle" x="656.5" y="-217" font-family="Helvetica,sans-Serif" font-size="10.00">CoolBoard::begin</text>
</a>
</g>
</g>
<!-- Node46&#45;&gt;Node47 -->
<g id="edge4" class="edge"><title>Node46&#45;&gt;Node47</title>
<path fill="none" stroke="midnightblue" d="M569.149,-219.5C582.649,-219.5 597.007,-219.5 610.061,-219.5"/>
<polygon fill="midnightblue" stroke="midnightblue" points="569.029,-216 559.029,-219.5 569.029,-223 569.029,-216"/>
</g>
<!-- Node49 -->
<g id="node7" class="node"><title>Node49</title>
<g id="a_node7"><a xlink:href="$d6/d03/class_irene3000.html#a852a170feea994ea1df01c6b245b5d9a" xlink:title="Irene3000::read">
<polygon fill="white" stroke="black" points="472.5,-96 472.5,-115 556.5,-115 556.5,-96 472.5,-96"/>
<text text-anchor="middle" x="514.5" y="-103" font-family="Helvetica,sans-Serif" font-size="10.00">Irene3000::read</text>
</a>
</g>
</g>
<!-- Node48&#45;&gt;Node49 -->
<g id="edge6" class="edge"><title>Node48&#45;&gt;Node49</title>
<path fill="none" stroke="midnightblue" d="M410.002,-131.46C431.167,-126.151 455.686,-120.001 475.545,-115.02"/>
<polygon fill="midnightblue" stroke="midnightblue" points="409.078,-128.083 400.23,-133.911 410.781,-134.873 409.078,-128.083"/>
</g>
<!-- Node50 -->
<g id="node8" class="node"><title>Node50</title>
<g id="a_node8"><a xlink:href="$d7/df9/class_cool_board.html#ad03abdce2e65f520bbf2cff0f2d083cf" xlink:title="CoolBoard::readSensors">
<polygon fill="white" stroke="black" points="595,-96 595,-115 718,-115 718,-96 595,-96"/>
<text text-anchor="middle" x="656.5" y="-103" font-family="Helvetica,sans-Serif" font-size="10.00">CoolBoard::readSensors</text>
</a>
</g>
</g>
<!-- Node49&#45;&gt;Node50 -->
<g id="edge7" class="edge"><title>Node49&#45;&gt;Node50</title>
<path fill="none" stroke="midnightblue" d="M566.806,-105.5C575.919,-105.5 585.489,-105.5 594.832,-105.5"/>
<polygon fill="midnightblue" stroke="midnightblue" points="566.747,-102 556.747,-105.5 566.747,-109 566.747,-102"/>
</g>
<!-- Node51 -->
<g id="node9" class="node"><title>Node51</title>
<g id="a_node9"><a xlink:href="$d7/df9/class_cool_board.html#aa0bbc4bc605e35618d18e68795c61363" xlink:title="CoolBoard::onLineMode">
<polygon fill="white" stroke="black" points="754.5,-115 754.5,-134 875.5,-134 875.5,-115 754.5,-115"/>
<text text-anchor="middle" x="815" y="-122" font-family="Helvetica,sans-Serif" font-size="10.00">CoolBoard::onLineMode</text>
</a>
</g>
</g>
<!-- Node50&#45;&gt;Node51 -->
<g id="edge8" class="edge"><title>Node50&#45;&gt;Node51</title>
<path fill="none" stroke="midnightblue" d="M728.207,-114.084C736.968,-115.148 745.856,-116.227 754.427,-117.267"/>
<polygon fill="midnightblue" stroke="midnightblue" points="728.356,-110.577 718.007,-112.846 727.512,-117.526 728.356,-110.577"/>
</g>
<!-- Node52 -->
<g id="node10" class="node"><title>Node52</title>
<g id="a_node10"><a xlink:href="$d7/df9/class_cool_board.html#ae6b5e1274d760462290192acea4adca8" xlink:title="CoolBoard::offLineMode">
<polygon fill="white" stroke="black" points="754,-77 754,-96 876,-96 876,-77 754,-77"/>
<text text-anchor="middle" x="815" y="-84" font-family="Helvetica,sans-Serif" font-size="10.00">CoolBoard::offLineMode</text>
</a>
</g>
</g>
<!-- Node50&#45;&gt;Node52 -->
<g id="edge9" class="edge"><title>Node50&#45;&gt;Node52</title>
<path fill="none" stroke="midnightblue" d="M728.059,-96.9338C736.692,-95.8856 745.452,-94.8221 753.912,-93.7951"/>
<polygon fill="midnightblue" stroke="midnightblue" points="727.512,-93.4743 718.007,-98.1541 728.356,-100.423 727.512,-93.4743"/>
</g>
<!-- Node53&#45;&gt;Node49 -->
<g id="edge11" class="edge"><title>Node53&#45;&gt;Node49</title>
<path fill="none" stroke="midnightblue" d="M419.293,-105.5C436.929,-105.5 455.987,-105.5 472.316,-105.5"/>
<polygon fill="midnightblue" stroke="midnightblue" points="419.105,-102 409.105,-105.5 419.105,-109 419.105,-102"/>
</g>
<!-- Node54&#45;&gt;Node49 -->
<g id="edge13" class="edge"><title>Node54&#45;&gt;Node49</title>
<path fill="none" stroke="midnightblue" d="M410.002,-79.54C431.167,-84.8488 455.686,-90.9988 475.545,-95.9799"/>
<polygon fill="midnightblue" stroke="midnightblue" points="410.781,-76.1271 400.23,-77.089 409.078,-82.9168 410.781,-76.1271"/>
</g>
<!-- Node55&#45;&gt;Node46 -->
<g id="edge15" class="edge"><title>Node55&#45;&gt;Node46</title>
<path fill="none" stroke="midnightblue" d="M431.038,-219.5C444.261,-219.5 457.758,-219.5 469.902,-219.5"/>
<polygon fill="midnightblue" stroke="midnightblue" points="431.008,-216 421.008,-219.5 431.008,-223 431.008,-216"/>
</g>
<!-- Node56&#45;&gt;Node46 -->
<g id="edge17" class="edge"><title>Node56&#45;&gt;Node46</title>
<path fill="none" stroke="midnightblue" d="M410.002,-193.54C431.167,-198.849 455.686,-204.999 475.545,-209.98"/>
<polygon fill="midnightblue" stroke="midnightblue" points="410.781,-190.127 400.23,-191.089 409.078,-196.917 410.781,-190.127"/>
</g>
</g>
</svg>
