<?xml version="1.0" encoding="UTF-8" standalone="no"?>
<!DOCTYPE svg PUBLIC "-//W3C//DTD SVG 1.1//EN"
 "http://www.w3.org/Graphics/SVG/1.1/DTD/svg11.dtd">
<!-- Generated by graphviz version 2.38.0 (20140413.2041)
 -->
<!-- Title: /home/ashiroji/Arduino/libraries/CoolBoard/src/CoolBoard.h Pages: 1 -->
<svg width="1904pt" height="240pt"
 viewBox="0.00 0.00 1903.50 240.00" xmlns="http://www.w3.org/2000/svg" xmlns:xlink="http://www.w3.org/1999/xlink">
<g id="graph0" class="graph" transform="scale(1 1) rotate(0) translate(4 236)">
<title>/home/ashiroji/Arduino/libraries/CoolBoard/src/CoolBoard.h</title>
<polygon fill="white" stroke="none" points="-4,4 -4,-236 1899.5,-236 1899.5,4 -4,4"/>
<!-- Node0 -->
<g id="node1" class="node"><title>Node0</title>
<polygon fill="#bfbfbf" stroke="black" points="723.5,-190.5 723.5,-231.5 842.5,-231.5 842.5,-190.5 723.5,-190.5"/>
<text text-anchor="start" x="731.5" y="-219.5" font-family="Helvetica,sans-Serif" font-size="10.00">/home/ashiroji/Arduino</text>
<text text-anchor="start" x="731.5" y="-208.5" font-family="Helvetica,sans-Serif" font-size="10.00">/libraries/CoolBoard/src</text>
<text text-anchor="middle" x="783" y="-197.5" font-family="Helvetica,sans-Serif" font-size="10.00">/CoolBoard.h</text>
</g>
<!-- Node1 -->
<g id="node2" class="node"><title>Node1</title>
<g id="a_node2"><a xlink:href="$d9/d41/_cool_file_system_8h.html" xlink:title="CoolFileSystem Header File. ">
<polygon fill="white" stroke="black" points="158.5,-134.5 158.5,-153.5 253.5,-153.5 253.5,-134.5 158.5,-134.5"/>
<text text-anchor="middle" x="206" y="-141.5" font-family="Helvetica,sans-Serif" font-size="10.00">CoolFileSystem.h</text>
</a>
</g>
</g>
<!-- Node0&#45;&gt;Node1 -->
<g id="edge1" class="edge"><title>Node0&#45;&gt;Node1</title>
<path fill="none" stroke="midnightblue" d="M723.424,-203.289C612.128,-190.751 373.976,-163.923 263.938,-151.527"/>
<polygon fill="midnightblue" stroke="midnightblue" points="264.027,-148.015 253.698,-150.373 263.243,-154.971 264.027,-148.015"/>
</g>
<!-- Node2 -->
<g id="node3" class="node"><title>Node2</title>
<polygon fill="white" stroke="#bfbfbf" points="827,-6 827,-25 885,-25 885,-6 827,-6"/>
<text text-anchor="middle" x="856" y="-13" font-family="Helvetica,sans-Serif" font-size="10.00">Arduino.h</text>
</g>
<!-- Node0&#45;&gt;Node2 -->
<g id="edge43" class="edge"><title>Node0&#45;&gt;Node2</title>
<path fill="none" stroke="midnightblue" d="M842.647,-197.925C894.908,-183.806 967.584,-154.737 1001,-98 1027.12,-53.6539 946.594,-31.5532 895.254,-22.2174"/>
<polygon fill="midnightblue" stroke="midnightblue" points="895.552,-18.7172 885.102,-20.4665 894.362,-25.6154 895.552,-18.7172"/>
</g>
<!-- Node3 -->
<g id="node4" class="node"><title>Node3</title>
<g id="a_node4"><a xlink:href="$d7/df3/_cool_board_sensors_8h.html" xlink:title="CoolBoardSensors Header File. ">
<polygon fill="white" stroke="black" points="298.5,-134.5 298.5,-153.5 405.5,-153.5 405.5,-134.5 298.5,-134.5"/>
<text text-anchor="middle" x="352" y="-141.5" font-family="Helvetica,sans-Serif" font-size="10.00">CoolBoardSensors.h</text>
</a>
</g>
</g>
<!-- Node0&#45;&gt;Node3 -->
<g id="edge3" class="edge"><title>Node0&#45;&gt;Node3</title>
<path fill="none" stroke="midnightblue" d="M723.071,-200.962C642.137,-188.756 498.517,-167.097 415.691,-154.605"/>
<polygon fill="midnightblue" stroke="midnightblue" points="416.064,-151.122 405.654,-153.092 415.02,-158.044 416.064,-151.122"/>
</g>
<!-- Node7 -->
<g id="node8" class="node"><title>Node7</title>
<g id="a_node8"><a xlink:href="$d0/da6/_cool_board_led_8h.html" xlink:title="CoolBoardLed Header File. ">
<polygon fill="white" stroke="black" points="461,-134.5 461,-153.5 547,-153.5 547,-134.5 461,-134.5"/>
<text text-anchor="middle" x="504" y="-141.5" font-family="Helvetica,sans-Serif" font-size="10.00">CoolBoardLed.h</text>
</a>
</g>
</g>
<!-- Node0&#45;&gt;Node7 -->
<g id="edge9" class="edge"><title>Node0&#45;&gt;Node7</title>
<path fill="none" stroke="midnightblue" d="M723.49,-196.136C671.902,-184.117 598.271,-166.963 550.802,-155.904"/>
<polygon fill="midnightblue" stroke="midnightblue" points="551.327,-152.432 540.794,-153.572 549.739,-159.25 551.327,-152.432"/>
</g>
<!-- Node9 -->
<g id="node10" class="node"><title>Node9</title>
<g id="a_node10"><a xlink:href="$d4/daa/_cool_time_8h.html" xlink:title="CoolTime Header File. ">
<polygon fill="white" stroke="black" points="824.5,-134.5 824.5,-153.5 891.5,-153.5 891.5,-134.5 824.5,-134.5"/>
<text text-anchor="middle" x="858" y="-141.5" font-family="Helvetica,sans-Serif" font-size="10.00">CoolTime.h</text>
</a>
</g>
</g>
<!-- Node0&#45;&gt;Node9 -->
<g id="edge12" class="edge"><title>Node0&#45;&gt;Node9</title>
<path fill="none" stroke="midnightblue" d="M805.502,-190.498C816.67,-180.82 829.961,-169.3 840.376,-160.274"/>
<polygon fill="midnightblue" stroke="midnightblue" points="842.752,-162.847 848.016,-153.652 838.167,-157.557 842.752,-162.847"/>
</g>
<!-- Node13 -->
<g id="node14" class="node"><title>Node13</title>
<g id="a_node14"><a xlink:href="$de/d2e/_cool_m_q_t_t_8h.html" xlink:title="CoolMQTT Header File. ">
<polygon fill="white" stroke="black" points="1258.5,-134.5 1258.5,-153.5 1331.5,-153.5 1331.5,-134.5 1258.5,-134.5"/>
<text text-anchor="middle" x="1295" y="-141.5" font-family="Helvetica,sans-Serif" font-size="10.00">CoolMQTT.h</text>
</a>
</g>
</g>
<!-- Node0&#45;&gt;Node13 -->
<g id="edge17" class="edge"><title>Node0&#45;&gt;Node13</title>
<path fill="none" stroke="midnightblue" d="M842.735,-202.416C945.836,-189.327 1155.08,-162.763 1248.33,-150.924"/>
<polygon fill="midnightblue" stroke="midnightblue" points="1248.84,-154.388 1258.32,-149.657 1247.96,-147.444 1248.84,-154.388"/>
</g>
<!-- Node19 -->
<g id="node20" class="node"><title>Node19</title>
<g id="a_node20"><a xlink:href="$db/d6c/_jetpack_8h.html" xlink:title="Jetpack Header File. ">
<polygon fill="white" stroke="black" points="581.5,-134.5 581.5,-153.5 640.5,-153.5 640.5,-134.5 581.5,-134.5"/>
<text text-anchor="middle" x="611" y="-141.5" font-family="Helvetica,sans-Serif" font-size="10.00">Jetpack.h</text>
</a>
</g>
</g>
<!-- Node0&#45;&gt;Node19 -->
<g id="edge25" class="edge"><title>Node0&#45;&gt;Node19</title>
<path fill="none" stroke="midnightblue" d="M731.394,-190.498C702.868,-179.718 668.297,-166.653 643.532,-157.294"/>
<polygon fill="midnightblue" stroke="midnightblue" points="644.487,-153.914 633.896,-153.652 642.013,-160.462 644.487,-153.914"/>
</g>
<!-- Node20 -->
<g id="node21" class="node"><title>Node20</title>
<g id="a_node21"><a xlink:href="$d7/d31/_irene3000_8h.html" xlink:title="Irene3000 Header File. ">
<polygon fill="white" stroke="black" points="674,-134.5 674,-153.5 742,-153.5 742,-134.5 674,-134.5"/>
<text text-anchor="middle" x="708" y="-141.5" font-family="Helvetica,sans-Serif" font-size="10.00">Irene3000.h</text>
</a>
</g>
</g>
<!-- Node0&#45;&gt;Node20 -->
<g id="edge27" class="edge"><title>Node0&#45;&gt;Node20</title>
<path fill="none" stroke="midnightblue" d="M760.498,-190.498C749.33,-180.82 736.039,-169.3 725.624,-160.274"/>
<polygon fill="midnightblue" stroke="midnightblue" points="727.833,-157.557 717.984,-153.652 723.248,-162.847 727.833,-157.557"/>
</g>
<!-- Node22 -->
<g id="node23" class="node"><title>Node22</title>
<g id="a_node23"><a xlink:href="$d7/dcc/_external_sensors_8h.html" xlink:title="ExternalSensors Header File. ">
<polygon fill="white" stroke="black" points="1070.5,-134.5 1070.5,-153.5 1167.5,-153.5 1167.5,-134.5 1070.5,-134.5"/>
<text text-anchor="middle" x="1119" y="-141.5" font-family="Helvetica,sans-Serif" font-size="10.00">ExternalSensors.h</text>
</a>
</g>
</g>
<!-- Node0&#45;&gt;Node22 -->
<g id="edge31" class="edge"><title>Node0&#45;&gt;Node22</title>
<path fill="none" stroke="midnightblue" d="M842.683,-198.454C905.611,-186.281 1003.89,-167.269 1064.7,-155.504"/>
<polygon fill="midnightblue" stroke="midnightblue" points="1065.71,-158.873 1074.87,-153.538 1064.38,-152.001 1065.71,-158.873"/>
</g>
<!-- Node26 -->
<g id="node27" class="node"><title>Node26</title>
<g id="a_node27"><a xlink:href="$dc/d38/_cool_wifi_8h.html" xlink:title="CoolWifi Header File. ">
<polygon fill="white" stroke="black" points="1527,-134.5 1527,-153.5 1589,-153.5 1589,-134.5 1527,-134.5"/>
<text text-anchor="middle" x="1558" y="-141.5" font-family="Helvetica,sans-Serif" font-size="10.00">CoolWifi.h</text>
</a>
</g>
</g>
<!-- Node0&#45;&gt;Node26 -->
<g id="edge37" class="edge"><title>Node0&#45;&gt;Node26</title>
<path fill="none" stroke="midnightblue" d="M842.526,-205.007C993.356,-192.357 1387.7,-159.283 1516.58,-148.474"/>
<polygon fill="midnightblue" stroke="midnightblue" points="1517.14,-151.939 1526.81,-147.616 1516.56,-144.964 1517.14,-151.939"/>
</g>
<!-- Node1&#45;&gt;Node2 -->
<g id="edge2" class="edge"><title>Node1&#45;&gt;Node2</title>
<path fill="none" stroke="midnightblue" d="M203.371,-134.265C199.204,-118.431 193.253,-84.9693 211,-67 253.602,-23.8647 683.118,-17.5682 816.622,-16.6539"/>
<polygon fill="midnightblue" stroke="midnightblue" points="816.825,-20.1528 826.803,-16.5909 816.782,-13.153 816.825,-20.1528"/>
</g>
<!-- Node3&#45;&gt;Node2 -->
<g id="edge4" class="edge"><title>Node3&#45;&gt;Node2</title>
<path fill="none" stroke="midnightblue" d="M352.984,-134.192C355.312,-117.93 362.748,-83.36 385,-67 453.233,-16.8329 716.542,-14.7007 816.87,-15.7839"/>
<polygon fill="midnightblue" stroke="midnightblue" points="816.851,-19.2838 826.894,-15.909 816.938,-12.2844 816.851,-19.2838"/>
</g>
<!-- Node4 -->
<g id="node5" class="node"><title>Node4</title>
<g id="a_node5"><a xlink:href="$d1/dd7/_cool_s_i114_x_8h.html" xlink:title="internals/CoolSI114X.h">
<polygon fill="white" stroke="black" points="220.5,-73 220.5,-92 337.5,-92 337.5,-73 220.5,-73"/>
<text text-anchor="middle" x="279" y="-80" font-family="Helvetica,sans-Serif" font-size="10.00">internals/CoolSI114X.h</text>
</a>
</g>
</g>
<!-- Node3&#45;&gt;Node4 -->
<g id="edge5" class="edge"><title>Node3&#45;&gt;Node4</title>
<path fill="none" stroke="midnightblue" d="M341.541,-134.475C330.049,-125.108 311.37,-109.884 297.413,-98.5081"/>
<polygon fill="midnightblue" stroke="midnightblue" points="299.402,-95.614 289.44,-92.0091 294.98,-101.04 299.402,-95.614"/>
</g>
<!-- Node5 -->
<g id="node6" class="node"><title>Node5</title>
<g id="a_node6"><a xlink:href="$d2/d3a/_cool_spark_fun_b_m_e280_8h.html" xlink:title="internals/CoolSparkFunBME280.h">
<polygon fill="white" stroke="black" points="0,-73 0,-92 164,-92 164,-73 0,-73"/>
<text text-anchor="middle" x="82" y="-80" font-family="Helvetica,sans-Serif" font-size="10.00">internals/CoolSparkFunBME280.h</text>
</a>
</g>
</g>
<!-- Node3&#45;&gt;Node5 -->
<g id="edge7" class="edge"><title>Node3&#45;&gt;Node5</title>
<path fill="none" stroke="midnightblue" d="M313.316,-134.475C265.197,-123.871 183.013,-105.76 130.665,-94.2244"/>
<polygon fill="midnightblue" stroke="midnightblue" points="131.132,-90.7432 120.613,-92.0091 129.625,-97.5792 131.132,-90.7432"/>
</g>
<!-- Node4&#45;&gt;Node2 -->
<g id="edge6" class="edge"><title>Node4&#45;&gt;Node2</title>
<path fill="none" stroke="midnightblue" d="M318.28,-72.9771C329.164,-70.8123 341.009,-68.6383 352,-67 524.241,-41.3256 731.594,-25.1537 816.669,-19.1462"/>
<polygon fill="midnightblue" stroke="midnightblue" points="817.17,-22.6198 826.902,-18.4312 816.682,-15.6368 817.17,-22.6198"/>
</g>
<!-- Node6 -->
<g id="node7" class="node"><title>Node6</title>
<polygon fill="white" stroke="#bfbfbf" points="57.5,-6 57.5,-25 106.5,-25 106.5,-6 57.5,-6"/>
<text text-anchor="middle" x="82" y="-13" font-family="Helvetica,sans-Serif" font-size="10.00">stdint.h</text>
</g>
<!-- Node5&#45;&gt;Node6 -->
<g id="edge8" class="edge"><title>Node5&#45;&gt;Node6</title>
<path fill="none" stroke="midnightblue" d="M82,-72.7338C82,-63.1826 82,-47.6183 82,-35.2829"/>
<polygon fill="midnightblue" stroke="midnightblue" points="85.5001,-35.1273 82,-25.1273 78.5001,-35.1273 85.5001,-35.1273"/>
</g>
<!-- Node7&#45;&gt;Node2 -->
<g id="edge10" class="edge"><title>Node7&#45;&gt;Node2</title>
<path fill="none" stroke="midnightblue" d="M506.819,-134.232C512.518,-118.036 527.037,-83.5717 552,-67 594.856,-38.5503 744.852,-24.3473 816.853,-19.0401"/>
<polygon fill="midnightblue" stroke="midnightblue" points="817.164,-22.5269 826.888,-18.321 816.663,-15.5448 817.164,-22.5269"/>
</g>
<!-- Node8 -->
<g id="node9" class="node"><title>Node8</title>
<polygon fill="white" stroke="#bfbfbf" points="394,-73 394,-92 476,-92 476,-73 394,-73"/>
<text text-anchor="middle" x="435" y="-80" font-family="Helvetica,sans-Serif" font-size="10.00">NeoPixelBus.h</text>
</g>
<!-- Node7&#45;&gt;Node8 -->
<g id="edge11" class="edge"><title>Node7&#45;&gt;Node8</title>
<path fill="none" stroke="midnightblue" d="M494.114,-134.475C483.354,-125.197 465.929,-110.171 452.779,-98.831"/>
<polygon fill="midnightblue" stroke="midnightblue" points="454.727,-95.889 444.868,-92.0091 450.155,-101.19 454.727,-95.889"/>
</g>
<!-- Node9&#45;&gt;Node2 -->
<g id="edge13" class="edge"><title>Node9&#45;&gt;Node2</title>
<path fill="none" stroke="midnightblue" d="M891.677,-141.256C921.444,-137.719 963.26,-127.43 984,-98 991.937,-86.7378 991.751,-78.3907 984,-67 964.284,-38.0259 925.13,-25.6755 895.291,-20.4111"/>
<polygon fill="midnightblue" stroke="midnightblue" points="895.593,-16.9158 885.172,-18.8289 894.511,-23.8318 895.593,-16.9158"/>
</g>
<!-- Node10 -->
<g id="node11" class="node"><title>Node10</title>
<polygon fill="white" stroke="#bfbfbf" points="916.5,-73 916.5,-92 975.5,-92 975.5,-73 916.5,-73"/>
<text text-anchor="middle" x="946" y="-80" font-family="Helvetica,sans-Serif" font-size="10.00">TimeLib.h</text>
</g>
<!-- Node9&#45;&gt;Node10 -->
<g id="edge14" class="edge"><title>Node9&#45;&gt;Node10</title>
<path fill="none" stroke="midnightblue" d="M870.608,-134.475C884.723,-124.931 907.831,-109.307 924.749,-97.8683"/>
<polygon fill="midnightblue" stroke="midnightblue" points="927.091,-100.51 933.415,-92.0091 923.171,-94.7109 927.091,-100.51"/>
</g>
<!-- Node11 -->
<g id="node12" class="node"><title>Node11</title>
<polygon fill="white" stroke="#bfbfbf" points="736.5,-73 736.5,-92 799.5,-92 799.5,-73 736.5,-73"/>
<text text-anchor="middle" x="768" y="-80" font-family="Helvetica,sans-Serif" font-size="10.00">WiFiUdp.h</text>
</g>
<!-- Node9&#45;&gt;Node11 -->
<g id="edge15" class="edge"><title>Node9&#45;&gt;Node11</title>
<path fill="none" stroke="midnightblue" d="M845.105,-134.475C830.536,-124.843 806.598,-109.017 789.255,-97.5517"/>
<polygon fill="midnightblue" stroke="midnightblue" points="791.143,-94.6044 780.871,-92.0091 787.283,-100.444 791.143,-94.6044"/>
</g>
<!-- Node12 -->
<g id="node13" class="node"><title>Node12</title>
<polygon fill="white" stroke="#bfbfbf" points="817.5,-73 817.5,-92 898.5,-92 898.5,-73 817.5,-73"/>
<text text-anchor="middle" x="858" y="-80" font-family="Helvetica,sans-Serif" font-size="10.00">DS1337RTC.h</text>
</g>
<!-- Node9&#45;&gt;Node12 -->
<g id="edge16" class="edge"><title>Node9&#45;&gt;Node12</title>
<path fill="none" stroke="midnightblue" d="M858,-134.475C858,-126.08 858,-112.981 858,-102.163"/>
<polygon fill="midnightblue" stroke="midnightblue" points="861.5,-102.009 858,-92.0091 854.5,-102.009 861.5,-102.009"/>
</g>
<!-- Node13&#45;&gt;Node2 -->
<g id="edge18" class="edge"><title>Node13&#45;&gt;Node2</title>
<path fill="none" stroke="midnightblue" d="M1258.33,-134.709C1226.82,-127.001 1180.51,-114.267 1142,-98 1116.15,-87.082 1113.22,-76.996 1087,-67 1022.1,-42.2556 942.076,-28.1596 895.274,-21.4457"/>
<polygon fill="midnightblue" stroke="midnightblue" points="895.634,-17.962 885.246,-20.0476 894.667,-24.895 895.634,-17.962"/>
</g>
<!-- Node14 -->
<g id="node15" class="node"><title>Node14</title>
<polygon fill="white" stroke="#bfbfbf" points="1458,-73 1458,-92 1544,-92 1544,-73 1458,-73"/>
<text text-anchor="middle" x="1501" y="-80" font-family="Helvetica,sans-Serif" font-size="10.00">ESP8266WiFi.h</text>
</g>
<!-- Node13&#45;&gt;Node14 -->
<g id="edge19" class="edge"><title>Node13&#45;&gt;Node14</title>
<path fill="none" stroke="midnightblue" d="M1324.51,-134.475C1360.62,-124.048 1421.85,-106.362 1461.85,-94.8066"/>
<polygon fill="midnightblue" stroke="midnightblue" points="1462.9,-98.1466 1471.54,-92.0091 1460.96,-91.4215 1462.9,-98.1466"/>
</g>
<!-- Node15 -->
<g id="node16" class="node"><title>Node15</title>
<g id="a_node16"><a xlink:href="$d5/dfb/_cool_pub_sub_client_8h.html" xlink:title="internals/CoolPubSubClient.h">
<polygon fill="white" stroke="black" points="1294.5,-73 1294.5,-92 1439.5,-92 1439.5,-73 1294.5,-73"/>
<text text-anchor="middle" x="1367" y="-80" font-family="Helvetica,sans-Serif" font-size="10.00">internals/CoolPubSubClient.h</text>
</a>
</g>
</g>
<!-- Node13&#45;&gt;Node15 -->
<g id="edge20" class="edge"><title>Node13&#45;&gt;Node15</title>
<path fill="none" stroke="midnightblue" d="M1305.32,-134.475C1316.65,-125.108 1335.07,-109.884 1348.84,-98.5081"/>
<polygon fill="midnightblue" stroke="midnightblue" points="1351.22,-101.077 1356.7,-92.0091 1346.77,-95.6813 1351.22,-101.077"/>
</g>
<!-- Node15&#45;&gt;Node2 -->
<g id="edge21" class="edge"><title>Node15&#45;&gt;Node2</title>
<path fill="none" stroke="midnightblue" d="M1321.53,-72.9775C1309.66,-70.8852 1296.87,-68.7468 1285,-67 1141.86,-45.9374 970.82,-27.9402 895.226,-20.3504"/>
<polygon fill="midnightblue" stroke="midnightblue" points="895.505,-16.8608 885.206,-19.3492 894.809,-23.8261 895.505,-16.8608"/>
</g>
<!-- Node16 -->
<g id="node17" class="node"><title>Node16</title>
<polygon fill="white" stroke="#bfbfbf" points="1299.5,-6 1299.5,-25 1370.5,-25 1370.5,-6 1299.5,-6"/>
<text text-anchor="middle" x="1335" y="-13" font-family="Helvetica,sans-Serif" font-size="10.00">IPAddress.h</text>
</g>
<!-- Node15&#45;&gt;Node16 -->
<g id="edge22" class="edge"><title>Node15&#45;&gt;Node16</title>
<path fill="none" stroke="midnightblue" d="M1362.68,-72.7338C1357.84,-62.8903 1349.85,-46.6598 1343.69,-34.1594"/>
<polygon fill="midnightblue" stroke="midnightblue" points="1346.8,-32.5531 1339.25,-25.1273 1340.52,-35.6449 1346.8,-32.5531"/>
</g>
<!-- Node17 -->
<g id="node18" class="node"><title>Node17</title>
<polygon fill="white" stroke="#bfbfbf" points="1389,-6 1389,-25 1439,-25 1439,-6 1389,-6"/>
<text text-anchor="middle" x="1414" y="-13" font-family="Helvetica,sans-Serif" font-size="10.00">Client.h</text>
</g>
<!-- Node15&#45;&gt;Node17 -->
<g id="edge23" class="edge"><title>Node15&#45;&gt;Node17</title>
<path fill="none" stroke="midnightblue" d="M1373.34,-72.7338C1380.6,-62.6953 1392.66,-46.0145 1401.76,-33.4213"/>
<polygon fill="midnightblue" stroke="midnightblue" points="1404.74,-35.2816 1407.76,-25.1273 1399.07,-31.18 1404.74,-35.2816"/>
</g>
<!-- Node18 -->
<g id="node19" class="node"><title>Node18</title>
<polygon fill="white" stroke="#bfbfbf" points="1457,-6 1457,-25 1513,-25 1513,-6 1457,-6"/>
<text text-anchor="middle" x="1485" y="-13" font-family="Helvetica,sans-Serif" font-size="10.00">Stream.h</text>
</g>
<!-- Node15&#45;&gt;Node18 -->
<g id="edge24" class="edge"><title>Node15&#45;&gt;Node18</title>
<path fill="none" stroke="midnightblue" d="M1382.91,-72.7338C1402.82,-61.7695 1437.11,-42.8809 1460.4,-30.0495"/>
<polygon fill="midnightblue" stroke="midnightblue" points="1462.27,-33.0179 1469.34,-25.1273 1458.89,-26.8866 1462.27,-33.0179"/>
</g>
<!-- Node19&#45;&gt;Node2 -->
<g id="edge26" class="edge"><title>Node19&#45;&gt;Node2</title>
<path fill="none" stroke="midnightblue" d="M597.911,-134.333C577.415,-119.723 541.959,-89.5773 561,-67 593.248,-28.7629 743.847,-19.4765 816.54,-17.2221"/>
<polygon fill="midnightblue" stroke="midnightblue" points="816.778,-20.7169 826.676,-16.9379 816.582,-13.7197 816.778,-20.7169"/>
</g>
<!-- Node20&#45;&gt;Node2 -->
<g id="edge30" class="edge"><title>Node20&#45;&gt;Node2</title>
<path fill="none" stroke="midnightblue" d="M707.735,-134.32C707.735,-118.87 709.935,-86.4049 727,-67 749.845,-41.0224 787.742,-28.2942 816.565,-22.1275"/>
<polygon fill="midnightblue" stroke="midnightblue" points="817.586,-25.4942 826.729,-20.1401 816.243,-18.6243 817.586,-25.4942"/>
</g>
<!-- Node21 -->
<g id="node22" class="node"><title>Node21</title>
<g id="a_node22"><a xlink:href="$df/d06/_cool_adafruit___a_d_s1015_8h.html" xlink:title="internals/CoolAdafruit\l_ADS1015.h">
<polygon fill="white" stroke="black" points="570,-67.5 570,-97.5 680,-97.5 680,-67.5 570,-67.5"/>
<text text-anchor="start" x="578" y="-85.5" font-family="Helvetica,sans-Serif" font-size="10.00">internals/CoolAdafruit</text>
<text text-anchor="middle" x="625" y="-74.5" font-family="Helvetica,sans-Serif" font-size="10.00">_ADS1015.h</text>
</a>
</g>
</g>
<!-- Node20&#45;&gt;Node21 -->
<g id="edge28" class="edge"><title>Node20&#45;&gt;Node21</title>
<path fill="none" stroke="midnightblue" d="M696.108,-134.475C684.867,-126.417 667.578,-114.023 652.863,-103.474"/>
<polygon fill="midnightblue" stroke="midnightblue" points="654.728,-100.505 644.561,-97.523 650.65,-106.194 654.728,-100.505"/>
</g>
<!-- Node21&#45;&gt;Node2 -->
<g id="edge29" class="edge"><title>Node21&#45;&gt;Node2</title>
<path fill="none" stroke="midnightblue" d="M674.839,-67.476C717.421,-55.4941 777.833,-38.4951 816.971,-27.4823"/>
<polygon fill="midnightblue" stroke="midnightblue" points="818.004,-30.8276 826.682,-24.7497 816.108,-24.0893 818.004,-30.8276"/>
</g>
<!-- Node22&#45;&gt;Node2 -->
<g id="edge32" class="edge"><title>Node22&#45;&gt;Node2</title>
<path fill="none" stroke="midnightblue" d="M1114.37,-134.418C1105.35,-118.531 1083.83,-84.5623 1056,-67 1006.16,-35.5478 937.761,-23.6644 895.25,-19.1879"/>
<polygon fill="midnightblue" stroke="midnightblue" points="895.318,-15.6782 885.028,-18.202 894.646,-22.6459 895.318,-15.6782"/>
</g>
<!-- Node23 -->
<g id="node24" class="node"><title>Node23</title>
<g id="a_node24"><a xlink:href="$d6/d20/_external_sensor_8h.html" xlink:title="ExternalSensor Header File. ">
<polygon fill="white" stroke="black" points="1184,-73 1184,-92 1276,-92 1276,-73 1184,-73"/>
<text text-anchor="middle" x="1230" y="-80" font-family="Helvetica,sans-Serif" font-size="10.00">ExternalSensor.h</text>
</a>
</g>
</g>
<!-- Node22&#45;&gt;Node23 -->
<g id="edge33" class="edge"><title>Node22&#45;&gt;Node23</title>
<path fill="none" stroke="midnightblue" d="M1134.9,-134.475C1153.28,-124.622 1183.76,-108.288 1205.24,-96.7697"/>
<polygon fill="midnightblue" stroke="midnightblue" points="1206.97,-99.8183 1214.13,-92.0091 1203.66,-93.6488 1206.97,-99.8183"/>
</g>
<!-- Node23&#45;&gt;Node2 -->
<g id="edge36" class="edge"><title>Node23&#45;&gt;Node2</title>
<path fill="none" stroke="midnightblue" d="M1196.78,-72.9849C1188.09,-70.8924 1178.72,-68.7522 1170,-67 1071.7,-47.2478 954.856,-30.1072 895.243,-21.8123"/>
<polygon fill="midnightblue" stroke="midnightblue" points="895.525,-18.3181 885.14,-20.4152 894.566,-25.2521 895.525,-18.3181"/>
</g>
<!-- Node24 -->
<g id="node25" class="node"><title>Node24</title>
<g id="a_node25"><a xlink:href="$d0/d08/_cool_n_d_i_r___i2_c_8h.html" xlink:title="internals/CoolNDIR\l_I2C.h">
<polygon fill="white" stroke="black" points="1179,-0.5 1179,-30.5 1281,-30.5 1281,-0.5 1179,-0.5"/>
<text text-anchor="start" x="1187" y="-18.5" font-family="Helvetica,sans-Serif" font-size="10.00">internals/CoolNDIR</text>
<text text-anchor="middle" x="1230" y="-7.5" font-family="Helvetica,sans-Serif" font-size="10.00">_I2C.h</text>
</a>
</g>
</g>
<!-- Node23&#45;&gt;Node24 -->
<g id="edge34" class="edge"><title>Node23&#45;&gt;Node24</title>
<path fill="none" stroke="midnightblue" d="M1230,-72.7338C1230,-64.5406 1230,-51.9225 1230,-40.7136"/>
<polygon fill="midnightblue" stroke="midnightblue" points="1233.5,-40.589 1230,-30.589 1226.5,-40.5891 1233.5,-40.589"/>
</g>
<!-- Node25 -->
<g id="node26" class="node"><title>Node25</title>
<polygon fill="white" stroke="#bfbfbf" points="1054.5,-6 1054.5,-25 1161.5,-25 1161.5,-6 1054.5,-6"/>
<text text-anchor="middle" x="1108" y="-13" font-family="Helvetica,sans-Serif" font-size="10.00">DallasTemperature.h</text>
</g>
<!-- Node23&#45;&gt;Node25 -->
<g id="edge35" class="edge"><title>Node23&#45;&gt;Node25</title>
<path fill="none" stroke="midnightblue" d="M1213.8,-72.8685C1193.2,-61.8932 1157.41,-42.8243 1133.22,-29.9385"/>
<polygon fill="midnightblue" stroke="midnightblue" points="1134.74,-26.7804 1124.27,-25.1672 1131.45,-32.9583 1134.74,-26.7804"/>
</g>
<!-- Node26&#45;&gt;Node2 -->
<g id="edge38" class="edge"><title>Node26&#45;&gt;Node2</title>
<path fill="none" stroke="midnightblue" d="M1526.99,-141.246C1447.75,-136.466 1239.58,-121.939 1175,-98 1151.88,-89.4311 1151.82,-76.3265 1129,-67 1050.15,-34.7771 950.071,-22.9771 895.645,-18.7589"/>
<polygon fill="midnightblue" stroke="midnightblue" points="895.616,-15.2476 885.389,-18.0125 895.108,-22.2292 895.616,-15.2476"/>
</g>
<!-- Node26&#45;&gt;Node14 -->
<g id="edge39" class="edge"><title>Node26&#45;&gt;Node14</title>
<path fill="none" stroke="midnightblue" d="M1549.83,-134.475C1541.11,-125.373 1527.1,-110.741 1516.31,-99.483"/>
<polygon fill="midnightblue" stroke="midnightblue" points="1518.6,-96.809 1509.15,-92.0091 1513.54,-101.651 1518.6,-96.809"/>
</g>
<!-- Node27 -->
<g id="node28" class="node"><title>Node27</title>
<polygon fill="white" stroke="#bfbfbf" points="1562.5,-73 1562.5,-92 1669.5,-92 1669.5,-73 1562.5,-73"/>
<text text-anchor="middle" x="1616" y="-80" font-family="Helvetica,sans-Serif" font-size="10.00">ESP8266WiFiMulti.h</text>
</g>
<!-- Node26&#45;&gt;Node27 -->
<g id="edge40" class="edge"><title>Node26&#45;&gt;Node27</title>
<path fill="none" stroke="midnightblue" d="M1566.31,-134.475C1575.18,-125.373 1589.45,-110.741 1600.42,-99.483"/>
<polygon fill="midnightblue" stroke="midnightblue" points="1603.23,-101.613 1607.71,-92.0091 1598.22,-96.7268 1603.23,-101.613"/>
</g>
<!-- Node28 -->
<g id="node29" class="node"><title>Node28</title>
<polygon fill="white" stroke="#bfbfbf" points="1687.5,-73 1687.5,-92 1762.5,-92 1762.5,-73 1687.5,-73"/>
<text text-anchor="middle" x="1725" y="-80" font-family="Helvetica,sans-Serif" font-size="10.00">DNSServer.h</text>
</g>
<!-- Node26&#45;&gt;Node28 -->
<g id="edge41" class="edge"><title>Node26&#45;&gt;Node28</title>
<path fill="none" stroke="midnightblue" d="M1581.93,-134.475C1610.7,-124.225 1659.16,-106.959 1691.6,-95.3994"/>
<polygon fill="midnightblue" stroke="midnightblue" points="1692.87,-98.6624 1701.12,-92.0091 1690.52,-92.0684 1692.87,-98.6624"/>
</g>
<!-- Node29 -->
<g id="node30" class="node"><title>Node29</title>
<polygon fill="white" stroke="#bfbfbf" points="1780.5,-73 1780.5,-92 1895.5,-92 1895.5,-73 1780.5,-73"/>
<text text-anchor="middle" x="1838" y="-80" font-family="Helvetica,sans-Serif" font-size="10.00">ESP8266WebServer.h</text>
</g>
<!-- Node26&#45;&gt;Node29 -->
<g id="edge42" class="edge"><title>Node26&#45;&gt;Node29</title>
<path fill="none" stroke="midnightblue" d="M1589.05,-136.49C1630.53,-127.781 1706.32,-111.831 1771,-98 1776.74,-96.7724 1782.76,-95.4795 1788.73,-94.192"/>
<polygon fill="midnightblue" stroke="midnightblue" points="1789.65,-97.5748 1798.68,-92.043 1788.17,-90.7325 1789.65,-97.5748"/>
</g>
</g>
</svg>
