<?xml version="1.0" encoding="UTF-8" standalone="no"?>
<!DOCTYPE svg PUBLIC "-//W3C//DTD SVG 1.1//EN"
 "http://www.w3.org/Graphics/SVG/1.1/DTD/svg11.dtd">
<!-- Generated by graphviz version 2.38.0 (20140413.2041)
 -->
<!-- Title: CoolBoard.h Pages: 1 -->
<svg width="1924pt" height="218pt"
 viewBox="0.00 0.00 1924.00 218.00" xmlns="http://www.w3.org/2000/svg" xmlns:xlink="http://www.w3.org/1999/xlink">
<g id="graph0" class="graph" transform="scale(1 1) rotate(0) translate(4 214)">
<title>CoolBoard.h</title>
<polygon fill="white" stroke="none" points="-4,4 -4,-214 1920,-214 1920,4 -4,4"/>
<!-- Node0 -->
<g id="node1" class="node"><title>Node0</title>
<polygon fill="#bfbfbf" stroke="black" points="765.996,-190.5 765.996,-209.5 836.996,-209.5 836.996,-190.5 765.996,-190.5"/>
<text text-anchor="middle" x="801.496" y="-197.5" font-family="Helvetica,sans-Serif" font-size="10.00">CoolBoard.h</text>
</g>
<!-- Node1 -->
<g id="node2" class="node"><title>Node1</title>
<g id="a_node2"><a xlink:href="$d9/d41/_cool_file_system_8h.html" xlink:title="CoolFileSystem Header file. ">
<polygon fill="white" stroke="black" points="753.996,-134.5 753.996,-153.5 848.996,-153.5 848.996,-134.5 753.996,-134.5"/>
<text text-anchor="middle" x="801.496" y="-141.5" font-family="Helvetica,sans-Serif" font-size="10.00">CoolFileSystem.h</text>
</a>
</g>
</g>
<!-- Node0&#45;&gt;Node1 -->
<g id="edge1" class="edge"><title>Node0&#45;&gt;Node1</title>
<path fill="none" stroke="midnightblue" d="M801.496,-190.083C801.496,-183.006 801.496,-172.861 801.496,-163.986"/>
<polygon fill="midnightblue" stroke="midnightblue" points="804.996,-163.751 801.496,-153.751 797.996,-163.751 804.996,-163.751"/>
</g>
<!-- Node2 -->
<g id="node3" class="node"><title>Node2</title>
<polygon fill="white" stroke="#bfbfbf" points="867.496,-6 867.496,-25 925.496,-25 925.496,-6 867.496,-6"/>
<text text-anchor="middle" x="896.496" y="-13" font-family="Helvetica,sans-Serif" font-size="10.00">Arduino.h</text>
</g>
<!-- Node0&#45;&gt;Node2 -->
<g id="edge45" class="edge"><title>Node0&#45;&gt;Node2</title>
<path fill="none" stroke="midnightblue" d="M765.943,-198.679C598.815,-196.579 -96.1622,-180.977 11.4964,-67 40.9169,-35.8528 689.022,-20.6779 857.015,-17.2592"/>
<polygon fill="midnightblue" stroke="midnightblue" points="857.222,-20.7558 867.15,-17.0554 857.082,-13.7572 857.222,-20.7558"/>
</g>
<!-- Node3 -->
<g id="node4" class="node"><title>Node3</title>
<g id="a_node4"><a xlink:href="$d7/df3/_cool_board_sensors_8h.html" xlink:title="CoolBoardSensors Header file. ">
<polygon fill="white" stroke="black" points="281.996,-134.5 281.996,-153.5 388.996,-153.5 388.996,-134.5 281.996,-134.5"/>
<text text-anchor="middle" x="335.496" y="-141.5" font-family="Helvetica,sans-Serif" font-size="10.00">CoolBoardSensors.h</text>
</a>
</g>
</g>
<!-- Node0&#45;&gt;Node3 -->
<g id="edge3" class="edge"><title>Node0&#45;&gt;Node3</title>
<path fill="none" stroke="midnightblue" d="M765.704,-194.852C687.176,-185.753 498.871,-163.932 399.46,-152.412"/>
<polygon fill="midnightblue" stroke="midnightblue" points="399.585,-148.903 389.248,-151.229 398.779,-155.857 399.585,-148.903"/>
</g>
<!-- Node7 -->
<g id="node8" class="node"><title>Node7</title>
<g id="a_node8"><a xlink:href="$d0/da6/_cool_board_led_8h.html" xlink:title="CoolBoardLed Header file. ">
<polygon fill="white" stroke="black" points="481.496,-134.5 481.496,-153.5 567.496,-153.5 567.496,-134.5 481.496,-134.5"/>
<text text-anchor="middle" x="524.496" y="-141.5" font-family="Helvetica,sans-Serif" font-size="10.00">CoolBoardLed.h</text>
</a>
</g>
</g>
<!-- Node0&#45;&gt;Node7 -->
<g id="edge9" class="edge"><title>Node0&#45;&gt;Node7</title>
<path fill="none" stroke="midnightblue" d="M765.851,-192.051C718.118,-182.746 633.045,-166.161 577.711,-155.374"/>
<polygon fill="midnightblue" stroke="midnightblue" points="578.226,-151.909 567.741,-153.43 576.886,-158.779 578.226,-151.909"/>
</g>
<!-- Node9 -->
<g id="node10" class="node"><title>Node9</title>
<g id="a_node10"><a xlink:href="$d4/daa/_cool_time_8h.html" xlink:title="CoolTime Header file. ">
<polygon fill="white" stroke="black" points="668.996,-134.5 668.996,-153.5 735.996,-153.5 735.996,-134.5 668.996,-134.5"/>
<text text-anchor="middle" x="702.496" y="-141.5" font-family="Helvetica,sans-Serif" font-size="10.00">CoolTime.h</text>
</a>
</g>
</g>
<!-- Node0&#45;&gt;Node9 -->
<g id="edge12" class="edge"><title>Node0&#45;&gt;Node9</title>
<path fill="none" stroke="midnightblue" d="M785.59,-190.324C769.858,-181.743 745.554,-168.486 727.287,-158.522"/>
<polygon fill="midnightblue" stroke="midnightblue" points="728.818,-155.37 718.363,-153.655 725.466,-161.516 728.818,-155.37"/>
</g>
<!-- Node13 -->
<g id="node14" class="node"><title>Node13</title>
<g id="a_node14"><a xlink:href="$de/d2e/_cool_m_q_t_t_8h.html" xlink:title="CoolMQTT Header file. ">
<polygon fill="white" stroke="black" points="1259,-134.5 1259,-153.5 1332,-153.5 1332,-134.5 1259,-134.5"/>
<text text-anchor="middle" x="1295.5" y="-141.5" font-family="Helvetica,sans-Serif" font-size="10.00">CoolMQTT.h</text>
</a>
</g>
</g>
<!-- Node0&#45;&gt;Node13 -->
<g id="edge17" class="edge"><title>Node0&#45;&gt;Node13</title>
<path fill="none" stroke="midnightblue" d="M837.024,-195.116C924.539,-185.55 1150.51,-160.849 1248.74,-150.111"/>
<polygon fill="midnightblue" stroke="midnightblue" points="1249.4,-153.56 1258.96,-148.994 1248.64,-146.602 1249.4,-153.56"/>
</g>
<!-- Node19 -->
<g id="node20" class="node"><title>Node19</title>
<g id="a_node20"><a xlink:href="$db/d6c/_jetpack_8h.html" xlink:title="Jetpack Header file. ">
<polygon fill="white" stroke="black" points="866.996,-134.5 866.996,-153.5 925.996,-153.5 925.996,-134.5 866.996,-134.5"/>
<text text-anchor="middle" x="896.496" y="-141.5" font-family="Helvetica,sans-Serif" font-size="10.00">Jetpack.h</text>
</a>
</g>
</g>
<!-- Node0&#45;&gt;Node19 -->
<g id="edge25" class="edge"><title>Node0&#45;&gt;Node19</title>
<path fill="none" stroke="midnightblue" d="M816.76,-190.324C831.718,-181.822 854.751,-168.729 872.223,-158.797"/>
<polygon fill="midnightblue" stroke="midnightblue" points="874.307,-161.639 881.271,-153.655 870.848,-155.553 874.307,-161.639"/>
</g>
<!-- Node20 -->
<g id="node21" class="node"><title>Node20</title>
<g id="a_node21"><a xlink:href="$d7/d31/_irene3000_8h.html" xlink:title="Irene3000 Header file. ">
<polygon fill="white" stroke="black" points="944.496,-134.5 944.496,-153.5 1012.5,-153.5 1012.5,-134.5 944.496,-134.5"/>
<text text-anchor="middle" x="978.496" y="-141.5" font-family="Helvetica,sans-Serif" font-size="10.00">Irene3000.h</text>
</a>
</g>
</g>
<!-- Node0&#45;&gt;Node20 -->
<g id="edge27" class="edge"><title>Node0&#45;&gt;Node20</title>
<path fill="none" stroke="midnightblue" d="M829.543,-190.444C859.578,-181.28 907.409,-166.688 940.739,-156.519"/>
<polygon fill="midnightblue" stroke="midnightblue" points="942.038,-159.782 950.581,-153.516 939.995,-153.087 942.038,-159.782"/>
</g>
<!-- Node22 -->
<g id="node23" class="node"><title>Node22</title>
<g id="a_node23"><a xlink:href="$d7/dcc/_external_sensors_8h.html" xlink:title="ExternalSensors header file. ">
<polygon fill="white" stroke="black" points="1052,-134.5 1052,-153.5 1149,-153.5 1149,-134.5 1052,-134.5"/>
<text text-anchor="middle" x="1100.5" y="-141.5" font-family="Helvetica,sans-Serif" font-size="10.00">ExternalSensors.h</text>
</a>
</g>
</g>
<!-- Node0&#45;&gt;Node22 -->
<g id="edge31" class="edge"><title>Node0&#45;&gt;Node22</title>
<path fill="none" stroke="midnightblue" d="M837.266,-192.54C888.259,-183.331 982.393,-166.33 1043.18,-155.352"/>
<polygon fill="midnightblue" stroke="midnightblue" points="1044.16,-158.731 1053.38,-153.509 1042.92,-151.843 1044.16,-158.731"/>
</g>
<!-- Node26 -->
<g id="node27" class="node"><title>Node26</title>
<g id="a_node27"><a xlink:href="$dc/d38/_cool_wifi_8h.html" xlink:title="CoolWifi Header file. ">
<polygon fill="white" stroke="black" points="1547.5,-134.5 1547.5,-153.5 1609.5,-153.5 1609.5,-134.5 1547.5,-134.5"/>
<text text-anchor="middle" x="1578.5" y="-141.5" font-family="Helvetica,sans-Serif" font-size="10.00">CoolWifi.h</text>
</a>
</g>
</g>
<!-- Node0&#45;&gt;Node26 -->
<g id="edge37" class="edge"><title>Node0&#45;&gt;Node26</title>
<path fill="none" stroke="midnightblue" d="M837.158,-196.522C965.098,-187.63 1400.65,-157.36 1537.2,-147.87"/>
<polygon fill="midnightblue" stroke="midnightblue" points="1537.52,-151.356 1547.26,-147.171 1537.04,-144.373 1537.52,-151.356"/>
</g>
<!-- Node30 -->
<g id="node31" class="node"><title>Node30</title>
<g id="a_node31"><a xlink:href="$d1/d25/_cool_board_actor_8h.html" xlink:title="CoolBoardActor Header file. ">
<polygon fill="white" stroke="black" points="168.496,-134.5 168.496,-153.5 262.496,-153.5 262.496,-134.5 168.496,-134.5"/>
<text text-anchor="middle" x="215.496" y="-141.5" font-family="Helvetica,sans-Serif" font-size="10.00">CoolBoardActor.h</text>
</a>
</g>
</g>
<!-- Node0&#45;&gt;Node30 -->
<g id="edge43" class="edge"><title>Node0&#45;&gt;Node30</title>
<path fill="none" stroke="midnightblue" d="M765.803,-196.851C681.849,-191.607 465.133,-176.964 272.749,-153.935"/>
<polygon fill="midnightblue" stroke="midnightblue" points="273.085,-150.45 262.737,-152.726 272.246,-157.4 273.085,-150.45"/>
</g>
<!-- Node1&#45;&gt;Node2 -->
<g id="edge2" class="edge"><title>Node1&#45;&gt;Node2</title>
<path fill="none" stroke="midnightblue" d="M808.026,-134.305C823.618,-113.543 863.247,-60.774 883.76,-33.4599"/>
<polygon fill="midnightblue" stroke="midnightblue" points="886.715,-35.3537 889.921,-25.2557 881.117,-31.1501 886.715,-35.3537"/>
</g>
<!-- Node3&#45;&gt;Node2 -->
<g id="edge4" class="edge"><title>Node3&#45;&gt;Node2</title>
<path fill="none" stroke="midnightblue" d="M313.038,-134.382C297.727,-127.184 278.633,-115.288 269.496,-98 263.059,-85.8188 260.153,-77.1259 269.496,-67 309.379,-23.7764 726.102,-17.5379 857.226,-16.6462"/>
<polygon fill="midnightblue" stroke="midnightblue" points="857.26,-20.1462 867.238,-16.5849 857.217,-13.1463 857.26,-20.1462"/>
</g>
<!-- Node4 -->
<g id="node5" class="node"><title>Node4</title>
<g id="a_node5"><a xlink:href="$d1/dd7/_cool_s_i114_x_8h.html" xlink:title="internals/CoolSI114X.h">
<polygon fill="white" stroke="black" points="278.996,-73 278.996,-92 395.996,-92 395.996,-73 278.996,-73"/>
<text text-anchor="middle" x="337.496" y="-80" font-family="Helvetica,sans-Serif" font-size="10.00">internals/CoolSI114X.h</text>
</a>
</g>
</g>
<!-- Node3&#45;&gt;Node4 -->
<g id="edge5" class="edge"><title>Node3&#45;&gt;Node4</title>
<path fill="none" stroke="midnightblue" d="M335.783,-134.475C336.065,-126.08 336.505,-112.981 336.869,-102.163"/>
<polygon fill="midnightblue" stroke="midnightblue" points="340.372,-102.121 337.21,-92.0091 333.376,-101.886 340.372,-102.121"/>
</g>
<!-- Node5 -->
<g id="node6" class="node"><title>Node5</title>
<g id="a_node6"><a xlink:href="$d2/d3a/_cool_spark_fun_b_m_e280_8h.html" xlink:title="internals/CoolSparkFunBME280.h">
<polygon fill="white" stroke="black" points="20.4964,-73 20.4964,-92 184.496,-92 184.496,-73 20.4964,-73"/>
<text text-anchor="middle" x="102.496" y="-80" font-family="Helvetica,sans-Serif" font-size="10.00">internals/CoolSparkFunBME280.h</text>
</a>
</g>
</g>
<!-- Node3&#45;&gt;Node5 -->
<g id="edge7" class="edge"><title>Node3&#45;&gt;Node5</title>
<path fill="none" stroke="midnightblue" d="M302.113,-134.475C260.934,-123.959 190.847,-106.062 145.627,-94.5142"/>
<polygon fill="midnightblue" stroke="midnightblue" points="146.373,-91.0922 135.818,-92.0091 144.641,-97.8746 146.373,-91.0922"/>
</g>
<!-- Node4&#45;&gt;Node2 -->
<g id="edge6" class="edge"><title>Node4&#45;&gt;Node2</title>
<path fill="none" stroke="midnightblue" d="M374.064,-72.9474C384.203,-70.7824 395.242,-68.6159 405.496,-67 572.517,-40.6818 773.755,-24.9334 857.246,-19.0958"/>
<polygon fill="midnightblue" stroke="midnightblue" points="857.566,-22.5822 867.301,-18.4012 857.083,-15.5988 857.566,-22.5822"/>
</g>
<!-- Node6 -->
<g id="node7" class="node"><title>Node6</title>
<polygon fill="white" stroke="#bfbfbf" points="77.9964,-6 77.9964,-25 126.996,-25 126.996,-6 77.9964,-6"/>
<text text-anchor="middle" x="102.496" y="-13" font-family="Helvetica,sans-Serif" font-size="10.00">stdint.h</text>
</g>
<!-- Node5&#45;&gt;Node6 -->
<g id="edge8" class="edge"><title>Node5&#45;&gt;Node6</title>
<path fill="none" stroke="midnightblue" d="M102.496,-72.7338C102.496,-63.1826 102.496,-47.6183 102.496,-35.2829"/>
<polygon fill="midnightblue" stroke="midnightblue" points="105.996,-35.1273 102.496,-25.1273 98.9965,-35.1273 105.996,-35.1273"/>
</g>
<!-- Node7&#45;&gt;Node2 -->
<g id="edge10" class="edge"><title>Node7&#45;&gt;Node2</title>
<path fill="none" stroke="midnightblue" d="M523.83,-134.405C523.114,-118.495 524.107,-84.4908 543.496,-67 588.966,-25.983 774.962,-18.2021 857.142,-16.7839"/>
<polygon fill="midnightblue" stroke="midnightblue" points="857.384,-20.2808 867.33,-16.6318 857.279,-13.2816 857.384,-20.2808"/>
</g>
<!-- Node8 -->
<g id="node9" class="node"><title>Node8</title>
<polygon fill="white" stroke="#bfbfbf" points="414.496,-73 414.496,-92 496.496,-92 496.496,-73 414.496,-73"/>
<text text-anchor="middle" x="455.496" y="-80" font-family="Helvetica,sans-Serif" font-size="10.00">NeoPixelBus.h</text>
</g>
<!-- Node7&#45;&gt;Node8 -->
<g id="edge11" class="edge"><title>Node7&#45;&gt;Node8</title>
<path fill="none" stroke="midnightblue" d="M514.61,-134.475C503.85,-125.197 486.425,-110.171 473.275,-98.831"/>
<polygon fill="midnightblue" stroke="midnightblue" points="475.223,-95.889 465.364,-92.0091 470.652,-101.19 475.223,-95.889"/>
</g>
<!-- Node9&#45;&gt;Node2 -->
<g id="edge13" class="edge"><title>Node9&#45;&gt;Node2</title>
<path fill="none" stroke="midnightblue" d="M726.536,-134.376C747.065,-126.459 776.925,-113.608 800.496,-98 817.547,-86.7101 819.007,-80.3513 834.496,-67 848.679,-54.775 865.127,-41.414 877.517,-31.5074"/>
<polygon fill="midnightblue" stroke="midnightblue" points="879.724,-34.2237 885.368,-25.2573 875.364,-28.7472 879.724,-34.2237"/>
</g>
<!-- Node10 -->
<g id="node11" class="node"><title>Node10</title>
<polygon fill="white" stroke="#bfbfbf" points="552.996,-73 552.996,-92 611.996,-92 611.996,-73 552.996,-73"/>
<text text-anchor="middle" x="582.496" y="-80" font-family="Helvetica,sans-Serif" font-size="10.00">TimeLib.h</text>
</g>
<!-- Node9&#45;&gt;Node10 -->
<g id="edge14" class="edge"><title>Node9&#45;&gt;Node10</title>
<path fill="none" stroke="midnightblue" d="M685.303,-134.475C665.254,-124.534 631.898,-107.995 608.636,-96.461"/>
<polygon fill="midnightblue" stroke="midnightblue" points="610.172,-93.3157 599.658,-92.0091 607.062,-99.5871 610.172,-93.3157"/>
</g>
<!-- Node11 -->
<g id="node12" class="node"><title>Node11</title>
<polygon fill="white" stroke="#bfbfbf" points="629.996,-73 629.996,-92 692.996,-92 692.996,-73 629.996,-73"/>
<text text-anchor="middle" x="661.496" y="-80" font-family="Helvetica,sans-Serif" font-size="10.00">WiFiUdp.h</text>
</g>
<!-- Node9&#45;&gt;Node11 -->
<g id="edge15" class="edge"><title>Node9&#45;&gt;Node11</title>
<path fill="none" stroke="midnightblue" d="M696.622,-134.475C690.533,-125.638 680.852,-111.589 673.193,-100.475"/>
<polygon fill="midnightblue" stroke="midnightblue" points="675.916,-98.2575 667.36,-92.0091 670.152,-102.229 675.916,-98.2575"/>
</g>
<!-- Node12 -->
<g id="node13" class="node"><title>Node12</title>
<polygon fill="white" stroke="#bfbfbf" points="710.996,-73 710.996,-92 791.996,-92 791.996,-73 710.996,-73"/>
<text text-anchor="middle" x="751.496" y="-80" font-family="Helvetica,sans-Serif" font-size="10.00">DS1337RTC.h</text>
</g>
<!-- Node9&#45;&gt;Node12 -->
<g id="edge16" class="edge"><title>Node9&#45;&gt;Node12</title>
<path fill="none" stroke="midnightblue" d="M709.517,-134.475C716.94,-125.462 728.829,-111.025 738.063,-99.8118"/>
<polygon fill="midnightblue" stroke="midnightblue" points="740.834,-101.953 744.489,-92.0091 735.43,-97.5034 740.834,-101.953"/>
</g>
<!-- Node13&#45;&gt;Node2 -->
<g id="edge18" class="edge"><title>Node13&#45;&gt;Node2</title>
<path fill="none" stroke="midnightblue" d="M1265.94,-134.466C1238.65,-126.244 1197.22,-112.888 1162.5,-98 1135.27,-86.3281 1131.2,-77.4774 1103.5,-67 1046.76,-45.5446 977.776,-30.8554 935.514,-23.0675"/>
<polygon fill="midnightblue" stroke="midnightblue" points="936.09,-19.6149 925.627,-21.2819 934.846,-26.5035 936.09,-19.6149"/>
</g>
<!-- Node14 -->
<g id="node15" class="node"><title>Node14</title>
<polygon fill="white" stroke="#bfbfbf" points="1478.5,-73 1478.5,-92 1564.5,-92 1564.5,-73 1478.5,-73"/>
<text text-anchor="middle" x="1521.5" y="-80" font-family="Helvetica,sans-Serif" font-size="10.00">ESP8266WiFi.h</text>
</g>
<!-- Node13&#45;&gt;Node14 -->
<g id="edge19" class="edge"><title>Node13&#45;&gt;Node14</title>
<path fill="none" stroke="midnightblue" d="M1329.23,-134.477C1364.32,-125.564 1420.83,-111.077 1469.5,-98 1473.36,-96.9626 1477.38,-95.8683 1481.39,-94.7649"/>
<polygon fill="midnightblue" stroke="midnightblue" points="1482.57,-98.0698 1491.28,-92.0306 1480.71,-91.3231 1482.57,-98.0698"/>
</g>
<!-- Node15 -->
<g id="node16" class="node"><title>Node15</title>
<g id="a_node16"><a xlink:href="$d5/dfb/_cool_pub_sub_client_8h.html" xlink:title="internals/CoolPubSubClient.h">
<polygon fill="white" stroke="black" points="1315,-73 1315,-92 1460,-92 1460,-73 1315,-73"/>
<text text-anchor="middle" x="1387.5" y="-80" font-family="Helvetica,sans-Serif" font-size="10.00">internals/CoolPubSubClient.h</text>
</a>
</g>
</g>
<!-- Node13&#45;&gt;Node15 -->
<g id="edge20" class="edge"><title>Node13&#45;&gt;Node15</title>
<path fill="none" stroke="midnightblue" d="M1308.68,-134.475C1323.57,-124.843 1348.04,-109.017 1365.77,-97.5517"/>
<polygon fill="midnightblue" stroke="midnightblue" points="1367.84,-100.379 1374.34,-92.0091 1364.04,-94.5008 1367.84,-100.379"/>
</g>
<!-- Node15&#45;&gt;Node2 -->
<g id="edge21" class="edge"><title>Node15&#45;&gt;Node2</title>
<path fill="none" stroke="midnightblue" d="M1341.59,-72.948C1329.85,-70.8789 1317.22,-68.7591 1305.5,-67 1170.12,-46.6866 1008.62,-28.5273 935.683,-20.6499"/>
<polygon fill="midnightblue" stroke="midnightblue" points="935.894,-17.1525 925.577,-19.5632 935.146,-24.1124 935.894,-17.1525"/>
</g>
<!-- Node16 -->
<g id="node17" class="node"><title>Node16</title>
<polygon fill="white" stroke="#bfbfbf" points="1462,-6 1462,-25 1533,-25 1533,-6 1462,-6"/>
<text text-anchor="middle" x="1497.5" y="-13" font-family="Helvetica,sans-Serif" font-size="10.00">IPAddress.h</text>
</g>
<!-- Node15&#45;&gt;Node16 -->
<g id="edge22" class="edge"><title>Node15&#45;&gt;Node16</title>
<path fill="none" stroke="midnightblue" d="M1402.33,-72.7338C1420.8,-61.8182 1452.57,-43.0487 1474.28,-30.2209"/>
<polygon fill="midnightblue" stroke="midnightblue" points="1476.07,-33.2279 1482.9,-25.1273 1472.51,-27.2014 1476.07,-33.2279"/>
</g>
<!-- Node17 -->
<g id="node18" class="node"><title>Node17</title>
<polygon fill="white" stroke="#bfbfbf" points="1319.5,-6 1319.5,-25 1369.5,-25 1369.5,-6 1319.5,-6"/>
<text text-anchor="middle" x="1344.5" y="-13" font-family="Helvetica,sans-Serif" font-size="10.00">Client.h</text>
</g>
<!-- Node15&#45;&gt;Node17 -->
<g id="edge23" class="edge"><title>Node15&#45;&gt;Node17</title>
<path fill="none" stroke="midnightblue" d="M1381.7,-72.7338C1375.12,-62.7928 1364.24,-46.3377 1355.93,-33.7892"/>
<polygon fill="midnightblue" stroke="midnightblue" points="1358.64,-31.5364 1350.2,-25.1273 1352.8,-35.3986 1358.64,-31.5364"/>
</g>
<!-- Node18 -->
<g id="node19" class="node"><title>Node18</title>
<polygon fill="white" stroke="#bfbfbf" points="1387.5,-6 1387.5,-25 1443.5,-25 1443.5,-6 1387.5,-6"/>
<text text-anchor="middle" x="1415.5" y="-13" font-family="Helvetica,sans-Serif" font-size="10.00">Stream.h</text>
</g>
<!-- Node15&#45;&gt;Node18 -->
<g id="edge24" class="edge"><title>Node15&#45;&gt;Node18</title>
<path fill="none" stroke="midnightblue" d="M1391.27,-72.7338C1395.47,-62.9877 1402.37,-46.9805 1407.73,-34.5318"/>
<polygon fill="midnightblue" stroke="midnightblue" points="1411.04,-35.6961 1411.78,-25.1273 1404.61,-32.9267 1411.04,-35.6961"/>
</g>
<!-- Node19&#45;&gt;Node2 -->
<g id="edge26" class="edge"><title>Node19&#45;&gt;Node2</title>
<path fill="none" stroke="midnightblue" d="M896.496,-134.305C896.496,-113.994 896.496,-63.0532 896.496,-35.2768"/>
<polygon fill="midnightblue" stroke="midnightblue" points="899.996,-35.2557 896.496,-25.2557 892.996,-35.2557 899.996,-35.2557"/>
</g>
<!-- Node20&#45;&gt;Node2 -->
<g id="edge30" class="edge"><title>Node20&#45;&gt;Node2</title>
<path fill="none" stroke="midnightblue" d="M972.86,-134.305C959.46,-113.633 925.493,-61.2323 907.722,-33.8176"/>
<polygon fill="midnightblue" stroke="midnightblue" points="910.548,-31.7432 902.172,-25.2557 904.674,-35.5508 910.548,-31.7432"/>
</g>
<!-- Node21 -->
<g id="node22" class="node"><title>Node21</title>
<g id="a_node22"><a xlink:href="$df/d06/_cool_adafruit___a_d_s1015_8h.html" xlink:title="internals/CoolAdafruit\l_ADS1015.h">
<polygon fill="white" stroke="black" points="962.496,-67.5 962.496,-97.5 1072.5,-97.5 1072.5,-67.5 962.496,-67.5"/>
<text text-anchor="start" x="970.496" y="-85.5" font-family="Helvetica,sans-Serif" font-size="10.00">internals/CoolAdafruit</text>
<text text-anchor="middle" x="1017.5" y="-74.5" font-family="Helvetica,sans-Serif" font-size="10.00">_ADS1015.h</text>
</a>
</g>
</g>
<!-- Node20&#45;&gt;Node21 -->
<g id="edge28" class="edge"><title>Node20&#45;&gt;Node21</title>
<path fill="none" stroke="midnightblue" d="M984.084,-134.475C988.922,-127.094 996.143,-116.077 1002.64,-106.171"/>
<polygon fill="midnightblue" stroke="midnightblue" points="1005.75,-107.805 1008.3,-97.523 999.896,-103.968 1005.75,-107.805"/>
</g>
<!-- Node21&#45;&gt;Node2 -->
<g id="edge29" class="edge"><title>Node21&#45;&gt;Node2</title>
<path fill="none" stroke="midnightblue" d="M991.241,-67.396C970.48,-56.2433 941.697,-40.7812 921.317,-29.8336"/>
<polygon fill="midnightblue" stroke="midnightblue" points="922.798,-26.6561 912.332,-25.007 919.486,-32.8227 922.798,-26.6561"/>
</g>
<!-- Node22&#45;&gt;Node2 -->
<g id="edge32" class="edge"><title>Node22&#45;&gt;Node2</title>
<path fill="none" stroke="midnightblue" d="M1100.96,-134.38C1101.3,-118.733 1099.67,-85.5649 1081.5,-67 1043.18,-27.8466 977.681,-18.1625 935.78,-16.2399"/>
<polygon fill="midnightblue" stroke="midnightblue" points="935.777,-12.738 925.667,-15.9051 935.545,-19.7342 935.777,-12.738"/>
</g>
<!-- Node23 -->
<g id="node24" class="node"><title>Node23</title>
<g id="a_node24"><a xlink:href="$d6/d20/_external_sensor_8h.html" xlink:title="ExternalSensor Header file. ">
<polygon fill="white" stroke="black" points="1204.5,-73 1204.5,-92 1296.5,-92 1296.5,-73 1204.5,-73"/>
<text text-anchor="middle" x="1250.5" y="-80" font-family="Helvetica,sans-Serif" font-size="10.00">ExternalSensor.h</text>
</a>
</g>
</g>
<!-- Node22&#45;&gt;Node23 -->
<g id="edge33" class="edge"><title>Node22&#45;&gt;Node23</title>
<path fill="none" stroke="midnightblue" d="M1121.99,-134.475C1147.61,-124.313 1190.61,-107.256 1219.74,-95.6996"/>
<polygon fill="midnightblue" stroke="midnightblue" points="1221.04,-98.9497 1229.04,-92.0091 1218.46,-92.4429 1221.04,-98.9497"/>
</g>
<!-- Node23&#45;&gt;Node2 -->
<g id="edge36" class="edge"><title>Node23&#45;&gt;Node2</title>
<path fill="none" stroke="midnightblue" d="M1216.95,-72.9727C1208.35,-70.9032 1199.1,-68.7769 1190.5,-67 1099.78,-48.2685 992.303,-31.0592 935.775,-22.3894"/>
<polygon fill="midnightblue" stroke="midnightblue" points="936.242,-18.9202 925.829,-20.8715 935.186,-25.8401 936.242,-18.9202"/>
</g>
<!-- Node24 -->
<g id="node25" class="node"><title>Node24</title>
<g id="a_node25"><a xlink:href="$d0/d08/_cool_n_d_i_r___i2_c_8h.html" xlink:title="internals/CoolNDIR\l_I2C.h">
<polygon fill="white" stroke="black" points="1199.5,-0.5 1199.5,-30.5 1301.5,-30.5 1301.5,-0.5 1199.5,-0.5"/>
<text text-anchor="start" x="1207.5" y="-18.5" font-family="Helvetica,sans-Serif" font-size="10.00">internals/CoolNDIR</text>
<text text-anchor="middle" x="1250.5" y="-7.5" font-family="Helvetica,sans-Serif" font-size="10.00">_I2C.h</text>
</a>
</g>
</g>
<!-- Node23&#45;&gt;Node24 -->
<g id="edge34" class="edge"><title>Node23&#45;&gt;Node24</title>
<path fill="none" stroke="midnightblue" d="M1250.5,-72.7338C1250.5,-64.5406 1250.5,-51.9225 1250.5,-40.7136"/>
<polygon fill="midnightblue" stroke="midnightblue" points="1254,-40.589 1250.5,-30.589 1247,-40.5891 1254,-40.589"/>
</g>
<!-- Node25 -->
<g id="node26" class="node"><title>Node25</title>
<polygon fill="white" stroke="#bfbfbf" points="1075,-6 1075,-25 1182,-25 1182,-6 1075,-6"/>
<text text-anchor="middle" x="1128.5" y="-13" font-family="Helvetica,sans-Serif" font-size="10.00">DallasTemperature.h</text>
</g>
<!-- Node23&#45;&gt;Node25 -->
<g id="edge35" class="edge"><title>Node23&#45;&gt;Node25</title>
<path fill="none" stroke="midnightblue" d="M1234.3,-72.8685C1213.7,-61.8932 1177.91,-42.8243 1153.72,-29.9385"/>
<polygon fill="midnightblue" stroke="midnightblue" points="1155.24,-26.7804 1144.76,-25.1672 1151.94,-32.9583 1155.24,-26.7804"/>
</g>
<!-- Node26&#45;&gt;Node2 -->
<g id="edge38" class="edge"><title>Node26&#45;&gt;Node2</title>
<path fill="none" stroke="midnightblue" d="M1547.23,-141.12C1467.88,-136.062 1260.34,-120.975 1195.5,-98 1171.21,-89.3934 1170.41,-76.5994 1146.5,-67 1075.33,-38.4353 986.041,-25.4073 935.717,-19.9675"/>
<polygon fill="midnightblue" stroke="midnightblue" points="935.898,-16.4676 925.59,-18.919 935.177,-23.4303 935.898,-16.4676"/>
</g>
<!-- Node26&#45;&gt;Node14 -->
<g id="edge39" class="edge"><title>Node26&#45;&gt;Node14</title>
<path fill="none" stroke="midnightblue" d="M1570.33,-134.475C1561.61,-125.373 1547.59,-110.741 1536.81,-99.483"/>
<polygon fill="midnightblue" stroke="midnightblue" points="1539.09,-96.809 1529.65,-92.0091 1534.04,-101.651 1539.09,-96.809"/>
</g>
<!-- Node27 -->
<g id="node28" class="node"><title>Node27</title>
<polygon fill="white" stroke="#bfbfbf" points="1583,-73 1583,-92 1690,-92 1690,-73 1583,-73"/>
<text text-anchor="middle" x="1636.5" y="-80" font-family="Helvetica,sans-Serif" font-size="10.00">ESP8266WiFiMulti.h</text>
</g>
<!-- Node26&#45;&gt;Node27 -->
<g id="edge40" class="edge"><title>Node26&#45;&gt;Node27</title>
<path fill="none" stroke="midnightblue" d="M1586.81,-134.475C1595.68,-125.373 1609.94,-110.741 1620.92,-99.483"/>
<polygon fill="midnightblue" stroke="midnightblue" points="1623.73,-101.613 1628.2,-92.0091 1618.72,-96.7268 1623.73,-101.613"/>
</g>
<!-- Node28 -->
<g id="node29" class="node"><title>Node28</title>
<polygon fill="white" stroke="#bfbfbf" points="1708,-73 1708,-92 1783,-92 1783,-73 1708,-73"/>
<text text-anchor="middle" x="1745.5" y="-80" font-family="Helvetica,sans-Serif" font-size="10.00">DNSServer.h</text>
</g>
<!-- Node26&#45;&gt;Node28 -->
<g id="edge41" class="edge"><title>Node26&#45;&gt;Node28</title>
<path fill="none" stroke="midnightblue" d="M1602.42,-134.475C1631.19,-124.225 1679.65,-106.959 1712.1,-95.3994"/>
<polygon fill="midnightblue" stroke="midnightblue" points="1713.37,-98.6624 1721.61,-92.0091 1711.02,-92.0684 1713.37,-98.6624"/>
</g>
<!-- Node29 -->
<g id="node30" class="node"><title>Node29</title>
<polygon fill="white" stroke="#bfbfbf" points="1801,-73 1801,-92 1916,-92 1916,-73 1801,-73"/>
<text text-anchor="middle" x="1858.5" y="-80" font-family="Helvetica,sans-Serif" font-size="10.00">ESP8266WebServer.h</text>
</g>
<!-- Node26&#45;&gt;Node29 -->
<g id="edge42" class="edge"><title>Node26&#45;&gt;Node29</title>
<path fill="none" stroke="midnightblue" d="M1609.7,-136.53C1651.39,-127.865 1727.54,-111.964 1792.5,-98 1798.15,-96.7837 1804.08,-95.4977 1809.97,-94.2142"/>
<polygon fill="midnightblue" stroke="midnightblue" points="1810.75,-97.6255 1819.77,-92.0689 1809.25,-90.7872 1810.75,-97.6255"/>
</g>
<!-- Node30&#45;&gt;Node2 -->
<g id="edge44" class="edge"><title>Node30&#45;&gt;Node2</title>
<path fill="none" stroke="midnightblue" d="M217.844,-134.047C222.694,-117.541 235.517,-82.5818 260.496,-67 311.057,-35.4612 726.043,-21.2612 857.035,-17.536"/>
<polygon fill="midnightblue" stroke="midnightblue" points="857.496,-21.0246 867.395,-17.2465 857.301,-14.0273 857.496,-21.0246"/>
</g>
</g>
</svg>
