<?xml version="1.0" encoding="UTF-8" standalone="no"?>
<!DOCTYPE svg PUBLIC "-//W3C//DTD SVG 1.1//EN"
 "http://www.w3.org/Graphics/SVG/1.1/DTD/svg11.dtd">
<!-- Generated by graphviz version 2.38.0 (20140413.2041)
 -->
<!-- Title: /home/ashiroji/Arduino/libraries/CoolBoard/src/ExternalSensors.cpp Pages: 1 -->
<svg width="509pt" height="229pt"
 viewBox="0.00 0.00 508.50 229.00" xmlns="http://www.w3.org/2000/svg" xmlns:xlink="http://www.w3.org/1999/xlink">
<g id="graph0" class="graph" transform="scale(1 1) rotate(0) translate(4 225)">
<title>/home/ashiroji/Arduino/libraries/CoolBoard/src/ExternalSensors.cpp</title>
<polygon fill="white" stroke="none" points="-4,4 -4,-225 504.5,-225 504.5,4 -4,4"/>
<!-- Node0 -->
<g id="node1" class="node"><title>Node0</title>
<polygon fill="#bfbfbf" stroke="black" points="129.5,-179.5 129.5,-220.5 248.5,-220.5 248.5,-179.5 129.5,-179.5"/>
<text text-anchor="start" x="137.5" y="-208.5" font-family="Helvetica,sans-Serif" font-size="10.00">/home/ashiroji/Arduino</text>
<text text-anchor="start" x="137.5" y="-197.5" font-family="Helvetica,sans-Serif" font-size="10.00">/libraries/CoolBoard/src</text>
<text text-anchor="middle" x="189" y="-186.5" font-family="Helvetica,sans-Serif" font-size="10.00">/ExternalSensors.cpp</text>
</g>
<!-- Node1 -->
<g id="node2" class="node"><title>Node1</title>
<polygon fill="white" stroke="#bfbfbf" points="0,-123.5 0,-142.5 38,-142.5 38,-123.5 0,-123.5"/>
<text text-anchor="middle" x="19" y="-130.5" font-family="Helvetica,sans-Serif" font-size="10.00">FS.h</text>
</g>
<!-- Node0&#45;&gt;Node1 -->
<g id="edge1" class="edge"><title>Node0&#45;&gt;Node1</title>
<path fill="none" stroke="midnightblue" d="M137.994,-179.498C108.425,-168.192 72.2833,-154.373 47.6429,-144.952"/>
<polygon fill="midnightblue" stroke="midnightblue" points="48.7509,-141.628 38.1604,-141.326 46.2509,-148.167 48.7509,-141.628"/>
</g>
<!-- Node2 -->
<g id="node3" class="node"><title>Node2</title>
<polygon fill="white" stroke="#bfbfbf" points="198,-6 198,-25 256,-25 256,-6 198,-6"/>
<text text-anchor="middle" x="227" y="-13" font-family="Helvetica,sans-Serif" font-size="10.00">Arduino.h</text>
</g>
<!-- Node0&#45;&gt;Node2 -->
<g id="edge2" class="edge"><title>Node0&#45;&gt;Node2</title>
<path fill="none" stroke="midnightblue" d="M129.457,-181.077C99.4388,-168.489 71.8987,-149.203 85,-123 108.115,-76.769 161.899,-45.4002 196.24,-29.2644"/>
<polygon fill="midnightblue" stroke="midnightblue" points="197.712,-32.4401 205.369,-25.1176 194.816,-26.0669 197.712,-32.4401"/>
</g>
<!-- Node3 -->
<g id="node4" class="node"><title>Node3</title>
<polygon fill="white" stroke="#bfbfbf" points="94.5,-123.5 94.5,-142.5 139.5,-142.5 139.5,-123.5 94.5,-123.5"/>
<text text-anchor="middle" x="117" y="-130.5" font-family="Helvetica,sans-Serif" font-size="10.00">Wire.h</text>
</g>
<!-- Node0&#45;&gt;Node3 -->
<g id="edge3" class="edge"><title>Node0&#45;&gt;Node3</title>
<path fill="none" stroke="midnightblue" d="M167.398,-179.498C156.783,-169.915 144.17,-158.528 134.217,-149.543"/>
<polygon fill="midnightblue" stroke="midnightblue" points="136.352,-146.756 126.584,-142.652 131.662,-151.952 136.352,-146.756"/>
</g>
<!-- Node4 -->
<g id="node5" class="node"><title>Node4</title>
<polygon fill="white" stroke="#bfbfbf" points="157.5,-123.5 157.5,-142.5 220.5,-142.5 220.5,-123.5 157.5,-123.5"/>
<text text-anchor="middle" x="189" y="-130.5" font-family="Helvetica,sans-Serif" font-size="10.00">OneWire.h</text>
</g>
<!-- Node0&#45;&gt;Node4 -->
<g id="edge4" class="edge"><title>Node0&#45;&gt;Node4</title>
<path fill="none" stroke="midnightblue" d="M189,-179.498C189,-171.065 189,-161.235 189,-152.874"/>
<polygon fill="midnightblue" stroke="midnightblue" points="192.5,-152.652 189,-142.652 185.5,-152.653 192.5,-152.652"/>
</g>
<!-- Node5 -->
<g id="node6" class="node"><title>Node5</title>
<g id="a_node6"><a xlink:href="../../d7/dcc/_external_sensors_8h.html" target="_top" xlink:title="ExternalSensors Header File. ">
<polygon fill="white" stroke="black" points="238.5,-123.5 238.5,-142.5 335.5,-142.5 335.5,-123.5 238.5,-123.5"/>
<text text-anchor="middle" x="287" y="-130.5" font-family="Helvetica,sans-Serif" font-size="10.00">ExternalSensors.h</text>
</a>
</g>
</g>
<!-- Node0&#45;&gt;Node5 -->
<g id="edge5" class="edge"><title>Node0&#45;&gt;Node5</title>
<path fill="none" stroke="midnightblue" d="M218.403,-179.498C233.573,-169.436 251.743,-157.385 265.57,-148.214"/>
<polygon fill="midnightblue" stroke="midnightblue" points="267.556,-151.097 273.955,-142.652 263.687,-145.263 267.556,-151.097"/>
</g>
<!-- Node6 -->
<g id="node7" class="node"><title>Node6</title>
<g id="a_node7"><a xlink:href="../../d6/d20/_external_sensor_8h.html" target="_top" xlink:title="ExternalSensor Header File. ">
<polygon fill="white" stroke="black" points="279,-67.5 279,-86.5 371,-86.5 371,-67.5 279,-67.5"/>
<text text-anchor="middle" x="325" y="-74.5" font-family="Helvetica,sans-Serif" font-size="10.00">ExternalSensor.h</text>
</a>
</g>
</g>
<!-- Node0&#45;&gt;Node6 -->
<g id="edge12" class="edge"><title>Node0&#45;&gt;Node6</title>
<path fill="none" stroke="midnightblue" d="M248.745,-194.036C282.969,-187.772 323.31,-173.831 345,-143 355.046,-128.72 346.813,-109.249 338.066,-95.3492"/>
<polygon fill="midnightblue" stroke="midnightblue" points="340.699,-93.0016 332.147,-86.7482 334.933,-96.9701 340.699,-93.0016"/>
</g>
<!-- Node9 -->
<g id="node10" class="node"><title>Node9</title>
<polygon fill="white" stroke="#bfbfbf" points="392.5,-123.5 392.5,-142.5 471.5,-142.5 471.5,-123.5 392.5,-123.5"/>
<text text-anchor="middle" x="432" y="-130.5" font-family="Helvetica,sans-Serif" font-size="10.00">ArduinoJson.h</text>
</g>
<!-- Node0&#45;&gt;Node9 -->
<g id="edge11" class="edge"><title>Node0&#45;&gt;Node9</title>
<path fill="none" stroke="midnightblue" d="M248.756,-183.016C292.616,-171.284 351.096,-155.641 390.073,-145.215"/>
<polygon fill="midnightblue" stroke="midnightblue" points="391.275,-148.517 400.031,-142.551 389.466,-141.754 391.275,-148.517"/>
</g>
<!-- Node5&#45;&gt;Node2 -->
<g id="edge6" class="edge"><title>Node5&#45;&gt;Node2</title>
<path fill="none" stroke="midnightblue" d="M282.49,-123.319C272.717,-104.506 249.414,-59.6475 236.327,-34.4553"/>
<polygon fill="midnightblue" stroke="midnightblue" points="239.278,-32.5426 231.562,-25.282 233.066,-35.7696 239.278,-32.5426"/>
</g>
<!-- Node5&#45;&gt;Node6 -->
<g id="edge7" class="edge"><title>Node5&#45;&gt;Node6</title>
<path fill="none" stroke="midnightblue" d="M293.275,-123.083C298.642,-115.455 306.518,-104.264 313.079,-94.9408"/>
<polygon fill="midnightblue" stroke="midnightblue" points="315.949,-96.9434 318.842,-86.7511 310.225,-92.9149 315.949,-96.9434"/>
</g>
<!-- Node6&#45;&gt;Node2 -->
<g id="edge10" class="edge"><title>Node6&#45;&gt;Node2</title>
<path fill="none" stroke="midnightblue" d="M310.959,-67.4751C294.949,-57.7548 268.55,-41.7266 249.626,-30.2372"/>
<polygon fill="midnightblue" stroke="midnightblue" points="251.379,-27.2072 241.015,-25.0091 247.746,-33.1907 251.379,-27.2072"/>
</g>
<!-- Node7 -->
<g id="node8" class="node"><title>Node7</title>
<g id="a_node8"><a xlink:href="../../d0/d08/_cool_n_d_i_r___i2_c_8h.html" target="_top" xlink:title="internals/CoolNDIR\l_I2C.h">
<polygon fill="white" stroke="black" points="274,-0.5 274,-30.5 376,-30.5 376,-0.5 274,-0.5"/>
<text text-anchor="start" x="282" y="-18.5" font-family="Helvetica,sans-Serif" font-size="10.00">internals/CoolNDIR</text>
<text text-anchor="middle" x="325" y="-7.5" font-family="Helvetica,sans-Serif" font-size="10.00">_I2C.h</text>
</a>
</g>
</g>
<!-- Node6&#45;&gt;Node7 -->
<g id="edge8" class="edge"><title>Node6&#45;&gt;Node7</title>
<path fill="none" stroke="midnightblue" d="M325,-67.4751C325,-60.471 325,-50.1919 325,-40.6956"/>
<polygon fill="midnightblue" stroke="midnightblue" points="328.5,-40.5229 325,-30.523 321.5,-40.523 328.5,-40.5229"/>
</g>
<!-- Node8 -->
<g id="node9" class="node"><title>Node8</title>
<polygon fill="white" stroke="#bfbfbf" points="393.5,-6 393.5,-25 500.5,-25 500.5,-6 393.5,-6"/>
<text text-anchor="middle" x="447" y="-13" font-family="Helvetica,sans-Serif" font-size="10.00">DallasTemperature.h</text>
</g>
<!-- Node6&#45;&gt;Node8 -->
<g id="edge9" class="edge"><title>Node6&#45;&gt;Node8</title>
<path fill="none" stroke="midnightblue" d="M342.48,-67.4751C362.863,-57.5338 396.775,-40.9947 420.425,-29.461"/>
<polygon fill="midnightblue" stroke="midnightblue" points="422.099,-32.5385 429.553,-25.0091 419.031,-26.2468 422.099,-32.5385"/>
</g>
</g>
</svg>
