<?xml version="1.0" encoding="UTF-8" standalone="no"?>
<!DOCTYPE svg PUBLIC "-//W3C//DTD SVG 1.1//EN"
 "http://www.w3.org/Graphics/SVG/1.1/DTD/svg11.dtd">
<!-- Generated by graphviz version 2.38.0 (20140413.2041)
 -->
<!-- Title: CoolBoard.h Pages: 1 -->
<!--zoomable 196 -->
<svg id="main" version="1.1" xmlns="http://www.w3.org/2000/svg" xmlns:xlink="http://www.w3.org/1999/xlink" xml:space="preserve" onload="init(evt)">
<style type="text/css"><![CDATA[
.edge:hover path { stroke: red; }
.edge:hover polygon { stroke: red; fill: red; }
]]></style>
<script type="text/javascript"><![CDATA[
var edges = document.getElementsByTagName('g');
if (edges && edges.length) {
  for (var i=0;i<edges.length;i++) {
    if (edges[i].id.substr(0,4)=='edge') {
      edges[i].setAttribute('class','edge');
    }
  }
}
]]></script>
        <defs>
                <circle id="rim" cx="0" cy="0" r="7"/>
                <circle id="rim2" cx="0" cy="0" r="3.5"/>
                <g id="zoomPlus">
                        <use xlink:href="#rim" fill="#404040">
                                <set attributeName="fill" to="#808080" begin="zoomplus.mouseover" end="zoomplus.mouseout"/>
                        </use>
                        <path d="M-4,0h8M0,-4v8" fill="none" stroke="white" stroke-width="1.5" pointer-events="none"/>
                </g>
                <g id="zoomMin">
                        <use xlink:href="#rim" fill="#404040">
                                <set attributeName="fill" to="#808080" begin="zoomminus.mouseover" end="zoomminus.mouseout"/>
                        </use>
                        <path d="M-4,0h8" fill="none" stroke="white" stroke-width="1.5" pointer-events="none"/>
                </g>
                <g id="dirArrow">
                        <path fill="none" stroke="white" stroke-width="1.5" d="M0,-3.0v7 M-2.5,-0.5L0,-3.0L2.5,-0.5"/>
                </g>
               <g id="resetDef">
                       <use xlink:href="#rim2" fill="#404040">
                               <set attributeName="fill" to="#808080" begin="reset.mouseover" end="reset.mouseout"/>
                       </use>
               </g>
        </defs>

<script type="text/javascript">
var viewWidth = 1645;
var viewHeight = 196;
var sectionId = 'dynsection-0';
</script>
<script xlink:href="svgpan.js"/>
<svg id="graph" class="graph">
<g id="viewport">
<title>CoolBoard.h</title>
<polygon fill="white" stroke="none" points="-4,4 -4,-192 1641,-192 1641,4 -4,4"/>
<!-- Node0 -->
<g id="node1" class="node"><title>Node0</title>
<polygon fill="#bfbfbf" stroke="black" points="955,-168.5 955,-187.5 1026,-187.5 1026,-168.5 955,-168.5"/>
<text text-anchor="middle" x="990.5" y="-175.5" font-family="Helvetica,sans-Serif" font-size="10.00">CoolBoard.h</text>
</g>
<!-- Node1 -->
<g id="node2" class="node"><title>Node1</title>
<g id="a_node2"><a xlink:href="_cool_file_system_8h.html" target="_top" xlink:title="CoolFileSystem Header File. ">
<polygon fill="white" stroke="black" points="0,-112.5 0,-131.5 95,-131.5 95,-112.5 0,-112.5"/>
<text text-anchor="middle" x="47.5" y="-119.5" font-family="Helvetica,sans-Serif" font-size="10.00">CoolFileSystem.h</text>
</a>
</g>
</g>
<!-- Node0&#45;&gt;Node1 -->
<g id="edge1" class="edge"><title>Node0&#45;&gt;Node1</title>
<path fill="none" stroke="midnightblue" d="M954.745,-176.368C834.944,-173.994 436.826,-164.047 109.5,-132 108.191,-131.872 106.867,-131.736 105.533,-131.593"/>
<polygon fill="midnightblue" stroke="midnightblue" points="105.513,-128.066 95.1729,-130.377 104.697,-135.019 105.513,-128.066"/>
</g>
<!-- Node2 -->
<g id="node3" class="node"><title>Node2</title>
<polygon fill="white" stroke="#bfbfbf" points="654.5,-0.5 654.5,-19.5 712.5,-19.5 712.5,-0.5 654.5,-0.5"/>
<text text-anchor="middle" x="683.5" y="-7.5" font-family="Helvetica,sans-Serif" font-size="10.00">Arduino.h</text>
</g>
<!-- Node0&#45;&gt;Node2 -->
<g id="edge36" class="edge"><title>Node0&#45;&gt;Node2</title>
<path fill="none" stroke="midnightblue" d="M954.611,-176.888C809.418,-176.173 270.216,-170.898 205.5,-132 180.544,-117 179.346,-104.04 171.5,-76 169.105,-67.4399 165.496,-62.5548 171.5,-56 203.28,-21.3042 530.236,-13.2337 644.411,-11.4672"/>
<polygon fill="midnightblue" stroke="midnightblue" points="644.519,-14.9661 654.467,-11.3195 644.416,-7.96681 644.519,-14.9661"/>
</g>
<!-- Node3 -->
<g id="node4" class="node"><title>Node3</title>
<g id="a_node4"><a xlink:href="_cool_board_sensors_8h.html" target="_top" xlink:title="CoolBoardSensors Header File. ">
<polygon fill="white" stroke="black" points="215,-112.5 215,-131.5 322,-131.5 322,-112.5 215,-112.5"/>
<text text-anchor="middle" x="268.5" y="-119.5" font-family="Helvetica,sans-Serif" font-size="10.00">CoolBoardSensors.h</text>
</a>
</g>
</g>
<!-- Node0&#45;&gt;Node3 -->
<g id="edge3" class="edge"><title>Node0&#45;&gt;Node3</title>
<path fill="none" stroke="midnightblue" d="M954.696,-174.322C839.866,-165.734 479.738,-138.799 332.347,-127.775"/>
<polygon fill="midnightblue" stroke="midnightblue" points="332.342,-124.265 322.109,-127.01 331.82,-131.246 332.342,-124.265"/>
</g>
<!-- Node6 -->
<g id="node7" class="node"><title>Node6</title>
<g id="a_node7"><a xlink:href="_cool_board_led_8h.html" target="_top" xlink:title="CoolBoardLed Header File. ">
<polygon fill="white" stroke="black" points="423.5,-112.5 423.5,-131.5 509.5,-131.5 509.5,-112.5 423.5,-112.5"/>
<text text-anchor="middle" x="466.5" y="-119.5" font-family="Helvetica,sans-Serif" font-size="10.00">CoolBoardLed.h</text>
</a>
</g>
</g>
<!-- Node0&#45;&gt;Node6 -->
<g id="edge7" class="edge"><title>Node0&#45;&gt;Node6</title>
<path fill="none" stroke="midnightblue" d="M954.895,-173.331C864.722,-164.038 626.931,-139.533 519.967,-128.51"/>
<polygon fill="midnightblue" stroke="midnightblue" points="520.033,-124.998 509.727,-127.455 519.316,-131.961 520.033,-124.998"/>
</g>
<!-- Node8 -->
<g id="node9" class="node"><title>Node8</title>
<g id="a_node9"><a xlink:href="_cool_time_8h.html" target="_top" xlink:title="CoolTime Header File. ">
<polygon fill="white" stroke="black" points="639,-112.5 639,-131.5 706,-131.5 706,-112.5 639,-112.5"/>
<text text-anchor="middle" x="672.5" y="-119.5" font-family="Helvetica,sans-Serif" font-size="10.00">CoolTime.h</text>
</a>
</g>
</g>
<!-- Node0&#45;&gt;Node8 -->
<g id="edge10" class="edge"><title>Node0&#45;&gt;Node8</title>
<path fill="none" stroke="midnightblue" d="M954.947,-170.963C896.454,-161.03 780.081,-141.269 716.492,-130.47"/>
<polygon fill="midnightblue" stroke="midnightblue" points="716.826,-126.977 706.381,-128.753 715.654,-133.878 716.826,-126.977"/>
</g>
<!-- Node12 -->
<g id="node13" class="node"><title>Node12</title>
<g id="a_node13"><a xlink:href="_cool_m_q_t_t_8h.html" target="_top" xlink:title="CoolMQTT Header File. ">
<polygon fill="white" stroke="black" points="885,-112.5 885,-131.5 958,-131.5 958,-112.5 885,-112.5"/>
<text text-anchor="middle" x="921.5" y="-119.5" font-family="Helvetica,sans-Serif" font-size="10.00">CoolMQTT.h</text>
</a>
</g>
</g>
<!-- Node0&#45;&gt;Node12 -->
<g id="edge15" class="edge"><title>Node0&#45;&gt;Node12</title>
<path fill="none" stroke="midnightblue" d="M979.414,-168.324C969.014,-160.185 953.239,-147.839 940.778,-138.087"/>
<polygon fill="midnightblue" stroke="midnightblue" points="942.82,-135.241 932.788,-131.834 938.506,-140.753 942.82,-135.241"/>
</g>
<!-- Node13 -->
<g id="node14" class="node"><title>Node13</title>
<polygon fill="white" stroke="#bfbfbf" points="963.5,-56.5 963.5,-75.5 1049.5,-75.5 1049.5,-56.5 963.5,-56.5"/>
<text text-anchor="middle" x="1006.5" y="-63.5" font-family="Helvetica,sans-Serif" font-size="10.00">ESP8266WiFi.h</text>
</g>
<!-- Node0&#45;&gt;Node13 -->
<g id="edge32" class="edge"><title>Node0&#45;&gt;Node13</title>
<path fill="none" stroke="midnightblue" d="M991.755,-168.368C994.338,-150.617 1000.29,-109.666 1003.79,-85.5974"/>
<polygon fill="midnightblue" stroke="midnightblue" points="1007.27,-85.9911 1005.25,-75.5914 1000.35,-84.9835 1007.27,-85.9911"/>
</g>
<!-- Node15 -->
<g id="node16" class="node"><title>Node15</title>
<g id="a_node16"><a xlink:href="_jetpack_8h.html" target="_top" xlink:title="Jetpack Header File. ">
<polygon fill="white" stroke="black" points="1019,-112.5 1019,-131.5 1078,-131.5 1078,-112.5 1019,-112.5"/>
<text text-anchor="middle" x="1048.5" y="-119.5" font-family="Helvetica,sans-Serif" font-size="10.00">Jetpack.h</text>
</a>
</g>
</g>
<!-- Node0&#45;&gt;Node15 -->
<g id="edge19" class="edge"><title>Node0&#45;&gt;Node15</title>
<path fill="none" stroke="midnightblue" d="M999.819,-168.324C1008.39,-160.341 1021.31,-148.313 1031.69,-138.653"/>
<polygon fill="midnightblue" stroke="midnightblue" points="1034.08,-141.21 1039.01,-131.834 1029.31,-136.086 1034.08,-141.21"/>
</g>
<!-- Node16 -->
<g id="node17" class="node"><title>Node16</title>
<g id="a_node17"><a xlink:href="_irene3000_8h.html" target="_top" xlink:title="Irene3000 Header File. ">
<polygon fill="white" stroke="black" points="1096.5,-112.5 1096.5,-131.5 1164.5,-131.5 1164.5,-112.5 1096.5,-112.5"/>
<text text-anchor="middle" x="1130.5" y="-119.5" font-family="Helvetica,sans-Serif" font-size="10.00">Irene3000.h</text>
</a>
</g>
</g>
<!-- Node0&#45;&gt;Node16 -->
<g id="edge21" class="edge"><title>Node0&#45;&gt;Node16</title>
<path fill="none" stroke="midnightblue" d="M1012.68,-168.444C1035.93,-159.478 1072.65,-145.314 1098.92,-135.183"/>
<polygon fill="midnightblue" stroke="midnightblue" points="1100.35,-138.381 1108.42,-131.516 1097.83,-131.85 1100.35,-138.381"/>
</g>
<!-- Node18 -->
<g id="node19" class="node"><title>Node18</title>
<g id="a_node19"><a xlink:href="_external_sensors_8h.html" target="_top" xlink:title="ExternalSensors Header File. ">
<polygon fill="white" stroke="black" points="1213,-112.5 1213,-131.5 1310,-131.5 1310,-112.5 1213,-112.5"/>
<text text-anchor="middle" x="1261.5" y="-119.5" font-family="Helvetica,sans-Serif" font-size="10.00">ExternalSensors.h</text>
</a>
</g>
</g>
<!-- Node0&#45;&gt;Node18 -->
<g id="edge24" class="edge"><title>Node0&#45;&gt;Node18</title>
<path fill="none" stroke="midnightblue" d="M1026.21,-169.885C1072.79,-160.603 1154.68,-144.284 1208.52,-133.557"/>
<polygon fill="midnightblue" stroke="midnightblue" points="1209.44,-136.943 1218.56,-131.557 1208.07,-130.078 1209.44,-136.943"/>
</g>
<!-- Node24 -->
<g id="node25" class="node"><title>Node24</title>
<polygon fill="white" stroke="#bfbfbf" points="1328,-112.5 1328,-131.5 1403,-131.5 1403,-112.5 1328,-112.5"/>
<text text-anchor="middle" x="1365.5" y="-119.5" font-family="Helvetica,sans-Serif" font-size="10.00">DNSServer.h</text>
</g>
<!-- Node0&#45;&gt;Node24 -->
<g id="edge33" class="edge"><title>Node0&#45;&gt;Node24</title>
<path fill="none" stroke="midnightblue" d="M1026.02,-172.751C1084.54,-165.616 1205.1,-150.347 1317.65,-132.061"/>
<polygon fill="midnightblue" stroke="midnightblue" points="1318.52,-135.466 1327.82,-130.397 1317.39,-128.558 1318.52,-135.466"/>
</g>
<!-- Node25 -->
<g id="node26" class="node"><title>Node25</title>
<polygon fill="white" stroke="#bfbfbf" points="1421,-112.5 1421,-131.5 1536,-131.5 1536,-112.5 1421,-112.5"/>
<text text-anchor="middle" x="1478.5" y="-119.5" font-family="Helvetica,sans-Serif" font-size="10.00">ESP8266WebServer.h</text>
</g>
<!-- Node0&#45;&gt;Node25 -->
<g id="edge34" class="edge"><title>Node0&#45;&gt;Node25</title>
<path fill="none" stroke="midnightblue" d="M1026.02,-173.531C1096.91,-166.536 1261.23,-149.971 1410.5,-132.09"/>
<polygon fill="midnightblue" stroke="midnightblue" points="1411.26,-135.525 1420.77,-130.856 1410.42,-128.575 1411.26,-135.525"/>
</g>
<!-- Node26 -->
<g id="node27" class="node"><title>Node26</title>
<polygon fill="white" stroke="#bfbfbf" points="1554,-112.5 1554,-131.5 1637,-131.5 1637,-112.5 1554,-112.5"/>
<text text-anchor="middle" x="1595.5" y="-119.5" font-family="Helvetica,sans-Serif" font-size="10.00">WiFiManager.h</text>
</g>
<!-- Node0&#45;&gt;Node26 -->
<g id="edge35" class="edge"><title>Node0&#45;&gt;Node26</title>
<path fill="none" stroke="midnightblue" d="M1026.27,-175.258C1113.08,-170.781 1341.96,-157.491 1543.61,-131.989"/>
<polygon fill="midnightblue" stroke="midnightblue" points="1544.32,-135.426 1553.8,-130.687 1543.44,-128.482 1544.32,-135.426"/>
</g>
<!-- Node1&#45;&gt;Node2 -->
<g id="edge2" class="edge"><title>Node1&#45;&gt;Node2</title>
<path fill="none" stroke="midnightblue" d="M52.6944,-112.342C61.9951,-97.7402 83.0193,-68.5841 109.5,-56 204.396,-10.9039 530.498,-9.52647 644.099,-10.476"/>
<polygon fill="midnightblue" stroke="midnightblue" points="644.381,-13.9788 654.414,-10.5738 644.448,-6.9791 644.381,-13.9788"/>
</g>
<!-- Node3&#45;&gt;Node2 -->
<g id="edge4" class="edge"><title>Node3&#45;&gt;Node2</title>
<path fill="none" stroke="midnightblue" d="M239.464,-112.482C206.032,-101.285 158.389,-80.1778 180.5,-56 211.596,-21.9977 530.803,-13.4943 643.977,-11.5404"/>
<polygon fill="midnightblue" stroke="midnightblue" points="644.329,-15.0352 654.27,-11.3711 644.214,-8.03616 644.329,-15.0352"/>
</g>
<!-- Node4 -->
<g id="node5" class="node"><title>Node4</title>
<polygon fill="white" stroke="#bfbfbf" points="190,-56.5 190,-75.5 247,-75.5 247,-56.5 190,-56.5"/>
<text text-anchor="middle" x="218.5" y="-63.5" font-family="Helvetica,sans-Serif" font-size="10.00">SI114X.h</text>
</g>
<!-- Node3&#45;&gt;Node4 -->
<g id="edge5" class="edge"><title>Node3&#45;&gt;Node4</title>
<path fill="none" stroke="midnightblue" d="M260.244,-112.083C253.035,-104.298 242.39,-92.8015 233.654,-83.3665"/>
<polygon fill="midnightblue" stroke="midnightblue" points="235.965,-80.7108 226.603,-75.7511 230.829,-85.4666 235.965,-80.7108"/>
</g>
<!-- Node5 -->
<g id="node6" class="node"><title>Node5</title>
<polygon fill="white" stroke="#bfbfbf" points="265.5,-56.5 265.5,-75.5 369.5,-75.5 369.5,-56.5 265.5,-56.5"/>
<text text-anchor="middle" x="317.5" y="-63.5" font-family="Helvetica,sans-Serif" font-size="10.00">SparkFunBME280.h</text>
</g>
<!-- Node3&#45;&gt;Node5 -->
<g id="edge6" class="edge"><title>Node3&#45;&gt;Node5</title>
<path fill="none" stroke="midnightblue" d="M276.591,-112.083C283.655,-104.298 294.088,-92.8015 302.649,-83.3665"/>
<polygon fill="midnightblue" stroke="midnightblue" points="305.431,-85.5087 309.559,-75.7511 300.247,-80.8047 305.431,-85.5087"/>
</g>
<!-- Node6&#45;&gt;Node2 -->
<g id="edge8" class="edge"><title>Node6&#45;&gt;Node2</title>
<path fill="none" stroke="midnightblue" d="M451.521,-112.389C431.395,-99.7541 399.953,-75.5689 416.5,-56 445.167,-22.0976 576.897,-13.726 643.989,-11.6666"/>
<polygon fill="midnightblue" stroke="midnightblue" points="644.276,-15.1601 654.176,-11.3873 644.084,-8.16275 644.276,-15.1601"/>
</g>
<!-- Node7 -->
<g id="node8" class="node"><title>Node7</title>
<polygon fill="white" stroke="#bfbfbf" points="425.5,-56.5 425.5,-75.5 507.5,-75.5 507.5,-56.5 425.5,-56.5"/>
<text text-anchor="middle" x="466.5" y="-63.5" font-family="Helvetica,sans-Serif" font-size="10.00">NeoPixelBus.h</text>
</g>
<!-- Node6&#45;&gt;Node7 -->
<g id="edge9" class="edge"><title>Node6&#45;&gt;Node7</title>
<path fill="none" stroke="midnightblue" d="M466.5,-112.083C466.5,-105.006 466.5,-94.8611 466.5,-85.9865"/>
<polygon fill="midnightblue" stroke="midnightblue" points="470,-85.751 466.5,-75.7511 463,-85.7511 470,-85.751"/>
</g>
<!-- Node8&#45;&gt;Node2 -->
<g id="edge11" class="edge"><title>Node8&#45;&gt;Node2</title>
<path fill="none" stroke="midnightblue" d="M638.875,-115.893C596.114,-107.903 530.528,-89.7509 554.5,-56 574.65,-27.6306 614.069,-16.998 644.055,-13.0902"/>
<polygon fill="midnightblue" stroke="midnightblue" points="644.664,-16.5443 654.221,-11.9703 643.898,-9.5864 644.664,-16.5443"/>
</g>
<!-- Node9 -->
<g id="node10" class="node"><title>Node9</title>
<polygon fill="white" stroke="#bfbfbf" points="564,-56.5 564,-75.5 623,-75.5 623,-56.5 564,-56.5"/>
<text text-anchor="middle" x="593.5" y="-63.5" font-family="Helvetica,sans-Serif" font-size="10.00">TimeLib.h</text>
</g>
<!-- Node8&#45;&gt;Node9 -->
<g id="edge12" class="edge"><title>Node8&#45;&gt;Node9</title>
<path fill="none" stroke="midnightblue" d="M659.807,-112.324C647.599,-103.979 628.922,-91.2122 614.497,-81.3524"/>
<polygon fill="midnightblue" stroke="midnightblue" points="616.392,-78.4082 606.161,-75.6545 612.442,-84.1871 616.392,-78.4082"/>
</g>
<!-- Node10 -->
<g id="node11" class="node"><title>Node10</title>
<polygon fill="white" stroke="#bfbfbf" points="641,-56.5 641,-75.5 704,-75.5 704,-56.5 641,-56.5"/>
<text text-anchor="middle" x="672.5" y="-63.5" font-family="Helvetica,sans-Serif" font-size="10.00">WiFiUdp.h</text>
</g>
<!-- Node8&#45;&gt;Node10 -->
<g id="edge13" class="edge"><title>Node8&#45;&gt;Node10</title>
<path fill="none" stroke="midnightblue" d="M672.5,-112.083C672.5,-105.006 672.5,-94.8611 672.5,-85.9865"/>
<polygon fill="midnightblue" stroke="midnightblue" points="676,-85.751 672.5,-75.7511 669,-85.7511 676,-85.751"/>
</g>
<!-- Node11 -->
<g id="node12" class="node"><title>Node11</title>
<polygon fill="white" stroke="#bfbfbf" points="722,-56.5 722,-75.5 803,-75.5 803,-56.5 722,-56.5"/>
<text text-anchor="middle" x="762.5" y="-63.5" font-family="Helvetica,sans-Serif" font-size="10.00">DS1337RTC.h</text>
</g>
<!-- Node8&#45;&gt;Node11 -->
<g id="edge14" class="edge"><title>Node8&#45;&gt;Node11</title>
<path fill="none" stroke="midnightblue" d="M686.96,-112.324C701,-103.9 722.548,-90.9709 739.043,-81.0741"/>
<polygon fill="midnightblue" stroke="midnightblue" points="741.302,-83.8007 748.076,-75.6545 737.7,-77.7983 741.302,-83.8007"/>
</g>
<!-- Node12&#45;&gt;Node2 -->
<g id="edge16" class="edge"><title>Node12&#45;&gt;Node2</title>
<path fill="none" stroke="midnightblue" d="M908.744,-112.339C888.696,-98.9898 848.298,-73.1391 811.5,-56 782.47,-42.4788 748.174,-30.6275 722.392,-22.4858"/>
<polygon fill="midnightblue" stroke="midnightblue" points="723.195,-19.0705 712.607,-19.4444 721.118,-25.755 723.195,-19.0705"/>
</g>
<!-- Node12&#45;&gt;Node13 -->
<g id="edge17" class="edge"><title>Node12&#45;&gt;Node13</title>
<path fill="none" stroke="midnightblue" d="M935.157,-112.324C948.416,-103.9 968.768,-90.9709 984.346,-81.0741"/>
<polygon fill="midnightblue" stroke="midnightblue" points="986.313,-83.9711 992.877,-75.6545 982.56,-78.0626 986.313,-83.9711"/>
</g>
<!-- Node14 -->
<g id="node15" class="node"><title>Node14</title>
<polygon fill="white" stroke="#bfbfbf" points="860,-56.5 860,-75.5 945,-75.5 945,-56.5 860,-56.5"/>
<text text-anchor="middle" x="902.5" y="-63.5" font-family="Helvetica,sans-Serif" font-size="10.00">PubSubClient.h</text>
</g>
<!-- Node12&#45;&gt;Node14 -->
<g id="edge18" class="edge"><title>Node12&#45;&gt;Node14</title>
<path fill="none" stroke="midnightblue" d="M918.363,-112.083C915.817,-104.849 912.144,-94.4087 908.973,-85.3968"/>
<polygon fill="midnightblue" stroke="midnightblue" points="912.2,-84.0225 905.579,-75.7511 905.597,-86.3459 912.2,-84.0225"/>
</g>
<!-- Node15&#45;&gt;Node2 -->
<g id="edge20" class="edge"><title>Node15&#45;&gt;Node2</title>
<path fill="none" stroke="midnightblue" d="M1053.74,-112.197C1061.18,-98.4188 1072.44,-71.7151 1058.5,-56 1036.45,-31.1452 814.239,-17.4389 722.646,-12.8081"/>
<polygon fill="midnightblue" stroke="midnightblue" points="722.818,-9.31245 712.657,-12.313 722.472,-16.3039 722.818,-9.31245"/>
</g>
<!-- Node16&#45;&gt;Node2 -->
<g id="edge23" class="edge"><title>Node16&#45;&gt;Node2</title>
<path fill="none" stroke="midnightblue" d="M1126.23,-112.455C1118.51,-98.0256 1100.76,-69.1212 1076.5,-56 1016.05,-23.3047 809.891,-14.227 722.82,-11.8224"/>
<polygon fill="midnightblue" stroke="midnightblue" points="722.653,-8.31695 712.565,-11.5551 722.471,-15.3146 722.653,-8.31695"/>
</g>
<!-- Node17 -->
<g id="node18" class="node"><title>Node17</title>
<polygon fill="white" stroke="#bfbfbf" points="1143.5,-56.5 1143.5,-75.5 1249.5,-75.5 1249.5,-56.5 1143.5,-56.5"/>
<text text-anchor="middle" x="1196.5" y="-63.5" font-family="Helvetica,sans-Serif" font-size="10.00">Adafruit_ADS1015.h</text>
</g>
<!-- Node16&#45;&gt;Node17 -->
<g id="edge22" class="edge"><title>Node16&#45;&gt;Node17</title>
<path fill="none" stroke="midnightblue" d="M1141.1,-112.324C1150.96,-104.263 1165.85,-92.0765 1177.72,-82.3695"/>
<polygon fill="midnightblue" stroke="midnightblue" points="1180.18,-84.8752 1185.7,-75.8339 1175.75,-79.4575 1180.18,-84.8752"/>
</g>
<!-- Node18&#45;&gt;Node2 -->
<g id="edge25" class="edge"><title>Node18&#45;&gt;Node2</title>
<path fill="none" stroke="midnightblue" d="M1264.23,-112.463C1268.08,-98.5672 1273.12,-71.0933 1258.5,-56 1221.31,-17.6043 846.131,-11.9528 722.661,-11.1344"/>
<polygon fill="midnightblue" stroke="midnightblue" points="722.541,-7.63368 712.521,-11.0744 722.5,-14.6336 722.541,-7.63368"/>
</g>
<!-- Node19 -->
<g id="node20" class="node"><title>Node19</title>
<polygon fill="white" stroke="#bfbfbf" points="1306,-56.5 1306,-75.5 1351,-75.5 1351,-56.5 1306,-56.5"/>
<text text-anchor="middle" x="1328.5" y="-63.5" font-family="Helvetica,sans-Serif" font-size="10.00">Wire.h</text>
</g>
<!-- Node18&#45;&gt;Node19 -->
<g id="edge26" class="edge"><title>Node18&#45;&gt;Node19</title>
<path fill="none" stroke="midnightblue" d="M1272.26,-112.324C1282.27,-104.263 1297.39,-92.0765 1309.43,-82.3695"/>
<polygon fill="midnightblue" stroke="midnightblue" points="1311.95,-84.8343 1317.54,-75.8339 1307.56,-79.3841 1311.95,-84.8343"/>
</g>
<!-- Node20 -->
<g id="node21" class="node"><title>Node20</title>
<polygon fill="white" stroke="#bfbfbf" points="1369,-56.5 1369,-75.5 1432,-75.5 1432,-56.5 1369,-56.5"/>
<text text-anchor="middle" x="1400.5" y="-63.5" font-family="Helvetica,sans-Serif" font-size="10.00">OneWire.h</text>
</g>
<!-- Node18&#45;&gt;Node20 -->
<g id="edge27" class="edge"><title>Node18&#45;&gt;Node20</title>
<path fill="none" stroke="midnightblue" d="M1283.52,-112.444C1306.6,-103.478 1343.06,-89.314 1369.14,-79.1827"/>
<polygon fill="midnightblue" stroke="midnightblue" points="1370.52,-82.4002 1378.58,-75.5164 1367.99,-75.8753 1370.52,-82.4002"/>
</g>
<!-- Node21 -->
<g id="node22" class="node"><title>Node21</title>
<g id="a_node22"><a xlink:href="_external_sensor_8h.html" target="_top" xlink:title="ExternalSensor Header File. ">
<polygon fill="white" stroke="black" points="1450.5,-56.5 1450.5,-75.5 1542.5,-75.5 1542.5,-56.5 1450.5,-56.5"/>
<text text-anchor="middle" x="1496.5" y="-63.5" font-family="Helvetica,sans-Serif" font-size="10.00">ExternalSensor.h</text>
</a>
</g>
</g>
<!-- Node18&#45;&gt;Node21 -->
<g id="edge28" class="edge"><title>Node18&#45;&gt;Node21</title>
<path fill="none" stroke="midnightblue" d="M1298.74,-112.444C1339.56,-103.063 1405.14,-87.9926 1449.48,-77.8036"/>
<polygon fill="midnightblue" stroke="midnightblue" points="1450.48,-81.1671 1459.44,-75.5164 1448.91,-74.3449 1450.48,-81.1671"/>
</g>
<!-- Node21&#45;&gt;Node2 -->
<g id="edge31" class="edge"><title>Node21&#45;&gt;Node2</title>
<path fill="none" stroke="midnightblue" d="M1450.4,-57.2175C1447.06,-56.7675 1443.73,-56.3547 1440.5,-56 1166.97,-25.9663 835.488,-14.9782 723.008,-11.9562"/>
<polygon fill="midnightblue" stroke="midnightblue" points="722.904,-8.45238 712.816,-11.6883 722.72,-15.45 722.904,-8.45238"/>
</g>
<!-- Node22 -->
<g id="node23" class="node"><title>Node22</title>
<polygon fill="white" stroke="#bfbfbf" points="1407,-0.5 1407,-19.5 1478,-19.5 1478,-0.5 1407,-0.5"/>
<text text-anchor="middle" x="1442.5" y="-7.5" font-family="Helvetica,sans-Serif" font-size="10.00">NDIR_I2C.h</text>
</g>
<!-- Node21&#45;&gt;Node22 -->
<g id="edge29" class="edge"><title>Node21&#45;&gt;Node22</title>
<path fill="none" stroke="midnightblue" d="M1487.58,-56.083C1479.72,-48.2195 1468.07,-36.5688 1458.58,-27.0813"/>
<polygon fill="midnightblue" stroke="midnightblue" points="1460.8,-24.3473 1451.25,-19.7511 1455.85,-29.2971 1460.8,-24.3473"/>
</g>
<!-- Node23 -->
<g id="node24" class="node"><title>Node23</title>
<polygon fill="white" stroke="#bfbfbf" points="1496,-0.5 1496,-19.5 1603,-19.5 1603,-0.5 1496,-0.5"/>
<text text-anchor="middle" x="1549.5" y="-7.5" font-family="Helvetica,sans-Serif" font-size="10.00">DallasTemperature.h</text>
</g>
<!-- Node21&#45;&gt;Node23 -->
<g id="edge30" class="edge"><title>Node21&#45;&gt;Node23</title>
<path fill="none" stroke="midnightblue" d="M1505.25,-56.083C1512.97,-48.2195 1524.4,-36.5688 1533.72,-27.0813"/>
<polygon fill="midnightblue" stroke="midnightblue" points="1536.4,-29.3396 1540.91,-19.7511 1531.41,-24.4363 1536.4,-29.3396"/>
</g>
</g>
</svg>
        <g id="navigator" transform="translate(0 0)" fill="#404254">
                <rect fill="#f2f5e9" fill-opacity="0.5" stroke="#606060" stroke-width=".5" x="0" y="0" width="60" height="60"/>
                <use id="zoomplus" xlink:href="#zoomPlus" x="17" y="9" onmousedown="handleZoom(evt,'in')"/>
                <use id="zoomminus" xlink:href="#zoomMin" x="42" y="9" onmousedown="handleZoom(evt,'out')"/>
                <use id="reset" xlink:href="#resetDef" x="30" y="36" onmousedown="handleReset()"/>
                <g id="arrowUp" xlink:href="#dirArrow" transform="translate(30 24)" onmousedown="handlePan(0,-1)">
                  <use xlink:href="#rim" fill="#404040">
                        <set attributeName="fill" to="#808080" begin="arrowUp.mouseover" end="arrowUp.mouseout"/>
                  </use>
                  <path fill="none" stroke="white" stroke-width="1.5" d="M0,-3.0v7 M-2.5,-0.5L0,-3.0L2.5,-0.5"/>
                </g>
                <g id="arrowRight" xlink:href="#dirArrow" transform="rotate(90) translate(36 -43)" onmousedown="handlePan(1,0)">
                  <use xlink:href="#rim" fill="#404040">
                        <set attributeName="fill" to="#808080" begin="arrowRight.mouseover" end="arrowRight.mouseout"/>
                  </use>
                  <path fill="none" stroke="white" stroke-width="1.5" d="M0,-3.0v7 M-2.5,-0.5L0,-3.0L2.5,-0.5"/>
                </g>
                <g id="arrowDown" xlink:href="#dirArrow" transform="rotate(180) translate(-30 -48)" onmousedown="handlePan(0,1)">
                  <use xlink:href="#rim" fill="#404040">
                        <set attributeName="fill" to="#808080" begin="arrowDown.mouseover" end="arrowDown.mouseout"/>
                  </use>
                  <path fill="none" stroke="white" stroke-width="1.5" d="M0,-3.0v7 M-2.5,-0.5L0,-3.0L2.5,-0.5"/>
                </g>
                <g id="arrowLeft" xlink:href="#dirArrow" transform="rotate(270) translate(-36 17)" onmousedown="handlePan(-1,0)">
                  <use xlink:href="#rim" fill="#404040">
                        <set attributeName="fill" to="#808080" begin="arrowLeft.mouseover" end="arrowLeft.mouseout"/>
                  </use>
                  <path fill="none" stroke="white" stroke-width="1.5" d="M0,-3.0v7 M-2.5,-0.5L0,-3.0L2.5,-0.5"/>
                </g>
        </g>
        <svg viewBox="0 0 15 15" width="100%" height="30px" preserveAspectRatio="xMaxYMin meet">
         <g id="arrow_out" transform="scale(0.3 0.3)">
          <a xlink:href="_cool_board_8h__incl_org.svg" target="_base">
           <rect id="button" ry="5" rx="5" y="6" x="6" height="38" width="38"
                fill="#f2f5e9" fill-opacity="0.5" stroke="#606060" stroke-width="1.0"/>
           <path id="arrow"
             d="M 11.500037,31.436501 C 11.940474,20.09759 22.043105,11.32322 32.158766,21.979434 L 37.068811,17.246167 C 37.068811,17.246167 37.088388,32 37.088388,32 L 22.160133,31.978069 C 22.160133,31.978069 26.997745,27.140456 26.997745,27.140456 C 18.528582,18.264221 13.291696,25.230495 11.500037,31.436501 z"
             style="fill:#404040;"/>
          </a>
         </g>
        </svg>
</svg>
