<?xml version="1.0" encoding="UTF-8" standalone="no"?>
<!DOCTYPE svg PUBLIC "-//W3C//DTD SVG 1.1//EN"
 "http://www.w3.org/Graphics/SVG/1.1/DTD/svg11.dtd">
<!-- Generated by graphviz version 2.38.0 (20140413.2041)
 -->
<!-- Title: CoolBoard.h Pages: 1 -->
<svg width="1547pt" height="196pt"
 viewBox="0.00 0.00 1547.00 196.00" xmlns="http://www.w3.org/2000/svg" xmlns:xlink="http://www.w3.org/1999/xlink">
<g id="graph0" class="graph" transform="scale(1 1) rotate(0) translate(4 192)">
<title>CoolBoard.h</title>
<polygon fill="white" stroke="none" points="-4,4 -4,-192 1543,-192 1543,4 -4,4"/>
<!-- Node0 -->
<g id="node1" class="node"><title>Node0</title>
<polygon fill="#bfbfbf" stroke="black" points="857,-168.5 857,-187.5 928,-187.5 928,-168.5 857,-168.5"/>
<text text-anchor="middle" x="892.5" y="-175.5" font-family="Helvetica,sans-Serif" font-size="10.00">CoolBoard.h</text>
</g>
<!-- Node1 -->
<g id="node2" class="node"><title>Node1</title>
<g id="a_node2"><a xlink:href="_cool_file_system_8h.html" target="_top" xlink:title="CoolFileSystem Header File. ">
<polygon fill="white" stroke="black" points="0,-112.5 0,-131.5 95,-131.5 95,-112.5 0,-112.5"/>
<text text-anchor="middle" x="47.5" y="-119.5" font-family="Helvetica,sans-Serif" font-size="10.00">CoolFileSystem.h</text>
</a>
</g>
</g>
<!-- Node0&#45;&gt;Node1 -->
<g id="edge1" class="edge"><title>Node0&#45;&gt;Node1</title>
<path fill="none" stroke="midnightblue" d="M856.904,-176.054C746.021,-172.872 397.037,-161.077 109.5,-132 108.191,-131.868 106.868,-131.728 105.534,-131.581"/>
<polygon fill="midnightblue" stroke="midnightblue" points="105.52,-128.055 95.1759,-130.346 104.691,-135.006 105.52,-128.055"/>
</g>
<!-- Node2 -->
<g id="node3" class="node"><title>Node2</title>
<polygon fill="white" stroke="#bfbfbf" points="605.5,-0.5 605.5,-19.5 663.5,-19.5 663.5,-0.5 605.5,-0.5"/>
<text text-anchor="middle" x="634.5" y="-7.5" font-family="Helvetica,sans-Serif" font-size="10.00">Arduino.h</text>
</g>
<!-- Node0&#45;&gt;Node2 -->
<g id="edge35" class="edge"><title>Node0&#45;&gt;Node2</title>
<path fill="none" stroke="midnightblue" d="M856.646,-176.572C723.382,-174.723 261.387,-165.902 205.5,-132 180.605,-116.898 179.346,-104.04 171.5,-76 169.105,-67.4399 165.526,-62.5824 171.5,-56 199.765,-24.8547 488.604,-14.6001 595.231,-11.8605"/>
<polygon fill="midnightblue" stroke="midnightblue" points="595.35,-15.3587 605.26,-11.6113 595.176,-8.36087 595.35,-15.3587"/>
</g>
<!-- Node3 -->
<g id="node4" class="node"><title>Node3</title>
<g id="a_node4"><a xlink:href="_cool_board_sensors_8h.html" target="_top" xlink:title="CoolBoardSensors Header File. ">
<polygon fill="white" stroke="black" points="215,-112.5 215,-131.5 322,-131.5 322,-112.5 215,-112.5"/>
<text text-anchor="middle" x="268.5" y="-119.5" font-family="Helvetica,sans-Serif" font-size="10.00">CoolBoardSensors.h</text>
</a>
</g>
</g>
<!-- Node0&#45;&gt;Node3 -->
<g id="edge3" class="edge"><title>Node0&#45;&gt;Node3</title>
<path fill="none" stroke="midnightblue" d="M856.71,-173.903C754.845,-165.088 462.324,-139.773 332.216,-128.514"/>
<polygon fill="midnightblue" stroke="midnightblue" points="332.274,-125.006 322.01,-127.631 331.671,-131.98 332.274,-125.006"/>
</g>
<!-- Node6 -->
<g id="node7" class="node"><title>Node6</title>
<g id="a_node7"><a xlink:href="_cool_board_led_8h.html" target="_top" xlink:title="CoolBoardLed Header File. ">
<polygon fill="white" stroke="black" points="423.5,-112.5 423.5,-131.5 509.5,-131.5 509.5,-112.5 423.5,-112.5"/>
<text text-anchor="middle" x="466.5" y="-119.5" font-family="Helvetica,sans-Serif" font-size="10.00">CoolBoardLed.h</text>
</a>
</g>
</g>
<!-- Node0&#45;&gt;Node6 -->
<g id="edge7" class="edge"><title>Node0&#45;&gt;Node6</title>
<path fill="none" stroke="midnightblue" d="M856.912,-172.489C782.086,-163.004 608.107,-140.95 519.868,-129.765"/>
<polygon fill="midnightblue" stroke="midnightblue" points="520.162,-126.274 509.801,-128.489 519.282,-133.219 520.162,-126.274"/>
</g>
<!-- Node8 -->
<g id="node9" class="node"><title>Node8</title>
<g id="a_node9"><a xlink:href="_cool_time_8h.html" target="_top" xlink:title="CoolTime Header File. ">
<polygon fill="white" stroke="black" points="600,-112.5 600,-131.5 667,-131.5 667,-112.5 600,-112.5"/>
<text text-anchor="middle" x="633.5" y="-119.5" font-family="Helvetica,sans-Serif" font-size="10.00">CoolTime.h</text>
</a>
</g>
</g>
<!-- Node0&#45;&gt;Node8 -->
<g id="edge10" class="edge"><title>Node0&#45;&gt;Node8</title>
<path fill="none" stroke="midnightblue" d="M856.759,-169.548C809.892,-159.777 727.711,-142.643 677.198,-132.111"/>
<polygon fill="midnightblue" stroke="midnightblue" points="677.734,-128.647 667.23,-130.033 676.306,-135.5 677.734,-128.647"/>
</g>
<!-- Node11 -->
<g id="node12" class="node"><title>Node11</title>
<g id="a_node12"><a xlink:href="_cool_m_q_t_t_8h.html" target="_top" xlink:title="CoolMQTT Header File. ">
<polygon fill="white" stroke="black" points="787,-112.5 787,-131.5 860,-131.5 860,-112.5 787,-112.5"/>
<text text-anchor="middle" x="823.5" y="-119.5" font-family="Helvetica,sans-Serif" font-size="10.00">CoolMQTT.h</text>
</a>
</g>
</g>
<!-- Node0&#45;&gt;Node11 -->
<g id="edge14" class="edge"><title>Node0&#45;&gt;Node11</title>
<path fill="none" stroke="midnightblue" d="M881.414,-168.324C871.014,-160.185 855.239,-147.839 842.778,-138.087"/>
<polygon fill="midnightblue" stroke="midnightblue" points="844.82,-135.241 834.788,-131.834 840.506,-140.753 844.82,-135.241"/>
</g>
<!-- Node12 -->
<g id="node13" class="node"><title>Node12</title>
<polygon fill="white" stroke="#bfbfbf" points="865.5,-56.5 865.5,-75.5 951.5,-75.5 951.5,-56.5 865.5,-56.5"/>
<text text-anchor="middle" x="908.5" y="-63.5" font-family="Helvetica,sans-Serif" font-size="10.00">ESP8266WiFi.h</text>
</g>
<!-- Node0&#45;&gt;Node12 -->
<g id="edge31" class="edge"><title>Node0&#45;&gt;Node12</title>
<path fill="none" stroke="midnightblue" d="M893.755,-168.368C896.338,-150.617 902.294,-109.666 905.795,-85.5974"/>
<polygon fill="midnightblue" stroke="midnightblue" points="909.274,-85.9911 907.25,-75.5914 902.347,-84.9835 909.274,-85.9911"/>
</g>
<!-- Node14 -->
<g id="node15" class="node"><title>Node14</title>
<g id="a_node15"><a xlink:href="_jetpack_8h.html" target="_top" xlink:title="Jetpack Header File. ">
<polygon fill="white" stroke="black" points="921,-112.5 921,-131.5 980,-131.5 980,-112.5 921,-112.5"/>
<text text-anchor="middle" x="950.5" y="-119.5" font-family="Helvetica,sans-Serif" font-size="10.00">Jetpack.h</text>
</a>
</g>
</g>
<!-- Node0&#45;&gt;Node14 -->
<g id="edge18" class="edge"><title>Node0&#45;&gt;Node14</title>
<path fill="none" stroke="midnightblue" d="M901.819,-168.324C910.393,-160.341 923.312,-148.313 933.688,-138.653"/>
<polygon fill="midnightblue" stroke="midnightblue" points="936.078,-141.21 941.012,-131.834 931.308,-136.086 936.078,-141.21"/>
</g>
<!-- Node15 -->
<g id="node16" class="node"><title>Node15</title>
<g id="a_node16"><a xlink:href="_irene3000_8h.html" target="_top" xlink:title="Irene3000 Header File. ">
<polygon fill="white" stroke="black" points="998.5,-112.5 998.5,-131.5 1066.5,-131.5 1066.5,-112.5 998.5,-112.5"/>
<text text-anchor="middle" x="1032.5" y="-119.5" font-family="Helvetica,sans-Serif" font-size="10.00">Irene3000.h</text>
</a>
</g>
</g>
<!-- Node0&#45;&gt;Node15 -->
<g id="edge20" class="edge"><title>Node0&#45;&gt;Node15</title>
<path fill="none" stroke="midnightblue" d="M914.683,-168.444C937.928,-159.478 974.649,-145.314 1000.92,-135.183"/>
<polygon fill="midnightblue" stroke="midnightblue" points="1002.35,-138.381 1010.42,-131.516 999.831,-131.85 1002.35,-138.381"/>
</g>
<!-- Node17 -->
<g id="node18" class="node"><title>Node17</title>
<g id="a_node18"><a xlink:href="_external_sensors_8h.html" target="_top" xlink:title="ExternalSensors Header File. ">
<polygon fill="white" stroke="black" points="1115,-112.5 1115,-131.5 1212,-131.5 1212,-112.5 1115,-112.5"/>
<text text-anchor="middle" x="1163.5" y="-119.5" font-family="Helvetica,sans-Serif" font-size="10.00">ExternalSensors.h</text>
</a>
</g>
</g>
<!-- Node0&#45;&gt;Node17 -->
<g id="edge23" class="edge"><title>Node0&#45;&gt;Node17</title>
<path fill="none" stroke="midnightblue" d="M928.207,-169.885C974.791,-160.603 1056.68,-144.284 1110.52,-133.557"/>
<polygon fill="midnightblue" stroke="midnightblue" points="1111.44,-136.943 1120.56,-131.557 1110.07,-130.078 1111.44,-136.943"/>
</g>
<!-- Node23 -->
<g id="node24" class="node"><title>Node23</title>
<polygon fill="white" stroke="#bfbfbf" points="1230,-112.5 1230,-131.5 1305,-131.5 1305,-112.5 1230,-112.5"/>
<text text-anchor="middle" x="1267.5" y="-119.5" font-family="Helvetica,sans-Serif" font-size="10.00">DNSServer.h</text>
</g>
<!-- Node0&#45;&gt;Node23 -->
<g id="edge32" class="edge"><title>Node0&#45;&gt;Node23</title>
<path fill="none" stroke="midnightblue" d="M928.024,-172.751C986.544,-165.616 1107.1,-150.347 1219.65,-132.061"/>
<polygon fill="midnightblue" stroke="midnightblue" points="1220.52,-135.466 1229.82,-130.397 1219.39,-128.558 1220.52,-135.466"/>
</g>
<!-- Node24 -->
<g id="node25" class="node"><title>Node24</title>
<polygon fill="white" stroke="#bfbfbf" points="1323,-112.5 1323,-131.5 1438,-131.5 1438,-112.5 1323,-112.5"/>
<text text-anchor="middle" x="1380.5" y="-119.5" font-family="Helvetica,sans-Serif" font-size="10.00">ESP8266WebServer.h</text>
</g>
<!-- Node0&#45;&gt;Node24 -->
<g id="edge33" class="edge"><title>Node0&#45;&gt;Node24</title>
<path fill="none" stroke="midnightblue" d="M928.021,-173.531C998.911,-166.536 1163.23,-149.971 1312.5,-132.09"/>
<polygon fill="midnightblue" stroke="midnightblue" points="1313.26,-135.525 1322.77,-130.856 1312.42,-128.575 1313.26,-135.525"/>
</g>
<!-- Node25 -->
<g id="node26" class="node"><title>Node25</title>
<polygon fill="white" stroke="#bfbfbf" points="1456,-112.5 1456,-131.5 1539,-131.5 1539,-112.5 1456,-112.5"/>
<text text-anchor="middle" x="1497.5" y="-119.5" font-family="Helvetica,sans-Serif" font-size="10.00">WiFiManager.h</text>
</g>
<!-- Node0&#45;&gt;Node25 -->
<g id="edge34" class="edge"><title>Node0&#45;&gt;Node25</title>
<path fill="none" stroke="midnightblue" d="M928.268,-175.258C1015.08,-170.781 1243.96,-157.491 1445.61,-131.989"/>
<polygon fill="midnightblue" stroke="midnightblue" points="1446.32,-135.426 1455.8,-130.687 1445.44,-128.482 1446.32,-135.426"/>
</g>
<!-- Node1&#45;&gt;Node2 -->
<g id="edge2" class="edge"><title>Node1&#45;&gt;Node2</title>
<path fill="none" stroke="midnightblue" d="M52.7041,-112.362C62.0195,-97.7913 83.0652,-68.6803 109.5,-56 195.31,-14.8384 488.451,-10.8599 595.207,-10.813"/>
<polygon fill="midnightblue" stroke="midnightblue" points="595.235,-14.3129 605.238,-10.8202 595.24,-7.31293 595.235,-14.3129"/>
</g>
<!-- Node3&#45;&gt;Node2 -->
<g id="edge4" class="edge"><title>Node3&#45;&gt;Node2</title>
<path fill="none" stroke="midnightblue" d="M239.21,-112.418C205.832,-101.232 158.568,-80.2129 180.5,-56 208.132,-25.4942 490.203,-14.8599 595.309,-11.9391"/>
<polygon fill="midnightblue" stroke="midnightblue" points="595.592,-15.4329 605.494,-11.665 595.403,-8.43539 595.592,-15.4329"/>
</g>
<!-- Node4 -->
<g id="node5" class="node"><title>Node4</title>
<polygon fill="white" stroke="#bfbfbf" points="190,-56.5 190,-75.5 247,-75.5 247,-56.5 190,-56.5"/>
<text text-anchor="middle" x="218.5" y="-63.5" font-family="Helvetica,sans-Serif" font-size="10.00">SI114X.h</text>
</g>
<!-- Node3&#45;&gt;Node4 -->
<g id="edge5" class="edge"><title>Node3&#45;&gt;Node4</title>
<path fill="none" stroke="midnightblue" d="M260.244,-112.083C253.035,-104.298 242.39,-92.8015 233.654,-83.3665"/>
<polygon fill="midnightblue" stroke="midnightblue" points="235.965,-80.7108 226.603,-75.7511 230.829,-85.4666 235.965,-80.7108"/>
</g>
<!-- Node5 -->
<g id="node6" class="node"><title>Node5</title>
<polygon fill="white" stroke="#bfbfbf" points="265.5,-56.5 265.5,-75.5 369.5,-75.5 369.5,-56.5 265.5,-56.5"/>
<text text-anchor="middle" x="317.5" y="-63.5" font-family="Helvetica,sans-Serif" font-size="10.00">SparkFunBME280.h</text>
</g>
<!-- Node3&#45;&gt;Node5 -->
<g id="edge6" class="edge"><title>Node3&#45;&gt;Node5</title>
<path fill="none" stroke="midnightblue" d="M276.591,-112.083C283.655,-104.298 294.088,-92.8015 302.649,-83.3665"/>
<polygon fill="midnightblue" stroke="midnightblue" points="305.431,-85.5087 309.559,-75.7511 300.247,-80.8047 305.431,-85.5087"/>
</g>
<!-- Node6&#45;&gt;Node2 -->
<g id="edge8" class="edge"><title>Node6&#45;&gt;Node2</title>
<path fill="none" stroke="midnightblue" d="M451.617,-112.468C431.609,-99.9319 400.314,-75.8684 416.5,-56 438.616,-28.8519 538.663,-17.5897 595.225,-13.3265"/>
<polygon fill="midnightblue" stroke="midnightblue" points="595.527,-16.814 605.252,-12.6097 595.027,-9.8318 595.527,-16.814"/>
</g>
<!-- Node7 -->
<g id="node8" class="node"><title>Node7</title>
<polygon fill="white" stroke="#bfbfbf" points="425.5,-56.5 425.5,-75.5 507.5,-75.5 507.5,-56.5 425.5,-56.5"/>
<text text-anchor="middle" x="466.5" y="-63.5" font-family="Helvetica,sans-Serif" font-size="10.00">NeoPixelBus.h</text>
</g>
<!-- Node6&#45;&gt;Node7 -->
<g id="edge9" class="edge"><title>Node6&#45;&gt;Node7</title>
<path fill="none" stroke="midnightblue" d="M466.5,-112.083C466.5,-105.006 466.5,-94.8611 466.5,-85.9865"/>
<polygon fill="midnightblue" stroke="midnightblue" points="470,-85.751 466.5,-75.7511 463,-85.7511 470,-85.751"/>
</g>
<!-- Node8&#45;&gt;Node2 -->
<g id="edge11" class="edge"><title>Node8&#45;&gt;Node2</title>
<path fill="none" stroke="midnightblue" d="M606.826,-112.464C578.397,-101.82 539.391,-81.8335 554.5,-56 563.561,-40.5078 580.133,-29.9372 595.854,-22.9563"/>
<polygon fill="midnightblue" stroke="midnightblue" points="597.506,-26.0633 605.457,-19.0617 594.875,-19.5764 597.506,-26.0633"/>
</g>
<!-- Node9 -->
<g id="node10" class="node"><title>Node9</title>
<polygon fill="white" stroke="#bfbfbf" points="563.5,-56.5 563.5,-75.5 623.5,-75.5 623.5,-56.5 563.5,-56.5"/>
<text text-anchor="middle" x="593.5" y="-63.5" font-family="Helvetica,sans-Serif" font-size="10.00">DS1337.h</text>
</g>
<!-- Node8&#45;&gt;Node9 -->
<g id="edge12" class="edge"><title>Node8&#45;&gt;Node9</title>
<path fill="none" stroke="midnightblue" d="M626.895,-112.083C621.245,-104.455 612.955,-93.2645 606.049,-83.9408"/>
<polygon fill="midnightblue" stroke="midnightblue" points="608.747,-81.7034 599.982,-75.7511 603.122,-85.87 608.747,-81.7034"/>
</g>
<!-- Node10 -->
<g id="node11" class="node"><title>Node10</title>
<polygon fill="white" stroke="#bfbfbf" points="642,-56.5 642,-75.5 705,-75.5 705,-56.5 642,-56.5"/>
<text text-anchor="middle" x="673.5" y="-63.5" font-family="Helvetica,sans-Serif" font-size="10.00">WiFiUdp.h</text>
</g>
<!-- Node8&#45;&gt;Node10 -->
<g id="edge13" class="edge"><title>Node8&#45;&gt;Node10</title>
<path fill="none" stroke="midnightblue" d="M640.105,-112.083C645.755,-104.455 654.045,-93.2645 660.951,-83.9408"/>
<polygon fill="midnightblue" stroke="midnightblue" points="663.878,-85.87 667.018,-75.7511 658.253,-81.7034 663.878,-85.87"/>
</g>
<!-- Node11&#45;&gt;Node2 -->
<g id="edge15" class="edge"><title>Node11&#45;&gt;Node2</title>
<path fill="none" stroke="midnightblue" d="M808.953,-112.304C787.94,-99.7662 747.844,-75.9268 713.5,-56 695.184,-45.3729 674.37,-33.5258 658.705,-24.6559"/>
<polygon fill="midnightblue" stroke="midnightblue" points="660.113,-21.4313 649.686,-19.5554 656.668,-27.5245 660.113,-21.4313"/>
</g>
<!-- Node11&#45;&gt;Node12 -->
<g id="edge16" class="edge"><title>Node11&#45;&gt;Node12</title>
<path fill="none" stroke="midnightblue" d="M837.157,-112.324C850.416,-103.9 870.768,-90.9709 886.346,-81.0741"/>
<polygon fill="midnightblue" stroke="midnightblue" points="888.313,-83.9711 894.877,-75.6545 884.56,-78.0626 888.313,-83.9711"/>
</g>
<!-- Node13 -->
<g id="node14" class="node"><title>Node13</title>
<polygon fill="white" stroke="#bfbfbf" points="762,-56.5 762,-75.5 847,-75.5 847,-56.5 762,-56.5"/>
<text text-anchor="middle" x="804.5" y="-63.5" font-family="Helvetica,sans-Serif" font-size="10.00">PubSubClient.h</text>
</g>
<!-- Node11&#45;&gt;Node13 -->
<g id="edge17" class="edge"><title>Node11&#45;&gt;Node13</title>
<path fill="none" stroke="midnightblue" d="M820.363,-112.083C817.817,-104.849 814.144,-94.4087 810.973,-85.3968"/>
<polygon fill="midnightblue" stroke="midnightblue" points="814.2,-84.0225 807.579,-75.7511 807.597,-86.3459 814.2,-84.0225"/>
</g>
<!-- Node14&#45;&gt;Node2 -->
<g id="edge19" class="edge"><title>Node14&#45;&gt;Node2</title>
<path fill="none" stroke="midnightblue" d="M955.703,-112.226C963.098,-98.4881 974.302,-71.8381 960.5,-56 923.754,-13.8331 752.527,-9.84345 674.018,-10.2993"/>
<polygon fill="midnightblue" stroke="midnightblue" points="673.548,-6.8031 663.579,-10.3896 673.609,-13.8028 673.548,-6.8031"/>
</g>
<!-- Node15&#45;&gt;Node2 -->
<g id="edge22" class="edge"><title>Node15&#45;&gt;Node2</title>
<path fill="none" stroke="midnightblue" d="M1028.21,-112.496C1020.45,-98.1289 1002.65,-69.3157 978.5,-56 926.758,-27.4755 752.283,-16.2421 673.583,-12.5501"/>
<polygon fill="midnightblue" stroke="midnightblue" points="673.729,-9.05327 663.581,-12.0976 673.413,-16.0461 673.729,-9.05327"/>
</g>
<!-- Node16 -->
<g id="node17" class="node"><title>Node16</title>
<polygon fill="white" stroke="#bfbfbf" points="1045.5,-56.5 1045.5,-75.5 1151.5,-75.5 1151.5,-56.5 1045.5,-56.5"/>
<text text-anchor="middle" x="1098.5" y="-63.5" font-family="Helvetica,sans-Serif" font-size="10.00">Adafruit_ADS1015.h</text>
</g>
<!-- Node15&#45;&gt;Node16 -->
<g id="edge21" class="edge"><title>Node15&#45;&gt;Node16</title>
<path fill="none" stroke="midnightblue" d="M1043.1,-112.324C1052.96,-104.263 1067.85,-92.0765 1079.72,-82.3695"/>
<polygon fill="midnightblue" stroke="midnightblue" points="1082.18,-84.8752 1087.7,-75.8339 1077.75,-79.4575 1082.18,-84.8752"/>
</g>
<!-- Node17&#45;&gt;Node2 -->
<g id="edge24" class="edge"><title>Node17&#45;&gt;Node2</title>
<path fill="none" stroke="midnightblue" d="M1166.22,-112.475C1170.05,-98.5961 1175.06,-71.1462 1160.5,-56 1126.93,-21.0836 790.114,-13.1476 673.775,-11.4423"/>
<polygon fill="midnightblue" stroke="midnightblue" points="673.588,-7.93941 663.54,-11.3001 673.49,-14.9387 673.588,-7.93941"/>
</g>
<!-- Node18 -->
<g id="node19" class="node"><title>Node18</title>
<polygon fill="white" stroke="#bfbfbf" points="1208,-56.5 1208,-75.5 1253,-75.5 1253,-56.5 1208,-56.5"/>
<text text-anchor="middle" x="1230.5" y="-63.5" font-family="Helvetica,sans-Serif" font-size="10.00">Wire.h</text>
</g>
<!-- Node17&#45;&gt;Node18 -->
<g id="edge25" class="edge"><title>Node17&#45;&gt;Node18</title>
<path fill="none" stroke="midnightblue" d="M1174.26,-112.324C1184.27,-104.263 1199.39,-92.0765 1211.43,-82.3695"/>
<polygon fill="midnightblue" stroke="midnightblue" points="1213.95,-84.8343 1219.54,-75.8339 1209.56,-79.3841 1213.95,-84.8343"/>
</g>
<!-- Node19 -->
<g id="node20" class="node"><title>Node19</title>
<polygon fill="white" stroke="#bfbfbf" points="1271,-56.5 1271,-75.5 1334,-75.5 1334,-56.5 1271,-56.5"/>
<text text-anchor="middle" x="1302.5" y="-63.5" font-family="Helvetica,sans-Serif" font-size="10.00">OneWire.h</text>
</g>
<!-- Node17&#45;&gt;Node19 -->
<g id="edge26" class="edge"><title>Node17&#45;&gt;Node19</title>
<path fill="none" stroke="midnightblue" d="M1185.52,-112.444C1208.6,-103.478 1245.06,-89.314 1271.14,-79.1827"/>
<polygon fill="midnightblue" stroke="midnightblue" points="1272.52,-82.4002 1280.58,-75.5164 1269.99,-75.8753 1272.52,-82.4002"/>
</g>
<!-- Node20 -->
<g id="node21" class="node"><title>Node20</title>
<g id="a_node21"><a xlink:href="_external_sensor_8h.html" target="_top" xlink:title="ExternalSensor Header File. ">
<polygon fill="white" stroke="black" points="1352.5,-56.5 1352.5,-75.5 1444.5,-75.5 1444.5,-56.5 1352.5,-56.5"/>
<text text-anchor="middle" x="1398.5" y="-63.5" font-family="Helvetica,sans-Serif" font-size="10.00">ExternalSensor.h</text>
</a>
</g>
</g>
<!-- Node17&#45;&gt;Node20 -->
<g id="edge27" class="edge"><title>Node17&#45;&gt;Node20</title>
<path fill="none" stroke="midnightblue" d="M1200.74,-112.444C1241.56,-103.063 1307.14,-87.9926 1351.48,-77.8036"/>
<polygon fill="midnightblue" stroke="midnightblue" points="1352.48,-81.1671 1361.44,-75.5164 1350.91,-74.3449 1352.48,-81.1671"/>
</g>
<!-- Node20&#45;&gt;Node2 -->
<g id="edge30" class="edge"><title>Node20&#45;&gt;Node2</title>
<path fill="none" stroke="midnightblue" d="M1352.4,-57.2325C1349.06,-56.779 1345.73,-56.3613 1342.5,-56 1088.41,-27.5735 780.859,-15.6591 673.623,-12.1695"/>
<polygon fill="midnightblue" stroke="midnightblue" points="673.693,-8.67001 663.586,-11.8486 673.469,-15.6664 673.693,-8.67001"/>
</g>
<!-- Node21 -->
<g id="node22" class="node"><title>Node21</title>
<polygon fill="white" stroke="#bfbfbf" points="1309,-0.5 1309,-19.5 1380,-19.5 1380,-0.5 1309,-0.5"/>
<text text-anchor="middle" x="1344.5" y="-7.5" font-family="Helvetica,sans-Serif" font-size="10.00">NDIR_I2C.h</text>
</g>
<!-- Node20&#45;&gt;Node21 -->
<g id="edge28" class="edge"><title>Node20&#45;&gt;Node21</title>
<path fill="none" stroke="midnightblue" d="M1389.58,-56.083C1381.72,-48.2195 1370.07,-36.5688 1360.58,-27.0813"/>
<polygon fill="midnightblue" stroke="midnightblue" points="1362.8,-24.3473 1353.25,-19.7511 1357.85,-29.2971 1362.8,-24.3473"/>
</g>
<!-- Node22 -->
<g id="node23" class="node"><title>Node22</title>
<polygon fill="white" stroke="#bfbfbf" points="1398,-0.5 1398,-19.5 1505,-19.5 1505,-0.5 1398,-0.5"/>
<text text-anchor="middle" x="1451.5" y="-7.5" font-family="Helvetica,sans-Serif" font-size="10.00">DallasTemperature.h</text>
</g>
<!-- Node20&#45;&gt;Node22 -->
<g id="edge29" class="edge"><title>Node20&#45;&gt;Node22</title>
<path fill="none" stroke="midnightblue" d="M1407.25,-56.083C1414.97,-48.2195 1426.4,-36.5688 1435.72,-27.0813"/>
<polygon fill="midnightblue" stroke="midnightblue" points="1438.4,-29.3396 1442.91,-19.7511 1433.41,-24.4363 1438.4,-29.3396"/>
</g>
</g>
</svg>
