<?xml version="1.0" encoding="UTF-8" standalone="no"?>
<!DOCTYPE svg PUBLIC "-//W3C//DTD SVG 1.1//EN"
 "http://www.w3.org/Graphics/SVG/1.1/DTD/svg11.dtd">
<!-- Generated by graphviz version 2.38.0 (20140413.2041)
 -->
<!-- Title: CoolBoardSensors.cpp Pages: 1 -->
<svg width="484pt" height="140pt"
 viewBox="0.00 0.00 484.00 140.00" xmlns="http://www.w3.org/2000/svg" xmlns:xlink="http://www.w3.org/1999/xlink">
<g id="graph0" class="graph" transform="scale(1 1) rotate(0) translate(4 136)">
<title>CoolBoardSensors.cpp</title>
<polygon fill="white" stroke="none" points="-4,4 -4,-136 480,-136 480,4 -4,4"/>
<!-- Node0 -->
<g id="node1" class="node"><title>Node0</title>
<polygon fill="#bfbfbf" stroke="black" points="92.5,-112.5 92.5,-131.5 209.5,-131.5 209.5,-112.5 92.5,-112.5"/>
<text text-anchor="middle" x="151" y="-119.5" font-family="Helvetica,sans-Serif" font-size="10.00">CoolBoardSensors.cpp</text>
</g>
<!-- Node1 -->
<g id="node2" class="node"><title>Node1</title>
<polygon fill="white" stroke="#bfbfbf" points="0,-56.5 0,-75.5 38,-75.5 38,-56.5 0,-56.5"/>
<text text-anchor="middle" x="19" y="-63.5" font-family="Helvetica,sans-Serif" font-size="10.00">FS.h</text>
</g>
<!-- Node0&#45;&gt;Node1 -->
<g id="edge1" class="edge"><title>Node0&#45;&gt;Node1</title>
<path fill="none" stroke="midnightblue" d="M130.084,-112.444C107.751,-103.307 72.2238,-88.7734 47.3776,-78.609"/>
<polygon fill="midnightblue" stroke="midnightblue" points="48.6843,-75.3621 38.1036,-74.8151 46.0338,-81.8409 48.6843,-75.3621"/>
</g>
<!-- Node2 -->
<g id="node3" class="node"><title>Node2</title>
<polygon fill="white" stroke="#bfbfbf" points="128,-0.5 128,-19.5 186,-19.5 186,-0.5 128,-0.5"/>
<text text-anchor="middle" x="157" y="-7.5" font-family="Helvetica,sans-Serif" font-size="10.00">Arduino.h</text>
</g>
<!-- Node0&#45;&gt;Node2 -->
<g id="edge2" class="edge"><title>Node0&#45;&gt;Node2</title>
<path fill="none" stroke="midnightblue" d="M130.014,-112.412C105.994,-101.219 71.5906,-80.1939 85,-56 93.0892,-41.405 108.103,-30.9185 122.336,-23.7608"/>
<polygon fill="midnightblue" stroke="midnightblue" points="123.886,-26.9002 131.496,-19.5282 120.95,-20.5459 123.886,-26.9002"/>
</g>
<!-- Node3 -->
<g id="node4" class="node"><title>Node3</title>
<polygon fill="white" stroke="#bfbfbf" points="94.5,-56.5 94.5,-75.5 143.5,-75.5 143.5,-56.5 94.5,-56.5"/>
<text text-anchor="middle" x="119" y="-63.5" font-family="Helvetica,sans-Serif" font-size="10.00">stdint.h</text>
</g>
<!-- Node0&#45;&gt;Node3 -->
<g id="edge3" class="edge"><title>Node0&#45;&gt;Node3</title>
<path fill="none" stroke="midnightblue" d="M145.716,-112.083C141.289,-104.613 134.837,-93.7244 129.382,-84.5199"/>
<polygon fill="midnightblue" stroke="midnightblue" points="132.295,-82.5697 124.186,-75.7511 126.273,-86.1383 132.295,-82.5697"/>
</g>
<!-- Node4 -->
<g id="node5" class="node"><title>Node4</title>
<polygon fill="white" stroke="#bfbfbf" points="161.5,-56.5 161.5,-75.5 206.5,-75.5 206.5,-56.5 161.5,-56.5"/>
<text text-anchor="middle" x="184" y="-63.5" font-family="Helvetica,sans-Serif" font-size="10.00">Wire.h</text>
</g>
<!-- Node0&#45;&gt;Node4 -->
<g id="edge4" class="edge"><title>Node0&#45;&gt;Node4</title>
<path fill="none" stroke="midnightblue" d="M156.449,-112.083C161.014,-104.613 167.668,-93.7244 173.293,-84.5199"/>
<polygon fill="midnightblue" stroke="midnightblue" points="176.424,-86.109 178.652,-75.7511 170.451,-82.4588 176.424,-86.109"/>
</g>
<!-- Node5 -->
<g id="node6" class="node"><title>Node5</title>
<polygon fill="white" stroke="#bfbfbf" points="224.5,-56.5 224.5,-75.5 303.5,-75.5 303.5,-56.5 224.5,-56.5"/>
<text text-anchor="middle" x="264" y="-63.5" font-family="Helvetica,sans-Serif" font-size="10.00">ArduinoJson.h</text>
</g>
<!-- Node0&#45;&gt;Node5 -->
<g id="edge5" class="edge"><title>Node0&#45;&gt;Node5</title>
<path fill="none" stroke="midnightblue" d="M168.905,-112.444C187.254,-103.675 216.005,-89.9355 237.094,-79.8579"/>
<polygon fill="midnightblue" stroke="midnightblue" points="238.665,-82.9862 246.179,-75.5164 235.647,-76.6703 238.665,-82.9862"/>
</g>
<!-- Node6 -->
<g id="node7" class="node"><title>Node6</title>
<g id="a_node7"><a xlink:href="_cool_board_sensors_8h.html" target="_top" xlink:title="CoolBoardSensors Header File. ">
<polygon fill="white" stroke="black" points="321.5,-56.5 321.5,-75.5 428.5,-75.5 428.5,-56.5 321.5,-56.5"/>
<text text-anchor="middle" x="375" y="-63.5" font-family="Helvetica,sans-Serif" font-size="10.00">CoolBoardSensors.h</text>
</a>
</g>
</g>
<!-- Node0&#45;&gt;Node6 -->
<g id="edge6" class="edge"><title>Node0&#45;&gt;Node6</title>
<path fill="none" stroke="midnightblue" d="M186.493,-112.444C225.324,-103.083 287.656,-88.0561 329.918,-77.868"/>
<polygon fill="midnightblue" stroke="midnightblue" points="330.771,-81.2626 339.673,-75.5164 329.131,-74.4576 330.771,-81.2626"/>
</g>
<!-- Node6&#45;&gt;Node2 -->
<g id="edge7" class="edge"><title>Node6&#45;&gt;Node2</title>
<path fill="none" stroke="midnightblue" d="M340.457,-56.4435C301.166,-46.7109 237.15,-30.8536 196.07,-20.6778"/>
<polygon fill="midnightblue" stroke="midnightblue" points="196.697,-17.2275 186.149,-18.2203 195.014,-24.0221 196.697,-17.2275"/>
</g>
<!-- Node7 -->
<g id="node8" class="node"><title>Node7</title>
<polygon fill="white" stroke="#bfbfbf" points="296.5,-0.5 296.5,-19.5 353.5,-19.5 353.5,-0.5 296.5,-0.5"/>
<text text-anchor="middle" x="325" y="-7.5" font-family="Helvetica,sans-Serif" font-size="10.00">SI114X.h</text>
</g>
<!-- Node6&#45;&gt;Node7 -->
<g id="edge8" class="edge"><title>Node6&#45;&gt;Node7</title>
<path fill="none" stroke="midnightblue" d="M366.744,-56.083C359.535,-48.2982 348.89,-36.8015 340.154,-27.3665"/>
<polygon fill="midnightblue" stroke="midnightblue" points="342.465,-24.7108 333.103,-19.7511 337.329,-29.4666 342.465,-24.7108"/>
</g>
<!-- Node8 -->
<g id="node9" class="node"><title>Node8</title>
<polygon fill="white" stroke="#bfbfbf" points="372,-0.5 372,-19.5 476,-19.5 476,-0.5 372,-0.5"/>
<text text-anchor="middle" x="424" y="-7.5" font-family="Helvetica,sans-Serif" font-size="10.00">SparkFunBME280.h</text>
</g>
<!-- Node6&#45;&gt;Node8 -->
<g id="edge9" class="edge"><title>Node6&#45;&gt;Node8</title>
<path fill="none" stroke="midnightblue" d="M383.091,-56.083C390.155,-48.2982 400.588,-36.8015 409.149,-27.3665"/>
<polygon fill="midnightblue" stroke="midnightblue" points="411.931,-29.5087 416.059,-19.7511 406.747,-24.8047 411.931,-29.5087"/>
</g>
</g>
</svg>
