<?xml version="1.0" encoding="UTF-8" standalone="no"?>
<!DOCTYPE svg PUBLIC "-//W3C//DTD SVG 1.1//EN"
 "http://www.w3.org/Graphics/SVG/1.1/DTD/svg11.dtd">
<!-- Generated by graphviz version 2.38.0 (20140413.2041)
 -->
<!-- Title: CoolTime.cpp Pages: 1 -->
<svg width="371pt" height="140pt"
 viewBox="0.00 0.00 370.50 140.00" xmlns="http://www.w3.org/2000/svg" xmlns:xlink="http://www.w3.org/1999/xlink">
<g id="graph0" class="graph" transform="scale(1 1) rotate(0) translate(4 136)">
<title>CoolTime.cpp</title>
<polygon fill="white" stroke="none" points="-4,4 -4,-136 366.5,-136 366.5,4 -4,4"/>
<!-- Node0 -->
<g id="node1" class="node"><title>Node0</title>
<polygon fill="#bfbfbf" stroke="black" points="120.5,-112.5 120.5,-131.5 197.5,-131.5 197.5,-112.5 120.5,-112.5"/>
<text text-anchor="middle" x="159" y="-119.5" font-family="Helvetica,sans-Serif" font-size="10.00">CoolTime.cpp</text>
</g>
<!-- Node1 -->
<g id="node2" class="node"><title>Node1</title>
<polygon fill="white" stroke="#bfbfbf" points="0,-56.5 0,-75.5 38,-75.5 38,-56.5 0,-56.5"/>
<text text-anchor="middle" x="19" y="-63.5" font-family="Helvetica,sans-Serif" font-size="10.00">FS.h</text>
</g>
<!-- Node0&#45;&gt;Node1 -->
<g id="edge1" class="edge"><title>Node0&#45;&gt;Node1</title>
<path fill="none" stroke="midnightblue" d="M136.817,-112.444C112.751,-103.161 74.2424,-88.3078 47.8437,-78.1254"/>
<polygon fill="midnightblue" stroke="midnightblue" points="48.9641,-74.8063 38.3745,-74.473 46.4449,-81.3373 48.9641,-74.8063"/>
</g>
<!-- Node2 -->
<g id="node3" class="node"><title>Node2</title>
<polygon fill="white" stroke="#bfbfbf" points="20,-0.5 20,-19.5 78,-19.5 78,-0.5 20,-0.5"/>
<text text-anchor="middle" x="49" y="-7.5" font-family="Helvetica,sans-Serif" font-size="10.00">Arduino.h</text>
</g>
<!-- Node0&#45;&gt;Node2 -->
<g id="edge2" class="edge"><title>Node0&#45;&gt;Node2</title>
<path fill="none" stroke="midnightblue" d="M139.156,-112.457C123.04,-104.753 100.517,-92.16 85,-76 72.0419,-62.5052 62.2117,-43.4388 56.1243,-29.4448"/>
<polygon fill="midnightblue" stroke="midnightblue" points="59.2448,-27.83 52.2089,-19.9087 52.7694,-30.4887 59.2448,-27.83"/>
</g>
<!-- Node3 -->
<g id="node4" class="node"><title>Node3</title>
<polygon fill="white" stroke="#bfbfbf" points="178,-0.5 178,-19.5 238,-19.5 238,-0.5 178,-0.5"/>
<text text-anchor="middle" x="208" y="-7.5" font-family="Helvetica,sans-Serif" font-size="10.00">DS1337.h</text>
</g>
<!-- Node0&#45;&gt;Node3 -->
<g id="edge3" class="edge"><title>Node0&#45;&gt;Node3</title>
<path fill="none" stroke="midnightblue" d="M162.845,-112.368C170.824,-94.4563 189.325,-52.9233 200.005,-28.9482"/>
<polygon fill="midnightblue" stroke="midnightblue" points="203.301,-30.1503 204.173,-19.5914 196.907,-27.3019 203.301,-30.1503"/>
</g>
<!-- Node4 -->
<g id="node5" class="node"><title>Node4</title>
<g id="a_node5"><a xlink:href="_cool_time_8h.html" target="_top" xlink:title="CoolTime Header File. ">
<polygon fill="white" stroke="black" points="94.5,-56.5 94.5,-75.5 161.5,-75.5 161.5,-56.5 94.5,-56.5"/>
<text text-anchor="middle" x="128" y="-63.5" font-family="Helvetica,sans-Serif" font-size="10.00">CoolTime.h</text>
</a>
</g>
</g>
<!-- Node0&#45;&gt;Node4 -->
<g id="edge4" class="edge"><title>Node0&#45;&gt;Node4</title>
<path fill="none" stroke="midnightblue" d="M153.881,-112.083C149.592,-104.613 143.342,-93.7244 138.058,-84.5199"/>
<polygon fill="midnightblue" stroke="midnightblue" points="141.038,-82.6811 133.024,-75.7511 134.967,-86.1662 141.038,-82.6811"/>
</g>
<!-- Node6 -->
<g id="node7" class="node"><title>Node6</title>
<polygon fill="white" stroke="#bfbfbf" points="218.5,-56.5 218.5,-75.5 297.5,-75.5 297.5,-56.5 218.5,-56.5"/>
<text text-anchor="middle" x="258" y="-63.5" font-family="Helvetica,sans-Serif" font-size="10.00">ArduinoJson.h</text>
</g>
<!-- Node0&#45;&gt;Node6 -->
<g id="edge8" class="edge"><title>Node0&#45;&gt;Node6</title>
<path fill="none" stroke="midnightblue" d="M174.906,-112.324C190.638,-103.743 214.942,-90.486 233.209,-80.5224"/>
<polygon fill="midnightblue" stroke="midnightblue" points="235.03,-83.5157 242.133,-75.6545 231.678,-77.3704 235.03,-83.5157"/>
</g>
<!-- Node7 -->
<g id="node8" class="node"><title>Node7</title>
<polygon fill="white" stroke="#bfbfbf" points="315.5,-56.5 315.5,-75.5 362.5,-75.5 362.5,-56.5 315.5,-56.5"/>
<text text-anchor="middle" x="339" y="-63.5" font-family="Helvetica,sans-Serif" font-size="10.00">Time.h</text>
</g>
<!-- Node0&#45;&gt;Node7 -->
<g id="edge9" class="edge"><title>Node0&#45;&gt;Node7</title>
<path fill="none" stroke="midnightblue" d="M187.522,-112.444C219.594,-102.822 271.618,-87.2147 305.572,-77.0283"/>
<polygon fill="midnightblue" stroke="midnightblue" points="306.915,-80.2797 315.488,-74.0537 304.904,-73.5749 306.915,-80.2797"/>
</g>
<!-- Node4&#45;&gt;Node2 -->
<g id="edge5" class="edge"><title>Node4&#45;&gt;Node2</title>
<path fill="none" stroke="midnightblue" d="M115.307,-56.324C103.099,-47.979 84.4215,-35.2122 69.9971,-25.3524"/>
<polygon fill="midnightblue" stroke="midnightblue" points="71.892,-22.4082 61.6612,-19.6545 67.9418,-28.1871 71.892,-22.4082"/>
</g>
<!-- Node4&#45;&gt;Node3 -->
<g id="edge6" class="edge"><title>Node4&#45;&gt;Node3</title>
<path fill="none" stroke="midnightblue" d="M140.853,-56.324C153.216,-47.979 172.13,-35.2122 186.737,-25.3524"/>
<polygon fill="midnightblue" stroke="midnightblue" points="188.848,-28.1503 195.179,-19.6545 184.932,-22.3483 188.848,-28.1503"/>
</g>
<!-- Node5 -->
<g id="node6" class="node"><title>Node5</title>
<polygon fill="white" stroke="#bfbfbf" points="96.5,-0.5 96.5,-19.5 159.5,-19.5 159.5,-0.5 96.5,-0.5"/>
<text text-anchor="middle" x="128" y="-7.5" font-family="Helvetica,sans-Serif" font-size="10.00">WiFiUdp.h</text>
</g>
<!-- Node4&#45;&gt;Node5 -->
<g id="edge7" class="edge"><title>Node4&#45;&gt;Node5</title>
<path fill="none" stroke="midnightblue" d="M128,-56.083C128,-49.0059 128,-38.8611 128,-29.9865"/>
<polygon fill="midnightblue" stroke="midnightblue" points="131.5,-29.751 128,-19.7511 124.5,-29.7511 131.5,-29.751"/>
</g>
</g>
</svg>
