<?xml version="1.0" encoding="UTF-8" standalone="no"?>
<!DOCTYPE svg PUBLIC "-//W3C//DTD SVG 1.1//EN"
 "http://www.w3.org/Graphics/SVG/1.1/DTD/svg11.dtd">
<!-- Generated by graphviz version 2.38.0 (20140413.2041)
 -->
<!-- Title: CoolBoard::update Pages: 1 -->
<!--zoomable 458 -->
<svg id="main" version="1.1" xmlns="http://www.w3.org/2000/svg" xmlns:xlink="http://www.w3.org/1999/xlink" xml:space="preserve" onload="init(evt)">
<style type="text/css"><![CDATA[
.edge:hover path { stroke: red; }
.edge:hover polygon { stroke: red; fill: red; }
]]></style>
<script type="text/javascript"><![CDATA[
var edges = document.getElementsByTagName('g');
if (edges && edges.length) {
  for (var i=0;i<edges.length;i++) {
    if (edges[i].id.substr(0,4)=='edge') {
      edges[i].setAttribute('class','edge');
    }
  }
}
]]></script>
        <defs>
                <circle id="rim" cx="0" cy="0" r="7"/>
                <circle id="rim2" cx="0" cy="0" r="3.5"/>
                <g id="zoomPlus">
                        <use xlink:href="#rim" fill="#404040">
                                <set attributeName="fill" to="#808080" begin="zoomplus.mouseover" end="zoomplus.mouseout"/>
                        </use>
                        <path d="M-4,0h8M0,-4v8" fill="none" stroke="white" stroke-width="1.5" pointer-events="none"/>
                </g>
                <g id="zoomMin">
                        <use xlink:href="#rim" fill="#404040">
                                <set attributeName="fill" to="#808080" begin="zoomminus.mouseover" end="zoomminus.mouseout"/>
                        </use>
                        <path d="M-4,0h8" fill="none" stroke="white" stroke-width="1.5" pointer-events="none"/>
                </g>
                <g id="dirArrow">
                        <path fill="none" stroke="white" stroke-width="1.5" d="M0,-3.0v7 M-2.5,-0.5L0,-3.0L2.5,-0.5"/>
                </g>
               <g id="resetDef">
                       <use xlink:href="#rim2" fill="#404040">
                               <set attributeName="fill" to="#808080" begin="reset.mouseover" end="reset.mouseout"/>
                       </use>
               </g>
        </defs>

<script type="text/javascript">
var viewWidth = 446;
var viewHeight = 458;
var sectionId = 'dynsection-12';
</script>
<script xlink:href="svgpan.js"/>
<svg id="graph" class="graph">
<g id="viewport">
<title>CoolBoard::update</title>
<polygon fill="white" stroke="none" points="-4,4 -4,-453.5 442,-453.5 442,4 -4,4"/>
<!-- Node151 -->
<g id="node1" class="node"><title>Node151</title>
<polygon fill="#bfbfbf" stroke="black" points="0,-221 0,-240 98,-240 98,-221 0,-221"/>
<text text-anchor="middle" x="49" y="-228" font-family="Helvetica,sans-Serif" font-size="10.00">CoolBoard::update</text>
</g>
<!-- Node152 -->
<g id="node2" class="node"><title>Node152</title>
<g id="a_node2"><a xlink:href="classCoolMQTT.html#ac9248808641ebf3054ed0620ea9d0100" target="_top" xlink:title="CoolMQTT::begin">
<polygon fill="white" stroke="black" points="162,-430 162,-449 256,-449 256,-430 162,-430"/>
<text text-anchor="middle" x="209" y="-437" font-family="Helvetica,sans-Serif" font-size="10.00">CoolMQTT::begin</text>
</a>
</g>
</g>
<!-- Node151&#45;&gt;Node152 -->
<g id="edge1" class="edge"><title>Node151&#45;&gt;Node152</title>
<path fill="none" stroke="midnightblue" d="M51.2861,-240.135C55.9797,-271.358 75.1143,-370.606 134,-420.5 139.303,-424.994 145.537,-428.444 152.097,-431.089"/>
<polygon fill="midnightblue" stroke="midnightblue" points="151.277,-434.507 161.871,-434.417 153.533,-427.881 151.277,-434.507"/>
</g>
<!-- Node154 -->
<g id="node4" class="node"><title>Node154</title>
<g id="a_node4"><a xlink:href="classCoolBoardLed.html#a1b60e5e30bea96c49ed62ed1bf1ffc8b" target="_top" xlink:title="CoolBoardLed::config">
<polygon fill="white" stroke="black" points="154,-392 154,-411 264,-411 264,-392 154,-392"/>
<text text-anchor="middle" x="209" y="-399" font-family="Helvetica,sans-Serif" font-size="10.00">CoolBoardLed::config</text>
</a>
</g>
</g>
<!-- Node151&#45;&gt;Node154 -->
<g id="edge3" class="edge"><title>Node151&#45;&gt;Node154</title>
<path fill="none" stroke="midnightblue" d="M52.4153,-240.089C59.7141,-267.028 84.1663,-343.933 134,-382.5 137.212,-384.986 140.715,-387.149 144.393,-389.031"/>
<polygon fill="midnightblue" stroke="midnightblue" points="143.265,-392.358 153.83,-393.154 146.067,-385.943 143.265,-392.358"/>
</g>
<!-- Node155 -->
<g id="node5" class="node"><title>Node155</title>
<g id="a_node5"><a xlink:href="classJetpack.html#ab065ee83e244265a2223a22f3ee4a719" target="_top" xlink:title="Jetpack::config">
<polygon fill="white" stroke="black" points="167.5,-354 167.5,-373 250.5,-373 250.5,-354 167.5,-354"/>
<text text-anchor="middle" x="209" y="-361" font-family="Helvetica,sans-Serif" font-size="10.00">Jetpack::config</text>
</a>
</g>
</g>
<!-- Node151&#45;&gt;Node155 -->
<g id="edge4" class="edge"><title>Node151&#45;&gt;Node155</title>
<path fill="none" stroke="midnightblue" d="M54.2935,-240.198C64.6154,-262.347 93.0375,-316.862 134,-344.5 141.113,-349.299 149.356,-352.886 157.704,-355.567"/>
<polygon fill="midnightblue" stroke="midnightblue" points="156.916,-358.981 167.49,-358.316 158.809,-352.242 156.916,-358.981"/>
</g>
<!-- Node156 -->
<g id="node6" class="node"><title>Node156</title>
<g id="a_node6"><a xlink:href="classExternalSensors.html#a862a4bd11346b37270d0244c2adabe5a" target="_top" xlink:title="ExternalSensors::config">
<polygon fill="white" stroke="black" points="148.5,-316 148.5,-335 269.5,-335 269.5,-316 148.5,-316"/>
<text text-anchor="middle" x="209" y="-323" font-family="Helvetica,sans-Serif" font-size="10.00">ExternalSensors::config</text>
</a>
</g>
</g>
<!-- Node151&#45;&gt;Node156 -->
<g id="edge5" class="edge"><title>Node151&#45;&gt;Node156</title>
<path fill="none" stroke="midnightblue" d="M57.739,-240.032C71.399,-256.21 101.437,-288.989 134,-306.5 138.231,-308.775 142.746,-310.787 147.38,-312.564"/>
<polygon fill="midnightblue" stroke="midnightblue" points="146.412,-315.933 157.006,-315.892 148.699,-309.317 146.412,-315.933"/>
</g>
<!-- Node157 -->
<g id="node7" class="node"><title>Node157</title>
<g id="a_node7"><a xlink:href="classCoolMQTT.html#a9b703de4f1358f0ee7a5e8c44979c648" target="_top" xlink:title="CoolMQTT::config">
<polygon fill="white" stroke="black" points="160.5,-278 160.5,-297 257.5,-297 257.5,-278 160.5,-278"/>
<text text-anchor="middle" x="209" y="-285" font-family="Helvetica,sans-Serif" font-size="10.00">CoolMQTT::config</text>
</a>
</g>
</g>
<!-- Node151&#45;&gt;Node157 -->
<g id="edge6" class="edge"><title>Node151&#45;&gt;Node157</title>
<path fill="none" stroke="midnightblue" d="M68.6319,-240.06C85.405,-248.391 110.897,-260.377 134,-268.5 141.047,-270.978 148.576,-273.285 156.032,-275.377"/>
<polygon fill="midnightblue" stroke="midnightblue" points="155.18,-278.772 165.746,-277.998 157.004,-272.013 155.18,-278.772"/>
</g>
<!-- Node158 -->
<g id="node8" class="node"><title>Node158</title>
<g id="a_node8"><a xlink:href="classCoolTime.html#a87c28260c1bc77091162cbcf1ee2e129" target="_top" xlink:title="CoolTime::config">
<polygon fill="white" stroke="black" points="163.5,-240 163.5,-259 254.5,-259 254.5,-240 163.5,-240"/>
<text text-anchor="middle" x="209" y="-247" font-family="Helvetica,sans-Serif" font-size="10.00">CoolTime::config</text>
</a>
</g>
</g>
<!-- Node151&#45;&gt;Node158 -->
<g id="edge7" class="edge"><title>Node151&#45;&gt;Node158</title>
<path fill="none" stroke="midnightblue" d="M98.2637,-236.304C115.641,-238.394 135.37,-240.766 153.26,-242.917"/>
<polygon fill="midnightblue" stroke="midnightblue" points="152.918,-246.401 163.265,-244.12 153.754,-239.451 152.918,-246.401"/>
</g>
<!-- Node159 -->
<g id="node9" class="node"><title>Node159</title>
<g id="a_node9"><a xlink:href="classCoolBoard.html#a583a874c09c07e70a6eb9229fc4beddb" target="_top" xlink:title="CoolBoard::config">
<polygon fill="white" stroke="black" points="161.5,-202 161.5,-221 256.5,-221 256.5,-202 161.5,-202"/>
<text text-anchor="middle" x="209" y="-209" font-family="Helvetica,sans-Serif" font-size="10.00">CoolBoard::config</text>
</a>
</g>
</g>
<!-- Node151&#45;&gt;Node159 -->
<g id="edge8" class="edge"><title>Node151&#45;&gt;Node159</title>
<path fill="none" stroke="midnightblue" d="M98.2637,-224.696C115.029,-222.68 133.983,-220.401 151.363,-218.311"/>
<polygon fill="midnightblue" stroke="midnightblue" points="151.876,-221.774 161.386,-217.105 151.04,-214.825 151.876,-221.774"/>
</g>
<!-- Node161 -->
<g id="node11" class="node"><title>Node161</title>
<g id="a_node11"><a xlink:href="classIrene3000.html#afed5c35e4b23963c157847ef27c11e9c" target="_top" xlink:title="Irene3000::config">
<polygon fill="white" stroke="black" points="163,-164 163,-183 255,-183 255,-164 163,-164"/>
<text text-anchor="middle" x="209" y="-171" font-family="Helvetica,sans-Serif" font-size="10.00">Irene3000::config</text>
</a>
</g>
</g>
<!-- Node151&#45;&gt;Node161 -->
<g id="edge10" class="edge"><title>Node151&#45;&gt;Node161</title>
<path fill="none" stroke="midnightblue" d="M68.6319,-220.94C85.405,-212.609 110.897,-200.623 134,-192.5 141.047,-190.022 148.576,-187.715 156.032,-185.623"/>
<polygon fill="midnightblue" stroke="midnightblue" points="157.004,-188.987 165.746,-183.002 155.18,-182.228 157.004,-188.987"/>
</g>
<!-- Node163 -->
<g id="node13" class="node"><title>Node163</title>
<g id="a_node13"><a xlink:href="classCoolBoardSensors.html#a9a218895c5423375c33c08f2c56fb23a" target="_top" xlink:title="CoolBoardSensors::config">
<polygon fill="white" stroke="black" points="143.5,-126 143.5,-145 274.5,-145 274.5,-126 143.5,-126"/>
<text text-anchor="middle" x="209" y="-133" font-family="Helvetica,sans-Serif" font-size="10.00">CoolBoardSensors::config</text>
</a>
</g>
</g>
<!-- Node151&#45;&gt;Node163 -->
<g id="edge12" class="edge"><title>Node151&#45;&gt;Node163</title>
<path fill="none" stroke="midnightblue" d="M57.739,-220.968C71.399,-204.79 101.437,-172.011 134,-154.5 138.231,-152.225 142.746,-150.213 147.38,-148.436"/>
<polygon fill="midnightblue" stroke="midnightblue" points="148.699,-151.683 157.006,-145.108 146.412,-145.067 148.699,-151.683"/>
</g>
<!-- Node164 -->
<g id="node14" class="node"><title>Node164</title>
<g id="a_node14"><a xlink:href="classCoolMQTT.html#aa5eaae967b562b62cbcf2b8d81f6e5d5" target="_top" xlink:title="CoolMQTT::mqttLoop">
<polygon fill="white" stroke="black" points="153.5,-88 153.5,-107 264.5,-107 264.5,-88 153.5,-88"/>
<text text-anchor="middle" x="209" y="-95" font-family="Helvetica,sans-Serif" font-size="10.00">CoolMQTT::mqttLoop</text>
</a>
</g>
</g>
<!-- Node151&#45;&gt;Node164 -->
<g id="edge13" class="edge"><title>Node151&#45;&gt;Node164</title>
<path fill="none" stroke="midnightblue" d="M54.2935,-220.802C64.6154,-198.653 93.0375,-144.138 134,-116.5 137.096,-114.411 140.406,-112.552 143.846,-110.897"/>
<polygon fill="midnightblue" stroke="midnightblue" points="145.326,-114.072 153.195,-106.977 142.619,-107.616 145.326,-114.072"/>
</g>
<!-- Node165 -->
<g id="node15" class="node"><title>Node165</title>
<g id="a_node15"><a xlink:href="classCoolMQTT.html#ace977b3e90ab14b1199fe5c4fb0a13ec" target="_top" xlink:title="CoolMQTT::publish">
<polygon fill="white" stroke="black" points="158.5,-50 158.5,-69 259.5,-69 259.5,-50 158.5,-50"/>
<text text-anchor="middle" x="209" y="-57" font-family="Helvetica,sans-Serif" font-size="10.00">CoolMQTT::publish</text>
</a>
</g>
</g>
<!-- Node151&#45;&gt;Node165 -->
<g id="edge14" class="edge"><title>Node151&#45;&gt;Node165</title>
<path fill="none" stroke="midnightblue" d="M52.4153,-220.911C59.7141,-193.972 84.1663,-117.067 134,-78.5 138.458,-75.0499 143.475,-72.2216 148.744,-69.9038"/>
<polygon fill="midnightblue" stroke="midnightblue" points="150.303,-73.0566 158.43,-66.2592 147.838,-66.505 150.303,-73.0566"/>
</g>
<!-- Node166 -->
<g id="node16" class="node"><title>Node166</title>
<g id="a_node16"><a xlink:href="classCoolFileSystem.html#a32dad79ae80182a83e2e8f52286b7c7b" target="_top" xlink:title="CoolFileSystem::updateConfig\lFiles">
<polygon fill="white" stroke="black" points="134,-0.5 134,-30.5 284,-30.5 284,-0.5 134,-0.5"/>
<text text-anchor="start" x="142" y="-18.5" font-family="Helvetica,sans-Serif" font-size="10.00">CoolFileSystem::updateConfig</text>
<text text-anchor="middle" x="209" y="-7.5" font-family="Helvetica,sans-Serif" font-size="10.00">Files</text>
</a>
</g>
</g>
<!-- Node151&#45;&gt;Node166 -->
<g id="edge15" class="edge"><title>Node151&#45;&gt;Node166</title>
<path fill="none" stroke="midnightblue" d="M51.5127,-220.604C56.7941,-189.437 77.2788,-92.3085 134,-40.5 135.708,-38.9396 137.518,-37.4761 139.407,-36.1036"/>
<polygon fill="midnightblue" stroke="midnightblue" points="141.511,-38.9163 148.138,-30.6498 137.802,-32.9794 141.511,-38.9163"/>
</g>
<!-- Node153 -->
<g id="node3" class="node"><title>Node153</title>
<g id="a_node3"><a xlink:href="classCoolMQTT.html#a30d82ad665bfb603f46ecdbc290775df" target="_top" xlink:title="CoolMQTT::callback">
<polygon fill="white" stroke="black" points="325.5,-430 325.5,-449 432.5,-449 432.5,-430 325.5,-430"/>
<text text-anchor="middle" x="379" y="-437" font-family="Helvetica,sans-Serif" font-size="10.00">CoolMQTT::callback</text>
</a>
</g>
</g>
<!-- Node152&#45;&gt;Node153 -->
<g id="edge2" class="edge"><title>Node152&#45;&gt;Node153</title>
<path fill="none" stroke="midnightblue" d="M256.351,-439.5C274.547,-439.5 295.714,-439.5 315.242,-439.5"/>
<polygon fill="midnightblue" stroke="midnightblue" points="315.28,-443 325.28,-439.5 315.279,-436 315.28,-443"/>
</g>
<!-- Node160 -->
<g id="node10" class="node"><title>Node160</title>
<g id="a_node10"><a xlink:href="classCoolFileSystem.html#a6ba6f666ed4c530174f8569d2c636748" target="_top" xlink:title="CoolFileSystem::begin">
<polygon fill="white" stroke="black" points="321,-202 321,-221 437,-221 437,-202 321,-202"/>
<text text-anchor="middle" x="379" y="-209" font-family="Helvetica,sans-Serif" font-size="10.00">CoolFileSystem::begin</text>
</a>
</g>
</g>
<!-- Node159&#45;&gt;Node160 -->
<g id="edge9" class="edge"><title>Node159&#45;&gt;Node160</title>
<path fill="none" stroke="midnightblue" d="M256.797,-211.5C273.513,-211.5 292.692,-211.5 310.787,-211.5"/>
<polygon fill="midnightblue" stroke="midnightblue" points="310.997,-215 320.997,-211.5 310.996,-208 310.997,-215"/>
</g>
<!-- Node162 -->
<g id="node12" class="node"><title>Node162</title>
<g id="a_node12"><a xlink:href="classIrene3000.html#abcad62d1201a59f8dd3ba87048002728" target="_top" xlink:title="Irene3000::gainConvert">
<polygon fill="white" stroke="black" points="320,-164 320,-183 438,-183 438,-164 320,-164"/>
<text text-anchor="middle" x="379" y="-171" font-family="Helvetica,sans-Serif" font-size="10.00">Irene3000::gainConvert</text>
</a>
</g>
</g>
<!-- Node161&#45;&gt;Node162 -->
<g id="edge11" class="edge"><title>Node161&#45;&gt;Node162</title>
<path fill="none" stroke="midnightblue" d="M255.021,-173.5C271.833,-173.5 291.321,-173.5 309.758,-173.5"/>
<polygon fill="midnightblue" stroke="midnightblue" points="309.87,-177 319.87,-173.5 309.87,-170 309.87,-177"/>
</g>
</g>
</svg>
        <g id="navigator" transform="translate(0 0)" fill="#404254">
                <rect fill="#f2f5e9" fill-opacity="0.5" stroke="#606060" stroke-width=".5" x="0" y="0" width="60" height="60"/>
                <use id="zoomplus" xlink:href="#zoomPlus" x="17" y="9" onmousedown="handleZoom(evt,'in')"/>
                <use id="zoomminus" xlink:href="#zoomMin" x="42" y="9" onmousedown="handleZoom(evt,'out')"/>
                <use id="reset" xlink:href="#resetDef" x="30" y="36" onmousedown="handleReset()"/>
                <g id="arrowUp" xlink:href="#dirArrow" transform="translate(30 24)" onmousedown="handlePan(0,-1)">
                  <use xlink:href="#rim" fill="#404040">
                        <set attributeName="fill" to="#808080" begin="arrowUp.mouseover" end="arrowUp.mouseout"/>
                  </use>
                  <path fill="none" stroke="white" stroke-width="1.5" d="M0,-3.0v7 M-2.5,-0.5L0,-3.0L2.5,-0.5"/>
                </g>
                <g id="arrowRight" xlink:href="#dirArrow" transform="rotate(90) translate(36 -43)" onmousedown="handlePan(1,0)">
                  <use xlink:href="#rim" fill="#404040">
                        <set attributeName="fill" to="#808080" begin="arrowRight.mouseover" end="arrowRight.mouseout"/>
                  </use>
                  <path fill="none" stroke="white" stroke-width="1.5" d="M0,-3.0v7 M-2.5,-0.5L0,-3.0L2.5,-0.5"/>
                </g>
                <g id="arrowDown" xlink:href="#dirArrow" transform="rotate(180) translate(-30 -48)" onmousedown="handlePan(0,1)">
                  <use xlink:href="#rim" fill="#404040">
                        <set attributeName="fill" to="#808080" begin="arrowDown.mouseover" end="arrowDown.mouseout"/>
                  </use>
                  <path fill="none" stroke="white" stroke-width="1.5" d="M0,-3.0v7 M-2.5,-0.5L0,-3.0L2.5,-0.5"/>
                </g>
                <g id="arrowLeft" xlink:href="#dirArrow" transform="rotate(270) translate(-36 17)" onmousedown="handlePan(-1,0)">
                  <use xlink:href="#rim" fill="#404040">
                        <set attributeName="fill" to="#808080" begin="arrowLeft.mouseover" end="arrowLeft.mouseout"/>
                  </use>
                  <path fill="none" stroke="white" stroke-width="1.5" d="M0,-3.0v7 M-2.5,-0.5L0,-3.0L2.5,-0.5"/>
                </g>
        </g>
        <svg viewBox="0 0 15 15" width="100%" height="30px" preserveAspectRatio="xMaxYMin meet">
         <g id="arrow_out" transform="scale(0.3 0.3)">
          <a xlink:href="classCoolBoard_a8612756d3f73198cdde857a66f0fe690_cgraph_org.svg" target="_base">
           <rect id="button" ry="5" rx="5" y="6" x="6" height="38" width="38"
                fill="#f2f5e9" fill-opacity="0.5" stroke="#606060" stroke-width="1.0"/>
           <path id="arrow"
             d="M 11.500037,31.436501 C 11.940474,20.09759 22.043105,11.32322 32.158766,21.979434 L 37.068811,17.246167 C 37.068811,17.246167 37.088388,32 37.088388,32 L 22.160133,31.978069 C 22.160133,31.978069 26.997745,27.140456 26.997745,27.140456 C 18.528582,18.264221 13.291696,25.230495 11.500037,31.436501 z"
             style="fill:#404040;"/>
          </a>
         </g>
        </svg>
</svg>
