<?xml version="1.0" encoding="UTF-8" standalone="no"?>
<!DOCTYPE svg PUBLIC "-//W3C//DTD SVG 1.1//EN"
 "http://www.w3.org/Graphics/SVG/1.1/DTD/svg11.dtd">
<!-- Generated by graphviz version 2.38.0 (20140413.2041)
 -->
<!-- Title: CoolBoard::readSensors Pages: 1 -->
<svg width="622pt" height="218pt"
 viewBox="0.00 0.00 622.00 218.00" xmlns="http://www.w3.org/2000/svg" xmlns:xlink="http://www.w3.org/1999/xlink">
<g id="graph0" class="graph" transform="scale(1 1) rotate(0) translate(4 214)">
<title>CoolBoard::readSensors</title>
<polygon fill="white" stroke="none" points="-4,4 -4,-214 618,-214 618,4 -4,4"/>
<!-- Node116 -->
<g id="node1" class="node"><title>Node116</title>
<polygon fill="#bfbfbf" stroke="black" points="0,-123.5 0,-142.5 123,-142.5 123,-123.5 0,-123.5"/>
<text text-anchor="middle" x="61.5" y="-130.5" font-family="Helvetica,sans-Serif" font-size="10.00">CoolBoard::readSensors</text>
</g>
<!-- Node117 -->
<g id="node2" class="node"><title>Node117</title>
<g id="a_node2"><a xlink:href="classExternalSensors.html#a53177b81eca3be89508b5511ddcd00fc" target="_top" xlink:title="ExternalSensors::read">
<polygon fill="white" stroke="black" points="164,-161.5 164,-180.5 277,-180.5 277,-161.5 164,-161.5"/>
<text text-anchor="middle" x="220.5" y="-168.5" font-family="Helvetica,sans-Serif" font-size="10.00">ExternalSensors::read</text>
</a>
</g>
</g>
<!-- Node116&#45;&gt;Node117 -->
<g id="edge1" class="edge"><title>Node116&#45;&gt;Node117</title>
<path fill="none" stroke="midnightblue" d="M102.118,-142.589C122.836,-147.604 148.388,-153.788 170.356,-159.105"/>
<polygon fill="midnightblue" stroke="midnightblue" points="169.624,-162.529 180.167,-161.48 171.271,-155.726 169.624,-162.529"/>
</g>
<!-- Node118 -->
<g id="node3" class="node"><title>Node118</title>
<g id="a_node3"><a xlink:href="classCoolBoardSensors.html#a91badb2539d91fda8679f2a597874c48" target="_top" xlink:title="CoolBoardSensors::read">
<polygon fill="white" stroke="black" points="159,-123.5 159,-142.5 282,-142.5 282,-123.5 159,-123.5"/>
<text text-anchor="middle" x="220.5" y="-130.5" font-family="Helvetica,sans-Serif" font-size="10.00">CoolBoardSensors::read</text>
</a>
</g>
</g>
<!-- Node116&#45;&gt;Node118 -->
<g id="edge2" class="edge"><title>Node116&#45;&gt;Node118</title>
<path fill="none" stroke="midnightblue" d="M123.2,-133C131.635,-133 140.359,-133 148.955,-133"/>
<polygon fill="midnightblue" stroke="midnightblue" points="148.961,-136.5 158.961,-133 148.961,-129.5 148.961,-136.5"/>
</g>
<!-- Node122 -->
<g id="node7" class="node"><title>Node122</title>
<g id="a_node7"><a xlink:href="classIrene3000.html#a852a170feea994ea1df01c6b245b5d9a" target="_top" xlink:title="Irene3000::read">
<polygon fill="white" stroke="black" points="178.5,-66.5 178.5,-85.5 262.5,-85.5 262.5,-66.5 178.5,-66.5"/>
<text text-anchor="middle" x="220.5" y="-73.5" font-family="Helvetica,sans-Serif" font-size="10.00">Irene3000::read</text>
</a>
</g>
</g>
<!-- Node116&#45;&gt;Node122 -->
<g id="edge6" class="edge"><title>Node116&#45;&gt;Node122</title>
<path fill="none" stroke="midnightblue" d="M88.7783,-123.459C114.703,-114.047 154.535,-99.5862 183.417,-89.1001"/>
<polygon fill="midnightblue" stroke="midnightblue" points="184.931,-92.2742 193.136,-85.5716 182.542,-85.6944 184.931,-92.2742"/>
</g>
<!-- Node119 -->
<g id="node4" class="node"><title>Node119</title>
<g id="a_node4"><a xlink:href="classCoolBoardSensors.html#acad6a8418c66d36868caca23c844ecb6" target="_top" xlink:title="CoolBoardSensors::initReadI2C">
<polygon fill="white" stroke="black" points="320.5,-190.5 320.5,-209.5 476.5,-209.5 476.5,-190.5 320.5,-190.5"/>
<text text-anchor="middle" x="398.5" y="-197.5" font-family="Helvetica,sans-Serif" font-size="10.00">CoolBoardSensors::initReadI2C</text>
</a>
</g>
</g>
<!-- Node118&#45;&gt;Node119 -->
<g id="edge3" class="edge"><title>Node118&#45;&gt;Node119</title>
<path fill="none" stroke="midnightblue" d="M259.503,-142.542C267.167,-145.122 275.011,-148.261 282,-152 300.116,-161.691 299.557,-171.946 318,-181 322.936,-183.423 328.2,-185.548 333.578,-187.41"/>
<polygon fill="midnightblue" stroke="midnightblue" points="332.748,-190.818 343.337,-190.483 334.851,-184.141 332.748,-190.818"/>
</g>
<!-- Node120 -->
<g id="node5" class="node"><title>Node120</title>
<g id="a_node5"><a xlink:href="classCoolBoardSensors.html#a6944b6ea7bce8e2fce1b434acfd9d5f3" target="_top" xlink:title="CoolBoardSensors::readVBat">
<polygon fill="white" stroke="black" points="326,-152.5 326,-171.5 471,-171.5 471,-152.5 326,-152.5"/>
<text text-anchor="middle" x="398.5" y="-159.5" font-family="Helvetica,sans-Serif" font-size="10.00">CoolBoardSensors::readVBat</text>
</a>
</g>
</g>
<!-- Node118&#45;&gt;Node120 -->
<g id="edge4" class="edge"><title>Node118&#45;&gt;Node120</title>
<path fill="none" stroke="midnightblue" d="M279.617,-142.576C295.62,-145.213 313.119,-148.096 329.621,-150.815"/>
<polygon fill="midnightblue" stroke="midnightblue" points="329.308,-154.311 339.744,-152.483 330.447,-147.404 329.308,-154.311"/>
</g>
<!-- Node121 -->
<g id="node6" class="node"><title>Node121</title>
<g id="a_node6"><a xlink:href="classCoolBoardSensors.html#a8761bff50373c485f4465c8db47d0633" target="_top" xlink:title="CoolBoardSensors::readMoisture">
<polygon fill="white" stroke="black" points="318,-114.5 318,-133.5 479,-133.5 479,-114.5 318,-114.5"/>
<text text-anchor="middle" x="398.5" y="-121.5" font-family="Helvetica,sans-Serif" font-size="10.00">CoolBoardSensors::readMoisture</text>
</a>
</g>
</g>
<!-- Node118&#45;&gt;Node121 -->
<g id="edge5" class="edge"><title>Node118&#45;&gt;Node121</title>
<path fill="none" stroke="midnightblue" d="M282.069,-129.903C290.36,-129.479 299.011,-129.036 307.686,-128.593"/>
<polygon fill="midnightblue" stroke="midnightblue" points="308.051,-132.079 317.86,-128.073 307.694,-125.088 308.051,-132.079"/>
</g>
<!-- Node123 -->
<g id="node8" class="node"><title>Node123</title>
<g id="a_node8"><a xlink:href="classIrene3000.html#a94ad40f281d83ad1be20bf1edd6fe802" target="_top" xlink:title="Irene3000::readTemp">
<polygon fill="white" stroke="black" points="344,-76.5 344,-95.5 453,-95.5 453,-76.5 344,-76.5"/>
<text text-anchor="middle" x="398.5" y="-83.5" font-family="Helvetica,sans-Serif" font-size="10.00">Irene3000::readTemp</text>
</a>
</g>
</g>
<!-- Node122&#45;&gt;Node123 -->
<g id="edge7" class="edge"><title>Node122&#45;&gt;Node123</title>
<path fill="none" stroke="midnightblue" d="M262.764,-78.3446C283.828,-79.5414 309.925,-81.0242 333.526,-82.3651"/>
<polygon fill="midnightblue" stroke="midnightblue" points="333.632,-85.8767 343.815,-82.9497 334.029,-78.888 333.632,-85.8767"/>
</g>
<!-- Node125 -->
<g id="node10" class="node"><title>Node125</title>
<g id="a_node10"><a xlink:href="classIrene3000.html#abf3db725fabb0634ec889b32068a5eec" target="_top" xlink:title="Irene3000::readPh">
<polygon fill="white" stroke="black" points="350.5,-38.5 350.5,-57.5 446.5,-57.5 446.5,-38.5 350.5,-38.5"/>
<text text-anchor="middle" x="398.5" y="-45.5" font-family="Helvetica,sans-Serif" font-size="10.00">Irene3000::readPh</text>
</a>
</g>
</g>
<!-- Node122&#45;&gt;Node125 -->
<g id="edge9" class="edge"><title>Node122&#45;&gt;Node125</title>
<path fill="none" stroke="midnightblue" d="M262.764,-69.4352C285.803,-65.7699 314.863,-61.1468 340.092,-57.1331"/>
<polygon fill="midnightblue" stroke="midnightblue" points="340.95,-60.5407 350.276,-55.513 339.85,-53.6277 340.95,-60.5407"/>
</g>
<!-- Node126 -->
<g id="node11" class="node"><title>Node126</title>
<g id="a_node11"><a xlink:href="classIrene3000.html#ae73bd2ed14a199a7e83f4d6458476a7c" target="_top" xlink:title="Irene3000::readADSChannel2">
<polygon fill="white" stroke="black" points="325.5,-0.5 325.5,-19.5 471.5,-19.5 471.5,-0.5 325.5,-0.5"/>
<text text-anchor="middle" x="398.5" y="-7.5" font-family="Helvetica,sans-Serif" font-size="10.00">Irene3000::readADSChannel2</text>
</a>
</g>
</g>
<!-- Node122&#45;&gt;Node126 -->
<g id="edge11" class="edge"><title>Node122&#45;&gt;Node126</title>
<path fill="none" stroke="midnightblue" d="M238.439,-66.3356C257.332,-55.8952 289.053,-39.3673 318,-29 325.06,-26.4716 332.593,-24.1774 340.102,-22.1285"/>
<polygon fill="midnightblue" stroke="midnightblue" points="341.121,-25.4801 349.919,-19.5772 339.36,-18.7051 341.121,-25.4801"/>
</g>
<!-- Node124 -->
<g id="node9" class="node"><title>Node124</title>
<g id="a_node9"><a xlink:href="classIrene3000.html#aff7c5da186b388e7272e63ff88a20c34" target="_top" xlink:title="Irene3000::setGain">
<polygon fill="white" stroke="black" points="515,-38.5 515,-57.5 614,-57.5 614,-38.5 515,-38.5"/>
<text text-anchor="middle" x="564.5" y="-45.5" font-family="Helvetica,sans-Serif" font-size="10.00">Irene3000::setGain</text>
</a>
</g>
</g>
<!-- Node123&#45;&gt;Node124 -->
<g id="edge8" class="edge"><title>Node123&#45;&gt;Node124</title>
<path fill="none" stroke="midnightblue" d="M440.884,-76.411C462.623,-71.3739 489.457,-65.1562 512.475,-59.8229"/>
<polygon fill="midnightblue" stroke="midnightblue" points="513.462,-63.1871 522.413,-57.5201 511.881,-56.3677 513.462,-63.1871"/>
</g>
<!-- Node125&#45;&gt;Node124 -->
<g id="edge10" class="edge"><title>Node125&#45;&gt;Node124</title>
<path fill="none" stroke="midnightblue" d="M446.936,-48C464.978,-48 485.753,-48 504.722,-48"/>
<polygon fill="midnightblue" stroke="midnightblue" points="504.747,-51.5001 514.747,-48 504.747,-44.5001 504.747,-51.5001"/>
</g>
<!-- Node126&#45;&gt;Node124 -->
<g id="edge12" class="edge"><title>Node126&#45;&gt;Node124</title>
<path fill="none" stroke="midnightblue" d="M440.884,-19.589C462.623,-24.6261 489.457,-30.8438 512.475,-36.1771"/>
<polygon fill="midnightblue" stroke="midnightblue" points="511.881,-39.6323 522.413,-38.4799 513.462,-32.8129 511.881,-39.6323"/>
</g>
</g>
</svg>
