<?xml version="1.0" encoding="UTF-8" standalone="no"?>
<!DOCTYPE svg PUBLIC "-//W3C//DTD SVG 1.1//EN"
 "http://www.w3.org/Graphics/SVG/1.1/DTD/svg11.dtd">
<!-- Generated by graphviz version 2.38.0 (20140413.2041)
 -->
<!-- Title: CoolBoard::onLineMode Pages: 1 -->
<!--zoomable 838 -->
<svg id="main" version="1.1" xmlns="http://www.w3.org/2000/svg" xmlns:xlink="http://www.w3.org/1999/xlink" xml:space="preserve" onload="init(evt)">
<style type="text/css"><![CDATA[
.edge:hover path { stroke: red; }
.edge:hover polygon { stroke: red; fill: red; }
]]></style>
<script type="text/javascript"><![CDATA[
var edges = document.getElementsByTagName('g');
if (edges && edges.length) {
  for (var i=0;i<edges.length;i++) {
    if (edges[i].id.substr(0,4)=='edge') {
      edges[i].setAttribute('class','edge');
    }
  }
}
]]></script>
        <defs>
                <circle id="rim" cx="0" cy="0" r="7"/>
                <circle id="rim2" cx="0" cy="0" r="3.5"/>
                <g id="zoomPlus">
                        <use xlink:href="#rim" fill="#404040">
                                <set attributeName="fill" to="#808080" begin="zoomplus.mouseover" end="zoomplus.mouseout"/>
                        </use>
                        <path d="M-4,0h8M0,-4v8" fill="none" stroke="white" stroke-width="1.5" pointer-events="none"/>
                </g>
                <g id="zoomMin">
                        <use xlink:href="#rim" fill="#404040">
                                <set attributeName="fill" to="#808080" begin="zoomminus.mouseover" end="zoomminus.mouseout"/>
                        </use>
                        <path d="M-4,0h8" fill="none" stroke="white" stroke-width="1.5" pointer-events="none"/>
                </g>
                <g id="dirArrow">
                        <path fill="none" stroke="white" stroke-width="1.5" d="M0,-3.0v7 M-2.5,-0.5L0,-3.0L2.5,-0.5"/>
                </g>
               <g id="resetDef">
                       <use xlink:href="#rim2" fill="#404040">
                               <set attributeName="fill" to="#808080" begin="reset.mouseover" end="reset.mouseout"/>
                       </use>
               </g>
        </defs>

<script type="text/javascript">
var viewWidth = 851;
var viewHeight = 838;
var sectionId = 'dynsection-9';
</script>
<script xlink:href="svgpan.js"/>
<svg id="graph" class="graph">
<g id="viewport">
<title>CoolBoard::onLineMode</title>
<polygon fill="white" stroke="none" points="-4,4 -4,-834 847,-834 847,4 -4,4"/>
<!-- Node125 -->
<g id="node1" class="node"><title>Node125</title>
<polygon fill="#bfbfbf" stroke="black" points="0,-494.5 0,-513.5 121,-513.5 121,-494.5 0,-494.5"/>
<text text-anchor="middle" x="60.5" y="-501.5" font-family="Helvetica,sans-Serif" font-size="10.00">CoolBoard::onLineMode</text>
</g>
<!-- Node126 -->
<g id="node2" class="node"><title>Node126</title>
<g id="a_node2"><a xlink:href="classCoolBoardLed.html#a96e1ea13003eee34c9dbcef340404426" target="_top" xlink:title="CoolBoardLed::blink">
<polygon fill="white" stroke="black" points="179.5,-810.5 179.5,-829.5 283.5,-829.5 283.5,-810.5 179.5,-810.5"/>
<text text-anchor="middle" x="231.5" y="-817.5" font-family="Helvetica,sans-Serif" font-size="10.00">CoolBoardLed::blink</text>
</a>
</g>
</g>
<!-- Node125&#45;&gt;Node126 -->
<g id="edge1" class="edge"><title>Node125&#45;&gt;Node126</title>
<path fill="none" stroke="midnightblue" d="M61.475,-513.678C61.9177,-555 69.3445,-718.298 157,-801 160.797,-804.583 165.179,-807.511 169.873,-809.903"/>
<polygon fill="midnightblue" stroke="midnightblue" points="168.643,-813.183 179.215,-813.871 171.379,-806.74 168.643,-813.183"/>
</g>
<!-- Node127 -->
<g id="node3" class="node"><title>Node127</title>
<g id="a_node3"><a xlink:href="classJetpack.html#a9e703197093094b963f9ad57817495b8" target="_top" xlink:title="Jetpack::doAction">
<polygon fill="white" stroke="black" points="184,-772.5 184,-791.5 279,-791.5 279,-772.5 184,-772.5"/>
<text text-anchor="middle" x="231.5" y="-779.5" font-family="Helvetica,sans-Serif" font-size="10.00">Jetpack::doAction</text>
</a>
</g>
</g>
<!-- Node125&#45;&gt;Node127 -->
<g id="edge2" class="edge"><title>Node125&#45;&gt;Node127</title>
<path fill="none" stroke="midnightblue" d="M61.9954,-513.729C64.4781,-551.831 78.8035,-692.278 157,-763 162.057,-767.574 168.072,-771.075 174.451,-773.75"/>
<polygon fill="midnightblue" stroke="midnightblue" points="173.393,-777.088 183.988,-777.107 175.718,-770.485 173.393,-777.088"/>
</g>
<!-- Node129 -->
<g id="node5" class="node"><title>Node129</title>
<g id="a_node5"><a xlink:href="classCoolBoardLed.html#af1cacbaa88db8bcf6042c1083ba41155" target="_top" xlink:title="CoolBoardLed::fade">
<polygon fill="white" stroke="black" points="180,-734.5 180,-753.5 283,-753.5 283,-734.5 180,-734.5"/>
<text text-anchor="middle" x="231.5" y="-741.5" font-family="Helvetica,sans-Serif" font-size="10.00">CoolBoardLed::fade</text>
</a>
</g>
</g>
<!-- Node125&#45;&gt;Node129 -->
<g id="edge4" class="edge"><title>Node125&#45;&gt;Node129</title>
<path fill="none" stroke="midnightblue" d="M62.9543,-513.822C68.4823,-547.666 91.3043,-660.606 157,-720 161.465,-724.037 166.621,-727.396 172.09,-730.191"/>
<polygon fill="midnightblue" stroke="midnightblue" points="170.96,-733.519 181.52,-734.382 173.803,-727.122 170.96,-733.519"/>
</g>
<!-- Node130 -->
<g id="node6" class="node"><title>Node130</title>
<g id="a_node6"><a xlink:href="classCoolBoardLed.html#ab778f5e7bed0ab74e3906d82110493c3" target="_top" xlink:title="CoolBoardLed::fadeIn">
<polygon fill="white" stroke="black" points="361.5,-380.5 361.5,-399.5 472.5,-399.5 472.5,-380.5 361.5,-380.5"/>
<text text-anchor="middle" x="417" y="-387.5" font-family="Helvetica,sans-Serif" font-size="10.00">CoolBoardLed::fadeIn</text>
</a>
</g>
</g>
<!-- Node125&#45;&gt;Node130 -->
<g id="edge5" class="edge"><title>Node125&#45;&gt;Node130</title>
<path fill="none" stroke="midnightblue" d="M66.0699,-494.499C77.5802,-471.82 110.221,-414.792 157,-393 223.441,-362.049 310.271,-369.295 364.593,-378.645"/>
<polygon fill="midnightblue" stroke="midnightblue" points="364.213,-382.133 374.676,-380.469 365.459,-375.245 364.213,-382.133"/>
</g>
<!-- Node131 -->
<g id="node7" class="node"><title>Node131</title>
<g id="a_node7"><a xlink:href="classCoolBoardLed.html#a93d545679237e8cc858324367149775c" target="_top" xlink:title="CoolBoardLed::fadeOut">
<polygon fill="white" stroke="black" points="357.5,-456.5 357.5,-475.5 476.5,-475.5 476.5,-456.5 357.5,-456.5"/>
<text text-anchor="middle" x="417" y="-463.5" font-family="Helvetica,sans-Serif" font-size="10.00">CoolBoardLed::fadeOut</text>
</a>
</g>
</g>
<!-- Node125&#45;&gt;Node131 -->
<g id="edge6" class="edge"><title>Node125&#45;&gt;Node131</title>
<path fill="none" stroke="midnightblue" d="M103.623,-494.457C120.185,-491.011 139.411,-487.386 157,-485 221.188,-476.294 294.906,-471.376 347.239,-468.736"/>
<polygon fill="midnightblue" stroke="midnightblue" points="347.594,-472.222 357.411,-468.237 347.252,-465.231 347.594,-472.222"/>
</g>
<!-- Node132 -->
<g id="node8" class="node"><title>Node132</title>
<g id="a_node8"><a xlink:href="classCoolBoard.html#a7508e029f2ee17bb747ffab599285e0d" target="_top" xlink:title="CoolBoard::getLogInterval">
<polygon fill="white" stroke="black" points="166.5,-620.5 166.5,-639.5 296.5,-639.5 296.5,-620.5 166.5,-620.5"/>
<text text-anchor="middle" x="231.5" y="-627.5" font-family="Helvetica,sans-Serif" font-size="10.00">CoolBoard::getLogInterval</text>
</a>
</g>
</g>
<!-- Node125&#45;&gt;Node132 -->
<g id="edge7" class="edge"><title>Node125&#45;&gt;Node132</title>
<path fill="none" stroke="midnightblue" d="M67.3031,-513.715C80.4536,-534.857 114.694,-585.205 157,-611 160.608,-613.2 164.465,-615.147 168.452,-616.87"/>
<polygon fill="midnightblue" stroke="midnightblue" points="167.346,-620.194 177.936,-620.496 169.846,-613.655 167.346,-620.194"/>
</g>
<!-- Node133 -->
<g id="node9" class="node"><title>Node133</title>
<g id="a_node9"><a xlink:href="classCoolFileSystem.html#a3223ffff4266a6300988fab956d6b4b2" target="_top" xlink:title="CoolFileSystem::getSensor\lSavedData">
<polygon fill="white" stroke="black" points="163,-571 163,-601 300,-601 300,-571 163,-571"/>
<text text-anchor="start" x="171" y="-589" font-family="Helvetica,sans-Serif" font-size="10.00">CoolFileSystem::getSensor</text>
<text text-anchor="middle" x="231.5" y="-578" font-family="Helvetica,sans-Serif" font-size="10.00">SavedData</text>
</a>
</g>
</g>
<!-- Node125&#45;&gt;Node133 -->
<g id="edge8" class="edge"><title>Node125&#45;&gt;Node133</title>
<path fill="none" stroke="midnightblue" d="M75.5449,-513.67C93.7256,-525.881 126.679,-546.984 157,-561 161.697,-563.171 166.638,-565.253 171.645,-567.224"/>
<polygon fill="midnightblue" stroke="midnightblue" points="170.714,-570.614 181.306,-570.872 173.187,-564.065 170.714,-570.614"/>
</g>
<!-- Node134 -->
<g id="node10" class="node"><title>Node134</title>
<g id="a_node10"><a xlink:href="classCoolFileSystem.html#a5a7eaeea7a9fbf8aaef651d862fa3b5b" target="_top" xlink:title="CoolFileSystem::isDataSaved">
<polygon fill="white" stroke="black" points="157,-532.5 157,-551.5 306,-551.5 306,-532.5 157,-532.5"/>
<text text-anchor="middle" x="231.5" y="-539.5" font-family="Helvetica,sans-Serif" font-size="10.00">CoolFileSystem::isDataSaved</text>
</a>
</g>
</g>
<!-- Node125&#45;&gt;Node134 -->
<g id="edge9" class="edge"><title>Node125&#45;&gt;Node134</title>
<path fill="none" stroke="midnightblue" d="M104.146,-513.589C126.648,-518.649 154.448,-524.9 178.238,-530.249"/>
<polygon fill="midnightblue" stroke="midnightblue" points="177.637,-533.701 188.161,-532.48 179.172,-526.871 177.637,-533.701"/>
</g>
<!-- Node135 -->
<g id="node11" class="node"><title>Node135</title>
<g id="a_node11"><a xlink:href="classCoolMQTT.html#aa5eaae967b562b62cbcf2b8d81f6e5d5" target="_top" xlink:title="CoolMQTT::mqttLoop">
<polygon fill="white" stroke="black" points="361.5,-696.5 361.5,-715.5 472.5,-715.5 472.5,-696.5 361.5,-696.5"/>
<text text-anchor="middle" x="417" y="-703.5" font-family="Helvetica,sans-Serif" font-size="10.00">CoolMQTT::mqttLoop</text>
</a>
</g>
</g>
<!-- Node125&#45;&gt;Node135 -->
<g id="edge10" class="edge"><title>Node125&#45;&gt;Node135</title>
<path fill="none" stroke="midnightblue" d="M63.7894,-513.598C71.3206,-542.874 98.2761,-631.44 157,-671 214.303,-709.602 295.072,-714.665 351.117,-712.431"/>
<polygon fill="midnightblue" stroke="midnightblue" points="351.465,-715.918 361.283,-711.935 351.124,-708.926 351.465,-715.918"/>
</g>
<!-- Node136 -->
<g id="node12" class="node"><title>Node136</title>
<g id="a_node12"><a xlink:href="classCoolMQTT.html#ace977b3e90ab14b1199fe5c4fb0a13ec" target="_top" xlink:title="CoolMQTT::publish">
<polygon fill="white" stroke="black" points="366.5,-601.5 366.5,-620.5 467.5,-620.5 467.5,-601.5 366.5,-601.5"/>
<text text-anchor="middle" x="417" y="-608.5" font-family="Helvetica,sans-Serif" font-size="10.00">CoolMQTT::publish</text>
</a>
</g>
</g>
<!-- Node125&#45;&gt;Node136 -->
<g id="edge11" class="edge"><title>Node125&#45;&gt;Node136</title>
<path fill="none" stroke="midnightblue" d="M64.3667,-513.846C72.9827,-541.383 101.539,-619.118 157,-649 233.517,-690.226 340.259,-648.646 389.36,-624.975"/>
<polygon fill="midnightblue" stroke="midnightblue" points="390.974,-628.082 398.385,-620.51 387.87,-621.807 390.974,-628.082"/>
</g>
<!-- Node137 -->
<g id="node13" class="node"><title>Node137</title>
<g id="a_node13"><a xlink:href="classCoolMQTT.html#ae3c18f6ae9723746d32765f1c8f176ca" target="_top" xlink:title="CoolMQTT::read">
<polygon fill="white" stroke="black" points="187,-418.5 187,-437.5 276,-437.5 276,-418.5 187,-418.5"/>
<text text-anchor="middle" x="231.5" y="-425.5" font-family="Helvetica,sans-Serif" font-size="10.00">CoolMQTT::read</text>
</a>
</g>
</g>
<!-- Node125&#45;&gt;Node137 -->
<g id="edge12" class="edge"><title>Node125&#45;&gt;Node137</title>
<path fill="none" stroke="midnightblue" d="M76.9415,-494.442C95.4678,-483.248 127.703,-464.633 157,-452 166.522,-447.894 176.99,-444.081 186.966,-440.757"/>
<polygon fill="midnightblue" stroke="midnightblue" points="188.285,-444.009 196.725,-437.604 186.133,-437.348 188.285,-444.009"/>
</g>
<!-- Node138 -->
<g id="node14" class="node"><title>Node138</title>
<g id="a_node14"><a xlink:href="classCoolBoard.html#ad03abdce2e65f520bbf2cff0f2d083cf" target="_top" xlink:title="CoolBoard::readSensors">
<polygon fill="white" stroke="black" points="170,-266.5 170,-285.5 293,-285.5 293,-266.5 170,-266.5"/>
<text text-anchor="middle" x="231.5" y="-273.5" font-family="Helvetica,sans-Serif" font-size="10.00">CoolBoard::readSensors</text>
</a>
</g>
</g>
<!-- Node125&#45;&gt;Node138 -->
<g id="edge13" class="edge"><title>Node125&#45;&gt;Node138</title>
<path fill="none" stroke="midnightblue" d="M62.9291,-494.341C68.3746,-461.088 90.9596,-350.352 157,-295 159.033,-293.296 161.2,-291.743 163.469,-290.327"/>
<polygon fill="midnightblue" stroke="midnightblue" points="165.413,-293.259 172.647,-285.518 162.164,-287.059 165.413,-293.259"/>
</g>
<!-- Node139 -->
<g id="node15" class="node"><title>Node139</title>
<g id="a_node15"><a xlink:href="classCoolBoardLed.html#ad5f0de4c628cbfbf49896042831c64ad" target="_top" xlink:title="CoolBoardLed::strobe">
<polygon fill="white" stroke="black" points="361.5,-418.5 361.5,-437.5 472.5,-437.5 472.5,-418.5 361.5,-418.5"/>
<text text-anchor="middle" x="417" y="-425.5" font-family="Helvetica,sans-Serif" font-size="10.00">CoolBoardLed::strobe</text>
</a>
</g>
</g>
<!-- Node125&#45;&gt;Node139 -->
<g id="edge32" class="edge"><title>Node125&#45;&gt;Node139</title>
<path fill="none" stroke="midnightblue" d="M67.3936,-494.3C80.4762,-473.833 114.197,-426.664 157,-409 218.215,-383.738 240.02,-403.344 306,-409 324.078,-410.55 343.646,-413.507 361.196,-416.636"/>
<polygon fill="midnightblue" stroke="midnightblue" points="360.801,-420.122 371.269,-418.488 362.067,-413.237 360.801,-420.122"/>
</g>
<!-- Node152 -->
<g id="node28" class="node"><title>Node152</title>
<g id="a_node28"><a xlink:href="classCoolBoard.html#a069952cdcb2e7f68518aa429eceadb6e" target="_top" xlink:title="CoolBoard::sleep">
<polygon fill="white" stroke="black" points="185.5,-304.5 185.5,-323.5 277.5,-323.5 277.5,-304.5 185.5,-304.5"/>
<text text-anchor="middle" x="231.5" y="-311.5" font-family="Helvetica,sans-Serif" font-size="10.00">CoolBoard::sleep</text>
</a>
</g>
</g>
<!-- Node125&#45;&gt;Node152 -->
<g id="edge31" class="edge"><title>Node125&#45;&gt;Node152</title>
<path fill="none" stroke="midnightblue" d="M64.3927,-494.111C73.2603,-465.524 102.804,-382.021 157,-338 162.659,-333.403 169.225,-329.677 176.059,-326.658"/>
<polygon fill="midnightblue" stroke="midnightblue" points="177.449,-329.873 185.483,-322.965 174.895,-323.355 177.449,-329.873"/>
</g>
<!-- Node153 -->
<g id="node29" class="node"><title>Node153</title>
<g id="a_node29"><a xlink:href="classCoolTime.html#aae601f795452cfa48d9fb337aed483a8" target="_top" xlink:title="CoolTime::update">
<polygon fill="white" stroke="black" points="184.5,-152.5 184.5,-171.5 278.5,-171.5 278.5,-152.5 184.5,-152.5"/>
<text text-anchor="middle" x="231.5" y="-159.5" font-family="Helvetica,sans-Serif" font-size="10.00">CoolTime::update</text>
</a>
</g>
</g>
<!-- Node125&#45;&gt;Node153 -->
<g id="edge33" class="edge"><title>Node125&#45;&gt;Node153</title>
<path fill="none" stroke="midnightblue" d="M64.1917,-494.128C73.7619,-459.871 108.199,-343.489 157,-257 173.618,-227.549 198.675,-197.289 214.812,-179.064"/>
<polygon fill="midnightblue" stroke="midnightblue" points="217.454,-181.359 221.536,-171.582 212.248,-176.68 217.454,-181.359"/>
</g>
<!-- Node159 -->
<g id="node35" class="node"><title>Node159</title>
<g id="a_node35"><a xlink:href="classCoolBoard.html#a8612756d3f73198cdde857a66f0fe690" target="_top" xlink:title="CoolBoard::update">
<polygon fill="white" stroke="black" points="182.5,-494.5 182.5,-513.5 280.5,-513.5 280.5,-494.5 182.5,-494.5"/>
<text text-anchor="middle" x="231.5" y="-501.5" font-family="Helvetica,sans-Serif" font-size="10.00">CoolBoard::update</text>
</a>
</g>
</g>
<!-- Node125&#45;&gt;Node159 -->
<g id="edge39" class="edge"><title>Node125&#45;&gt;Node159</title>
<path fill="none" stroke="midnightblue" d="M121.083,-504C137.688,-504 155.703,-504 172.232,-504"/>
<polygon fill="midnightblue" stroke="midnightblue" points="172.306,-507.5 182.305,-504 172.305,-500.5 172.306,-507.5"/>
</g>
<!-- Node162 -->
<g id="node38" class="node"><title>Node162</title>
<g id="a_node38"><a xlink:href="classCoolBoard.html#ae7358fb6e623cfc81b775f5f1734909b" target="_top" xlink:title="CoolBoard::userData">
<polygon fill="white" stroke="black" points="177.5,-38.5 177.5,-57.5 285.5,-57.5 285.5,-38.5 177.5,-38.5"/>
<text text-anchor="middle" x="231.5" y="-45.5" font-family="Helvetica,sans-Serif" font-size="10.00">CoolBoard::userData</text>
</a>
</g>
</g>
<!-- Node125&#45;&gt;Node162 -->
<g id="edge47" class="edge"><title>Node125&#45;&gt;Node162</title>
<path fill="none" stroke="midnightblue" d="M62.6256,-494.305C67.9239,-451.147 92.8625,-272.926 157,-143 171.889,-112.839 197.194,-82.9718 213.879,-65.0011"/>
<polygon fill="midnightblue" stroke="midnightblue" points="216.532,-67.2894 220.87,-57.6232 211.451,-62.4746 216.532,-67.2894"/>
</g>
<!-- Node128 -->
<g id="node4" class="node"><title>Node128</title>
<g id="a_node4"><a xlink:href="classJetpack.html#a338f1af8cbc6504ac69b47c7328569b5" target="_top" xlink:title="Jetpack::write">
<polygon fill="white" stroke="black" points="378,-772.5 378,-791.5 456,-791.5 456,-772.5 378,-772.5"/>
<text text-anchor="middle" x="417" y="-779.5" font-family="Helvetica,sans-Serif" font-size="10.00">Jetpack::write</text>
</a>
</g>
</g>
<!-- Node127&#45;&gt;Node128 -->
<g id="edge3" class="edge"><title>Node127&#45;&gt;Node128</title>
<path fill="none" stroke="midnightblue" d="M279.28,-782C306.396,-782 340.476,-782 367.827,-782"/>
<polygon fill="midnightblue" stroke="midnightblue" points="367.951,-785.5 377.951,-782 367.951,-778.5 367.951,-785.5"/>
</g>
<!-- Node138&#45;&gt;Node130 -->
<g id="edge14" class="edge"><title>Node138&#45;&gt;Node130</title>
<path fill="none" stroke="midnightblue" d="M290.299,-285.583C295.96,-288.05 301.327,-291.138 306,-295 334.809,-318.811 313.171,-347.213 342,-371 345.077,-373.539 348.453,-375.744 352.014,-377.658"/>
<polygon fill="midnightblue" stroke="midnightblue" points="350.635,-380.875 361.186,-381.841 353.54,-374.507 350.635,-380.875"/>
</g>
<!-- Node138&#45;&gt;Node131 -->
<g id="edge30" class="edge"><title>Node138&#45;&gt;Node131</title>
<path fill="none" stroke="midnightblue" d="M292.946,-285.527C297.762,-288.029 302.218,-291.14 306,-295 354.587,-344.589 293.372,-397.451 342,-447 343.91,-448.947 345.991,-450.703 348.203,-452.287"/>
<polygon fill="midnightblue" stroke="midnightblue" points="346.895,-455.576 357.298,-457.583 350.417,-449.526 346.895,-455.576"/>
</g>
<!-- Node138&#45;&gt;Node139 -->
<g id="edge15" class="edge"><title>Node138&#45;&gt;Node139</title>
<path fill="none" stroke="midnightblue" d="M292.294,-285.648C297.307,-288.12 301.984,-291.191 306,-295 344.551,-331.564 303.419,-372.468 342,-409 345.088,-411.924 348.563,-414.414 352.28,-416.532"/>
<polygon fill="midnightblue" stroke="midnightblue" points="350.79,-419.699 361.324,-420.83 353.794,-413.376 350.79,-419.699"/>
</g>
<!-- Node140 -->
<g id="node16" class="node"><title>Node140</title>
<g id="a_node16"><a xlink:href="classCoolBoard.html#a397b46fadab8f530a8cf4d914c561366" target="_top" xlink:title="CoolBoard::initReadI2C">
<polygon fill="white" stroke="black" points="357,-342.5 357,-361.5 477,-361.5 477,-342.5 357,-342.5"/>
<text text-anchor="middle" x="417" y="-349.5" font-family="Helvetica,sans-Serif" font-size="10.00">CoolBoard::initReadI2C</text>
</a>
</g>
</g>
<!-- Node138&#45;&gt;Node140 -->
<g id="edge16" class="edge"><title>Node138&#45;&gt;Node140</title>
<path fill="none" stroke="midnightblue" d="M284.573,-285.549C292.041,-288.019 299.415,-291.118 306,-295 326.041,-306.815 321.949,-321.201 342,-333 345.833,-335.256 349.932,-337.246 354.16,-339.003"/>
<polygon fill="midnightblue" stroke="midnightblue" points="352.98,-342.298 363.573,-342.486 355.409,-335.733 352.98,-342.298"/>
</g>
<!-- Node141 -->
<g id="node17" class="node"><title>Node141</title>
<g id="a_node17"><a xlink:href="classCoolBoardSensors.html#a91badb2539d91fda8679f2a597874c48" target="_top" xlink:title="CoolBoardSensors::read">
<polygon fill="white" stroke="black" points="355.5,-228.5 355.5,-247.5 478.5,-247.5 478.5,-228.5 355.5,-228.5"/>
<text text-anchor="middle" x="417" y="-235.5" font-family="Helvetica,sans-Serif" font-size="10.00">CoolBoardSensors::read</text>
</a>
</g>
</g>
<!-- Node138&#45;&gt;Node141 -->
<g id="edge17" class="edge"><title>Node138&#45;&gt;Node141</title>
<path fill="none" stroke="midnightblue" d="M278.805,-266.411C303.456,-261.306 333.963,-254.989 359.945,-249.608"/>
<polygon fill="midnightblue" stroke="midnightblue" points="360.946,-252.975 370.028,-247.52 359.526,-246.121 360.946,-252.975"/>
</g>
<!-- Node144 -->
<g id="node20" class="node"><title>Node144</title>
<g id="a_node20"><a xlink:href="classExternalSensors.html#a53177b81eca3be89508b5511ddcd00fc" target="_top" xlink:title="ExternalSensors::read">
<polygon fill="white" stroke="black" points="360.5,-266.5 360.5,-285.5 473.5,-285.5 473.5,-266.5 360.5,-266.5"/>
<text text-anchor="middle" x="417" y="-273.5" font-family="Helvetica,sans-Serif" font-size="10.00">ExternalSensors::read</text>
</a>
</g>
</g>
<!-- Node138&#45;&gt;Node144 -->
<g id="edge20" class="edge"><title>Node138&#45;&gt;Node144</title>
<path fill="none" stroke="midnightblue" d="M293.093,-276C311.414,-276 331.616,-276 350.257,-276"/>
<polygon fill="midnightblue" stroke="midnightblue" points="350.43,-279.5 360.43,-276 350.43,-272.5 350.43,-279.5"/>
</g>
<!-- Node145 -->
<g id="node21" class="node"><title>Node145</title>
<g id="a_node21"><a xlink:href="classIrene3000.html#a852a170feea994ea1df01c6b245b5d9a" target="_top" xlink:title="Irene3000::read">
<polygon fill="white" stroke="black" points="375,-304.5 375,-323.5 459,-323.5 459,-304.5 375,-304.5"/>
<text text-anchor="middle" x="417" y="-311.5" font-family="Helvetica,sans-Serif" font-size="10.00">Irene3000::read</text>
</a>
</g>
</g>
<!-- Node138&#45;&gt;Node145 -->
<g id="edge21" class="edge"><title>Node138&#45;&gt;Node145</title>
<path fill="none" stroke="midnightblue" d="M278.805,-285.589C304.977,-291.009 337.75,-297.796 364.701,-303.377"/>
<polygon fill="midnightblue" stroke="midnightblue" points="364.217,-306.851 374.719,-305.451 365.636,-299.996 364.217,-306.851"/>
</g>
<!-- Node150 -->
<g id="node26" class="node"><title>Node150</title>
<g id="a_node26"><a xlink:href="classCoolTime.html#a7a7501c5ca77dd1248bea704c44f986c" target="_top" xlink:title="CoolTime::getTimeDate">
<polygon fill="white" stroke="black" points="548,-114.5 548,-133.5 669,-133.5 669,-114.5 548,-114.5"/>
<text text-anchor="middle" x="608.5" y="-121.5" font-family="Helvetica,sans-Serif" font-size="10.00">CoolTime::getTimeDate</text>
</a>
</g>
</g>
<!-- Node138&#45;&gt;Node150 -->
<g id="edge28" class="edge"><title>Node138&#45;&gt;Node150</title>
<path fill="none" stroke="midnightblue" d="M240.452,-266.422C257.125,-247.016 297.866,-203.034 342,-181 360.153,-171.937 473.955,-149.287 546.555,-135.422"/>
<polygon fill="midnightblue" stroke="midnightblue" points="547.342,-138.835 556.511,-133.526 546.033,-131.958 547.342,-138.835"/>
</g>
<!-- Node142 -->
<g id="node18" class="node"><title>Node142</title>
<g id="a_node18"><a xlink:href="classCoolBoardSensors.html#a6944b6ea7bce8e2fce1b434acfd9d5f3" target="_top" xlink:title="CoolBoardSensors::readVBat">
<polygon fill="white" stroke="black" points="536,-209.5 536,-228.5 681,-228.5 681,-209.5 536,-209.5"/>
<text text-anchor="middle" x="608.5" y="-216.5" font-family="Helvetica,sans-Serif" font-size="10.00">CoolBoardSensors::readVBat</text>
</a>
</g>
</g>
<!-- Node141&#45;&gt;Node142 -->
<g id="edge18" class="edge"><title>Node141&#45;&gt;Node142</title>
<path fill="none" stroke="midnightblue" d="M478.741,-231.91C493.66,-230.414 509.877,-228.788 525.611,-227.211"/>
<polygon fill="midnightblue" stroke="midnightblue" points="526.261,-230.663 535.862,-226.183 525.563,-223.698 526.261,-230.663"/>
</g>
<!-- Node143 -->
<g id="node19" class="node"><title>Node143</title>
<g id="a_node19"><a xlink:href="classCoolBoardSensors.html#a8761bff50373c485f4465c8db47d0633" target="_top" xlink:title="CoolBoardSensors::readMoisture">
<polygon fill="white" stroke="black" points="528,-247.5 528,-266.5 689,-266.5 689,-247.5 528,-247.5"/>
<text text-anchor="middle" x="608.5" y="-254.5" font-family="Helvetica,sans-Serif" font-size="10.00">CoolBoardSensors::readMoisture</text>
</a>
</g>
</g>
<!-- Node141&#45;&gt;Node143 -->
<g id="edge19" class="edge"><title>Node141&#45;&gt;Node143</title>
<path fill="none" stroke="midnightblue" d="M478.741,-244.09C491.163,-245.336 504.485,-246.671 517.679,-247.994"/>
<polygon fill="midnightblue" stroke="midnightblue" points="517.428,-251.486 527.727,-249.002 518.126,-244.521 517.428,-251.486"/>
</g>
<!-- Node146 -->
<g id="node22" class="node"><title>Node146</title>
<g id="a_node22"><a xlink:href="classIrene3000.html#a94ad40f281d83ad1be20bf1edd6fe802" target="_top" xlink:title="Irene3000::readTemp">
<polygon fill="white" stroke="black" points="554,-361.5 554,-380.5 663,-380.5 663,-361.5 554,-361.5"/>
<text text-anchor="middle" x="608.5" y="-368.5" font-family="Helvetica,sans-Serif" font-size="10.00">Irene3000::readTemp</text>
</a>
</g>
</g>
<!-- Node145&#45;&gt;Node146 -->
<g id="edge22" class="edge"><title>Node145&#45;&gt;Node146</title>
<path fill="none" stroke="midnightblue" d="M459.251,-322.771C470.066,-325.562 481.606,-328.987 492,-333 508.877,-339.516 511.069,-345.625 528,-352 534.756,-354.544 541.967,-356.827 549.185,-358.853"/>
<polygon fill="midnightblue" stroke="midnightblue" points="548.426,-362.273 558.99,-361.456 550.222,-355.507 548.426,-362.273"/>
</g>
<!-- Node148 -->
<g id="node24" class="node"><title>Node148</title>
<g id="a_node24"><a xlink:href="classIrene3000.html#abf3db725fabb0634ec889b32068a5eec" target="_top" xlink:title="Irene3000::readPh">
<polygon fill="white" stroke="black" points="560.5,-323.5 560.5,-342.5 656.5,-342.5 656.5,-323.5 560.5,-323.5"/>
<text text-anchor="middle" x="608.5" y="-330.5" font-family="Helvetica,sans-Serif" font-size="10.00">Irene3000::readPh</text>
</a>
</g>
</g>
<!-- Node145&#45;&gt;Node148 -->
<g id="edge24" class="edge"><title>Node145&#45;&gt;Node148</title>
<path fill="none" stroke="midnightblue" d="M459.119,-318.123C485.799,-320.798 520.939,-324.321 550.325,-327.267"/>
<polygon fill="midnightblue" stroke="midnightblue" points="550.156,-330.768 560.456,-328.283 550.855,-323.803 550.156,-330.768"/>
</g>
<!-- Node149 -->
<g id="node25" class="node"><title>Node149</title>
<g id="a_node25"><a xlink:href="classIrene3000.html#ae73bd2ed14a199a7e83f4d6458476a7c" target="_top" xlink:title="Irene3000::readADSChannel2">
<polygon fill="white" stroke="black" points="535.5,-285.5 535.5,-304.5 681.5,-304.5 681.5,-285.5 535.5,-285.5"/>
<text text-anchor="middle" x="608.5" y="-292.5" font-family="Helvetica,sans-Serif" font-size="10.00">Irene3000::readADSChannel2</text>
</a>
</g>
</g>
<!-- Node145&#45;&gt;Node149 -->
<g id="edge26" class="edge"><title>Node145&#45;&gt;Node149</title>
<path fill="none" stroke="midnightblue" d="M459.119,-309.877C478.462,-307.938 502.253,-305.552 525.073,-303.264"/>
<polygon fill="midnightblue" stroke="midnightblue" points="525.522,-306.737 535.123,-302.257 524.824,-299.772 525.522,-306.737"/>
</g>
<!-- Node147 -->
<g id="node23" class="node"><title>Node147</title>
<g id="a_node23"><a xlink:href="classIrene3000.html#aff7c5da186b388e7272e63ff88a20c34" target="_top" xlink:title="Irene3000::setGain">
<polygon fill="white" stroke="black" points="734.5,-323.5 734.5,-342.5 833.5,-342.5 833.5,-323.5 734.5,-323.5"/>
<text text-anchor="middle" x="784" y="-330.5" font-family="Helvetica,sans-Serif" font-size="10.00">Irene3000::setGain</text>
</a>
</g>
</g>
<!-- Node146&#45;&gt;Node147 -->
<g id="edge23" class="edge"><title>Node146&#45;&gt;Node147</title>
<path fill="none" stroke="midnightblue" d="M653.281,-361.411C676.486,-356.329 705.178,-350.045 729.673,-344.68"/>
<polygon fill="midnightblue" stroke="midnightblue" points="730.514,-348.079 739.533,-342.52 729.016,-341.241 730.514,-348.079"/>
</g>
<!-- Node148&#45;&gt;Node147 -->
<g id="edge25" class="edge"><title>Node148&#45;&gt;Node147</title>
<path fill="none" stroke="midnightblue" d="M656.91,-333C677.697,-333 702.308,-333 724.245,-333"/>
<polygon fill="midnightblue" stroke="midnightblue" points="724.44,-336.5 734.44,-333 724.44,-329.5 724.44,-336.5"/>
</g>
<!-- Node149&#45;&gt;Node147 -->
<g id="edge27" class="edge"><title>Node149&#45;&gt;Node147</title>
<path fill="none" stroke="midnightblue" d="M653.281,-304.589C676.486,-309.671 705.178,-315.955 729.673,-321.32"/>
<polygon fill="midnightblue" stroke="midnightblue" points="729.016,-324.759 739.533,-323.48 730.514,-317.921 729.016,-324.759"/>
</g>
<!-- Node151 -->
<g id="node27" class="node"><title>Node151</title>
<g id="a_node27"><a xlink:href="classCoolTime.html#acd537cd4210d7bde4e1f5c47d2ac0456" target="_top" xlink:title="CoolTime::formatDigits">
<polygon fill="white" stroke="black" points="725,-76.5 725,-95.5 843,-95.5 843,-76.5 725,-76.5"/>
<text text-anchor="middle" x="784" y="-83.5" font-family="Helvetica,sans-Serif" font-size="10.00">CoolTime::formatDigits</text>
</a>
</g>
</g>
<!-- Node150&#45;&gt;Node151 -->
<g id="edge29" class="edge"><title>Node150&#45;&gt;Node151</title>
<path fill="none" stroke="midnightblue" d="M653.281,-114.411C676.486,-109.329 705.178,-103.045 729.673,-97.6797"/>
<polygon fill="midnightblue" stroke="midnightblue" points="730.514,-101.079 739.533,-95.5201 729.016,-94.2407 730.514,-101.079"/>
</g>
<!-- Node154 -->
<g id="node30" class="node"><title>Node154</title>
<g id="a_node30"><a xlink:href="classCoolTime.html#a5ae038a4498602b189f76a10bf02adf8" target="_top" xlink:title="CoolTime::isTimeSync">
<polygon fill="white" stroke="black" points="359,-190.5 359,-209.5 475,-209.5 475,-190.5 359,-190.5"/>
<text text-anchor="middle" x="417" y="-197.5" font-family="Helvetica,sans-Serif" font-size="10.00">CoolTime::isTimeSync</text>
</a>
</g>
</g>
<!-- Node153&#45;&gt;Node154 -->
<g id="edge34" class="edge"><title>Node153&#45;&gt;Node154</title>
<path fill="none" stroke="midnightblue" d="M278.805,-171.589C303.456,-176.694 333.963,-183.011 359.945,-188.392"/>
<polygon fill="midnightblue" stroke="midnightblue" points="359.526,-191.879 370.028,-190.48 360.946,-185.025 359.526,-191.879"/>
</g>
<!-- Node156 -->
<g id="node32" class="node"><title>Node156</title>
<g id="a_node32"><a xlink:href="classCoolTime.html#a41fbbbfd651c2079f54d4b2911e4c705" target="_top" xlink:title="CoolTime::getNtpTime">
<polygon fill="white" stroke="black" points="359,-76.5 359,-95.5 475,-95.5 475,-76.5 359,-76.5"/>
<text text-anchor="middle" x="417" y="-83.5" font-family="Helvetica,sans-Serif" font-size="10.00">CoolTime::getNtpTime</text>
</a>
</g>
</g>
<!-- Node153&#45;&gt;Node156 -->
<g id="edge36" class="edge"><title>Node153&#45;&gt;Node156</title>
<path fill="none" stroke="midnightblue" d="M248.287,-152.306C269.103,-139.874 307.174,-118.333 342,-105 348.408,-102.547 355.249,-100.309 362.085,-98.2996"/>
<polygon fill="midnightblue" stroke="midnightblue" points="363.355,-101.579 372.047,-95.5213 361.474,-94.8365 363.355,-101.579"/>
</g>
<!-- Node158 -->
<g id="node34" class="node"><title>Node158</title>
<g id="a_node34"><a xlink:href="classCoolTime.html#ae9658c9b377510d469e3b88edf33ee85" target="_top" xlink:title="CoolTime::saveTimeSync">
<polygon fill="white" stroke="black" points="352,-114.5 352,-133.5 482,-133.5 482,-114.5 352,-114.5"/>
<text text-anchor="middle" x="417" y="-121.5" font-family="Helvetica,sans-Serif" font-size="10.00">CoolTime::saveTimeSync</text>
</a>
</g>
</g>
<!-- Node153&#45;&gt;Node158 -->
<g id="edge38" class="edge"><title>Node153&#45;&gt;Node158</title>
<path fill="none" stroke="midnightblue" d="M278.805,-152.411C303.456,-147.306 333.963,-140.989 359.945,-135.608"/>
<polygon fill="midnightblue" stroke="midnightblue" points="360.946,-138.975 370.028,-133.52 359.526,-132.121 360.946,-138.975"/>
</g>
<!-- Node155 -->
<g id="node31" class="node"><title>Node155</title>
<g id="a_node31"><a xlink:href="classCoolTime.html#a5d17f707a9d337720493b2bce9d41c21" target="_top" xlink:title="CoolTime::getLastSyncTime">
<polygon fill="white" stroke="black" points="538,-171.5 538,-190.5 679,-190.5 679,-171.5 538,-171.5"/>
<text text-anchor="middle" x="608.5" y="-178.5" font-family="Helvetica,sans-Serif" font-size="10.00">CoolTime::getLastSyncTime</text>
</a>
</g>
</g>
<!-- Node154&#45;&gt;Node155 -->
<g id="edge35" class="edge"><title>Node154&#45;&gt;Node155</title>
<path fill="none" stroke="midnightblue" d="M475.113,-194.274C491.602,-192.62 509.907,-190.785 527.514,-189.02"/>
<polygon fill="midnightblue" stroke="midnightblue" points="528.181,-192.47 537.782,-187.99 527.482,-185.505 528.181,-192.47"/>
</g>
<!-- Node157 -->
<g id="node33" class="node"><title>Node157</title>
<g id="a_node33"><a xlink:href="classCoolTime.html#a236a38d120dc53bc67456d763838c5a1" target="_top" xlink:title="CoolTime::sendNTPpacket">
<polygon fill="white" stroke="black" points="541,-76.5 541,-95.5 676,-95.5 676,-76.5 541,-76.5"/>
<text text-anchor="middle" x="608.5" y="-83.5" font-family="Helvetica,sans-Serif" font-size="10.00">CoolTime::sendNTPpacket</text>
</a>
</g>
</g>
<!-- Node156&#45;&gt;Node157 -->
<g id="edge37" class="edge"><title>Node156&#45;&gt;Node157</title>
<path fill="none" stroke="midnightblue" d="M475.113,-86C492.584,-86 512.093,-86 530.651,-86"/>
<polygon fill="midnightblue" stroke="midnightblue" points="530.845,-89.5001 540.845,-86 530.844,-82.5001 530.845,-89.5001"/>
</g>
<!-- Node159&#45;&gt;Node130 -->
<g id="edge40" class="edge"><title>Node159&#45;&gt;Node130</title>
<path fill="none" stroke="midnightblue" d="M245.999,-494.491C261.127,-483.62 286.133,-464.996 306,-447 323.242,-431.382 321.949,-420.799 342,-409 345.833,-406.744 349.932,-404.754 354.16,-402.997"/>
<polygon fill="midnightblue" stroke="midnightblue" points="355.409,-406.267 363.573,-399.514 352.98,-399.702 355.409,-406.267"/>
</g>
<!-- Node159&#45;&gt;Node131 -->
<g id="edge46" class="edge"><title>Node159&#45;&gt;Node131</title>
<path fill="none" stroke="midnightblue" d="M278.805,-494.411C303.456,-489.306 333.963,-482.989 359.945,-477.608"/>
<polygon fill="midnightblue" stroke="midnightblue" points="360.946,-480.975 370.028,-475.52 359.526,-474.121 360.946,-480.975"/>
</g>
<!-- Node159&#45;&gt;Node135 -->
<g id="edge44" class="edge"><title>Node159&#45;&gt;Node135</title>
<path fill="none" stroke="midnightblue" d="M280.683,-509.197C289.955,-512.083 298.958,-516.445 306,-523 342.726,-557.187 315.847,-587.18 342,-630 356.387,-653.555 379.292,-675.578 395.81,-689.79"/>
<polygon fill="midnightblue" stroke="midnightblue" points="393.874,-692.735 403.786,-696.477 398.371,-687.37 393.874,-692.735"/>
</g>
<!-- Node159&#45;&gt;Node136 -->
<g id="edge43" class="edge"><title>Node159&#45;&gt;Node136</title>
<path fill="none" stroke="midnightblue" d="M280.618,-513.317C289.304,-515.865 298.103,-519.049 306,-523 343.266,-541.643 379.653,-574.451 399.824,-594.311"/>
<polygon fill="midnightblue" stroke="midnightblue" points="397.424,-596.861 406.963,-601.471 402.381,-591.919 397.424,-596.861"/>
</g>
<!-- Node159&#45;&gt;Node139 -->
<g id="edge45" class="edge"><title>Node159&#45;&gt;Node139</title>
<path fill="none" stroke="midnightblue" d="M248.287,-494.306C269.103,-481.874 307.174,-460.333 342,-447 348.408,-444.547 355.249,-442.309 362.085,-440.3"/>
<polygon fill="midnightblue" stroke="midnightblue" points="363.355,-443.579 372.047,-437.521 361.474,-436.837 363.355,-443.579"/>
</g>
<!-- Node160 -->
<g id="node36" class="node"><title>Node160</title>
<g id="a_node36"><a xlink:href="classCoolFileSystem.html#adfa8e2e80641ae6f0cceabd348a9b841" target="_top" xlink:title="CoolFileSystem::updateConfig\lFiles">
<polygon fill="white" stroke="black" points="342,-495 342,-525 492,-525 492,-495 342,-495"/>
<text text-anchor="start" x="350" y="-513" font-family="Helvetica,sans-Serif" font-size="10.00">CoolFileSystem::updateConfig</text>
<text text-anchor="middle" x="417" y="-502" font-family="Helvetica,sans-Serif" font-size="10.00">Files</text>
</a>
</g>
</g>
<!-- Node159&#45;&gt;Node160 -->
<g id="edge41" class="edge"><title>Node159&#45;&gt;Node160</title>
<path fill="none" stroke="midnightblue" d="M280.712,-505.576C296.335,-506.087 314.151,-506.67 331.608,-507.241"/>
<polygon fill="midnightblue" stroke="midnightblue" points="331.717,-510.746 341.826,-507.575 331.946,-503.75 331.717,-510.746"/>
</g>
<!-- Node161 -->
<g id="node37" class="node"><title>Node161</title>
<g id="a_node37"><a xlink:href="classCoolFileSystem.html#a13f2958f5b87757c31fc53797a30d23a" target="_top" xlink:title="CoolFileSystem::fileUpdate">
<polygon fill="white" stroke="black" points="540,-500.5 540,-519.5 677,-519.5 677,-500.5 540,-500.5"/>
<text text-anchor="middle" x="608.5" y="-507.5" font-family="Helvetica,sans-Serif" font-size="10.00">CoolFileSystem::fileUpdate</text>
</a>
</g>
</g>
<!-- Node160&#45;&gt;Node161 -->
<g id="edge42" class="edge"><title>Node160&#45;&gt;Node161</title>
<path fill="none" stroke="midnightblue" d="M492.08,-510C504.407,-510 517.225,-510 529.642,-510"/>
<polygon fill="midnightblue" stroke="midnightblue" points="529.96,-513.5 539.96,-510 529.96,-506.5 529.96,-513.5"/>
</g>
<!-- Node163 -->
<g id="node39" class="node"><title>Node163</title>
<g id="a_node39"><a xlink:href="classCoolMQTT.html#a373cc92fca7760d886f02d8a6e5b3f63" target="_top" xlink:title="CoolMQTT::getUser">
<polygon fill="white" stroke="black" points="364.5,-0.5 364.5,-19.5 469.5,-19.5 469.5,-0.5 364.5,-0.5"/>
<text text-anchor="middle" x="417" y="-7.5" font-family="Helvetica,sans-Serif" font-size="10.00">CoolMQTT::getUser</text>
</a>
</g>
</g>
<!-- Node162&#45;&gt;Node163 -->
<g id="edge48" class="edge"><title>Node162&#45;&gt;Node163</title>
<path fill="none" stroke="midnightblue" d="M278.805,-38.411C303.456,-33.3061 333.963,-26.9887 359.945,-21.6082"/>
<polygon fill="midnightblue" stroke="midnightblue" points="360.946,-24.9752 370.028,-19.5201 359.526,-18.1207 360.946,-24.9752"/>
</g>
<!-- Node164 -->
<g id="node40" class="node"><title>Node164</title>
<g id="a_node40"><a xlink:href="classCoolTime.html#ac4f32ee513c1328d984306645e8785a4" target="_top" xlink:title="CoolTime::getESDate">
<polygon fill="white" stroke="black" points="360.5,-38.5 360.5,-57.5 473.5,-57.5 473.5,-38.5 360.5,-38.5"/>
<text text-anchor="middle" x="417" y="-45.5" font-family="Helvetica,sans-Serif" font-size="10.00">CoolTime::getESDate</text>
</a>
</g>
</g>
<!-- Node162&#45;&gt;Node164 -->
<g id="edge49" class="edge"><title>Node162&#45;&gt;Node164</title>
<path fill="none" stroke="midnightblue" d="M285.576,-48C305.77,-48 329.023,-48 350.252,-48"/>
<polygon fill="midnightblue" stroke="midnightblue" points="350.489,-51.5001 360.489,-48 350.489,-44.5001 350.489,-51.5001"/>
</g>
<!-- Node164&#45;&gt;Node150 -->
<g id="edge50" class="edge"><title>Node164&#45;&gt;Node150</title>
<path fill="none" stroke="midnightblue" d="M470.427,-57.5143C477.945,-59.9895 485.37,-63.0985 492,-67 512.051,-78.7985 507.851,-93.3696 528,-105 531.908,-107.256 536.072,-109.244 540.367,-110.997"/>
<polygon fill="midnightblue" stroke="midnightblue" points="539.339,-114.347 549.933,-114.47 541.728,-107.768 539.339,-114.347"/>
</g>
<!-- Node164&#45;&gt;Node151 -->
<g id="edge51" class="edge"><title>Node164&#45;&gt;Node151</title>
<path fill="none" stroke="midnightblue" d="M473.75,-49.7995C528.69,-52.0686 614.922,-56.9596 689,-67 702.94,-68.8894 717.918,-71.6013 731.73,-74.387"/>
<polygon fill="midnightblue" stroke="midnightblue" points="731.048,-77.82 741.55,-76.4178 732.466,-70.965 731.048,-77.82"/>
</g>
</g>
</svg>
        <g id="navigator" transform="translate(0 0)" fill="#404254">
                <rect fill="#f2f5e9" fill-opacity="0.5" stroke="#606060" stroke-width=".5" x="0" y="0" width="60" height="60"/>
                <use id="zoomplus" xlink:href="#zoomPlus" x="17" y="9" onmousedown="handleZoom(evt,'in')"/>
                <use id="zoomminus" xlink:href="#zoomMin" x="42" y="9" onmousedown="handleZoom(evt,'out')"/>
                <use id="reset" xlink:href="#resetDef" x="30" y="36" onmousedown="handleReset()"/>
                <g id="arrowUp" xlink:href="#dirArrow" transform="translate(30 24)" onmousedown="handlePan(0,-1)">
                  <use xlink:href="#rim" fill="#404040">
                        <set attributeName="fill" to="#808080" begin="arrowUp.mouseover" end="arrowUp.mouseout"/>
                  </use>
                  <path fill="none" stroke="white" stroke-width="1.5" d="M0,-3.0v7 M-2.5,-0.5L0,-3.0L2.5,-0.5"/>
                </g>
                <g id="arrowRight" xlink:href="#dirArrow" transform="rotate(90) translate(36 -43)" onmousedown="handlePan(1,0)">
                  <use xlink:href="#rim" fill="#404040">
                        <set attributeName="fill" to="#808080" begin="arrowRight.mouseover" end="arrowRight.mouseout"/>
                  </use>
                  <path fill="none" stroke="white" stroke-width="1.5" d="M0,-3.0v7 M-2.5,-0.5L0,-3.0L2.5,-0.5"/>
                </g>
                <g id="arrowDown" xlink:href="#dirArrow" transform="rotate(180) translate(-30 -48)" onmousedown="handlePan(0,1)">
                  <use xlink:href="#rim" fill="#404040">
                        <set attributeName="fill" to="#808080" begin="arrowDown.mouseover" end="arrowDown.mouseout"/>
                  </use>
                  <path fill="none" stroke="white" stroke-width="1.5" d="M0,-3.0v7 M-2.5,-0.5L0,-3.0L2.5,-0.5"/>
                </g>
                <g id="arrowLeft" xlink:href="#dirArrow" transform="rotate(270) translate(-36 17)" onmousedown="handlePan(-1,0)">
                  <use xlink:href="#rim" fill="#404040">
                        <set attributeName="fill" to="#808080" begin="arrowLeft.mouseover" end="arrowLeft.mouseout"/>
                  </use>
                  <path fill="none" stroke="white" stroke-width="1.5" d="M0,-3.0v7 M-2.5,-0.5L0,-3.0L2.5,-0.5"/>
                </g>
        </g>
        <svg viewBox="0 0 15 15" width="100%" height="30px" preserveAspectRatio="xMaxYMin meet">
         <g id="arrow_out" transform="scale(0.3 0.3)">
          <a xlink:href="classCoolBoard_aa0bbc4bc605e35618d18e68795c61363_cgraph_org.svg" target="_base">
           <rect id="button" ry="5" rx="5" y="6" x="6" height="38" width="38"
                fill="#f2f5e9" fill-opacity="0.5" stroke="#606060" stroke-width="1.0"/>
           <path id="arrow"
             d="M 11.500037,31.436501 C 11.940474,20.09759 22.043105,11.32322 32.158766,21.979434 L 37.068811,17.246167 C 37.068811,17.246167 37.088388,32 37.088388,32 L 22.160133,31.978069 C 22.160133,31.978069 26.997745,27.140456 26.997745,27.140456 C 18.528582,18.264221 13.291696,25.230495 11.500037,31.436501 z"
             style="fill:#404040;"/>
          </a>
         </g>
        </svg>
</svg>
