<?xml version="1.0" encoding="UTF-8" standalone="no"?>
<!DOCTYPE svg PUBLIC "-//W3C//DTD SVG 1.1//EN"
 "http://www.w3.org/Graphics/SVG/1.1/DTD/svg11.dtd">
<!-- Generated by graphviz version 2.38.0 (20140413.2041)
 -->
<!-- Title: CoolBoard::onLineMode Pages: 1 -->
<svg width="851pt" height="914pt"
 viewBox="0.00 0.00 851.00 914.00" xmlns="http://www.w3.org/2000/svg" xmlns:xlink="http://www.w3.org/1999/xlink">
<g id="graph0" class="graph" transform="scale(1 1) rotate(0) translate(4 910)">
<title>CoolBoard::onLineMode</title>
<polygon fill="white" stroke="none" points="-4,4 -4,-910 847,-910 847,4 -4,4"/>
<!-- Node77 -->
<g id="node1" class="node"><title>Node77</title>
<polygon fill="#bfbfbf" stroke="black" points="0,-608.5 0,-627.5 121,-627.5 121,-608.5 0,-608.5"/>
<text text-anchor="middle" x="60.5" y="-615.5" font-family="Helvetica,sans-Serif" font-size="10.00">CoolBoard::onLineMode</text>
</g>
<!-- Node78 -->
<g id="node2" class="node"><title>Node78</title>
<g id="a_node2"><a xlink:href="classJetpack.html#a86d2e83436ef4b85f4c3a6e85ac785b0" target="_top" xlink:title="Jetpack::doAction">
<polygon fill="white" stroke="black" points="184,-867.5 184,-886.5 279,-886.5 279,-867.5 184,-867.5"/>
<text text-anchor="middle" x="231.5" y="-874.5" font-family="Helvetica,sans-Serif" font-size="10.00">Jetpack::doAction</text>
</a>
</g>
</g>
<!-- Node77&#45;&gt;Node78 -->
<g id="edge1" class="edge"><title>Node77&#45;&gt;Node78</title>
<path fill="none" stroke="midnightblue" d="M64.3002,-627.729C73.5121,-658.514 105.278,-755.566 157,-820 170.52,-836.843 189.976,-851.645 205.474,-861.942"/>
<polygon fill="midnightblue" stroke="midnightblue" points="203.763,-865.002 214.067,-867.465 207.547,-859.114 203.763,-865.002"/>
</g>
<!-- Node80 -->
<g id="node4" class="node"><title>Node80</title>
<g id="a_node4"><a xlink:href="classCoolBoard.html#aaa24480b273fc095a1356a589c333781" target="_top" xlink:title="CoolBoard::getLogInterval">
<polygon fill="white" stroke="black" points="166.5,-791.5 166.5,-810.5 296.5,-810.5 296.5,-791.5 166.5,-791.5"/>
<text text-anchor="middle" x="231.5" y="-798.5" font-family="Helvetica,sans-Serif" font-size="10.00">CoolBoard::getLogInterval</text>
</a>
</g>
</g>
<!-- Node77&#45;&gt;Node80 -->
<g id="edge3" class="edge"><title>Node77&#45;&gt;Node80</title>
<path fill="none" stroke="midnightblue" d="M64.178,-627.53C72.6403,-655.832 101.582,-740.026 157,-782 159.494,-783.889 162.157,-785.59 164.936,-787.124"/>
<polygon fill="midnightblue" stroke="midnightblue" points="163.608,-790.367 174.145,-791.47 166.596,-784.037 163.608,-790.367"/>
</g>
<!-- Node81 -->
<g id="node5" class="node"><title>Node81</title>
<g id="a_node5"><a xlink:href="classCoolFileSystem.html#a5c58bca3735c0ed3efb268d70ef998ef" target="_top" xlink:title="CoolFileSystem::getSensor\lSavedData">
<polygon fill="white" stroke="black" points="163,-742 163,-772 300,-772 300,-742 163,-742"/>
<text text-anchor="start" x="171" y="-760" font-family="Helvetica,sans-Serif" font-size="10.00">CoolFileSystem::getSensor</text>
<text text-anchor="middle" x="231.5" y="-749" font-family="Helvetica,sans-Serif" font-size="10.00">SavedData</text>
</a>
</g>
</g>
<!-- Node77&#45;&gt;Node81 -->
<g id="edge4" class="edge"><title>Node77&#45;&gt;Node81</title>
<path fill="none" stroke="midnightblue" d="M67.0949,-627.789C80.0745,-649.651 114.401,-702.815 157,-732 159.867,-733.964 162.901,-735.786 166.041,-737.475"/>
<polygon fill="midnightblue" stroke="midnightblue" points="164.592,-740.662 175.116,-741.888 167.654,-734.367 164.592,-740.662"/>
</g>
<!-- Node82 -->
<g id="node6" class="node"><title>Node82</title>
<g id="a_node6"><a xlink:href="classCoolFileSystem.html#a5a7eaeea7a9fbf8aaef651d862fa3b5b" target="_top" xlink:title="CoolFileSystem::isDataSaved">
<polygon fill="white" stroke="black" points="157,-703.5 157,-722.5 306,-722.5 306,-703.5 157,-703.5"/>
<text text-anchor="middle" x="231.5" y="-710.5" font-family="Helvetica,sans-Serif" font-size="10.00">CoolFileSystem::isDataSaved</text>
</a>
</g>
</g>
<!-- Node77&#45;&gt;Node82 -->
<g id="edge5" class="edge"><title>Node77&#45;&gt;Node82</title>
<path fill="none" stroke="midnightblue" d="M71.9013,-627.544C88.6729,-642.495 123.237,-671.532 157,-689 165.318,-693.303 174.561,-697.044 183.607,-700.208"/>
<polygon fill="midnightblue" stroke="midnightblue" points="182.699,-703.594 193.292,-703.415 184.899,-696.949 182.699,-703.594"/>
</g>
<!-- Node83 -->
<g id="node7" class="node"><title>Node83</title>
<g id="a_node7"><a xlink:href="classCoolMQTT.html#aa5eaae967b562b62cbcf2b8d81f6e5d5" target="_top" xlink:title="CoolMQTT::mqttLoop">
<polygon fill="white" stroke="black" points="361.5,-848.5 361.5,-867.5 472.5,-867.5 472.5,-848.5 361.5,-848.5"/>
<text text-anchor="middle" x="417" y="-855.5" font-family="Helvetica,sans-Serif" font-size="10.00">CoolMQTT::mqttLoop</text>
</a>
</g>
</g>
<!-- Node77&#45;&gt;Node83 -->
<g id="edge6" class="edge"><title>Node77&#45;&gt;Node83</title>
<path fill="none" stroke="midnightblue" d="M83.206,-627.568C102.374,-635.793 131.205,-647.617 157,-656 221.996,-677.122 257.829,-645.522 306,-694 352.803,-741.102 295.235,-791.861 342,-839 345.048,-842.072 348.52,-844.67 352.26,-846.864"/>
<polygon fill="midnightblue" stroke="midnightblue" points="350.872,-850.08 361.398,-851.285 353.92,-843.779 350.872,-850.08"/>
</g>
<!-- Node84 -->
<g id="node8" class="node"><title>Node84</title>
<g id="a_node8"><a xlink:href="classCoolMQTT.html#ace977b3e90ab14b1199fe5c4fb0a13ec" target="_top" xlink:title="CoolMQTT::publish">
<polygon fill="white" stroke="black" points="366.5,-810.5 366.5,-829.5 467.5,-829.5 467.5,-810.5 366.5,-810.5"/>
<text text-anchor="middle" x="417" y="-817.5" font-family="Helvetica,sans-Serif" font-size="10.00">CoolMQTT::publish</text>
</a>
</g>
</g>
<!-- Node77&#45;&gt;Node84 -->
<g id="edge7" class="edge"><title>Node77&#45;&gt;Node84</title>
<path fill="none" stroke="midnightblue" d="M121.174,-621.199C184.733,-625.838 279.743,-636.705 306,-661 353.157,-704.633 296.563,-755.579 342,-801 346.267,-805.265 351.353,-808.615 356.834,-811.239"/>
<polygon fill="midnightblue" stroke="midnightblue" points="355.767,-814.581 366.354,-815.005 358.342,-808.072 355.767,-814.581"/>
</g>
<!-- Node85 -->
<g id="node9" class="node"><title>Node85</title>
<g id="a_node9"><a xlink:href="classCoolMQTT.html#ae3c18f6ae9723746d32765f1c8f176ca" target="_top" xlink:title="CoolMQTT::read">
<polygon fill="white" stroke="black" points="187,-247.5 187,-266.5 276,-266.5 276,-247.5 187,-247.5"/>
<text text-anchor="middle" x="231.5" y="-254.5" font-family="Helvetica,sans-Serif" font-size="10.00">CoolMQTT::read</text>
</a>
</g>
</g>
<!-- Node77&#45;&gt;Node85 -->
<g id="edge8" class="edge"><title>Node77&#45;&gt;Node85</title>
<path fill="none" stroke="midnightblue" d="M61.0059,-608.442C59.2465,-563.71 57.9774,-373.126 157,-276 162.623,-270.484 169.627,-266.508 177.06,-263.654"/>
<polygon fill="midnightblue" stroke="midnightblue" points="178.166,-266.975 186.634,-260.607 176.043,-260.305 178.166,-266.975"/>
</g>
<!-- Node86 -->
<g id="node10" class="node"><title>Node86</title>
<g id="a_node10"><a xlink:href="classCoolBoard.html#ad03abdce2e65f520bbf2cff0f2d083cf" target="_top" xlink:title="CoolBoard::readSensors">
<polygon fill="white" stroke="black" points="170,-171.5 170,-190.5 293,-190.5 293,-171.5 170,-171.5"/>
<text text-anchor="middle" x="231.5" y="-178.5" font-family="Helvetica,sans-Serif" font-size="10.00">CoolBoard::readSensors</text>
</a>
</g>
</g>
<!-- Node77&#45;&gt;Node86 -->
<g id="edge9" class="edge"><title>Node77&#45;&gt;Node86</title>
<path fill="none" stroke="midnightblue" d="M61.6795,-608.27C62.9552,-562.573 73.2906,-366.133 157,-238 168.517,-220.371 187.373,-205.911 203.102,-195.967"/>
<polygon fill="midnightblue" stroke="midnightblue" points="205.17,-198.807 211.923,-190.644 201.553,-192.814 205.17,-198.807"/>
</g>
<!-- Node97 -->
<g id="node21" class="node"><title>Node97</title>
<g id="a_node21"><a xlink:href="classCoolBoard.html#a5d0c8ff93b615efd676be432de9f164a" target="_top" xlink:title="CoolBoard::sleep">
<polygon fill="white" stroke="black" points="185.5,-133.5 185.5,-152.5 277.5,-152.5 277.5,-133.5 185.5,-133.5"/>
<text text-anchor="middle" x="231.5" y="-140.5" font-family="Helvetica,sans-Serif" font-size="10.00">CoolBoard::sleep</text>
</a>
</g>
</g>
<!-- Node77&#45;&gt;Node97 -->
<g id="edge22" class="edge"><title>Node77&#45;&gt;Node97</title>
<path fill="none" stroke="midnightblue" d="M62.1804,-608.131C66.5313,-547.858 92.3558,-229.724 157,-162 162.13,-156.625 168.565,-152.696 175.482,-149.837"/>
<polygon fill="midnightblue" stroke="midnightblue" points="176.787,-153.09 185.134,-146.566 174.54,-146.461 176.787,-153.09"/>
</g>
<!-- Node98 -->
<g id="node22" class="node"><title>Node98</title>
<g id="a_node22"><a xlink:href="classCoolTime.html#aae601f795452cfa48d9fb337aed483a8" target="_top" xlink:title="CoolTime::update">
<polygon fill="white" stroke="black" points="184.5,-361.5 184.5,-380.5 278.5,-380.5 278.5,-361.5 184.5,-361.5"/>
<text text-anchor="middle" x="231.5" y="-368.5" font-family="Helvetica,sans-Serif" font-size="10.00">CoolTime::update</text>
</a>
</g>
</g>
<!-- Node77&#45;&gt;Node98 -->
<g id="edge23" class="edge"><title>Node77&#45;&gt;Node98</title>
<path fill="none" stroke="midnightblue" d="M68.125,-608.317C93.5229,-571.197 184.916,-437.623 218.235,-388.925"/>
<polygon fill="midnightblue" stroke="midnightblue" points="221.162,-390.845 223.921,-380.616 215.385,-386.892 221.162,-390.845"/>
</g>
<!-- Node104 -->
<g id="node28" class="node"><title>Node104</title>
<g id="a_node28"><a xlink:href="classCoolBoard.html#a8612756d3f73198cdde857a66f0fe690" target="_top" xlink:title="CoolBoard::update">
<polygon fill="white" stroke="black" points="182.5,-589.5 182.5,-608.5 280.5,-608.5 280.5,-589.5 182.5,-589.5"/>
<text text-anchor="middle" x="231.5" y="-596.5" font-family="Helvetica,sans-Serif" font-size="10.00">CoolBoard::update</text>
</a>
</g>
</g>
<!-- Node77&#45;&gt;Node104 -->
<g id="edge29" class="edge"><title>Node77&#45;&gt;Node104</title>
<path fill="none" stroke="midnightblue" d="M121.083,-611.301C137.688,-609.434 155.703,-607.409 172.232,-605.551"/>
<polygon fill="midnightblue" stroke="midnightblue" points="172.759,-609.014 182.305,-604.418 171.977,-602.058 172.759,-609.014"/>
</g>
<!-- Node120 -->
<g id="node44" class="node"><title>Node120</title>
<g id="a_node44"><a xlink:href="classCoolBoard.html#ae7358fb6e623cfc81b775f5f1734909b" target="_top" xlink:title="CoolBoard::userData">
<polygon fill="white" stroke="black" points="177.5,-285.5 177.5,-304.5 285.5,-304.5 285.5,-285.5 177.5,-285.5"/>
<text text-anchor="middle" x="231.5" y="-292.5" font-family="Helvetica,sans-Serif" font-size="10.00">CoolBoard::userData</text>
</a>
</g>
</g>
<!-- Node77&#45;&gt;Node120 -->
<g id="edge48" class="edge"><title>Node77&#45;&gt;Node120</title>
<path fill="none" stroke="midnightblue" d="M62.9521,-608.386C68.8629,-571.802 93.8729,-438.958 157,-352 169.529,-334.74 188.695,-320.118 204.314,-310.006"/>
<polygon fill="midnightblue" stroke="midnightblue" points="206.381,-312.841 213.023,-304.587 202.683,-306.898 206.381,-312.841"/>
</g>
<!-- Node79 -->
<g id="node3" class="node"><title>Node79</title>
<g id="a_node3"><a xlink:href="classJetpack.html#a338f1af8cbc6504ac69b47c7328569b5" target="_top" xlink:title="Jetpack::write">
<polygon fill="white" stroke="black" points="378,-886.5 378,-905.5 456,-905.5 456,-886.5 378,-886.5"/>
<text text-anchor="middle" x="417" y="-893.5" font-family="Helvetica,sans-Serif" font-size="10.00">Jetpack::write</text>
</a>
</g>
</g>
<!-- Node78&#45;&gt;Node79 -->
<g id="edge2" class="edge"><title>Node78&#45;&gt;Node79</title>
<path fill="none" stroke="midnightblue" d="M279.28,-881.844C306.396,-884.651 340.476,-888.18 367.827,-891.012"/>
<polygon fill="midnightblue" stroke="midnightblue" points="367.644,-894.512 377.951,-892.06 368.365,-887.549 367.644,-894.512"/>
</g>
<!-- Node87 -->
<g id="node11" class="node"><title>Node87</title>
<g id="a_node11"><a xlink:href="classCoolBoardSensors.html#a91badb2539d91fda8679f2a597874c48" target="_top" xlink:title="CoolBoardSensors::read">
<polygon fill="white" stroke="black" points="355.5,-171.5 355.5,-190.5 478.5,-190.5 478.5,-171.5 355.5,-171.5"/>
<text text-anchor="middle" x="417" y="-178.5" font-family="Helvetica,sans-Serif" font-size="10.00">CoolBoardSensors::read</text>
</a>
</g>
</g>
<!-- Node86&#45;&gt;Node87 -->
<g id="edge10" class="edge"><title>Node86&#45;&gt;Node87</title>
<path fill="none" stroke="midnightblue" d="M293.093,-181C309.848,-181 328.177,-181 345.445,-181"/>
<polygon fill="midnightblue" stroke="midnightblue" points="345.47,-184.5 355.47,-181 345.47,-177.5 345.47,-184.5"/>
</g>
<!-- Node91 -->
<g id="node15" class="node"><title>Node91</title>
<g id="a_node15"><a xlink:href="classExternalSensors.html#a53177b81eca3be89508b5511ddcd00fc" target="_top" xlink:title="ExternalSensors::read">
<polygon fill="white" stroke="black" points="360.5,-133.5 360.5,-152.5 473.5,-152.5 473.5,-133.5 360.5,-133.5"/>
<text text-anchor="middle" x="417" y="-140.5" font-family="Helvetica,sans-Serif" font-size="10.00">ExternalSensors::read</text>
</a>
</g>
</g>
<!-- Node86&#45;&gt;Node91 -->
<g id="edge14" class="edge"><title>Node86&#45;&gt;Node91</title>
<path fill="none" stroke="midnightblue" d="M278.805,-171.411C303.456,-166.306 333.963,-159.989 359.945,-154.608"/>
<polygon fill="midnightblue" stroke="midnightblue" points="360.946,-157.975 370.028,-152.52 359.526,-151.121 360.946,-157.975"/>
</g>
<!-- Node92 -->
<g id="node16" class="node"><title>Node92</title>
<g id="a_node16"><a xlink:href="classIrene3000.html#a852a170feea994ea1df01c6b245b5d9a" target="_top" xlink:title="Irene3000::read">
<polygon fill="white" stroke="black" points="375,-57.5 375,-76.5 459,-76.5 459,-57.5 375,-57.5"/>
<text text-anchor="middle" x="417" y="-64.5" font-family="Helvetica,sans-Serif" font-size="10.00">Irene3000::read</text>
</a>
</g>
</g>
<!-- Node86&#45;&gt;Node92 -->
<g id="edge15" class="edge"><title>Node86&#45;&gt;Node92</title>
<path fill="none" stroke="midnightblue" d="M284.573,-171.451C292.041,-168.981 299.415,-165.882 306,-162 326.041,-150.185 324.732,-139.59 342,-124 358.602,-109.011 378.796,-93.627 393.891,-82.625"/>
<polygon fill="midnightblue" stroke="midnightblue" points="396.06,-85.3767 402.125,-76.6896 391.966,-79.6983 396.06,-85.3767"/>
</g>
<!-- Node88 -->
<g id="node12" class="node"><title>Node88</title>
<g id="a_node12"><a xlink:href="classCoolBoardSensors.html#acad6a8418c66d36868caca23c844ecb6" target="_top" xlink:title="CoolBoardSensors::initReadI2C">
<polygon fill="white" stroke="black" points="530.5,-114.5 530.5,-133.5 686.5,-133.5 686.5,-114.5 530.5,-114.5"/>
<text text-anchor="middle" x="608.5" y="-121.5" font-family="Helvetica,sans-Serif" font-size="10.00">CoolBoardSensors::initReadI2C</text>
</a>
</g>
</g>
<!-- Node87&#45;&gt;Node88 -->
<g id="edge11" class="edge"><title>Node87&#45;&gt;Node88</title>
<path fill="none" stroke="midnightblue" d="M462.359,-171.415C472.254,-168.781 482.596,-165.631 492,-162 508.877,-155.484 511.069,-149.375 528,-143 534.756,-140.456 541.967,-138.173 549.185,-136.147"/>
<polygon fill="midnightblue" stroke="midnightblue" points="550.222,-139.493 558.99,-133.544 548.426,-132.727 550.222,-139.493"/>
</g>
<!-- Node89 -->
<g id="node13" class="node"><title>Node89</title>
<g id="a_node13"><a xlink:href="classCoolBoardSensors.html#a6944b6ea7bce8e2fce1b434acfd9d5f3" target="_top" xlink:title="CoolBoardSensors::readVBat">
<polygon fill="white" stroke="black" points="536,-190.5 536,-209.5 681,-209.5 681,-190.5 536,-190.5"/>
<text text-anchor="middle" x="608.5" y="-197.5" font-family="Helvetica,sans-Serif" font-size="10.00">CoolBoardSensors::readVBat</text>
</a>
</g>
</g>
<!-- Node87&#45;&gt;Node89 -->
<g id="edge12" class="edge"><title>Node87&#45;&gt;Node89</title>
<path fill="none" stroke="midnightblue" d="M478.741,-187.09C493.66,-188.586 509.877,-190.212 525.611,-191.789"/>
<polygon fill="midnightblue" stroke="midnightblue" points="525.563,-195.302 535.862,-192.817 526.261,-188.337 525.563,-195.302"/>
</g>
<!-- Node90 -->
<g id="node14" class="node"><title>Node90</title>
<g id="a_node14"><a xlink:href="classCoolBoardSensors.html#a8761bff50373c485f4465c8db47d0633" target="_top" xlink:title="CoolBoardSensors::readMoisture">
<polygon fill="white" stroke="black" points="528,-152.5 528,-171.5 689,-171.5 689,-152.5 528,-152.5"/>
<text text-anchor="middle" x="608.5" y="-159.5" font-family="Helvetica,sans-Serif" font-size="10.00">CoolBoardSensors::readMoisture</text>
</a>
</g>
</g>
<!-- Node87&#45;&gt;Node90 -->
<g id="edge13" class="edge"><title>Node87&#45;&gt;Node90</title>
<path fill="none" stroke="midnightblue" d="M478.741,-174.91C491.163,-173.664 504.485,-172.329 517.679,-171.006"/>
<polygon fill="midnightblue" stroke="midnightblue" points="518.126,-174.479 527.727,-169.998 517.428,-167.514 518.126,-174.479"/>
</g>
<!-- Node93 -->
<g id="node17" class="node"><title>Node93</title>
<g id="a_node17"><a xlink:href="classIrene3000.html#a94ad40f281d83ad1be20bf1edd6fe802" target="_top" xlink:title="Irene3000::readTemp">
<polygon fill="white" stroke="black" points="554,-38.5 554,-57.5 663,-57.5 663,-38.5 554,-38.5"/>
<text text-anchor="middle" x="608.5" y="-45.5" font-family="Helvetica,sans-Serif" font-size="10.00">Irene3000::readTemp</text>
</a>
</g>
</g>
<!-- Node92&#45;&gt;Node93 -->
<g id="edge16" class="edge"><title>Node92&#45;&gt;Node93</title>
<path fill="none" stroke="midnightblue" d="M459.119,-62.8773C483.841,-60.3986 515.826,-57.1916 543.766,-54.3902"/>
<polygon fill="midnightblue" stroke="midnightblue" points="544.255,-57.8588 553.856,-53.3786 543.557,-50.8937 544.255,-57.8588"/>
</g>
<!-- Node95 -->
<g id="node19" class="node"><title>Node95</title>
<g id="a_node19"><a xlink:href="classIrene3000.html#abf3db725fabb0634ec889b32068a5eec" target="_top" xlink:title="Irene3000::readPh">
<polygon fill="white" stroke="black" points="560.5,-0.5 560.5,-19.5 656.5,-19.5 656.5,-0.5 560.5,-0.5"/>
<text text-anchor="middle" x="608.5" y="-7.5" font-family="Helvetica,sans-Serif" font-size="10.00">Irene3000::readPh</text>
</a>
</g>
</g>
<!-- Node92&#45;&gt;Node95 -->
<g id="edge18" class="edge"><title>Node92&#45;&gt;Node95</title>
<path fill="none" stroke="midnightblue" d="M443.553,-57.3745C465.702,-49.2238 498.71,-37.537 528,-29 536.414,-26.5477 545.395,-24.1728 554.18,-21.9807"/>
<polygon fill="midnightblue" stroke="midnightblue" points="555.09,-25.3614 563.974,-19.5891 553.429,-18.5612 555.09,-25.3614"/>
</g>
<!-- Node96 -->
<g id="node20" class="node"><title>Node96</title>
<g id="a_node20"><a xlink:href="classIrene3000.html#ae73bd2ed14a199a7e83f4d6458476a7c" target="_top" xlink:title="Irene3000::readADSChannel2">
<polygon fill="white" stroke="black" points="535.5,-76.5 535.5,-95.5 681.5,-95.5 681.5,-76.5 535.5,-76.5"/>
<text text-anchor="middle" x="608.5" y="-83.5" font-family="Helvetica,sans-Serif" font-size="10.00">Irene3000::readADSChannel2</text>
</a>
</g>
</g>
<!-- Node92&#45;&gt;Node96 -->
<g id="edge20" class="edge"><title>Node92&#45;&gt;Node96</title>
<path fill="none" stroke="midnightblue" d="M459.119,-71.1227C478.462,-73.0622 502.253,-75.4475 525.073,-77.7356"/>
<polygon fill="midnightblue" stroke="midnightblue" points="524.824,-81.228 535.123,-78.7432 525.522,-74.263 524.824,-81.228"/>
</g>
<!-- Node94 -->
<g id="node18" class="node"><title>Node94</title>
<g id="a_node18"><a xlink:href="classIrene3000.html#aff7c5da186b388e7272e63ff88a20c34" target="_top" xlink:title="Irene3000::setGain">
<polygon fill="white" stroke="black" points="734.5,-38.5 734.5,-57.5 833.5,-57.5 833.5,-38.5 734.5,-38.5"/>
<text text-anchor="middle" x="784" y="-45.5" font-family="Helvetica,sans-Serif" font-size="10.00">Irene3000::setGain</text>
</a>
</g>
</g>
<!-- Node93&#45;&gt;Node94 -->
<g id="edge17" class="edge"><title>Node93&#45;&gt;Node94</title>
<path fill="none" stroke="midnightblue" d="M663.445,-48C682.759,-48 704.617,-48 724.312,-48"/>
<polygon fill="midnightblue" stroke="midnightblue" points="724.389,-51.5001 734.389,-48 724.389,-44.5001 724.389,-51.5001"/>
</g>
<!-- Node95&#45;&gt;Node94 -->
<g id="edge19" class="edge"><title>Node95&#45;&gt;Node94</title>
<path fill="none" stroke="midnightblue" d="M653.281,-19.589C676.486,-24.6713 705.178,-30.9554 729.673,-36.3203"/>
<polygon fill="midnightblue" stroke="midnightblue" points="729.016,-39.7593 739.533,-38.4799 730.514,-32.9214 729.016,-39.7593"/>
</g>
<!-- Node96&#45;&gt;Node94 -->
<g id="edge21" class="edge"><title>Node96&#45;&gt;Node94</title>
<path fill="none" stroke="midnightblue" d="M653.281,-76.411C676.486,-71.3287 705.178,-65.0446 729.673,-59.6797"/>
<polygon fill="midnightblue" stroke="midnightblue" points="730.514,-63.0786 739.533,-57.5201 729.016,-56.2407 730.514,-63.0786"/>
</g>
<!-- Node99 -->
<g id="node23" class="node"><title>Node99</title>
<g id="a_node23"><a xlink:href="classCoolTime.html#a5ae038a4498602b189f76a10bf02adf8" target="_top" xlink:title="CoolTime::isTimeSync">
<polygon fill="white" stroke="black" points="359,-342.5 359,-361.5 475,-361.5 475,-342.5 359,-342.5"/>
<text text-anchor="middle" x="417" y="-349.5" font-family="Helvetica,sans-Serif" font-size="10.00">CoolTime::isTimeSync</text>
</a>
</g>
</g>
<!-- Node98&#45;&gt;Node99 -->
<g id="edge24" class="edge"><title>Node98&#45;&gt;Node99</title>
<path fill="none" stroke="midnightblue" d="M278.805,-366.205C299.984,-364.013 325.486,-361.372 348.727,-358.966"/>
<polygon fill="midnightblue" stroke="midnightblue" points="349.288,-362.426 358.875,-357.915 348.567,-355.463 349.288,-362.426"/>
</g>
<!-- Node101 -->
<g id="node25" class="node"><title>Node101</title>
<g id="a_node25"><a xlink:href="classCoolTime.html#a41fbbbfd651c2079f54d4b2911e4c705" target="_top" xlink:title="CoolTime::getNtpTime">
<polygon fill="white" stroke="black" points="359,-304.5 359,-323.5 475,-323.5 475,-304.5 359,-304.5"/>
<text text-anchor="middle" x="417" y="-311.5" font-family="Helvetica,sans-Serif" font-size="10.00">CoolTime::getNtpTime</text>
</a>
</g>
</g>
<!-- Node98&#45;&gt;Node101 -->
<g id="edge26" class="edge"><title>Node98&#45;&gt;Node101</title>
<path fill="none" stroke="midnightblue" d="M257.969,-361.49C280.038,-353.412 312.907,-341.767 342,-333 349.855,-330.633 358.234,-328.301 366.425,-326.124"/>
<polygon fill="midnightblue" stroke="midnightblue" points="367.483,-329.466 376.276,-323.555 365.717,-322.692 367.483,-329.466"/>
</g>
<!-- Node103 -->
<g id="node27" class="node"><title>Node103</title>
<g id="a_node27"><a xlink:href="classCoolTime.html#ae9658c9b377510d469e3b88edf33ee85" target="_top" xlink:title="CoolTime::saveTimeSync">
<polygon fill="white" stroke="black" points="543.5,-380.5 543.5,-399.5 673.5,-399.5 673.5,-380.5 543.5,-380.5"/>
<text text-anchor="middle" x="608.5" y="-387.5" font-family="Helvetica,sans-Serif" font-size="10.00">CoolTime::saveTimeSync</text>
</a>
</g>
</g>
<!-- Node98&#45;&gt;Node103 -->
<g id="edge28" class="edge"><title>Node98&#45;&gt;Node103</title>
<path fill="none" stroke="midnightblue" d="M278.858,-373.349C342.398,-376.568 457.266,-382.388 532.966,-386.224"/>
<polygon fill="midnightblue" stroke="midnightblue" points="533.214,-389.741 543.379,-386.751 533.569,-382.75 533.214,-389.741"/>
</g>
<!-- Node100 -->
<g id="node24" class="node"><title>Node100</title>
<g id="a_node24"><a xlink:href="classCoolTime.html#a5d17f707a9d337720493b2bce9d41c21" target="_top" xlink:title="CoolTime::getLastSyncTime">
<polygon fill="white" stroke="black" points="538,-342.5 538,-361.5 679,-361.5 679,-342.5 538,-342.5"/>
<text text-anchor="middle" x="608.5" y="-349.5" font-family="Helvetica,sans-Serif" font-size="10.00">CoolTime::getLastSyncTime</text>
</a>
</g>
</g>
<!-- Node99&#45;&gt;Node100 -->
<g id="edge25" class="edge"><title>Node99&#45;&gt;Node100</title>
<path fill="none" stroke="midnightblue" d="M475.113,-352C491.602,-352 509.907,-352 527.514,-352"/>
<polygon fill="midnightblue" stroke="midnightblue" points="527.782,-355.5 537.782,-352 527.782,-348.5 527.782,-355.5"/>
</g>
<!-- Node102 -->
<g id="node26" class="node"><title>Node102</title>
<g id="a_node26"><a xlink:href="classCoolTime.html#a236a38d120dc53bc67456d763838c5a1" target="_top" xlink:title="CoolTime::sendNTPpacket">
<polygon fill="white" stroke="black" points="541,-304.5 541,-323.5 676,-323.5 676,-304.5 541,-304.5"/>
<text text-anchor="middle" x="608.5" y="-311.5" font-family="Helvetica,sans-Serif" font-size="10.00">CoolTime::sendNTPpacket</text>
</a>
</g>
</g>
<!-- Node101&#45;&gt;Node102 -->
<g id="edge27" class="edge"><title>Node101&#45;&gt;Node102</title>
<path fill="none" stroke="midnightblue" d="M475.113,-314C492.584,-314 512.093,-314 530.651,-314"/>
<polygon fill="midnightblue" stroke="midnightblue" points="530.845,-317.5 540.845,-314 530.844,-310.5 530.845,-317.5"/>
</g>
<!-- Node104&#45;&gt;Node83 -->
<g id="edge47" class="edge"><title>Node104&#45;&gt;Node83</title>
<path fill="none" stroke="midnightblue" d="M249.376,-608.528C266.444,-619.085 292.216,-637.732 306,-661 347.138,-730.443 286.424,-780.469 342,-839 344.98,-842.138 348.402,-844.785 352.105,-847.015"/>
<polygon fill="midnightblue" stroke="midnightblue" points="350.665,-850.207 361.181,-851.496 353.764,-843.93 350.665,-850.207"/>
</g>
<!-- Node104&#45;&gt;Node84 -->
<g id="edge46" class="edge"><title>Node104&#45;&gt;Node84</title>
<path fill="none" stroke="midnightblue" d="M280.732,-606.75C290.226,-610.307 299.306,-615.48 306,-623 359.666,-683.287 286.424,-742.469 342,-801 346.213,-805.437 351.31,-808.891 356.835,-811.574"/>
<polygon fill="midnightblue" stroke="midnightblue" points="355.873,-814.958 366.459,-815.396 358.458,-808.452 355.873,-814.958"/>
</g>
<!-- Node105 -->
<g id="node29" class="node"><title>Node105</title>
<g id="a_node29"><a xlink:href="classCoolFileSystem.html#a32dad79ae80182a83e2e8f52286b7c7b" target="_top" xlink:title="CoolFileSystem::updateConfig\lFiles">
<polygon fill="white" stroke="black" points="342,-685 342,-715 492,-715 492,-685 342,-685"/>
<text text-anchor="start" x="350" y="-703" font-family="Helvetica,sans-Serif" font-size="10.00">CoolFileSystem::updateConfig</text>
<text text-anchor="middle" x="417" y="-692" font-family="Helvetica,sans-Serif" font-size="10.00">Files</text>
</a>
</g>
</g>
<!-- Node104&#45;&gt;Node105 -->
<g id="edge30" class="edge"><title>Node104&#45;&gt;Node105</title>
<path fill="none" stroke="midnightblue" d="M277.511,-608.599C287.502,-612.072 297.605,-616.744 306,-623 328.539,-639.796 319.547,-658.089 342,-675 344.466,-676.857 347.079,-678.582 349.792,-680.183"/>
<polygon fill="midnightblue" stroke="midnightblue" points="348.266,-683.335 358.747,-684.886 351.521,-677.137 348.266,-683.335"/>
</g>
<!-- Node106 -->
<g id="node30" class="node"><title>Node106</title>
<g id="a_node30"><a xlink:href="classCoolBoard.html#a583a874c09c07e70a6eb9229fc4beddb" target="_top" xlink:title="CoolBoard::config">
<polygon fill="white" stroke="black" points="369.5,-646.5 369.5,-665.5 464.5,-665.5 464.5,-646.5 369.5,-646.5"/>
<text text-anchor="middle" x="417" y="-653.5" font-family="Helvetica,sans-Serif" font-size="10.00">CoolBoard::config</text>
</a>
</g>
</g>
<!-- Node104&#45;&gt;Node106 -->
<g id="edge31" class="edge"><title>Node104&#45;&gt;Node106</title>
<path fill="none" stroke="midnightblue" d="M263.024,-608.55C276.287,-612.807 291.969,-617.985 306,-623 322.166,-628.778 325.657,-631.745 342,-637 349.458,-639.398 357.413,-641.701 365.24,-643.825"/>
<polygon fill="midnightblue" stroke="midnightblue" points="364.475,-647.243 375.038,-646.413 366.263,-640.475 364.475,-647.243"/>
</g>
<!-- Node108 -->
<g id="node32" class="node"><title>Node108</title>
<g id="a_node32"><a xlink:href="classCoolBoardSensors.html#a9a218895c5423375c33c08f2c56fb23a" target="_top" xlink:title="CoolBoardSensors::config">
<polygon fill="white" stroke="black" points="351.5,-608.5 351.5,-627.5 482.5,-627.5 482.5,-608.5 351.5,-608.5"/>
<text text-anchor="middle" x="417" y="-615.5" font-family="Helvetica,sans-Serif" font-size="10.00">CoolBoardSensors::config</text>
</a>
</g>
</g>
<!-- Node104&#45;&gt;Node108 -->
<g id="edge33" class="edge"><title>Node104&#45;&gt;Node108</title>
<path fill="none" stroke="midnightblue" d="M280.712,-603.992C299.153,-605.901 320.648,-608.127 341.004,-610.235"/>
<polygon fill="midnightblue" stroke="midnightblue" points="340.897,-613.742 351.204,-611.291 341.618,-606.779 340.897,-613.742"/>
</g>
<!-- Node109 -->
<g id="node33" class="node"><title>Node109</title>
<g id="a_node33"><a xlink:href="classCoolTime.html#a87c28260c1bc77091162cbcf1ee2e129" target="_top" xlink:title="CoolTime::config">
<polygon fill="white" stroke="black" points="371.5,-418.5 371.5,-437.5 462.5,-437.5 462.5,-418.5 371.5,-418.5"/>
<text text-anchor="middle" x="417" y="-425.5" font-family="Helvetica,sans-Serif" font-size="10.00">CoolTime::config</text>
</a>
</g>
</g>
<!-- Node104&#45;&gt;Node109 -->
<g id="edge34" class="edge"><title>Node104&#45;&gt;Node109</title>
<path fill="none" stroke="midnightblue" d="M236.54,-589.386C248.401,-562.382 285.857,-485.32 342,-447 347.95,-442.939 354.706,-439.746 361.659,-437.235"/>
<polygon fill="midnightblue" stroke="midnightblue" points="362.724,-440.569 371.204,-434.217 360.614,-433.895 362.724,-440.569"/>
</g>
<!-- Node112 -->
<g id="node36" class="node"><title>Node112</title>
<g id="a_node36"><a xlink:href="classCoolBoardLed.html#a1b60e5e30bea96c49ed62ed1bf1ffc8b" target="_top" xlink:title="CoolBoardLed::config">
<polygon fill="white" stroke="black" points="362,-532.5 362,-551.5 472,-551.5 472,-532.5 362,-532.5"/>
<text text-anchor="middle" x="417" y="-539.5" font-family="Helvetica,sans-Serif" font-size="10.00">CoolBoardLed::config</text>
</a>
</g>
</g>
<!-- Node104&#45;&gt;Node112 -->
<g id="edge38" class="edge"><title>Node104&#45;&gt;Node112</title>
<path fill="none" stroke="midnightblue" d="M257.969,-589.49C280.038,-581.412 312.907,-569.767 342,-561 349.855,-558.633 358.234,-556.301 366.425,-554.124"/>
<polygon fill="midnightblue" stroke="midnightblue" points="367.483,-557.466 376.276,-551.555 365.717,-550.692 367.483,-557.466"/>
</g>
<!-- Node113 -->
<g id="node37" class="node"><title>Node113</title>
<g id="a_node37"><a xlink:href="classCoolMQTT.html#a9b703de4f1358f0ee7a5e8c44979c648" target="_top" xlink:title="CoolMQTT::config">
<polygon fill="white" stroke="black" points="368.5,-494.5 368.5,-513.5 465.5,-513.5 465.5,-494.5 368.5,-494.5"/>
<text text-anchor="middle" x="417" y="-501.5" font-family="Helvetica,sans-Serif" font-size="10.00">CoolMQTT::config</text>
</a>
</g>
</g>
<!-- Node104&#45;&gt;Node113 -->
<g id="edge39" class="edge"><title>Node104&#45;&gt;Node113</title>
<path fill="none" stroke="midnightblue" d="M243.5,-589.336C262.36,-573.256 302.649,-541.001 342,-523 347.332,-520.561 353.028,-518.398 358.805,-516.488"/>
<polygon fill="midnightblue" stroke="midnightblue" points="360.012,-519.779 368.552,-513.509 357.966,-513.085 360.012,-519.779"/>
</g>
<!-- Node114 -->
<g id="node38" class="node"><title>Node114</title>
<g id="a_node38"><a xlink:href="classJetpack.html#ab065ee83e244265a2223a22f3ee4a719" target="_top" xlink:title="Jetpack::config">
<polygon fill="white" stroke="black" points="375.5,-456.5 375.5,-475.5 458.5,-475.5 458.5,-456.5 375.5,-456.5"/>
<text text-anchor="middle" x="417" y="-463.5" font-family="Helvetica,sans-Serif" font-size="10.00">Jetpack::config</text>
</a>
</g>
</g>
<!-- Node104&#45;&gt;Node114 -->
<g id="edge40" class="edge"><title>Node104&#45;&gt;Node114</title>
<path fill="none" stroke="midnightblue" d="M238.895,-589.326C254.028,-567.227 294.364,-512.81 342,-485 349.166,-480.816 357.25,-477.543 365.374,-474.984"/>
<polygon fill="midnightblue" stroke="midnightblue" points="366.567,-478.284 375.244,-472.205 364.67,-471.546 366.567,-478.284"/>
</g>
<!-- Node115 -->
<g id="node39" class="node"><title>Node115</title>
<g id="a_node39"><a xlink:href="classIrene3000.html#afed5c35e4b23963c157847ef27c11e9c" target="_top" xlink:title="Irene3000::config">
<polygon fill="white" stroke="black" points="371,-570.5 371,-589.5 463,-589.5 463,-570.5 371,-570.5"/>
<text text-anchor="middle" x="417" y="-577.5" font-family="Helvetica,sans-Serif" font-size="10.00">Irene3000::config</text>
</a>
</g>
</g>
<!-- Node104&#45;&gt;Node115 -->
<g id="edge41" class="edge"><title>Node104&#45;&gt;Node115</title>
<path fill="none" stroke="midnightblue" d="M280.712,-594.008C305.258,-591.466 335.215,-588.365 360.695,-585.726"/>
<polygon fill="midnightblue" stroke="midnightblue" points="361.359,-589.176 370.946,-584.665 360.638,-582.214 361.359,-589.176"/>
</g>
<!-- Node117 -->
<g id="node41" class="node"><title>Node117</title>
<g id="a_node41"><a xlink:href="classExternalSensors.html#a862a4bd11346b37270d0244c2adabe5a" target="_top" xlink:title="ExternalSensors::config">
<polygon fill="white" stroke="black" points="356.5,-772.5 356.5,-791.5 477.5,-791.5 477.5,-772.5 356.5,-772.5"/>
<text text-anchor="middle" x="417" y="-779.5" font-family="Helvetica,sans-Serif" font-size="10.00">ExternalSensors::config</text>
</a>
</g>
</g>
<!-- Node104&#45;&gt;Node117 -->
<g id="edge43" class="edge"><title>Node104&#45;&gt;Node117</title>
<path fill="none" stroke="midnightblue" d="M280.822,-607.158C290.196,-610.693 299.204,-615.755 306,-623 349.954,-669.858 296.563,-717.579 342,-763 343.677,-764.676 345.48,-766.211 347.384,-767.616"/>
<polygon fill="midnightblue" stroke="midnightblue" points="345.926,-770.823 356.298,-772.98 349.535,-764.825 345.926,-770.823"/>
</g>
<!-- Node118 -->
<g id="node42" class="node"><title>Node118</title>
<g id="a_node42"><a xlink:href="classCoolMQTT.html#ac9248808641ebf3054ed0620ea9d0100" target="_top" xlink:title="CoolMQTT::begin">
<polygon fill="white" stroke="black" points="370,-734.5 370,-753.5 464,-753.5 464,-734.5 370,-734.5"/>
<text text-anchor="middle" x="417" y="-741.5" font-family="Helvetica,sans-Serif" font-size="10.00">CoolMQTT::begin</text>
</a>
</g>
</g>
<!-- Node104&#45;&gt;Node118 -->
<g id="edge44" class="edge"><title>Node104&#45;&gt;Node118</title>
<path fill="none" stroke="midnightblue" d="M280.732,-607.763C290,-611.26 298.989,-616.153 306,-623 340.394,-656.589 306.545,-692.534 342,-725 347.192,-729.755 353.413,-733.354 360.011,-736.074"/>
<polygon fill="midnightblue" stroke="midnightblue" points="359.28,-739.523 369.875,-739.46 361.553,-732.902 359.28,-739.523"/>
</g>
<!-- Node107 -->
<g id="node31" class="node"><title>Node107</title>
<g id="a_node31"><a xlink:href="classCoolFileSystem.html#a6ba6f666ed4c530174f8569d2c636748" target="_top" xlink:title="CoolFileSystem::begin">
<polygon fill="white" stroke="black" points="550.5,-646.5 550.5,-665.5 666.5,-665.5 666.5,-646.5 550.5,-646.5"/>
<text text-anchor="middle" x="608.5" y="-653.5" font-family="Helvetica,sans-Serif" font-size="10.00">CoolFileSystem::begin</text>
</a>
</g>
</g>
<!-- Node106&#45;&gt;Node107 -->
<g id="edge32" class="edge"><title>Node106&#45;&gt;Node107</title>
<path fill="none" stroke="midnightblue" d="M464.843,-656C487.577,-656 515.304,-656 540.248,-656"/>
<polygon fill="midnightblue" stroke="midnightblue" points="540.379,-659.5 550.379,-656 540.379,-652.5 540.379,-659.5"/>
</g>
<!-- Node109&#45;&gt;Node103 -->
<g id="edge35" class="edge"><title>Node109&#45;&gt;Node103</title>
<path fill="none" stroke="midnightblue" d="M462.909,-418.995C488.935,-413.775 521.976,-407.15 549.901,-401.55"/>
<polygon fill="midnightblue" stroke="midnightblue" points="550.819,-404.936 559.935,-399.538 549.442,-398.073 550.819,-404.936"/>
</g>
<!-- Node110 -->
<g id="node34" class="node"><title>Node110</title>
<g id="a_node34"><a xlink:href="classCoolTime.html#af355e7f9b3898211cd2ff25eab5933b1" target="_top" xlink:title="CoolTime::printConf">
<polygon fill="white" stroke="black" points="556.5,-456.5 556.5,-475.5 660.5,-475.5 660.5,-456.5 556.5,-456.5"/>
<text text-anchor="middle" x="608.5" y="-463.5" font-family="Helvetica,sans-Serif" font-size="10.00">CoolTime::printConf</text>
</a>
</g>
</g>
<!-- Node109&#45;&gt;Node110 -->
<g id="edge36" class="edge"><title>Node109&#45;&gt;Node110</title>
<path fill="none" stroke="midnightblue" d="M462.909,-437.005C488.935,-442.225 521.976,-448.85 549.901,-454.45"/>
<polygon fill="midnightblue" stroke="midnightblue" points="549.442,-457.927 559.935,-456.462 550.819,-451.064 549.442,-457.927"/>
</g>
<!-- Node111 -->
<g id="node35" class="node"><title>Node111</title>
<g id="a_node35"><a xlink:href="classCoolTime.html#acd537cd4210d7bde4e1f5c47d2ac0456" target="_top" xlink:title="CoolTime::formatDigits">
<polygon fill="white" stroke="black" points="725,-266.5 725,-285.5 843,-285.5 843,-266.5 725,-266.5"/>
<text text-anchor="middle" x="784" y="-273.5" font-family="Helvetica,sans-Serif" font-size="10.00">CoolTime::formatDigits</text>
</a>
</g>
</g>
<!-- Node109&#45;&gt;Node111 -->
<g id="edge37" class="edge"><title>Node109&#45;&gt;Node111</title>
<path fill="none" stroke="midnightblue" d="M462.567,-435.927C519.136,-443.633 617.9,-449.029 689,-409 734.623,-383.314 763.426,-325.203 775.872,-295.012"/>
<polygon fill="midnightblue" stroke="midnightblue" points="779.172,-296.183 779.592,-285.597 772.662,-293.61 779.172,-296.183"/>
</g>
<!-- Node116 -->
<g id="node40" class="node"><title>Node116</title>
<g id="a_node40"><a xlink:href="classIrene3000.html#abcad62d1201a59f8dd3ba87048002728" target="_top" xlink:title="Irene3000::gainConvert">
<polygon fill="white" stroke="black" points="549.5,-570.5 549.5,-589.5 667.5,-589.5 667.5,-570.5 549.5,-570.5"/>
<text text-anchor="middle" x="608.5" y="-577.5" font-family="Helvetica,sans-Serif" font-size="10.00">Irene3000::gainConvert</text>
</a>
</g>
</g>
<!-- Node115&#45;&gt;Node116 -->
<g id="edge42" class="edge"><title>Node115&#45;&gt;Node116</title>
<path fill="none" stroke="midnightblue" d="M463.39,-580C486.006,-580 513.826,-580 538.973,-580"/>
<polygon fill="midnightblue" stroke="midnightblue" points="539.193,-583.5 549.193,-580 539.193,-576.5 539.193,-583.5"/>
</g>
<!-- Node119 -->
<g id="node43" class="node"><title>Node119</title>
<g id="a_node43"><a xlink:href="classCoolMQTT.html#a30d82ad665bfb603f46ecdbc290775df" target="_top" xlink:title="CoolMQTT::callback">
<polygon fill="white" stroke="black" points="555,-734.5 555,-753.5 662,-753.5 662,-734.5 555,-734.5"/>
<text text-anchor="middle" x="608.5" y="-741.5" font-family="Helvetica,sans-Serif" font-size="10.00">CoolMQTT::callback</text>
</a>
</g>
</g>
<!-- Node118&#45;&gt;Node119 -->
<g id="edge45" class="edge"><title>Node118&#45;&gt;Node119</title>
<path fill="none" stroke="midnightblue" d="M464.357,-744C488.54,-744 518.472,-744 544.704,-744"/>
<polygon fill="midnightblue" stroke="midnightblue" points="544.932,-747.5 554.932,-744 544.932,-740.5 544.932,-747.5"/>
</g>
<!-- Node121 -->
<g id="node45" class="node"><title>Node121</title>
<g id="a_node45"><a xlink:href="classCoolMQTT.html#a373cc92fca7760d886f02d8a6e5b3f63" target="_top" xlink:title="CoolMQTT::getUser">
<polygon fill="white" stroke="black" points="364.5,-228.5 364.5,-247.5 469.5,-247.5 469.5,-228.5 364.5,-228.5"/>
<text text-anchor="middle" x="417" y="-235.5" font-family="Helvetica,sans-Serif" font-size="10.00">CoolMQTT::getUser</text>
</a>
</g>
</g>
<!-- Node120&#45;&gt;Node121 -->
<g id="edge49" class="edge"><title>Node120&#45;&gt;Node121</title>
<path fill="none" stroke="midnightblue" d="M276.17,-285.496C286.115,-282.842 296.536,-279.663 306,-276 322.872,-269.47 325.123,-263.516 342,-257 348.318,-254.56 355.06,-252.338 361.805,-250.344"/>
<polygon fill="midnightblue" stroke="midnightblue" points="362.958,-253.656 371.641,-247.585 361.067,-246.916 362.958,-253.656"/>
</g>
<!-- Node122 -->
<g id="node46" class="node"><title>Node122</title>
<g id="a_node46"><a xlink:href="classCoolTime.html#ac4f32ee513c1328d984306645e8785a4" target="_top" xlink:title="CoolTime::getESDate">
<polygon fill="white" stroke="black" points="360.5,-266.5 360.5,-285.5 473.5,-285.5 473.5,-266.5 360.5,-266.5"/>
<text text-anchor="middle" x="417" y="-273.5" font-family="Helvetica,sans-Serif" font-size="10.00">CoolTime::getESDate</text>
</a>
</g>
</g>
<!-- Node120&#45;&gt;Node122 -->
<g id="edge50" class="edge"><title>Node120&#45;&gt;Node122</title>
<path fill="none" stroke="midnightblue" d="M285.576,-289.504C305.862,-287.404 329.235,-284.984 350.542,-282.778"/>
<polygon fill="midnightblue" stroke="midnightblue" points="350.902,-286.259 360.489,-281.748 350.181,-279.296 350.902,-286.259"/>
</g>
<!-- Node122&#45;&gt;Node111 -->
<g id="edge53" class="edge"><title>Node122&#45;&gt;Node111</title>
<path fill="none" stroke="midnightblue" d="M473.833,-276C538.416,-276 644.76,-276 714.343,-276"/>
<polygon fill="midnightblue" stroke="midnightblue" points="714.758,-279.5 724.758,-276 714.758,-272.5 714.758,-279.5"/>
</g>
<!-- Node123 -->
<g id="node47" class="node"><title>Node123</title>
<g id="a_node47"><a xlink:href="classCoolTime.html#a7a7501c5ca77dd1248bea704c44f986c" target="_top" xlink:title="CoolTime::getTimeDate">
<polygon fill="white" stroke="black" points="548,-228.5 548,-247.5 669,-247.5 669,-228.5 548,-228.5"/>
<text text-anchor="middle" x="608.5" y="-235.5" font-family="Helvetica,sans-Serif" font-size="10.00">CoolTime::getTimeDate</text>
</a>
</g>
</g>
<!-- Node122&#45;&gt;Node123 -->
<g id="edge51" class="edge"><title>Node122&#45;&gt;Node123</title>
<path fill="none" stroke="midnightblue" d="M465.819,-266.411C491.389,-261.284 523.059,-254.933 549.968,-249.537"/>
<polygon fill="midnightblue" stroke="midnightblue" points="550.908,-252.918 560.025,-247.52 549.532,-246.055 550.908,-252.918"/>
</g>
<!-- Node123&#45;&gt;Node111 -->
<g id="edge52" class="edge"><title>Node123&#45;&gt;Node111</title>
<path fill="none" stroke="midnightblue" d="M653.281,-247.589C676.486,-252.671 705.178,-258.955 729.673,-264.32"/>
<polygon fill="midnightblue" stroke="midnightblue" points="729.016,-267.759 739.533,-266.48 730.514,-260.921 729.016,-267.759"/>
</g>
</g>
</svg>
