<?xml version="1.0" encoding="UTF-8" standalone="no"?>
<!DOCTYPE svg PUBLIC "-//W3C//DTD SVG 1.1//EN"
 "http://www.w3.org/Graphics/SVG/1.1/DTD/svg11.dtd">
<!-- Generated by graphviz version 2.38.0 (20140413.2041)
 -->
<!-- Title: CoolBoard Pages: 1 -->
<svg width="1071pt" height="975pt"
 viewBox="0.00 0.00 1070.50 975.00" xmlns="http://www.w3.org/2000/svg" xmlns:xlink="http://www.w3.org/1999/xlink">
<g id="graph0" class="graph" transform="scale(1 1) rotate(0) translate(4 971)">
<title>CoolBoard</title>
<polygon fill="white" stroke="none" points="-4,4 -4,-971 1066.5,-971 1066.5,4 -4,4"/>
<!-- Node1 -->
<g id="node1" class="node"><title>Node1</title>
<polygon fill="#bfbfbf" stroke="black" points="448,-0.5 448,-310.5 569,-310.5 569,-0.5 448,-0.5"/>
<text text-anchor="middle" x="508.5" y="-298.5" font-family="Helvetica,sans-Serif" font-size="10.00">CoolBoard</text>
<polyline fill="none" stroke="black" points="448,-291.5 569,-291.5 "/>
<text text-anchor="start" x="456" y="-279.5" font-family="Helvetica,sans-Serif" font-size="10.00">&#45; userActive</text>
<text text-anchor="start" x="456" y="-268.5" font-family="Helvetica,sans-Serif" font-size="10.00">&#45; ireneActive</text>
<text text-anchor="start" x="456" y="-257.5" font-family="Helvetica,sans-Serif" font-size="10.00">&#45; jetpackActive</text>
<text text-anchor="start" x="456" y="-246.5" font-family="Helvetica,sans-Serif" font-size="10.00">&#45; externalSensorsActive</text>
<text text-anchor="start" x="456" y="-235.5" font-family="Helvetica,sans-Serif" font-size="10.00">&#45; sleepActive</text>
<text text-anchor="start" x="456" y="-224.5" font-family="Helvetica,sans-Serif" font-size="10.00">&#45; logInterval</text>
<text text-anchor="start" x="456" y="-213.5" font-family="Helvetica,sans-Serif" font-size="10.00">&#45; serverTimeOut</text>
<text text-anchor="start" x="456" y="-202.5" font-family="Helvetica,sans-Serif" font-size="10.00">&#45; data</text>
<text text-anchor="start" x="456" y="-191.5" font-family="Helvetica,sans-Serif" font-size="10.00">&#45; answer</text>
<text text-anchor="start" x="456" y="-180.5" font-family="Helvetica,sans-Serif" font-size="10.00">&#45; EnI2C</text>
<polyline fill="none" stroke="black" points="448,-173.5 569,-173.5 "/>
<text text-anchor="start" x="456" y="-161.5" font-family="Helvetica,sans-Serif" font-size="10.00">+ CoolBoard()</text>
<text text-anchor="start" x="456" y="-150.5" font-family="Helvetica,sans-Serif" font-size="10.00">+ begin()</text>
<text text-anchor="start" x="456" y="-139.5" font-family="Helvetica,sans-Serif" font-size="10.00">+ config()</text>
<text text-anchor="start" x="456" y="-128.5" font-family="Helvetica,sans-Serif" font-size="10.00">+ update()</text>
<text text-anchor="start" x="456" y="-117.5" font-family="Helvetica,sans-Serif" font-size="10.00">+ offLineMode()</text>
<text text-anchor="start" x="456" y="-106.5" font-family="Helvetica,sans-Serif" font-size="10.00">+ onLineMode()</text>
<text text-anchor="start" x="456" y="-95.5" font-family="Helvetica,sans-Serif" font-size="10.00">+ connect()</text>
<text text-anchor="start" x="456" y="-84.5" font-family="Helvetica,sans-Serif" font-size="10.00">+ isConnected()</text>
<text text-anchor="start" x="456" y="-73.5" font-family="Helvetica,sans-Serif" font-size="10.00">+ getLogInterval()</text>
<text text-anchor="start" x="456" y="-62.5" font-family="Helvetica,sans-Serif" font-size="10.00">+ printConf()</text>
<text text-anchor="start" x="456" y="-51.5" font-family="Helvetica,sans-Serif" font-size="10.00">+ sleep()</text>
<text text-anchor="start" x="456" y="-40.5" font-family="Helvetica,sans-Serif" font-size="10.00">+ readSensors()</text>
<text text-anchor="start" x="456" y="-29.5" font-family="Helvetica,sans-Serif" font-size="10.00">+ initReadI2C()</text>
<text text-anchor="start" x="456" y="-18.5" font-family="Helvetica,sans-Serif" font-size="10.00">+ stopReadI2C()</text>
<text text-anchor="start" x="456" y="-7.5" font-family="Helvetica,sans-Serif" font-size="10.00">+ userData()</text>
</g>
<!-- Node2 -->
<g id="node2" class="node"><title>Node2</title>
<g id="a_node2"><a xlink:href="classCoolMQTT.html" target="_top" xlink:title="This class handles the mqtt client. ">
<polygon fill="white" stroke="black" points="0,-358.5 0,-635.5 97,-635.5 97,-358.5 0,-358.5"/>
<text text-anchor="middle" x="48.5" y="-623.5" font-family="Helvetica,sans-Serif" font-size="10.00">CoolMQTT</text>
<polyline fill="none" stroke="black" points="0,-616.5 97,-616.5 "/>
<text text-anchor="start" x="8" y="-604.5" font-family="Helvetica,sans-Serif" font-size="10.00">&#45; mqttServer</text>
<text text-anchor="start" x="8" y="-593.5" font-family="Helvetica,sans-Serif" font-size="10.00">&#45; msg</text>
<text text-anchor="start" x="8" y="-582.5" font-family="Helvetica,sans-Serif" font-size="10.00">&#45; inTopic</text>
<text text-anchor="start" x="8" y="-571.5" font-family="Helvetica,sans-Serif" font-size="10.00">&#45; outTopic</text>
<text text-anchor="start" x="8" y="-560.5" font-family="Helvetica,sans-Serif" font-size="10.00">&#45; user</text>
<text text-anchor="start" x="8" y="-549.5" font-family="Helvetica,sans-Serif" font-size="10.00">&#45; bufferSize</text>
<text text-anchor="start" x="8" y="-538.5" font-family="Helvetica,sans-Serif" font-size="10.00">&#45; espClient</text>
<text text-anchor="start" x="8" y="-527.5" font-family="Helvetica,sans-Serif" font-size="10.00">&#45; client</text>
<text text-anchor="start" x="8" y="-516.5" font-family="Helvetica,sans-Serif" font-size="10.00">&#45; newMsg</text>
<text text-anchor="start" x="8" y="-505.5" font-family="Helvetica,sans-Serif" font-size="10.00">&#45; previousLogTime</text>
<polyline fill="none" stroke="black" points="0,-498.5 97,-498.5 "/>
<text text-anchor="start" x="8" y="-486.5" font-family="Helvetica,sans-Serif" font-size="10.00">+ begin()</text>
<text text-anchor="start" x="8" y="-475.5" font-family="Helvetica,sans-Serif" font-size="10.00">+ connect()</text>
<text text-anchor="start" x="8" y="-464.5" font-family="Helvetica,sans-Serif" font-size="10.00">+ publish()</text>
<text text-anchor="start" x="8" y="-453.5" font-family="Helvetica,sans-Serif" font-size="10.00">+ publish()</text>
<text text-anchor="start" x="8" y="-442.5" font-family="Helvetica,sans-Serif" font-size="10.00">+ read()</text>
<text text-anchor="start" x="8" y="-431.5" font-family="Helvetica,sans-Serif" font-size="10.00">+ config()</text>
<text text-anchor="start" x="8" y="-420.5" font-family="Helvetica,sans-Serif" font-size="10.00">+ config()</text>
<text text-anchor="start" x="8" y="-409.5" font-family="Helvetica,sans-Serif" font-size="10.00">+ callback()</text>
<text text-anchor="start" x="8" y="-398.5" font-family="Helvetica,sans-Serif" font-size="10.00">+ printConf()</text>
<text text-anchor="start" x="8" y="-387.5" font-family="Helvetica,sans-Serif" font-size="10.00">+ state()</text>
<text text-anchor="start" x="8" y="-376.5" font-family="Helvetica,sans-Serif" font-size="10.00">+ mqttLoop()</text>
<text text-anchor="start" x="8" y="-365.5" font-family="Helvetica,sans-Serif" font-size="10.00">+ getUser()</text>
</a>
</g>
</g>
<!-- Node2&#45;&gt;Node1 -->
<g id="edge1" class="edge"><title>Node2&#45;&gt;Node1</title>
<path fill="none" stroke="#404040" d="M97.1548,-369.124C100.103,-365.236 103.216,-361.511 106.5,-358 198.113,-260.057 347.794,-202.826 436.357,-175.773"/>
<polygon fill="none" stroke="#404040" points="436.411,-175.757 441.009,-170.202 447.905,-172.31 443.307,-177.865 436.411,-175.757"/>
<text text-anchor="middle" x="145.5" y="-332" font-family="Helvetica,sans-Serif" font-size="10.00"> &#45;mqtt</text>
</g>
<!-- Node3 -->
<g id="node3" class="node"><title>Node3</title>
<g id="a_node3"><a xlink:href="classCoolWifi.html" target="_top" xlink:title="This class manages the WiFi connection . ">
<polygon fill="white" stroke="black" points="115.5,-397 115.5,-597 219.5,-597 219.5,-397 115.5,-397"/>
<text text-anchor="middle" x="167.5" y="-585" font-family="Helvetica,sans-Serif" font-size="10.00">CoolWifi</text>
<polyline fill="none" stroke="black" points="115.5,-578 219.5,-578 "/>
<text text-anchor="start" x="123.5" y="-566" font-family="Helvetica,sans-Serif" font-size="10.00">&#45; wifiMulti</text>
<text text-anchor="start" x="123.5" y="-555" font-family="Helvetica,sans-Serif" font-size="10.00">&#45; wifiCount</text>
<text text-anchor="start" x="123.5" y="-544" font-family="Helvetica,sans-Serif" font-size="10.00">&#45; ssid</text>
<text text-anchor="start" x="123.5" y="-533" font-family="Helvetica,sans-Serif" font-size="10.00">&#45; pass</text>
<text text-anchor="start" x="123.5" y="-522" font-family="Helvetica,sans-Serif" font-size="10.00">&#45; timeOut</text>
<text text-anchor="start" x="123.5" y="-511" font-family="Helvetica,sans-Serif" font-size="10.00">&#45; nomad</text>
<polyline fill="none" stroke="black" points="115.5,-504 219.5,-504 "/>
<text text-anchor="start" x="123.5" y="-492" font-family="Helvetica,sans-Serif" font-size="10.00">+ begin()</text>
<text text-anchor="start" x="123.5" y="-481" font-family="Helvetica,sans-Serif" font-size="10.00">+ config()</text>
<text text-anchor="start" x="123.5" y="-470" font-family="Helvetica,sans-Serif" font-size="10.00">+ config()</text>
<text text-anchor="start" x="123.5" y="-459" font-family="Helvetica,sans-Serif" font-size="10.00">+ connect()</text>
<text text-anchor="start" x="123.5" y="-448" font-family="Helvetica,sans-Serif" font-size="10.00">+ connectWifiMulti()</text>
<text text-anchor="start" x="123.5" y="-437" font-family="Helvetica,sans-Serif" font-size="10.00">+ connectAP()</text>
<text text-anchor="start" x="123.5" y="-426" font-family="Helvetica,sans-Serif" font-size="10.00">+ state()</text>
<text text-anchor="start" x="123.5" y="-415" font-family="Helvetica,sans-Serif" font-size="10.00">+ printConf()</text>
<text text-anchor="start" x="123.5" y="-404" font-family="Helvetica,sans-Serif" font-size="10.00">+ addWifi()</text>
</a>
</g>
</g>
<!-- Node3&#45;&gt;Node1 -->
<g id="edge2" class="edge"><title>Node3&#45;&gt;Node1</title>
<path fill="none" stroke="#404040" d="M203.534,-396.855C210.706,-383.101 219.01,-369.696 228.5,-358 286.374,-286.667 375.408,-228.48 437.489,-193.292"/>
<polygon fill="none" stroke="#404040" points="437.511,-193.28 440.793,-186.858 447.982,-187.418 444.701,-193.839 437.511,-193.28"/>
<text text-anchor="middle" x="283" y="-332" font-family="Helvetica,sans-Serif" font-size="10.00"> &#45;wifiManager</text>
</g>
<!-- Node4 -->
<g id="node4" class="node"><title>Node4</title>
<g id="a_node4"><a xlink:href="classCoolBoardLed.html" target="_top" xlink:title="This class handles the led in the Sensor Board. ">
<polygon fill="white" stroke="black" points="237.5,-413.5 237.5,-580.5 315.5,-580.5 315.5,-413.5 237.5,-413.5"/>
<text text-anchor="middle" x="276.5" y="-568.5" font-family="Helvetica,sans-Serif" font-size="10.00">CoolBoardLed</text>
<polyline fill="none" stroke="black" points="237.5,-561.5 315.5,-561.5 "/>
<text text-anchor="start" x="245.5" y="-549.5" font-family="Helvetica,sans-Serif" font-size="10.00">&#45; neoPixelLed</text>
<text text-anchor="start" x="245.5" y="-538.5" font-family="Helvetica,sans-Serif" font-size="10.00">&#45; ledActive</text>
<polyline fill="none" stroke="black" points="237.5,-531.5 315.5,-531.5 "/>
<text text-anchor="start" x="245.5" y="-519.5" font-family="Helvetica,sans-Serif" font-size="10.00">+ begin()</text>
<text text-anchor="start" x="245.5" y="-508.5" font-family="Helvetica,sans-Serif" font-size="10.00">+ write()</text>
<text text-anchor="start" x="245.5" y="-497.5" font-family="Helvetica,sans-Serif" font-size="10.00">+ end()</text>
<text text-anchor="start" x="245.5" y="-486.5" font-family="Helvetica,sans-Serif" font-size="10.00">+ config()</text>
<text text-anchor="start" x="245.5" y="-475.5" font-family="Helvetica,sans-Serif" font-size="10.00">+ printConf()</text>
<text text-anchor="start" x="245.5" y="-464.5" font-family="Helvetica,sans-Serif" font-size="10.00">+ fade()</text>
<text text-anchor="start" x="245.5" y="-453.5" font-family="Helvetica,sans-Serif" font-size="10.00">+ blink()</text>
<text text-anchor="start" x="245.5" y="-442.5" font-family="Helvetica,sans-Serif" font-size="10.00">+ fadeIn()</text>
<text text-anchor="start" x="245.5" y="-431.5" font-family="Helvetica,sans-Serif" font-size="10.00">+ fadeOut()</text>
<text text-anchor="start" x="245.5" y="-420.5" font-family="Helvetica,sans-Serif" font-size="10.00">+ strobe()</text>
</a>
</g>
</g>
<!-- Node4&#45;&gt;Node1 -->
<g id="edge3" class="edge"><title>Node4&#45;&gt;Node1</title>
<path fill="none" stroke="#404040" d="M299.158,-413.279C305.96,-394.447 314.372,-374.997 324.5,-358 355.257,-306.384 400.702,-256.454 438.731,-219.208"/>
<polygon fill="none" stroke="#404040" points="439.103,-218.848 440.63,-211.8 447.723,-210.5 446.196,-217.547 439.103,-218.848"/>
<text text-anchor="middle" x="373.5" y="-332" font-family="Helvetica,sans-Serif" font-size="10.00"> &#45;coolBoardLed</text>
</g>
<!-- Node5 -->
<g id="node5" class="node"><title>Node5</title>
<g id="a_node5"><a xlink:href="classExternalSensors.html" target="_top" xlink:title="This class handles the external sensors run time defintion , configuartion and actions. ">
<polygon fill="white" stroke="black" points="333.5,-452 333.5,-542 425.5,-542 425.5,-452 333.5,-452"/>
<text text-anchor="middle" x="379.5" y="-530" font-family="Helvetica,sans-Serif" font-size="10.00">ExternalSensors</text>
<polyline fill="none" stroke="black" points="333.5,-523 425.5,-523 "/>
<text text-anchor="start" x="341.5" y="-511" font-family="Helvetica,sans-Serif" font-size="10.00">&#45; sensorsNumber</text>
<polyline fill="none" stroke="black" points="333.5,-504 425.5,-504 "/>
<text text-anchor="start" x="341.5" y="-492" font-family="Helvetica,sans-Serif" font-size="10.00">+ begin()</text>
<text text-anchor="start" x="341.5" y="-481" font-family="Helvetica,sans-Serif" font-size="10.00">+ read()</text>
<text text-anchor="start" x="341.5" y="-470" font-family="Helvetica,sans-Serif" font-size="10.00">+ config()</text>
<text text-anchor="start" x="341.5" y="-459" font-family="Helvetica,sans-Serif" font-size="10.00">+ printConf()</text>
</a>
</g>
</g>
<!-- Node5&#45;&gt;Node1 -->
<g id="edge4" class="edge"><title>Node5&#45;&gt;Node1</title>
<path fill="none" stroke="#404040" d="M390.159,-451.779C398.85,-417.753 412.167,-369.805 427.5,-329 432.226,-316.424 437.49,-303.498 443.003,-290.649"/>
<polygon fill="none" stroke="#404040" points="443.116,-290.39 441.843,-283.292 447.905,-279.388 449.178,-286.485 443.116,-290.39"/>
<text text-anchor="middle" x="466" y="-332" font-family="Helvetica,sans-Serif" font-size="10.00"> &#45;externalSensors</text>
</g>
<!-- Node6 -->
<g id="node6" class="node"><title>Node6</title>
<g id="a_node6"><a xlink:href="structExternalSensors_1_1sensor.html" target="_top" xlink:title="{ExternalSensors::sensor\n|+ reference\l+ type\l+ address\l|}">
<polygon fill="white" stroke="black" points="131.5,-733 131.5,-812 255.5,-812 255.5,-733 131.5,-733"/>
<text text-anchor="middle" x="193.5" y="-800" font-family="Helvetica,sans-Serif" font-size="10.00">ExternalSensors::sensor</text>
<polyline fill="none" stroke="black" points="131.5,-793 255.5,-793 "/>
<text text-anchor="start" x="139.5" y="-781" font-family="Helvetica,sans-Serif" font-size="10.00">+ reference</text>
<text text-anchor="start" x="139.5" y="-770" font-family="Helvetica,sans-Serif" font-size="10.00">+ type</text>
<text text-anchor="start" x="139.5" y="-759" font-family="Helvetica,sans-Serif" font-size="10.00">+ address</text>
<polyline fill="none" stroke="black" points="131.5,-752 255.5,-752 "/>
<text text-anchor="middle" x="193.5" y="-740" font-family="Helvetica,sans-Serif" font-size="10.00"> </text>
</a>
</g>
</g>
<!-- Node6&#45;&gt;Node5 -->
<g id="edge5" class="edge"><title>Node6&#45;&gt;Node5</title>
<path fill="none" stroke="#404040" d="M234.11,-732.921C267.348,-700.737 310.999,-656.884 324.5,-636 340.831,-610.737 353.698,-579.848 362.867,-553.704"/>
<polygon fill="none" stroke="#404040" points="362.962,-553.426 361.103,-546.458 366.819,-542.063 368.678,-549.03 362.962,-553.426"/>
<text text-anchor="middle" x="331" y="-668" font-family="Helvetica,sans-Serif" font-size="10.00"> &#45;sensors</text>
</g>
<!-- Node7 -->
<g id="node7" class="node"><title>Node7</title>
<g id="a_node7"><a xlink:href="classBaseExternalSensor.html" target="_top" xlink:title="This class is a generic external Sensor it is a way to access real external sensor methods through ru...">
<polygon fill="white" stroke="black" points="133,-887.5 133,-966.5 254,-966.5 254,-887.5 133,-887.5"/>
<text text-anchor="middle" x="193.5" y="-954.5" font-family="Helvetica,sans-Serif" font-size="10.00">BaseExternalSensor</text>
<polyline fill="none" stroke="black" points="133,-947.5 254,-947.5 "/>
<text text-anchor="middle" x="193.5" y="-935.5" font-family="Helvetica,sans-Serif" font-size="10.00"> </text>
<polyline fill="none" stroke="black" points="133,-928.5 254,-928.5 "/>
<text text-anchor="start" x="141" y="-916.5" font-family="Helvetica,sans-Serif" font-size="10.00">+ BaseExternalSensor()</text>
<text text-anchor="start" x="141" y="-905.5" font-family="Helvetica,sans-Serif" font-size="10.00">+ begin()</text>
<text text-anchor="start" x="141" y="-894.5" font-family="Helvetica,sans-Serif" font-size="10.00">+ read()</text>
</a>
</g>
</g>
<!-- Node7&#45;&gt;Node6 -->
<g id="edge6" class="edge"><title>Node7&#45;&gt;Node6</title>
<path fill="none" stroke="#404040" d="M193.5,-887.123C193.5,-867.96 193.5,-844.612 193.5,-824.077"/>
<polygon fill="none" stroke="#404040" points="193.5,-824.041 189.5,-818.041 193.5,-812.041 197.5,-818.041 193.5,-824.041"/>
<text text-anchor="middle" x="219" y="-861" font-family="Helvetica,sans-Serif" font-size="10.00"> +exSensor</text>
</g>
<!-- Node8 -->
<g id="node8" class="node"><title>Node8</title>
<g id="a_node8"><a xlink:href="classCoolBoardSensors.html" target="_top" xlink:title="This class handles the On&#45;Board Sensors. ">
<polygon fill="white" stroke="black" points="444,-391.5 444,-602.5 573,-602.5 573,-391.5 444,-391.5"/>
<text text-anchor="middle" x="508.5" y="-590.5" font-family="Helvetica,sans-Serif" font-size="10.00">CoolBoardSensors</text>
<polyline fill="none" stroke="black" points="444,-583.5 573,-583.5 "/>
<text text-anchor="start" x="452" y="-571.5" font-family="Helvetica,sans-Serif" font-size="10.00">+ lightSensor</text>
<text text-anchor="start" x="452" y="-560.5" font-family="Helvetica,sans-Serif" font-size="10.00">+ envSensor</text>
<text text-anchor="start" x="452" y="-549.5" font-family="Helvetica,sans-Serif" font-size="10.00">&#45; EnMoisture</text>
<text text-anchor="start" x="452" y="-538.5" font-family="Helvetica,sans-Serif" font-size="10.00">&#45; AnMplex</text>
<text text-anchor="start" x="452" y="-527.5" font-family="Helvetica,sans-Serif" font-size="10.00">&#45; vbatActive</text>
<text text-anchor="start" x="452" y="-516.5" font-family="Helvetica,sans-Serif" font-size="10.00">&#45; soilMoistureActive</text>
<polyline fill="none" stroke="black" points="444,-509.5 573,-509.5 "/>
<text text-anchor="start" x="452" y="-497.5" font-family="Helvetica,sans-Serif" font-size="10.00">+ CoolBoardSensors()</text>
<text text-anchor="start" x="452" y="-486.5" font-family="Helvetica,sans-Serif" font-size="10.00">+ begin()</text>
<text text-anchor="start" x="452" y="-475.5" font-family="Helvetica,sans-Serif" font-size="10.00">+ read()</text>
<text text-anchor="start" x="452" y="-464.5" font-family="Helvetica,sans-Serif" font-size="10.00">+ allActive()</text>
<text text-anchor="start" x="452" y="-453.5" font-family="Helvetica,sans-Serif" font-size="10.00">+ end()</text>
<text text-anchor="start" x="452" y="-442.5" font-family="Helvetica,sans-Serif" font-size="10.00">+ config()</text>
<text text-anchor="start" x="452" y="-431.5" font-family="Helvetica,sans-Serif" font-size="10.00">+ printConf()</text>
<text text-anchor="start" x="452" y="-420.5" font-family="Helvetica,sans-Serif" font-size="10.00">+ setEnvSensorSettings()</text>
<text text-anchor="start" x="452" y="-409.5" font-family="Helvetica,sans-Serif" font-size="10.00">+ readVBat()</text>
<text text-anchor="start" x="452" y="-398.5" font-family="Helvetica,sans-Serif" font-size="10.00">+ readMoisture()</text>
</a>
</g>
</g>
<!-- Node8&#45;&gt;Node1 -->
<g id="edge7" class="edge"><title>Node8&#45;&gt;Node1</title>
<path fill="none" stroke="#404040" d="M508.5,-391.369C508.5,-369.634 508.5,-346.221 508.5,-322.893"/>
<polygon fill="none" stroke="#404040" points="508.5,-322.711 504.5,-316.711 508.5,-310.711 512.5,-316.711 508.5,-322.711"/>
<text text-anchor="middle" x="551.5" y="-332" font-family="Helvetica,sans-Serif" font-size="10.00"> &#45;coolBoardSensors</text>
</g>
<!-- Node9 -->
<g id="node9" class="node"><title>Node9</title>
<g id="a_node9"><a xlink:href="structCoolBoardSensors_1_1airActive.html" target="_top" xlink:title="{CoolBoardSensors::airActive\n|+ temperature\l+ humidity\l+ pressure\l|}">
<polygon fill="white" stroke="black" points="274,-733 274,-812 417,-812 417,-733 274,-733"/>
<text text-anchor="middle" x="345.5" y="-800" font-family="Helvetica,sans-Serif" font-size="10.00">CoolBoardSensors::airActive</text>
<polyline fill="none" stroke="black" points="274,-793 417,-793 "/>
<text text-anchor="start" x="282" y="-781" font-family="Helvetica,sans-Serif" font-size="10.00">+ temperature</text>
<text text-anchor="start" x="282" y="-770" font-family="Helvetica,sans-Serif" font-size="10.00">+ humidity</text>
<text text-anchor="start" x="282" y="-759" font-family="Helvetica,sans-Serif" font-size="10.00">+ pressure</text>
<polyline fill="none" stroke="black" points="274,-752 417,-752 "/>
<text text-anchor="middle" x="345.5" y="-740" font-family="Helvetica,sans-Serif" font-size="10.00"> </text>
</a>
</g>
</g>
<!-- Node9&#45;&gt;Node8 -->
<g id="edge8" class="edge"><title>Node9&#45;&gt;Node8</title>
<path fill="none" stroke="#404040" d="M372.138,-732.949C390.331,-706.146 414.641,-669.379 434.5,-636 438.896,-628.611 443.335,-620.942 447.739,-613.175"/>
<polygon fill="none" stroke="#404040" points="447.838,-613 447.29,-605.809 453.717,-602.538 454.264,-609.729 447.838,-613"/>
<text text-anchor="middle" x="456.5" y="-668" font-family="Helvetica,sans-Serif" font-size="10.00"> &#45;airDataActive</text>
</g>
<!-- Node10 -->
<g id="node10" class="node"><title>Node10</title>
<g id="a_node10"><a xlink:href="structCoolBoardSensors_1_1lightActive.html" target="_top" xlink:title="{CoolBoardSensors::lightActive\n|+ visible\l+ ir\l+ uv\l|}">
<polygon fill="white" stroke="black" points="435.5,-733 435.5,-812 585.5,-812 585.5,-733 435.5,-733"/>
<text text-anchor="middle" x="510.5" y="-800" font-family="Helvetica,sans-Serif" font-size="10.00">CoolBoardSensors::lightActive</text>
<polyline fill="none" stroke="black" points="435.5,-793 585.5,-793 "/>
<text text-anchor="start" x="443.5" y="-781" font-family="Helvetica,sans-Serif" font-size="10.00">+ visible</text>
<text text-anchor="start" x="443.5" y="-770" font-family="Helvetica,sans-Serif" font-size="10.00">+ ir</text>
<text text-anchor="start" x="443.5" y="-759" font-family="Helvetica,sans-Serif" font-size="10.00">+ uv</text>
<polyline fill="none" stroke="black" points="435.5,-752 585.5,-752 "/>
<text text-anchor="middle" x="510.5" y="-740" font-family="Helvetica,sans-Serif" font-size="10.00"> </text>
</a>
</g>
</g>
<!-- Node10&#45;&gt;Node8 -->
<g id="edge9" class="edge"><title>Node10&#45;&gt;Node8</title>
<path fill="none" stroke="#404040" d="M510.218,-732.894C509.992,-702.071 509.664,-657.188 509.355,-614.894"/>
<polygon fill="none" stroke="#404040" points="509.354,-614.754 505.31,-608.784 509.266,-602.755 513.31,-608.725 509.354,-614.754"/>
<text text-anchor="middle" x="547" y="-668" font-family="Helvetica,sans-Serif" font-size="10.00"> &#45;lightDataActive</text>
</g>
<!-- Node11 -->
<g id="node11" class="node"><title>Node11</title>
<g id="a_node11"><a xlink:href="classIrene3000.html" target="_top" xlink:title="This class is provided to manage the Irene3000 Ph/Temperature Shield. ">
<polygon fill="white" stroke="black" points="591,-386 591,-608 704,-608 704,-386 591,-386"/>
<text text-anchor="middle" x="647.5" y="-596" font-family="Helvetica,sans-Serif" font-size="10.00">Irene3000</text>
<polyline fill="none" stroke="black" points="591,-589 704,-589 "/>
<text text-anchor="start" x="599" y="-577" font-family="Helvetica,sans-Serif" font-size="10.00">&#45; ads</text>
<text text-anchor="start" x="599" y="-566" font-family="Helvetica,sans-Serif" font-size="10.00">&#45; vRef</text>
<text text-anchor="start" x="599" y="-555" font-family="Helvetica,sans-Serif" font-size="10.00">&#45; opampGain</text>
<polyline fill="none" stroke="black" points="591,-548 704,-548 "/>
<text text-anchor="start" x="599" y="-536" font-family="Helvetica,sans-Serif" font-size="10.00">+ begin()</text>
<text text-anchor="start" x="599" y="-525" font-family="Helvetica,sans-Serif" font-size="10.00">+ config()</text>
<text text-anchor="start" x="599" y="-514" font-family="Helvetica,sans-Serif" font-size="10.00">+ printConf()</text>
<text text-anchor="start" x="599" y="-503" font-family="Helvetica,sans-Serif" font-size="10.00">+ read()</text>
<text text-anchor="start" x="599" y="-492" font-family="Helvetica,sans-Serif" font-size="10.00">+ readButton()</text>
<text text-anchor="start" x="599" y="-481" font-family="Helvetica,sans-Serif" font-size="10.00">+ setGain()</text>
<text text-anchor="start" x="599" y="-470" font-family="Helvetica,sans-Serif" font-size="10.00">+ readADSChannel2()</text>
<text text-anchor="start" x="599" y="-459" font-family="Helvetica,sans-Serif" font-size="10.00">+ readPh()</text>
<text text-anchor="start" x="599" y="-448" font-family="Helvetica,sans-Serif" font-size="10.00">+ readTemp()</text>
<text text-anchor="start" x="599" y="-437" font-family="Helvetica,sans-Serif" font-size="10.00">+ resetParams()</text>
<text text-anchor="start" x="599" y="-426" font-family="Helvetica,sans-Serif" font-size="10.00">+ calibratepH7()</text>
<text text-anchor="start" x="599" y="-415" font-family="Helvetica,sans-Serif" font-size="10.00">+ calibratepH4()</text>
<text text-anchor="start" x="599" y="-404" font-family="Helvetica,sans-Serif" font-size="10.00">+ calcpHSlope()</text>
<text text-anchor="start" x="599" y="-393" font-family="Helvetica,sans-Serif" font-size="10.00">+ gainConvert()</text>
</a>
</g>
</g>
<!-- Node11&#45;&gt;Node1 -->
<g id="edge10" class="edge"><title>Node11&#45;&gt;Node1</title>
<path fill="none" stroke="#404040" d="M618.495,-385.806C612.511,-366.644 605.786,-347.076 598.5,-329 591.441,-311.487 583.174,-293.398 574.563,-275.819"/>
<polygon fill="none" stroke="#404040" points="574.502,-275.696 568.251,-272.102 569.164,-264.949 575.416,-268.543 574.502,-275.696"/>
<text text-anchor="middle" x="627" y="-332" font-family="Helvetica,sans-Serif" font-size="10.00"> &#45;irene3000</text>
</g>
<!-- Node12 -->
<g id="node12" class="node"><title>Node12</title>
<g id="a_node12"><a xlink:href="structIrene3000_1_1state.html" target="_top" xlink:title="{Irene3000::state\n|+ active\l+ gain\l+ type\l|}">
<polygon fill="white" stroke="black" points="604,-733 604,-812 691,-812 691,-733 604,-733"/>
<text text-anchor="middle" x="647.5" y="-800" font-family="Helvetica,sans-Serif" font-size="10.00">Irene3000::state</text>
<polyline fill="none" stroke="black" points="604,-793 691,-793 "/>
<text text-anchor="start" x="612" y="-781" font-family="Helvetica,sans-Serif" font-size="10.00">+ active</text>
<text text-anchor="start" x="612" y="-770" font-family="Helvetica,sans-Serif" font-size="10.00">+ gain</text>
<text text-anchor="start" x="612" y="-759" font-family="Helvetica,sans-Serif" font-size="10.00">+ type</text>
<polyline fill="none" stroke="black" points="604,-752 691,-752 "/>
<text text-anchor="middle" x="647.5" y="-740" font-family="Helvetica,sans-Serif" font-size="10.00"> </text>
</a>
</g>
</g>
<!-- Node12&#45;&gt;Node11 -->
<g id="edge11" class="edge"><title>Node12&#45;&gt;Node11</title>
<path fill="none" stroke="#404040" d="M647.5,-732.894C647.5,-703.407 647.5,-661.051 647.5,-620.405"/>
<polygon fill="none" stroke="#404040" points="647.5,-620.148 643.5,-614.148 647.5,-608.148 651.5,-614.148 647.5,-620.148"/>
<text text-anchor="middle" x="675" y="-679" font-family="Helvetica,sans-Serif" font-size="10.00"> &#45;waterTemp</text>
<text text-anchor="middle" x="675" y="-668" font-family="Helvetica,sans-Serif" font-size="10.00">&#45;phProbe</text>
<text text-anchor="middle" x="675" y="-657" font-family="Helvetica,sans-Serif" font-size="10.00">&#45;adc2</text>
</g>
<!-- Node13 -->
<g id="node13" class="node"><title>Node13</title>
<g id="a_node13"><a xlink:href="structIrene3000_1_1parameters__T.html" target="_top" xlink:title="{Irene3000::parameters_T\n|+ WriteCheck\l+ pH7Cal\l+ pH4Cal\l+ pHStep\l|}">
<polygon fill="white" stroke="black" points="709,-727.5 709,-817.5 834,-817.5 834,-727.5 709,-727.5"/>
<text text-anchor="middle" x="771.5" y="-805.5" font-family="Helvetica,sans-Serif" font-size="10.00">Irene3000::parameters_T</text>
<polyline fill="none" stroke="black" points="709,-798.5 834,-798.5 "/>
<text text-anchor="start" x="717" y="-786.5" font-family="Helvetica,sans-Serif" font-size="10.00">+ WriteCheck</text>
<text text-anchor="start" x="717" y="-775.5" font-family="Helvetica,sans-Serif" font-size="10.00">+ pH7Cal</text>
<text text-anchor="start" x="717" y="-764.5" font-family="Helvetica,sans-Serif" font-size="10.00">+ pH4Cal</text>
<text text-anchor="start" x="717" y="-753.5" font-family="Helvetica,sans-Serif" font-size="10.00">+ pHStep</text>
<polyline fill="none" stroke="black" points="709,-746.5 834,-746.5 "/>
<text text-anchor="middle" x="771.5" y="-734.5" font-family="Helvetica,sans-Serif" font-size="10.00"> </text>
</a>
</g>
</g>
<!-- Node13&#45;&gt;Node11 -->
<g id="edge12" class="edge"><title>Node13&#45;&gt;Node11</title>
<path fill="none" stroke="#404040" d="M751.439,-727.254C738.151,-697.944 720.024,-657.963 702.628,-619.593"/>
<polygon fill="none" stroke="#404040" points="702.458,-619.218 696.338,-615.405 697.503,-608.289 703.624,-612.102 702.458,-619.218"/>
<text text-anchor="middle" x="751" y="-668" font-family="Helvetica,sans-Serif" font-size="10.00"> &#45;params</text>
</g>
<!-- Node14 -->
<g id="node14" class="node"><title>Node14</title>
<g id="a_node14"><a xlink:href="classCoolFileSystem.html" target="_top" xlink:title="This class handles the file system. ">
<polygon fill="white" stroke="black" points="722,-435.5 722,-558.5 847,-558.5 847,-435.5 722,-435.5"/>
<text text-anchor="middle" x="784.5" y="-546.5" font-family="Helvetica,sans-Serif" font-size="10.00">CoolFileSystem</text>
<polyline fill="none" stroke="black" points="722,-539.5 847,-539.5 "/>
<text text-anchor="start" x="730" y="-527.5" font-family="Helvetica,sans-Serif" font-size="10.00">&#45; savedData</text>
<polyline fill="none" stroke="black" points="722,-520.5 847,-520.5 "/>
<text text-anchor="start" x="730" y="-508.5" font-family="Helvetica,sans-Serif" font-size="10.00">+ begin()</text>
<text text-anchor="start" x="730" y="-497.5" font-family="Helvetica,sans-Serif" font-size="10.00">+ updateConfigFiles()</text>
<text text-anchor="start" x="730" y="-486.5" font-family="Helvetica,sans-Serif" font-size="10.00">+ fileUpdate()</text>
<text text-anchor="start" x="730" y="-475.5" font-family="Helvetica,sans-Serif" font-size="10.00">+ saveSensorData()</text>
<text text-anchor="start" x="730" y="-464.5" font-family="Helvetica,sans-Serif" font-size="10.00">+ saveSensorDataCSV()</text>
<text text-anchor="start" x="730" y="-453.5" font-family="Helvetica,sans-Serif" font-size="10.00">+ isDataSaved()</text>
<text text-anchor="start" x="730" y="-442.5" font-family="Helvetica,sans-Serif" font-size="10.00">+ getSensorSavedData()</text>
</a>
</g>
</g>
<!-- Node14&#45;&gt;Node1 -->
<g id="edge13" class="edge"><title>Node14&#45;&gt;Node1</title>
<path fill="none" stroke="#404040" d="M757.855,-435.185C745.652,-410.227 730.001,-381.692 712.5,-358 673.508,-305.215 620.579,-253.361 578.406,-215.476"/>
<polygon fill="none" stroke="#404040" points="578.265,-215.351 571.124,-214.346 569.306,-207.368 576.446,-208.373 578.265,-215.351"/>
<text text-anchor="middle" x="725" y="-332" font-family="Helvetica,sans-Serif" font-size="10.00"> &#45;fileSystem</text>
</g>
<!-- Node15 -->
<g id="node15" class="node"><title>Node15</title>
<g id="a_node15"><a xlink:href="classJetpack.html" target="_top" xlink:title="This class manages the Jetpack shield. ">
<polygon fill="white" stroke="black" points="865,-424.5 865,-569.5 936,-569.5 936,-424.5 865,-424.5"/>
<text text-anchor="middle" x="900.5" y="-557.5" font-family="Helvetica,sans-Serif" font-size="10.00">Jetpack</text>
<polyline fill="none" stroke="black" points="865,-550.5 936,-550.5 "/>
<text text-anchor="start" x="873" y="-538.5" font-family="Helvetica,sans-Serif" font-size="10.00">&#45; action</text>
<text text-anchor="start" x="873" y="-527.5" font-family="Helvetica,sans-Serif" font-size="10.00">&#45; clockPin</text>
<text text-anchor="start" x="873" y="-516.5" font-family="Helvetica,sans-Serif" font-size="10.00">&#45; dataPin</text>
<text text-anchor="start" x="873" y="-505.5" font-family="Helvetica,sans-Serif" font-size="10.00">&#45; EnI2C</text>
<polyline fill="none" stroke="black" points="865,-498.5 936,-498.5 "/>
<text text-anchor="start" x="873" y="-486.5" font-family="Helvetica,sans-Serif" font-size="10.00">+ begin()</text>
<text text-anchor="start" x="873" y="-475.5" font-family="Helvetica,sans-Serif" font-size="10.00">+ write()</text>
<text text-anchor="start" x="873" y="-464.5" font-family="Helvetica,sans-Serif" font-size="10.00">+ writeBit()</text>
<text text-anchor="start" x="873" y="-453.5" font-family="Helvetica,sans-Serif" font-size="10.00">+ doAction()</text>
<text text-anchor="start" x="873" y="-442.5" font-family="Helvetica,sans-Serif" font-size="10.00">+ config()</text>
<text text-anchor="start" x="873" y="-431.5" font-family="Helvetica,sans-Serif" font-size="10.00">+ printConf()</text>
</a>
</g>
</g>
<!-- Node15&#45;&gt;Node1 -->
<g id="edge14" class="edge"><title>Node15&#45;&gt;Node1</title>
<path fill="none" stroke="#404040" d="M887.772,-424.421C881.052,-401.424 870.869,-377.008 855.5,-358 783.007,-268.346 659.215,-210.395 580.752,-180.627"/>
<polygon fill="none" stroke="#404040" points="580.286,-180.454 573.267,-182.108 569.04,-176.265 576.059,-174.611 580.286,-180.454"/>
<text text-anchor="middle" x="854.5" y="-332" font-family="Helvetica,sans-Serif" font-size="10.00"> &#45;jetPack</text>
</g>
<!-- Node16 -->
<g id="node16" class="node"><title>Node16</title>
<g id="a_node16"><a xlink:href="structJetpack_1_1state.html" target="_top" xlink:title="{Jetpack::state\n|+ type\l+ actif\l+ low\l+ high\l+ temporal\l+ actifTime\l+ inactifTime\l+ inverted\l|}">
<polygon fill="white" stroke="black" points="861,-705.5 861,-839.5 940,-839.5 940,-705.5 861,-705.5"/>
<text text-anchor="middle" x="900.5" y="-827.5" font-family="Helvetica,sans-Serif" font-size="10.00">Jetpack::state</text>
<polyline fill="none" stroke="black" points="861,-820.5 940,-820.5 "/>
<text text-anchor="start" x="869" y="-808.5" font-family="Helvetica,sans-Serif" font-size="10.00">+ type</text>
<text text-anchor="start" x="869" y="-797.5" font-family="Helvetica,sans-Serif" font-size="10.00">+ actif</text>
<text text-anchor="start" x="869" y="-786.5" font-family="Helvetica,sans-Serif" font-size="10.00">+ low</text>
<text text-anchor="start" x="869" y="-775.5" font-family="Helvetica,sans-Serif" font-size="10.00">+ high</text>
<text text-anchor="start" x="869" y="-764.5" font-family="Helvetica,sans-Serif" font-size="10.00">+ temporal</text>
<text text-anchor="start" x="869" y="-753.5" font-family="Helvetica,sans-Serif" font-size="10.00">+ actifTime</text>
<text text-anchor="start" x="869" y="-742.5" font-family="Helvetica,sans-Serif" font-size="10.00">+ inactifTime</text>
<text text-anchor="start" x="869" y="-731.5" font-family="Helvetica,sans-Serif" font-size="10.00">+ inverted</text>
<polyline fill="none" stroke="black" points="861,-724.5 940,-724.5 "/>
<text text-anchor="middle" x="900.5" y="-712.5" font-family="Helvetica,sans-Serif" font-size="10.00"> </text>
</a>
</g>
</g>
<!-- Node16&#45;&gt;Node15 -->
<g id="edge15" class="edge"><title>Node16&#45;&gt;Node15</title>
<path fill="none" stroke="#404040" d="M900.5,-705.293C900.5,-668.186 900.5,-621.536 900.5,-581.891"/>
<polygon fill="none" stroke="#404040" points="900.5,-581.831 896.5,-575.831 900.5,-569.831 904.5,-575.831 900.5,-581.831"/>
<text text-anchor="middle" x="917.5" y="-668" font-family="Helvetica,sans-Serif" font-size="10.00"> &#45;actors</text>
</g>
<!-- Node17 -->
<g id="node17" class="node"><title>Node17</title>
<g id="a_node17"><a xlink:href="classCoolTime.html" target="_top" xlink:title="This class manages the DS1337 RTC . ">
<polygon fill="white" stroke="black" points="954.5,-364 954.5,-630 1062.5,-630 1062.5,-364 954.5,-364"/>
<text text-anchor="middle" x="1008.5" y="-618" font-family="Helvetica,sans-Serif" font-size="10.00">CoolTime</text>
<polyline fill="none" stroke="black" points="954.5,-611 1062.5,-611 "/>
<text text-anchor="start" x="962.5" y="-599" font-family="Helvetica,sans-Serif" font-size="10.00">&#45; timeSync</text>
<text text-anchor="start" x="962.5" y="-588" font-family="Helvetica,sans-Serif" font-size="10.00">&#45; timeServer</text>
<text text-anchor="start" x="962.5" y="-577" font-family="Helvetica,sans-Serif" font-size="10.00">&#45; Udp</text>
<text text-anchor="start" x="962.5" y="-566" font-family="Helvetica,sans-Serif" font-size="10.00">&#45; localPort</text>
<text text-anchor="start" x="962.5" y="-555" font-family="Helvetica,sans-Serif" font-size="10.00">&#45; packetBuffer</text>
<text text-anchor="start" x="962.5" y="-544" font-family="Helvetica,sans-Serif" font-size="10.00">&#45; tmSet</text>
<text text-anchor="start" x="962.5" y="-533" font-family="Helvetica,sans-Serif" font-size="10.00">&#45; rtc</text>
<polyline fill="none" stroke="black" points="954.5,-526 1062.5,-526 "/>
<text text-anchor="start" x="962.5" y="-514" font-family="Helvetica,sans-Serif" font-size="10.00">+ begin()</text>
<text text-anchor="start" x="962.5" y="-503" font-family="Helvetica,sans-Serif" font-size="10.00">+ update()</text>
<text text-anchor="start" x="962.5" y="-492" font-family="Helvetica,sans-Serif" font-size="10.00">+ config()</text>
<text text-anchor="start" x="962.5" y="-481" font-family="Helvetica,sans-Serif" font-size="10.00">+ config()</text>
<text text-anchor="start" x="962.5" y="-470" font-family="Helvetica,sans-Serif" font-size="10.00">+ printConf()</text>
<text text-anchor="start" x="962.5" y="-459" font-family="Helvetica,sans-Serif" font-size="10.00">+ setDateTime()</text>
<text text-anchor="start" x="962.5" y="-448" font-family="Helvetica,sans-Serif" font-size="10.00">+ getTimeDate()</text>
<text text-anchor="start" x="962.5" y="-437" font-family="Helvetica,sans-Serif" font-size="10.00">+ getESDate()</text>
<text text-anchor="start" x="962.5" y="-426" font-family="Helvetica,sans-Serif" font-size="10.00">+ getLastSyncTime()</text>
<text text-anchor="start" x="962.5" y="-415" font-family="Helvetica,sans-Serif" font-size="10.00">+ isTimeSync()</text>
<text text-anchor="start" x="962.5" y="-404" font-family="Helvetica,sans-Serif" font-size="10.00">+ getNtpTime()</text>
<text text-anchor="start" x="962.5" y="-393" font-family="Helvetica,sans-Serif" font-size="10.00">+ sendNTPpacket()</text>
<text text-anchor="start" x="962.5" y="-382" font-family="Helvetica,sans-Serif" font-size="10.00">+ formatDigits()</text>
<text text-anchor="start" x="962.5" y="-371" font-family="Helvetica,sans-Serif" font-size="10.00">+ saveTimeSync()</text>
</a>
</g>
</g>
<!-- Node17&#45;&gt;Node1 -->
<g id="edge16" class="edge"><title>Node17&#45;&gt;Node1</title>
<path fill="none" stroke="#404040" d="M954.381,-368.972C951.249,-365.127 947.957,-361.452 944.5,-358 841.236,-254.873 675.388,-198.575 580.791,-173.276"/>
<polygon fill="none" stroke="#404040" points="580.662,-173.242 573.844,-175.59 569.054,-170.199 575.873,-167.851 580.662,-173.242"/>
<text text-anchor="middle" x="925.5" y="-332" font-family="Helvetica,sans-Serif" font-size="10.00"> &#45;rtc</text>
</g>
</g>
</svg>
