<?xml version="1.0" encoding="UTF-8" standalone="no"?>
<!DOCTYPE svg PUBLIC "-//W3C//DTD SVG 1.1//EN"
 "http://www.w3.org/Graphics/SVG/1.1/DTD/svg11.dtd">
<!-- Generated by graphviz version 2.38.0 (20140413.2041)
 -->
<!-- Title: CoolBoardLed::write Pages: 1 -->
<svg width="380pt" height="47pt"
 viewBox="0.00 0.00 380.00 47.00" xmlns="http://www.w3.org/2000/svg" xmlns:xlink="http://www.w3.org/1999/xlink">
<g id="graph0" class="graph" transform="scale(1 1) rotate(0) translate(4 43)">
<title>CoolBoardLed::write</title>
<polygon fill="white" stroke="none" points="-4,4 -4,-43 376,-43 376,4 -4,4"/>
<!-- Node52 -->
<g id="node1" class="node"><title>Node52</title>
<polygon fill="#bfbfbf" stroke="black" points="0,-19.5 0,-38.5 105,-38.5 105,-19.5 0,-19.5"/>
<text text-anchor="middle" x="52.5" y="-26.5" font-family="Helvetica,sans-Serif" font-size="10.00">CoolBoardLed::write</text>
</g>
<!-- Node53 -->
<g id="node2" class="node"><title>Node53</title>
<g id="a_node2"><a xlink:href="classCoolBoard.html#acba7c5aef7268b2c0044bdb54d3b9d76" target="_top" xlink:title="CoolBoard::begin">
<polygon fill="white" stroke="black" points="280,-19.5 280,-38.5 372,-38.5 372,-19.5 280,-19.5"/>
<text text-anchor="middle" x="326" y="-26.5" font-family="Helvetica,sans-Serif" font-size="10.00">CoolBoard::begin</text>
</a>
</g>
</g>
<!-- Node52&#45;&gt;Node53 -->
<g id="edge1" class="edge"><title>Node52&#45;&gt;Node53</title>
<path fill="none" stroke="midnightblue" d="M115.268,-29C165.353,-29 234.782,-29 279.796,-29"/>
<polygon fill="midnightblue" stroke="midnightblue" points="115.206,-25.5001 105.206,-29 115.206,-32.5001 115.206,-25.5001"/>
</g>
<!-- Node54 -->
<g id="node3" class="node"><title>Node54</title>
<g id="a_node3"><a xlink:href="classCoolBoard.html#a519de78b807f8ec6463ff484eb925918" target="_top" xlink:title="CoolBoard::connect">
<polygon fill="white" stroke="black" points="141,-0.5 141,-19.5 244,-19.5 244,-0.5 141,-0.5"/>
<text text-anchor="middle" x="192.5" y="-7.5" font-family="Helvetica,sans-Serif" font-size="10.00">CoolBoard::connect</text>
</a>
</g>
</g>
<!-- Node52&#45;&gt;Node54 -->
<g id="edge2" class="edge"><title>Node52&#45;&gt;Node54</title>
<path fill="none" stroke="midnightblue" d="M115.221,-20.5022C123.776,-19.3243 132.482,-18.1256 140.806,-16.9796"/>
<polygon fill="midnightblue" stroke="midnightblue" points="114.708,-17.0397 105.279,-21.871 115.663,-23.9743 114.708,-17.0397"/>
</g>
<!-- Node54&#45;&gt;Node53 -->
<g id="edge3" class="edge"><title>Node54&#45;&gt;Node53</title>
<path fill="none" stroke="midnightblue" d="M254.343,-18.791C262.937,-20.0327 271.643,-21.2906 279.87,-22.4793"/>
<polygon fill="midnightblue" stroke="midnightblue" points="254.739,-15.312 244.341,-17.3459 253.738,-22.24 254.739,-15.312"/>
</g>
</g>
</svg>
