<?xml version="1.0" encoding="UTF-8" standalone="no"?>
<!DOCTYPE svg PUBLIC "-//W3C//DTD SVG 1.1//EN"
 "http://www.w3.org/Graphics/SVG/1.1/DTD/svg11.dtd">
<!-- Generated by graphviz version 2.38.0 (20140413.2041)
 -->
<!-- Title: CoolBoard::begin Pages: 1 -->
<svg width="815pt" height="864pt"
 viewBox="0.00 0.00 815.00 864.00" xmlns="http://www.w3.org/2000/svg" xmlns:xlink="http://www.w3.org/1999/xlink">
<g id="graph0" class="graph" transform="scale(1 1) rotate(0) translate(4 860)">
<title>CoolBoard::begin</title>
<polygon fill="white" stroke="none" points="-4,4 -4,-860 811,-860 811,4 -4,4"/>
<!-- Node0 -->
<g id="node1" class="node"><title>Node0</title>
<polygon fill="#bfbfbf" stroke="black" points="0,-418.5 0,-437.5 92,-437.5 92,-418.5 0,-418.5"/>
<text text-anchor="middle" x="46" y="-425.5" font-family="Helvetica,sans-Serif" font-size="10.00">CoolBoard::begin</text>
</g>
<!-- Node1 -->
<g id="node2" class="node"><title>Node1</title>
<g id="a_node2"><a xlink:href="classJetpack.html#a5a53e1ebf7aaf3bf3e0d37ea64ca09a7" target="_top" xlink:title="Jetpack::begin">
<polygon fill="white" stroke="black" points="160,-836.5 160,-855.5 240,-855.5 240,-836.5 160,-836.5"/>
<text text-anchor="middle" x="200" y="-843.5" font-family="Helvetica,sans-Serif" font-size="10.00">Jetpack::begin</text>
</a>
</g>
</g>
<!-- Node0&#45;&gt;Node1 -->
<g id="edge1" class="edge"><title>Node0&#45;&gt;Node1</title>
<path fill="none" stroke="midnightblue" d="M47.6134,-437.679C51.305,-492.904 72.3071,-767.79 128,-827 133.97,-833.346 141.806,-837.659 150.088,-840.571"/>
<polygon fill="midnightblue" stroke="midnightblue" points="149.354,-844.002 159.931,-843.385 151.278,-837.271 149.354,-844.002"/>
</g>
<!-- Node2 -->
<g id="node3" class="node"><title>Node2</title>
<g id="a_node3"><a xlink:href="classCoolFileSystem.html#a6ba6f666ed4c530174f8569d2c636748" target="_top" xlink:title="CoolFileSystem::begin">
<polygon fill="white" stroke="black" points="142,-798.5 142,-817.5 258,-817.5 258,-798.5 142,-798.5"/>
<text text-anchor="middle" x="200" y="-805.5" font-family="Helvetica,sans-Serif" font-size="10.00">CoolFileSystem::begin</text>
</a>
</g>
</g>
<!-- Node0&#45;&gt;Node2 -->
<g id="edge2" class="edge"><title>Node0&#45;&gt;Node2</title>
<path fill="none" stroke="midnightblue" d="M47.8439,-437.77C52.5487,-490.02 77.1772,-736.062 128,-789 129.616,-790.683 131.362,-792.222 133.214,-793.63"/>
<polygon fill="midnightblue" stroke="midnightblue" points="131.566,-796.726 141.915,-798.997 135.241,-790.768 131.566,-796.726"/>
</g>
<!-- Node3 -->
<g id="node4" class="node"><title>Node3</title>
<g id="a_node4"><a xlink:href="classCoolBoardLed.html#ae3cbde8affcc6f011cbd698c8ef911f6" target="_top" xlink:title="CoolBoardLed::begin">
<polygon fill="white" stroke="black" points="146.5,-760.5 146.5,-779.5 253.5,-779.5 253.5,-760.5 146.5,-760.5"/>
<text text-anchor="middle" x="200" y="-767.5" font-family="Helvetica,sans-Serif" font-size="10.00">CoolBoardLed::begin</text>
</a>
</g>
</g>
<!-- Node0&#45;&gt;Node3 -->
<g id="edge3" class="edge"><title>Node0&#45;&gt;Node3</title>
<path fill="none" stroke="midnightblue" d="M48.1107,-437.695C53.8832,-486.44 81.9688,-704.237 128,-751 130.711,-753.754 133.773,-756.122 137.067,-758.157"/>
<polygon fill="midnightblue" stroke="midnightblue" points="135.739,-761.408 146.242,-762.803 138.901,-755.163 135.739,-761.408"/>
</g>
<!-- Node4 -->
<g id="node5" class="node"><title>Node4</title>
<g id="a_node5"><a xlink:href="classCoolMQTT.html#ac9248808641ebf3054ed0620ea9d0100" target="_top" xlink:title="CoolMQTT::begin">
<polygon fill="white" stroke="black" points="153,-722.5 153,-741.5 247,-741.5 247,-722.5 153,-722.5"/>
<text text-anchor="middle" x="200" y="-729.5" font-family="Helvetica,sans-Serif" font-size="10.00">CoolMQTT::begin</text>
</a>
</g>
</g>
<!-- Node0&#45;&gt;Node4 -->
<g id="edge4" class="edge"><title>Node0&#45;&gt;Node4</title>
<path fill="none" stroke="midnightblue" d="M46.601,-437.506C45.4735,-477.394 46.6321,-632.878 128,-713 132.368,-717.302 137.598,-720.658 143.212,-723.272"/>
<polygon fill="midnightblue" stroke="midnightblue" points="142.348,-726.689 152.938,-727.007 144.857,-720.154 142.348,-726.689"/>
</g>
<!-- Node6 -->
<g id="node7" class="node"><title>Node6</title>
<g id="a_node7"><a xlink:href="classExternalSensors.html#a58ede0d786a86417254708870f04a21e" target="_top" xlink:title="ExternalSensors::begin">
<polygon fill="white" stroke="black" points="141,-684.5 141,-703.5 259,-703.5 259,-684.5 141,-684.5"/>
<text text-anchor="middle" x="200" y="-691.5" font-family="Helvetica,sans-Serif" font-size="10.00">ExternalSensors::begin</text>
</a>
</g>
</g>
<!-- Node0&#45;&gt;Node6 -->
<g id="edge6" class="edge"><title>Node0&#45;&gt;Node6</title>
<path fill="none" stroke="midnightblue" d="M47.0878,-437.731C47.9691,-474.605 56.2061,-607.078 128,-675 129.657,-676.568 131.429,-678.009 133.291,-679.334"/>
<polygon fill="midnightblue" stroke="midnightblue" points="131.567,-682.38 141.962,-684.429 135.114,-676.345 131.567,-682.38"/>
</g>
<!-- Node8 -->
<g id="node9" class="node"><title>Node8</title>
<g id="a_node9"><a xlink:href="classCoolBoardSensors.html#a97095823ef7c8f5290812f1405b966b3" target="_top" xlink:title="CoolBoardSensors::begin">
<polygon fill="white" stroke="black" points="136,-646.5 136,-665.5 264,-665.5 264,-646.5 136,-646.5"/>
<text text-anchor="middle" x="200" y="-653.5" font-family="Helvetica,sans-Serif" font-size="10.00">CoolBoardSensors::begin</text>
</a>
</g>
</g>
<!-- Node0&#45;&gt;Node8 -->
<g id="edge8" class="edge"><title>Node0&#45;&gt;Node8</title>
<path fill="none" stroke="midnightblue" d="M47.7323,-437.602C50.7835,-470.668 65.4354,-580.867 128,-637 129.736,-638.558 131.587,-639.99 133.526,-641.307"/>
<polygon fill="midnightblue" stroke="midnightblue" points="132.09,-644.514 142.521,-646.37 135.523,-638.414 132.09,-644.514"/>
</g>
<!-- Node11 -->
<g id="node12" class="node"><title>Node11</title>
<g id="a_node12"><a xlink:href="classCoolTime.html#ab1976cf718b950bc31e003c3323b8adb" target="_top" xlink:title="CoolTime::begin">
<polygon fill="white" stroke="black" points="156,-608.5 156,-627.5 244,-627.5 244,-608.5 156,-608.5"/>
<text text-anchor="middle" x="200" y="-615.5" font-family="Helvetica,sans-Serif" font-size="10.00">CoolTime::begin</text>
</a>
</g>
</g>
<!-- Node0&#45;&gt;Node11 -->
<g id="edge11" class="edge"><title>Node0&#45;&gt;Node11</title>
<path fill="none" stroke="midnightblue" d="M48.6935,-437.879C54.2572,-467.23 74.7618,-554.616 128,-599 133.334,-603.447 139.609,-606.862 146.183,-609.482"/>
<polygon fill="midnightblue" stroke="midnightblue" points="145.361,-612.899 155.955,-612.781 147.6,-606.266 145.361,-612.899"/>
</g>
<!-- Node18 -->
<g id="node19" class="node"><title>Node18</title>
<g id="a_node19"><a xlink:href="classIrene3000.html#ad5891806c500ae1007afe52b9e304c2b" target="_top" xlink:title="Irene3000::begin">
<polygon fill="white" stroke="black" points="155.5,-570.5 155.5,-589.5 244.5,-589.5 244.5,-570.5 155.5,-570.5"/>
<text text-anchor="middle" x="200" y="-577.5" font-family="Helvetica,sans-Serif" font-size="10.00">Irene3000::begin</text>
</a>
</g>
</g>
<!-- Node0&#45;&gt;Node18 -->
<g id="edge18" class="edge"><title>Node0&#45;&gt;Node18</title>
<path fill="none" stroke="midnightblue" d="M50.0808,-437.778C58.3811,-462.48 83.6327,-527.785 128,-561 133.229,-564.914 139.205,-568.023 145.421,-570.492"/>
<polygon fill="midnightblue" stroke="midnightblue" points="144.719,-573.95 155.313,-573.868 146.98,-567.325 144.719,-573.95"/>
</g>
<!-- Node19 -->
<g id="node20" class="node"><title>Node19</title>
<g id="a_node20"><a xlink:href="classCoolBoardLed.html#a1b60e5e30bea96c49ed62ed1bf1ffc8b" target="_top" xlink:title="CoolBoardLed::config">
<polygon fill="white" stroke="black" points="145,-532.5 145,-551.5 255,-551.5 255,-532.5 145,-532.5"/>
<text text-anchor="middle" x="200" y="-539.5" font-family="Helvetica,sans-Serif" font-size="10.00">CoolBoardLed::config</text>
</a>
</g>
</g>
<!-- Node0&#45;&gt;Node19 -->
<g id="edge19" class="edge"><title>Node0&#45;&gt;Node19</title>
<path fill="none" stroke="midnightblue" d="M52.5178,-437.768C63.9708,-457.127 92.2613,-500.438 128,-523 131.363,-525.123 134.96,-527.011 138.684,-528.69"/>
<polygon fill="midnightblue" stroke="midnightblue" points="137.555,-532.007 148.141,-532.445 140.139,-525.501 137.555,-532.007"/>
</g>
<!-- Node20 -->
<g id="node21" class="node"><title>Node20</title>
<g id="a_node21"><a xlink:href="classJetpack.html#ab065ee83e244265a2223a22f3ee4a719" target="_top" xlink:title="Jetpack::config">
<polygon fill="white" stroke="black" points="158.5,-494.5 158.5,-513.5 241.5,-513.5 241.5,-494.5 158.5,-494.5"/>
<text text-anchor="middle" x="200" y="-501.5" font-family="Helvetica,sans-Serif" font-size="10.00">Jetpack::config</text>
</a>
</g>
</g>
<!-- Node0&#45;&gt;Node20 -->
<g id="edge20" class="edge"><title>Node0&#45;&gt;Node20</title>
<path fill="none" stroke="midnightblue" d="M58.0087,-437.68C72.8984,-450.299 100.74,-472.255 128,-485 134.516,-488.047 141.606,-490.673 148.7,-492.916"/>
<polygon fill="midnightblue" stroke="midnightblue" points="147.743,-496.283 158.324,-495.741 149.714,-489.566 147.743,-496.283"/>
</g>
<!-- Node21 -->
<g id="node22" class="node"><title>Node21</title>
<g id="a_node22"><a xlink:href="classExternalSensors.html#a862a4bd11346b37270d0244c2adabe5a" target="_top" xlink:title="ExternalSensors::config">
<polygon fill="white" stroke="black" points="139.5,-456.5 139.5,-475.5 260.5,-475.5 260.5,-456.5 139.5,-456.5"/>
<text text-anchor="middle" x="200" y="-463.5" font-family="Helvetica,sans-Serif" font-size="10.00">ExternalSensors::config</text>
</a>
</g>
</g>
<!-- Node0&#45;&gt;Node21 -->
<g id="edge21" class="edge"><title>Node0&#45;&gt;Node21</title>
<path fill="none" stroke="midnightblue" d="M85.356,-437.589C105.324,-442.581 129.93,-448.732 151.133,-454.033"/>
<polygon fill="midnightblue" stroke="midnightblue" points="150.369,-457.45 160.92,-456.48 152.067,-450.659 150.369,-457.45"/>
</g>
<!-- Node22 -->
<g id="node23" class="node"><title>Node22</title>
<g id="a_node23"><a xlink:href="classCoolMQTT.html#a9b703de4f1358f0ee7a5e8c44979c648" target="_top" xlink:title="CoolMQTT::config">
<polygon fill="white" stroke="black" points="151.5,-418.5 151.5,-437.5 248.5,-437.5 248.5,-418.5 151.5,-418.5"/>
<text text-anchor="middle" x="200" y="-425.5" font-family="Helvetica,sans-Serif" font-size="10.00">CoolMQTT::config</text>
</a>
</g>
</g>
<!-- Node0&#45;&gt;Node22 -->
<g id="edge22" class="edge"><title>Node0&#45;&gt;Node22</title>
<path fill="none" stroke="midnightblue" d="M92.1935,-428C107.484,-428 124.777,-428 140.925,-428"/>
<polygon fill="midnightblue" stroke="midnightblue" points="141.339,-431.5 151.339,-428 141.339,-424.5 141.339,-431.5"/>
</g>
<!-- Node23 -->
<g id="node24" class="node"><title>Node23</title>
<g id="a_node24"><a xlink:href="classCoolTime.html#a87c28260c1bc77091162cbcf1ee2e129" target="_top" xlink:title="CoolTime::config">
<polygon fill="white" stroke="black" points="154.5,-380.5 154.5,-399.5 245.5,-399.5 245.5,-380.5 154.5,-380.5"/>
<text text-anchor="middle" x="200" y="-387.5" font-family="Helvetica,sans-Serif" font-size="10.00">CoolTime::config</text>
</a>
</g>
</g>
<!-- Node0&#45;&gt;Node23 -->
<g id="edge23" class="edge"><title>Node0&#45;&gt;Node23</title>
<path fill="none" stroke="midnightblue" d="M85.356,-418.411C105.324,-413.419 129.93,-407.268 151.133,-401.967"/>
<polygon fill="midnightblue" stroke="midnightblue" points="152.067,-405.341 160.92,-399.52 150.369,-398.55 152.067,-405.341"/>
</g>
<!-- Node24 -->
<g id="node25" class="node"><title>Node24</title>
<g id="a_node25"><a xlink:href="classIrene3000.html#afed5c35e4b23963c157847ef27c11e9c" target="_top" xlink:title="Irene3000::config">
<polygon fill="white" stroke="black" points="154,-342.5 154,-361.5 246,-361.5 246,-342.5 154,-342.5"/>
<text text-anchor="middle" x="200" y="-349.5" font-family="Helvetica,sans-Serif" font-size="10.00">Irene3000::config</text>
</a>
</g>
</g>
<!-- Node0&#45;&gt;Node24 -->
<g id="edge24" class="edge"><title>Node0&#45;&gt;Node24</title>
<path fill="none" stroke="midnightblue" d="M58.0087,-418.32C72.8984,-405.701 100.74,-383.745 128,-371 133.057,-368.636 138.459,-366.524 143.941,-364.649"/>
<polygon fill="midnightblue" stroke="midnightblue" points="145.355,-367.873 153.837,-361.524 143.247,-361.198 145.355,-367.873"/>
</g>
<!-- Node26 -->
<g id="node27" class="node"><title>Node26</title>
<g id="a_node27"><a xlink:href="classCoolBoardSensors.html#a9a218895c5423375c33c08f2c56fb23a" target="_top" xlink:title="CoolBoardSensors::config">
<polygon fill="white" stroke="black" points="134.5,-304.5 134.5,-323.5 265.5,-323.5 265.5,-304.5 134.5,-304.5"/>
<text text-anchor="middle" x="200" y="-311.5" font-family="Helvetica,sans-Serif" font-size="10.00">CoolBoardSensors::config</text>
</a>
</g>
</g>
<!-- Node0&#45;&gt;Node26 -->
<g id="edge26" class="edge"><title>Node0&#45;&gt;Node26</title>
<path fill="none" stroke="midnightblue" d="M52.5178,-418.232C63.9708,-398.873 92.2613,-355.562 128,-333 131.363,-330.877 134.96,-328.989 138.684,-327.31"/>
<polygon fill="midnightblue" stroke="midnightblue" points="140.139,-330.499 148.141,-323.555 137.555,-323.993 140.139,-330.499"/>
</g>
<!-- Node27 -->
<g id="node28" class="node"><title>Node27</title>
<g id="a_node28"><a xlink:href="classCoolBoard.html#a519de78b807f8ec6463ff484eb925918" target="_top" xlink:title="CoolBoard::connect">
<polygon fill="white" stroke="black" points="148.5,-266.5 148.5,-285.5 251.5,-285.5 251.5,-266.5 148.5,-266.5"/>
<text text-anchor="middle" x="200" y="-273.5" font-family="Helvetica,sans-Serif" font-size="10.00">CoolBoard::connect</text>
</a>
</g>
</g>
<!-- Node0&#45;&gt;Node27 -->
<g id="edge27" class="edge"><title>Node0&#45;&gt;Node27</title>
<path fill="none" stroke="midnightblue" d="M50.0808,-418.222C58.3811,-393.52 83.6327,-328.215 128,-295 131.39,-292.462 135.094,-290.263 138.974,-288.357"/>
<polygon fill="midnightblue" stroke="midnightblue" points="140.434,-291.54 148.282,-284.422 137.708,-285.093 140.434,-291.54"/>
</g>
<!-- Node31 -->
<g id="node32" class="node"><title>Node31</title>
<g id="a_node32"><a xlink:href="classCoolBoardLed.html#a8ed3053a36f0ed4a131f43b5b17efb61" target="_top" xlink:title="CoolBoardLed::printConf">
<polygon fill="white" stroke="black" points="138,-228.5 138,-247.5 262,-247.5 262,-228.5 138,-228.5"/>
<text text-anchor="middle" x="200" y="-235.5" font-family="Helvetica,sans-Serif" font-size="10.00">CoolBoardLed::printConf</text>
</a>
</g>
</g>
<!-- Node0&#45;&gt;Node31 -->
<g id="edge32" class="edge"><title>Node0&#45;&gt;Node31</title>
<path fill="none" stroke="midnightblue" d="M48.6935,-418.121C54.2572,-388.77 74.7618,-301.384 128,-257 130.015,-255.32 132.165,-253.787 134.414,-252.389"/>
<polygon fill="midnightblue" stroke="midnightblue" points="136.27,-255.368 143.512,-247.635 133.028,-249.164 136.27,-255.368"/>
</g>
<!-- Node32 -->
<g id="node33" class="node"><title>Node32</title>
<g id="a_node33"><a xlink:href="classJetpack.html#ac54a7bb4f9166bee32052253d9b1d306" target="_top" xlink:title="Jetpack::printConf">
<polygon fill="white" stroke="black" points="151.5,-190.5 151.5,-209.5 248.5,-209.5 248.5,-190.5 151.5,-190.5"/>
<text text-anchor="middle" x="200" y="-197.5" font-family="Helvetica,sans-Serif" font-size="10.00">Jetpack::printConf</text>
</a>
</g>
</g>
<!-- Node0&#45;&gt;Node32 -->
<g id="edge33" class="edge"><title>Node0&#45;&gt;Node32</title>
<path fill="none" stroke="midnightblue" d="M47.7323,-418.398C50.7835,-385.332 65.4354,-275.133 128,-219 132.096,-215.325 136.827,-212.349 141.862,-209.941"/>
<polygon fill="midnightblue" stroke="midnightblue" points="143.213,-213.17 151.184,-206.191 140.6,-206.676 143.213,-213.17"/>
</g>
<!-- Node33 -->
<g id="node34" class="node"><title>Node33</title>
<g id="a_node34"><a xlink:href="classExternalSensors.html#a78c2bf55084435dd51d3c559b2d3c6f3" target="_top" xlink:title="ExternalSensors::printConf">
<polygon fill="white" stroke="black" points="133,-152.5 133,-171.5 267,-171.5 267,-152.5 133,-152.5"/>
<text text-anchor="middle" x="200" y="-159.5" font-family="Helvetica,sans-Serif" font-size="10.00">ExternalSensors::printConf</text>
</a>
</g>
</g>
<!-- Node0&#45;&gt;Node33 -->
<g id="edge34" class="edge"><title>Node0&#45;&gt;Node33</title>
<path fill="none" stroke="midnightblue" d="M47.0878,-418.269C47.9691,-381.395 56.2061,-248.922 128,-181 129.657,-179.432 131.429,-177.991 133.291,-176.666"/>
<polygon fill="midnightblue" stroke="midnightblue" points="135.114,-179.655 141.962,-171.571 131.567,-173.62 135.114,-179.655"/>
</g>
<!-- Node34 -->
<g id="node35" class="node"><title>Node34</title>
<g id="a_node35"><a xlink:href="classCoolMQTT.html#a40553a0ad4b5ecf1cb4411ab54ca85fb" target="_top" xlink:title="CoolMQTT::printConf">
<polygon fill="white" stroke="black" points="145,-114.5 145,-133.5 255,-133.5 255,-114.5 145,-114.5"/>
<text text-anchor="middle" x="200" y="-121.5" font-family="Helvetica,sans-Serif" font-size="10.00">CoolMQTT::printConf</text>
</a>
</g>
</g>
<!-- Node0&#45;&gt;Node34 -->
<g id="edge35" class="edge"><title>Node0&#45;&gt;Node34</title>
<path fill="none" stroke="midnightblue" d="M46.601,-418.494C45.4735,-378.606 46.6321,-223.122 128,-143 130.409,-140.627 133.081,-138.543 135.934,-136.711"/>
<polygon fill="midnightblue" stroke="midnightblue" points="137.753,-139.709 144.96,-131.943 134.483,-133.519 137.753,-139.709"/>
</g>
<!-- Node35 -->
<g id="node36" class="node"><title>Node35</title>
<g id="a_node36"><a xlink:href="classIrene3000.html#a7bc2414100b5e19eacc6630fa34b2654" target="_top" xlink:title="Irene3000::printConf">
<polygon fill="white" stroke="black" points="147.5,-76.5 147.5,-95.5 252.5,-95.5 252.5,-76.5 147.5,-76.5"/>
<text text-anchor="middle" x="200" y="-83.5" font-family="Helvetica,sans-Serif" font-size="10.00">Irene3000::printConf</text>
</a>
</g>
</g>
<!-- Node0&#45;&gt;Node35 -->
<g id="edge36" class="edge"><title>Node0&#45;&gt;Node35</title>
<path fill="none" stroke="midnightblue" d="M48.1107,-418.305C53.8832,-369.56 81.9688,-151.763 128,-105 131.021,-101.931 134.48,-99.3408 138.208,-97.1567"/>
<polygon fill="midnightblue" stroke="midnightblue" points="139.83,-100.26 147.317,-92.7632 136.789,-93.955 139.83,-100.26"/>
</g>
<!-- Node36 -->
<g id="node37" class="node"><title>Node36</title>
<g id="a_node37"><a xlink:href="classCoolTime.html#af355e7f9b3898211cd2ff25eab5933b1" target="_top" xlink:title="CoolTime::printConf">
<polygon fill="white" stroke="black" points="148,-38.5 148,-57.5 252,-57.5 252,-38.5 148,-38.5"/>
<text text-anchor="middle" x="200" y="-45.5" font-family="Helvetica,sans-Serif" font-size="10.00">CoolTime::printConf</text>
</a>
</g>
</g>
<!-- Node0&#45;&gt;Node36 -->
<g id="edge37" class="edge"><title>Node0&#45;&gt;Node36</title>
<path fill="none" stroke="midnightblue" d="M47.8439,-418.23C52.5487,-365.98 77.1772,-119.938 128,-67 131.168,-63.7007 134.84,-60.9528 138.814,-58.6666"/>
<polygon fill="midnightblue" stroke="midnightblue" points="140.37,-61.8021 147.916,-54.3643 137.379,-55.4735 140.37,-61.8021"/>
</g>
<!-- Node37 -->
<g id="node38" class="node"><title>Node37</title>
<g id="a_node38"><a xlink:href="classCoolBoardSensors.html#af6fd79505815b204c178617ecf54c873" target="_top" xlink:title="CoolBoardSensors::printConf">
<polygon fill="white" stroke="black" points="128,-0.5 128,-19.5 272,-19.5 272,-0.5 128,-0.5"/>
<text text-anchor="middle" x="200" y="-7.5" font-family="Helvetica,sans-Serif" font-size="10.00">CoolBoardSensors::printConf</text>
</a>
</g>
</g>
<!-- Node0&#45;&gt;Node37 -->
<g id="edge38" class="edge"><title>Node0&#45;&gt;Node37</title>
<path fill="none" stroke="midnightblue" d="M47.6134,-418.321C51.305,-363.096 72.3071,-88.2096 128,-29 129.232,-27.69 130.544,-26.4667 131.923,-25.3245"/>
<polygon fill="midnightblue" stroke="midnightblue" points="134.085,-28.0892 140.465,-19.6304 130.203,-22.2646 134.085,-28.0892"/>
</g>
<!-- Node5 -->
<g id="node6" class="node"><title>Node5</title>
<g id="a_node6"><a xlink:href="classCoolMQTT.html#a30d82ad665bfb603f46ecdbc290775df" target="_top" xlink:title="CoolMQTT::callback">
<polygon fill="white" stroke="black" points="332.5,-734.5 332.5,-753.5 439.5,-753.5 439.5,-734.5 332.5,-734.5"/>
<text text-anchor="middle" x="386" y="-741.5" font-family="Helvetica,sans-Serif" font-size="10.00">CoolMQTT::callback</text>
</a>
</g>
</g>
<!-- Node4&#45;&gt;Node5 -->
<g id="edge5" class="edge"><title>Node4&#45;&gt;Node5</title>
<path fill="none" stroke="midnightblue" d="M247.431,-735.028C270.067,-736.504 297.628,-738.302 322.119,-739.899"/>
<polygon fill="midnightblue" stroke="midnightblue" points="322.197,-743.412 332.404,-740.57 322.653,-736.426 322.197,-743.412"/>
</g>
<!-- Node7 -->
<g id="node8" class="node"><title>Node7</title>
<g id="a_node8"><a xlink:href="classBaseExternalSensor.html#a87d132803d4f4fdd4e66332809f0c9a0" target="_top" xlink:title="BaseExternalSensor\l::begin">
<polygon fill="white" stroke="black" points="333,-685 333,-715 439,-715 439,-685 333,-685"/>
<text text-anchor="start" x="341" y="-703" font-family="Helvetica,sans-Serif" font-size="10.00">BaseExternalSensor</text>
<text text-anchor="middle" x="386" y="-692" font-family="Helvetica,sans-Serif" font-size="10.00">::begin</text>
</a>
</g>
</g>
<!-- Node6&#45;&gt;Node7 -->
<g id="edge7" class="edge"><title>Node6&#45;&gt;Node7</title>
<path fill="none" stroke="midnightblue" d="M259.219,-695.898C279.394,-696.556 302.086,-697.296 322.586,-697.965"/>
<polygon fill="midnightblue" stroke="midnightblue" points="322.656,-701.469 332.765,-698.297 322.885,-694.473 322.656,-701.469"/>
</g>
<!-- Node9 -->
<g id="node10" class="node"><title>Node9</title>
<g id="a_node10"><a xlink:href="classCoolBoardSensors.html#acad6a8418c66d36868caca23c844ecb6" target="_top" xlink:title="CoolBoardSensors::initReadI2C">
<polygon fill="white" stroke="black" points="308,-646.5 308,-665.5 464,-665.5 464,-646.5 308,-646.5"/>
<text text-anchor="middle" x="386" y="-653.5" font-family="Helvetica,sans-Serif" font-size="10.00">CoolBoardSensors::initReadI2C</text>
</a>
</g>
</g>
<!-- Node8&#45;&gt;Node9 -->
<g id="edge9" class="edge"><title>Node8&#45;&gt;Node9</title>
<path fill="none" stroke="midnightblue" d="M264.065,-656C274.818,-656 286.157,-656 297.409,-656"/>
<polygon fill="midnightblue" stroke="midnightblue" points="297.698,-659.5 307.698,-656 297.698,-652.5 297.698,-659.5"/>
</g>
<!-- Node10 -->
<g id="node11" class="node"><title>Node10</title>
<g id="a_node11"><a xlink:href="classCoolBoardSensors.html#a406307ffd70272282d91479c7ed8d66f" target="_top" xlink:title="CoolBoardSensors::setEnv\lSensorSettings">
<polygon fill="white" stroke="black" points="318.5,-597 318.5,-627 453.5,-627 453.5,-597 318.5,-597"/>
<text text-anchor="start" x="326.5" y="-615" font-family="Helvetica,sans-Serif" font-size="10.00">CoolBoardSensors::setEnv</text>
<text text-anchor="middle" x="386" y="-604" font-family="Helvetica,sans-Serif" font-size="10.00">SensorSettings</text>
</a>
</g>
</g>
<!-- Node8&#45;&gt;Node10 -->
<g id="edge10" class="edge"><title>Node8&#45;&gt;Node10</title>
<path fill="none" stroke="midnightblue" d="M240.925,-646.453C261.734,-641.477 287.842,-635.233 312.098,-629.433"/>
<polygon fill="midnightblue" stroke="midnightblue" points="313.088,-632.795 321.999,-627.065 311.46,-625.987 313.088,-632.795"/>
</g>
<!-- Node12 -->
<g id="node13" class="node"><title>Node12</title>
<g id="a_node13"><a xlink:href="classCoolTime.html#aae601f795452cfa48d9fb337aed483a8" target="_top" xlink:title="CoolTime::update">
<polygon fill="white" stroke="black" points="339,-558.5 339,-577.5 433,-577.5 433,-558.5 339,-558.5"/>
<text text-anchor="middle" x="386" y="-565.5" font-family="Helvetica,sans-Serif" font-size="10.00">CoolTime::update</text>
</a>
</g>
</g>
<!-- Node11&#45;&gt;Node12 -->
<g id="edge12" class="edge"><title>Node11&#45;&gt;Node12</title>
<path fill="none" stroke="midnightblue" d="M237.552,-608.481C248.639,-605.523 260.837,-602.198 272,-599 288.083,-594.392 291.9,-592.548 308,-588 317.371,-585.352 327.422,-582.646 337.066,-580.114"/>
<polygon fill="midnightblue" stroke="midnightblue" points="338.128,-583.455 346.924,-577.549 336.365,-576.68 338.128,-583.455"/>
</g>
<!-- Node13 -->
<g id="node14" class="node"><title>Node13</title>
<g id="a_node14"><a xlink:href="classCoolTime.html#a5ae038a4498602b189f76a10bf02adf8" target="_top" xlink:title="CoolTime::isTimeSync">
<polygon fill="white" stroke="black" points="507,-596.5 507,-615.5 623,-615.5 623,-596.5 507,-596.5"/>
<text text-anchor="middle" x="565" y="-603.5" font-family="Helvetica,sans-Serif" font-size="10.00">CoolTime::isTimeSync</text>
</a>
</g>
</g>
<!-- Node12&#45;&gt;Node13 -->
<g id="edge13" class="edge"><title>Node12&#45;&gt;Node13</title>
<path fill="none" stroke="midnightblue" d="M431.665,-577.589C455.337,-582.671 484.608,-588.955 509.597,-594.32"/>
<polygon fill="midnightblue" stroke="midnightblue" points="509.145,-597.803 519.657,-596.48 510.614,-590.959 509.145,-597.803"/>
</g>
<!-- Node15 -->
<g id="node16" class="node"><title>Node15</title>
<g id="a_node16"><a xlink:href="classCoolTime.html#a41fbbbfd651c2079f54d4b2911e4c705" target="_top" xlink:title="CoolTime::getNtpTime">
<polygon fill="white" stroke="black" points="507,-558.5 507,-577.5 623,-577.5 623,-558.5 507,-558.5"/>
<text text-anchor="middle" x="565" y="-565.5" font-family="Helvetica,sans-Serif" font-size="10.00">CoolTime::getNtpTime</text>
</a>
</g>
</g>
<!-- Node12&#45;&gt;Node15 -->
<g id="edge15" class="edge"><title>Node12&#45;&gt;Node15</title>
<path fill="none" stroke="midnightblue" d="M433.043,-568C452.408,-568 475.329,-568 496.538,-568"/>
<polygon fill="midnightblue" stroke="midnightblue" points="496.789,-571.5 506.789,-568 496.789,-564.5 496.789,-571.5"/>
</g>
<!-- Node17 -->
<g id="node18" class="node"><title>Node17</title>
<g id="a_node18"><a xlink:href="classCoolTime.html#ae9658c9b377510d469e3b88edf33ee85" target="_top" xlink:title="CoolTime::saveTimeSync">
<polygon fill="white" stroke="black" points="500,-520.5 500,-539.5 630,-539.5 630,-520.5 500,-520.5"/>
<text text-anchor="middle" x="565" y="-527.5" font-family="Helvetica,sans-Serif" font-size="10.00">CoolTime::saveTimeSync</text>
</a>
</g>
</g>
<!-- Node12&#45;&gt;Node17 -->
<g id="edge17" class="edge"><title>Node12&#45;&gt;Node17</title>
<path fill="none" stroke="midnightblue" d="M431.665,-558.411C455.337,-553.329 484.608,-547.045 509.597,-541.68"/>
<polygon fill="midnightblue" stroke="midnightblue" points="510.614,-545.041 519.657,-539.52 509.145,-538.197 510.614,-545.041"/>
</g>
<!-- Node14 -->
<g id="node15" class="node"><title>Node14</title>
<g id="a_node15"><a xlink:href="classCoolTime.html#a5d17f707a9d337720493b2bce9d41c21" target="_top" xlink:title="CoolTime::getLastSyncTime">
<polygon fill="white" stroke="black" points="666,-596.5 666,-615.5 807,-615.5 807,-596.5 666,-596.5"/>
<text text-anchor="middle" x="736.5" y="-603.5" font-family="Helvetica,sans-Serif" font-size="10.00">CoolTime::getLastSyncTime</text>
</a>
</g>
</g>
<!-- Node13&#45;&gt;Node14 -->
<g id="edge14" class="edge"><title>Node13&#45;&gt;Node14</title>
<path fill="none" stroke="midnightblue" d="M623.385,-606C633.826,-606 644.889,-606 655.837,-606"/>
<polygon fill="midnightblue" stroke="midnightblue" points="655.839,-609.5 665.839,-606 655.839,-602.5 655.839,-609.5"/>
</g>
<!-- Node16 -->
<g id="node17" class="node"><title>Node16</title>
<g id="a_node17"><a xlink:href="classCoolTime.html#a236a38d120dc53bc67456d763838c5a1" target="_top" xlink:title="CoolTime::sendNTPpacket">
<polygon fill="white" stroke="black" points="669,-558.5 669,-577.5 804,-577.5 804,-558.5 669,-558.5"/>
<text text-anchor="middle" x="736.5" y="-565.5" font-family="Helvetica,sans-Serif" font-size="10.00">CoolTime::sendNTPpacket</text>
</a>
</g>
</g>
<!-- Node15&#45;&gt;Node16 -->
<g id="edge16" class="edge"><title>Node15&#45;&gt;Node16</title>
<path fill="none" stroke="midnightblue" d="M623.385,-568C634.676,-568 646.693,-568 658.507,-568"/>
<polygon fill="midnightblue" stroke="midnightblue" points="658.813,-571.5 668.813,-568 658.813,-564.5 658.813,-571.5"/>
</g>
<!-- Node25 -->
<g id="node26" class="node"><title>Node25</title>
<g id="a_node26"><a xlink:href="classIrene3000.html#abcad62d1201a59f8dd3ba87048002728" target="_top" xlink:title="Irene3000::gainConvert">
<polygon fill="white" stroke="black" points="327,-342.5 327,-361.5 445,-361.5 445,-342.5 327,-342.5"/>
<text text-anchor="middle" x="386" y="-349.5" font-family="Helvetica,sans-Serif" font-size="10.00">Irene3000::gainConvert</text>
</a>
</g>
</g>
<!-- Node24&#45;&gt;Node25 -->
<g id="edge25" class="edge"><title>Node24&#45;&gt;Node25</title>
<path fill="none" stroke="midnightblue" d="M246.011,-352C267.235,-352 293.018,-352 316.587,-352"/>
<polygon fill="midnightblue" stroke="midnightblue" points="316.883,-355.5 326.883,-352 316.883,-348.5 316.883,-355.5"/>
</g>
<!-- Node28 -->
<g id="node29" class="node"><title>Node28</title>
<g id="a_node29"><a xlink:href="classCoolMQTT.html#a5d003307eff78efbd585e42b43b72b6d" target="_top" xlink:title="CoolMQTT::state">
<polygon fill="white" stroke="black" points="519,-285.5 519,-304.5 611,-304.5 611,-285.5 519,-285.5"/>
<text text-anchor="middle" x="565" y="-292.5" font-family="Helvetica,sans-Serif" font-size="10.00">CoolMQTT::state</text>
</a>
</g>
</g>
<!-- Node27&#45;&gt;Node28 -->
<g id="edge28" class="edge"><title>Node27&#45;&gt;Node28</title>
<path fill="none" stroke="midnightblue" d="M244.498,-285.512C263.839,-289.277 286.951,-293.146 308,-295 376.9,-301.07 456.636,-299.76 508.571,-297.799"/>
<polygon fill="midnightblue" stroke="midnightblue" points="508.723,-301.296 518.576,-297.401 508.444,-294.302 508.723,-301.296"/>
</g>
<!-- Node29 -->
<g id="node30" class="node"><title>Node29</title>
<g id="a_node30"><a xlink:href="classCoolMQTT.html#a58b0b1f64b269c2681685208262fba1d" target="_top" xlink:title="CoolMQTT::connect">
<polygon fill="white" stroke="black" points="333.5,-266.5 333.5,-285.5 438.5,-285.5 438.5,-266.5 333.5,-266.5"/>
<text text-anchor="middle" x="386" y="-273.5" font-family="Helvetica,sans-Serif" font-size="10.00">CoolMQTT::connect</text>
</a>
</g>
</g>
<!-- Node27&#45;&gt;Node29 -->
<g id="edge29" class="edge"><title>Node27&#45;&gt;Node29</title>
<path fill="none" stroke="midnightblue" d="M251.766,-276C273.912,-276 300.077,-276 323.331,-276"/>
<polygon fill="midnightblue" stroke="midnightblue" points="323.441,-279.5 333.441,-276 323.441,-272.5 323.441,-279.5"/>
</g>
<!-- Node30 -->
<g id="node31" class="node"><title>Node30</title>
<g id="a_node31"><a xlink:href="classCoolBoard.html#aaa24480b273fc095a1356a589c333781" target="_top" xlink:title="CoolBoard::getLogInterval">
<polygon fill="white" stroke="black" points="321,-228.5 321,-247.5 451,-247.5 451,-228.5 321,-228.5"/>
<text text-anchor="middle" x="386" y="-235.5" font-family="Helvetica,sans-Serif" font-size="10.00">CoolBoard::getLogInterval</text>
</a>
</g>
</g>
<!-- Node27&#45;&gt;Node30 -->
<g id="edge31" class="edge"><title>Node27&#45;&gt;Node30</title>
<path fill="none" stroke="midnightblue" d="M247.431,-266.411C272.149,-261.306 302.739,-254.989 328.792,-249.608"/>
<polygon fill="midnightblue" stroke="midnightblue" points="329.817,-252.97 338.903,-247.52 328.402,-246.115 329.817,-252.97"/>
</g>
<!-- Node29&#45;&gt;Node28 -->
<g id="edge30" class="edge"><title>Node29&#45;&gt;Node28</title>
<path fill="none" stroke="midnightblue" d="M438.672,-281.547C460.705,-283.912 486.445,-286.675 508.846,-289.08"/>
<polygon fill="midnightblue" stroke="midnightblue" points="508.562,-292.569 518.878,-290.156 509.309,-285.609 508.562,-292.569"/>
</g>
</g>
</svg>
