<?xml version="1.0" encoding="UTF-8" standalone="no"?>
<!DOCTYPE svg PUBLIC "-//W3C//DTD SVG 1.1//EN"
 "http://www.w3.org/Graphics/SVG/1.1/DTD/svg11.dtd">
<!-- Generated by graphviz version 2.38.0 (20140413.2041)
 -->
<!-- Title: CoolBoard::onLineMode Pages: 1 -->
<!--zoomable 819 -->
<svg id="main" version="1.1" xmlns="http://www.w3.org/2000/svg" xmlns:xlink="http://www.w3.org/1999/xlink" xml:space="preserve" onload="init(evt)">
<style type="text/css"><![CDATA[
.edge:hover path { stroke: red; }
.edge:hover polygon { stroke: red; fill: red; }
]]></style>
<script type="text/javascript"><![CDATA[
var edges = document.getElementsByTagName('g');
if (edges && edges.length) {
  for (var i=0;i<edges.length;i++) {
    if (edges[i].id.substr(0,4)=='edge') {
      edges[i].setAttribute('class','edge');
    }
  }
}
]]></script>
        <defs>
                <circle id="rim" cx="0" cy="0" r="7"/>
                <circle id="rim2" cx="0" cy="0" r="3.5"/>
                <g id="zoomPlus">
                        <use xlink:href="#rim" fill="#404040">
                                <set attributeName="fill" to="#808080" begin="zoomplus.mouseover" end="zoomplus.mouseout"/>
                        </use>
                        <path d="M-4,0h8M0,-4v8" fill="none" stroke="white" stroke-width="1.5" pointer-events="none"/>
                </g>
                <g id="zoomMin">
                        <use xlink:href="#rim" fill="#404040">
                                <set attributeName="fill" to="#808080" begin="zoomminus.mouseover" end="zoomminus.mouseout"/>
                        </use>
                        <path d="M-4,0h8" fill="none" stroke="white" stroke-width="1.5" pointer-events="none"/>
                </g>
                <g id="dirArrow">
                        <path fill="none" stroke="white" stroke-width="1.5" d="M0,-3.0v7 M-2.5,-0.5L0,-3.0L2.5,-0.5"/>
                </g>
               <g id="resetDef">
                       <use xlink:href="#rim2" fill="#404040">
                               <set attributeName="fill" to="#808080" begin="reset.mouseover" end="reset.mouseout"/>
                       </use>
               </g>
        </defs>

<script type="text/javascript">
var viewWidth = 851;
var viewHeight = 819;
var sectionId = 'dynsection-8';
</script>
<script xlink:href="svgpan.js"/>
<svg id="graph" class="graph">
<g id="viewport">
<title>CoolBoard::onLineMode</title>
<polygon fill="white" stroke="none" points="-4,4 -4,-815 847,-815 847,4 -4,4"/>
<!-- Node99 -->
<g id="node1" class="node"><title>Node99</title>
<polygon fill="#bfbfbf" stroke="black" points="0,-475.5 0,-494.5 121,-494.5 121,-475.5 0,-475.5"/>
<text text-anchor="middle" x="60.5" y="-482.5" font-family="Helvetica,sans-Serif" font-size="10.00">CoolBoard::onLineMode</text>
</g>
<!-- Node100 -->
<g id="node2" class="node"><title>Node100</title>
<g id="a_node2"><a xlink:href="classCoolBoardLed.html#a96e1ea13003eee34c9dbcef340404426" target="_top" xlink:title="CoolBoardLed::blink">
<polygon fill="white" stroke="black" points="179.5,-791.5 179.5,-810.5 283.5,-810.5 283.5,-791.5 179.5,-791.5"/>
<text text-anchor="middle" x="231.5" y="-798.5" font-family="Helvetica,sans-Serif" font-size="10.00">CoolBoardLed::blink</text>
</a>
</g>
</g>
<!-- Node99&#45;&gt;Node100 -->
<g id="edge1" class="edge"><title>Node99&#45;&gt;Node100</title>
<path fill="none" stroke="midnightblue" d="M61.475,-494.678C61.9177,-536 69.3445,-699.298 157,-782 160.797,-785.583 165.179,-788.511 169.873,-790.903"/>
<polygon fill="midnightblue" stroke="midnightblue" points="168.643,-794.183 179.215,-794.871 171.379,-787.74 168.643,-794.183"/>
</g>
<!-- Node101 -->
<g id="node3" class="node"><title>Node101</title>
<g id="a_node3"><a xlink:href="classJetpack.html#a9e703197093094b963f9ad57817495b8" target="_top" xlink:title="Jetpack::doAction">
<polygon fill="white" stroke="black" points="184,-753.5 184,-772.5 279,-772.5 279,-753.5 184,-753.5"/>
<text text-anchor="middle" x="231.5" y="-760.5" font-family="Helvetica,sans-Serif" font-size="10.00">Jetpack::doAction</text>
</a>
</g>
</g>
<!-- Node99&#45;&gt;Node101 -->
<g id="edge2" class="edge"><title>Node99&#45;&gt;Node101</title>
<path fill="none" stroke="midnightblue" d="M61.9954,-494.729C64.4781,-532.831 78.8035,-673.278 157,-744 162.057,-748.574 168.072,-752.075 174.451,-754.75"/>
<polygon fill="midnightblue" stroke="midnightblue" points="173.393,-758.088 183.988,-758.107 175.718,-751.485 173.393,-758.088"/>
</g>
<!-- Node103 -->
<g id="node5" class="node"><title>Node103</title>
<g id="a_node5"><a xlink:href="classCoolBoardLed.html#af1cacbaa88db8bcf6042c1083ba41155" target="_top" xlink:title="CoolBoardLed::fade">
<polygon fill="white" stroke="black" points="180,-715.5 180,-734.5 283,-734.5 283,-715.5 180,-715.5"/>
<text text-anchor="middle" x="231.5" y="-722.5" font-family="Helvetica,sans-Serif" font-size="10.00">CoolBoardLed::fade</text>
</a>
</g>
</g>
<!-- Node99&#45;&gt;Node103 -->
<g id="edge4" class="edge"><title>Node99&#45;&gt;Node103</title>
<path fill="none" stroke="midnightblue" d="M62.9543,-494.822C68.4823,-528.666 91.3043,-641.606 157,-701 161.465,-705.037 166.621,-708.396 172.09,-711.191"/>
<polygon fill="midnightblue" stroke="midnightblue" points="170.96,-714.519 181.52,-715.382 173.803,-708.122 170.96,-714.519"/>
</g>
<!-- Node104 -->
<g id="node6" class="node"><title>Node104</title>
<g id="a_node6"><a xlink:href="classCoolBoardLed.html#ab778f5e7bed0ab74e3906d82110493c3" target="_top" xlink:title="CoolBoardLed::fadeIn">
<polygon fill="white" stroke="black" points="361.5,-475.5 361.5,-494.5 472.5,-494.5 472.5,-475.5 361.5,-475.5"/>
<text text-anchor="middle" x="417" y="-482.5" font-family="Helvetica,sans-Serif" font-size="10.00">CoolBoardLed::fadeIn</text>
</a>
</g>
</g>
<!-- Node99&#45;&gt;Node104 -->
<g id="edge5" class="edge"><title>Node99&#45;&gt;Node104</title>
<path fill="none" stroke="midnightblue" d="M64.3667,-494.846C72.9827,-522.383 101.539,-600.118 157,-630 215.299,-661.411 253.132,-669.879 306,-630 352.497,-594.928 300.266,-544.623 342,-504 344.963,-501.116 348.301,-498.653 351.88,-496.55"/>
<polygon fill="midnightblue" stroke="midnightblue" points="353.723,-499.547 361.193,-492.034 350.668,-493.248 353.723,-499.547"/>
</g>
<!-- Node105 -->
<g id="node7" class="node"><title>Node105</title>
<g id="a_node7"><a xlink:href="classCoolBoardLed.html#a93d545679237e8cc858324367149775c" target="_top" xlink:title="CoolBoardLed::fadeOut">
<polygon fill="white" stroke="black" points="357.5,-380.5 357.5,-399.5 476.5,-399.5 476.5,-380.5 357.5,-380.5"/>
<text text-anchor="middle" x="417" y="-387.5" font-family="Helvetica,sans-Serif" font-size="10.00">CoolBoardLed::fadeOut</text>
</a>
</g>
</g>
<!-- Node99&#45;&gt;Node105 -->
<g id="edge6" class="edge"><title>Node99&#45;&gt;Node105</title>
<path fill="none" stroke="midnightblue" d="M67.3936,-475.3C80.4762,-454.833 114.197,-407.664 157,-390 224.163,-362.283 309.728,-369.556 363.706,-378.69"/>
<polygon fill="midnightblue" stroke="midnightblue" points="363.277,-382.169 373.735,-380.471 364.501,-375.277 363.277,-382.169"/>
</g>
<!-- Node106 -->
<g id="node8" class="node"><title>Node106</title>
<g id="a_node8"><a xlink:href="classCoolBoard.html#a7508e029f2ee17bb747ffab599285e0d" target="_top" xlink:title="CoolBoard::getLogInterval">
<polygon fill="white" stroke="black" points="166.5,-601.5 166.5,-620.5 296.5,-620.5 296.5,-601.5 166.5,-601.5"/>
<text text-anchor="middle" x="231.5" y="-608.5" font-family="Helvetica,sans-Serif" font-size="10.00">CoolBoard::getLogInterval</text>
</a>
</g>
</g>
<!-- Node99&#45;&gt;Node106 -->
<g id="edge7" class="edge"><title>Node99&#45;&gt;Node106</title>
<path fill="none" stroke="midnightblue" d="M67.3512,-494.583C80.5975,-515.446 115.018,-565.17 157,-591 161.324,-593.66 166.004,-595.973 170.836,-597.981"/>
<polygon fill="midnightblue" stroke="midnightblue" points="169.669,-601.282 180.262,-601.482 172.106,-594.719 169.669,-601.282"/>
</g>
<!-- Node107 -->
<g id="node9" class="node"><title>Node107</title>
<g id="a_node9"><a xlink:href="classCoolFileSystem.html#a3223ffff4266a6300988fab956d6b4b2" target="_top" xlink:title="CoolFileSystem::getSensor\lSavedData">
<polygon fill="white" stroke="black" points="163,-552 163,-582 300,-582 300,-552 163,-552"/>
<text text-anchor="start" x="171" y="-570" font-family="Helvetica,sans-Serif" font-size="10.00">CoolFileSystem::getSensor</text>
<text text-anchor="middle" x="231.5" y="-559" font-family="Helvetica,sans-Serif" font-size="10.00">SavedData</text>
</a>
</g>
</g>
<!-- Node99&#45;&gt;Node107 -->
<g id="edge8" class="edge"><title>Node99&#45;&gt;Node107</title>
<path fill="none" stroke="midnightblue" d="M75.5449,-494.67C93.7256,-506.881 126.679,-527.984 157,-542 161.697,-544.171 166.638,-546.253 171.645,-548.224"/>
<polygon fill="midnightblue" stroke="midnightblue" points="170.714,-551.614 181.306,-551.872 173.187,-545.065 170.714,-551.614"/>
</g>
<!-- Node108 -->
<g id="node10" class="node"><title>Node108</title>
<g id="a_node10"><a xlink:href="classCoolFileSystem.html#a5a7eaeea7a9fbf8aaef651d862fa3b5b" target="_top" xlink:title="CoolFileSystem::isDataSaved">
<polygon fill="white" stroke="black" points="157,-513.5 157,-532.5 306,-532.5 306,-513.5 157,-513.5"/>
<text text-anchor="middle" x="231.5" y="-520.5" font-family="Helvetica,sans-Serif" font-size="10.00">CoolFileSystem::isDataSaved</text>
</a>
</g>
</g>
<!-- Node99&#45;&gt;Node108 -->
<g id="edge9" class="edge"><title>Node99&#45;&gt;Node108</title>
<path fill="none" stroke="midnightblue" d="M104.146,-494.589C126.648,-499.649 154.448,-505.9 178.238,-511.249"/>
<polygon fill="midnightblue" stroke="midnightblue" points="177.637,-514.701 188.161,-513.48 179.172,-507.871 177.637,-514.701"/>
</g>
<!-- Node109 -->
<g id="node11" class="node"><title>Node109</title>
<g id="a_node11"><a xlink:href="classCoolMQTT.html#aa5eaae967b562b62cbcf2b8d81f6e5d5" target="_top" xlink:title="CoolMQTT::mqttLoop">
<polygon fill="white" stroke="black" points="361.5,-620.5 361.5,-639.5 472.5,-639.5 472.5,-620.5 361.5,-620.5"/>
<text text-anchor="middle" x="417" y="-627.5" font-family="Helvetica,sans-Serif" font-size="10.00">CoolMQTT::mqttLoop</text>
</a>
</g>
</g>
<!-- Node99&#45;&gt;Node109 -->
<g id="edge10" class="edge"><title>Node99&#45;&gt;Node109</title>
<path fill="none" stroke="midnightblue" d="M63.3713,-494.805C69.8254,-525.532 94.3029,-620.098 157,-657 230.418,-700.212 336.084,-665.179 386.744,-643.678"/>
<polygon fill="midnightblue" stroke="midnightblue" points="388.353,-646.795 396.116,-639.586 385.551,-640.38 388.353,-646.795"/>
</g>
<!-- Node110 -->
<g id="node12" class="node"><title>Node110</title>
<g id="a_node12"><a xlink:href="classCoolMQTT.html#ace977b3e90ab14b1199fe5c4fb0a13ec" target="_top" xlink:title="CoolMQTT::publish">
<polygon fill="white" stroke="black" points="366.5,-437.5 366.5,-456.5 467.5,-456.5 467.5,-437.5 366.5,-437.5"/>
<text text-anchor="middle" x="417" y="-444.5" font-family="Helvetica,sans-Serif" font-size="10.00">CoolMQTT::publish</text>
</a>
</g>
</g>
<!-- Node99&#45;&gt;Node110 -->
<g id="edge11" class="edge"><title>Node99&#45;&gt;Node110</title>
<path fill="none" stroke="midnightblue" d="M103.623,-475.457C120.185,-472.011 139.411,-468.386 157,-466 224.853,-456.797 303.355,-451.826 355.988,-449.305"/>
<polygon fill="midnightblue" stroke="midnightblue" points="356.332,-452.793 366.159,-448.833 356.008,-445.801 356.332,-452.793"/>
</g>
<!-- Node111 -->
<g id="node13" class="node"><title>Node111</title>
<g id="a_node13"><a xlink:href="classCoolMQTT.html#ae3c18f6ae9723746d32765f1c8f176ca" target="_top" xlink:title="CoolMQTT::read">
<polygon fill="white" stroke="black" points="187,-399.5 187,-418.5 276,-418.5 276,-399.5 187,-399.5"/>
<text text-anchor="middle" x="231.5" y="-406.5" font-family="Helvetica,sans-Serif" font-size="10.00">CoolMQTT::read</text>
</a>
</g>
</g>
<!-- Node99&#45;&gt;Node111 -->
<g id="edge12" class="edge"><title>Node99&#45;&gt;Node111</title>
<path fill="none" stroke="midnightblue" d="M76.9415,-475.442C95.4678,-464.248 127.703,-445.633 157,-433 166.522,-428.894 176.99,-425.081 186.966,-421.757"/>
<polygon fill="midnightblue" stroke="midnightblue" points="188.285,-425.009 196.725,-418.604 186.133,-418.348 188.285,-425.009"/>
</g>
<!-- Node112 -->
<g id="node14" class="node"><title>Node112</title>
<g id="a_node14"><a xlink:href="classCoolBoard.html#ad03abdce2e65f520bbf2cff0f2d083cf" target="_top" xlink:title="CoolBoard::readSensors">
<polygon fill="white" stroke="black" points="170,-247.5 170,-266.5 293,-266.5 293,-247.5 170,-247.5"/>
<text text-anchor="middle" x="231.5" y="-254.5" font-family="Helvetica,sans-Serif" font-size="10.00">CoolBoard::readSensors</text>
</a>
</g>
</g>
<!-- Node99&#45;&gt;Node112 -->
<g id="edge13" class="edge"><title>Node99&#45;&gt;Node112</title>
<path fill="none" stroke="midnightblue" d="M62.9291,-475.341C68.3746,-442.088 90.9596,-331.352 157,-276 159.033,-274.296 161.2,-272.743 163.469,-271.327"/>
<polygon fill="midnightblue" stroke="midnightblue" points="165.413,-274.259 172.647,-266.518 162.164,-268.059 165.413,-274.259"/>
</g>
<!-- Node113 -->
<g id="node15" class="node"><title>Node113</title>
<g id="a_node15"><a xlink:href="classCoolBoardLed.html#ad5f0de4c628cbfbf49896042831c64ad" target="_top" xlink:title="CoolBoardLed::strobe">
<polygon fill="white" stroke="black" points="361.5,-342.5 361.5,-361.5 472.5,-361.5 472.5,-342.5 361.5,-342.5"/>
<text text-anchor="middle" x="417" y="-349.5" font-family="Helvetica,sans-Serif" font-size="10.00">CoolBoardLed::strobe</text>
</a>
</g>
</g>
<!-- Node99&#45;&gt;Node113 -->
<g id="edge32" class="edge"><title>Node99&#45;&gt;Node113</title>
<path fill="none" stroke="midnightblue" d="M65.7994,-475.41C76.9243,-451.903 109.167,-391.546 157,-367 217.453,-335.978 296.6,-336.309 351.415,-341.814"/>
<polygon fill="midnightblue" stroke="midnightblue" points="351.037,-345.293 361.356,-342.896 351.794,-338.334 351.037,-345.293"/>
</g>
<!-- Node126 -->
<g id="node28" class="node"><title>Node126</title>
<g id="a_node28"><a xlink:href="classCoolBoard.html#a069952cdcb2e7f68518aa429eceadb6e" target="_top" xlink:title="CoolBoard::sleep">
<polygon fill="white" stroke="black" points="185.5,-285.5 185.5,-304.5 277.5,-304.5 277.5,-285.5 185.5,-285.5"/>
<text text-anchor="middle" x="231.5" y="-292.5" font-family="Helvetica,sans-Serif" font-size="10.00">CoolBoard::sleep</text>
</a>
</g>
</g>
<!-- Node99&#45;&gt;Node126 -->
<g id="edge31" class="edge"><title>Node99&#45;&gt;Node126</title>
<path fill="none" stroke="midnightblue" d="M64.3927,-475.111C73.2603,-446.524 102.804,-363.021 157,-319 162.659,-314.403 169.225,-310.677 176.059,-307.658"/>
<polygon fill="midnightblue" stroke="midnightblue" points="177.449,-310.873 185.483,-303.965 174.895,-304.355 177.449,-310.873"/>
</g>
<!-- Node127 -->
<g id="node29" class="node"><title>Node127</title>
<g id="a_node29"><a xlink:href="classCoolTime.html#aae601f795452cfa48d9fb337aed483a8" target="_top" xlink:title="CoolTime::update">
<polygon fill="white" stroke="black" points="184.5,-152.5 184.5,-171.5 278.5,-171.5 278.5,-152.5 184.5,-152.5"/>
<text text-anchor="middle" x="231.5" y="-159.5" font-family="Helvetica,sans-Serif" font-size="10.00">CoolTime::update</text>
</a>
</g>
</g>
<!-- Node99&#45;&gt;Node127 -->
<g id="edge33" class="edge"><title>Node99&#45;&gt;Node127</title>
<path fill="none" stroke="midnightblue" d="M63.7325,-475.402C72.0082,-441.086 103.263,-322.058 157,-238 171.818,-214.821 194.478,-192.734 210.718,-178.404"/>
<polygon fill="midnightblue" stroke="midnightblue" points="213.261,-180.833 218.551,-171.653 208.691,-175.531 213.261,-180.833"/>
</g>
<!-- Node133 -->
<g id="node35" class="node"><title>Node133</title>
<g id="a_node35"><a xlink:href="classCoolBoard.html#a8612756d3f73198cdde857a66f0fe690" target="_top" xlink:title="CoolBoard::update">
<polygon fill="white" stroke="black" points="182.5,-475.5 182.5,-494.5 280.5,-494.5 280.5,-475.5 182.5,-475.5"/>
<text text-anchor="middle" x="231.5" y="-482.5" font-family="Helvetica,sans-Serif" font-size="10.00">CoolBoard::update</text>
</a>
</g>
</g>
<!-- Node99&#45;&gt;Node133 -->
<g id="edge39" class="edge"><title>Node99&#45;&gt;Node133</title>
<path fill="none" stroke="midnightblue" d="M121.083,-485C137.688,-485 155.703,-485 172.232,-485"/>
<polygon fill="midnightblue" stroke="midnightblue" points="172.306,-488.5 182.305,-485 172.305,-481.5 172.306,-488.5"/>
</g>
<!-- Node136 -->
<g id="node38" class="node"><title>Node136</title>
<g id="a_node38"><a xlink:href="classCoolBoard.html#ae7358fb6e623cfc81b775f5f1734909b" target="_top" xlink:title="CoolBoard::userData">
<polygon fill="white" stroke="black" points="177.5,-38.5 177.5,-57.5 285.5,-57.5 285.5,-38.5 177.5,-38.5"/>
<text text-anchor="middle" x="231.5" y="-45.5" font-family="Helvetica,sans-Serif" font-size="10.00">CoolBoard::userData</text>
</a>
</g>
</g>
<!-- Node99&#45;&gt;Node136 -->
<g id="edge47" class="edge"><title>Node99&#45;&gt;Node136</title>
<path fill="none" stroke="midnightblue" d="M62.8158,-475.26C68.7485,-433.429 95.4444,-265.575 157,-143 172.095,-112.942 197.346,-83.0477 213.964,-65.0433"/>
<polygon fill="midnightblue" stroke="midnightblue" points="216.618,-67.3302 220.923,-57.6498 211.521,-62.5322 216.618,-67.3302"/>
</g>
<!-- Node102 -->
<g id="node4" class="node"><title>Node102</title>
<g id="a_node4"><a xlink:href="classJetpack.html#a338f1af8cbc6504ac69b47c7328569b5" target="_top" xlink:title="Jetpack::write">
<polygon fill="white" stroke="black" points="378,-753.5 378,-772.5 456,-772.5 456,-753.5 378,-753.5"/>
<text text-anchor="middle" x="417" y="-760.5" font-family="Helvetica,sans-Serif" font-size="10.00">Jetpack::write</text>
</a>
</g>
</g>
<!-- Node101&#45;&gt;Node102 -->
<g id="edge3" class="edge"><title>Node101&#45;&gt;Node102</title>
<path fill="none" stroke="midnightblue" d="M279.28,-763C306.396,-763 340.476,-763 367.827,-763"/>
<polygon fill="midnightblue" stroke="midnightblue" points="367.951,-766.5 377.951,-763 367.951,-759.5 367.951,-766.5"/>
</g>
<!-- Node112&#45;&gt;Node104 -->
<g id="edge14" class="edge"><title>Node112&#45;&gt;Node104</title>
<path fill="none" stroke="midnightblue" d="M293.133,-266.347C297.911,-268.887 302.307,-272.056 306,-276 364.744,-338.737 283.204,-403.311 342,-466 345.011,-469.211 348.486,-471.908 352.252,-474.172"/>
<polygon fill="midnightblue" stroke="midnightblue" points="350.971,-477.442 361.491,-478.703 354.054,-471.157 350.971,-477.442"/>
</g>
<!-- Node112&#45;&gt;Node105 -->
<g id="edge30" class="edge"><title>Node112&#45;&gt;Node105</title>
<path fill="none" stroke="midnightblue" d="M291.348,-266.546C296.676,-269.028 301.682,-272.129 306,-276 339.623,-306.136 308.352,-340.891 342,-371 343.989,-372.78 346.123,-374.398 348.366,-375.867"/>
<polygon fill="midnightblue" stroke="midnightblue" points="347.032,-379.126 357.488,-380.833 350.379,-372.978 347.032,-379.126"/>
</g>
<!-- Node112&#45;&gt;Node113 -->
<g id="edge15" class="edge"><title>Node112&#45;&gt;Node113</title>
<path fill="none" stroke="midnightblue" d="M288.342,-266.565C294.628,-269.025 300.676,-272.116 306,-276 330.207,-293.658 317.779,-315.362 342,-333 345.076,-335.24 348.392,-337.216 351.855,-338.96"/>
<polygon fill="midnightblue" stroke="midnightblue" points="350.737,-342.29 361.304,-343.055 353.52,-335.867 350.737,-342.29"/>
</g>
<!-- Node114 -->
<g id="node16" class="node"><title>Node114</title>
<g id="a_node16"><a xlink:href="classCoolBoardSensors.html#a91badb2539d91fda8679f2a597874c48" target="_top" xlink:title="CoolBoardSensors::read">
<polygon fill="white" stroke="black" points="355.5,-266.5 355.5,-285.5 478.5,-285.5 478.5,-266.5 355.5,-266.5"/>
<text text-anchor="middle" x="417" y="-273.5" font-family="Helvetica,sans-Serif" font-size="10.00">CoolBoardSensors::read</text>
</a>
</g>
</g>
<!-- Node112&#45;&gt;Node114 -->
<g id="edge16" class="edge"><title>Node112&#45;&gt;Node114</title>
<path fill="none" stroke="midnightblue" d="M293.093,-263.274C309.848,-265.009 328.177,-266.907 345.445,-268.695"/>
<polygon fill="midnightblue" stroke="midnightblue" points="345.163,-272.184 355.47,-269.733 345.884,-265.221 345.163,-272.184"/>
</g>
<!-- Node118 -->
<g id="node20" class="node"><title>Node118</title>
<g id="a_node20"><a xlink:href="classExternalSensors.html#a53177b81eca3be89508b5511ddcd00fc" target="_top" xlink:title="ExternalSensors::read">
<polygon fill="white" stroke="black" points="360.5,-228.5 360.5,-247.5 473.5,-247.5 473.5,-228.5 360.5,-228.5"/>
<text text-anchor="middle" x="417" y="-235.5" font-family="Helvetica,sans-Serif" font-size="10.00">ExternalSensors::read</text>
</a>
</g>
</g>
<!-- Node112&#45;&gt;Node118 -->
<g id="edge20" class="edge"><title>Node112&#45;&gt;Node118</title>
<path fill="none" stroke="midnightblue" d="M293.093,-250.726C311.414,-248.829 331.616,-246.737 350.257,-244.807"/>
<polygon fill="midnightblue" stroke="midnightblue" points="350.844,-248.265 360.43,-243.754 350.123,-241.302 350.844,-248.265"/>
</g>
<!-- Node119 -->
<g id="node21" class="node"><title>Node119</title>
<g id="a_node21"><a xlink:href="classIrene3000.html#a852a170feea994ea1df01c6b245b5d9a" target="_top" xlink:title="Irene3000::read">
<polygon fill="white" stroke="black" points="375,-304.5 375,-323.5 459,-323.5 459,-304.5 375,-304.5"/>
<text text-anchor="middle" x="417" y="-311.5" font-family="Helvetica,sans-Serif" font-size="10.00">Irene3000::read</text>
</a>
</g>
</g>
<!-- Node112&#45;&gt;Node119 -->
<g id="edge21" class="edge"><title>Node112&#45;&gt;Node119</title>
<path fill="none" stroke="midnightblue" d="M276.17,-266.504C286.115,-269.158 296.536,-272.337 306,-276 322.872,-282.53 325.123,-288.484 342,-295 349.308,-297.822 357.183,-300.353 364.974,-302.577"/>
<polygon fill="midnightblue" stroke="midnightblue" points="364.182,-305.989 374.749,-305.229 366.015,-299.233 364.182,-305.989"/>
</g>
<!-- Node124 -->
<g id="node26" class="node"><title>Node124</title>
<g id="a_node26"><a xlink:href="classCoolTime.html#a7a7501c5ca77dd1248bea704c44f986c" target="_top" xlink:title="CoolTime::getTimeDate">
<polygon fill="white" stroke="black" points="548,-57.5 548,-76.5 669,-76.5 669,-57.5 548,-57.5"/>
<text text-anchor="middle" x="608.5" y="-64.5" font-family="Helvetica,sans-Serif" font-size="10.00">CoolTime::getTimeDate</text>
</a>
</g>
</g>
<!-- Node112&#45;&gt;Node124 -->
<g id="edge28" class="edge"><title>Node112&#45;&gt;Node124</title>
<path fill="none" stroke="midnightblue" d="M243.494,-247.322C262.344,-231.222 302.62,-198.938 342,-181 404.586,-152.492 436.341,-183.395 492,-143 516.25,-125.401 503.632,-103.435 528,-86 531.282,-83.6518 534.816,-81.5909 538.505,-79.7823"/>
<polygon fill="midnightblue" stroke="midnightblue" points="540.097,-82.9092 547.941,-75.7868 537.367,-76.4633 540.097,-82.9092"/>
</g>
<!-- Node115 -->
<g id="node17" class="node"><title>Node115</title>
<g id="a_node17"><a xlink:href="classCoolBoardSensors.html#acad6a8418c66d36868caca23c844ecb6" target="_top" xlink:title="CoolBoardSensors::initReadI2C">
<polygon fill="white" stroke="black" points="530.5,-190.5 530.5,-209.5 686.5,-209.5 686.5,-190.5 530.5,-190.5"/>
<text text-anchor="middle" x="608.5" y="-197.5" font-family="Helvetica,sans-Serif" font-size="10.00">CoolBoardSensors::initReadI2C</text>
</a>
</g>
</g>
<!-- Node114&#45;&gt;Node115 -->
<g id="edge17" class="edge"><title>Node114&#45;&gt;Node115</title>
<path fill="none" stroke="midnightblue" d="M470.427,-266.486C477.945,-264.01 485.37,-260.902 492,-257 512.051,-245.201 507.851,-230.63 528,-219 531.908,-216.744 536.072,-214.756 540.367,-213.003"/>
<polygon fill="midnightblue" stroke="midnightblue" points="541.728,-216.232 549.933,-209.53 539.339,-209.653 541.728,-216.232"/>
</g>
<!-- Node116 -->
<g id="node18" class="node"><title>Node116</title>
<g id="a_node18"><a xlink:href="classCoolBoardSensors.html#a6944b6ea7bce8e2fce1b434acfd9d5f3" target="_top" xlink:title="CoolBoardSensors::readVBat">
<polygon fill="white" stroke="black" points="536,-266.5 536,-285.5 681,-285.5 681,-266.5 536,-266.5"/>
<text text-anchor="middle" x="608.5" y="-273.5" font-family="Helvetica,sans-Serif" font-size="10.00">CoolBoardSensors::readVBat</text>
</a>
</g>
</g>
<!-- Node114&#45;&gt;Node116 -->
<g id="edge18" class="edge"><title>Node114&#45;&gt;Node116</title>
<path fill="none" stroke="midnightblue" d="M478.741,-276C493.66,-276 509.877,-276 525.611,-276"/>
<polygon fill="midnightblue" stroke="midnightblue" points="525.862,-279.5 535.862,-276 525.862,-272.5 525.862,-279.5"/>
</g>
<!-- Node117 -->
<g id="node19" class="node"><title>Node117</title>
<g id="a_node19"><a xlink:href="classCoolBoardSensors.html#a8761bff50373c485f4465c8db47d0633" target="_top" xlink:title="CoolBoardSensors::readMoisture">
<polygon fill="white" stroke="black" points="528,-228.5 528,-247.5 689,-247.5 689,-228.5 528,-228.5"/>
<text text-anchor="middle" x="608.5" y="-235.5" font-family="Helvetica,sans-Serif" font-size="10.00">CoolBoardSensors::readMoisture</text>
</a>
</g>
</g>
<!-- Node114&#45;&gt;Node117 -->
<g id="edge19" class="edge"><title>Node114&#45;&gt;Node117</title>
<path fill="none" stroke="midnightblue" d="M465.819,-266.411C491.389,-261.284 523.059,-254.933 549.968,-249.537"/>
<polygon fill="midnightblue" stroke="midnightblue" points="550.908,-252.918 560.025,-247.52 549.532,-246.055 550.908,-252.918"/>
</g>
<!-- Node120 -->
<g id="node22" class="node"><title>Node120</title>
<g id="a_node22"><a xlink:href="classIrene3000.html#a94ad40f281d83ad1be20bf1edd6fe802" target="_top" xlink:title="Irene3000::readTemp">
<polygon fill="white" stroke="black" points="554,-342.5 554,-361.5 663,-361.5 663,-342.5 554,-342.5"/>
<text text-anchor="middle" x="608.5" y="-349.5" font-family="Helvetica,sans-Serif" font-size="10.00">Irene3000::readTemp</text>
</a>
</g>
</g>
<!-- Node119&#45;&gt;Node120 -->
<g id="edge22" class="edge"><title>Node119&#45;&gt;Node120</title>
<path fill="none" stroke="midnightblue" d="M459.119,-322.245C485.702,-327.576 520.683,-334.591 550.003,-340.47"/>
<polygon fill="midnightblue" stroke="midnightblue" points="549.622,-343.963 560.115,-342.498 550.998,-337.1 549.622,-343.963"/>
</g>
<!-- Node122 -->
<g id="node24" class="node"><title>Node122</title>
<g id="a_node24"><a xlink:href="classIrene3000.html#abf3db725fabb0634ec889b32068a5eec" target="_top" xlink:title="Irene3000::readPh">
<polygon fill="white" stroke="black" points="560.5,-304.5 560.5,-323.5 656.5,-323.5 656.5,-304.5 560.5,-304.5"/>
<text text-anchor="middle" x="608.5" y="-311.5" font-family="Helvetica,sans-Serif" font-size="10.00">Irene3000::readPh</text>
</a>
</g>
</g>
<!-- Node119&#45;&gt;Node122 -->
<g id="edge24" class="edge"><title>Node119&#45;&gt;Node122</title>
<path fill="none" stroke="midnightblue" d="M459.119,-314C485.799,-314 520.939,-314 550.325,-314"/>
<polygon fill="midnightblue" stroke="midnightblue" points="550.456,-317.5 560.456,-314 550.456,-310.5 550.456,-317.5"/>
</g>
<!-- Node123 -->
<g id="node25" class="node"><title>Node123</title>
<g id="a_node25"><a xlink:href="classIrene3000.html#ae73bd2ed14a199a7e83f4d6458476a7c" target="_top" xlink:title="Irene3000::readADSChannel2">
<polygon fill="white" stroke="black" points="535.5,-380.5 535.5,-399.5 681.5,-399.5 681.5,-380.5 535.5,-380.5"/>
<text text-anchor="middle" x="608.5" y="-387.5" font-family="Helvetica,sans-Serif" font-size="10.00">Irene3000::readADSChannel2</text>
</a>
</g>
</g>
<!-- Node119&#45;&gt;Node123 -->
<g id="edge26" class="edge"><title>Node119&#45;&gt;Node123</title>
<path fill="none" stroke="midnightblue" d="M459.166,-320.257C470.322,-323.079 482.054,-327.148 492,-333 512.051,-344.799 507.851,-359.37 528,-371 531.908,-373.256 536.072,-375.244 540.367,-376.997"/>
<polygon fill="midnightblue" stroke="midnightblue" points="539.339,-380.347 549.933,-380.47 541.728,-373.768 539.339,-380.347"/>
</g>
<!-- Node121 -->
<g id="node23" class="node"><title>Node121</title>
<g id="a_node23"><a xlink:href="classIrene3000.html#aff7c5da186b388e7272e63ff88a20c34" target="_top" xlink:title="Irene3000::setGain">
<polygon fill="white" stroke="black" points="734.5,-342.5 734.5,-361.5 833.5,-361.5 833.5,-342.5 734.5,-342.5"/>
<text text-anchor="middle" x="784" y="-349.5" font-family="Helvetica,sans-Serif" font-size="10.00">Irene3000::setGain</text>
</a>
</g>
</g>
<!-- Node120&#45;&gt;Node121 -->
<g id="edge23" class="edge"><title>Node120&#45;&gt;Node121</title>
<path fill="none" stroke="midnightblue" d="M663.445,-352C682.759,-352 704.617,-352 724.312,-352"/>
<polygon fill="midnightblue" stroke="midnightblue" points="724.389,-355.5 734.389,-352 724.389,-348.5 724.389,-355.5"/>
</g>
<!-- Node122&#45;&gt;Node121 -->
<g id="edge25" class="edge"><title>Node122&#45;&gt;Node121</title>
<path fill="none" stroke="midnightblue" d="M653.281,-323.589C676.486,-328.671 705.178,-334.955 729.673,-340.32"/>
<polygon fill="midnightblue" stroke="midnightblue" points="729.016,-343.759 739.533,-342.48 730.514,-336.921 729.016,-343.759"/>
</g>
<!-- Node123&#45;&gt;Node121 -->
<g id="edge27" class="edge"><title>Node123&#45;&gt;Node121</title>
<path fill="none" stroke="midnightblue" d="M653.281,-380.411C676.486,-375.329 705.178,-369.045 729.673,-363.68"/>
<polygon fill="midnightblue" stroke="midnightblue" points="730.514,-367.079 739.533,-361.52 729.016,-360.241 730.514,-367.079"/>
</g>
<!-- Node125 -->
<g id="node27" class="node"><title>Node125</title>
<g id="a_node27"><a xlink:href="classCoolTime.html#acd537cd4210d7bde4e1f5c47d2ac0456" target="_top" xlink:title="CoolTime::formatDigits">
<polygon fill="white" stroke="black" points="725,-38.5 725,-57.5 843,-57.5 843,-38.5 725,-38.5"/>
<text text-anchor="middle" x="784" y="-45.5" font-family="Helvetica,sans-Serif" font-size="10.00">CoolTime::formatDigits</text>
</a>
</g>
</g>
<!-- Node124&#45;&gt;Node125 -->
<g id="edge29" class="edge"><title>Node124&#45;&gt;Node125</title>
<path fill="none" stroke="midnightblue" d="M669.209,-60.4613C683.863,-58.8565 699.661,-57.1264 714.686,-55.4811"/>
<polygon fill="midnightblue" stroke="midnightblue" points="715.381,-58.926 724.941,-54.3581 714.619,-51.9676 715.381,-58.926"/>
</g>
<!-- Node128 -->
<g id="node30" class="node"><title>Node128</title>
<g id="a_node30"><a xlink:href="classCoolTime.html#a5ae038a4498602b189f76a10bf02adf8" target="_top" xlink:title="CoolTime::isTimeSync">
<polygon fill="white" stroke="black" points="359,-190.5 359,-209.5 475,-209.5 475,-190.5 359,-190.5"/>
<text text-anchor="middle" x="417" y="-197.5" font-family="Helvetica,sans-Serif" font-size="10.00">CoolTime::isTimeSync</text>
</a>
</g>
</g>
<!-- Node127&#45;&gt;Node128 -->
<g id="edge34" class="edge"><title>Node127&#45;&gt;Node128</title>
<path fill="none" stroke="midnightblue" d="M278.805,-171.589C303.456,-176.694 333.963,-183.011 359.945,-188.392"/>
<polygon fill="midnightblue" stroke="midnightblue" points="359.526,-191.879 370.028,-190.48 360.946,-185.025 359.526,-191.879"/>
</g>
<!-- Node130 -->
<g id="node32" class="node"><title>Node130</title>
<g id="a_node32"><a xlink:href="classCoolTime.html#a41fbbbfd651c2079f54d4b2911e4c705" target="_top" xlink:title="CoolTime::getNtpTime">
<polygon fill="white" stroke="black" points="359,-76.5 359,-95.5 475,-95.5 475,-76.5 359,-76.5"/>
<text text-anchor="middle" x="417" y="-83.5" font-family="Helvetica,sans-Serif" font-size="10.00">CoolTime::getNtpTime</text>
</a>
</g>
</g>
<!-- Node127&#45;&gt;Node130 -->
<g id="edge36" class="edge"><title>Node127&#45;&gt;Node130</title>
<path fill="none" stroke="midnightblue" d="M248.287,-152.306C269.103,-139.874 307.174,-118.333 342,-105 348.408,-102.547 355.249,-100.309 362.085,-98.2996"/>
<polygon fill="midnightblue" stroke="midnightblue" points="363.355,-101.579 372.047,-95.5213 361.474,-94.8365 363.355,-101.579"/>
</g>
<!-- Node132 -->
<g id="node34" class="node"><title>Node132</title>
<g id="a_node34"><a xlink:href="classCoolTime.html#ae9658c9b377510d469e3b88edf33ee85" target="_top" xlink:title="CoolTime::saveTimeSync">
<polygon fill="white" stroke="black" points="352,-114.5 352,-133.5 482,-133.5 482,-114.5 352,-114.5"/>
<text text-anchor="middle" x="417" y="-121.5" font-family="Helvetica,sans-Serif" font-size="10.00">CoolTime::saveTimeSync</text>
</a>
</g>
</g>
<!-- Node127&#45;&gt;Node132 -->
<g id="edge38" class="edge"><title>Node127&#45;&gt;Node132</title>
<path fill="none" stroke="midnightblue" d="M278.805,-152.411C303.456,-147.306 333.963,-140.989 359.945,-135.608"/>
<polygon fill="midnightblue" stroke="midnightblue" points="360.946,-138.975 370.028,-133.52 359.526,-132.121 360.946,-138.975"/>
</g>
<!-- Node129 -->
<g id="node31" class="node"><title>Node129</title>
<g id="a_node31"><a xlink:href="classCoolTime.html#a5d17f707a9d337720493b2bce9d41c21" target="_top" xlink:title="CoolTime::getLastSyncTime">
<polygon fill="white" stroke="black" points="538,-152.5 538,-171.5 679,-171.5 679,-152.5 538,-152.5"/>
<text text-anchor="middle" x="608.5" y="-159.5" font-family="Helvetica,sans-Serif" font-size="10.00">CoolTime::getLastSyncTime</text>
</a>
</g>
</g>
<!-- Node128&#45;&gt;Node129 -->
<g id="edge35" class="edge"><title>Node128&#45;&gt;Node129</title>
<path fill="none" stroke="midnightblue" d="M465.819,-190.411C491.389,-185.284 523.059,-178.933 549.968,-173.537"/>
<polygon fill="midnightblue" stroke="midnightblue" points="550.908,-176.918 560.025,-171.52 549.532,-170.055 550.908,-176.918"/>
</g>
<!-- Node131 -->
<g id="node33" class="node"><title>Node131</title>
<g id="a_node33"><a xlink:href="classCoolTime.html#a236a38d120dc53bc67456d763838c5a1" target="_top" xlink:title="CoolTime::sendNTPpacket">
<polygon fill="white" stroke="black" points="541,-95.5 541,-114.5 676,-114.5 676,-95.5 541,-95.5"/>
<text text-anchor="middle" x="608.5" y="-102.5" font-family="Helvetica,sans-Serif" font-size="10.00">CoolTime::sendNTPpacket</text>
</a>
</g>
</g>
<!-- Node130&#45;&gt;Node131 -->
<g id="edge37" class="edge"><title>Node130&#45;&gt;Node131</title>
<path fill="none" stroke="midnightblue" d="M475.113,-91.7264C492.584,-93.4781 512.093,-95.4341 530.651,-97.2948"/>
<polygon fill="midnightblue" stroke="midnightblue" points="530.545,-100.802 540.845,-98.3169 531.244,-93.8366 530.545,-100.802"/>
</g>
<!-- Node133&#45;&gt;Node104 -->
<g id="edge40" class="edge"><title>Node133&#45;&gt;Node104</title>
<path fill="none" stroke="midnightblue" d="M280.712,-485C302.265,-485 327.99,-485 351.192,-485"/>
<polygon fill="midnightblue" stroke="midnightblue" points="351.305,-488.5 361.305,-485 351.305,-481.5 351.305,-488.5"/>
</g>
<!-- Node133&#45;&gt;Node105 -->
<g id="edge46" class="edge"><title>Node133&#45;&gt;Node105</title>
<path fill="none" stroke="midnightblue" d="M250.696,-475.489C272.411,-464.147 309.826,-444.635 342,-428 357.218,-420.132 374.222,-411.396 388.089,-404.286"/>
<polygon fill="midnightblue" stroke="midnightblue" points="389.824,-407.33 397.128,-399.655 386.632,-401.1 389.824,-407.33"/>
</g>
<!-- Node133&#45;&gt;Node109 -->
<g id="edge44" class="edge"><title>Node133&#45;&gt;Node109</title>
<path fill="none" stroke="midnightblue" d="M280.804,-492.443C289.658,-495.172 298.469,-498.902 306,-504 328.379,-519.148 324.6,-532.324 342,-553 360.299,-574.744 383.214,-598.054 398.658,-613.26"/>
<polygon fill="midnightblue" stroke="midnightblue" points="396.389,-615.937 405.988,-620.422 401.281,-610.93 396.389,-615.937"/>
</g>
<!-- Node133&#45;&gt;Node110 -->
<g id="edge43" class="edge"><title>Node133&#45;&gt;Node110</title>
<path fill="none" stroke="midnightblue" d="M278.805,-475.411C303.456,-470.306 333.963,-463.989 359.945,-458.608"/>
<polygon fill="midnightblue" stroke="midnightblue" points="360.946,-461.975 370.028,-456.52 359.526,-455.121 360.946,-461.975"/>
</g>
<!-- Node133&#45;&gt;Node113 -->
<g id="edge45" class="edge"><title>Node133&#45;&gt;Node113</title>
<path fill="none" stroke="midnightblue" d="M247.839,-475.422C263.652,-465.048 288.414,-447.367 306,-428 326.143,-405.818 317.779,-388.638 342,-371 345.076,-368.76 348.392,-366.784 351.855,-365.04"/>
<polygon fill="midnightblue" stroke="midnightblue" points="353.52,-368.133 361.304,-360.945 350.737,-361.71 353.52,-368.133"/>
</g>
<!-- Node134 -->
<g id="node36" class="node"><title>Node134</title>
<g id="a_node36"><a xlink:href="classCoolFileSystem.html#adfa8e2e80641ae6f0cceabd348a9b841" target="_top" xlink:title="CoolFileSystem::updateConfig\lFiles">
<polygon fill="white" stroke="black" points="342,-514 342,-544 492,-544 492,-514 342,-514"/>
<text text-anchor="start" x="350" y="-532" font-family="Helvetica,sans-Serif" font-size="10.00">CoolFileSystem::updateConfig</text>
<text text-anchor="middle" x="417" y="-521" font-family="Helvetica,sans-Serif" font-size="10.00">Files</text>
</a>
</g>
</g>
<!-- Node133&#45;&gt;Node134 -->
<g id="edge41" class="edge"><title>Node133&#45;&gt;Node134</title>
<path fill="none" stroke="midnightblue" d="M272.317,-494.547C293.069,-499.523 319.106,-505.767 343.296,-511.567"/>
<polygon fill="midnightblue" stroke="midnightblue" points="342.63,-515.006 353.171,-513.935 344.262,-508.199 342.63,-515.006"/>
</g>
<!-- Node135 -->
<g id="node37" class="node"><title>Node135</title>
<g id="a_node37"><a xlink:href="classCoolFileSystem.html#a13f2958f5b87757c31fc53797a30d23a" target="_top" xlink:title="CoolFileSystem::fileUpdate">
<polygon fill="white" stroke="black" points="540,-519.5 540,-538.5 677,-538.5 677,-519.5 540,-519.5"/>
<text text-anchor="middle" x="608.5" y="-526.5" font-family="Helvetica,sans-Serif" font-size="10.00">CoolFileSystem::fileUpdate</text>
</a>
</g>
</g>
<!-- Node134&#45;&gt;Node135 -->
<g id="edge42" class="edge"><title>Node134&#45;&gt;Node135</title>
<path fill="none" stroke="midnightblue" d="M492.08,-529C504.407,-529 517.225,-529 529.642,-529"/>
<polygon fill="midnightblue" stroke="midnightblue" points="529.96,-532.5 539.96,-529 529.96,-525.5 529.96,-532.5"/>
</g>
<!-- Node137 -->
<g id="node39" class="node"><title>Node137</title>
<g id="a_node39"><a xlink:href="classCoolMQTT.html#a373cc92fca7760d886f02d8a6e5b3f63" target="_top" xlink:title="CoolMQTT::getUser">
<polygon fill="white" stroke="black" points="364.5,-0.5 364.5,-19.5 469.5,-19.5 469.5,-0.5 364.5,-0.5"/>
<text text-anchor="middle" x="417" y="-7.5" font-family="Helvetica,sans-Serif" font-size="10.00">CoolMQTT::getUser</text>
</a>
</g>
</g>
<!-- Node136&#45;&gt;Node137 -->
<g id="edge48" class="edge"><title>Node136&#45;&gt;Node137</title>
<path fill="none" stroke="midnightblue" d="M278.805,-38.411C303.456,-33.3061 333.963,-26.9887 359.945,-21.6082"/>
<polygon fill="midnightblue" stroke="midnightblue" points="360.946,-24.9752 370.028,-19.5201 359.526,-18.1207 360.946,-24.9752"/>
</g>
<!-- Node138 -->
<g id="node40" class="node"><title>Node138</title>
<g id="a_node40"><a xlink:href="classCoolTime.html#ac4f32ee513c1328d984306645e8785a4" target="_top" xlink:title="CoolTime::getESDate">
<polygon fill="white" stroke="black" points="360.5,-38.5 360.5,-57.5 473.5,-57.5 473.5,-38.5 360.5,-38.5"/>
<text text-anchor="middle" x="417" y="-45.5" font-family="Helvetica,sans-Serif" font-size="10.00">CoolTime::getESDate</text>
</a>
</g>
</g>
<!-- Node136&#45;&gt;Node138 -->
<g id="edge49" class="edge"><title>Node136&#45;&gt;Node138</title>
<path fill="none" stroke="midnightblue" d="M285.576,-48C305.77,-48 329.023,-48 350.252,-48"/>
<polygon fill="midnightblue" stroke="midnightblue" points="350.489,-51.5001 360.489,-48 350.489,-44.5001 350.489,-51.5001"/>
</g>
<!-- Node138&#45;&gt;Node124 -->
<g id="edge50" class="edge"><title>Node138&#45;&gt;Node124</title>
<path fill="none" stroke="midnightblue" d="M473.576,-53.5722C493.66,-55.586 516.595,-57.8855 537.742,-60.0058"/>
<polygon fill="midnightblue" stroke="midnightblue" points="537.659,-63.515 547.958,-61.0301 538.358,-56.5499 537.659,-63.515"/>
</g>
<!-- Node138&#45;&gt;Node125 -->
<g id="edge51" class="edge"><title>Node138&#45;&gt;Node125</title>
<path fill="none" stroke="midnightblue" d="M473.833,-48C538.416,-48 644.76,-48 714.343,-48"/>
<polygon fill="midnightblue" stroke="midnightblue" points="714.758,-51.5001 724.758,-48 714.758,-44.5001 714.758,-51.5001"/>
</g>
</g>
</svg>
        <g id="navigator" transform="translate(0 0)" fill="#404254">
                <rect fill="#f2f5e9" fill-opacity="0.5" stroke="#606060" stroke-width=".5" x="0" y="0" width="60" height="60"/>
                <use id="zoomplus" xlink:href="#zoomPlus" x="17" y="9" onmousedown="handleZoom(evt,'in')"/>
                <use id="zoomminus" xlink:href="#zoomMin" x="42" y="9" onmousedown="handleZoom(evt,'out')"/>
                <use id="reset" xlink:href="#resetDef" x="30" y="36" onmousedown="handleReset()"/>
                <g id="arrowUp" xlink:href="#dirArrow" transform="translate(30 24)" onmousedown="handlePan(0,-1)">
                  <use xlink:href="#rim" fill="#404040">
                        <set attributeName="fill" to="#808080" begin="arrowUp.mouseover" end="arrowUp.mouseout"/>
                  </use>
                  <path fill="none" stroke="white" stroke-width="1.5" d="M0,-3.0v7 M-2.5,-0.5L0,-3.0L2.5,-0.5"/>
                </g>
                <g id="arrowRight" xlink:href="#dirArrow" transform="rotate(90) translate(36 -43)" onmousedown="handlePan(1,0)">
                  <use xlink:href="#rim" fill="#404040">
                        <set attributeName="fill" to="#808080" begin="arrowRight.mouseover" end="arrowRight.mouseout"/>
                  </use>
                  <path fill="none" stroke="white" stroke-width="1.5" d="M0,-3.0v7 M-2.5,-0.5L0,-3.0L2.5,-0.5"/>
                </g>
                <g id="arrowDown" xlink:href="#dirArrow" transform="rotate(180) translate(-30 -48)" onmousedown="handlePan(0,1)">
                  <use xlink:href="#rim" fill="#404040">
                        <set attributeName="fill" to="#808080" begin="arrowDown.mouseover" end="arrowDown.mouseout"/>
                  </use>
                  <path fill="none" stroke="white" stroke-width="1.5" d="M0,-3.0v7 M-2.5,-0.5L0,-3.0L2.5,-0.5"/>
                </g>
                <g id="arrowLeft" xlink:href="#dirArrow" transform="rotate(270) translate(-36 17)" onmousedown="handlePan(-1,0)">
                  <use xlink:href="#rim" fill="#404040">
                        <set attributeName="fill" to="#808080" begin="arrowLeft.mouseover" end="arrowLeft.mouseout"/>
                  </use>
                  <path fill="none" stroke="white" stroke-width="1.5" d="M0,-3.0v7 M-2.5,-0.5L0,-3.0L2.5,-0.5"/>
                </g>
        </g>
        <svg viewBox="0 0 15 15" width="100%" height="30px" preserveAspectRatio="xMaxYMin meet">
         <g id="arrow_out" transform="scale(0.3 0.3)">
          <a xlink:href="classCoolBoard_aa0bbc4bc605e35618d18e68795c61363_cgraph_org.svg" target="_base">
           <rect id="button" ry="5" rx="5" y="6" x="6" height="38" width="38"
                fill="#f2f5e9" fill-opacity="0.5" stroke="#606060" stroke-width="1.0"/>
           <path id="arrow"
             d="M 11.500037,31.436501 C 11.940474,20.09759 22.043105,11.32322 32.158766,21.979434 L 37.068811,17.246167 C 37.068811,17.246167 37.088388,32 37.088388,32 L 22.160133,31.978069 C 22.160133,31.978069 26.997745,27.140456 26.997745,27.140456 C 18.528582,18.264221 13.291696,25.230495 11.500037,31.436501 z"
             style="fill:#404040;"/>
          </a>
         </g>
        </svg>
</svg>
