<?xml version="1.0" encoding="UTF-8" standalone="no"?>
<!DOCTYPE svg PUBLIC "-//W3C//DTD SVG 1.1//EN"
 "http://www.w3.org/Graphics/SVG/1.1/DTD/svg11.dtd">
<!-- Generated by graphviz version 2.38.0 (20140413.2041)
 -->
<!-- Title: CoolBoard::offLineMode Pages: 1 -->
<svg width="862pt" height="805pt"
 viewBox="0.00 0.00 862.00 805.26" xmlns="http://www.w3.org/2000/svg" xmlns:xlink="http://www.w3.org/1999/xlink">
<g id="graph0" class="graph" transform="scale(1 1) rotate(0) translate(4 801.264)">
<title>CoolBoard::offLineMode</title>
<polygon fill="white" stroke="none" points="-4,4 -4,-801.264 858,-801.264 858,4 -4,4"/>
<!-- Node88 -->
<g id="node1" class="node"><title>Node88</title>
<polygon fill="#bfbfbf" stroke="black" points="0,-411 0,-430 122,-430 122,-411 0,-411"/>
<text text-anchor="middle" x="61" y="-418" font-family="Helvetica,sans-Serif" font-size="10.00">CoolBoard::offLineMode</text>
</g>
<!-- Node89 -->
<g id="node2" class="node"><title>Node89</title>
<g id="a_node2"><a xlink:href="classCoolBoardLed.html#a96e1ea13003eee34c9dbcef340404426" target="_top" xlink:title="CoolBoardLed::blink">
<polygon fill="white" stroke="black" points="379,-734 379,-753 483,-753 483,-734 379,-734"/>
<text text-anchor="middle" x="431" y="-741" font-family="Helvetica,sans-Serif" font-size="10.00">CoolBoardLed::blink</text>
</a>
</g>
</g>
<!-- Node88&#45;&gt;Node89 -->
<g id="edge1" class="edge"><title>Node88&#45;&gt;Node89</title>
<path fill="none" stroke="midnightblue" d="M63.9529,-430.169C70.95,-462.534 97.6288,-568.465 158,-629.5 215.898,-688.035 308.376,-718.013 369.15,-732.214"/>
<polygon fill="midnightblue" stroke="midnightblue" points="368.467,-735.648 378.993,-734.441 370.012,-728.821 368.467,-735.648"/>
</g>
<!-- Node90 -->
<g id="node3" class="node"><title>Node90</title>
<g id="a_node3"><a xlink:href="classCoolBoard.html#a519de78b807f8ec6463ff484eb925918" target="_top" xlink:title="CoolBoard::connect">
<polygon fill="white" stroke="black" points="189,-601 189,-620 292,-620 292,-601 189,-601"/>
<text text-anchor="middle" x="240.5" y="-608" font-family="Helvetica,sans-Serif" font-size="10.00">CoolBoard::connect</text>
</a>
</g>
</g>
<!-- Node88&#45;&gt;Node90 -->
<g id="edge2" class="edge"><title>Node88&#45;&gt;Node90</title>
<path fill="none" stroke="midnightblue" d="M70.013,-430.019C86.2358,-449.195 124.293,-493.698 158,-529.5 179.506,-552.342 205.346,-577.688 222.079,-593.841"/>
<polygon fill="midnightblue" stroke="midnightblue" points="219.869,-596.572 229.503,-600.981 224.721,-591.526 219.869,-596.572"/>
</g>
<!-- Node92 -->
<g id="node5" class="node"><title>Node92</title>
<g id="a_node5"><a xlink:href="classCoolMQTT.html#a5d003307eff78efbd585e42b43b72b6d" target="_top" xlink:title="CoolMQTT::state">
<polygon fill="white" stroke="black" points="573.5,-620 573.5,-639 665.5,-639 665.5,-620 573.5,-620"/>
<text text-anchor="middle" x="619.5" y="-627" font-family="Helvetica,sans-Serif" font-size="10.00">CoolMQTT::state</text>
</a>
</g>
</g>
<!-- Node88&#45;&gt;Node92 -->
<g id="edge41" class="edge"><title>Node88&#45;&gt;Node92</title>
<path fill="none" stroke="midnightblue" d="M62.622,-430.022C65.6058,-467.988 81.6575,-610.238 158,-687.5 268.289,-799.118 360.23,-827.607 503,-762.5 554.748,-738.902 592.266,-679.398 608.918,-648.612"/>
<polygon fill="midnightblue" stroke="midnightblue" points="612.221,-649.849 613.756,-639.366 606.019,-646.604 612.221,-649.849"/>
</g>
<!-- Node95 -->
<g id="node8" class="node"><title>Node95</title>
<g id="a_node8"><a xlink:href="classCoolWifi.html#a7c857f27161782f5ef1d62d552aff971" target="_top" xlink:title="CoolWifi::connectAP">
<polygon fill="white" stroke="black" points="565.5,-487 565.5,-506 673.5,-506 673.5,-487 565.5,-487"/>
<text text-anchor="middle" x="619.5" y="-494" font-family="Helvetica,sans-Serif" font-size="10.00">CoolWifi::connectAP</text>
</a>
</g>
</g>
<!-- Node88&#45;&gt;Node95 -->
<g id="edge14" class="edge"><title>Node88&#45;&gt;Node95</title>
<path fill="none" stroke="midnightblue" d="M81.3097,-430.109C100.317,-439.09 130.422,-452.054 158,-458.5 297.148,-491.025 465.617,-496.685 555.228,-497.119"/>
<polygon fill="midnightblue" stroke="midnightblue" points="555.221,-500.619 565.231,-497.147 555.241,-493.619 555.221,-500.619"/>
</g>
<!-- Node98 -->
<g id="node11" class="node"><title>Node98</title>
<g id="a_node11"><a xlink:href="classCoolWifi.html#a1c7b4d82a4098d346e7593dce92039fa" target="_top" xlink:title="CoolWifi::state">
<polygon fill="white" stroke="black" points="390,-506 390,-525 472,-525 472,-506 390,-506"/>
<text text-anchor="middle" x="431" y="-513" font-family="Helvetica,sans-Serif" font-size="10.00">CoolWifi::state</text>
</a>
</g>
</g>
<!-- Node88&#45;&gt;Node98 -->
<g id="edge40" class="edge"><title>Node88&#45;&gt;Node98</title>
<path fill="none" stroke="midnightblue" d="M71.2633,-430.198C87.2367,-446.207 121.753,-477.757 158,-491.5 231.444,-519.346 323.757,-521.201 379.75,-519.044"/>
<polygon fill="midnightblue" stroke="midnightblue" points="379.935,-522.539 389.77,-518.599 379.625,-515.546 379.935,-522.539"/>
</g>
<!-- Node100 -->
<g id="node13" class="node"><title>Node100</title>
<g id="a_node13"><a xlink:href="classJetpack.html#a9e703197093094b963f9ad57817495b8" target="_top" xlink:title="Jetpack::doAction">
<polygon fill="white" stroke="black" points="193,-430 193,-449 288,-449 288,-430 193,-430"/>
<text text-anchor="middle" x="240.5" y="-437" font-family="Helvetica,sans-Serif" font-size="10.00">Jetpack::doAction</text>
</a>
</g>
</g>
<!-- Node88&#45;&gt;Node100 -->
<g id="edge15" class="edge"><title>Node88&#45;&gt;Node100</title>
<path fill="none" stroke="midnightblue" d="M122.093,-426.933C141.701,-429.031 163.4,-431.354 182.754,-433.426"/>
<polygon fill="midnightblue" stroke="midnightblue" points="182.621,-436.931 192.936,-434.516 183.366,-429.971 182.621,-436.931"/>
</g>
<!-- Node102 -->
<g id="node15" class="node"><title>Node102</title>
<g id="a_node15"><a xlink:href="classCoolBoardLed.html#af1cacbaa88db8bcf6042c1083ba41155" target="_top" xlink:title="CoolBoardLed::fade">
<polygon fill="white" stroke="black" points="189,-392 189,-411 292,-411 292,-392 189,-392"/>
<text text-anchor="middle" x="240.5" y="-399" font-family="Helvetica,sans-Serif" font-size="10.00">CoolBoardLed::fade</text>
</a>
</g>
</g>
<!-- Node88&#45;&gt;Node102 -->
<g id="edge17" class="edge"><title>Node88&#45;&gt;Node102</title>
<path fill="none" stroke="midnightblue" d="M122.093,-414.067C140.423,-412.105 160.58,-409.948 178.94,-407.982"/>
<polygon fill="midnightblue" stroke="midnightblue" points="179.362,-411.457 188.933,-406.913 178.617,-404.497 179.362,-411.457"/>
</g>
<!-- Node103 -->
<g id="node16" class="node"><title>Node103</title>
<g id="a_node16"><a xlink:href="classCoolBoardLed.html#ab778f5e7bed0ab74e3906d82110493c3" target="_top" xlink:title="CoolBoardLed::fadeIn">
<polygon fill="white" stroke="black" points="375.5,-392 375.5,-411 486.5,-411 486.5,-392 375.5,-392"/>
<text text-anchor="middle" x="431" y="-399" font-family="Helvetica,sans-Serif" font-size="10.00">CoolBoardLed::fadeIn</text>
</a>
</g>
</g>
<!-- Node88&#45;&gt;Node103 -->
<g id="edge18" class="edge"><title>Node88&#45;&gt;Node103</title>
<path fill="none" stroke="midnightblue" d="M80.1373,-410.918C98.9902,-401.543 129.652,-387.906 158,-382.5 233.73,-368.057 323.19,-379.681 378.261,-390.05"/>
<polygon fill="midnightblue" stroke="midnightblue" points="377.649,-393.497 388.132,-391.965 378.982,-386.625 377.649,-393.497"/>
</g>
<!-- Node104 -->
<g id="node17" class="node"><title>Node104</title>
<g id="a_node17"><a xlink:href="classCoolBoardLed.html#a93d545679237e8cc858324367149775c" target="_top" xlink:title="CoolBoardLed::fadeOut">
<polygon fill="white" stroke="black" points="371.5,-354 371.5,-373 490.5,-373 490.5,-354 371.5,-354"/>
<text text-anchor="middle" x="431" y="-361" font-family="Helvetica,sans-Serif" font-size="10.00">CoolBoardLed::fadeOut</text>
</a>
</g>
</g>
<!-- Node88&#45;&gt;Node104 -->
<g id="edge19" class="edge"><title>Node88&#45;&gt;Node104</title>
<path fill="none" stroke="midnightblue" d="M76.1903,-410.932C94.2764,-399.338 126.933,-380.378 158,-372.5 225.582,-355.361 305.629,-354.991 361.315,-357.751"/>
<polygon fill="midnightblue" stroke="midnightblue" points="361.246,-361.253 371.421,-358.3 361.625,-354.263 361.246,-361.253"/>
</g>
<!-- Node105 -->
<g id="node18" class="node"><title>Node105</title>
<g id="a_node18"><a xlink:href="classCoolBoard.html#ad03abdce2e65f520bbf2cff0f2d083cf" target="_top" xlink:title="CoolBoard::readSensors">
<polygon fill="white" stroke="black" points="179,-278 179,-297 302,-297 302,-278 179,-278"/>
<text text-anchor="middle" x="240.5" y="-285" font-family="Helvetica,sans-Serif" font-size="10.00">CoolBoard::readSensors</text>
</a>
</g>
</g>
<!-- Node88&#45;&gt;Node105 -->
<g id="edge20" class="edge"><title>Node88&#45;&gt;Node105</title>
<path fill="none" stroke="midnightblue" d="M67.8653,-410.707C81.1479,-389.377 115.686,-338.476 158,-311.5 165.062,-306.998 173.001,-303.312 181.08,-300.302"/>
<polygon fill="midnightblue" stroke="midnightblue" points="182.244,-303.603 190.585,-297.071 179.99,-296.976 182.244,-303.603"/>
</g>
<!-- Node119 -->
<g id="node32" class="node"><title>Node119</title>
<g id="a_node32"><a xlink:href="classCoolFileSystem.html#afa3a4feae94871d4d3b6bebb701c2e67" target="_top" xlink:title="CoolFileSystem::saveSensorData">
<polygon fill="white" stroke="black" points="158,-28 158,-47 323,-47 323,-28 158,-28"/>
<text text-anchor="middle" x="240.5" y="-35" font-family="Helvetica,sans-Serif" font-size="10.00">CoolFileSystem::saveSensorData</text>
</a>
</g>
</g>
<!-- Node88&#45;&gt;Node119 -->
<g id="edge38" class="edge"><title>Node88&#45;&gt;Node119</title>
<path fill="none" stroke="midnightblue" d="M62.0073,-410.802C62.539,-366.997 70.156,-185.112 158,-78.5 168.066,-66.2837 182.693,-57.3571 196.786,-51.0135"/>
<polygon fill="midnightblue" stroke="midnightblue" points="198.5,-54.0916 206.395,-47.0258 195.817,-47.6262 198.5,-54.0916"/>
</g>
<!-- Node121 -->
<g id="node34" class="node"><title>Node121</title>
<g id="a_node34"><a xlink:href="classCoolBoard.html#ae7358fb6e623cfc81b775f5f1734909b" target="_top" xlink:title="CoolBoard::userData">
<polygon fill="white" stroke="black" points="186.5,-88 186.5,-107 294.5,-107 294.5,-88 186.5,-88"/>
<text text-anchor="middle" x="240.5" y="-95" font-family="Helvetica,sans-Serif" font-size="10.00">CoolBoard::userData</text>
</a>
</g>
</g>
<!-- Node88&#45;&gt;Node121 -->
<g id="edge42" class="edge"><title>Node88&#45;&gt;Node121</title>
<path fill="none" stroke="midnightblue" d="M67.3122,-410.833C92.0648,-365.791 196.276,-176.156 229.369,-115.936"/>
<polygon fill="midnightblue" stroke="midnightblue" points="232.46,-117.579 234.208,-107.129 226.325,-114.207 232.46,-117.579"/>
</g>
<!-- Node90&#45;&gt;Node89 -->
<g id="edge3" class="edge"><title>Node90&#45;&gt;Node89</title>
<path fill="none" stroke="midnightblue" d="M257.074,-620.192C274.391,-631.433 302.605,-651.17 323,-672.5 342.426,-692.816 336.015,-708.32 359,-724.5 362.253,-726.79 365.766,-728.803 369.428,-730.574"/>
<polygon fill="midnightblue" stroke="midnightblue" points="368.198,-733.854 378.774,-734.496 370.907,-727.399 368.198,-733.854"/>
</g>
<!-- Node91 -->
<g id="node4" class="node"><title>Node91</title>
<g id="a_node4"><a xlink:href="classCoolMQTT.html#a50075d0ab23a327ab897fd6adad20eda" target="_top" xlink:title="CoolMQTT::connect">
<polygon fill="white" stroke="black" points="378.5,-582 378.5,-601 483.5,-601 483.5,-582 378.5,-582"/>
<text text-anchor="middle" x="431" y="-589" font-family="Helvetica,sans-Serif" font-size="10.00">CoolMQTT::connect</text>
</a>
</g>
</g>
<!-- Node90&#45;&gt;Node91 -->
<g id="edge4" class="edge"><title>Node90&#45;&gt;Node91</title>
<path fill="none" stroke="midnightblue" d="M292.015,-605.408C315.497,-603.041 343.635,-600.205 368.358,-597.713"/>
<polygon fill="midnightblue" stroke="midnightblue" points="368.763,-601.19 378.361,-596.705 368.06,-594.226 368.763,-601.19"/>
</g>
<!-- Node90&#45;&gt;Node92 -->
<g id="edge12" class="edge"><title>Node90&#45;&gt;Node92</title>
<path fill="none" stroke="midnightblue" d="M292.344,-613.062C362.936,-616.62 490.16,-623.032 563.099,-626.708"/>
<polygon fill="midnightblue" stroke="midnightblue" points="563.29,-630.222 573.453,-627.23 563.642,-623.231 563.29,-630.222"/>
</g>
<!-- Node93 -->
<g id="node6" class="node"><title>Node93</title>
<g id="a_node6"><a xlink:href="classCoolWifi.html#ad060353050f40d032a2dbf9e54a768bf" target="_top" xlink:title="CoolWifi::connect">
<polygon fill="white" stroke="black" points="383.5,-544 383.5,-563 478.5,-563 478.5,-544 383.5,-544"/>
<text text-anchor="middle" x="431" y="-551" font-family="Helvetica,sans-Serif" font-size="10.00">CoolWifi::connect</text>
</a>
</g>
</g>
<!-- Node90&#45;&gt;Node93 -->
<g id="edge6" class="edge"><title>Node90&#45;&gt;Node93</title>
<path fill="none" stroke="midnightblue" d="M269.865,-600.875C293.585,-592.936 328.363,-581.547 359,-572.5 366.83,-570.188 375.182,-567.844 383.305,-565.63"/>
<polygon fill="midnightblue" stroke="midnightblue" points="384.304,-568.986 393.049,-563.004 382.483,-562.227 384.304,-568.986"/>
</g>
<!-- Node97 -->
<g id="node10" class="node"><title>Node97</title>
<g id="a_node10"><a xlink:href="classCoolBoard.html#a7508e029f2ee17bb747ffab599285e0d" target="_top" xlink:title="CoolBoard::getLogInterval">
<polygon fill="white" stroke="black" points="366,-696 366,-715 496,-715 496,-696 366,-696"/>
<text text-anchor="middle" x="431" y="-703" font-family="Helvetica,sans-Serif" font-size="10.00">CoolBoard::getLogInterval</text>
</a>
</g>
</g>
<!-- Node90&#45;&gt;Node97 -->
<g id="edge10" class="edge"><title>Node90&#45;&gt;Node97</title>
<path fill="none" stroke="midnightblue" d="M253.457,-620.07C273.92,-636.011 317.477,-668.066 359,-686.5 364.379,-688.888 370.125,-691.032 375.931,-692.943"/>
<polygon fill="midnightblue" stroke="midnightblue" points="375.117,-696.355 385.703,-695.941 377.169,-689.662 375.117,-696.355"/>
</g>
<!-- Node90&#45;&gt;Node98 -->
<g id="edge11" class="edge"><title>Node90&#45;&gt;Node98</title>
<path fill="none" stroke="midnightblue" d="M253.457,-600.93C273.92,-584.989 317.477,-552.934 359,-534.5 365.655,-531.546 372.871,-528.964 380.067,-526.736"/>
<polygon fill="midnightblue" stroke="midnightblue" points="381.18,-530.058 389.812,-523.916 379.234,-523.334 381.18,-530.058"/>
</g>
<!-- Node99 -->
<g id="node12" class="node"><title>Node99</title>
<g id="a_node12"><a xlink:href="classCoolBoardLed.html#a30fadd4cbec17ceea428bf7a32207e87" target="_top" xlink:title="CoolBoardLed::write">
<polygon fill="white" stroke="black" points="378.5,-658 378.5,-677 483.5,-677 483.5,-658 378.5,-658"/>
<text text-anchor="middle" x="431" y="-665" font-family="Helvetica,sans-Serif" font-size="10.00">CoolBoardLed::write</text>
</a>
</g>
</g>
<!-- Node90&#45;&gt;Node99 -->
<g id="edge13" class="edge"><title>Node90&#45;&gt;Node99</title>
<path fill="none" stroke="midnightblue" d="M273.051,-620.041C304.72,-629.617 353.676,-644.421 388.483,-654.946"/>
<polygon fill="midnightblue" stroke="midnightblue" points="387.761,-658.384 398.346,-657.928 389.788,-651.684 387.761,-658.384"/>
</g>
<!-- Node91&#45;&gt;Node92 -->
<g id="edge5" class="edge"><title>Node91&#45;&gt;Node92</title>
<path fill="none" stroke="midnightblue" d="M479.062,-601.089C504.705,-606.314 536.583,-612.809 563.384,-618.27"/>
<polygon fill="midnightblue" stroke="midnightblue" points="562.886,-621.74 573.383,-620.307 564.283,-614.881 562.886,-621.74"/>
</g>
<!-- Node94 -->
<g id="node7" class="node"><title>Node94</title>
<g id="a_node7"><a xlink:href="classCoolWifi.html#a419de92d738f14b7444cf822b3ab0070" target="_top" xlink:title="CoolWifi::connectWifiMulti">
<polygon fill="white" stroke="black" points="553,-544 553,-563 686,-563 686,-544 553,-544"/>
<text text-anchor="middle" x="619.5" y="-551" font-family="Helvetica,sans-Serif" font-size="10.00">CoolWifi::connectWifiMulti</text>
</a>
</g>
</g>
<!-- Node93&#45;&gt;Node94 -->
<g id="edge7" class="edge"><title>Node93&#45;&gt;Node94</title>
<path fill="none" stroke="midnightblue" d="M478.581,-553.5C497.954,-553.5 520.948,-553.5 542.64,-553.5"/>
<polygon fill="midnightblue" stroke="midnightblue" points="542.829,-557 552.829,-553.5 542.829,-550 542.829,-557"/>
</g>
<!-- Node93&#45;&gt;Node95 -->
<g id="edge8" class="edge"><title>Node93&#45;&gt;Node95</title>
<path fill="none" stroke="midnightblue" d="M469.328,-543.934C480.219,-541.029 492.117,-537.744 503,-534.5 529.257,-526.674 558.579,-517.016 581.108,-509.395"/>
<polygon fill="midnightblue" stroke="midnightblue" points="582.29,-512.69 590.632,-506.158 580.038,-506.062 582.29,-512.69"/>
</g>
<!-- Node96 -->
<g id="node9" class="node"><title>Node96</title>
<g id="a_node9"><a xlink:href="classCoolWifi.html#a914d7a1df14dd6b75345fb614c34e9d6" target="_top" xlink:title="CoolWifi::addWifi">
<polygon fill="white" stroke="black" points="748.5,-487 748.5,-506 841.5,-506 841.5,-487 748.5,-487"/>
<text text-anchor="middle" x="795" y="-494" font-family="Helvetica,sans-Serif" font-size="10.00">CoolWifi::addWifi</text>
</a>
</g>
</g>
<!-- Node95&#45;&gt;Node96 -->
<g id="edge9" class="edge"><title>Node95&#45;&gt;Node96</title>
<path fill="none" stroke="midnightblue" d="M673.971,-496.5C694.329,-496.5 717.568,-496.5 738.141,-496.5"/>
<polygon fill="midnightblue" stroke="midnightblue" points="738.313,-500 748.313,-496.5 738.313,-493 738.313,-500"/>
</g>
<!-- Node101 -->
<g id="node14" class="node"><title>Node101</title>
<g id="a_node14"><a xlink:href="classJetpack.html#a338f1af8cbc6504ac69b47c7328569b5" target="_top" xlink:title="Jetpack::write">
<polygon fill="white" stroke="black" points="392,-430 392,-449 470,-449 470,-430 392,-430"/>
<text text-anchor="middle" x="431" y="-437" font-family="Helvetica,sans-Serif" font-size="10.00">Jetpack::write</text>
</a>
</g>
</g>
<!-- Node100&#45;&gt;Node101 -->
<g id="edge16" class="edge"><title>Node100&#45;&gt;Node101</title>
<path fill="none" stroke="midnightblue" d="M288.096,-439.5C316.546,-439.5 352.857,-439.5 381.627,-439.5"/>
<polygon fill="midnightblue" stroke="midnightblue" points="381.856,-443 391.856,-439.5 381.856,-436 381.856,-443"/>
</g>
<!-- Node105&#45;&gt;Node103 -->
<g id="edge21" class="edge"><title>Node105&#45;&gt;Node103</title>
<path fill="none" stroke="midnightblue" d="M254.773,-297.019C271.145,-308.891 299.673,-330.005 323,-349.5 339.655,-363.419 339.97,-372.061 359,-382.5 363.185,-384.796 367.663,-386.826 372.258,-388.619"/>
<polygon fill="midnightblue" stroke="midnightblue" points="371.207,-391.96 381.801,-391.978 373.53,-385.357 371.207,-391.96"/>
</g>
<!-- Node105&#45;&gt;Node104 -->
<g id="edge37" class="edge"><title>Node105&#45;&gt;Node104</title>
<path fill="none" stroke="midnightblue" d="M287.4,-297.066C299.431,-300.617 312.084,-305.334 323,-311.5 341.899,-322.175 339.97,-334.061 359,-344.5 363.185,-346.796 367.663,-348.826 372.258,-350.619"/>
<polygon fill="midnightblue" stroke="midnightblue" points="371.207,-353.96 381.801,-353.978 373.53,-347.357 371.207,-353.96"/>
</g>
<!-- Node106 -->
<g id="node19" class="node"><title>Node106</title>
<g id="a_node19"><a xlink:href="classCoolBoardLed.html#ad5f0de4c628cbfbf49896042831c64ad" target="_top" xlink:title="CoolBoardLed::strobe">
<polygon fill="white" stroke="black" points="375.5,-316 375.5,-335 486.5,-335 486.5,-316 375.5,-316"/>
<text text-anchor="middle" x="431" y="-323" font-family="Helvetica,sans-Serif" font-size="10.00">CoolBoardLed::strobe</text>
</a>
</g>
</g>
<!-- Node105&#45;&gt;Node106 -->
<g id="edge22" class="edge"><title>Node105&#45;&gt;Node106</title>
<path fill="none" stroke="midnightblue" d="M289.067,-297.089C314.501,-302.216 346.005,-308.567 372.771,-313.963"/>
<polygon fill="midnightblue" stroke="midnightblue" points="372.281,-317.435 382.776,-315.98 373.664,-310.573 372.281,-317.435"/>
</g>
<!-- Node107 -->
<g id="node20" class="node"><title>Node107</title>
<g id="a_node20"><a xlink:href="classCoolBoard.html#a397b46fadab8f530a8cf4d914c561366" target="_top" xlink:title="CoolBoard::initReadI2C">
<polygon fill="white" stroke="black" points="371,-278 371,-297 491,-297 491,-278 371,-278"/>
<text text-anchor="middle" x="431" y="-285" font-family="Helvetica,sans-Serif" font-size="10.00">CoolBoard::initReadI2C</text>
</a>
</g>
</g>
<!-- Node105&#45;&gt;Node107 -->
<g id="edge23" class="edge"><title>Node105&#45;&gt;Node107</title>
<path fill="none" stroke="midnightblue" d="M302.18,-287.5C320.791,-287.5 341.411,-287.5 360.56,-287.5"/>
<polygon fill="midnightblue" stroke="midnightblue" points="360.721,-291 370.721,-287.5 360.721,-284 360.721,-291"/>
</g>
<!-- Node108 -->
<g id="node21" class="node"><title>Node108</title>
<g id="a_node21"><a xlink:href="classCoolBoardSensors.html#a91badb2539d91fda8679f2a597874c48" target="_top" xlink:title="CoolBoardSensors::read">
<polygon fill="white" stroke="black" points="369.5,-240 369.5,-259 492.5,-259 492.5,-240 369.5,-240"/>
<text text-anchor="middle" x="431" y="-247" font-family="Helvetica,sans-Serif" font-size="10.00">CoolBoardSensors::read</text>
</a>
</g>
</g>
<!-- Node105&#45;&gt;Node108 -->
<g id="edge24" class="edge"><title>Node105&#45;&gt;Node108</title>
<path fill="none" stroke="midnightblue" d="M289.067,-277.911C314.501,-272.784 346.005,-266.433 372.771,-261.037"/>
<polygon fill="midnightblue" stroke="midnightblue" points="373.664,-264.427 382.776,-259.02 372.281,-257.565 373.664,-264.427"/>
</g>
<!-- Node111 -->
<g id="node24" class="node"><title>Node111</title>
<g id="a_node24"><a xlink:href="classExternalSensors.html#a53177b81eca3be89508b5511ddcd00fc" target="_top" xlink:title="ExternalSensors::read">
<polygon fill="white" stroke="black" points="374.5,-202 374.5,-221 487.5,-221 487.5,-202 374.5,-202"/>
<text text-anchor="middle" x="431" y="-209" font-family="Helvetica,sans-Serif" font-size="10.00">ExternalSensors::read</text>
</a>
</g>
</g>
<!-- Node105&#45;&gt;Node111 -->
<g id="edge27" class="edge"><title>Node105&#45;&gt;Node111</title>
<path fill="none" stroke="midnightblue" d="M258.564,-277.941C281.034,-265.654 322.031,-244.271 359,-230.5 365.427,-228.106 372.285,-225.88 379.11,-223.856"/>
<polygon fill="midnightblue" stroke="midnightblue" points="380.367,-227.138 389.032,-221.041 378.456,-220.404 380.367,-227.138"/>
</g>
<!-- Node112 -->
<g id="node25" class="node"><title>Node112</title>
<g id="a_node25"><a xlink:href="classIrene3000.html#a852a170feea994ea1df01c6b245b5d9a" target="_top" xlink:title="Irene3000::read">
<polygon fill="white" stroke="black" points="389,-164 389,-183 473,-183 473,-164 389,-164"/>
<text text-anchor="middle" x="431" y="-171" font-family="Helvetica,sans-Serif" font-size="10.00">Irene3000::read</text>
</a>
</g>
</g>
<!-- Node105&#45;&gt;Node112 -->
<g id="edge28" class="edge"><title>Node105&#45;&gt;Node112</title>
<path fill="none" stroke="midnightblue" d="M250.569,-277.84C269.098,-258.676 313.409,-215.698 359,-192.5 365.189,-189.351 371.955,-186.682 378.774,-184.431"/>
<polygon fill="midnightblue" stroke="midnightblue" points="380.176,-187.664 388.74,-181.426 378.155,-180.962 380.176,-187.664"/>
</g>
<!-- Node117 -->
<g id="node30" class="node"><title>Node117</title>
<g id="a_node30"><a xlink:href="classCoolTime.html#a7a7501c5ca77dd1248bea704c44f986c" target="_top" xlink:title="CoolTime::getTimeDate">
<polygon fill="white" stroke="black" points="559,-88 559,-107 680,-107 680,-88 559,-88"/>
<text text-anchor="middle" x="619.5" y="-95" font-family="Helvetica,sans-Serif" font-size="10.00">CoolTime::getTimeDate</text>
</a>
</g>
</g>
<!-- Node105&#45;&gt;Node117 -->
<g id="edge35" class="edge"><title>Node105&#45;&gt;Node117</title>
<path fill="none" stroke="midnightblue" d="M246.935,-277.944C261.546,-253.191 304.293,-186.68 359,-154.5 375.958,-144.525 485.569,-122.529 556.805,-108.965"/>
<polygon fill="midnightblue" stroke="midnightblue" points="557.849,-112.33 567.021,-107.028 556.544,-105.453 557.849,-112.33"/>
</g>
<!-- Node109 -->
<g id="node22" class="node"><title>Node109</title>
<g id="a_node22"><a xlink:href="classCoolBoardSensors.html#a6944b6ea7bce8e2fce1b434acfd9d5f3" target="_top" xlink:title="CoolBoardSensors::readVBat">
<polygon fill="white" stroke="black" points="547,-278 547,-297 692,-297 692,-278 547,-278"/>
<text text-anchor="middle" x="619.5" y="-285" font-family="Helvetica,sans-Serif" font-size="10.00">CoolBoardSensors::readVBat</text>
</a>
</g>
</g>
<!-- Node108&#45;&gt;Node109 -->
<g id="edge25" class="edge"><title>Node108&#45;&gt;Node109</title>
<path fill="none" stroke="midnightblue" d="M479.062,-259.089C504.227,-264.216 535.396,-270.567 561.879,-275.963"/>
<polygon fill="midnightblue" stroke="midnightblue" points="561.279,-279.413 571.777,-277.98 562.677,-272.554 561.279,-279.413"/>
</g>
<!-- Node110 -->
<g id="node23" class="node"><title>Node110</title>
<g id="a_node23"><a xlink:href="classCoolBoardSensors.html#a8761bff50373c485f4465c8db47d0633" target="_top" xlink:title="CoolBoardSensors::readMoisture">
<polygon fill="white" stroke="black" points="539,-240 539,-259 700,-259 700,-240 539,-240"/>
<text text-anchor="middle" x="619.5" y="-247" font-family="Helvetica,sans-Serif" font-size="10.00">CoolBoardSensors::readMoisture</text>
</a>
</g>
</g>
<!-- Node108&#45;&gt;Node110 -->
<g id="edge26" class="edge"><title>Node108&#45;&gt;Node110</title>
<path fill="none" stroke="midnightblue" d="M492.551,-249.5C504.101,-249.5 516.418,-249.5 528.656,-249.5"/>
<polygon fill="midnightblue" stroke="midnightblue" points="528.899,-253 538.899,-249.5 528.899,-246 528.899,-253"/>
</g>
<!-- Node113 -->
<g id="node26" class="node"><title>Node113</title>
<g id="a_node26"><a xlink:href="classIrene3000.html#a94ad40f281d83ad1be20bf1edd6fe802" target="_top" xlink:title="Irene3000::readTemp">
<polygon fill="white" stroke="black" points="565,-126 565,-145 674,-145 674,-126 565,-126"/>
<text text-anchor="middle" x="619.5" y="-133" font-family="Helvetica,sans-Serif" font-size="10.00">Irene3000::readTemp</text>
</a>
</g>
</g>
<!-- Node112&#45;&gt;Node113 -->
<g id="edge29" class="edge"><title>Node112&#45;&gt;Node113</title>
<path fill="none" stroke="midnightblue" d="M473.39,-165.067C499.405,-159.766 533.315,-152.857 561.813,-147.05"/>
<polygon fill="midnightblue" stroke="midnightblue" points="562.545,-150.473 571.645,-145.047 561.148,-143.614 562.545,-150.473"/>
</g>
<!-- Node115 -->
<g id="node28" class="node"><title>Node115</title>
<g id="a_node28"><a xlink:href="classIrene3000.html#abf3db725fabb0634ec889b32068a5eec" target="_top" xlink:title="Irene3000::readPh">
<polygon fill="white" stroke="black" points="571.5,-202 571.5,-221 667.5,-221 667.5,-202 571.5,-202"/>
<text text-anchor="middle" x="619.5" y="-209" font-family="Helvetica,sans-Serif" font-size="10.00">Irene3000::readPh</text>
</a>
</g>
</g>
<!-- Node112&#45;&gt;Node115 -->
<g id="edge31" class="edge"><title>Node112&#45;&gt;Node115</title>
<path fill="none" stroke="midnightblue" d="M473.39,-181.933C499.405,-187.234 533.315,-194.143 561.813,-199.95"/>
<polygon fill="midnightblue" stroke="midnightblue" points="561.148,-203.386 571.645,-201.953 562.545,-196.527 561.148,-203.386"/>
</g>
<!-- Node116 -->
<g id="node29" class="node"><title>Node116</title>
<g id="a_node29"><a xlink:href="classIrene3000.html#ae73bd2ed14a199a7e83f4d6458476a7c" target="_top" xlink:title="Irene3000::readADSChannel2">
<polygon fill="white" stroke="black" points="546.5,-164 546.5,-183 692.5,-183 692.5,-164 546.5,-164"/>
<text text-anchor="middle" x="619.5" y="-171" font-family="Helvetica,sans-Serif" font-size="10.00">Irene3000::readADSChannel2</text>
</a>
</g>
</g>
<!-- Node112&#45;&gt;Node116 -->
<g id="edge33" class="edge"><title>Node112&#45;&gt;Node116</title>
<path fill="none" stroke="midnightblue" d="M473.39,-173.5C491.919,-173.5 514.452,-173.5 536.183,-173.5"/>
<polygon fill="midnightblue" stroke="midnightblue" points="536.428,-177 546.428,-173.5 536.428,-170 536.428,-177"/>
</g>
<!-- Node114 -->
<g id="node27" class="node"><title>Node114</title>
<g id="a_node27"><a xlink:href="classIrene3000.html#aff7c5da186b388e7272e63ff88a20c34" target="_top" xlink:title="Irene3000::setGain">
<polygon fill="white" stroke="black" points="745.5,-164 745.5,-183 844.5,-183 844.5,-164 745.5,-164"/>
<text text-anchor="middle" x="795" y="-171" font-family="Helvetica,sans-Serif" font-size="10.00">Irene3000::setGain</text>
</a>
</g>
</g>
<!-- Node113&#45;&gt;Node114 -->
<g id="edge30" class="edge"><title>Node113&#45;&gt;Node114</title>
<path fill="none" stroke="midnightblue" d="M664.281,-145.089C687.486,-150.171 716.178,-156.455 740.673,-161.82"/>
<polygon fill="midnightblue" stroke="midnightblue" points="740.016,-165.259 750.533,-163.98 741.514,-158.421 740.016,-165.259"/>
</g>
<!-- Node115&#45;&gt;Node114 -->
<g id="edge32" class="edge"><title>Node115&#45;&gt;Node114</title>
<path fill="none" stroke="midnightblue" d="M664.281,-201.911C687.486,-196.829 716.178,-190.545 740.673,-185.18"/>
<polygon fill="midnightblue" stroke="midnightblue" points="741.514,-188.579 750.533,-183.02 740.016,-181.741 741.514,-188.579"/>
</g>
<!-- Node116&#45;&gt;Node114 -->
<g id="edge34" class="edge"><title>Node116&#45;&gt;Node114</title>
<path fill="none" stroke="midnightblue" d="M692.572,-173.5C706.743,-173.5 721.452,-173.5 735.126,-173.5"/>
<polygon fill="midnightblue" stroke="midnightblue" points="735.356,-177 745.356,-173.5 735.356,-170 735.356,-177"/>
</g>
<!-- Node118 -->
<g id="node31" class="node"><title>Node118</title>
<g id="a_node31"><a xlink:href="classCoolTime.html#acd537cd4210d7bde4e1f5c47d2ac0456" target="_top" xlink:title="CoolTime::formatDigits">
<polygon fill="white" stroke="black" points="736,-69 736,-88 854,-88 854,-69 736,-69"/>
<text text-anchor="middle" x="795" y="-76" font-family="Helvetica,sans-Serif" font-size="10.00">CoolTime::formatDigits</text>
</a>
</g>
</g>
<!-- Node117&#45;&gt;Node118 -->
<g id="edge36" class="edge"><title>Node117&#45;&gt;Node118</title>
<path fill="none" stroke="midnightblue" d="M680.209,-90.9613C694.863,-89.3565 710.661,-87.6264 725.686,-85.9811"/>
<polygon fill="midnightblue" stroke="midnightblue" points="726.381,-89.426 735.941,-84.8581 725.619,-82.4676 726.381,-89.426"/>
</g>
<!-- Node120 -->
<g id="node33" class="node"><title>Node120</title>
<g id="a_node33"><a xlink:href="classCoolFileSystem.html#ab78704d5d21ce10fc6f1138ab5ab46c8" target="_top" xlink:title="CoolFileSystem::saveSensor\lDataCSV">
<polygon fill="white" stroke="black" points="359,-0.5 359,-30.5 503,-30.5 503,-0.5 359,-0.5"/>
<text text-anchor="start" x="367" y="-18.5" font-family="Helvetica,sans-Serif" font-size="10.00">CoolFileSystem::saveSensor</text>
<text text-anchor="middle" x="431" y="-7.5" font-family="Helvetica,sans-Serif" font-size="10.00">DataCSV</text>
</a>
</g>
</g>
<!-- Node119&#45;&gt;Node120 -->
<g id="edge39" class="edge"><title>Node119&#45;&gt;Node120</title>
<path fill="none" stroke="midnightblue" d="M323.083,-27.9784C331.664,-26.9768 340.389,-25.9586 348.965,-24.9577"/>
<polygon fill="midnightblue" stroke="midnightblue" points="349.419,-28.4285 358.946,-23.7928 348.608,-21.4757 349.419,-28.4285"/>
</g>
<!-- Node122 -->
<g id="node35" class="node"><title>Node122</title>
<g id="a_node35"><a xlink:href="classCoolMQTT.html#a373cc92fca7760d886f02d8a6e5b3f63" target="_top" xlink:title="CoolMQTT::getUser">
<polygon fill="white" stroke="black" points="378.5,-88 378.5,-107 483.5,-107 483.5,-88 378.5,-88"/>
<text text-anchor="middle" x="431" y="-95" font-family="Helvetica,sans-Serif" font-size="10.00">CoolMQTT::getUser</text>
</a>
</g>
</g>
<!-- Node121&#45;&gt;Node122 -->
<g id="edge43" class="edge"><title>Node121&#45;&gt;Node122</title>
<path fill="none" stroke="midnightblue" d="M294.509,-97.5C317.472,-97.5 344.504,-97.5 368.357,-97.5"/>
<polygon fill="midnightblue" stroke="midnightblue" points="368.364,-101 378.364,-97.5 368.364,-94.0001 368.364,-101"/>
</g>
<!-- Node123 -->
<g id="node36" class="node"><title>Node123</title>
<g id="a_node36"><a xlink:href="classCoolTime.html#ac4f32ee513c1328d984306645e8785a4" target="_top" xlink:title="CoolTime::getESDate">
<polygon fill="white" stroke="black" points="374.5,-50 374.5,-69 487.5,-69 487.5,-50 374.5,-50"/>
<text text-anchor="middle" x="431" y="-57" font-family="Helvetica,sans-Serif" font-size="10.00">CoolTime::getESDate</text>
</a>
</g>
</g>
<!-- Node121&#45;&gt;Node123 -->
<g id="edge44" class="edge"><title>Node121&#45;&gt;Node123</title>
<path fill="none" stroke="midnightblue" d="M289.067,-87.911C314.501,-82.7835 346.005,-76.4328 372.771,-71.0368"/>
<polygon fill="midnightblue" stroke="midnightblue" points="373.664,-74.4273 382.776,-69.0201 372.281,-67.5653 373.664,-74.4273"/>
</g>
<!-- Node123&#45;&gt;Node117 -->
<g id="edge45" class="edge"><title>Node123&#45;&gt;Node117</title>
<path fill="none" stroke="midnightblue" d="M479.062,-69.089C504.227,-74.2165 535.396,-80.5672 561.879,-85.9632"/>
<polygon fill="midnightblue" stroke="midnightblue" points="561.279,-89.4129 571.777,-87.9799 562.677,-82.5538 561.279,-89.4129"/>
</g>
<!-- Node123&#45;&gt;Node118 -->
<g id="edge46" class="edge"><title>Node123&#45;&gt;Node118</title>
<path fill="none" stroke="midnightblue" d="M487.769,-62.4271C551.719,-65.7836 656.579,-71.2873 725.455,-74.9024"/>
<polygon fill="midnightblue" stroke="midnightblue" points="725.598,-78.4146 735.768,-75.4436 725.965,-71.4242 725.598,-78.4146"/>
</g>
</g>
</svg>
