<?xml version="1.0" encoding="UTF-8" standalone="no"?>
<!DOCTYPE svg PUBLIC "-//W3C//DTD SVG 1.1//EN"
 "http://www.w3.org/Graphics/SVG/1.1/DTD/svg11.dtd">
<!-- Generated by graphviz version 2.38.0 (20140413.2041)
 -->
<!-- Title: CoolBoardSensors Pages: 1 -->
<svg width="320pt" height="413pt"
 viewBox="0.00 0.00 319.50 413.00" xmlns="http://www.w3.org/2000/svg" xmlns:xlink="http://www.w3.org/1999/xlink">
<g id="graph0" class="graph" transform="scale(1 1) rotate(0) translate(4 409)">
<title>CoolBoardSensors</title>
<polygon fill="white" stroke="none" points="-4,4 -4,-409 315.5,-409 315.5,4 -4,4"/>
<!-- Node1 -->
<g id="node1" class="node"><title>Node1</title>
<polygon fill="#bfbfbf" stroke="black" points="89,-0.5 89,-277.5 218,-277.5 218,-0.5 89,-0.5"/>
<text text-anchor="middle" x="153.5" y="-265.5" font-family="Helvetica,sans-Serif" font-size="10.00">CoolBoardSensors</text>
<polyline fill="none" stroke="black" points="89,-258.5 218,-258.5 "/>
<text text-anchor="start" x="97" y="-246.5" font-family="Helvetica,sans-Serif" font-size="10.00">+ lightSensor</text>
<text text-anchor="start" x="97" y="-235.5" font-family="Helvetica,sans-Serif" font-size="10.00">+ envSensor</text>
<text text-anchor="start" x="97" y="-224.5" font-family="Helvetica,sans-Serif" font-size="10.00">&#45; EnMoisture</text>
<text text-anchor="start" x="97" y="-213.5" font-family="Helvetica,sans-Serif" font-size="10.00">&#45; AnMplex</text>
<text text-anchor="start" x="97" y="-202.5" font-family="Helvetica,sans-Serif" font-size="10.00">&#45; EnI2C</text>
<text text-anchor="start" x="97" y="-191.5" font-family="Helvetica,sans-Serif" font-size="10.00">&#45; vbatActive</text>
<text text-anchor="start" x="97" y="-180.5" font-family="Helvetica,sans-Serif" font-size="10.00">&#45; soilMoistureActive</text>
<text text-anchor="start" x="97" y="-169.5" font-family="Helvetica,sans-Serif" font-size="10.00">&#45; jsonSize</text>
<polyline fill="none" stroke="black" points="89,-162.5 218,-162.5 "/>
<text text-anchor="start" x="97" y="-150.5" font-family="Helvetica,sans-Serif" font-size="10.00">+ CoolBoardSensors()</text>
<text text-anchor="start" x="97" y="-139.5" font-family="Helvetica,sans-Serif" font-size="10.00">+ begin()</text>
<text text-anchor="start" x="97" y="-128.5" font-family="Helvetica,sans-Serif" font-size="10.00">+ read()</text>
<text text-anchor="start" x="97" y="-117.5" font-family="Helvetica,sans-Serif" font-size="10.00">+ getJsonSize()</text>
<text text-anchor="start" x="97" y="-106.5" font-family="Helvetica,sans-Serif" font-size="10.00">+ setJsonSize()</text>
<text text-anchor="start" x="97" y="-95.5" font-family="Helvetica,sans-Serif" font-size="10.00">+ allActive()</text>
<text text-anchor="start" x="97" y="-84.5" font-family="Helvetica,sans-Serif" font-size="10.00">+ initReadI2C()</text>
<text text-anchor="start" x="97" y="-73.5" font-family="Helvetica,sans-Serif" font-size="10.00">+ stopReadI2C()</text>
<text text-anchor="start" x="97" y="-62.5" font-family="Helvetica,sans-Serif" font-size="10.00">+ end()</text>
<text text-anchor="start" x="97" y="-51.5" font-family="Helvetica,sans-Serif" font-size="10.00">+ config()</text>
<text text-anchor="start" x="97" y="-40.5" font-family="Helvetica,sans-Serif" font-size="10.00">+ printConf()</text>
<text text-anchor="start" x="97" y="-29.5" font-family="Helvetica,sans-Serif" font-size="10.00">+ setEnvSensorSettings()</text>
<text text-anchor="start" x="97" y="-18.5" font-family="Helvetica,sans-Serif" font-size="10.00">+ readVBat()</text>
<text text-anchor="start" x="97" y="-7.5" font-family="Helvetica,sans-Serif" font-size="10.00">+ readMoisture()</text>
</g>
<!-- Node2 -->
<g id="node2" class="node"><title>Node2</title>
<g id="a_node2"><a xlink:href="structCoolBoardSensors_1_1airActive.html" target="_top" xlink:title="{CoolBoardSensors::airActive\n|+ temperature\l+ humidity\l+ pressure\l|}">
<polygon fill="white" stroke="black" points="0,-325.5 0,-404.5 143,-404.5 143,-325.5 0,-325.5"/>
<text text-anchor="middle" x="71.5" y="-392.5" font-family="Helvetica,sans-Serif" font-size="10.00">CoolBoardSensors::airActive</text>
<polyline fill="none" stroke="black" points="0,-385.5 143,-385.5 "/>
<text text-anchor="start" x="8" y="-373.5" font-family="Helvetica,sans-Serif" font-size="10.00">+ temperature</text>
<text text-anchor="start" x="8" y="-362.5" font-family="Helvetica,sans-Serif" font-size="10.00">+ humidity</text>
<text text-anchor="start" x="8" y="-351.5" font-family="Helvetica,sans-Serif" font-size="10.00">+ pressure</text>
<polyline fill="none" stroke="black" points="0,-344.5 143,-344.5 "/>
<text text-anchor="middle" x="71.5" y="-332.5" font-family="Helvetica,sans-Serif" font-size="10.00"> </text>
</a>
</g>
</g>
<!-- Node2&#45;&gt;Node1 -->
<g id="edge1" class="edge"><title>Node2&#45;&gt;Node1</title>
<path fill="none" stroke="#404040" d="M85.5963,-325.493C89.5672,-314.646 94.141,-302.151 98.9995,-288.879"/>
<polygon fill="none" stroke="#404040" points="99.0154,-288.836 97.3217,-281.827 103.141,-277.567 104.834,-284.577 99.0154,-288.836"/>
<text text-anchor="middle" x="129.5" y="-299" font-family="Helvetica,sans-Serif" font-size="10.00"> &#45;airDataActive</text>
</g>
<!-- Node3 -->
<g id="node3" class="node"><title>Node3</title>
<g id="a_node3"><a xlink:href="structCoolBoardSensors_1_1lightActive.html" target="_top" xlink:title="{CoolBoardSensors::lightActive\n|+ visible\l+ ir\l+ uv\l|}">
<polygon fill="white" stroke="black" points="161.5,-325.5 161.5,-404.5 311.5,-404.5 311.5,-325.5 161.5,-325.5"/>
<text text-anchor="middle" x="236.5" y="-392.5" font-family="Helvetica,sans-Serif" font-size="10.00">CoolBoardSensors::lightActive</text>
<polyline fill="none" stroke="black" points="161.5,-385.5 311.5,-385.5 "/>
<text text-anchor="start" x="169.5" y="-373.5" font-family="Helvetica,sans-Serif" font-size="10.00">+ visible</text>
<text text-anchor="start" x="169.5" y="-362.5" font-family="Helvetica,sans-Serif" font-size="10.00">+ ir</text>
<text text-anchor="start" x="169.5" y="-351.5" font-family="Helvetica,sans-Serif" font-size="10.00">+ uv</text>
<polyline fill="none" stroke="black" points="161.5,-344.5 311.5,-344.5 "/>
<text text-anchor="middle" x="236.5" y="-332.5" font-family="Helvetica,sans-Serif" font-size="10.00"> </text>
</a>
</g>
</g>
<!-- Node3&#45;&gt;Node1 -->
<g id="edge2" class="edge"><title>Node3&#45;&gt;Node1</title>
<path fill="none" stroke="#404040" d="M222.232,-325.493C218.212,-314.646 213.583,-302.151 208.665,-288.879"/>
<polygon fill="none" stroke="#404040" points="208.643,-288.82 202.808,-284.583 204.474,-277.567 210.309,-281.804 208.643,-288.82"/>
<text text-anchor="middle" x="251" y="-299" font-family="Helvetica,sans-Serif" font-size="10.00"> &#45;lightDataActive</text>
</g>
</g>
</svg>
