<?xml version="1.0" encoding="UTF-8" standalone="no"?>
<!DOCTYPE svg PUBLIC "-//W3C//DTD SVG 1.1//EN"
 "http://www.w3.org/Graphics/SVG/1.1/DTD/svg11.dtd">
<!-- Generated by graphviz version 2.38.0 (20140413.2041)
 -->
<!-- Title: CoolBoard::connect Pages: 1 -->
<svg width="406pt" height="256pt"
 viewBox="0.00 0.00 406.00 256.00" xmlns="http://www.w3.org/2000/svg" xmlns:xlink="http://www.w3.org/1999/xlink">
<g id="graph0" class="graph" transform="scale(1 1) rotate(0) translate(4 252)">
<title>CoolBoard::connect</title>
<polygon fill="white" stroke="none" points="-4,4 -4,-252 402,-252 402,4 -4,4"/>
<!-- Node59 -->
<g id="node1" class="node"><title>Node59</title>
<polygon fill="#bfbfbf" stroke="black" points="0,-114.5 0,-133.5 103,-133.5 103,-114.5 0,-114.5"/>
<text text-anchor="middle" x="51.5" y="-121.5" font-family="Helvetica,sans-Serif" font-size="10.00">CoolBoard::connect</text>
</g>
<!-- Node60 -->
<g id="node2" class="node"><title>Node60</title>
<g id="a_node2"><a xlink:href="classCoolBoardLed.html#a96e1ea13003eee34c9dbcef340404426" target="_top" xlink:title="CoolBoardLed::blink">
<polygon fill="white" stroke="black" points="152,-228.5 152,-247.5 256,-247.5 256,-228.5 152,-228.5"/>
<text text-anchor="middle" x="204" y="-235.5" font-family="Helvetica,sans-Serif" font-size="10.00">CoolBoardLed::blink</text>
</a>
</g>
</g>
<!-- Node59&#45;&gt;Node60 -->
<g id="edge1" class="edge"><title>Node59&#45;&gt;Node60</title>
<path fill="none" stroke="midnightblue" d="M58.6177,-133.673C71.2533,-152.862 102.157,-195.881 139,-219 142.329,-221.089 145.898,-222.958 149.587,-224.628"/>
<polygon fill="midnightblue" stroke="midnightblue" points="148.346,-227.901 158.93,-228.384 150.957,-221.407 148.346,-227.901"/>
</g>
<!-- Node61 -->
<g id="node3" class="node"><title>Node61</title>
<g id="a_node3"><a xlink:href="classCoolMQTT.html#a58b0b1f64b269c2681685208262fba1d" target="_top" xlink:title="CoolMQTT::connect">
<polygon fill="white" stroke="black" points="151.5,-190.5 151.5,-209.5 256.5,-209.5 256.5,-190.5 151.5,-190.5"/>
<text text-anchor="middle" x="204" y="-197.5" font-family="Helvetica,sans-Serif" font-size="10.00">CoolMQTT::connect</text>
</a>
</g>
</g>
<!-- Node59&#45;&gt;Node61 -->
<g id="edge2" class="edge"><title>Node59&#45;&gt;Node61</title>
<path fill="none" stroke="midnightblue" d="M66.7403,-133.67C83.5245,-144.802 112.494,-163.195 139,-176 147.152,-179.938 156.128,-183.66 164.715,-186.946"/>
<polygon fill="midnightblue" stroke="midnightblue" points="163.585,-190.26 174.178,-190.457 166.021,-183.697 163.585,-190.26"/>
</g>
<!-- Node62 -->
<g id="node4" class="node"><title>Node62</title>
<g id="a_node4"><a xlink:href="classCoolMQTT.html#a5d003307eff78efbd585e42b43b72b6d" target="_top" xlink:title="CoolMQTT::state">
<polygon fill="white" stroke="black" points="305.5,-171.5 305.5,-190.5 397.5,-190.5 397.5,-171.5 305.5,-171.5"/>
<text text-anchor="middle" x="351.5" y="-178.5" font-family="Helvetica,sans-Serif" font-size="10.00">CoolMQTT::state</text>
</a>
</g>
</g>
<!-- Node59&#45;&gt;Node62 -->
<g id="edge8" class="edge"><title>Node59&#45;&gt;Node62</title>
<path fill="none" stroke="midnightblue" d="M94.2289,-133.506C108.413,-136.646 124.374,-140.081 139,-143 192.006,-153.579 252.759,-164.355 295.511,-171.717"/>
<polygon fill="midnightblue" stroke="midnightblue" points="294.985,-175.178 305.433,-173.42 296.169,-168.279 294.985,-175.178"/>
</g>
<!-- Node63 -->
<g id="node5" class="node"><title>Node63</title>
<g id="a_node5"><a xlink:href="classCoolWifi.html#ad060353050f40d032a2dbf9e54a768bf" target="_top" xlink:title="CoolWifi::connect">
<polygon fill="white" stroke="black" points="156.5,-114.5 156.5,-133.5 251.5,-133.5 251.5,-114.5 156.5,-114.5"/>
<text text-anchor="middle" x="204" y="-121.5" font-family="Helvetica,sans-Serif" font-size="10.00">CoolWifi::connect</text>
</a>
</g>
</g>
<!-- Node59&#45;&gt;Node63 -->
<g id="edge4" class="edge"><title>Node59&#45;&gt;Node63</title>
<path fill="none" stroke="midnightblue" d="M103.033,-124C116.914,-124 132.056,-124 146.261,-124"/>
<polygon fill="midnightblue" stroke="midnightblue" points="146.407,-127.5 156.407,-124 146.407,-120.5 146.407,-127.5"/>
</g>
<!-- Node65 -->
<g id="node7" class="node"><title>Node65</title>
<g id="a_node7"><a xlink:href="classCoolBoard.html#aaa24480b273fc095a1356a589c333781" target="_top" xlink:title="CoolBoard::getLogInterval">
<polygon fill="white" stroke="black" points="139,-76.5 139,-95.5 269,-95.5 269,-76.5 139,-76.5"/>
<text text-anchor="middle" x="204" y="-83.5" font-family="Helvetica,sans-Serif" font-size="10.00">CoolBoard::getLogInterval</text>
</a>
</g>
</g>
<!-- Node59&#45;&gt;Node65 -->
<g id="edge6" class="edge"><title>Node59&#45;&gt;Node65</title>
<path fill="none" stroke="midnightblue" d="M90.4775,-114.411C110.159,-109.442 134.391,-103.323 155.321,-98.0387"/>
<polygon fill="midnightblue" stroke="midnightblue" points="156.457,-101.362 165.296,-95.5201 154.743,-94.5747 156.457,-101.362"/>
</g>
<!-- Node66 -->
<g id="node8" class="node"><title>Node66</title>
<g id="a_node8"><a xlink:href="classCoolWifi.html#a1c7b4d82a4098d346e7593dce92039fa" target="_top" xlink:title="CoolWifi::state">
<polygon fill="white" stroke="black" points="163,-38.5 163,-57.5 245,-57.5 245,-38.5 163,-38.5"/>
<text text-anchor="middle" x="204" y="-45.5" font-family="Helvetica,sans-Serif" font-size="10.00">CoolWifi::state</text>
</a>
</g>
</g>
<!-- Node59&#45;&gt;Node66 -->
<g id="edge7" class="edge"><title>Node59&#45;&gt;Node66</title>
<path fill="none" stroke="midnightblue" d="M64.4295,-114.481C80.5219,-102.04 110.466,-80.2808 139,-67 143.926,-64.7074 149.193,-62.6174 154.512,-60.7326"/>
<polygon fill="midnightblue" stroke="midnightblue" points="155.688,-64.0301 164.08,-57.5622 153.486,-57.3855 155.688,-64.0301"/>
</g>
<!-- Node67 -->
<g id="node9" class="node"><title>Node67</title>
<g id="a_node9"><a xlink:href="classCoolBoardLed.html#a30fadd4cbec17ceea428bf7a32207e87" target="_top" xlink:title="CoolBoardLed::write">
<polygon fill="white" stroke="black" points="151.5,-0.5 151.5,-19.5 256.5,-19.5 256.5,-0.5 151.5,-0.5"/>
<text text-anchor="middle" x="204" y="-7.5" font-family="Helvetica,sans-Serif" font-size="10.00">CoolBoardLed::write</text>
</a>
</g>
</g>
<!-- Node59&#45;&gt;Node67 -->
<g id="edge9" class="edge"><title>Node59&#45;&gt;Node67</title>
<path fill="none" stroke="midnightblue" d="M58.6177,-114.327C71.2533,-95.1381 102.157,-52.1189 139,-29 142.329,-26.9112 145.898,-25.0424 149.587,-23.372"/>
<polygon fill="midnightblue" stroke="midnightblue" points="150.957,-26.5934 158.93,-19.6161 148.346,-20.0985 150.957,-26.5934"/>
</g>
<!-- Node61&#45;&gt;Node62 -->
<g id="edge3" class="edge"><title>Node61&#45;&gt;Node62</title>
<path fill="none" stroke="midnightblue" d="M256.708,-193.248C269.211,-191.615 282.622,-189.864 295.28,-188.211"/>
<polygon fill="midnightblue" stroke="midnightblue" points="295.776,-191.676 305.239,-186.91 294.87,-184.735 295.776,-191.676"/>
</g>
<!-- Node64 -->
<g id="node6" class="node"><title>Node64</title>
<g id="a_node6"><a xlink:href="classCoolWifi.html#a914d7a1df14dd6b75345fb614c34e9d6" target="_top" xlink:title="CoolWifi::addWifi">
<polygon fill="white" stroke="black" points="305,-114.5 305,-133.5 398,-133.5 398,-114.5 305,-114.5"/>
<text text-anchor="middle" x="351.5" y="-121.5" font-family="Helvetica,sans-Serif" font-size="10.00">CoolWifi::addWifi</text>
</a>
</g>
</g>
<!-- Node63&#45;&gt;Node64 -->
<g id="edge5" class="edge"><title>Node63&#45;&gt;Node64</title>
<path fill="none" stroke="midnightblue" d="M251.838,-124C265.475,-124 280.51,-124 294.644,-124"/>
<polygon fill="midnightblue" stroke="midnightblue" points="294.744,-127.5 304.744,-124 294.744,-120.5 294.744,-127.5"/>
</g>
</g>
</svg>
