<?xml version="1.0" encoding="UTF-8" standalone="no"?>
<!DOCTYPE svg PUBLIC "-//W3C//DTD SVG 1.1//EN"
 "http://www.w3.org/Graphics/SVG/1.1/DTD/svg11.dtd">
<!-- Generated by graphviz version 2.38.0 (20140413.2041)
 -->
<!-- Title: Irene3000 Pages: 1 -->
<svg width="238pt" height="391pt"
 viewBox="0.00 0.00 238.00 391.00" xmlns="http://www.w3.org/2000/svg" xmlns:xlink="http://www.w3.org/1999/xlink">
<g id="graph0" class="graph" transform="scale(1 1) rotate(0) translate(4 387)">
<title>Irene3000</title>
<polygon fill="white" stroke="none" points="-4,4 -4,-387 234,-387 234,4 -4,4"/>
<!-- Node1 -->
<g id="node1" class="node"><title>Node1</title>
<polygon fill="#bfbfbf" stroke="black" points="49,-0.5 49,-222.5 162,-222.5 162,-0.5 49,-0.5"/>
<text text-anchor="middle" x="105.5" y="-210.5" font-family="Helvetica,sans-Serif" font-size="10.00">Irene3000</text>
<polyline fill="none" stroke="black" points="49,-203.5 162,-203.5 "/>
<text text-anchor="start" x="57" y="-191.5" font-family="Helvetica,sans-Serif" font-size="10.00">&#45; ads</text>
<text text-anchor="start" x="57" y="-180.5" font-family="Helvetica,sans-Serif" font-size="10.00">&#45; vRef</text>
<text text-anchor="start" x="57" y="-169.5" font-family="Helvetica,sans-Serif" font-size="10.00">&#45; opampGain</text>
<polyline fill="none" stroke="black" points="49,-162.5 162,-162.5 "/>
<text text-anchor="start" x="57" y="-150.5" font-family="Helvetica,sans-Serif" font-size="10.00">+ begin()</text>
<text text-anchor="start" x="57" y="-139.5" font-family="Helvetica,sans-Serif" font-size="10.00">+ config()</text>
<text text-anchor="start" x="57" y="-128.5" font-family="Helvetica,sans-Serif" font-size="10.00">+ printConf()</text>
<text text-anchor="start" x="57" y="-117.5" font-family="Helvetica,sans-Serif" font-size="10.00">+ read()</text>
<text text-anchor="start" x="57" y="-106.5" font-family="Helvetica,sans-Serif" font-size="10.00">+ readButton()</text>
<text text-anchor="start" x="57" y="-95.5" font-family="Helvetica,sans-Serif" font-size="10.00">+ setGain()</text>
<text text-anchor="start" x="57" y="-84.5" font-family="Helvetica,sans-Serif" font-size="10.00">+ readADSChannel2()</text>
<text text-anchor="start" x="57" y="-73.5" font-family="Helvetica,sans-Serif" font-size="10.00">+ readPh()</text>
<text text-anchor="start" x="57" y="-62.5" font-family="Helvetica,sans-Serif" font-size="10.00">+ readTemp()</text>
<text text-anchor="start" x="57" y="-51.5" font-family="Helvetica,sans-Serif" font-size="10.00">+ resetParams()</text>
<text text-anchor="start" x="57" y="-40.5" font-family="Helvetica,sans-Serif" font-size="10.00">+ calibratepH7()</text>
<text text-anchor="start" x="57" y="-29.5" font-family="Helvetica,sans-Serif" font-size="10.00">+ calibratepH4()</text>
<text text-anchor="start" x="57" y="-18.5" font-family="Helvetica,sans-Serif" font-size="10.00">+ calcpHSlope()</text>
<text text-anchor="start" x="57" y="-7.5" font-family="Helvetica,sans-Serif" font-size="10.00">+ gainConvert()</text>
</g>
<!-- Node2 -->
<g id="node2" class="node"><title>Node2</title>
<g id="a_node2"><a xlink:href="structIrene3000_1_1state.html" target="_top" xlink:title="{Irene3000::state\n|+ active\l+ gain\l+ type\l|}">
<polygon fill="white" stroke="black" points="0,-298 0,-377 87,-377 87,-298 0,-298"/>
<text text-anchor="middle" x="43.5" y="-365" font-family="Helvetica,sans-Serif" font-size="10.00">Irene3000::state</text>
<polyline fill="none" stroke="black" points="0,-358 87,-358 "/>
<text text-anchor="start" x="8" y="-346" font-family="Helvetica,sans-Serif" font-size="10.00">+ active</text>
<text text-anchor="start" x="8" y="-335" font-family="Helvetica,sans-Serif" font-size="10.00">+ gain</text>
<text text-anchor="start" x="8" y="-324" font-family="Helvetica,sans-Serif" font-size="10.00">+ type</text>
<polyline fill="none" stroke="black" points="0,-317 87,-317 "/>
<text text-anchor="middle" x="43.5" y="-305" font-family="Helvetica,sans-Serif" font-size="10.00"> </text>
</a>
</g>
</g>
<!-- Node2&#45;&gt;Node1 -->
<g id="edge1" class="edge"><title>Node2&#45;&gt;Node1</title>
<path fill="none" stroke="#404040" d="M54.1582,-297.993C59.1341,-280.016 65.3619,-257.515 71.7467,-234.447"/>
<polygon fill="none" stroke="#404040" points="71.7898,-234.291 69.5353,-227.442 74.991,-222.726 77.2455,-229.576 71.7898,-234.291"/>
<text text-anchor="middle" x="97" y="-266" font-family="Helvetica,sans-Serif" font-size="10.00"> &#45;waterTemp</text>
<text text-anchor="middle" x="97" y="-255" font-family="Helvetica,sans-Serif" font-size="10.00">&#45;phProbe</text>
<text text-anchor="middle" x="97" y="-244" font-family="Helvetica,sans-Serif" font-size="10.00">&#45;adc2</text>
</g>
<!-- Node3 -->
<g id="node3" class="node"><title>Node3</title>
<g id="a_node3"><a xlink:href="structIrene3000_1_1parameters__T.html" target="_top" xlink:title="{Irene3000::parameters_T\n|+ WriteCheck\l+ pH7Cal\l+ pH4Cal\l+ pHStep\l|}">
<polygon fill="white" stroke="black" points="105,-292.5 105,-382.5 230,-382.5 230,-292.5 105,-292.5"/>
<text text-anchor="middle" x="167.5" y="-370.5" font-family="Helvetica,sans-Serif" font-size="10.00">Irene3000::parameters_T</text>
<polyline fill="none" stroke="black" points="105,-363.5 230,-363.5 "/>
<text text-anchor="start" x="113" y="-351.5" font-family="Helvetica,sans-Serif" font-size="10.00">+ WriteCheck</text>
<text text-anchor="start" x="113" y="-340.5" font-family="Helvetica,sans-Serif" font-size="10.00">+ pH7Cal</text>
<text text-anchor="start" x="113" y="-329.5" font-family="Helvetica,sans-Serif" font-size="10.00">+ pH4Cal</text>
<text text-anchor="start" x="113" y="-318.5" font-family="Helvetica,sans-Serif" font-size="10.00">+ pHStep</text>
<polyline fill="none" stroke="black" points="105,-311.5 230,-311.5 "/>
<text text-anchor="middle" x="167.5" y="-299.5" font-family="Helvetica,sans-Serif" font-size="10.00"> </text>
</a>
</g>
</g>
<!-- Node3&#45;&gt;Node1 -->
<g id="edge2" class="edge"><title>Node3&#45;&gt;Node1</title>
<path fill="none" stroke="#404040" d="M155.251,-292.245C150.546,-275.247 144.919,-254.915 139.168,-234.138"/>
<polygon fill="none" stroke="#404040" points="139.166,-234.132 133.711,-229.417 135.965,-222.567 141.421,-227.283 139.166,-234.132"/>
<text text-anchor="middle" x="168" y="-255" font-family="Helvetica,sans-Serif" font-size="10.00"> &#45;params</text>
</g>
</g>
</svg>
