<?xml version="1.0" encoding="UTF-8" standalone="no"?>
<!DOCTYPE svg PUBLIC "-//W3C//DTD SVG 1.1//EN"
 "http://www.w3.org/Graphics/SVG/1.1/DTD/svg11.dtd">
<!-- Generated by graphviz version 2.38.0 (20140413.2041)
 -->
<!-- Title: CoolBoard Pages: 1 -->
<svg width="1042pt" height="920pt"
 viewBox="0.00 0.00 1041.50 920.00" xmlns="http://www.w3.org/2000/svg" xmlns:xlink="http://www.w3.org/1999/xlink">
<g id="graph0" class="graph" transform="scale(1 1) rotate(0) translate(4 916)">
<title>CoolBoard</title>
<polygon fill="white" stroke="none" points="-4,4 -4,-916 1037.5,-916 1037.5,4 -4,4"/>
<!-- Node1 -->
<g id="node1" class="node"><title>Node1</title>
<polygon fill="#bfbfbf" stroke="black" points="419,-0.5 419,-255.5 540,-255.5 540,-0.5 419,-0.5"/>
<text text-anchor="middle" x="479.5" y="-243.5" font-family="Helvetica,sans-Serif" font-size="10.00">CoolBoard</text>
<polyline fill="none" stroke="black" points="419,-236.5 540,-236.5 "/>
<text text-anchor="start" x="427" y="-224.5" font-family="Helvetica,sans-Serif" font-size="10.00">&#45; userActive</text>
<text text-anchor="start" x="427" y="-213.5" font-family="Helvetica,sans-Serif" font-size="10.00">&#45; ireneActive</text>
<text text-anchor="start" x="427" y="-202.5" font-family="Helvetica,sans-Serif" font-size="10.00">&#45; jetpackActive</text>
<text text-anchor="start" x="427" y="-191.5" font-family="Helvetica,sans-Serif" font-size="10.00">&#45; externalSensorsActive</text>
<text text-anchor="start" x="427" y="-180.5" font-family="Helvetica,sans-Serif" font-size="10.00">&#45; sleepActive</text>
<text text-anchor="start" x="427" y="-169.5" font-family="Helvetica,sans-Serif" font-size="10.00">&#45; logInterval</text>
<text text-anchor="start" x="427" y="-158.5" font-family="Helvetica,sans-Serif" font-size="10.00">&#45; serverTimeOut</text>
<text text-anchor="start" x="427" y="-147.5" font-family="Helvetica,sans-Serif" font-size="10.00">&#45; data</text>
<text text-anchor="start" x="427" y="-136.5" font-family="Helvetica,sans-Serif" font-size="10.00">&#45; answer</text>
<polyline fill="none" stroke="black" points="419,-129.5 540,-129.5 "/>
<text text-anchor="start" x="427" y="-117.5" font-family="Helvetica,sans-Serif" font-size="10.00">+ begin()</text>
<text text-anchor="start" x="427" y="-106.5" font-family="Helvetica,sans-Serif" font-size="10.00">+ config()</text>
<text text-anchor="start" x="427" y="-95.5" font-family="Helvetica,sans-Serif" font-size="10.00">+ update()</text>
<text text-anchor="start" x="427" y="-84.5" font-family="Helvetica,sans-Serif" font-size="10.00">+ offLineMode()</text>
<text text-anchor="start" x="427" y="-73.5" font-family="Helvetica,sans-Serif" font-size="10.00">+ onLineMode()</text>
<text text-anchor="start" x="427" y="-62.5" font-family="Helvetica,sans-Serif" font-size="10.00">+ connect()</text>
<text text-anchor="start" x="427" y="-51.5" font-family="Helvetica,sans-Serif" font-size="10.00">+ getLogInterval()</text>
<text text-anchor="start" x="427" y="-40.5" font-family="Helvetica,sans-Serif" font-size="10.00">+ printConf()</text>
<text text-anchor="start" x="427" y="-29.5" font-family="Helvetica,sans-Serif" font-size="10.00">+ sleep()</text>
<text text-anchor="start" x="427" y="-18.5" font-family="Helvetica,sans-Serif" font-size="10.00">+ readSensors()</text>
<text text-anchor="start" x="427" y="-7.5" font-family="Helvetica,sans-Serif" font-size="10.00">+ userData()</text>
</g>
<!-- Node2 -->
<g id="node2" class="node"><title>Node2</title>
<g id="a_node2"><a xlink:href="classCoolMQTT.html" target="_top" xlink:title="This class handles the mqtt client. ">
<polygon fill="white" stroke="black" points="0,-303.5 0,-580.5 97,-580.5 97,-303.5 0,-303.5"/>
<text text-anchor="middle" x="48.5" y="-568.5" font-family="Helvetica,sans-Serif" font-size="10.00">CoolMQTT</text>
<polyline fill="none" stroke="black" points="0,-561.5 97,-561.5 "/>
<text text-anchor="start" x="8" y="-549.5" font-family="Helvetica,sans-Serif" font-size="10.00">&#45; mqttServer</text>
<text text-anchor="start" x="8" y="-538.5" font-family="Helvetica,sans-Serif" font-size="10.00">&#45; msg</text>
<text text-anchor="start" x="8" y="-527.5" font-family="Helvetica,sans-Serif" font-size="10.00">&#45; inTopic</text>
<text text-anchor="start" x="8" y="-516.5" font-family="Helvetica,sans-Serif" font-size="10.00">&#45; outTopic</text>
<text text-anchor="start" x="8" y="-505.5" font-family="Helvetica,sans-Serif" font-size="10.00">&#45; user</text>
<text text-anchor="start" x="8" y="-494.5" font-family="Helvetica,sans-Serif" font-size="10.00">&#45; bufferSize</text>
<text text-anchor="start" x="8" y="-483.5" font-family="Helvetica,sans-Serif" font-size="10.00">&#45; espClient</text>
<text text-anchor="start" x="8" y="-472.5" font-family="Helvetica,sans-Serif" font-size="10.00">&#45; client</text>
<text text-anchor="start" x="8" y="-461.5" font-family="Helvetica,sans-Serif" font-size="10.00">&#45; newMsg</text>
<text text-anchor="start" x="8" y="-450.5" font-family="Helvetica,sans-Serif" font-size="10.00">&#45; previousLogTime</text>
<polyline fill="none" stroke="black" points="0,-443.5 97,-443.5 "/>
<text text-anchor="start" x="8" y="-431.5" font-family="Helvetica,sans-Serif" font-size="10.00">+ begin()</text>
<text text-anchor="start" x="8" y="-420.5" font-family="Helvetica,sans-Serif" font-size="10.00">+ connect()</text>
<text text-anchor="start" x="8" y="-409.5" font-family="Helvetica,sans-Serif" font-size="10.00">+ publish()</text>
<text text-anchor="start" x="8" y="-398.5" font-family="Helvetica,sans-Serif" font-size="10.00">+ publish()</text>
<text text-anchor="start" x="8" y="-387.5" font-family="Helvetica,sans-Serif" font-size="10.00">+ read()</text>
<text text-anchor="start" x="8" y="-376.5" font-family="Helvetica,sans-Serif" font-size="10.00">+ config()</text>
<text text-anchor="start" x="8" y="-365.5" font-family="Helvetica,sans-Serif" font-size="10.00">+ config()</text>
<text text-anchor="start" x="8" y="-354.5" font-family="Helvetica,sans-Serif" font-size="10.00">+ callback()</text>
<text text-anchor="start" x="8" y="-343.5" font-family="Helvetica,sans-Serif" font-size="10.00">+ printConf()</text>
<text text-anchor="start" x="8" y="-332.5" font-family="Helvetica,sans-Serif" font-size="10.00">+ state()</text>
<text text-anchor="start" x="8" y="-321.5" font-family="Helvetica,sans-Serif" font-size="10.00">+ mqttLoop()</text>
<text text-anchor="start" x="8" y="-310.5" font-family="Helvetica,sans-Serif" font-size="10.00">+ getUser()</text>
</a>
</g>
</g>
<!-- Node2&#45;&gt;Node1 -->
<g id="edge1" class="edge"><title>Node2&#45;&gt;Node1</title>
<path fill="none" stroke="#404040" d="M97.0546,-312.759C99.7295,-309.355 102.543,-306.09 105.5,-303 188.803,-215.969 324.127,-168.183 407.129,-145.645"/>
<polygon fill="none" stroke="#404040" points="407.384,-145.577 412.158,-140.173 418.983,-142.501 414.209,-147.906 407.384,-145.577"/>
<text text-anchor="middle" x="143.5" y="-277" font-family="Helvetica,sans-Serif" font-size="10.00"> &#45;mqtt</text>
</g>
<!-- Node3 -->
<g id="node3" class="node"><title>Node3</title>
<g id="a_node3"><a xlink:href="classCoolWifi.html" target="_top" xlink:title="This class manages the WiFi connection . ">
<polygon fill="white" stroke="black" points="115,-353 115,-531 190,-531 190,-353 115,-353"/>
<text text-anchor="middle" x="152.5" y="-519" font-family="Helvetica,sans-Serif" font-size="10.00">CoolWifi</text>
<polyline fill="none" stroke="black" points="115,-512 190,-512 "/>
<text text-anchor="start" x="123" y="-500" font-family="Helvetica,sans-Serif" font-size="10.00">&#45; wifiManager</text>
<text text-anchor="start" x="123" y="-489" font-family="Helvetica,sans-Serif" font-size="10.00">&#45; wifiMulti</text>
<text text-anchor="start" x="123" y="-478" font-family="Helvetica,sans-Serif" font-size="10.00">&#45; wifiCount</text>
<text text-anchor="start" x="123" y="-467" font-family="Helvetica,sans-Serif" font-size="10.00">&#45; ssid</text>
<text text-anchor="start" x="123" y="-456" font-family="Helvetica,sans-Serif" font-size="10.00">&#45; pass</text>
<text text-anchor="start" x="123" y="-445" font-family="Helvetica,sans-Serif" font-size="10.00">&#45; timeOut</text>
<polyline fill="none" stroke="black" points="115,-438 190,-438 "/>
<text text-anchor="start" x="123" y="-426" font-family="Helvetica,sans-Serif" font-size="10.00">+ begin()</text>
<text text-anchor="start" x="123" y="-415" font-family="Helvetica,sans-Serif" font-size="10.00">+ config()</text>
<text text-anchor="start" x="123" y="-404" font-family="Helvetica,sans-Serif" font-size="10.00">+ config()</text>
<text text-anchor="start" x="123" y="-393" font-family="Helvetica,sans-Serif" font-size="10.00">+ connect()</text>
<text text-anchor="start" x="123" y="-382" font-family="Helvetica,sans-Serif" font-size="10.00">+ state()</text>
<text text-anchor="start" x="123" y="-371" font-family="Helvetica,sans-Serif" font-size="10.00">+ printConf()</text>
<text text-anchor="start" x="123" y="-360" font-family="Helvetica,sans-Serif" font-size="10.00">+ addWifi()</text>
</a>
</g>
</g>
<!-- Node3&#45;&gt;Node1 -->
<g id="edge2" class="edge"><title>Node3&#45;&gt;Node1</title>
<path fill="none" stroke="#404040" d="M172.456,-352.799C179.124,-335.14 187.926,-317.564 199.5,-303 254.338,-233.997 344.528,-185.045 407.69,-156.992"/>
<polygon fill="none" stroke="#404040" points="407.762,-156.961 411.663,-150.897 418.762,-152.165 414.86,-158.23 407.762,-156.961"/>
<text text-anchor="middle" x="253" y="-277" font-family="Helvetica,sans-Serif" font-size="10.00"> &#45;wifiManager</text>
</g>
<!-- Node4 -->
<g id="node4" class="node"><title>Node4</title>
<g id="a_node4"><a xlink:href="classCoolBoardLed.html" target="_top" xlink:title="This class handles the led in the Sensor Board. ">
<polygon fill="white" stroke="black" points="208.5,-358.5 208.5,-525.5 286.5,-525.5 286.5,-358.5 208.5,-358.5"/>
<text text-anchor="middle" x="247.5" y="-513.5" font-family="Helvetica,sans-Serif" font-size="10.00">CoolBoardLed</text>
<polyline fill="none" stroke="black" points="208.5,-506.5 286.5,-506.5 "/>
<text text-anchor="start" x="216.5" y="-494.5" font-family="Helvetica,sans-Serif" font-size="10.00">&#45; neoPixelLed</text>
<text text-anchor="start" x="216.5" y="-483.5" font-family="Helvetica,sans-Serif" font-size="10.00">&#45; ledActive</text>
<polyline fill="none" stroke="black" points="208.5,-476.5 286.5,-476.5 "/>
<text text-anchor="start" x="216.5" y="-464.5" font-family="Helvetica,sans-Serif" font-size="10.00">+ begin()</text>
<text text-anchor="start" x="216.5" y="-453.5" font-family="Helvetica,sans-Serif" font-size="10.00">+ write()</text>
<text text-anchor="start" x="216.5" y="-442.5" font-family="Helvetica,sans-Serif" font-size="10.00">+ end()</text>
<text text-anchor="start" x="216.5" y="-431.5" font-family="Helvetica,sans-Serif" font-size="10.00">+ config()</text>
<text text-anchor="start" x="216.5" y="-420.5" font-family="Helvetica,sans-Serif" font-size="10.00">+ printConf()</text>
<text text-anchor="start" x="216.5" y="-409.5" font-family="Helvetica,sans-Serif" font-size="10.00">+ fade()</text>
<text text-anchor="start" x="216.5" y="-398.5" font-family="Helvetica,sans-Serif" font-size="10.00">+ blink()</text>
<text text-anchor="start" x="216.5" y="-387.5" font-family="Helvetica,sans-Serif" font-size="10.00">+ fadeIn()</text>
<text text-anchor="start" x="216.5" y="-376.5" font-family="Helvetica,sans-Serif" font-size="10.00">+ fadeOut()</text>
<text text-anchor="start" x="216.5" y="-365.5" font-family="Helvetica,sans-Serif" font-size="10.00">+ strobe()</text>
</a>
</g>
</g>
<!-- Node4&#45;&gt;Node1 -->
<g id="edge3" class="edge"><title>Node4&#45;&gt;Node1</title>
<path fill="none" stroke="#404040" d="M269.266,-358.171C276.12,-339.245 284.779,-319.78 295.5,-303 325.505,-256.037 370.908,-212.921 409.104,-181.357"/>
<polygon fill="none" stroke="#404040" points="409.341,-181.164 411.467,-174.273 418.645,-173.586 416.519,-180.476 409.341,-181.164"/>
<text text-anchor="middle" x="348.5" y="-277" font-family="Helvetica,sans-Serif" font-size="10.00"> &#45;coolBoardLed</text>
</g>
<!-- Node5 -->
<g id="node5" class="node"><title>Node5</title>
<g id="a_node5"><a xlink:href="classExternalSensors.html" target="_top" xlink:title="This class handles the external sensors run time defintion , configuartion and actions. ">
<polygon fill="white" stroke="black" points="304.5,-397 304.5,-487 396.5,-487 396.5,-397 304.5,-397"/>
<text text-anchor="middle" x="350.5" y="-475" font-family="Helvetica,sans-Serif" font-size="10.00">ExternalSensors</text>
<polyline fill="none" stroke="black" points="304.5,-468 396.5,-468 "/>
<text text-anchor="start" x="312.5" y="-456" font-family="Helvetica,sans-Serif" font-size="10.00">&#45; sensorsNumber</text>
<polyline fill="none" stroke="black" points="304.5,-449 396.5,-449 "/>
<text text-anchor="start" x="312.5" y="-437" font-family="Helvetica,sans-Serif" font-size="10.00">+ begin()</text>
<text text-anchor="start" x="312.5" y="-426" font-family="Helvetica,sans-Serif" font-size="10.00">+ read()</text>
<text text-anchor="start" x="312.5" y="-415" font-family="Helvetica,sans-Serif" font-size="10.00">+ config()</text>
<text text-anchor="start" x="312.5" y="-404" font-family="Helvetica,sans-Serif" font-size="10.00">+ printConf()</text>
</a>
</g>
</g>
<!-- Node5&#45;&gt;Node1 -->
<g id="edge4" class="edge"><title>Node5&#45;&gt;Node1</title>
<path fill="none" stroke="#404040" d="M360.261,-396.811C368.516,-362.593 381.681,-314.379 398.5,-274 402.99,-263.22 408.087,-252.221 413.486,-241.343"/>
<polygon fill="none" stroke="#404040" points="413.548,-241.221 412.694,-234.061 418.974,-230.518 419.829,-237.678 413.548,-241.221"/>
<text text-anchor="middle" x="437" y="-277" font-family="Helvetica,sans-Serif" font-size="10.00"> &#45;externalSensors</text>
</g>
<!-- Node6 -->
<g id="node6" class="node"><title>Node6</title>
<g id="a_node6"><a xlink:href="structExternalSensors_1_1sensor.html" target="_top" xlink:title="{ExternalSensors::sensor\n|+ reference\l+ type\l+ address\l|}">
<polygon fill="white" stroke="black" points="102.5,-678 102.5,-757 226.5,-757 226.5,-678 102.5,-678"/>
<text text-anchor="middle" x="164.5" y="-745" font-family="Helvetica,sans-Serif" font-size="10.00">ExternalSensors::sensor</text>
<polyline fill="none" stroke="black" points="102.5,-738 226.5,-738 "/>
<text text-anchor="start" x="110.5" y="-726" font-family="Helvetica,sans-Serif" font-size="10.00">+ reference</text>
<text text-anchor="start" x="110.5" y="-715" font-family="Helvetica,sans-Serif" font-size="10.00">+ type</text>
<text text-anchor="start" x="110.5" y="-704" font-family="Helvetica,sans-Serif" font-size="10.00">+ address</text>
<polyline fill="none" stroke="black" points="102.5,-697 226.5,-697 "/>
<text text-anchor="middle" x="164.5" y="-685" font-family="Helvetica,sans-Serif" font-size="10.00"> </text>
</a>
</g>
</g>
<!-- Node6&#45;&gt;Node5 -->
<g id="edge5" class="edge"><title>Node6&#45;&gt;Node5</title>
<path fill="none" stroke="#404040" d="M205.11,-677.921C238.348,-645.737 281.999,-601.884 295.5,-581 311.831,-555.737 324.698,-524.848 333.867,-498.704"/>
<polygon fill="none" stroke="#404040" points="333.962,-498.426 332.103,-491.458 337.819,-487.063 339.678,-494.03 333.962,-498.426"/>
<text text-anchor="middle" x="302" y="-613" font-family="Helvetica,sans-Serif" font-size="10.00"> &#45;sensors</text>
</g>
<!-- Node7 -->
<g id="node7" class="node"><title>Node7</title>
<g id="a_node7"><a xlink:href="classBaseExternalSensor.html" target="_top" xlink:title="This class is a generic external Sensor it is a way to access real external sensor methods through ru...">
<polygon fill="white" stroke="black" points="104,-832.5 104,-911.5 225,-911.5 225,-832.5 104,-832.5"/>
<text text-anchor="middle" x="164.5" y="-899.5" font-family="Helvetica,sans-Serif" font-size="10.00">BaseExternalSensor</text>
<polyline fill="none" stroke="black" points="104,-892.5 225,-892.5 "/>
<text text-anchor="middle" x="164.5" y="-880.5" font-family="Helvetica,sans-Serif" font-size="10.00"> </text>
<polyline fill="none" stroke="black" points="104,-873.5 225,-873.5 "/>
<text text-anchor="start" x="112" y="-861.5" font-family="Helvetica,sans-Serif" font-size="10.00">+ BaseExternalSensor()</text>
<text text-anchor="start" x="112" y="-850.5" font-family="Helvetica,sans-Serif" font-size="10.00">+ begin()</text>
<text text-anchor="start" x="112" y="-839.5" font-family="Helvetica,sans-Serif" font-size="10.00">+ read()</text>
</a>
</g>
</g>
<!-- Node7&#45;&gt;Node6 -->
<g id="edge6" class="edge"><title>Node7&#45;&gt;Node6</title>
<path fill="none" stroke="#404040" d="M164.5,-832.123C164.5,-812.96 164.5,-789.612 164.5,-769.077"/>
<polygon fill="none" stroke="#404040" points="164.5,-769.041 160.5,-763.041 164.5,-757.041 168.5,-763.041 164.5,-769.041"/>
<text text-anchor="middle" x="190" y="-806" font-family="Helvetica,sans-Serif" font-size="10.00"> +exSensor</text>
</g>
<!-- Node8 -->
<g id="node8" class="node"><title>Node8</title>
<g id="a_node8"><a xlink:href="classCoolBoardSensors.html" target="_top" xlink:title="This class handles the On&#45;Board Sensors. ">
<polygon fill="white" stroke="black" points="415,-320 415,-564 544,-564 544,-320 415,-320"/>
<text text-anchor="middle" x="479.5" y="-552" font-family="Helvetica,sans-Serif" font-size="10.00">CoolBoardSensors</text>
<polyline fill="none" stroke="black" points="415,-545 544,-545 "/>
<text text-anchor="start" x="423" y="-533" font-family="Helvetica,sans-Serif" font-size="10.00">+ lightSensor</text>
<text text-anchor="start" x="423" y="-522" font-family="Helvetica,sans-Serif" font-size="10.00">+ envSensor</text>
<text text-anchor="start" x="423" y="-511" font-family="Helvetica,sans-Serif" font-size="10.00">&#45; EnMoisture</text>
<text text-anchor="start" x="423" y="-500" font-family="Helvetica,sans-Serif" font-size="10.00">&#45; AnMplex</text>
<text text-anchor="start" x="423" y="-489" font-family="Helvetica,sans-Serif" font-size="10.00">&#45; EnI2C</text>
<text text-anchor="start" x="423" y="-478" font-family="Helvetica,sans-Serif" font-size="10.00">&#45; vbatActive</text>
<text text-anchor="start" x="423" y="-467" font-family="Helvetica,sans-Serif" font-size="10.00">&#45; soilMoistureActive</text>
<polyline fill="none" stroke="black" points="415,-460 544,-460 "/>
<text text-anchor="start" x="423" y="-448" font-family="Helvetica,sans-Serif" font-size="10.00">+ CoolBoardSensors()</text>
<text text-anchor="start" x="423" y="-437" font-family="Helvetica,sans-Serif" font-size="10.00">+ begin()</text>
<text text-anchor="start" x="423" y="-426" font-family="Helvetica,sans-Serif" font-size="10.00">+ read()</text>
<text text-anchor="start" x="423" y="-415" font-family="Helvetica,sans-Serif" font-size="10.00">+ allActive()</text>
<text text-anchor="start" x="423" y="-404" font-family="Helvetica,sans-Serif" font-size="10.00">+ initReadI2C()</text>
<text text-anchor="start" x="423" y="-393" font-family="Helvetica,sans-Serif" font-size="10.00">+ stopReadI2C()</text>
<text text-anchor="start" x="423" y="-382" font-family="Helvetica,sans-Serif" font-size="10.00">+ end()</text>
<text text-anchor="start" x="423" y="-371" font-family="Helvetica,sans-Serif" font-size="10.00">+ config()</text>
<text text-anchor="start" x="423" y="-360" font-family="Helvetica,sans-Serif" font-size="10.00">+ printConf()</text>
<text text-anchor="start" x="423" y="-349" font-family="Helvetica,sans-Serif" font-size="10.00">+ setEnvSensorSettings()</text>
<text text-anchor="start" x="423" y="-338" font-family="Helvetica,sans-Serif" font-size="10.00">+ readVBat()</text>
<text text-anchor="start" x="423" y="-327" font-family="Helvetica,sans-Serif" font-size="10.00">+ readMoisture()</text>
</a>
</g>
</g>
<!-- Node8&#45;&gt;Node1 -->
<g id="edge7" class="edge"><title>Node8&#45;&gt;Node1</title>
<path fill="none" stroke="#404040" d="M479.5,-319.926C479.5,-302.808 479.5,-285.098 479.5,-267.68"/>
<polygon fill="none" stroke="#404040" points="479.5,-267.678 475.5,-261.678 479.5,-255.678 483.5,-261.678 479.5,-267.678"/>
<text text-anchor="middle" x="522.5" y="-277" font-family="Helvetica,sans-Serif" font-size="10.00"> &#45;coolBoardSensors</text>
</g>
<!-- Node9 -->
<g id="node9" class="node"><title>Node9</title>
<g id="a_node9"><a xlink:href="structCoolBoardSensors_1_1airActive.html" target="_top" xlink:title="{CoolBoardSensors::airActive\n|+ temperature\l+ humidity\l+ pressure\l|}">
<polygon fill="white" stroke="black" points="245,-678 245,-757 388,-757 388,-678 245,-678"/>
<text text-anchor="middle" x="316.5" y="-745" font-family="Helvetica,sans-Serif" font-size="10.00">CoolBoardSensors::airActive</text>
<polyline fill="none" stroke="black" points="245,-738 388,-738 "/>
<text text-anchor="start" x="253" y="-726" font-family="Helvetica,sans-Serif" font-size="10.00">+ temperature</text>
<text text-anchor="start" x="253" y="-715" font-family="Helvetica,sans-Serif" font-size="10.00">+ humidity</text>
<text text-anchor="start" x="253" y="-704" font-family="Helvetica,sans-Serif" font-size="10.00">+ pressure</text>
<polyline fill="none" stroke="black" points="245,-697 388,-697 "/>
<text text-anchor="middle" x="316.5" y="-685" font-family="Helvetica,sans-Serif" font-size="10.00"> </text>
</a>
</g>
</g>
<!-- Node9&#45;&gt;Node8 -->
<g id="edge8" class="edge"><title>Node9&#45;&gt;Node8</title>
<path fill="none" stroke="#404040" d="M343.138,-677.949C361.331,-651.146 385.641,-614.379 405.5,-581 406.725,-578.941 407.953,-576.86 409.183,-574.762"/>
<polygon fill="none" stroke="#404040" points="409.322,-574.522 408.87,-567.325 415.339,-564.139 415.792,-571.336 409.322,-574.522"/>
<text text-anchor="middle" x="427.5" y="-613" font-family="Helvetica,sans-Serif" font-size="10.00"> &#45;airDataActive</text>
</g>
<!-- Node10 -->
<g id="node10" class="node"><title>Node10</title>
<g id="a_node10"><a xlink:href="structCoolBoardSensors_1_1lightActive.html" target="_top" xlink:title="{CoolBoardSensors::lightActive\n|+ visible\l+ ir\l+ uv\l|}">
<polygon fill="white" stroke="black" points="406.5,-678 406.5,-757 556.5,-757 556.5,-678 406.5,-678"/>
<text text-anchor="middle" x="481.5" y="-745" font-family="Helvetica,sans-Serif" font-size="10.00">CoolBoardSensors::lightActive</text>
<polyline fill="none" stroke="black" points="406.5,-738 556.5,-738 "/>
<text text-anchor="start" x="414.5" y="-726" font-family="Helvetica,sans-Serif" font-size="10.00">+ visible</text>
<text text-anchor="start" x="414.5" y="-715" font-family="Helvetica,sans-Serif" font-size="10.00">+ ir</text>
<text text-anchor="start" x="414.5" y="-704" font-family="Helvetica,sans-Serif" font-size="10.00">+ uv</text>
<polyline fill="none" stroke="black" points="406.5,-697 556.5,-697 "/>
<text text-anchor="middle" x="481.5" y="-685" font-family="Helvetica,sans-Serif" font-size="10.00"> </text>
</a>
</g>
</g>
<!-- Node10&#45;&gt;Node8 -->
<g id="edge9" class="edge"><title>Node10&#45;&gt;Node8</title>
<path fill="none" stroke="#404040" d="M481.218,-677.894C481.021,-650.989 480.746,-613.37 480.473,-576.111"/>
<polygon fill="none" stroke="#404040" points="480.473,-576.041 476.429,-570.07 480.385,-564.041 484.429,-570.012 480.473,-576.041"/>
<text text-anchor="middle" x="518" y="-613" font-family="Helvetica,sans-Serif" font-size="10.00"> &#45;lightDataActive</text>
</g>
<!-- Node11 -->
<g id="node11" class="node"><title>Node11</title>
<g id="a_node11"><a xlink:href="classIrene3000.html" target="_top" xlink:title="This class is provided to manage the Irene3000 Ph/Temperature Shield. ">
<polygon fill="white" stroke="black" points="562,-331 562,-553 675,-553 675,-331 562,-331"/>
<text text-anchor="middle" x="618.5" y="-541" font-family="Helvetica,sans-Serif" font-size="10.00">Irene3000</text>
<polyline fill="none" stroke="black" points="562,-534 675,-534 "/>
<text text-anchor="start" x="570" y="-522" font-family="Helvetica,sans-Serif" font-size="10.00">&#45; ads</text>
<text text-anchor="start" x="570" y="-511" font-family="Helvetica,sans-Serif" font-size="10.00">&#45; vRef</text>
<text text-anchor="start" x="570" y="-500" font-family="Helvetica,sans-Serif" font-size="10.00">&#45; opampGain</text>
<polyline fill="none" stroke="black" points="562,-493 675,-493 "/>
<text text-anchor="start" x="570" y="-481" font-family="Helvetica,sans-Serif" font-size="10.00">+ begin()</text>
<text text-anchor="start" x="570" y="-470" font-family="Helvetica,sans-Serif" font-size="10.00">+ config()</text>
<text text-anchor="start" x="570" y="-459" font-family="Helvetica,sans-Serif" font-size="10.00">+ printConf()</text>
<text text-anchor="start" x="570" y="-448" font-family="Helvetica,sans-Serif" font-size="10.00">+ read()</text>
<text text-anchor="start" x="570" y="-437" font-family="Helvetica,sans-Serif" font-size="10.00">+ readButton()</text>
<text text-anchor="start" x="570" y="-426" font-family="Helvetica,sans-Serif" font-size="10.00">+ setGain()</text>
<text text-anchor="start" x="570" y="-415" font-family="Helvetica,sans-Serif" font-size="10.00">+ readADSChannel2()</text>
<text text-anchor="start" x="570" y="-404" font-family="Helvetica,sans-Serif" font-size="10.00">+ readPh()</text>
<text text-anchor="start" x="570" y="-393" font-family="Helvetica,sans-Serif" font-size="10.00">+ readTemp()</text>
<text text-anchor="start" x="570" y="-382" font-family="Helvetica,sans-Serif" font-size="10.00">+ resetParams()</text>
<text text-anchor="start" x="570" y="-371" font-family="Helvetica,sans-Serif" font-size="10.00">+ calibratepH7()</text>
<text text-anchor="start" x="570" y="-360" font-family="Helvetica,sans-Serif" font-size="10.00">+ calibratepH4()</text>
<text text-anchor="start" x="570" y="-349" font-family="Helvetica,sans-Serif" font-size="10.00">+ calcpHSlope()</text>
<text text-anchor="start" x="570" y="-338" font-family="Helvetica,sans-Serif" font-size="10.00">+ gainConvert()</text>
</a>
</g>
</g>
<!-- Node11&#45;&gt;Node1 -->
<g id="edge10" class="edge"><title>Node11&#45;&gt;Node1</title>
<path fill="none" stroke="#404040" d="M590.76,-330.773C584.621,-311.52 577.516,-291.929 569.5,-274 562.785,-258.982 554.75,-243.658 546.282,-228.866"/>
<polygon fill="none" stroke="#404040" points="546.105,-228.563 539.625,-225.4 540.052,-218.202 546.533,-221.365 546.105,-228.563"/>
<text text-anchor="middle" x="598" y="-277" font-family="Helvetica,sans-Serif" font-size="10.00"> &#45;irene3000</text>
</g>
<!-- Node12 -->
<g id="node12" class="node"><title>Node12</title>
<g id="a_node12"><a xlink:href="structIrene3000_1_1state.html" target="_top" xlink:title="{Irene3000::state\n|+ active\l+ gain\l+ type\l|}">
<polygon fill="white" stroke="black" points="575,-678 575,-757 662,-757 662,-678 575,-678"/>
<text text-anchor="middle" x="618.5" y="-745" font-family="Helvetica,sans-Serif" font-size="10.00">Irene3000::state</text>
<polyline fill="none" stroke="black" points="575,-738 662,-738 "/>
<text text-anchor="start" x="583" y="-726" font-family="Helvetica,sans-Serif" font-size="10.00">+ active</text>
<text text-anchor="start" x="583" y="-715" font-family="Helvetica,sans-Serif" font-size="10.00">+ gain</text>
<text text-anchor="start" x="583" y="-704" font-family="Helvetica,sans-Serif" font-size="10.00">+ type</text>
<polyline fill="none" stroke="black" points="575,-697 662,-697 "/>
<text text-anchor="middle" x="618.5" y="-685" font-family="Helvetica,sans-Serif" font-size="10.00"> </text>
</a>
</g>
</g>
<!-- Node12&#45;&gt;Node11 -->
<g id="edge11" class="edge"><title>Node12&#45;&gt;Node11</title>
<path fill="none" stroke="#404040" d="M618.5,-677.894C618.5,-648.407 618.5,-606.051 618.5,-565.405"/>
<polygon fill="none" stroke="#404040" points="618.5,-565.148 614.5,-559.148 618.5,-553.148 622.5,-559.148 618.5,-565.148"/>
<text text-anchor="middle" x="646" y="-624" font-family="Helvetica,sans-Serif" font-size="10.00"> &#45;waterTemp</text>
<text text-anchor="middle" x="646" y="-613" font-family="Helvetica,sans-Serif" font-size="10.00">&#45;phProbe</text>
<text text-anchor="middle" x="646" y="-602" font-family="Helvetica,sans-Serif" font-size="10.00">&#45;adc2</text>
</g>
<!-- Node13 -->
<g id="node13" class="node"><title>Node13</title>
<g id="a_node13"><a xlink:href="structIrene3000_1_1parameters__T.html" target="_top" xlink:title="{Irene3000::parameters_T\n|+ WriteCheck\l+ pH7Cal\l+ pH4Cal\l+ pHStep\l|}">
<polygon fill="white" stroke="black" points="680,-672.5 680,-762.5 805,-762.5 805,-672.5 680,-672.5"/>
<text text-anchor="middle" x="742.5" y="-750.5" font-family="Helvetica,sans-Serif" font-size="10.00">Irene3000::parameters_T</text>
<polyline fill="none" stroke="black" points="680,-743.5 805,-743.5 "/>
<text text-anchor="start" x="688" y="-731.5" font-family="Helvetica,sans-Serif" font-size="10.00">+ WriteCheck</text>
<text text-anchor="start" x="688" y="-720.5" font-family="Helvetica,sans-Serif" font-size="10.00">+ pH7Cal</text>
<text text-anchor="start" x="688" y="-709.5" font-family="Helvetica,sans-Serif" font-size="10.00">+ pH4Cal</text>
<text text-anchor="start" x="688" y="-698.5" font-family="Helvetica,sans-Serif" font-size="10.00">+ pHStep</text>
<polyline fill="none" stroke="black" points="680,-691.5 805,-691.5 "/>
<text text-anchor="middle" x="742.5" y="-679.5" font-family="Helvetica,sans-Serif" font-size="10.00"> </text>
</a>
</g>
</g>
<!-- Node13&#45;&gt;Node11 -->
<g id="edge12" class="edge"><title>Node13&#45;&gt;Node11</title>
<path fill="none" stroke="#404040" d="M722.439,-672.254C709.151,-642.944 691.024,-602.963 673.628,-564.593"/>
<polygon fill="none" stroke="#404040" points="673.458,-564.218 667.338,-560.405 668.503,-553.289 674.624,-557.102 673.458,-564.218"/>
<text text-anchor="middle" x="722" y="-613" font-family="Helvetica,sans-Serif" font-size="10.00"> &#45;params</text>
</g>
<!-- Node14 -->
<g id="node14" class="node"><title>Node14</title>
<g id="a_node14"><a xlink:href="classCoolFileSystem.html" target="_top" xlink:title="This class handles the file system. ">
<polygon fill="white" stroke="black" points="693,-380.5 693,-503.5 818,-503.5 818,-380.5 693,-380.5"/>
<text text-anchor="middle" x="755.5" y="-491.5" font-family="Helvetica,sans-Serif" font-size="10.00">CoolFileSystem</text>
<polyline fill="none" stroke="black" points="693,-484.5 818,-484.5 "/>
<text text-anchor="start" x="701" y="-472.5" font-family="Helvetica,sans-Serif" font-size="10.00">&#45; savedData</text>
<polyline fill="none" stroke="black" points="693,-465.5 818,-465.5 "/>
<text text-anchor="start" x="701" y="-453.5" font-family="Helvetica,sans-Serif" font-size="10.00">+ begin()</text>
<text text-anchor="start" x="701" y="-442.5" font-family="Helvetica,sans-Serif" font-size="10.00">+ updateConfigFiles()</text>
<text text-anchor="start" x="701" y="-431.5" font-family="Helvetica,sans-Serif" font-size="10.00">+ fileUpdate()</text>
<text text-anchor="start" x="701" y="-420.5" font-family="Helvetica,sans-Serif" font-size="10.00">+ saveSensorData()</text>
<text text-anchor="start" x="701" y="-409.5" font-family="Helvetica,sans-Serif" font-size="10.00">+ saveSensorDataCSV()</text>
<text text-anchor="start" x="701" y="-398.5" font-family="Helvetica,sans-Serif" font-size="10.00">+ isDataSaved()</text>
<text text-anchor="start" x="701" y="-387.5" font-family="Helvetica,sans-Serif" font-size="10.00">+ getSensorSavedData()</text>
</a>
</g>
</g>
<!-- Node14&#45;&gt;Node1 -->
<g id="edge13" class="edge"><title>Node14&#45;&gt;Node1</title>
<path fill="none" stroke="#404040" d="M730.03,-380.227C717.921,-354.997 702.023,-326.249 683.5,-303 645.287,-255.038 592.381,-210.36 550.023,-178.288"/>
<polygon fill="none" stroke="#404040" points="549.933,-178.221 542.733,-177.826 540.328,-171.028 547.529,-171.423 549.933,-178.221"/>
<text text-anchor="middle" x="692" y="-277" font-family="Helvetica,sans-Serif" font-size="10.00"> &#45;fileSystem</text>
</g>
<!-- Node15 -->
<g id="node15" class="node"><title>Node15</title>
<g id="a_node15"><a xlink:href="classJetpack.html" target="_top" xlink:title="This class manages the Jetpack shield. ">
<polygon fill="white" stroke="black" points="836,-369.5 836,-514.5 907,-514.5 907,-369.5 836,-369.5"/>
<text text-anchor="middle" x="871.5" y="-502.5" font-family="Helvetica,sans-Serif" font-size="10.00">Jetpack</text>
<polyline fill="none" stroke="black" points="836,-495.5 907,-495.5 "/>
<text text-anchor="start" x="844" y="-483.5" font-family="Helvetica,sans-Serif" font-size="10.00">&#45; action</text>
<text text-anchor="start" x="844" y="-472.5" font-family="Helvetica,sans-Serif" font-size="10.00">&#45; clockPin</text>
<text text-anchor="start" x="844" y="-461.5" font-family="Helvetica,sans-Serif" font-size="10.00">&#45; dataPin</text>
<text text-anchor="start" x="844" y="-450.5" font-family="Helvetica,sans-Serif" font-size="10.00">&#45; EnI2C</text>
<polyline fill="none" stroke="black" points="836,-443.5 907,-443.5 "/>
<text text-anchor="start" x="844" y="-431.5" font-family="Helvetica,sans-Serif" font-size="10.00">+ begin()</text>
<text text-anchor="start" x="844" y="-420.5" font-family="Helvetica,sans-Serif" font-size="10.00">+ write()</text>
<text text-anchor="start" x="844" y="-409.5" font-family="Helvetica,sans-Serif" font-size="10.00">+ writeBit()</text>
<text text-anchor="start" x="844" y="-398.5" font-family="Helvetica,sans-Serif" font-size="10.00">+ doAction()</text>
<text text-anchor="start" x="844" y="-387.5" font-family="Helvetica,sans-Serif" font-size="10.00">+ config()</text>
<text text-anchor="start" x="844" y="-376.5" font-family="Helvetica,sans-Serif" font-size="10.00">+ printConf()</text>
</a>
</g>
</g>
<!-- Node15&#45;&gt;Node1 -->
<g id="edge14" class="edge"><title>Node15&#45;&gt;Node1</title>
<path fill="none" stroke="#404040" d="M859.541,-369.221C852.873,-346.078 842.527,-321.623 826.5,-303 753.849,-218.58 630.385,-170.641 551.992,-147.265"/>
<polygon fill="none" stroke="#404040" points="551.81,-147.212 544.931,-149.375 540.289,-143.857 547.168,-141.694 551.81,-147.212"/>
<text text-anchor="middle" x="825.5" y="-277" font-family="Helvetica,sans-Serif" font-size="10.00"> &#45;jetPack</text>
</g>
<!-- Node16 -->
<g id="node16" class="node"><title>Node16</title>
<g id="a_node16"><a xlink:href="structJetpack_1_1state.html" target="_top" xlink:title="{Jetpack::state\n|+ type\l+ actif\l+ low\l+ high\l+ temporal\l+ actifTime\l+ inactifTime\l+ inverted\l|}">
<polygon fill="white" stroke="black" points="832,-650.5 832,-784.5 911,-784.5 911,-650.5 832,-650.5"/>
<text text-anchor="middle" x="871.5" y="-772.5" font-family="Helvetica,sans-Serif" font-size="10.00">Jetpack::state</text>
<polyline fill="none" stroke="black" points="832,-765.5 911,-765.5 "/>
<text text-anchor="start" x="840" y="-753.5" font-family="Helvetica,sans-Serif" font-size="10.00">+ type</text>
<text text-anchor="start" x="840" y="-742.5" font-family="Helvetica,sans-Serif" font-size="10.00">+ actif</text>
<text text-anchor="start" x="840" y="-731.5" font-family="Helvetica,sans-Serif" font-size="10.00">+ low</text>
<text text-anchor="start" x="840" y="-720.5" font-family="Helvetica,sans-Serif" font-size="10.00">+ high</text>
<text text-anchor="start" x="840" y="-709.5" font-family="Helvetica,sans-Serif" font-size="10.00">+ temporal</text>
<text text-anchor="start" x="840" y="-698.5" font-family="Helvetica,sans-Serif" font-size="10.00">+ actifTime</text>
<text text-anchor="start" x="840" y="-687.5" font-family="Helvetica,sans-Serif" font-size="10.00">+ inactifTime</text>
<text text-anchor="start" x="840" y="-676.5" font-family="Helvetica,sans-Serif" font-size="10.00">+ inverted</text>
<polyline fill="none" stroke="black" points="832,-669.5 911,-669.5 "/>
<text text-anchor="middle" x="871.5" y="-657.5" font-family="Helvetica,sans-Serif" font-size="10.00"> </text>
</a>
</g>
</g>
<!-- Node16&#45;&gt;Node15 -->
<g id="edge15" class="edge"><title>Node16&#45;&gt;Node15</title>
<path fill="none" stroke="#404040" d="M871.5,-650.293C871.5,-613.186 871.5,-566.536 871.5,-526.891"/>
<polygon fill="none" stroke="#404040" points="871.5,-526.831 867.5,-520.831 871.5,-514.831 875.5,-520.831 871.5,-526.831"/>
<text text-anchor="middle" x="888.5" y="-613" font-family="Helvetica,sans-Serif" font-size="10.00"> &#45;actors</text>
</g>
<!-- Node17 -->
<g id="node17" class="node"><title>Node17</title>
<g id="a_node17"><a xlink:href="classCoolTime.html" target="_top" xlink:title="This class manages the DS1337 RTC . ">
<polygon fill="white" stroke="black" points="925.5,-309 925.5,-575 1033.5,-575 1033.5,-309 925.5,-309"/>
<text text-anchor="middle" x="979.5" y="-563" font-family="Helvetica,sans-Serif" font-size="10.00">CoolTime</text>
<polyline fill="none" stroke="black" points="925.5,-556 1033.5,-556 "/>
<text text-anchor="start" x="933.5" y="-544" font-family="Helvetica,sans-Serif" font-size="10.00">&#45; timeSync</text>
<text text-anchor="start" x="933.5" y="-533" font-family="Helvetica,sans-Serif" font-size="10.00">&#45; timeServer</text>
<text text-anchor="start" x="933.5" y="-522" font-family="Helvetica,sans-Serif" font-size="10.00">&#45; Udp</text>
<text text-anchor="start" x="933.5" y="-511" font-family="Helvetica,sans-Serif" font-size="10.00">&#45; localPort</text>
<text text-anchor="start" x="933.5" y="-500" font-family="Helvetica,sans-Serif" font-size="10.00">&#45; packetBuffer</text>
<text text-anchor="start" x="933.5" y="-489" font-family="Helvetica,sans-Serif" font-size="10.00">&#45; tmSet</text>
<text text-anchor="start" x="933.5" y="-478" font-family="Helvetica,sans-Serif" font-size="10.00">&#45; rtc</text>
<polyline fill="none" stroke="black" points="925.5,-471 1033.5,-471 "/>
<text text-anchor="start" x="933.5" y="-459" font-family="Helvetica,sans-Serif" font-size="10.00">+ begin()</text>
<text text-anchor="start" x="933.5" y="-448" font-family="Helvetica,sans-Serif" font-size="10.00">+ update()</text>
<text text-anchor="start" x="933.5" y="-437" font-family="Helvetica,sans-Serif" font-size="10.00">+ config()</text>
<text text-anchor="start" x="933.5" y="-426" font-family="Helvetica,sans-Serif" font-size="10.00">+ config()</text>
<text text-anchor="start" x="933.5" y="-415" font-family="Helvetica,sans-Serif" font-size="10.00">+ printConf()</text>
<text text-anchor="start" x="933.5" y="-404" font-family="Helvetica,sans-Serif" font-size="10.00">+ setDateTime()</text>
<text text-anchor="start" x="933.5" y="-393" font-family="Helvetica,sans-Serif" font-size="10.00">+ getTimeDate()</text>
<text text-anchor="start" x="933.5" y="-382" font-family="Helvetica,sans-Serif" font-size="10.00">+ getESDate()</text>
<text text-anchor="start" x="933.5" y="-371" font-family="Helvetica,sans-Serif" font-size="10.00">+ getLastSyncTime()</text>
<text text-anchor="start" x="933.5" y="-360" font-family="Helvetica,sans-Serif" font-size="10.00">+ isTimeSync()</text>
<text text-anchor="start" x="933.5" y="-349" font-family="Helvetica,sans-Serif" font-size="10.00">+ getNtpTime()</text>
<text text-anchor="start" x="933.5" y="-338" font-family="Helvetica,sans-Serif" font-size="10.00">+ sendNTPpacket()</text>
<text text-anchor="start" x="933.5" y="-327" font-family="Helvetica,sans-Serif" font-size="10.00">+ formatDigits()</text>
<text text-anchor="start" x="933.5" y="-316" font-family="Helvetica,sans-Serif" font-size="10.00">+ saveTimeSync()</text>
</a>
</g>
</g>
<!-- Node17&#45;&gt;Node1 -->
<g id="edge16" class="edge"><title>Node17&#45;&gt;Node1</title>
<path fill="none" stroke="#404040" d="M925.465,-313.888C922.309,-310.066 918.99,-306.42 915.5,-303 813.589,-203.132 647.15,-158.481 552.108,-140.231"/>
<polygon fill="none" stroke="#404040" points="551.83,-140.179 545.198,-143.012 540.033,-137.98 546.664,-135.147 551.83,-140.179"/>
<text text-anchor="middle" x="896.5" y="-277" font-family="Helvetica,sans-Serif" font-size="10.00"> &#45;rtc</text>
</g>
</g>
</svg>
