<?xml version="1.0" encoding="UTF-8" standalone="no"?>
<!DOCTYPE svg PUBLIC "-//W3C//DTD SVG 1.1//EN"
 "http://www.w3.org/Graphics/SVG/1.1/DTD/svg11.dtd">
<!-- Generated by graphviz version 2.38.0 (20140413.2041)
 -->
<!-- Title: CoolBoard::offLineMode Pages: 1 -->
<!--zoomable 256 -->
<svg id="main" version="1.1" xmlns="http://www.w3.org/2000/svg" xmlns:xlink="http://www.w3.org/1999/xlink" xml:space="preserve" onload="init(evt)">
<style type="text/css"><![CDATA[
.edge:hover path { stroke: red; }
.edge:hover polygon { stroke: red; fill: red; }
]]></style>
<script type="text/javascript"><![CDATA[
var edges = document.getElementsByTagName('g');
if (edges && edges.length) {
  for (var i=0;i<edges.length;i++) {
    if (edges[i].id.substr(0,4)=='edge') {
      edges[i].setAttribute('class','edge');
    }
  }
}
]]></script>
        <defs>
                <circle id="rim" cx="0" cy="0" r="7"/>
                <circle id="rim2" cx="0" cy="0" r="3.5"/>
                <g id="zoomPlus">
                        <use xlink:href="#rim" fill="#404040">
                                <set attributeName="fill" to="#808080" begin="zoomplus.mouseover" end="zoomplus.mouseout"/>
                        </use>
                        <path d="M-4,0h8M0,-4v8" fill="none" stroke="white" stroke-width="1.5" pointer-events="none"/>
                </g>
                <g id="zoomMin">
                        <use xlink:href="#rim" fill="#404040">
                                <set attributeName="fill" to="#808080" begin="zoomminus.mouseover" end="zoomminus.mouseout"/>
                        </use>
                        <path d="M-4,0h8" fill="none" stroke="white" stroke-width="1.5" pointer-events="none"/>
                </g>
                <g id="dirArrow">
                        <path fill="none" stroke="white" stroke-width="1.5" d="M0,-3.0v7 M-2.5,-0.5L0,-3.0L2.5,-0.5"/>
                </g>
               <g id="resetDef">
                       <use xlink:href="#rim2" fill="#404040">
                               <set attributeName="fill" to="#808080" begin="reset.mouseover" end="reset.mouseout"/>
                       </use>
               </g>
        </defs>

<script type="text/javascript">
var viewWidth = 663;
var viewHeight = 256;
var sectionId = 'dynsection-6';
</script>
<script xlink:href="svgpan.js"/>
<svg id="graph" class="graph">
<g id="viewport">
<title>CoolBoard::offLineMode</title>
<polygon fill="white" stroke="none" points="-4,4 -4,-252 659,-252 659,4 -4,4"/>
<!-- Node45 -->
<g id="node1" class="node"><title>Node45</title>
<polygon fill="#bfbfbf" stroke="black" points="0,-133.5 0,-152.5 122,-152.5 122,-133.5 0,-133.5"/>
<text text-anchor="middle" x="61" y="-140.5" font-family="Helvetica,sans-Serif" font-size="10.00">CoolBoard::offLineMode</text>
</g>
<!-- Node46 -->
<g id="node2" class="node"><title>Node46</title>
<g id="a_node2"><a xlink:href="classJetpack.html#a86d2e83436ef4b85f4c3a6e85ac785b0" target="_top" xlink:title="Jetpack::doAction">
<polygon fill="white" stroke="black" points="193,-218.5 193,-237.5 288,-237.5 288,-218.5 193,-218.5"/>
<text text-anchor="middle" x="240.5" y="-225.5" font-family="Helvetica,sans-Serif" font-size="10.00">Jetpack::doAction</text>
</a>
</g>
</g>
<!-- Node45&#45;&gt;Node46 -->
<g id="edge1" class="edge"><title>Node45&#45;&gt;Node46</title>
<path fill="none" stroke="midnightblue" d="M76.1332,-152.649C94.4249,-164.838 127.567,-185.919 158,-200 170.443,-205.757 184.421,-210.981 197.241,-215.315"/>
<polygon fill="midnightblue" stroke="midnightblue" points="196.181,-218.651 206.774,-218.45 198.368,-212.001 196.181,-218.651"/>
</g>
<!-- Node48 -->
<g id="node4" class="node"><title>Node48</title>
<g id="a_node4"><a xlink:href="classExternalSensors.html#a53177b81eca3be89508b5511ddcd00fc" target="_top" xlink:title="ExternalSensors::read">
<polygon fill="white" stroke="black" points="184,-171.5 184,-190.5 297,-190.5 297,-171.5 184,-171.5"/>
<text text-anchor="middle" x="240.5" y="-178.5" font-family="Helvetica,sans-Serif" font-size="10.00">ExternalSensors::read</text>
</a>
</g>
</g>
<!-- Node45&#45;&gt;Node48 -->
<g id="edge3" class="edge"><title>Node45&#45;&gt;Node48</title>
<path fill="none" stroke="midnightblue" d="M106.791,-152.589C130.53,-157.671 159.884,-163.955 184.944,-169.32"/>
<polygon fill="midnightblue" stroke="midnightblue" points="184.52,-172.809 195.031,-171.48 185.986,-165.964 184.52,-172.809"/>
</g>
<!-- Node49 -->
<g id="node5" class="node"><title>Node49</title>
<g id="a_node5"><a xlink:href="classCoolBoardSensors.html#a91badb2539d91fda8679f2a597874c48" target="_top" xlink:title="CoolBoardSensors::read">
<polygon fill="white" stroke="black" points="179,-133.5 179,-152.5 302,-152.5 302,-133.5 179,-133.5"/>
<text text-anchor="middle" x="240.5" y="-140.5" font-family="Helvetica,sans-Serif" font-size="10.00">CoolBoardSensors::read</text>
</a>
</g>
</g>
<!-- Node45&#45;&gt;Node49 -->
<g id="edge4" class="edge"><title>Node45&#45;&gt;Node49</title>
<path fill="none" stroke="midnightblue" d="M122.093,-143C137.109,-143 153.35,-143 168.826,-143"/>
<polygon fill="midnightblue" stroke="midnightblue" points="168.865,-146.5 178.865,-143 168.864,-139.5 168.865,-146.5"/>
</g>
<!-- Node53 -->
<g id="node9" class="node"><title>Node53</title>
<g id="a_node9"><a xlink:href="classIrene3000.html#a852a170feea994ea1df01c6b245b5d9a" target="_top" xlink:title="Irene3000::read">
<polygon fill="white" stroke="black" points="198.5,-76.5 198.5,-95.5 282.5,-95.5 282.5,-76.5 198.5,-76.5"/>
<text text-anchor="middle" x="240.5" y="-83.5" font-family="Helvetica,sans-Serif" font-size="10.00">Irene3000::read</text>
</a>
</g>
</g>
<!-- Node45&#45;&gt;Node53 -->
<g id="edge8" class="edge"><title>Node45&#45;&gt;Node53</title>
<path fill="none" stroke="midnightblue" d="M91.7095,-133.459C121.403,-123.924 167.234,-109.206 199.983,-98.6901"/>
<polygon fill="midnightblue" stroke="midnightblue" points="201.243,-101.962 209.694,-95.5716 199.102,-95.2968 201.243,-101.962"/>
</g>
<!-- Node58 -->
<g id="node14" class="node"><title>Node58</title>
<g id="a_node14"><a xlink:href="classCoolFileSystem.html#a4c560c2ddd40b74b7758e6ceb2c58957" target="_top" xlink:title="CoolFileSystem::saveSensorData">
<polygon fill="white" stroke="black" points="158,-38.5 158,-57.5 323,-57.5 323,-38.5 158,-38.5"/>
<text text-anchor="middle" x="240.5" y="-45.5" font-family="Helvetica,sans-Serif" font-size="10.00">CoolFileSystem::saveSensorData</text>
</a>
</g>
</g>
<!-- Node45&#45;&gt;Node58 -->
<g id="edge15" class="edge"><title>Node45&#45;&gt;Node58</title>
<path fill="none" stroke="midnightblue" d="M71.1025,-133.436C87.1033,-117.209 122.003,-84.359 158,-67 162.989,-64.594 168.3,-62.4832 173.726,-60.6331"/>
<polygon fill="midnightblue" stroke="midnightblue" points="175.059,-63.8841 183.572,-57.577 172.984,-57.1987 175.059,-63.8841"/>
</g>
<!-- Node47 -->
<g id="node3" class="node"><title>Node47</title>
<g id="a_node3"><a xlink:href="classJetpack.html#a338f1af8cbc6504ac69b47c7328569b5" target="_top" xlink:title="Jetpack::write">
<polygon fill="white" stroke="black" points="400.5,-228.5 400.5,-247.5 478.5,-247.5 478.5,-228.5 400.5,-228.5"/>
<text text-anchor="middle" x="439.5" y="-235.5" font-family="Helvetica,sans-Serif" font-size="10.00">Jetpack::write</text>
</a>
</g>
</g>
<!-- Node46&#45;&gt;Node47 -->
<g id="edge2" class="edge"><title>Node46&#45;&gt;Node47</title>
<path fill="none" stroke="midnightblue" d="M288.186,-230.37C318.956,-231.932 359.156,-233.972 390.24,-235.55"/>
<polygon fill="midnightblue" stroke="midnightblue" points="390.241,-239.055 400.405,-236.066 390.595,-232.064 390.241,-239.055"/>
</g>
<!-- Node50 -->
<g id="node6" class="node"><title>Node50</title>
<g id="a_node6"><a xlink:href="classCoolBoardSensors.html#acad6a8418c66d36868caca23c844ecb6" target="_top" xlink:title="CoolBoardSensors::initReadI2C">
<polygon fill="white" stroke="black" points="361.5,-190.5 361.5,-209.5 517.5,-209.5 517.5,-190.5 361.5,-190.5"/>
<text text-anchor="middle" x="439.5" y="-197.5" font-family="Helvetica,sans-Serif" font-size="10.00">CoolBoardSensors::initReadI2C</text>
</a>
</g>
</g>
<!-- Node49&#45;&gt;Node50 -->
<g id="edge5" class="edge"><title>Node49&#45;&gt;Node50</title>
<path fill="none" stroke="midnightblue" d="M291.666,-152.559C302.167,-155.151 313.064,-158.29 323,-162 339.949,-168.328 342.069,-174.625 359,-181 365.756,-183.544 372.967,-185.827 380.185,-187.853"/>
<polygon fill="midnightblue" stroke="midnightblue" points="379.426,-191.273 389.99,-190.456 381.222,-184.507 379.426,-191.273"/>
</g>
<!-- Node51 -->
<g id="node7" class="node"><title>Node51</title>
<g id="a_node7"><a xlink:href="classCoolBoardSensors.html#a6944b6ea7bce8e2fce1b434acfd9d5f3" target="_top" xlink:title="CoolBoardSensors::readVBat">
<polygon fill="white" stroke="black" points="367,-152.5 367,-171.5 512,-171.5 512,-152.5 367,-152.5"/>
<text text-anchor="middle" x="439.5" y="-159.5" font-family="Helvetica,sans-Serif" font-size="10.00">CoolBoardSensors::readVBat</text>
</a>
</g>
</g>
<!-- Node49&#45;&gt;Node51 -->
<g id="edge6" class="edge"><title>Node49&#45;&gt;Node51</title>
<path fill="none" stroke="midnightblue" d="M302.214,-148.856C319.479,-150.521 338.57,-152.362 356.862,-154.126"/>
<polygon fill="midnightblue" stroke="midnightblue" points="356.635,-157.621 366.925,-155.097 357.307,-150.653 356.635,-157.621"/>
</g>
<!-- Node52 -->
<g id="node8" class="node"><title>Node52</title>
<g id="a_node8"><a xlink:href="classCoolBoardSensors.html#a8761bff50373c485f4465c8db47d0633" target="_top" xlink:title="CoolBoardSensors::readMoisture">
<polygon fill="white" stroke="black" points="359,-114.5 359,-133.5 520,-133.5 520,-114.5 359,-114.5"/>
<text text-anchor="middle" x="439.5" y="-121.5" font-family="Helvetica,sans-Serif" font-size="10.00">CoolBoardSensors::readMoisture</text>
</a>
</g>
</g>
<!-- Node49&#45;&gt;Node52 -->
<g id="edge7" class="edge"><title>Node49&#45;&gt;Node52</title>
<path fill="none" stroke="midnightblue" d="M302.214,-137.144C316.867,-135.731 332.834,-134.191 348.512,-132.679"/>
<polygon fill="midnightblue" stroke="midnightblue" points="349.139,-136.135 358.756,-131.691 348.467,-129.167 349.139,-136.135"/>
</g>
<!-- Node54 -->
<g id="node10" class="node"><title>Node54</title>
<g id="a_node10"><a xlink:href="classIrene3000.html#a94ad40f281d83ad1be20bf1edd6fe802" target="_top" xlink:title="Irene3000::readTemp">
<polygon fill="white" stroke="black" points="385,-76.5 385,-95.5 494,-95.5 494,-76.5 385,-76.5"/>
<text text-anchor="middle" x="439.5" y="-83.5" font-family="Helvetica,sans-Serif" font-size="10.00">Irene3000::readTemp</text>
</a>
</g>
</g>
<!-- Node53&#45;&gt;Node54 -->
<g id="edge9" class="edge"><title>Node53&#45;&gt;Node54</title>
<path fill="none" stroke="midnightblue" d="M282.798,-86C309.457,-86 344.672,-86 374.867,-86"/>
<polygon fill="midnightblue" stroke="midnightblue" points="374.896,-89.5001 384.896,-86 374.896,-82.5001 374.896,-89.5001"/>
</g>
<!-- Node56 -->
<g id="node12" class="node"><title>Node56</title>
<g id="a_node12"><a xlink:href="classIrene3000.html#abf3db725fabb0634ec889b32068a5eec" target="_top" xlink:title="Irene3000::readPh">
<polygon fill="white" stroke="black" points="391.5,-38.5 391.5,-57.5 487.5,-57.5 487.5,-38.5 391.5,-38.5"/>
<text text-anchor="middle" x="439.5" y="-45.5" font-family="Helvetica,sans-Serif" font-size="10.00">Irene3000::readPh</text>
</a>
</g>
</g>
<!-- Node53&#45;&gt;Node56 -->
<g id="edge11" class="edge"><title>Node53&#45;&gt;Node56</title>
<path fill="none" stroke="midnightblue" d="M282.798,-78.034C311.406,-72.5157 349.865,-65.0971 381.402,-59.0138"/>
<polygon fill="midnightblue" stroke="midnightblue" points="382.221,-62.4204 391.377,-57.0897 380.895,-55.5471 382.221,-62.4204"/>
</g>
<!-- Node57 -->
<g id="node13" class="node"><title>Node57</title>
<g id="a_node13"><a xlink:href="classIrene3000.html#ae73bd2ed14a199a7e83f4d6458476a7c" target="_top" xlink:title="Irene3000::readADSChannel2">
<polygon fill="white" stroke="black" points="366.5,-0.5 366.5,-19.5 512.5,-19.5 512.5,-0.5 366.5,-0.5"/>
<text text-anchor="middle" x="439.5" y="-7.5" font-family="Helvetica,sans-Serif" font-size="10.00">Irene3000::readADSChannel2</text>
</a>
</g>
</g>
<!-- Node53&#45;&gt;Node57 -->
<g id="edge13" class="edge"><title>Node53&#45;&gt;Node57</title>
<path fill="none" stroke="midnightblue" d="M282.617,-81.2304C296.113,-78.4373 310.775,-74.0114 323,-67 343.181,-55.4257 338.851,-40.6304 359,-29 362.908,-26.7442 367.072,-24.7557 371.367,-23.0029"/>
<polygon fill="midnightblue" stroke="midnightblue" points="372.728,-26.2324 380.933,-19.5297 370.339,-19.6526 372.728,-26.2324"/>
</g>
<!-- Node55 -->
<g id="node11" class="node"><title>Node55</title>
<g id="a_node11"><a xlink:href="classIrene3000.html#aff7c5da186b388e7272e63ff88a20c34" target="_top" xlink:title="Irene3000::setGain">
<polygon fill="white" stroke="black" points="556,-38.5 556,-57.5 655,-57.5 655,-38.5 556,-38.5"/>
<text text-anchor="middle" x="605.5" y="-45.5" font-family="Helvetica,sans-Serif" font-size="10.00">Irene3000::setGain</text>
</a>
</g>
</g>
<!-- Node54&#45;&gt;Node55 -->
<g id="edge10" class="edge"><title>Node54&#45;&gt;Node55</title>
<path fill="none" stroke="midnightblue" d="M481.884,-76.411C503.623,-71.3739 530.457,-65.1562 553.475,-59.8229"/>
<polygon fill="midnightblue" stroke="midnightblue" points="554.462,-63.1871 563.413,-57.5201 552.881,-56.3677 554.462,-63.1871"/>
</g>
<!-- Node56&#45;&gt;Node55 -->
<g id="edge12" class="edge"><title>Node56&#45;&gt;Node55</title>
<path fill="none" stroke="midnightblue" d="M487.936,-48C505.978,-48 526.753,-48 545.722,-48"/>
<polygon fill="midnightblue" stroke="midnightblue" points="545.747,-51.5001 555.747,-48 545.747,-44.5001 545.747,-51.5001"/>
</g>
<!-- Node57&#45;&gt;Node55 -->
<g id="edge14" class="edge"><title>Node57&#45;&gt;Node55</title>
<path fill="none" stroke="midnightblue" d="M481.884,-19.589C503.623,-24.6261 530.457,-30.8438 553.475,-36.1771"/>
<polygon fill="midnightblue" stroke="midnightblue" points="552.881,-39.6323 563.413,-38.4799 554.462,-32.8129 552.881,-39.6323"/>
</g>
</g>
</svg>
        <g id="navigator" transform="translate(0 0)" fill="#404254">
                <rect fill="#f2f5e9" fill-opacity="0.5" stroke="#606060" stroke-width=".5" x="0" y="0" width="60" height="60"/>
                <use id="zoomplus" xlink:href="#zoomPlus" x="17" y="9" onmousedown="handleZoom(evt,'in')"/>
                <use id="zoomminus" xlink:href="#zoomMin" x="42" y="9" onmousedown="handleZoom(evt,'out')"/>
                <use id="reset" xlink:href="#resetDef" x="30" y="36" onmousedown="handleReset()"/>
                <g id="arrowUp" xlink:href="#dirArrow" transform="translate(30 24)" onmousedown="handlePan(0,-1)">
                  <use xlink:href="#rim" fill="#404040">
                        <set attributeName="fill" to="#808080" begin="arrowUp.mouseover" end="arrowUp.mouseout"/>
                  </use>
                  <path fill="none" stroke="white" stroke-width="1.5" d="M0,-3.0v7 M-2.5,-0.5L0,-3.0L2.5,-0.5"/>
                </g>
                <g id="arrowRight" xlink:href="#dirArrow" transform="rotate(90) translate(36 -43)" onmousedown="handlePan(1,0)">
                  <use xlink:href="#rim" fill="#404040">
                        <set attributeName="fill" to="#808080" begin="arrowRight.mouseover" end="arrowRight.mouseout"/>
                  </use>
                  <path fill="none" stroke="white" stroke-width="1.5" d="M0,-3.0v7 M-2.5,-0.5L0,-3.0L2.5,-0.5"/>
                </g>
                <g id="arrowDown" xlink:href="#dirArrow" transform="rotate(180) translate(-30 -48)" onmousedown="handlePan(0,1)">
                  <use xlink:href="#rim" fill="#404040">
                        <set attributeName="fill" to="#808080" begin="arrowDown.mouseover" end="arrowDown.mouseout"/>
                  </use>
                  <path fill="none" stroke="white" stroke-width="1.5" d="M0,-3.0v7 M-2.5,-0.5L0,-3.0L2.5,-0.5"/>
                </g>
                <g id="arrowLeft" xlink:href="#dirArrow" transform="rotate(270) translate(-36 17)" onmousedown="handlePan(-1,0)">
                  <use xlink:href="#rim" fill="#404040">
                        <set attributeName="fill" to="#808080" begin="arrowLeft.mouseover" end="arrowLeft.mouseout"/>
                  </use>
                  <path fill="none" stroke="white" stroke-width="1.5" d="M0,-3.0v7 M-2.5,-0.5L0,-3.0L2.5,-0.5"/>
                </g>
        </g>
        <svg viewBox="0 0 15 15" width="100%" height="30px" preserveAspectRatio="xMaxYMin meet">
         <g id="arrow_out" transform="scale(0.3 0.3)">
          <a xlink:href="classCoolBoard_ae6b5e1274d760462290192acea4adca8_cgraph_org.svg" target="_base">
           <rect id="button" ry="5" rx="5" y="6" x="6" height="38" width="38"
                fill="#f2f5e9" fill-opacity="0.5" stroke="#606060" stroke-width="1.0"/>
           <path id="arrow"
             d="M 11.500037,31.436501 C 11.940474,20.09759 22.043105,11.32322 32.158766,21.979434 L 37.068811,17.246167 C 37.068811,17.246167 37.088388,32 37.088388,32 L 22.160133,31.978069 C 22.160133,31.978069 26.997745,27.140456 26.997745,27.140456 C 18.528582,18.264221 13.291696,25.230495 11.500037,31.436501 z"
             style="fill:#404040;"/>
          </a>
         </g>
        </svg>
</svg>
