<?xml version="1.0" encoding="UTF-8" standalone="no"?>
<!DOCTYPE svg PUBLIC "-//W3C//DTD SVG 1.1//EN"
 "http://www.w3.org/Graphics/SVG/1.1/DTD/svg11.dtd">
<!-- Generated by graphviz version 2.38.0 (20140413.2041)
 -->
<!-- Title: CoolMQTT::publish Pages: 1 -->
<svg width="403pt" height="79pt"
 viewBox="0.00 0.00 403.00 78.55" xmlns="http://www.w3.org/2000/svg" xmlns:xlink="http://www.w3.org/1999/xlink">
<g id="graph0" class="graph" transform="scale(1 1) rotate(0) translate(4 74.5493)">
<title>CoolMQTT::publish</title>
<polygon fill="white" stroke="none" points="-4,4 -4,-74.5493 399,-74.5493 399,4 -4,4"/>
<!-- Node31 -->
<g id="node1" class="node"><title>Node31</title>
<polygon fill="#bfbfbf" stroke="black" points="0,-38.5 0,-57.5 101,-57.5 101,-38.5 0,-38.5"/>
<text text-anchor="middle" x="50.5" y="-45.5" font-family="Helvetica,sans-Serif" font-size="10.00">CoolMQTT::publish</text>
</g>
<!-- Node32 -->
<g id="node2" class="node"><title>Node32</title>
<g id="a_node2"><a xlink:href="classCoolBoard.html#aa0bbc4bc605e35618d18e68795c61363" target="_top" xlink:title="CoolBoard::onLineMode">
<polygon fill="white" stroke="black" points="274,-38.5 274,-57.5 395,-57.5 395,-38.5 274,-38.5"/>
<text text-anchor="middle" x="334.5" y="-45.5" font-family="Helvetica,sans-Serif" font-size="10.00">CoolBoard::onLineMode</text>
</a>
</g>
</g>
<!-- Node31&#45;&gt;Node32 -->
<g id="edge1" class="edge"><title>Node31&#45;&gt;Node32</title>
<path fill="none" stroke="midnightblue" d="M95.899,-59.7973C109.034,-62.7615 123.51,-65.5192 137,-67 181.621,-71.8981 193.327,-71.4008 238,-67 256.842,-65.1438 277.477,-61.2751 294.729,-57.5101"/>
<polygon fill="midnightblue" stroke="midnightblue" points="96.6901,-56.3879 86.1547,-57.508 95.0891,-63.2024 96.6901,-56.3879"/>
</g>
<!-- Node33 -->
<g id="node3" class="node"><title>Node33</title>
<g id="a_node3"><a xlink:href="classCoolMQTT.html#a613c5e3927ae85bb94fbf648d84d8780" target="_top" xlink:title="CoolMQTT::publish">
<polygon fill="white" stroke="black" points="137,-38.5 137,-57.5 238,-57.5 238,-38.5 137,-38.5"/>
<text text-anchor="middle" x="187.5" y="-45.5" font-family="Helvetica,sans-Serif" font-size="10.00">CoolMQTT::publish</text>
</a>
</g>
</g>
<!-- Node31&#45;&gt;Node33 -->
<g id="edge2" class="edge"><title>Node31&#45;&gt;Node33</title>
<path fill="none" stroke="midnightblue" d="M111.207,-48C119.67,-48 128.299,-48 136.552,-48"/>
<polygon fill="midnightblue" stroke="midnightblue" points="111.002,-44.5001 101.002,-48 111.002,-51.5001 111.002,-44.5001"/>
</g>
<!-- Node34 -->
<g id="node4" class="node"><title>Node34</title>
<g id="a_node4"><a xlink:href="classCoolBoard.html#a8612756d3f73198cdde857a66f0fe690" target="_top" xlink:title="CoolBoard::update">
<polygon fill="white" stroke="black" points="138.5,-0.5 138.5,-19.5 236.5,-19.5 236.5,-0.5 138.5,-0.5"/>
<text text-anchor="middle" x="187.5" y="-7.5" font-family="Helvetica,sans-Serif" font-size="10.00">CoolBoard::update</text>
</a>
</g>
</g>
<!-- Node31&#45;&gt;Node34 -->
<g id="edge3" class="edge"><title>Node31&#45;&gt;Node34</title>
<path fill="none" stroke="midnightblue" d="M95.2625,-35.6817C113.811,-30.4607 135.099,-24.4684 152.445,-19.5859"/>
<polygon fill="midnightblue" stroke="midnightblue" points="94.2438,-32.3323 85.5662,-38.411 96.1405,-39.0705 94.2438,-32.3323"/>
</g>
<!-- Node34&#45;&gt;Node32 -->
<g id="edge4" class="edge"><title>Node34&#45;&gt;Node32</title>
<path fill="none" stroke="midnightblue" d="M234.993,-22.1843C255.124,-27.46 278.338,-33.5438 297.173,-38.4799"/>
<polygon fill="midnightblue" stroke="midnightblue" points="235.65,-18.7385 225.09,-19.589 233.876,-25.5098 235.65,-18.7385"/>
</g>
</g>
</svg>
