<?xml version="1.0" encoding="UTF-8" standalone="no"?>
<!DOCTYPE svg PUBLIC "-//W3C//DTD SVG 1.1//EN"
 "http://www.w3.org/Graphics/SVG/1.1/DTD/svg11.dtd">
<!-- Generated by graphviz version 2.38.0 (20140413.2041)
 -->
<!-- Title: CoolBoard::readSensors Pages: 1 -->
<svg width="622pt" height="256pt"
 viewBox="0.00 0.00 622.00 256.00" xmlns="http://www.w3.org/2000/svg" xmlns:xlink="http://www.w3.org/1999/xlink">
<g id="graph0" class="graph" transform="scale(1 1) rotate(0) translate(4 252)">
<title>CoolBoard::readSensors</title>
<polygon fill="white" stroke="none" points="-4,4 -4,-252 618,-252 618,4 -4,4"/>
<!-- Node136 -->
<g id="node1" class="node"><title>Node136</title>
<polygon fill="#bfbfbf" stroke="black" points="0,-171.5 0,-190.5 123,-190.5 123,-171.5 0,-171.5"/>
<text text-anchor="middle" x="61.5" y="-178.5" font-family="Helvetica,sans-Serif" font-size="10.00">CoolBoard::readSensors</text>
</g>
<!-- Node137 -->
<g id="node2" class="node"><title>Node137</title>
<g id="a_node2"><a xlink:href="classCoolTime.html#a7a7501c5ca77dd1248bea704c44f986c" target="_top" xlink:title="CoolTime::getTimeDate">
<polygon fill="white" stroke="black" points="160,-228.5 160,-247.5 281,-247.5 281,-228.5 160,-228.5"/>
<text text-anchor="middle" x="220.5" y="-235.5" font-family="Helvetica,sans-Serif" font-size="10.00">CoolTime::getTimeDate</text>
</a>
</g>
</g>
<!-- Node136&#45;&gt;Node137 -->
<g id="edge1" class="edge"><title>Node136&#45;&gt;Node137</title>
<path fill="none" stroke="midnightblue" d="M85.3353,-190.521C104.781,-198.501 133.535,-210 159,-219 165.063,-221.143 171.508,-223.297 177.846,-225.345"/>
<polygon fill="midnightblue" stroke="midnightblue" points="177.056,-228.767 187.647,-228.461 179.177,-222.096 177.056,-228.767"/>
</g>
<!-- Node139 -->
<g id="node4" class="node"><title>Node139</title>
<g id="a_node4"><a xlink:href="classExternalSensors.html#a53177b81eca3be89508b5511ddcd00fc" target="_top" xlink:title="ExternalSensors::read">
<polygon fill="white" stroke="black" points="164,-190.5 164,-209.5 277,-209.5 277,-190.5 164,-190.5"/>
<text text-anchor="middle" x="220.5" y="-197.5" font-family="Helvetica,sans-Serif" font-size="10.00">ExternalSensors::read</text>
</a>
</g>
</g>
<!-- Node136&#45;&gt;Node139 -->
<g id="edge3" class="edge"><title>Node136&#45;&gt;Node139</title>
<path fill="none" stroke="midnightblue" d="M123.2,-188.346C133.231,-189.56 143.672,-190.823 153.818,-192.051"/>
<polygon fill="midnightblue" stroke="midnightblue" points="153.493,-195.537 163.841,-193.264 154.334,-188.588 153.493,-195.537"/>
</g>
<!-- Node140 -->
<g id="node5" class="node"><title>Node140</title>
<g id="a_node5"><a xlink:href="classCoolBoardSensors.html#a91badb2539d91fda8679f2a597874c48" target="_top" xlink:title="CoolBoardSensors::read">
<polygon fill="white" stroke="black" points="159,-152.5 159,-171.5 282,-171.5 282,-152.5 159,-152.5"/>
<text text-anchor="middle" x="220.5" y="-159.5" font-family="Helvetica,sans-Serif" font-size="10.00">CoolBoardSensors::read</text>
</a>
</g>
</g>
<!-- Node136&#45;&gt;Node140 -->
<g id="edge4" class="edge"><title>Node136&#45;&gt;Node140</title>
<path fill="none" stroke="midnightblue" d="M123.2,-173.654C131.635,-172.633 140.359,-171.578 148.955,-170.537"/>
<polygon fill="midnightblue" stroke="midnightblue" points="149.454,-174.003 158.961,-169.326 148.613,-167.053 149.454,-174.003"/>
</g>
<!-- Node144 -->
<g id="node9" class="node"><title>Node144</title>
<g id="a_node9"><a xlink:href="classIrene3000.html#a852a170feea994ea1df01c6b245b5d9a" target="_top" xlink:title="Irene3000::read">
<polygon fill="white" stroke="black" points="178.5,-57.5 178.5,-76.5 262.5,-76.5 262.5,-57.5 178.5,-57.5"/>
<text text-anchor="middle" x="220.5" y="-64.5" font-family="Helvetica,sans-Serif" font-size="10.00">Irene3000::read</text>
</a>
</g>
</g>
<!-- Node136&#45;&gt;Node144 -->
<g id="edge8" class="edge"><title>Node136&#45;&gt;Node144</title>
<path fill="none" stroke="midnightblue" d="M75.6157,-171.477C102.677,-151.827 164.926,-106.627 197.975,-82.6299"/>
<polygon fill="midnightblue" stroke="midnightblue" points="200.053,-85.4458 206.089,-76.738 195.941,-79.7815 200.053,-85.4458"/>
</g>
<!-- Node138 -->
<g id="node3" class="node"><title>Node138</title>
<g id="a_node3"><a xlink:href="classCoolTime.html#acd537cd4210d7bde4e1f5c47d2ac0456" target="_top" xlink:title="CoolTime::formatDigits">
<polygon fill="white" stroke="black" points="339.5,-228.5 339.5,-247.5 457.5,-247.5 457.5,-228.5 339.5,-228.5"/>
<text text-anchor="middle" x="398.5" y="-235.5" font-family="Helvetica,sans-Serif" font-size="10.00">CoolTime::formatDigits</text>
</a>
</g>
</g>
<!-- Node137&#45;&gt;Node138 -->
<g id="edge2" class="edge"><title>Node137&#45;&gt;Node138</title>
<path fill="none" stroke="midnightblue" d="M281.086,-238C296.547,-238 313.319,-238 329.19,-238"/>
<polygon fill="midnightblue" stroke="midnightblue" points="329.467,-241.5 339.467,-238 329.467,-234.5 329.467,-241.5"/>
</g>
<!-- Node141 -->
<g id="node6" class="node"><title>Node141</title>
<g id="a_node6"><a xlink:href="classCoolBoardSensors.html#acad6a8418c66d36868caca23c844ecb6" target="_top" xlink:title="CoolBoardSensors::initReadI2C">
<polygon fill="white" stroke="black" points="320.5,-190.5 320.5,-209.5 476.5,-209.5 476.5,-190.5 320.5,-190.5"/>
<text text-anchor="middle" x="398.5" y="-197.5" font-family="Helvetica,sans-Serif" font-size="10.00">CoolBoardSensors::initReadI2C</text>
</a>
</g>
</g>
<!-- Node140&#45;&gt;Node141 -->
<g id="edge5" class="edge"><title>Node140&#45;&gt;Node141</title>
<path fill="none" stroke="midnightblue" d="M265.912,-171.589C289.451,-176.671 318.557,-182.955 343.405,-188.32"/>
<polygon fill="midnightblue" stroke="midnightblue" points="342.894,-191.791 353.407,-190.48 344.371,-184.948 342.894,-191.791"/>
</g>
<!-- Node142 -->
<g id="node7" class="node"><title>Node142</title>
<g id="a_node7"><a xlink:href="classCoolBoardSensors.html#a6944b6ea7bce8e2fce1b434acfd9d5f3" target="_top" xlink:title="CoolBoardSensors::readVBat">
<polygon fill="white" stroke="black" points="326,-152.5 326,-171.5 471,-171.5 471,-152.5 326,-152.5"/>
<text text-anchor="middle" x="398.5" y="-159.5" font-family="Helvetica,sans-Serif" font-size="10.00">CoolBoardSensors::readVBat</text>
</a>
</g>
</g>
<!-- Node140&#45;&gt;Node142 -->
<g id="edge6" class="edge"><title>Node140&#45;&gt;Node142</title>
<path fill="none" stroke="midnightblue" d="M282.069,-162C292.88,-162 304.304,-162 315.593,-162"/>
<polygon fill="midnightblue" stroke="midnightblue" points="315.902,-165.5 325.902,-162 315.902,-158.5 315.902,-165.5"/>
</g>
<!-- Node143 -->
<g id="node8" class="node"><title>Node143</title>
<g id="a_node8"><a xlink:href="classCoolBoardSensors.html#a8761bff50373c485f4465c8db47d0633" target="_top" xlink:title="CoolBoardSensors::readMoisture">
<polygon fill="white" stroke="black" points="318,-114.5 318,-133.5 479,-133.5 479,-114.5 318,-114.5"/>
<text text-anchor="middle" x="398.5" y="-121.5" font-family="Helvetica,sans-Serif" font-size="10.00">CoolBoardSensors::readMoisture</text>
</a>
</g>
</g>
<!-- Node140&#45;&gt;Node143 -->
<g id="edge7" class="edge"><title>Node140&#45;&gt;Node143</title>
<path fill="none" stroke="midnightblue" d="M265.912,-152.411C289.451,-147.329 318.557,-141.045 343.405,-135.68"/>
<polygon fill="midnightblue" stroke="midnightblue" points="344.371,-139.052 353.407,-133.52 342.894,-132.209 344.371,-139.052"/>
</g>
<!-- Node145 -->
<g id="node10" class="node"><title>Node145</title>
<g id="a_node10"><a xlink:href="classIrene3000.html#a94ad40f281d83ad1be20bf1edd6fe802" target="_top" xlink:title="Irene3000::readTemp">
<polygon fill="white" stroke="black" points="344,-76.5 344,-95.5 453,-95.5 453,-76.5 344,-76.5"/>
<text text-anchor="middle" x="398.5" y="-83.5" font-family="Helvetica,sans-Serif" font-size="10.00">Irene3000::readTemp</text>
</a>
</g>
</g>
<!-- Node144&#45;&gt;Node145 -->
<g id="edge9" class="edge"><title>Node144&#45;&gt;Node145</title>
<path fill="none" stroke="midnightblue" d="M262.764,-71.4547C283.923,-73.7388 310.16,-76.5712 333.843,-79.1279"/>
<polygon fill="midnightblue" stroke="midnightblue" points="333.497,-82.6108 343.815,-80.2044 334.248,-75.6512 333.497,-82.6108"/>
</g>
<!-- Node147 -->
<g id="node12" class="node"><title>Node147</title>
<g id="a_node12"><a xlink:href="classIrene3000.html#abf3db725fabb0634ec889b32068a5eec" target="_top" xlink:title="Irene3000::readPh">
<polygon fill="white" stroke="black" points="350.5,-38.5 350.5,-57.5 446.5,-57.5 446.5,-38.5 350.5,-38.5"/>
<text text-anchor="middle" x="398.5" y="-45.5" font-family="Helvetica,sans-Serif" font-size="10.00">Irene3000::readPh</text>
</a>
</g>
</g>
<!-- Node144&#45;&gt;Node147 -->
<g id="edge11" class="edge"><title>Node144&#45;&gt;Node147</title>
<path fill="none" stroke="midnightblue" d="M262.764,-62.5453C285.803,-60.0582 314.863,-56.921 340.092,-54.1975"/>
<polygon fill="midnightblue" stroke="midnightblue" points="340.709,-57.6513 350.276,-53.0981 339.958,-50.6917 340.709,-57.6513"/>
</g>
<!-- Node148 -->
<g id="node13" class="node"><title>Node148</title>
<g id="a_node13"><a xlink:href="classIrene3000.html#ae73bd2ed14a199a7e83f4d6458476a7c" target="_top" xlink:title="Irene3000::readADSChannel2">
<polygon fill="white" stroke="black" points="325.5,-0.5 325.5,-19.5 471.5,-19.5 471.5,-0.5 325.5,-0.5"/>
<text text-anchor="middle" x="398.5" y="-7.5" font-family="Helvetica,sans-Serif" font-size="10.00">Irene3000::readADSChannel2</text>
</a>
</g>
</g>
<!-- Node144&#45;&gt;Node148 -->
<g id="edge13" class="edge"><title>Node144&#45;&gt;Node148</title>
<path fill="none" stroke="midnightblue" d="M243.413,-57.3485C262.768,-49.0712 291.893,-37.215 318,-29 325.978,-26.4895 334.496,-24.1279 342.883,-21.9797"/>
<polygon fill="midnightblue" stroke="midnightblue" points="343.767,-25.3668 352.628,-19.5598 342.08,-18.5731 343.767,-25.3668"/>
</g>
<!-- Node146 -->
<g id="node11" class="node"><title>Node146</title>
<g id="a_node11"><a xlink:href="classIrene3000.html#aff7c5da186b388e7272e63ff88a20c34" target="_top" xlink:title="Irene3000::setGain">
<polygon fill="white" stroke="black" points="515,-38.5 515,-57.5 614,-57.5 614,-38.5 515,-38.5"/>
<text text-anchor="middle" x="564.5" y="-45.5" font-family="Helvetica,sans-Serif" font-size="10.00">Irene3000::setGain</text>
</a>
</g>
</g>
<!-- Node145&#45;&gt;Node146 -->
<g id="edge10" class="edge"><title>Node145&#45;&gt;Node146</title>
<path fill="none" stroke="midnightblue" d="M440.884,-76.411C462.623,-71.3739 489.457,-65.1562 512.475,-59.8229"/>
<polygon fill="midnightblue" stroke="midnightblue" points="513.462,-63.1871 522.413,-57.5201 511.881,-56.3677 513.462,-63.1871"/>
</g>
<!-- Node147&#45;&gt;Node146 -->
<g id="edge12" class="edge"><title>Node147&#45;&gt;Node146</title>
<path fill="none" stroke="midnightblue" d="M446.936,-48C464.978,-48 485.753,-48 504.722,-48"/>
<polygon fill="midnightblue" stroke="midnightblue" points="504.747,-51.5001 514.747,-48 504.747,-44.5001 504.747,-51.5001"/>
</g>
<!-- Node148&#45;&gt;Node146 -->
<g id="edge14" class="edge"><title>Node148&#45;&gt;Node146</title>
<path fill="none" stroke="midnightblue" d="M440.884,-19.589C462.623,-24.6261 489.457,-30.8438 512.475,-36.1771"/>
<polygon fill="midnightblue" stroke="midnightblue" points="511.881,-39.6323 522.413,-38.4799 513.462,-32.8129 511.881,-39.6323"/>
</g>
</g>
</svg>
