<?xml version="1.0" encoding="UTF-8" standalone="no"?>
<!DOCTYPE svg PUBLIC "-//W3C//DTD SVG 1.1//EN"
 "http://www.w3.org/Graphics/SVG/1.1/DTD/svg11.dtd">
<!-- Generated by graphviz version 2.38.0 (20140413.2041)
 -->
<!-- Title: CoolBoard::offLineMode Pages: 1 -->
<svg width="862pt" height="458pt"
 viewBox="0.00 0.00 862.00 457.50" xmlns="http://www.w3.org/2000/svg" xmlns:xlink="http://www.w3.org/1999/xlink">
<g id="graph0" class="graph" transform="scale(1 1) rotate(0) translate(4 453.5)">
<title>CoolBoard::offLineMode</title>
<polygon fill="white" stroke="none" points="-4,4 -4,-453.5 858,-453.5 858,4 -4,4"/>
<!-- Node75 -->
<g id="node1" class="node"><title>Node75</title>
<polygon fill="#bfbfbf" stroke="black" points="0,-297 0,-316 122,-316 122,-297 0,-297"/>
<text text-anchor="middle" x="61" y="-304" font-family="Helvetica,sans-Serif" font-size="10.00">CoolBoard::offLineMode</text>
</g>
<!-- Node76 -->
<g id="node2" class="node"><title>Node76</title>
<g id="a_node2"><a xlink:href="classCoolBoardLed.html#a96e1ea13003eee34c9dbcef340404426" target="_top" xlink:title="CoolBoardLed::blink">
<polygon fill="white" stroke="black" points="188.5,-430 188.5,-449 292.5,-449 292.5,-430 188.5,-430"/>
<text text-anchor="middle" x="240.5" y="-437" font-family="Helvetica,sans-Serif" font-size="10.00">CoolBoardLed::blink</text>
</a>
</g>
</g>
<!-- Node75&#45;&gt;Node76 -->
<g id="edge1" class="edge"><title>Node75&#45;&gt;Node76</title>
<path fill="none" stroke="midnightblue" d="M67.2497,-316.261C79.7671,-338.542 113.661,-393.318 158,-420.5 164.302,-424.363 171.317,-427.441 178.514,-429.894"/>
<polygon fill="midnightblue" stroke="midnightblue" points="177.807,-433.336 188.391,-432.865 179.823,-426.633 177.807,-433.336"/>
</g>
<!-- Node77 -->
<g id="node3" class="node"><title>Node77</title>
<g id="a_node3"><a xlink:href="classJetpack.html#a86d2e83436ef4b85f4c3a6e85ac785b0" target="_top" xlink:title="Jetpack::doAction">
<polygon fill="white" stroke="black" points="193,-392 193,-411 288,-411 288,-392 193,-392"/>
<text text-anchor="middle" x="240.5" y="-399" font-family="Helvetica,sans-Serif" font-size="10.00">Jetpack::doAction</text>
</a>
</g>
</g>
<!-- Node75&#45;&gt;Node77 -->
<g id="edge2" class="edge"><title>Node75&#45;&gt;Node77</title>
<path fill="none" stroke="midnightblue" d="M71.1025,-316.064C87.1033,-332.291 122.003,-365.141 158,-382.5 165.713,-386.219 174.194,-389.233 182.681,-391.669"/>
<polygon fill="midnightblue" stroke="midnightblue" points="182.04,-395.12 192.601,-394.271 183.816,-388.349 182.04,-395.12"/>
</g>
<!-- Node79 -->
<g id="node5" class="node"><title>Node79</title>
<g id="a_node5"><a xlink:href="classCoolBoardLed.html#af1cacbaa88db8bcf6042c1083ba41155" target="_top" xlink:title="CoolBoardLed::fade">
<polygon fill="white" stroke="black" points="189,-354 189,-373 292,-373 292,-354 189,-354"/>
<text text-anchor="middle" x="240.5" y="-361" font-family="Helvetica,sans-Serif" font-size="10.00">CoolBoardLed::fade</text>
</a>
</g>
</g>
<!-- Node75&#45;&gt;Node79 -->
<g id="edge4" class="edge"><title>Node75&#45;&gt;Node79</title>
<path fill="none" stroke="midnightblue" d="M88.7904,-316.068C107.986,-322.836 134.493,-332.003 158,-339.5 170.308,-343.426 183.734,-347.474 196.072,-351.102"/>
<polygon fill="midnightblue" stroke="midnightblue" points="195.112,-354.468 205.692,-353.912 197.074,-347.749 195.112,-354.468"/>
</g>
<!-- Node80 -->
<g id="node6" class="node"><title>Node80</title>
<g id="a_node6"><a xlink:href="classCoolBoardLed.html#ab778f5e7bed0ab74e3906d82110493c3" target="_top" xlink:title="CoolBoardLed::fadeIn">
<polygon fill="white" stroke="black" points="375.5,-354 375.5,-373 486.5,-373 486.5,-354 375.5,-354"/>
<text text-anchor="middle" x="431" y="-361" font-family="Helvetica,sans-Serif" font-size="10.00">CoolBoardLed::fadeIn</text>
</a>
</g>
</g>
<!-- Node75&#45;&gt;Node80 -->
<g id="edge5" class="edge"><title>Node75&#45;&gt;Node80</title>
<path fill="none" stroke="midnightblue" d="M122.207,-314.723C175.16,-322.085 254.29,-333.4 323,-344.5 337.679,-346.871 353.461,-349.583 368.276,-352.202"/>
<polygon fill="midnightblue" stroke="midnightblue" points="367.894,-355.688 378.353,-353.994 369.12,-348.797 367.894,-355.688"/>
</g>
<!-- Node81 -->
<g id="node7" class="node"><title>Node81</title>
<g id="a_node7"><a xlink:href="classCoolBoardLed.html#a93d545679237e8cc858324367149775c" target="_top" xlink:title="CoolBoardLed::fadeOut">
<polygon fill="white" stroke="black" points="371.5,-316 371.5,-335 490.5,-335 490.5,-316 371.5,-316"/>
<text text-anchor="middle" x="431" y="-323" font-family="Helvetica,sans-Serif" font-size="10.00">CoolBoardLed::fadeOut</text>
</a>
</g>
</g>
<!-- Node75&#45;&gt;Node81 -->
<g id="edge6" class="edge"><title>Node75&#45;&gt;Node81</title>
<path fill="none" stroke="midnightblue" d="M122.214,-305.762C175.172,-305.564 254.304,-306.364 323,-311.5 335.383,-312.426 348.527,-313.811 361.207,-315.355"/>
<polygon fill="midnightblue" stroke="midnightblue" points="360.894,-318.843 371.253,-316.622 361.77,-311.898 360.894,-318.843"/>
</g>
<!-- Node82 -->
<g id="node8" class="node"><title>Node82</title>
<g id="a_node8"><a xlink:href="classCoolBoard.html#ad03abdce2e65f520bbf2cff0f2d083cf" target="_top" xlink:title="CoolBoard::readSensors">
<polygon fill="white" stroke="black" points="179,-240 179,-259 302,-259 302,-240 179,-240"/>
<text text-anchor="middle" x="240.5" y="-247" font-family="Helvetica,sans-Serif" font-size="10.00">CoolBoard::readSensors</text>
</a>
</g>
</g>
<!-- Node75&#45;&gt;Node82 -->
<g id="edge7" class="edge"><title>Node75&#45;&gt;Node82</title>
<path fill="none" stroke="midnightblue" d="M88.7904,-296.932C107.986,-290.164 134.493,-280.997 158,-273.5 170.308,-269.574 183.734,-265.526 196.072,-261.898"/>
<polygon fill="midnightblue" stroke="midnightblue" points="197.074,-265.251 205.692,-259.088 195.112,-258.532 197.074,-265.251"/>
</g>
<!-- Node96 -->
<g id="node22" class="node"><title>Node96</title>
<g id="a_node22"><a xlink:href="classCoolFileSystem.html#a4c560c2ddd40b74b7758e6ceb2c58957" target="_top" xlink:title="CoolFileSystem::saveSensorData">
<polygon fill="white" stroke="black" points="158,-28 158,-47 323,-47 323,-28 158,-28"/>
<text text-anchor="middle" x="240.5" y="-35" font-family="Helvetica,sans-Serif" font-size="10.00">CoolFileSystem::saveSensorData</text>
</a>
</g>
</g>
<!-- Node75&#45;&gt;Node96 -->
<g id="edge25" class="edge"><title>Node75&#45;&gt;Node96</title>
<path fill="none" stroke="midnightblue" d="M63.5744,-296.978C69.6323,-263.069 94.362,-146.591 158,-78.5 169.267,-66.4446 184.861,-57.4112 199.394,-50.9365"/>
<polygon fill="midnightblue" stroke="midnightblue" points="200.85,-54.1216 208.735,-47.0453 198.158,-47.6599 200.85,-54.1216"/>
</g>
<!-- Node98 -->
<g id="node24" class="node"><title>Node98</title>
<g id="a_node24"><a xlink:href="classCoolBoard.html#ae7358fb6e623cfc81b775f5f1734909b" target="_top" xlink:title="CoolBoard::userData">
<polygon fill="white" stroke="black" points="186.5,-88 186.5,-107 294.5,-107 294.5,-88 186.5,-88"/>
<text text-anchor="middle" x="240.5" y="-95" font-family="Helvetica,sans-Serif" font-size="10.00">CoolBoard::userData</text>
</a>
</g>
</g>
<!-- Node75&#45;&gt;Node98 -->
<g id="edge27" class="edge"><title>Node75&#45;&gt;Node98</title>
<path fill="none" stroke="midnightblue" d="M70.088,-296.977C97.752,-264.403 188.862,-157.124 224.768,-114.846"/>
<polygon fill="midnightblue" stroke="midnightblue" points="227.559,-116.967 231.364,-107.079 222.223,-112.436 227.559,-116.967"/>
</g>
<!-- Node78 -->
<g id="node4" class="node"><title>Node78</title>
<g id="a_node4"><a xlink:href="classJetpack.html#a338f1af8cbc6504ac69b47c7328569b5" target="_top" xlink:title="Jetpack::write">
<polygon fill="white" stroke="black" points="392,-392 392,-411 470,-411 470,-392 392,-392"/>
<text text-anchor="middle" x="431" y="-399" font-family="Helvetica,sans-Serif" font-size="10.00">Jetpack::write</text>
</a>
</g>
</g>
<!-- Node77&#45;&gt;Node78 -->
<g id="edge3" class="edge"><title>Node77&#45;&gt;Node78</title>
<path fill="none" stroke="midnightblue" d="M288.096,-401.5C316.546,-401.5 352.857,-401.5 381.627,-401.5"/>
<polygon fill="midnightblue" stroke="midnightblue" points="381.856,-405 391.856,-401.5 381.856,-398 381.856,-405"/>
</g>
<!-- Node82&#45;&gt;Node80 -->
<g id="edge8" class="edge"><title>Node82&#45;&gt;Node80</title>
<path fill="none" stroke="midnightblue" d="M254.773,-259.019C271.145,-270.891 299.673,-292.005 323,-311.5 339.655,-325.419 339.97,-334.061 359,-344.5 363.185,-346.796 367.663,-348.826 372.258,-350.619"/>
<polygon fill="midnightblue" stroke="midnightblue" points="371.207,-353.96 381.801,-353.978 373.53,-347.357 371.207,-353.96"/>
</g>
<!-- Node82&#45;&gt;Node81 -->
<g id="edge24" class="edge"><title>Node82&#45;&gt;Node81</title>
<path fill="none" stroke="midnightblue" d="M287.4,-259.066C299.431,-262.617 312.084,-267.334 323,-273.5 341.899,-284.175 339.97,-296.061 359,-306.5 363.185,-308.796 367.663,-310.826 372.258,-312.619"/>
<polygon fill="midnightblue" stroke="midnightblue" points="371.207,-315.96 381.801,-315.978 373.53,-309.357 371.207,-315.96"/>
</g>
<!-- Node83 -->
<g id="node9" class="node"><title>Node83</title>
<g id="a_node9"><a xlink:href="classCoolBoardLed.html#ad5f0de4c628cbfbf49896042831c64ad" target="_top" xlink:title="CoolBoardLed::strobe">
<polygon fill="white" stroke="black" points="375.5,-164 375.5,-183 486.5,-183 486.5,-164 375.5,-164"/>
<text text-anchor="middle" x="431" y="-171" font-family="Helvetica,sans-Serif" font-size="10.00">CoolBoardLed::strobe</text>
</a>
</g>
</g>
<!-- Node82&#45;&gt;Node83 -->
<g id="edge9" class="edge"><title>Node82&#45;&gt;Node83</title>
<path fill="none" stroke="midnightblue" d="M258.564,-239.941C281.034,-227.654 322.031,-206.271 359,-192.5 365.427,-190.106 372.285,-187.88 379.11,-185.856"/>
<polygon fill="midnightblue" stroke="midnightblue" points="380.367,-189.138 389.032,-183.041 378.456,-182.404 380.367,-189.138"/>
</g>
<!-- Node84 -->
<g id="node10" class="node"><title>Node84</title>
<g id="a_node10"><a xlink:href="classCoolBoardSensors.html#a91badb2539d91fda8679f2a597874c48" target="_top" xlink:title="CoolBoardSensors::read">
<polygon fill="white" stroke="black" points="369.5,-240 369.5,-259 492.5,-259 492.5,-240 369.5,-240"/>
<text text-anchor="middle" x="431" y="-247" font-family="Helvetica,sans-Serif" font-size="10.00">CoolBoardSensors::read</text>
</a>
</g>
</g>
<!-- Node82&#45;&gt;Node84 -->
<g id="edge10" class="edge"><title>Node82&#45;&gt;Node84</title>
<path fill="none" stroke="midnightblue" d="M302.18,-249.5C320.426,-249.5 340.603,-249.5 359.431,-249.5"/>
<polygon fill="midnightblue" stroke="midnightblue" points="359.434,-253 369.434,-249.5 359.433,-246 359.434,-253"/>
</g>
<!-- Node88 -->
<g id="node14" class="node"><title>Node88</title>
<g id="a_node14"><a xlink:href="classExternalSensors.html#a53177b81eca3be89508b5511ddcd00fc" target="_top" xlink:title="ExternalSensors::read">
<polygon fill="white" stroke="black" points="374.5,-278 374.5,-297 487.5,-297 487.5,-278 374.5,-278"/>
<text text-anchor="middle" x="431" y="-285" font-family="Helvetica,sans-Serif" font-size="10.00">ExternalSensors::read</text>
</a>
</g>
</g>
<!-- Node82&#45;&gt;Node88 -->
<g id="edge14" class="edge"><title>Node82&#45;&gt;Node88</title>
<path fill="none" stroke="midnightblue" d="M289.067,-259.089C314.501,-264.216 346.005,-270.567 372.771,-275.963"/>
<polygon fill="midnightblue" stroke="midnightblue" points="372.281,-279.435 382.776,-277.98 373.664,-272.573 372.281,-279.435"/>
</g>
<!-- Node89 -->
<g id="node15" class="node"><title>Node89</title>
<g id="a_node15"><a xlink:href="classIrene3000.html#a852a170feea994ea1df01c6b245b5d9a" target="_top" xlink:title="Irene3000::read">
<polygon fill="white" stroke="black" points="389,-202 389,-221 473,-221 473,-202 389,-202"/>
<text text-anchor="middle" x="431" y="-209" font-family="Helvetica,sans-Serif" font-size="10.00">Irene3000::read</text>
</a>
</g>
</g>
<!-- Node82&#45;&gt;Node89 -->
<g id="edge15" class="edge"><title>Node82&#45;&gt;Node89</title>
<path fill="none" stroke="midnightblue" d="M289.067,-239.911C316.459,-234.389 350.89,-227.448 378.863,-221.809"/>
<polygon fill="midnightblue" stroke="midnightblue" points="379.74,-225.202 388.851,-219.795 378.357,-218.34 379.74,-225.202"/>
</g>
<!-- Node94 -->
<g id="node20" class="node"><title>Node94</title>
<g id="a_node20"><a xlink:href="classCoolTime.html#a7a7501c5ca77dd1248bea704c44f986c" target="_top" xlink:title="CoolTime::getTimeDate">
<polygon fill="white" stroke="black" points="559,-88 559,-107 680,-107 680,-88 559,-88"/>
<text text-anchor="middle" x="619.5" y="-95" font-family="Helvetica,sans-Serif" font-size="10.00">CoolTime::getTimeDate</text>
</a>
</g>
</g>
<!-- Node82&#45;&gt;Node94 -->
<g id="edge22" class="edge"><title>Node82&#45;&gt;Node94</title>
<path fill="none" stroke="midnightblue" d="M250.201,-239.961C268.401,-220.628 312.659,-176.775 359,-154.5 392.247,-138.519 485.245,-120.258 550.354,-108.803"/>
<polygon fill="midnightblue" stroke="midnightblue" points="551.301,-112.191 560.551,-107.025 550.098,-105.295 551.301,-112.191"/>
</g>
<!-- Node85 -->
<g id="node11" class="node"><title>Node85</title>
<g id="a_node11"><a xlink:href="classCoolBoardSensors.html#acad6a8418c66d36868caca23c844ecb6" target="_top" xlink:title="CoolBoardSensors::initReadI2C">
<polygon fill="white" stroke="black" points="541.5,-316 541.5,-335 697.5,-335 697.5,-316 541.5,-316"/>
<text text-anchor="middle" x="619.5" y="-323" font-family="Helvetica,sans-Serif" font-size="10.00">CoolBoardSensors::initReadI2C</text>
</a>
</g>
</g>
<!-- Node84&#45;&gt;Node85 -->
<g id="edge11" class="edge"><title>Node84&#45;&gt;Node85</title>
<path fill="none" stroke="midnightblue" d="M481.932,-259.096C489.273,-261.564 496.531,-264.649 503,-268.5 522.991,-280.4 518.851,-294.87 539,-306.5 542.908,-308.756 547.072,-310.744 551.367,-312.497"/>
<polygon fill="midnightblue" stroke="midnightblue" points="550.339,-315.847 560.933,-315.97 552.728,-309.268 550.339,-315.847"/>
</g>
<!-- Node86 -->
<g id="node12" class="node"><title>Node86</title>
<g id="a_node12"><a xlink:href="classCoolBoardSensors.html#a6944b6ea7bce8e2fce1b434acfd9d5f3" target="_top" xlink:title="CoolBoardSensors::readVBat">
<polygon fill="white" stroke="black" points="547,-278 547,-297 692,-297 692,-278 547,-278"/>
<text text-anchor="middle" x="619.5" y="-285" font-family="Helvetica,sans-Serif" font-size="10.00">CoolBoardSensors::readVBat</text>
</a>
</g>
</g>
<!-- Node84&#45;&gt;Node86 -->
<g id="edge12" class="edge"><title>Node84&#45;&gt;Node86</title>
<path fill="none" stroke="midnightblue" d="M479.062,-259.089C504.227,-264.216 535.396,-270.567 561.879,-275.963"/>
<polygon fill="midnightblue" stroke="midnightblue" points="561.279,-279.413 571.777,-277.98 562.677,-272.554 561.279,-279.413"/>
</g>
<!-- Node87 -->
<g id="node13" class="node"><title>Node87</title>
<g id="a_node13"><a xlink:href="classCoolBoardSensors.html#a8761bff50373c485f4465c8db47d0633" target="_top" xlink:title="CoolBoardSensors::readMoisture">
<polygon fill="white" stroke="black" points="539,-240 539,-259 700,-259 700,-240 539,-240"/>
<text text-anchor="middle" x="619.5" y="-247" font-family="Helvetica,sans-Serif" font-size="10.00">CoolBoardSensors::readMoisture</text>
</a>
</g>
</g>
<!-- Node84&#45;&gt;Node87 -->
<g id="edge13" class="edge"><title>Node84&#45;&gt;Node87</title>
<path fill="none" stroke="midnightblue" d="M492.551,-249.5C504.101,-249.5 516.418,-249.5 528.656,-249.5"/>
<polygon fill="midnightblue" stroke="midnightblue" points="528.899,-253 538.899,-249.5 528.899,-246 528.899,-253"/>
</g>
<!-- Node90 -->
<g id="node16" class="node"><title>Node90</title>
<g id="a_node16"><a xlink:href="classIrene3000.html#a94ad40f281d83ad1be20bf1edd6fe802" target="_top" xlink:title="Irene3000::readTemp">
<polygon fill="white" stroke="black" points="565,-164 565,-183 674,-183 674,-164 565,-164"/>
<text text-anchor="middle" x="619.5" y="-171" font-family="Helvetica,sans-Serif" font-size="10.00">Irene3000::readTemp</text>
</a>
</g>
</g>
<!-- Node89&#45;&gt;Node90 -->
<g id="edge16" class="edge"><title>Node89&#45;&gt;Node90</title>
<path fill="none" stroke="midnightblue" d="M473.39,-203.067C499.405,-197.766 533.315,-190.857 561.813,-185.05"/>
<polygon fill="midnightblue" stroke="midnightblue" points="562.545,-188.473 571.645,-183.047 561.148,-181.614 562.545,-188.473"/>
</g>
<!-- Node92 -->
<g id="node18" class="node"><title>Node92</title>
<g id="a_node18"><a xlink:href="classIrene3000.html#abf3db725fabb0634ec889b32068a5eec" target="_top" xlink:title="Irene3000::readPh">
<polygon fill="white" stroke="black" points="571.5,-126 571.5,-145 667.5,-145 667.5,-126 571.5,-126"/>
<text text-anchor="middle" x="619.5" y="-133" font-family="Helvetica,sans-Serif" font-size="10.00">Irene3000::readPh</text>
</a>
</g>
</g>
<!-- Node89&#45;&gt;Node92 -->
<g id="edge18" class="edge"><title>Node89&#45;&gt;Node92</title>
<path fill="none" stroke="midnightblue" d="M473.352,-204.517C483.493,-201.725 494.009,-197.852 503,-192.5 522.991,-180.6 518.851,-166.13 539,-154.5 545.99,-150.465 553.798,-147.285 561.716,-144.78"/>
<polygon fill="midnightblue" stroke="midnightblue" points="562.711,-148.136 571.38,-142.046 560.805,-141.4 562.711,-148.136"/>
</g>
<!-- Node93 -->
<g id="node19" class="node"><title>Node93</title>
<g id="a_node19"><a xlink:href="classIrene3000.html#ae73bd2ed14a199a7e83f4d6458476a7c" target="_top" xlink:title="Irene3000::readADSChannel2">
<polygon fill="white" stroke="black" points="546.5,-202 546.5,-221 692.5,-221 692.5,-202 546.5,-202"/>
<text text-anchor="middle" x="619.5" y="-209" font-family="Helvetica,sans-Serif" font-size="10.00">Irene3000::readADSChannel2</text>
</a>
</g>
</g>
<!-- Node89&#45;&gt;Node93 -->
<g id="edge20" class="edge"><title>Node89&#45;&gt;Node93</title>
<path fill="none" stroke="midnightblue" d="M473.39,-211.5C491.919,-211.5 514.452,-211.5 536.183,-211.5"/>
<polygon fill="midnightblue" stroke="midnightblue" points="536.428,-215 546.428,-211.5 536.428,-208 536.428,-215"/>
</g>
<!-- Node91 -->
<g id="node17" class="node"><title>Node91</title>
<g id="a_node17"><a xlink:href="classIrene3000.html#aff7c5da186b388e7272e63ff88a20c34" target="_top" xlink:title="Irene3000::setGain">
<polygon fill="white" stroke="black" points="745.5,-164 745.5,-183 844.5,-183 844.5,-164 745.5,-164"/>
<text text-anchor="middle" x="795" y="-171" font-family="Helvetica,sans-Serif" font-size="10.00">Irene3000::setGain</text>
</a>
</g>
</g>
<!-- Node90&#45;&gt;Node91 -->
<g id="edge17" class="edge"><title>Node90&#45;&gt;Node91</title>
<path fill="none" stroke="midnightblue" d="M674.445,-173.5C693.759,-173.5 715.617,-173.5 735.312,-173.5"/>
<polygon fill="midnightblue" stroke="midnightblue" points="735.389,-177 745.389,-173.5 735.389,-170 735.389,-177"/>
</g>
<!-- Node92&#45;&gt;Node91 -->
<g id="edge19" class="edge"><title>Node92&#45;&gt;Node91</title>
<path fill="none" stroke="midnightblue" d="M664.281,-145.089C687.486,-150.171 716.178,-156.455 740.673,-161.82"/>
<polygon fill="midnightblue" stroke="midnightblue" points="740.016,-165.259 750.533,-163.98 741.514,-158.421 740.016,-165.259"/>
</g>
<!-- Node93&#45;&gt;Node91 -->
<g id="edge21" class="edge"><title>Node93&#45;&gt;Node91</title>
<path fill="none" stroke="midnightblue" d="M664.281,-201.911C687.486,-196.829 716.178,-190.545 740.673,-185.18"/>
<polygon fill="midnightblue" stroke="midnightblue" points="741.514,-188.579 750.533,-183.02 740.016,-181.741 741.514,-188.579"/>
</g>
<!-- Node95 -->
<g id="node21" class="node"><title>Node95</title>
<g id="a_node21"><a xlink:href="classCoolTime.html#acd537cd4210d7bde4e1f5c47d2ac0456" target="_top" xlink:title="CoolTime::formatDigits">
<polygon fill="white" stroke="black" points="736,-69 736,-88 854,-88 854,-69 736,-69"/>
<text text-anchor="middle" x="795" y="-76" font-family="Helvetica,sans-Serif" font-size="10.00">CoolTime::formatDigits</text>
</a>
</g>
</g>
<!-- Node94&#45;&gt;Node95 -->
<g id="edge23" class="edge"><title>Node94&#45;&gt;Node95</title>
<path fill="none" stroke="midnightblue" d="M680.209,-90.9613C694.863,-89.3565 710.661,-87.6264 725.686,-85.9811"/>
<polygon fill="midnightblue" stroke="midnightblue" points="726.381,-89.426 735.941,-84.8581 725.619,-82.4676 726.381,-89.426"/>
</g>
<!-- Node97 -->
<g id="node23" class="node"><title>Node97</title>
<g id="a_node23"><a xlink:href="classCoolFileSystem.html#af5a51e2b9bb6e7e7edf75a508fe75f82" target="_top" xlink:title="CoolFileSystem::saveSensor\lDataCSV">
<polygon fill="white" stroke="black" points="359,-0.5 359,-30.5 503,-30.5 503,-0.5 359,-0.5"/>
<text text-anchor="start" x="367" y="-18.5" font-family="Helvetica,sans-Serif" font-size="10.00">CoolFileSystem::saveSensor</text>
<text text-anchor="middle" x="431" y="-7.5" font-family="Helvetica,sans-Serif" font-size="10.00">DataCSV</text>
</a>
</g>
</g>
<!-- Node96&#45;&gt;Node97 -->
<g id="edge26" class="edge"><title>Node96&#45;&gt;Node97</title>
<path fill="none" stroke="midnightblue" d="M323.083,-27.9784C331.664,-26.9768 340.389,-25.9586 348.965,-24.9577"/>
<polygon fill="midnightblue" stroke="midnightblue" points="349.419,-28.4285 358.946,-23.7928 348.608,-21.4757 349.419,-28.4285"/>
</g>
<!-- Node99 -->
<g id="node25" class="node"><title>Node99</title>
<g id="a_node25"><a xlink:href="classCoolMQTT.html#a373cc92fca7760d886f02d8a6e5b3f63" target="_top" xlink:title="CoolMQTT::getUser">
<polygon fill="white" stroke="black" points="378.5,-88 378.5,-107 483.5,-107 483.5,-88 378.5,-88"/>
<text text-anchor="middle" x="431" y="-95" font-family="Helvetica,sans-Serif" font-size="10.00">CoolMQTT::getUser</text>
</a>
</g>
</g>
<!-- Node98&#45;&gt;Node99 -->
<g id="edge28" class="edge"><title>Node98&#45;&gt;Node99</title>
<path fill="none" stroke="midnightblue" d="M294.509,-97.5C317.472,-97.5 344.504,-97.5 368.357,-97.5"/>
<polygon fill="midnightblue" stroke="midnightblue" points="368.364,-101 378.364,-97.5 368.364,-94.0001 368.364,-101"/>
</g>
<!-- Node100 -->
<g id="node26" class="node"><title>Node100</title>
<g id="a_node26"><a xlink:href="classCoolTime.html#ac4f32ee513c1328d984306645e8785a4" target="_top" xlink:title="CoolTime::getESDate">
<polygon fill="white" stroke="black" points="374.5,-50 374.5,-69 487.5,-69 487.5,-50 374.5,-50"/>
<text text-anchor="middle" x="431" y="-57" font-family="Helvetica,sans-Serif" font-size="10.00">CoolTime::getESDate</text>
</a>
</g>
</g>
<!-- Node98&#45;&gt;Node100 -->
<g id="edge29" class="edge"><title>Node98&#45;&gt;Node100</title>
<path fill="none" stroke="midnightblue" d="M289.067,-87.911C314.501,-82.7835 346.005,-76.4328 372.771,-71.0368"/>
<polygon fill="midnightblue" stroke="midnightblue" points="373.664,-74.4273 382.776,-69.0201 372.281,-67.5653 373.664,-74.4273"/>
</g>
<!-- Node100&#45;&gt;Node94 -->
<g id="edge30" class="edge"><title>Node100&#45;&gt;Node94</title>
<path fill="none" stroke="midnightblue" d="M479.062,-69.089C504.227,-74.2165 535.396,-80.5672 561.879,-85.9632"/>
<polygon fill="midnightblue" stroke="midnightblue" points="561.279,-89.4129 571.777,-87.9799 562.677,-82.5538 561.279,-89.4129"/>
</g>
<!-- Node100&#45;&gt;Node95 -->
<g id="edge31" class="edge"><title>Node100&#45;&gt;Node95</title>
<path fill="none" stroke="midnightblue" d="M487.769,-62.4271C551.719,-65.7836 656.579,-71.2873 725.455,-74.9024"/>
<polygon fill="midnightblue" stroke="midnightblue" points="725.598,-78.4146 735.768,-75.4436 725.965,-71.4242 725.598,-78.4146"/>
</g>
</g>
</svg>
