<?xml version="1.0" encoding="UTF-8" standalone="no"?>
<!DOCTYPE svg PUBLIC "-//W3C//DTD SVG 1.1//EN"
 "http://www.w3.org/Graphics/SVG/1.1/DTD/svg11.dtd">
<!-- Generated by graphviz version 2.38.0 (20140413.2041)
 -->
<!-- Title: CoolBoard Pages: 1 -->
<svg width="1038pt" height="931pt"
 viewBox="0.00 0.00 1037.50 931.00" xmlns="http://www.w3.org/2000/svg" xmlns:xlink="http://www.w3.org/1999/xlink">
<g id="graph0" class="graph" transform="scale(1 1) rotate(0) translate(4 927)">
<title>CoolBoard</title>
<polygon fill="white" stroke="none" points="-4,4 -4,-927 1033.5,-927 1033.5,4 -4,4"/>
<!-- Node1 -->
<g id="node1" class="node"><title>Node1</title>
<polygon fill="#bfbfbf" stroke="black" points="415,-0.5 415,-266.5 536,-266.5 536,-0.5 415,-0.5"/>
<text text-anchor="middle" x="475.5" y="-254.5" font-family="Helvetica,sans-Serif" font-size="10.00">CoolBoard</text>
<polyline fill="none" stroke="black" points="415,-247.5 536,-247.5 "/>
<text text-anchor="start" x="423" y="-235.5" font-family="Helvetica,sans-Serif" font-size="10.00">&#45; userActive</text>
<text text-anchor="start" x="423" y="-224.5" font-family="Helvetica,sans-Serif" font-size="10.00">&#45; ireneActive</text>
<text text-anchor="start" x="423" y="-213.5" font-family="Helvetica,sans-Serif" font-size="10.00">&#45; jetpackActive</text>
<text text-anchor="start" x="423" y="-202.5" font-family="Helvetica,sans-Serif" font-size="10.00">&#45; externalSensorsActive</text>
<text text-anchor="start" x="423" y="-191.5" font-family="Helvetica,sans-Serif" font-size="10.00">&#45; sleepActive</text>
<text text-anchor="start" x="423" y="-180.5" font-family="Helvetica,sans-Serif" font-size="10.00">&#45; logInterval</text>
<text text-anchor="start" x="423" y="-169.5" font-family="Helvetica,sans-Serif" font-size="10.00">&#45; serverTimeOut</text>
<text text-anchor="start" x="423" y="-158.5" font-family="Helvetica,sans-Serif" font-size="10.00">&#45; data</text>
<text text-anchor="start" x="423" y="-147.5" font-family="Helvetica,sans-Serif" font-size="10.00">&#45; answer</text>
<polyline fill="none" stroke="black" points="415,-140.5 536,-140.5 "/>
<text text-anchor="start" x="423" y="-128.5" font-family="Helvetica,sans-Serif" font-size="10.00">+ begin()</text>
<text text-anchor="start" x="423" y="-117.5" font-family="Helvetica,sans-Serif" font-size="10.00">+ config()</text>
<text text-anchor="start" x="423" y="-106.5" font-family="Helvetica,sans-Serif" font-size="10.00">+ update()</text>
<text text-anchor="start" x="423" y="-95.5" font-family="Helvetica,sans-Serif" font-size="10.00">+ offLineMode()</text>
<text text-anchor="start" x="423" y="-84.5" font-family="Helvetica,sans-Serif" font-size="10.00">+ onLineMode()</text>
<text text-anchor="start" x="423" y="-73.5" font-family="Helvetica,sans-Serif" font-size="10.00">+ connect()</text>
<text text-anchor="start" x="423" y="-62.5" font-family="Helvetica,sans-Serif" font-size="10.00">+ isConnected()</text>
<text text-anchor="start" x="423" y="-51.5" font-family="Helvetica,sans-Serif" font-size="10.00">+ getLogInterval()</text>
<text text-anchor="start" x="423" y="-40.5" font-family="Helvetica,sans-Serif" font-size="10.00">+ printConf()</text>
<text text-anchor="start" x="423" y="-29.5" font-family="Helvetica,sans-Serif" font-size="10.00">+ sleep()</text>
<text text-anchor="start" x="423" y="-18.5" font-family="Helvetica,sans-Serif" font-size="10.00">+ readSensors()</text>
<text text-anchor="start" x="423" y="-7.5" font-family="Helvetica,sans-Serif" font-size="10.00">+ userData()</text>
</g>
<!-- Node2 -->
<g id="node2" class="node"><title>Node2</title>
<g id="a_node2"><a xlink:href="classCoolMQTT.html" target="_top" xlink:title="This class handles the mqtt client. ">
<polygon fill="white" stroke="black" points="0,-314.5 0,-591.5 97,-591.5 97,-314.5 0,-314.5"/>
<text text-anchor="middle" x="48.5" y="-579.5" font-family="Helvetica,sans-Serif" font-size="10.00">CoolMQTT</text>
<polyline fill="none" stroke="black" points="0,-572.5 97,-572.5 "/>
<text text-anchor="start" x="8" y="-560.5" font-family="Helvetica,sans-Serif" font-size="10.00">&#45; mqttServer</text>
<text text-anchor="start" x="8" y="-549.5" font-family="Helvetica,sans-Serif" font-size="10.00">&#45; msg</text>
<text text-anchor="start" x="8" y="-538.5" font-family="Helvetica,sans-Serif" font-size="10.00">&#45; inTopic</text>
<text text-anchor="start" x="8" y="-527.5" font-family="Helvetica,sans-Serif" font-size="10.00">&#45; outTopic</text>
<text text-anchor="start" x="8" y="-516.5" font-family="Helvetica,sans-Serif" font-size="10.00">&#45; user</text>
<text text-anchor="start" x="8" y="-505.5" font-family="Helvetica,sans-Serif" font-size="10.00">&#45; bufferSize</text>
<text text-anchor="start" x="8" y="-494.5" font-family="Helvetica,sans-Serif" font-size="10.00">&#45; espClient</text>
<text text-anchor="start" x="8" y="-483.5" font-family="Helvetica,sans-Serif" font-size="10.00">&#45; client</text>
<text text-anchor="start" x="8" y="-472.5" font-family="Helvetica,sans-Serif" font-size="10.00">&#45; newMsg</text>
<text text-anchor="start" x="8" y="-461.5" font-family="Helvetica,sans-Serif" font-size="10.00">&#45; previousLogTime</text>
<polyline fill="none" stroke="black" points="0,-454.5 97,-454.5 "/>
<text text-anchor="start" x="8" y="-442.5" font-family="Helvetica,sans-Serif" font-size="10.00">+ begin()</text>
<text text-anchor="start" x="8" y="-431.5" font-family="Helvetica,sans-Serif" font-size="10.00">+ connect()</text>
<text text-anchor="start" x="8" y="-420.5" font-family="Helvetica,sans-Serif" font-size="10.00">+ publish()</text>
<text text-anchor="start" x="8" y="-409.5" font-family="Helvetica,sans-Serif" font-size="10.00">+ publish()</text>
<text text-anchor="start" x="8" y="-398.5" font-family="Helvetica,sans-Serif" font-size="10.00">+ read()</text>
<text text-anchor="start" x="8" y="-387.5" font-family="Helvetica,sans-Serif" font-size="10.00">+ config()</text>
<text text-anchor="start" x="8" y="-376.5" font-family="Helvetica,sans-Serif" font-size="10.00">+ config()</text>
<text text-anchor="start" x="8" y="-365.5" font-family="Helvetica,sans-Serif" font-size="10.00">+ callback()</text>
<text text-anchor="start" x="8" y="-354.5" font-family="Helvetica,sans-Serif" font-size="10.00">+ printConf()</text>
<text text-anchor="start" x="8" y="-343.5" font-family="Helvetica,sans-Serif" font-size="10.00">+ state()</text>
<text text-anchor="start" x="8" y="-332.5" font-family="Helvetica,sans-Serif" font-size="10.00">+ mqttLoop()</text>
<text text-anchor="start" x="8" y="-321.5" font-family="Helvetica,sans-Serif" font-size="10.00">+ getUser()</text>
</a>
</g>
</g>
<!-- Node2&#45;&gt;Node1 -->
<g id="edge1" class="edge"><title>Node2&#45;&gt;Node1</title>
<path fill="none" stroke="#404040" d="M97.1207,-323.822C99.7766,-320.399 102.568,-317.114 105.5,-314 187.61,-226.81 320.983,-176.812 403.18,-152.703"/>
<polygon fill="none" stroke="#404040" points="403.389,-152.643 408.053,-147.142 414.923,-149.332 410.26,-154.832 403.389,-152.643"/>
<text text-anchor="middle" x="142.5" y="-288" font-family="Helvetica,sans-Serif" font-size="10.00"> &#45;mqtt</text>
</g>
<!-- Node3 -->
<g id="node3" class="node"><title>Node3</title>
<g id="a_node3"><a xlink:href="classCoolWifi.html" target="_top" xlink:title="This class manages the WiFi connection . ">
<polygon fill="white" stroke="black" points="115,-369.5 115,-536.5 186,-536.5 186,-369.5 115,-369.5"/>
<text text-anchor="middle" x="150.5" y="-524.5" font-family="Helvetica,sans-Serif" font-size="10.00">CoolWifi</text>
<polyline fill="none" stroke="black" points="115,-517.5 186,-517.5 "/>
<text text-anchor="start" x="123" y="-505.5" font-family="Helvetica,sans-Serif" font-size="10.00">&#45; wifiMulti</text>
<text text-anchor="start" x="123" y="-494.5" font-family="Helvetica,sans-Serif" font-size="10.00">&#45; wifiCount</text>
<text text-anchor="start" x="123" y="-483.5" font-family="Helvetica,sans-Serif" font-size="10.00">&#45; ssid</text>
<text text-anchor="start" x="123" y="-472.5" font-family="Helvetica,sans-Serif" font-size="10.00">&#45; pass</text>
<text text-anchor="start" x="123" y="-461.5" font-family="Helvetica,sans-Serif" font-size="10.00">&#45; timeOut</text>
<polyline fill="none" stroke="black" points="115,-454.5 186,-454.5 "/>
<text text-anchor="start" x="123" y="-442.5" font-family="Helvetica,sans-Serif" font-size="10.00">+ begin()</text>
<text text-anchor="start" x="123" y="-431.5" font-family="Helvetica,sans-Serif" font-size="10.00">+ config()</text>
<text text-anchor="start" x="123" y="-420.5" font-family="Helvetica,sans-Serif" font-size="10.00">+ config()</text>
<text text-anchor="start" x="123" y="-409.5" font-family="Helvetica,sans-Serif" font-size="10.00">+ connect()</text>
<text text-anchor="start" x="123" y="-398.5" font-family="Helvetica,sans-Serif" font-size="10.00">+ state()</text>
<text text-anchor="start" x="123" y="-387.5" font-family="Helvetica,sans-Serif" font-size="10.00">+ printConf()</text>
<text text-anchor="start" x="123" y="-376.5" font-family="Helvetica,sans-Serif" font-size="10.00">+ addWifi()</text>
</a>
</g>
</g>
<!-- Node3&#45;&gt;Node1 -->
<g id="edge2" class="edge"><title>Node3&#45;&gt;Node1</title>
<path fill="none" stroke="#404040" d="M167.337,-369.346C173.929,-349.897 183.018,-330.151 195.5,-314 249.962,-243.531 340.438,-192.818 403.762,-163.635"/>
<polygon fill="none" stroke="#404040" points="403.929,-163.56 407.745,-157.442 414.861,-158.612 411.044,-164.73 403.929,-163.56"/>
<text text-anchor="middle" x="249" y="-288" font-family="Helvetica,sans-Serif" font-size="10.00"> &#45;wifiManager</text>
</g>
<!-- Node4 -->
<g id="node4" class="node"><title>Node4</title>
<g id="a_node4"><a xlink:href="classCoolBoardLed.html" target="_top" xlink:title="This class handles the led in the Sensor Board. ">
<polygon fill="white" stroke="black" points="204.5,-369.5 204.5,-536.5 282.5,-536.5 282.5,-369.5 204.5,-369.5"/>
<text text-anchor="middle" x="243.5" y="-524.5" font-family="Helvetica,sans-Serif" font-size="10.00">CoolBoardLed</text>
<polyline fill="none" stroke="black" points="204.5,-517.5 282.5,-517.5 "/>
<text text-anchor="start" x="212.5" y="-505.5" font-family="Helvetica,sans-Serif" font-size="10.00">&#45; neoPixelLed</text>
<text text-anchor="start" x="212.5" y="-494.5" font-family="Helvetica,sans-Serif" font-size="10.00">&#45; ledActive</text>
<polyline fill="none" stroke="black" points="204.5,-487.5 282.5,-487.5 "/>
<text text-anchor="start" x="212.5" y="-475.5" font-family="Helvetica,sans-Serif" font-size="10.00">+ begin()</text>
<text text-anchor="start" x="212.5" y="-464.5" font-family="Helvetica,sans-Serif" font-size="10.00">+ write()</text>
<text text-anchor="start" x="212.5" y="-453.5" font-family="Helvetica,sans-Serif" font-size="10.00">+ end()</text>
<text text-anchor="start" x="212.5" y="-442.5" font-family="Helvetica,sans-Serif" font-size="10.00">+ config()</text>
<text text-anchor="start" x="212.5" y="-431.5" font-family="Helvetica,sans-Serif" font-size="10.00">+ printConf()</text>
<text text-anchor="start" x="212.5" y="-420.5" font-family="Helvetica,sans-Serif" font-size="10.00">+ fade()</text>
<text text-anchor="start" x="212.5" y="-409.5" font-family="Helvetica,sans-Serif" font-size="10.00">+ blink()</text>
<text text-anchor="start" x="212.5" y="-398.5" font-family="Helvetica,sans-Serif" font-size="10.00">+ fadeIn()</text>
<text text-anchor="start" x="212.5" y="-387.5" font-family="Helvetica,sans-Serif" font-size="10.00">+ fadeOut()</text>
<text text-anchor="start" x="212.5" y="-376.5" font-family="Helvetica,sans-Serif" font-size="10.00">+ strobe()</text>
</a>
</g>
</g>
<!-- Node4&#45;&gt;Node1 -->
<g id="edge3" class="edge"><title>Node4&#45;&gt;Node1</title>
<path fill="none" stroke="#404040" d="M265.321,-369.206C272.173,-350.279 280.817,-330.804 291.5,-314 321.848,-266.261 367.254,-221.789 405.366,-189.054"/>
<polygon fill="none" stroke="#404040" points="405.728,-188.746 407.721,-181.816 414.884,-180.989 412.892,-187.92 405.728,-188.746"/>
<text text-anchor="middle" x="345.5" y="-288" font-family="Helvetica,sans-Serif" font-size="10.00"> &#45;coolBoardLed</text>
</g>
<!-- Node5 -->
<g id="node5" class="node"><title>Node5</title>
<g id="a_node5"><a xlink:href="classExternalSensors.html" target="_top" xlink:title="This class handles the external sensors run time defintion , configuartion and actions. ">
<polygon fill="white" stroke="black" points="300.5,-408 300.5,-498 392.5,-498 392.5,-408 300.5,-408"/>
<text text-anchor="middle" x="346.5" y="-486" font-family="Helvetica,sans-Serif" font-size="10.00">ExternalSensors</text>
<polyline fill="none" stroke="black" points="300.5,-479 392.5,-479 "/>
<text text-anchor="start" x="308.5" y="-467" font-family="Helvetica,sans-Serif" font-size="10.00">&#45; sensorsNumber</text>
<polyline fill="none" stroke="black" points="300.5,-460 392.5,-460 "/>
<text text-anchor="start" x="308.5" y="-448" font-family="Helvetica,sans-Serif" font-size="10.00">+ begin()</text>
<text text-anchor="start" x="308.5" y="-437" font-family="Helvetica,sans-Serif" font-size="10.00">+ read()</text>
<text text-anchor="start" x="308.5" y="-426" font-family="Helvetica,sans-Serif" font-size="10.00">+ config()</text>
<text text-anchor="start" x="308.5" y="-415" font-family="Helvetica,sans-Serif" font-size="10.00">+ printConf()</text>
</a>
</g>
</g>
<!-- Node5&#45;&gt;Node1 -->
<g id="edge4" class="edge"><title>Node5&#45;&gt;Node1</title>
<path fill="none" stroke="#404040" d="M356.44,-407.885C364.791,-373.706 377.999,-325.51 394.5,-285 398.991,-273.974 404.065,-262.706 409.427,-251.545"/>
<polygon fill="none" stroke="#404040" points="409.593,-251.206 408.643,-244.058 414.875,-240.431 415.826,-247.579 409.593,-251.206"/>
<text text-anchor="middle" x="433" y="-288" font-family="Helvetica,sans-Serif" font-size="10.00"> &#45;externalSensors</text>
</g>
<!-- Node6 -->
<g id="node6" class="node"><title>Node6</title>
<g id="a_node6"><a xlink:href="structExternalSensors_1_1sensor.html" target="_top" xlink:title="{ExternalSensors::sensor\n|+ reference\l+ type\l+ address\l|}">
<polygon fill="white" stroke="black" points="98.5,-689 98.5,-768 222.5,-768 222.5,-689 98.5,-689"/>
<text text-anchor="middle" x="160.5" y="-756" font-family="Helvetica,sans-Serif" font-size="10.00">ExternalSensors::sensor</text>
<polyline fill="none" stroke="black" points="98.5,-749 222.5,-749 "/>
<text text-anchor="start" x="106.5" y="-737" font-family="Helvetica,sans-Serif" font-size="10.00">+ reference</text>
<text text-anchor="start" x="106.5" y="-726" font-family="Helvetica,sans-Serif" font-size="10.00">+ type</text>
<text text-anchor="start" x="106.5" y="-715" font-family="Helvetica,sans-Serif" font-size="10.00">+ address</text>
<polyline fill="none" stroke="black" points="98.5,-708 222.5,-708 "/>
<text text-anchor="middle" x="160.5" y="-696" font-family="Helvetica,sans-Serif" font-size="10.00"> </text>
</a>
</g>
</g>
<!-- Node6&#45;&gt;Node5 -->
<g id="edge5" class="edge"><title>Node6&#45;&gt;Node5</title>
<path fill="none" stroke="#404040" d="M201.11,-688.921C234.348,-656.737 277.999,-612.884 291.5,-592 307.831,-566.737 320.698,-535.848 329.867,-509.704"/>
<polygon fill="none" stroke="#404040" points="329.962,-509.426 328.103,-502.458 333.819,-498.063 335.678,-505.03 329.962,-509.426"/>
<text text-anchor="middle" x="298" y="-624" font-family="Helvetica,sans-Serif" font-size="10.00"> &#45;sensors</text>
</g>
<!-- Node7 -->
<g id="node7" class="node"><title>Node7</title>
<g id="a_node7"><a xlink:href="classBaseExternalSensor.html" target="_top" xlink:title="This class is a generic external Sensor it is a way to access real external sensor methods through ru...">
<polygon fill="white" stroke="black" points="100,-843.5 100,-922.5 221,-922.5 221,-843.5 100,-843.5"/>
<text text-anchor="middle" x="160.5" y="-910.5" font-family="Helvetica,sans-Serif" font-size="10.00">BaseExternalSensor</text>
<polyline fill="none" stroke="black" points="100,-903.5 221,-903.5 "/>
<text text-anchor="middle" x="160.5" y="-891.5" font-family="Helvetica,sans-Serif" font-size="10.00"> </text>
<polyline fill="none" stroke="black" points="100,-884.5 221,-884.5 "/>
<text text-anchor="start" x="108" y="-872.5" font-family="Helvetica,sans-Serif" font-size="10.00">+ BaseExternalSensor()</text>
<text text-anchor="start" x="108" y="-861.5" font-family="Helvetica,sans-Serif" font-size="10.00">+ begin()</text>
<text text-anchor="start" x="108" y="-850.5" font-family="Helvetica,sans-Serif" font-size="10.00">+ read()</text>
</a>
</g>
</g>
<!-- Node7&#45;&gt;Node6 -->
<g id="edge6" class="edge"><title>Node7&#45;&gt;Node6</title>
<path fill="none" stroke="#404040" d="M160.5,-843.123C160.5,-823.96 160.5,-800.612 160.5,-780.077"/>
<polygon fill="none" stroke="#404040" points="160.5,-780.041 156.5,-774.041 160.5,-768.041 164.5,-774.041 160.5,-780.041"/>
<text text-anchor="middle" x="186" y="-817" font-family="Helvetica,sans-Serif" font-size="10.00"> +exSensor</text>
</g>
<!-- Node8 -->
<g id="node8" class="node"><title>Node8</title>
<g id="a_node8"><a xlink:href="classCoolBoardSensors.html" target="_top" xlink:title="This class handles the On&#45;Board Sensors. ">
<polygon fill="white" stroke="black" points="411,-331 411,-575 540,-575 540,-331 411,-331"/>
<text text-anchor="middle" x="475.5" y="-563" font-family="Helvetica,sans-Serif" font-size="10.00">CoolBoardSensors</text>
<polyline fill="none" stroke="black" points="411,-556 540,-556 "/>
<text text-anchor="start" x="419" y="-544" font-family="Helvetica,sans-Serif" font-size="10.00">+ lightSensor</text>
<text text-anchor="start" x="419" y="-533" font-family="Helvetica,sans-Serif" font-size="10.00">+ envSensor</text>
<text text-anchor="start" x="419" y="-522" font-family="Helvetica,sans-Serif" font-size="10.00">&#45; EnMoisture</text>
<text text-anchor="start" x="419" y="-511" font-family="Helvetica,sans-Serif" font-size="10.00">&#45; AnMplex</text>
<text text-anchor="start" x="419" y="-500" font-family="Helvetica,sans-Serif" font-size="10.00">&#45; EnI2C</text>
<text text-anchor="start" x="419" y="-489" font-family="Helvetica,sans-Serif" font-size="10.00">&#45; vbatActive</text>
<text text-anchor="start" x="419" y="-478" font-family="Helvetica,sans-Serif" font-size="10.00">&#45; soilMoistureActive</text>
<polyline fill="none" stroke="black" points="411,-471 540,-471 "/>
<text text-anchor="start" x="419" y="-459" font-family="Helvetica,sans-Serif" font-size="10.00">+ CoolBoardSensors()</text>
<text text-anchor="start" x="419" y="-448" font-family="Helvetica,sans-Serif" font-size="10.00">+ begin()</text>
<text text-anchor="start" x="419" y="-437" font-family="Helvetica,sans-Serif" font-size="10.00">+ read()</text>
<text text-anchor="start" x="419" y="-426" font-family="Helvetica,sans-Serif" font-size="10.00">+ allActive()</text>
<text text-anchor="start" x="419" y="-415" font-family="Helvetica,sans-Serif" font-size="10.00">+ initReadI2C()</text>
<text text-anchor="start" x="419" y="-404" font-family="Helvetica,sans-Serif" font-size="10.00">+ stopReadI2C()</text>
<text text-anchor="start" x="419" y="-393" font-family="Helvetica,sans-Serif" font-size="10.00">+ end()</text>
<text text-anchor="start" x="419" y="-382" font-family="Helvetica,sans-Serif" font-size="10.00">+ config()</text>
<text text-anchor="start" x="419" y="-371" font-family="Helvetica,sans-Serif" font-size="10.00">+ printConf()</text>
<text text-anchor="start" x="419" y="-360" font-family="Helvetica,sans-Serif" font-size="10.00">+ setEnvSensorSettings()</text>
<text text-anchor="start" x="419" y="-349" font-family="Helvetica,sans-Serif" font-size="10.00">+ readVBat()</text>
<text text-anchor="start" x="419" y="-338" font-family="Helvetica,sans-Serif" font-size="10.00">+ readMoisture()</text>
</a>
</g>
</g>
<!-- Node8&#45;&gt;Node1 -->
<g id="edge7" class="edge"><title>Node8&#45;&gt;Node1</title>
<path fill="none" stroke="#404040" d="M475.5,-330.608C475.5,-313.692 475.5,-296.177 475.5,-278.89"/>
<polygon fill="none" stroke="#404040" points="475.5,-278.663 471.5,-272.663 475.5,-266.663 479.5,-272.663 475.5,-278.663"/>
<text text-anchor="middle" x="518.5" y="-288" font-family="Helvetica,sans-Serif" font-size="10.00"> &#45;coolBoardSensors</text>
</g>
<!-- Node9 -->
<g id="node9" class="node"><title>Node9</title>
<g id="a_node9"><a xlink:href="structCoolBoardSensors_1_1airActive.html" target="_top" xlink:title="{CoolBoardSensors::airActive\n|+ temperature\l+ humidity\l+ pressure\l|}">
<polygon fill="white" stroke="black" points="241,-689 241,-768 384,-768 384,-689 241,-689"/>
<text text-anchor="middle" x="312.5" y="-756" font-family="Helvetica,sans-Serif" font-size="10.00">CoolBoardSensors::airActive</text>
<polyline fill="none" stroke="black" points="241,-749 384,-749 "/>
<text text-anchor="start" x="249" y="-737" font-family="Helvetica,sans-Serif" font-size="10.00">+ temperature</text>
<text text-anchor="start" x="249" y="-726" font-family="Helvetica,sans-Serif" font-size="10.00">+ humidity</text>
<text text-anchor="start" x="249" y="-715" font-family="Helvetica,sans-Serif" font-size="10.00">+ pressure</text>
<polyline fill="none" stroke="black" points="241,-708 384,-708 "/>
<text text-anchor="middle" x="312.5" y="-696" font-family="Helvetica,sans-Serif" font-size="10.00"> </text>
</a>
</g>
</g>
<!-- Node9&#45;&gt;Node8 -->
<g id="edge8" class="edge"><title>Node9&#45;&gt;Node8</title>
<path fill="none" stroke="#404040" d="M339.138,-688.949C357.331,-662.146 381.641,-625.379 401.5,-592 402.725,-589.941 403.953,-587.86 405.183,-585.762"/>
<polygon fill="none" stroke="#404040" points="405.322,-585.522 404.87,-578.325 411.339,-575.139 411.792,-582.336 405.322,-585.522"/>
<text text-anchor="middle" x="423.5" y="-624" font-family="Helvetica,sans-Serif" font-size="10.00"> &#45;airDataActive</text>
</g>
<!-- Node10 -->
<g id="node10" class="node"><title>Node10</title>
<g id="a_node10"><a xlink:href="structCoolBoardSensors_1_1lightActive.html" target="_top" xlink:title="{CoolBoardSensors::lightActive\n|+ visible\l+ ir\l+ uv\l|}">
<polygon fill="white" stroke="black" points="402.5,-689 402.5,-768 552.5,-768 552.5,-689 402.5,-689"/>
<text text-anchor="middle" x="477.5" y="-756" font-family="Helvetica,sans-Serif" font-size="10.00">CoolBoardSensors::lightActive</text>
<polyline fill="none" stroke="black" points="402.5,-749 552.5,-749 "/>
<text text-anchor="start" x="410.5" y="-737" font-family="Helvetica,sans-Serif" font-size="10.00">+ visible</text>
<text text-anchor="start" x="410.5" y="-726" font-family="Helvetica,sans-Serif" font-size="10.00">+ ir</text>
<text text-anchor="start" x="410.5" y="-715" font-family="Helvetica,sans-Serif" font-size="10.00">+ uv</text>
<polyline fill="none" stroke="black" points="402.5,-708 552.5,-708 "/>
<text text-anchor="middle" x="477.5" y="-696" font-family="Helvetica,sans-Serif" font-size="10.00"> </text>
</a>
</g>
</g>
<!-- Node10&#45;&gt;Node8 -->
<g id="edge9" class="edge"><title>Node10&#45;&gt;Node8</title>
<path fill="none" stroke="#404040" d="M477.218,-688.894C477.021,-661.989 476.746,-624.37 476.473,-587.111"/>
<polygon fill="none" stroke="#404040" points="476.473,-587.041 472.429,-581.07 476.385,-575.041 480.429,-581.012 476.473,-587.041"/>
<text text-anchor="middle" x="514" y="-624" font-family="Helvetica,sans-Serif" font-size="10.00"> &#45;lightDataActive</text>
</g>
<!-- Node11 -->
<g id="node11" class="node"><title>Node11</title>
<g id="a_node11"><a xlink:href="classIrene3000.html" target="_top" xlink:title="This class is provided to manage the Irene3000 Ph/Temperature Shield. ">
<polygon fill="white" stroke="black" points="558,-342 558,-564 671,-564 671,-342 558,-342"/>
<text text-anchor="middle" x="614.5" y="-552" font-family="Helvetica,sans-Serif" font-size="10.00">Irene3000</text>
<polyline fill="none" stroke="black" points="558,-545 671,-545 "/>
<text text-anchor="start" x="566" y="-533" font-family="Helvetica,sans-Serif" font-size="10.00">&#45; ads</text>
<text text-anchor="start" x="566" y="-522" font-family="Helvetica,sans-Serif" font-size="10.00">&#45; vRef</text>
<text text-anchor="start" x="566" y="-511" font-family="Helvetica,sans-Serif" font-size="10.00">&#45; opampGain</text>
<polyline fill="none" stroke="black" points="558,-504 671,-504 "/>
<text text-anchor="start" x="566" y="-492" font-family="Helvetica,sans-Serif" font-size="10.00">+ begin()</text>
<text text-anchor="start" x="566" y="-481" font-family="Helvetica,sans-Serif" font-size="10.00">+ config()</text>
<text text-anchor="start" x="566" y="-470" font-family="Helvetica,sans-Serif" font-size="10.00">+ printConf()</text>
<text text-anchor="start" x="566" y="-459" font-family="Helvetica,sans-Serif" font-size="10.00">+ read()</text>
<text text-anchor="start" x="566" y="-448" font-family="Helvetica,sans-Serif" font-size="10.00">+ readButton()</text>
<text text-anchor="start" x="566" y="-437" font-family="Helvetica,sans-Serif" font-size="10.00">+ setGain()</text>
<text text-anchor="start" x="566" y="-426" font-family="Helvetica,sans-Serif" font-size="10.00">+ readADSChannel2()</text>
<text text-anchor="start" x="566" y="-415" font-family="Helvetica,sans-Serif" font-size="10.00">+ readPh()</text>
<text text-anchor="start" x="566" y="-404" font-family="Helvetica,sans-Serif" font-size="10.00">+ readTemp()</text>
<text text-anchor="start" x="566" y="-393" font-family="Helvetica,sans-Serif" font-size="10.00">+ resetParams()</text>
<text text-anchor="start" x="566" y="-382" font-family="Helvetica,sans-Serif" font-size="10.00">+ calibratepH7()</text>
<text text-anchor="start" x="566" y="-371" font-family="Helvetica,sans-Serif" font-size="10.00">+ calibratepH4()</text>
<text text-anchor="start" x="566" y="-360" font-family="Helvetica,sans-Serif" font-size="10.00">+ calcpHSlope()</text>
<text text-anchor="start" x="566" y="-349" font-family="Helvetica,sans-Serif" font-size="10.00">+ gainConvert()</text>
</a>
</g>
</g>
<!-- Node11&#45;&gt;Node1 -->
<g id="edge10" class="edge"><title>Node11&#45;&gt;Node1</title>
<path fill="none" stroke="#404040" d="M586.512,-341.883C580.399,-322.618 573.368,-302.995 565.5,-285 558.712,-269.475 550.622,-253.587 542.116,-238.228"/>
<polygon fill="none" stroke="#404040" points="542.068,-238.142 535.636,-234.881 536.172,-227.69 542.604,-230.951 542.068,-238.142"/>
<text text-anchor="middle" x="594" y="-288" font-family="Helvetica,sans-Serif" font-size="10.00"> &#45;irene3000</text>
</g>
<!-- Node12 -->
<g id="node12" class="node"><title>Node12</title>
<g id="a_node12"><a xlink:href="structIrene3000_1_1state.html" target="_top" xlink:title="{Irene3000::state\n|+ active\l+ gain\l+ type\l|}">
<polygon fill="white" stroke="black" points="571,-689 571,-768 658,-768 658,-689 571,-689"/>
<text text-anchor="middle" x="614.5" y="-756" font-family="Helvetica,sans-Serif" font-size="10.00">Irene3000::state</text>
<polyline fill="none" stroke="black" points="571,-749 658,-749 "/>
<text text-anchor="start" x="579" y="-737" font-family="Helvetica,sans-Serif" font-size="10.00">+ active</text>
<text text-anchor="start" x="579" y="-726" font-family="Helvetica,sans-Serif" font-size="10.00">+ gain</text>
<text text-anchor="start" x="579" y="-715" font-family="Helvetica,sans-Serif" font-size="10.00">+ type</text>
<polyline fill="none" stroke="black" points="571,-708 658,-708 "/>
<text text-anchor="middle" x="614.5" y="-696" font-family="Helvetica,sans-Serif" font-size="10.00"> </text>
</a>
</g>
</g>
<!-- Node12&#45;&gt;Node11 -->
<g id="edge11" class="edge"><title>Node12&#45;&gt;Node11</title>
<path fill="none" stroke="#404040" d="M614.5,-688.894C614.5,-659.407 614.5,-617.051 614.5,-576.405"/>
<polygon fill="none" stroke="#404040" points="614.5,-576.148 610.5,-570.148 614.5,-564.148 618.5,-570.148 614.5,-576.148"/>
<text text-anchor="middle" x="642" y="-635" font-family="Helvetica,sans-Serif" font-size="10.00"> &#45;waterTemp</text>
<text text-anchor="middle" x="642" y="-624" font-family="Helvetica,sans-Serif" font-size="10.00">&#45;phProbe</text>
<text text-anchor="middle" x="642" y="-613" font-family="Helvetica,sans-Serif" font-size="10.00">&#45;adc2</text>
</g>
<!-- Node13 -->
<g id="node13" class="node"><title>Node13</title>
<g id="a_node13"><a xlink:href="structIrene3000_1_1parameters__T.html" target="_top" xlink:title="{Irene3000::parameters_T\n|+ WriteCheck\l+ pH7Cal\l+ pH4Cal\l+ pHStep\l|}">
<polygon fill="white" stroke="black" points="676,-683.5 676,-773.5 801,-773.5 801,-683.5 676,-683.5"/>
<text text-anchor="middle" x="738.5" y="-761.5" font-family="Helvetica,sans-Serif" font-size="10.00">Irene3000::parameters_T</text>
<polyline fill="none" stroke="black" points="676,-754.5 801,-754.5 "/>
<text text-anchor="start" x="684" y="-742.5" font-family="Helvetica,sans-Serif" font-size="10.00">+ WriteCheck</text>
<text text-anchor="start" x="684" y="-731.5" font-family="Helvetica,sans-Serif" font-size="10.00">+ pH7Cal</text>
<text text-anchor="start" x="684" y="-720.5" font-family="Helvetica,sans-Serif" font-size="10.00">+ pH4Cal</text>
<text text-anchor="start" x="684" y="-709.5" font-family="Helvetica,sans-Serif" font-size="10.00">+ pHStep</text>
<polyline fill="none" stroke="black" points="676,-702.5 801,-702.5 "/>
<text text-anchor="middle" x="738.5" y="-690.5" font-family="Helvetica,sans-Serif" font-size="10.00"> </text>
</a>
</g>
</g>
<!-- Node13&#45;&gt;Node11 -->
<g id="edge12" class="edge"><title>Node13&#45;&gt;Node11</title>
<path fill="none" stroke="#404040" d="M718.439,-683.254C705.151,-653.944 687.024,-613.963 669.628,-575.593"/>
<polygon fill="none" stroke="#404040" points="669.458,-575.218 663.338,-571.405 664.503,-564.289 670.624,-568.102 669.458,-575.218"/>
<text text-anchor="middle" x="718" y="-624" font-family="Helvetica,sans-Serif" font-size="10.00"> &#45;params</text>
</g>
<!-- Node14 -->
<g id="node14" class="node"><title>Node14</title>
<g id="a_node14"><a xlink:href="classCoolFileSystem.html" target="_top" xlink:title="This class handles the file system. ">
<polygon fill="white" stroke="black" points="689,-391.5 689,-514.5 814,-514.5 814,-391.5 689,-391.5"/>
<text text-anchor="middle" x="751.5" y="-502.5" font-family="Helvetica,sans-Serif" font-size="10.00">CoolFileSystem</text>
<polyline fill="none" stroke="black" points="689,-495.5 814,-495.5 "/>
<text text-anchor="start" x="697" y="-483.5" font-family="Helvetica,sans-Serif" font-size="10.00">&#45; savedData</text>
<polyline fill="none" stroke="black" points="689,-476.5 814,-476.5 "/>
<text text-anchor="start" x="697" y="-464.5" font-family="Helvetica,sans-Serif" font-size="10.00">+ begin()</text>
<text text-anchor="start" x="697" y="-453.5" font-family="Helvetica,sans-Serif" font-size="10.00">+ updateConfigFiles()</text>
<text text-anchor="start" x="697" y="-442.5" font-family="Helvetica,sans-Serif" font-size="10.00">+ fileUpdate()</text>
<text text-anchor="start" x="697" y="-431.5" font-family="Helvetica,sans-Serif" font-size="10.00">+ saveSensorData()</text>
<text text-anchor="start" x="697" y="-420.5" font-family="Helvetica,sans-Serif" font-size="10.00">+ saveSensorDataCSV()</text>
<text text-anchor="start" x="697" y="-409.5" font-family="Helvetica,sans-Serif" font-size="10.00">+ isDataSaved()</text>
<text text-anchor="start" x="697" y="-398.5" font-family="Helvetica,sans-Serif" font-size="10.00">+ getSensorSavedData()</text>
</a>
</g>
</g>
<!-- Node14&#45;&gt;Node1 -->
<g id="edge13" class="edge"><title>Node14&#45;&gt;Node1</title>
<path fill="none" stroke="#404040" d="M725.855,-391.365C713.716,-366.159 697.843,-337.391 679.5,-314 641.149,-265.097 588.247,-218.99 545.925,-185.753"/>
<polygon fill="none" stroke="#404040" points="545.715,-185.589 538.522,-185.065 536.24,-178.225 543.432,-178.749 545.715,-185.589"/>
<text text-anchor="middle" x="688" y="-288" font-family="Helvetica,sans-Serif" font-size="10.00"> &#45;fileSystem</text>
</g>
<!-- Node15 -->
<g id="node15" class="node"><title>Node15</title>
<g id="a_node15"><a xlink:href="classJetpack.html" target="_top" xlink:title="This class manages the Jetpack shield. ">
<polygon fill="white" stroke="black" points="832,-380.5 832,-525.5 903,-525.5 903,-380.5 832,-380.5"/>
<text text-anchor="middle" x="867.5" y="-513.5" font-family="Helvetica,sans-Serif" font-size="10.00">Jetpack</text>
<polyline fill="none" stroke="black" points="832,-506.5 903,-506.5 "/>
<text text-anchor="start" x="840" y="-494.5" font-family="Helvetica,sans-Serif" font-size="10.00">&#45; action</text>
<text text-anchor="start" x="840" y="-483.5" font-family="Helvetica,sans-Serif" font-size="10.00">&#45; clockPin</text>
<text text-anchor="start" x="840" y="-472.5" font-family="Helvetica,sans-Serif" font-size="10.00">&#45; dataPin</text>
<text text-anchor="start" x="840" y="-461.5" font-family="Helvetica,sans-Serif" font-size="10.00">&#45; EnI2C</text>
<polyline fill="none" stroke="black" points="832,-454.5 903,-454.5 "/>
<text text-anchor="start" x="840" y="-442.5" font-family="Helvetica,sans-Serif" font-size="10.00">+ begin()</text>
<text text-anchor="start" x="840" y="-431.5" font-family="Helvetica,sans-Serif" font-size="10.00">+ write()</text>
<text text-anchor="start" x="840" y="-420.5" font-family="Helvetica,sans-Serif" font-size="10.00">+ writeBit()</text>
<text text-anchor="start" x="840" y="-409.5" font-family="Helvetica,sans-Serif" font-size="10.00">+ doAction()</text>
<text text-anchor="start" x="840" y="-398.5" font-family="Helvetica,sans-Serif" font-size="10.00">+ config()</text>
<text text-anchor="start" x="840" y="-387.5" font-family="Helvetica,sans-Serif" font-size="10.00">+ printConf()</text>
</a>
</g>
</g>
<!-- Node15&#45;&gt;Node1 -->
<g id="edge14" class="edge"><title>Node15&#45;&gt;Node1</title>
<path fill="none" stroke="#404040" d="M855.406,-380.337C848.728,-357.203 838.409,-332.724 822.5,-314 749.918,-228.578 626.434,-178.64 548.018,-153.971"/>
<polygon fill="none" stroke="#404040" points="547.781,-153.898 540.87,-155.957 536.311,-150.37 543.222,-148.31 547.781,-153.898"/>
<text text-anchor="middle" x="821.5" y="-288" font-family="Helvetica,sans-Serif" font-size="10.00"> &#45;jetPack</text>
</g>
<!-- Node16 -->
<g id="node16" class="node"><title>Node16</title>
<g id="a_node16"><a xlink:href="structJetpack_1_1state.html" target="_top" xlink:title="{Jetpack::state\n|+ type\l+ actif\l+ low\l+ high\l+ temporal\l+ actifTime\l+ inactifTime\l+ inverted\l|}">
<polygon fill="white" stroke="black" points="828,-661.5 828,-795.5 907,-795.5 907,-661.5 828,-661.5"/>
<text text-anchor="middle" x="867.5" y="-783.5" font-family="Helvetica,sans-Serif" font-size="10.00">Jetpack::state</text>
<polyline fill="none" stroke="black" points="828,-776.5 907,-776.5 "/>
<text text-anchor="start" x="836" y="-764.5" font-family="Helvetica,sans-Serif" font-size="10.00">+ type</text>
<text text-anchor="start" x="836" y="-753.5" font-family="Helvetica,sans-Serif" font-size="10.00">+ actif</text>
<text text-anchor="start" x="836" y="-742.5" font-family="Helvetica,sans-Serif" font-size="10.00">+ low</text>
<text text-anchor="start" x="836" y="-731.5" font-family="Helvetica,sans-Serif" font-size="10.00">+ high</text>
<text text-anchor="start" x="836" y="-720.5" font-family="Helvetica,sans-Serif" font-size="10.00">+ temporal</text>
<text text-anchor="start" x="836" y="-709.5" font-family="Helvetica,sans-Serif" font-size="10.00">+ actifTime</text>
<text text-anchor="start" x="836" y="-698.5" font-family="Helvetica,sans-Serif" font-size="10.00">+ inactifTime</text>
<text text-anchor="start" x="836" y="-687.5" font-family="Helvetica,sans-Serif" font-size="10.00">+ inverted</text>
<polyline fill="none" stroke="black" points="828,-680.5 907,-680.5 "/>
<text text-anchor="middle" x="867.5" y="-668.5" font-family="Helvetica,sans-Serif" font-size="10.00"> </text>
</a>
</g>
</g>
<!-- Node16&#45;&gt;Node15 -->
<g id="edge15" class="edge"><title>Node16&#45;&gt;Node15</title>
<path fill="none" stroke="#404040" d="M867.5,-661.293C867.5,-624.186 867.5,-577.536 867.5,-537.891"/>
<polygon fill="none" stroke="#404040" points="867.5,-537.831 863.5,-531.831 867.5,-525.831 871.5,-531.831 867.5,-537.831"/>
<text text-anchor="middle" x="884.5" y="-624" font-family="Helvetica,sans-Serif" font-size="10.00"> &#45;actors</text>
</g>
<!-- Node17 -->
<g id="node17" class="node"><title>Node17</title>
<g id="a_node17"><a xlink:href="classCoolTime.html" target="_top" xlink:title="This class manages the DS1337 RTC . ">
<polygon fill="white" stroke="black" points="921.5,-320 921.5,-586 1029.5,-586 1029.5,-320 921.5,-320"/>
<text text-anchor="middle" x="975.5" y="-574" font-family="Helvetica,sans-Serif" font-size="10.00">CoolTime</text>
<polyline fill="none" stroke="black" points="921.5,-567 1029.5,-567 "/>
<text text-anchor="start" x="929.5" y="-555" font-family="Helvetica,sans-Serif" font-size="10.00">&#45; timeSync</text>
<text text-anchor="start" x="929.5" y="-544" font-family="Helvetica,sans-Serif" font-size="10.00">&#45; timeServer</text>
<text text-anchor="start" x="929.5" y="-533" font-family="Helvetica,sans-Serif" font-size="10.00">&#45; Udp</text>
<text text-anchor="start" x="929.5" y="-522" font-family="Helvetica,sans-Serif" font-size="10.00">&#45; localPort</text>
<text text-anchor="start" x="929.5" y="-511" font-family="Helvetica,sans-Serif" font-size="10.00">&#45; packetBuffer</text>
<text text-anchor="start" x="929.5" y="-500" font-family="Helvetica,sans-Serif" font-size="10.00">&#45; tmSet</text>
<text text-anchor="start" x="929.5" y="-489" font-family="Helvetica,sans-Serif" font-size="10.00">&#45; rtc</text>
<polyline fill="none" stroke="black" points="921.5,-482 1029.5,-482 "/>
<text text-anchor="start" x="929.5" y="-470" font-family="Helvetica,sans-Serif" font-size="10.00">+ begin()</text>
<text text-anchor="start" x="929.5" y="-459" font-family="Helvetica,sans-Serif" font-size="10.00">+ update()</text>
<text text-anchor="start" x="929.5" y="-448" font-family="Helvetica,sans-Serif" font-size="10.00">+ config()</text>
<text text-anchor="start" x="929.5" y="-437" font-family="Helvetica,sans-Serif" font-size="10.00">+ config()</text>
<text text-anchor="start" x="929.5" y="-426" font-family="Helvetica,sans-Serif" font-size="10.00">+ printConf()</text>
<text text-anchor="start" x="929.5" y="-415" font-family="Helvetica,sans-Serif" font-size="10.00">+ setDateTime()</text>
<text text-anchor="start" x="929.5" y="-404" font-family="Helvetica,sans-Serif" font-size="10.00">+ getTimeDate()</text>
<text text-anchor="start" x="929.5" y="-393" font-family="Helvetica,sans-Serif" font-size="10.00">+ getESDate()</text>
<text text-anchor="start" x="929.5" y="-382" font-family="Helvetica,sans-Serif" font-size="10.00">+ getLastSyncTime()</text>
<text text-anchor="start" x="929.5" y="-371" font-family="Helvetica,sans-Serif" font-size="10.00">+ isTimeSync()</text>
<text text-anchor="start" x="929.5" y="-360" font-family="Helvetica,sans-Serif" font-size="10.00">+ getNtpTime()</text>
<text text-anchor="start" x="929.5" y="-349" font-family="Helvetica,sans-Serif" font-size="10.00">+ sendNTPpacket()</text>
<text text-anchor="start" x="929.5" y="-338" font-family="Helvetica,sans-Serif" font-size="10.00">+ formatDigits()</text>
<text text-anchor="start" x="929.5" y="-327" font-family="Helvetica,sans-Serif" font-size="10.00">+ saveTimeSync()</text>
</a>
</g>
</g>
<!-- Node17&#45;&gt;Node1 -->
<g id="edge16" class="edge"><title>Node17&#45;&gt;Node1</title>
<path fill="none" stroke="#404040" d="M921.465,-324.888C918.309,-321.066 914.99,-317.42 911.5,-314 809.177,-213.728 642.983,-166.663 548.073,-146.921"/>
<polygon fill="none" stroke="#404040" points="548.058,-146.918 541.383,-149.647 536.297,-144.536 542.972,-141.806 548.058,-146.918"/>
<text text-anchor="middle" x="892.5" y="-288" font-family="Helvetica,sans-Serif" font-size="10.00"> &#45;rtc</text>
</g>
</g>
</svg>
