<?xml version="1.0" encoding="UTF-8" standalone="no"?>
<!DOCTYPE svg PUBLIC "-//W3C//DTD SVG 1.1//EN"
 "http://www.w3.org/Graphics/SVG/1.1/DTD/svg11.dtd">
<!-- Generated by graphviz version 2.38.0 (20140413.2041)
 -->
<!-- Title: Irene3000::setGain Pages: 1 -->
<svg width="726pt" height="218pt"
 viewBox="0.00 0.00 726.00 218.00" xmlns="http://www.w3.org/2000/svg" xmlns:xlink="http://www.w3.org/1999/xlink">
<g id="graph0" class="graph" transform="scale(1 1) rotate(0) translate(4 214)">
<title>Irene3000::setGain</title>
<polygon fill="white" stroke="none" points="-4,4 -4,-214 722,-214 722,4 -4,4"/>
<!-- Node62 -->
<g id="node1" class="node"><title>Node62</title>
<polygon fill="#bfbfbf" stroke="black" points="0,-95.5 0,-114.5 99,-114.5 99,-95.5 0,-95.5"/>
<text text-anchor="middle" x="49.5" y="-102.5" font-family="Helvetica,sans-Serif" font-size="10.00">Irene3000::setGain</text>
</g>
<!-- Node63 -->
<g id="node2" class="node"><title>Node63</title>
<g id="a_node2"><a xlink:href="classIrene3000.html#a9772eeea2305fad6236a82e33e93892e" target="_top" xlink:title="Irene3000::calibratepH4">
<polygon fill="white" stroke="black" points="148,-190.5 148,-209.5 268,-209.5 268,-190.5 148,-190.5"/>
<text text-anchor="middle" x="208" y="-197.5" font-family="Helvetica,sans-Serif" font-size="10.00">Irene3000::calibratepH4</text>
</a>
</g>
</g>
<!-- Node62&#45;&gt;Node63 -->
<g id="edge1" class="edge"><title>Node62&#45;&gt;Node63</title>
<path fill="none" stroke="midnightblue" d="M65.0629,-122.212C80.651,-139.552 106.952,-165.85 135,-181 142.166,-184.871 150.165,-187.987 158.154,-190.486"/>
<polygon fill="midnightblue" stroke="midnightblue" points="67.5336,-119.721 58.3105,-114.507 62.2691,-124.334 67.5336,-119.721"/>
</g>
<!-- Node64 -->
<g id="node3" class="node"><title>Node64</title>
<g id="a_node3"><a xlink:href="classIrene3000.html#a2e810ddfa8b95eaa2446a408761c6bdc" target="_top" xlink:title="Irene3000::calibratepH7">
<polygon fill="white" stroke="black" points="148,-152.5 148,-171.5 268,-171.5 268,-152.5 148,-152.5"/>
<text text-anchor="middle" x="208" y="-159.5" font-family="Helvetica,sans-Serif" font-size="10.00">Irene3000::calibratepH7</text>
</a>
</g>
</g>
<!-- Node62&#45;&gt;Node64 -->
<g id="edge2" class="edge"><title>Node62&#45;&gt;Node64</title>
<path fill="none" stroke="midnightblue" d="M78.6898,-119.083C94.8945,-126.82 115.788,-136.197 135,-143 144.871,-146.495 155.704,-149.681 165.901,-152.403"/>
<polygon fill="midnightblue" stroke="midnightblue" points="79.7884,-115.726 69.263,-114.515 76.736,-122.025 79.7884,-115.726"/>
</g>
<!-- Node65 -->
<g id="node4" class="node"><title>Node65</title>
<g id="a_node4"><a xlink:href="classIrene3000.html#ae73bd2ed14a199a7e83f4d6458476a7c" target="_top" xlink:title="Irene3000::readADSChannel2">
<polygon fill="white" stroke="black" points="135,-114.5 135,-133.5 281,-133.5 281,-114.5 135,-114.5"/>
<text text-anchor="middle" x="208" y="-121.5" font-family="Helvetica,sans-Serif" font-size="10.00">Irene3000::readADSChannel2</text>
</a>
</g>
</g>
<!-- Node62&#45;&gt;Node65 -->
<g id="edge3" class="edge"><title>Node62&#45;&gt;Node65</title>
<path fill="none" stroke="midnightblue" d="M109.178,-112.124C117.544,-113.14 126.229,-114.194 134.816,-115.236"/>
<polygon fill="midnightblue" stroke="midnightblue" points="109.509,-108.638 99.1597,-110.908 108.665,-115.587 109.509,-108.638"/>
</g>
<!-- Node70 -->
<g id="node9" class="node"><title>Node70</title>
<g id="a_node9"><a xlink:href="classIrene3000.html#ae0e0a5b773c3625b44c1d113c76a1540" target="_top" xlink:title="Irene3000::readButton">
<polygon fill="white" stroke="black" points="151.5,-76.5 151.5,-95.5 264.5,-95.5 264.5,-76.5 151.5,-76.5"/>
<text text-anchor="middle" x="208" y="-83.5" font-family="Helvetica,sans-Serif" font-size="10.00">Irene3000::readButton</text>
</a>
</g>
</g>
<!-- Node62&#45;&gt;Node70 -->
<g id="edge8" class="edge"><title>Node62&#45;&gt;Node70</title>
<path fill="none" stroke="midnightblue" d="M109.445,-97.8437C123.15,-96.1799 137.698,-94.4137 151.259,-92.7672"/>
<polygon fill="midnightblue" stroke="midnightblue" points="108.665,-94.4127 99.1597,-99.0924 109.509,-101.362 108.665,-94.4127"/>
</g>
<!-- Node71 -->
<g id="node10" class="node"><title>Node71</title>
<g id="a_node10"><a xlink:href="classIrene3000.html#abf3db725fabb0634ec889b32068a5eec" target="_top" xlink:title="Irene3000::readPh">
<polygon fill="white" stroke="black" points="160,-38.5 160,-57.5 256,-57.5 256,-38.5 160,-38.5"/>
<text text-anchor="middle" x="208" y="-45.5" font-family="Helvetica,sans-Serif" font-size="10.00">Irene3000::readPh</text>
</a>
</g>
</g>
<!-- Node62&#45;&gt;Node71 -->
<g id="edge9" class="edge"><title>Node62&#45;&gt;Node71</title>
<path fill="none" stroke="midnightblue" d="M78.6898,-90.9171C94.8945,-83.18 115.788,-73.8026 135,-67 144.871,-63.5048 155.704,-60.3193 165.901,-57.5974"/>
<polygon fill="midnightblue" stroke="midnightblue" points="76.736,-87.9745 69.263,-95.4849 79.7884,-94.2739 76.736,-87.9745"/>
</g>
<!-- Node72 -->
<g id="node11" class="node"><title>Node72</title>
<g id="a_node11"><a xlink:href="classIrene3000.html#a94ad40f281d83ad1be20bf1edd6fe802" target="_top" xlink:title="Irene3000::readTemp">
<polygon fill="white" stroke="black" points="153.5,-0.5 153.5,-19.5 262.5,-19.5 262.5,-0.5 153.5,-0.5"/>
<text text-anchor="middle" x="208" y="-7.5" font-family="Helvetica,sans-Serif" font-size="10.00">Irene3000::readTemp</text>
</a>
</g>
</g>
<!-- Node62&#45;&gt;Node72 -->
<g id="edge11" class="edge"><title>Node62&#45;&gt;Node72</title>
<path fill="none" stroke="midnightblue" d="M65.0629,-87.7883C80.651,-70.4476 106.952,-44.1498 135,-29 142.166,-25.1293 150.165,-22.013 158.154,-19.5143"/>
<polygon fill="midnightblue" stroke="midnightblue" points="62.2691,-85.6658 58.3105,-95.4933 67.5336,-90.2794 62.2691,-85.6658"/>
</g>
<!-- Node66 -->
<g id="node5" class="node"><title>Node66</title>
<g id="a_node5"><a xlink:href="classIrene3000.html#a852a170feea994ea1df01c6b245b5d9a" target="_top" xlink:title="Irene3000::read">
<polygon fill="white" stroke="black" points="317,-38.5 317,-57.5 401,-57.5 401,-38.5 317,-38.5"/>
<text text-anchor="middle" x="359" y="-45.5" font-family="Helvetica,sans-Serif" font-size="10.00">Irene3000::read</text>
</a>
</g>
</g>
<!-- Node65&#45;&gt;Node66 -->
<g id="edge4" class="edge"><title>Node65&#45;&gt;Node66</title>
<path fill="none" stroke="midnightblue" d="M265.371,-111.359C270.754,-109.49 276.047,-107.378 281,-105 307.389,-92.33 333.888,-70.1399 347.872,-57.5083"/>
<polygon fill="midnightblue" stroke="midnightblue" points="264.099,-108.091 255.637,-114.466 266.227,-114.76 264.099,-108.091"/>
</g>
<!-- Node67 -->
<g id="node6" class="node"><title>Node67</title>
<g id="a_node6"><a xlink:href="classCoolBoard.html#ad03abdce2e65f520bbf2cff0f2d083cf" target="_top" xlink:title="CoolBoard::readSensors">
<polygon fill="white" stroke="black" points="437,-38.5 437,-57.5 560,-57.5 560,-38.5 437,-38.5"/>
<text text-anchor="middle" x="498.5" y="-45.5" font-family="Helvetica,sans-Serif" font-size="10.00">CoolBoard::readSensors</text>
</a>
</g>
</g>
<!-- Node66&#45;&gt;Node67 -->
<g id="edge5" class="edge"><title>Node66&#45;&gt;Node67</title>
<path fill="none" stroke="midnightblue" d="M411.529,-48C419.823,-48 428.474,-48 436.956,-48"/>
<polygon fill="midnightblue" stroke="midnightblue" points="411.255,-44.5001 401.255,-48 411.254,-51.5001 411.255,-44.5001"/>
</g>
<!-- Node68 -->
<g id="node7" class="node"><title>Node68</title>
<g id="a_node7"><a xlink:href="classCoolBoard.html#ae6b5e1274d760462290192acea4adca8" target="_top" xlink:title="CoolBoard::offLineMode">
<polygon fill="white" stroke="black" points="596,-57.5 596,-76.5 718,-76.5 718,-57.5 596,-57.5"/>
<text text-anchor="middle" x="657" y="-64.5" font-family="Helvetica,sans-Serif" font-size="10.00">CoolBoard::offLineMode</text>
</a>
</g>
</g>
<!-- Node67&#45;&gt;Node68 -->
<g id="edge6" class="edge"><title>Node67&#45;&gt;Node68</title>
<path fill="none" stroke="midnightblue" d="M570.059,-56.5662C578.692,-57.6144 587.452,-58.6779 595.912,-59.7049"/>
<polygon fill="midnightblue" stroke="midnightblue" points="570.356,-53.0767 560.007,-55.3459 569.512,-60.0257 570.356,-53.0767"/>
</g>
<!-- Node69 -->
<g id="node8" class="node"><title>Node69</title>
<g id="a_node8"><a xlink:href="classCoolBoard.html#aa0bbc4bc605e35618d18e68795c61363" target="_top" xlink:title="CoolBoard::onLineMode">
<polygon fill="white" stroke="black" points="596.5,-19.5 596.5,-38.5 717.5,-38.5 717.5,-19.5 596.5,-19.5"/>
<text text-anchor="middle" x="657" y="-26.5" font-family="Helvetica,sans-Serif" font-size="10.00">CoolBoard::onLineMode</text>
</a>
</g>
</g>
<!-- Node67&#45;&gt;Node69 -->
<g id="edge7" class="edge"><title>Node67&#45;&gt;Node69</title>
<path fill="none" stroke="midnightblue" d="M570.207,-39.4158C578.968,-38.3522 587.856,-37.2731 596.427,-36.2325"/>
<polygon fill="midnightblue" stroke="midnightblue" points="569.512,-35.9743 560.007,-40.6541 570.356,-42.9233 569.512,-35.9743"/>
</g>
<!-- Node71&#45;&gt;Node66 -->
<g id="edge10" class="edge"><title>Node71&#45;&gt;Node66</title>
<path fill="none" stroke="midnightblue" d="M266.391,-48C283.153,-48 301.137,-48 316.693,-48"/>
<polygon fill="midnightblue" stroke="midnightblue" points="266.145,-44.5001 256.145,-48 266.144,-51.5001 266.145,-44.5001"/>
</g>
<!-- Node72&#45;&gt;Node66 -->
<g id="edge12" class="edge"><title>Node72&#45;&gt;Node66</title>
<path fill="none" stroke="midnightblue" d="M256.492,-22.1121C277.244,-27.4044 301.228,-33.5213 320.671,-38.4799"/>
<polygon fill="midnightblue" stroke="midnightblue" points="257.154,-18.6689 246.599,-19.589 255.424,-25.4518 257.154,-18.6689"/>
</g>
</g>
</svg>
