<?xml version="1.0" encoding="UTF-8" standalone="no"?>
<!DOCTYPE svg PUBLIC "-//W3C//DTD SVG 1.1//EN"
 "http://www.w3.org/Graphics/SVG/1.1/DTD/svg11.dtd">
<!-- Generated by graphviz version 2.38.0 (20140413.2041)
 -->
<!-- Title: CoolBoard::onLineMode Pages: 1 -->
<svg width="851pt" height="904pt"
 viewBox="0.00 0.00 851.00 904.00" xmlns="http://www.w3.org/2000/svg" xmlns:xlink="http://www.w3.org/1999/xlink">
<g id="graph0" class="graph" transform="scale(1 1) rotate(0) translate(4 900)">
<title>CoolBoard::onLineMode</title>
<polygon fill="white" stroke="none" points="-4,4 -4,-900 847,-900 847,4 -4,4"/>
<!-- Node85 -->
<g id="node1" class="node"><title>Node85</title>
<polygon fill="#bfbfbf" stroke="black" points="0,-591.5 0,-610.5 121,-610.5 121,-591.5 0,-591.5"/>
<text text-anchor="middle" x="60.5" y="-598.5" font-family="Helvetica,sans-Serif" font-size="10.00">CoolBoard::onLineMode</text>
</g>
<!-- Node86 -->
<g id="node2" class="node"><title>Node86</title>
<g id="a_node2"><a xlink:href="classJetpack.html#a86d2e83436ef4b85f4c3a6e85ac785b0" target="_top" xlink:title="Jetpack::doAction">
<polygon fill="white" stroke="black" points="184,-844.5 184,-863.5 279,-863.5 279,-844.5 184,-844.5"/>
<text text-anchor="middle" x="231.5" y="-851.5" font-family="Helvetica,sans-Serif" font-size="10.00">Jetpack::doAction</text>
</a>
</g>
</g>
<!-- Node85&#45;&gt;Node86 -->
<g id="edge1" class="edge"><title>Node85&#45;&gt;Node86</title>
<path fill="none" stroke="midnightblue" d="M64.1572,-610.847C72.9444,-641.983 103.588,-739.96 157,-803 169.555,-817.818 187.381,-830.328 202.334,-839.25"/>
<polygon fill="midnightblue" stroke="midnightblue" points="200.783,-842.395 211.2,-844.33 204.263,-836.321 200.783,-842.395"/>
</g>
<!-- Node88 -->
<g id="node4" class="node"><title>Node88</title>
<g id="a_node4"><a xlink:href="classCoolBoard.html#aaa24480b273fc095a1356a589c333781" target="_top" xlink:title="CoolBoard::getLogInterval">
<polygon fill="white" stroke="black" points="166.5,-774.5 166.5,-793.5 296.5,-793.5 296.5,-774.5 166.5,-774.5"/>
<text text-anchor="middle" x="231.5" y="-781.5" font-family="Helvetica,sans-Serif" font-size="10.00">CoolBoard::getLogInterval</text>
</a>
</g>
</g>
<!-- Node85&#45;&gt;Node88 -->
<g id="edge3" class="edge"><title>Node85&#45;&gt;Node88</title>
<path fill="none" stroke="midnightblue" d="M64.178,-610.53C72.6403,-638.832 101.582,-723.026 157,-765 159.494,-766.889 162.157,-768.59 164.936,-770.124"/>
<polygon fill="midnightblue" stroke="midnightblue" points="163.608,-773.367 174.145,-774.47 166.596,-767.037 163.608,-773.367"/>
</g>
<!-- Node89 -->
<g id="node5" class="node"><title>Node89</title>
<g id="a_node5"><a xlink:href="classCoolFileSystem.html#a5c58bca3735c0ed3efb268d70ef998ef" target="_top" xlink:title="CoolFileSystem::getSensor\lSavedData">
<polygon fill="white" stroke="black" points="163,-725 163,-755 300,-755 300,-725 163,-725"/>
<text text-anchor="start" x="171" y="-743" font-family="Helvetica,sans-Serif" font-size="10.00">CoolFileSystem::getSensor</text>
<text text-anchor="middle" x="231.5" y="-732" font-family="Helvetica,sans-Serif" font-size="10.00">SavedData</text>
</a>
</g>
</g>
<!-- Node85&#45;&gt;Node89 -->
<g id="edge4" class="edge"><title>Node85&#45;&gt;Node89</title>
<path fill="none" stroke="midnightblue" d="M67.0949,-610.789C80.0745,-632.651 114.401,-685.815 157,-715 159.867,-716.964 162.901,-718.786 166.041,-720.475"/>
<polygon fill="midnightblue" stroke="midnightblue" points="164.592,-723.662 175.116,-724.888 167.654,-717.367 164.592,-723.662"/>
</g>
<!-- Node90 -->
<g id="node6" class="node"><title>Node90</title>
<g id="a_node6"><a xlink:href="classCoolFileSystem.html#a5a7eaeea7a9fbf8aaef651d862fa3b5b" target="_top" xlink:title="CoolFileSystem::isDataSaved">
<polygon fill="white" stroke="black" points="157,-686.5 157,-705.5 306,-705.5 306,-686.5 157,-686.5"/>
<text text-anchor="middle" x="231.5" y="-693.5" font-family="Helvetica,sans-Serif" font-size="10.00">CoolFileSystem::isDataSaved</text>
</a>
</g>
</g>
<!-- Node85&#45;&gt;Node90 -->
<g id="edge5" class="edge"><title>Node85&#45;&gt;Node90</title>
<path fill="none" stroke="midnightblue" d="M71.9013,-610.544C88.6729,-625.495 123.237,-654.532 157,-672 165.318,-676.303 174.561,-680.044 183.607,-683.208"/>
<polygon fill="midnightblue" stroke="midnightblue" points="182.699,-686.594 193.292,-686.415 184.899,-679.949 182.699,-686.594"/>
</g>
<!-- Node91 -->
<g id="node7" class="node"><title>Node91</title>
<g id="a_node7"><a xlink:href="classCoolMQTT.html#aa5eaae967b562b62cbcf2b8d81f6e5d5" target="_top" xlink:title="CoolMQTT::mqttLoop">
<polygon fill="white" stroke="black" points="361.5,-838.5 361.5,-857.5 472.5,-857.5 472.5,-838.5 361.5,-838.5"/>
<text text-anchor="middle" x="417" y="-845.5" font-family="Helvetica,sans-Serif" font-size="10.00">CoolMQTT::mqttLoop</text>
</a>
</g>
</g>
<!-- Node85&#45;&gt;Node91 -->
<g id="edge6" class="edge"><title>Node85&#45;&gt;Node91</title>
<path fill="none" stroke="midnightblue" d="M83.206,-610.568C102.374,-618.793 131.205,-630.617 157,-639 221.996,-660.122 258.091,-628.262 306,-677 354.668,-726.51 293.372,-779.451 342,-829 345.031,-832.088 348.491,-834.698 352.222,-836.901"/>
<polygon fill="midnightblue" stroke="midnightblue" points="350.821,-840.112 361.345,-841.338 353.882,-833.817 350.821,-840.112"/>
</g>
<!-- Node92 -->
<g id="node8" class="node"><title>Node92</title>
<g id="a_node8"><a xlink:href="classCoolMQTT.html#ace977b3e90ab14b1199fe5c4fb0a13ec" target="_top" xlink:title="CoolMQTT::publish">
<polygon fill="white" stroke="black" points="366.5,-800.5 366.5,-819.5 467.5,-819.5 467.5,-800.5 366.5,-800.5"/>
<text text-anchor="middle" x="417" y="-807.5" font-family="Helvetica,sans-Serif" font-size="10.00">CoolMQTT::publish</text>
</a>
</g>
</g>
<!-- Node85&#45;&gt;Node92 -->
<g id="edge7" class="edge"><title>Node85&#45;&gt;Node92</title>
<path fill="none" stroke="midnightblue" d="M121.226,-604.143C184.831,-608.731 279.883,-619.554 306,-644 355.108,-689.966 294.703,-743.173 342,-791 346.242,-795.29 351.313,-798.655 356.784,-801.289"/>
<polygon fill="midnightblue" stroke="midnightblue" points="355.707,-804.627 366.293,-805.065 358.291,-798.121 355.707,-804.627"/>
</g>
<!-- Node93 -->
<g id="node9" class="node"><title>Node93</title>
<g id="a_node9"><a xlink:href="classCoolMQTT.html#ae3c18f6ae9723746d32765f1c8f176ca" target="_top" xlink:title="CoolMQTT::read">
<polygon fill="white" stroke="black" points="187,-534.5 187,-553.5 276,-553.5 276,-534.5 187,-534.5"/>
<text text-anchor="middle" x="231.5" y="-541.5" font-family="Helvetica,sans-Serif" font-size="10.00">CoolMQTT::read</text>
</a>
</g>
</g>
<!-- Node85&#45;&gt;Node93 -->
<g id="edge8" class="edge"><title>Node85&#45;&gt;Node93</title>
<path fill="none" stroke="midnightblue" d="M83.2128,-591.452C102.385,-583.242 131.218,-571.425 157,-563 164.399,-560.582 172.297,-558.269 180.068,-556.14"/>
<polygon fill="midnightblue" stroke="midnightblue" points="181.036,-559.504 189.799,-553.549 179.235,-552.74 181.036,-559.504"/>
</g>
<!-- Node94 -->
<g id="node10" class="node"><title>Node94</title>
<g id="a_node10"><a xlink:href="classCoolBoard.html#ad03abdce2e65f520bbf2cff0f2d083cf" target="_top" xlink:title="CoolBoard::readSensors">
<polygon fill="white" stroke="black" points="170,-294.5 170,-313.5 293,-313.5 293,-294.5 170,-294.5"/>
<text text-anchor="middle" x="231.5" y="-301.5" font-family="Helvetica,sans-Serif" font-size="10.00">CoolBoard::readSensors</text>
</a>
</g>
</g>
<!-- Node85&#45;&gt;Node94 -->
<g id="edge9" class="edge"><title>Node85&#45;&gt;Node94</title>
<path fill="none" stroke="midnightblue" d="M66.9315,-591.455C90.9155,-549.305 187.573,-379.44 219.905,-322.619"/>
<polygon fill="midnightblue" stroke="midnightblue" points="223.1,-324.081 225.004,-313.659 217.016,-320.62 223.1,-324.081"/>
</g>
<!-- Node105 -->
<g id="node21" class="node"><title>Node105</title>
<g id="a_node21"><a xlink:href="classCoolBoard.html#a5d0c8ff93b615efd676be432de9f164a" target="_top" xlink:title="CoolBoard::sleep">
<polygon fill="white" stroke="black" points="185.5,-256.5 185.5,-275.5 277.5,-275.5 277.5,-256.5 185.5,-256.5"/>
<text text-anchor="middle" x="231.5" y="-263.5" font-family="Helvetica,sans-Serif" font-size="10.00">CoolBoard::sleep</text>
</a>
</g>
</g>
<!-- Node85&#45;&gt;Node105 -->
<g id="edge22" class="edge"><title>Node85&#45;&gt;Node105</title>
<path fill="none" stroke="midnightblue" d="M61.2595,-591.304C60.7502,-548.385 64.6091,-373.721 157,-285 162.294,-279.916 168.763,-276.145 175.644,-273.356"/>
<polygon fill="midnightblue" stroke="midnightblue" points="176.855,-276.642 185.213,-270.131 174.619,-270.009 176.855,-276.642"/>
</g>
<!-- Node106 -->
<g id="node22" class="node"><title>Node106</title>
<g id="a_node22"><a xlink:href="classCoolTime.html#aae601f795452cfa48d9fb337aed483a8" target="_top" xlink:title="CoolTime::update">
<polygon fill="white" stroke="black" points="184.5,-133.5 184.5,-152.5 278.5,-152.5 278.5,-133.5 184.5,-133.5"/>
<text text-anchor="middle" x="231.5" y="-140.5" font-family="Helvetica,sans-Serif" font-size="10.00">CoolTime::update</text>
</a>
</g>
</g>
<!-- Node85&#45;&gt;Node106 -->
<g id="edge23" class="edge"><title>Node85&#45;&gt;Node106</title>
<path fill="none" stroke="midnightblue" d="M62.8416,-591.274C68.9671,-548.738 96.6187,-375.469 157,-247 172.565,-213.883 198.726,-180.117 215.276,-160.384"/>
<polygon fill="midnightblue" stroke="midnightblue" points="218.096,-162.471 221.926,-152.593 212.772,-157.926 218.096,-162.471"/>
</g>
<!-- Node112 -->
<g id="node28" class="node"><title>Node112</title>
<g id="a_node28"><a xlink:href="classCoolBoard.html#a8612756d3f73198cdde857a66f0fe690" target="_top" xlink:title="CoolBoard::update">
<polygon fill="white" stroke="black" points="182.5,-572.5 182.5,-591.5 280.5,-591.5 280.5,-572.5 182.5,-572.5"/>
<text text-anchor="middle" x="231.5" y="-579.5" font-family="Helvetica,sans-Serif" font-size="10.00">CoolBoard::update</text>
</a>
</g>
</g>
<!-- Node85&#45;&gt;Node112 -->
<g id="edge29" class="edge"><title>Node85&#45;&gt;Node112</title>
<path fill="none" stroke="midnightblue" d="M121.083,-594.301C137.688,-592.434 155.703,-590.409 172.232,-588.551"/>
<polygon fill="midnightblue" stroke="midnightblue" points="172.759,-592.014 182.305,-587.418 171.977,-585.058 172.759,-592.014"/>
</g>
<!-- Node128 -->
<g id="node44" class="node"><title>Node128</title>
<g id="a_node44"><a xlink:href="classCoolBoard.html#ae7358fb6e623cfc81b775f5f1734909b" target="_top" xlink:title="CoolBoard::userData">
<polygon fill="white" stroke="black" points="177.5,-38.5 177.5,-57.5 285.5,-57.5 285.5,-38.5 177.5,-38.5"/>
<text text-anchor="middle" x="231.5" y="-45.5" font-family="Helvetica,sans-Serif" font-size="10.00">CoolBoard::userData</text>
</a>
</g>
</g>
<!-- Node85&#45;&gt;Node128 -->
<g id="edge47" class="edge"><title>Node85&#45;&gt;Node128</title>
<path fill="none" stroke="midnightblue" d="M61.467,-591.249C61.6798,-539.664 67.5446,-294.519 157,-124 169.635,-99.9154 192.267,-78.2506 209.09,-64.2729"/>
<polygon fill="midnightblue" stroke="midnightblue" points="211.675,-66.6859 217.275,-57.692 207.288,-61.2307 211.675,-66.6859"/>
</g>
<!-- Node87 -->
<g id="node3" class="node"><title>Node87</title>
<g id="a_node3"><a xlink:href="classJetpack.html#a338f1af8cbc6504ac69b47c7328569b5" target="_top" xlink:title="Jetpack::write">
<polygon fill="white" stroke="black" points="378,-876.5 378,-895.5 456,-895.5 456,-876.5 378,-876.5"/>
<text text-anchor="middle" x="417" y="-883.5" font-family="Helvetica,sans-Serif" font-size="10.00">Jetpack::write</text>
</a>
</g>
</g>
<!-- Node86&#45;&gt;Node87 -->
<g id="edge2" class="edge"><title>Node86&#45;&gt;Node87</title>
<path fill="none" stroke="midnightblue" d="M279.28,-862.158C306.396,-866.887 340.476,-872.83 367.827,-877.599"/>
<polygon fill="midnightblue" stroke="midnightblue" points="367.498,-881.095 377.951,-879.365 368.701,-874.199 367.498,-881.095"/>
</g>
<!-- Node95 -->
<g id="node11" class="node"><title>Node95</title>
<g id="a_node11"><a xlink:href="classCoolBoardSensors.html#a91badb2539d91fda8679f2a597874c48" target="_top" xlink:title="CoolBoardSensors::read">
<polygon fill="white" stroke="black" points="355.5,-294.5 355.5,-313.5 478.5,-313.5 478.5,-294.5 355.5,-294.5"/>
<text text-anchor="middle" x="417" y="-301.5" font-family="Helvetica,sans-Serif" font-size="10.00">CoolBoardSensors::read</text>
</a>
</g>
</g>
<!-- Node94&#45;&gt;Node95 -->
<g id="edge10" class="edge"><title>Node94&#45;&gt;Node95</title>
<path fill="none" stroke="midnightblue" d="M293.093,-304C309.848,-304 328.177,-304 345.445,-304"/>
<polygon fill="midnightblue" stroke="midnightblue" points="345.47,-307.5 355.47,-304 345.47,-300.5 345.47,-307.5"/>
</g>
<!-- Node99 -->
<g id="node15" class="node"><title>Node99</title>
<g id="a_node15"><a xlink:href="classExternalSensors.html#a53177b81eca3be89508b5511ddcd00fc" target="_top" xlink:title="ExternalSensors::read">
<polygon fill="white" stroke="black" points="360.5,-256.5 360.5,-275.5 473.5,-275.5 473.5,-256.5 360.5,-256.5"/>
<text text-anchor="middle" x="417" y="-263.5" font-family="Helvetica,sans-Serif" font-size="10.00">ExternalSensors::read</text>
</a>
</g>
</g>
<!-- Node94&#45;&gt;Node99 -->
<g id="edge14" class="edge"><title>Node94&#45;&gt;Node99</title>
<path fill="none" stroke="midnightblue" d="M278.805,-294.411C303.456,-289.306 333.963,-282.989 359.945,-277.608"/>
<polygon fill="midnightblue" stroke="midnightblue" points="360.946,-280.975 370.028,-275.52 359.526,-274.121 360.946,-280.975"/>
</g>
<!-- Node100 -->
<g id="node16" class="node"><title>Node100</title>
<g id="a_node16"><a xlink:href="classIrene3000.html#a852a170feea994ea1df01c6b245b5d9a" target="_top" xlink:title="Irene3000::read">
<polygon fill="white" stroke="black" points="375,-218.5 375,-237.5 459,-237.5 459,-218.5 375,-218.5"/>
<text text-anchor="middle" x="417" y="-225.5" font-family="Helvetica,sans-Serif" font-size="10.00">Irene3000::read</text>
</a>
</g>
</g>
<!-- Node94&#45;&gt;Node100 -->
<g id="edge15" class="edge"><title>Node94&#45;&gt;Node100</title>
<path fill="none" stroke="midnightblue" d="M284.573,-294.451C292.041,-291.981 299.415,-288.882 306,-285 326.041,-273.185 321.949,-258.799 342,-247 349.071,-242.839 357.044,-239.58 365.072,-237.03"/>
<polygon fill="midnightblue" stroke="midnightblue" points="366.17,-240.356 374.834,-234.257 364.258,-233.622 366.17,-240.356"/>
</g>
<!-- Node96 -->
<g id="node12" class="node"><title>Node96</title>
<g id="a_node12"><a xlink:href="classCoolBoardSensors.html#acad6a8418c66d36868caca23c844ecb6" target="_top" xlink:title="CoolBoardSensors::initReadI2C">
<polygon fill="white" stroke="black" points="530.5,-370.5 530.5,-389.5 686.5,-389.5 686.5,-370.5 530.5,-370.5"/>
<text text-anchor="middle" x="608.5" y="-377.5" font-family="Helvetica,sans-Serif" font-size="10.00">CoolBoardSensors::initReadI2C</text>
</a>
</g>
</g>
<!-- Node95&#45;&gt;Node96 -->
<g id="edge11" class="edge"><title>Node95&#45;&gt;Node96</title>
<path fill="none" stroke="midnightblue" d="M470.427,-313.514C477.945,-315.99 485.37,-319.098 492,-323 512.051,-334.799 507.851,-349.37 528,-361 531.908,-363.256 536.072,-365.244 540.367,-366.997"/>
<polygon fill="midnightblue" stroke="midnightblue" points="539.339,-370.347 549.933,-370.47 541.728,-363.768 539.339,-370.347"/>
</g>
<!-- Node97 -->
<g id="node13" class="node"><title>Node97</title>
<g id="a_node13"><a xlink:href="classCoolBoardSensors.html#a6944b6ea7bce8e2fce1b434acfd9d5f3" target="_top" xlink:title="CoolBoardSensors::readVBat">
<polygon fill="white" stroke="black" points="536,-332.5 536,-351.5 681,-351.5 681,-332.5 536,-332.5"/>
<text text-anchor="middle" x="608.5" y="-339.5" font-family="Helvetica,sans-Serif" font-size="10.00">CoolBoardSensors::readVBat</text>
</a>
</g>
</g>
<!-- Node95&#45;&gt;Node97 -->
<g id="edge12" class="edge"><title>Node95&#45;&gt;Node97</title>
<path fill="none" stroke="midnightblue" d="M465.819,-313.589C491.389,-318.716 523.059,-325.067 549.968,-330.463"/>
<polygon fill="midnightblue" stroke="midnightblue" points="549.532,-333.945 560.025,-332.48 550.908,-327.082 549.532,-333.945"/>
</g>
<!-- Node98 -->
<g id="node14" class="node"><title>Node98</title>
<g id="a_node14"><a xlink:href="classCoolBoardSensors.html#a8761bff50373c485f4465c8db47d0633" target="_top" xlink:title="CoolBoardSensors::readMoisture">
<polygon fill="white" stroke="black" points="528,-294.5 528,-313.5 689,-313.5 689,-294.5 528,-294.5"/>
<text text-anchor="middle" x="608.5" y="-301.5" font-family="Helvetica,sans-Serif" font-size="10.00">CoolBoardSensors::readMoisture</text>
</a>
</g>
</g>
<!-- Node95&#45;&gt;Node98 -->
<g id="edge13" class="edge"><title>Node95&#45;&gt;Node98</title>
<path fill="none" stroke="midnightblue" d="M478.741,-304C491.163,-304 504.485,-304 517.679,-304"/>
<polygon fill="midnightblue" stroke="midnightblue" points="517.727,-307.5 527.727,-304 517.727,-300.5 517.727,-307.5"/>
</g>
<!-- Node101 -->
<g id="node17" class="node"><title>Node101</title>
<g id="a_node17"><a xlink:href="classIrene3000.html#a94ad40f281d83ad1be20bf1edd6fe802" target="_top" xlink:title="Irene3000::readTemp">
<polygon fill="white" stroke="black" points="554,-256.5 554,-275.5 663,-275.5 663,-256.5 554,-256.5"/>
<text text-anchor="middle" x="608.5" y="-263.5" font-family="Helvetica,sans-Serif" font-size="10.00">Irene3000::readTemp</text>
</a>
</g>
</g>
<!-- Node100&#45;&gt;Node101 -->
<g id="edge16" class="edge"><title>Node100&#45;&gt;Node101</title>
<path fill="none" stroke="midnightblue" d="M459.119,-236.245C485.702,-241.576 520.683,-248.591 550.003,-254.47"/>
<polygon fill="midnightblue" stroke="midnightblue" points="549.622,-257.963 560.115,-256.498 550.998,-251.1 549.622,-257.963"/>
</g>
<!-- Node103 -->
<g id="node19" class="node"><title>Node103</title>
<g id="a_node19"><a xlink:href="classIrene3000.html#abf3db725fabb0634ec889b32068a5eec" target="_top" xlink:title="Irene3000::readPh">
<polygon fill="white" stroke="black" points="560.5,-218.5 560.5,-237.5 656.5,-237.5 656.5,-218.5 560.5,-218.5"/>
<text text-anchor="middle" x="608.5" y="-225.5" font-family="Helvetica,sans-Serif" font-size="10.00">Irene3000::readPh</text>
</a>
</g>
</g>
<!-- Node100&#45;&gt;Node103 -->
<g id="edge18" class="edge"><title>Node100&#45;&gt;Node103</title>
<path fill="none" stroke="midnightblue" d="M459.119,-228C485.799,-228 520.939,-228 550.325,-228"/>
<polygon fill="midnightblue" stroke="midnightblue" points="550.456,-231.5 560.456,-228 550.456,-224.5 550.456,-231.5"/>
</g>
<!-- Node104 -->
<g id="node20" class="node"><title>Node104</title>
<g id="a_node20"><a xlink:href="classIrene3000.html#ae73bd2ed14a199a7e83f4d6458476a7c" target="_top" xlink:title="Irene3000::readADSChannel2">
<polygon fill="white" stroke="black" points="535.5,-180.5 535.5,-199.5 681.5,-199.5 681.5,-180.5 535.5,-180.5"/>
<text text-anchor="middle" x="608.5" y="-187.5" font-family="Helvetica,sans-Serif" font-size="10.00">Irene3000::readADSChannel2</text>
</a>
</g>
</g>
<!-- Node100&#45;&gt;Node104 -->
<g id="edge20" class="edge"><title>Node100&#45;&gt;Node104</title>
<path fill="none" stroke="midnightblue" d="M459.119,-219.755C485.702,-214.424 520.683,-207.409 550.003,-201.53"/>
<polygon fill="midnightblue" stroke="midnightblue" points="550.998,-204.9 560.115,-199.502 549.622,-198.037 550.998,-204.9"/>
</g>
<!-- Node102 -->
<g id="node18" class="node"><title>Node102</title>
<g id="a_node18"><a xlink:href="classIrene3000.html#aff7c5da186b388e7272e63ff88a20c34" target="_top" xlink:title="Irene3000::setGain">
<polygon fill="white" stroke="black" points="734.5,-218.5 734.5,-237.5 833.5,-237.5 833.5,-218.5 734.5,-218.5"/>
<text text-anchor="middle" x="784" y="-225.5" font-family="Helvetica,sans-Serif" font-size="10.00">Irene3000::setGain</text>
</a>
</g>
</g>
<!-- Node101&#45;&gt;Node102 -->
<g id="edge17" class="edge"><title>Node101&#45;&gt;Node102</title>
<path fill="none" stroke="midnightblue" d="M653.281,-256.411C676.486,-251.329 705.178,-245.045 729.673,-239.68"/>
<polygon fill="midnightblue" stroke="midnightblue" points="730.514,-243.079 739.533,-237.52 729.016,-236.241 730.514,-243.079"/>
</g>
<!-- Node103&#45;&gt;Node102 -->
<g id="edge19" class="edge"><title>Node103&#45;&gt;Node102</title>
<path fill="none" stroke="midnightblue" d="M656.91,-228C677.697,-228 702.308,-228 724.245,-228"/>
<polygon fill="midnightblue" stroke="midnightblue" points="724.44,-231.5 734.44,-228 724.44,-224.5 724.44,-231.5"/>
</g>
<!-- Node104&#45;&gt;Node102 -->
<g id="edge21" class="edge"><title>Node104&#45;&gt;Node102</title>
<path fill="none" stroke="midnightblue" d="M653.281,-199.589C676.486,-204.671 705.178,-210.955 729.673,-216.32"/>
<polygon fill="midnightblue" stroke="midnightblue" points="729.016,-219.759 739.533,-218.48 730.514,-212.921 729.016,-219.759"/>
</g>
<!-- Node107 -->
<g id="node23" class="node"><title>Node107</title>
<g id="a_node23"><a xlink:href="classCoolTime.html#a5ae038a4498602b189f76a10bf02adf8" target="_top" xlink:title="CoolTime::isTimeSync">
<polygon fill="white" stroke="black" points="359,-152.5 359,-171.5 475,-171.5 475,-152.5 359,-152.5"/>
<text text-anchor="middle" x="417" y="-159.5" font-family="Helvetica,sans-Serif" font-size="10.00">CoolTime::isTimeSync</text>
</a>
</g>
</g>
<!-- Node106&#45;&gt;Node107 -->
<g id="edge24" class="edge"><title>Node106&#45;&gt;Node107</title>
<path fill="none" stroke="midnightblue" d="M278.805,-147.795C299.984,-149.987 325.486,-152.628 348.727,-155.034"/>
<polygon fill="midnightblue" stroke="midnightblue" points="348.567,-158.537 358.875,-156.085 349.288,-151.574 348.567,-158.537"/>
</g>
<!-- Node109 -->
<g id="node25" class="node"><title>Node109</title>
<g id="a_node25"><a xlink:href="classCoolTime.html#a41fbbbfd651c2079f54d4b2911e4c705" target="_top" xlink:title="CoolTime::getNtpTime">
<polygon fill="white" stroke="black" points="359,-114.5 359,-133.5 475,-133.5 475,-114.5 359,-114.5"/>
<text text-anchor="middle" x="417" y="-121.5" font-family="Helvetica,sans-Serif" font-size="10.00">CoolTime::getNtpTime</text>
</a>
</g>
</g>
<!-- Node106&#45;&gt;Node109 -->
<g id="edge26" class="edge"><title>Node106&#45;&gt;Node109</title>
<path fill="none" stroke="midnightblue" d="M278.805,-138.205C299.984,-136.013 325.486,-133.372 348.727,-130.966"/>
<polygon fill="midnightblue" stroke="midnightblue" points="349.288,-134.426 358.875,-129.915 348.567,-127.463 349.288,-134.426"/>
</g>
<!-- Node111 -->
<g id="node27" class="node"><title>Node111</title>
<g id="a_node27"><a xlink:href="classCoolTime.html#ae9658c9b377510d469e3b88edf33ee85" target="_top" xlink:title="CoolTime::saveTimeSync">
<polygon fill="white" stroke="black" points="352,-76.5 352,-95.5 482,-95.5 482,-76.5 352,-76.5"/>
<text text-anchor="middle" x="417" y="-83.5" font-family="Helvetica,sans-Serif" font-size="10.00">CoolTime::saveTimeSync</text>
</a>
</g>
</g>
<!-- Node106&#45;&gt;Node111 -->
<g id="edge28" class="edge"><title>Node106&#45;&gt;Node111</title>
<path fill="none" stroke="midnightblue" d="M257.969,-133.49C280.038,-125.412 312.907,-113.767 342,-105 349.855,-102.633 358.234,-100.301 366.425,-98.1244"/>
<polygon fill="midnightblue" stroke="midnightblue" points="367.483,-101.466 376.276,-95.5555 365.717,-94.6923 367.483,-101.466"/>
</g>
<!-- Node108 -->
<g id="node24" class="node"><title>Node108</title>
<g id="a_node24"><a xlink:href="classCoolTime.html#a5d17f707a9d337720493b2bce9d41c21" target="_top" xlink:title="CoolTime::getLastSyncTime">
<polygon fill="white" stroke="black" points="538,-142.5 538,-161.5 679,-161.5 679,-142.5 538,-142.5"/>
<text text-anchor="middle" x="608.5" y="-149.5" font-family="Helvetica,sans-Serif" font-size="10.00">CoolTime::getLastSyncTime</text>
</a>
</g>
</g>
<!-- Node107&#45;&gt;Node108 -->
<g id="edge25" class="edge"><title>Node107&#45;&gt;Node108</title>
<path fill="none" stroke="midnightblue" d="M475.113,-158.986C491.602,-158.116 509.907,-157.15 527.514,-156.221"/>
<polygon fill="midnightblue" stroke="midnightblue" points="527.98,-159.701 537.782,-155.679 527.611,-152.711 527.98,-159.701"/>
</g>
<!-- Node110 -->
<g id="node26" class="node"><title>Node110</title>
<g id="a_node26"><a xlink:href="classCoolTime.html#a236a38d120dc53bc67456d763838c5a1" target="_top" xlink:title="CoolTime::sendNTPpacket">
<polygon fill="white" stroke="black" points="541,-104.5 541,-123.5 676,-123.5 676,-104.5 541,-104.5"/>
<text text-anchor="middle" x="608.5" y="-111.5" font-family="Helvetica,sans-Serif" font-size="10.00">CoolTime::sendNTPpacket</text>
</a>
</g>
</g>
<!-- Node109&#45;&gt;Node110 -->
<g id="edge27" class="edge"><title>Node109&#45;&gt;Node110</title>
<path fill="none" stroke="midnightblue" d="M475.113,-120.986C492.584,-120.064 512.093,-119.035 530.651,-118.055"/>
<polygon fill="midnightblue" stroke="midnightblue" points="531.043,-121.54 540.845,-117.517 530.674,-114.549 531.043,-121.54"/>
</g>
<!-- Node112&#45;&gt;Node91 -->
<g id="edge46" class="edge"><title>Node112&#45;&gt;Node91</title>
<path fill="none" stroke="midnightblue" d="M249.411,-591.507C266.507,-602.047 292.302,-620.681 306,-644 348.427,-716.225 284.546,-768.044 342,-829 344.968,-832.149 348.382,-834.804 352.079,-837.04"/>
<polygon fill="midnightblue" stroke="midnightblue" points="350.629,-840.228 361.144,-841.531 353.737,-833.955 350.629,-840.228"/>
</g>
<!-- Node112&#45;&gt;Node92 -->
<g id="edge45" class="edge"><title>Node112&#45;&gt;Node92</title>
<path fill="none" stroke="midnightblue" d="M280.773,-589.713C290.265,-593.272 299.334,-598.456 306,-606 361.465,-668.771 284.546,-730.044 342,-791 346.196,-795.452 351.283,-798.917 356.802,-801.605"/>
<polygon fill="midnightblue" stroke="midnightblue" points="355.834,-804.987 366.42,-805.434 358.423,-798.483 355.834,-804.987"/>
</g>
<!-- Node113 -->
<g id="node29" class="node"><title>Node113</title>
<g id="a_node29"><a xlink:href="classCoolFileSystem.html#a32dad79ae80182a83e2e8f52286b7c7b" target="_top" xlink:title="CoolFileSystem::updateConfig\lFiles">
<polygon fill="white" stroke="black" points="342,-409 342,-439 492,-439 492,-409 342,-409"/>
<text text-anchor="start" x="350" y="-427" font-family="Helvetica,sans-Serif" font-size="10.00">CoolFileSystem::updateConfig</text>
<text text-anchor="middle" x="417" y="-416" font-family="Helvetica,sans-Serif" font-size="10.00">Files</text>
</a>
</g>
</g>
<!-- Node112&#45;&gt;Node113 -->
<g id="edge30" class="edge"><title>Node112&#45;&gt;Node113</title>
<path fill="none" stroke="midnightblue" d="M280.777,-576.904C290.043,-574.011 299.019,-569.621 306,-563 344.551,-526.436 304.805,-486.943 342,-449 343.424,-447.547 344.935,-446.179 346.518,-444.891"/>
<polygon fill="midnightblue" stroke="midnightblue" points="348.705,-447.635 354.965,-439.087 344.741,-441.865 348.705,-447.635"/>
</g>
<!-- Node114 -->
<g id="node30" class="node"><title>Node114</title>
<g id="a_node30"><a xlink:href="classCoolBoard.html#a583a874c09c07e70a6eb9229fc4beddb" target="_top" xlink:title="CoolBoard::config">
<polygon fill="white" stroke="black" points="369.5,-370.5 369.5,-389.5 464.5,-389.5 464.5,-370.5 369.5,-370.5"/>
<text text-anchor="middle" x="417" y="-377.5" font-family="Helvetica,sans-Serif" font-size="10.00">CoolBoard::config</text>
</a>
</g>
</g>
<!-- Node112&#45;&gt;Node114 -->
<g id="edge31" class="edge"><title>Node112&#45;&gt;Node114</title>
<path fill="none" stroke="midnightblue" d="M280.864,-577.493C290.235,-574.573 299.232,-570.022 306,-563 357.785,-509.269 290.171,-452.689 342,-399 346.89,-393.935 352.933,-390.153 359.441,-387.341"/>
<polygon fill="midnightblue" stroke="midnightblue" points="360.97,-390.513 369.229,-383.877 358.634,-383.914 360.97,-390.513"/>
</g>
<!-- Node116 -->
<g id="node32" class="node"><title>Node116</title>
<g id="a_node32"><a xlink:href="classCoolBoardSensors.html#a9a218895c5423375c33c08f2c56fb23a" target="_top" xlink:title="CoolBoardSensors::config">
<polygon fill="white" stroke="black" points="351.5,-332.5 351.5,-351.5 482.5,-351.5 482.5,-332.5 351.5,-332.5"/>
<text text-anchor="middle" x="417" y="-339.5" font-family="Helvetica,sans-Serif" font-size="10.00">CoolBoardSensors::config</text>
</a>
</g>
</g>
<!-- Node112&#45;&gt;Node116 -->
<g id="edge33" class="edge"><title>Node112&#45;&gt;Node116</title>
<path fill="none" stroke="midnightblue" d="M280.698,-577.813C290.193,-574.886 299.283,-570.252 306,-563 367.966,-496.095 279.979,-427.854 342,-361 343.209,-359.696 344.495,-358.477 345.846,-357.337"/>
<polygon fill="midnightblue" stroke="midnightblue" points="347.919,-360.16 354.213,-351.637 343.978,-354.375 347.919,-360.16"/>
</g>
<!-- Node117 -->
<g id="node33" class="node"><title>Node117</title>
<g id="a_node33"><a xlink:href="classCoolTime.html#a87c28260c1bc77091162cbcf1ee2e129" target="_top" xlink:title="CoolTime::config">
<polygon fill="white" stroke="black" points="371.5,-762.5 371.5,-781.5 462.5,-781.5 462.5,-762.5 371.5,-762.5"/>
<text text-anchor="middle" x="417" y="-769.5" font-family="Helvetica,sans-Serif" font-size="10.00">CoolTime::config</text>
</a>
</g>
</g>
<!-- Node112&#45;&gt;Node117 -->
<g id="edge34" class="edge"><title>Node112&#45;&gt;Node117</title>
<path fill="none" stroke="midnightblue" d="M280.505,-589.956C290.012,-593.501 299.155,-598.618 306,-606 351.735,-655.323 294.703,-705.173 342,-753 347.386,-758.447 354.108,-762.403 361.289,-765.264"/>
<polygon fill="midnightblue" stroke="midnightblue" points="360.691,-768.75 371.283,-768.523 362.861,-762.095 360.691,-768.75"/>
</g>
<!-- Node118 -->
<g id="node34" class="node"><title>Node118</title>
<g id="a_node34"><a xlink:href="classCoolBoardLed.html#a1b60e5e30bea96c49ed62ed1bf1ffc8b" target="_top" xlink:title="CoolBoardLed::config">
<polygon fill="white" stroke="black" points="362,-724.5 362,-743.5 472,-743.5 472,-724.5 362,-724.5"/>
<text text-anchor="middle" x="417" y="-731.5" font-family="Helvetica,sans-Serif" font-size="10.00">CoolBoardLed::config</text>
</a>
</g>
</g>
<!-- Node112&#45;&gt;Node118 -->
<g id="edge35" class="edge"><title>Node112&#45;&gt;Node118</title>
<path fill="none" stroke="midnightblue" d="M280.839,-590.654C290.1,-594.159 299.059,-599.083 306,-606 342.136,-642.014 304.725,-680.166 342,-715 345.162,-717.955 348.719,-720.465 352.521,-722.596"/>
<polygon fill="midnightblue" stroke="midnightblue" points="351.22,-725.851 361.761,-726.911 354.181,-719.508 351.22,-725.851"/>
</g>
<!-- Node119 -->
<g id="node35" class="node"><title>Node119</title>
<g id="a_node35"><a xlink:href="classCoolWifi.html#a4eb2f6b9b09dd588964b88b6c70122c0" target="_top" xlink:title="CoolWifi::config">
<polygon fill="white" stroke="black" points="374,-686.5 374,-705.5 460,-705.5 460,-686.5 374,-686.5"/>
<text text-anchor="middle" x="417" y="-693.5" font-family="Helvetica,sans-Serif" font-size="10.00">CoolWifi::config</text>
</a>
</g>
</g>
<!-- Node112&#45;&gt;Node119 -->
<g id="edge36" class="edge"><title>Node112&#45;&gt;Node119</title>
<path fill="none" stroke="midnightblue" d="M280.455,-591.625C289.637,-595.06 298.662,-599.711 306,-606 332.864,-629.024 314.41,-654.852 342,-677 348.471,-682.195 356.199,-685.985 364.183,-688.748"/>
<polygon fill="midnightblue" stroke="midnightblue" points="363.399,-692.165 373.981,-691.632 365.376,-685.45 363.399,-692.165"/>
</g>
<!-- Node120 -->
<g id="node36" class="node"><title>Node120</title>
<g id="a_node36"><a xlink:href="classCoolMQTT.html#a9b703de4f1358f0ee7a5e8c44979c648" target="_top" xlink:title="CoolMQTT::config">
<polygon fill="white" stroke="black" points="368.5,-648.5 368.5,-667.5 465.5,-667.5 465.5,-648.5 368.5,-648.5"/>
<text text-anchor="middle" x="417" y="-655.5" font-family="Helvetica,sans-Serif" font-size="10.00">CoolMQTT::config</text>
</a>
</g>
</g>
<!-- Node112&#45;&gt;Node120 -->
<g id="edge37" class="edge"><title>Node112&#45;&gt;Node120</title>
<path fill="none" stroke="midnightblue" d="M272.357,-591.62C283.658,-595.236 295.685,-599.973 306,-606 324.741,-616.95 322.917,-628.658 342,-639 347.155,-641.794 352.736,-644.189 358.442,-646.24"/>
<polygon fill="midnightblue" stroke="midnightblue" points="357.518,-649.62 368.11,-649.377 359.678,-642.962 357.518,-649.62"/>
</g>
<!-- Node121 -->
<g id="node37" class="node"><title>Node121</title>
<g id="a_node37"><a xlink:href="classJetpack.html#ab065ee83e244265a2223a22f3ee4a719" target="_top" xlink:title="Jetpack::config">
<polygon fill="white" stroke="black" points="375.5,-610.5 375.5,-629.5 458.5,-629.5 458.5,-610.5 375.5,-610.5"/>
<text text-anchor="middle" x="417" y="-617.5" font-family="Helvetica,sans-Serif" font-size="10.00">Jetpack::config</text>
</a>
</g>
</g>
<!-- Node112&#45;&gt;Node121 -->
<g id="edge38" class="edge"><title>Node112&#45;&gt;Node121</title>
<path fill="none" stroke="midnightblue" d="M278.805,-591.589C305.165,-597.048 338.222,-603.893 365.282,-609.497"/>
<polygon fill="midnightblue" stroke="midnightblue" points="364.83,-612.978 375.332,-611.578 366.25,-606.123 364.83,-612.978"/>
</g>
<!-- Node122 -->
<g id="node38" class="node"><title>Node122</title>
<g id="a_node38"><a xlink:href="classIrene3000.html#afed5c35e4b23963c157847ef27c11e9c" target="_top" xlink:title="Irene3000::config">
<polygon fill="white" stroke="black" points="371,-572.5 371,-591.5 463,-591.5 463,-572.5 371,-572.5"/>
<text text-anchor="middle" x="417" y="-579.5" font-family="Helvetica,sans-Serif" font-size="10.00">Irene3000::config</text>
</a>
</g>
</g>
<!-- Node112&#45;&gt;Node122 -->
<g id="edge39" class="edge"><title>Node112&#45;&gt;Node122</title>
<path fill="none" stroke="midnightblue" d="M280.712,-582C305.258,-582 335.215,-582 360.695,-582"/>
<polygon fill="midnightblue" stroke="midnightblue" points="360.946,-585.5 370.946,-582 360.946,-578.5 360.946,-585.5"/>
</g>
<!-- Node124 -->
<g id="node40" class="node"><title>Node124</title>
<g id="a_node40"><a xlink:href="classExternalSensors.html#a862a4bd11346b37270d0244c2adabe5a" target="_top" xlink:title="ExternalSensors::config">
<polygon fill="white" stroke="black" points="356.5,-534.5 356.5,-553.5 477.5,-553.5 477.5,-534.5 356.5,-534.5"/>
<text text-anchor="middle" x="417" y="-541.5" font-family="Helvetica,sans-Serif" font-size="10.00">ExternalSensors::config</text>
</a>
</g>
</g>
<!-- Node112&#45;&gt;Node124 -->
<g id="edge41" class="edge"><title>Node112&#45;&gt;Node124</title>
<path fill="none" stroke="midnightblue" d="M278.805,-572.411C303.456,-567.306 333.963,-560.989 359.945,-555.608"/>
<polygon fill="midnightblue" stroke="midnightblue" points="360.946,-558.975 370.028,-553.52 359.526,-552.121 360.946,-558.975"/>
</g>
<!-- Node125 -->
<g id="node41" class="node"><title>Node125</title>
<g id="a_node41"><a xlink:href="classCoolWifi.html#a46942fed90e475112cc10b78a32e7aaa" target="_top" xlink:title="CoolWifi::begin">
<polygon fill="white" stroke="black" points="375.5,-496.5 375.5,-515.5 458.5,-515.5 458.5,-496.5 375.5,-496.5"/>
<text text-anchor="middle" x="417" y="-503.5" font-family="Helvetica,sans-Serif" font-size="10.00">CoolWifi::begin</text>
</a>
</g>
</g>
<!-- Node112&#45;&gt;Node125 -->
<g id="edge42" class="edge"><title>Node112&#45;&gt;Node125</title>
<path fill="none" stroke="midnightblue" d="M280.706,-573.674C289.475,-571.026 298.279,-567.552 306,-563 326.041,-551.185 321.949,-536.799 342,-525 349.152,-520.792 357.228,-517.505 365.349,-514.942"/>
<polygon fill="midnightblue" stroke="midnightblue" points="366.543,-518.242 375.218,-512.16 364.644,-511.504 366.543,-518.242"/>
</g>
<!-- Node126 -->
<g id="node42" class="node"><title>Node126</title>
<g id="a_node42"><a xlink:href="classCoolMQTT.html#ac9248808641ebf3054ed0620ea9d0100" target="_top" xlink:title="CoolMQTT::begin">
<polygon fill="white" stroke="black" points="370,-458.5 370,-477.5 464,-477.5 464,-458.5 370,-458.5"/>
<text text-anchor="middle" x="417" y="-465.5" font-family="Helvetica,sans-Serif" font-size="10.00">CoolMQTT::begin</text>
</a>
</g>
</g>
<!-- Node112&#45;&gt;Node126 -->
<g id="edge43" class="edge"><title>Node112&#45;&gt;Node126</title>
<path fill="none" stroke="midnightblue" d="M280.875,-575.914C289.921,-573.078 298.787,-568.962 306,-563 334.809,-539.189 313.171,-510.787 342,-487 347.362,-482.576 353.629,-479.167 360.207,-476.543"/>
<polygon fill="midnightblue" stroke="midnightblue" points="361.645,-479.752 369.997,-473.233 359.403,-473.12 361.645,-479.752"/>
</g>
<!-- Node115 -->
<g id="node31" class="node"><title>Node115</title>
<g id="a_node31"><a xlink:href="classCoolFileSystem.html#a6ba6f666ed4c530174f8569d2c636748" target="_top" xlink:title="CoolFileSystem::begin">
<polygon fill="white" stroke="black" points="550.5,-408.5 550.5,-427.5 666.5,-427.5 666.5,-408.5 550.5,-408.5"/>
<text text-anchor="middle" x="608.5" y="-415.5" font-family="Helvetica,sans-Serif" font-size="10.00">CoolFileSystem::begin</text>
</a>
</g>
</g>
<!-- Node114&#45;&gt;Node115 -->
<g id="edge32" class="edge"><title>Node114&#45;&gt;Node115</title>
<path fill="none" stroke="midnightblue" d="M464.843,-389.393C490.613,-394.561 522.799,-401.015 550.074,-406.485"/>
<polygon fill="midnightblue" stroke="midnightblue" points="549.387,-409.916 559.88,-408.451 550.763,-403.053 549.387,-409.916"/>
</g>
<!-- Node123 -->
<g id="node39" class="node"><title>Node123</title>
<g id="a_node39"><a xlink:href="classIrene3000.html#abcad62d1201a59f8dd3ba87048002728" target="_top" xlink:title="Irene3000::gainConvert">
<polygon fill="white" stroke="black" points="549.5,-572.5 549.5,-591.5 667.5,-591.5 667.5,-572.5 549.5,-572.5"/>
<text text-anchor="middle" x="608.5" y="-579.5" font-family="Helvetica,sans-Serif" font-size="10.00">Irene3000::gainConvert</text>
</a>
</g>
</g>
<!-- Node122&#45;&gt;Node123 -->
<g id="edge40" class="edge"><title>Node122&#45;&gt;Node123</title>
<path fill="none" stroke="midnightblue" d="M463.39,-582C486.006,-582 513.826,-582 538.973,-582"/>
<polygon fill="midnightblue" stroke="midnightblue" points="539.193,-585.5 549.193,-582 539.193,-578.5 539.193,-585.5"/>
</g>
<!-- Node127 -->
<g id="node43" class="node"><title>Node127</title>
<g id="a_node43"><a xlink:href="classCoolMQTT.html#a30d82ad665bfb603f46ecdbc290775df" target="_top" xlink:title="CoolMQTT::callback">
<polygon fill="white" stroke="black" points="555,-458.5 555,-477.5 662,-477.5 662,-458.5 555,-458.5"/>
<text text-anchor="middle" x="608.5" y="-465.5" font-family="Helvetica,sans-Serif" font-size="10.00">CoolMQTT::callback</text>
</a>
</g>
</g>
<!-- Node126&#45;&gt;Node127 -->
<g id="edge44" class="edge"><title>Node126&#45;&gt;Node127</title>
<path fill="none" stroke="midnightblue" d="M464.357,-468C488.54,-468 518.472,-468 544.704,-468"/>
<polygon fill="midnightblue" stroke="midnightblue" points="544.932,-471.5 554.932,-468 544.932,-464.5 544.932,-471.5"/>
</g>
<!-- Node129 -->
<g id="node45" class="node"><title>Node129</title>
<g id="a_node45"><a xlink:href="classCoolMQTT.html#a373cc92fca7760d886f02d8a6e5b3f63" target="_top" xlink:title="CoolMQTT::getUser">
<polygon fill="white" stroke="black" points="364.5,-0.5 364.5,-19.5 469.5,-19.5 469.5,-0.5 364.5,-0.5"/>
<text text-anchor="middle" x="417" y="-7.5" font-family="Helvetica,sans-Serif" font-size="10.00">CoolMQTT::getUser</text>
</a>
</g>
</g>
<!-- Node128&#45;&gt;Node129 -->
<g id="edge48" class="edge"><title>Node128&#45;&gt;Node129</title>
<path fill="none" stroke="midnightblue" d="M278.805,-38.411C303.456,-33.3061 333.963,-26.9887 359.945,-21.6082"/>
<polygon fill="midnightblue" stroke="midnightblue" points="360.946,-24.9752 370.028,-19.5201 359.526,-18.1207 360.946,-24.9752"/>
</g>
<!-- Node130 -->
<g id="node46" class="node"><title>Node130</title>
<g id="a_node46"><a xlink:href="classCoolTime.html#ac4f32ee513c1328d984306645e8785a4" target="_top" xlink:title="CoolTime::getESDate">
<polygon fill="white" stroke="black" points="360.5,-38.5 360.5,-57.5 473.5,-57.5 473.5,-38.5 360.5,-38.5"/>
<text text-anchor="middle" x="417" y="-45.5" font-family="Helvetica,sans-Serif" font-size="10.00">CoolTime::getESDate</text>
</a>
</g>
</g>
<!-- Node128&#45;&gt;Node130 -->
<g id="edge49" class="edge"><title>Node128&#45;&gt;Node130</title>
<path fill="none" stroke="midnightblue" d="M285.576,-48C305.77,-48 329.023,-48 350.252,-48"/>
<polygon fill="midnightblue" stroke="midnightblue" points="350.489,-51.5001 360.489,-48 350.489,-44.5001 350.489,-51.5001"/>
</g>
<!-- Node131 -->
<g id="node47" class="node"><title>Node131</title>
<g id="a_node47"><a xlink:href="classCoolTime.html#a7a7501c5ca77dd1248bea704c44f986c" target="_top" xlink:title="CoolTime::getTimeDate">
<polygon fill="white" stroke="black" points="548,-9.5 548,-28.5 669,-28.5 669,-9.5 548,-9.5"/>
<text text-anchor="middle" x="608.5" y="-16.5" font-family="Helvetica,sans-Serif" font-size="10.00">CoolTime::getTimeDate</text>
</a>
</g>
</g>
<!-- Node130&#45;&gt;Node131 -->
<g id="edge50" class="edge"><title>Node130&#45;&gt;Node131</title>
<path fill="none" stroke="midnightblue" d="M473.576,-39.495C493.752,-36.4074 516.804,-32.8796 538.03,-29.6313"/>
<polygon fill="midnightblue" stroke="midnightblue" points="538.603,-33.0844 547.958,-28.1119 537.544,-26.165 538.603,-33.0844"/>
</g>
<!-- Node132 -->
<g id="node48" class="node"><title>Node132</title>
<g id="a_node48"><a xlink:href="classCoolTime.html#acd537cd4210d7bde4e1f5c47d2ac0456" target="_top" xlink:title="CoolTime::formatDigits">
<polygon fill="white" stroke="black" points="725,-28.5 725,-47.5 843,-47.5 843,-28.5 725,-28.5"/>
<text text-anchor="middle" x="784" y="-35.5" font-family="Helvetica,sans-Serif" font-size="10.00">CoolTime::formatDigits</text>
</a>
</g>
</g>
<!-- Node130&#45;&gt;Node132 -->
<g id="edge52" class="edge"><title>Node130&#45;&gt;Node132</title>
<path fill="none" stroke="midnightblue" d="M473.833,-46.4703C538.416,-44.7009 644.76,-41.7874 714.343,-39.881"/>
<polygon fill="midnightblue" stroke="midnightblue" points="714.858,-43.3683 724.758,-39.5957 714.666,-36.3709 714.858,-43.3683"/>
</g>
<!-- Node131&#45;&gt;Node132 -->
<g id="edge51" class="edge"><title>Node131&#45;&gt;Node132</title>
<path fill="none" stroke="midnightblue" d="M669.209,-25.5387C683.863,-27.1435 699.661,-28.8736 714.686,-30.5189"/>
<polygon fill="midnightblue" stroke="midnightblue" points="714.619,-34.0324 724.941,-31.6419 715.381,-27.074 714.619,-34.0324"/>
</g>
</g>
</svg>
