<?xml version="1.0" encoding="UTF-8" standalone="no"?>
<!DOCTYPE svg PUBLIC "-//W3C//DTD SVG 1.1//EN"
 "http://www.w3.org/Graphics/SVG/1.1/DTD/svg11.dtd">
<!-- Generated by graphviz version 2.38.0 (20140413.2041)
 -->
<!-- Title: CoolBoard::onLineMode Pages: 1 -->
<svg width="851pt" height="686pt"
 viewBox="0.00 0.00 851.00 686.00" xmlns="http://www.w3.org/2000/svg" xmlns:xlink="http://www.w3.org/1999/xlink">
<g id="graph0" class="graph" transform="scale(1 1) rotate(0) translate(4 682)">
<title>CoolBoard::onLineMode</title>
<polygon fill="white" stroke="none" points="-4,4 -4,-682 847,-682 847,4 -4,4"/>
<!-- Node97 -->
<g id="node1" class="node"><title>Node97</title>
<polygon fill="#bfbfbf" stroke="black" points="0,-354.5 0,-373.5 121,-373.5 121,-354.5 0,-354.5"/>
<text text-anchor="middle" x="60.5" y="-361.5" font-family="Helvetica,sans-Serif" font-size="10.00">CoolBoard::onLineMode</text>
</g>
<!-- Node98 -->
<g id="node2" class="node"><title>Node98</title>
<g id="a_node2"><a xlink:href="classCoolBoardLed.html#a96e1ea13003eee34c9dbcef340404426" target="_top" xlink:title="CoolBoardLed::blink">
<polygon fill="white" stroke="black" points="179.5,-658.5 179.5,-677.5 283.5,-677.5 283.5,-658.5 179.5,-658.5"/>
<text text-anchor="middle" x="231.5" y="-665.5" font-family="Helvetica,sans-Serif" font-size="10.00">CoolBoardLed::blink</text>
</a>
</g>
</g>
<!-- Node97&#45;&gt;Node98 -->
<g id="edge1" class="edge"><title>Node97&#45;&gt;Node98</title>
<path fill="none" stroke="midnightblue" d="M61.6216,-373.567C62.6719,-413.696 72.2535,-570.016 157,-649 160.819,-652.559 165.216,-655.472 169.92,-657.853"/>
<polygon fill="midnightblue" stroke="midnightblue" points="168.701,-661.138 179.275,-661.807 171.426,-654.69 168.701,-661.138"/>
</g>
<!-- Node99 -->
<g id="node3" class="node"><title>Node99</title>
<g id="a_node3"><a xlink:href="classJetpack.html#a9e703197093094b963f9ad57817495b8" target="_top" xlink:title="Jetpack::doAction">
<polygon fill="white" stroke="black" points="184,-620.5 184,-639.5 279,-639.5 279,-620.5 184,-620.5"/>
<text text-anchor="middle" x="231.5" y="-627.5" font-family="Helvetica,sans-Serif" font-size="10.00">Jetpack::doAction</text>
</a>
</g>
</g>
<!-- Node97&#45;&gt;Node99 -->
<g id="edge2" class="edge"><title>Node97&#45;&gt;Node99</title>
<path fill="none" stroke="midnightblue" d="M62.1738,-373.539C65.2976,-410.278 81.6259,-543.897 157,-611 161.91,-615.371 167.696,-618.76 173.831,-621.384"/>
<polygon fill="midnightblue" stroke="midnightblue" points="173.089,-624.835 183.684,-624.908 175.447,-618.244 173.089,-624.835"/>
</g>
<!-- Node101 -->
<g id="node5" class="node"><title>Node101</title>
<g id="a_node5"><a xlink:href="classCoolBoardLed.html#af1cacbaa88db8bcf6042c1083ba41155" target="_top" xlink:title="CoolBoardLed::fade">
<polygon fill="white" stroke="black" points="180,-582.5 180,-601.5 283,-601.5 283,-582.5 180,-582.5"/>
<text text-anchor="middle" x="231.5" y="-589.5" font-family="Helvetica,sans-Serif" font-size="10.00">CoolBoardLed::fade</text>
</a>
</g>
</g>
<!-- Node97&#45;&gt;Node101 -->
<g id="edge4" class="edge"><title>Node97&#45;&gt;Node101</title>
<path fill="none" stroke="midnightblue" d="M63.2185,-373.735C69.4699,-406.267 94.0291,-512.291 157,-568 161.684,-572.144 167.098,-575.575 172.821,-578.415"/>
<polygon fill="midnightblue" stroke="midnightblue" points="171.442,-581.631 182.008,-582.408 174.232,-575.212 171.442,-581.631"/>
</g>
<!-- Node102 -->
<g id="node6" class="node"><title>Node102</title>
<g id="a_node6"><a xlink:href="classCoolBoardLed.html#ab778f5e7bed0ab74e3906d82110493c3" target="_top" xlink:title="CoolBoardLed::fadeIn">
<polygon fill="white" stroke="black" points="361.5,-468.5 361.5,-487.5 472.5,-487.5 472.5,-468.5 361.5,-468.5"/>
<text text-anchor="middle" x="417" y="-475.5" font-family="Helvetica,sans-Serif" font-size="10.00">CoolBoardLed::fadeIn</text>
</a>
</g>
</g>
<!-- Node97&#45;&gt;Node102 -->
<g id="edge5" class="edge"><title>Node97&#45;&gt;Node102</title>
<path fill="none" stroke="midnightblue" d="M64.9027,-373.8C74.518,-399.759 104.646,-470.14 157,-497 190.699,-514.289 291.722,-500.701 357.186,-489.318"/>
<polygon fill="midnightblue" stroke="midnightblue" points="358.134,-492.704 367.371,-487.515 356.914,-485.812 358.134,-492.704"/>
</g>
<!-- Node103 -->
<g id="node7" class="node"><title>Node103</title>
<g id="a_node7"><a xlink:href="classCoolBoardLed.html#a93d545679237e8cc858324367149775c" target="_top" xlink:title="CoolBoardLed::fadeOut">
<polygon fill="white" stroke="black" points="357.5,-392.5 357.5,-411.5 476.5,-411.5 476.5,-392.5 357.5,-392.5"/>
<text text-anchor="middle" x="417" y="-399.5" font-family="Helvetica,sans-Serif" font-size="10.00">CoolBoardLed::fadeOut</text>
</a>
</g>
</g>
<!-- Node97&#45;&gt;Node103 -->
<g id="edge6" class="edge"><title>Node97&#45;&gt;Node103</title>
<path fill="none" stroke="midnightblue" d="M121.039,-373.227C132.935,-374.93 145.353,-376.608 157,-378 221.315,-385.689 294.869,-392.296 347.117,-396.62"/>
<polygon fill="midnightblue" stroke="midnightblue" points="347.021,-400.124 357.274,-397.454 347.594,-393.147 347.021,-400.124"/>
</g>
<!-- Node104 -->
<g id="node8" class="node"><title>Node104</title>
<g id="a_node8"><a xlink:href="classCoolBoard.html#aaa24480b273fc095a1356a589c333781" target="_top" xlink:title="CoolBoard::getLogInterval">
<polygon fill="white" stroke="black" points="166.5,-240.5 166.5,-259.5 296.5,-259.5 296.5,-240.5 166.5,-240.5"/>
<text text-anchor="middle" x="231.5" y="-247.5" font-family="Helvetica,sans-Serif" font-size="10.00">CoolBoard::getLogInterval</text>
</a>
</g>
</g>
<!-- Node97&#45;&gt;Node104 -->
<g id="edge7" class="edge"><title>Node97&#45;&gt;Node104</title>
<path fill="none" stroke="midnightblue" d="M68.4336,-354.234C82.7064,-334.879 117.377,-291.575 157,-269 160.906,-266.775 165.076,-264.805 169.37,-263.062"/>
<polygon fill="midnightblue" stroke="midnightblue" points="170.709,-266.3 178.916,-259.599 168.322,-259.72 170.709,-266.3"/>
</g>
<!-- Node105 -->
<g id="node9" class="node"><title>Node105</title>
<g id="a_node9"><a xlink:href="classCoolFileSystem.html#a5c58bca3735c0ed3efb268d70ef998ef" target="_top" xlink:title="CoolFileSystem::getSensor\lSavedData">
<polygon fill="white" stroke="black" points="163,-191 163,-221 300,-221 300,-191 163,-191"/>
<text text-anchor="start" x="171" y="-209" font-family="Helvetica,sans-Serif" font-size="10.00">CoolFileSystem::getSensor</text>
<text text-anchor="middle" x="231.5" y="-198" font-family="Helvetica,sans-Serif" font-size="10.00">SavedData</text>
</a>
</g>
</g>
<!-- Node97&#45;&gt;Node105 -->
<g id="edge8" class="edge"><title>Node97&#45;&gt;Node105</title>
<path fill="none" stroke="midnightblue" d="M65.7868,-354.4C77.1089,-330.114 110.188,-265.706 157,-231 159.517,-229.134 162.184,-227.4 164.951,-225.791"/>
<polygon fill="midnightblue" stroke="midnightblue" points="166.808,-228.771 174.076,-221.062 163.587,-222.556 166.808,-228.771"/>
</g>
<!-- Node106 -->
<g id="node10" class="node"><title>Node106</title>
<g id="a_node10"><a xlink:href="classCoolFileSystem.html#a5a7eaeea7a9fbf8aaef651d862fa3b5b" target="_top" xlink:title="CoolFileSystem::isDataSaved">
<polygon fill="white" stroke="black" points="157,-152.5 157,-171.5 306,-171.5 306,-152.5 157,-152.5"/>
<text text-anchor="middle" x="231.5" y="-159.5" font-family="Helvetica,sans-Serif" font-size="10.00">CoolFileSystem::isDataSaved</text>
</a>
</g>
</g>
<!-- Node97&#45;&gt;Node106 -->
<g id="edge9" class="edge"><title>Node97&#45;&gt;Node106</title>
<path fill="none" stroke="midnightblue" d="M63.6195,-354.264C70.8103,-323.638 97.235,-228.485 157,-181 159.273,-179.194 161.7,-177.558 164.236,-176.076"/>
<polygon fill="midnightblue" stroke="midnightblue" points="165.825,-179.195 173.221,-171.609 162.708,-172.927 165.825,-179.195"/>
</g>
<!-- Node107 -->
<g id="node11" class="node"><title>Node107</title>
<g id="a_node11"><a xlink:href="classCoolMQTT.html#aa5eaae967b562b62cbcf2b8d81f6e5d5" target="_top" xlink:title="CoolMQTT::mqttLoop">
<polygon fill="white" stroke="black" points="361.5,-556.5 361.5,-575.5 472.5,-575.5 472.5,-556.5 361.5,-556.5"/>
<text text-anchor="middle" x="417" y="-563.5" font-family="Helvetica,sans-Serif" font-size="10.00">CoolMQTT::mqttLoop</text>
</a>
</g>
</g>
<!-- Node97&#45;&gt;Node107 -->
<g id="edge10" class="edge"><title>Node97&#45;&gt;Node107</title>
<path fill="none" stroke="midnightblue" d="M64.5399,-373.769C73.6117,-401.179 103.252,-479.207 157,-516 214.543,-555.39 295.267,-565.611 351.235,-567.427"/>
<polygon fill="midnightblue" stroke="midnightblue" points="351.305,-570.929 361.387,-567.673 351.475,-563.931 351.305,-570.929"/>
</g>
<!-- Node108 -->
<g id="node12" class="node"><title>Node108</title>
<g id="a_node12"><a xlink:href="classCoolMQTT.html#ace977b3e90ab14b1199fe5c4fb0a13ec" target="_top" xlink:title="CoolMQTT::publish">
<polygon fill="white" stroke="black" points="366.5,-430.5 366.5,-449.5 467.5,-449.5 467.5,-430.5 366.5,-430.5"/>
<text text-anchor="middle" x="417" y="-437.5" font-family="Helvetica,sans-Serif" font-size="10.00">CoolMQTT::publish</text>
</a>
</g>
</g>
<!-- Node97&#45;&gt;Node108 -->
<g id="edge11" class="edge"><title>Node97&#45;&gt;Node108</title>
<path fill="none" stroke="midnightblue" d="M83.0804,-373.609C102.168,-381.749 130.951,-393.158 157,-400 224.04,-417.609 303.011,-428.425 355.972,-434.298"/>
<polygon fill="midnightblue" stroke="midnightblue" points="355.887,-437.809 366.206,-435.407 356.641,-430.85 355.887,-437.809"/>
</g>
<!-- Node109 -->
<g id="node13" class="node"><title>Node109</title>
<g id="a_node13"><a xlink:href="classCoolMQTT.html#ae3c18f6ae9723746d32765f1c8f176ca" target="_top" xlink:title="CoolMQTT::read">
<polygon fill="white" stroke="black" points="187,-114.5 187,-133.5 276,-133.5 276,-114.5 187,-114.5"/>
<text text-anchor="middle" x="231.5" y="-121.5" font-family="Helvetica,sans-Serif" font-size="10.00">CoolMQTT::read</text>
</a>
</g>
</g>
<!-- Node97&#45;&gt;Node109 -->
<g id="edge12" class="edge"><title>Node97&#45;&gt;Node109</title>
<path fill="none" stroke="midnightblue" d="M62.6764,-354.282C67.3867,-319.763 88.0948,-201.979 157,-143 162.782,-138.051 169.696,-134.367 176.937,-131.631"/>
<polygon fill="midnightblue" stroke="midnightblue" points="178.465,-134.818 186.937,-128.456 176.347,-128.146 178.465,-134.818"/>
</g>
<!-- Node110 -->
<g id="node14" class="node"><title>Node110</title>
<g id="a_node14"><a xlink:href="classCoolBoard.html#ad03abdce2e65f520bbf2cff0f2d083cf" target="_top" xlink:title="CoolBoard::readSensors">
<polygon fill="white" stroke="black" points="170,-316.5 170,-335.5 293,-335.5 293,-316.5 170,-316.5"/>
<text text-anchor="middle" x="231.5" y="-323.5" font-family="Helvetica,sans-Serif" font-size="10.00">CoolBoard::readSensors</text>
</a>
</g>
</g>
<!-- Node97&#45;&gt;Node110 -->
<g id="edge13" class="edge"><title>Node97&#45;&gt;Node110</title>
<path fill="none" stroke="midnightblue" d="M104.146,-354.411C126.648,-349.351 154.448,-343.1 178.238,-337.751"/>
<polygon fill="midnightblue" stroke="midnightblue" points="179.172,-341.129 188.161,-335.52 177.637,-334.299 179.172,-341.129"/>
</g>
<!-- Node111 -->
<g id="node15" class="node"><title>Node111</title>
<g id="a_node15"><a xlink:href="classCoolBoardLed.html#ad5f0de4c628cbfbf49896042831c64ad" target="_top" xlink:title="CoolBoardLed::strobe">
<polygon fill="white" stroke="black" points="361.5,-354.5 361.5,-373.5 472.5,-373.5 472.5,-354.5 361.5,-354.5"/>
<text text-anchor="middle" x="417" y="-361.5" font-family="Helvetica,sans-Serif" font-size="10.00">CoolBoardLed::strobe</text>
</a>
</g>
</g>
<!-- Node97&#45;&gt;Node111 -->
<g id="edge32" class="edge"><title>Node97&#45;&gt;Node111</title>
<path fill="none" stroke="midnightblue" d="M121.235,-364C184.918,-364 285.436,-364 351.048,-364"/>
<polygon fill="midnightblue" stroke="midnightblue" points="351.268,-367.5 361.268,-364 351.268,-360.5 351.268,-367.5"/>
</g>
<!-- Node124 -->
<g id="node28" class="node"><title>Node124</title>
<g id="a_node28"><a xlink:href="classCoolBoard.html#a5d0c8ff93b615efd676be432de9f164a" target="_top" xlink:title="CoolBoard::sleep">
<polygon fill="white" stroke="black" points="185.5,-76.5 185.5,-95.5 277.5,-95.5 277.5,-76.5 185.5,-76.5"/>
<text text-anchor="middle" x="231.5" y="-83.5" font-family="Helvetica,sans-Serif" font-size="10.00">CoolBoard::sleep</text>
</a>
</g>
</g>
<!-- Node97&#45;&gt;Node124 -->
<g id="edge31" class="edge"><title>Node97&#45;&gt;Node124</title>
<path fill="none" stroke="midnightblue" d="M61.9954,-354.271C64.4781,-316.169 78.8035,-175.722 157,-105 162.254,-100.248 168.542,-96.6541 175.198,-93.9411"/>
<polygon fill="midnightblue" stroke="midnightblue" points="176.793,-97.0957 185.136,-90.5646 174.541,-90.4678 176.793,-97.0957"/>
</g>
<!-- Node125 -->
<g id="node29" class="node"><title>Node125</title>
<g id="a_node29"><a xlink:href="classCoolTime.html#aae601f795452cfa48d9fb337aed483a8" target="_top" xlink:title="CoolTime::update">
<polygon fill="white" stroke="black" points="184.5,-38.5 184.5,-57.5 278.5,-57.5 278.5,-38.5 184.5,-38.5"/>
<text text-anchor="middle" x="231.5" y="-45.5" font-family="Helvetica,sans-Serif" font-size="10.00">CoolTime::update</text>
</a>
</g>
</g>
<!-- Node97&#45;&gt;Node125 -->
<g id="edge33" class="edge"><title>Node97&#45;&gt;Node125</title>
<path fill="none" stroke="midnightblue" d="M61.475,-354.322C61.9177,-313 69.3445,-149.702 157,-67 162.024,-62.26 168.071,-58.6644 174.512,-55.9434"/>
<polygon fill="midnightblue" stroke="midnightblue" points="175.885,-59.1707 184.157,-52.551 173.562,-52.5673 175.885,-59.1707"/>
</g>
<!-- Node131 -->
<g id="node35" class="node"><title>Node131</title>
<g id="a_node35"><a xlink:href="classCoolBoard.html#a8612756d3f73198cdde857a66f0fe690" target="_top" xlink:title="CoolBoard::update">
<polygon fill="white" stroke="black" points="182.5,-468.5 182.5,-487.5 280.5,-487.5 280.5,-468.5 182.5,-468.5"/>
<text text-anchor="middle" x="231.5" y="-475.5" font-family="Helvetica,sans-Serif" font-size="10.00">CoolBoard::update</text>
</a>
</g>
</g>
<!-- Node97&#45;&gt;Node131 -->
<g id="edge39" class="edge"><title>Node97&#45;&gt;Node131</title>
<path fill="none" stroke="midnightblue" d="M69.1348,-373.591C84.1104,-391.8 119.19,-431.556 157,-454 164.384,-458.383 172.667,-462.074 180.939,-465.145"/>
<polygon fill="midnightblue" stroke="midnightblue" points="179.995,-468.522 190.589,-468.47 182.275,-461.904 179.995,-468.522"/>
</g>
<!-- Node133 -->
<g id="node37" class="node"><title>Node133</title>
<g id="a_node37"><a xlink:href="classCoolBoard.html#ae7358fb6e623cfc81b775f5f1734909b" target="_top" xlink:title="CoolBoard::userData">
<polygon fill="white" stroke="black" points="177.5,-278.5 177.5,-297.5 285.5,-297.5 285.5,-278.5 177.5,-278.5"/>
<text text-anchor="middle" x="231.5" y="-285.5" font-family="Helvetica,sans-Serif" font-size="10.00">CoolBoard::userData</text>
</a>
</g>
</g>
<!-- Node97&#45;&gt;Node133 -->
<g id="edge46" class="edge"><title>Node97&#45;&gt;Node133</title>
<path fill="none" stroke="midnightblue" d="M74.7673,-354.402C92.6411,-341.875 125.819,-320.019 157,-307 162.826,-304.567 169.046,-302.38 175.308,-300.431"/>
<polygon fill="midnightblue" stroke="midnightblue" points="176.513,-303.725 185.132,-297.563 174.552,-297.005 176.513,-303.725"/>
</g>
<!-- Node100 -->
<g id="node4" class="node"><title>Node100</title>
<g id="a_node4"><a xlink:href="classJetpack.html#a338f1af8cbc6504ac69b47c7328569b5" target="_top" xlink:title="Jetpack::write">
<polygon fill="white" stroke="black" points="378,-620.5 378,-639.5 456,-639.5 456,-620.5 378,-620.5"/>
<text text-anchor="middle" x="417" y="-627.5" font-family="Helvetica,sans-Serif" font-size="10.00">Jetpack::write</text>
</a>
</g>
</g>
<!-- Node99&#45;&gt;Node100 -->
<g id="edge3" class="edge"><title>Node99&#45;&gt;Node100</title>
<path fill="none" stroke="midnightblue" d="M279.28,-630C306.396,-630 340.476,-630 367.827,-630"/>
<polygon fill="midnightblue" stroke="midnightblue" points="367.951,-633.5 377.951,-630 367.951,-626.5 367.951,-633.5"/>
</g>
<!-- Node110&#45;&gt;Node102 -->
<g id="edge14" class="edge"><title>Node110&#45;&gt;Node102</title>
<path fill="none" stroke="midnightblue" d="M237.647,-335.813C251.172,-360.599 290.27,-426.085 342,-459 345.366,-461.142 348.963,-463.042 352.689,-464.729"/>
<polygon fill="midnightblue" stroke="midnightblue" points="351.577,-468.053 362.162,-468.497 354.164,-461.549 351.577,-468.053"/>
</g>
<!-- Node110&#45;&gt;Node103 -->
<g id="edge30" class="edge"><title>Node110&#45;&gt;Node103</title>
<path fill="none" stroke="midnightblue" d="M248.287,-335.694C269.103,-348.126 307.174,-369.667 342,-383 348.408,-385.453 355.249,-387.691 362.085,-389.7"/>
<polygon fill="midnightblue" stroke="midnightblue" points="361.474,-393.163 372.047,-392.479 363.355,-386.421 361.474,-393.163"/>
</g>
<!-- Node110&#45;&gt;Node111 -->
<g id="edge15" class="edge"><title>Node110&#45;&gt;Node111</title>
<path fill="none" stroke="midnightblue" d="M278.805,-335.589C303.456,-340.694 333.963,-347.011 359.945,-352.392"/>
<polygon fill="midnightblue" stroke="midnightblue" points="359.526,-355.879 370.028,-354.48 360.946,-349.025 359.526,-355.879"/>
</g>
<!-- Node112 -->
<g id="node16" class="node"><title>Node112</title>
<g id="a_node16"><a xlink:href="classCoolBoardSensors.html#a91badb2539d91fda8679f2a597874c48" target="_top" xlink:title="CoolBoardSensors::read">
<polygon fill="white" stroke="black" points="355.5,-278.5 355.5,-297.5 478.5,-297.5 478.5,-278.5 355.5,-278.5"/>
<text text-anchor="middle" x="417" y="-285.5" font-family="Helvetica,sans-Serif" font-size="10.00">CoolBoardSensors::read</text>
</a>
</g>
</g>
<!-- Node110&#45;&gt;Node112 -->
<g id="edge16" class="edge"><title>Node110&#45;&gt;Node112</title>
<path fill="none" stroke="midnightblue" d="M278.805,-316.411C303.456,-311.306 333.963,-304.989 359.945,-299.608"/>
<polygon fill="midnightblue" stroke="midnightblue" points="360.946,-302.975 370.028,-297.52 359.526,-296.121 360.946,-302.975"/>
</g>
<!-- Node116 -->
<g id="node20" class="node"><title>Node116</title>
<g id="a_node20"><a xlink:href="classExternalSensors.html#a53177b81eca3be89508b5511ddcd00fc" target="_top" xlink:title="ExternalSensors::read">
<polygon fill="white" stroke="black" points="360.5,-202.5 360.5,-221.5 473.5,-221.5 473.5,-202.5 360.5,-202.5"/>
<text text-anchor="middle" x="417" y="-209.5" font-family="Helvetica,sans-Serif" font-size="10.00">ExternalSensors::read</text>
</a>
</g>
</g>
<!-- Node110&#45;&gt;Node116 -->
<g id="edge20" class="edge"><title>Node110&#45;&gt;Node116</title>
<path fill="none" stroke="midnightblue" d="M289.825,-316.448C295.64,-313.979 301.173,-310.882 306,-307 333.572,-284.829 315.113,-258.997 342,-236 346.85,-231.852 352.43,-228.418 358.306,-225.575"/>
<polygon fill="midnightblue" stroke="midnightblue" points="359.884,-228.707 367.721,-221.577 357.148,-222.264 359.884,-228.707"/>
</g>
<!-- Node117 -->
<g id="node21" class="node"><title>Node117</title>
<g id="a_node21"><a xlink:href="classIrene3000.html#a852a170feea994ea1df01c6b245b5d9a" target="_top" xlink:title="Irene3000::read">
<polygon fill="white" stroke="black" points="375,-316.5 375,-335.5 459,-335.5 459,-316.5 375,-316.5"/>
<text text-anchor="middle" x="417" y="-323.5" font-family="Helvetica,sans-Serif" font-size="10.00">Irene3000::read</text>
</a>
</g>
</g>
<!-- Node110&#45;&gt;Node117 -->
<g id="edge21" class="edge"><title>Node110&#45;&gt;Node117</title>
<path fill="none" stroke="midnightblue" d="M293.093,-326C316.254,-326 342.421,-326 364.64,-326"/>
<polygon fill="midnightblue" stroke="midnightblue" points="364.872,-329.5 374.872,-326 364.872,-322.5 364.872,-329.5"/>
</g>
<!-- Node122 -->
<g id="node26" class="node"><title>Node122</title>
<g id="a_node26"><a xlink:href="classCoolTime.html#a7a7501c5ca77dd1248bea704c44f986c" target="_top" xlink:title="CoolTime::getTimeDate">
<polygon fill="white" stroke="black" points="548,-164.5 548,-183.5 669,-183.5 669,-164.5 548,-164.5"/>
<text text-anchor="middle" x="608.5" y="-171.5" font-family="Helvetica,sans-Serif" font-size="10.00">CoolTime::getTimeDate</text>
</a>
</g>
</g>
<!-- Node110&#45;&gt;Node122 -->
<g id="edge28" class="edge"><title>Node110&#45;&gt;Node122</title>
<path fill="none" stroke="midnightblue" d="M284.573,-316.451C292.041,-313.981 299.415,-310.882 306,-307 326.041,-295.185 321.93,-280.766 342,-269 401.328,-234.217 432.672,-265.783 492,-231 512.07,-219.234 507.851,-204.63 528,-193 531.908,-190.744 536.072,-188.756 540.367,-187.003"/>
<polygon fill="midnightblue" stroke="midnightblue" points="541.728,-190.232 549.933,-183.53 539.339,-183.653 541.728,-190.232"/>
</g>
<!-- Node113 -->
<g id="node17" class="node"><title>Node113</title>
<g id="a_node17"><a xlink:href="classCoolBoardSensors.html#acad6a8418c66d36868caca23c844ecb6" target="_top" xlink:title="CoolBoardSensors::initReadI2C">
<polygon fill="white" stroke="black" points="530.5,-278.5 530.5,-297.5 686.5,-297.5 686.5,-278.5 530.5,-278.5"/>
<text text-anchor="middle" x="608.5" y="-285.5" font-family="Helvetica,sans-Serif" font-size="10.00">CoolBoardSensors::initReadI2C</text>
</a>
</g>
</g>
<!-- Node112&#45;&gt;Node113 -->
<g id="edge17" class="edge"><title>Node112&#45;&gt;Node113</title>
<path fill="none" stroke="midnightblue" d="M478.741,-288C491.982,-288 506.245,-288 520.286,-288"/>
<polygon fill="midnightblue" stroke="midnightblue" points="520.453,-291.5 530.453,-288 520.453,-284.5 520.453,-291.5"/>
</g>
<!-- Node114 -->
<g id="node18" class="node"><title>Node114</title>
<g id="a_node18"><a xlink:href="classCoolBoardSensors.html#a6944b6ea7bce8e2fce1b434acfd9d5f3" target="_top" xlink:title="CoolBoardSensors::readVBat">
<polygon fill="white" stroke="black" points="536,-240.5 536,-259.5 681,-259.5 681,-240.5 536,-240.5"/>
<text text-anchor="middle" x="608.5" y="-247.5" font-family="Helvetica,sans-Serif" font-size="10.00">CoolBoardSensors::readVBat</text>
</a>
</g>
</g>
<!-- Node112&#45;&gt;Node114 -->
<g id="edge18" class="edge"><title>Node112&#45;&gt;Node114</title>
<path fill="none" stroke="midnightblue" d="M465.819,-278.411C491.389,-273.284 523.059,-266.933 549.968,-261.537"/>
<polygon fill="midnightblue" stroke="midnightblue" points="550.908,-264.918 560.025,-259.52 549.532,-258.055 550.908,-264.918"/>
</g>
<!-- Node115 -->
<g id="node19" class="node"><title>Node115</title>
<g id="a_node19"><a xlink:href="classCoolBoardSensors.html#a8761bff50373c485f4465c8db47d0633" target="_top" xlink:title="CoolBoardSensors::readMoisture">
<polygon fill="white" stroke="black" points="528,-202.5 528,-221.5 689,-221.5 689,-202.5 528,-202.5"/>
<text text-anchor="middle" x="608.5" y="-209.5" font-family="Helvetica,sans-Serif" font-size="10.00">CoolBoardSensors::readMoisture</text>
</a>
</g>
</g>
<!-- Node112&#45;&gt;Node115 -->
<g id="edge19" class="edge"><title>Node112&#45;&gt;Node115</title>
<path fill="none" stroke="midnightblue" d="M458.129,-278.414C469.507,-274.799 481.615,-270.054 492,-264 510.752,-253.069 508.831,-241.182 528,-231 532.316,-228.708 536.909,-226.688 541.627,-224.909"/>
<polygon fill="midnightblue" stroke="midnightblue" points="543.089,-228.11 551.438,-221.587 540.844,-221.48 543.089,-228.11"/>
</g>
<!-- Node118 -->
<g id="node22" class="node"><title>Node118</title>
<g id="a_node22"><a xlink:href="classIrene3000.html#a94ad40f281d83ad1be20bf1edd6fe802" target="_top" xlink:title="Irene3000::readTemp">
<polygon fill="white" stroke="black" points="554,-392.5 554,-411.5 663,-411.5 663,-392.5 554,-392.5"/>
<text text-anchor="middle" x="608.5" y="-399.5" font-family="Helvetica,sans-Serif" font-size="10.00">Irene3000::readTemp</text>
</a>
</g>
</g>
<!-- Node117&#45;&gt;Node118 -->
<g id="edge22" class="edge"><title>Node117&#45;&gt;Node118</title>
<path fill="none" stroke="midnightblue" d="M459.166,-332.257C470.322,-335.079 482.054,-339.148 492,-345 512.051,-356.799 507.851,-371.37 528,-383 533.039,-385.909 538.503,-388.373 544.127,-390.461"/>
<polygon fill="midnightblue" stroke="midnightblue" points="543.102,-393.808 553.695,-393.631 545.303,-387.163 543.102,-393.808"/>
</g>
<!-- Node120 -->
<g id="node24" class="node"><title>Node120</title>
<g id="a_node24"><a xlink:href="classIrene3000.html#abf3db725fabb0634ec889b32068a5eec" target="_top" xlink:title="Irene3000::readPh">
<polygon fill="white" stroke="black" points="560.5,-354.5 560.5,-373.5 656.5,-373.5 656.5,-354.5 560.5,-354.5"/>
<text text-anchor="middle" x="608.5" y="-361.5" font-family="Helvetica,sans-Serif" font-size="10.00">Irene3000::readPh</text>
</a>
</g>
</g>
<!-- Node117&#45;&gt;Node120 -->
<g id="edge24" class="edge"><title>Node117&#45;&gt;Node120</title>
<path fill="none" stroke="midnightblue" d="M459.119,-334.245C485.799,-339.596 520.939,-346.642 550.325,-352.535"/>
<polygon fill="midnightblue" stroke="midnightblue" points="549.963,-356.032 560.456,-354.566 551.339,-349.168 549.963,-356.032"/>
</g>
<!-- Node121 -->
<g id="node25" class="node"><title>Node121</title>
<g id="a_node25"><a xlink:href="classIrene3000.html#ae73bd2ed14a199a7e83f4d6458476a7c" target="_top" xlink:title="Irene3000::readADSChannel2">
<polygon fill="white" stroke="black" points="535.5,-316.5 535.5,-335.5 681.5,-335.5 681.5,-316.5 535.5,-316.5"/>
<text text-anchor="middle" x="608.5" y="-323.5" font-family="Helvetica,sans-Serif" font-size="10.00">Irene3000::readADSChannel2</text>
</a>
</g>
</g>
<!-- Node117&#45;&gt;Node121 -->
<g id="edge26" class="edge"><title>Node117&#45;&gt;Node121</title>
<path fill="none" stroke="midnightblue" d="M459.119,-326C478.462,-326 502.253,-326 525.073,-326"/>
<polygon fill="midnightblue" stroke="midnightblue" points="525.123,-329.5 535.123,-326 525.123,-322.5 525.123,-329.5"/>
</g>
<!-- Node119 -->
<g id="node23" class="node"><title>Node119</title>
<g id="a_node23"><a xlink:href="classIrene3000.html#aff7c5da186b388e7272e63ff88a20c34" target="_top" xlink:title="Irene3000::setGain">
<polygon fill="white" stroke="black" points="734.5,-354.5 734.5,-373.5 833.5,-373.5 833.5,-354.5 734.5,-354.5"/>
<text text-anchor="middle" x="784" y="-361.5" font-family="Helvetica,sans-Serif" font-size="10.00">Irene3000::setGain</text>
</a>
</g>
</g>
<!-- Node118&#45;&gt;Node119 -->
<g id="edge23" class="edge"><title>Node118&#45;&gt;Node119</title>
<path fill="none" stroke="midnightblue" d="M653.281,-392.411C676.486,-387.329 705.178,-381.045 729.673,-375.68"/>
<polygon fill="midnightblue" stroke="midnightblue" points="730.514,-379.079 739.533,-373.52 729.016,-372.241 730.514,-379.079"/>
</g>
<!-- Node120&#45;&gt;Node119 -->
<g id="edge25" class="edge"><title>Node120&#45;&gt;Node119</title>
<path fill="none" stroke="midnightblue" d="M656.91,-364C677.697,-364 702.308,-364 724.245,-364"/>
<polygon fill="midnightblue" stroke="midnightblue" points="724.44,-367.5 734.44,-364 724.44,-360.5 724.44,-367.5"/>
</g>
<!-- Node121&#45;&gt;Node119 -->
<g id="edge27" class="edge"><title>Node121&#45;&gt;Node119</title>
<path fill="none" stroke="midnightblue" d="M653.281,-335.589C676.486,-340.671 705.178,-346.955 729.673,-352.32"/>
<polygon fill="midnightblue" stroke="midnightblue" points="729.016,-355.759 739.533,-354.48 730.514,-348.921 729.016,-355.759"/>
</g>
<!-- Node123 -->
<g id="node27" class="node"><title>Node123</title>
<g id="a_node27"><a xlink:href="classCoolTime.html#acd537cd4210d7bde4e1f5c47d2ac0456" target="_top" xlink:title="CoolTime::formatDigits">
<polygon fill="white" stroke="black" points="725,-145.5 725,-164.5 843,-164.5 843,-145.5 725,-145.5"/>
<text text-anchor="middle" x="784" y="-152.5" font-family="Helvetica,sans-Serif" font-size="10.00">CoolTime::formatDigits</text>
</a>
</g>
</g>
<!-- Node122&#45;&gt;Node123 -->
<g id="edge29" class="edge"><title>Node122&#45;&gt;Node123</title>
<path fill="none" stroke="midnightblue" d="M669.209,-167.461C683.863,-165.856 699.661,-164.126 714.686,-162.481"/>
<polygon fill="midnightblue" stroke="midnightblue" points="715.381,-165.926 724.941,-161.358 714.619,-158.968 715.381,-165.926"/>
</g>
<!-- Node126 -->
<g id="node30" class="node"><title>Node126</title>
<g id="a_node30"><a xlink:href="classCoolTime.html#a5ae038a4498602b189f76a10bf02adf8" target="_top" xlink:title="CoolTime::isTimeSync">
<polygon fill="white" stroke="black" points="359,-76.5 359,-95.5 475,-95.5 475,-76.5 359,-76.5"/>
<text text-anchor="middle" x="417" y="-83.5" font-family="Helvetica,sans-Serif" font-size="10.00">CoolTime::isTimeSync</text>
</a>
</g>
</g>
<!-- Node125&#45;&gt;Node126 -->
<g id="edge34" class="edge"><title>Node125&#45;&gt;Node126</title>
<path fill="none" stroke="midnightblue" d="M278.805,-57.589C303.456,-62.6939 333.963,-69.0113 359.945,-74.3918"/>
<polygon fill="midnightblue" stroke="midnightblue" points="359.526,-77.8793 370.028,-76.4799 360.946,-71.0248 359.526,-77.8793"/>
</g>
<!-- Node128 -->
<g id="node32" class="node"><title>Node128</title>
<g id="a_node32"><a xlink:href="classCoolTime.html#a41fbbbfd651c2079f54d4b2911e4c705" target="_top" xlink:title="CoolTime::getNtpTime">
<polygon fill="white" stroke="black" points="359,-38.5 359,-57.5 475,-57.5 475,-38.5 359,-38.5"/>
<text text-anchor="middle" x="417" y="-45.5" font-family="Helvetica,sans-Serif" font-size="10.00">CoolTime::getNtpTime</text>
</a>
</g>
</g>
<!-- Node125&#45;&gt;Node128 -->
<g id="edge36" class="edge"><title>Node125&#45;&gt;Node128</title>
<path fill="none" stroke="midnightblue" d="M278.805,-48C299.984,-48 325.486,-48 348.727,-48"/>
<polygon fill="midnightblue" stroke="midnightblue" points="348.875,-51.5001 358.875,-48 348.875,-44.5001 348.875,-51.5001"/>
</g>
<!-- Node130 -->
<g id="node34" class="node"><title>Node130</title>
<g id="a_node34"><a xlink:href="classCoolTime.html#ae9658c9b377510d469e3b88edf33ee85" target="_top" xlink:title="CoolTime::saveTimeSync">
<polygon fill="white" stroke="black" points="352,-0.5 352,-19.5 482,-19.5 482,-0.5 352,-0.5"/>
<text text-anchor="middle" x="417" y="-7.5" font-family="Helvetica,sans-Serif" font-size="10.00">CoolTime::saveTimeSync</text>
</a>
</g>
</g>
<!-- Node125&#45;&gt;Node130 -->
<g id="edge38" class="edge"><title>Node125&#45;&gt;Node130</title>
<path fill="none" stroke="midnightblue" d="M278.805,-38.411C303.456,-33.3061 333.963,-26.9887 359.945,-21.6082"/>
<polygon fill="midnightblue" stroke="midnightblue" points="360.946,-24.9752 370.028,-19.5201 359.526,-18.1207 360.946,-24.9752"/>
</g>
<!-- Node127 -->
<g id="node31" class="node"><title>Node127</title>
<g id="a_node31"><a xlink:href="classCoolTime.html#a5d17f707a9d337720493b2bce9d41c21" target="_top" xlink:title="CoolTime::getLastSyncTime">
<polygon fill="white" stroke="black" points="538,-76.5 538,-95.5 679,-95.5 679,-76.5 538,-76.5"/>
<text text-anchor="middle" x="608.5" y="-83.5" font-family="Helvetica,sans-Serif" font-size="10.00">CoolTime::getLastSyncTime</text>
</a>
</g>
</g>
<!-- Node126&#45;&gt;Node127 -->
<g id="edge35" class="edge"><title>Node126&#45;&gt;Node127</title>
<path fill="none" stroke="midnightblue" d="M475.113,-86C491.602,-86 509.907,-86 527.514,-86"/>
<polygon fill="midnightblue" stroke="midnightblue" points="527.782,-89.5001 537.782,-86 527.782,-82.5001 527.782,-89.5001"/>
</g>
<!-- Node129 -->
<g id="node33" class="node"><title>Node129</title>
<g id="a_node33"><a xlink:href="classCoolTime.html#a236a38d120dc53bc67456d763838c5a1" target="_top" xlink:title="CoolTime::sendNTPpacket">
<polygon fill="white" stroke="black" points="541,-38.5 541,-57.5 676,-57.5 676,-38.5 541,-38.5"/>
<text text-anchor="middle" x="608.5" y="-45.5" font-family="Helvetica,sans-Serif" font-size="10.00">CoolTime::sendNTPpacket</text>
</a>
</g>
</g>
<!-- Node128&#45;&gt;Node129 -->
<g id="edge37" class="edge"><title>Node128&#45;&gt;Node129</title>
<path fill="none" stroke="midnightblue" d="M475.113,-48C492.584,-48 512.093,-48 530.651,-48"/>
<polygon fill="midnightblue" stroke="midnightblue" points="530.845,-51.5001 540.845,-48 530.844,-44.5001 530.845,-51.5001"/>
</g>
<!-- Node131&#45;&gt;Node102 -->
<g id="edge40" class="edge"><title>Node131&#45;&gt;Node102</title>
<path fill="none" stroke="midnightblue" d="M280.712,-478C302.265,-478 327.99,-478 351.192,-478"/>
<polygon fill="midnightblue" stroke="midnightblue" points="351.305,-481.5 361.305,-478 351.305,-474.5 351.305,-481.5"/>
</g>
<!-- Node131&#45;&gt;Node103 -->
<g id="edge45" class="edge"><title>Node131&#45;&gt;Node103</title>
<path fill="none" stroke="midnightblue" d="M248.287,-468.306C269.103,-455.874 307.174,-434.333 342,-421 348.408,-418.547 355.249,-416.309 362.085,-414.3"/>
<polygon fill="midnightblue" stroke="midnightblue" points="363.355,-417.579 372.047,-411.521 361.474,-410.837 363.355,-417.579"/>
</g>
<!-- Node131&#45;&gt;Node107 -->
<g id="edge43" class="edge"><title>Node131&#45;&gt;Node107</title>
<path fill="none" stroke="midnightblue" d="M245.295,-487.693C265.059,-502.248 304.645,-529.771 342,-546 348.397,-548.779 355.276,-551.258 362.171,-553.444"/>
<polygon fill="midnightblue" stroke="midnightblue" points="361.649,-556.94 372.232,-556.438 363.645,-550.231 361.649,-556.94"/>
</g>
<!-- Node131&#45;&gt;Node108 -->
<g id="edge42" class="edge"><title>Node131&#45;&gt;Node108</title>
<path fill="none" stroke="midnightblue" d="M278.805,-468.411C303.456,-463.306 333.963,-456.989 359.945,-451.608"/>
<polygon fill="midnightblue" stroke="midnightblue" points="360.946,-454.975 370.028,-449.52 359.526,-448.121 360.946,-454.975"/>
</g>
<!-- Node131&#45;&gt;Node111 -->
<g id="edge44" class="edge"><title>Node131&#45;&gt;Node111</title>
<path fill="none" stroke="midnightblue" d="M240.785,-468.271C257.753,-448.982 298.536,-405.792 342,-383 346.324,-380.732 350.935,-378.724 355.661,-376.947"/>
<polygon fill="midnightblue" stroke="midnightblue" points="357.123,-380.147 365.466,-373.617 354.872,-373.519 357.123,-380.147"/>
</g>
<!-- Node132 -->
<g id="node36" class="node"><title>Node132</title>
<g id="a_node36"><a xlink:href="classCoolFileSystem.html#adfa8e2e80641ae6f0cceabd348a9b841" target="_top" xlink:title="CoolFileSystem::updateConfig\lFiles">
<polygon fill="white" stroke="black" points="342,-507 342,-537 492,-537 492,-507 342,-507"/>
<text text-anchor="start" x="350" y="-525" font-family="Helvetica,sans-Serif" font-size="10.00">CoolFileSystem::updateConfig</text>
<text text-anchor="middle" x="417" y="-514" font-family="Helvetica,sans-Serif" font-size="10.00">Files</text>
</a>
</g>
</g>
<!-- Node131&#45;&gt;Node132 -->
<g id="edge41" class="edge"><title>Node131&#45;&gt;Node132</title>
<path fill="none" stroke="midnightblue" d="M272.317,-487.547C293.069,-492.523 319.106,-498.767 343.296,-504.567"/>
<polygon fill="midnightblue" stroke="midnightblue" points="342.63,-508.006 353.171,-506.935 344.262,-501.199 342.63,-508.006"/>
</g>
<!-- Node134 -->
<g id="node38" class="node"><title>Node134</title>
<g id="a_node38"><a xlink:href="classCoolMQTT.html#a373cc92fca7760d886f02d8a6e5b3f63" target="_top" xlink:title="CoolMQTT::getUser">
<polygon fill="white" stroke="black" points="364.5,-126.5 364.5,-145.5 469.5,-145.5 469.5,-126.5 364.5,-126.5"/>
<text text-anchor="middle" x="417" y="-133.5" font-family="Helvetica,sans-Serif" font-size="10.00">CoolMQTT::getUser</text>
</a>
</g>
</g>
<!-- Node133&#45;&gt;Node134 -->
<g id="edge47" class="edge"><title>Node133&#45;&gt;Node134</title>
<path fill="none" stroke="midnightblue" d="M285.69,-281.212C293.177,-278.377 300.262,-274.442 306,-269 344.551,-232.436 303.419,-191.532 342,-155 345.815,-151.388 350.221,-148.438 354.944,-146.033"/>
<polygon fill="midnightblue" stroke="midnightblue" points="356.503,-149.174 364.344,-142.048 353.771,-142.729 356.503,-149.174"/>
</g>
<!-- Node135 -->
<g id="node39" class="node"><title>Node135</title>
<g id="a_node39"><a xlink:href="classCoolTime.html#ac4f32ee513c1328d984306645e8785a4" target="_top" xlink:title="CoolTime::getESDate">
<polygon fill="white" stroke="black" points="360.5,-164.5 360.5,-183.5 473.5,-183.5 473.5,-164.5 360.5,-164.5"/>
<text text-anchor="middle" x="417" y="-171.5" font-family="Helvetica,sans-Serif" font-size="10.00">CoolTime::getESDate</text>
</a>
</g>
</g>
<!-- Node133&#45;&gt;Node135 -->
<g id="edge48" class="edge"><title>Node133&#45;&gt;Node135</title>
<path fill="none" stroke="midnightblue" d="M285.817,-280.224C293.113,-277.509 300.108,-273.87 306,-269 334.809,-245.189 313.171,-216.787 342,-193 344.881,-190.623 348.023,-188.539 351.334,-186.713"/>
<polygon fill="midnightblue" stroke="midnightblue" points="352.858,-189.864 360.431,-182.454 349.89,-183.524 352.858,-189.864"/>
</g>
<!-- Node135&#45;&gt;Node122 -->
<g id="edge49" class="edge"><title>Node135&#45;&gt;Node122</title>
<path fill="none" stroke="midnightblue" d="M473.576,-174C493.66,-174 516.595,-174 537.742,-174"/>
<polygon fill="midnightblue" stroke="midnightblue" points="537.959,-177.5 547.958,-174 537.958,-170.5 537.959,-177.5"/>
</g>
<!-- Node135&#45;&gt;Node123 -->
<g id="edge50" class="edge"><title>Node135&#45;&gt;Node123</title>
<path fill="none" stroke="midnightblue" d="M462.731,-164.488C482.616,-160.722 506.374,-156.854 528,-155 591.166,-149.585 663.456,-150.228 714.898,-151.846"/>
<polygon fill="midnightblue" stroke="midnightblue" points="714.787,-155.344 724.899,-152.181 715.022,-148.348 714.787,-155.344"/>
</g>
</g>
</svg>
