<?xml version="1.0" encoding="UTF-8" standalone="no"?>
<!DOCTYPE svg PUBLIC "-//W3C//DTD SVG 1.1//EN"
 "http://www.w3.org/Graphics/SVG/1.1/DTD/svg11.dtd">
<!-- Generated by graphviz version 2.38.0 (20140413.2041)
 -->
<!-- Title: CoolBoard::userData Pages: 1 -->
<svg width="422pt" height="66pt"
 viewBox="0.00 0.00 422.00 66.00" xmlns="http://www.w3.org/2000/svg" xmlns:xlink="http://www.w3.org/1999/xlink">
<g id="graph0" class="graph" transform="scale(1 1) rotate(0) translate(4 62)">
<title>CoolBoard::userData</title>
<polygon fill="white" stroke="none" points="-4,4 -4,-62 418,-62 418,4 -4,4"/>
<!-- Node149 -->
<g id="node1" class="node"><title>Node149</title>
<polygon fill="#bfbfbf" stroke="black" points="0,-19.5 0,-38.5 108,-38.5 108,-19.5 0,-19.5"/>
<text text-anchor="middle" x="54" y="-26.5" font-family="Helvetica,sans-Serif" font-size="10.00">CoolBoard::userData</text>
</g>
<!-- Node150 -->
<g id="node2" class="node"><title>Node150</title>
<g id="a_node2"><a xlink:href="class_cool_time.html#ac4f32ee513c1328d984306645e8785a4" target="_top" xlink:title="CoolTime::getESDate">
<polygon fill="white" stroke="black" points="144,-38.5 144,-57.5 257,-57.5 257,-38.5 144,-38.5"/>
<text text-anchor="middle" x="200.5" y="-45.5" font-family="Helvetica,sans-Serif" font-size="10.00">CoolTime::getESDate</text>
</a>
</g>
</g>
<!-- Node149&#45;&gt;Node150 -->
<g id="edge1" class="edge"><title>Node149&#45;&gt;Node150</title>
<path fill="none" stroke="midnightblue" d="M108.396,-36.0209C116.717,-37.115 125.397,-38.2563 133.95,-39.381"/>
<polygon fill="midnightblue" stroke="midnightblue" points="133.533,-42.8562 143.904,-40.6898 134.445,-35.9159 133.533,-42.8562"/>
</g>
<!-- Node152 -->
<g id="node4" class="node"><title>Node152</title>
<g id="a_node4"><a xlink:href="class_cool_m_q_t_t.html#a373cc92fca7760d886f02d8a6e5b3f63" target="_top" xlink:title="CoolMQTT::getUser">
<polygon fill="white" stroke="black" points="148,-0.5 148,-19.5 253,-19.5 253,-0.5 148,-0.5"/>
<text text-anchor="middle" x="200.5" y="-7.5" font-family="Helvetica,sans-Serif" font-size="10.00">CoolMQTT::getUser</text>
</a>
</g>
</g>
<!-- Node149&#45;&gt;Node152 -->
<g id="edge3" class="edge"><title>Node149&#45;&gt;Node152</title>
<path fill="none" stroke="midnightblue" d="M108.396,-21.9791C117.943,-20.7238 127.962,-19.4064 137.721,-18.1232"/>
<polygon fill="midnightblue" stroke="midnightblue" points="138.307,-21.5763 147.766,-16.8024 137.395,-14.636 138.307,-21.5763"/>
</g>
<!-- Node151 -->
<g id="node3" class="node"><title>Node151</title>
<g id="a_node3"><a xlink:href="class_cool_time.html#a7a7501c5ca77dd1248bea704c44f986c" target="_top" xlink:title="CoolTime::getTimeDate">
<polygon fill="white" stroke="black" points="293,-38.5 293,-57.5 414,-57.5 414,-38.5 293,-38.5"/>
<text text-anchor="middle" x="353.5" y="-45.5" font-family="Helvetica,sans-Serif" font-size="10.00">CoolTime::getTimeDate</text>
</a>
</g>
</g>
<!-- Node150&#45;&gt;Node151 -->
<g id="edge2" class="edge"><title>Node150&#45;&gt;Node151</title>
<path fill="none" stroke="midnightblue" d="M257.298,-48C265.54,-48 274.119,-48 282.604,-48"/>
<polygon fill="midnightblue" stroke="midnightblue" points="282.877,-51.5001 292.877,-48 282.877,-44.5001 282.877,-51.5001"/>
</g>
</g>
</svg>
