<?xml version="1.0" encoding="UTF-8" standalone="no"?>
<!DOCTYPE svg PUBLIC "-//W3C//DTD SVG 1.1//EN"
 "http://www.w3.org/Graphics/SVG/1.1/DTD/svg11.dtd">
<!-- Generated by graphviz version 2.38.0 (20140413.2041)
 -->
<!-- Title: CoolTime::formatDigits Pages: 1 -->
<svg width="747pt" height="85pt"
 viewBox="0.00 0.00 747.00 85.00" xmlns="http://www.w3.org/2000/svg" xmlns:xlink="http://www.w3.org/1999/xlink">
<g id="graph0" class="graph" transform="scale(1 1) rotate(0) translate(4 81)">
<title>CoolTime::formatDigits</title>
<polygon fill="white" stroke="none" points="-4,4 -4,-81 743,-81 743,4 -4,4"/>
<!-- Node17 -->
<g id="node1" class="node"><title>Node17</title>
<polygon fill="#bfbfbf" stroke="black" points="0,-38.5 0,-57.5 118,-57.5 118,-38.5 0,-38.5"/>
<text text-anchor="middle" x="59" y="-45.5" font-family="Helvetica,sans-Serif" font-size="10.00">CoolTime::formatDigits</text>
</g>
<!-- Node18 -->
<g id="node2" class="node"><title>Node18</title>
<g id="a_node2"><a xlink:href="classCoolTime.html#ac4f32ee513c1328d984306645e8785a4" target="_top" xlink:title="CoolTime::getESDate">
<polygon fill="white" stroke="black" points="311,-38.5 311,-57.5 424,-57.5 424,-38.5 311,-38.5"/>
<text text-anchor="middle" x="367.5" y="-45.5" font-family="Helvetica,sans-Serif" font-size="10.00">CoolTime::getESDate</text>
</a>
</g>
</g>
<!-- Node17&#45;&gt;Node18 -->
<g id="edge1" class="edge"><title>Node17&#45;&gt;Node18</title>
<path fill="none" stroke="midnightblue" d="M108.023,-59.6246C122.689,-62.6548 138.924,-65.4916 154,-67 207.511,-72.3539 221.504,-72.4956 275,-67 293.076,-65.1431 312.849,-61.2742 329.375,-57.5093"/>
<polygon fill="midnightblue" stroke="midnightblue" points="108.665,-56.1829 98.1541,-57.5098 107.199,-63.0275 108.665,-56.1829"/>
</g>
<!-- Node22 -->
<g id="node6" class="node"><title>Node22</title>
<g id="a_node6"><a xlink:href="classCoolTime.html#ab81ea7fdaace111aa01cc1ec84c6d297" target="_top" xlink:title="CoolTime::setDateTime">
<polygon fill="white" stroke="black" points="460,-0.5 460,-19.5 581,-19.5 581,-0.5 460,-0.5"/>
<text text-anchor="middle" x="520.5" y="-7.5" font-family="Helvetica,sans-Serif" font-size="10.00">CoolTime::setDateTime</text>
</a>
</g>
</g>
<!-- Node17&#45;&gt;Node22 -->
<g id="edge8" class="edge"><title>Node17&#45;&gt;Node22</title>
<path fill="none" stroke="midnightblue" d="M110.46,-36.3767C124.489,-33.5346 139.778,-30.7971 154,-29 261.167,-15.459 387.181,-11.5235 459.752,-10.4075"/>
<polygon fill="midnightblue" stroke="midnightblue" points="109.576,-32.9856 100.5,-38.4527 111.004,-39.8384 109.576,-32.9856"/>
</g>
<!-- Node23 -->
<g id="node7" class="node"><title>Node23</title>
<g id="a_node7"><a xlink:href="classCoolTime.html#a7a7501c5ca77dd1248bea704c44f986c" target="_top" xlink:title="CoolTime::getTimeDate">
<polygon fill="white" stroke="black" points="154,-38.5 154,-57.5 275,-57.5 275,-38.5 154,-38.5"/>
<text text-anchor="middle" x="214.5" y="-45.5" font-family="Helvetica,sans-Serif" font-size="10.00">CoolTime::getTimeDate</text>
</a>
</g>
</g>
<!-- Node17&#45;&gt;Node23 -->
<g id="edge6" class="edge"><title>Node17&#45;&gt;Node23</title>
<path fill="none" stroke="midnightblue" d="M128.038,-48C136.642,-48 145.394,-48 153.854,-48"/>
<polygon fill="midnightblue" stroke="midnightblue" points="128.032,-44.5001 118.032,-48 128.032,-51.5001 128.032,-44.5001"/>
</g>
<!-- Node19 -->
<g id="node3" class="node"><title>Node19</title>
<g id="a_node3"><a xlink:href="classCoolBoard.html#ae7358fb6e623cfc81b775f5f1734909b" target="_top" xlink:title="CoolBoard::userData">
<polygon fill="white" stroke="black" points="466.5,-38.5 466.5,-57.5 574.5,-57.5 574.5,-38.5 466.5,-38.5"/>
<text text-anchor="middle" x="520.5" y="-45.5" font-family="Helvetica,sans-Serif" font-size="10.00">CoolBoard::userData</text>
</a>
</g>
</g>
<!-- Node18&#45;&gt;Node19 -->
<g id="edge2" class="edge"><title>Node18&#45;&gt;Node19</title>
<path fill="none" stroke="midnightblue" d="M434.445,-48C445.142,-48 456.099,-48 466.439,-48"/>
<polygon fill="midnightblue" stroke="midnightblue" points="434.298,-44.5001 424.298,-48 434.298,-51.5001 434.298,-44.5001"/>
</g>
<!-- Node18&#45;&gt;Node22 -->
<g id="edge5" class="edge"><title>Node18&#45;&gt;Node22</title>
<path fill="none" stroke="midnightblue" d="M416.343,-35.96C437.439,-30.6512 461.877,-24.5012 481.67,-19.5201"/>
<polygon fill="midnightblue" stroke="midnightblue" points="415.447,-32.5763 406.604,-38.411 417.156,-39.3646 415.447,-32.5763"/>
</g>
<!-- Node20 -->
<g id="node4" class="node"><title>Node20</title>
<g id="a_node4"><a xlink:href="classCoolBoard.html#ae6b5e1274d760462290192acea4adca8" target="_top" xlink:title="CoolBoard::offLineMode">
<polygon fill="white" stroke="black" points="617,-57.5 617,-76.5 739,-76.5 739,-57.5 617,-57.5"/>
<text text-anchor="middle" x="678" y="-64.5" font-family="Helvetica,sans-Serif" font-size="10.00">CoolBoard::offLineMode</text>
</a>
</g>
</g>
<!-- Node19&#45;&gt;Node20 -->
<g id="edge3" class="edge"><title>Node19&#45;&gt;Node20</title>
<path fill="none" stroke="midnightblue" d="M584.659,-55.7172C595.322,-57.0201 606.365,-58.3694 616.947,-59.6623"/>
<polygon fill="midnightblue" stroke="midnightblue" points="584.93,-52.2243 574.579,-54.4856 584.081,-59.1727 584.93,-52.2243"/>
</g>
<!-- Node21 -->
<g id="node5" class="node"><title>Node21</title>
<g id="a_node5"><a xlink:href="classCoolBoard.html#aa0bbc4bc605e35618d18e68795c61363" target="_top" xlink:title="CoolBoard::onLineMode">
<polygon fill="white" stroke="black" points="617.5,-19.5 617.5,-38.5 738.5,-38.5 738.5,-19.5 617.5,-19.5"/>
<text text-anchor="middle" x="678" y="-26.5" font-family="Helvetica,sans-Serif" font-size="10.00">CoolBoard::onLineMode</text>
</a>
</g>
</g>
<!-- Node19&#45;&gt;Node21 -->
<g id="edge4" class="edge"><title>Node19&#45;&gt;Node21</title>
<path fill="none" stroke="midnightblue" d="M584.791,-40.2667C595.595,-38.9466 606.785,-37.5793 617.487,-36.2717"/>
<polygon fill="midnightblue" stroke="midnightblue" points="584.081,-36.8273 574.579,-41.5144 584.93,-43.7757 584.081,-36.8273"/>
</g>
<!-- Node23&#45;&gt;Node18 -->
<g id="edge7" class="edge"><title>Node23&#45;&gt;Node18</title>
<path fill="none" stroke="midnightblue" d="M285.435,-48C293.904,-48 302.468,-48 310.695,-48"/>
<polygon fill="midnightblue" stroke="midnightblue" points="285.179,-44.5001 275.179,-48 285.179,-51.5001 285.179,-44.5001"/>
</g>
</g>
</svg>
