<?xml version="1.0" encoding="UTF-8" standalone="no"?>
<!DOCTYPE svg PUBLIC "-//W3C//DTD SVG 1.1//EN"
 "http://www.w3.org/Graphics/SVG/1.1/DTD/svg11.dtd">
<!-- Generated by graphviz version 2.38.0 (20140413.2041)
 -->
<!-- Title: CoolBoard::readSensors Pages: 1 -->
<!--zoomable 313 -->
<svg id="main" version="1.1" xmlns="http://www.w3.org/2000/svg" xmlns:xlink="http://www.w3.org/1999/xlink" xml:space="preserve" onload="init(evt)">
<style type="text/css"><![CDATA[
.edge:hover path { stroke: red; }
.edge:hover polygon { stroke: red; fill: red; }
]]></style>
<script type="text/javascript"><![CDATA[
var edges = document.getElementsByTagName('g');
if (edges && edges.length) {
  for (var i=0;i<edges.length;i++) {
    if (edges[i].id.substr(0,4)=='edge') {
      edges[i].setAttribute('class','edge');
    }
  }
}
]]></script>
        <defs>
                <circle id="rim" cx="0" cy="0" r="7"/>
                <circle id="rim2" cx="0" cy="0" r="3.5"/>
                <g id="zoomPlus">
                        <use xlink:href="#rim" fill="#404040">
                                <set attributeName="fill" to="#808080" begin="zoomplus.mouseover" end="zoomplus.mouseout"/>
                        </use>
                        <path d="M-4,0h8M0,-4v8" fill="none" stroke="white" stroke-width="1.5" pointer-events="none"/>
                </g>
                <g id="zoomMin">
                        <use xlink:href="#rim" fill="#404040">
                                <set attributeName="fill" to="#808080" begin="zoomminus.mouseover" end="zoomminus.mouseout"/>
                        </use>
                        <path d="M-4,0h8" fill="none" stroke="white" stroke-width="1.5" pointer-events="none"/>
                </g>
                <g id="dirArrow">
                        <path fill="none" stroke="white" stroke-width="1.5" d="M0,-3.0v7 M-2.5,-0.5L0,-3.0L2.5,-0.5"/>
                </g>
               <g id="resetDef">
                       <use xlink:href="#rim2" fill="#404040">
                               <set attributeName="fill" to="#808080" begin="reset.mouseover" end="reset.mouseout"/>
                       </use>
               </g>
        </defs>

<script type="text/javascript">
var viewWidth = 622;
var viewHeight = 313;
var sectionId = 'dynsection-9';
</script>
<script xlink:href="svgpan.js"/>
<svg id="graph" class="graph">
<g id="viewport">
<title>CoolBoard::readSensors</title>
<polygon fill="white" stroke="none" points="-4,4 -4,-309 618,-309 618,4 -4,4"/>
<!-- Node142 -->
<g id="node1" class="node"><title>Node142</title>
<polygon fill="#bfbfbf" stroke="black" points="0,-171.5 0,-190.5 123,-190.5 123,-171.5 0,-171.5"/>
<text text-anchor="middle" x="61.5" y="-178.5" font-family="Helvetica,sans-Serif" font-size="10.00">CoolBoard::readSensors</text>
</g>
<!-- Node143 -->
<g id="node2" class="node"><title>Node143</title>
<g id="a_node2"><a xlink:href="classCoolBoardLed.html#ab778f5e7bed0ab74e3906d82110493c3" target="_top" xlink:title="CoolBoardLed::fadeIn">
<polygon fill="white" stroke="black" points="165,-285.5 165,-304.5 276,-304.5 276,-285.5 165,-285.5"/>
<text text-anchor="middle" x="220.5" y="-292.5" font-family="Helvetica,sans-Serif" font-size="10.00">CoolBoardLed::fadeIn</text>
</a>
</g>
</g>
<!-- Node142&#45;&gt;Node143 -->
<g id="edge1" class="edge"><title>Node142&#45;&gt;Node143</title>
<path fill="none" stroke="midnightblue" d="M69.6322,-190.59C84.281,-209.63 119.701,-252.394 159,-276 162.458,-278.077 166.165,-279.949 169.98,-281.632"/>
<polygon fill="midnightblue" stroke="midnightblue" points="169.016,-285.014 179.602,-285.434 171.588,-278.504 169.016,-285.014"/>
</g>
<!-- Node144 -->
<g id="node3" class="node"><title>Node144</title>
<g id="a_node3"><a xlink:href="classCoolBoardLed.html#a93d545679237e8cc858324367149775c" target="_top" xlink:title="CoolBoardLed::fadeOut">
<polygon fill="white" stroke="black" points="161,-247.5 161,-266.5 280,-266.5 280,-247.5 161,-247.5"/>
<text text-anchor="middle" x="220.5" y="-254.5" font-family="Helvetica,sans-Serif" font-size="10.00">CoolBoardLed::fadeOut</text>
</a>
</g>
</g>
<!-- Node142&#45;&gt;Node144 -->
<g id="edge2" class="edge"><title>Node142&#45;&gt;Node144</title>
<path fill="none" stroke="midnightblue" d="M76.34,-190.559C94.6055,-202.845 128.071,-224.228 159,-238 164.029,-240.239 169.401,-242.328 174.791,-244.241"/>
<polygon fill="midnightblue" stroke="midnightblue" points="173.847,-247.616 184.441,-247.487 176.078,-240.981 173.847,-247.616"/>
</g>
<!-- Node145 -->
<g id="node4" class="node"><title>Node145</title>
<g id="a_node4"><a xlink:href="classCoolTime.html#a7a7501c5ca77dd1248bea704c44f986c" target="_top" xlink:title="CoolTime::getTimeDate">
<polygon fill="white" stroke="black" points="160,-209.5 160,-228.5 281,-228.5 281,-209.5 160,-209.5"/>
<text text-anchor="middle" x="220.5" y="-216.5" font-family="Helvetica,sans-Serif" font-size="10.00">CoolTime::getTimeDate</text>
</a>
</g>
</g>
<!-- Node142&#45;&gt;Node145 -->
<g id="edge3" class="edge"><title>Node142&#45;&gt;Node145</title>
<path fill="none" stroke="midnightblue" d="M102.118,-190.589C122.836,-195.604 148.388,-201.788 170.356,-207.105"/>
<polygon fill="midnightblue" stroke="midnightblue" points="169.624,-210.529 180.167,-209.48 171.271,-203.726 169.624,-210.529"/>
</g>
<!-- Node147 -->
<g id="node6" class="node"><title>Node147</title>
<g id="a_node6"><a xlink:href="classExternalSensors.html#a53177b81eca3be89508b5511ddcd00fc" target="_top" xlink:title="ExternalSensors::read">
<polygon fill="white" stroke="black" points="164,-171.5 164,-190.5 277,-190.5 277,-171.5 164,-171.5"/>
<text text-anchor="middle" x="220.5" y="-178.5" font-family="Helvetica,sans-Serif" font-size="10.00">ExternalSensors::read</text>
</a>
</g>
</g>
<!-- Node142&#45;&gt;Node147 -->
<g id="edge5" class="edge"><title>Node142&#45;&gt;Node147</title>
<path fill="none" stroke="midnightblue" d="M123.2,-181C133.231,-181 143.672,-181 153.818,-181"/>
<polygon fill="midnightblue" stroke="midnightblue" points="153.841,-184.5 163.841,-181 153.841,-177.5 153.841,-184.5"/>
</g>
<!-- Node148 -->
<g id="node7" class="node"><title>Node148</title>
<g id="a_node7"><a xlink:href="classCoolBoardSensors.html#a91badb2539d91fda8679f2a597874c48" target="_top" xlink:title="CoolBoardSensors::read">
<polygon fill="white" stroke="black" points="159,-133.5 159,-152.5 282,-152.5 282,-133.5 159,-133.5"/>
<text text-anchor="middle" x="220.5" y="-140.5" font-family="Helvetica,sans-Serif" font-size="10.00">CoolBoardSensors::read</text>
</a>
</g>
</g>
<!-- Node142&#45;&gt;Node148 -->
<g id="edge6" class="edge"><title>Node142&#45;&gt;Node148</title>
<path fill="none" stroke="midnightblue" d="M102.118,-171.411C122.836,-166.396 148.388,-160.212 170.356,-154.895"/>
<polygon fill="midnightblue" stroke="midnightblue" points="171.271,-158.274 180.167,-152.52 169.624,-151.471 171.271,-158.274"/>
</g>
<!-- Node152 -->
<g id="node11" class="node"><title>Node152</title>
<g id="a_node11"><a xlink:href="classIrene3000.html#a852a170feea994ea1df01c6b245b5d9a" target="_top" xlink:title="Irene3000::read">
<polygon fill="white" stroke="black" points="178.5,-76.5 178.5,-95.5 262.5,-95.5 262.5,-76.5 178.5,-76.5"/>
<text text-anchor="middle" x="220.5" y="-83.5" font-family="Helvetica,sans-Serif" font-size="10.00">Irene3000::read</text>
</a>
</g>
</g>
<!-- Node142&#45;&gt;Node152 -->
<g id="edge10" class="edge"><title>Node142&#45;&gt;Node152</title>
<path fill="none" stroke="midnightblue" d="M78.418,-171.368C105.806,-154.796 162.034,-120.772 194.629,-101.049"/>
<polygon fill="midnightblue" stroke="midnightblue" points="196.796,-103.829 203.54,-95.6574 193.172,-97.8399 196.796,-103.829"/>
</g>
<!-- Node157 -->
<g id="node16" class="node"><title>Node157</title>
<g id="a_node16"><a xlink:href="classCoolBoardLed.html#ad5f0de4c628cbfbf49896042831c64ad" target="_top" xlink:title="CoolBoardLed::strobe">
<polygon fill="white" stroke="black" points="165,-38.5 165,-57.5 276,-57.5 276,-38.5 165,-38.5"/>
<text text-anchor="middle" x="220.5" y="-45.5" font-family="Helvetica,sans-Serif" font-size="10.00">CoolBoardLed::strobe</text>
</a>
</g>
</g>
<!-- Node142&#45;&gt;Node157 -->
<g id="edge17" class="edge"><title>Node142&#45;&gt;Node157</title>
<path fill="none" stroke="midnightblue" d="M67.9369,-171.468C80.8556,-149.669 115.585,-95.8381 159,-67 162.069,-64.9613 165.37,-63.1309 168.789,-61.4892"/>
<polygon fill="midnightblue" stroke="midnightblue" points="170.197,-64.694 178.04,-57.5707 167.467,-58.2484 170.197,-64.694"/>
</g>
<!-- Node146 -->
<g id="node5" class="node"><title>Node146</title>
<g id="a_node5"><a xlink:href="classCoolTime.html#acd537cd4210d7bde4e1f5c47d2ac0456" target="_top" xlink:title="CoolTime::formatDigits">
<polygon fill="white" stroke="black" points="339.5,-228.5 339.5,-247.5 457.5,-247.5 457.5,-228.5 339.5,-228.5"/>
<text text-anchor="middle" x="398.5" y="-235.5" font-family="Helvetica,sans-Serif" font-size="10.00">CoolTime::formatDigits</text>
</a>
</g>
</g>
<!-- Node145&#45;&gt;Node146 -->
<g id="edge4" class="edge"><title>Node145&#45;&gt;Node146</title>
<path fill="none" stroke="midnightblue" d="M281.086,-225.433C296.547,-227.102 313.319,-228.912 329.19,-230.626"/>
<polygon fill="midnightblue" stroke="midnightblue" points="329.149,-234.141 339.467,-231.735 329.901,-227.182 329.149,-234.141"/>
</g>
<!-- Node149 -->
<g id="node8" class="node"><title>Node149</title>
<g id="a_node8"><a xlink:href="classCoolBoardSensors.html#acad6a8418c66d36868caca23c844ecb6" target="_top" xlink:title="CoolBoardSensors::initReadI2C">
<polygon fill="white" stroke="black" points="320.5,-190.5 320.5,-209.5 476.5,-209.5 476.5,-190.5 320.5,-190.5"/>
<text text-anchor="middle" x="398.5" y="-197.5" font-family="Helvetica,sans-Serif" font-size="10.00">CoolBoardSensors::initReadI2C</text>
</a>
</g>
</g>
<!-- Node148&#45;&gt;Node149 -->
<g id="edge7" class="edge"><title>Node148&#45;&gt;Node149</title>
<path fill="none" stroke="midnightblue" d="M255.806,-152.587C264.466,-155.329 273.667,-158.526 282,-162 298.699,-168.961 301.069,-174.625 318,-181 324.756,-183.544 331.967,-185.827 339.185,-187.853"/>
<polygon fill="midnightblue" stroke="midnightblue" points="338.426,-191.273 348.99,-190.456 340.222,-184.507 338.426,-191.273"/>
</g>
<!-- Node150 -->
<g id="node9" class="node"><title>Node150</title>
<g id="a_node9"><a xlink:href="classCoolBoardSensors.html#a6944b6ea7bce8e2fce1b434acfd9d5f3" target="_top" xlink:title="CoolBoardSensors::readVBat">
<polygon fill="white" stroke="black" points="326,-152.5 326,-171.5 471,-171.5 471,-152.5 326,-152.5"/>
<text text-anchor="middle" x="398.5" y="-159.5" font-family="Helvetica,sans-Serif" font-size="10.00">CoolBoardSensors::readVBat</text>
</a>
</g>
</g>
<!-- Node148&#45;&gt;Node150 -->
<g id="edge8" class="edge"><title>Node148&#45;&gt;Node150</title>
<path fill="none" stroke="midnightblue" d="M282.069,-149.539C292.99,-150.718 304.537,-151.964 315.939,-153.195"/>
<polygon fill="midnightblue" stroke="midnightblue" points="315.584,-156.677 325.902,-154.271 316.336,-149.718 315.584,-156.677"/>
</g>
<!-- Node151 -->
<g id="node10" class="node"><title>Node151</title>
<g id="a_node10"><a xlink:href="classCoolBoardSensors.html#a8761bff50373c485f4465c8db47d0633" target="_top" xlink:title="CoolBoardSensors::readMoisture">
<polygon fill="white" stroke="black" points="318,-114.5 318,-133.5 479,-133.5 479,-114.5 318,-114.5"/>
<text text-anchor="middle" x="398.5" y="-121.5" font-family="Helvetica,sans-Serif" font-size="10.00">CoolBoardSensors::readMoisture</text>
</a>
</g>
</g>
<!-- Node148&#45;&gt;Node151 -->
<g id="edge9" class="edge"><title>Node148&#45;&gt;Node151</title>
<path fill="none" stroke="midnightblue" d="M282.069,-136.461C290.36,-135.566 299.011,-134.632 307.686,-133.696"/>
<polygon fill="midnightblue" stroke="midnightblue" points="308.293,-137.151 317.86,-132.598 307.542,-130.191 308.293,-137.151"/>
</g>
<!-- Node153 -->
<g id="node12" class="node"><title>Node153</title>
<g id="a_node12"><a xlink:href="classIrene3000.html#a94ad40f281d83ad1be20bf1edd6fe802" target="_top" xlink:title="Irene3000::readTemp">
<polygon fill="white" stroke="black" points="344,-76.5 344,-95.5 453,-95.5 453,-76.5 344,-76.5"/>
<text text-anchor="middle" x="398.5" y="-83.5" font-family="Helvetica,sans-Serif" font-size="10.00">Irene3000::readTemp</text>
</a>
</g>
</g>
<!-- Node152&#45;&gt;Node153 -->
<g id="edge11" class="edge"><title>Node152&#45;&gt;Node153</title>
<path fill="none" stroke="midnightblue" d="M262.764,-86C283.828,-86 309.925,-86 333.526,-86"/>
<polygon fill="midnightblue" stroke="midnightblue" points="333.815,-89.5001 343.815,-86 333.815,-82.5001 333.815,-89.5001"/>
</g>
<!-- Node155 -->
<g id="node14" class="node"><title>Node155</title>
<g id="a_node14"><a xlink:href="classIrene3000.html#abf3db725fabb0634ec889b32068a5eec" target="_top" xlink:title="Irene3000::readPh">
<polygon fill="white" stroke="black" points="350.5,-38.5 350.5,-57.5 446.5,-57.5 446.5,-38.5 350.5,-38.5"/>
<text text-anchor="middle" x="398.5" y="-45.5" font-family="Helvetica,sans-Serif" font-size="10.00">Irene3000::readPh</text>
</a>
</g>
</g>
<!-- Node152&#45;&gt;Node155 -->
<g id="edge13" class="edge"><title>Node152&#45;&gt;Node155</title>
<path fill="none" stroke="midnightblue" d="M262.764,-77.0907C286.803,-71.9006 317.396,-65.2953 343.352,-59.691"/>
<polygon fill="midnightblue" stroke="midnightblue" points="344.382,-63.0495 353.418,-57.5178 342.904,-56.2071 344.382,-63.0495"/>
</g>
<!-- Node156 -->
<g id="node15" class="node"><title>Node156</title>
<g id="a_node15"><a xlink:href="classIrene3000.html#ae73bd2ed14a199a7e83f4d6458476a7c" target="_top" xlink:title="Irene3000::readADSChannel2">
<polygon fill="white" stroke="black" points="325.5,-0.5 325.5,-19.5 471.5,-19.5 471.5,-0.5 325.5,-0.5"/>
<text text-anchor="middle" x="398.5" y="-7.5" font-family="Helvetica,sans-Serif" font-size="10.00">Irene3000::readADSChannel2</text>
</a>
</g>
</g>
<!-- Node152&#45;&gt;Node156 -->
<g id="edge15" class="edge"><title>Node152&#45;&gt;Node156</title>
<path fill="none" stroke="midnightblue" d="M261.826,-76.4989C268.831,-73.977 275.837,-70.8495 282,-67 301.731,-54.6746 297.851,-40.6304 318,-29 321.908,-26.7442 326.072,-24.7557 330.367,-23.0029"/>
<polygon fill="midnightblue" stroke="midnightblue" points="331.728,-26.2324 339.933,-19.5297 329.339,-19.6526 331.728,-26.2324"/>
</g>
<!-- Node154 -->
<g id="node13" class="node"><title>Node154</title>
<g id="a_node13"><a xlink:href="classIrene3000.html#aff7c5da186b388e7272e63ff88a20c34" target="_top" xlink:title="Irene3000::setGain">
<polygon fill="white" stroke="black" points="515,-38.5 515,-57.5 614,-57.5 614,-38.5 515,-38.5"/>
<text text-anchor="middle" x="564.5" y="-45.5" font-family="Helvetica,sans-Serif" font-size="10.00">Irene3000::setGain</text>
</a>
</g>
</g>
<!-- Node153&#45;&gt;Node154 -->
<g id="edge12" class="edge"><title>Node153&#45;&gt;Node154</title>
<path fill="none" stroke="midnightblue" d="M440.884,-76.411C462.623,-71.3739 489.457,-65.1562 512.475,-59.8229"/>
<polygon fill="midnightblue" stroke="midnightblue" points="513.462,-63.1871 522.413,-57.5201 511.881,-56.3677 513.462,-63.1871"/>
</g>
<!-- Node155&#45;&gt;Node154 -->
<g id="edge14" class="edge"><title>Node155&#45;&gt;Node154</title>
<path fill="none" stroke="midnightblue" d="M446.936,-48C464.978,-48 485.753,-48 504.722,-48"/>
<polygon fill="midnightblue" stroke="midnightblue" points="504.747,-51.5001 514.747,-48 504.747,-44.5001 504.747,-51.5001"/>
</g>
<!-- Node156&#45;&gt;Node154 -->
<g id="edge16" class="edge"><title>Node156&#45;&gt;Node154</title>
<path fill="none" stroke="midnightblue" d="M440.884,-19.589C462.623,-24.6261 489.457,-30.8438 512.475,-36.1771"/>
<polygon fill="midnightblue" stroke="midnightblue" points="511.881,-39.6323 522.413,-38.4799 513.462,-32.8129 511.881,-39.6323"/>
</g>
</g>
</svg>
        <g id="navigator" transform="translate(0 0)" fill="#404254">
                <rect fill="#f2f5e9" fill-opacity="0.5" stroke="#606060" stroke-width=".5" x="0" y="0" width="60" height="60"/>
                <use id="zoomplus" xlink:href="#zoomPlus" x="17" y="9" onmousedown="handleZoom(evt,'in')"/>
                <use id="zoomminus" xlink:href="#zoomMin" x="42" y="9" onmousedown="handleZoom(evt,'out')"/>
                <use id="reset" xlink:href="#resetDef" x="30" y="36" onmousedown="handleReset()"/>
                <g id="arrowUp" xlink:href="#dirArrow" transform="translate(30 24)" onmousedown="handlePan(0,-1)">
                  <use xlink:href="#rim" fill="#404040">
                        <set attributeName="fill" to="#808080" begin="arrowUp.mouseover" end="arrowUp.mouseout"/>
                  </use>
                  <path fill="none" stroke="white" stroke-width="1.5" d="M0,-3.0v7 M-2.5,-0.5L0,-3.0L2.5,-0.5"/>
                </g>
                <g id="arrowRight" xlink:href="#dirArrow" transform="rotate(90) translate(36 -43)" onmousedown="handlePan(1,0)">
                  <use xlink:href="#rim" fill="#404040">
                        <set attributeName="fill" to="#808080" begin="arrowRight.mouseover" end="arrowRight.mouseout"/>
                  </use>
                  <path fill="none" stroke="white" stroke-width="1.5" d="M0,-3.0v7 M-2.5,-0.5L0,-3.0L2.5,-0.5"/>
                </g>
                <g id="arrowDown" xlink:href="#dirArrow" transform="rotate(180) translate(-30 -48)" onmousedown="handlePan(0,1)">
                  <use xlink:href="#rim" fill="#404040">
                        <set attributeName="fill" to="#808080" begin="arrowDown.mouseover" end="arrowDown.mouseout"/>
                  </use>
                  <path fill="none" stroke="white" stroke-width="1.5" d="M0,-3.0v7 M-2.5,-0.5L0,-3.0L2.5,-0.5"/>
                </g>
                <g id="arrowLeft" xlink:href="#dirArrow" transform="rotate(270) translate(-36 17)" onmousedown="handlePan(-1,0)">
                  <use xlink:href="#rim" fill="#404040">
                        <set attributeName="fill" to="#808080" begin="arrowLeft.mouseover" end="arrowLeft.mouseout"/>
                  </use>
                  <path fill="none" stroke="white" stroke-width="1.5" d="M0,-3.0v7 M-2.5,-0.5L0,-3.0L2.5,-0.5"/>
                </g>
        </g>
        <svg viewBox="0 0 15 15" width="100%" height="30px" preserveAspectRatio="xMaxYMin meet">
         <g id="arrow_out" transform="scale(0.3 0.3)">
          <a xlink:href="classCoolBoard_ad03abdce2e65f520bbf2cff0f2d083cf_cgraph_org.svg" target="_base">
           <rect id="button" ry="5" rx="5" y="6" x="6" height="38" width="38"
                fill="#f2f5e9" fill-opacity="0.5" stroke="#606060" stroke-width="1.0"/>
           <path id="arrow"
             d="M 11.500037,31.436501 C 11.940474,20.09759 22.043105,11.32322 32.158766,21.979434 L 37.068811,17.246167 C 37.068811,17.246167 37.088388,32 37.088388,32 L 22.160133,31.978069 C 22.160133,31.978069 26.997745,27.140456 26.997745,27.140456 C 18.528582,18.264221 13.291696,25.230495 11.500037,31.436501 z"
             style="fill:#404040;"/>
          </a>
         </g>
        </svg>
</svg>
