<?xml version="1.0" encoding="UTF-8" standalone="no"?>
<!DOCTYPE svg PUBLIC "-//W3C//DTD SVG 1.1//EN"
 "http://www.w3.org/Graphics/SVG/1.1/DTD/svg11.dtd">
<!-- Generated by graphviz version 2.38.0 (20140413.2041)
 -->
<!-- Title: CoolBoard::connect Pages: 1 -->
<svg width="261pt" height="104pt"
 viewBox="0.00 0.00 261.00 104.00" xmlns="http://www.w3.org/2000/svg" xmlns:xlink="http://www.w3.org/1999/xlink">
<g id="graph0" class="graph" transform="scale(1 1) rotate(0) translate(4 100)">
<title>CoolBoard::connect</title>
<polygon fill="white" stroke="none" points="-4,4 -4,-100 257,-100 257,4 -4,4"/>
<!-- Node36 -->
<g id="node1" class="node"><title>Node36</title>
<polygon fill="#bfbfbf" stroke="black" points="0,-38.5 0,-57.5 103,-57.5 103,-38.5 0,-38.5"/>
<text text-anchor="middle" x="51.5" y="-45.5" font-family="Helvetica,sans-Serif" font-size="10.00">CoolBoard::connect</text>
</g>
<!-- Node37 -->
<g id="node2" class="node"><title>Node37</title>
<g id="a_node2"><a xlink:href="classCoolMQTT.html#a58b0b1f64b269c2681685208262fba1d" target="_top" xlink:title="CoolMQTT::connect">
<polygon fill="white" stroke="black" points="143.5,-76.5 143.5,-95.5 248.5,-95.5 248.5,-76.5 143.5,-76.5"/>
<text text-anchor="middle" x="196" y="-83.5" font-family="Helvetica,sans-Serif" font-size="10.00">CoolMQTT::connect</text>
</a>
</g>
</g>
<!-- Node36&#45;&gt;Node37 -->
<g id="edge1" class="edge"><title>Node36&#45;&gt;Node37</title>
<path fill="none" stroke="midnightblue" d="M88.4588,-57.589C106.939,-62.5169 129.656,-68.5749 149.359,-73.8291"/>
<polygon fill="midnightblue" stroke="midnightblue" points="148.489,-77.2192 159.053,-76.4141 150.292,-70.4555 148.489,-77.2192"/>
</g>
<!-- Node38 -->
<g id="node3" class="node"><title>Node38</title>
<g id="a_node3"><a xlink:href="classCoolBoard.html#a31cf73a70425114cd7ee49c6e5244199" target="_top" xlink:title="CoolBoard::getInterval">
<polygon fill="white" stroke="black" points="139,-38.5 139,-57.5 253,-57.5 253,-38.5 139,-38.5"/>
<text text-anchor="middle" x="196" y="-45.5" font-family="Helvetica,sans-Serif" font-size="10.00">CoolBoard::getInterval</text>
</a>
</g>
</g>
<!-- Node36&#45;&gt;Node38 -->
<g id="edge2" class="edge"><title>Node36&#45;&gt;Node38</title>
<path fill="none" stroke="midnightblue" d="M103.141,-48C111.421,-48 120.107,-48 128.697,-48"/>
<polygon fill="midnightblue" stroke="midnightblue" points="128.706,-51.5001 138.706,-48 128.706,-44.5001 128.706,-51.5001"/>
</g>
<!-- Node39 -->
<g id="node4" class="node"><title>Node39</title>
<g id="a_node4"><a xlink:href="classCoolMQTT.html#a5d003307eff78efbd585e42b43b72b6d" target="_top" xlink:title="CoolMQTT::state">
<polygon fill="white" stroke="black" points="150,-0.5 150,-19.5 242,-19.5 242,-0.5 150,-0.5"/>
<text text-anchor="middle" x="196" y="-7.5" font-family="Helvetica,sans-Serif" font-size="10.00">CoolMQTT::state</text>
</a>
</g>
</g>
<!-- Node36&#45;&gt;Node39 -->
<g id="edge3" class="edge"><title>Node36&#45;&gt;Node39</title>
<path fill="none" stroke="midnightblue" d="M88.4588,-38.411C106.939,-33.4831 129.656,-27.4251 149.359,-22.1709"/>
<polygon fill="midnightblue" stroke="midnightblue" points="150.292,-25.5445 159.053,-19.5859 148.489,-18.7808 150.292,-25.5445"/>
</g>
</g>
</svg>
