<?xml version="1.0" encoding="UTF-8" standalone="no"?>
<!DOCTYPE svg PUBLIC "-//W3C//DTD SVG 1.1//EN"
 "http://www.w3.org/Graphics/SVG/1.1/DTD/svg11.dtd">
<!-- Generated by graphviz version 2.38.0 (20140413.2041)
 -->
<!-- Title: ExternalSensors Pages: 1 -->
<svg width="132pt" height="397pt"
 viewBox="0.00 0.00 132.00 397.00" xmlns="http://www.w3.org/2000/svg" xmlns:xlink="http://www.w3.org/1999/xlink">
<g id="graph0" class="graph" transform="scale(1 1) rotate(0) translate(4 393)">
<title>ExternalSensors</title>
<polygon fill="white" stroke="none" points="-4,4 -4,-393 128,-393 128,4 -4,4"/>
<!-- Node1 -->
<g id="node1" class="node"><title>Node1</title>
<polygon fill="#bfbfbf" stroke="black" points="16,-0.5 16,-112.5 108,-112.5 108,-0.5 16,-0.5"/>
<text text-anchor="middle" x="62" y="-100.5" font-family="Helvetica,sans-Serif" font-size="10.00">ExternalSensors</text>
<polyline fill="none" stroke="black" points="16,-93.5 108,-93.5 "/>
<text text-anchor="start" x="24" y="-81.5" font-family="Helvetica,sans-Serif" font-size="10.00">&#45; jsonSize</text>
<text text-anchor="start" x="24" y="-70.5" font-family="Helvetica,sans-Serif" font-size="10.00">&#45; sensorsNumber</text>
<polyline fill="none" stroke="black" points="16,-63.5 108,-63.5 "/>
<text text-anchor="start" x="24" y="-51.5" font-family="Helvetica,sans-Serif" font-size="10.00">+ begin()</text>
<text text-anchor="start" x="24" y="-40.5" font-family="Helvetica,sans-Serif" font-size="10.00">+ config()</text>
<text text-anchor="start" x="24" y="-29.5" font-family="Helvetica,sans-Serif" font-size="10.00">+ getJsonSize()</text>
<text text-anchor="start" x="24" y="-18.5" font-family="Helvetica,sans-Serif" font-size="10.00">+ printConf()</text>
<text text-anchor="start" x="24" y="-7.5" font-family="Helvetica,sans-Serif" font-size="10.00">+ read()</text>
</g>
<!-- Node2 -->
<g id="node2" class="node"><title>Node2</title>
<g id="a_node2"><a xlink:href="structExternalSensors_1_1sensor.html" target="_top" xlink:title="{ExternalSensors::sensor\n|+ address\l+ connection\l+ dataSize\l+ reference\l+ type\l|}">
<polygon fill="white" stroke="black" points="-7.10543e-15,-160.5 -7.10543e-15,-261.5 124,-261.5 124,-160.5 -7.10543e-15,-160.5"/>
<text text-anchor="middle" x="62" y="-249.5" font-family="Helvetica,sans-Serif" font-size="10.00">ExternalSensors::sensor</text>
<polyline fill="none" stroke="black" points="-7.10543e-15,-242.5 124,-242.5 "/>
<text text-anchor="start" x="8" y="-230.5" font-family="Helvetica,sans-Serif" font-size="10.00">+ address</text>
<text text-anchor="start" x="8" y="-219.5" font-family="Helvetica,sans-Serif" font-size="10.00">+ connection</text>
<text text-anchor="start" x="8" y="-208.5" font-family="Helvetica,sans-Serif" font-size="10.00">+ dataSize</text>
<text text-anchor="start" x="8" y="-197.5" font-family="Helvetica,sans-Serif" font-size="10.00">+ reference</text>
<text text-anchor="start" x="8" y="-186.5" font-family="Helvetica,sans-Serif" font-size="10.00">+ type</text>
<polyline fill="none" stroke="black" points="-7.10543e-15,-179.5 124,-179.5 "/>
<text text-anchor="middle" x="62" y="-167.5" font-family="Helvetica,sans-Serif" font-size="10.00"> </text>
</a>
</g>
</g>
<!-- Node2&#45;&gt;Node1 -->
<g id="edge1" class="edge"><title>Node2&#45;&gt;Node1</title>
<path fill="none" stroke="#404040" d="M62,-160.488C62,-149.127 62,-136.86 62,-124.888"/>
<polygon fill="none" stroke="#404040" points="62.0001,-124.569 58,-118.57 62,-112.569 66,-118.569 62.0001,-124.569"/>
<text text-anchor="middle" x="82.5" y="-134" font-family="Helvetica,sans-Serif" font-size="10.00"> &#45;sensors</text>
</g>
<!-- Node3 -->
<g id="node3" class="node"><title>Node3</title>
<g id="a_node3"><a xlink:href="classBaseExternalSensor.html" target="_top" xlink:title="This class is a generic external Sensor it is a way to access real external sensor methods through ru...">
<polygon fill="white" stroke="black" points="1.5,-309.5 1.5,-388.5 122.5,-388.5 122.5,-309.5 1.5,-309.5"/>
<text text-anchor="middle" x="62" y="-376.5" font-family="Helvetica,sans-Serif" font-size="10.00">BaseExternalSensor</text>
<polyline fill="none" stroke="black" points="1.5,-369.5 122.5,-369.5 "/>
<text text-anchor="middle" x="62" y="-357.5" font-family="Helvetica,sans-Serif" font-size="10.00"> </text>
<polyline fill="none" stroke="black" points="1.5,-350.5 122.5,-350.5 "/>
<text text-anchor="start" x="9.5" y="-338.5" font-family="Helvetica,sans-Serif" font-size="10.00">+ BaseExternalSensor()</text>
<text text-anchor="start" x="9.5" y="-327.5" font-family="Helvetica,sans-Serif" font-size="10.00">+ begin()</text>
<text text-anchor="start" x="9.5" y="-316.5" font-family="Helvetica,sans-Serif" font-size="10.00">+ read()</text>
</a>
</g>
</g>
<!-- Node3&#45;&gt;Node2 -->
<g id="edge2" class="edge"><title>Node3&#45;&gt;Node2</title>
<path fill="none" stroke="#404040" d="M62,-309.392C62,-298.434 62,-286.216 62,-274.238"/>
<polygon fill="none" stroke="#404040" points="62.0001,-273.905 58,-267.905 62,-261.905 66,-267.905 62.0001,-273.905"/>
<text text-anchor="middle" x="87.5" y="-283" font-family="Helvetica,sans-Serif" font-size="10.00"> +exSensor</text>
</g>
</g>
</svg>
