<?xml version="1.0" encoding="UTF-8" standalone="no"?>
<!DOCTYPE svg PUBLIC "-//W3C//DTD SVG 1.1//EN"
 "http://www.w3.org/Graphics/SVG/1.1/DTD/svg11.dtd">
<!-- Generated by graphviz version 2.38.0 (20140413.2041)
 -->
<!-- Title: CoolBoard::onLineMode Pages: 1 -->
<!--zoomable 686 -->
<svg id="main" version="1.1" xmlns="http://www.w3.org/2000/svg" xmlns:xlink="http://www.w3.org/1999/xlink" xml:space="preserve" onload="init(evt)">
<style type="text/css"><![CDATA[
.edge:hover path { stroke: red; }
.edge:hover polygon { stroke: red; fill: red; }
]]></style>
<script type="text/javascript"><![CDATA[
var edges = document.getElementsByTagName('g');
if (edges && edges.length) {
  for (var i=0;i<edges.length;i++) {
    if (edges[i].id.substr(0,4)=='edge') {
      edges[i].setAttribute('class','edge');
    }
  }
}
]]></script>
        <defs>
                <circle id="rim" cx="0" cy="0" r="7"/>
                <circle id="rim2" cx="0" cy="0" r="3.5"/>
                <g id="zoomPlus">
                        <use xlink:href="#rim" fill="#404040">
                                <set attributeName="fill" to="#808080" begin="zoomplus.mouseover" end="zoomplus.mouseout"/>
                        </use>
                        <path d="M-4,0h8M0,-4v8" fill="none" stroke="white" stroke-width="1.5" pointer-events="none"/>
                </g>
                <g id="zoomMin">
                        <use xlink:href="#rim" fill="#404040">
                                <set attributeName="fill" to="#808080" begin="zoomminus.mouseover" end="zoomminus.mouseout"/>
                        </use>
                        <path d="M-4,0h8" fill="none" stroke="white" stroke-width="1.5" pointer-events="none"/>
                </g>
                <g id="dirArrow">
                        <path fill="none" stroke="white" stroke-width="1.5" d="M0,-3.0v7 M-2.5,-0.5L0,-3.0L2.5,-0.5"/>
                </g>
               <g id="resetDef">
                       <use xlink:href="#rim2" fill="#404040">
                               <set attributeName="fill" to="#808080" begin="reset.mouseover" end="reset.mouseout"/>
                       </use>
               </g>
        </defs>

<script type="text/javascript">
var viewWidth = 662;
var viewHeight = 686;
var sectionId = 'dynsection-7';
</script>
<script xlink:href="svgpan.js"/>
<svg id="graph" class="graph">
<g id="viewport">
<title>CoolBoard::onLineMode</title>
<polygon fill="white" stroke="none" points="-4,4 -4,-682 658,-682 658,4 -4,4"/>
<!-- Node59 -->
<g id="node1" class="node"><title>Node59</title>
<polygon fill="#bfbfbf" stroke="black" points="0,-392.5 0,-411.5 121,-411.5 121,-392.5 0,-392.5"/>
<text text-anchor="middle" x="60.5" y="-399.5" font-family="Helvetica,sans-Serif" font-size="10.00">CoolBoard::onLineMode</text>
</g>
<!-- Node60 -->
<g id="node2" class="node"><title>Node60</title>
<g id="a_node2"><a xlink:href="class_cool_time.html#aae601f795452cfa48d9fb337aed483a8" target="_top" xlink:title="CoolTime::update">
<polygon fill="white" stroke="black" points="171.5,-620.5 171.5,-639.5 265.5,-639.5 265.5,-620.5 171.5,-620.5"/>
<text text-anchor="middle" x="218.5" y="-627.5" font-family="Helvetica,sans-Serif" font-size="10.00">CoolTime::update</text>
</a>
</g>
</g>
<!-- Node59&#45;&gt;Node60 -->
<g id="edge1" class="edge"><title>Node59&#45;&gt;Node60</title>
<path fill="none" stroke="midnightblue" d="M67.1692,-411.847C81.4201,-436.407 120.233,-502.133 157,-554 171.675,-574.702 190,-597.324 202.615,-612.457"/>
<polygon fill="midnightblue" stroke="midnightblue" points="200.2,-615.024 209.311,-620.43 205.56,-610.522 200.2,-615.024"/>
</g>
<!-- Node65 -->
<g id="node7" class="node"><title>Node65</title>
<g id="a_node7"><a xlink:href="class_cool_board_sensors.html#a91badb2539d91fda8679f2a597874c48" target="_top" xlink:title="CoolBoardSensors::read">
<polygon fill="white" stroke="black" points="157,-525.5 157,-544.5 280,-544.5 280,-525.5 157,-525.5"/>
<text text-anchor="middle" x="218.5" y="-532.5" font-family="Helvetica,sans-Serif" font-size="10.00">CoolBoardSensors::read</text>
</a>
</g>
</g>
<!-- Node59&#45;&gt;Node65 -->
<g id="edge6" class="edge"><title>Node59&#45;&gt;Node65</title>
<path fill="none" stroke="midnightblue" d="M69.8323,-411.604C85.709,-429.589 121.856,-469.054 157,-497 167.694,-505.504 180.387,-513.725 191.378,-520.333"/>
<polygon fill="midnightblue" stroke="midnightblue" points="189.734,-523.426 200.13,-525.474 193.28,-517.391 189.734,-523.426"/>
</g>
<!-- Node69 -->
<g id="node11" class="node"><title>Node69</title>
<g id="a_node11"><a xlink:href="class_external_sensors.html#a53177b81eca3be89508b5511ddcd00fc" target="_top" xlink:title="ExternalSensors::read">
<polygon fill="white" stroke="black" points="162,-468.5 162,-487.5 275,-487.5 275,-468.5 162,-468.5"/>
<text text-anchor="middle" x="218.5" y="-475.5" font-family="Helvetica,sans-Serif" font-size="10.00">ExternalSensors::read</text>
</a>
</g>
</g>
<!-- Node59&#45;&gt;Node69 -->
<g id="edge10" class="edge"><title>Node59&#45;&gt;Node69</title>
<path fill="none" stroke="midnightblue" d="M75.1806,-411.57C93.2395,-423.868 126.34,-445.264 157,-459 161.961,-461.222 167.258,-463.294 172.579,-465.191"/>
<polygon fill="midnightblue" stroke="midnightblue" points="171.517,-468.527 182.111,-468.411 173.757,-461.895 171.517,-468.527"/>
</g>
<!-- Node70 -->
<g id="node12" class="node"><title>Node70</title>
<g id="a_node12"><a xlink:href="class_irene3000.html#a852a170feea994ea1df01c6b245b5d9a" target="_top" xlink:title="Irene3000::read">
<polygon fill="white" stroke="black" points="176.5,-430.5 176.5,-449.5 260.5,-449.5 260.5,-430.5 176.5,-430.5"/>
<text text-anchor="middle" x="218.5" y="-437.5" font-family="Helvetica,sans-Serif" font-size="10.00">Irene3000::read</text>
</a>
</g>
</g>
<!-- Node59&#45;&gt;Node70 -->
<g id="edge11" class="edge"><title>Node59&#45;&gt;Node70</title>
<path fill="none" stroke="midnightblue" d="M100.865,-411.589C121.451,-416.604 146.84,-422.788 168.669,-428.105"/>
<polygon fill="midnightblue" stroke="midnightblue" points="167.873,-431.514 178.418,-430.48 169.53,-424.713 167.873,-431.514"/>
</g>
<!-- Node75 -->
<g id="node17" class="node"><title>Node75</title>
<g id="a_node17"><a xlink:href="class_jetpack.html#a86d2e83436ef4b85f4c3a6e85ac785b0" target="_top" xlink:title="Jetpack::doAction">
<polygon fill="white" stroke="black" points="171,-392.5 171,-411.5 266,-411.5 266,-392.5 171,-392.5"/>
<text text-anchor="middle" x="218.5" y="-399.5" font-family="Helvetica,sans-Serif" font-size="10.00">Jetpack::doAction</text>
</a>
</g>
</g>
<!-- Node59&#45;&gt;Node75 -->
<g id="edge18" class="edge"><title>Node59&#45;&gt;Node75</title>
<path fill="none" stroke="midnightblue" d="M121.368,-402C134.249,-402 147.83,-402 160.595,-402"/>
<polygon fill="midnightblue" stroke="midnightblue" points="160.629,-405.5 170.629,-402 160.629,-398.5 160.629,-405.5"/>
</g>
<!-- Node77 -->
<g id="node19" class="node"><title>Node77</title>
<g id="a_node19"><a xlink:href="class_cool_m_q_t_t.html#ace977b3e90ab14b1199fe5c4fb0a13ec" target="_top" xlink:title="CoolMQTT::publish">
<polygon fill="white" stroke="black" points="168,-354.5 168,-373.5 269,-373.5 269,-354.5 168,-354.5"/>
<text text-anchor="middle" x="218.5" y="-361.5" font-family="Helvetica,sans-Serif" font-size="10.00">CoolMQTT::publish</text>
</a>
</g>
</g>
<!-- Node59&#45;&gt;Node77 -->
<g id="edge20" class="edge"><title>Node59&#45;&gt;Node77</title>
<path fill="none" stroke="midnightblue" d="M100.865,-392.411C121.451,-387.396 146.84,-381.212 168.669,-375.895"/>
<polygon fill="midnightblue" stroke="midnightblue" points="169.53,-379.287 178.418,-373.52 167.873,-372.486 169.53,-379.287"/>
</g>
<!-- Node78 -->
<g id="node20" class="node"><title>Node78</title>
<g id="a_node20"><a xlink:href="class_cool_m_q_t_t.html#aa5eaae967b562b62cbcf2b8d81f6e5d5" target="_top" xlink:title="CoolMQTT::mqttLoop">
<polygon fill="white" stroke="black" points="163,-316.5 163,-335.5 274,-335.5 274,-316.5 163,-316.5"/>
<text text-anchor="middle" x="218.5" y="-323.5" font-family="Helvetica,sans-Serif" font-size="10.00">CoolMQTT::mqttLoop</text>
</a>
</g>
</g>
<!-- Node59&#45;&gt;Node78 -->
<g id="edge21" class="edge"><title>Node59&#45;&gt;Node78</title>
<path fill="none" stroke="midnightblue" d="M75.1806,-392.43C93.2395,-380.132 126.34,-358.736 157,-345 161.961,-342.778 167.258,-340.706 172.579,-338.809"/>
<polygon fill="midnightblue" stroke="midnightblue" points="173.757,-342.105 182.111,-335.589 171.517,-335.473 173.757,-342.105"/>
</g>
<!-- Node79 -->
<g id="node21" class="node"><title>Node79</title>
<g id="a_node21"><a xlink:href="class_cool_m_q_t_t.html#ae3c18f6ae9723746d32765f1c8f176ca" target="_top" xlink:title="CoolMQTT::read">
<polygon fill="white" stroke="black" points="174,-278.5 174,-297.5 263,-297.5 263,-278.5 174,-278.5"/>
<text text-anchor="middle" x="218.5" y="-285.5" font-family="Helvetica,sans-Serif" font-size="10.00">CoolMQTT::read</text>
</a>
</g>
</g>
<!-- Node59&#45;&gt;Node79 -->
<g id="edge22" class="edge"><title>Node59&#45;&gt;Node79</title>
<path fill="none" stroke="midnightblue" d="M68.5345,-392.406C82.9887,-373.36 117.969,-330.584 157,-307 160.453,-304.914 164.156,-303.036 167.968,-301.349"/>
<polygon fill="midnightblue" stroke="midnightblue" points="169.578,-304.476 177.586,-297.539 167,-297.968 169.578,-304.476"/>
</g>
<!-- Node80 -->
<g id="node22" class="node"><title>Node80</title>
<g id="a_node22"><a xlink:href="class_cool_board.html#a8612756d3f73198cdde857a66f0fe690" target="_top" xlink:title="CoolBoard::update">
<polygon fill="white" stroke="black" points="169.5,-171.5 169.5,-190.5 267.5,-190.5 267.5,-171.5 169.5,-171.5"/>
<text text-anchor="middle" x="218.5" y="-178.5" font-family="Helvetica,sans-Serif" font-size="10.00">CoolBoard::update</text>
</a>
</g>
</g>
<!-- Node59&#45;&gt;Node80 -->
<g id="edge23" class="edge"><title>Node59&#45;&gt;Node80</title>
<path fill="none" stroke="midnightblue" d="M68.4044,-392.219C92.5165,-358.06 173.216,-243.736 204.734,-199.085"/>
<polygon fill="midnightblue" stroke="midnightblue" points="207.768,-200.856 210.675,-190.668 202.049,-196.82 207.768,-200.856"/>
</g>
<!-- Node61 -->
<g id="node3" class="node"><title>Node61</title>
<g id="a_node3"><a xlink:href="class_cool_time.html#a5ae038a4498602b189f76a10bf02adf8" target="_top" xlink:title="CoolTime::isTimeSync">
<polygon fill="white" stroke="black" points="338.5,-658.5 338.5,-677.5 454.5,-677.5 454.5,-658.5 338.5,-658.5"/>
<text text-anchor="middle" x="396.5" y="-665.5" font-family="Helvetica,sans-Serif" font-size="10.00">CoolTime::isTimeSync</text>
</a>
</g>
</g>
<!-- Node60&#45;&gt;Node61 -->
<g id="edge2" class="edge"><title>Node60&#45;&gt;Node61</title>
<path fill="none" stroke="midnightblue" d="M263.912,-639.589C287.451,-644.671 316.557,-650.955 341.405,-656.32"/>
<polygon fill="midnightblue" stroke="midnightblue" points="340.894,-659.791 351.407,-658.48 342.371,-652.948 340.894,-659.791"/>
</g>
<!-- Node63 -->
<g id="node5" class="node"><title>Node63</title>
<g id="a_node5"><a xlink:href="class_cool_time.html#a41fbbbfd651c2079f54d4b2911e4c705" target="_top" xlink:title="CoolTime::getNtpTime">
<polygon fill="white" stroke="black" points="338.5,-620.5 338.5,-639.5 454.5,-639.5 454.5,-620.5 338.5,-620.5"/>
<text text-anchor="middle" x="396.5" y="-627.5" font-family="Helvetica,sans-Serif" font-size="10.00">CoolTime::getNtpTime</text>
</a>
</g>
</g>
<!-- Node60&#45;&gt;Node63 -->
<g id="edge4" class="edge"><title>Node60&#45;&gt;Node63</title>
<path fill="none" stroke="midnightblue" d="M265.742,-630C284.822,-630 307.312,-630 328.162,-630"/>
<polygon fill="midnightblue" stroke="midnightblue" points="328.244,-633.5 338.244,-630 328.244,-626.5 328.244,-633.5"/>
</g>
<!-- Node62 -->
<g id="node4" class="node"><title>Node62</title>
<g id="a_node4"><a xlink:href="class_cool_time.html#a5d17f707a9d337720493b2bce9d41c21" target="_top" xlink:title="CoolTime::getLastSyncTime">
<polygon fill="white" stroke="black" points="513,-658.5 513,-677.5 654,-677.5 654,-658.5 513,-658.5"/>
<text text-anchor="middle" x="583.5" y="-665.5" font-family="Helvetica,sans-Serif" font-size="10.00">CoolTime::getLastSyncTime</text>
</a>
</g>
</g>
<!-- Node61&#45;&gt;Node62 -->
<g id="edge3" class="edge"><title>Node61&#45;&gt;Node62</title>
<path fill="none" stroke="midnightblue" d="M454.516,-668C469.814,-668 486.638,-668 502.918,-668"/>
<polygon fill="midnightblue" stroke="midnightblue" points="502.965,-671.5 512.965,-668 502.965,-664.5 502.965,-671.5"/>
</g>
<!-- Node64 -->
<g id="node6" class="node"><title>Node64</title>
<g id="a_node6"><a xlink:href="class_cool_time.html#a236a38d120dc53bc67456d763838c5a1" target="_top" xlink:title="CoolTime::sendNTPpacket">
<polygon fill="white" stroke="black" points="516,-620.5 516,-639.5 651,-639.5 651,-620.5 516,-620.5"/>
<text text-anchor="middle" x="583.5" y="-627.5" font-family="Helvetica,sans-Serif" font-size="10.00">CoolTime::sendNTPpacket</text>
</a>
</g>
</g>
<!-- Node63&#45;&gt;Node64 -->
<g id="edge5" class="edge"><title>Node63&#45;&gt;Node64</title>
<path fill="none" stroke="midnightblue" d="M454.516,-630C470.757,-630 488.718,-630 505.922,-630"/>
<polygon fill="midnightblue" stroke="midnightblue" points="505.945,-633.5 515.945,-630 505.945,-626.5 505.945,-633.5"/>
</g>
<!-- Node66 -->
<g id="node8" class="node"><title>Node66</title>
<g id="a_node8"><a xlink:href="class_cool_board_sensors.html#acad6a8418c66d36868caca23c844ecb6" target="_top" xlink:title="CoolBoardSensors::initReadI2C">
<polygon fill="white" stroke="black" points="318.5,-582.5 318.5,-601.5 474.5,-601.5 474.5,-582.5 318.5,-582.5"/>
<text text-anchor="middle" x="396.5" y="-589.5" font-family="Helvetica,sans-Serif" font-size="10.00">CoolBoardSensors::initReadI2C</text>
</a>
</g>
</g>
<!-- Node65&#45;&gt;Node66 -->
<g id="edge7" class="edge"><title>Node65&#45;&gt;Node66</title>
<path fill="none" stroke="midnightblue" d="M241.413,-544.651C260.768,-552.929 289.893,-564.785 316,-573 323.978,-575.51 332.496,-577.872 340.883,-580.02"/>
<polygon fill="midnightblue" stroke="midnightblue" points="340.08,-583.427 350.628,-582.44 341.767,-576.633 340.08,-583.427"/>
</g>
<!-- Node67 -->
<g id="node9" class="node"><title>Node67</title>
<g id="a_node9"><a xlink:href="class_cool_board_sensors.html#a6944b6ea7bce8e2fce1b434acfd9d5f3" target="_top" xlink:title="CoolBoardSensors::readVBat">
<polygon fill="white" stroke="black" points="324,-544.5 324,-563.5 469,-563.5 469,-544.5 324,-544.5"/>
<text text-anchor="middle" x="396.5" y="-551.5" font-family="Helvetica,sans-Serif" font-size="10.00">CoolBoardSensors::readVBat</text>
</a>
</g>
</g>
<!-- Node65&#45;&gt;Node67 -->
<g id="edge8" class="edge"><title>Node65&#45;&gt;Node67</title>
<path fill="none" stroke="midnightblue" d="M280.069,-541.539C290.99,-542.718 302.537,-543.964 313.939,-545.195"/>
<polygon fill="midnightblue" stroke="midnightblue" points="313.584,-548.677 323.902,-546.271 314.336,-541.718 313.584,-548.677"/>
</g>
<!-- Node68 -->
<g id="node10" class="node"><title>Node68</title>
<g id="a_node10"><a xlink:href="class_cool_board_sensors.html#a8761bff50373c485f4465c8db47d0633" target="_top" xlink:title="CoolBoardSensors::readMoisture">
<polygon fill="white" stroke="black" points="316,-506.5 316,-525.5 477,-525.5 477,-506.5 316,-506.5"/>
<text text-anchor="middle" x="396.5" y="-513.5" font-family="Helvetica,sans-Serif" font-size="10.00">CoolBoardSensors::readMoisture</text>
</a>
</g>
</g>
<!-- Node65&#45;&gt;Node68 -->
<g id="edge9" class="edge"><title>Node65&#45;&gt;Node68</title>
<path fill="none" stroke="midnightblue" d="M280.069,-528.461C288.36,-527.566 297.011,-526.632 305.686,-525.696"/>
<polygon fill="midnightblue" stroke="midnightblue" points="306.293,-529.151 315.86,-524.598 305.542,-522.191 306.293,-529.151"/>
</g>
<!-- Node71 -->
<g id="node13" class="node"><title>Node71</title>
<g id="a_node13"><a xlink:href="class_irene3000.html#a94ad40f281d83ad1be20bf1edd6fe802" target="_top" xlink:title="Irene3000::readTemp">
<polygon fill="white" stroke="black" points="342,-468.5 342,-487.5 451,-487.5 451,-468.5 342,-468.5"/>
<text text-anchor="middle" x="396.5" y="-475.5" font-family="Helvetica,sans-Serif" font-size="10.00">Irene3000::readTemp</text>
</a>
</g>
</g>
<!-- Node70&#45;&gt;Node71 -->
<g id="edge12" class="edge"><title>Node70&#45;&gt;Node71</title>
<path fill="none" stroke="midnightblue" d="M260.764,-448.909C284.803,-454.099 315.396,-460.705 341.352,-466.309"/>
<polygon fill="midnightblue" stroke="midnightblue" points="340.904,-469.793 351.418,-468.482 342.382,-462.951 340.904,-469.793"/>
</g>
<!-- Node73 -->
<g id="node15" class="node"><title>Node73</title>
<g id="a_node15"><a xlink:href="class_irene3000.html#abf3db725fabb0634ec889b32068a5eec" target="_top" xlink:title="Irene3000::readPh">
<polygon fill="white" stroke="black" points="348.5,-430.5 348.5,-449.5 444.5,-449.5 444.5,-430.5 348.5,-430.5"/>
<text text-anchor="middle" x="396.5" y="-437.5" font-family="Helvetica,sans-Serif" font-size="10.00">Irene3000::readPh</text>
</a>
</g>
</g>
<!-- Node70&#45;&gt;Node73 -->
<g id="edge14" class="edge"><title>Node70&#45;&gt;Node73</title>
<path fill="none" stroke="midnightblue" d="M260.764,-440C283.803,-440 312.863,-440 338.092,-440"/>
<polygon fill="midnightblue" stroke="midnightblue" points="338.276,-443.5 348.276,-440 338.276,-436.5 338.276,-443.5"/>
</g>
<!-- Node74 -->
<g id="node16" class="node"><title>Node74</title>
<g id="a_node16"><a xlink:href="class_irene3000.html#ae73bd2ed14a199a7e83f4d6458476a7c" target="_top" xlink:title="Irene3000::readADSChannel2">
<polygon fill="white" stroke="black" points="323.5,-392.5 323.5,-411.5 469.5,-411.5 469.5,-392.5 323.5,-392.5"/>
<text text-anchor="middle" x="396.5" y="-399.5" font-family="Helvetica,sans-Serif" font-size="10.00">Irene3000::readADSChannel2</text>
</a>
</g>
</g>
<!-- Node70&#45;&gt;Node74 -->
<g id="edge16" class="edge"><title>Node70&#45;&gt;Node74</title>
<path fill="none" stroke="midnightblue" d="M260.764,-431.091C284.803,-425.901 315.396,-419.295 341.352,-413.691"/>
<polygon fill="midnightblue" stroke="midnightblue" points="342.382,-417.049 351.418,-411.518 340.904,-410.207 342.382,-417.049"/>
</g>
<!-- Node72 -->
<g id="node14" class="node"><title>Node72</title>
<g id="a_node14"><a xlink:href="class_irene3000.html#aff7c5da186b388e7272e63ff88a20c34" target="_top" xlink:title="Irene3000::setGain">
<polygon fill="white" stroke="black" points="534,-430.5 534,-449.5 633,-449.5 633,-430.5 534,-430.5"/>
<text text-anchor="middle" x="583.5" y="-437.5" font-family="Helvetica,sans-Serif" font-size="10.00">Irene3000::setGain</text>
</a>
</g>
</g>
<!-- Node71&#45;&gt;Node72 -->
<g id="edge13" class="edge"><title>Node71&#45;&gt;Node72</title>
<path fill="none" stroke="midnightblue" d="M444.183,-468.411C469.146,-463.284 500.064,-456.933 526.334,-451.537"/>
<polygon fill="midnightblue" stroke="midnightblue" points="527.061,-454.961 536.152,-449.52 525.653,-448.104 527.061,-454.961"/>
</g>
<!-- Node73&#45;&gt;Node72 -->
<g id="edge15" class="edge"><title>Node73&#45;&gt;Node72</title>
<path fill="none" stroke="midnightblue" d="M444.662,-440C468.655,-440 498.054,-440 523.529,-440"/>
<polygon fill="midnightblue" stroke="midnightblue" points="523.811,-443.5 533.811,-440 523.811,-436.5 523.811,-443.5"/>
</g>
<!-- Node74&#45;&gt;Node72 -->
<g id="edge17" class="edge"><title>Node74&#45;&gt;Node72</title>
<path fill="none" stroke="midnightblue" d="M444.183,-411.589C469.146,-416.716 500.064,-423.067 526.334,-428.463"/>
<polygon fill="midnightblue" stroke="midnightblue" points="525.653,-431.896 536.152,-430.48 527.061,-425.039 525.653,-431.896"/>
</g>
<!-- Node76 -->
<g id="node18" class="node"><title>Node76</title>
<g id="a_node18"><a xlink:href="class_jetpack.html#a338f1af8cbc6504ac69b47c7328569b5" target="_top" xlink:title="Jetpack::write">
<polygon fill="white" stroke="black" points="357.5,-354.5 357.5,-373.5 435.5,-373.5 435.5,-354.5 357.5,-354.5"/>
<text text-anchor="middle" x="396.5" y="-361.5" font-family="Helvetica,sans-Serif" font-size="10.00">Jetpack::write</text>
</a>
</g>
</g>
<!-- Node75&#45;&gt;Node76 -->
<g id="edge19" class="edge"><title>Node75&#45;&gt;Node76</title>
<path fill="none" stroke="midnightblue" d="M263.912,-392.411C289.354,-386.918 321.298,-380.021 347.341,-374.398"/>
<polygon fill="midnightblue" stroke="midnightblue" points="348.336,-377.764 357.372,-372.232 346.858,-370.922 348.336,-377.764"/>
</g>
<!-- Node81 -->
<g id="node23" class="node"><title>Node81</title>
<g id="a_node23"><a xlink:href="class_cool_file_system.html#a32dad79ae80182a83e2e8f52286b7c7b" target="_top" xlink:title="CoolFileSystem::updateConfig\lFiles">
<polygon fill="white" stroke="black" points="321.5,-305 321.5,-335 471.5,-335 471.5,-305 321.5,-305"/>
<text text-anchor="start" x="329.5" y="-323" font-family="Helvetica,sans-Serif" font-size="10.00">CoolFileSystem::updateConfig</text>
<text text-anchor="middle" x="396.5" y="-312" font-family="Helvetica,sans-Serif" font-size="10.00">Files</text>
</a>
</g>
</g>
<!-- Node80&#45;&gt;Node81 -->
<g id="edge24" class="edge"><title>Node80&#45;&gt;Node81</title>
<path fill="none" stroke="midnightblue" d="M224.938,-190.531C237.858,-212.327 272.59,-266.154 316,-295 319.073,-297.042 322.322,-298.925 325.683,-300.661"/>
<polygon fill="midnightblue" stroke="midnightblue" points="324.251,-303.855 334.792,-304.919 327.215,-297.514 324.251,-303.855"/>
</g>
<!-- Node82 -->
<g id="node24" class="node"><title>Node82</title>
<g id="a_node24"><a xlink:href="class_cool_board.html#a583a874c09c07e70a6eb9229fc4beddb" target="_top" xlink:title="CoolBoard::config">
<polygon fill="white" stroke="black" points="349,-266.5 349,-285.5 444,-285.5 444,-266.5 349,-266.5"/>
<text text-anchor="middle" x="396.5" y="-273.5" font-family="Helvetica,sans-Serif" font-size="10.00">CoolBoard::config</text>
</a>
</g>
</g>
<!-- Node80&#45;&gt;Node82 -->
<g id="edge25" class="edge"><title>Node80&#45;&gt;Node82</title>
<path fill="none" stroke="midnightblue" d="M228.671,-190.54C244.786,-206.732 279.914,-239.531 316,-257 323.265,-260.517 331.225,-263.409 339.214,-265.78"/>
<polygon fill="midnightblue" stroke="midnightblue" points="338.36,-269.175 348.928,-268.421 340.196,-262.42 338.36,-269.175"/>
</g>
<!-- Node84 -->
<g id="node26" class="node"><title>Node84</title>
<g id="a_node26"><a xlink:href="class_cool_board_sensors.html#a9a218895c5423375c33c08f2c56fb23a" target="_top" xlink:title="CoolBoardSensors::config">
<polygon fill="white" stroke="black" points="331,-228.5 331,-247.5 462,-247.5 462,-228.5 331,-228.5"/>
<text text-anchor="middle" x="396.5" y="-235.5" font-family="Helvetica,sans-Serif" font-size="10.00">CoolBoardSensors::config</text>
</a>
</g>
</g>
<!-- Node80&#45;&gt;Node84 -->
<g id="edge27" class="edge"><title>Node80&#45;&gt;Node84</title>
<path fill="none" stroke="midnightblue" d="M241.413,-190.651C260.768,-198.929 289.893,-210.785 316,-219 323.978,-221.51 332.496,-223.872 340.883,-226.02"/>
<polygon fill="midnightblue" stroke="midnightblue" points="340.08,-229.427 350.628,-228.44 341.767,-222.633 340.08,-229.427"/>
</g>
<!-- Node85 -->
<g id="node27" class="node"><title>Node85</title>
<g id="a_node27"><a xlink:href="class_cool_time.html#a87c28260c1bc77091162cbcf1ee2e129" target="_top" xlink:title="CoolTime::config">
<polygon fill="white" stroke="black" points="351,-190.5 351,-209.5 442,-209.5 442,-190.5 351,-190.5"/>
<text text-anchor="middle" x="396.5" y="-197.5" font-family="Helvetica,sans-Serif" font-size="10.00">CoolTime::config</text>
</a>
</g>
</g>
<!-- Node80&#45;&gt;Node85 -->
<g id="edge28" class="edge"><title>Node80&#45;&gt;Node85</title>
<path fill="none" stroke="midnightblue" d="M267.593,-186.192C290.201,-188.632 317.267,-191.554 340.668,-194.081"/>
<polygon fill="midnightblue" stroke="midnightblue" points="340.471,-197.58 350.789,-195.173 341.223,-190.62 340.471,-197.58"/>
</g>
<!-- Node86 -->
<g id="node28" class="node"><title>Node86</title>
<g id="a_node28"><a xlink:href="class_cool_board_led.html#a1b60e5e30bea96c49ed62ed1bf1ffc8b" target="_top" xlink:title="CoolBoardLed::config">
<polygon fill="white" stroke="black" points="341.5,-152.5 341.5,-171.5 451.5,-171.5 451.5,-152.5 341.5,-152.5"/>
<text text-anchor="middle" x="396.5" y="-159.5" font-family="Helvetica,sans-Serif" font-size="10.00">CoolBoardLed::config</text>
</a>
</g>
</g>
<!-- Node80&#45;&gt;Node86 -->
<g id="edge29" class="edge"><title>Node80&#45;&gt;Node86</title>
<path fill="none" stroke="midnightblue" d="M267.593,-175.808C287.185,-173.693 310.126,-171.217 331.127,-168.949"/>
<polygon fill="midnightblue" stroke="midnightblue" points="331.692,-172.409 341.258,-167.856 330.94,-165.449 331.692,-172.409"/>
</g>
<!-- Node87 -->
<g id="node29" class="node"><title>Node87</title>
<g id="a_node29"><a xlink:href="class_cool_m_q_t_t.html#a0158596b9a2297c8ba609b56ce6bace1" target="_top" xlink:title="CoolMQTT::config">
<polygon fill="white" stroke="black" points="348,-114.5 348,-133.5 445,-133.5 445,-114.5 348,-114.5"/>
<text text-anchor="middle" x="396.5" y="-121.5" font-family="Helvetica,sans-Serif" font-size="10.00">CoolMQTT::config</text>
</a>
</g>
</g>
<!-- Node80&#45;&gt;Node87 -->
<g id="edge30" class="edge"><title>Node80&#45;&gt;Node87</title>
<path fill="none" stroke="midnightblue" d="M241.413,-171.349C260.768,-163.071 289.893,-151.215 316,-143 323.978,-140.49 332.496,-138.128 340.883,-135.98"/>
<polygon fill="midnightblue" stroke="midnightblue" points="341.767,-139.367 350.628,-133.56 340.08,-132.573 341.767,-139.367"/>
</g>
<!-- Node88 -->
<g id="node30" class="node"><title>Node88</title>
<g id="a_node30"><a xlink:href="class_jetpack.html#ab065ee83e244265a2223a22f3ee4a719" target="_top" xlink:title="Jetpack::config">
<polygon fill="white" stroke="black" points="355,-76.5 355,-95.5 438,-95.5 438,-76.5 355,-76.5"/>
<text text-anchor="middle" x="396.5" y="-83.5" font-family="Helvetica,sans-Serif" font-size="10.00">Jetpack::config</text>
</a>
</g>
</g>
<!-- Node80&#45;&gt;Node88 -->
<g id="edge31" class="edge"><title>Node80&#45;&gt;Node88</title>
<path fill="none" stroke="midnightblue" d="M228.671,-171.46C244.786,-155.268 279.914,-122.469 316,-105 325.005,-100.641 335.079,-97.2415 344.951,-94.6041"/>
<polygon fill="midnightblue" stroke="midnightblue" points="345.829,-97.9927 354.709,-92.2134 344.163,-91.1938 345.829,-97.9927"/>
</g>
<!-- Node89 -->
<g id="node31" class="node"><title>Node89</title>
<g id="a_node31"><a xlink:href="class_irene3000.html#afed5c35e4b23963c157847ef27c11e9c" target="_top" xlink:title="Irene3000::config">
<polygon fill="white" stroke="black" points="350.5,-38.5 350.5,-57.5 442.5,-57.5 442.5,-38.5 350.5,-38.5"/>
<text text-anchor="middle" x="396.5" y="-45.5" font-family="Helvetica,sans-Serif" font-size="10.00">Irene3000::config</text>
</a>
</g>
</g>
<!-- Node80&#45;&gt;Node89 -->
<g id="edge32" class="edge"><title>Node80&#45;&gt;Node89</title>
<path fill="none" stroke="midnightblue" d="M224.801,-171.256C237.435,-149.011 271.606,-94.3078 316,-67 323.465,-62.4082 331.955,-58.9262 340.54,-56.2856"/>
<polygon fill="midnightblue" stroke="midnightblue" points="341.497,-59.6527 350.225,-53.6476 339.657,-52.8988 341.497,-59.6527"/>
</g>
<!-- Node91 -->
<g id="node33" class="node"><title>Node91</title>
<g id="a_node33"><a xlink:href="class_external_sensors.html#a862a4bd11346b37270d0244c2adabe5a" target="_top" xlink:title="ExternalSensors::config">
<polygon fill="white" stroke="black" points="336,-0.5 336,-19.5 457,-19.5 457,-0.5 336,-0.5"/>
<text text-anchor="middle" x="396.5" y="-7.5" font-family="Helvetica,sans-Serif" font-size="10.00">ExternalSensors::config</text>
</a>
</g>
</g>
<!-- Node80&#45;&gt;Node91 -->
<g id="edge34" class="edge"><title>Node80&#45;&gt;Node91</title>
<path fill="none" stroke="midnightblue" d="M222.687,-171.349C232.156,-144.246 262.825,-66.9511 316,-29 319.285,-26.6557 322.821,-24.5977 326.512,-22.7915"/>
<polygon fill="midnightblue" stroke="midnightblue" points="328.103,-25.9187 335.95,-18.8003 325.377,-19.4714 328.103,-25.9187"/>
</g>
<!-- Node83 -->
<g id="node25" class="node"><title>Node83</title>
<g id="a_node25"><a xlink:href="class_cool_file_system.html#a6ba6f666ed4c530174f8569d2c636748" target="_top" xlink:title="CoolFileSystem::begin">
<polygon fill="white" stroke="black" points="525.5,-266.5 525.5,-285.5 641.5,-285.5 641.5,-266.5 525.5,-266.5"/>
<text text-anchor="middle" x="583.5" y="-273.5" font-family="Helvetica,sans-Serif" font-size="10.00">CoolFileSystem::begin</text>
</a>
</g>
</g>
<!-- Node82&#45;&gt;Node83 -->
<g id="edge26" class="edge"><title>Node82&#45;&gt;Node83</title>
<path fill="none" stroke="midnightblue" d="M444.183,-276C465.629,-276 491.471,-276 514.984,-276"/>
<polygon fill="midnightblue" stroke="midnightblue" points="515.248,-279.5 525.248,-276 515.248,-272.5 515.248,-279.5"/>
</g>
<!-- Node90 -->
<g id="node32" class="node"><title>Node90</title>
<g id="a_node32"><a xlink:href="class_irene3000.html#abcad62d1201a59f8dd3ba87048002728" target="_top" xlink:title="Irene3000::gainConvert">
<polygon fill="white" stroke="black" points="524.5,-38.5 524.5,-57.5 642.5,-57.5 642.5,-38.5 524.5,-38.5"/>
<text text-anchor="middle" x="583.5" y="-45.5" font-family="Helvetica,sans-Serif" font-size="10.00">Irene3000::gainConvert</text>
</a>
</g>
</g>
<!-- Node89&#45;&gt;Node90 -->
<g id="edge33" class="edge"><title>Node89&#45;&gt;Node90</title>
<path fill="none" stroke="midnightblue" d="M442.756,-48C464.284,-48 490.479,-48 514.345,-48"/>
<polygon fill="midnightblue" stroke="midnightblue" points="514.411,-51.5001 524.411,-48 514.411,-44.5001 514.411,-51.5001"/>
</g>
</g>
</svg>
        <g id="navigator" transform="translate(0 0)" fill="#404254">
                <rect fill="#f2f5e9" fill-opacity="0.5" stroke="#606060" stroke-width=".5" x="0" y="0" width="60" height="60"/>
                <use id="zoomplus" xlink:href="#zoomPlus" x="17" y="9" onmousedown="handleZoom(evt,'in')"/>
                <use id="zoomminus" xlink:href="#zoomMin" x="42" y="9" onmousedown="handleZoom(evt,'out')"/>
                <use id="reset" xlink:href="#resetDef" x="30" y="36" onmousedown="handleReset()"/>
                <g id="arrowUp" xlink:href="#dirArrow" transform="translate(30 24)" onmousedown="handlePan(0,-1)">
                  <use xlink:href="#rim" fill="#404040">
                        <set attributeName="fill" to="#808080" begin="arrowUp.mouseover" end="arrowUp.mouseout"/>
                  </use>
                  <path fill="none" stroke="white" stroke-width="1.5" d="M0,-3.0v7 M-2.5,-0.5L0,-3.0L2.5,-0.5"/>
                </g>
                <g id="arrowRight" xlink:href="#dirArrow" transform="rotate(90) translate(36 -43)" onmousedown="handlePan(1,0)">
                  <use xlink:href="#rim" fill="#404040">
                        <set attributeName="fill" to="#808080" begin="arrowRight.mouseover" end="arrowRight.mouseout"/>
                  </use>
                  <path fill="none" stroke="white" stroke-width="1.5" d="M0,-3.0v7 M-2.5,-0.5L0,-3.0L2.5,-0.5"/>
                </g>
                <g id="arrowDown" xlink:href="#dirArrow" transform="rotate(180) translate(-30 -48)" onmousedown="handlePan(0,1)">
                  <use xlink:href="#rim" fill="#404040">
                        <set attributeName="fill" to="#808080" begin="arrowDown.mouseover" end="arrowDown.mouseout"/>
                  </use>
                  <path fill="none" stroke="white" stroke-width="1.5" d="M0,-3.0v7 M-2.5,-0.5L0,-3.0L2.5,-0.5"/>
                </g>
                <g id="arrowLeft" xlink:href="#dirArrow" transform="rotate(270) translate(-36 17)" onmousedown="handlePan(-1,0)">
                  <use xlink:href="#rim" fill="#404040">
                        <set attributeName="fill" to="#808080" begin="arrowLeft.mouseover" end="arrowLeft.mouseout"/>
                  </use>
                  <path fill="none" stroke="white" stroke-width="1.5" d="M0,-3.0v7 M-2.5,-0.5L0,-3.0L2.5,-0.5"/>
                </g>
        </g>
        <svg viewBox="0 0 15 15" width="100%" height="30px" preserveAspectRatio="xMaxYMin meet">
         <g id="arrow_out" transform="scale(0.3 0.3)">
          <a xlink:href="class_cool_board_aa0bbc4bc605e35618d18e68795c61363_cgraph_org.svg" target="_base">
           <rect id="button" ry="5" rx="5" y="6" x="6" height="38" width="38"
                fill="#f2f5e9" fill-opacity="0.5" stroke="#606060" stroke-width="1.0"/>
           <path id="arrow"
             d="M 11.500037,31.436501 C 11.940474,20.09759 22.043105,11.32322 32.158766,21.979434 L 37.068811,17.246167 C 37.068811,17.246167 37.088388,32 37.088388,32 L 22.160133,31.978069 C 22.160133,31.978069 26.997745,27.140456 26.997745,27.140456 C 18.528582,18.264221 13.291696,25.230495 11.500037,31.436501 z"
             style="fill:#404040;"/>
          </a>
         </g>
        </svg>
</svg>
