<?xml version="1.0" encoding="UTF-8" standalone="no"?>
<!DOCTYPE svg PUBLIC "-//W3C//DTD SVG 1.1//EN"
 "http://www.w3.org/Graphics/SVG/1.1/DTD/svg11.dtd">
<!-- Generated by graphviz version 2.38.0 (20140413.2041)
 -->
<!-- Title: CoolBoardLed::blink Pages: 1 -->
<svg width="398pt" height="160pt"
 viewBox="0.00 0.00 398.00 159.53" xmlns="http://www.w3.org/2000/svg" xmlns:xlink="http://www.w3.org/1999/xlink">
<g id="graph0" class="graph" transform="scale(1 1) rotate(0) translate(4 155.53)">
<title>CoolBoardLed::blink</title>
<polygon fill="white" stroke="none" points="-4,4 -4,-155.53 394,-155.53 394,4 -4,4"/>
<!-- Node4 -->
<g id="node1" class="node"><title>Node4</title>
<polygon fill="#bfbfbf" stroke="black" points="0,-76.5 0,-95.5 104,-95.5 104,-76.5 0,-76.5"/>
<text text-anchor="middle" x="52" y="-83.5" font-family="Helvetica,sans-Serif" font-size="10.00">CoolBoardLed::blink</text>
</g>
<!-- Node5 -->
<g id="node2" class="node"><title>Node5</title>
<g id="a_node2"><a xlink:href="classCoolBoard.html#acba7c5aef7268b2c0044bdb54d3b9d76" target="_top" xlink:title="CoolBoard::begin">
<polygon fill="white" stroke="black" points="298,-114.5 298,-133.5 390,-133.5 390,-114.5 298,-114.5"/>
<text text-anchor="middle" x="344" y="-121.5" font-family="Helvetica,sans-Serif" font-size="10.00">CoolBoard::begin</text>
</a>
</g>
</g>
<!-- Node4&#45;&gt;Node5 -->
<g id="edge1" class="edge"><title>Node4&#45;&gt;Node5</title>
<path fill="none" stroke="midnightblue" d="M70.9698,-102.343C87.5257,-116.214 113.477,-135.085 140,-143 199.867,-160.865 273.678,-145.064 313.748,-133.528"/>
<polygon fill="midnightblue" stroke="midnightblue" points="73.0668,-99.5295 63.2154,-95.6308 68.4853,-104.822 73.0668,-99.5295"/>
</g>
<!-- Node6 -->
<g id="node3" class="node"><title>Node6</title>
<g id="a_node3"><a xlink:href="classCoolBoard.html#a583a874c09c07e70a6eb9229fc4beddb" target="_top" xlink:title="CoolBoard::config">
<polygon fill="white" stroke="black" points="153.5,-114.5 153.5,-133.5 248.5,-133.5 248.5,-114.5 153.5,-114.5"/>
<text text-anchor="middle" x="201" y="-121.5" font-family="Helvetica,sans-Serif" font-size="10.00">CoolBoard::config</text>
</a>
</g>
</g>
<!-- Node4&#45;&gt;Node6 -->
<g id="edge2" class="edge"><title>Node4&#45;&gt;Node6</title>
<path fill="none" stroke="midnightblue" d="M99.8548,-98.1121C120.328,-103.404 143.99,-109.521 163.172,-114.48"/>
<polygon fill="midnightblue" stroke="midnightblue" points="100.652,-94.7032 90.0943,-95.589 98.9001,-101.48 100.652,-94.7032"/>
</g>
<!-- Node7 -->
<g id="node4" class="node"><title>Node7</title>
<g id="a_node4"><a xlink:href="classCoolBoard.html#a519de78b807f8ec6463ff484eb925918" target="_top" xlink:title="CoolBoard::connect">
<polygon fill="white" stroke="black" points="149.5,-76.5 149.5,-95.5 252.5,-95.5 252.5,-76.5 149.5,-76.5"/>
<text text-anchor="middle" x="201" y="-83.5" font-family="Helvetica,sans-Serif" font-size="10.00">CoolBoard::connect</text>
</a>
</g>
</g>
<!-- Node4&#45;&gt;Node7 -->
<g id="edge3" class="edge"><title>Node4&#45;&gt;Node7</title>
<path fill="none" stroke="midnightblue" d="M114.092,-86C125.735,-86 137.805,-86 149.089,-86"/>
<polygon fill="midnightblue" stroke="midnightblue" points="114.001,-82.5001 104.001,-86 114.001,-89.5001 114.001,-82.5001"/>
</g>
<!-- Node8 -->
<g id="node5" class="node"><title>Node8</title>
<g id="a_node5"><a xlink:href="classCoolBoard.html#ae6b5e1274d760462290192acea4adca8" target="_top" xlink:title="CoolBoard::offLineMode">
<polygon fill="white" stroke="black" points="140,-38.5 140,-57.5 262,-57.5 262,-38.5 140,-38.5"/>
<text text-anchor="middle" x="201" y="-45.5" font-family="Helvetica,sans-Serif" font-size="10.00">CoolBoard::offLineMode</text>
</a>
</g>
</g>
<!-- Node4&#45;&gt;Node8 -->
<g id="edge5" class="edge"><title>Node4&#45;&gt;Node8</title>
<path fill="none" stroke="midnightblue" d="M99.8548,-73.8879C120.328,-68.5956 143.99,-62.4787 163.172,-57.5201"/>
<polygon fill="midnightblue" stroke="midnightblue" points="98.9001,-70.5195 90.0943,-76.411 100.652,-77.2968 98.9001,-70.5195"/>
</g>
<!-- Node9 -->
<g id="node6" class="node"><title>Node9</title>
<g id="a_node6"><a xlink:href="classCoolBoard.html#aa0bbc4bc605e35618d18e68795c61363" target="_top" xlink:title="CoolBoard::onLineMode">
<polygon fill="white" stroke="black" points="140.5,-0.5 140.5,-19.5 261.5,-19.5 261.5,-0.5 140.5,-0.5"/>
<text text-anchor="middle" x="201" y="-7.5" font-family="Helvetica,sans-Serif" font-size="10.00">CoolBoard::onLineMode</text>
</a>
</g>
</g>
<!-- Node4&#45;&gt;Node9 -->
<g id="edge6" class="edge"><title>Node4&#45;&gt;Node9</title>
<path fill="none" stroke="midnightblue" d="M73.4385,-70.2899C90.4943,-57.7637 115.831,-40.4771 140,-29 147.6,-25.391 156.056,-22.2341 164.166,-19.5839"/>
<polygon fill="midnightblue" stroke="midnightblue" points="71.2418,-67.562 65.3243,-76.3503 75.4307,-73.1704 71.2418,-67.562"/>
</g>
<!-- Node7&#45;&gt;Node5 -->
<g id="edge4" class="edge"><title>Node7&#45;&gt;Node5</title>
<path fill="none" stroke="midnightblue" d="M247.44,-98.2462C266.875,-103.484 289.231,-109.509 307.431,-114.414"/>
<polygon fill="midnightblue" stroke="midnightblue" points="248.147,-94.8118 237.58,-95.589 246.325,-101.571 248.147,-94.8118"/>
</g>
</g>
</svg>
