<?xml version="1.0" encoding="UTF-8" standalone="no"?>
<!DOCTYPE svg PUBLIC "-//W3C//DTD SVG 1.1//EN"
 "http://www.w3.org/Graphics/SVG/1.1/DTD/svg11.dtd">
<!-- Generated by graphviz version 2.38.0 (20140413.2041)
 -->
<!-- Title: BaseExternalSensor Pages: 1 -->
<svg width="454pt" height="215pt"
 viewBox="0.00 0.00 453.50 215.00" xmlns="http://www.w3.org/2000/svg" xmlns:xlink="http://www.w3.org/1999/xlink">
<g id="graph0" class="graph" transform="scale(1 1) rotate(0) translate(4 211)">
<title>BaseExternalSensor</title>
<polygon fill="white" stroke="none" points="-4,4 -4,-211 449.5,-211 449.5,4 -4,4"/>
<!-- Node0 -->
<g id="node1" class="node"><title>Node0</title>
<polygon fill="#bfbfbf" stroke="black" points="157,-127.5 157,-206.5 278,-206.5 278,-127.5 157,-127.5"/>
<text text-anchor="middle" x="217.5" y="-194.5" font-family="Helvetica,sans-Serif" font-size="10.00">BaseExternalSensor</text>
<polyline fill="none" stroke="black" points="157,-187.5 278,-187.5 "/>
<text text-anchor="middle" x="217.5" y="-175.5" font-family="Helvetica,sans-Serif" font-size="10.00"> </text>
<polyline fill="none" stroke="black" points="157,-168.5 278,-168.5 "/>
<text text-anchor="start" x="165" y="-156.5" font-family="Helvetica,sans-Serif" font-size="10.00">+ BaseExternalSensor()</text>
<text text-anchor="start" x="165" y="-145.5" font-family="Helvetica,sans-Serif" font-size="10.00">+ begin()</text>
<text text-anchor="start" x="165" y="-134.5" font-family="Helvetica,sans-Serif" font-size="10.00">+ read()</text>
</g>
<!-- Node1 -->
<g id="node2" class="node"><title>Node1</title>
<g id="a_node2"><a xlink:href="class_external_sensor.html" target="_top" xlink:title="template&lt;class SensorClass&gt; class External Sensor: Derived class from BaseExternalSensor. ">
<polygon fill="white" stroke="black" points="0,-6 0,-85 107,-85 107,-6 0,-6"/>
<text text-anchor="middle" x="53.5" y="-73" font-family="Helvetica,sans-Serif" font-size="10.00">ExternalSensor&lt; T &gt;</text>
<polyline fill="none" stroke="black" points="0,-66 107,-66 "/>
<text text-anchor="middle" x="53.5" y="-54" font-family="Helvetica,sans-Serif" font-size="10.00"> </text>
<polyline fill="none" stroke="black" points="0,-47 107,-47 "/>
<text text-anchor="start" x="8" y="-35" font-family="Helvetica,sans-Serif" font-size="10.00">+ ExternalSensor()</text>
<text text-anchor="start" x="8" y="-24" font-family="Helvetica,sans-Serif" font-size="10.00">+ begin()</text>
<text text-anchor="start" x="8" y="-13" font-family="Helvetica,sans-Serif" font-size="10.00">+ read()</text>
</a>
</g>
</g>
<!-- Node0&#45;&gt;Node1 -->
<g id="edge1" class="edge"><title>Node0&#45;&gt;Node1</title>
<path fill="none" stroke="midnightblue" d="M155.874,-121.096C139.622,-109.254 122.23,-96.581 106.479,-85.1036"/>
<polygon fill="none" stroke="midnightblue" points="154.111,-124.141 164.254,-127.202 158.233,-118.484 154.111,-124.141"/>
</g>
<!-- Node2 -->
<g id="node3" class="node"><title>Node2</title>
<g id="a_node3"><a xlink:href="class_external_sensor_3_01_dallas_temperature_01_4.html" target="_top" xlink:title="DallasTemperature Specialization Class This is the template specialization for the Dallas Temperature...">
<polygon fill="white" stroke="black" points="125.5,-6 125.5,-85 309.5,-85 309.5,-6 125.5,-6"/>
<text text-anchor="middle" x="217.5" y="-73" font-family="Helvetica,sans-Serif" font-size="10.00">ExternalSensor&lt; DallasTemperature &gt;</text>
<polyline fill="none" stroke="black" points="125.5,-66 309.5,-66 "/>
<text text-anchor="middle" x="217.5" y="-54" font-family="Helvetica,sans-Serif" font-size="10.00"> </text>
<polyline fill="none" stroke="black" points="125.5,-47 309.5,-47 "/>
<text text-anchor="start" x="133.5" y="-35" font-family="Helvetica,sans-Serif" font-size="10.00">+ ExternalSensor()</text>
<text text-anchor="start" x="133.5" y="-24" font-family="Helvetica,sans-Serif" font-size="10.00">+ begin()</text>
<text text-anchor="start" x="133.5" y="-13" font-family="Helvetica,sans-Serif" font-size="10.00">+ read()</text>
</a>
</g>
</g>
<!-- Node0&#45;&gt;Node2 -->
<g id="edge2" class="edge"><title>Node0&#45;&gt;Node2</title>
<path fill="none" stroke="midnightblue" d="M217.5,-117.157C217.5,-106.478 217.5,-95.3174 217.5,-85.1036"/>
<polygon fill="none" stroke="midnightblue" points="214,-117.202 217.5,-127.202 221,-117.202 214,-117.202"/>
</g>
<!-- Node3 -->
<g id="node4" class="node"><title>Node3</title>
<g id="a_node4"><a xlink:href="class_external_sensor_3_01_n_d_i_r___i2_c_01_4.html" target="_top" xlink:title="NDIR_I2C Specialization Class This is the template specialization for the NDIR_I2C CO2 sensor...">
<polygon fill="white" stroke="black" points="327.5,-0.5 327.5,-90.5 445.5,-90.5 445.5,-0.5 327.5,-0.5"/>
<text text-anchor="start" x="335.5" y="-78.5" font-family="Helvetica,sans-Serif" font-size="10.00">ExternalSensor&lt; NDIR</text>
<text text-anchor="middle" x="386.5" y="-67.5" font-family="Helvetica,sans-Serif" font-size="10.00">_I2C &gt;</text>
<polyline fill="none" stroke="black" points="327.5,-60.5 445.5,-60.5 "/>
<text text-anchor="middle" x="386.5" y="-48.5" font-family="Helvetica,sans-Serif" font-size="10.00"> </text>
<polyline fill="none" stroke="black" points="327.5,-41.5 445.5,-41.5 "/>
<text text-anchor="start" x="335.5" y="-29.5" font-family="Helvetica,sans-Serif" font-size="10.00">+ ExternalSensor()</text>
<text text-anchor="start" x="335.5" y="-18.5" font-family="Helvetica,sans-Serif" font-size="10.00">+ begin()</text>
<text text-anchor="start" x="335.5" y="-7.5" font-family="Helvetica,sans-Serif" font-size="10.00">+ read()</text>
</a>
</g>
</g>
<!-- Node0&#45;&gt;Node3 -->
<g id="edge3" class="edge"><title>Node0&#45;&gt;Node3</title>
<path fill="none" stroke="midnightblue" d="M280.721,-121.296C295.962,-110.52 312.19,-99.0447 327.242,-88.4015"/>
<polygon fill="none" stroke="midnightblue" points="278.514,-118.571 272.369,-127.202 282.555,-124.286 278.514,-118.571"/>
</g>
</g>
</svg>
