<?xml version="1.0" encoding="UTF-8" standalone="no"?>
<!DOCTYPE svg PUBLIC "-//W3C//DTD SVG 1.1//EN"
 "http://www.w3.org/Graphics/SVG/1.1/DTD/svg11.dtd">
<!-- Generated by graphviz version 2.38.0 (20140413.2041)
 -->
<!-- Title: CoolBoard::update Pages: 1 -->
<svg width="446pt" height="344pt"
 viewBox="0.00 0.00 446.00 343.50" xmlns="http://www.w3.org/2000/svg" xmlns:xlink="http://www.w3.org/1999/xlink">
<g id="graph0" class="graph" transform="scale(1 1) rotate(0) translate(4 339.5)">
<title>CoolBoard::update</title>
<polygon fill="white" stroke="none" points="-4,4 -4,-339.5 442,-339.5 442,4 -4,4"/>
<!-- Node99 -->
<g id="node1" class="node"><title>Node99</title>
<polygon fill="#bfbfbf" stroke="black" points="0,-164 0,-183 98,-183 98,-164 0,-164"/>
<text text-anchor="middle" x="49" y="-171" font-family="Helvetica,sans-Serif" font-size="10.00">CoolBoard::update</text>
</g>
<!-- Node100 -->
<g id="node2" class="node"><title>Node100</title>
<g id="a_node2"><a xlink:href="classCoolBoardLed.html#a1b60e5e30bea96c49ed62ed1bf1ffc8b" target="_top" xlink:title="CoolBoardLed::config">
<polygon fill="white" stroke="black" points="154,-316 154,-335 264,-335 264,-316 154,-316"/>
<text text-anchor="middle" x="209" y="-323" font-family="Helvetica,sans-Serif" font-size="10.00">CoolBoardLed::config</text>
</a>
</g>
</g>
<!-- Node99&#45;&gt;Node100 -->
<g id="edge1" class="edge"><title>Node99&#45;&gt;Node100</title>
<path fill="none" stroke="midnightblue" d="M53.2845,-183.308C62.1027,-208.083 88.7426,-273.543 134,-306.5 137.225,-308.848 140.714,-310.907 144.36,-312.712"/>
<polygon fill="midnightblue" stroke="midnightblue" points="143.115,-315.986 153.686,-316.696 145.865,-309.549 143.115,-315.986"/>
</g>
<!-- Node101 -->
<g id="node3" class="node"><title>Node101</title>
<g id="a_node3"><a xlink:href="classCoolMQTT.html#a0158596b9a2297c8ba609b56ce6bace1" target="_top" xlink:title="CoolMQTT::config">
<polygon fill="white" stroke="black" points="160.5,-278 160.5,-297 257.5,-297 257.5,-278 160.5,-278"/>
<text text-anchor="middle" x="209" y="-285" font-family="Helvetica,sans-Serif" font-size="10.00">CoolMQTT::config</text>
</a>
</g>
</g>
<!-- Node99&#45;&gt;Node101 -->
<g id="edge2" class="edge"><title>Node99&#45;&gt;Node101</title>
<path fill="none" stroke="midnightblue" d="M55.7974,-183.295C67.8098,-202.702 97.3792,-246.095 134,-268.5 139.074,-271.604 144.641,-274.204 150.372,-276.38"/>
<polygon fill="midnightblue" stroke="midnightblue" points="149.522,-279.787 160.116,-279.659 151.754,-273.152 149.522,-279.787"/>
</g>
<!-- Node102 -->
<g id="node4" class="node"><title>Node102</title>
<g id="a_node4"><a xlink:href="classCoolTime.html#a87c28260c1bc77091162cbcf1ee2e129" target="_top" xlink:title="CoolTime::config">
<polygon fill="white" stroke="black" points="163.5,-240 163.5,-259 254.5,-259 254.5,-240 163.5,-240"/>
<text text-anchor="middle" x="209" y="-247" font-family="Helvetica,sans-Serif" font-size="10.00">CoolTime::config</text>
</a>
</g>
</g>
<!-- Node99&#45;&gt;Node102 -->
<g id="edge3" class="edge"><title>Node99&#45;&gt;Node102</title>
<path fill="none" stroke="midnightblue" d="M61.4632,-183.199C76.956,-195.839 105.886,-217.818 134,-230.5 140.174,-233.285 146.829,-235.715 153.528,-237.821"/>
<polygon fill="midnightblue" stroke="midnightblue" points="152.742,-241.237 163.322,-240.677 154.702,-234.517 152.742,-241.237"/>
</g>
<!-- Node103 -->
<g id="node5" class="node"><title>Node103</title>
<g id="a_node5"><a xlink:href="classExternalSensors.html#a862a4bd11346b37270d0244c2adabe5a" target="_top" xlink:title="ExternalSensors::config">
<polygon fill="white" stroke="black" points="148.5,-202 148.5,-221 269.5,-221 269.5,-202 148.5,-202"/>
<text text-anchor="middle" x="209" y="-209" font-family="Helvetica,sans-Serif" font-size="10.00">ExternalSensors::config</text>
</a>
</g>
</g>
<!-- Node99&#45;&gt;Node103 -->
<g id="edge4" class="edge"><title>Node99&#45;&gt;Node103</title>
<path fill="none" stroke="midnightblue" d="M89.8701,-183.089C110.72,-188.104 136.435,-194.288 158.543,-199.605"/>
<polygon fill="midnightblue" stroke="midnightblue" points="157.875,-203.044 168.417,-201.98 159.512,-196.239 157.875,-203.044"/>
</g>
<!-- Node104 -->
<g id="node6" class="node"><title>Node104</title>
<g id="a_node6"><a xlink:href="classJetpack.html#ab065ee83e244265a2223a22f3ee4a719" target="_top" xlink:title="Jetpack::config">
<polygon fill="white" stroke="black" points="167.5,-164 167.5,-183 250.5,-183 250.5,-164 167.5,-164"/>
<text text-anchor="middle" x="209" y="-171" font-family="Helvetica,sans-Serif" font-size="10.00">Jetpack::config</text>
</a>
</g>
</g>
<!-- Node99&#45;&gt;Node104 -->
<g id="edge5" class="edge"><title>Node99&#45;&gt;Node104</title>
<path fill="none" stroke="midnightblue" d="M98.2637,-173.5C116.947,-173.5 138.348,-173.5 157.26,-173.5"/>
<polygon fill="midnightblue" stroke="midnightblue" points="157.478,-177 167.478,-173.5 157.478,-170 157.478,-177"/>
</g>
<!-- Node105 -->
<g id="node7" class="node"><title>Node105</title>
<g id="a_node7"><a xlink:href="classIrene3000.html#afed5c35e4b23963c157847ef27c11e9c" target="_top" xlink:title="Irene3000::config">
<polygon fill="white" stroke="black" points="163,-126 163,-145 255,-145 255,-126 163,-126"/>
<text text-anchor="middle" x="209" y="-133" font-family="Helvetica,sans-Serif" font-size="10.00">Irene3000::config</text>
</a>
</g>
</g>
<!-- Node99&#45;&gt;Node105 -->
<g id="edge6" class="edge"><title>Node99&#45;&gt;Node105</title>
<path fill="none" stroke="midnightblue" d="M89.8701,-163.911C110.72,-158.896 136.435,-152.712 158.543,-147.395"/>
<polygon fill="midnightblue" stroke="midnightblue" points="159.512,-150.761 168.417,-145.02 157.875,-143.956 159.512,-150.761"/>
</g>
<!-- Node107 -->
<g id="node9" class="node"><title>Node107</title>
<g id="a_node9"><a xlink:href="classCoolBoard.html#a583a874c09c07e70a6eb9229fc4beddb" target="_top" xlink:title="CoolBoard::config">
<polygon fill="white" stroke="black" points="161.5,-88 161.5,-107 256.5,-107 256.5,-88 161.5,-88"/>
<text text-anchor="middle" x="209" y="-95" font-family="Helvetica,sans-Serif" font-size="10.00">CoolBoard::config</text>
</a>
</g>
</g>
<!-- Node99&#45;&gt;Node107 -->
<g id="edge8" class="edge"><title>Node99&#45;&gt;Node107</title>
<path fill="none" stroke="midnightblue" d="M61.4632,-163.801C76.956,-151.161 105.886,-129.182 134,-116.5 139.634,-113.959 145.668,-111.713 151.77,-109.74"/>
<polygon fill="midnightblue" stroke="midnightblue" points="152.796,-113.086 161.368,-106.859 150.784,-106.382 152.796,-113.086"/>
</g>
<!-- Node109 -->
<g id="node11" class="node"><title>Node109</title>
<g id="a_node11"><a xlink:href="classCoolBoardSensors.html#a9a218895c5423375c33c08f2c56fb23a" target="_top" xlink:title="CoolBoardSensors::config">
<polygon fill="white" stroke="black" points="143.5,-50 143.5,-69 274.5,-69 274.5,-50 143.5,-50"/>
<text text-anchor="middle" x="209" y="-57" font-family="Helvetica,sans-Serif" font-size="10.00">CoolBoardSensors::config</text>
</a>
</g>
</g>
<!-- Node99&#45;&gt;Node109 -->
<g id="edge10" class="edge"><title>Node99&#45;&gt;Node109</title>
<path fill="none" stroke="midnightblue" d="M55.7974,-163.705C67.8098,-144.298 97.3792,-100.905 134,-78.5 137.564,-76.3195 141.371,-74.388 145.308,-72.6771"/>
<polygon fill="midnightblue" stroke="midnightblue" points="146.6,-75.9304 154.676,-69.0723 144.086,-69.3974 146.6,-75.9304"/>
</g>
<!-- Node110 -->
<g id="node12" class="node"><title>Node110</title>
<g id="a_node12"><a xlink:href="classCoolFileSystem.html#a32dad79ae80182a83e2e8f52286b7c7b" target="_top" xlink:title="CoolFileSystem::updateConfig\lFiles">
<polygon fill="white" stroke="black" points="134,-0.5 134,-30.5 284,-30.5 284,-0.5 134,-0.5"/>
<text text-anchor="start" x="142" y="-18.5" font-family="Helvetica,sans-Serif" font-size="10.00">CoolFileSystem::updateConfig</text>
<text text-anchor="middle" x="209" y="-7.5" font-family="Helvetica,sans-Serif" font-size="10.00">Files</text>
</a>
</g>
</g>
<!-- Node99&#45;&gt;Node110 -->
<g id="edge11" class="edge"><title>Node99&#45;&gt;Node110</title>
<path fill="none" stroke="midnightblue" d="M53.4344,-163.889C62.604,-139.58 90.0008,-75.1185 134,-40.5 136.298,-38.6919 138.734,-37.0111 141.268,-35.4489"/>
<polygon fill="midnightblue" stroke="midnightblue" points="143.097,-38.4381 150.206,-30.5819 139.75,-32.2905 143.097,-38.4381"/>
</g>
<!-- Node106 -->
<g id="node8" class="node"><title>Node106</title>
<g id="a_node8"><a xlink:href="classIrene3000.html#abcad62d1201a59f8dd3ba87048002728" target="_top" xlink:title="Irene3000::gainConvert">
<polygon fill="white" stroke="black" points="320,-126 320,-145 438,-145 438,-126 320,-126"/>
<text text-anchor="middle" x="379" y="-133" font-family="Helvetica,sans-Serif" font-size="10.00">Irene3000::gainConvert</text>
</a>
</g>
</g>
<!-- Node105&#45;&gt;Node106 -->
<g id="edge7" class="edge"><title>Node105&#45;&gt;Node106</title>
<path fill="none" stroke="midnightblue" d="M255.021,-135.5C271.833,-135.5 291.321,-135.5 309.758,-135.5"/>
<polygon fill="midnightblue" stroke="midnightblue" points="309.87,-139 319.87,-135.5 309.87,-132 309.87,-139"/>
</g>
<!-- Node108 -->
<g id="node10" class="node"><title>Node108</title>
<g id="a_node10"><a xlink:href="classCoolFileSystem.html#a6ba6f666ed4c530174f8569d2c636748" target="_top" xlink:title="CoolFileSystem::begin">
<polygon fill="white" stroke="black" points="321,-88 321,-107 437,-107 437,-88 321,-88"/>
<text text-anchor="middle" x="379" y="-95" font-family="Helvetica,sans-Serif" font-size="10.00">CoolFileSystem::begin</text>
</a>
</g>
</g>
<!-- Node107&#45;&gt;Node108 -->
<g id="edge9" class="edge"><title>Node107&#45;&gt;Node108</title>
<path fill="none" stroke="midnightblue" d="M256.797,-97.5C273.513,-97.5 292.692,-97.5 310.787,-97.5"/>
<polygon fill="midnightblue" stroke="midnightblue" points="310.997,-101 320.997,-97.5 310.996,-94.0001 310.997,-101"/>
</g>
</g>
</svg>
