<?xml version="1.0" encoding="UTF-8" standalone="no"?>
<!DOCTYPE svg PUBLIC "-//W3C//DTD SVG 1.1//EN"
 "http://www.w3.org/Graphics/SVG/1.1/DTD/svg11.dtd">
<!-- Generated by graphviz version 2.38.0 (20140413.2041)
 -->
<!-- Title: CoolTime::formatDigits Pages: 1 -->
<svg width="747pt" height="142pt"
 viewBox="0.00 0.00 747.00 142.00" xmlns="http://www.w3.org/2000/svg" xmlns:xlink="http://www.w3.org/1999/xlink">
<g id="graph0" class="graph" transform="scale(1 1) rotate(0) translate(4 138)">
<title>CoolTime::formatDigits</title>
<polygon fill="white" stroke="none" points="-4,4 -4,-138 743,-138 743,4 -4,4"/>
<!-- Node20 -->
<g id="node1" class="node"><title>Node20</title>
<polygon fill="#bfbfbf" stroke="black" points="0,-57.5 0,-76.5 118,-76.5 118,-57.5 0,-57.5"/>
<text text-anchor="middle" x="59" y="-64.5" font-family="Helvetica,sans-Serif" font-size="10.00">CoolTime::formatDigits</text>
</g>
<!-- Node21 -->
<g id="node2" class="node"><title>Node21</title>
<g id="a_node2"><a xlink:href="classCoolTime.html#a87c28260c1bc77091162cbcf1ee2e129" target="_top" xlink:title="CoolTime::config">
<polygon fill="white" stroke="black" points="169,-114.5 169,-133.5 260,-133.5 260,-114.5 169,-114.5"/>
<text text-anchor="middle" x="214.5" y="-121.5" font-family="Helvetica,sans-Serif" font-size="10.00">CoolTime::config</text>
</a>
</g>
</g>
<!-- Node20&#45;&gt;Node21 -->
<g id="edge1" class="edge"><title>Node20&#45;&gt;Node21</title>
<path fill="none" stroke="midnightblue" d="M95.1851,-80.0655C123.4,-90.5428 162.347,-105.005 187.724,-114.428"/>
<polygon fill="midnightblue" stroke="midnightblue" points="96.2854,-76.7406 85.6924,-76.5405 93.8486,-83.3028 96.2854,-76.7406"/>
</g>
<!-- Node25 -->
<g id="node6" class="node"><title>Node25</title>
<g id="a_node6"><a xlink:href="classCoolTime.html#ac4f32ee513c1328d984306645e8785a4" target="_top" xlink:title="CoolTime::getESDate">
<polygon fill="white" stroke="black" points="311,-38.5 311,-57.5 424,-57.5 424,-38.5 311,-38.5"/>
<text text-anchor="middle" x="367.5" y="-45.5" font-family="Helvetica,sans-Serif" font-size="10.00">CoolTime::getESDate</text>
</a>
</g>
</g>
<!-- Node20&#45;&gt;Node25 -->
<g id="edge5" class="edge"><title>Node20&#45;&gt;Node25</title>
<path fill="none" stroke="midnightblue" d="M128.306,-70.5547C170.656,-71.8785 226.119,-72.0215 275,-67 293.076,-65.1431 312.849,-61.2742 329.375,-57.5093"/>
<polygon fill="midnightblue" stroke="midnightblue" points="128.223,-67.0499 118.109,-70.2054 127.984,-74.0458 128.223,-67.0499"/>
</g>
<!-- Node28 -->
<g id="node9" class="node"><title>Node28</title>
<g id="a_node9"><a xlink:href="classCoolTime.html#ab81ea7fdaace111aa01cc1ec84c6d297" target="_top" xlink:title="CoolTime::setDateTime">
<polygon fill="white" stroke="black" points="460,-0.5 460,-19.5 581,-19.5 581,-0.5 460,-0.5"/>
<text text-anchor="middle" x="520.5" y="-7.5" font-family="Helvetica,sans-Serif" font-size="10.00">CoolTime::setDateTime</text>
</a>
</g>
</g>
<!-- Node20&#45;&gt;Node28 -->
<g id="edge12" class="edge"><title>Node20&#45;&gt;Node28</title>
<path fill="none" stroke="midnightblue" d="M87.6898,-52.96C106.01,-44.3931 130.838,-34.1322 154,-29 259.771,-5.56362 386.779,-4.91727 459.818,-7.09975"/>
<polygon fill="midnightblue" stroke="midnightblue" points="85.9914,-49.8928 78.4904,-57.3752 89.0202,-56.2036 85.9914,-49.8928"/>
</g>
<!-- Node29 -->
<g id="node10" class="node"><title>Node29</title>
<g id="a_node10"><a xlink:href="classCoolTime.html#a7a7501c5ca77dd1248bea704c44f986c" target="_top" xlink:title="CoolTime::getTimeDate">
<polygon fill="white" stroke="black" points="154,-38.5 154,-57.5 275,-57.5 275,-38.5 154,-38.5"/>
<text text-anchor="middle" x="214.5" y="-45.5" font-family="Helvetica,sans-Serif" font-size="10.00">CoolTime::getTimeDate</text>
</a>
</g>
</g>
<!-- Node20&#45;&gt;Node29 -->
<g id="edge10" class="edge"><title>Node20&#45;&gt;Node29</title>
<path fill="none" stroke="midnightblue" d="M128.038,-58.5784C136.642,-57.5134 145.394,-56.43 153.854,-55.3829"/>
<polygon fill="midnightblue" stroke="midnightblue" points="127.526,-55.1149 118.032,-59.8169 128.386,-62.0619 127.526,-55.1149"/>
</g>
<!-- Node22 -->
<g id="node3" class="node"><title>Node22</title>
<g id="a_node3"><a xlink:href="classCoolBoard.html#acba7c5aef7268b2c0044bdb54d3b9d76" target="_top" xlink:title="CoolBoard::begin">
<polygon fill="white" stroke="black" points="321.5,-114.5 321.5,-133.5 413.5,-133.5 413.5,-114.5 321.5,-114.5"/>
<text text-anchor="middle" x="367.5" y="-121.5" font-family="Helvetica,sans-Serif" font-size="10.00">CoolBoard::begin</text>
</a>
</g>
</g>
<!-- Node21&#45;&gt;Node22 -->
<g id="edge2" class="edge"><title>Node21&#45;&gt;Node22</title>
<path fill="none" stroke="midnightblue" d="M270.553,-124C287.214,-124 305.313,-124 321.255,-124"/>
<polygon fill="midnightblue" stroke="midnightblue" points="270.396,-120.5 260.396,-124 270.396,-127.5 270.396,-120.5"/>
</g>
<!-- Node23 -->
<g id="node4" class="node"><title>Node23</title>
<g id="a_node4"><a xlink:href="classCoolBoard.html#a8612756d3f73198cdde857a66f0fe690" target="_top" xlink:title="CoolBoard::update">
<polygon fill="white" stroke="black" points="471.5,-76.5 471.5,-95.5 569.5,-95.5 569.5,-76.5 471.5,-76.5"/>
<text text-anchor="middle" x="520.5" y="-83.5" font-family="Helvetica,sans-Serif" font-size="10.00">CoolBoard::update</text>
</a>
</g>
</g>
<!-- Node21&#45;&gt;Node23 -->
<g id="edge3" class="edge"><title>Node21&#45;&gt;Node23</title>
<path fill="none" stroke="midnightblue" d="M268.427,-112.437C282.235,-109.704 297.133,-107.006 311,-105 365.68,-97.0917 428.932,-91.8763 471.3,-88.9439"/>
<polygon fill="midnightblue" stroke="midnightblue" points="267.704,-109.012 258.595,-114.423 269.09,-115.873 267.704,-109.012"/>
</g>
<!-- Node24 -->
<g id="node5" class="node"><title>Node24</title>
<g id="a_node5"><a xlink:href="classCoolBoard.html#aa0bbc4bc605e35618d18e68795c61363" target="_top" xlink:title="CoolBoard::onLineMode">
<polygon fill="white" stroke="black" points="617.5,-76.5 617.5,-95.5 738.5,-95.5 738.5,-76.5 617.5,-76.5"/>
<text text-anchor="middle" x="678" y="-83.5" font-family="Helvetica,sans-Serif" font-size="10.00">CoolBoard::onLineMode</text>
</a>
</g>
</g>
<!-- Node23&#45;&gt;Node24 -->
<g id="edge4" class="edge"><title>Node23&#45;&gt;Node24</title>
<path fill="none" stroke="midnightblue" d="M579.956,-86C592.213,-86 605.154,-86 617.451,-86"/>
<polygon fill="midnightblue" stroke="midnightblue" points="579.849,-82.5001 569.849,-86 579.849,-89.5001 579.849,-82.5001"/>
</g>
<!-- Node26 -->
<g id="node7" class="node"><title>Node26</title>
<g id="a_node7"><a xlink:href="classCoolBoard.html#ae7358fb6e623cfc81b775f5f1734909b" target="_top" xlink:title="CoolBoard::userData">
<polygon fill="white" stroke="black" points="466.5,-38.5 466.5,-57.5 574.5,-57.5 574.5,-38.5 466.5,-38.5"/>
<text text-anchor="middle" x="520.5" y="-45.5" font-family="Helvetica,sans-Serif" font-size="10.00">CoolBoard::userData</text>
</a>
</g>
</g>
<!-- Node25&#45;&gt;Node26 -->
<g id="edge6" class="edge"><title>Node25&#45;&gt;Node26</title>
<path fill="none" stroke="midnightblue" d="M434.445,-48C445.142,-48 456.099,-48 466.439,-48"/>
<polygon fill="midnightblue" stroke="midnightblue" points="434.298,-44.5001 424.298,-48 434.298,-51.5001 434.298,-44.5001"/>
</g>
<!-- Node25&#45;&gt;Node28 -->
<g id="edge9" class="edge"><title>Node25&#45;&gt;Node28</title>
<path fill="none" stroke="midnightblue" d="M416.343,-35.96C437.439,-30.6512 461.877,-24.5012 481.67,-19.5201"/>
<polygon fill="midnightblue" stroke="midnightblue" points="415.447,-32.5763 406.604,-38.411 417.156,-39.3646 415.447,-32.5763"/>
</g>
<!-- Node26&#45;&gt;Node24 -->
<g id="edge8" class="edge"><title>Node26&#45;&gt;Node24</title>
<path fill="none" stroke="midnightblue" d="M570.474,-59.968C592.265,-65.2931 617.567,-71.4762 638.043,-76.4799"/>
<polygon fill="midnightblue" stroke="midnightblue" points="571.284,-56.563 560.739,-57.589 569.622,-63.3629 571.284,-56.563"/>
</g>
<!-- Node27 -->
<g id="node8" class="node"><title>Node27</title>
<g id="a_node8"><a xlink:href="classCoolBoard.html#ae6b5e1274d760462290192acea4adca8" target="_top" xlink:title="CoolBoard::offLineMode">
<polygon fill="white" stroke="black" points="617,-38.5 617,-57.5 739,-57.5 739,-38.5 617,-38.5"/>
<text text-anchor="middle" x="678" y="-45.5" font-family="Helvetica,sans-Serif" font-size="10.00">CoolBoard::offLineMode</text>
</a>
</g>
</g>
<!-- Node26&#45;&gt;Node27 -->
<g id="edge7" class="edge"><title>Node26&#45;&gt;Node27</title>
<path fill="none" stroke="midnightblue" d="M584.659,-48C595.322,-48 606.365,-48 616.947,-48"/>
<polygon fill="midnightblue" stroke="midnightblue" points="584.579,-44.5001 574.579,-48 584.579,-51.5001 584.579,-44.5001"/>
</g>
<!-- Node29&#45;&gt;Node25 -->
<g id="edge11" class="edge"><title>Node29&#45;&gt;Node25</title>
<path fill="none" stroke="midnightblue" d="M285.435,-48C293.904,-48 302.468,-48 310.695,-48"/>
<polygon fill="midnightblue" stroke="midnightblue" points="285.179,-44.5001 275.179,-48 285.179,-51.5001 285.179,-44.5001"/>
</g>
</g>
</svg>
