<?xml version="1.0" encoding="UTF-8" standalone="no"?>
<!DOCTYPE svg PUBLIC "-//W3C//DTD SVG 1.1//EN"
 "http://www.w3.org/Graphics/SVG/1.1/DTD/svg11.dtd">
<!-- Generated by graphviz version 2.38.0 (20140413.2041)
 -->
<!-- Title: CoolBoardLed::fadeOut Pages: 1 -->
<svg width="601pt" height="218pt"
 viewBox="0.00 0.00 601.00 218.00" xmlns="http://www.w3.org/2000/svg" xmlns:xlink="http://www.w3.org/1999/xlink">
<g id="graph0" class="graph" transform="scale(1 1) rotate(0) translate(4 214)">
<title>CoolBoardLed::fadeOut</title>
<polygon fill="white" stroke="none" points="-4,4 -4,-214 597,-214 597,4 -4,4"/>
<!-- Node34 -->
<g id="node1" class="node"><title>Node34</title>
<polygon fill="#bfbfbf" stroke="black" points="0,-95.5 0,-114.5 119,-114.5 119,-95.5 0,-95.5"/>
<text text-anchor="middle" x="59.5" y="-102.5" font-family="Helvetica,sans-Serif" font-size="10.00">CoolBoardLed::fadeOut</text>
</g>
<!-- Node35 -->
<g id="node2" class="node"><title>Node35</title>
<g id="a_node2"><a xlink:href="classCoolBoard.html#acba7c5aef7268b2c0044bdb54d3b9d76" target="_top" xlink:title="CoolBoard::begin">
<polygon fill="white" stroke="black" points="170.5,-190.5 170.5,-209.5 262.5,-209.5 262.5,-190.5 170.5,-190.5"/>
<text text-anchor="middle" x="216.5" y="-197.5" font-family="Helvetica,sans-Serif" font-size="10.00">CoolBoard::begin</text>
</a>
</g>
</g>
<!-- Node34&#45;&gt;Node35 -->
<g id="edge1" class="edge"><title>Node34&#45;&gt;Node35</title>
<path fill="none" stroke="midnightblue" d="M77.1453,-121.661C95.0063,-138.707 124.889,-164.908 155,-181 161.991,-184.736 169.835,-187.874 177.5,-190.454"/>
<polygon fill="midnightblue" stroke="midnightblue" points="79.4358,-119.007 69.8272,-114.543 74.555,-124.024 79.4358,-119.007"/>
</g>
<!-- Node36 -->
<g id="node3" class="node"><title>Node36</title>
<g id="a_node3"><a xlink:href="classCoolBoard.html#a583a874c09c07e70a6eb9229fc4beddb" target="_top" xlink:title="CoolBoard::config">
<polygon fill="white" stroke="black" points="169,-152.5 169,-171.5 264,-171.5 264,-152.5 169,-152.5"/>
<text text-anchor="middle" x="216.5" y="-159.5" font-family="Helvetica,sans-Serif" font-size="10.00">CoolBoard::config</text>
</a>
</g>
</g>
<!-- Node34&#45;&gt;Node36 -->
<g id="edge2" class="edge"><title>Node34&#45;&gt;Node36</title>
<path fill="none" stroke="midnightblue" d="M96.0289,-118.065C124.52,-128.543 163.847,-143.005 189.472,-152.428"/>
<polygon fill="midnightblue" stroke="midnightblue" points="97.037,-114.707 86.4435,-114.541 94.621,-121.277 97.037,-114.707"/>
</g>
<!-- Node37 -->
<g id="node4" class="node"><title>Node37</title>
<g id="a_node4"><a xlink:href="classCoolBoard.html#a8612756d3f73198cdde857a66f0fe690" target="_top" xlink:title="CoolBoard::update">
<polygon fill="white" stroke="black" points="326,-114.5 326,-133.5 424,-133.5 424,-114.5 326,-114.5"/>
<text text-anchor="middle" x="375" y="-121.5" font-family="Helvetica,sans-Serif" font-size="10.00">CoolBoard::update</text>
</a>
</g>
</g>
<!-- Node34&#45;&gt;Node37 -->
<g id="edge10" class="edge"><title>Node34&#45;&gt;Node37</title>
<path fill="none" stroke="midnightblue" d="M129.172,-109.162C188.727,-112.771 273.398,-117.903 325.952,-121.088"/>
<polygon fill="midnightblue" stroke="midnightblue" points="129.293,-105.663 119.099,-108.551 128.869,-112.65 129.293,-105.663"/>
</g>
<!-- Node38 -->
<g id="node5" class="node"><title>Node38</title>
<g id="a_node5"><a xlink:href="classCoolBoard.html#aa0bbc4bc605e35618d18e68795c61363" target="_top" xlink:title="CoolBoard::onLineMode">
<polygon fill="white" stroke="black" points="472,-76.5 472,-95.5 593,-95.5 593,-76.5 472,-76.5"/>
<text text-anchor="middle" x="532.5" y="-83.5" font-family="Helvetica,sans-Serif" font-size="10.00">CoolBoard::onLineMode</text>
</a>
</g>
</g>
<!-- Node34&#45;&gt;Node38 -->
<g id="edge6" class="edge"><title>Node34&#45;&gt;Node38</title>
<path fill="none" stroke="midnightblue" d="M129.282,-102.225C221.625,-98.5003 384.171,-91.9432 471.688,-88.4128"/>
<polygon fill="midnightblue" stroke="midnightblue" points="129.051,-98.7317 119.2,-102.632 129.333,-105.726 129.051,-98.7317"/>
</g>
<!-- Node39 -->
<g id="node6" class="node"><title>Node39</title>
<g id="a_node6"><a xlink:href="classCoolBoard.html#ae6b5e1274d760462290192acea4adca8" target="_top" xlink:title="CoolBoard::offLineMode">
<polygon fill="white" stroke="black" points="314,-38.5 314,-57.5 436,-57.5 436,-38.5 314,-38.5"/>
<text text-anchor="middle" x="375" y="-45.5" font-family="Helvetica,sans-Serif" font-size="10.00">CoolBoard::offLineMode</text>
</a>
</g>
</g>
<!-- Node34&#45;&gt;Node39 -->
<g id="edge5" class="edge"><title>Node34&#45;&gt;Node39</title>
<path fill="none" stroke="midnightblue" d="M92.8215,-91.6659C110.832,-84.7589 133.835,-76.7899 155,-72 207.973,-60.0117 269.561,-53.9386 313.907,-50.9071"/>
<polygon fill="midnightblue" stroke="midnightblue" points="91.4071,-88.4609 83.3722,-95.3668 93.96,-94.9788 91.4071,-88.4609"/>
</g>
<!-- Node40 -->
<g id="node7" class="node"><title>Node40</title>
<g id="a_node7"><a xlink:href="classCoolBoard.html#ad03abdce2e65f520bbf2cff0f2d083cf" target="_top" xlink:title="CoolBoard::readSensors">
<polygon fill="white" stroke="black" points="155,-0.5 155,-19.5 278,-19.5 278,-0.5 155,-0.5"/>
<text text-anchor="middle" x="216.5" y="-7.5" font-family="Helvetica,sans-Serif" font-size="10.00">CoolBoard::readSensors</text>
</a>
</g>
</g>
<!-- Node34&#45;&gt;Node40 -->
<g id="edge7" class="edge"><title>Node34&#45;&gt;Node40</title>
<path fill="none" stroke="midnightblue" d="M78.7679,-88.9277C97.0918,-73.3909 126.594,-49.9262 155,-34 164.955,-28.4186 176.472,-23.5056 186.769,-19.6023"/>
<polygon fill="midnightblue" stroke="midnightblue" points="76.4799,-86.279 71.1796,-95.4528 81.0439,-91.5867 76.4799,-86.279"/>
</g>
<!-- Node36&#45;&gt;Node37 -->
<g id="edge3" class="edge"><title>Node36&#45;&gt;Node37</title>
<path fill="none" stroke="midnightblue" d="M266.789,-150.032C288.72,-144.707 314.185,-138.524 334.792,-133.52"/>
<polygon fill="midnightblue" stroke="midnightblue" points="265.883,-146.65 256.992,-152.411 267.535,-153.453 265.883,-146.65"/>
</g>
<!-- Node37&#45;&gt;Node38 -->
<g id="edge4" class="edge"><title>Node37&#45;&gt;Node38</title>
<path fill="none" stroke="midnightblue" d="M424.974,-112.032C446.765,-106.707 472.067,-100.524 492.543,-95.5201"/>
<polygon fill="midnightblue" stroke="midnightblue" points="424.122,-108.637 415.239,-114.411 425.784,-115.437 424.122,-108.637"/>
</g>
<!-- Node40&#45;&gt;Node38 -->
<g id="edge9" class="edge"><title>Node40&#45;&gt;Node38</title>
<path fill="none" stroke="midnightblue" d="M288.501,-8.19114C332.036,-9.02003 388.367,-13.6144 436,-29 468.705,-39.5639 502.1,-62.9945 519.414,-76.2919"/>
<polygon fill="midnightblue" stroke="midnightblue" points="288.332,-4.6888 278.288,-8.06077 288.243,-11.6882 288.332,-4.6888"/>
</g>
<!-- Node40&#45;&gt;Node39 -->
<g id="edge8" class="edge"><title>Node40&#45;&gt;Node39</title>
<path fill="none" stroke="midnightblue" d="M266.789,-21.968C288.72,-27.2931 314.185,-33.4762 334.792,-38.4799"/>
<polygon fill="midnightblue" stroke="midnightblue" points="267.535,-18.5475 256.992,-19.589 265.883,-25.3498 267.535,-18.5475"/>
</g>
</g>
</svg>
