<?xml version="1.0" encoding="UTF-8" standalone="no"?>
<!DOCTYPE svg PUBLIC "-//W3C//DTD SVG 1.1//EN"
 "http://www.w3.org/Graphics/SVG/1.1/DTD/svg11.dtd">
<!-- Generated by graphviz version 2.38.0 (20140413.2041)
 -->
<!-- Title: CoolBoard::update Pages: 1 -->
<svg width="465pt" height="230pt"
 viewBox="0.00 0.00 465.00 229.50" xmlns="http://www.w3.org/2000/svg" xmlns:xlink="http://www.w3.org/1999/xlink">
<g id="graph0" class="graph" transform="scale(1 1) rotate(0) translate(4 225.5)">
<title>CoolBoard::update</title>
<polygon fill="white" stroke="none" points="-4,4 -4,-225.5 461,-225.5 461,4 -4,4"/>
<!-- Node162 -->
<g id="node1" class="node"><title>Node162</title>
<polygon fill="#bfbfbf" stroke="black" points="0,-107 0,-126 98,-126 98,-107 0,-107"/>
<text text-anchor="middle" x="49" y="-114" font-family="Helvetica,sans-Serif" font-size="10.00">CoolBoard::update</text>
</g>
<!-- Node163 -->
<g id="node2" class="node"><title>Node163</title>
<g id="a_node2"><a xlink:href="classCoolBoardLed.html#ab778f5e7bed0ab74e3906d82110493c3" target="_top" xlink:title="CoolBoardLed::fadeIn">
<polygon fill="white" stroke="black" points="153.5,-202 153.5,-221 264.5,-221 264.5,-202 153.5,-202"/>
<text text-anchor="middle" x="209" y="-209" font-family="Helvetica,sans-Serif" font-size="10.00">CoolBoardLed::fadeIn</text>
</a>
</g>
</g>
<!-- Node162&#45;&gt;Node163 -->
<g id="edge1" class="edge"><title>Node162&#45;&gt;Node163</title>
<path fill="none" stroke="midnightblue" d="M57.739,-126.032C71.399,-142.21 101.437,-174.989 134,-192.5 138.231,-194.775 142.746,-196.787 147.38,-198.564"/>
<polygon fill="midnightblue" stroke="midnightblue" points="146.412,-201.933 157.006,-201.892 148.699,-195.317 146.412,-201.933"/>
</g>
<!-- Node164 -->
<g id="node3" class="node"><title>Node164</title>
<g id="a_node3"><a xlink:href="classCoolBoardLed.html#a93d545679237e8cc858324367149775c" target="_top" xlink:title="CoolBoardLed::fadeOut">
<polygon fill="white" stroke="black" points="149.5,-164 149.5,-183 268.5,-183 268.5,-164 149.5,-164"/>
<text text-anchor="middle" x="209" y="-171" font-family="Helvetica,sans-Serif" font-size="10.00">CoolBoardLed::fadeOut</text>
</a>
</g>
</g>
<!-- Node162&#45;&gt;Node164 -->
<g id="edge2" class="edge"><title>Node162&#45;&gt;Node164</title>
<path fill="none" stroke="midnightblue" d="M68.6319,-126.06C85.405,-134.391 110.897,-146.377 134,-154.5 141.047,-156.978 148.576,-159.285 156.032,-161.377"/>
<polygon fill="midnightblue" stroke="midnightblue" points="155.18,-164.772 165.746,-163.998 157.004,-158.013 155.18,-164.772"/>
</g>
<!-- Node165 -->
<g id="node4" class="node"><title>Node165</title>
<g id="a_node4"><a xlink:href="classCoolMQTT.html#aa5eaae967b562b62cbcf2b8d81f6e5d5" target="_top" xlink:title="CoolMQTT::mqttLoop">
<polygon fill="white" stroke="black" points="153.5,-126 153.5,-145 264.5,-145 264.5,-126 153.5,-126"/>
<text text-anchor="middle" x="209" y="-133" font-family="Helvetica,sans-Serif" font-size="10.00">CoolMQTT::mqttLoop</text>
</a>
</g>
</g>
<!-- Node162&#45;&gt;Node165 -->
<g id="edge3" class="edge"><title>Node162&#45;&gt;Node165</title>
<path fill="none" stroke="midnightblue" d="M98.2637,-122.304C112.421,-124.006 128.139,-125.896 143.151,-127.702"/>
<polygon fill="midnightblue" stroke="midnightblue" points="143.058,-131.216 153.404,-128.935 143.894,-124.266 143.058,-131.216"/>
</g>
<!-- Node166 -->
<g id="node5" class="node"><title>Node166</title>
<g id="a_node5"><a xlink:href="classCoolMQTT.html#ace977b3e90ab14b1199fe5c4fb0a13ec" target="_top" xlink:title="CoolMQTT::publish">
<polygon fill="white" stroke="black" points="158.5,-88 158.5,-107 259.5,-107 259.5,-88 158.5,-88"/>
<text text-anchor="middle" x="209" y="-95" font-family="Helvetica,sans-Serif" font-size="10.00">CoolMQTT::publish</text>
</a>
</g>
</g>
<!-- Node162&#45;&gt;Node166 -->
<g id="edge4" class="edge"><title>Node162&#45;&gt;Node166</title>
<path fill="none" stroke="midnightblue" d="M98.2637,-110.696C114.046,-108.798 131.767,-106.667 148.29,-104.68"/>
<polygon fill="midnightblue" stroke="midnightblue" points="148.883,-108.134 158.394,-103.465 148.048,-101.184 148.883,-108.134"/>
</g>
<!-- Node167 -->
<g id="node6" class="node"><title>Node167</title>
<g id="a_node6"><a xlink:href="classCoolBoardLed.html#ad5f0de4c628cbfbf49896042831c64ad" target="_top" xlink:title="CoolBoardLed::strobe">
<polygon fill="white" stroke="black" points="153.5,-50 153.5,-69 264.5,-69 264.5,-50 153.5,-50"/>
<text text-anchor="middle" x="209" y="-57" font-family="Helvetica,sans-Serif" font-size="10.00">CoolBoardLed::strobe</text>
</a>
</g>
</g>
<!-- Node162&#45;&gt;Node167 -->
<g id="edge5" class="edge"><title>Node162&#45;&gt;Node167</title>
<path fill="none" stroke="midnightblue" d="M68.6319,-106.94C85.405,-98.6095 110.897,-86.6226 134,-78.5 141.047,-76.0223 148.576,-73.7152 156.032,-71.6235"/>
<polygon fill="midnightblue" stroke="midnightblue" points="157.004,-74.9865 165.746,-69.0016 155.18,-68.2284 157.004,-74.9865"/>
</g>
<!-- Node168 -->
<g id="node7" class="node"><title>Node168</title>
<g id="a_node7"><a xlink:href="classCoolFileSystem.html#adfa8e2e80641ae6f0cceabd348a9b841" target="_top" xlink:title="CoolFileSystem::updateConfig\lFiles">
<polygon fill="white" stroke="black" points="134,-0.5 134,-30.5 284,-30.5 284,-0.5 134,-0.5"/>
<text text-anchor="start" x="142" y="-18.5" font-family="Helvetica,sans-Serif" font-size="10.00">CoolFileSystem::updateConfig</text>
<text text-anchor="middle" x="209" y="-7.5" font-family="Helvetica,sans-Serif" font-size="10.00">Files</text>
</a>
</g>
</g>
<!-- Node162&#45;&gt;Node168 -->
<g id="edge6" class="edge"><title>Node162&#45;&gt;Node168</title>
<path fill="none" stroke="midnightblue" d="M58.1046,-106.969C72.0803,-91.085 102.281,-59.1112 134,-40.5 137.618,-38.3769 141.443,-36.4018 145.371,-34.57"/>
<polygon fill="midnightblue" stroke="midnightblue" points="146.882,-37.73 154.676,-30.5536 144.108,-31.3032 146.882,-37.73"/>
</g>
<!-- Node169 -->
<g id="node8" class="node"><title>Node169</title>
<g id="a_node8"><a xlink:href="classCoolFileSystem.html#a13f2958f5b87757c31fc53797a30d23a" target="_top" xlink:title="CoolFileSystem::fileUpdate">
<polygon fill="white" stroke="black" points="320,-6 320,-25 457,-25 457,-6 320,-6"/>
<text text-anchor="middle" x="388.5" y="-13" font-family="Helvetica,sans-Serif" font-size="10.00">CoolFileSystem::fileUpdate</text>
</a>
</g>
</g>
<!-- Node168&#45;&gt;Node169 -->
<g id="edge7" class="edge"><title>Node168&#45;&gt;Node169</title>
<path fill="none" stroke="midnightblue" d="M284.248,-15.5C292.622,-15.5 301.174,-15.5 309.594,-15.5"/>
<polygon fill="midnightblue" stroke="midnightblue" points="309.778,-19.0001 319.778,-15.5 309.778,-12.0001 309.778,-19.0001"/>
</g>
</g>
</svg>
