<?xml version="1.0" encoding="UTF-8" standalone="no"?>
<!DOCTYPE svg PUBLIC "-//W3C//DTD SVG 1.1//EN"
 "http://www.w3.org/Graphics/SVG/1.1/DTD/svg11.dtd">
<!-- Generated by graphviz version 2.38.0 (20140413.2041)
 -->
<!-- Title: CoolBoard::onLineMode Pages: 1 -->
<!--zoomable 819 -->
<svg id="main" version="1.1" xmlns="http://www.w3.org/2000/svg" xmlns:xlink="http://www.w3.org/1999/xlink" xml:space="preserve" onload="init(evt)">
<style type="text/css"><![CDATA[
.edge:hover path { stroke: red; }
.edge:hover polygon { stroke: red; fill: red; }
]]></style>
<script type="text/javascript"><![CDATA[
var edges = document.getElementsByTagName('g');
if (edges && edges.length) {
  for (var i=0;i<edges.length;i++) {
    if (edges[i].id.substr(0,4)=='edge') {
      edges[i].setAttribute('class','edge');
    }
  }
}
]]></script>
        <defs>
                <circle id="rim" cx="0" cy="0" r="7"/>
                <circle id="rim2" cx="0" cy="0" r="3.5"/>
                <g id="zoomPlus">
                        <use xlink:href="#rim" fill="#404040">
                                <set attributeName="fill" to="#808080" begin="zoomplus.mouseover" end="zoomplus.mouseout"/>
                        </use>
                        <path d="M-4,0h8M0,-4v8" fill="none" stroke="white" stroke-width="1.5" pointer-events="none"/>
                </g>
                <g id="zoomMin">
                        <use xlink:href="#rim" fill="#404040">
                                <set attributeName="fill" to="#808080" begin="zoomminus.mouseover" end="zoomminus.mouseout"/>
                        </use>
                        <path d="M-4,0h8" fill="none" stroke="white" stroke-width="1.5" pointer-events="none"/>
                </g>
                <g id="dirArrow">
                        <path fill="none" stroke="white" stroke-width="1.5" d="M0,-3.0v7 M-2.5,-0.5L0,-3.0L2.5,-0.5"/>
                </g>
               <g id="resetDef">
                       <use xlink:href="#rim2" fill="#404040">
                               <set attributeName="fill" to="#808080" begin="reset.mouseover" end="reset.mouseout"/>
                       </use>
               </g>
        </defs>

<script type="text/javascript">
var viewWidth = 851;
var viewHeight = 819;
var sectionId = 'dynsection-8';
</script>
<script xlink:href="svgpan.js"/>
<svg id="graph" class="graph">
<g id="viewport">
<title>CoolBoard::onLineMode</title>
<polygon fill="white" stroke="none" points="-4,4 -4,-815 847,-815 847,4 -4,4"/>
<!-- Node85 -->
<g id="node1" class="node"><title>Node85</title>
<polygon fill="#bfbfbf" stroke="black" points="0,-532.5 0,-551.5 121,-551.5 121,-532.5 0,-532.5"/>
<text text-anchor="middle" x="60.5" y="-539.5" font-family="Helvetica,sans-Serif" font-size="10.00">CoolBoard::onLineMode</text>
</g>
<!-- Node86 -->
<g id="node2" class="node"><title>Node86</title>
<g id="a_node2"><a xlink:href="classJetpack.html#a86d2e83436ef4b85f4c3a6e85ac785b0" target="_top" xlink:title="Jetpack::doAction">
<polygon fill="white" stroke="black" points="184,-772.5 184,-791.5 279,-791.5 279,-772.5 184,-772.5"/>
<text text-anchor="middle" x="231.5" y="-779.5" font-family="Helvetica,sans-Serif" font-size="10.00">Jetpack::doAction</text>
</a>
</g>
</g>
<!-- Node85&#45;&gt;Node86 -->
<g id="edge1" class="edge"><title>Node85&#45;&gt;Node86</title>
<path fill="none" stroke="midnightblue" d="M63.7131,-551.704C71.3499,-583.244 99.3528,-684.267 157,-744 166.937,-754.296 180.268,-762.333 192.849,-768.31"/>
<polygon fill="midnightblue" stroke="midnightblue" points="191.694,-771.626 202.254,-772.482 194.532,-765.228 191.694,-771.626"/>
</g>
<!-- Node88 -->
<g id="node4" class="node"><title>Node88</title>
<g id="a_node4"><a xlink:href="classCoolBoard.html#aaa24480b273fc095a1356a589c333781" target="_top" xlink:title="CoolBoard::getLogInterval">
<polygon fill="white" stroke="black" points="166.5,-715.5 166.5,-734.5 296.5,-734.5 296.5,-715.5 166.5,-715.5"/>
<text text-anchor="middle" x="231.5" y="-722.5" font-family="Helvetica,sans-Serif" font-size="10.00">CoolBoard::getLogInterval</text>
</a>
</g>
</g>
<!-- Node85&#45;&gt;Node88 -->
<g id="edge3" class="edge"><title>Node85&#45;&gt;Node88</title>
<path fill="none" stroke="midnightblue" d="M64.178,-551.53C72.6403,-579.832 101.582,-664.026 157,-706 159.494,-707.889 162.157,-709.59 164.936,-711.124"/>
<polygon fill="midnightblue" stroke="midnightblue" points="163.608,-714.367 174.145,-715.47 166.596,-708.037 163.608,-714.367"/>
</g>
<!-- Node89 -->
<g id="node5" class="node"><title>Node89</title>
<g id="a_node5"><a xlink:href="classCoolFileSystem.html#a5c58bca3735c0ed3efb268d70ef998ef" target="_top" xlink:title="CoolFileSystem::getSensor\lSavedData">
<polygon fill="white" stroke="black" points="163,-666 163,-696 300,-696 300,-666 163,-666"/>
<text text-anchor="start" x="171" y="-684" font-family="Helvetica,sans-Serif" font-size="10.00">CoolFileSystem::getSensor</text>
<text text-anchor="middle" x="231.5" y="-673" font-family="Helvetica,sans-Serif" font-size="10.00">SavedData</text>
</a>
</g>
</g>
<!-- Node85&#45;&gt;Node89 -->
<g id="edge4" class="edge"><title>Node85&#45;&gt;Node89</title>
<path fill="none" stroke="midnightblue" d="M67.0949,-551.789C80.0745,-573.651 114.401,-626.815 157,-656 159.867,-657.964 162.901,-659.786 166.041,-661.475"/>
<polygon fill="midnightblue" stroke="midnightblue" points="164.592,-664.662 175.116,-665.888 167.654,-658.367 164.592,-664.662"/>
</g>
<!-- Node90 -->
<g id="node6" class="node"><title>Node90</title>
<g id="a_node6"><a xlink:href="classCoolFileSystem.html#a5a7eaeea7a9fbf8aaef651d862fa3b5b" target="_top" xlink:title="CoolFileSystem::isDataSaved">
<polygon fill="white" stroke="black" points="157,-627.5 157,-646.5 306,-646.5 306,-627.5 157,-627.5"/>
<text text-anchor="middle" x="231.5" y="-634.5" font-family="Helvetica,sans-Serif" font-size="10.00">CoolFileSystem::isDataSaved</text>
</a>
</g>
</g>
<!-- Node85&#45;&gt;Node90 -->
<g id="edge5" class="edge"><title>Node85&#45;&gt;Node90</title>
<path fill="none" stroke="midnightblue" d="M71.9013,-551.544C88.6729,-566.495 123.237,-595.532 157,-613 165.318,-617.303 174.561,-621.044 183.607,-624.208"/>
<polygon fill="midnightblue" stroke="midnightblue" points="182.699,-627.594 193.292,-627.415 184.899,-620.949 182.699,-627.594"/>
</g>
<!-- Node91 -->
<g id="node7" class="node"><title>Node91</title>
<g id="a_node7"><a xlink:href="classCoolMQTT.html#aa5eaae967b562b62cbcf2b8d81f6e5d5" target="_top" xlink:title="CoolMQTT::mqttLoop">
<polygon fill="white" stroke="black" points="361.5,-753.5 361.5,-772.5 472.5,-772.5 472.5,-753.5 361.5,-753.5"/>
<text text-anchor="middle" x="417" y="-760.5" font-family="Helvetica,sans-Serif" font-size="10.00">CoolMQTT::mqttLoop</text>
</a>
</g>
</g>
<!-- Node85&#45;&gt;Node91 -->
<g id="edge6" class="edge"><title>Node85&#45;&gt;Node91</title>
<path fill="none" stroke="midnightblue" d="M82.4146,-551.564C101.548,-560.066 130.782,-572.441 157,-581 221.864,-602.176 256.917,-570.601 306,-618 347.895,-658.458 300.266,-703.377 342,-744 344.963,-746.884 348.301,-749.347 351.88,-751.45"/>
<polygon fill="midnightblue" stroke="midnightblue" points="350.668,-754.752 361.193,-755.966 353.723,-748.453 350.668,-754.752"/>
</g>
<!-- Node92 -->
<g id="node8" class="node"><title>Node92</title>
<g id="a_node8"><a xlink:href="classCoolMQTT.html#ace977b3e90ab14b1199fe5c4fb0a13ec" target="_top" xlink:title="CoolMQTT::publish">
<polygon fill="white" stroke="black" points="366.5,-715.5 366.5,-734.5 467.5,-734.5 467.5,-715.5 366.5,-715.5"/>
<text text-anchor="middle" x="417" y="-722.5" font-family="Helvetica,sans-Serif" font-size="10.00">CoolMQTT::publish</text>
</a>
</g>
</g>
<!-- Node85&#45;&gt;Node92 -->
<g id="edge7" class="edge"><title>Node85&#45;&gt;Node92</title>
<path fill="none" stroke="midnightblue" d="M121.007,-545.383C184.416,-550.187 279.292,-561.202 306,-585 347.89,-622.326 301.582,-667.084 342,-706 346.285,-710.126 351.339,-713.389 356.762,-715.965"/>
<polygon fill="midnightblue" stroke="midnightblue" points="355.579,-719.261 366.165,-719.684 358.153,-712.751 355.579,-719.261"/>
</g>
<!-- Node93 -->
<g id="node9" class="node"><title>Node93</title>
<g id="a_node9"><a xlink:href="classCoolMQTT.html#ae3c18f6ae9723746d32765f1c8f176ca" target="_top" xlink:title="CoolMQTT::read">
<polygon fill="white" stroke="black" points="187,-475.5 187,-494.5 276,-494.5 276,-475.5 187,-475.5"/>
<text text-anchor="middle" x="231.5" y="-482.5" font-family="Helvetica,sans-Serif" font-size="10.00">CoolMQTT::read</text>
</a>
</g>
</g>
<!-- Node85&#45;&gt;Node93 -->
<g id="edge8" class="edge"><title>Node85&#45;&gt;Node93</title>
<path fill="none" stroke="midnightblue" d="M83.2128,-532.452C102.385,-524.242 131.218,-512.425 157,-504 164.399,-501.582 172.297,-499.269 180.068,-497.14"/>
<polygon fill="midnightblue" stroke="midnightblue" points="181.036,-500.504 189.799,-494.549 179.235,-493.74 181.036,-500.504"/>
</g>
<!-- Node94 -->
<g id="node10" class="node"><title>Node94</title>
<g id="a_node10"><a xlink:href="classCoolBoard.html#ad03abdce2e65f520bbf2cff0f2d083cf" target="_top" xlink:title="CoolBoard::readSensors">
<polygon fill="white" stroke="black" points="170,-285.5 170,-304.5 293,-304.5 293,-285.5 170,-285.5"/>
<text text-anchor="middle" x="231.5" y="-292.5" font-family="Helvetica,sans-Serif" font-size="10.00">CoolBoard::readSensors</text>
</a>
</g>
</g>
<!-- Node85&#45;&gt;Node94 -->
<g id="edge9" class="edge"><title>Node85&#45;&gt;Node94</title>
<path fill="none" stroke="midnightblue" d="M68.125,-532.317C93.5229,-495.197 184.916,-361.623 218.235,-312.925"/>
<polygon fill="midnightblue" stroke="midnightblue" points="221.162,-314.845 223.921,-304.616 215.385,-310.892 221.162,-314.845"/>
</g>
<!-- Node105 -->
<g id="node21" class="node"><title>Node105</title>
<g id="a_node21"><a xlink:href="classCoolBoard.html#a5d0c8ff93b615efd676be432de9f164a" target="_top" xlink:title="CoolBoard::sleep">
<polygon fill="white" stroke="black" points="185.5,-247.5 185.5,-266.5 277.5,-266.5 277.5,-247.5 185.5,-247.5"/>
<text text-anchor="middle" x="231.5" y="-254.5" font-family="Helvetica,sans-Serif" font-size="10.00">CoolBoard::sleep</text>
</a>
</g>
</g>
<!-- Node85&#45;&gt;Node105 -->
<g id="edge22" class="edge"><title>Node85&#45;&gt;Node105</title>
<path fill="none" stroke="midnightblue" d="M61.8889,-532.28C63.9817,-493.564 77.0698,-348.915 157,-276 162.422,-271.054 168.964,-267.36 175.88,-264.608"/>
<polygon fill="midnightblue" stroke="midnightblue" points="177.095,-267.893 185.475,-261.411 174.882,-261.252 177.095,-267.893"/>
</g>
<!-- Node106 -->
<g id="node22" class="node"><title>Node106</title>
<g id="a_node22"><a xlink:href="classCoolTime.html#aae601f795452cfa48d9fb337aed483a8" target="_top" xlink:title="CoolTime::update">
<polygon fill="white" stroke="black" points="184.5,-133.5 184.5,-152.5 278.5,-152.5 278.5,-133.5 184.5,-133.5"/>
<text text-anchor="middle" x="231.5" y="-140.5" font-family="Helvetica,sans-Serif" font-size="10.00">CoolTime::update</text>
</a>
</g>
</g>
<!-- Node85&#45;&gt;Node106 -->
<g id="edge23" class="edge"><title>Node85&#45;&gt;Node106</title>
<path fill="none" stroke="midnightblue" d="M63.2415,-532.321C70.4844,-493.519 100.516,-346.117 157,-238 172.575,-208.188 197.702,-178.23 214.161,-160.144"/>
<polygon fill="midnightblue" stroke="midnightblue" points="216.817,-162.427 221.048,-152.713 211.683,-157.669 216.817,-162.427"/>
</g>
<!-- Node112 -->
<g id="node28" class="node"><title>Node112</title>
<g id="a_node28"><a xlink:href="classCoolBoard.html#a8612756d3f73198cdde857a66f0fe690" target="_top" xlink:title="CoolBoard::update">
<polygon fill="white" stroke="black" points="182.5,-513.5 182.5,-532.5 280.5,-532.5 280.5,-513.5 182.5,-513.5"/>
<text text-anchor="middle" x="231.5" y="-520.5" font-family="Helvetica,sans-Serif" font-size="10.00">CoolBoard::update</text>
</a>
</g>
</g>
<!-- Node85&#45;&gt;Node112 -->
<g id="edge29" class="edge"><title>Node85&#45;&gt;Node112</title>
<path fill="none" stroke="midnightblue" d="M121.083,-535.301C137.688,-533.434 155.703,-531.409 172.232,-529.551"/>
<polygon fill="midnightblue" stroke="midnightblue" points="172.759,-533.014 182.305,-528.418 171.977,-526.058 172.759,-533.014"/>
</g>
<!-- Node126 -->
<g id="node42" class="node"><title>Node126</title>
<g id="a_node42"><a xlink:href="classCoolBoard.html#ae7358fb6e623cfc81b775f5f1734909b" target="_top" xlink:title="CoolBoard::userData">
<polygon fill="white" stroke="black" points="177.5,-38.5 177.5,-57.5 285.5,-57.5 285.5,-38.5 177.5,-38.5"/>
<text text-anchor="middle" x="231.5" y="-45.5" font-family="Helvetica,sans-Serif" font-size="10.00">CoolBoard::userData</text>
</a>
</g>
</g>
<!-- Node85&#45;&gt;Node126 -->
<g id="edge45" class="edge"><title>Node85&#45;&gt;Node126</title>
<path fill="none" stroke="midnightblue" d="M61.8246,-532.218C63.7839,-484.438 76.8405,-271.908 157,-124 170.034,-99.9509 192.8,-78.1469 209.55,-64.1237"/>
<polygon fill="midnightblue" stroke="midnightblue" points="212.118,-66.5476 217.678,-57.529 207.708,-61.1117 212.118,-66.5476"/>
</g>
<!-- Node87 -->
<g id="node3" class="node"><title>Node87</title>
<g id="a_node3"><a xlink:href="classJetpack.html#a338f1af8cbc6504ac69b47c7328569b5" target="_top" xlink:title="Jetpack::write">
<polygon fill="white" stroke="black" points="378,-791.5 378,-810.5 456,-810.5 456,-791.5 378,-791.5"/>
<text text-anchor="middle" x="417" y="-798.5" font-family="Helvetica,sans-Serif" font-size="10.00">Jetpack::write</text>
</a>
</g>
</g>
<!-- Node86&#45;&gt;Node87 -->
<g id="edge2" class="edge"><title>Node86&#45;&gt;Node87</title>
<path fill="none" stroke="midnightblue" d="M279.28,-786.844C306.396,-789.651 340.476,-793.18 367.827,-796.012"/>
<polygon fill="midnightblue" stroke="midnightblue" points="367.644,-799.512 377.951,-797.06 368.365,-792.549 367.644,-799.512"/>
</g>
<!-- Node95 -->
<g id="node11" class="node"><title>Node95</title>
<g id="a_node11"><a xlink:href="classCoolBoardSensors.html#a91badb2539d91fda8679f2a597874c48" target="_top" xlink:title="CoolBoardSensors::read">
<polygon fill="white" stroke="black" points="355.5,-285.5 355.5,-304.5 478.5,-304.5 478.5,-285.5 355.5,-285.5"/>
<text text-anchor="middle" x="417" y="-292.5" font-family="Helvetica,sans-Serif" font-size="10.00">CoolBoardSensors::read</text>
</a>
</g>
</g>
<!-- Node94&#45;&gt;Node95 -->
<g id="edge10" class="edge"><title>Node94&#45;&gt;Node95</title>
<path fill="none" stroke="midnightblue" d="M293.093,-295C309.848,-295 328.177,-295 345.445,-295"/>
<polygon fill="midnightblue" stroke="midnightblue" points="345.47,-298.5 355.47,-295 345.47,-291.5 345.47,-298.5"/>
</g>
<!-- Node99 -->
<g id="node15" class="node"><title>Node99</title>
<g id="a_node15"><a xlink:href="classExternalSensors.html#a53177b81eca3be89508b5511ddcd00fc" target="_top" xlink:title="ExternalSensors::read">
<polygon fill="white" stroke="black" points="360.5,-247.5 360.5,-266.5 473.5,-266.5 473.5,-247.5 360.5,-247.5"/>
<text text-anchor="middle" x="417" y="-254.5" font-family="Helvetica,sans-Serif" font-size="10.00">ExternalSensors::read</text>
</a>
</g>
</g>
<!-- Node94&#45;&gt;Node99 -->
<g id="edge14" class="edge"><title>Node94&#45;&gt;Node99</title>
<path fill="none" stroke="midnightblue" d="M278.805,-285.411C303.456,-280.306 333.963,-273.989 359.945,-268.608"/>
<polygon fill="midnightblue" stroke="midnightblue" points="360.946,-271.975 370.028,-266.52 359.526,-265.121 360.946,-271.975"/>
</g>
<!-- Node100 -->
<g id="node16" class="node"><title>Node100</title>
<g id="a_node16"><a xlink:href="classIrene3000.html#a852a170feea994ea1df01c6b245b5d9a" target="_top" xlink:title="Irene3000::read">
<polygon fill="white" stroke="black" points="375,-209.5 375,-228.5 459,-228.5 459,-209.5 375,-209.5"/>
<text text-anchor="middle" x="417" y="-216.5" font-family="Helvetica,sans-Serif" font-size="10.00">Irene3000::read</text>
</a>
</g>
</g>
<!-- Node94&#45;&gt;Node100 -->
<g id="edge15" class="edge"><title>Node94&#45;&gt;Node100</title>
<path fill="none" stroke="midnightblue" d="M284.573,-285.451C292.041,-282.981 299.415,-279.882 306,-276 326.041,-264.185 321.949,-249.799 342,-238 349.071,-233.839 357.044,-230.58 365.072,-228.03"/>
<polygon fill="midnightblue" stroke="midnightblue" points="366.17,-231.356 374.834,-225.257 364.258,-224.622 366.17,-231.356"/>
</g>
<!-- Node96 -->
<g id="node12" class="node"><title>Node96</title>
<g id="a_node12"><a xlink:href="classCoolBoardSensors.html#acad6a8418c66d36868caca23c844ecb6" target="_top" xlink:title="CoolBoardSensors::initReadI2C">
<polygon fill="white" stroke="black" points="530.5,-361.5 530.5,-380.5 686.5,-380.5 686.5,-361.5 530.5,-361.5"/>
<text text-anchor="middle" x="608.5" y="-368.5" font-family="Helvetica,sans-Serif" font-size="10.00">CoolBoardSensors::initReadI2C</text>
</a>
</g>
</g>
<!-- Node95&#45;&gt;Node96 -->
<g id="edge11" class="edge"><title>Node95&#45;&gt;Node96</title>
<path fill="none" stroke="midnightblue" d="M470.427,-304.514C477.945,-306.99 485.37,-310.098 492,-314 512.051,-325.799 507.851,-340.37 528,-352 531.908,-354.256 536.072,-356.244 540.367,-357.997"/>
<polygon fill="midnightblue" stroke="midnightblue" points="539.339,-361.347 549.933,-361.47 541.728,-354.768 539.339,-361.347"/>
</g>
<!-- Node97 -->
<g id="node13" class="node"><title>Node97</title>
<g id="a_node13"><a xlink:href="classCoolBoardSensors.html#a6944b6ea7bce8e2fce1b434acfd9d5f3" target="_top" xlink:title="CoolBoardSensors::readVBat">
<polygon fill="white" stroke="black" points="536,-323.5 536,-342.5 681,-342.5 681,-323.5 536,-323.5"/>
<text text-anchor="middle" x="608.5" y="-330.5" font-family="Helvetica,sans-Serif" font-size="10.00">CoolBoardSensors::readVBat</text>
</a>
</g>
</g>
<!-- Node95&#45;&gt;Node97 -->
<g id="edge12" class="edge"><title>Node95&#45;&gt;Node97</title>
<path fill="none" stroke="midnightblue" d="M465.819,-304.589C491.389,-309.716 523.059,-316.067 549.968,-321.463"/>
<polygon fill="midnightblue" stroke="midnightblue" points="549.532,-324.945 560.025,-323.48 550.908,-318.082 549.532,-324.945"/>
</g>
<!-- Node98 -->
<g id="node14" class="node"><title>Node98</title>
<g id="a_node14"><a xlink:href="classCoolBoardSensors.html#a8761bff50373c485f4465c8db47d0633" target="_top" xlink:title="CoolBoardSensors::readMoisture">
<polygon fill="white" stroke="black" points="528,-285.5 528,-304.5 689,-304.5 689,-285.5 528,-285.5"/>
<text text-anchor="middle" x="608.5" y="-292.5" font-family="Helvetica,sans-Serif" font-size="10.00">CoolBoardSensors::readMoisture</text>
</a>
</g>
</g>
<!-- Node95&#45;&gt;Node98 -->
<g id="edge13" class="edge"><title>Node95&#45;&gt;Node98</title>
<path fill="none" stroke="midnightblue" d="M478.741,-295C491.163,-295 504.485,-295 517.679,-295"/>
<polygon fill="midnightblue" stroke="midnightblue" points="517.727,-298.5 527.727,-295 517.727,-291.5 517.727,-298.5"/>
</g>
<!-- Node101 -->
<g id="node17" class="node"><title>Node101</title>
<g id="a_node17"><a xlink:href="classIrene3000.html#a94ad40f281d83ad1be20bf1edd6fe802" target="_top" xlink:title="Irene3000::readTemp">
<polygon fill="white" stroke="black" points="554,-247.5 554,-266.5 663,-266.5 663,-247.5 554,-247.5"/>
<text text-anchor="middle" x="608.5" y="-254.5" font-family="Helvetica,sans-Serif" font-size="10.00">Irene3000::readTemp</text>
</a>
</g>
</g>
<!-- Node100&#45;&gt;Node101 -->
<g id="edge16" class="edge"><title>Node100&#45;&gt;Node101</title>
<path fill="none" stroke="midnightblue" d="M459.119,-227.245C485.702,-232.576 520.683,-239.591 550.003,-245.47"/>
<polygon fill="midnightblue" stroke="midnightblue" points="549.622,-248.963 560.115,-247.498 550.998,-242.1 549.622,-248.963"/>
</g>
<!-- Node103 -->
<g id="node19" class="node"><title>Node103</title>
<g id="a_node19"><a xlink:href="classIrene3000.html#abf3db725fabb0634ec889b32068a5eec" target="_top" xlink:title="Irene3000::readPh">
<polygon fill="white" stroke="black" points="560.5,-209.5 560.5,-228.5 656.5,-228.5 656.5,-209.5 560.5,-209.5"/>
<text text-anchor="middle" x="608.5" y="-216.5" font-family="Helvetica,sans-Serif" font-size="10.00">Irene3000::readPh</text>
</a>
</g>
</g>
<!-- Node100&#45;&gt;Node103 -->
<g id="edge18" class="edge"><title>Node100&#45;&gt;Node103</title>
<path fill="none" stroke="midnightblue" d="M459.119,-219C485.799,-219 520.939,-219 550.325,-219"/>
<polygon fill="midnightblue" stroke="midnightblue" points="550.456,-222.5 560.456,-219 550.456,-215.5 550.456,-222.5"/>
</g>
<!-- Node104 -->
<g id="node20" class="node"><title>Node104</title>
<g id="a_node20"><a xlink:href="classIrene3000.html#ae73bd2ed14a199a7e83f4d6458476a7c" target="_top" xlink:title="Irene3000::readADSChannel2">
<polygon fill="white" stroke="black" points="535.5,-171.5 535.5,-190.5 681.5,-190.5 681.5,-171.5 535.5,-171.5"/>
<text text-anchor="middle" x="608.5" y="-178.5" font-family="Helvetica,sans-Serif" font-size="10.00">Irene3000::readADSChannel2</text>
</a>
</g>
</g>
<!-- Node100&#45;&gt;Node104 -->
<g id="edge20" class="edge"><title>Node100&#45;&gt;Node104</title>
<path fill="none" stroke="midnightblue" d="M459.119,-210.755C485.702,-205.424 520.683,-198.409 550.003,-192.53"/>
<polygon fill="midnightblue" stroke="midnightblue" points="550.998,-195.9 560.115,-190.502 549.622,-189.037 550.998,-195.9"/>
</g>
<!-- Node102 -->
<g id="node18" class="node"><title>Node102</title>
<g id="a_node18"><a xlink:href="classIrene3000.html#aff7c5da186b388e7272e63ff88a20c34" target="_top" xlink:title="Irene3000::setGain">
<polygon fill="white" stroke="black" points="734.5,-209.5 734.5,-228.5 833.5,-228.5 833.5,-209.5 734.5,-209.5"/>
<text text-anchor="middle" x="784" y="-216.5" font-family="Helvetica,sans-Serif" font-size="10.00">Irene3000::setGain</text>
</a>
</g>
</g>
<!-- Node101&#45;&gt;Node102 -->
<g id="edge17" class="edge"><title>Node101&#45;&gt;Node102</title>
<path fill="none" stroke="midnightblue" d="M653.281,-247.411C676.486,-242.329 705.178,-236.045 729.673,-230.68"/>
<polygon fill="midnightblue" stroke="midnightblue" points="730.514,-234.079 739.533,-228.52 729.016,-227.241 730.514,-234.079"/>
</g>
<!-- Node103&#45;&gt;Node102 -->
<g id="edge19" class="edge"><title>Node103&#45;&gt;Node102</title>
<path fill="none" stroke="midnightblue" d="M656.91,-219C677.697,-219 702.308,-219 724.245,-219"/>
<polygon fill="midnightblue" stroke="midnightblue" points="724.44,-222.5 734.44,-219 724.44,-215.5 724.44,-222.5"/>
</g>
<!-- Node104&#45;&gt;Node102 -->
<g id="edge21" class="edge"><title>Node104&#45;&gt;Node102</title>
<path fill="none" stroke="midnightblue" d="M653.281,-190.589C676.486,-195.671 705.178,-201.955 729.673,-207.32"/>
<polygon fill="midnightblue" stroke="midnightblue" points="729.016,-210.759 739.533,-209.48 730.514,-203.921 729.016,-210.759"/>
</g>
<!-- Node107 -->
<g id="node23" class="node"><title>Node107</title>
<g id="a_node23"><a xlink:href="classCoolTime.html#a5ae038a4498602b189f76a10bf02adf8" target="_top" xlink:title="CoolTime::isTimeSync">
<polygon fill="white" stroke="black" points="359,-152.5 359,-171.5 475,-171.5 475,-152.5 359,-152.5"/>
<text text-anchor="middle" x="417" y="-159.5" font-family="Helvetica,sans-Serif" font-size="10.00">CoolTime::isTimeSync</text>
</a>
</g>
</g>
<!-- Node106&#45;&gt;Node107 -->
<g id="edge24" class="edge"><title>Node106&#45;&gt;Node107</title>
<path fill="none" stroke="midnightblue" d="M278.805,-147.795C299.984,-149.987 325.486,-152.628 348.727,-155.034"/>
<polygon fill="midnightblue" stroke="midnightblue" points="348.567,-158.537 358.875,-156.085 349.288,-151.574 348.567,-158.537"/>
</g>
<!-- Node109 -->
<g id="node25" class="node"><title>Node109</title>
<g id="a_node25"><a xlink:href="classCoolTime.html#a41fbbbfd651c2079f54d4b2911e4c705" target="_top" xlink:title="CoolTime::getNtpTime">
<polygon fill="white" stroke="black" points="359,-114.5 359,-133.5 475,-133.5 475,-114.5 359,-114.5"/>
<text text-anchor="middle" x="417" y="-121.5" font-family="Helvetica,sans-Serif" font-size="10.00">CoolTime::getNtpTime</text>
</a>
</g>
</g>
<!-- Node106&#45;&gt;Node109 -->
<g id="edge26" class="edge"><title>Node106&#45;&gt;Node109</title>
<path fill="none" stroke="midnightblue" d="M278.805,-138.205C299.984,-136.013 325.486,-133.372 348.727,-130.966"/>
<polygon fill="midnightblue" stroke="midnightblue" points="349.288,-134.426 358.875,-129.915 348.567,-127.463 349.288,-134.426"/>
</g>
<!-- Node111 -->
<g id="node27" class="node"><title>Node111</title>
<g id="a_node27"><a xlink:href="classCoolTime.html#ae9658c9b377510d469e3b88edf33ee85" target="_top" xlink:title="CoolTime::saveTimeSync">
<polygon fill="white" stroke="black" points="352,-76.5 352,-95.5 482,-95.5 482,-76.5 352,-76.5"/>
<text text-anchor="middle" x="417" y="-83.5" font-family="Helvetica,sans-Serif" font-size="10.00">CoolTime::saveTimeSync</text>
</a>
</g>
</g>
<!-- Node106&#45;&gt;Node111 -->
<g id="edge28" class="edge"><title>Node106&#45;&gt;Node111</title>
<path fill="none" stroke="midnightblue" d="M257.969,-133.49C280.038,-125.412 312.907,-113.767 342,-105 349.855,-102.633 358.234,-100.301 366.425,-98.1244"/>
<polygon fill="midnightblue" stroke="midnightblue" points="367.483,-101.466 376.276,-95.5555 365.717,-94.6923 367.483,-101.466"/>
</g>
<!-- Node108 -->
<g id="node24" class="node"><title>Node108</title>
<g id="a_node24"><a xlink:href="classCoolTime.html#a5d17f707a9d337720493b2bce9d41c21" target="_top" xlink:title="CoolTime::getLastSyncTime">
<polygon fill="white" stroke="black" points="538,-133.5 538,-152.5 679,-152.5 679,-133.5 538,-133.5"/>
<text text-anchor="middle" x="608.5" y="-140.5" font-family="Helvetica,sans-Serif" font-size="10.00">CoolTime::getLastSyncTime</text>
</a>
</g>
</g>
<!-- Node107&#45;&gt;Node108 -->
<g id="edge25" class="edge"><title>Node107&#45;&gt;Node108</title>
<path fill="none" stroke="midnightblue" d="M475.113,-156.274C491.602,-154.62 509.907,-152.785 527.514,-151.02"/>
<polygon fill="midnightblue" stroke="midnightblue" points="528.181,-154.47 537.782,-149.99 527.482,-147.505 528.181,-154.47"/>
</g>
<!-- Node110 -->
<g id="node26" class="node"><title>Node110</title>
<g id="a_node26"><a xlink:href="classCoolTime.html#a236a38d120dc53bc67456d763838c5a1" target="_top" xlink:title="CoolTime::sendNTPpacket">
<polygon fill="white" stroke="black" points="541,-95.5 541,-114.5 676,-114.5 676,-95.5 541,-95.5"/>
<text text-anchor="middle" x="608.5" y="-102.5" font-family="Helvetica,sans-Serif" font-size="10.00">CoolTime::sendNTPpacket</text>
</a>
</g>
</g>
<!-- Node109&#45;&gt;Node110 -->
<g id="edge27" class="edge"><title>Node109&#45;&gt;Node110</title>
<path fill="none" stroke="midnightblue" d="M475.113,-118.274C492.584,-116.522 512.093,-114.566 530.651,-112.705"/>
<polygon fill="midnightblue" stroke="midnightblue" points="531.244,-116.163 540.845,-111.683 530.545,-109.198 531.244,-116.163"/>
</g>
<!-- Node112&#45;&gt;Node91 -->
<g id="edge44" class="edge"><title>Node112&#45;&gt;Node91</title>
<path fill="none" stroke="midnightblue" d="M249.268,-532.593C266.248,-543.203 291.948,-561.893 306,-585 343.647,-646.907 291.506,-692.037 342,-744 345.016,-747.103 348.465,-749.724 352.187,-751.936"/>
<polygon fill="midnightblue" stroke="midnightblue" points="350.774,-755.141 361.296,-756.385 353.847,-748.851 350.774,-755.141"/>
</g>
<!-- Node112&#45;&gt;Node92 -->
<g id="edge43" class="edge"><title>Node112&#45;&gt;Node92</title>
<path fill="none" stroke="midnightblue" d="M280.602,-530.867C290.103,-534.417 299.22,-539.558 306,-547 354.798,-600.559 291.506,-654.037 342,-706 346.204,-710.327 351.251,-713.716 356.707,-716.364"/>
<polygon fill="midnightblue" stroke="midnightblue" points="355.616,-719.697 366.201,-720.155 358.212,-713.196 355.616,-719.697"/>
</g>
<!-- Node113 -->
<g id="node29" class="node"><title>Node113</title>
<g id="a_node29"><a xlink:href="classCoolFileSystem.html#a32dad79ae80182a83e2e8f52286b7c7b" target="_top" xlink:title="CoolFileSystem::updateConfig\lFiles">
<polygon fill="white" stroke="black" points="342,-552 342,-582 492,-582 492,-552 342,-552"/>
<text text-anchor="start" x="350" y="-570" font-family="Helvetica,sans-Serif" font-size="10.00">CoolFileSystem::updateConfig</text>
<text text-anchor="middle" x="417" y="-559" font-family="Helvetica,sans-Serif" font-size="10.00">Files</text>
</a>
</g>
</g>
<!-- Node112&#45;&gt;Node113 -->
<g id="edge30" class="edge"><title>Node112&#45;&gt;Node113</title>
<path fill="none" stroke="midnightblue" d="M272.317,-532.547C293.069,-537.523 319.106,-543.767 343.296,-549.567"/>
<polygon fill="midnightblue" stroke="midnightblue" points="342.63,-553.006 353.171,-551.935 344.262,-546.199 342.63,-553.006"/>
</g>
<!-- Node114 -->
<g id="node30" class="node"><title>Node114</title>
<g id="a_node30"><a xlink:href="classCoolBoard.html#a583a874c09c07e70a6eb9229fc4beddb" target="_top" xlink:title="CoolBoard::config">
<polygon fill="white" stroke="black" points="369.5,-513.5 369.5,-532.5 464.5,-532.5 464.5,-513.5 369.5,-513.5"/>
<text text-anchor="middle" x="417" y="-520.5" font-family="Helvetica,sans-Serif" font-size="10.00">CoolBoard::config</text>
</a>
</g>
</g>
<!-- Node112&#45;&gt;Node114 -->
<g id="edge31" class="edge"><title>Node112&#45;&gt;Node114</title>
<path fill="none" stroke="midnightblue" d="M280.712,-523C304.791,-523 334.078,-523 359.237,-523"/>
<polygon fill="midnightblue" stroke="midnightblue" points="359.376,-526.5 369.376,-523 359.376,-519.5 359.376,-526.5"/>
</g>
<!-- Node116 -->
<g id="node32" class="node"><title>Node116</title>
<g id="a_node32"><a xlink:href="classCoolBoardSensors.html#a9a218895c5423375c33c08f2c56fb23a" target="_top" xlink:title="CoolBoardSensors::config">
<polygon fill="white" stroke="black" points="351.5,-475.5 351.5,-494.5 482.5,-494.5 482.5,-475.5 351.5,-475.5"/>
<text text-anchor="middle" x="417" y="-482.5" font-family="Helvetica,sans-Serif" font-size="10.00">CoolBoardSensors::config</text>
</a>
</g>
</g>
<!-- Node112&#45;&gt;Node116 -->
<g id="edge33" class="edge"><title>Node112&#45;&gt;Node116</title>
<path fill="none" stroke="midnightblue" d="M278.805,-513.411C303.456,-508.306 333.963,-501.989 359.945,-496.608"/>
<polygon fill="midnightblue" stroke="midnightblue" points="360.946,-499.975 370.028,-494.52 359.526,-493.121 360.946,-499.975"/>
</g>
<!-- Node117 -->
<g id="node33" class="node"><title>Node117</title>
<g id="a_node33"><a xlink:href="classCoolTime.html#a87c28260c1bc77091162cbcf1ee2e129" target="_top" xlink:title="CoolTime::config">
<polygon fill="white" stroke="black" points="371.5,-437.5 371.5,-456.5 462.5,-456.5 462.5,-437.5 371.5,-437.5"/>
<text text-anchor="middle" x="417" y="-444.5" font-family="Helvetica,sans-Serif" font-size="10.00">CoolTime::config</text>
</a>
</g>
</g>
<!-- Node112&#45;&gt;Node117 -->
<g id="edge34" class="edge"><title>Node112&#45;&gt;Node117</title>
<path fill="none" stroke="midnightblue" d="M280.706,-514.674C289.475,-512.026 298.279,-508.552 306,-504 326.041,-492.185 321.949,-477.799 342,-466 347.991,-462.475 354.63,-459.597 361.401,-457.248"/>
<polygon fill="midnightblue" stroke="midnightblue" points="362.834,-460.469 371.356,-454.173 360.768,-453.781 362.834,-460.469"/>
</g>
<!-- Node118 -->
<g id="node34" class="node"><title>Node118</title>
<g id="a_node34"><a xlink:href="classCoolBoardLed.html#a1b60e5e30bea96c49ed62ed1bf1ffc8b" target="_top" xlink:title="CoolBoardLed::config">
<polygon fill="white" stroke="black" points="362,-399.5 362,-418.5 472,-418.5 472,-399.5 362,-399.5"/>
<text text-anchor="middle" x="417" y="-406.5" font-family="Helvetica,sans-Serif" font-size="10.00">CoolBoardLed::config</text>
</a>
</g>
</g>
<!-- Node112&#45;&gt;Node118 -->
<g id="edge35" class="edge"><title>Node112&#45;&gt;Node118</title>
<path fill="none" stroke="midnightblue" d="M280.875,-516.914C289.921,-514.078 298.787,-509.962 306,-504 334.809,-480.189 313.171,-451.787 342,-428 345.28,-425.293 348.9,-422.967 352.722,-420.967"/>
<polygon fill="midnightblue" stroke="midnightblue" points="354.225,-424.129 361.944,-416.871 351.384,-417.732 354.225,-424.129"/>
</g>
<!-- Node119 -->
<g id="node35" class="node"><title>Node119</title>
<g id="a_node35"><a xlink:href="classCoolMQTT.html#a9b703de4f1358f0ee7a5e8c44979c648" target="_top" xlink:title="CoolMQTT::config">
<polygon fill="white" stroke="black" points="368.5,-361.5 368.5,-380.5 465.5,-380.5 465.5,-361.5 368.5,-361.5"/>
<text text-anchor="middle" x="417" y="-368.5" font-family="Helvetica,sans-Serif" font-size="10.00">CoolMQTT::config</text>
</a>
</g>
</g>
<!-- Node112&#45;&gt;Node119 -->
<g id="edge36" class="edge"><title>Node112&#45;&gt;Node119</title>
<path fill="none" stroke="midnightblue" d="M280.777,-517.904C290.043,-515.011 299.019,-510.621 306,-504 344.551,-467.436 303.419,-426.532 342,-390 346.74,-385.511 352.393,-382.046 358.433,-379.377"/>
<polygon fill="midnightblue" stroke="midnightblue" points="359.984,-382.537 368.166,-375.806 357.572,-375.965 359.984,-382.537"/>
</g>
<!-- Node120 -->
<g id="node36" class="node"><title>Node120</title>
<g id="a_node36"><a xlink:href="classJetpack.html#ab065ee83e244265a2223a22f3ee4a719" target="_top" xlink:title="Jetpack::config">
<polygon fill="white" stroke="black" points="375.5,-323.5 375.5,-342.5 458.5,-342.5 458.5,-323.5 375.5,-323.5"/>
<text text-anchor="middle" x="417" y="-330.5" font-family="Helvetica,sans-Serif" font-size="10.00">Jetpack::config</text>
</a>
</g>
</g>
<!-- Node112&#45;&gt;Node120 -->
<g id="edge37" class="edge"><title>Node112&#45;&gt;Node120</title>
<path fill="none" stroke="midnightblue" d="M280.776,-518.408C290.153,-515.493 299.174,-510.967 306,-504 354.587,-454.411 293.372,-401.549 342,-352 348.482,-345.396 356.926,-340.98 365.783,-338.05"/>
<polygon fill="midnightblue" stroke="midnightblue" points="366.745,-341.416 375.481,-335.421 364.914,-334.659 366.745,-341.416"/>
</g>
<!-- Node121 -->
<g id="node37" class="node"><title>Node121</title>
<g id="a_node37"><a xlink:href="classIrene3000.html#afed5c35e4b23963c157847ef27c11e9c" target="_top" xlink:title="Irene3000::config">
<polygon fill="white" stroke="black" points="371,-677.5 371,-696.5 463,-696.5 463,-677.5 371,-677.5"/>
<text text-anchor="middle" x="417" y="-684.5" font-family="Helvetica,sans-Serif" font-size="10.00">Irene3000::config</text>
</a>
</g>
</g>
<!-- Node112&#45;&gt;Node121 -->
<g id="edge38" class="edge"><title>Node112&#45;&gt;Node121</title>
<path fill="none" stroke="midnightblue" d="M280.617,-531.353C290.004,-534.876 299.07,-539.884 306,-547 345.146,-587.195 301.582,-629.084 342,-668 347.387,-673.186 353.989,-677.01 361.011,-679.819"/>
<polygon fill="midnightblue" stroke="midnightblue" points="360.179,-683.231 370.772,-683.055 362.381,-676.586 360.179,-683.231"/>
</g>
<!-- Node123 -->
<g id="node39" class="node"><title>Node123</title>
<g id="a_node39"><a xlink:href="classExternalSensors.html#a862a4bd11346b37270d0244c2adabe5a" target="_top" xlink:title="ExternalSensors::config">
<polygon fill="white" stroke="black" points="356.5,-639.5 356.5,-658.5 477.5,-658.5 477.5,-639.5 356.5,-639.5"/>
<text text-anchor="middle" x="417" y="-646.5" font-family="Helvetica,sans-Serif" font-size="10.00">ExternalSensors::config</text>
</a>
</g>
</g>
<!-- Node112&#45;&gt;Node123 -->
<g id="edge40" class="edge"><title>Node112&#45;&gt;Node123</title>
<path fill="none" stroke="midnightblue" d="M280.753,-532.288C289.913,-535.748 298.854,-540.493 306,-547 335.732,-574.071 311.414,-603.899 342,-630 343.986,-631.695 346.105,-633.242 348.323,-634.653"/>
<polygon fill="midnightblue" stroke="midnightblue" points="346.839,-637.828 357.309,-639.451 350.136,-631.653 346.839,-637.828"/>
</g>
<!-- Node124 -->
<g id="node40" class="node"><title>Node124</title>
<g id="a_node40"><a xlink:href="classCoolMQTT.html#ac9248808641ebf3054ed0620ea9d0100" target="_top" xlink:title="CoolMQTT::begin">
<polygon fill="white" stroke="black" points="370,-601.5 370,-620.5 464,-620.5 464,-601.5 370,-601.5"/>
<text text-anchor="middle" x="417" y="-608.5" font-family="Helvetica,sans-Serif" font-size="10.00">CoolMQTT::begin</text>
</a>
</g>
</g>
<!-- Node112&#45;&gt;Node124 -->
<g id="edge41" class="edge"><title>Node112&#45;&gt;Node124</title>
<path fill="none" stroke="midnightblue" d="M275.668,-532.503C286.159,-536.017 296.952,-540.732 306,-547 327.054,-561.585 320.488,-578.099 342,-592 347.614,-595.628 353.885,-598.563 360.336,-600.939"/>
<polygon fill="midnightblue" stroke="midnightblue" points="359.271,-604.273 369.863,-604.034 361.434,-597.615 359.271,-604.273"/>
</g>
<!-- Node115 -->
<g id="node31" class="node"><title>Node115</title>
<g id="a_node31"><a xlink:href="classCoolFileSystem.html#a6ba6f666ed4c530174f8569d2c636748" target="_top" xlink:title="CoolFileSystem::begin">
<polygon fill="white" stroke="black" points="550.5,-513.5 550.5,-532.5 666.5,-532.5 666.5,-513.5 550.5,-513.5"/>
<text text-anchor="middle" x="608.5" y="-520.5" font-family="Helvetica,sans-Serif" font-size="10.00">CoolFileSystem::begin</text>
</a>
</g>
</g>
<!-- Node114&#45;&gt;Node115 -->
<g id="edge32" class="edge"><title>Node114&#45;&gt;Node115</title>
<path fill="none" stroke="midnightblue" d="M464.843,-523C487.577,-523 515.304,-523 540.248,-523"/>
<polygon fill="midnightblue" stroke="midnightblue" points="540.379,-526.5 550.379,-523 540.379,-519.5 540.379,-526.5"/>
</g>
<!-- Node122 -->
<g id="node38" class="node"><title>Node122</title>
<g id="a_node38"><a xlink:href="classIrene3000.html#abcad62d1201a59f8dd3ba87048002728" target="_top" xlink:title="Irene3000::gainConvert">
<polygon fill="white" stroke="black" points="549.5,-677.5 549.5,-696.5 667.5,-696.5 667.5,-677.5 549.5,-677.5"/>
<text text-anchor="middle" x="608.5" y="-684.5" font-family="Helvetica,sans-Serif" font-size="10.00">Irene3000::gainConvert</text>
</a>
</g>
</g>
<!-- Node121&#45;&gt;Node122 -->
<g id="edge39" class="edge"><title>Node121&#45;&gt;Node122</title>
<path fill="none" stroke="midnightblue" d="M463.39,-687C486.006,-687 513.826,-687 538.973,-687"/>
<polygon fill="midnightblue" stroke="midnightblue" points="539.193,-690.5 549.193,-687 539.193,-683.5 539.193,-690.5"/>
</g>
<!-- Node125 -->
<g id="node41" class="node"><title>Node125</title>
<g id="a_node41"><a xlink:href="classCoolMQTT.html#a30d82ad665bfb603f46ecdbc290775df" target="_top" xlink:title="CoolMQTT::callback">
<polygon fill="white" stroke="black" points="555,-601.5 555,-620.5 662,-620.5 662,-601.5 555,-601.5"/>
<text text-anchor="middle" x="608.5" y="-608.5" font-family="Helvetica,sans-Serif" font-size="10.00">CoolMQTT::callback</text>
</a>
</g>
</g>
<!-- Node124&#45;&gt;Node125 -->
<g id="edge42" class="edge"><title>Node124&#45;&gt;Node125</title>
<path fill="none" stroke="midnightblue" d="M464.357,-611C488.54,-611 518.472,-611 544.704,-611"/>
<polygon fill="midnightblue" stroke="midnightblue" points="544.932,-614.5 554.932,-611 544.932,-607.5 544.932,-614.5"/>
</g>
<!-- Node127 -->
<g id="node43" class="node"><title>Node127</title>
<g id="a_node43"><a xlink:href="classCoolMQTT.html#a373cc92fca7760d886f02d8a6e5b3f63" target="_top" xlink:title="CoolMQTT::getUser">
<polygon fill="white" stroke="black" points="364.5,-0.5 364.5,-19.5 469.5,-19.5 469.5,-0.5 364.5,-0.5"/>
<text text-anchor="middle" x="417" y="-7.5" font-family="Helvetica,sans-Serif" font-size="10.00">CoolMQTT::getUser</text>
</a>
</g>
</g>
<!-- Node126&#45;&gt;Node127 -->
<g id="edge46" class="edge"><title>Node126&#45;&gt;Node127</title>
<path fill="none" stroke="midnightblue" d="M278.805,-38.411C303.456,-33.3061 333.963,-26.9887 359.945,-21.6082"/>
<polygon fill="midnightblue" stroke="midnightblue" points="360.946,-24.9752 370.028,-19.5201 359.526,-18.1207 360.946,-24.9752"/>
</g>
<!-- Node128 -->
<g id="node44" class="node"><title>Node128</title>
<g id="a_node44"><a xlink:href="classCoolTime.html#ac4f32ee513c1328d984306645e8785a4" target="_top" xlink:title="CoolTime::getESDate">
<polygon fill="white" stroke="black" points="360.5,-38.5 360.5,-57.5 473.5,-57.5 473.5,-38.5 360.5,-38.5"/>
<text text-anchor="middle" x="417" y="-45.5" font-family="Helvetica,sans-Serif" font-size="10.00">CoolTime::getESDate</text>
</a>
</g>
</g>
<!-- Node126&#45;&gt;Node128 -->
<g id="edge47" class="edge"><title>Node126&#45;&gt;Node128</title>
<path fill="none" stroke="midnightblue" d="M285.576,-48C305.77,-48 329.023,-48 350.252,-48"/>
<polygon fill="midnightblue" stroke="midnightblue" points="350.489,-51.5001 360.489,-48 350.489,-44.5001 350.489,-51.5001"/>
</g>
<!-- Node129 -->
<g id="node45" class="node"><title>Node129</title>
<g id="a_node45"><a xlink:href="classCoolTime.html#a7a7501c5ca77dd1248bea704c44f986c" target="_top" xlink:title="CoolTime::getTimeDate">
<polygon fill="white" stroke="black" points="548,-19.5 548,-38.5 669,-38.5 669,-19.5 548,-19.5"/>
<text text-anchor="middle" x="608.5" y="-26.5" font-family="Helvetica,sans-Serif" font-size="10.00">CoolTime::getTimeDate</text>
</a>
</g>
</g>
<!-- Node128&#45;&gt;Node129 -->
<g id="edge48" class="edge"><title>Node128&#45;&gt;Node129</title>
<path fill="none" stroke="midnightblue" d="M473.576,-42.4278C493.66,-40.414 516.595,-38.1145 537.742,-35.9942"/>
<polygon fill="midnightblue" stroke="midnightblue" points="538.358,-39.4501 547.958,-34.9699 537.659,-32.485 538.358,-39.4501"/>
</g>
<!-- Node130 -->
<g id="node46" class="node"><title>Node130</title>
<g id="a_node46"><a xlink:href="classCoolTime.html#acd537cd4210d7bde4e1f5c47d2ac0456" target="_top" xlink:title="CoolTime::formatDigits">
<polygon fill="white" stroke="black" points="725,-38.5 725,-57.5 843,-57.5 843,-38.5 725,-38.5"/>
<text text-anchor="middle" x="784" y="-45.5" font-family="Helvetica,sans-Serif" font-size="10.00">CoolTime::formatDigits</text>
</a>
</g>
</g>
<!-- Node128&#45;&gt;Node130 -->
<g id="edge50" class="edge"><title>Node128&#45;&gt;Node130</title>
<path fill="none" stroke="midnightblue" d="M473.833,-48C538.416,-48 644.76,-48 714.343,-48"/>
<polygon fill="midnightblue" stroke="midnightblue" points="714.758,-51.5001 724.758,-48 714.758,-44.5001 714.758,-51.5001"/>
</g>
<!-- Node129&#45;&gt;Node130 -->
<g id="edge49" class="edge"><title>Node129&#45;&gt;Node130</title>
<path fill="none" stroke="midnightblue" d="M669.209,-35.5387C683.863,-37.1435 699.661,-38.8736 714.686,-40.5189"/>
<polygon fill="midnightblue" stroke="midnightblue" points="714.619,-44.0324 724.941,-41.6419 715.381,-37.074 714.619,-44.0324"/>
</g>
</g>
</svg>
        <g id="navigator" transform="translate(0 0)" fill="#404254">
                <rect fill="#f2f5e9" fill-opacity="0.5" stroke="#606060" stroke-width=".5" x="0" y="0" width="60" height="60"/>
                <use id="zoomplus" xlink:href="#zoomPlus" x="17" y="9" onmousedown="handleZoom(evt,'in')"/>
                <use id="zoomminus" xlink:href="#zoomMin" x="42" y="9" onmousedown="handleZoom(evt,'out')"/>
                <use id="reset" xlink:href="#resetDef" x="30" y="36" onmousedown="handleReset()"/>
                <g id="arrowUp" xlink:href="#dirArrow" transform="translate(30 24)" onmousedown="handlePan(0,-1)">
                  <use xlink:href="#rim" fill="#404040">
                        <set attributeName="fill" to="#808080" begin="arrowUp.mouseover" end="arrowUp.mouseout"/>
                  </use>
                  <path fill="none" stroke="white" stroke-width="1.5" d="M0,-3.0v7 M-2.5,-0.5L0,-3.0L2.5,-0.5"/>
                </g>
                <g id="arrowRight" xlink:href="#dirArrow" transform="rotate(90) translate(36 -43)" onmousedown="handlePan(1,0)">
                  <use xlink:href="#rim" fill="#404040">
                        <set attributeName="fill" to="#808080" begin="arrowRight.mouseover" end="arrowRight.mouseout"/>
                  </use>
                  <path fill="none" stroke="white" stroke-width="1.5" d="M0,-3.0v7 M-2.5,-0.5L0,-3.0L2.5,-0.5"/>
                </g>
                <g id="arrowDown" xlink:href="#dirArrow" transform="rotate(180) translate(-30 -48)" onmousedown="handlePan(0,1)">
                  <use xlink:href="#rim" fill="#404040">
                        <set attributeName="fill" to="#808080" begin="arrowDown.mouseover" end="arrowDown.mouseout"/>
                  </use>
                  <path fill="none" stroke="white" stroke-width="1.5" d="M0,-3.0v7 M-2.5,-0.5L0,-3.0L2.5,-0.5"/>
                </g>
                <g id="arrowLeft" xlink:href="#dirArrow" transform="rotate(270) translate(-36 17)" onmousedown="handlePan(-1,0)">
                  <use xlink:href="#rim" fill="#404040">
                        <set attributeName="fill" to="#808080" begin="arrowLeft.mouseover" end="arrowLeft.mouseout"/>
                  </use>
                  <path fill="none" stroke="white" stroke-width="1.5" d="M0,-3.0v7 M-2.5,-0.5L0,-3.0L2.5,-0.5"/>
                </g>
        </g>
        <svg viewBox="0 0 15 15" width="100%" height="30px" preserveAspectRatio="xMaxYMin meet">
         <g id="arrow_out" transform="scale(0.3 0.3)">
          <a xlink:href="classCoolBoard_aa0bbc4bc605e35618d18e68795c61363_cgraph_org.svg" target="_base">
           <rect id="button" ry="5" rx="5" y="6" x="6" height="38" width="38"
                fill="#f2f5e9" fill-opacity="0.5" stroke="#606060" stroke-width="1.0"/>
           <path id="arrow"
             d="M 11.500037,31.436501 C 11.940474,20.09759 22.043105,11.32322 32.158766,21.979434 L 37.068811,17.246167 C 37.068811,17.246167 37.088388,32 37.088388,32 L 22.160133,31.978069 C 22.160133,31.978069 26.997745,27.140456 26.997745,27.140456 C 18.528582,18.264221 13.291696,25.230495 11.500037,31.436501 z"
             style="fill:#404040;"/>
          </a>
         </g>
        </svg>
</svg>
