<?xml version="1.0" encoding="UTF-8" standalone="no"?>
<!DOCTYPE svg PUBLIC "-//W3C//DTD SVG 1.1//EN"
 "http://www.w3.org/Graphics/SVG/1.1/DTD/svg11.dtd">
<!-- Generated by graphviz version 2.38.0 (20140413.2041)
 -->
<!-- Title: CoolBoard::begin Pages: 1 -->
<!--zoomable 826 -->
<svg id="main" version="1.1" xmlns="http://www.w3.org/2000/svg" xmlns:xlink="http://www.w3.org/1999/xlink" xml:space="preserve" onload="init(evt)">
<style type="text/css"><![CDATA[
.edge:hover path { stroke: red; }
.edge:hover polygon { stroke: red; fill: red; }
]]></style>
<script type="text/javascript"><![CDATA[
var edges = document.getElementsByTagName('g');
if (edges && edges.length) {
  for (var i=0;i<edges.length;i++) {
    if (edges[i].id.substr(0,4)=='edge') {
      edges[i].setAttribute('class','edge');
    }
  }
}
]]></script>
        <defs>
                <circle id="rim" cx="0" cy="0" r="7"/>
                <circle id="rim2" cx="0" cy="0" r="3.5"/>
                <g id="zoomPlus">
                        <use xlink:href="#rim" fill="#404040">
                                <set attributeName="fill" to="#808080" begin="zoomplus.mouseover" end="zoomplus.mouseout"/>
                        </use>
                        <path d="M-4,0h8M0,-4v8" fill="none" stroke="white" stroke-width="1.5" pointer-events="none"/>
                </g>
                <g id="zoomMin">
                        <use xlink:href="#rim" fill="#404040">
                                <set attributeName="fill" to="#808080" begin="zoomminus.mouseover" end="zoomminus.mouseout"/>
                        </use>
                        <path d="M-4,0h8" fill="none" stroke="white" stroke-width="1.5" pointer-events="none"/>
                </g>
                <g id="dirArrow">
                        <path fill="none" stroke="white" stroke-width="1.5" d="M0,-3.0v7 M-2.5,-0.5L0,-3.0L2.5,-0.5"/>
                </g>
               <g id="resetDef">
                       <use xlink:href="#rim2" fill="#404040">
                               <set attributeName="fill" to="#808080" begin="reset.mouseover" end="reset.mouseout"/>
                       </use>
               </g>
        </defs>

<script type="text/javascript">
var viewWidth = 643;
var viewHeight = 826;
var sectionId = 'dynsection-1';
</script>
<script xlink:href="svgpan.js"/>
<svg id="graph" class="graph">
<g id="viewport">
<title>CoolBoard::begin</title>
<polygon fill="white" stroke="none" points="-4,4 -4,-822 639,-822 639,4 -4,4"/>
<!-- Node0 -->
<g id="node1" class="node"><title>Node0</title>
<polygon fill="#bfbfbf" stroke="black" points="0,-399.5 0,-418.5 92,-418.5 92,-399.5 0,-399.5"/>
<text text-anchor="middle" x="46" y="-406.5" font-family="Helvetica,sans-Serif" font-size="10.00">CoolBoard::begin</text>
</g>
<!-- Node1 -->
<g id="node2" class="node"><title>Node1</title>
<g id="a_node2"><a xlink:href="class_cool_file_system.html#a6ba6f666ed4c530174f8569d2c636748" target="_top" xlink:title="CoolFileSystem::begin">
<polygon fill="white" stroke="black" points="142,-798.5 142,-817.5 258,-817.5 258,-798.5 142,-798.5"/>
<text text-anchor="middle" x="200" y="-805.5" font-family="Helvetica,sans-Serif" font-size="10.00">CoolFileSystem::begin</text>
</a>
</g>
</g>
<!-- Node0&#45;&gt;Node1 -->
<g id="edge1" class="edge"><title>Node0&#45;&gt;Node1</title>
<path fill="none" stroke="midnightblue" d="M47.7106,-418.568C51.8655,-471.981 74.6936,-732.877 128,-789 129.606,-790.691 131.346,-792.238 133.19,-793.652"/>
<polygon fill="midnightblue" stroke="midnightblue" points="131.527,-796.739 141.869,-799.04 135.219,-790.792 131.527,-796.739"/>
</g>
<!-- Node2 -->
<g id="node3" class="node"><title>Node2</title>
<g id="a_node3"><a xlink:href="class_cool_board_sensors.html#a9a218895c5423375c33c08f2c56fb23a" target="_top" xlink:title="CoolBoardSensors::config">
<polygon fill="white" stroke="black" points="134.5,-760.5 134.5,-779.5 265.5,-779.5 265.5,-760.5 134.5,-760.5"/>
<text text-anchor="middle" x="200" y="-767.5" font-family="Helvetica,sans-Serif" font-size="10.00">CoolBoardSensors::config</text>
</a>
</g>
</g>
<!-- Node0&#45;&gt;Node2 -->
<g id="edge2" class="edge"><title>Node0&#45;&gt;Node2</title>
<path fill="none" stroke="midnightblue" d="M47.9555,-418.588C53.1469,-468.807 79.53,-701.108 128,-751 129.4,-752.441 130.897,-753.778 132.473,-755.016"/>
<polygon fill="midnightblue" stroke="midnightblue" points="130.624,-757.988 140.935,-760.425 134.394,-752.09 130.624,-757.988"/>
</g>
<!-- Node3 -->
<g id="node4" class="node"><title>Node3</title>
<g id="a_node4"><a xlink:href="class_cool_board_sensors.html#a97095823ef7c8f5290812f1405b966b3" target="_top" xlink:title="CoolBoardSensors::begin">
<polygon fill="white" stroke="black" points="136,-722.5 136,-741.5 264,-741.5 264,-722.5 136,-722.5"/>
<text text-anchor="middle" x="200" y="-729.5" font-family="Helvetica,sans-Serif" font-size="10.00">CoolBoardSensors::begin</text>
</a>
</g>
</g>
<!-- Node0&#45;&gt;Node3 -->
<g id="edge3" class="edge"><title>Node0&#45;&gt;Node3</title>
<path fill="none" stroke="midnightblue" d="M48.2793,-418.747C54.6489,-465.841 84.3813,-669.334 128,-713 129.454,-714.456 131.007,-715.803 132.64,-717.051"/>
<polygon fill="midnightblue" stroke="midnightblue" points="131.049,-720.183 141.39,-722.49 134.745,-714.238 131.049,-720.183"/>
</g>
<!-- Node6 -->
<g id="node7" class="node"><title>Node6</title>
<g id="a_node7"><a xlink:href="class_cool_board_sensors.html#af6fd79505815b204c178617ecf54c873" target="_top" xlink:title="CoolBoardSensors::printConf">
<polygon fill="white" stroke="black" points="128,-684.5 128,-703.5 272,-703.5 272,-684.5 128,-684.5"/>
<text text-anchor="middle" x="200" y="-691.5" font-family="Helvetica,sans-Serif" font-size="10.00">CoolBoardSensors::printConf</text>
</a>
</g>
</g>
<!-- Node0&#45;&gt;Node6 -->
<g id="edge6" class="edge"><title>Node0&#45;&gt;Node6</title>
<path fill="none" stroke="midnightblue" d="M46.8253,-418.659C46.6792,-457.142 51.4596,-601.027 128,-675 129.48,-676.43 131.054,-677.755 132.707,-678.983"/>
<polygon fill="midnightblue" stroke="midnightblue" points="131.167,-682.143 141.53,-684.347 134.804,-676.162 131.167,-682.143"/>
</g>
<!-- Node7 -->
<g id="node8" class="node"><title>Node7</title>
<g id="a_node8"><a xlink:href="class_cool_time.html#a87c28260c1bc77091162cbcf1ee2e129" target="_top" xlink:title="CoolTime::config">
<polygon fill="white" stroke="black" points="154.5,-646.5 154.5,-665.5 245.5,-665.5 245.5,-646.5 154.5,-646.5"/>
<text text-anchor="middle" x="200" y="-653.5" font-family="Helvetica,sans-Serif" font-size="10.00">CoolTime::config</text>
</a>
</g>
</g>
<!-- Node0&#45;&gt;Node7 -->
<g id="edge7" class="edge"><title>Node0&#45;&gt;Node7</title>
<path fill="none" stroke="midnightblue" d="M47.4035,-418.957C49.3922,-454.338 61.0212,-575.168 128,-637 132.799,-641.43 138.518,-644.849 144.596,-647.483"/>
<polygon fill="midnightblue" stroke="midnightblue" points="143.77,-650.905 154.364,-651.008 146.146,-644.321 143.77,-650.905"/>
</g>
<!-- Node8 -->
<g id="node9" class="node"><title>Node8</title>
<g id="a_node9"><a xlink:href="class_cool_time.html#a2b36c4009f083ece2d407fec077c4938" target="_top" xlink:title="CoolTime::begin">
<polygon fill="white" stroke="black" points="156,-608.5 156,-627.5 244,-627.5 244,-608.5 156,-608.5"/>
<text text-anchor="middle" x="200" y="-615.5" font-family="Helvetica,sans-Serif" font-size="10.00">CoolTime::begin</text>
</a>
</g>
</g>
<!-- Node0&#45;&gt;Node8 -->
<g id="edge8" class="edge"><title>Node0&#45;&gt;Node8</title>
<path fill="none" stroke="midnightblue" d="M48.1449,-418.603C52.3792,-449.728 70.0383,-548.71 128,-599 133.245,-603.551 139.469,-607.026 146.018,-609.676"/>
<polygon fill="midnightblue" stroke="midnightblue" points="145.176,-613.086 155.77,-612.999 147.433,-606.46 145.176,-613.086"/>
</g>
<!-- Node11 -->
<g id="node12" class="node"><title>Node11</title>
<g id="a_node12"><a xlink:href="class_cool_time.html#af355e7f9b3898211cd2ff25eab5933b1" target="_top" xlink:title="CoolTime::printConf">
<polygon fill="white" stroke="black" points="148,-570.5 148,-589.5 252,-589.5 252,-570.5 148,-570.5"/>
<text text-anchor="middle" x="200" y="-577.5" font-family="Helvetica,sans-Serif" font-size="10.00">CoolTime::printConf</text>
</a>
</g>
</g>
<!-- Node0&#45;&gt;Node11 -->
<g id="edge11" class="edge"><title>Node0&#45;&gt;Node11</title>
<path fill="none" stroke="midnightblue" d="M49.2401,-418.558C56.0442,-445.415 79.0666,-522.126 128,-561 131.169,-563.518 134.643,-565.703 138.297,-567.6"/>
<polygon fill="midnightblue" stroke="midnightblue" points="137.12,-570.906 147.682,-571.746 139.949,-564.503 137.12,-570.906"/>
</g>
<!-- Node12 -->
<g id="node13" class="node"><title>Node12</title>
<g id="a_node13"><a xlink:href="class_cool_board_led.html#a1b60e5e30bea96c49ed62ed1bf1ffc8b" target="_top" xlink:title="CoolBoardLed::config">
<polygon fill="white" stroke="black" points="145,-532.5 145,-551.5 255,-551.5 255,-532.5 145,-532.5"/>
<text text-anchor="middle" x="200" y="-539.5" font-family="Helvetica,sans-Serif" font-size="10.00">CoolBoardLed::config</text>
</a>
</g>
</g>
<!-- Node0&#45;&gt;Node12 -->
<g id="edge12" class="edge"><title>Node0&#45;&gt;Node12</title>
<path fill="none" stroke="midnightblue" d="M51.0604,-418.669C60.8459,-440.757 87.9243,-495.153 128,-523 130.864,-524.99 133.925,-526.771 137.109,-528.366"/>
<polygon fill="midnightblue" stroke="midnightblue" points="135.78,-531.605 146.346,-532.386 138.573,-525.186 135.78,-531.605"/>
</g>
<!-- Node13 -->
<g id="node14" class="node"><title>Node13</title>
<g id="a_node14"><a xlink:href="class_cool_board_led.html#ae3cbde8affcc6f011cbd698c8ef911f6" target="_top" xlink:title="CoolBoardLed::begin">
<polygon fill="white" stroke="black" points="146.5,-494.5 146.5,-513.5 253.5,-513.5 253.5,-494.5 146.5,-494.5"/>
<text text-anchor="middle" x="200" y="-501.5" font-family="Helvetica,sans-Serif" font-size="10.00">CoolBoardLed::begin</text>
</a>
</g>
</g>
<!-- Node0&#45;&gt;Node13 -->
<g id="edge13" class="edge"><title>Node0&#45;&gt;Node13</title>
<path fill="none" stroke="midnightblue" d="M54.4028,-418.509C67.4845,-434.652 96.3169,-467.381 128,-485 131.997,-487.223 136.267,-489.196 140.655,-490.945"/>
<polygon fill="midnightblue" stroke="midnightblue" points="139.794,-494.354 150.388,-494.428 142.152,-487.763 139.794,-494.354"/>
</g>
<!-- Node14 -->
<g id="node15" class="node"><title>Node14</title>
<g id="a_node15"><a xlink:href="class_cool_board_led.html#a8ed3053a36f0ed4a131f43b5b17efb61" target="_top" xlink:title="CoolBoardLed::printConf">
<polygon fill="white" stroke="black" points="138,-456.5 138,-475.5 262,-475.5 262,-456.5 138,-456.5"/>
<text text-anchor="middle" x="200" y="-463.5" font-family="Helvetica,sans-Serif" font-size="10.00">CoolBoardLed::printConf</text>
</a>
</g>
</g>
<!-- Node0&#45;&gt;Node14 -->
<g id="edge14" class="edge"><title>Node0&#45;&gt;Node14</title>
<path fill="none" stroke="midnightblue" d="M64.9441,-418.546C81.1033,-426.868 105.676,-438.849 128,-447 134.523,-449.382 141.481,-451.609 148.395,-453.641"/>
<polygon fill="midnightblue" stroke="midnightblue" points="147.862,-457.127 158.437,-456.472 149.762,-450.39 147.862,-457.127"/>
</g>
<!-- Node15 -->
<g id="node16" class="node"><title>Node15</title>
<g id="a_node16"><a xlink:href="class_cool_m_q_t_t.html#a0158596b9a2297c8ba609b56ce6bace1" target="_top" xlink:title="CoolMQTT::config">
<polygon fill="white" stroke="black" points="151.5,-418.5 151.5,-437.5 248.5,-437.5 248.5,-418.5 151.5,-418.5"/>
<text text-anchor="middle" x="200" y="-425.5" font-family="Helvetica,sans-Serif" font-size="10.00">CoolMQTT::config</text>
</a>
</g>
</g>
<!-- Node0&#45;&gt;Node15 -->
<g id="edge15" class="edge"><title>Node0&#45;&gt;Node15</title>
<path fill="none" stroke="midnightblue" d="M92.1935,-414.649C107.63,-416.579 125.107,-418.763 141.386,-420.798"/>
<polygon fill="midnightblue" stroke="midnightblue" points="140.982,-424.275 151.339,-422.042 141.85,-417.329 140.982,-424.275"/>
</g>
<!-- Node16 -->
<g id="node17" class="node"><title>Node16</title>
<g id="a_node17"><a xlink:href="class_cool_m_q_t_t.html#ac9248808641ebf3054ed0620ea9d0100" target="_top" xlink:title="CoolMQTT::begin">
<polygon fill="white" stroke="black" points="153,-380.5 153,-399.5 247,-399.5 247,-380.5 153,-380.5"/>
<text text-anchor="middle" x="200" y="-387.5" font-family="Helvetica,sans-Serif" font-size="10.00">CoolMQTT::begin</text>
</a>
</g>
</g>
<!-- Node0&#45;&gt;Node16 -->
<g id="edge16" class="edge"><title>Node0&#45;&gt;Node16</title>
<path fill="none" stroke="midnightblue" d="M92.1935,-403.351C108.064,-401.367 126.093,-399.113 142.759,-397.03"/>
<polygon fill="midnightblue" stroke="midnightblue" points="143.44,-400.472 152.928,-395.759 142.572,-393.526 143.44,-400.472"/>
</g>
<!-- Node18 -->
<g id="node19" class="node"><title>Node18</title>
<g id="a_node19"><a xlink:href="class_cool_m_q_t_t.html#a40553a0ad4b5ecf1cb4411ab54ca85fb" target="_top" xlink:title="CoolMQTT::printConf">
<polygon fill="white" stroke="black" points="145,-342.5 145,-361.5 255,-361.5 255,-342.5 145,-342.5"/>
<text text-anchor="middle" x="200" y="-349.5" font-family="Helvetica,sans-Serif" font-size="10.00">CoolMQTT::printConf</text>
</a>
</g>
</g>
<!-- Node0&#45;&gt;Node18 -->
<g id="edge18" class="edge"><title>Node0&#45;&gt;Node18</title>
<path fill="none" stroke="midnightblue" d="M64.9441,-399.454C81.1033,-391.132 105.676,-379.151 128,-371 134.523,-368.618 141.481,-366.391 148.395,-364.359"/>
<polygon fill="midnightblue" stroke="midnightblue" points="149.762,-367.61 158.437,-361.528 147.862,-360.873 149.762,-367.61"/>
</g>
<!-- Node19 -->
<g id="node20" class="node"><title>Node19</title>
<g id="a_node20"><a xlink:href="class_jetpack.html#ab065ee83e244265a2223a22f3ee4a719" target="_top" xlink:title="Jetpack::config">
<polygon fill="white" stroke="black" points="158.5,-304.5 158.5,-323.5 241.5,-323.5 241.5,-304.5 158.5,-304.5"/>
<text text-anchor="middle" x="200" y="-311.5" font-family="Helvetica,sans-Serif" font-size="10.00">Jetpack::config</text>
</a>
</g>
</g>
<!-- Node0&#45;&gt;Node19 -->
<g id="edge19" class="edge"><title>Node0&#45;&gt;Node19</title>
<path fill="none" stroke="midnightblue" d="M54.4028,-399.491C67.4845,-383.348 96.3169,-350.619 128,-333 134.363,-329.461 141.418,-326.556 148.539,-324.178"/>
<polygon fill="midnightblue" stroke="midnightblue" points="149.67,-327.492 158.232,-321.251 147.647,-320.791 149.67,-327.492"/>
</g>
<!-- Node20 -->
<g id="node21" class="node"><title>Node20</title>
<g id="a_node21"><a xlink:href="class_jetpack.html#a5a53e1ebf7aaf3bf3e0d37ea64ca09a7" target="_top" xlink:title="Jetpack::begin">
<polygon fill="white" stroke="black" points="160,-266.5 160,-285.5 240,-285.5 240,-266.5 160,-266.5"/>
<text text-anchor="middle" x="200" y="-273.5" font-family="Helvetica,sans-Serif" font-size="10.00">Jetpack::begin</text>
</a>
</g>
</g>
<!-- Node0&#45;&gt;Node20 -->
<g id="edge20" class="edge"><title>Node0&#45;&gt;Node20</title>
<path fill="none" stroke="midnightblue" d="M51.0604,-399.331C60.8459,-377.243 87.9243,-322.847 128,-295 134.557,-290.444 142.152,-286.979 149.884,-284.346"/>
<polygon fill="midnightblue" stroke="midnightblue" points="151.095,-287.637 159.684,-281.434 149.101,-280.927 151.095,-287.637"/>
</g>
<!-- Node21 -->
<g id="node22" class="node"><title>Node21</title>
<g id="a_node22"><a xlink:href="class_jetpack.html#ac54a7bb4f9166bee32052253d9b1d306" target="_top" xlink:title="Jetpack::printConf">
<polygon fill="white" stroke="black" points="151.5,-228.5 151.5,-247.5 248.5,-247.5 248.5,-228.5 151.5,-228.5"/>
<text text-anchor="middle" x="200" y="-235.5" font-family="Helvetica,sans-Serif" font-size="10.00">Jetpack::printConf</text>
</a>
</g>
</g>
<!-- Node0&#45;&gt;Node21 -->
<g id="edge21" class="edge"><title>Node0&#45;&gt;Node21</title>
<path fill="none" stroke="midnightblue" d="M49.2401,-399.442C56.0442,-372.585 79.0666,-295.874 128,-257 132.14,-253.711 136.8,-250.989 141.703,-248.737"/>
<polygon fill="midnightblue" stroke="midnightblue" points="143.322,-251.862 151.359,-244.958 140.771,-245.343 143.322,-251.862"/>
</g>
<!-- Node22 -->
<g id="node23" class="node"><title>Node22</title>
<g id="a_node23"><a xlink:href="class_irene3000.html#afed5c35e4b23963c157847ef27c11e9c" target="_top" xlink:title="Irene3000::config">
<polygon fill="white" stroke="black" points="154,-190.5 154,-209.5 246,-209.5 246,-190.5 154,-190.5"/>
<text text-anchor="middle" x="200" y="-197.5" font-family="Helvetica,sans-Serif" font-size="10.00">Irene3000::config</text>
</a>
</g>
</g>
<!-- Node0&#45;&gt;Node22 -->
<g id="edge22" class="edge"><title>Node0&#45;&gt;Node22</title>
<path fill="none" stroke="midnightblue" d="M48.1449,-399.397C52.3792,-368.272 70.0383,-269.29 128,-219 132.807,-214.829 138.436,-211.563 144.384,-209.006"/>
<polygon fill="midnightblue" stroke="midnightblue" points="145.715,-212.246 153.921,-205.545 143.327,-205.666 145.715,-212.246"/>
</g>
<!-- Node24 -->
<g id="node25" class="node"><title>Node24</title>
<g id="a_node25"><a xlink:href="class_irene3000.html#ad5891806c500ae1007afe52b9e304c2b" target="_top" xlink:title="Irene3000::begin">
<polygon fill="white" stroke="black" points="155.5,-152.5 155.5,-171.5 244.5,-171.5 244.5,-152.5 155.5,-152.5"/>
<text text-anchor="middle" x="200" y="-159.5" font-family="Helvetica,sans-Serif" font-size="10.00">Irene3000::begin</text>
</a>
</g>
</g>
<!-- Node0&#45;&gt;Node24 -->
<g id="edge24" class="edge"><title>Node0&#45;&gt;Node24</title>
<path fill="none" stroke="midnightblue" d="M47.4035,-399.043C49.3922,-363.662 61.0212,-242.832 128,-181 133.103,-176.29 139.244,-172.723 145.753,-170.027"/>
<polygon fill="midnightblue" stroke="midnightblue" points="147.164,-173.243 155.473,-166.669 144.878,-166.627 147.164,-173.243"/>
</g>
<!-- Node25 -->
<g id="node26" class="node"><title>Node25</title>
<g id="a_node26"><a xlink:href="class_irene3000.html#a7bc2414100b5e19eacc6630fa34b2654" target="_top" xlink:title="Irene3000::printConf">
<polygon fill="white" stroke="black" points="147.5,-114.5 147.5,-133.5 252.5,-133.5 252.5,-114.5 147.5,-114.5"/>
<text text-anchor="middle" x="200" y="-121.5" font-family="Helvetica,sans-Serif" font-size="10.00">Irene3000::printConf</text>
</a>
</g>
</g>
<!-- Node0&#45;&gt;Node25 -->
<g id="edge25" class="edge"><title>Node0&#45;&gt;Node25</title>
<path fill="none" stroke="midnightblue" d="M46.8253,-399.341C46.6792,-360.858 51.4596,-216.973 128,-143 130.96,-140.139 134.303,-137.697 137.883,-135.614"/>
<polygon fill="midnightblue" stroke="midnightblue" points="139.694,-138.628 147.193,-131.143 136.663,-132.318 139.694,-138.628"/>
</g>
<!-- Node26 -->
<g id="node27" class="node"><title>Node26</title>
<g id="a_node27"><a xlink:href="class_external_sensors.html#a862a4bd11346b37270d0244c2adabe5a" target="_top" xlink:title="ExternalSensors::config">
<polygon fill="white" stroke="black" points="139.5,-76.5 139.5,-95.5 260.5,-95.5 260.5,-76.5 139.5,-76.5"/>
<text text-anchor="middle" x="200" y="-83.5" font-family="Helvetica,sans-Serif" font-size="10.00">ExternalSensors::config</text>
</a>
</g>
</g>
<!-- Node0&#45;&gt;Node26 -->
<g id="edge26" class="edge"><title>Node0&#45;&gt;Node26</title>
<path fill="none" stroke="midnightblue" d="M48.2793,-399.253C54.6489,-352.159 84.3813,-148.666 128,-105 129.454,-103.544 131.007,-102.197 132.64,-100.949"/>
<polygon fill="midnightblue" stroke="midnightblue" points="134.745,-103.762 141.39,-95.5099 131.049,-97.8167 134.745,-103.762"/>
</g>
<!-- Node27 -->
<g id="node28" class="node"><title>Node27</title>
<g id="a_node28"><a xlink:href="class_external_sensors.html#a58ede0d786a86417254708870f04a21e" target="_top" xlink:title="ExternalSensors::begin">
<polygon fill="white" stroke="black" points="141,-38.5 141,-57.5 259,-57.5 259,-38.5 141,-38.5"/>
<text text-anchor="middle" x="200" y="-45.5" font-family="Helvetica,sans-Serif" font-size="10.00">ExternalSensors::begin</text>
</a>
</g>
</g>
<!-- Node0&#45;&gt;Node27 -->
<g id="edge27" class="edge"><title>Node0&#45;&gt;Node27</title>
<path fill="none" stroke="midnightblue" d="M47.9555,-399.412C53.1469,-349.193 79.53,-116.892 128,-67 129.4,-65.5585 130.897,-64.2225 132.473,-62.9844"/>
<polygon fill="midnightblue" stroke="midnightblue" points="134.394,-65.9103 140.935,-57.5752 130.624,-60.0125 134.394,-65.9103"/>
</g>
<!-- Node28 -->
<g id="node29" class="node"><title>Node28</title>
<g id="a_node29"><a xlink:href="class_external_sensors.html#a78c2bf55084435dd51d3c559b2d3c6f3" target="_top" xlink:title="ExternalSensors::printConf">
<polygon fill="white" stroke="black" points="133,-0.5 133,-19.5 267,-19.5 267,-0.5 133,-0.5"/>
<text text-anchor="middle" x="200" y="-7.5" font-family="Helvetica,sans-Serif" font-size="10.00">ExternalSensors::printConf</text>
</a>
</g>
</g>
<!-- Node0&#45;&gt;Node28 -->
<g id="edge28" class="edge"><title>Node0&#45;&gt;Node28</title>
<path fill="none" stroke="midnightblue" d="M47.7106,-399.432C51.8655,-346.019 74.6936,-85.1229 128,-29 129.239,-27.6961 130.556,-26.4781 131.94,-25.3406"/>
<polygon fill="midnightblue" stroke="midnightblue" points="134.1,-28.1078 140.504,-19.6674 130.234,-22.272 134.1,-28.1078"/>
</g>
<!-- Node4 -->
<g id="node5" class="node"><title>Node4</title>
<g id="a_node5"><a xlink:href="class_cool_board_sensors.html#acad6a8418c66d36868caca23c844ecb6" target="_top" xlink:title="CoolBoardSensors::initReadI2C">
<polygon fill="white" stroke="black" points="308,-744.5 308,-763.5 464,-763.5 464,-744.5 308,-744.5"/>
<text text-anchor="middle" x="386" y="-751.5" font-family="Helvetica,sans-Serif" font-size="10.00">CoolBoardSensors::initReadI2C</text>
</a>
</g>
</g>
<!-- Node3&#45;&gt;Node4 -->
<g id="edge4" class="edge"><title>Node3&#45;&gt;Node4</title>
<path fill="none" stroke="midnightblue" d="M264.065,-739.54C274.927,-740.839 286.389,-742.21 297.753,-743.568"/>
<polygon fill="midnightblue" stroke="midnightblue" points="297.353,-747.045 307.698,-744.757 298.184,-740.095 297.353,-747.045"/>
</g>
<!-- Node5 -->
<g id="node6" class="node"><title>Node5</title>
<g id="a_node6"><a xlink:href="class_cool_board_sensors.html#a406307ffd70272282d91479c7ed8d66f" target="_top" xlink:title="CoolBoardSensors::setEnv\lSensorSettings">
<polygon fill="white" stroke="black" points="318.5,-695 318.5,-725 453.5,-725 453.5,-695 318.5,-695"/>
<text text-anchor="start" x="326.5" y="-713" font-family="Helvetica,sans-Serif" font-size="10.00">CoolBoardSensors::setEnv</text>
<text text-anchor="middle" x="386" y="-702" font-family="Helvetica,sans-Serif" font-size="10.00">SensorSettings</text>
</a>
</g>
</g>
<!-- Node3&#45;&gt;Node5 -->
<g id="edge5" class="edge"><title>Node3&#45;&gt;Node5</title>
<path fill="none" stroke="midnightblue" d="M264.065,-724.46C278.265,-722.762 293.49,-720.941 308.183,-719.185"/>
<polygon fill="midnightblue" stroke="midnightblue" points="308.737,-722.643 318.251,-717.981 307.906,-715.693 308.737,-722.643"/>
</g>
<!-- Node9 -->
<g id="node10" class="node"><title>Node9</title>
<g id="a_node10"><a xlink:href="class_cool_time.html#a41fbbbfd651c2079f54d4b2911e4c705" target="_top" xlink:title="CoolTime::getNtpTime">
<polygon fill="white" stroke="black" points="328,-608.5 328,-627.5 444,-627.5 444,-608.5 328,-608.5"/>
<text text-anchor="middle" x="386" y="-615.5" font-family="Helvetica,sans-Serif" font-size="10.00">CoolTime::getNtpTime</text>
</a>
</g>
</g>
<!-- Node8&#45;&gt;Node9 -->
<g id="edge9" class="edge"><title>Node8&#45;&gt;Node9</title>
<path fill="none" stroke="midnightblue" d="M244.14,-618C266.079,-618 293.24,-618 317.84,-618"/>
<polygon fill="midnightblue" stroke="midnightblue" points="317.842,-621.5 327.842,-618 317.842,-614.5 317.842,-621.5"/>
</g>
<!-- Node10 -->
<g id="node11" class="node"><title>Node10</title>
<g id="a_node11"><a xlink:href="class_cool_time.html#a236a38d120dc53bc67456d763838c5a1" target="_top" xlink:title="CoolTime::sendNTPpacket">
<polygon fill="white" stroke="black" points="500,-608.5 500,-627.5 635,-627.5 635,-608.5 500,-608.5"/>
<text text-anchor="middle" x="567.5" y="-615.5" font-family="Helvetica,sans-Serif" font-size="10.00">CoolTime::sendNTPpacket</text>
</a>
</g>
</g>
<!-- Node9&#45;&gt;Node10 -->
<g id="edge10" class="edge"><title>Node9&#45;&gt;Node10</title>
<path fill="none" stroke="midnightblue" d="M444.288,-618C458.627,-618 474.243,-618 489.371,-618"/>
<polygon fill="midnightblue" stroke="midnightblue" points="489.745,-621.5 499.745,-618 489.745,-614.5 489.745,-621.5"/>
</g>
<!-- Node17 -->
<g id="node18" class="node"><title>Node17</title>
<g id="a_node18"><a xlink:href="class_cool_m_q_t_t.html#a30d82ad665bfb603f46ecdbc290775df" target="_top" xlink:title="CoolMQTT::callback">
<polygon fill="white" stroke="black" points="332.5,-380.5 332.5,-399.5 439.5,-399.5 439.5,-380.5 332.5,-380.5"/>
<text text-anchor="middle" x="386" y="-387.5" font-family="Helvetica,sans-Serif" font-size="10.00">CoolMQTT::callback</text>
</a>
</g>
</g>
<!-- Node16&#45;&gt;Node17 -->
<g id="edge17" class="edge"><title>Node16&#45;&gt;Node17</title>
<path fill="none" stroke="midnightblue" d="M247.431,-390C270.067,-390 297.628,-390 322.119,-390"/>
<polygon fill="midnightblue" stroke="midnightblue" points="322.404,-393.5 332.404,-390 322.404,-386.5 322.404,-393.5"/>
</g>
<!-- Node23 -->
<g id="node24" class="node"><title>Node23</title>
<g id="a_node24"><a xlink:href="class_irene3000.html#abcad62d1201a59f8dd3ba87048002728" target="_top" xlink:title="Irene3000::gainConvert">
<polygon fill="white" stroke="black" points="327,-190.5 327,-209.5 445,-209.5 445,-190.5 327,-190.5"/>
<text text-anchor="middle" x="386" y="-197.5" font-family="Helvetica,sans-Serif" font-size="10.00">Irene3000::gainConvert</text>
</a>
</g>
</g>
<!-- Node22&#45;&gt;Node23 -->
<g id="edge23" class="edge"><title>Node22&#45;&gt;Node23</title>
<path fill="none" stroke="midnightblue" d="M246.011,-200C267.235,-200 293.018,-200 316.587,-200"/>
<polygon fill="midnightblue" stroke="midnightblue" points="316.883,-203.5 326.883,-200 316.883,-196.5 316.883,-203.5"/>
</g>
</g>
</svg>
        <g id="navigator" transform="translate(0 0)" fill="#404254">
                <rect fill="#f2f5e9" fill-opacity="0.5" stroke="#606060" stroke-width=".5" x="0" y="0" width="60" height="60"/>
                <use id="zoomplus" xlink:href="#zoomPlus" x="17" y="9" onmousedown="handleZoom(evt,'in')"/>
                <use id="zoomminus" xlink:href="#zoomMin" x="42" y="9" onmousedown="handleZoom(evt,'out')"/>
                <use id="reset" xlink:href="#resetDef" x="30" y="36" onmousedown="handleReset()"/>
                <g id="arrowUp" xlink:href="#dirArrow" transform="translate(30 24)" onmousedown="handlePan(0,-1)">
                  <use xlink:href="#rim" fill="#404040">
                        <set attributeName="fill" to="#808080" begin="arrowUp.mouseover" end="arrowUp.mouseout"/>
                  </use>
                  <path fill="none" stroke="white" stroke-width="1.5" d="M0,-3.0v7 M-2.5,-0.5L0,-3.0L2.5,-0.5"/>
                </g>
                <g id="arrowRight" xlink:href="#dirArrow" transform="rotate(90) translate(36 -43)" onmousedown="handlePan(1,0)">
                  <use xlink:href="#rim" fill="#404040">
                        <set attributeName="fill" to="#808080" begin="arrowRight.mouseover" end="arrowRight.mouseout"/>
                  </use>
                  <path fill="none" stroke="white" stroke-width="1.5" d="M0,-3.0v7 M-2.5,-0.5L0,-3.0L2.5,-0.5"/>
                </g>
                <g id="arrowDown" xlink:href="#dirArrow" transform="rotate(180) translate(-30 -48)" onmousedown="handlePan(0,1)">
                  <use xlink:href="#rim" fill="#404040">
                        <set attributeName="fill" to="#808080" begin="arrowDown.mouseover" end="arrowDown.mouseout"/>
                  </use>
                  <path fill="none" stroke="white" stroke-width="1.5" d="M0,-3.0v7 M-2.5,-0.5L0,-3.0L2.5,-0.5"/>
                </g>
                <g id="arrowLeft" xlink:href="#dirArrow" transform="rotate(270) translate(-36 17)" onmousedown="handlePan(-1,0)">
                  <use xlink:href="#rim" fill="#404040">
                        <set attributeName="fill" to="#808080" begin="arrowLeft.mouseover" end="arrowLeft.mouseout"/>
                  </use>
                  <path fill="none" stroke="white" stroke-width="1.5" d="M0,-3.0v7 M-2.5,-0.5L0,-3.0L2.5,-0.5"/>
                </g>
        </g>
        <svg viewBox="0 0 15 15" width="100%" height="30px" preserveAspectRatio="xMaxYMin meet">
         <g id="arrow_out" transform="scale(0.3 0.3)">
          <a xlink:href="class_cool_board_acba7c5aef7268b2c0044bdb54d3b9d76_cgraph_org.svg" target="_base">
           <rect id="button" ry="5" rx="5" y="6" x="6" height="38" width="38"
                fill="#f2f5e9" fill-opacity="0.5" stroke="#606060" stroke-width="1.0"/>
           <path id="arrow"
             d="M 11.500037,31.436501 C 11.940474,20.09759 22.043105,11.32322 32.158766,21.979434 L 37.068811,17.246167 C 37.068811,17.246167 37.088388,32 37.088388,32 L 22.160133,31.978069 C 22.160133,31.978069 26.997745,27.140456 26.997745,27.140456 C 18.528582,18.264221 13.291696,25.230495 11.500037,31.436501 z"
             style="fill:#404040;"/>
          </a>
         </g>
        </svg>
</svg>
