<?xml version="1.0" encoding="UTF-8" standalone="no"?>
<!DOCTYPE svg PUBLIC "-//W3C//DTD SVG 1.1//EN"
 "http://www.w3.org/Graphics/SVG/1.1/DTD/svg11.dtd">
<!-- Generated by graphviz version 2.38.0 (20140413.2041)
 -->
<!-- Title: CoolBoardLed::strobe Pages: 1 -->
<svg width="593pt" height="180pt"
 viewBox="0.00 0.00 593.00 180.00" xmlns="http://www.w3.org/2000/svg" xmlns:xlink="http://www.w3.org/1999/xlink">
<g id="graph0" class="graph" transform="scale(1 1) rotate(0) translate(4 176)">
<title>CoolBoardLed::strobe</title>
<polygon fill="white" stroke="none" points="-4,4 -4,-176 589,-176 589,4 -4,4"/>
<!-- Node45 -->
<g id="node1" class="node"><title>Node45</title>
<polygon fill="#bfbfbf" stroke="black" points="0,-95.5 0,-114.5 111,-114.5 111,-95.5 0,-95.5"/>
<text text-anchor="middle" x="55.5" y="-102.5" font-family="Helvetica,sans-Serif" font-size="10.00">CoolBoardLed::strobe</text>
</g>
<!-- Node46 -->
<g id="node2" class="node"><title>Node46</title>
<g id="a_node2"><a xlink:href="classCoolBoard.html#a583a874c09c07e70a6eb9229fc4beddb" target="_top" xlink:title="CoolBoard::config">
<polygon fill="white" stroke="black" points="161,-152.5 161,-171.5 256,-171.5 256,-152.5 161,-152.5"/>
<text text-anchor="middle" x="208.5" y="-159.5" font-family="Helvetica,sans-Serif" font-size="10.00">CoolBoard::config</text>
</a>
</g>
</g>
<!-- Node45&#45;&gt;Node46 -->
<g id="edge1" class="edge"><title>Node45&#45;&gt;Node46</title>
<path fill="none" stroke="midnightblue" d="M91.4763,-118.203C119.202,-128.669 157.289,-143.046 182.144,-152.428"/>
<polygon fill="midnightblue" stroke="midnightblue" points="92.3657,-114.798 81.774,-114.541 89.8936,-121.347 92.3657,-114.798"/>
</g>
<!-- Node47 -->
<g id="node3" class="node"><title>Node47</title>
<g id="a_node3"><a xlink:href="classCoolBoard.html#a8612756d3f73198cdde857a66f0fe690" target="_top" xlink:title="CoolBoard::update">
<polygon fill="white" stroke="black" points="318,-114.5 318,-133.5 416,-133.5 416,-114.5 318,-114.5"/>
<text text-anchor="middle" x="367" y="-121.5" font-family="Helvetica,sans-Serif" font-size="10.00">CoolBoard::update</text>
</a>
</g>
</g>
<!-- Node45&#45;&gt;Node47 -->
<g id="edge8" class="edge"><title>Node45&#45;&gt;Node47</title>
<path fill="none" stroke="midnightblue" d="M121.367,-108.982C179.9,-112.575 264.692,-117.781 317.522,-121.024"/>
<polygon fill="midnightblue" stroke="midnightblue" points="121.316,-105.472 111.12,-108.353 120.887,-112.459 121.316,-105.472"/>
</g>
<!-- Node48 -->
<g id="node4" class="node"><title>Node48</title>
<g id="a_node4"><a xlink:href="classCoolBoard.html#aa0bbc4bc605e35618d18e68795c61363" target="_top" xlink:title="CoolBoard::onLineMode">
<polygon fill="white" stroke="black" points="464,-76.5 464,-95.5 585,-95.5 585,-76.5 464,-76.5"/>
<text text-anchor="middle" x="524.5" y="-83.5" font-family="Helvetica,sans-Serif" font-size="10.00">CoolBoard::onLineMode</text>
</a>
</g>
</g>
<!-- Node45&#45;&gt;Node48 -->
<g id="edge4" class="edge"><title>Node45&#45;&gt;Node48</title>
<path fill="none" stroke="midnightblue" d="M121.623,-102.35C212.537,-98.6516 376.189,-91.9934 463.992,-88.4211"/>
<polygon fill="midnightblue" stroke="midnightblue" points="121.294,-98.8609 111.444,-102.765 121.578,-105.855 121.294,-98.8609"/>
</g>
<!-- Node49 -->
<g id="node5" class="node"><title>Node49</title>
<g id="a_node5"><a xlink:href="classCoolBoard.html#ad03abdce2e65f520bbf2cff0f2d083cf" target="_top" xlink:title="CoolBoard::readSensors">
<polygon fill="white" stroke="black" points="147,-38.5 147,-57.5 270,-57.5 270,-38.5 147,-38.5"/>
<text text-anchor="middle" x="208.5" y="-45.5" font-family="Helvetica,sans-Serif" font-size="10.00">CoolBoard::readSensors</text>
</a>
</g>
</g>
<!-- Node45&#45;&gt;Node49 -->
<g id="edge5" class="edge"><title>Node45&#45;&gt;Node49</title>
<path fill="none" stroke="midnightblue" d="M91.4763,-91.797C119.202,-81.331 157.289,-66.9538 182.144,-57.5716"/>
<polygon fill="midnightblue" stroke="midnightblue" points="89.8936,-88.6534 81.774,-95.4595 92.3657,-95.2023 89.8936,-88.6534"/>
</g>
<!-- Node46&#45;&gt;Node47 -->
<g id="edge2" class="edge"><title>Node46&#45;&gt;Node47</title>
<path fill="none" stroke="midnightblue" d="M258.789,-150.032C280.72,-144.707 306.185,-138.524 326.792,-133.52"/>
<polygon fill="midnightblue" stroke="midnightblue" points="257.883,-146.65 248.992,-152.411 259.535,-153.453 257.883,-146.65"/>
</g>
<!-- Node47&#45;&gt;Node48 -->
<g id="edge3" class="edge"><title>Node47&#45;&gt;Node48</title>
<path fill="none" stroke="midnightblue" d="M416.974,-112.032C438.765,-106.707 464.067,-100.524 484.543,-95.5201"/>
<polygon fill="midnightblue" stroke="midnightblue" points="416.122,-108.637 407.239,-114.411 417.784,-115.437 416.122,-108.637"/>
</g>
<!-- Node49&#45;&gt;Node48 -->
<g id="edge7" class="edge"><title>Node49&#45;&gt;Node48</title>
<path fill="none" stroke="midnightblue" d="M280.356,-55.1275C323.153,-59.5955 378.764,-65.6892 428,-72 439.635,-73.4913 452.047,-75.2138 463.942,-76.9295"/>
<polygon fill="midnightblue" stroke="midnightblue" points="280.629,-51.637 270.32,-54.085 279.905,-58.5996 280.629,-51.637"/>
</g>
<!-- Node50 -->
<g id="node6" class="node"><title>Node50</title>
<g id="a_node6"><a xlink:href="classCoolBoard.html#ae6b5e1274d760462290192acea4adca8" target="_top" xlink:title="CoolBoard::offLineMode">
<polygon fill="white" stroke="black" points="306,-0.5 306,-19.5 428,-19.5 428,-0.5 306,-0.5"/>
<text text-anchor="middle" x="367" y="-7.5" font-family="Helvetica,sans-Serif" font-size="10.00">CoolBoard::offLineMode</text>
</a>
</g>
</g>
<!-- Node49&#45;&gt;Node50 -->
<g id="edge6" class="edge"><title>Node49&#45;&gt;Node50</title>
<path fill="none" stroke="midnightblue" d="M258.789,-36.032C280.72,-30.7069 306.185,-24.5238 326.792,-19.5201"/>
<polygon fill="midnightblue" stroke="midnightblue" points="257.883,-32.6502 248.992,-38.411 259.535,-39.4525 257.883,-32.6502"/>
</g>
</g>
</svg>
