<?xml version="1.0" encoding="UTF-8" standalone="no"?>
<!DOCTYPE svg PUBLIC "-//W3C//DTD SVG 1.1//EN"
 "http://www.w3.org/Graphics/SVG/1.1/DTD/svg11.dtd">
<!-- Generated by graphviz version 2.38.0 (20140413.2041)
 -->
<!-- Title: CoolMQTT::state Pages: 1 -->
<svg width="558pt" height="142pt"
 viewBox="0.00 0.00 558.00 142.00" xmlns="http://www.w3.org/2000/svg" xmlns:xlink="http://www.w3.org/1999/xlink">
<g id="graph0" class="graph" transform="scale(1 1) rotate(0) translate(4 138)">
<title>CoolMQTT::state</title>
<polygon fill="white" stroke="none" points="-4,4 -4,-138 554,-138 554,4 -4,4"/>
<!-- Node43 -->
<g id="node1" class="node"><title>Node43</title>
<polygon fill="#bfbfbf" stroke="black" points="0,-57.5 0,-76.5 92,-76.5 92,-57.5 0,-57.5"/>
<text text-anchor="middle" x="46" y="-64.5" font-family="Helvetica,sans-Serif" font-size="10.00">CoolMQTT::state</text>
</g>
<!-- Node44 -->
<g id="node2" class="node"><title>Node44</title>
<g id="a_node2"><a xlink:href="classCoolMQTT.html#a50075d0ab23a327ab897fd6adad20eda" target="_top" xlink:title="CoolMQTT::connect">
<polygon fill="white" stroke="black" points="128,-114.5 128,-133.5 233,-133.5 233,-114.5 128,-114.5"/>
<text text-anchor="middle" x="180.5" y="-121.5" font-family="Helvetica,sans-Serif" font-size="10.00">CoolMQTT::connect</text>
</a>
</g>
</g>
<!-- Node43&#45;&gt;Node44 -->
<g id="edge1" class="edge"><title>Node43&#45;&gt;Node44</title>
<path fill="none" stroke="midnightblue" d="M78.6561,-80.6181C102.897,-91.0465 135.728,-105.17 157.25,-114.428"/>
<polygon fill="midnightblue" stroke="midnightblue" points="79.7467,-77.2772 69.1775,-76.5405 76.9805,-83.7074 79.7467,-77.2772"/>
</g>
<!-- Node45 -->
<g id="node3" class="node"><title>Node45</title>
<g id="a_node3"><a xlink:href="classCoolBoard.html#a519de78b807f8ec6463ff484eb925918" target="_top" xlink:title="CoolBoard::connect">
<polygon fill="white" stroke="black" points="279,-76.5 279,-95.5 382,-95.5 382,-76.5 279,-76.5"/>
<text text-anchor="middle" x="330.5" y="-83.5" font-family="Helvetica,sans-Serif" font-size="10.00">CoolBoard::connect</text>
</a>
</g>
</g>
<!-- Node43&#45;&gt;Node45 -->
<g id="edge5" class="edge"><title>Node43&#45;&gt;Node45</title>
<path fill="none" stroke="midnightblue" d="M102.304,-70.7196C153.554,-74.1665 229.157,-79.2512 278.859,-82.5941"/>
<polygon fill="midnightblue" stroke="midnightblue" points="102.288,-67.2106 92.0753,-70.0316 101.818,-74.1949 102.288,-67.2106"/>
</g>
<!-- Node47 -->
<g id="node5" class="node"><title>Node47</title>
<g id="a_node5"><a xlink:href="classCoolBoard.html#ae6b5e1274d760462290192acea4adca8" target="_top" xlink:title="CoolBoard::offLineMode">
<polygon fill="white" stroke="black" points="428,-38.5 428,-57.5 550,-57.5 550,-38.5 428,-38.5"/>
<text text-anchor="middle" x="489" y="-45.5" font-family="Helvetica,sans-Serif" font-size="10.00">CoolBoard::offLineMode</text>
</a>
</g>
</g>
<!-- Node43&#45;&gt;Node47 -->
<g id="edge8" class="edge"><title>Node43&#45;&gt;Node47</title>
<path fill="none" stroke="midnightblue" d="M102.126,-64.625C185.229,-61.0446 341.992,-54.2906 427.919,-50.5885"/>
<polygon fill="midnightblue" stroke="midnightblue" points="101.962,-61.1287 92.1223,-65.056 102.264,-68.1222 101.962,-61.1287"/>
</g>
<!-- Node48 -->
<g id="node6" class="node"><title>Node48</title>
<g id="a_node6"><a xlink:href="classCoolBoard.html#ad7442cf4b62c7b0d5bd62a0f75ffc065" target="_top" xlink:title="CoolBoard::isConnected">
<polygon fill="white" stroke="black" points="269,-0.5 269,-19.5 392,-19.5 392,-0.5 269,-0.5"/>
<text text-anchor="middle" x="330.5" y="-7.5" font-family="Helvetica,sans-Serif" font-size="10.00">CoolBoard::isConnected</text>
</a>
</g>
</g>
<!-- Node43&#45;&gt;Node48 -->
<g id="edge6" class="edge"><title>Node43&#45;&gt;Node48</title>
<path fill="none" stroke="midnightblue" d="M75.5173,-53.1858C90.7547,-46.3724 110.03,-38.6405 128,-34 174.391,-22.0204 228.36,-15.9957 268.763,-12.9797"/>
<polygon fill="midnightblue" stroke="midnightblue" points="73.77,-50.1367 66.1415,-57.4889 76.6899,-56.4986 73.77,-50.1367"/>
</g>
<!-- Node44&#45;&gt;Node45 -->
<g id="edge2" class="edge"><title>Node44&#45;&gt;Node45</title>
<path fill="none" stroke="midnightblue" d="M228.673,-111.888C249.286,-106.596 273.109,-100.479 292.422,-95.5201"/>
<polygon fill="midnightblue" stroke="midnightblue" points="227.662,-108.534 218.847,-114.411 229.403,-115.314 227.662,-108.534"/>
</g>
<!-- Node46 -->
<g id="node4" class="node"><title>Node46</title>
<g id="a_node4"><a xlink:href="classCoolBoard.html#acba7c5aef7268b2c0044bdb54d3b9d76" target="_top" xlink:title="CoolBoard::begin">
<polygon fill="white" stroke="black" points="443,-76.5 443,-95.5 535,-95.5 535,-76.5 443,-76.5"/>
<text text-anchor="middle" x="489" y="-83.5" font-family="Helvetica,sans-Serif" font-size="10.00">CoolBoard::begin</text>
</a>
</g>
</g>
<!-- Node45&#45;&gt;Node46 -->
<g id="edge3" class="edge"><title>Node45&#45;&gt;Node46</title>
<path fill="none" stroke="midnightblue" d="M392.592,-86C409.381,-86 427.278,-86 442.982,-86"/>
<polygon fill="midnightblue" stroke="midnightblue" points="392.311,-82.5001 382.311,-86 392.311,-89.5001 392.311,-82.5001"/>
</g>
<!-- Node45&#45;&gt;Node47 -->
<g id="edge4" class="edge"><title>Node45&#45;&gt;Node47</title>
<path fill="none" stroke="midnightblue" d="M380.789,-74.032C402.72,-68.7069 428.185,-62.5238 448.792,-57.5201"/>
<polygon fill="midnightblue" stroke="midnightblue" points="379.883,-70.6502 370.992,-76.411 381.535,-77.4525 379.883,-70.6502"/>
</g>
<!-- Node48&#45;&gt;Node47 -->
<g id="edge7" class="edge"><title>Node48&#45;&gt;Node47</title>
<path fill="none" stroke="midnightblue" d="M380.789,-21.968C402.72,-27.2931 428.185,-33.4762 448.792,-38.4799"/>
<polygon fill="midnightblue" stroke="midnightblue" points="381.535,-18.5475 370.992,-19.589 379.883,-25.3498 381.535,-18.5475"/>
</g>
</g>
</svg>
