<?xml version="1.0" encoding="UTF-8" standalone="no"?>
<!DOCTYPE svg PUBLIC "-//W3C//DTD SVG 1.1//EN"
 "http://www.w3.org/Graphics/SVG/1.1/DTD/svg11.dtd">
<!-- Generated by graphviz version 2.38.0 (20140413.2041)
 -->
<!-- Title: CoolBoard::onLineMode Pages: 1 -->
<svg width="851pt" height="847pt"
 viewBox="0.00 0.00 851.00 847.00" xmlns="http://www.w3.org/2000/svg" xmlns:xlink="http://www.w3.org/1999/xlink">
<g id="graph0" class="graph" transform="scale(1 1) rotate(0) translate(4 843)">
<title>CoolBoard::onLineMode</title>
<polygon fill="white" stroke="none" points="-4,4 -4,-843 847,-843 847,4 -4,4"/>
<!-- Node64 -->
<g id="node1" class="node"><title>Node64</title>
<polygon fill="#bfbfbf" stroke="black" points="0,-560.5 0,-579.5 121,-579.5 121,-560.5 0,-560.5"/>
<text text-anchor="middle" x="60.5" y="-567.5" font-family="Helvetica,sans-Serif" font-size="10.00">CoolBoard::onLineMode</text>
</g>
<!-- Node65 -->
<g id="node2" class="node"><title>Node65</title>
<g id="a_node2"><a xlink:href="classJetpack.html#a86d2e83436ef4b85f4c3a6e85ac785b0" target="_top" xlink:title="Jetpack::doAction">
<polygon fill="white" stroke="black" points="184,-800.5 184,-819.5 279,-819.5 279,-800.5 184,-800.5"/>
<text text-anchor="middle" x="231.5" y="-807.5" font-family="Helvetica,sans-Serif" font-size="10.00">Jetpack::doAction</text>
</a>
</g>
</g>
<!-- Node64&#45;&gt;Node65 -->
<g id="edge1" class="edge"><title>Node64&#45;&gt;Node65</title>
<path fill="none" stroke="midnightblue" d="M63.7131,-579.704C71.3499,-611.244 99.3528,-712.267 157,-772 166.937,-782.296 180.268,-790.333 192.849,-796.31"/>
<polygon fill="midnightblue" stroke="midnightblue" points="191.694,-799.626 202.254,-800.482 194.532,-793.228 191.694,-799.626"/>
</g>
<!-- Node67 -->
<g id="node4" class="node"><title>Node67</title>
<g id="a_node4"><a xlink:href="classCoolBoard.html#aaa24480b273fc095a1356a589c333781" target="_top" xlink:title="CoolBoard::getLogInterval">
<polygon fill="white" stroke="black" points="166.5,-743.5 166.5,-762.5 296.5,-762.5 296.5,-743.5 166.5,-743.5"/>
<text text-anchor="middle" x="231.5" y="-750.5" font-family="Helvetica,sans-Serif" font-size="10.00">CoolBoard::getLogInterval</text>
</a>
</g>
</g>
<!-- Node64&#45;&gt;Node67 -->
<g id="edge3" class="edge"><title>Node64&#45;&gt;Node67</title>
<path fill="none" stroke="midnightblue" d="M64.178,-579.53C72.6403,-607.832 101.582,-692.026 157,-734 159.494,-735.889 162.157,-737.59 164.936,-739.124"/>
<polygon fill="midnightblue" stroke="midnightblue" points="163.608,-742.367 174.145,-743.47 166.596,-736.037 163.608,-742.367"/>
</g>
<!-- Node68 -->
<g id="node5" class="node"><title>Node68</title>
<g id="a_node5"><a xlink:href="classCoolFileSystem.html#a5c58bca3735c0ed3efb268d70ef998ef" target="_top" xlink:title="CoolFileSystem::getSensor\lSavedData">
<polygon fill="white" stroke="black" points="163,-694 163,-724 300,-724 300,-694 163,-694"/>
<text text-anchor="start" x="171" y="-712" font-family="Helvetica,sans-Serif" font-size="10.00">CoolFileSystem::getSensor</text>
<text text-anchor="middle" x="231.5" y="-701" font-family="Helvetica,sans-Serif" font-size="10.00">SavedData</text>
</a>
</g>
</g>
<!-- Node64&#45;&gt;Node68 -->
<g id="edge4" class="edge"><title>Node64&#45;&gt;Node68</title>
<path fill="none" stroke="midnightblue" d="M67.0949,-579.789C80.0745,-601.651 114.401,-654.815 157,-684 159.867,-685.964 162.901,-687.786 166.041,-689.475"/>
<polygon fill="midnightblue" stroke="midnightblue" points="164.592,-692.662 175.116,-693.888 167.654,-686.367 164.592,-692.662"/>
</g>
<!-- Node69 -->
<g id="node6" class="node"><title>Node69</title>
<g id="a_node6"><a xlink:href="classCoolFileSystem.html#a5a7eaeea7a9fbf8aaef651d862fa3b5b" target="_top" xlink:title="CoolFileSystem::isDataSaved">
<polygon fill="white" stroke="black" points="157,-655.5 157,-674.5 306,-674.5 306,-655.5 157,-655.5"/>
<text text-anchor="middle" x="231.5" y="-662.5" font-family="Helvetica,sans-Serif" font-size="10.00">CoolFileSystem::isDataSaved</text>
</a>
</g>
</g>
<!-- Node64&#45;&gt;Node69 -->
<g id="edge5" class="edge"><title>Node64&#45;&gt;Node69</title>
<path fill="none" stroke="midnightblue" d="M71.9013,-579.544C88.6729,-594.495 123.237,-623.532 157,-641 165.318,-645.303 174.561,-649.044 183.607,-652.208"/>
<polygon fill="midnightblue" stroke="midnightblue" points="182.699,-655.594 193.292,-655.415 184.899,-648.949 182.699,-655.594"/>
</g>
<!-- Node70 -->
<g id="node7" class="node"><title>Node70</title>
<g id="a_node7"><a xlink:href="classCoolMQTT.html#aa5eaae967b562b62cbcf2b8d81f6e5d5" target="_top" xlink:title="CoolMQTT::mqttLoop">
<polygon fill="white" stroke="black" points="361.5,-781.5 361.5,-800.5 472.5,-800.5 472.5,-781.5 361.5,-781.5"/>
<text text-anchor="middle" x="417" y="-788.5" font-family="Helvetica,sans-Serif" font-size="10.00">CoolMQTT::mqttLoop</text>
</a>
</g>
</g>
<!-- Node64&#45;&gt;Node70 -->
<g id="edge6" class="edge"><title>Node64&#45;&gt;Node70</title>
<path fill="none" stroke="midnightblue" d="M82.4146,-579.564C101.548,-588.066 130.782,-600.441 157,-609 221.864,-630.176 256.917,-598.601 306,-646 347.895,-686.458 300.266,-731.377 342,-772 344.963,-774.884 348.301,-777.347 351.88,-779.45"/>
<polygon fill="midnightblue" stroke="midnightblue" points="350.668,-782.752 361.193,-783.966 353.723,-776.453 350.668,-782.752"/>
</g>
<!-- Node71 -->
<g id="node8" class="node"><title>Node71</title>
<g id="a_node8"><a xlink:href="classCoolMQTT.html#ace977b3e90ab14b1199fe5c4fb0a13ec" target="_top" xlink:title="CoolMQTT::publish">
<polygon fill="white" stroke="black" points="366.5,-743.5 366.5,-762.5 467.5,-762.5 467.5,-743.5 366.5,-743.5"/>
<text text-anchor="middle" x="417" y="-750.5" font-family="Helvetica,sans-Serif" font-size="10.00">CoolMQTT::publish</text>
</a>
</g>
</g>
<!-- Node64&#45;&gt;Node71 -->
<g id="edge7" class="edge"><title>Node64&#45;&gt;Node71</title>
<path fill="none" stroke="midnightblue" d="M121.007,-573.383C184.416,-578.187 279.292,-589.202 306,-613 347.89,-650.326 301.582,-695.084 342,-734 346.285,-738.126 351.339,-741.389 356.762,-743.965"/>
<polygon fill="midnightblue" stroke="midnightblue" points="355.579,-747.261 366.165,-747.684 358.153,-740.751 355.579,-747.261"/>
</g>
<!-- Node72 -->
<g id="node9" class="node"><title>Node72</title>
<g id="a_node9"><a xlink:href="classCoolMQTT.html#ae3c18f6ae9723746d32765f1c8f176ca" target="_top" xlink:title="CoolMQTT::read">
<polygon fill="white" stroke="black" points="187,-503.5 187,-522.5 276,-522.5 276,-503.5 187,-503.5"/>
<text text-anchor="middle" x="231.5" y="-510.5" font-family="Helvetica,sans-Serif" font-size="10.00">CoolMQTT::read</text>
</a>
</g>
</g>
<!-- Node64&#45;&gt;Node72 -->
<g id="edge8" class="edge"><title>Node64&#45;&gt;Node72</title>
<path fill="none" stroke="midnightblue" d="M83.2128,-560.452C102.385,-552.242 131.218,-540.425 157,-532 164.399,-529.582 172.297,-527.269 180.068,-525.14"/>
<polygon fill="midnightblue" stroke="midnightblue" points="181.036,-528.504 189.799,-522.549 179.235,-521.74 181.036,-528.504"/>
</g>
<!-- Node73 -->
<g id="node10" class="node"><title>Node73</title>
<g id="a_node10"><a xlink:href="classCoolBoard.html#ad03abdce2e65f520bbf2cff0f2d083cf" target="_top" xlink:title="CoolBoard::readSensors">
<polygon fill="white" stroke="black" points="170,-313.5 170,-332.5 293,-332.5 293,-313.5 170,-313.5"/>
<text text-anchor="middle" x="231.5" y="-320.5" font-family="Helvetica,sans-Serif" font-size="10.00">CoolBoard::readSensors</text>
</a>
</g>
</g>
<!-- Node64&#45;&gt;Node73 -->
<g id="edge9" class="edge"><title>Node64&#45;&gt;Node73</title>
<path fill="none" stroke="midnightblue" d="M68.125,-560.317C93.5229,-523.197 184.916,-389.623 218.235,-340.925"/>
<polygon fill="midnightblue" stroke="midnightblue" points="221.162,-342.845 223.921,-332.616 215.385,-338.892 221.162,-342.845"/>
</g>
<!-- Node84 -->
<g id="node21" class="node"><title>Node84</title>
<g id="a_node21"><a xlink:href="classCoolBoard.html#a5d0c8ff93b615efd676be432de9f164a" target="_top" xlink:title="CoolBoard::sleep">
<polygon fill="white" stroke="black" points="185.5,-275.5 185.5,-294.5 277.5,-294.5 277.5,-275.5 185.5,-275.5"/>
<text text-anchor="middle" x="231.5" y="-282.5" font-family="Helvetica,sans-Serif" font-size="10.00">CoolBoard::sleep</text>
</a>
</g>
</g>
<!-- Node64&#45;&gt;Node84 -->
<g id="edge22" class="edge"><title>Node64&#45;&gt;Node84</title>
<path fill="none" stroke="midnightblue" d="M61.8889,-560.28C63.9817,-521.564 77.0698,-376.915 157,-304 162.422,-299.054 168.964,-295.36 175.88,-292.608"/>
<polygon fill="midnightblue" stroke="midnightblue" points="177.095,-295.893 185.475,-289.411 174.882,-289.252 177.095,-295.893"/>
</g>
<!-- Node85 -->
<g id="node22" class="node"><title>Node85</title>
<g id="a_node22"><a xlink:href="classCoolTime.html#aae601f795452cfa48d9fb337aed483a8" target="_top" xlink:title="CoolTime::update">
<polygon fill="white" stroke="black" points="184.5,-143.5 184.5,-162.5 278.5,-162.5 278.5,-143.5 184.5,-143.5"/>
<text text-anchor="middle" x="231.5" y="-150.5" font-family="Helvetica,sans-Serif" font-size="10.00">CoolTime::update</text>
</a>
</g>
</g>
<!-- Node64&#45;&gt;Node85 -->
<g id="edge23" class="edge"><title>Node64&#45;&gt;Node85</title>
<path fill="none" stroke="midnightblue" d="M63.4992,-560.449C71.7236,-522.134 104.984,-376.336 157,-266 173.853,-230.252 200.456,-192.494 216.611,-170.934"/>
<polygon fill="midnightblue" stroke="midnightblue" points="219.574,-172.82 222.836,-162.739 214,-168.585 219.574,-172.82"/>
</g>
<!-- Node90 -->
<g id="node27" class="node"><title>Node90</title>
<g id="a_node27"><a xlink:href="classCoolBoard.html#a8612756d3f73198cdde857a66f0fe690" target="_top" xlink:title="CoolBoard::update">
<polygon fill="white" stroke="black" points="182.5,-541.5 182.5,-560.5 280.5,-560.5 280.5,-541.5 182.5,-541.5"/>
<text text-anchor="middle" x="231.5" y="-548.5" font-family="Helvetica,sans-Serif" font-size="10.00">CoolBoard::update</text>
</a>
</g>
</g>
<!-- Node64&#45;&gt;Node90 -->
<g id="edge28" class="edge"><title>Node64&#45;&gt;Node90</title>
<path fill="none" stroke="midnightblue" d="M121.083,-563.301C137.688,-561.434 155.703,-559.409 172.232,-557.551"/>
<polygon fill="midnightblue" stroke="midnightblue" points="172.759,-561.014 182.305,-556.418 171.977,-554.058 172.759,-561.014"/>
</g>
<!-- Node104 -->
<g id="node41" class="node"><title>Node104</title>
<g id="a_node41"><a xlink:href="classCoolBoard.html#ae7358fb6e623cfc81b775f5f1734909b" target="_top" xlink:title="CoolBoard::userData">
<polygon fill="white" stroke="black" points="177.5,-67.5 177.5,-86.5 285.5,-86.5 285.5,-67.5 177.5,-67.5"/>
<text text-anchor="middle" x="231.5" y="-74.5" font-family="Helvetica,sans-Serif" font-size="10.00">CoolBoard::userData</text>
</a>
</g>
</g>
<!-- Node64&#45;&gt;Node104 -->
<g id="edge44" class="edge"><title>Node64&#45;&gt;Node104</title>
<path fill="none" stroke="midnightblue" d="M61.2823,-560.208C60.6275,-510.507 63.0583,-282.714 157,-134 168.246,-116.197 187.107,-101.741 202.907,-91.8413"/>
<polygon fill="midnightblue" stroke="midnightblue" points="204.982,-94.6789 211.775,-86.5484 201.394,-88.6681 204.982,-94.6789"/>
</g>
<!-- Node66 -->
<g id="node3" class="node"><title>Node66</title>
<g id="a_node3"><a xlink:href="classJetpack.html#a338f1af8cbc6504ac69b47c7328569b5" target="_top" xlink:title="Jetpack::write">
<polygon fill="white" stroke="black" points="378,-819.5 378,-838.5 456,-838.5 456,-819.5 378,-819.5"/>
<text text-anchor="middle" x="417" y="-826.5" font-family="Helvetica,sans-Serif" font-size="10.00">Jetpack::write</text>
</a>
</g>
</g>
<!-- Node65&#45;&gt;Node66 -->
<g id="edge2" class="edge"><title>Node65&#45;&gt;Node66</title>
<path fill="none" stroke="midnightblue" d="M279.28,-814.844C306.396,-817.651 340.476,-821.18 367.827,-824.012"/>
<polygon fill="midnightblue" stroke="midnightblue" points="367.644,-827.512 377.951,-825.06 368.365,-820.549 367.644,-827.512"/>
</g>
<!-- Node74 -->
<g id="node11" class="node"><title>Node74</title>
<g id="a_node11"><a xlink:href="classCoolBoardSensors.html#a91badb2539d91fda8679f2a597874c48" target="_top" xlink:title="CoolBoardSensors::read">
<polygon fill="white" stroke="black" points="355.5,-313.5 355.5,-332.5 478.5,-332.5 478.5,-313.5 355.5,-313.5"/>
<text text-anchor="middle" x="417" y="-320.5" font-family="Helvetica,sans-Serif" font-size="10.00">CoolBoardSensors::read</text>
</a>
</g>
</g>
<!-- Node73&#45;&gt;Node74 -->
<g id="edge10" class="edge"><title>Node73&#45;&gt;Node74</title>
<path fill="none" stroke="midnightblue" d="M293.093,-323C309.848,-323 328.177,-323 345.445,-323"/>
<polygon fill="midnightblue" stroke="midnightblue" points="345.47,-326.5 355.47,-323 345.47,-319.5 345.47,-326.5"/>
</g>
<!-- Node78 -->
<g id="node15" class="node"><title>Node78</title>
<g id="a_node15"><a xlink:href="classExternalSensors.html#a53177b81eca3be89508b5511ddcd00fc" target="_top" xlink:title="ExternalSensors::read">
<polygon fill="white" stroke="black" points="360.5,-275.5 360.5,-294.5 473.5,-294.5 473.5,-275.5 360.5,-275.5"/>
<text text-anchor="middle" x="417" y="-282.5" font-family="Helvetica,sans-Serif" font-size="10.00">ExternalSensors::read</text>
</a>
</g>
</g>
<!-- Node73&#45;&gt;Node78 -->
<g id="edge14" class="edge"><title>Node73&#45;&gt;Node78</title>
<path fill="none" stroke="midnightblue" d="M278.805,-313.411C303.456,-308.306 333.963,-301.989 359.945,-296.608"/>
<polygon fill="midnightblue" stroke="midnightblue" points="360.946,-299.975 370.028,-294.52 359.526,-293.121 360.946,-299.975"/>
</g>
<!-- Node79 -->
<g id="node16" class="node"><title>Node79</title>
<g id="a_node16"><a xlink:href="classIrene3000.html#a852a170feea994ea1df01c6b245b5d9a" target="_top" xlink:title="Irene3000::read">
<polygon fill="white" stroke="black" points="375,-218.5 375,-237.5 459,-237.5 459,-218.5 375,-218.5"/>
<text text-anchor="middle" x="417" y="-225.5" font-family="Helvetica,sans-Serif" font-size="10.00">Irene3000::read</text>
</a>
</g>
</g>
<!-- Node73&#45;&gt;Node79 -->
<g id="edge15" class="edge"><title>Node73&#45;&gt;Node79</title>
<path fill="none" stroke="midnightblue" d="M284.573,-313.451C292.041,-310.981 299.415,-307.882 306,-304 326.041,-292.185 323.387,-279.957 342,-266 354.552,-256.588 369.776,-248.321 383.145,-241.922"/>
<polygon fill="midnightblue" stroke="midnightblue" points="384.878,-244.977 392.486,-237.604 381.941,-238.623 384.878,-244.977"/>
</g>
<!-- Node75 -->
<g id="node12" class="node"><title>Node75</title>
<g id="a_node12"><a xlink:href="classCoolBoardSensors.html#acad6a8418c66d36868caca23c844ecb6" target="_top" xlink:title="CoolBoardSensors::initReadI2C">
<polygon fill="white" stroke="black" points="530.5,-361.5 530.5,-380.5 686.5,-380.5 686.5,-361.5 530.5,-361.5"/>
<text text-anchor="middle" x="608.5" y="-368.5" font-family="Helvetica,sans-Serif" font-size="10.00">CoolBoardSensors::initReadI2C</text>
</a>
</g>
</g>
<!-- Node74&#45;&gt;Node75 -->
<g id="edge11" class="edge"><title>Node74&#45;&gt;Node75</title>
<path fill="none" stroke="midnightblue" d="M455.683,-332.523C467.338,-335.51 480.211,-338.849 492,-342 508.043,-346.287 511.922,-347.847 528,-352 537.081,-354.346 546.772,-356.747 556.153,-359.018"/>
<polygon fill="midnightblue" stroke="midnightblue" points="555.626,-362.491 566.167,-361.423 557.261,-355.684 555.626,-362.491"/>
</g>
<!-- Node76 -->
<g id="node13" class="node"><title>Node76</title>
<g id="a_node13"><a xlink:href="classCoolBoardSensors.html#a6944b6ea7bce8e2fce1b434acfd9d5f3" target="_top" xlink:title="CoolBoardSensors::readVBat">
<polygon fill="white" stroke="black" points="536,-323.5 536,-342.5 681,-342.5 681,-323.5 536,-323.5"/>
<text text-anchor="middle" x="608.5" y="-330.5" font-family="Helvetica,sans-Serif" font-size="10.00">CoolBoardSensors::readVBat</text>
</a>
</g>
</g>
<!-- Node74&#45;&gt;Node76 -->
<g id="edge12" class="edge"><title>Node74&#45;&gt;Node76</title>
<path fill="none" stroke="midnightblue" d="M478.741,-326.205C493.66,-326.993 509.877,-327.848 525.611,-328.679"/>
<polygon fill="midnightblue" stroke="midnightblue" points="525.692,-332.188 535.862,-329.22 526.061,-325.197 525.692,-332.188"/>
</g>
<!-- Node77 -->
<g id="node14" class="node"><title>Node77</title>
<g id="a_node14"><a xlink:href="classCoolBoardSensors.html#a8761bff50373c485f4465c8db47d0633" target="_top" xlink:title="CoolBoardSensors::readMoisture">
<polygon fill="white" stroke="black" points="528,-285.5 528,-304.5 689,-304.5 689,-285.5 528,-285.5"/>
<text text-anchor="middle" x="608.5" y="-292.5" font-family="Helvetica,sans-Serif" font-size="10.00">CoolBoardSensors::readMoisture</text>
</a>
</g>
</g>
<!-- Node74&#45;&gt;Node77 -->
<g id="edge13" class="edge"><title>Node74&#45;&gt;Node77</title>
<path fill="none" stroke="midnightblue" d="M478.741,-314.025C496.096,-311.461 515.206,-308.637 533.271,-305.968"/>
<polygon fill="midnightblue" stroke="midnightblue" points="533.801,-309.428 543.182,-304.503 532.778,-302.503 533.801,-309.428"/>
</g>
<!-- Node80 -->
<g id="node17" class="node"><title>Node80</title>
<g id="a_node17"><a xlink:href="classIrene3000.html#a94ad40f281d83ad1be20bf1edd6fe802" target="_top" xlink:title="Irene3000::readTemp">
<polygon fill="white" stroke="black" points="554,-247.5 554,-266.5 663,-266.5 663,-247.5 554,-247.5"/>
<text text-anchor="middle" x="608.5" y="-254.5" font-family="Helvetica,sans-Serif" font-size="10.00">Irene3000::readTemp</text>
</a>
</g>
</g>
<!-- Node79&#45;&gt;Node80 -->
<g id="edge16" class="edge"><title>Node79&#45;&gt;Node80</title>
<path fill="none" stroke="midnightblue" d="M459.119,-234.293C483.841,-238.076 515.826,-242.971 543.766,-247.247"/>
<polygon fill="midnightblue" stroke="midnightblue" points="543.442,-250.738 553.856,-248.791 544.501,-243.818 543.442,-250.738"/>
</g>
<!-- Node82 -->
<g id="node19" class="node"><title>Node82</title>
<g id="a_node19"><a xlink:href="classIrene3000.html#abf3db725fabb0634ec889b32068a5eec" target="_top" xlink:title="Irene3000::readPh">
<polygon fill="white" stroke="black" points="560.5,-209.5 560.5,-228.5 656.5,-228.5 656.5,-209.5 560.5,-209.5"/>
<text text-anchor="middle" x="608.5" y="-216.5" font-family="Helvetica,sans-Serif" font-size="10.00">Irene3000::readPh</text>
</a>
</g>
</g>
<!-- Node79&#45;&gt;Node82 -->
<g id="edge18" class="edge"><title>Node79&#45;&gt;Node82</title>
<path fill="none" stroke="midnightblue" d="M459.119,-226.047C485.799,-224.78 520.939,-223.111 550.325,-221.715"/>
<polygon fill="midnightblue" stroke="midnightblue" points="550.633,-225.205 560.456,-221.234 550.301,-218.213 550.633,-225.205"/>
</g>
<!-- Node83 -->
<g id="node20" class="node"><title>Node83</title>
<g id="a_node20"><a xlink:href="classIrene3000.html#ae73bd2ed14a199a7e83f4d6458476a7c" target="_top" xlink:title="Irene3000::readADSChannel2">
<polygon fill="white" stroke="black" points="535.5,-171.5 535.5,-190.5 681.5,-190.5 681.5,-171.5 535.5,-171.5"/>
<text text-anchor="middle" x="608.5" y="-178.5" font-family="Helvetica,sans-Serif" font-size="10.00">Irene3000::readADSChannel2</text>
</a>
</g>
</g>
<!-- Node79&#45;&gt;Node83 -->
<g id="edge20" class="edge"><title>Node79&#45;&gt;Node83</title>
<path fill="none" stroke="midnightblue" d="M454.884,-218.468C476.225,-212.988 503.606,-206.019 528,-200 537.407,-197.679 547.452,-195.244 557.125,-192.921"/>
<polygon fill="midnightblue" stroke="midnightblue" points="558.118,-196.283 567.029,-190.551 556.488,-189.475 558.118,-196.283"/>
</g>
<!-- Node81 -->
<g id="node18" class="node"><title>Node81</title>
<g id="a_node18"><a xlink:href="classIrene3000.html#aff7c5da186b388e7272e63ff88a20c34" target="_top" xlink:title="Irene3000::setGain">
<polygon fill="white" stroke="black" points="734.5,-209.5 734.5,-228.5 833.5,-228.5 833.5,-209.5 734.5,-209.5"/>
<text text-anchor="middle" x="784" y="-216.5" font-family="Helvetica,sans-Serif" font-size="10.00">Irene3000::setGain</text>
</a>
</g>
</g>
<!-- Node80&#45;&gt;Node81 -->
<g id="edge17" class="edge"><title>Node80&#45;&gt;Node81</title>
<path fill="none" stroke="midnightblue" d="M653.281,-247.411C676.486,-242.329 705.178,-236.045 729.673,-230.68"/>
<polygon fill="midnightblue" stroke="midnightblue" points="730.514,-234.079 739.533,-228.52 729.016,-227.241 730.514,-234.079"/>
</g>
<!-- Node82&#45;&gt;Node81 -->
<g id="edge19" class="edge"><title>Node82&#45;&gt;Node81</title>
<path fill="none" stroke="midnightblue" d="M656.91,-219C677.697,-219 702.308,-219 724.245,-219"/>
<polygon fill="midnightblue" stroke="midnightblue" points="724.44,-222.5 734.44,-219 724.44,-215.5 724.44,-222.5"/>
</g>
<!-- Node83&#45;&gt;Node81 -->
<g id="edge21" class="edge"><title>Node83&#45;&gt;Node81</title>
<path fill="none" stroke="midnightblue" d="M653.281,-190.589C676.486,-195.671 705.178,-201.955 729.673,-207.32"/>
<polygon fill="midnightblue" stroke="midnightblue" points="729.016,-210.759 739.533,-209.48 730.514,-203.921 729.016,-210.759"/>
</g>
<!-- Node86 -->
<g id="node23" class="node"><title>Node86</title>
<g id="a_node23"><a xlink:href="classCoolTime.html#a5ae038a4498602b189f76a10bf02adf8" target="_top" xlink:title="CoolTime::isTimeSync">
<polygon fill="white" stroke="black" points="359,-143.5 359,-162.5 475,-162.5 475,-143.5 359,-143.5"/>
<text text-anchor="middle" x="417" y="-150.5" font-family="Helvetica,sans-Serif" font-size="10.00">CoolTime::isTimeSync</text>
</a>
</g>
</g>
<!-- Node85&#45;&gt;Node86 -->
<g id="edge24" class="edge"><title>Node85&#45;&gt;Node86</title>
<path fill="none" stroke="midnightblue" d="M278.805,-153C299.984,-153 325.486,-153 348.727,-153"/>
<polygon fill="midnightblue" stroke="midnightblue" points="348.875,-156.5 358.875,-153 348.875,-149.5 348.875,-156.5"/>
</g>
<!-- Node88 -->
<g id="node25" class="node"><title>Node88</title>
<g id="a_node25"><a xlink:href="classCoolTime.html#a41fbbbfd651c2079f54d4b2911e4c705" target="_top" xlink:title="CoolTime::getNtpTime">
<polygon fill="white" stroke="black" points="359,-105.5 359,-124.5 475,-124.5 475,-105.5 359,-105.5"/>
<text text-anchor="middle" x="417" y="-112.5" font-family="Helvetica,sans-Serif" font-size="10.00">CoolTime::getNtpTime</text>
</a>
</g>
</g>
<!-- Node85&#45;&gt;Node88 -->
<g id="edge26" class="edge"><title>Node85&#45;&gt;Node88</title>
<path fill="none" stroke="midnightblue" d="M278.805,-143.411C303.456,-138.306 333.963,-131.989 359.945,-126.608"/>
<polygon fill="midnightblue" stroke="midnightblue" points="360.946,-129.975 370.028,-124.52 359.526,-123.121 360.946,-129.975"/>
</g>
<!-- Node87 -->
<g id="node24" class="node"><title>Node87</title>
<g id="a_node24"><a xlink:href="classCoolTime.html#a5d17f707a9d337720493b2bce9d41c21" target="_top" xlink:title="CoolTime::getLastSyncTime">
<polygon fill="white" stroke="black" points="538,-133.5 538,-152.5 679,-152.5 679,-133.5 538,-133.5"/>
<text text-anchor="middle" x="608.5" y="-140.5" font-family="Helvetica,sans-Serif" font-size="10.00">CoolTime::getLastSyncTime</text>
</a>
</g>
</g>
<!-- Node86&#45;&gt;Node87 -->
<g id="edge25" class="edge"><title>Node86&#45;&gt;Node87</title>
<path fill="none" stroke="midnightblue" d="M475.113,-149.986C491.602,-149.116 509.907,-148.15 527.514,-147.221"/>
<polygon fill="midnightblue" stroke="midnightblue" points="527.98,-150.701 537.782,-146.679 527.611,-143.711 527.98,-150.701"/>
</g>
<!-- Node89 -->
<g id="node26" class="node"><title>Node89</title>
<g id="a_node26"><a xlink:href="classCoolTime.html#a236a38d120dc53bc67456d763838c5a1" target="_top" xlink:title="CoolTime::sendNTPpacket">
<polygon fill="white" stroke="black" points="541,-95.5 541,-114.5 676,-114.5 676,-95.5 541,-95.5"/>
<text text-anchor="middle" x="608.5" y="-102.5" font-family="Helvetica,sans-Serif" font-size="10.00">CoolTime::sendNTPpacket</text>
</a>
</g>
</g>
<!-- Node88&#45;&gt;Node89 -->
<g id="edge27" class="edge"><title>Node88&#45;&gt;Node89</title>
<path fill="none" stroke="midnightblue" d="M475.113,-111.986C492.584,-111.064 512.093,-110.035 530.651,-109.055"/>
<polygon fill="midnightblue" stroke="midnightblue" points="531.043,-112.54 540.845,-108.517 530.674,-105.549 531.043,-112.54"/>
</g>
<!-- Node90&#45;&gt;Node70 -->
<g id="edge43" class="edge"><title>Node90&#45;&gt;Node70</title>
<path fill="none" stroke="midnightblue" d="M249.268,-560.593C266.248,-571.203 291.948,-589.893 306,-613 343.647,-674.907 291.506,-720.037 342,-772 345.016,-775.103 348.465,-777.724 352.187,-779.936"/>
<polygon fill="midnightblue" stroke="midnightblue" points="350.774,-783.141 361.296,-784.385 353.847,-776.851 350.774,-783.141"/>
</g>
<!-- Node90&#45;&gt;Node71 -->
<g id="edge42" class="edge"><title>Node90&#45;&gt;Node71</title>
<path fill="none" stroke="midnightblue" d="M280.602,-558.867C290.103,-562.417 299.22,-567.558 306,-575 354.798,-628.559 291.506,-682.037 342,-734 346.204,-738.327 351.251,-741.716 356.707,-744.364"/>
<polygon fill="midnightblue" stroke="midnightblue" points="355.616,-747.697 366.201,-748.155 358.212,-741.196 355.616,-747.697"/>
</g>
<!-- Node91 -->
<g id="node28" class="node"><title>Node91</title>
<g id="a_node28"><a xlink:href="classCoolFileSystem.html#a32dad79ae80182a83e2e8f52286b7c7b" target="_top" xlink:title="CoolFileSystem::updateConfig\lFiles">
<polygon fill="white" stroke="black" points="342,-694 342,-724 492,-724 492,-694 342,-694"/>
<text text-anchor="start" x="350" y="-712" font-family="Helvetica,sans-Serif" font-size="10.00">CoolFileSystem::updateConfig</text>
<text text-anchor="middle" x="417" y="-701" font-family="Helvetica,sans-Serif" font-size="10.00">Files</text>
</a>
</g>
</g>
<!-- Node90&#45;&gt;Node91 -->
<g id="edge29" class="edge"><title>Node90&#45;&gt;Node91</title>
<path fill="none" stroke="midnightblue" d="M280.839,-559.654C290.1,-563.159 299.059,-568.083 306,-575 342.136,-611.014 306.048,-647.802 342,-684 343.433,-685.443 344.953,-686.803 346.543,-688.085"/>
<polygon fill="midnightblue" stroke="midnightblue" points="344.784,-691.121 355.019,-693.86 348.726,-685.336 344.784,-691.121"/>
</g>
<!-- Node92 -->
<g id="node29" class="node"><title>Node92</title>
<g id="a_node29"><a xlink:href="classCoolBoard.html#a583a874c09c07e70a6eb9229fc4beddb" target="_top" xlink:title="CoolBoard::config">
<polygon fill="white" stroke="black" points="369.5,-655.5 369.5,-674.5 464.5,-674.5 464.5,-655.5 369.5,-655.5"/>
<text text-anchor="middle" x="417" y="-662.5" font-family="Helvetica,sans-Serif" font-size="10.00">CoolBoard::config</text>
</a>
</g>
</g>
<!-- Node90&#45;&gt;Node92 -->
<g id="edge30" class="edge"><title>Node90&#45;&gt;Node92</title>
<path fill="none" stroke="midnightblue" d="M280.455,-560.625C289.637,-564.06 298.662,-568.711 306,-575 332.864,-598.024 314.41,-623.852 342,-646 347.282,-650.24 353.4,-653.544 359.812,-656.118"/>
<polygon fill="midnightblue" stroke="midnightblue" points="358.758,-659.456 369.353,-659.389 361.028,-652.835 358.758,-659.456"/>
</g>
<!-- Node94 -->
<g id="node31" class="node"><title>Node94</title>
<g id="a_node31"><a xlink:href="classCoolBoardSensors.html#a9a218895c5423375c33c08f2c56fb23a" target="_top" xlink:title="CoolBoardSensors::config">
<polygon fill="white" stroke="black" points="351.5,-617.5 351.5,-636.5 482.5,-636.5 482.5,-617.5 351.5,-617.5"/>
<text text-anchor="middle" x="417" y="-624.5" font-family="Helvetica,sans-Serif" font-size="10.00">CoolBoardSensors::config</text>
</a>
</g>
</g>
<!-- Node90&#45;&gt;Node94 -->
<g id="edge32" class="edge"><title>Node90&#45;&gt;Node94</title>
<path fill="none" stroke="midnightblue" d="M272.357,-560.62C283.658,-564.236 295.685,-568.973 306,-575 324.741,-585.95 322.917,-597.658 342,-608 346.224,-610.289 350.733,-612.311 355.364,-614.095"/>
<polygon fill="midnightblue" stroke="midnightblue" points="354.39,-617.461 364.985,-617.433 356.684,-610.848 354.39,-617.461"/>
</g>
<!-- Node95 -->
<g id="node32" class="node"><title>Node95</title>
<g id="a_node32"><a xlink:href="classCoolTime.html#a87c28260c1bc77091162cbcf1ee2e129" target="_top" xlink:title="CoolTime::config">
<polygon fill="white" stroke="black" points="371.5,-579.5 371.5,-598.5 462.5,-598.5 462.5,-579.5 371.5,-579.5"/>
<text text-anchor="middle" x="417" y="-586.5" font-family="Helvetica,sans-Serif" font-size="10.00">CoolTime::config</text>
</a>
</g>
</g>
<!-- Node90&#45;&gt;Node95 -->
<g id="edge33" class="edge"><title>Node90&#45;&gt;Node95</title>
<path fill="none" stroke="midnightblue" d="M278.805,-560.589C303.942,-565.794 335.167,-572.261 361.475,-577.709"/>
<polygon fill="midnightblue" stroke="midnightblue" points="360.792,-581.142 371.294,-579.742 362.212,-574.287 360.792,-581.142"/>
</g>
<!-- Node96 -->
<g id="node33" class="node"><title>Node96</title>
<g id="a_node33"><a xlink:href="classCoolBoardLed.html#a1b60e5e30bea96c49ed62ed1bf1ffc8b" target="_top" xlink:title="CoolBoardLed::config">
<polygon fill="white" stroke="black" points="362,-541.5 362,-560.5 472,-560.5 472,-541.5 362,-541.5"/>
<text text-anchor="middle" x="417" y="-548.5" font-family="Helvetica,sans-Serif" font-size="10.00">CoolBoardLed::config</text>
</a>
</g>
</g>
<!-- Node90&#45;&gt;Node96 -->
<g id="edge34" class="edge"><title>Node90&#45;&gt;Node96</title>
<path fill="none" stroke="midnightblue" d="M280.712,-551C302.45,-551 328.431,-551 351.789,-551"/>
<polygon fill="midnightblue" stroke="midnightblue" points="351.964,-554.5 361.964,-551 351.963,-547.5 351.964,-554.5"/>
</g>
<!-- Node97 -->
<g id="node34" class="node"><title>Node97</title>
<g id="a_node34"><a xlink:href="classCoolMQTT.html#a9b703de4f1358f0ee7a5e8c44979c648" target="_top" xlink:title="CoolMQTT::config">
<polygon fill="white" stroke="black" points="368.5,-503.5 368.5,-522.5 465.5,-522.5 465.5,-503.5 368.5,-503.5"/>
<text text-anchor="middle" x="417" y="-510.5" font-family="Helvetica,sans-Serif" font-size="10.00">CoolMQTT::config</text>
</a>
</g>
</g>
<!-- Node90&#45;&gt;Node97 -->
<g id="edge35" class="edge"><title>Node90&#45;&gt;Node97</title>
<path fill="none" stroke="midnightblue" d="M278.805,-541.411C303.456,-536.306 333.963,-529.989 359.945,-524.608"/>
<polygon fill="midnightblue" stroke="midnightblue" points="360.946,-527.975 370.028,-522.52 359.526,-521.121 360.946,-527.975"/>
</g>
<!-- Node98 -->
<g id="node35" class="node"><title>Node98</title>
<g id="a_node35"><a xlink:href="classJetpack.html#ab065ee83e244265a2223a22f3ee4a719" target="_top" xlink:title="Jetpack::config">
<polygon fill="white" stroke="black" points="375.5,-465.5 375.5,-484.5 458.5,-484.5 458.5,-465.5 375.5,-465.5"/>
<text text-anchor="middle" x="417" y="-472.5" font-family="Helvetica,sans-Serif" font-size="10.00">Jetpack::config</text>
</a>
</g>
</g>
<!-- Node90&#45;&gt;Node98 -->
<g id="edge36" class="edge"><title>Node90&#45;&gt;Node98</title>
<path fill="none" stroke="midnightblue" d="M280.706,-542.674C289.475,-540.026 298.279,-536.552 306,-532 326.041,-520.185 321.949,-505.799 342,-494 349.152,-489.792 357.228,-486.505 365.349,-483.942"/>
<polygon fill="midnightblue" stroke="midnightblue" points="366.543,-487.242 375.218,-481.16 364.644,-480.504 366.543,-487.242"/>
</g>
<!-- Node99 -->
<g id="node36" class="node"><title>Node99</title>
<g id="a_node36"><a xlink:href="classIrene3000.html#afed5c35e4b23963c157847ef27c11e9c" target="_top" xlink:title="Irene3000::config">
<polygon fill="white" stroke="black" points="371,-427.5 371,-446.5 463,-446.5 463,-427.5 371,-427.5"/>
<text text-anchor="middle" x="417" y="-434.5" font-family="Helvetica,sans-Serif" font-size="10.00">Irene3000::config</text>
</a>
</g>
</g>
<!-- Node90&#45;&gt;Node99 -->
<g id="edge37" class="edge"><title>Node90&#45;&gt;Node99</title>
<path fill="none" stroke="midnightblue" d="M280.875,-544.914C289.921,-542.078 298.787,-537.962 306,-532 334.809,-508.189 313.171,-479.787 342,-456 347.627,-451.357 354.252,-447.832 361.186,-445.159"/>
<polygon fill="midnightblue" stroke="midnightblue" points="362.357,-448.459 370.769,-442.017 360.176,-441.807 362.357,-448.459"/>
</g>
<!-- Node101 -->
<g id="node38" class="node"><title>Node101</title>
<g id="a_node38"><a xlink:href="classExternalSensors.html#a862a4bd11346b37270d0244c2adabe5a" target="_top" xlink:title="ExternalSensors::config">
<polygon fill="white" stroke="black" points="356.5,-389.5 356.5,-408.5 477.5,-408.5 477.5,-389.5 356.5,-389.5"/>
<text text-anchor="middle" x="417" y="-396.5" font-family="Helvetica,sans-Serif" font-size="10.00">ExternalSensors::config</text>
</a>
</g>
</g>
<!-- Node90&#45;&gt;Node101 -->
<g id="edge39" class="edge"><title>Node90&#45;&gt;Node101</title>
<path fill="none" stroke="midnightblue" d="M280.777,-545.904C290.043,-543.011 299.019,-538.621 306,-532 344.551,-495.436 303.419,-454.532 342,-418 343.682,-416.407 345.48,-414.943 347.369,-413.597"/>
<polygon fill="midnightblue" stroke="midnightblue" points="349.316,-416.513 356.163,-408.428 345.769,-410.478 349.316,-416.513"/>
</g>
<!-- Node102 -->
<g id="node39" class="node"><title>Node102</title>
<g id="a_node39"><a xlink:href="classCoolMQTT.html#ac9248808641ebf3054ed0620ea9d0100" target="_top" xlink:title="CoolMQTT::begin">
<polygon fill="white" stroke="black" points="370,-351.5 370,-370.5 464,-370.5 464,-351.5 370,-351.5"/>
<text text-anchor="middle" x="417" y="-358.5" font-family="Helvetica,sans-Serif" font-size="10.00">CoolMQTT::begin</text>
</a>
</g>
</g>
<!-- Node90&#45;&gt;Node102 -->
<g id="edge40" class="edge"><title>Node90&#45;&gt;Node102</title>
<path fill="none" stroke="midnightblue" d="M280.776,-546.408C290.153,-543.493 299.174,-538.967 306,-532 354.587,-482.411 293.372,-429.549 342,-380 347.11,-374.793 353.44,-370.947 360.23,-368.117"/>
<polygon fill="midnightblue" stroke="midnightblue" points="361.387,-371.42 369.702,-364.855 359.107,-364.801 361.387,-371.42"/>
</g>
<!-- Node93 -->
<g id="node30" class="node"><title>Node93</title>
<g id="a_node30"><a xlink:href="classCoolFileSystem.html#a6ba6f666ed4c530174f8569d2c636748" target="_top" xlink:title="CoolFileSystem::begin">
<polygon fill="white" stroke="black" points="550.5,-655.5 550.5,-674.5 666.5,-674.5 666.5,-655.5 550.5,-655.5"/>
<text text-anchor="middle" x="608.5" y="-662.5" font-family="Helvetica,sans-Serif" font-size="10.00">CoolFileSystem::begin</text>
</a>
</g>
</g>
<!-- Node92&#45;&gt;Node93 -->
<g id="edge31" class="edge"><title>Node92&#45;&gt;Node93</title>
<path fill="none" stroke="midnightblue" d="M464.843,-665C487.577,-665 515.304,-665 540.248,-665"/>
<polygon fill="midnightblue" stroke="midnightblue" points="540.379,-668.5 550.379,-665 540.379,-661.5 540.379,-668.5"/>
</g>
<!-- Node100 -->
<g id="node37" class="node"><title>Node100</title>
<g id="a_node37"><a xlink:href="classIrene3000.html#abcad62d1201a59f8dd3ba87048002728" target="_top" xlink:title="Irene3000::gainConvert">
<polygon fill="white" stroke="black" points="549.5,-437.5 549.5,-456.5 667.5,-456.5 667.5,-437.5 549.5,-437.5"/>
<text text-anchor="middle" x="608.5" y="-444.5" font-family="Helvetica,sans-Serif" font-size="10.00">Irene3000::gainConvert</text>
</a>
</g>
</g>
<!-- Node99&#45;&gt;Node100 -->
<g id="edge38" class="edge"><title>Node99&#45;&gt;Node100</title>
<path fill="none" stroke="midnightblue" d="M463.39,-439.395C486.006,-440.589 513.826,-442.057 538.973,-443.384"/>
<polygon fill="midnightblue" stroke="midnightblue" points="539.023,-446.891 549.193,-443.923 539.392,-439.901 539.023,-446.891"/>
</g>
<!-- Node103 -->
<g id="node40" class="node"><title>Node103</title>
<g id="a_node40"><a xlink:href="classCoolMQTT.html#a30d82ad665bfb603f46ecdbc290775df" target="_top" xlink:title="CoolMQTT::callback">
<polygon fill="white" stroke="black" points="555,-399.5 555,-418.5 662,-418.5 662,-399.5 555,-399.5"/>
<text text-anchor="middle" x="608.5" y="-406.5" font-family="Helvetica,sans-Serif" font-size="10.00">CoolMQTT::callback</text>
</a>
</g>
</g>
<!-- Node102&#45;&gt;Node103 -->
<g id="edge41" class="edge"><title>Node102&#45;&gt;Node103</title>
<path fill="none" stroke="midnightblue" d="M455.683,-370.523C467.338,-373.51 480.211,-376.849 492,-380 508.043,-384.287 511.922,-385.847 528,-390 537.081,-392.346 546.772,-394.747 556.153,-397.018"/>
<polygon fill="midnightblue" stroke="midnightblue" points="555.626,-400.491 566.167,-399.423 557.261,-393.684 555.626,-400.491"/>
</g>
<!-- Node105 -->
<g id="node42" class="node"><title>Node105</title>
<g id="a_node42"><a xlink:href="classCoolMQTT.html#a373cc92fca7760d886f02d8a6e5b3f63" target="_top" xlink:title="CoolMQTT::getUser">
<polygon fill="white" stroke="black" points="364.5,-67.5 364.5,-86.5 469.5,-86.5 469.5,-67.5 364.5,-67.5"/>
<text text-anchor="middle" x="417" y="-74.5" font-family="Helvetica,sans-Serif" font-size="10.00">CoolMQTT::getUser</text>
</a>
</g>
</g>
<!-- Node104&#45;&gt;Node105 -->
<g id="edge45" class="edge"><title>Node104&#45;&gt;Node105</title>
<path fill="none" stroke="midnightblue" d="M285.576,-77C307.055,-77 331.995,-77 354.279,-77"/>
<polygon fill="midnightblue" stroke="midnightblue" points="354.309,-80.5001 364.309,-77 354.309,-73.5001 354.309,-80.5001"/>
</g>
<!-- Node106 -->
<g id="node43" class="node"><title>Node106</title>
<g id="a_node43"><a xlink:href="classCoolTime.html#ac4f32ee513c1328d984306645e8785a4" target="_top" xlink:title="CoolTime::getESDate">
<polygon fill="white" stroke="black" points="360.5,-29.5 360.5,-48.5 473.5,-48.5 473.5,-29.5 360.5,-29.5"/>
<text text-anchor="middle" x="417" y="-36.5" font-family="Helvetica,sans-Serif" font-size="10.00">CoolTime::getESDate</text>
</a>
</g>
</g>
<!-- Node104&#45;&gt;Node106 -->
<g id="edge46" class="edge"><title>Node104&#45;&gt;Node106</title>
<path fill="none" stroke="midnightblue" d="M278.805,-67.411C303.456,-62.3061 333.963,-55.9887 359.945,-50.6082"/>
<polygon fill="midnightblue" stroke="midnightblue" points="360.946,-53.9752 370.028,-48.5201 359.526,-47.1207 360.946,-53.9752"/>
</g>
<!-- Node107 -->
<g id="node44" class="node"><title>Node107</title>
<g id="a_node44"><a xlink:href="classCoolTime.html#a7a7501c5ca77dd1248bea704c44f986c" target="_top" xlink:title="CoolTime::getTimeDate">
<polygon fill="white" stroke="black" points="548,-0.5 548,-19.5 669,-19.5 669,-0.5 548,-0.5"/>
<text text-anchor="middle" x="608.5" y="-7.5" font-family="Helvetica,sans-Serif" font-size="10.00">CoolTime::getTimeDate</text>
</a>
</g>
</g>
<!-- Node106&#45;&gt;Node107 -->
<g id="edge47" class="edge"><title>Node106&#45;&gt;Node107</title>
<path fill="none" stroke="midnightblue" d="M473.576,-30.495C493.752,-27.4074 516.804,-23.8796 538.03,-20.6313"/>
<polygon fill="midnightblue" stroke="midnightblue" points="538.603,-24.0844 547.958,-19.1119 537.544,-17.165 538.603,-24.0844"/>
</g>
<!-- Node108 -->
<g id="node45" class="node"><title>Node108</title>
<g id="a_node45"><a xlink:href="classCoolTime.html#acd537cd4210d7bde4e1f5c47d2ac0456" target="_top" xlink:title="CoolTime::formatDigits">
<polygon fill="white" stroke="black" points="725,-19.5 725,-38.5 843,-38.5 843,-19.5 725,-19.5"/>
<text text-anchor="middle" x="784" y="-26.5" font-family="Helvetica,sans-Serif" font-size="10.00">CoolTime::formatDigits</text>
</a>
</g>
</g>
<!-- Node106&#45;&gt;Node108 -->
<g id="edge49" class="edge"><title>Node106&#45;&gt;Node108</title>
<path fill="none" stroke="midnightblue" d="M473.833,-37.4703C538.416,-35.7009 644.76,-32.7874 714.343,-30.881"/>
<polygon fill="midnightblue" stroke="midnightblue" points="714.858,-34.3683 724.758,-30.5957 714.666,-27.3709 714.858,-34.3683"/>
</g>
<!-- Node107&#45;&gt;Node108 -->
<g id="edge48" class="edge"><title>Node107&#45;&gt;Node108</title>
<path fill="none" stroke="midnightblue" d="M669.209,-16.5387C683.863,-18.1435 699.661,-19.8736 714.686,-21.5189"/>
<polygon fill="midnightblue" stroke="midnightblue" points="714.619,-25.0324 724.941,-22.6419 715.381,-18.074 714.619,-25.0324"/>
</g>
</g>
</svg>
