<?xml version="1.0" encoding="UTF-8" standalone="no"?>
<!DOCTYPE svg PUBLIC "-//W3C//DTD SVG 1.1//EN"
 "http://www.w3.org/Graphics/SVG/1.1/DTD/svg11.dtd">
<!-- Generated by graphviz version 2.38.0 (20140413.2041)
 -->
<!-- Title: CoolMQTT::state Pages: 1 -->
<svg width="526pt" height="104pt"
 viewBox="0.00 0.00 526.00 104.00" xmlns="http://www.w3.org/2000/svg" xmlns:xlink="http://www.w3.org/1999/xlink">
<g id="graph0" class="graph" transform="scale(1 1) rotate(0) translate(4 100)">
<title>CoolMQTT::state</title>
<polygon fill="white" stroke="none" points="-4,4 -4,-100 522,-100 522,4 -4,4"/>
<!-- Node42 -->
<g id="node1" class="node"><title>Node42</title>
<polygon fill="#bfbfbf" stroke="black" points="0,-38.5 0,-57.5 92,-57.5 92,-38.5 0,-38.5"/>
<text text-anchor="middle" x="46" y="-45.5" font-family="Helvetica,sans-Serif" font-size="10.00">CoolMQTT::state</text>
</g>
<!-- Node43 -->
<g id="node2" class="node"><title>Node43</title>
<g id="a_node2"><a xlink:href="classCoolMQTT.html#a50075d0ab23a327ab897fd6adad20eda" target="_top" xlink:title="CoolMQTT::connect">
<polygon fill="white" stroke="black" points="137,-76.5 137,-95.5 242,-95.5 242,-76.5 137,-76.5"/>
<text text-anchor="middle" x="189.5" y="-83.5" font-family="Helvetica,sans-Serif" font-size="10.00">CoolMQTT::connect</text>
</a>
</g>
</g>
<!-- Node42&#45;&gt;Node43 -->
<g id="edge1" class="edge"><title>Node42&#45;&gt;Node43</title>
<path fill="none" stroke="midnightblue" d="M92.601,-60.2462C112.105,-65.484 134.54,-71.5091 152.805,-76.4141"/>
<polygon fill="midnightblue" stroke="midnightblue" points="93.272,-56.8025 82.7064,-57.589 91.4564,-63.5629 93.272,-56.8025"/>
</g>
<!-- Node44 -->
<g id="node3" class="node"><title>Node44</title>
<g id="a_node3"><a xlink:href="classCoolBoard.html#a519de78b807f8ec6463ff484eb925918" target="_top" xlink:title="CoolBoard::connect">
<polygon fill="white" stroke="black" points="287,-57.5 287,-76.5 390,-76.5 390,-57.5 287,-57.5"/>
<text text-anchor="middle" x="338.5" y="-64.5" font-family="Helvetica,sans-Serif" font-size="10.00">CoolBoard::connect</text>
</a>
</g>
</g>
<!-- Node42&#45;&gt;Node44 -->
<g id="edge4" class="edge"><title>Node42&#45;&gt;Node44</title>
<path fill="none" stroke="midnightblue" d="M102.349,-51.6201C155.587,-55.1021 235.381,-60.3209 286.947,-63.6936"/>
<polygon fill="midnightblue" stroke="midnightblue" points="102.279,-48.1081 92.0719,-50.9479 101.822,-55.0932 102.279,-48.1081"/>
</g>
<!-- Node46 -->
<g id="node5" class="node"><title>Node46</title>
<g id="a_node5"><a xlink:href="classCoolBoard.html#ad7442cf4b62c7b0d5bd62a0f75ffc065" target="_top" xlink:title="CoolBoard::isConnected">
<polygon fill="white" stroke="black" points="128,-0.5 128,-19.5 251,-19.5 251,-0.5 128,-0.5"/>
<text text-anchor="middle" x="189.5" y="-7.5" font-family="Helvetica,sans-Serif" font-size="10.00">CoolBoard::isConnected</text>
</a>
</g>
</g>
<!-- Node42&#45;&gt;Node46 -->
<g id="edge5" class="edge"><title>Node42&#45;&gt;Node46</title>
<path fill="none" stroke="midnightblue" d="M92.601,-35.7538C112.105,-30.516 134.54,-24.4909 152.805,-19.5859"/>
<polygon fill="midnightblue" stroke="midnightblue" points="91.4564,-32.4371 82.7064,-38.411 93.272,-39.1975 91.4564,-32.4371"/>
</g>
<!-- Node43&#45;&gt;Node44 -->
<g id="edge2" class="edge"><title>Node43&#45;&gt;Node44</title>
<path fill="none" stroke="midnightblue" d="M252.261,-78.0173C263.713,-76.5371 275.555,-75.0065 286.636,-73.5743"/>
<polygon fill="midnightblue" stroke="midnightblue" points="251.796,-74.5482 242.327,-79.3013 252.693,-81.4905 251.796,-74.5482"/>
</g>
<!-- Node45 -->
<g id="node4" class="node"><title>Node45</title>
<g id="a_node4"><a xlink:href="classCoolBoard.html#acba7c5aef7268b2c0044bdb54d3b9d76" target="_top" xlink:title="CoolBoard::begin">
<polygon fill="white" stroke="black" points="426,-57.5 426,-76.5 518,-76.5 518,-57.5 426,-57.5"/>
<text text-anchor="middle" x="472" y="-64.5" font-family="Helvetica,sans-Serif" font-size="10.00">CoolBoard::begin</text>
</a>
</g>
</g>
<!-- Node44&#45;&gt;Node45 -->
<g id="edge3" class="edge"><title>Node44&#45;&gt;Node45</title>
<path fill="none" stroke="midnightblue" d="M400.343,-67C408.937,-67 417.643,-67 425.87,-67"/>
<polygon fill="midnightblue" stroke="midnightblue" points="400.341,-63.5001 390.341,-67 400.341,-70.5001 400.341,-63.5001"/>
</g>
</g>
</svg>
