<?xml version="1.0" encoding="UTF-8" standalone="no"?>
<!DOCTYPE svg PUBLIC "-//W3C//DTD SVG 1.1//EN"
 "http://www.w3.org/Graphics/SVG/1.1/DTD/svg11.dtd">
<!-- Generated by graphviz version 2.38.0 (20140413.2041)
 -->
<!-- Title: CoolBoard::begin Pages: 1 -->
<svg width="643pt" height="826pt"
 viewBox="0.00 0.00 643.00 826.00" xmlns="http://www.w3.org/2000/svg" xmlns:xlink="http://www.w3.org/1999/xlink">
<g id="graph0" class="graph" transform="scale(1 1) rotate(0) translate(4 822)">
<title>CoolBoard::begin</title>
<polygon fill="white" stroke="none" points="-4,4 -4,-822 639,-822 639,4 -4,4"/>
<!-- Node0 -->
<g id="node1" class="node"><title>Node0</title>
<polygon fill="#bfbfbf" stroke="black" points="0,-399.5 0,-418.5 92,-418.5 92,-399.5 0,-399.5"/>
<text text-anchor="middle" x="46" y="-406.5" font-family="Helvetica,sans-Serif" font-size="10.00">CoolBoard::begin</text>
</g>
<!-- Node1 -->
<g id="node2" class="node"><title>Node1</title>
<g id="a_node2"><a xlink:href="classCoolFileSystem.html#a6ba6f666ed4c530174f8569d2c636748" target="_top" xlink:title="CoolFileSystem::begin">
<polygon fill="white" stroke="black" points="142,-798.5 142,-817.5 258,-817.5 258,-798.5 142,-798.5"/>
<text text-anchor="middle" x="200" y="-805.5" font-family="Helvetica,sans-Serif" font-size="10.00">CoolFileSystem::begin</text>
</a>
</g>
</g>
<!-- Node0&#45;&gt;Node1 -->
<g id="edge1" class="edge"><title>Node0&#45;&gt;Node1</title>
<path fill="none" stroke="midnightblue" d="M47.7106,-418.568C51.8655,-471.981 74.6936,-732.877 128,-789 129.606,-790.691 131.346,-792.238 133.19,-793.652"/>
<polygon fill="midnightblue" stroke="midnightblue" points="131.527,-796.739 141.869,-799.04 135.219,-790.792 131.527,-796.739"/>
</g>
<!-- Node2 -->
<g id="node3" class="node"><title>Node2</title>
<g id="a_node3"><a xlink:href="classCoolBoardLed.html#ae3cbde8affcc6f011cbd698c8ef911f6" target="_top" xlink:title="CoolBoardLed::begin">
<polygon fill="white" stroke="black" points="146.5,-760.5 146.5,-779.5 253.5,-779.5 253.5,-760.5 146.5,-760.5"/>
<text text-anchor="middle" x="200" y="-767.5" font-family="Helvetica,sans-Serif" font-size="10.00">CoolBoardLed::begin</text>
</a>
</g>
</g>
<!-- Node0&#45;&gt;Node2 -->
<g id="edge2" class="edge"><title>Node0&#45;&gt;Node2</title>
<path fill="none" stroke="midnightblue" d="M47.9555,-418.588C53.1469,-468.807 79.53,-701.108 128,-751 130.692,-753.771 133.741,-756.153 137.025,-758.198"/>
<polygon fill="midnightblue" stroke="midnightblue" points="135.681,-761.442 146.18,-762.863 138.859,-755.205 135.681,-761.442"/>
</g>
<!-- Node3 -->
<g id="node4" class="node"><title>Node3</title>
<g id="a_node4"><a xlink:href="classCoolMQTT.html#ac9248808641ebf3054ed0620ea9d0100" target="_top" xlink:title="CoolMQTT::begin">
<polygon fill="white" stroke="black" points="153,-722.5 153,-741.5 247,-741.5 247,-722.5 153,-722.5"/>
<text text-anchor="middle" x="200" y="-729.5" font-family="Helvetica,sans-Serif" font-size="10.00">CoolMQTT::begin</text>
</a>
</g>
</g>
<!-- Node0&#45;&gt;Node3 -->
<g id="edge3" class="edge"><title>Node0&#45;&gt;Node3</title>
<path fill="none" stroke="midnightblue" d="M48.2793,-418.747C54.6489,-465.841 84.3813,-669.334 128,-713 132.333,-717.338 137.54,-720.716 143.141,-723.343"/>
<polygon fill="midnightblue" stroke="midnightblue" points="142.265,-726.756 152.854,-727.091 144.785,-720.226 142.265,-726.756"/>
</g>
<!-- Node5 -->
<g id="node6" class="node"><title>Node5</title>
<g id="a_node6"><a xlink:href="classJetpack.html#a5a53e1ebf7aaf3bf3e0d37ea64ca09a7" target="_top" xlink:title="Jetpack::begin">
<polygon fill="white" stroke="black" points="160,-684.5 160,-703.5 240,-703.5 240,-684.5 160,-684.5"/>
<text text-anchor="middle" x="200" y="-691.5" font-family="Helvetica,sans-Serif" font-size="10.00">Jetpack::begin</text>
</a>
</g>
</g>
<!-- Node0&#45;&gt;Node5 -->
<g id="edge5" class="edge"><title>Node0&#45;&gt;Node5</title>
<path fill="none" stroke="midnightblue" d="M46.8253,-418.659C46.6792,-457.142 51.4596,-601.027 128,-675 134.133,-680.927 141.904,-685.055 150.039,-687.918"/>
<polygon fill="midnightblue" stroke="midnightblue" points="149.1,-691.29 159.681,-690.731 151.061,-684.57 149.1,-691.29"/>
</g>
<!-- Node6 -->
<g id="node7" class="node"><title>Node6</title>
<g id="a_node7"><a xlink:href="classExternalSensors.html#a58ede0d786a86417254708870f04a21e" target="_top" xlink:title="ExternalSensors::begin">
<polygon fill="white" stroke="black" points="141,-646.5 141,-665.5 259,-665.5 259,-646.5 141,-646.5"/>
<text text-anchor="middle" x="200" y="-653.5" font-family="Helvetica,sans-Serif" font-size="10.00">ExternalSensors::begin</text>
</a>
</g>
</g>
<!-- Node0&#45;&gt;Node6 -->
<g id="edge6" class="edge"><title>Node0&#45;&gt;Node6</title>
<path fill="none" stroke="midnightblue" d="M47.4035,-418.957C49.3922,-454.338 61.0212,-575.168 128,-637 129.714,-638.582 131.545,-640.036 133.468,-641.37"/>
<polygon fill="midnightblue" stroke="midnightblue" points="131.992,-644.558 142.409,-646.493 135.472,-638.484 131.992,-644.558"/>
</g>
<!-- Node8 -->
<g id="node9" class="node"><title>Node8</title>
<g id="a_node9"><a xlink:href="classCoolTime.html#a2b36c4009f083ece2d407fec077c4938" target="_top" xlink:title="CoolTime::begin">
<polygon fill="white" stroke="black" points="156,-608.5 156,-627.5 244,-627.5 244,-608.5 156,-608.5"/>
<text text-anchor="middle" x="200" y="-615.5" font-family="Helvetica,sans-Serif" font-size="10.00">CoolTime::begin</text>
</a>
</g>
</g>
<!-- Node0&#45;&gt;Node8 -->
<g id="edge8" class="edge"><title>Node0&#45;&gt;Node8</title>
<path fill="none" stroke="midnightblue" d="M48.1449,-418.603C52.3792,-449.728 70.0383,-548.71 128,-599 133.245,-603.551 139.469,-607.026 146.018,-609.676"/>
<polygon fill="midnightblue" stroke="midnightblue" points="145.176,-613.086 155.77,-612.999 147.433,-606.46 145.176,-613.086"/>
</g>
<!-- Node11 -->
<g id="node12" class="node"><title>Node11</title>
<g id="a_node12"><a xlink:href="classCoolBoardSensors.html#a97095823ef7c8f5290812f1405b966b3" target="_top" xlink:title="CoolBoardSensors::begin">
<polygon fill="white" stroke="black" points="136,-570.5 136,-589.5 264,-589.5 264,-570.5 136,-570.5"/>
<text text-anchor="middle" x="200" y="-577.5" font-family="Helvetica,sans-Serif" font-size="10.00">CoolBoardSensors::begin</text>
</a>
</g>
</g>
<!-- Node0&#45;&gt;Node11 -->
<g id="edge11" class="edge"><title>Node0&#45;&gt;Node11</title>
<path fill="none" stroke="midnightblue" d="M49.2401,-418.558C56.0442,-445.415 79.0666,-522.126 128,-561 130.295,-562.823 132.749,-564.472 135.317,-565.963"/>
<polygon fill="midnightblue" stroke="midnightblue" points="133.894,-569.164 144.41,-570.45 136.991,-562.887 133.894,-569.164"/>
</g>
<!-- Node14 -->
<g id="node15" class="node"><title>Node14</title>
<g id="a_node15"><a xlink:href="classIrene3000.html#ad5891806c500ae1007afe52b9e304c2b" target="_top" xlink:title="Irene3000::begin">
<polygon fill="white" stroke="black" points="155.5,-532.5 155.5,-551.5 244.5,-551.5 244.5,-532.5 155.5,-532.5"/>
<text text-anchor="middle" x="200" y="-539.5" font-family="Helvetica,sans-Serif" font-size="10.00">Irene3000::begin</text>
</a>
</g>
</g>
<!-- Node0&#45;&gt;Node14 -->
<g id="edge14" class="edge"><title>Node0&#45;&gt;Node14</title>
<path fill="none" stroke="midnightblue" d="M51.0604,-418.669C60.8459,-440.757 87.9243,-495.153 128,-523 133.295,-526.679 139.266,-529.646 145.44,-532.039"/>
<polygon fill="midnightblue" stroke="midnightblue" points="144.646,-535.465 155.24,-535.346 146.884,-528.832 144.646,-535.465"/>
</g>
<!-- Node15 -->
<g id="node16" class="node"><title>Node15</title>
<g id="a_node16"><a xlink:href="classCoolBoardLed.html#a1b60e5e30bea96c49ed62ed1bf1ffc8b" target="_top" xlink:title="CoolBoardLed::config">
<polygon fill="white" stroke="black" points="145,-494.5 145,-513.5 255,-513.5 255,-494.5 145,-494.5"/>
<text text-anchor="middle" x="200" y="-501.5" font-family="Helvetica,sans-Serif" font-size="10.00">CoolBoardLed::config</text>
</a>
</g>
</g>
<!-- Node0&#45;&gt;Node15 -->
<g id="edge15" class="edge"><title>Node0&#45;&gt;Node15</title>
<path fill="none" stroke="midnightblue" d="M54.4028,-418.509C67.4845,-434.652 96.3169,-467.381 128,-485 131.997,-487.223 136.267,-489.196 140.655,-490.945"/>
<polygon fill="midnightblue" stroke="midnightblue" points="139.794,-494.354 150.388,-494.428 142.152,-487.763 139.794,-494.354"/>
</g>
<!-- Node16 -->
<g id="node17" class="node"><title>Node16</title>
<g id="a_node17"><a xlink:href="classCoolMQTT.html#a0158596b9a2297c8ba609b56ce6bace1" target="_top" xlink:title="CoolMQTT::config">
<polygon fill="white" stroke="black" points="151.5,-456.5 151.5,-475.5 248.5,-475.5 248.5,-456.5 151.5,-456.5"/>
<text text-anchor="middle" x="200" y="-463.5" font-family="Helvetica,sans-Serif" font-size="10.00">CoolMQTT::config</text>
</a>
</g>
</g>
<!-- Node0&#45;&gt;Node16 -->
<g id="edge16" class="edge"><title>Node0&#45;&gt;Node16</title>
<path fill="none" stroke="midnightblue" d="M64.9441,-418.546C81.1033,-426.868 105.676,-438.849 128,-447 134.523,-449.382 141.481,-451.609 148.395,-453.641"/>
<polygon fill="midnightblue" stroke="midnightblue" points="147.862,-457.127 158.437,-456.472 149.762,-450.39 147.862,-457.127"/>
</g>
<!-- Node17 -->
<g id="node18" class="node"><title>Node17</title>
<g id="a_node18"><a xlink:href="classCoolTime.html#a87c28260c1bc77091162cbcf1ee2e129" target="_top" xlink:title="CoolTime::config">
<polygon fill="white" stroke="black" points="154.5,-418.5 154.5,-437.5 245.5,-437.5 245.5,-418.5 154.5,-418.5"/>
<text text-anchor="middle" x="200" y="-425.5" font-family="Helvetica,sans-Serif" font-size="10.00">CoolTime::config</text>
</a>
</g>
</g>
<!-- Node0&#45;&gt;Node17 -->
<g id="edge17" class="edge"><title>Node0&#45;&gt;Node17</title>
<path fill="none" stroke="midnightblue" d="M92.1935,-414.649C108.427,-416.678 126.917,-418.99 143.898,-421.112"/>
<polygon fill="midnightblue" stroke="midnightblue" points="143.886,-424.638 154.243,-422.405 144.754,-417.692 143.886,-424.638"/>
</g>
<!-- Node18 -->
<g id="node19" class="node"><title>Node18</title>
<g id="a_node19"><a xlink:href="classJetpack.html#ab065ee83e244265a2223a22f3ee4a719" target="_top" xlink:title="Jetpack::config">
<polygon fill="white" stroke="black" points="158.5,-380.5 158.5,-399.5 241.5,-399.5 241.5,-380.5 158.5,-380.5"/>
<text text-anchor="middle" x="200" y="-387.5" font-family="Helvetica,sans-Serif" font-size="10.00">Jetpack::config</text>
</a>
</g>
</g>
<!-- Node0&#45;&gt;Node18 -->
<g id="edge18" class="edge"><title>Node0&#45;&gt;Node18</title>
<path fill="none" stroke="midnightblue" d="M92.1935,-403.351C109.832,-401.146 130.136,-398.608 148.273,-396.341"/>
<polygon fill="midnightblue" stroke="midnightblue" points="148.891,-399.791 158.379,-395.078 148.022,-392.845 148.891,-399.791"/>
</g>
<!-- Node19 -->
<g id="node20" class="node"><title>Node19</title>
<g id="a_node20"><a xlink:href="classExternalSensors.html#a862a4bd11346b37270d0244c2adabe5a" target="_top" xlink:title="ExternalSensors::config">
<polygon fill="white" stroke="black" points="139.5,-342.5 139.5,-361.5 260.5,-361.5 260.5,-342.5 139.5,-342.5"/>
<text text-anchor="middle" x="200" y="-349.5" font-family="Helvetica,sans-Serif" font-size="10.00">ExternalSensors::config</text>
</a>
</g>
</g>
<!-- Node0&#45;&gt;Node19 -->
<g id="edge19" class="edge"><title>Node0&#45;&gt;Node19</title>
<path fill="none" stroke="midnightblue" d="M64.9441,-399.454C81.1033,-391.132 105.676,-379.151 128,-371 134.523,-368.618 141.481,-366.391 148.395,-364.359"/>
<polygon fill="midnightblue" stroke="midnightblue" points="149.762,-367.61 158.437,-361.528 147.862,-360.873 149.762,-367.61"/>
</g>
<!-- Node20 -->
<g id="node21" class="node"><title>Node20</title>
<g id="a_node21"><a xlink:href="classIrene3000.html#afed5c35e4b23963c157847ef27c11e9c" target="_top" xlink:title="Irene3000::config">
<polygon fill="white" stroke="black" points="154,-304.5 154,-323.5 246,-323.5 246,-304.5 154,-304.5"/>
<text text-anchor="middle" x="200" y="-311.5" font-family="Helvetica,sans-Serif" font-size="10.00">Irene3000::config</text>
</a>
</g>
</g>
<!-- Node0&#45;&gt;Node20 -->
<g id="edge20" class="edge"><title>Node0&#45;&gt;Node20</title>
<path fill="none" stroke="midnightblue" d="M54.4028,-399.491C67.4845,-383.348 96.3169,-350.619 128,-333 133.072,-330.179 138.583,-327.761 144.217,-325.691"/>
<polygon fill="midnightblue" stroke="midnightblue" points="145.369,-328.997 153.759,-322.528 143.166,-322.353 145.369,-328.997"/>
</g>
<!-- Node22 -->
<g id="node23" class="node"><title>Node22</title>
<g id="a_node23"><a xlink:href="classCoolBoardSensors.html#a9a218895c5423375c33c08f2c56fb23a" target="_top" xlink:title="CoolBoardSensors::config">
<polygon fill="white" stroke="black" points="134.5,-266.5 134.5,-285.5 265.5,-285.5 265.5,-266.5 134.5,-266.5"/>
<text text-anchor="middle" x="200" y="-273.5" font-family="Helvetica,sans-Serif" font-size="10.00">CoolBoardSensors::config</text>
</a>
</g>
</g>
<!-- Node0&#45;&gt;Node22 -->
<g id="edge22" class="edge"><title>Node0&#45;&gt;Node22</title>
<path fill="none" stroke="midnightblue" d="M51.0604,-399.331C60.8459,-377.243 87.9243,-322.847 128,-295 130.864,-293.01 133.925,-291.229 137.109,-289.634"/>
<polygon fill="midnightblue" stroke="midnightblue" points="138.573,-292.814 146.346,-285.614 135.78,-286.395 138.573,-292.814"/>
</g>
<!-- Node23 -->
<g id="node24" class="node"><title>Node23</title>
<g id="a_node24"><a xlink:href="classCoolBoardLed.html#a8ed3053a36f0ed4a131f43b5b17efb61" target="_top" xlink:title="CoolBoardLed::printConf">
<polygon fill="white" stroke="black" points="138,-228.5 138,-247.5 262,-247.5 262,-228.5 138,-228.5"/>
<text text-anchor="middle" x="200" y="-235.5" font-family="Helvetica,sans-Serif" font-size="10.00">CoolBoardLed::printConf</text>
</a>
</g>
</g>
<!-- Node0&#45;&gt;Node23 -->
<g id="edge23" class="edge"><title>Node0&#45;&gt;Node23</title>
<path fill="none" stroke="midnightblue" d="M49.2401,-399.442C56.0442,-372.585 79.0666,-295.874 128,-257 130.295,-255.177 132.749,-253.528 135.317,-252.037"/>
<polygon fill="midnightblue" stroke="midnightblue" points="136.991,-255.113 144.41,-247.55 133.894,-248.836 136.991,-255.113"/>
</g>
<!-- Node24 -->
<g id="node25" class="node"><title>Node24</title>
<g id="a_node25"><a xlink:href="classJetpack.html#ac54a7bb4f9166bee32052253d9b1d306" target="_top" xlink:title="Jetpack::printConf">
<polygon fill="white" stroke="black" points="151.5,-190.5 151.5,-209.5 248.5,-209.5 248.5,-190.5 151.5,-190.5"/>
<text text-anchor="middle" x="200" y="-197.5" font-family="Helvetica,sans-Serif" font-size="10.00">Jetpack::printConf</text>
</a>
</g>
</g>
<!-- Node0&#45;&gt;Node24 -->
<g id="edge24" class="edge"><title>Node0&#45;&gt;Node24</title>
<path fill="none" stroke="midnightblue" d="M48.1449,-399.397C52.3792,-368.272 70.0383,-269.29 128,-219 132.156,-215.394 136.927,-212.463 141.988,-210.083"/>
<polygon fill="midnightblue" stroke="midnightblue" points="143.339,-213.313 151.339,-206.367 140.753,-206.808 143.339,-213.313"/>
</g>
<!-- Node25 -->
<g id="node26" class="node"><title>Node25</title>
<g id="a_node26"><a xlink:href="classCoolTime.html#af355e7f9b3898211cd2ff25eab5933b1" target="_top" xlink:title="CoolTime::printConf">
<polygon fill="white" stroke="black" points="148,-152.5 148,-171.5 252,-171.5 252,-152.5 148,-152.5"/>
<text text-anchor="middle" x="200" y="-159.5" font-family="Helvetica,sans-Serif" font-size="10.00">CoolTime::printConf</text>
</a>
</g>
</g>
<!-- Node0&#45;&gt;Node25 -->
<g id="edge25" class="edge"><title>Node0&#45;&gt;Node25</title>
<path fill="none" stroke="midnightblue" d="M47.4035,-399.043C49.3922,-363.662 61.0212,-242.832 128,-181 131.164,-178.079 134.728,-175.598 138.532,-173.491"/>
<polygon fill="midnightblue" stroke="midnightblue" points="140.155,-176.597 147.765,-169.226 137.219,-170.242 140.155,-176.597"/>
</g>
<!-- Node26 -->
<g id="node27" class="node"><title>Node26</title>
<g id="a_node27"><a xlink:href="classExternalSensors.html#a78c2bf55084435dd51d3c559b2d3c6f3" target="_top" xlink:title="ExternalSensors::printConf">
<polygon fill="white" stroke="black" points="133,-114.5 133,-133.5 267,-133.5 267,-114.5 133,-114.5"/>
<text text-anchor="middle" x="200" y="-121.5" font-family="Helvetica,sans-Serif" font-size="10.00">ExternalSensors::printConf</text>
</a>
</g>
</g>
<!-- Node0&#45;&gt;Node26 -->
<g id="edge26" class="edge"><title>Node0&#45;&gt;Node26</title>
<path fill="none" stroke="midnightblue" d="M46.8253,-399.341C46.6792,-360.858 51.4596,-216.973 128,-143 129.48,-141.57 131.054,-140.245 132.707,-139.017"/>
<polygon fill="midnightblue" stroke="midnightblue" points="134.804,-141.838 141.53,-133.653 131.167,-135.857 134.804,-141.838"/>
</g>
<!-- Node27 -->
<g id="node28" class="node"><title>Node27</title>
<g id="a_node28"><a xlink:href="classCoolMQTT.html#a40553a0ad4b5ecf1cb4411ab54ca85fb" target="_top" xlink:title="CoolMQTT::printConf">
<polygon fill="white" stroke="black" points="145,-76.5 145,-95.5 255,-95.5 255,-76.5 145,-76.5"/>
<text text-anchor="middle" x="200" y="-83.5" font-family="Helvetica,sans-Serif" font-size="10.00">CoolMQTT::printConf</text>
</a>
</g>
</g>
<!-- Node0&#45;&gt;Node27 -->
<g id="edge27" class="edge"><title>Node0&#45;&gt;Node27</title>
<path fill="none" stroke="midnightblue" d="M48.2793,-399.253C54.6489,-352.159 84.3813,-148.666 128,-105 130.39,-102.608 133.046,-100.507 135.887,-98.6633"/>
<polygon fill="midnightblue" stroke="midnightblue" points="137.706,-101.66 144.886,-93.8683 134.414,-95.4821 137.706,-101.66"/>
</g>
<!-- Node28 -->
<g id="node29" class="node"><title>Node28</title>
<g id="a_node29"><a xlink:href="classIrene3000.html#a7bc2414100b5e19eacc6630fa34b2654" target="_top" xlink:title="Irene3000::printConf">
<polygon fill="white" stroke="black" points="147.5,-38.5 147.5,-57.5 252.5,-57.5 252.5,-38.5 147.5,-38.5"/>
<text text-anchor="middle" x="200" y="-45.5" font-family="Helvetica,sans-Serif" font-size="10.00">Irene3000::printConf</text>
</a>
</g>
</g>
<!-- Node0&#45;&gt;Node28 -->
<g id="edge28" class="edge"><title>Node0&#45;&gt;Node28</title>
<path fill="none" stroke="midnightblue" d="M47.9555,-399.412C53.1469,-349.193 79.53,-116.892 128,-67 131.001,-63.9111 134.444,-61.3064 138.162,-59.112"/>
<polygon fill="midnightblue" stroke="midnightblue" points="139.784,-62.2151 147.254,-54.7013 136.729,-55.9171 139.784,-62.2151"/>
</g>
<!-- Node29 -->
<g id="node30" class="node"><title>Node29</title>
<g id="a_node30"><a xlink:href="classCoolBoardSensors.html#af6fd79505815b204c178617ecf54c873" target="_top" xlink:title="CoolBoardSensors::printConf">
<polygon fill="white" stroke="black" points="128,-0.5 128,-19.5 272,-19.5 272,-0.5 128,-0.5"/>
<text text-anchor="middle" x="200" y="-7.5" font-family="Helvetica,sans-Serif" font-size="10.00">CoolBoardSensors::printConf</text>
</a>
</g>
</g>
<!-- Node0&#45;&gt;Node29 -->
<g id="edge29" class="edge"><title>Node0&#45;&gt;Node29</title>
<path fill="none" stroke="midnightblue" d="M47.7106,-399.432C51.8655,-346.019 74.6936,-85.1229 128,-29 129.239,-27.6961 130.556,-26.4781 131.94,-25.3406"/>
<polygon fill="midnightblue" stroke="midnightblue" points="134.1,-28.1078 140.504,-19.6674 130.234,-22.272 134.1,-28.1078"/>
</g>
<!-- Node4 -->
<g id="node5" class="node"><title>Node4</title>
<g id="a_node5"><a xlink:href="classCoolMQTT.html#a30d82ad665bfb603f46ecdbc290775df" target="_top" xlink:title="CoolMQTT::callback">
<polygon fill="white" stroke="black" points="332.5,-722.5 332.5,-741.5 439.5,-741.5 439.5,-722.5 332.5,-722.5"/>
<text text-anchor="middle" x="386" y="-729.5" font-family="Helvetica,sans-Serif" font-size="10.00">CoolMQTT::callback</text>
</a>
</g>
</g>
<!-- Node3&#45;&gt;Node4 -->
<g id="edge4" class="edge"><title>Node3&#45;&gt;Node4</title>
<path fill="none" stroke="midnightblue" d="M247.431,-732C270.067,-732 297.628,-732 322.119,-732"/>
<polygon fill="midnightblue" stroke="midnightblue" points="322.404,-735.5 332.404,-732 322.404,-728.5 322.404,-735.5"/>
</g>
<!-- Node7 -->
<g id="node8" class="node"><title>Node7</title>
<g id="a_node8"><a xlink:href="classBaseExternalSensor.html#a87d132803d4f4fdd4e66332809f0c9a0" target="_top" xlink:title="BaseExternalSensor\l::begin">
<polygon fill="white" stroke="black" points="333,-647 333,-677 439,-677 439,-647 333,-647"/>
<text text-anchor="start" x="341" y="-665" font-family="Helvetica,sans-Serif" font-size="10.00">BaseExternalSensor</text>
<text text-anchor="middle" x="386" y="-654" font-family="Helvetica,sans-Serif" font-size="10.00">::begin</text>
</a>
</g>
</g>
<!-- Node6&#45;&gt;Node7 -->
<g id="edge7" class="edge"><title>Node6&#45;&gt;Node7</title>
<path fill="none" stroke="midnightblue" d="M259.219,-657.898C279.394,-658.556 302.086,-659.296 322.586,-659.965"/>
<polygon fill="midnightblue" stroke="midnightblue" points="322.656,-663.469 332.765,-660.297 322.885,-656.473 322.656,-663.469"/>
</g>
<!-- Node9 -->
<g id="node10" class="node"><title>Node9</title>
<g id="a_node10"><a xlink:href="classCoolTime.html#a41fbbbfd651c2079f54d4b2911e4c705" target="_top" xlink:title="CoolTime::getNtpTime">
<polygon fill="white" stroke="black" points="328,-608.5 328,-627.5 444,-627.5 444,-608.5 328,-608.5"/>
<text text-anchor="middle" x="386" y="-615.5" font-family="Helvetica,sans-Serif" font-size="10.00">CoolTime::getNtpTime</text>
</a>
</g>
</g>
<!-- Node8&#45;&gt;Node9 -->
<g id="edge9" class="edge"><title>Node8&#45;&gt;Node9</title>
<path fill="none" stroke="midnightblue" d="M244.14,-618C266.079,-618 293.24,-618 317.84,-618"/>
<polygon fill="midnightblue" stroke="midnightblue" points="317.842,-621.5 327.842,-618 317.842,-614.5 317.842,-621.5"/>
</g>
<!-- Node10 -->
<g id="node11" class="node"><title>Node10</title>
<g id="a_node11"><a xlink:href="classCoolTime.html#a236a38d120dc53bc67456d763838c5a1" target="_top" xlink:title="CoolTime::sendNTPpacket">
<polygon fill="white" stroke="black" points="500,-608.5 500,-627.5 635,-627.5 635,-608.5 500,-608.5"/>
<text text-anchor="middle" x="567.5" y="-615.5" font-family="Helvetica,sans-Serif" font-size="10.00">CoolTime::sendNTPpacket</text>
</a>
</g>
</g>
<!-- Node9&#45;&gt;Node10 -->
<g id="edge10" class="edge"><title>Node9&#45;&gt;Node10</title>
<path fill="none" stroke="midnightblue" d="M444.288,-618C458.627,-618 474.243,-618 489.371,-618"/>
<polygon fill="midnightblue" stroke="midnightblue" points="489.745,-621.5 499.745,-618 489.745,-614.5 489.745,-621.5"/>
</g>
<!-- Node12 -->
<g id="node13" class="node"><title>Node12</title>
<g id="a_node13"><a xlink:href="classCoolBoardSensors.html#acad6a8418c66d36868caca23c844ecb6" target="_top" xlink:title="CoolBoardSensors::initReadI2C">
<polygon fill="white" stroke="black" points="308,-570.5 308,-589.5 464,-589.5 464,-570.5 308,-570.5"/>
<text text-anchor="middle" x="386" y="-577.5" font-family="Helvetica,sans-Serif" font-size="10.00">CoolBoardSensors::initReadI2C</text>
</a>
</g>
</g>
<!-- Node11&#45;&gt;Node12 -->
<g id="edge12" class="edge"><title>Node11&#45;&gt;Node12</title>
<path fill="none" stroke="midnightblue" d="M264.065,-580C274.818,-580 286.157,-580 297.409,-580"/>
<polygon fill="midnightblue" stroke="midnightblue" points="297.698,-583.5 307.698,-580 297.698,-576.5 297.698,-583.5"/>
</g>
<!-- Node13 -->
<g id="node14" class="node"><title>Node13</title>
<g id="a_node14"><a xlink:href="classCoolBoardSensors.html#a406307ffd70272282d91479c7ed8d66f" target="_top" xlink:title="CoolBoardSensors::setEnv\lSensorSettings">
<polygon fill="white" stroke="black" points="318.5,-521 318.5,-551 453.5,-551 453.5,-521 318.5,-521"/>
<text text-anchor="start" x="326.5" y="-539" font-family="Helvetica,sans-Serif" font-size="10.00">CoolBoardSensors::setEnv</text>
<text text-anchor="middle" x="386" y="-528" font-family="Helvetica,sans-Serif" font-size="10.00">SensorSettings</text>
</a>
</g>
</g>
<!-- Node11&#45;&gt;Node13 -->
<g id="edge13" class="edge"><title>Node11&#45;&gt;Node13</title>
<path fill="none" stroke="midnightblue" d="M240.925,-570.453C261.734,-565.477 287.842,-559.233 312.098,-553.433"/>
<polygon fill="midnightblue" stroke="midnightblue" points="313.088,-556.795 321.999,-551.065 311.46,-549.987 313.088,-556.795"/>
</g>
<!-- Node21 -->
<g id="node22" class="node"><title>Node21</title>
<g id="a_node22"><a xlink:href="classIrene3000.html#abcad62d1201a59f8dd3ba87048002728" target="_top" xlink:title="Irene3000::gainConvert">
<polygon fill="white" stroke="black" points="327,-304.5 327,-323.5 445,-323.5 445,-304.5 327,-304.5"/>
<text text-anchor="middle" x="386" y="-311.5" font-family="Helvetica,sans-Serif" font-size="10.00">Irene3000::gainConvert</text>
</a>
</g>
</g>
<!-- Node20&#45;&gt;Node21 -->
<g id="edge21" class="edge"><title>Node20&#45;&gt;Node21</title>
<path fill="none" stroke="midnightblue" d="M246.011,-314C267.235,-314 293.018,-314 316.587,-314"/>
<polygon fill="midnightblue" stroke="midnightblue" points="316.883,-317.5 326.883,-314 316.883,-310.5 316.883,-317.5"/>
</g>
</g>
</svg>
