<?xml version="1.0" encoding="UTF-8" standalone="no"?>
<!DOCTYPE svg PUBLIC "-//W3C//DTD SVG 1.1//EN"
 "http://www.w3.org/Graphics/SVG/1.1/DTD/svg11.dtd">
<!-- Generated by graphviz version 2.38.0 (20140413.2041)
 -->
<!-- Title: CoolBoardLed::blink Pages: 1 -->
<svg width="561pt" height="163pt"
 viewBox="0.00 0.00 561.00 162.81" xmlns="http://www.w3.org/2000/svg" xmlns:xlink="http://www.w3.org/1999/xlink">
<g id="graph0" class="graph" transform="scale(1 1) rotate(0) translate(4 158.808)">
<title>CoolBoardLed::blink</title>
<polygon fill="white" stroke="none" points="-4,4 -4,-158.808 557,-158.808 557,4 -4,4"/>
<!-- Node7 -->
<g id="node1" class="node"><title>Node7</title>
<polygon fill="#bfbfbf" stroke="black" points="0,-76.5 0,-95.5 104,-95.5 104,-76.5 0,-76.5"/>
<text text-anchor="middle" x="52" y="-83.5" font-family="Helvetica,sans-Serif" font-size="10.00">CoolBoardLed::blink</text>
</g>
<!-- Node8 -->
<g id="node2" class="node"><title>Node8</title>
<g id="a_node2"><a xlink:href="classCoolBoard.html#acba7c5aef7268b2c0044bdb54d3b9d76" target="_top" xlink:title="CoolBoard::begin">
<polygon fill="white" stroke="black" points="301,-133.5 301,-152.5 393,-152.5 393,-133.5 301,-133.5"/>
<text text-anchor="middle" x="347" y="-140.5" font-family="Helvetica,sans-Serif" font-size="10.00">CoolBoard::begin</text>
</a>
</g>
</g>
<!-- Node7&#45;&gt;Node8 -->
<g id="edge1" class="edge"><title>Node7&#45;&gt;Node8</title>
<path fill="none" stroke="midnightblue" d="M70.9698,-102.343C87.5257,-116.214 113.477,-135.085 140,-143 193.462,-158.954 258.263,-155.464 300.731,-150.303"/>
<polygon fill="midnightblue" stroke="midnightblue" points="73.0668,-99.5295 63.2154,-95.6308 68.4853,-104.822 73.0668,-99.5295"/>
</g>
<!-- Node9 -->
<g id="node3" class="node"><title>Node9</title>
<g id="a_node3"><a xlink:href="classCoolBoard.html#a583a874c09c07e70a6eb9229fc4beddb" target="_top" xlink:title="CoolBoard::config">
<polygon fill="white" stroke="black" points="153.5,-76.5 153.5,-95.5 248.5,-95.5 248.5,-76.5 153.5,-76.5"/>
<text text-anchor="middle" x="201" y="-83.5" font-family="Helvetica,sans-Serif" font-size="10.00">CoolBoard::config</text>
</a>
</g>
</g>
<!-- Node7&#45;&gt;Node9 -->
<g id="edge2" class="edge"><title>Node7&#45;&gt;Node9</title>
<path fill="none" stroke="midnightblue" d="M114.252,-86C127.215,-86 140.7,-86 153.034,-86"/>
<polygon fill="midnightblue" stroke="midnightblue" points="114.001,-82.5001 104.001,-86 114.001,-89.5001 114.001,-82.5001"/>
</g>
<!-- Node11 -->
<g id="node5" class="node"><title>Node11</title>
<g id="a_node5"><a xlink:href="classCoolBoard.html#aa0bbc4bc605e35618d18e68795c61363" target="_top" xlink:title="CoolBoard::onLineMode">
<polygon fill="white" stroke="black" points="432,-57.5 432,-76.5 553,-76.5 553,-57.5 432,-57.5"/>
<text text-anchor="middle" x="492.5" y="-64.5" font-family="Helvetica,sans-Serif" font-size="10.00">CoolBoard::onLineMode</text>
</a>
</g>
</g>
<!-- Node7&#45;&gt;Node11 -->
<g id="edge8" class="edge"><title>Node7&#45;&gt;Node11</title>
<path fill="none" stroke="midnightblue" d="M98.1885,-74.2023C111.554,-71.2381 126.281,-68.4806 140,-67 242.081,-55.9831 361.81,-59.4474 431.897,-63.1168"/>
<polygon fill="midnightblue" stroke="midnightblue" points="97.2289,-70.8317 88.2726,-76.4916 98.8036,-77.6523 97.2289,-70.8317"/>
</g>
<!-- Node12 -->
<g id="node6" class="node"><title>Node12</title>
<g id="a_node6"><a xlink:href="classCoolBoard.html#a519de78b807f8ec6463ff484eb925918" target="_top" xlink:title="CoolBoard::connect">
<polygon fill="white" stroke="black" points="149.5,-114.5 149.5,-133.5 252.5,-133.5 252.5,-114.5 149.5,-114.5"/>
<text text-anchor="middle" x="201" y="-121.5" font-family="Helvetica,sans-Serif" font-size="10.00">CoolBoard::connect</text>
</a>
</g>
</g>
<!-- Node7&#45;&gt;Node12 -->
<g id="edge5" class="edge"><title>Node7&#45;&gt;Node12</title>
<path fill="none" stroke="midnightblue" d="M99.8548,-98.1121C120.328,-103.404 143.99,-109.521 163.172,-114.48"/>
<polygon fill="midnightblue" stroke="midnightblue" points="100.652,-94.7032 90.0943,-95.589 98.9001,-101.48 100.652,-94.7032"/>
</g>
<!-- Node13 -->
<g id="node7" class="node"><title>Node13</title>
<g id="a_node7"><a xlink:href="classCoolBoard.html#ae6b5e1274d760462290192acea4adca8" target="_top" xlink:title="CoolBoard::offLineMode">
<polygon fill="white" stroke="black" points="140,-0.5 140,-19.5 262,-19.5 262,-0.5 140,-0.5"/>
<text text-anchor="middle" x="201" y="-7.5" font-family="Helvetica,sans-Serif" font-size="10.00">CoolBoard::offLineMode</text>
</a>
</g>
</g>
<!-- Node7&#45;&gt;Node13 -->
<g id="edge7" class="edge"><title>Node7&#45;&gt;Node13</title>
<path fill="none" stroke="midnightblue" d="M76.1604,-70.7848C93.373,-59.8192 117.645,-45.0648 140,-34 150.759,-28.6748 163.006,-23.6084 173.617,-19.5147"/>
<polygon fill="midnightblue" stroke="midnightblue" points="73.8929,-68.0821 67.3811,-76.4395 77.6834,-73.967 73.8929,-68.0821"/>
</g>
<!-- Node10 -->
<g id="node4" class="node"><title>Node10</title>
<g id="a_node4"><a xlink:href="classCoolBoard.html#a8612756d3f73198cdde857a66f0fe690" target="_top" xlink:title="CoolBoard::update">
<polygon fill="white" stroke="black" points="298,-76.5 298,-95.5 396,-95.5 396,-76.5 298,-76.5"/>
<text text-anchor="middle" x="347" y="-83.5" font-family="Helvetica,sans-Serif" font-size="10.00">CoolBoard::update</text>
</a>
</g>
</g>
<!-- Node9&#45;&gt;Node10 -->
<g id="edge3" class="edge"><title>Node9&#45;&gt;Node10</title>
<path fill="none" stroke="midnightblue" d="M258.836,-86C271.628,-86 285.089,-86 297.504,-86"/>
<polygon fill="midnightblue" stroke="midnightblue" points="258.753,-82.5001 248.753,-86 258.753,-89.5001 258.753,-82.5001"/>
</g>
<!-- Node10&#45;&gt;Node11 -->
<g id="edge4" class="edge"><title>Node10&#45;&gt;Node11</title>
<path fill="none" stroke="midnightblue" d="M406.332,-78.2766C414.785,-77.1574 423.496,-76.0041 431.972,-74.8818"/>
<polygon fill="midnightblue" stroke="midnightblue" points="405.637,-74.838 396.183,-79.6204 406.556,-81.7775 405.637,-74.838"/>
</g>
<!-- Node12&#45;&gt;Node8 -->
<g id="edge6" class="edge"><title>Node12&#45;&gt;Node8</title>
<path fill="none" stroke="midnightblue" d="M262.876,-132.032C275.645,-133.717 288.893,-135.465 300.961,-137.057"/>
<polygon fill="midnightblue" stroke="midnightblue" points="263.141,-128.537 252.769,-130.699 262.225,-135.477 263.141,-128.537"/>
</g>
</g>
</svg>
