<?xml version="1.0" encoding="UTF-8" standalone="no"?>
<!DOCTYPE svg PUBLIC "-//W3C//DTD SVG 1.1//EN"
 "http://www.w3.org/Graphics/SVG/1.1/DTD/svg11.dtd">
<!-- Generated by graphviz version 2.38.0 (20140413.2041)
 -->
<!-- Title: CoolBoard::connect Pages: 1 -->
<svg width="277pt" height="104pt"
 viewBox="0.00 0.00 277.00 104.00" xmlns="http://www.w3.org/2000/svg" xmlns:xlink="http://www.w3.org/1999/xlink">
<g id="graph0" class="graph" transform="scale(1 1) rotate(0) translate(4 100)">
<title>CoolBoard::connect</title>
<polygon fill="white" stroke="none" points="-4,4 -4,-100 273,-100 273,4 -4,4"/>
<!-- Node36 -->
<g id="node1" class="node"><title>Node36</title>
<polygon fill="#bfbfbf" stroke="black" points="0,-38.5 0,-57.5 103,-57.5 103,-38.5 0,-38.5"/>
<text text-anchor="middle" x="51.5" y="-45.5" font-family="Helvetica,sans-Serif" font-size="10.00">CoolBoard::connect</text>
</g>
<!-- Node37 -->
<g id="node2" class="node"><title>Node37</title>
<g id="a_node2"><a xlink:href="classCoolMQTT.html#a58b0b1f64b269c2681685208262fba1d" target="_top" xlink:title="CoolMQTT::connect">
<polygon fill="white" stroke="black" points="151.5,-76.5 151.5,-95.5 256.5,-95.5 256.5,-76.5 151.5,-76.5"/>
<text text-anchor="middle" x="204" y="-83.5" font-family="Helvetica,sans-Serif" font-size="10.00">CoolMQTT::connect</text>
</a>
</g>
</g>
<!-- Node36&#45;&gt;Node37 -->
<g id="edge1" class="edge"><title>Node36&#45;&gt;Node37</title>
<path fill="none" stroke="midnightblue" d="M90.4775,-57.589C110.159,-62.5583 134.391,-68.6767 155.321,-73.9613"/>
<polygon fill="midnightblue" stroke="midnightblue" points="154.743,-77.4253 165.296,-76.4799 156.457,-70.6383 154.743,-77.4253"/>
</g>
<!-- Node38 -->
<g id="node3" class="node"><title>Node38</title>
<g id="a_node3"><a xlink:href="classCoolBoard.html#aaa24480b273fc095a1356a589c333781" target="_top" xlink:title="CoolBoard::getLogInterval">
<polygon fill="white" stroke="black" points="139,-38.5 139,-57.5 269,-57.5 269,-38.5 139,-38.5"/>
<text text-anchor="middle" x="204" y="-45.5" font-family="Helvetica,sans-Serif" font-size="10.00">CoolBoard::getLogInterval</text>
</a>
</g>
</g>
<!-- Node36&#45;&gt;Node38 -->
<g id="edge2" class="edge"><title>Node36&#45;&gt;Node38</title>
<path fill="none" stroke="midnightblue" d="M103.033,-48C111.319,-48 120.055,-48 128.772,-48"/>
<polygon fill="midnightblue" stroke="midnightblue" points="128.969,-51.5001 138.969,-48 128.969,-44.5001 128.969,-51.5001"/>
</g>
<!-- Node39 -->
<g id="node4" class="node"><title>Node39</title>
<g id="a_node4"><a xlink:href="classCoolMQTT.html#a5d003307eff78efbd585e42b43b72b6d" target="_top" xlink:title="CoolMQTT::state">
<polygon fill="white" stroke="black" points="158,-0.5 158,-19.5 250,-19.5 250,-0.5 158,-0.5"/>
<text text-anchor="middle" x="204" y="-7.5" font-family="Helvetica,sans-Serif" font-size="10.00">CoolMQTT::state</text>
</a>
</g>
</g>
<!-- Node36&#45;&gt;Node39 -->
<g id="edge3" class="edge"><title>Node36&#45;&gt;Node39</title>
<path fill="none" stroke="midnightblue" d="M90.4775,-38.411C110.159,-33.4417 134.391,-27.3233 155.321,-22.0387"/>
<polygon fill="midnightblue" stroke="midnightblue" points="156.457,-25.3617 165.296,-19.5201 154.743,-18.5747 156.457,-25.3617"/>
</g>
</g>
</svg>
