<?xml version="1.0" encoding="UTF-8" standalone="no"?>
<!DOCTYPE svg PUBLIC "-//W3C//DTD SVG 1.1//EN"
 "http://www.w3.org/Graphics/SVG/1.1/DTD/svg11.dtd">
<!-- Generated by graphviz version 2.38.0 (20140413.2041)
 -->
<!-- Title: CoolFileSystem::begin Pages: 1 -->
<svg width="546pt" height="66pt"
 viewBox="0.00 0.00 546.00 66.00" xmlns="http://www.w3.org/2000/svg" xmlns:xlink="http://www.w3.org/1999/xlink">
<g id="graph0" class="graph" transform="scale(1 1) rotate(0) translate(4 62)">
<title>CoolFileSystem::begin</title>
<polygon fill="white" stroke="none" points="-4,4 -4,-62 542,-62 542,4 -4,4"/>
<!-- Node1 -->
<g id="node1" class="node"><title>Node1</title>
<polygon fill="#bfbfbf" stroke="black" points="0,-19.5 0,-38.5 116,-38.5 116,-19.5 0,-19.5"/>
<text text-anchor="middle" x="58" y="-26.5" font-family="Helvetica,sans-Serif" font-size="10.00">CoolFileSystem::begin</text>
</g>
<!-- Node2 -->
<g id="node2" class="node"><title>Node2</title>
<g id="a_node2"><a xlink:href="class_cool_board.html#acba7c5aef7268b2c0044bdb54d3b9d76" target="_top" xlink:title="CoolBoard::begin">
<polygon fill="white" stroke="black" points="153.5,-38.5 153.5,-57.5 245.5,-57.5 245.5,-38.5 153.5,-38.5"/>
<text text-anchor="middle" x="199.5" y="-45.5" font-family="Helvetica,sans-Serif" font-size="10.00">CoolBoard::begin</text>
</a>
</g>
</g>
<!-- Node1&#45;&gt;Node2 -->
<g id="edge1" class="edge"><title>Node1&#45;&gt;Node2</title>
<path fill="none" stroke="midnightblue" d="M126.061,-38.1337C135.252,-39.3856 144.505,-40.6459 153.181,-41.8276"/>
<polygon fill="midnightblue" stroke="midnightblue" points="126.523,-34.6645 116.142,-36.7828 125.579,-41.6005 126.523,-34.6645"/>
</g>
<!-- Node3 -->
<g id="node3" class="node"><title>Node3</title>
<g id="a_node3"><a xlink:href="class_cool_board.html#a583a874c09c07e70a6eb9229fc4beddb" target="_top" xlink:title="CoolBoard::config">
<polygon fill="white" stroke="black" points="152,-0.5 152,-19.5 247,-19.5 247,-0.5 152,-0.5"/>
<text text-anchor="middle" x="199.5" y="-7.5" font-family="Helvetica,sans-Serif" font-size="10.00">CoolBoard::config</text>
</a>
</g>
</g>
<!-- Node1&#45;&gt;Node3 -->
<g id="edge2" class="edge"><title>Node1&#45;&gt;Node3</title>
<path fill="none" stroke="midnightblue" d="M126.261,-19.839C134.928,-18.6585 143.647,-17.471 151.88,-16.3496"/>
<polygon fill="midnightblue" stroke="midnightblue" points="125.579,-16.3995 116.142,-21.2172 126.523,-23.3355 125.579,-16.3995"/>
</g>
<!-- Node4 -->
<g id="node4" class="node"><title>Node4</title>
<g id="a_node4"><a xlink:href="class_cool_board.html#a8612756d3f73198cdde857a66f0fe690" target="_top" xlink:title="CoolBoard::update">
<polygon fill="white" stroke="black" points="283,-0.5 283,-19.5 381,-19.5 381,-0.5 283,-0.5"/>
<text text-anchor="middle" x="332" y="-7.5" font-family="Helvetica,sans-Serif" font-size="10.00">CoolBoard::update</text>
</a>
</g>
</g>
<!-- Node3&#45;&gt;Node4 -->
<g id="edge3" class="edge"><title>Node3&#45;&gt;Node4</title>
<path fill="none" stroke="midnightblue" d="M257.438,-10C265.904,-10 274.56,-10 282.822,-10"/>
<polygon fill="midnightblue" stroke="midnightblue" points="257.245,-6.5001 247.245,-10 257.245,-13.5001 257.245,-6.5001"/>
</g>
<!-- Node5 -->
<g id="node5" class="node"><title>Node5</title>
<g id="a_node5"><a xlink:href="class_cool_board.html#aa0bbc4bc605e35618d18e68795c61363" target="_top" xlink:title="CoolBoard::onLineMode">
<polygon fill="white" stroke="black" points="417,-0.5 417,-19.5 538,-19.5 538,-0.5 417,-0.5"/>
<text text-anchor="middle" x="477.5" y="-7.5" font-family="Helvetica,sans-Serif" font-size="10.00">CoolBoard::onLineMode</text>
</a>
</g>
</g>
<!-- Node4&#45;&gt;Node5 -->
<g id="edge4" class="edge"><title>Node4&#45;&gt;Node5</title>
<path fill="none" stroke="midnightblue" d="M391.332,-10C399.785,-10 408.496,-10 416.972,-10"/>
<polygon fill="midnightblue" stroke="midnightblue" points="391.183,-6.5001 381.183,-10 391.183,-13.5001 391.183,-6.5001"/>
</g>
</g>
</svg>
