<?xml version="1.0" encoding="UTF-8" standalone="no"?>
<!DOCTYPE svg PUBLIC "-//W3C//DTD SVG 1.1//EN"
 "http://www.w3.org/Graphics/SVG/1.1/DTD/svg11.dtd">
<!-- Generated by graphviz version 2.38.0 (20140413.2041)
 -->
<!-- Title: Irene3000::read Pages: 1 -->
<svg width="250pt" height="66pt"
 viewBox="0.00 0.00 250.00 66.00" xmlns="http://www.w3.org/2000/svg" xmlns:xlink="http://www.w3.org/1999/xlink">
<g id="graph0" class="graph" transform="scale(1 1) rotate(0) translate(4 62)">
<title>Irene3000::read</title>
<polygon fill="white" stroke="none" points="-4,4 -4,-62 246,-62 246,4 -4,4"/>
<!-- Node35 -->
<g id="node1" class="node"><title>Node35</title>
<polygon fill="#bfbfbf" stroke="black" points="0,-19.5 0,-38.5 84,-38.5 84,-19.5 0,-19.5"/>
<text text-anchor="middle" x="42" y="-26.5" font-family="Helvetica,sans-Serif" font-size="10.00">Irene3000::read</text>
</g>
<!-- Node36 -->
<g id="node2" class="node"><title>Node36</title>
<g id="a_node2"><a xlink:href="classCoolBoard.html#ae6b5e1274d760462290192acea4adca8" target="_top" xlink:title="CoolBoard::offLineMode">
<polygon fill="white" stroke="black" points="120,-38.5 120,-57.5 242,-57.5 242,-38.5 120,-38.5"/>
<text text-anchor="middle" x="181" y="-45.5" font-family="Helvetica,sans-Serif" font-size="10.00">CoolBoard::offLineMode</text>
</a>
</g>
</g>
<!-- Node35&#45;&gt;Node36 -->
<g id="edge1" class="edge"><title>Node35&#45;&gt;Node36</title>
<path fill="none" stroke="midnightblue" d="M94.1382,-36.0922C102.546,-37.2583 111.328,-38.4762 119.93,-39.6691"/>
<polygon fill="midnightblue" stroke="midnightblue" points="94.4905,-32.6076 84.1045,-34.7006 93.5289,-39.5412 94.4905,-32.6076"/>
</g>
<!-- Node37 -->
<g id="node3" class="node"><title>Node37</title>
<g id="a_node3"><a xlink:href="classCoolBoard.html#aa0bbc4bc605e35618d18e68795c61363" target="_top" xlink:title="CoolBoard::onLineMode">
<polygon fill="white" stroke="black" points="120.5,-0.5 120.5,-19.5 241.5,-19.5 241.5,-0.5 120.5,-0.5"/>
<text text-anchor="middle" x="181" y="-7.5" font-family="Helvetica,sans-Serif" font-size="10.00">CoolBoard::onLineMode</text>
</a>
</g>
</g>
<!-- Node35&#45;&gt;Node37 -->
<g id="edge2" class="edge"><title>Node35&#45;&gt;Node37</title>
<path fill="none" stroke="midnightblue" d="M94.2816,-21.8879C102.812,-20.7049 111.723,-19.4691 120.437,-18.2605"/>
<polygon fill="midnightblue" stroke="midnightblue" points="93.5289,-18.4588 84.1045,-23.2994 94.4905,-25.3924 93.5289,-18.4588"/>
</g>
</g>
</svg>
