<?xml version="1.0" encoding="UTF-8" standalone="no"?>
<!DOCTYPE svg PUBLIC "-//W3C//DTD SVG 1.1//EN"
 "http://www.w3.org/Graphics/SVG/1.1/DTD/svg11.dtd">
<!-- Generated by graphviz version 2.38.0 (20140413.2041)
 -->
<!-- Title: CoolBoard::connect Pages: 1 -->
<svg width="406pt" height="218pt"
 viewBox="0.00 0.00 406.00 218.00" xmlns="http://www.w3.org/2000/svg" xmlns:xlink="http://www.w3.org/1999/xlink">
<g id="graph0" class="graph" transform="scale(1 1) rotate(0) translate(4 214)">
<title>CoolBoard::connect</title>
<polygon fill="white" stroke="none" points="-4,4 -4,-214 402,-214 402,4 -4,4"/>
<!-- Node53 -->
<g id="node1" class="node"><title>Node53</title>
<polygon fill="#bfbfbf" stroke="black" points="0,-95.5 0,-114.5 103,-114.5 103,-95.5 0,-95.5"/>
<text text-anchor="middle" x="51.5" y="-102.5" font-family="Helvetica,sans-Serif" font-size="10.00">CoolBoard::connect</text>
</g>
<!-- Node54 -->
<g id="node2" class="node"><title>Node54</title>
<g id="a_node2"><a xlink:href="classCoolBoardLed.html#a96e1ea13003eee34c9dbcef340404426" target="_top" xlink:title="CoolBoardLed::blink">
<polygon fill="white" stroke="black" points="152,-190.5 152,-209.5 256,-209.5 256,-190.5 152,-190.5"/>
<text text-anchor="middle" x="204" y="-197.5" font-family="Helvetica,sans-Serif" font-size="10.00">CoolBoardLed::blink</text>
</a>
</g>
</g>
<!-- Node53&#45;&gt;Node54 -->
<g id="edge1" class="edge"><title>Node53&#45;&gt;Node54</title>
<path fill="none" stroke="midnightblue" d="M60.8333,-114.648C75.2065,-130.703 106.279,-162.923 139,-181 142.988,-183.203 147.261,-185.178 151.637,-186.942"/>
<polygon fill="midnightblue" stroke="midnightblue" points="150.716,-190.332 161.309,-190.476 153.117,-183.757 150.716,-190.332"/>
</g>
<!-- Node55 -->
<g id="node3" class="node"><title>Node55</title>
<g id="a_node3"><a xlink:href="classCoolMQTT.html#a50075d0ab23a327ab897fd6adad20eda" target="_top" xlink:title="CoolMQTT::connect">
<polygon fill="white" stroke="black" points="151.5,-152.5 151.5,-171.5 256.5,-171.5 256.5,-152.5 151.5,-152.5"/>
<text text-anchor="middle" x="204" y="-159.5" font-family="Helvetica,sans-Serif" font-size="10.00">CoolMQTT::connect</text>
</a>
</g>
</g>
<!-- Node53&#45;&gt;Node55 -->
<g id="edge2" class="edge"><title>Node53&#45;&gt;Node55</title>
<path fill="none" stroke="midnightblue" d="M77.4684,-114.569C94.7386,-121.176 118.254,-130.153 139,-138 148.391,-141.552 158.565,-145.378 167.98,-148.908"/>
<polygon fill="midnightblue" stroke="midnightblue" points="166.858,-152.226 177.45,-152.457 169.314,-145.671 166.858,-152.226"/>
</g>
<!-- Node56 -->
<g id="node4" class="node"><title>Node56</title>
<g id="a_node4"><a xlink:href="classCoolMQTT.html#a5d003307eff78efbd585e42b43b72b6d" target="_top" xlink:title="CoolMQTT::state">
<polygon fill="white" stroke="black" points="305.5,-133.5 305.5,-152.5 397.5,-152.5 397.5,-133.5 305.5,-133.5"/>
<text text-anchor="middle" x="351.5" y="-140.5" font-family="Helvetica,sans-Serif" font-size="10.00">CoolMQTT::state</text>
</a>
</g>
</g>
<!-- Node53&#45;&gt;Node56 -->
<g id="edge7" class="edge"><title>Node53&#45;&gt;Node56</title>
<path fill="none" stroke="midnightblue" d="M103.052,-111.446C156.359,-118.244 240.096,-128.922 295.149,-135.942"/>
<polygon fill="midnightblue" stroke="midnightblue" points="294.718,-139.415 305.081,-137.208 295.604,-132.471 294.718,-139.415"/>
</g>
<!-- Node57 -->
<g id="node5" class="node"><title>Node57</title>
<g id="a_node5"><a xlink:href="classCoolWifi.html#ad060353050f40d032a2dbf9e54a768bf" target="_top" xlink:title="CoolWifi::connect">
<polygon fill="white" stroke="black" points="156.5,-76.5 156.5,-95.5 251.5,-95.5 251.5,-76.5 156.5,-76.5"/>
<text text-anchor="middle" x="204" y="-83.5" font-family="Helvetica,sans-Serif" font-size="10.00">CoolWifi::connect</text>
</a>
</g>
</g>
<!-- Node53&#45;&gt;Node57 -->
<g id="edge4" class="edge"><title>Node53&#45;&gt;Node57</title>
<path fill="none" stroke="midnightblue" d="M103.033,-98.6204C116.914,-96.8681 132.056,-94.9563 146.261,-93.1631"/>
<polygon fill="midnightblue" stroke="midnightblue" points="146.924,-96.6072 156.407,-91.8822 146.047,-89.6624 146.924,-96.6072"/>
</g>
<!-- Node59 -->
<g id="node7" class="node"><title>Node59</title>
<g id="a_node7"><a xlink:href="classCoolBoard.html#a7508e029f2ee17bb747ffab599285e0d" target="_top" xlink:title="CoolBoard::getLogInterval">
<polygon fill="white" stroke="black" points="139,-38.5 139,-57.5 269,-57.5 269,-38.5 139,-38.5"/>
<text text-anchor="middle" x="204" y="-45.5" font-family="Helvetica,sans-Serif" font-size="10.00">CoolBoard::getLogInterval</text>
</a>
</g>
</g>
<!-- Node53&#45;&gt;Node59 -->
<g id="edge6" class="edge"><title>Node53&#45;&gt;Node59</title>
<path fill="none" stroke="midnightblue" d="M72.4815,-95.3669C89.8284,-87.2116 115.744,-75.5221 139,-67 145.071,-64.7754 151.534,-62.6182 157.931,-60.6046"/>
<polygon fill="midnightblue" stroke="midnightblue" points="159.323,-63.8393 167.864,-57.5696 157.277,-57.1448 159.323,-63.8393"/>
</g>
<!-- Node60 -->
<g id="node8" class="node"><title>Node60</title>
<g id="a_node8"><a xlink:href="classCoolBoardLed.html#a30fadd4cbec17ceea428bf7a32207e87" target="_top" xlink:title="CoolBoardLed::write">
<polygon fill="white" stroke="black" points="151.5,-0.5 151.5,-19.5 256.5,-19.5 256.5,-0.5 151.5,-0.5"/>
<text text-anchor="middle" x="204" y="-7.5" font-family="Helvetica,sans-Serif" font-size="10.00">CoolBoardLed::write</text>
</a>
</g>
</g>
<!-- Node53&#45;&gt;Node60 -->
<g id="edge8" class="edge"><title>Node53&#45;&gt;Node60</title>
<path fill="none" stroke="midnightblue" d="M60.8333,-95.3524C75.2065,-79.297 106.279,-47.0768 139,-29 142.988,-26.7966 147.261,-24.8219 151.637,-23.0576"/>
<polygon fill="midnightblue" stroke="midnightblue" points="153.117,-26.2429 161.309,-19.5241 150.716,-19.6678 153.117,-26.2429"/>
</g>
<!-- Node55&#45;&gt;Node56 -->
<g id="edge3" class="edge"><title>Node55&#45;&gt;Node56</title>
<path fill="none" stroke="midnightblue" d="M256.708,-155.248C269.211,-153.615 282.622,-151.864 295.28,-150.211"/>
<polygon fill="midnightblue" stroke="midnightblue" points="295.776,-153.676 305.239,-148.91 294.87,-146.735 295.776,-153.676"/>
</g>
<!-- Node58 -->
<g id="node6" class="node"><title>Node58</title>
<g id="a_node6"><a xlink:href="classCoolWifi.html#a914d7a1df14dd6b75345fb614c34e9d6" target="_top" xlink:title="CoolWifi::addWifi">
<polygon fill="white" stroke="black" points="305,-76.5 305,-95.5 398,-95.5 398,-76.5 305,-76.5"/>
<text text-anchor="middle" x="351.5" y="-83.5" font-family="Helvetica,sans-Serif" font-size="10.00">CoolWifi::addWifi</text>
</a>
</g>
</g>
<!-- Node57&#45;&gt;Node58 -->
<g id="edge5" class="edge"><title>Node57&#45;&gt;Node58</title>
<path fill="none" stroke="midnightblue" d="M251.838,-86C265.475,-86 280.51,-86 294.644,-86"/>
<polygon fill="midnightblue" stroke="midnightblue" points="294.744,-89.5001 304.744,-86 294.744,-82.5001 294.744,-89.5001"/>
</g>
</g>
</svg>
