<?xml version="1.0" encoding="UTF-8" standalone="no"?>
<!DOCTYPE svg PUBLIC "-//W3C//DTD SVG 1.1//EN"
 "http://www.w3.org/Graphics/SVG/1.1/DTD/svg11.dtd">
<!-- Generated by graphviz version 2.38.0 (20140413.2041)
 -->
<!-- Title: CoolBoardSensors Pages: 1 -->
<svg width="162pt" height="314pt"
 viewBox="0.00 0.00 162.00 314.00" xmlns="http://www.w3.org/2000/svg" xmlns:xlink="http://www.w3.org/1999/xlink">
<g id="graph0" class="graph" transform="scale(1 1) rotate(0) translate(4 310)">
<title>CoolBoardSensors</title>
<polygon fill="white" stroke="none" points="-4,4 -4,-310 158,-310 158,4 -4,4"/>
<!-- Node1 -->
<g id="node1" class="node"><title>Node1</title>
<polygon fill="#bfbfbf" stroke="black" points="1.5,-0.5 1.5,-200.5 130.5,-200.5 130.5,-0.5 1.5,-0.5"/>
<text text-anchor="middle" x="66" y="-188.5" font-family="Helvetica,sans-Serif" font-size="10.00">CoolBoardSensors</text>
<polyline fill="none" stroke="black" points="1.5,-181.5 130.5,-181.5 "/>
<text text-anchor="middle" x="66" y="-169.5" font-family="Helvetica,sans-Serif" font-size="10.00"> </text>
<polyline fill="none" stroke="black" points="1.5,-162.5 130.5,-162.5 "/>
<text text-anchor="start" x="9.5" y="-150.5" font-family="Helvetica,sans-Serif" font-size="10.00">+ CoolBoardSensors()</text>
<text text-anchor="start" x="9.5" y="-139.5" font-family="Helvetica,sans-Serif" font-size="10.00">+ begin()</text>
<text text-anchor="start" x="9.5" y="-128.5" font-family="Helvetica,sans-Serif" font-size="10.00">+ read()</text>
<text text-anchor="start" x="9.5" y="-117.5" font-family="Helvetica,sans-Serif" font-size="10.00">+ getJsonSize()</text>
<text text-anchor="start" x="9.5" y="-106.5" font-family="Helvetica,sans-Serif" font-size="10.00">+ setJsonSize()</text>
<text text-anchor="start" x="9.5" y="-95.5" font-family="Helvetica,sans-Serif" font-size="10.00">+ allActive()</text>
<text text-anchor="start" x="9.5" y="-84.5" font-family="Helvetica,sans-Serif" font-size="10.00">+ initReadI2C()</text>
<text text-anchor="start" x="9.5" y="-73.5" font-family="Helvetica,sans-Serif" font-size="10.00">+ stopReadI2C()</text>
<text text-anchor="start" x="9.5" y="-62.5" font-family="Helvetica,sans-Serif" font-size="10.00">+ end()</text>
<text text-anchor="start" x="9.5" y="-51.5" font-family="Helvetica,sans-Serif" font-size="10.00">+ config()</text>
<text text-anchor="start" x="9.5" y="-40.5" font-family="Helvetica,sans-Serif" font-size="10.00">+ printConf()</text>
<text text-anchor="start" x="9.5" y="-29.5" font-family="Helvetica,sans-Serif" font-size="10.00">+ setEnvSensorSettings()</text>
<text text-anchor="start" x="9.5" y="-18.5" font-family="Helvetica,sans-Serif" font-size="10.00">+ readVBat()</text>
<text text-anchor="start" x="9.5" y="-7.5" font-family="Helvetica,sans-Serif" font-size="10.00">+ readMoisture()</text>
</g>
<!-- Node2 -->
<g id="node2" class="node"><title>Node2</title>
<polygon fill="white" stroke="#bfbfbf" points="0,-248.5 0,-305.5 54,-305.5 54,-248.5 0,-248.5"/>
<text text-anchor="middle" x="27" y="-293.5" font-family="Helvetica,sans-Serif" font-size="10.00">BME280</text>
<polyline fill="none" stroke="#bfbfbf" points="0,-286.5 54,-286.5 "/>
<text text-anchor="middle" x="27" y="-274.5" font-family="Helvetica,sans-Serif" font-size="10.00"> </text>
<polyline fill="none" stroke="#bfbfbf" points="0,-267.5 54,-267.5 "/>
<text text-anchor="middle" x="27" y="-255.5" font-family="Helvetica,sans-Serif" font-size="10.00"> </text>
</g>
<!-- Node2&#45;&gt;Node1 -->
<g id="edge1" class="edge"><title>Node2&#45;&gt;Node1</title>
<path fill="none" stroke="#404040" d="M25.8514,-248.308C25.8957,-238.947 26.4215,-228.47 28,-219 28.361,-216.834 28.754,-214.653 29.1758,-212.462"/>
<polygon fill="none" stroke="#404040" points="29.1864,-212.412 26.5252,-205.71 31.6882,-200.676 34.3494,-207.378 29.1864,-212.412"/>
<text text-anchor="middle" x="56" y="-222" font-family="Helvetica,sans-Serif" font-size="10.00"> +envSensor</text>
</g>
<!-- Node3 -->
<g id="node3" class="node"><title>Node3</title>
<polygon fill="white" stroke="#bfbfbf" points="81.5,-248.5 81.5,-305.5 130.5,-305.5 130.5,-248.5 81.5,-248.5"/>
<text text-anchor="middle" x="106" y="-293.5" font-family="Helvetica,sans-Serif" font-size="10.00">SI114X</text>
<polyline fill="none" stroke="#bfbfbf" points="81.5,-286.5 130.5,-286.5 "/>
<text text-anchor="middle" x="106" y="-274.5" font-family="Helvetica,sans-Serif" font-size="10.00"> </text>
<polyline fill="none" stroke="#bfbfbf" points="81.5,-267.5 130.5,-267.5 "/>
<text text-anchor="middle" x="106" y="-255.5" font-family="Helvetica,sans-Serif" font-size="10.00"> </text>
</g>
<!-- Node3&#45;&gt;Node1 -->
<g id="edge2" class="edge"><title>Node3&#45;&gt;Node1</title>
<path fill="none" stroke="#404040" d="M99.6619,-248.35C97.3106,-238.093 94.4768,-225.73 91.4638,-212.586"/>
<polygon fill="none" stroke="#404040" points="91.4587,-212.563 86.2192,-207.609 88.7775,-200.867 94.017,-205.821 91.4587,-212.563"/>
<text text-anchor="middle" x="125" y="-222" font-family="Helvetica,sans-Serif" font-size="10.00"> +lightSensor</text>
</g>
</g>
</svg>
