<?xml version="1.0" encoding="UTF-8" standalone="no"?>
<!DOCTYPE svg PUBLIC "-//W3C//DTD SVG 1.1//EN"
 "http://www.w3.org/Graphics/SVG/1.1/DTD/svg11.dtd">
<!-- Generated by graphviz version 2.38.0 (20140413.2041)
 -->
<!-- Title: CoolBoard::begin Pages: 1 -->
<svg width="815pt" height="1092pt"
 viewBox="0.00 0.00 815.00 1092.00" xmlns="http://www.w3.org/2000/svg" xmlns:xlink="http://www.w3.org/1999/xlink">
<g id="graph0" class="graph" transform="scale(1 1) rotate(0) translate(4 1088)">
<title>CoolBoard::begin</title>
<polygon fill="white" stroke="none" points="-4,4 -4,-1088 811,-1088 811,4 -4,4"/>
<!-- Node0 -->
<g id="node1" class="node"><title>Node0</title>
<polygon fill="#bfbfbf" stroke="black" points="0,-532.5 0,-551.5 92,-551.5 92,-532.5 0,-532.5"/>
<text text-anchor="middle" x="46" y="-539.5" font-family="Helvetica,sans-Serif" font-size="10.00">CoolBoard::begin</text>
</g>
<!-- Node1 -->
<g id="node2" class="node"><title>Node1</title>
<g id="a_node2"><a xlink:href="classJetpack.html#a5a53e1ebf7aaf3bf3e0d37ea64ca09a7" target="_top" xlink:title="Jetpack::begin">
<polygon fill="white" stroke="black" points="160,-1064.5 160,-1083.5 240,-1083.5 240,-1064.5 160,-1064.5"/>
<text text-anchor="middle" x="200" y="-1071.5" font-family="Helvetica,sans-Serif" font-size="10.00">Jetpack::begin</text>
</a>
</g>
</g>
<!-- Node0&#45;&gt;Node1 -->
<g id="edge1" class="edge"><title>Node0&#45;&gt;Node1</title>
<path fill="none" stroke="midnightblue" d="M47.1421,-551.788C48.2722,-616.011 57.7185,-976.932 128,-1055 133.829,-1061.48 141.6,-1065.85 149.862,-1068.78"/>
<polygon fill="midnightblue" stroke="midnightblue" points="149.122,-1072.21 159.699,-1071.6 151.05,-1065.48 149.122,-1072.21"/>
</g>
<!-- Node2 -->
<g id="node3" class="node"><title>Node2</title>
<g id="a_node3"><a xlink:href="classCoolFileSystem.html#a6ba6f666ed4c530174f8569d2c636748" target="_top" xlink:title="CoolFileSystem::begin">
<polygon fill="white" stroke="black" points="142,-1026.5 142,-1045.5 258,-1045.5 258,-1026.5 142,-1026.5"/>
<text text-anchor="middle" x="200" y="-1033.5" font-family="Helvetica,sans-Serif" font-size="10.00">CoolFileSystem::begin</text>
</a>
</g>
</g>
<!-- Node0&#45;&gt;Node2 -->
<g id="edge2" class="edge"><title>Node0&#45;&gt;Node2</title>
<path fill="none" stroke="midnightblue" d="M47.2786,-551.851C49.2188,-613.44 62.6305,-945.28 128,-1017 129.571,-1018.72 131.28,-1020.3 133.099,-1021.74"/>
<polygon fill="midnightblue" stroke="midnightblue" points="131.377,-1024.79 141.693,-1027.2 135.135,-1018.88 131.377,-1024.79"/>
</g>
<!-- Node3 -->
<g id="node4" class="node"><title>Node3</title>
<g id="a_node4"><a xlink:href="classCoolBoardLed.html#ae3cbde8affcc6f011cbd698c8ef911f6" target="_top" xlink:title="CoolBoardLed::begin">
<polygon fill="white" stroke="black" points="146.5,-988.5 146.5,-1007.5 253.5,-1007.5 253.5,-988.5 146.5,-988.5"/>
<text text-anchor="middle" x="200" y="-995.5" font-family="Helvetica,sans-Serif" font-size="10.00">CoolBoardLed::begin</text>
</a>
</g>
</g>
<!-- Node0&#45;&gt;Node3 -->
<g id="edge3" class="edge"><title>Node0&#45;&gt;Node3</title>
<path fill="none" stroke="midnightblue" d="M47.4355,-551.817C50.2303,-610.404 67.4942,-913.567 128,-979 130.748,-981.972 133.905,-984.499 137.327,-986.645"/>
<polygon fill="midnightblue" stroke="midnightblue" points="135.803,-989.797 146.299,-991.235 138.991,-983.565 135.803,-989.797"/>
</g>
<!-- Node4 -->
<g id="node5" class="node"><title>Node4</title>
<g id="a_node5"><a xlink:href="classCoolMQTT.html#ac9248808641ebf3054ed0620ea9d0100" target="_top" xlink:title="CoolMQTT::begin">
<polygon fill="white" stroke="black" points="153,-950.5 153,-969.5 247,-969.5 247,-950.5 153,-950.5"/>
<text text-anchor="middle" x="200" y="-957.5" font-family="Helvetica,sans-Serif" font-size="10.00">CoolMQTT::begin</text>
</a>
</g>
</g>
<!-- Node0&#45;&gt;Node4 -->
<g id="edge4" class="edge"><title>Node0&#45;&gt;Node4</title>
<path fill="none" stroke="midnightblue" d="M47.6134,-551.679C51.305,-606.904 72.3071,-881.79 128,-941 132.36,-945.636 137.717,-949.186 143.515,-951.899"/>
<polygon fill="midnightblue" stroke="midnightblue" points="142.322,-955.189 152.912,-955.506 144.831,-948.654 142.322,-955.189"/>
</g>
<!-- Node6 -->
<g id="node7" class="node"><title>Node6</title>
<g id="a_node7"><a xlink:href="classExternalSensors.html#a58ede0d786a86417254708870f04a21e" target="_top" xlink:title="ExternalSensors::begin">
<polygon fill="white" stroke="black" points="141,-912.5 141,-931.5 259,-931.5 259,-912.5 141,-912.5"/>
<text text-anchor="middle" x="200" y="-919.5" font-family="Helvetica,sans-Serif" font-size="10.00">ExternalSensors::begin</text>
</a>
</g>
</g>
<!-- Node0&#45;&gt;Node6 -->
<g id="edge6" class="edge"><title>Node0&#45;&gt;Node6</title>
<path fill="none" stroke="midnightblue" d="M47.8439,-551.77C52.5487,-604.02 77.1772,-850.062 128,-903 129.392,-904.45 130.881,-905.793 132.451,-907.037"/>
<polygon fill="midnightblue" stroke="midnightblue" points="130.585,-909.999 140.887,-912.471 134.375,-904.114 130.585,-909.999"/>
</g>
<!-- Node8 -->
<g id="node9" class="node"><title>Node8</title>
<g id="a_node9"><a xlink:href="classCoolWifi.html#a46942fed90e475112cc10b78a32e7aaa" target="_top" xlink:title="CoolWifi::begin">
<polygon fill="white" stroke="black" points="158.5,-874.5 158.5,-893.5 241.5,-893.5 241.5,-874.5 158.5,-874.5"/>
<text text-anchor="middle" x="200" y="-881.5" font-family="Helvetica,sans-Serif" font-size="10.00">CoolWifi::begin</text>
</a>
</g>
</g>
<!-- Node0&#45;&gt;Node8 -->
<g id="edge8" class="edge"><title>Node0&#45;&gt;Node8</title>
<path fill="none" stroke="midnightblue" d="M48.1107,-551.695C53.8832,-600.44 81.9688,-818.237 128,-865 133.727,-870.819 141.027,-874.915 148.756,-877.788"/>
<polygon fill="midnightblue" stroke="midnightblue" points="147.731,-881.135 158.318,-880.718 149.782,-874.442 147.731,-881.135"/>
</g>
<!-- Node9 -->
<g id="node10" class="node"><title>Node9</title>
<g id="a_node10"><a xlink:href="classCoolBoardSensors.html#a97095823ef7c8f5290812f1405b966b3" target="_top" xlink:title="CoolBoardSensors::begin">
<polygon fill="white" stroke="black" points="136,-836.5 136,-855.5 264,-855.5 264,-836.5 136,-836.5"/>
<text text-anchor="middle" x="200" y="-843.5" font-family="Helvetica,sans-Serif" font-size="10.00">CoolBoardSensors::begin</text>
</a>
</g>
</g>
<!-- Node0&#45;&gt;Node9 -->
<g id="edge9" class="edge"><title>Node0&#45;&gt;Node9</title>
<path fill="none" stroke="midnightblue" d="M46.601,-551.506C45.4735,-591.394 46.6321,-746.878 128,-827 129.466,-828.444 131.029,-829.781 132.671,-831.019"/>
<polygon fill="midnightblue" stroke="midnightblue" points="131.105,-834.165 141.456,-836.423 134.773,-828.203 131.105,-834.165"/>
</g>
<!-- Node12 -->
<g id="node13" class="node"><title>Node12</title>
<g id="a_node13"><a xlink:href="classCoolTime.html#ab1976cf718b950bc31e003c3323b8adb" target="_top" xlink:title="CoolTime::begin">
<polygon fill="white" stroke="black" points="156,-798.5 156,-817.5 244,-817.5 244,-798.5 156,-798.5"/>
<text text-anchor="middle" x="200" y="-805.5" font-family="Helvetica,sans-Serif" font-size="10.00">CoolTime::begin</text>
</a>
</g>
</g>
<!-- Node0&#45;&gt;Node12 -->
<g id="edge12" class="edge"><title>Node0&#45;&gt;Node12</title>
<path fill="none" stroke="midnightblue" d="M47.0878,-551.731C47.9691,-588.605 56.2061,-721.078 128,-789 133.107,-793.831 139.304,-797.463 145.885,-800.188"/>
<polygon fill="midnightblue" stroke="midnightblue" points="145.127,-803.628 155.721,-803.565 147.4,-797.007 145.127,-803.628"/>
</g>
<!-- Node19 -->
<g id="node20" class="node"><title>Node19</title>
<g id="a_node20"><a xlink:href="classIrene3000.html#ad5891806c500ae1007afe52b9e304c2b" target="_top" xlink:title="Irene3000::begin">
<polygon fill="white" stroke="black" points="155.5,-760.5 155.5,-779.5 244.5,-779.5 244.5,-760.5 155.5,-760.5"/>
<text text-anchor="middle" x="200" y="-767.5" font-family="Helvetica,sans-Serif" font-size="10.00">Irene3000::begin</text>
</a>
</g>
</g>
<!-- Node0&#45;&gt;Node19 -->
<g id="edge19" class="edge"><title>Node0&#45;&gt;Node19</title>
<path fill="none" stroke="midnightblue" d="M47.9952,-551.681C51.8351,-584.043 68.5812,-689.593 128,-746 133.072,-750.815 139.144,-754.666 145.573,-757.746"/>
<polygon fill="midnightblue" stroke="midnightblue" points="144.594,-761.129 155.172,-761.728 147.277,-754.663 144.594,-761.129"/>
</g>
<!-- Node20 -->
<g id="node21" class="node"><title>Node20</title>
<g id="a_node21"><a xlink:href="classCoolBoardLed.html#a96e1ea13003eee34c9dbcef340404426" target="_top" xlink:title="CoolBoardLed::blink">
<polygon fill="white" stroke="black" points="334,-722.5 334,-741.5 438,-741.5 438,-722.5 334,-722.5"/>
<text text-anchor="middle" x="386" y="-729.5" font-family="Helvetica,sans-Serif" font-size="10.00">CoolBoardLed::blink</text>
</a>
</g>
</g>
<!-- Node0&#45;&gt;Node20 -->
<g id="edge20" class="edge"><title>Node0&#45;&gt;Node20</title>
<path fill="none" stroke="midnightblue" d="M48.5525,-551.813C53.7222,-580.895 73.24,-666.96 128,-705 185.32,-744.818 267.88,-746.213 323.837,-741.179"/>
<polygon fill="midnightblue" stroke="midnightblue" points="324.359,-744.645 333.964,-740.172 323.667,-737.679 324.359,-744.645"/>
</g>
<!-- Node21 -->
<g id="node22" class="node"><title>Node21</title>
<g id="a_node22"><a xlink:href="classCoolBoardLed.html#a1b60e5e30bea96c49ed62ed1bf1ffc8b" target="_top" xlink:title="CoolBoardLed::config">
<polygon fill="white" stroke="black" points="145,-608.5 145,-627.5 255,-627.5 255,-608.5 145,-608.5"/>
<text text-anchor="middle" x="200" y="-615.5" font-family="Helvetica,sans-Serif" font-size="10.00">CoolBoardLed::config</text>
</a>
</g>
</g>
<!-- Node0&#45;&gt;Node21 -->
<g id="edge21" class="edge"><title>Node0&#45;&gt;Node21</title>
<path fill="none" stroke="midnightblue" d="M58.0087,-551.68C72.8984,-564.299 100.74,-586.255 128,-599 133.057,-601.364 138.459,-603.476 143.941,-605.351"/>
<polygon fill="midnightblue" stroke="midnightblue" points="143.247,-608.802 153.837,-608.476 145.355,-602.127 143.247,-608.802"/>
</g>
<!-- Node22 -->
<g id="node23" class="node"><title>Node22</title>
<g id="a_node23"><a xlink:href="classJetpack.html#ab065ee83e244265a2223a22f3ee4a719" target="_top" xlink:title="Jetpack::config">
<polygon fill="white" stroke="black" points="158.5,-570.5 158.5,-589.5 241.5,-589.5 241.5,-570.5 158.5,-570.5"/>
<text text-anchor="middle" x="200" y="-577.5" font-family="Helvetica,sans-Serif" font-size="10.00">Jetpack::config</text>
</a>
</g>
</g>
<!-- Node0&#45;&gt;Node22 -->
<g id="edge22" class="edge"><title>Node0&#45;&gt;Node22</title>
<path fill="none" stroke="midnightblue" d="M85.356,-551.589C105.324,-556.581 129.93,-562.732 151.133,-568.033"/>
<polygon fill="midnightblue" stroke="midnightblue" points="150.369,-571.45 160.92,-570.48 152.067,-564.659 150.369,-571.45"/>
</g>
<!-- Node23 -->
<g id="node24" class="node"><title>Node23</title>
<g id="a_node24"><a xlink:href="classExternalSensors.html#a862a4bd11346b37270d0244c2adabe5a" target="_top" xlink:title="ExternalSensors::config">
<polygon fill="white" stroke="black" points="139.5,-532.5 139.5,-551.5 260.5,-551.5 260.5,-532.5 139.5,-532.5"/>
<text text-anchor="middle" x="200" y="-539.5" font-family="Helvetica,sans-Serif" font-size="10.00">ExternalSensors::config</text>
</a>
</g>
</g>
<!-- Node0&#45;&gt;Node23 -->
<g id="edge23" class="edge"><title>Node0&#45;&gt;Node23</title>
<path fill="none" stroke="midnightblue" d="M92.1935,-542C103.863,-542 116.699,-542 129.303,-542"/>
<polygon fill="midnightblue" stroke="midnightblue" points="129.334,-545.5 139.334,-542 129.334,-538.5 129.334,-545.5"/>
</g>
<!-- Node24 -->
<g id="node25" class="node"><title>Node24</title>
<g id="a_node25"><a xlink:href="classCoolWifi.html#a4eb2f6b9b09dd588964b88b6c70122c0" target="_top" xlink:title="CoolWifi::config">
<polygon fill="white" stroke="black" points="157,-494.5 157,-513.5 243,-513.5 243,-494.5 157,-494.5"/>
<text text-anchor="middle" x="200" y="-501.5" font-family="Helvetica,sans-Serif" font-size="10.00">CoolWifi::config</text>
</a>
</g>
</g>
<!-- Node0&#45;&gt;Node24 -->
<g id="edge24" class="edge"><title>Node0&#45;&gt;Node24</title>
<path fill="none" stroke="midnightblue" d="M85.356,-532.411C105.324,-527.419 129.93,-521.268 151.133,-515.967"/>
<polygon fill="midnightblue" stroke="midnightblue" points="152.067,-519.341 160.92,-513.52 150.369,-512.55 152.067,-519.341"/>
</g>
<!-- Node25 -->
<g id="node26" class="node"><title>Node25</title>
<g id="a_node26"><a xlink:href="classCoolMQTT.html#a9b703de4f1358f0ee7a5e8c44979c648" target="_top" xlink:title="CoolMQTT::config">
<polygon fill="white" stroke="black" points="151.5,-456.5 151.5,-475.5 248.5,-475.5 248.5,-456.5 151.5,-456.5"/>
<text text-anchor="middle" x="200" y="-463.5" font-family="Helvetica,sans-Serif" font-size="10.00">CoolMQTT::config</text>
</a>
</g>
</g>
<!-- Node0&#45;&gt;Node25 -->
<g id="edge25" class="edge"><title>Node0&#45;&gt;Node25</title>
<path fill="none" stroke="midnightblue" d="M58.0087,-532.32C72.8984,-519.701 100.74,-497.745 128,-485 133.057,-482.636 138.459,-480.524 143.941,-478.649"/>
<polygon fill="midnightblue" stroke="midnightblue" points="145.355,-481.873 153.837,-475.524 143.247,-475.198 145.355,-481.873"/>
</g>
<!-- Node26 -->
<g id="node27" class="node"><title>Node26</title>
<g id="a_node27"><a xlink:href="classCoolTime.html#a87c28260c1bc77091162cbcf1ee2e129" target="_top" xlink:title="CoolTime::config">
<polygon fill="white" stroke="black" points="154.5,-418.5 154.5,-437.5 245.5,-437.5 245.5,-418.5 154.5,-418.5"/>
<text text-anchor="middle" x="200" y="-425.5" font-family="Helvetica,sans-Serif" font-size="10.00">CoolTime::config</text>
</a>
</g>
</g>
<!-- Node0&#45;&gt;Node26 -->
<g id="edge26" class="edge"><title>Node0&#45;&gt;Node26</title>
<path fill="none" stroke="midnightblue" d="M52.5178,-532.232C63.9708,-512.873 92.2613,-469.562 128,-447 133.115,-443.771 138.77,-441.086 144.591,-438.855"/>
<polygon fill="midnightblue" stroke="midnightblue" points="146.123,-442.031 154.475,-435.512 143.88,-435.4 146.123,-442.031"/>
</g>
<!-- Node27 -->
<g id="node28" class="node"><title>Node27</title>
<g id="a_node28"><a xlink:href="classIrene3000.html#afed5c35e4b23963c157847ef27c11e9c" target="_top" xlink:title="Irene3000::config">
<polygon fill="white" stroke="black" points="154,-380.5 154,-399.5 246,-399.5 246,-380.5 154,-380.5"/>
<text text-anchor="middle" x="200" y="-387.5" font-family="Helvetica,sans-Serif" font-size="10.00">Irene3000::config</text>
</a>
</g>
</g>
<!-- Node0&#45;&gt;Node27 -->
<g id="edge27" class="edge"><title>Node0&#45;&gt;Node27</title>
<path fill="none" stroke="midnightblue" d="M50.0808,-532.222C58.3811,-507.52 83.6327,-442.215 128,-409 132.842,-405.375 138.326,-402.441 144.048,-400.066"/>
<polygon fill="midnightblue" stroke="midnightblue" points="145.588,-403.233 153.83,-396.575 143.235,-396.64 145.588,-403.233"/>
</g>
<!-- Node29 -->
<g id="node30" class="node"><title>Node29</title>
<g id="a_node30"><a xlink:href="classCoolBoardSensors.html#a9a218895c5423375c33c08f2c56fb23a" target="_top" xlink:title="CoolBoardSensors::config">
<polygon fill="white" stroke="black" points="134.5,-342.5 134.5,-361.5 265.5,-361.5 265.5,-342.5 134.5,-342.5"/>
<text text-anchor="middle" x="200" y="-349.5" font-family="Helvetica,sans-Serif" font-size="10.00">CoolBoardSensors::config</text>
</a>
</g>
</g>
<!-- Node0&#45;&gt;Node29 -->
<g id="edge29" class="edge"><title>Node0&#45;&gt;Node29</title>
<path fill="none" stroke="midnightblue" d="M48.6935,-532.121C54.2572,-502.77 74.7618,-415.384 128,-371 130.015,-369.32 132.165,-367.787 134.414,-366.389"/>
<polygon fill="midnightblue" stroke="midnightblue" points="136.27,-369.368 143.512,-361.635 133.028,-363.164 136.27,-369.368"/>
</g>
<!-- Node30 -->
<g id="node31" class="node"><title>Node30</title>
<g id="a_node31"><a xlink:href="classCoolBoard.html#a519de78b807f8ec6463ff484eb925918" target="_top" xlink:title="CoolBoard::connect">
<polygon fill="white" stroke="black" points="148.5,-646.5 148.5,-665.5 251.5,-665.5 251.5,-646.5 148.5,-646.5"/>
<text text-anchor="middle" x="200" y="-653.5" font-family="Helvetica,sans-Serif" font-size="10.00">CoolBoard::connect</text>
</a>
</g>
</g>
<!-- Node0&#45;&gt;Node30 -->
<g id="edge30" class="edge"><title>Node0&#45;&gt;Node30</title>
<path fill="none" stroke="midnightblue" d="M52.5178,-551.768C63.9708,-571.127 92.2613,-614.438 128,-637 131.363,-639.123 134.96,-641.011 138.684,-642.69"/>
<polygon fill="midnightblue" stroke="midnightblue" points="137.555,-646.007 148.141,-646.445 140.139,-639.501 137.555,-646.007"/>
</g>
<!-- Node31 -->
<g id="node32" class="node"><title>Node31</title>
<g id="a_node32"><a xlink:href="classCoolBoardLed.html#a30fadd4cbec17ceea428bf7a32207e87" target="_top" xlink:title="CoolBoardLed::write">
<polygon fill="white" stroke="black" points="333.5,-684.5 333.5,-703.5 438.5,-703.5 438.5,-684.5 333.5,-684.5"/>
<text text-anchor="middle" x="386" y="-691.5" font-family="Helvetica,sans-Serif" font-size="10.00">CoolBoardLed::write</text>
</a>
</g>
</g>
<!-- Node0&#45;&gt;Node31 -->
<g id="edge49" class="edge"><title>Node0&#45;&gt;Node31</title>
<path fill="none" stroke="midnightblue" d="M49.5189,-551.544C56.7626,-576.866 80.2543,-645.807 128,-675 186.841,-710.977 268.008,-710.515 323.276,-704.454"/>
<polygon fill="midnightblue" stroke="midnightblue" points="323.767,-707.92 333.284,-703.264 322.94,-700.969 323.767,-707.92"/>
</g>
<!-- Node38 -->
<g id="node39" class="node"><title>Node38</title>
<g id="a_node39"><a xlink:href="classCoolBoardLed.html#a93d545679237e8cc858324367149775c" target="_top" xlink:title="CoolBoardLed::fadeOut">
<polygon fill="white" stroke="black" points="140.5,-304.5 140.5,-323.5 259.5,-323.5 259.5,-304.5 140.5,-304.5"/>
<text text-anchor="middle" x="200" y="-311.5" font-family="Helvetica,sans-Serif" font-size="10.00">CoolBoardLed::fadeOut</text>
</a>
</g>
</g>
<!-- Node0&#45;&gt;Node38 -->
<g id="edge40" class="edge"><title>Node0&#45;&gt;Node38</title>
<path fill="none" stroke="midnightblue" d="M47.7323,-532.398C50.7835,-499.332 65.4354,-389.133 128,-333 129.736,-331.442 131.587,-330.01 133.526,-328.693"/>
<polygon fill="midnightblue" stroke="midnightblue" points="135.523,-331.586 142.521,-323.63 132.09,-325.486 135.523,-331.586"/>
</g>
<!-- Node39 -->
<g id="node40" class="node"><title>Node39</title>
<g id="a_node40"><a xlink:href="classCoolBoardLed.html#a8ed3053a36f0ed4a131f43b5b17efb61" target="_top" xlink:title="CoolBoardLed::printConf">
<polygon fill="white" stroke="black" points="138,-266.5 138,-285.5 262,-285.5 262,-266.5 138,-266.5"/>
<text text-anchor="middle" x="200" y="-273.5" font-family="Helvetica,sans-Serif" font-size="10.00">CoolBoardLed::printConf</text>
</a>
</g>
</g>
<!-- Node0&#45;&gt;Node39 -->
<g id="edge41" class="edge"><title>Node0&#45;&gt;Node39</title>
<path fill="none" stroke="midnightblue" d="M47.0878,-532.269C47.9691,-495.395 56.2061,-362.922 128,-295 129.657,-293.432 131.429,-291.991 133.291,-290.666"/>
<polygon fill="midnightblue" stroke="midnightblue" points="135.114,-293.655 141.962,-285.571 131.567,-287.62 135.114,-293.655"/>
</g>
<!-- Node40 -->
<g id="node41" class="node"><title>Node40</title>
<g id="a_node41"><a xlink:href="classJetpack.html#ac54a7bb4f9166bee32052253d9b1d306" target="_top" xlink:title="Jetpack::printConf">
<polygon fill="white" stroke="black" points="151.5,-228.5 151.5,-247.5 248.5,-247.5 248.5,-228.5 151.5,-228.5"/>
<text text-anchor="middle" x="200" y="-235.5" font-family="Helvetica,sans-Serif" font-size="10.00">Jetpack::printConf</text>
</a>
</g>
</g>
<!-- Node0&#45;&gt;Node40 -->
<g id="edge42" class="edge"><title>Node0&#45;&gt;Node40</title>
<path fill="none" stroke="midnightblue" d="M46.601,-532.494C45.4735,-492.606 46.6321,-337.122 128,-257 132.035,-253.027 136.804,-249.861 141.932,-247.341"/>
<polygon fill="midnightblue" stroke="midnightblue" points="143.52,-250.473 151.468,-243.467 140.886,-243.988 143.52,-250.473"/>
</g>
<!-- Node41 -->
<g id="node42" class="node"><title>Node41</title>
<g id="a_node42"><a xlink:href="classExternalSensors.html#a78c2bf55084435dd51d3c559b2d3c6f3" target="_top" xlink:title="ExternalSensors::printConf">
<polygon fill="white" stroke="black" points="133,-190.5 133,-209.5 267,-209.5 267,-190.5 133,-190.5"/>
<text text-anchor="middle" x="200" y="-197.5" font-family="Helvetica,sans-Serif" font-size="10.00">ExternalSensors::printConf</text>
</a>
</g>
</g>
<!-- Node0&#45;&gt;Node41 -->
<g id="edge43" class="edge"><title>Node0&#45;&gt;Node41</title>
<path fill="none" stroke="midnightblue" d="M48.1107,-532.305C53.8832,-483.56 81.9688,-265.763 128,-219 129.41,-217.568 130.915,-216.24 132.498,-215.009"/>
<polygon fill="midnightblue" stroke="midnightblue" points="134.416,-217.937 140.988,-209.627 130.668,-212.025 134.416,-217.937"/>
</g>
<!-- Node42 -->
<g id="node43" class="node"><title>Node42</title>
<g id="a_node43"><a xlink:href="classCoolMQTT.html#a40553a0ad4b5ecf1cb4411ab54ca85fb" target="_top" xlink:title="CoolMQTT::printConf">
<polygon fill="white" stroke="black" points="145,-152.5 145,-171.5 255,-171.5 255,-152.5 145,-152.5"/>
<text text-anchor="middle" x="200" y="-159.5" font-family="Helvetica,sans-Serif" font-size="10.00">CoolMQTT::printConf</text>
</a>
</g>
</g>
<!-- Node0&#45;&gt;Node42 -->
<g id="edge44" class="edge"><title>Node0&#45;&gt;Node42</title>
<path fill="none" stroke="midnightblue" d="M47.8439,-532.23C52.5487,-479.98 77.1772,-233.938 128,-181 130.342,-178.561 132.96,-176.423 135.771,-174.55"/>
<polygon fill="midnightblue" stroke="midnightblue" points="137.592,-177.544 144.705,-169.691 134.248,-171.395 137.592,-177.544"/>
</g>
<!-- Node43 -->
<g id="node44" class="node"><title>Node43</title>
<g id="a_node44"><a xlink:href="classIrene3000.html#a7bc2414100b5e19eacc6630fa34b2654" target="_top" xlink:title="Irene3000::printConf">
<polygon fill="white" stroke="black" points="147.5,-114.5 147.5,-133.5 252.5,-133.5 252.5,-114.5 147.5,-114.5"/>
<text text-anchor="middle" x="200" y="-121.5" font-family="Helvetica,sans-Serif" font-size="10.00">Irene3000::printConf</text>
</a>
</g>
</g>
<!-- Node0&#45;&gt;Node43 -->
<g id="edge45" class="edge"><title>Node0&#45;&gt;Node43</title>
<path fill="none" stroke="midnightblue" d="M47.6134,-532.321C51.305,-477.096 72.3071,-202.21 128,-143 131,-139.811 134.471,-137.135 138.233,-134.893"/>
<polygon fill="midnightblue" stroke="midnightblue" points="139.992,-137.929 147.455,-130.409 136.932,-131.634 139.992,-137.929"/>
</g>
<!-- Node44 -->
<g id="node45" class="node"><title>Node44</title>
<g id="a_node45"><a xlink:href="classCoolWifi.html#a9e6105c6d13d35ec510f6633da9e0223" target="_top" xlink:title="CoolWifi::printConf">
<polygon fill="white" stroke="black" points="150,-76.5 150,-95.5 250,-95.5 250,-76.5 150,-76.5"/>
<text text-anchor="middle" x="200" y="-83.5" font-family="Helvetica,sans-Serif" font-size="10.00">CoolWifi::printConf</text>
</a>
</g>
</g>
<!-- Node0&#45;&gt;Node44 -->
<g id="edge46" class="edge"><title>Node0&#45;&gt;Node44</title>
<path fill="none" stroke="midnightblue" d="M47.4355,-532.183C50.2303,-473.596 67.4942,-170.433 128,-105 131.59,-101.118 135.878,-97.9947 140.544,-95.4865"/>
<polygon fill="midnightblue" stroke="midnightblue" points="142.146,-98.6054 149.898,-91.3833 139.335,-92.195 142.146,-98.6054"/>
</g>
<!-- Node45 -->
<g id="node46" class="node"><title>Node45</title>
<g id="a_node46"><a xlink:href="classCoolTime.html#af355e7f9b3898211cd2ff25eab5933b1" target="_top" xlink:title="CoolTime::printConf">
<polygon fill="white" stroke="black" points="148,-38.5 148,-57.5 252,-57.5 252,-38.5 148,-38.5"/>
<text text-anchor="middle" x="200" y="-45.5" font-family="Helvetica,sans-Serif" font-size="10.00">CoolTime::printConf</text>
</a>
</g>
</g>
<!-- Node0&#45;&gt;Node45 -->
<g id="edge47" class="edge"><title>Node0&#45;&gt;Node45</title>
<path fill="none" stroke="midnightblue" d="M47.2786,-532.149C49.2188,-470.56 62.6305,-138.72 128,-67 131.081,-63.6197 134.691,-60.8135 138.622,-58.487"/>
<polygon fill="midnightblue" stroke="midnightblue" points="140.175,-61.6237 147.658,-54.1231 137.131,-55.3203 140.175,-61.6237"/>
</g>
<!-- Node46 -->
<g id="node47" class="node"><title>Node46</title>
<g id="a_node47"><a xlink:href="classCoolBoardSensors.html#af6fd79505815b204c178617ecf54c873" target="_top" xlink:title="CoolBoardSensors::printConf">
<polygon fill="white" stroke="black" points="128,-0.5 128,-19.5 272,-19.5 272,-0.5 128,-0.5"/>
<text text-anchor="middle" x="200" y="-7.5" font-family="Helvetica,sans-Serif" font-size="10.00">CoolBoardSensors::printConf</text>
</a>
</g>
</g>
<!-- Node0&#45;&gt;Node46 -->
<g id="edge48" class="edge"><title>Node0&#45;&gt;Node46</title>
<path fill="none" stroke="midnightblue" d="M47.1421,-532.212C48.2722,-467.989 57.7185,-107.068 128,-29 129.067,-27.8146 130.199,-26.6996 131.388,-25.6511"/>
<polygon fill="midnightblue" stroke="midnightblue" points="133.77,-28.2559 139.952,-19.6518 129.754,-22.5226 133.77,-28.2559"/>
</g>
<!-- Node5 -->
<g id="node6" class="node"><title>Node5</title>
<g id="a_node6"><a xlink:href="classCoolMQTT.html#a30d82ad665bfb603f46ecdbc290775df" target="_top" xlink:title="CoolMQTT::callback">
<polygon fill="white" stroke="black" points="332.5,-956.5 332.5,-975.5 439.5,-975.5 439.5,-956.5 332.5,-956.5"/>
<text text-anchor="middle" x="386" y="-963.5" font-family="Helvetica,sans-Serif" font-size="10.00">CoolMQTT::callback</text>
</a>
</g>
</g>
<!-- Node4&#45;&gt;Node5 -->
<g id="edge5" class="edge"><title>Node4&#45;&gt;Node5</title>
<path fill="none" stroke="midnightblue" d="M247.431,-961.514C270.067,-962.252 297.628,-963.151 322.119,-963.95"/>
<polygon fill="midnightblue" stroke="midnightblue" points="322.295,-967.457 332.404,-964.285 322.523,-960.461 322.295,-967.457"/>
</g>
<!-- Node7 -->
<g id="node8" class="node"><title>Node7</title>
<g id="a_node8"><a xlink:href="classBaseExternalSensor.html#a87d132803d4f4fdd4e66332809f0c9a0" target="_top" xlink:title="BaseExternalSensor\l::begin">
<polygon fill="white" stroke="black" points="333,-907 333,-937 439,-937 439,-907 333,-907"/>
<text text-anchor="start" x="341" y="-925" font-family="Helvetica,sans-Serif" font-size="10.00">BaseExternalSensor</text>
<text text-anchor="middle" x="386" y="-914" font-family="Helvetica,sans-Serif" font-size="10.00">::begin</text>
</a>
</g>
</g>
<!-- Node6&#45;&gt;Node7 -->
<g id="edge7" class="edge"><title>Node6&#45;&gt;Node7</title>
<path fill="none" stroke="midnightblue" d="M259.219,-922C279.394,-922 302.086,-922 322.586,-922"/>
<polygon fill="midnightblue" stroke="midnightblue" points="322.765,-925.5 332.765,-922 322.765,-918.5 322.765,-925.5"/>
</g>
<!-- Node10 -->
<g id="node11" class="node"><title>Node10</title>
<g id="a_node11"><a xlink:href="classCoolBoardSensors.html#acad6a8418c66d36868caca23c844ecb6" target="_top" xlink:title="CoolBoardSensors::initReadI2C">
<polygon fill="white" stroke="black" points="308,-819.5 308,-838.5 464,-838.5 464,-819.5 308,-819.5"/>
<text text-anchor="middle" x="386" y="-826.5" font-family="Helvetica,sans-Serif" font-size="10.00">CoolBoardSensors::initReadI2C</text>
</a>
</g>
</g>
<!-- Node9&#45;&gt;Node10 -->
<g id="edge10" class="edge"><title>Node9&#45;&gt;Node10</title>
<path fill="none" stroke="midnightblue" d="M264.065,-840.173C274.818,-839.18 286.157,-838.132 297.409,-837.093"/>
<polygon fill="midnightblue" stroke="midnightblue" points="298.062,-840.547 307.698,-836.142 297.418,-833.577 298.062,-840.547"/>
</g>
<!-- Node11 -->
<g id="node12" class="node"><title>Node11</title>
<g id="a_node12"><a xlink:href="classCoolBoardSensors.html#a406307ffd70272282d91479c7ed8d66f" target="_top" xlink:title="CoolBoardSensors::setEnv\lSensorSettings">
<polygon fill="white" stroke="black" points="318.5,-858 318.5,-888 453.5,-888 453.5,-858 318.5,-858"/>
<text text-anchor="start" x="326.5" y="-876" font-family="Helvetica,sans-Serif" font-size="10.00">CoolBoardSensors::setEnv</text>
<text text-anchor="middle" x="386" y="-865" font-family="Helvetica,sans-Serif" font-size="10.00">SensorSettings</text>
</a>
</g>
</g>
<!-- Node9&#45;&gt;Node11 -->
<g id="edge11" class="edge"><title>Node9&#45;&gt;Node11</title>
<path fill="none" stroke="midnightblue" d="M264.065,-855.254C278.265,-857.338 293.49,-859.572 308.183,-861.728"/>
<polygon fill="midnightblue" stroke="midnightblue" points="307.848,-865.216 318.251,-863.205 308.865,-858.29 307.848,-865.216"/>
</g>
<!-- Node13 -->
<g id="node14" class="node"><title>Node13</title>
<g id="a_node14"><a xlink:href="classCoolTime.html#aae601f795452cfa48d9fb337aed483a8" target="_top" xlink:title="CoolTime::update">
<polygon fill="white" stroke="black" points="339,-781.5 339,-800.5 433,-800.5 433,-781.5 339,-781.5"/>
<text text-anchor="middle" x="386" y="-788.5" font-family="Helvetica,sans-Serif" font-size="10.00">CoolTime::update</text>
</a>
</g>
</g>
<!-- Node12&#45;&gt;Node13 -->
<g id="edge13" class="edge"><title>Node12&#45;&gt;Node13</title>
<path fill="none" stroke="midnightblue" d="M244.14,-804.014C269.382,-801.682 301.538,-798.711 328.751,-796.197"/>
<polygon fill="midnightblue" stroke="midnightblue" points="329.278,-799.663 338.914,-795.258 328.634,-792.693 329.278,-799.663"/>
</g>
<!-- Node14 -->
<g id="node15" class="node"><title>Node14</title>
<g id="a_node15"><a xlink:href="classCoolTime.html#a5ae038a4498602b189f76a10bf02adf8" target="_top" xlink:title="CoolTime::isTimeSync">
<polygon fill="white" stroke="black" points="507,-819.5 507,-838.5 623,-838.5 623,-819.5 507,-819.5"/>
<text text-anchor="middle" x="565" y="-826.5" font-family="Helvetica,sans-Serif" font-size="10.00">CoolTime::isTimeSync</text>
</a>
</g>
</g>
<!-- Node13&#45;&gt;Node14 -->
<g id="edge14" class="edge"><title>Node13&#45;&gt;Node14</title>
<path fill="none" stroke="midnightblue" d="M431.665,-800.589C455.337,-805.671 484.608,-811.955 509.597,-817.32"/>
<polygon fill="midnightblue" stroke="midnightblue" points="509.145,-820.803 519.657,-819.48 510.614,-813.959 509.145,-820.803"/>
</g>
<!-- Node16 -->
<g id="node17" class="node"><title>Node16</title>
<g id="a_node17"><a xlink:href="classCoolTime.html#a41fbbbfd651c2079f54d4b2911e4c705" target="_top" xlink:title="CoolTime::getNtpTime">
<polygon fill="white" stroke="black" points="507,-781.5 507,-800.5 623,-800.5 623,-781.5 507,-781.5"/>
<text text-anchor="middle" x="565" y="-788.5" font-family="Helvetica,sans-Serif" font-size="10.00">CoolTime::getNtpTime</text>
</a>
</g>
</g>
<!-- Node13&#45;&gt;Node16 -->
<g id="edge16" class="edge"><title>Node13&#45;&gt;Node16</title>
<path fill="none" stroke="midnightblue" d="M433.043,-791C452.408,-791 475.329,-791 496.538,-791"/>
<polygon fill="midnightblue" stroke="midnightblue" points="496.789,-794.5 506.789,-791 496.789,-787.5 496.789,-794.5"/>
</g>
<!-- Node18 -->
<g id="node19" class="node"><title>Node18</title>
<g id="a_node19"><a xlink:href="classCoolTime.html#ae9658c9b377510d469e3b88edf33ee85" target="_top" xlink:title="CoolTime::saveTimeSync">
<polygon fill="white" stroke="black" points="500,-743.5 500,-762.5 630,-762.5 630,-743.5 500,-743.5"/>
<text text-anchor="middle" x="565" y="-750.5" font-family="Helvetica,sans-Serif" font-size="10.00">CoolTime::saveTimeSync</text>
</a>
</g>
</g>
<!-- Node13&#45;&gt;Node18 -->
<g id="edge18" class="edge"><title>Node13&#45;&gt;Node18</title>
<path fill="none" stroke="midnightblue" d="M431.665,-781.411C455.337,-776.329 484.608,-770.045 509.597,-764.68"/>
<polygon fill="midnightblue" stroke="midnightblue" points="510.614,-768.041 519.657,-762.52 509.145,-761.197 510.614,-768.041"/>
</g>
<!-- Node15 -->
<g id="node16" class="node"><title>Node15</title>
<g id="a_node16"><a xlink:href="classCoolTime.html#a5d17f707a9d337720493b2bce9d41c21" target="_top" xlink:title="CoolTime::getLastSyncTime">
<polygon fill="white" stroke="black" points="666,-819.5 666,-838.5 807,-838.5 807,-819.5 666,-819.5"/>
<text text-anchor="middle" x="736.5" y="-826.5" font-family="Helvetica,sans-Serif" font-size="10.00">CoolTime::getLastSyncTime</text>
</a>
</g>
</g>
<!-- Node14&#45;&gt;Node15 -->
<g id="edge15" class="edge"><title>Node14&#45;&gt;Node15</title>
<path fill="none" stroke="midnightblue" d="M623.385,-829C633.826,-829 644.889,-829 655.837,-829"/>
<polygon fill="midnightblue" stroke="midnightblue" points="655.839,-832.5 665.839,-829 655.839,-825.5 655.839,-832.5"/>
</g>
<!-- Node17 -->
<g id="node18" class="node"><title>Node17</title>
<g id="a_node18"><a xlink:href="classCoolTime.html#a236a38d120dc53bc67456d763838c5a1" target="_top" xlink:title="CoolTime::sendNTPpacket">
<polygon fill="white" stroke="black" points="669,-781.5 669,-800.5 804,-800.5 804,-781.5 669,-781.5"/>
<text text-anchor="middle" x="736.5" y="-788.5" font-family="Helvetica,sans-Serif" font-size="10.00">CoolTime::sendNTPpacket</text>
</a>
</g>
</g>
<!-- Node16&#45;&gt;Node17 -->
<g id="edge17" class="edge"><title>Node16&#45;&gt;Node17</title>
<path fill="none" stroke="midnightblue" d="M623.385,-791C634.676,-791 646.693,-791 658.507,-791"/>
<polygon fill="midnightblue" stroke="midnightblue" points="658.813,-794.5 668.813,-791 658.813,-787.5 658.813,-794.5"/>
</g>
<!-- Node28 -->
<g id="node29" class="node"><title>Node28</title>
<g id="a_node29"><a xlink:href="classIrene3000.html#abcad62d1201a59f8dd3ba87048002728" target="_top" xlink:title="Irene3000::gainConvert">
<polygon fill="white" stroke="black" points="327,-380.5 327,-399.5 445,-399.5 445,-380.5 327,-380.5"/>
<text text-anchor="middle" x="386" y="-387.5" font-family="Helvetica,sans-Serif" font-size="10.00">Irene3000::gainConvert</text>
</a>
</g>
</g>
<!-- Node27&#45;&gt;Node28 -->
<g id="edge28" class="edge"><title>Node27&#45;&gt;Node28</title>
<path fill="none" stroke="midnightblue" d="M246.011,-390C267.235,-390 293.018,-390 316.587,-390"/>
<polygon fill="midnightblue" stroke="midnightblue" points="316.883,-393.5 326.883,-390 316.883,-386.5 316.883,-393.5"/>
</g>
<!-- Node30&#45;&gt;Node20 -->
<g id="edge39" class="edge"><title>Node30&#45;&gt;Node20</title>
<path fill="none" stroke="midnightblue" d="M216.026,-665.552C236.231,-678.029 273.602,-699.828 308,-713 314.479,-715.481 321.392,-717.722 328.315,-719.72"/>
<polygon fill="midnightblue" stroke="midnightblue" points="327.849,-723.221 338.417,-722.475 329.69,-716.467 327.849,-723.221"/>
</g>
<!-- Node30&#45;&gt;Node31 -->
<g id="edge31" class="edge"><title>Node30&#45;&gt;Node31</title>
<path fill="none" stroke="midnightblue" d="M247.431,-665.589C272.149,-670.694 302.739,-677.011 328.792,-682.392"/>
<polygon fill="midnightblue" stroke="midnightblue" points="328.402,-685.885 338.903,-684.48 329.817,-679.03 328.402,-685.885"/>
</g>
<!-- Node32 -->
<g id="node33" class="node"><title>Node32</title>
<g id="a_node33"><a xlink:href="classCoolWifi.html#a1c7b4d82a4098d346e7593dce92039fa" target="_top" xlink:title="CoolWifi::state">
<polygon fill="white" stroke="black" points="345,-494.5 345,-513.5 427,-513.5 427,-494.5 345,-494.5"/>
<text text-anchor="middle" x="386" y="-501.5" font-family="Helvetica,sans-Serif" font-size="10.00">CoolWifi::state</text>
</a>
</g>
</g>
<!-- Node30&#45;&gt;Node32 -->
<g id="edge32" class="edge"><title>Node30&#45;&gt;Node32</title>
<path fill="none" stroke="midnightblue" d="M251.674,-649.225C259.171,-646.403 266.283,-642.469 272,-637 310.395,-600.273 269.247,-559.35 308,-523 315.457,-516.006 325.065,-511.47 334.95,-508.556"/>
<polygon fill="midnightblue" stroke="midnightblue" points="335.966,-511.911 344.858,-506.151 334.314,-505.109 335.966,-511.911"/>
</g>
<!-- Node33 -->
<g id="node34" class="node"><title>Node33</title>
<g id="a_node34"><a xlink:href="classCoolWifi.html#ad060353050f40d032a2dbf9e54a768bf" target="_top" xlink:title="CoolWifi::connect">
<polygon fill="white" stroke="black" points="338.5,-646.5 338.5,-665.5 433.5,-665.5 433.5,-646.5 338.5,-646.5"/>
<text text-anchor="middle" x="386" y="-653.5" font-family="Helvetica,sans-Serif" font-size="10.00">CoolWifi::connect</text>
</a>
</g>
</g>
<!-- Node30&#45;&gt;Node33 -->
<g id="edge33" class="edge"><title>Node30&#45;&gt;Node33</title>
<path fill="none" stroke="midnightblue" d="M251.766,-656C275.5,-656 303.851,-656 328.288,-656"/>
<polygon fill="midnightblue" stroke="midnightblue" points="328.496,-659.5 338.496,-656 328.496,-652.5 328.496,-659.5"/>
</g>
<!-- Node35 -->
<g id="node36" class="node"><title>Node35</title>
<g id="a_node36"><a xlink:href="classCoolMQTT.html#a5d003307eff78efbd585e42b43b72b6d" target="_top" xlink:title="CoolMQTT::state">
<polygon fill="white" stroke="black" points="519,-589.5 519,-608.5 611,-608.5 611,-589.5 519,-589.5"/>
<text text-anchor="middle" x="565" y="-596.5" font-family="Helvetica,sans-Serif" font-size="10.00">CoolMQTT::state</text>
</a>
</g>
</g>
<!-- Node30&#45;&gt;Node35 -->
<g id="edge35" class="edge"><title>Node30&#45;&gt;Node35</title>
<path fill="none" stroke="midnightblue" d="M250.932,-646.404C258.273,-643.936 265.531,-640.851 272,-637 291.991,-625.1 286.629,-608.192 308,-599 374.356,-570.458 459.639,-578.157 513.072,-587.584"/>
<polygon fill="midnightblue" stroke="midnightblue" points="512.523,-591.042 522.993,-589.419 513.797,-584.159 512.523,-591.042"/>
</g>
<!-- Node36 -->
<g id="node37" class="node"><title>Node36</title>
<g id="a_node37"><a xlink:href="classCoolMQTT.html#a58b0b1f64b269c2681685208262fba1d" target="_top" xlink:title="CoolMQTT::connect">
<polygon fill="white" stroke="black" points="333.5,-608.5 333.5,-627.5 438.5,-627.5 438.5,-608.5 333.5,-608.5"/>
<text text-anchor="middle" x="386" y="-615.5" font-family="Helvetica,sans-Serif" font-size="10.00">CoolMQTT::connect</text>
</a>
</g>
</g>
<!-- Node30&#45;&gt;Node36 -->
<g id="edge36" class="edge"><title>Node30&#45;&gt;Node36</title>
<path fill="none" stroke="midnightblue" d="M247.431,-646.411C272.149,-641.306 302.739,-634.989 328.792,-629.608"/>
<polygon fill="midnightblue" stroke="midnightblue" points="329.817,-632.97 338.903,-627.52 328.402,-626.115 329.817,-632.97"/>
</g>
<!-- Node37 -->
<g id="node38" class="node"><title>Node37</title>
<g id="a_node38"><a xlink:href="classCoolBoard.html#aaa24480b273fc095a1356a589c333781" target="_top" xlink:title="CoolBoard::getLogInterval">
<polygon fill="white" stroke="black" points="321,-532.5 321,-551.5 451,-551.5 451,-532.5 321,-532.5"/>
<text text-anchor="middle" x="386" y="-539.5" font-family="Helvetica,sans-Serif" font-size="10.00">CoolBoard::getLogInterval</text>
</a>
</g>
</g>
<!-- Node30&#45;&gt;Node37 -->
<g id="edge38" class="edge"><title>Node30&#45;&gt;Node37</title>
<path fill="none" stroke="midnightblue" d="M251.672,-648.123C258.995,-645.429 266.054,-641.823 272,-637 299.477,-614.712 280.982,-588.842 308,-566 312.912,-561.847 318.541,-558.412 324.47,-555.57"/>
<polygon fill="midnightblue" stroke="midnightblue" points="326.113,-558.677 333.977,-551.576 323.402,-552.223 326.113,-558.677"/>
</g>
<!-- Node34 -->
<g id="node35" class="node"><title>Node34</title>
<g id="a_node35"><a xlink:href="classCoolWifi.html#a914d7a1df14dd6b75345fb614c34e9d6" target="_top" xlink:title="CoolWifi::addWifi">
<polygon fill="white" stroke="black" points="518.5,-646.5 518.5,-665.5 611.5,-665.5 611.5,-646.5 518.5,-646.5"/>
<text text-anchor="middle" x="565" y="-653.5" font-family="Helvetica,sans-Serif" font-size="10.00">CoolWifi::addWifi</text>
</a>
</g>
</g>
<!-- Node33&#45;&gt;Node34 -->
<g id="edge34" class="edge"><title>Node33&#45;&gt;Node34</title>
<path fill="none" stroke="midnightblue" d="M433.505,-656C456.448,-656 484.294,-656 508.36,-656"/>
<polygon fill="midnightblue" stroke="midnightblue" points="508.418,-659.5 518.418,-656 508.418,-652.5 508.418,-659.5"/>
</g>
<!-- Node36&#45;&gt;Node35 -->
<g id="edge37" class="edge"><title>Node36&#45;&gt;Node35</title>
<path fill="none" stroke="midnightblue" d="M438.672,-612.453C460.705,-610.088 486.445,-607.325 508.846,-604.92"/>
<polygon fill="midnightblue" stroke="midnightblue" points="509.309,-608.391 518.878,-603.844 508.562,-601.431 509.309,-608.391"/>
</g>
</g>
</svg>
