<?xml version="1.0" encoding="UTF-8" standalone="no"?>
<!DOCTYPE svg PUBLIC "-//W3C//DTD SVG 1.1//EN"
 "http://www.w3.org/Graphics/SVG/1.1/DTD/svg11.dtd">
<!-- Generated by graphviz version 2.38.0 (20140413.2041)
 -->
<!-- Title: CoolBoard::getInterval Pages: 1 -->
<svg width="261pt" height="66pt"
 viewBox="0.00 0.00 261.00 66.00" xmlns="http://www.w3.org/2000/svg" xmlns:xlink="http://www.w3.org/1999/xlink">
<g id="graph0" class="graph" transform="scale(1 1) rotate(0) translate(4 62)">
<title>CoolBoard::getInterval</title>
<polygon fill="white" stroke="none" points="-4,4 -4,-62 257,-62 257,4 -4,4"/>
<!-- Node41 -->
<g id="node1" class="node"><title>Node41</title>
<polygon fill="#bfbfbf" stroke="black" points="0,-19.5 0,-38.5 114,-38.5 114,-19.5 0,-19.5"/>
<text text-anchor="middle" x="57" y="-26.5" font-family="Helvetica,sans-Serif" font-size="10.00">CoolBoard::getInterval</text>
</g>
<!-- Node42 -->
<g id="node2" class="node"><title>Node42</title>
<g id="a_node2"><a xlink:href="class_cool_board.html#a519de78b807f8ec6463ff484eb925918" target="_top" xlink:title="CoolBoard::connect">
<polygon fill="white" stroke="black" points="150,-38.5 150,-57.5 253,-57.5 253,-38.5 150,-38.5"/>
<text text-anchor="middle" x="201.5" y="-45.5" font-family="Helvetica,sans-Serif" font-size="10.00">CoolBoard::connect</text>
</a>
</g>
</g>
<!-- Node41&#45;&gt;Node42 -->
<g id="edge1" class="edge"><title>Node41&#45;&gt;Node42</title>
<path fill="none" stroke="midnightblue" d="M124.269,-37.8359C132.807,-38.9742 141.441,-40.1254 149.677,-41.2235"/>
<polygon fill="midnightblue" stroke="midnightblue" points="124.695,-34.3617 114.32,-36.5093 123.769,-41.3003 124.695,-34.3617"/>
</g>
<!-- Node43 -->
<g id="node3" class="node"><title>Node43</title>
<g id="a_node3"><a xlink:href="class_cool_board.html#a5caa34e713c0b138e34390ddc4208fd3" target="_top" xlink:title="CoolBoard::sleep">
<polygon fill="white" stroke="black" points="155.5,-0.5 155.5,-19.5 247.5,-19.5 247.5,-0.5 155.5,-0.5"/>
<text text-anchor="middle" x="201.5" y="-7.5" font-family="Helvetica,sans-Serif" font-size="10.00">CoolBoard::sleep</text>
</a>
</g>
</g>
<!-- Node41&#45;&gt;Node43 -->
<g id="edge2" class="edge"><title>Node41&#45;&gt;Node43</title>
<path fill="none" stroke="midnightblue" d="M124.258,-20.1656C134.7,-18.7733 145.286,-17.3619 155.112,-16.0517"/>
<polygon fill="midnightblue" stroke="midnightblue" points="123.769,-16.6997 114.32,-21.4907 124.695,-23.6383 123.769,-16.6997"/>
</g>
</g>
</svg>
