<?xml version="1.0" encoding="UTF-8" standalone="no"?>
<!DOCTYPE svg PUBLIC "-//W3C//DTD SVG 1.1//EN"
 "http://www.w3.org/Graphics/SVG/1.1/DTD/svg11.dtd">
<!-- Generated by graphviz version 2.38.0 (20140413.2041)
 -->
<!-- Title: CoolBoard::connect Pages: 1 -->
<svg width="406pt" height="180pt"
 viewBox="0.00 0.00 406.00 180.00" xmlns="http://www.w3.org/2000/svg" xmlns:xlink="http://www.w3.org/1999/xlink">
<g id="graph0" class="graph" transform="scale(1 1) rotate(0) translate(4 176)">
<title>CoolBoard::connect</title>
<polygon fill="white" stroke="none" points="-4,4 -4,-176 402,-176 402,4 -4,4"/>
<!-- Node50 -->
<g id="node1" class="node"><title>Node50</title>
<polygon fill="#bfbfbf" stroke="black" points="0,-76.5 0,-95.5 103,-95.5 103,-76.5 0,-76.5"/>
<text text-anchor="middle" x="51.5" y="-83.5" font-family="Helvetica,sans-Serif" font-size="10.00">CoolBoard::connect</text>
</g>
<!-- Node51 -->
<g id="node2" class="node"><title>Node51</title>
<g id="a_node2"><a xlink:href="classCoolMQTT.html#a58b0b1f64b269c2681685208262fba1d" target="_top" xlink:title="CoolMQTT::connect">
<polygon fill="white" stroke="black" points="151.5,-152.5 151.5,-171.5 256.5,-171.5 256.5,-152.5 151.5,-152.5"/>
<text text-anchor="middle" x="204" y="-159.5" font-family="Helvetica,sans-Serif" font-size="10.00">CoolMQTT::connect</text>
</a>
</g>
</g>
<!-- Node50&#45;&gt;Node51 -->
<g id="edge1" class="edge"><title>Node50&#45;&gt;Node51</title>
<path fill="none" stroke="midnightblue" d="M66.7403,-95.6701C83.5245,-106.802 112.494,-125.195 139,-138 147.152,-141.938 156.128,-145.66 164.715,-148.946"/>
<polygon fill="midnightblue" stroke="midnightblue" points="163.585,-152.26 174.178,-152.457 166.021,-145.697 163.585,-152.26"/>
</g>
<!-- Node52 -->
<g id="node3" class="node"><title>Node52</title>
<g id="a_node3"><a xlink:href="classCoolMQTT.html#a5d003307eff78efbd585e42b43b72b6d" target="_top" xlink:title="CoolMQTT::state">
<polygon fill="white" stroke="black" points="305.5,-133.5 305.5,-152.5 397.5,-152.5 397.5,-133.5 305.5,-133.5"/>
<text text-anchor="middle" x="351.5" y="-140.5" font-family="Helvetica,sans-Serif" font-size="10.00">CoolMQTT::state</text>
</a>
</g>
</g>
<!-- Node50&#45;&gt;Node52 -->
<g id="edge7" class="edge"><title>Node50&#45;&gt;Node52</title>
<path fill="none" stroke="midnightblue" d="M94.2289,-95.5056C108.413,-98.6462 124.374,-102.081 139,-105 192.006,-115.579 252.759,-126.355 295.511,-133.717"/>
<polygon fill="midnightblue" stroke="midnightblue" points="294.985,-137.178 305.433,-135.42 296.169,-130.279 294.985,-137.178"/>
</g>
<!-- Node53 -->
<g id="node4" class="node"><title>Node53</title>
<g id="a_node4"><a xlink:href="classCoolWifi.html#ad060353050f40d032a2dbf9e54a768bf" target="_top" xlink:title="CoolWifi::connect">
<polygon fill="white" stroke="black" points="156.5,-76.5 156.5,-95.5 251.5,-95.5 251.5,-76.5 156.5,-76.5"/>
<text text-anchor="middle" x="204" y="-83.5" font-family="Helvetica,sans-Serif" font-size="10.00">CoolWifi::connect</text>
</a>
</g>
</g>
<!-- Node50&#45;&gt;Node53 -->
<g id="edge3" class="edge"><title>Node50&#45;&gt;Node53</title>
<path fill="none" stroke="midnightblue" d="M103.033,-86C116.914,-86 132.056,-86 146.261,-86"/>
<polygon fill="midnightblue" stroke="midnightblue" points="146.407,-89.5001 156.407,-86 146.407,-82.5001 146.407,-89.5001"/>
</g>
<!-- Node55 -->
<g id="node6" class="node"><title>Node55</title>
<g id="a_node6"><a xlink:href="classCoolBoard.html#aaa24480b273fc095a1356a589c333781" target="_top" xlink:title="CoolBoard::getLogInterval">
<polygon fill="white" stroke="black" points="139,-38.5 139,-57.5 269,-57.5 269,-38.5 139,-38.5"/>
<text text-anchor="middle" x="204" y="-45.5" font-family="Helvetica,sans-Serif" font-size="10.00">CoolBoard::getLogInterval</text>
</a>
</g>
</g>
<!-- Node50&#45;&gt;Node55 -->
<g id="edge5" class="edge"><title>Node50&#45;&gt;Node55</title>
<path fill="none" stroke="midnightblue" d="M90.4775,-76.411C110.159,-71.4417 134.391,-65.3233 155.321,-60.0387"/>
<polygon fill="midnightblue" stroke="midnightblue" points="156.457,-63.3617 165.296,-57.5201 154.743,-56.5747 156.457,-63.3617"/>
</g>
<!-- Node56 -->
<g id="node7" class="node"><title>Node56</title>
<g id="a_node7"><a xlink:href="classCoolWifi.html#a1c7b4d82a4098d346e7593dce92039fa" target="_top" xlink:title="CoolWifi::state">
<polygon fill="white" stroke="black" points="163,-0.5 163,-19.5 245,-19.5 245,-0.5 163,-0.5"/>
<text text-anchor="middle" x="204" y="-7.5" font-family="Helvetica,sans-Serif" font-size="10.00">CoolWifi::state</text>
</a>
</g>
</g>
<!-- Node50&#45;&gt;Node56 -->
<g id="edge6" class="edge"><title>Node50&#45;&gt;Node56</title>
<path fill="none" stroke="midnightblue" d="M64.4295,-76.4805C80.5219,-64.0404 110.466,-42.2808 139,-29 143.926,-26.7074 149.193,-24.6174 154.512,-22.7326"/>
<polygon fill="midnightblue" stroke="midnightblue" points="155.688,-26.0301 164.08,-19.5622 153.486,-19.3855 155.688,-26.0301"/>
</g>
<!-- Node51&#45;&gt;Node52 -->
<g id="edge2" class="edge"><title>Node51&#45;&gt;Node52</title>
<path fill="none" stroke="midnightblue" d="M256.708,-155.248C269.211,-153.615 282.622,-151.864 295.28,-150.211"/>
<polygon fill="midnightblue" stroke="midnightblue" points="295.776,-153.676 305.239,-148.91 294.87,-146.735 295.776,-153.676"/>
</g>
<!-- Node54 -->
<g id="node5" class="node"><title>Node54</title>
<g id="a_node5"><a xlink:href="classCoolWifi.html#a914d7a1df14dd6b75345fb614c34e9d6" target="_top" xlink:title="CoolWifi::addWifi">
<polygon fill="white" stroke="black" points="305,-76.5 305,-95.5 398,-95.5 398,-76.5 305,-76.5"/>
<text text-anchor="middle" x="351.5" y="-83.5" font-family="Helvetica,sans-Serif" font-size="10.00">CoolWifi::addWifi</text>
</a>
</g>
</g>
<!-- Node53&#45;&gt;Node54 -->
<g id="edge4" class="edge"><title>Node53&#45;&gt;Node54</title>
<path fill="none" stroke="midnightblue" d="M251.838,-86C265.475,-86 280.51,-86 294.644,-86"/>
<polygon fill="midnightblue" stroke="midnightblue" points="294.744,-89.5001 304.744,-86 294.744,-82.5001 294.744,-89.5001"/>
</g>
</g>
</svg>
