<?xml version="1.0" encoding="UTF-8" standalone="no"?>
<!DOCTYPE svg PUBLIC "-//W3C//DTD SVG 1.1//EN"
 "http://www.w3.org/Graphics/SVG/1.1/DTD/svg11.dtd">
<!-- Generated by graphviz version 2.38.0 (20140413.2041)
 -->
<!-- Title: Jetpack Pages: 1 -->
<svg width="92pt" height="358pt"
 viewBox="0.00 0.00 92.00 358.00" xmlns="http://www.w3.org/2000/svg" xmlns:xlink="http://www.w3.org/1999/xlink">
<g id="graph0" class="graph" transform="scale(1 1) rotate(0) translate(4 354)">
<title>Jetpack</title>
<polygon fill="white" stroke="none" points="-4,4 -4,-354 88,-354 88,4 -4,4"/>
<!-- Node1 -->
<g id="node1" class="node"><title>Node1</title>
<polygon fill="#bfbfbf" stroke="black" points="-7.10543e-15,-0.5 -7.10543e-15,-178.5 84,-178.5 84,-0.5 -7.10543e-15,-0.5"/>
<text text-anchor="middle" x="42" y="-166.5" font-family="Helvetica,sans-Serif" font-size="10.00">Jetpack</text>
<polyline fill="none" stroke="black" points="-7.10543e-15,-159.5 84,-159.5 "/>
<text text-anchor="start" x="8" y="-147.5" font-family="Helvetica,sans-Serif" font-size="10.00">&#45; action</text>
<text text-anchor="start" x="8" y="-136.5" font-family="Helvetica,sans-Serif" font-size="10.00">&#45; actorsNumber</text>
<text text-anchor="start" x="8" y="-125.5" font-family="Helvetica,sans-Serif" font-size="10.00">&#45; clockPin</text>
<text text-anchor="start" x="8" y="-114.5" font-family="Helvetica,sans-Serif" font-size="10.00">&#45; dataPin</text>
<text text-anchor="start" x="8" y="-103.5" font-family="Helvetica,sans-Serif" font-size="10.00">&#45; EnI2C</text>
<polyline fill="none" stroke="black" points="-7.10543e-15,-96.5 84,-96.5 "/>
<text text-anchor="start" x="8" y="-84.5" font-family="Helvetica,sans-Serif" font-size="10.00">+ begin()</text>
<text text-anchor="start" x="8" y="-73.5" font-family="Helvetica,sans-Serif" font-size="10.00">+ write()</text>
<text text-anchor="start" x="8" y="-62.5" font-family="Helvetica,sans-Serif" font-size="10.00">+ writeBit()</text>
<text text-anchor="start" x="8" y="-51.5" font-family="Helvetica,sans-Serif" font-size="10.00">+ doAction()</text>
<text text-anchor="start" x="8" y="-40.5" font-family="Helvetica,sans-Serif" font-size="10.00">+ config()</text>
<text text-anchor="start" x="8" y="-29.5" font-family="Helvetica,sans-Serif" font-size="10.00">+ printConf()</text>
<text text-anchor="start" x="8" y="-18.5" font-family="Helvetica,sans-Serif" font-size="10.00">+ setBit()</text>
<text text-anchor="start" x="8" y="-7.5" font-family="Helvetica,sans-Serif" font-size="10.00">+ resetBit()</text>
</g>
<!-- Node2 -->
<g id="node2" class="node"><title>Node2</title>
<g id="a_node2"><a xlink:href="structJetpack_1_1state.html" target="_top" xlink:title="{Jetpack::state\n|+ type\l+ actif\l+ low\l+ high\l+ temporal\l+ actifTime\l+ inactifTime\l|}">
<polygon fill="white" stroke="black" points="2.5,-226.5 2.5,-349.5 81.5,-349.5 81.5,-226.5 2.5,-226.5"/>
<text text-anchor="middle" x="42" y="-337.5" font-family="Helvetica,sans-Serif" font-size="10.00">Jetpack::state</text>
<polyline fill="none" stroke="black" points="2.5,-330.5 81.5,-330.5 "/>
<text text-anchor="start" x="10.5" y="-318.5" font-family="Helvetica,sans-Serif" font-size="10.00">+ type</text>
<text text-anchor="start" x="10.5" y="-307.5" font-family="Helvetica,sans-Serif" font-size="10.00">+ actif</text>
<text text-anchor="start" x="10.5" y="-296.5" font-family="Helvetica,sans-Serif" font-size="10.00">+ low</text>
<text text-anchor="start" x="10.5" y="-285.5" font-family="Helvetica,sans-Serif" font-size="10.00">+ high</text>
<text text-anchor="start" x="10.5" y="-274.5" font-family="Helvetica,sans-Serif" font-size="10.00">+ temporal</text>
<text text-anchor="start" x="10.5" y="-263.5" font-family="Helvetica,sans-Serif" font-size="10.00">+ actifTime</text>
<text text-anchor="start" x="10.5" y="-252.5" font-family="Helvetica,sans-Serif" font-size="10.00">+ inactifTime</text>
<polyline fill="none" stroke="black" points="2.5,-245.5 81.5,-245.5 "/>
<text text-anchor="middle" x="42" y="-233.5" font-family="Helvetica,sans-Serif" font-size="10.00"> </text>
</a>
</g>
</g>
<!-- Node2&#45;&gt;Node1 -->
<g id="edge1" class="edge"><title>Node2&#45;&gt;Node1</title>
<path fill="none" stroke="#404040" d="M42,-226.44C42,-215.107 42,-202.986 42,-190.822"/>
<polygon fill="none" stroke="#404040" points="42.0001,-190.671 38,-184.671 42,-178.671 46,-184.671 42.0001,-190.671"/>
<text text-anchor="middle" x="59" y="-200" font-family="Helvetica,sans-Serif" font-size="10.00"> &#45;actors</text>
</g>
</g>
</svg>
