<?xml version="1.0" encoding="UTF-8" standalone="no"?>
<!DOCTYPE svg PUBLIC "-//W3C//DTD SVG 1.1//EN"
 "http://www.w3.org/Graphics/SVG/1.1/DTD/svg11.dtd">
<!-- Generated by graphviz version 2.38.0 (20140413.2041)
 -->
<!-- Title: CoolBoard Pages: 1 -->
<svg width="937pt" height="898pt"
 viewBox="0.00 0.00 937.00 898.00" xmlns="http://www.w3.org/2000/svg" xmlns:xlink="http://www.w3.org/1999/xlink">
<g id="graph0" class="graph" transform="scale(1 1) rotate(0) translate(4 894)">
<title>CoolBoard</title>
<polygon fill="white" stroke="none" points="-4,4 -4,-894 933,-894 933,4 -4,4"/>
<!-- Node1 -->
<g id="node1" class="node"><title>Node1</title>
<polygon fill="#bfbfbf" stroke="black" points="385.5,-0.5 385.5,-266.5 506.5,-266.5 506.5,-0.5 385.5,-0.5"/>
<text text-anchor="middle" x="446" y="-254.5" font-family="Helvetica,sans-Serif" font-size="10.00">CoolBoard</text>
<polyline fill="none" stroke="black" points="385.5,-247.5 506.5,-247.5 "/>
<text text-anchor="start" x="393.5" y="-235.5" font-family="Helvetica,sans-Serif" font-size="10.00">&#45; answer</text>
<text text-anchor="start" x="393.5" y="-224.5" font-family="Helvetica,sans-Serif" font-size="10.00">&#45; answerJsonSize</text>
<text text-anchor="start" x="393.5" y="-213.5" font-family="Helvetica,sans-Serif" font-size="10.00">&#45; cnxStatus</text>
<text text-anchor="start" x="393.5" y="-202.5" font-family="Helvetica,sans-Serif" font-size="10.00">&#45; data</text>
<text text-anchor="start" x="393.5" y="-191.5" font-family="Helvetica,sans-Serif" font-size="10.00">&#45; externalSensorsActive</text>
<text text-anchor="start" x="393.5" y="-180.5" font-family="Helvetica,sans-Serif" font-size="10.00">&#45; interval</text>
<text text-anchor="start" x="393.5" y="-169.5" font-family="Helvetica,sans-Serif" font-size="10.00">&#45; ireneActive</text>
<text text-anchor="start" x="393.5" y="-158.5" font-family="Helvetica,sans-Serif" font-size="10.00">&#45; jetpackActive</text>
<text text-anchor="start" x="393.5" y="-147.5" font-family="Helvetica,sans-Serif" font-size="10.00">&#45; sensorJsonSize</text>
<text text-anchor="start" x="393.5" y="-136.5" font-family="Helvetica,sans-Serif" font-size="10.00">&#45; serverTimeOut</text>
<text text-anchor="start" x="393.5" y="-125.5" font-family="Helvetica,sans-Serif" font-size="10.00">&#45; station</text>
<text text-anchor="start" x="393.5" y="-114.5" font-family="Helvetica,sans-Serif" font-size="10.00">&#45; wifiManager</text>
<polyline fill="none" stroke="black" points="385.5,-107.5 506.5,-107.5 "/>
<text text-anchor="start" x="393.5" y="-95.5" font-family="Helvetica,sans-Serif" font-size="10.00">+ begin()</text>
<text text-anchor="start" x="393.5" y="-84.5" font-family="Helvetica,sans-Serif" font-size="10.00">+ config()</text>
<text text-anchor="start" x="393.5" y="-73.5" font-family="Helvetica,sans-Serif" font-size="10.00">+ connect()</text>
<text text-anchor="start" x="393.5" y="-62.5" font-family="Helvetica,sans-Serif" font-size="10.00">+ getInterval()</text>
<text text-anchor="start" x="393.5" y="-51.5" font-family="Helvetica,sans-Serif" font-size="10.00">+ offLineMode()</text>
<text text-anchor="start" x="393.5" y="-40.5" font-family="Helvetica,sans-Serif" font-size="10.00">+ onLineMode()</text>
<text text-anchor="start" x="393.5" y="-29.5" font-family="Helvetica,sans-Serif" font-size="10.00">+ printConf()</text>
<text text-anchor="start" x="393.5" y="-18.5" font-family="Helvetica,sans-Serif" font-size="10.00">+ sleep()</text>
<text text-anchor="start" x="393.5" y="-7.5" font-family="Helvetica,sans-Serif" font-size="10.00">+ update()</text>
</g>
<!-- Node2 -->
<g id="node2" class="node"><title>Node2</title>
<g id="a_node2"><a xlink:href="classCoolMQTT.html" target="_top" xlink:title="This class handles the mqtt client. ">
<polygon fill="white" stroke="black" points="16,-331 16,-575 88,-575 88,-331 16,-331"/>
<text text-anchor="middle" x="52" y="-563" font-family="Helvetica,sans-Serif" font-size="10.00">CoolMQTT</text>
<polyline fill="none" stroke="black" points="16,-556 88,-556 "/>
<text text-anchor="start" x="24" y="-544" font-family="Helvetica,sans-Serif" font-size="10.00">&#45; bufferSize</text>
<text text-anchor="start" x="24" y="-533" font-family="Helvetica,sans-Serif" font-size="10.00">&#45; client</text>
<text text-anchor="start" x="24" y="-522" font-family="Helvetica,sans-Serif" font-size="10.00">&#45; clientId</text>
<text text-anchor="start" x="24" y="-511" font-family="Helvetica,sans-Serif" font-size="10.00">&#45; espClient</text>
<text text-anchor="start" x="24" y="-500" font-family="Helvetica,sans-Serif" font-size="10.00">&#45; inTopic</text>
<text text-anchor="start" x="24" y="-489" font-family="Helvetica,sans-Serif" font-size="10.00">&#45; mqttServer</text>
<text text-anchor="start" x="24" y="-478" font-family="Helvetica,sans-Serif" font-size="10.00">&#45; msg</text>
<text text-anchor="start" x="24" y="-467" font-family="Helvetica,sans-Serif" font-size="10.00">&#45; newMsg</text>
<text text-anchor="start" x="24" y="-456" font-family="Helvetica,sans-Serif" font-size="10.00">&#45; outTopic</text>
<polyline fill="none" stroke="black" points="16,-449 88,-449 "/>
<text text-anchor="start" x="24" y="-437" font-family="Helvetica,sans-Serif" font-size="10.00">+ begin()</text>
<text text-anchor="start" x="24" y="-426" font-family="Helvetica,sans-Serif" font-size="10.00">+ callback()</text>
<text text-anchor="start" x="24" y="-415" font-family="Helvetica,sans-Serif" font-size="10.00">+ config()</text>
<text text-anchor="start" x="24" y="-404" font-family="Helvetica,sans-Serif" font-size="10.00">+ config()</text>
<text text-anchor="start" x="24" y="-393" font-family="Helvetica,sans-Serif" font-size="10.00">+ connect()</text>
<text text-anchor="start" x="24" y="-382" font-family="Helvetica,sans-Serif" font-size="10.00">+ mqttLoop()</text>
<text text-anchor="start" x="24" y="-371" font-family="Helvetica,sans-Serif" font-size="10.00">+ printConf()</text>
<text text-anchor="start" x="24" y="-360" font-family="Helvetica,sans-Serif" font-size="10.00">+ publish()</text>
<text text-anchor="start" x="24" y="-349" font-family="Helvetica,sans-Serif" font-size="10.00">+ read()</text>
<text text-anchor="start" x="24" y="-338" font-family="Helvetica,sans-Serif" font-size="10.00">+ state()</text>
</a>
</g>
</g>
<!-- Node2&#45;&gt;Node1 -->
<g id="edge1" class="edge"><title>Node2&#45;&gt;Node1</title>
<path fill="none" stroke="#404040" d="M85.0133,-330.716C88.6066,-324.802 92.5883,-319.18 97,-314 170.117,-228.152 294.563,-178.281 373.409,-153.75"/>
<polygon fill="none" stroke="#404040" points="373.697,-153.663 378.273,-148.09 385.178,-150.171 380.601,-155.744 373.697,-153.663"/>
<text text-anchor="middle" x="132" y="-288" font-family="Helvetica,sans-Serif" font-size="10.00"> &#45;mqtt</text>
</g>
<!-- Node3 -->
<g id="node3" class="node"><title>Node3</title>
<g id="a_node3"><a xlink:href="classCoolBoardLed.html" target="_top" xlink:title="This class handles the led in the Sensor Board. ">
<polygon fill="white" stroke="black" points="106,-369.5 106,-536.5 184,-536.5 184,-369.5 106,-369.5"/>
<text text-anchor="middle" x="145" y="-524.5" font-family="Helvetica,sans-Serif" font-size="10.00">CoolBoardLed</text>
<polyline fill="none" stroke="black" points="106,-517.5 184,-517.5 "/>
<text text-anchor="start" x="114" y="-505.5" font-family="Helvetica,sans-Serif" font-size="10.00">&#45; ledActive</text>
<text text-anchor="start" x="114" y="-494.5" font-family="Helvetica,sans-Serif" font-size="10.00">&#45; neoPixelLed</text>
<polyline fill="none" stroke="black" points="106,-487.5 184,-487.5 "/>
<text text-anchor="start" x="114" y="-475.5" font-family="Helvetica,sans-Serif" font-size="10.00">+ begin()</text>
<text text-anchor="start" x="114" y="-464.5" font-family="Helvetica,sans-Serif" font-size="10.00">+ blink()</text>
<text text-anchor="start" x="114" y="-453.5" font-family="Helvetica,sans-Serif" font-size="10.00">+ colorFade()</text>
<text text-anchor="start" x="114" y="-442.5" font-family="Helvetica,sans-Serif" font-size="10.00">+ config()</text>
<text text-anchor="start" x="114" y="-431.5" font-family="Helvetica,sans-Serif" font-size="10.00">+ end()</text>
<text text-anchor="start" x="114" y="-420.5" font-family="Helvetica,sans-Serif" font-size="10.00">+ fadeIn()</text>
<text text-anchor="start" x="114" y="-409.5" font-family="Helvetica,sans-Serif" font-size="10.00">+ fadeOut()</text>
<text text-anchor="start" x="114" y="-398.5" font-family="Helvetica,sans-Serif" font-size="10.00">+ printConf()</text>
<text text-anchor="start" x="114" y="-387.5" font-family="Helvetica,sans-Serif" font-size="10.00">+ strobe()</text>
<text text-anchor="start" x="114" y="-376.5" font-family="Helvetica,sans-Serif" font-size="10.00">+ write()</text>
</a>
</g>
</g>
<!-- Node3&#45;&gt;Node1 -->
<g id="edge2" class="edge"><title>Node3&#45;&gt;Node1</title>
<path fill="none" stroke="#404040" d="M164.455,-369.375C171.439,-350.031 180.736,-330.327 193,-314 240.935,-250.184 318.158,-200.099 374.694,-169.234"/>
<polygon fill="none" stroke="#404040" points="374.783,-169.186 378.176,-162.823 385.355,-163.507 381.962,-169.871 374.783,-169.186"/>
<text text-anchor="middle" x="248" y="-288" font-family="Helvetica,sans-Serif" font-size="10.00"> &#45;coolBoardLed</text>
</g>
<!-- Node4 -->
<g id="node4" class="node"><title>Node4</title>
<g id="a_node4"><a xlink:href="classExternalSensors.html" target="_top" xlink:title="This class handles the external sensors run time defintion , configuartion and actions. ">
<polygon fill="white" stroke="black" points="202,-397 202,-509 294,-509 294,-397 202,-397"/>
<text text-anchor="middle" x="248" y="-497" font-family="Helvetica,sans-Serif" font-size="10.00">ExternalSensors</text>
<polyline fill="none" stroke="black" points="202,-490 294,-490 "/>
<text text-anchor="start" x="210" y="-478" font-family="Helvetica,sans-Serif" font-size="10.00">&#45; jsonSize</text>
<text text-anchor="start" x="210" y="-467" font-family="Helvetica,sans-Serif" font-size="10.00">&#45; sensorsNumber</text>
<polyline fill="none" stroke="black" points="202,-460 294,-460 "/>
<text text-anchor="start" x="210" y="-448" font-family="Helvetica,sans-Serif" font-size="10.00">+ begin()</text>
<text text-anchor="start" x="210" y="-437" font-family="Helvetica,sans-Serif" font-size="10.00">+ config()</text>
<text text-anchor="start" x="210" y="-426" font-family="Helvetica,sans-Serif" font-size="10.00">+ getJsonSize()</text>
<text text-anchor="start" x="210" y="-415" font-family="Helvetica,sans-Serif" font-size="10.00">+ printConf()</text>
<text text-anchor="start" x="210" y="-404" font-family="Helvetica,sans-Serif" font-size="10.00">+ read()</text>
</a>
</g>
</g>
<!-- Node4&#45;&gt;Node1 -->
<g id="edge3" class="edge"><title>Node4&#45;&gt;Node1</title>
<path fill="none" stroke="#404040" d="M268.593,-396.746C278.439,-371.303 290.735,-340.863 303,-314 309.027,-300.8 309.914,-297.049 318,-285 335.549,-258.851 356.974,-232.1 377.238,-208.542"/>
<polygon fill="none" stroke="#404040" points="377.364,-208.397 378.28,-201.245 385.235,-199.339 384.319,-206.492 377.364,-208.397"/>
<text text-anchor="middle" x="356.5" y="-288" font-family="Helvetica,sans-Serif" font-size="10.00"> &#45;externalSensors</text>
</g>
<!-- Node5 -->
<g id="node5" class="node"><title>Node5</title>
<g id="a_node5"><a xlink:href="structExternalSensors_1_1sensor.html" target="_top" xlink:title="{ExternalSensors::sensor\n|+ address\l+ connection\l+ dataSize\l+ reference\l+ type\l|}">
<polygon fill="white" stroke="black" points="0,-661.5 0,-762.5 124,-762.5 124,-661.5 0,-661.5"/>
<text text-anchor="middle" x="62" y="-750.5" font-family="Helvetica,sans-Serif" font-size="10.00">ExternalSensors::sensor</text>
<polyline fill="none" stroke="black" points="0,-743.5 124,-743.5 "/>
<text text-anchor="start" x="8" y="-731.5" font-family="Helvetica,sans-Serif" font-size="10.00">+ address</text>
<text text-anchor="start" x="8" y="-720.5" font-family="Helvetica,sans-Serif" font-size="10.00">+ connection</text>
<text text-anchor="start" x="8" y="-709.5" font-family="Helvetica,sans-Serif" font-size="10.00">+ dataSize</text>
<text text-anchor="start" x="8" y="-698.5" font-family="Helvetica,sans-Serif" font-size="10.00">+ reference</text>
<text text-anchor="start" x="8" y="-687.5" font-family="Helvetica,sans-Serif" font-size="10.00">+ type</text>
<polyline fill="none" stroke="black" points="0,-680.5 124,-680.5 "/>
<text text-anchor="middle" x="62" y="-668.5" font-family="Helvetica,sans-Serif" font-size="10.00"> </text>
</a>
</g>
</g>
<!-- Node5&#45;&gt;Node4 -->
<g id="edge4" class="edge"><title>Node5&#45;&gt;Node4</title>
<path fill="none" stroke="#404040" d="M124.101,-664.728C148.064,-644.474 174.178,-619.143 193,-592 207.903,-570.508 219.63,-544.389 228.358,-520.681"/>
<polygon fill="none" stroke="#404040" points="228.394,-520.578 226.628,-513.587 232.402,-509.268 234.168,-516.259 228.394,-520.578"/>
<text text-anchor="middle" x="199.5" y="-624" font-family="Helvetica,sans-Serif" font-size="10.00"> &#45;sensors</text>
</g>
<!-- Node6 -->
<g id="node6" class="node"><title>Node6</title>
<g id="a_node6"><a xlink:href="classBaseExternalSensor.html" target="_top" xlink:title="This class is a generic external Sensor it is a way to access real external sensor methods through ru...">
<polygon fill="white" stroke="black" points="1.5,-810.5 1.5,-889.5 122.5,-889.5 122.5,-810.5 1.5,-810.5"/>
<text text-anchor="middle" x="62" y="-877.5" font-family="Helvetica,sans-Serif" font-size="10.00">BaseExternalSensor</text>
<polyline fill="none" stroke="black" points="1.5,-870.5 122.5,-870.5 "/>
<text text-anchor="middle" x="62" y="-858.5" font-family="Helvetica,sans-Serif" font-size="10.00"> </text>
<polyline fill="none" stroke="black" points="1.5,-851.5 122.5,-851.5 "/>
<text text-anchor="start" x="9.5" y="-839.5" font-family="Helvetica,sans-Serif" font-size="10.00">+ BaseExternalSensor()</text>
<text text-anchor="start" x="9.5" y="-828.5" font-family="Helvetica,sans-Serif" font-size="10.00">+ begin()</text>
<text text-anchor="start" x="9.5" y="-817.5" font-family="Helvetica,sans-Serif" font-size="10.00">+ read()</text>
</a>
</g>
</g>
<!-- Node6&#45;&gt;Node5 -->
<g id="edge5" class="edge"><title>Node6&#45;&gt;Node5</title>
<path fill="none" stroke="#404040" d="M62,-810.392C62,-799.434 62,-787.216 62,-775.238"/>
<polygon fill="none" stroke="#404040" points="62.0001,-774.905 58,-768.905 62,-762.905 66,-768.905 62.0001,-774.905"/>
<text text-anchor="middle" x="87.5" y="-784" font-family="Helvetica,sans-Serif" font-size="10.00"> +exSensor</text>
</g>
<!-- Node7 -->
<g id="node7" class="node"><title>Node7</title>
<g id="a_node7"><a xlink:href="classCoolBoardSensors.html" target="_top" xlink:title="This class handles the On&#45;Board Sensors. ">
<polygon fill="white" stroke="black" points="312.5,-314.5 312.5,-591.5 441.5,-591.5 441.5,-314.5 312.5,-314.5"/>
<text text-anchor="middle" x="377" y="-579.5" font-family="Helvetica,sans-Serif" font-size="10.00">CoolBoardSensors</text>
<polyline fill="none" stroke="black" points="312.5,-572.5 441.5,-572.5 "/>
<text text-anchor="start" x="320.5" y="-560.5" font-family="Helvetica,sans-Serif" font-size="10.00">+ envSensor</text>
<text text-anchor="start" x="320.5" y="-549.5" font-family="Helvetica,sans-Serif" font-size="10.00">+ lightSensor</text>
<text text-anchor="start" x="320.5" y="-538.5" font-family="Helvetica,sans-Serif" font-size="10.00">&#45; AnMplex</text>
<text text-anchor="start" x="320.5" y="-527.5" font-family="Helvetica,sans-Serif" font-size="10.00">&#45; earthMoistureActive</text>
<text text-anchor="start" x="320.5" y="-516.5" font-family="Helvetica,sans-Serif" font-size="10.00">&#45; EnI2C</text>
<text text-anchor="start" x="320.5" y="-505.5" font-family="Helvetica,sans-Serif" font-size="10.00">&#45; EnMoisture</text>
<text text-anchor="start" x="320.5" y="-494.5" font-family="Helvetica,sans-Serif" font-size="10.00">&#45; jsonSize</text>
<text text-anchor="start" x="320.5" y="-483.5" font-family="Helvetica,sans-Serif" font-size="10.00">&#45; vbatActive</text>
<polyline fill="none" stroke="black" points="312.5,-476.5 441.5,-476.5 "/>
<text text-anchor="start" x="320.5" y="-464.5" font-family="Helvetica,sans-Serif" font-size="10.00">+ CoolBoardSensors()</text>
<text text-anchor="start" x="320.5" y="-453.5" font-family="Helvetica,sans-Serif" font-size="10.00">+ allActive()</text>
<text text-anchor="start" x="320.5" y="-442.5" font-family="Helvetica,sans-Serif" font-size="10.00">+ begin()</text>
<text text-anchor="start" x="320.5" y="-431.5" font-family="Helvetica,sans-Serif" font-size="10.00">+ config()</text>
<text text-anchor="start" x="320.5" y="-420.5" font-family="Helvetica,sans-Serif" font-size="10.00">+ end()</text>
<text text-anchor="start" x="320.5" y="-409.5" font-family="Helvetica,sans-Serif" font-size="10.00">+ getJsonSize()</text>
<text text-anchor="start" x="320.5" y="-398.5" font-family="Helvetica,sans-Serif" font-size="10.00">+ initReadI2C()</text>
<text text-anchor="start" x="320.5" y="-387.5" font-family="Helvetica,sans-Serif" font-size="10.00">+ printConf()</text>
<text text-anchor="start" x="320.5" y="-376.5" font-family="Helvetica,sans-Serif" font-size="10.00">+ read()</text>
<text text-anchor="start" x="320.5" y="-365.5" font-family="Helvetica,sans-Serif" font-size="10.00">+ readMoisture()</text>
<text text-anchor="start" x="320.5" y="-354.5" font-family="Helvetica,sans-Serif" font-size="10.00">+ readVBat()</text>
<text text-anchor="start" x="320.5" y="-343.5" font-family="Helvetica,sans-Serif" font-size="10.00">+ setEnvSensorSettings()</text>
<text text-anchor="start" x="320.5" y="-332.5" font-family="Helvetica,sans-Serif" font-size="10.00">+ setJsonSize()</text>
<text text-anchor="start" x="320.5" y="-321.5" font-family="Helvetica,sans-Serif" font-size="10.00">+ stopReadI2C()</text>
</a>
</g>
</g>
<!-- Node7&#45;&gt;Node1 -->
<g id="edge6" class="edge"><title>Node7&#45;&gt;Node1</title>
<path fill="none" stroke="#404040" d="M394.224,-314.081C395.999,-304.207 397.923,-294.432 400,-285 400.475,-282.842 400.966,-280.671 401.471,-278.489"/>
<polygon fill="none" stroke="#404040" points="401.493,-278.399 399.009,-271.629 404.303,-266.733 406.787,-273.503 401.493,-278.399"/>
<text text-anchor="middle" x="443" y="-288" font-family="Helvetica,sans-Serif" font-size="10.00"> &#45;coolBoardSensors</text>
</g>
<!-- Node8 -->
<g id="node8" class="node"><title>Node8</title>
<g id="a_node8"><a xlink:href="structCoolBoardSensors_1_1airActive.html" target="_top" xlink:title="{CoolBoardSensors::airActive\n|+ humidity\l+ pressure\l+ temperature\l|}">
<polygon fill="white" stroke="black" points="142.5,-672.5 142.5,-751.5 285.5,-751.5 285.5,-672.5 142.5,-672.5"/>
<text text-anchor="middle" x="214" y="-739.5" font-family="Helvetica,sans-Serif" font-size="10.00">CoolBoardSensors::airActive</text>
<polyline fill="none" stroke="black" points="142.5,-732.5 285.5,-732.5 "/>
<text text-anchor="start" x="150.5" y="-720.5" font-family="Helvetica,sans-Serif" font-size="10.00">+ humidity</text>
<text text-anchor="start" x="150.5" y="-709.5" font-family="Helvetica,sans-Serif" font-size="10.00">+ pressure</text>
<text text-anchor="start" x="150.5" y="-698.5" font-family="Helvetica,sans-Serif" font-size="10.00">+ temperature</text>
<polyline fill="none" stroke="black" points="142.5,-691.5 285.5,-691.5 "/>
<text text-anchor="middle" x="214" y="-679.5" font-family="Helvetica,sans-Serif" font-size="10.00"> </text>
</a>
</g>
</g>
<!-- Node8&#45;&gt;Node7 -->
<g id="edge7" class="edge"><title>Node8&#45;&gt;Node7</title>
<path fill="none" stroke="#404040" d="M245.194,-672.389C263.009,-649.602 285.259,-619.852 303,-592 303.981,-590.459 304.962,-588.905 305.942,-587.338"/>
<polygon fill="none" stroke="#404040" points="306.11,-587.064 305.836,-579.858 312.383,-576.834 312.656,-584.04 306.11,-587.064"/>
<text text-anchor="middle" x="323" y="-624" font-family="Helvetica,sans-Serif" font-size="10.00"> &#45;airDataActive</text>
</g>
<!-- Node9 -->
<g id="node9" class="node"><title>Node9</title>
<g id="a_node9"><a xlink:href="structCoolBoardSensors_1_1lightActive.html" target="_top" xlink:title="{CoolBoardSensors::lightActive\n|+ ir\l+ uv\l+ visible\l|}">
<polygon fill="white" stroke="black" points="304,-672.5 304,-751.5 454,-751.5 454,-672.5 304,-672.5"/>
<text text-anchor="middle" x="379" y="-739.5" font-family="Helvetica,sans-Serif" font-size="10.00">CoolBoardSensors::lightActive</text>
<polyline fill="none" stroke="black" points="304,-732.5 454,-732.5 "/>
<text text-anchor="start" x="312" y="-720.5" font-family="Helvetica,sans-Serif" font-size="10.00">+ ir</text>
<text text-anchor="start" x="312" y="-709.5" font-family="Helvetica,sans-Serif" font-size="10.00">+ uv</text>
<text text-anchor="start" x="312" y="-698.5" font-family="Helvetica,sans-Serif" font-size="10.00">+ visible</text>
<polyline fill="none" stroke="black" points="304,-691.5 454,-691.5 "/>
<text text-anchor="middle" x="379" y="-679.5" font-family="Helvetica,sans-Serif" font-size="10.00"> </text>
</a>
</g>
</g>
<!-- Node9&#45;&gt;Node7 -->
<g id="edge8" class="edge"><title>Node9&#45;&gt;Node7</title>
<path fill="none" stroke="#404040" d="M378.698,-672.246C378.551,-653.241 378.362,-629.004 378.164,-603.637"/>
<polygon fill="none" stroke="#404040" points="378.164,-603.516 374.117,-597.547 378.07,-591.516 382.117,-597.485 378.164,-603.516"/>
<text text-anchor="middle" x="415.5" y="-624" font-family="Helvetica,sans-Serif" font-size="10.00"> &#45;lightDataActive</text>
</g>
<!-- Node10 -->
<g id="node10" class="node"><title>Node10</title>
<g id="a_node10"><a xlink:href="classIrene3000.html" target="_top" xlink:title="This class is provided to manage the Irene3000 Ph/Temperature Shield. ">
<polygon fill="white" stroke="black" points="459.5,-336.5 459.5,-569.5 572.5,-569.5 572.5,-336.5 459.5,-336.5"/>
<text text-anchor="middle" x="516" y="-557.5" font-family="Helvetica,sans-Serif" font-size="10.00">Irene3000</text>
<polyline fill="none" stroke="black" points="459.5,-550.5 572.5,-550.5 "/>
<text text-anchor="start" x="467.5" y="-538.5" font-family="Helvetica,sans-Serif" font-size="10.00">&#45; ads</text>
<text text-anchor="start" x="467.5" y="-527.5" font-family="Helvetica,sans-Serif" font-size="10.00">&#45; ireneJsonSize</text>
<text text-anchor="start" x="467.5" y="-516.5" font-family="Helvetica,sans-Serif" font-size="10.00">&#45; opampGain</text>
<text text-anchor="start" x="467.5" y="-505.5" font-family="Helvetica,sans-Serif" font-size="10.00">&#45; vRef</text>
<polyline fill="none" stroke="black" points="459.5,-498.5 572.5,-498.5 "/>
<text text-anchor="start" x="467.5" y="-486.5" font-family="Helvetica,sans-Serif" font-size="10.00">+ begin()</text>
<text text-anchor="start" x="467.5" y="-475.5" font-family="Helvetica,sans-Serif" font-size="10.00">+ calcpHSlope()</text>
<text text-anchor="start" x="467.5" y="-464.5" font-family="Helvetica,sans-Serif" font-size="10.00">+ calibratepH4()</text>
<text text-anchor="start" x="467.5" y="-453.5" font-family="Helvetica,sans-Serif" font-size="10.00">+ calibratepH7()</text>
<text text-anchor="start" x="467.5" y="-442.5" font-family="Helvetica,sans-Serif" font-size="10.00">+ config()</text>
<text text-anchor="start" x="467.5" y="-431.5" font-family="Helvetica,sans-Serif" font-size="10.00">+ gainConvert()</text>
<text text-anchor="start" x="467.5" y="-420.5" font-family="Helvetica,sans-Serif" font-size="10.00">+ printConf()</text>
<text text-anchor="start" x="467.5" y="-409.5" font-family="Helvetica,sans-Serif" font-size="10.00">+ read()</text>
<text text-anchor="start" x="467.5" y="-398.5" font-family="Helvetica,sans-Serif" font-size="10.00">+ readADSChannel2()</text>
<text text-anchor="start" x="467.5" y="-387.5" font-family="Helvetica,sans-Serif" font-size="10.00">+ readButton()</text>
<text text-anchor="start" x="467.5" y="-376.5" font-family="Helvetica,sans-Serif" font-size="10.00">+ readPh()</text>
<text text-anchor="start" x="467.5" y="-365.5" font-family="Helvetica,sans-Serif" font-size="10.00">+ readTemp()</text>
<text text-anchor="start" x="467.5" y="-354.5" font-family="Helvetica,sans-Serif" font-size="10.00">+ resetParams()</text>
<text text-anchor="start" x="467.5" y="-343.5" font-family="Helvetica,sans-Serif" font-size="10.00">+ setGain()</text>
</a>
</g>
</g>
<!-- Node10&#45;&gt;Node1 -->
<g id="edge9" class="edge"><title>Node10&#45;&gt;Node1</title>
<path fill="none" stroke="#404040" d="M496.491,-336.313C493.214,-319.066 489.676,-301.534 486,-285 485.546,-282.959 485.083,-280.904 484.612,-278.837"/>
<polygon fill="none" stroke="#404040" points="484.553,-278.584 479.297,-273.647 481.833,-266.896 487.089,-271.833 484.553,-278.584"/>
<text text-anchor="middle" x="512.5" y="-288" font-family="Helvetica,sans-Serif" font-size="10.00"> &#45;irene3000</text>
</g>
<!-- Node11 -->
<g id="node11" class="node"><title>Node11</title>
<g id="a_node11"><a xlink:href="structIrene3000_1_1state.html" target="_top" xlink:title="{Irene3000::state\n|+ active\l+ gain\l+ type\l|}">
<polygon fill="white" stroke="black" points="472.5,-672.5 472.5,-751.5 559.5,-751.5 559.5,-672.5 472.5,-672.5"/>
<text text-anchor="middle" x="516" y="-739.5" font-family="Helvetica,sans-Serif" font-size="10.00">Irene3000::state</text>
<polyline fill="none" stroke="black" points="472.5,-732.5 559.5,-732.5 "/>
<text text-anchor="start" x="480.5" y="-720.5" font-family="Helvetica,sans-Serif" font-size="10.00">+ active</text>
<text text-anchor="start" x="480.5" y="-709.5" font-family="Helvetica,sans-Serif" font-size="10.00">+ gain</text>
<text text-anchor="start" x="480.5" y="-698.5" font-family="Helvetica,sans-Serif" font-size="10.00">+ type</text>
<polyline fill="none" stroke="black" points="472.5,-691.5 559.5,-691.5 "/>
<text text-anchor="middle" x="516" y="-679.5" font-family="Helvetica,sans-Serif" font-size="10.00"> </text>
</a>
</g>
</g>
<!-- Node11&#45;&gt;Node10 -->
<g id="edge10" class="edge"><title>Node11&#45;&gt;Node10</title>
<path fill="none" stroke="#404040" d="M516,-672.246C516,-647.831 516,-614.781 516,-581.794"/>
<polygon fill="none" stroke="#404040" points="516,-581.659 512,-575.659 516,-569.659 520,-575.659 516,-581.659"/>
<text text-anchor="middle" x="543.5" y="-635" font-family="Helvetica,sans-Serif" font-size="10.00"> &#45;waterTemp</text>
<text text-anchor="middle" x="543.5" y="-624" font-family="Helvetica,sans-Serif" font-size="10.00">&#45;phProbe</text>
<text text-anchor="middle" x="543.5" y="-613" font-family="Helvetica,sans-Serif" font-size="10.00">&#45;adc2</text>
</g>
<!-- Node12 -->
<g id="node12" class="node"><title>Node12</title>
<g id="a_node12"><a xlink:href="structIrene3000_1_1parameters__T.html" target="_top" xlink:title="{Irene3000::parameters_T\n|+ pH4Cal\l+ pH7Cal\l+ pHStep\l+ WriteCheck\l|}">
<polygon fill="white" stroke="black" points="577.5,-667 577.5,-757 702.5,-757 702.5,-667 577.5,-667"/>
<text text-anchor="middle" x="640" y="-745" font-family="Helvetica,sans-Serif" font-size="10.00">Irene3000::parameters_T</text>
<polyline fill="none" stroke="black" points="577.5,-738 702.5,-738 "/>
<text text-anchor="start" x="585.5" y="-726" font-family="Helvetica,sans-Serif" font-size="10.00">+ pH4Cal</text>
<text text-anchor="start" x="585.5" y="-715" font-family="Helvetica,sans-Serif" font-size="10.00">+ pH7Cal</text>
<text text-anchor="start" x="585.5" y="-704" font-family="Helvetica,sans-Serif" font-size="10.00">+ pHStep</text>
<text text-anchor="start" x="585.5" y="-693" font-family="Helvetica,sans-Serif" font-size="10.00">+ WriteCheck</text>
<polyline fill="none" stroke="black" points="577.5,-686 702.5,-686 "/>
<text text-anchor="middle" x="640" y="-674" font-family="Helvetica,sans-Serif" font-size="10.00"> </text>
</a>
</g>
</g>
<!-- Node12&#45;&gt;Node10 -->
<g id="edge11" class="edge"><title>Node12&#45;&gt;Node10</title>
<path fill="none" stroke="#404040" d="M618.438,-666.957C607.485,-644.536 593.991,-616.836 582,-592 580.184,-588.239 578.342,-584.419 576.484,-580.562"/>
<polygon fill="none" stroke="#404040" points="576.418,-580.424 570.212,-576.752 571.215,-569.611 577.421,-573.283 576.418,-580.424"/>
<text text-anchor="middle" x="625.5" y="-624" font-family="Helvetica,sans-Serif" font-size="10.00"> &#45;params</text>
</g>
<!-- Node13 -->
<g id="node13" class="node"><title>Node13</title>
<g id="a_node13"><a xlink:href="classCoolFileSystem.html" target="_top" xlink:title="This class handles the file system. ">
<polygon fill="white" stroke="black" points="591,-413.5 591,-492.5 701,-492.5 701,-413.5 591,-413.5"/>
<text text-anchor="middle" x="646" y="-480.5" font-family="Helvetica,sans-Serif" font-size="10.00">CoolFileSystem</text>
<polyline fill="none" stroke="black" points="591,-473.5 701,-473.5 "/>
<text text-anchor="middle" x="646" y="-461.5" font-family="Helvetica,sans-Serif" font-size="10.00"> </text>
<polyline fill="none" stroke="black" points="591,-454.5 701,-454.5 "/>
<text text-anchor="start" x="599" y="-442.5" font-family="Helvetica,sans-Serif" font-size="10.00">+ begin()</text>
<text text-anchor="start" x="599" y="-431.5" font-family="Helvetica,sans-Serif" font-size="10.00">+ saveSensorData()</text>
<text text-anchor="start" x="599" y="-420.5" font-family="Helvetica,sans-Serif" font-size="10.00">+ updateConfigFiles()</text>
</a>
</g>
</g>
<!-- Node13&#45;&gt;Node1 -->
<g id="edge12" class="edge"><title>Node13&#45;&gt;Node1</title>
<path fill="none" stroke="#404040" d="M630.361,-413.435C618.291,-385.143 600.416,-346.206 581,-314 561.285,-281.297 536.898,-247.347 514.299,-217.89"/>
<polygon fill="none" stroke="#404040" points="514.054,-217.573 507.219,-215.274 506.713,-208.081 513.547,-210.38 514.054,-217.573"/>
<text text-anchor="middle" x="595.5" y="-288" font-family="Helvetica,sans-Serif" font-size="10.00"> &#45;fileSystem</text>
</g>
<!-- Node14 -->
<g id="node14" class="node"><title>Node14</title>
<g id="a_node14"><a xlink:href="classJetpack.html" target="_top" xlink:title="This class manages the Jetpack shield. ">
<polygon fill="white" stroke="black" points="719,-375 719,-531 803,-531 803,-375 719,-375"/>
<text text-anchor="middle" x="761" y="-519" font-family="Helvetica,sans-Serif" font-size="10.00">Jetpack</text>
<polyline fill="none" stroke="black" points="719,-512 803,-512 "/>
<text text-anchor="start" x="727" y="-500" font-family="Helvetica,sans-Serif" font-size="10.00">&#45; action</text>
<text text-anchor="start" x="727" y="-489" font-family="Helvetica,sans-Serif" font-size="10.00">&#45; actorsNumber</text>
<text text-anchor="start" x="727" y="-478" font-family="Helvetica,sans-Serif" font-size="10.00">&#45; clockPin</text>
<text text-anchor="start" x="727" y="-467" font-family="Helvetica,sans-Serif" font-size="10.00">&#45; dataPin</text>
<text text-anchor="start" x="727" y="-456" font-family="Helvetica,sans-Serif" font-size="10.00">&#45; EnI2C</text>
<polyline fill="none" stroke="black" points="719,-449 803,-449 "/>
<text text-anchor="start" x="727" y="-437" font-family="Helvetica,sans-Serif" font-size="10.00">+ begin()</text>
<text text-anchor="start" x="727" y="-426" font-family="Helvetica,sans-Serif" font-size="10.00">+ config()</text>
<text text-anchor="start" x="727" y="-415" font-family="Helvetica,sans-Serif" font-size="10.00">+ doAction()</text>
<text text-anchor="start" x="727" y="-404" font-family="Helvetica,sans-Serif" font-size="10.00">+ printConf()</text>
<text text-anchor="start" x="727" y="-393" font-family="Helvetica,sans-Serif" font-size="10.00">+ write()</text>
<text text-anchor="start" x="727" y="-382" font-family="Helvetica,sans-Serif" font-size="10.00">+ writeBit()</text>
</a>
</g>
</g>
<!-- Node14&#45;&gt;Node1 -->
<g id="edge13" class="edge"><title>Node14&#45;&gt;Node1</title>
<path fill="none" stroke="#404040" d="M741.959,-374.941C734.321,-353.791 723.928,-331.804 710,-314 658.643,-248.349 576.518,-197.885 517.498,-167.422"/>
<polygon fill="none" stroke="#404040" points="517.458,-167.402 510.297,-168.251 506.759,-161.968 513.92,-161.119 517.458,-167.402"/>
<text text-anchor="middle" x="714" y="-288" font-family="Helvetica,sans-Serif" font-size="10.00"> &#45;jetPack</text>
</g>
<!-- Node15 -->
<g id="node15" class="node"><title>Node15</title>
<g id="a_node15"><a xlink:href="structJetpack_1_1state.html" target="_top" xlink:title="{Jetpack::state\n|+ actif\l+ high\l+ low\l+ type\l|}">
<polygon fill="white" stroke="black" points="721.5,-667 721.5,-757 800.5,-757 800.5,-667 721.5,-667"/>
<text text-anchor="middle" x="761" y="-745" font-family="Helvetica,sans-Serif" font-size="10.00">Jetpack::state</text>
<polyline fill="none" stroke="black" points="721.5,-738 800.5,-738 "/>
<text text-anchor="start" x="729.5" y="-726" font-family="Helvetica,sans-Serif" font-size="10.00">+ actif</text>
<text text-anchor="start" x="729.5" y="-715" font-family="Helvetica,sans-Serif" font-size="10.00">+ high</text>
<text text-anchor="start" x="729.5" y="-704" font-family="Helvetica,sans-Serif" font-size="10.00">+ low</text>
<text text-anchor="start" x="729.5" y="-693" font-family="Helvetica,sans-Serif" font-size="10.00">+ type</text>
<polyline fill="none" stroke="black" points="721.5,-686 800.5,-686 "/>
<text text-anchor="middle" x="761" y="-674" font-family="Helvetica,sans-Serif" font-size="10.00"> </text>
</a>
</g>
</g>
<!-- Node15&#45;&gt;Node14 -->
<g id="edge14" class="edge"><title>Node15&#45;&gt;Node14</title>
<path fill="none" stroke="#404040" d="M761,-666.82C761,-632.924 761,-585.013 761,-543.23"/>
<polygon fill="none" stroke="#404040" points="761,-543.055 757,-537.055 761,-531.055 765,-537.055 761,-543.055"/>
<text text-anchor="middle" x="778" y="-624" font-family="Helvetica,sans-Serif" font-size="10.00"> &#45;actors</text>
</g>
<!-- Node16 -->
<g id="node16" class="node"><title>Node16</title>
<g id="a_node16"><a xlink:href="classCoolTime.html" target="_top" xlink:title="This class manages the DS1337 RTC . ">
<polygon fill="white" stroke="black" points="821,-336.5 821,-569.5 929,-569.5 929,-336.5 821,-336.5"/>
<text text-anchor="middle" x="875" y="-557.5" font-family="Helvetica,sans-Serif" font-size="10.00">CoolTime</text>
<polyline fill="none" stroke="black" points="821,-550.5 929,-550.5 "/>
<text text-anchor="start" x="829" y="-538.5" font-family="Helvetica,sans-Serif" font-size="10.00">&#45; localPort</text>
<text text-anchor="start" x="829" y="-527.5" font-family="Helvetica,sans-Serif" font-size="10.00">&#45; packetBuffer</text>
<text text-anchor="start" x="829" y="-516.5" font-family="Helvetica,sans-Serif" font-size="10.00">&#45; rtc</text>
<text text-anchor="start" x="829" y="-505.5" font-family="Helvetica,sans-Serif" font-size="10.00">&#45; timeServer</text>
<text text-anchor="start" x="829" y="-494.5" font-family="Helvetica,sans-Serif" font-size="10.00">&#45; timeSync</text>
<text text-anchor="start" x="829" y="-483.5" font-family="Helvetica,sans-Serif" font-size="10.00">&#45; timeZone</text>
<text text-anchor="start" x="829" y="-472.5" font-family="Helvetica,sans-Serif" font-size="10.00">&#45; Udp</text>
<polyline fill="none" stroke="black" points="821,-465.5 929,-465.5 "/>
<text text-anchor="start" x="829" y="-453.5" font-family="Helvetica,sans-Serif" font-size="10.00">+ begin()</text>
<text text-anchor="start" x="829" y="-442.5" font-family="Helvetica,sans-Serif" font-size="10.00">+ config()</text>
<text text-anchor="start" x="829" y="-431.5" font-family="Helvetica,sans-Serif" font-size="10.00">+ config()</text>
<text text-anchor="start" x="829" y="-420.5" font-family="Helvetica,sans-Serif" font-size="10.00">+ getLastSyncTime()</text>
<text text-anchor="start" x="829" y="-409.5" font-family="Helvetica,sans-Serif" font-size="10.00">+ getNtpTime()</text>
<text text-anchor="start" x="829" y="-398.5" font-family="Helvetica,sans-Serif" font-size="10.00">+ getTimeDate()</text>
<text text-anchor="start" x="829" y="-387.5" font-family="Helvetica,sans-Serif" font-size="10.00">+ isTimeSync()</text>
<text text-anchor="start" x="829" y="-376.5" font-family="Helvetica,sans-Serif" font-size="10.00">+ printConf()</text>
<text text-anchor="start" x="829" y="-365.5" font-family="Helvetica,sans-Serif" font-size="10.00">+ sendNTPpacket()</text>
<text text-anchor="start" x="829" y="-354.5" font-family="Helvetica,sans-Serif" font-size="10.00">+ setDateTime()</text>
<text text-anchor="start" x="829" y="-343.5" font-family="Helvetica,sans-Serif" font-size="10.00">+ update()</text>
</a>
</g>
</g>
<!-- Node16&#45;&gt;Node1 -->
<g id="edge15" class="edge"><title>Node16&#45;&gt;Node1</title>
<path fill="none" stroke="#404040" d="M830.034,-336.478C824.608,-328.41 818.611,-320.796 812,-314 729.693,-229.381 599.267,-178.828 518.366,-153.872"/>
<polygon fill="none" stroke="#404040" points="518.288,-153.848 511.387,-155.94 506.801,-150.375 513.702,-148.283 518.288,-153.848"/>
<text text-anchor="middle" x="798" y="-288" font-family="Helvetica,sans-Serif" font-size="10.00"> &#45;rtc</text>
</g>
</g>
</svg>
