<?xml version="1.0" encoding="UTF-8" standalone="no"?>
<!DOCTYPE svg PUBLIC "-//W3C//DTD SVG 1.1//EN"
 "http://www.w3.org/Graphics/SVG/1.1/DTD/svg11.dtd">
<!-- Generated by graphviz version 2.38.0 (20140413.2041)
 -->
<!-- Title: CoolBoard::offLineMode Pages: 1 -->
<!--zoomable 803 -->
<svg id="main" version="1.1" xmlns="http://www.w3.org/2000/svg" xmlns:xlink="http://www.w3.org/1999/xlink" xml:space="preserve" onload="init(evt)">
<style type="text/css"><![CDATA[
.edge:hover path { stroke: red; }
.edge:hover polygon { stroke: red; fill: red; }
]]></style>
<script type="text/javascript"><![CDATA[
var edges = document.getElementsByTagName('g');
if (edges && edges.length) {
  for (var i=0;i<edges.length;i++) {
    if (edges[i].id.substr(0,4)=='edge') {
      edges[i].setAttribute('class','edge');
    }
  }
}
]]></script>
        <defs>
                <circle id="rim" cx="0" cy="0" r="7"/>
                <circle id="rim2" cx="0" cy="0" r="3.5"/>
                <g id="zoomPlus">
                        <use xlink:href="#rim" fill="#404040">
                                <set attributeName="fill" to="#808080" begin="zoomplus.mouseover" end="zoomplus.mouseout"/>
                        </use>
                        <path d="M-4,0h8M0,-4v8" fill="none" stroke="white" stroke-width="1.5" pointer-events="none"/>
                </g>
                <g id="zoomMin">
                        <use xlink:href="#rim" fill="#404040">
                                <set attributeName="fill" to="#808080" begin="zoomminus.mouseover" end="zoomminus.mouseout"/>
                        </use>
                        <path d="M-4,0h8" fill="none" stroke="white" stroke-width="1.5" pointer-events="none"/>
                </g>
                <g id="dirArrow">
                        <path fill="none" stroke="white" stroke-width="1.5" d="M0,-3.0v7 M-2.5,-0.5L0,-3.0L2.5,-0.5"/>
                </g>
               <g id="resetDef">
                       <use xlink:href="#rim2" fill="#404040">
                               <set attributeName="fill" to="#808080" begin="reset.mouseover" end="reset.mouseout"/>
                       </use>
               </g>
        </defs>

<script type="text/javascript">
var viewWidth = 862;
var viewHeight = 803;
var sectionId = 'dynsection-8';
</script>
<script xlink:href="svgpan.js"/>
<svg id="graph" class="graph">
<g id="viewport">
<title>CoolBoard::offLineMode</title>
<polygon fill="white" stroke="none" points="-4,4 -4,-799.225 858,-799.225 858,4 -4,4"/>
<!-- Node81 -->
<g id="node1" class="node"><title>Node81</title>
<polygon fill="#bfbfbf" stroke="black" points="0,-392 0,-411 122,-411 122,-392 0,-392"/>
<text text-anchor="middle" x="61" y="-399" font-family="Helvetica,sans-Serif" font-size="10.00">CoolBoard::offLineMode</text>
</g>
<!-- Node82 -->
<g id="node2" class="node"><title>Node82</title>
<g id="a_node2"><a xlink:href="classCoolBoardLed.html#a96e1ea13003eee34c9dbcef340404426" target="_top" xlink:title="CoolBoardLed::blink">
<polygon fill="white" stroke="black" points="379,-734 379,-753 483,-753 483,-734 379,-734"/>
<text text-anchor="middle" x="431" y="-741" font-family="Helvetica,sans-Serif" font-size="10.00">CoolBoardLed::blink</text>
</a>
</g>
</g>
<!-- Node81&#45;&gt;Node82 -->
<g id="edge1" class="edge"><title>Node81&#45;&gt;Node82</title>
<path fill="none" stroke="midnightblue" d="M63.5164,-411.076C69.3788,-445.171 93.53,-562.197 158,-629.5 215.036,-689.043 307.945,-718.785 369.027,-732.657"/>
<polygon fill="midnightblue" stroke="midnightblue" points="368.403,-736.104 378.921,-734.829 369.904,-729.266 368.403,-736.104"/>
</g>
<!-- Node83 -->
<g id="node3" class="node"><title>Node83</title>
<g id="a_node3"><a xlink:href="classCoolBoard.html#a519de78b807f8ec6463ff484eb925918" target="_top" xlink:title="CoolBoard::connect">
<polygon fill="white" stroke="black" points="189,-601 189,-620 292,-620 292,-601 189,-601"/>
<text text-anchor="middle" x="240.5" y="-608" font-family="Helvetica,sans-Serif" font-size="10.00">CoolBoard::connect</text>
</a>
</g>
</g>
<!-- Node81&#45;&gt;Node83 -->
<g id="edge2" class="edge"><title>Node81&#45;&gt;Node83</title>
<path fill="none" stroke="midnightblue" d="M68.1467,-411.335C82.5505,-434.064 120.139,-491.572 158,-534.5 177.575,-556.695 202.856,-579.501 220.035,-594.263"/>
<polygon fill="midnightblue" stroke="midnightblue" points="217.87,-597.017 227.756,-600.826 222.403,-591.683 217.87,-597.017"/>
</g>
<!-- Node85 -->
<g id="node5" class="node"><title>Node85</title>
<g id="a_node5"><a xlink:href="classCoolMQTT.html#a5d003307eff78efbd585e42b43b72b6d" target="_top" xlink:title="CoolMQTT::state">
<polygon fill="white" stroke="black" points="573.5,-639 573.5,-658 665.5,-658 665.5,-639 573.5,-639"/>
<text text-anchor="middle" x="619.5" y="-646" font-family="Helvetica,sans-Serif" font-size="10.00">CoolMQTT::state</text>
</a>
</g>
</g>
<!-- Node81&#45;&gt;Node85 -->
<g id="edge44" class="edge"><title>Node81&#45;&gt;Node85</title>
<path fill="none" stroke="midnightblue" d="M62.3447,-411.182C64.2865,-451.133 76.9518,-604.986 158,-688.5 267.215,-801.038 357.921,-822.039 503,-762.5 550.331,-743.076 588.63,-693.848 606.895,-666.872"/>
<polygon fill="midnightblue" stroke="midnightblue" points="609.933,-668.622 612.502,-658.343 604.084,-664.777 609.933,-668.622"/>
</g>
<!-- Node88 -->
<g id="node8" class="node"><title>Node88</title>
<g id="a_node8"><a xlink:href="classCoolWifi.html#a7c857f27161782f5ef1d62d552aff971" target="_top" xlink:title="CoolWifi::connectAP">
<polygon fill="white" stroke="black" points="565.5,-449 565.5,-468 673.5,-468 673.5,-449 565.5,-449"/>
<text text-anchor="middle" x="619.5" y="-456" font-family="Helvetica,sans-Serif" font-size="10.00">CoolWifi::connectAP</text>
</a>
</g>
</g>
<!-- Node81&#45;&gt;Node88 -->
<g id="edge14" class="edge"><title>Node81&#45;&gt;Node88</title>
<path fill="none" stroke="midnightblue" d="M104.834,-411.054C121.376,-414.46 140.501,-418.054 158,-420.5 299.189,-440.233 466.27,-450.881 555.256,-455.549"/>
<polygon fill="midnightblue" stroke="midnightblue" points="555.284,-459.055 565.452,-456.075 555.645,-452.064 555.284,-459.055"/>
</g>
<!-- Node91 -->
<g id="node11" class="node"><title>Node91</title>
<g id="a_node11"><a xlink:href="classCoolWifi.html#a1c7b4d82a4098d346e7593dce92039fa" target="_top" xlink:title="CoolWifi::state">
<polygon fill="white" stroke="black" points="390,-468 390,-487 472,-487 472,-468 390,-468"/>
<text text-anchor="middle" x="431" y="-475" font-family="Helvetica,sans-Serif" font-size="10.00">CoolWifi::state</text>
</a>
</g>
</g>
<!-- Node81&#45;&gt;Node91 -->
<g id="edge43" class="edge"><title>Node81&#45;&gt;Node91</title>
<path fill="none" stroke="midnightblue" d="M75.5177,-411.163C93.4176,-423.391 126.417,-443.999 158,-453.5 232.846,-476.016 324.107,-479.484 379.593,-479.101"/>
<polygon fill="midnightblue" stroke="midnightblue" points="379.903,-482.598 389.862,-478.983 379.822,-475.598 379.903,-482.598"/>
</g>
<!-- Node93 -->
<g id="node13" class="node"><title>Node93</title>
<g id="a_node13"><a xlink:href="classJetpack.html#a9e703197093094b963f9ad57817495b8" target="_top" xlink:title="Jetpack::doAction">
<polygon fill="white" stroke="black" points="193,-392 193,-411 288,-411 288,-392 193,-392"/>
<text text-anchor="middle" x="240.5" y="-399" font-family="Helvetica,sans-Serif" font-size="10.00">Jetpack::doAction</text>
</a>
</g>
</g>
<!-- Node81&#45;&gt;Node93 -->
<g id="edge15" class="edge"><title>Node81&#45;&gt;Node93</title>
<path fill="none" stroke="midnightblue" d="M122.093,-401.5C141.701,-401.5 163.4,-401.5 182.754,-401.5"/>
<polygon fill="midnightblue" stroke="midnightblue" points="182.936,-405 192.936,-401.5 182.936,-398 182.936,-405"/>
</g>
<!-- Node95 -->
<g id="node15" class="node"><title>Node95</title>
<g id="a_node15"><a xlink:href="classCoolBoardLed.html#af1cacbaa88db8bcf6042c1083ba41155" target="_top" xlink:title="CoolBoardLed::fade">
<polygon fill="white" stroke="black" points="189,-354 189,-373 292,-373 292,-354 189,-354"/>
<text text-anchor="middle" x="240.5" y="-361" font-family="Helvetica,sans-Serif" font-size="10.00">CoolBoardLed::fade</text>
</a>
</g>
</g>
<!-- Node81&#45;&gt;Node95 -->
<g id="edge17" class="edge"><title>Node81&#45;&gt;Node95</title>
<path fill="none" stroke="midnightblue" d="M106.791,-391.911C130.53,-386.829 159.884,-380.545 184.944,-375.18"/>
<polygon fill="midnightblue" stroke="midnightblue" points="185.986,-378.536 195.031,-373.02 184.52,-371.691 185.986,-378.536"/>
</g>
<!-- Node96 -->
<g id="node16" class="node"><title>Node96</title>
<g id="a_node16"><a xlink:href="classCoolBoardLed.html#ab778f5e7bed0ab74e3906d82110493c3" target="_top" xlink:title="CoolBoardLed::fadeIn">
<polygon fill="white" stroke="black" points="375.5,-354 375.5,-373 486.5,-373 486.5,-354 375.5,-354"/>
<text text-anchor="middle" x="431" y="-361" font-family="Helvetica,sans-Serif" font-size="10.00">CoolBoardLed::fadeIn</text>
</a>
</g>
</g>
<!-- Node81&#45;&gt;Node96 -->
<g id="edge18" class="edge"><title>Node81&#45;&gt;Node96</title>
<path fill="none" stroke="midnightblue" d="M73.4632,-391.854C90.5623,-378.164 124.355,-353.736 158,-344.5 236.05,-323.075 331.176,-338.745 385.751,-351.516"/>
<polygon fill="midnightblue" stroke="midnightblue" points="385.24,-354.993 395.783,-353.938 386.884,-348.189 385.24,-354.993"/>
</g>
<!-- Node97 -->
<g id="node17" class="node"><title>Node97</title>
<g id="a_node17"><a xlink:href="classCoolBoardLed.html#a93d545679237e8cc858324367149775c" target="_top" xlink:title="CoolBoardLed::fadeOut">
<polygon fill="white" stroke="black" points="371.5,-316 371.5,-335 490.5,-335 490.5,-316 371.5,-316"/>
<text text-anchor="middle" x="431" y="-323" font-family="Helvetica,sans-Serif" font-size="10.00">CoolBoardLed::fadeOut</text>
</a>
</g>
</g>
<!-- Node81&#45;&gt;Node97 -->
<g id="edge19" class="edge"><title>Node81&#45;&gt;Node97</title>
<path fill="none" stroke="midnightblue" d="M70.9115,-391.787C86.6239,-375.452 121.101,-343.04 158,-330.5 224.305,-307.967 305.048,-309.859 361.262,-315.44"/>
<polygon fill="midnightblue" stroke="midnightblue" points="361.151,-318.948 371.464,-316.521 361.888,-311.987 361.151,-318.948"/>
</g>
<!-- Node98 -->
<g id="node18" class="node"><title>Node98</title>
<g id="a_node18"><a xlink:href="classCoolBoard.html#ad7442cf4b62c7b0d5bd62a0f75ffc065" target="_top" xlink:title="CoolBoard::isConnected">
<polygon fill="white" stroke="black" points="179,-506 179,-525 302,-525 302,-506 179,-506"/>
<text text-anchor="middle" x="240.5" y="-513" font-family="Helvetica,sans-Serif" font-size="10.00">CoolBoard::isConnected</text>
</a>
</g>
</g>
<!-- Node81&#45;&gt;Node98 -->
<g id="edge20" class="edge"><title>Node81&#45;&gt;Node98</title>
<path fill="none" stroke="midnightblue" d="M69.6274,-411.19C84.6006,-429.568 119.731,-469.601 158,-491.5 165.897,-496.019 174.721,-499.754 183.566,-502.82"/>
<polygon fill="midnightblue" stroke="midnightblue" points="182.538,-506.166 193.129,-505.89 184.678,-499.501 182.538,-506.166"/>
</g>
<!-- Node99 -->
<g id="node19" class="node"><title>Node99</title>
<g id="a_node19"><a xlink:href="classCoolBoard.html#ad03abdce2e65f520bbf2cff0f2d083cf" target="_top" xlink:title="CoolBoard::readSensors">
<polygon fill="white" stroke="black" points="179,-240 179,-259 302,-259 302,-240 179,-240"/>
<text text-anchor="middle" x="240.5" y="-247" font-family="Helvetica,sans-Serif" font-size="10.00">CoolBoard::readSensors</text>
</a>
</g>
</g>
<!-- Node81&#45;&gt;Node99 -->
<g id="edge23" class="edge"><title>Node81&#45;&gt;Node99</title>
<path fill="none" stroke="midnightblue" d="M66.5119,-391.802C78.1285,-367.909 111.451,-305.816 158,-273.5 164.39,-269.064 171.605,-265.438 179.035,-262.475"/>
<polygon fill="midnightblue" stroke="midnightblue" points="180.289,-265.743 188.515,-259.066 177.921,-259.156 180.289,-265.743"/>
</g>
<!-- Node113 -->
<g id="node33" class="node"><title>Node113</title>
<g id="a_node33"><a xlink:href="classCoolFileSystem.html#afa3a4feae94871d4d3b6bebb701c2e67" target="_top" xlink:title="CoolFileSystem::saveSensorData">
<polygon fill="white" stroke="black" points="158,-28 158,-47 323,-47 323,-28 158,-28"/>
<text text-anchor="middle" x="240.5" y="-35" font-family="Helvetica,sans-Serif" font-size="10.00">CoolFileSystem::saveSensorData</text>
</a>
</g>
</g>
<!-- Node81&#45;&gt;Node113 -->
<g id="edge41" class="edge"><title>Node81&#45;&gt;Node113</title>
<path fill="none" stroke="midnightblue" d="M62.2008,-391.769C63.5701,-349.387 74.2774,-178.547 158,-78.5 168.158,-66.3608 182.806,-57.4511 196.89,-51.0994"/>
<polygon fill="midnightblue" stroke="midnightblue" points="198.601,-54.178 206.487,-47.1026 195.91,-47.7159 198.601,-54.178"/>
</g>
<!-- Node115 -->
<g id="node35" class="node"><title>Node115</title>
<g id="a_node35"><a xlink:href="classCoolBoard.html#ae7358fb6e623cfc81b775f5f1734909b" target="_top" xlink:title="CoolBoard::userData">
<polygon fill="white" stroke="black" points="186.5,-88 186.5,-107 294.5,-107 294.5,-88 186.5,-88"/>
<text text-anchor="middle" x="240.5" y="-95" font-family="Helvetica,sans-Serif" font-size="10.00">CoolBoard::userData</text>
</a>
</g>
</g>
<!-- Node81&#45;&gt;Node115 -->
<g id="edge45" class="edge"><title>Node81&#45;&gt;Node115</title>
<path fill="none" stroke="midnightblue" d="M67.2847,-391.784C81.5789,-365.572 122.332,-291.283 158,-230.5 182.306,-189.079 212.048,-141.22 228.03,-115.721"/>
<polygon fill="midnightblue" stroke="midnightblue" points="231.088,-117.433 233.442,-107.103 225.16,-113.71 231.088,-117.433"/>
</g>
<!-- Node83&#45;&gt;Node82 -->
<g id="edge3" class="edge"><title>Node83&#45;&gt;Node82</title>
<path fill="none" stroke="midnightblue" d="M257.074,-620.192C274.391,-631.433 302.605,-651.17 323,-672.5 342.426,-692.816 336.015,-708.32 359,-724.5 362.253,-726.79 365.766,-728.803 369.428,-730.574"/>
<polygon fill="midnightblue" stroke="midnightblue" points="368.198,-733.854 378.774,-734.496 370.907,-727.399 368.198,-733.854"/>
</g>
<!-- Node84 -->
<g id="node4" class="node"><title>Node84</title>
<g id="a_node4"><a xlink:href="classCoolMQTT.html#a50075d0ab23a327ab897fd6adad20eda" target="_top" xlink:title="CoolMQTT::connect">
<polygon fill="white" stroke="black" points="378.5,-620 378.5,-639 483.5,-639 483.5,-620 378.5,-620"/>
<text text-anchor="middle" x="431" y="-627" font-family="Helvetica,sans-Serif" font-size="10.00">CoolMQTT::connect</text>
</a>
</g>
</g>
<!-- Node83&#45;&gt;Node84 -->
<g id="edge4" class="edge"><title>Node83&#45;&gt;Node84</title>
<path fill="none" stroke="midnightblue" d="M292.015,-615.592C315.497,-617.959 343.635,-620.795 368.358,-623.287"/>
<polygon fill="midnightblue" stroke="midnightblue" points="368.06,-626.774 378.361,-624.295 368.763,-619.81 368.06,-626.774"/>
</g>
<!-- Node83&#45;&gt;Node85 -->
<g id="edge12" class="edge"><title>Node83&#45;&gt;Node85</title>
<path fill="none" stroke="midnightblue" d="M263.947,-620.094C287.22,-629.48 324.904,-643.124 359,-648.5 428.674,-659.486 510.185,-657.035 562.995,-653.473"/>
<polygon fill="midnightblue" stroke="midnightblue" points="563.436,-656.95 573.162,-652.749 562.939,-649.968 563.436,-656.95"/>
</g>
<!-- Node86 -->
<g id="node6" class="node"><title>Node86</title>
<g id="a_node6"><a xlink:href="classCoolWifi.html#ad060353050f40d032a2dbf9e54a768bf" target="_top" xlink:title="CoolWifi::connect">
<polygon fill="white" stroke="black" points="383.5,-506 383.5,-525 478.5,-525 478.5,-506 383.5,-506"/>
<text text-anchor="middle" x="431" y="-513" font-family="Helvetica,sans-Serif" font-size="10.00">CoolWifi::connect</text>
</a>
</g>
</g>
<!-- Node83&#45;&gt;Node86 -->
<g id="edge6" class="edge"><title>Node83&#45;&gt;Node86</title>
<path fill="none" stroke="midnightblue" d="M260.612,-600.868C294.004,-584.039 363.105,-549.213 401.938,-529.643"/>
<polygon fill="midnightblue" stroke="midnightblue" points="403.763,-532.642 411.118,-525.016 400.613,-526.391 403.763,-532.642"/>
</g>
<!-- Node90 -->
<g id="node10" class="node"><title>Node90</title>
<g id="a_node10"><a xlink:href="classCoolBoard.html#a7508e029f2ee17bb747ffab599285e0d" target="_top" xlink:title="CoolBoard::getLogInterval">
<polygon fill="white" stroke="black" points="366,-582 366,-601 496,-601 496,-582 366,-582"/>
<text text-anchor="middle" x="431" y="-589" font-family="Helvetica,sans-Serif" font-size="10.00">CoolBoard::getLogInterval</text>
</a>
</g>
</g>
<!-- Node83&#45;&gt;Node90 -->
<g id="edge10" class="edge"><title>Node83&#45;&gt;Node90</title>
<path fill="none" stroke="midnightblue" d="M292.015,-605.408C311.597,-603.435 334.415,-601.135 355.792,-598.98"/>
<polygon fill="midnightblue" stroke="midnightblue" points="356.222,-602.454 365.821,-597.969 355.52,-595.49 356.222,-602.454"/>
</g>
<!-- Node83&#45;&gt;Node91 -->
<g id="edge11" class="edge"><title>Node83&#45;&gt;Node91</title>
<path fill="none" stroke="midnightblue" d="M252.248,-600.867C268.029,-586.636 298.279,-559.027 323,-534.5 339.515,-518.115 339.009,-508.4 359,-496.5 365.407,-492.686 372.589,-489.623 379.858,-487.167"/>
<polygon fill="midnightblue" stroke="midnightblue" points="381.196,-490.419 389.759,-484.181 379.175,-483.717 381.196,-490.419"/>
</g>
<!-- Node92 -->
<g id="node12" class="node"><title>Node92</title>
<g id="a_node12"><a xlink:href="classCoolBoardLed.html#a30fadd4cbec17ceea428bf7a32207e87" target="_top" xlink:title="CoolBoardLed::write">
<polygon fill="white" stroke="black" points="378.5,-696 378.5,-715 483.5,-715 483.5,-696 378.5,-696"/>
<text text-anchor="middle" x="431" y="-703" font-family="Helvetica,sans-Serif" font-size="10.00">CoolBoardLed::write</text>
</a>
</g>
</g>
<!-- Node83&#45;&gt;Node92 -->
<g id="edge13" class="edge"><title>Node83&#45;&gt;Node92</title>
<path fill="none" stroke="midnightblue" d="M255.064,-620.046C276.396,-634.742 319.441,-663.129 359,-681.5 367.934,-685.649 377.793,-689.443 387.248,-692.729"/>
<polygon fill="midnightblue" stroke="midnightblue" points="386.306,-696.104 396.9,-695.963 388.53,-689.467 386.306,-696.104"/>
</g>
<!-- Node84&#45;&gt;Node85 -->
<g id="edge5" class="edge"><title>Node84&#45;&gt;Node85</title>
<path fill="none" stroke="midnightblue" d="M483.951,-634.793C508.675,-637.311 538.254,-640.325 563.373,-642.884"/>
<polygon fill="midnightblue" stroke="midnightblue" points="563.175,-646.382 573.478,-643.913 563.884,-639.418 563.175,-646.382"/>
</g>
<!-- Node87 -->
<g id="node7" class="node"><title>Node87</title>
<g id="a_node7"><a xlink:href="classCoolWifi.html#a419de92d738f14b7444cf822b3ab0070" target="_top" xlink:title="CoolWifi::connectWifiMulti">
<polygon fill="white" stroke="black" points="553,-506 553,-525 686,-525 686,-506 553,-506"/>
<text text-anchor="middle" x="619.5" y="-513" font-family="Helvetica,sans-Serif" font-size="10.00">CoolWifi::connectWifiMulti</text>
</a>
</g>
</g>
<!-- Node86&#45;&gt;Node87 -->
<g id="edge7" class="edge"><title>Node86&#45;&gt;Node87</title>
<path fill="none" stroke="midnightblue" d="M478.581,-515.5C497.954,-515.5 520.948,-515.5 542.64,-515.5"/>
<polygon fill="midnightblue" stroke="midnightblue" points="542.829,-519 552.829,-515.5 542.829,-512 542.829,-519"/>
</g>
<!-- Node86&#45;&gt;Node88 -->
<g id="edge8" class="edge"><title>Node86&#45;&gt;Node88</title>
<path fill="none" stroke="midnightblue" d="M469.328,-505.934C480.219,-503.029 492.117,-499.744 503,-496.5 529.257,-488.674 558.579,-479.016 581.108,-471.395"/>
<polygon fill="midnightblue" stroke="midnightblue" points="582.29,-474.69 590.632,-468.158 580.038,-468.062 582.29,-474.69"/>
</g>
<!-- Node89 -->
<g id="node9" class="node"><title>Node89</title>
<g id="a_node9"><a xlink:href="classCoolWifi.html#a914d7a1df14dd6b75345fb614c34e9d6" target="_top" xlink:title="CoolWifi::addWifi">
<polygon fill="white" stroke="black" points="748.5,-449 748.5,-468 841.5,-468 841.5,-449 748.5,-449"/>
<text text-anchor="middle" x="795" y="-456" font-family="Helvetica,sans-Serif" font-size="10.00">CoolWifi::addWifi</text>
</a>
</g>
</g>
<!-- Node88&#45;&gt;Node89 -->
<g id="edge9" class="edge"><title>Node88&#45;&gt;Node89</title>
<path fill="none" stroke="midnightblue" d="M673.971,-458.5C694.329,-458.5 717.568,-458.5 738.141,-458.5"/>
<polygon fill="midnightblue" stroke="midnightblue" points="738.313,-462 748.313,-458.5 738.313,-455 738.313,-462"/>
</g>
<!-- Node94 -->
<g id="node14" class="node"><title>Node94</title>
<g id="a_node14"><a xlink:href="classJetpack.html#a338f1af8cbc6504ac69b47c7328569b5" target="_top" xlink:title="Jetpack::write">
<polygon fill="white" stroke="black" points="392,-392 392,-411 470,-411 470,-392 392,-392"/>
<text text-anchor="middle" x="431" y="-399" font-family="Helvetica,sans-Serif" font-size="10.00">Jetpack::write</text>
</a>
</g>
</g>
<!-- Node93&#45;&gt;Node94 -->
<g id="edge16" class="edge"><title>Node93&#45;&gt;Node94</title>
<path fill="none" stroke="midnightblue" d="M288.096,-401.5C316.546,-401.5 352.857,-401.5 381.627,-401.5"/>
<polygon fill="midnightblue" stroke="midnightblue" points="381.856,-405 391.856,-401.5 381.856,-398 381.856,-405"/>
</g>
<!-- Node98&#45;&gt;Node85 -->
<g id="edge21" class="edge"><title>Node98&#45;&gt;Node85</title>
<path fill="none" stroke="midnightblue" d="M296.446,-525.031C361.701,-536.776 466.328,-557.069 503,-572.5 539.72,-587.952 577.374,-615.312 599.317,-632.645"/>
<polygon fill="midnightblue" stroke="midnightblue" points="597.198,-635.432 607.186,-638.967 601.582,-629.975 597.198,-635.432"/>
</g>
<!-- Node98&#45;&gt;Node91 -->
<g id="edge22" class="edge"><title>Node98&#45;&gt;Node91</title>
<path fill="none" stroke="midnightblue" d="M289.067,-505.911C316.75,-500.33 351.623,-493.3 379.753,-487.629"/>
<polygon fill="midnightblue" stroke="midnightblue" points="380.675,-491.014 389.786,-485.607 379.292,-484.152 380.675,-491.014"/>
</g>
<!-- Node99&#45;&gt;Node96 -->
<g id="edge24" class="edge"><title>Node99&#45;&gt;Node96</title>
<path fill="none" stroke="midnightblue" d="M254.773,-259.019C271.145,-270.891 299.673,-292.005 323,-311.5 339.655,-325.419 339.97,-334.061 359,-344.5 363.185,-346.796 367.663,-348.826 372.258,-350.619"/>
<polygon fill="midnightblue" stroke="midnightblue" points="371.207,-353.96 381.801,-353.978 373.53,-347.357 371.207,-353.96"/>
</g>
<!-- Node99&#45;&gt;Node97 -->
<g id="edge40" class="edge"><title>Node99&#45;&gt;Node97</title>
<path fill="none" stroke="midnightblue" d="M287.4,-259.066C299.431,-262.617 312.084,-267.334 323,-273.5 341.899,-284.175 339.97,-296.061 359,-306.5 363.185,-308.796 367.663,-310.826 372.258,-312.619"/>
<polygon fill="midnightblue" stroke="midnightblue" points="371.207,-315.96 381.801,-315.978 373.53,-309.357 371.207,-315.96"/>
</g>
<!-- Node100 -->
<g id="node20" class="node"><title>Node100</title>
<g id="a_node20"><a xlink:href="classCoolBoardLed.html#ad5f0de4c628cbfbf49896042831c64ad" target="_top" xlink:title="CoolBoardLed::strobe">
<polygon fill="white" stroke="black" points="375.5,-202 375.5,-221 486.5,-221 486.5,-202 375.5,-202"/>
<text text-anchor="middle" x="431" y="-209" font-family="Helvetica,sans-Serif" font-size="10.00">CoolBoardLed::strobe</text>
</a>
</g>
</g>
<!-- Node99&#45;&gt;Node100 -->
<g id="edge25" class="edge"><title>Node99&#45;&gt;Node100</title>
<path fill="none" stroke="midnightblue" d="M289.067,-239.911C314.501,-234.784 346.005,-228.433 372.771,-223.037"/>
<polygon fill="midnightblue" stroke="midnightblue" points="373.664,-226.427 382.776,-221.02 372.281,-219.565 373.664,-226.427"/>
</g>
<!-- Node101 -->
<g id="node21" class="node"><title>Node101</title>
<g id="a_node21"><a xlink:href="classCoolBoardSensors.html#a91badb2539d91fda8679f2a597874c48" target="_top" xlink:title="CoolBoardSensors::read">
<polygon fill="white" stroke="black" points="369.5,-240 369.5,-259 492.5,-259 492.5,-240 369.5,-240"/>
<text text-anchor="middle" x="431" y="-247" font-family="Helvetica,sans-Serif" font-size="10.00">CoolBoardSensors::read</text>
</a>
</g>
</g>
<!-- Node99&#45;&gt;Node101 -->
<g id="edge26" class="edge"><title>Node99&#45;&gt;Node101</title>
<path fill="none" stroke="midnightblue" d="M302.18,-249.5C320.426,-249.5 340.603,-249.5 359.431,-249.5"/>
<polygon fill="midnightblue" stroke="midnightblue" points="359.434,-253 369.434,-249.5 359.433,-246 359.434,-253"/>
</g>
<!-- Node105 -->
<g id="node25" class="node"><title>Node105</title>
<g id="a_node25"><a xlink:href="classExternalSensors.html#a53177b81eca3be89508b5511ddcd00fc" target="_top" xlink:title="ExternalSensors::read">
<polygon fill="white" stroke="black" points="374.5,-164 374.5,-183 487.5,-183 487.5,-164 374.5,-164"/>
<text text-anchor="middle" x="431" y="-171" font-family="Helvetica,sans-Serif" font-size="10.00">ExternalSensors::read</text>
</a>
</g>
</g>
<!-- Node99&#45;&gt;Node105 -->
<g id="edge30" class="edge"><title>Node99&#45;&gt;Node105</title>
<path fill="none" stroke="midnightblue" d="M258.564,-239.941C281.034,-227.654 322.031,-206.271 359,-192.5 365.427,-190.106 372.285,-187.88 379.11,-185.856"/>
<polygon fill="midnightblue" stroke="midnightblue" points="380.367,-189.138 389.032,-183.041 378.456,-182.404 380.367,-189.138"/>
</g>
<!-- Node106 -->
<g id="node26" class="node"><title>Node106</title>
<g id="a_node26"><a xlink:href="classIrene3000.html#a852a170feea994ea1df01c6b245b5d9a" target="_top" xlink:title="Irene3000::read">
<polygon fill="white" stroke="black" points="389,-278 389,-297 473,-297 473,-278 389,-278"/>
<text text-anchor="middle" x="431" y="-285" font-family="Helvetica,sans-Serif" font-size="10.00">Irene3000::read</text>
</a>
</g>
</g>
<!-- Node99&#45;&gt;Node106 -->
<g id="edge31" class="edge"><title>Node99&#45;&gt;Node106</title>
<path fill="none" stroke="midnightblue" d="M289.067,-259.089C316.459,-264.611 350.89,-271.552 378.863,-277.191"/>
<polygon fill="midnightblue" stroke="midnightblue" points="378.357,-280.66 388.851,-279.205 379.74,-273.798 378.357,-280.66"/>
</g>
<!-- Node111 -->
<g id="node31" class="node"><title>Node111</title>
<g id="a_node31"><a xlink:href="classCoolTime.html#a7a7501c5ca77dd1248bea704c44f986c" target="_top" xlink:title="CoolTime::getTimeDate">
<polygon fill="white" stroke="black" points="559,-126 559,-145 680,-145 680,-126 559,-126"/>
<text text-anchor="middle" x="619.5" y="-133" font-family="Helvetica,sans-Serif" font-size="10.00">CoolTime::getTimeDate</text>
</a>
</g>
</g>
<!-- Node99&#45;&gt;Node111 -->
<g id="edge38" class="edge"><title>Node99&#45;&gt;Node111</title>
<path fill="none" stroke="midnightblue" d="M249.689,-239.716C267.267,-219.515 310.941,-173.5 359,-154.5 419.875,-130.433 494.982,-127.524 548.703,-129.532"/>
<polygon fill="midnightblue" stroke="midnightblue" points="548.669,-133.034 558.813,-129.977 548.977,-126.041 548.669,-133.034"/>
</g>
<!-- Node102 -->
<g id="node22" class="node"><title>Node102</title>
<g id="a_node22"><a xlink:href="classCoolBoardSensors.html#acad6a8418c66d36868caca23c844ecb6" target="_top" xlink:title="CoolBoardSensors::initReadI2C">
<polygon fill="white" stroke="black" points="541.5,-164 541.5,-183 697.5,-183 697.5,-164 541.5,-164"/>
<text text-anchor="middle" x="619.5" y="-171" font-family="Helvetica,sans-Serif" font-size="10.00">CoolBoardSensors::initReadI2C</text>
</a>
</g>
</g>
<!-- Node101&#45;&gt;Node102 -->
<g id="edge27" class="edge"><title>Node101&#45;&gt;Node102</title>
<path fill="none" stroke="midnightblue" d="M481.932,-239.904C489.273,-237.436 496.531,-234.351 503,-230.5 522.991,-218.6 518.851,-204.13 539,-192.5 542.908,-190.244 547.072,-188.256 551.367,-186.503"/>
<polygon fill="midnightblue" stroke="midnightblue" points="552.728,-189.732 560.933,-183.03 550.339,-183.153 552.728,-189.732"/>
</g>
<!-- Node103 -->
<g id="node23" class="node"><title>Node103</title>
<g id="a_node23"><a xlink:href="classCoolBoardSensors.html#a6944b6ea7bce8e2fce1b434acfd9d5f3" target="_top" xlink:title="CoolBoardSensors::readVBat">
<polygon fill="white" stroke="black" points="547,-240 547,-259 692,-259 692,-240 547,-240"/>
<text text-anchor="middle" x="619.5" y="-247" font-family="Helvetica,sans-Serif" font-size="10.00">CoolBoardSensors::readVBat</text>
</a>
</g>
</g>
<!-- Node101&#45;&gt;Node103 -->
<g id="edge28" class="edge"><title>Node101&#45;&gt;Node103</title>
<path fill="none" stroke="midnightblue" d="M492.551,-249.5C506.637,-249.5 521.863,-249.5 536.697,-249.5"/>
<polygon fill="midnightblue" stroke="midnightblue" points="536.885,-253 546.885,-249.5 536.885,-246 536.885,-253"/>
</g>
<!-- Node104 -->
<g id="node24" class="node"><title>Node104</title>
<g id="a_node24"><a xlink:href="classCoolBoardSensors.html#a8761bff50373c485f4465c8db47d0633" target="_top" xlink:title="CoolBoardSensors::readMoisture">
<polygon fill="white" stroke="black" points="539,-202 539,-221 700,-221 700,-202 539,-202"/>
<text text-anchor="middle" x="619.5" y="-209" font-family="Helvetica,sans-Serif" font-size="10.00">CoolBoardSensors::readMoisture</text>
</a>
</g>
</g>
<!-- Node101&#45;&gt;Node104 -->
<g id="edge29" class="edge"><title>Node101&#45;&gt;Node104</title>
<path fill="none" stroke="midnightblue" d="M479.062,-239.911C504.227,-234.784 535.396,-228.433 561.879,-223.037"/>
<polygon fill="midnightblue" stroke="midnightblue" points="562.677,-226.446 571.777,-221.02 561.279,-219.587 562.677,-226.446"/>
</g>
<!-- Node107 -->
<g id="node27" class="node"><title>Node107</title>
<g id="a_node27"><a xlink:href="classIrene3000.html#a94ad40f281d83ad1be20bf1edd6fe802" target="_top" xlink:title="Irene3000::readTemp">
<polygon fill="white" stroke="black" points="565,-278 565,-297 674,-297 674,-278 565,-278"/>
<text text-anchor="middle" x="619.5" y="-285" font-family="Helvetica,sans-Serif" font-size="10.00">Irene3000::readTemp</text>
</a>
</g>
</g>
<!-- Node106&#45;&gt;Node107 -->
<g id="edge32" class="edge"><title>Node106&#45;&gt;Node107</title>
<path fill="none" stroke="midnightblue" d="M473.39,-287.5C497.275,-287.5 527.815,-287.5 554.71,-287.5"/>
<polygon fill="midnightblue" stroke="midnightblue" points="554.818,-291 564.818,-287.5 554.818,-284 554.818,-291"/>
</g>
<!-- Node109 -->
<g id="node29" class="node"><title>Node109</title>
<g id="a_node29"><a xlink:href="classIrene3000.html#abf3db725fabb0634ec889b32068a5eec" target="_top" xlink:title="Irene3000::readPh">
<polygon fill="white" stroke="black" points="571.5,-354 571.5,-373 667.5,-373 667.5,-354 571.5,-354"/>
<text text-anchor="middle" x="619.5" y="-361" font-family="Helvetica,sans-Serif" font-size="10.00">Irene3000::readPh</text>
</a>
</g>
</g>
<!-- Node106&#45;&gt;Node109 -->
<g id="edge34" class="edge"><title>Node106&#45;&gt;Node109</title>
<path fill="none" stroke="midnightblue" d="M473.352,-294.483C483.493,-297.275 494.009,-301.148 503,-306.5 522.991,-318.4 518.851,-332.87 539,-344.5 545.99,-348.535 553.798,-351.715 561.716,-354.22"/>
<polygon fill="midnightblue" stroke="midnightblue" points="560.805,-357.6 571.38,-356.954 562.711,-350.864 560.805,-357.6"/>
</g>
<!-- Node110 -->
<g id="node30" class="node"><title>Node110</title>
<g id="a_node30"><a xlink:href="classIrene3000.html#ae73bd2ed14a199a7e83f4d6458476a7c" target="_top" xlink:title="Irene3000::readADSChannel2">
<polygon fill="white" stroke="black" points="546.5,-316 546.5,-335 692.5,-335 692.5,-316 546.5,-316"/>
<text text-anchor="middle" x="619.5" y="-323" font-family="Helvetica,sans-Serif" font-size="10.00">Irene3000::readADSChannel2</text>
</a>
</g>
</g>
<!-- Node106&#45;&gt;Node110 -->
<g id="edge36" class="edge"><title>Node106&#45;&gt;Node110</title>
<path fill="none" stroke="midnightblue" d="M473.39,-295.933C499.405,-301.234 533.315,-308.143 561.813,-313.95"/>
<polygon fill="midnightblue" stroke="midnightblue" points="561.148,-317.386 571.645,-315.953 562.545,-310.527 561.148,-317.386"/>
</g>
<!-- Node108 -->
<g id="node28" class="node"><title>Node108</title>
<g id="a_node28"><a xlink:href="classIrene3000.html#aff7c5da186b388e7272e63ff88a20c34" target="_top" xlink:title="Irene3000::setGain">
<polygon fill="white" stroke="black" points="745.5,-316 745.5,-335 844.5,-335 844.5,-316 745.5,-316"/>
<text text-anchor="middle" x="795" y="-323" font-family="Helvetica,sans-Serif" font-size="10.00">Irene3000::setGain</text>
</a>
</g>
</g>
<!-- Node107&#45;&gt;Node108 -->
<g id="edge33" class="edge"><title>Node107&#45;&gt;Node108</title>
<path fill="none" stroke="midnightblue" d="M664.281,-297.089C687.486,-302.171 716.178,-308.455 740.673,-313.82"/>
<polygon fill="midnightblue" stroke="midnightblue" points="740.016,-317.259 750.533,-315.98 741.514,-310.421 740.016,-317.259"/>
</g>
<!-- Node109&#45;&gt;Node108 -->
<g id="edge35" class="edge"><title>Node109&#45;&gt;Node108</title>
<path fill="none" stroke="midnightblue" d="M664.281,-353.911C687.486,-348.829 716.178,-342.545 740.673,-337.18"/>
<polygon fill="midnightblue" stroke="midnightblue" points="741.514,-340.579 750.533,-335.02 740.016,-333.741 741.514,-340.579"/>
</g>
<!-- Node110&#45;&gt;Node108 -->
<g id="edge37" class="edge"><title>Node110&#45;&gt;Node108</title>
<path fill="none" stroke="midnightblue" d="M692.572,-325.5C706.743,-325.5 721.452,-325.5 735.126,-325.5"/>
<polygon fill="midnightblue" stroke="midnightblue" points="735.356,-329 745.356,-325.5 735.356,-322 735.356,-329"/>
</g>
<!-- Node112 -->
<g id="node32" class="node"><title>Node112</title>
<g id="a_node32"><a xlink:href="classCoolTime.html#acd537cd4210d7bde4e1f5c47d2ac0456" target="_top" xlink:title="CoolTime::formatDigits">
<polygon fill="white" stroke="black" points="736,-107 736,-126 854,-126 854,-107 736,-107"/>
<text text-anchor="middle" x="795" y="-114" font-family="Helvetica,sans-Serif" font-size="10.00">CoolTime::formatDigits</text>
</a>
</g>
</g>
<!-- Node111&#45;&gt;Node112 -->
<g id="edge39" class="edge"><title>Node111&#45;&gt;Node112</title>
<path fill="none" stroke="midnightblue" d="M680.209,-128.961C694.863,-127.356 710.661,-125.626 725.686,-123.981"/>
<polygon fill="midnightblue" stroke="midnightblue" points="726.381,-127.426 735.941,-122.858 725.619,-120.468 726.381,-127.426"/>
</g>
<!-- Node114 -->
<g id="node34" class="node"><title>Node114</title>
<g id="a_node34"><a xlink:href="classCoolFileSystem.html#ab78704d5d21ce10fc6f1138ab5ab46c8" target="_top" xlink:title="CoolFileSystem::saveSensor\lDataCSV">
<polygon fill="white" stroke="black" points="359,-0.5 359,-30.5 503,-30.5 503,-0.5 359,-0.5"/>
<text text-anchor="start" x="367" y="-18.5" font-family="Helvetica,sans-Serif" font-size="10.00">CoolFileSystem::saveSensor</text>
<text text-anchor="middle" x="431" y="-7.5" font-family="Helvetica,sans-Serif" font-size="10.00">DataCSV</text>
</a>
</g>
</g>
<!-- Node113&#45;&gt;Node114 -->
<g id="edge42" class="edge"><title>Node113&#45;&gt;Node114</title>
<path fill="none" stroke="midnightblue" d="M323.083,-27.9784C331.664,-26.9768 340.389,-25.9586 348.965,-24.9577"/>
<polygon fill="midnightblue" stroke="midnightblue" points="349.419,-28.4285 358.946,-23.7928 348.608,-21.4757 349.419,-28.4285"/>
</g>
<!-- Node116 -->
<g id="node36" class="node"><title>Node116</title>
<g id="a_node36"><a xlink:href="classCoolMQTT.html#a373cc92fca7760d886f02d8a6e5b3f63" target="_top" xlink:title="CoolMQTT::getUser">
<polygon fill="white" stroke="black" points="378.5,-50 378.5,-69 483.5,-69 483.5,-50 378.5,-50"/>
<text text-anchor="middle" x="431" y="-57" font-family="Helvetica,sans-Serif" font-size="10.00">CoolMQTT::getUser</text>
</a>
</g>
</g>
<!-- Node115&#45;&gt;Node116 -->
<g id="edge46" class="edge"><title>Node115&#45;&gt;Node116</title>
<path fill="none" stroke="midnightblue" d="M289.067,-87.911C314.501,-82.7835 346.005,-76.4328 372.771,-71.0368"/>
<polygon fill="midnightblue" stroke="midnightblue" points="373.664,-74.4273 382.776,-69.0201 372.281,-67.5653 373.664,-74.4273"/>
</g>
<!-- Node117 -->
<g id="node37" class="node"><title>Node117</title>
<g id="a_node37"><a xlink:href="classCoolTime.html#ac4f32ee513c1328d984306645e8785a4" target="_top" xlink:title="CoolTime::getESDate">
<polygon fill="white" stroke="black" points="374.5,-88 374.5,-107 487.5,-107 487.5,-88 374.5,-88"/>
<text text-anchor="middle" x="431" y="-95" font-family="Helvetica,sans-Serif" font-size="10.00">CoolTime::getESDate</text>
</a>
</g>
</g>
<!-- Node115&#45;&gt;Node117 -->
<g id="edge47" class="edge"><title>Node115&#45;&gt;Node117</title>
<path fill="none" stroke="midnightblue" d="M294.509,-97.5C316.134,-97.5 341.367,-97.5 364.156,-97.5"/>
<polygon fill="midnightblue" stroke="midnightblue" points="364.433,-101 374.433,-97.5 364.432,-94.0001 364.433,-101"/>
</g>
<!-- Node117&#45;&gt;Node111 -->
<g id="edge48" class="edge"><title>Node117&#45;&gt;Node111</title>
<path fill="none" stroke="midnightblue" d="M479.062,-107.089C504.227,-112.216 535.396,-118.567 561.879,-123.963"/>
<polygon fill="midnightblue" stroke="midnightblue" points="561.279,-127.413 571.777,-125.98 562.677,-120.554 561.279,-127.413"/>
</g>
<!-- Node117&#45;&gt;Node112 -->
<g id="edge49" class="edge"><title>Node117&#45;&gt;Node112</title>
<path fill="none" stroke="midnightblue" d="M487.769,-100.427C551.719,-103.784 656.579,-109.287 725.455,-112.902"/>
<polygon fill="midnightblue" stroke="midnightblue" points="725.598,-116.415 735.768,-113.444 725.965,-109.424 725.598,-116.415"/>
</g>
</g>
</svg>
        <g id="navigator" transform="translate(0 0)" fill="#404254">
                <rect fill="#f2f5e9" fill-opacity="0.5" stroke="#606060" stroke-width=".5" x="0" y="0" width="60" height="60"/>
                <use id="zoomplus" xlink:href="#zoomPlus" x="17" y="9" onmousedown="handleZoom(evt,'in')"/>
                <use id="zoomminus" xlink:href="#zoomMin" x="42" y="9" onmousedown="handleZoom(evt,'out')"/>
                <use id="reset" xlink:href="#resetDef" x="30" y="36" onmousedown="handleReset()"/>
                <g id="arrowUp" xlink:href="#dirArrow" transform="translate(30 24)" onmousedown="handlePan(0,-1)">
                  <use xlink:href="#rim" fill="#404040">
                        <set attributeName="fill" to="#808080" begin="arrowUp.mouseover" end="arrowUp.mouseout"/>
                  </use>
                  <path fill="none" stroke="white" stroke-width="1.5" d="M0,-3.0v7 M-2.5,-0.5L0,-3.0L2.5,-0.5"/>
                </g>
                <g id="arrowRight" xlink:href="#dirArrow" transform="rotate(90) translate(36 -43)" onmousedown="handlePan(1,0)">
                  <use xlink:href="#rim" fill="#404040">
                        <set attributeName="fill" to="#808080" begin="arrowRight.mouseover" end="arrowRight.mouseout"/>
                  </use>
                  <path fill="none" stroke="white" stroke-width="1.5" d="M0,-3.0v7 M-2.5,-0.5L0,-3.0L2.5,-0.5"/>
                </g>
                <g id="arrowDown" xlink:href="#dirArrow" transform="rotate(180) translate(-30 -48)" onmousedown="handlePan(0,1)">
                  <use xlink:href="#rim" fill="#404040">
                        <set attributeName="fill" to="#808080" begin="arrowDown.mouseover" end="arrowDown.mouseout"/>
                  </use>
                  <path fill="none" stroke="white" stroke-width="1.5" d="M0,-3.0v7 M-2.5,-0.5L0,-3.0L2.5,-0.5"/>
                </g>
                <g id="arrowLeft" xlink:href="#dirArrow" transform="rotate(270) translate(-36 17)" onmousedown="handlePan(-1,0)">
                  <use xlink:href="#rim" fill="#404040">
                        <set attributeName="fill" to="#808080" begin="arrowLeft.mouseover" end="arrowLeft.mouseout"/>
                  </use>
                  <path fill="none" stroke="white" stroke-width="1.5" d="M0,-3.0v7 M-2.5,-0.5L0,-3.0L2.5,-0.5"/>
                </g>
        </g>
        <svg viewBox="0 0 15 15" width="100%" height="30px" preserveAspectRatio="xMaxYMin meet">
         <g id="arrow_out" transform="scale(0.3 0.3)">
          <a xlink:href="classCoolBoard_ae6b5e1274d760462290192acea4adca8_cgraph_org.svg" target="_base">
           <rect id="button" ry="5" rx="5" y="6" x="6" height="38" width="38"
                fill="#f2f5e9" fill-opacity="0.5" stroke="#606060" stroke-width="1.0"/>
           <path id="arrow"
             d="M 11.500037,31.436501 C 11.940474,20.09759 22.043105,11.32322 32.158766,21.979434 L 37.068811,17.246167 C 37.068811,17.246167 37.088388,32 37.088388,32 L 22.160133,31.978069 C 22.160133,31.978069 26.997745,27.140456 26.997745,27.140456 C 18.528582,18.264221 13.291696,25.230495 11.500037,31.436501 z"
             style="fill:#404040;"/>
          </a>
         </g>
        </svg>
</svg>
