<?xml version="1.0" encoding="UTF-8" standalone="no"?>
<!DOCTYPE svg PUBLIC "-//W3C//DTD SVG 1.1//EN"
 "http://www.w3.org/Graphics/SVG/1.1/DTD/svg11.dtd">
<!-- Generated by graphviz version 2.38.0 (20140413.2041)
 -->
<!-- Title: CoolBoard Pages: 1 -->
<svg width="1038pt" height="920pt"
 viewBox="0.00 0.00 1037.50 920.00" xmlns="http://www.w3.org/2000/svg" xmlns:xlink="http://www.w3.org/1999/xlink">
<g id="graph0" class="graph" transform="scale(1 1) rotate(0) translate(4 916)">
<title>CoolBoard</title>
<polygon fill="white" stroke="none" points="-4,4 -4,-916 1033.5,-916 1033.5,4 -4,4"/>
<!-- Node1 -->
<g id="node1" class="node"><title>Node1</title>
<polygon fill="#bfbfbf" stroke="black" points="415,-0.5 415,-255.5 536,-255.5 536,-0.5 415,-0.5"/>
<text text-anchor="middle" x="475.5" y="-243.5" font-family="Helvetica,sans-Serif" font-size="10.00">CoolBoard</text>
<polyline fill="none" stroke="black" points="415,-236.5 536,-236.5 "/>
<text text-anchor="start" x="423" y="-224.5" font-family="Helvetica,sans-Serif" font-size="10.00">&#45; userActive</text>
<text text-anchor="start" x="423" y="-213.5" font-family="Helvetica,sans-Serif" font-size="10.00">&#45; ireneActive</text>
<text text-anchor="start" x="423" y="-202.5" font-family="Helvetica,sans-Serif" font-size="10.00">&#45; jetpackActive</text>
<text text-anchor="start" x="423" y="-191.5" font-family="Helvetica,sans-Serif" font-size="10.00">&#45; externalSensorsActive</text>
<text text-anchor="start" x="423" y="-180.5" font-family="Helvetica,sans-Serif" font-size="10.00">&#45; sleepActive</text>
<text text-anchor="start" x="423" y="-169.5" font-family="Helvetica,sans-Serif" font-size="10.00">&#45; logInterval</text>
<text text-anchor="start" x="423" y="-158.5" font-family="Helvetica,sans-Serif" font-size="10.00">&#45; serverTimeOut</text>
<text text-anchor="start" x="423" y="-147.5" font-family="Helvetica,sans-Serif" font-size="10.00">&#45; data</text>
<text text-anchor="start" x="423" y="-136.5" font-family="Helvetica,sans-Serif" font-size="10.00">&#45; answer</text>
<polyline fill="none" stroke="black" points="415,-129.5 536,-129.5 "/>
<text text-anchor="start" x="423" y="-117.5" font-family="Helvetica,sans-Serif" font-size="10.00">+ begin()</text>
<text text-anchor="start" x="423" y="-106.5" font-family="Helvetica,sans-Serif" font-size="10.00">+ config()</text>
<text text-anchor="start" x="423" y="-95.5" font-family="Helvetica,sans-Serif" font-size="10.00">+ update()</text>
<text text-anchor="start" x="423" y="-84.5" font-family="Helvetica,sans-Serif" font-size="10.00">+ offLineMode()</text>
<text text-anchor="start" x="423" y="-73.5" font-family="Helvetica,sans-Serif" font-size="10.00">+ onLineMode()</text>
<text text-anchor="start" x="423" y="-62.5" font-family="Helvetica,sans-Serif" font-size="10.00">+ connect()</text>
<text text-anchor="start" x="423" y="-51.5" font-family="Helvetica,sans-Serif" font-size="10.00">+ getLogInterval()</text>
<text text-anchor="start" x="423" y="-40.5" font-family="Helvetica,sans-Serif" font-size="10.00">+ printConf()</text>
<text text-anchor="start" x="423" y="-29.5" font-family="Helvetica,sans-Serif" font-size="10.00">+ sleep()</text>
<text text-anchor="start" x="423" y="-18.5" font-family="Helvetica,sans-Serif" font-size="10.00">+ readSensors()</text>
<text text-anchor="start" x="423" y="-7.5" font-family="Helvetica,sans-Serif" font-size="10.00">+ userData()</text>
</g>
<!-- Node2 -->
<g id="node2" class="node"><title>Node2</title>
<g id="a_node2"><a xlink:href="classCoolMQTT.html" target="_top" xlink:title="This class handles the mqtt client. ">
<polygon fill="white" stroke="black" points="0,-303.5 0,-580.5 97,-580.5 97,-303.5 0,-303.5"/>
<text text-anchor="middle" x="48.5" y="-568.5" font-family="Helvetica,sans-Serif" font-size="10.00">CoolMQTT</text>
<polyline fill="none" stroke="black" points="0,-561.5 97,-561.5 "/>
<text text-anchor="start" x="8" y="-549.5" font-family="Helvetica,sans-Serif" font-size="10.00">&#45; mqttServer</text>
<text text-anchor="start" x="8" y="-538.5" font-family="Helvetica,sans-Serif" font-size="10.00">&#45; msg</text>
<text text-anchor="start" x="8" y="-527.5" font-family="Helvetica,sans-Serif" font-size="10.00">&#45; inTopic</text>
<text text-anchor="start" x="8" y="-516.5" font-family="Helvetica,sans-Serif" font-size="10.00">&#45; outTopic</text>
<text text-anchor="start" x="8" y="-505.5" font-family="Helvetica,sans-Serif" font-size="10.00">&#45; user</text>
<text text-anchor="start" x="8" y="-494.5" font-family="Helvetica,sans-Serif" font-size="10.00">&#45; bufferSize</text>
<text text-anchor="start" x="8" y="-483.5" font-family="Helvetica,sans-Serif" font-size="10.00">&#45; espClient</text>
<text text-anchor="start" x="8" y="-472.5" font-family="Helvetica,sans-Serif" font-size="10.00">&#45; client</text>
<text text-anchor="start" x="8" y="-461.5" font-family="Helvetica,sans-Serif" font-size="10.00">&#45; newMsg</text>
<text text-anchor="start" x="8" y="-450.5" font-family="Helvetica,sans-Serif" font-size="10.00">&#45; previousLogTime</text>
<polyline fill="none" stroke="black" points="0,-443.5 97,-443.5 "/>
<text text-anchor="start" x="8" y="-431.5" font-family="Helvetica,sans-Serif" font-size="10.00">+ begin()</text>
<text text-anchor="start" x="8" y="-420.5" font-family="Helvetica,sans-Serif" font-size="10.00">+ connect()</text>
<text text-anchor="start" x="8" y="-409.5" font-family="Helvetica,sans-Serif" font-size="10.00">+ publish()</text>
<text text-anchor="start" x="8" y="-398.5" font-family="Helvetica,sans-Serif" font-size="10.00">+ publish()</text>
<text text-anchor="start" x="8" y="-387.5" font-family="Helvetica,sans-Serif" font-size="10.00">+ read()</text>
<text text-anchor="start" x="8" y="-376.5" font-family="Helvetica,sans-Serif" font-size="10.00">+ config()</text>
<text text-anchor="start" x="8" y="-365.5" font-family="Helvetica,sans-Serif" font-size="10.00">+ config()</text>
<text text-anchor="start" x="8" y="-354.5" font-family="Helvetica,sans-Serif" font-size="10.00">+ callback()</text>
<text text-anchor="start" x="8" y="-343.5" font-family="Helvetica,sans-Serif" font-size="10.00">+ printConf()</text>
<text text-anchor="start" x="8" y="-332.5" font-family="Helvetica,sans-Serif" font-size="10.00">+ state()</text>
<text text-anchor="start" x="8" y="-321.5" font-family="Helvetica,sans-Serif" font-size="10.00">+ mqttLoop()</text>
<text text-anchor="start" x="8" y="-310.5" font-family="Helvetica,sans-Serif" font-size="10.00">+ getUser()</text>
</a>
</g>
</g>
<!-- Node2&#45;&gt;Node1 -->
<g id="edge1" class="edge"><title>Node2&#45;&gt;Node1</title>
<path fill="none" stroke="#404040" d="M97.0714,-312.775C99.7415,-309.366 102.549,-306.096 105.5,-303 187.66,-216.808 321.017,-168.862 403.197,-146.048"/>
<polygon fill="none" stroke="#404040" points="403.357,-146.005 408.101,-140.574 414.939,-142.863 410.195,-148.295 403.357,-146.005"/>
<text text-anchor="middle" x="142.5" y="-277" font-family="Helvetica,sans-Serif" font-size="10.00"> &#45;mqtt</text>
</g>
<!-- Node3 -->
<g id="node3" class="node"><title>Node3</title>
<g id="a_node3"><a xlink:href="classCoolWifi.html" target="_top" xlink:title="This class manages the WiFi connection . ">
<polygon fill="white" stroke="black" points="115,-358.5 115,-525.5 186,-525.5 186,-358.5 115,-358.5"/>
<text text-anchor="middle" x="150.5" y="-513.5" font-family="Helvetica,sans-Serif" font-size="10.00">CoolWifi</text>
<polyline fill="none" stroke="black" points="115,-506.5 186,-506.5 "/>
<text text-anchor="start" x="123" y="-494.5" font-family="Helvetica,sans-Serif" font-size="10.00">&#45; wifiMulti</text>
<text text-anchor="start" x="123" y="-483.5" font-family="Helvetica,sans-Serif" font-size="10.00">&#45; wifiCount</text>
<text text-anchor="start" x="123" y="-472.5" font-family="Helvetica,sans-Serif" font-size="10.00">&#45; ssid</text>
<text text-anchor="start" x="123" y="-461.5" font-family="Helvetica,sans-Serif" font-size="10.00">&#45; pass</text>
<text text-anchor="start" x="123" y="-450.5" font-family="Helvetica,sans-Serif" font-size="10.00">&#45; timeOut</text>
<polyline fill="none" stroke="black" points="115,-443.5 186,-443.5 "/>
<text text-anchor="start" x="123" y="-431.5" font-family="Helvetica,sans-Serif" font-size="10.00">+ begin()</text>
<text text-anchor="start" x="123" y="-420.5" font-family="Helvetica,sans-Serif" font-size="10.00">+ config()</text>
<text text-anchor="start" x="123" y="-409.5" font-family="Helvetica,sans-Serif" font-size="10.00">+ config()</text>
<text text-anchor="start" x="123" y="-398.5" font-family="Helvetica,sans-Serif" font-size="10.00">+ connect()</text>
<text text-anchor="start" x="123" y="-387.5" font-family="Helvetica,sans-Serif" font-size="10.00">+ state()</text>
<text text-anchor="start" x="123" y="-376.5" font-family="Helvetica,sans-Serif" font-size="10.00">+ printConf()</text>
<text text-anchor="start" x="123" y="-365.5" font-family="Helvetica,sans-Serif" font-size="10.00">+ addWifi()</text>
</a>
</g>
</g>
<!-- Node3&#45;&gt;Node1 -->
<g id="edge2" class="edge"><title>Node3&#45;&gt;Node1</title>
<path fill="none" stroke="#404040" d="M167.178,-358.222C173.775,-338.776 182.905,-319.063 195.5,-303 249.971,-233.534 340.445,-184.612 403.766,-156.694"/>
<polygon fill="none" stroke="#404040" points="403.851,-156.658 407.77,-150.604 414.865,-151.893 410.946,-157.947 403.851,-156.658"/>
<text text-anchor="middle" x="249" y="-277" font-family="Helvetica,sans-Serif" font-size="10.00"> &#45;wifiManager</text>
</g>
<!-- Node4 -->
<g id="node4" class="node"><title>Node4</title>
<g id="a_node4"><a xlink:href="classCoolBoardLed.html" target="_top" xlink:title="This class handles the led in the Sensor Board. ">
<polygon fill="white" stroke="black" points="204.5,-358.5 204.5,-525.5 282.5,-525.5 282.5,-358.5 204.5,-358.5"/>
<text text-anchor="middle" x="243.5" y="-513.5" font-family="Helvetica,sans-Serif" font-size="10.00">CoolBoardLed</text>
<polyline fill="none" stroke="black" points="204.5,-506.5 282.5,-506.5 "/>
<text text-anchor="start" x="212.5" y="-494.5" font-family="Helvetica,sans-Serif" font-size="10.00">&#45; neoPixelLed</text>
<text text-anchor="start" x="212.5" y="-483.5" font-family="Helvetica,sans-Serif" font-size="10.00">&#45; ledActive</text>
<polyline fill="none" stroke="black" points="204.5,-476.5 282.5,-476.5 "/>
<text text-anchor="start" x="212.5" y="-464.5" font-family="Helvetica,sans-Serif" font-size="10.00">+ begin()</text>
<text text-anchor="start" x="212.5" y="-453.5" font-family="Helvetica,sans-Serif" font-size="10.00">+ write()</text>
<text text-anchor="start" x="212.5" y="-442.5" font-family="Helvetica,sans-Serif" font-size="10.00">+ end()</text>
<text text-anchor="start" x="212.5" y="-431.5" font-family="Helvetica,sans-Serif" font-size="10.00">+ config()</text>
<text text-anchor="start" x="212.5" y="-420.5" font-family="Helvetica,sans-Serif" font-size="10.00">+ printConf()</text>
<text text-anchor="start" x="212.5" y="-409.5" font-family="Helvetica,sans-Serif" font-size="10.00">+ fade()</text>
<text text-anchor="start" x="212.5" y="-398.5" font-family="Helvetica,sans-Serif" font-size="10.00">+ blink()</text>
<text text-anchor="start" x="212.5" y="-387.5" font-family="Helvetica,sans-Serif" font-size="10.00">+ fadeIn()</text>
<text text-anchor="start" x="212.5" y="-376.5" font-family="Helvetica,sans-Serif" font-size="10.00">+ fadeOut()</text>
<text text-anchor="start" x="212.5" y="-365.5" font-family="Helvetica,sans-Serif" font-size="10.00">+ strobe()</text>
</a>
</g>
</g>
<!-- Node4&#45;&gt;Node1 -->
<g id="edge3" class="edge"><title>Node4&#45;&gt;Node1</title>
<path fill="none" stroke="#404040" d="M265.266,-358.171C272.12,-339.245 280.779,-319.78 291.5,-303 321.505,-256.037 366.908,-212.921 405.104,-181.357"/>
<polygon fill="none" stroke="#404040" points="405.341,-181.164 407.467,-174.273 414.645,-173.586 412.519,-180.476 405.341,-181.164"/>
<text text-anchor="middle" x="344.5" y="-277" font-family="Helvetica,sans-Serif" font-size="10.00"> &#45;coolBoardLed</text>
</g>
<!-- Node5 -->
<g id="node5" class="node"><title>Node5</title>
<g id="a_node5"><a xlink:href="classExternalSensors.html" target="_top" xlink:title="This class handles the external sensors run time defintion , configuartion and actions. ">
<polygon fill="white" stroke="black" points="300.5,-397 300.5,-487 392.5,-487 392.5,-397 300.5,-397"/>
<text text-anchor="middle" x="346.5" y="-475" font-family="Helvetica,sans-Serif" font-size="10.00">ExternalSensors</text>
<polyline fill="none" stroke="black" points="300.5,-468 392.5,-468 "/>
<text text-anchor="start" x="308.5" y="-456" font-family="Helvetica,sans-Serif" font-size="10.00">&#45; sensorsNumber</text>
<polyline fill="none" stroke="black" points="300.5,-449 392.5,-449 "/>
<text text-anchor="start" x="308.5" y="-437" font-family="Helvetica,sans-Serif" font-size="10.00">+ begin()</text>
<text text-anchor="start" x="308.5" y="-426" font-family="Helvetica,sans-Serif" font-size="10.00">+ read()</text>
<text text-anchor="start" x="308.5" y="-415" font-family="Helvetica,sans-Serif" font-size="10.00">+ config()</text>
<text text-anchor="start" x="308.5" y="-404" font-family="Helvetica,sans-Serif" font-size="10.00">+ printConf()</text>
</a>
</g>
</g>
<!-- Node5&#45;&gt;Node1 -->
<g id="edge4" class="edge"><title>Node5&#45;&gt;Node1</title>
<path fill="none" stroke="#404040" d="M356.261,-396.811C364.516,-362.593 377.681,-314.379 394.5,-274 398.99,-263.22 404.087,-252.221 409.486,-241.343"/>
<polygon fill="none" stroke="#404040" points="409.548,-241.221 408.694,-234.061 414.974,-230.518 415.829,-237.678 409.548,-241.221"/>
<text text-anchor="middle" x="433" y="-277" font-family="Helvetica,sans-Serif" font-size="10.00"> &#45;externalSensors</text>
</g>
<!-- Node6 -->
<g id="node6" class="node"><title>Node6</title>
<g id="a_node6"><a xlink:href="structExternalSensors_1_1sensor.html" target="_top" xlink:title="{ExternalSensors::sensor\n|+ reference\l+ type\l+ address\l|}">
<polygon fill="white" stroke="black" points="98.5,-678 98.5,-757 222.5,-757 222.5,-678 98.5,-678"/>
<text text-anchor="middle" x="160.5" y="-745" font-family="Helvetica,sans-Serif" font-size="10.00">ExternalSensors::sensor</text>
<polyline fill="none" stroke="black" points="98.5,-738 222.5,-738 "/>
<text text-anchor="start" x="106.5" y="-726" font-family="Helvetica,sans-Serif" font-size="10.00">+ reference</text>
<text text-anchor="start" x="106.5" y="-715" font-family="Helvetica,sans-Serif" font-size="10.00">+ type</text>
<text text-anchor="start" x="106.5" y="-704" font-family="Helvetica,sans-Serif" font-size="10.00">+ address</text>
<polyline fill="none" stroke="black" points="98.5,-697 222.5,-697 "/>
<text text-anchor="middle" x="160.5" y="-685" font-family="Helvetica,sans-Serif" font-size="10.00"> </text>
</a>
</g>
</g>
<!-- Node6&#45;&gt;Node5 -->
<g id="edge5" class="edge"><title>Node6&#45;&gt;Node5</title>
<path fill="none" stroke="#404040" d="M201.11,-677.921C234.348,-645.737 277.999,-601.884 291.5,-581 307.831,-555.737 320.698,-524.848 329.867,-498.704"/>
<polygon fill="none" stroke="#404040" points="329.962,-498.426 328.103,-491.458 333.819,-487.063 335.678,-494.03 329.962,-498.426"/>
<text text-anchor="middle" x="298" y="-613" font-family="Helvetica,sans-Serif" font-size="10.00"> &#45;sensors</text>
</g>
<!-- Node7 -->
<g id="node7" class="node"><title>Node7</title>
<g id="a_node7"><a xlink:href="classBaseExternalSensor.html" target="_top" xlink:title="This class is a generic external Sensor it is a way to access real external sensor methods through ru...">
<polygon fill="white" stroke="black" points="100,-832.5 100,-911.5 221,-911.5 221,-832.5 100,-832.5"/>
<text text-anchor="middle" x="160.5" y="-899.5" font-family="Helvetica,sans-Serif" font-size="10.00">BaseExternalSensor</text>
<polyline fill="none" stroke="black" points="100,-892.5 221,-892.5 "/>
<text text-anchor="middle" x="160.5" y="-880.5" font-family="Helvetica,sans-Serif" font-size="10.00"> </text>
<polyline fill="none" stroke="black" points="100,-873.5 221,-873.5 "/>
<text text-anchor="start" x="108" y="-861.5" font-family="Helvetica,sans-Serif" font-size="10.00">+ BaseExternalSensor()</text>
<text text-anchor="start" x="108" y="-850.5" font-family="Helvetica,sans-Serif" font-size="10.00">+ begin()</text>
<text text-anchor="start" x="108" y="-839.5" font-family="Helvetica,sans-Serif" font-size="10.00">+ read()</text>
</a>
</g>
</g>
<!-- Node7&#45;&gt;Node6 -->
<g id="edge6" class="edge"><title>Node7&#45;&gt;Node6</title>
<path fill="none" stroke="#404040" d="M160.5,-832.123C160.5,-812.96 160.5,-789.612 160.5,-769.077"/>
<polygon fill="none" stroke="#404040" points="160.5,-769.041 156.5,-763.041 160.5,-757.041 164.5,-763.041 160.5,-769.041"/>
<text text-anchor="middle" x="186" y="-806" font-family="Helvetica,sans-Serif" font-size="10.00"> +exSensor</text>
</g>
<!-- Node8 -->
<g id="node8" class="node"><title>Node8</title>
<g id="a_node8"><a xlink:href="classCoolBoardSensors.html" target="_top" xlink:title="This class handles the On&#45;Board Sensors. ">
<polygon fill="white" stroke="black" points="411,-320 411,-564 540,-564 540,-320 411,-320"/>
<text text-anchor="middle" x="475.5" y="-552" font-family="Helvetica,sans-Serif" font-size="10.00">CoolBoardSensors</text>
<polyline fill="none" stroke="black" points="411,-545 540,-545 "/>
<text text-anchor="start" x="419" y="-533" font-family="Helvetica,sans-Serif" font-size="10.00">+ lightSensor</text>
<text text-anchor="start" x="419" y="-522" font-family="Helvetica,sans-Serif" font-size="10.00">+ envSensor</text>
<text text-anchor="start" x="419" y="-511" font-family="Helvetica,sans-Serif" font-size="10.00">&#45; EnMoisture</text>
<text text-anchor="start" x="419" y="-500" font-family="Helvetica,sans-Serif" font-size="10.00">&#45; AnMplex</text>
<text text-anchor="start" x="419" y="-489" font-family="Helvetica,sans-Serif" font-size="10.00">&#45; EnI2C</text>
<text text-anchor="start" x="419" y="-478" font-family="Helvetica,sans-Serif" font-size="10.00">&#45; vbatActive</text>
<text text-anchor="start" x="419" y="-467" font-family="Helvetica,sans-Serif" font-size="10.00">&#45; soilMoistureActive</text>
<polyline fill="none" stroke="black" points="411,-460 540,-460 "/>
<text text-anchor="start" x="419" y="-448" font-family="Helvetica,sans-Serif" font-size="10.00">+ CoolBoardSensors()</text>
<text text-anchor="start" x="419" y="-437" font-family="Helvetica,sans-Serif" font-size="10.00">+ begin()</text>
<text text-anchor="start" x="419" y="-426" font-family="Helvetica,sans-Serif" font-size="10.00">+ read()</text>
<text text-anchor="start" x="419" y="-415" font-family="Helvetica,sans-Serif" font-size="10.00">+ allActive()</text>
<text text-anchor="start" x="419" y="-404" font-family="Helvetica,sans-Serif" font-size="10.00">+ initReadI2C()</text>
<text text-anchor="start" x="419" y="-393" font-family="Helvetica,sans-Serif" font-size="10.00">+ stopReadI2C()</text>
<text text-anchor="start" x="419" y="-382" font-family="Helvetica,sans-Serif" font-size="10.00">+ end()</text>
<text text-anchor="start" x="419" y="-371" font-family="Helvetica,sans-Serif" font-size="10.00">+ config()</text>
<text text-anchor="start" x="419" y="-360" font-family="Helvetica,sans-Serif" font-size="10.00">+ printConf()</text>
<text text-anchor="start" x="419" y="-349" font-family="Helvetica,sans-Serif" font-size="10.00">+ setEnvSensorSettings()</text>
<text text-anchor="start" x="419" y="-338" font-family="Helvetica,sans-Serif" font-size="10.00">+ readVBat()</text>
<text text-anchor="start" x="419" y="-327" font-family="Helvetica,sans-Serif" font-size="10.00">+ readMoisture()</text>
</a>
</g>
</g>
<!-- Node8&#45;&gt;Node1 -->
<g id="edge7" class="edge"><title>Node8&#45;&gt;Node1</title>
<path fill="none" stroke="#404040" d="M475.5,-319.926C475.5,-302.808 475.5,-285.098 475.5,-267.68"/>
<polygon fill="none" stroke="#404040" points="475.5,-267.678 471.5,-261.678 475.5,-255.678 479.5,-261.678 475.5,-267.678"/>
<text text-anchor="middle" x="518.5" y="-277" font-family="Helvetica,sans-Serif" font-size="10.00"> &#45;coolBoardSensors</text>
</g>
<!-- Node9 -->
<g id="node9" class="node"><title>Node9</title>
<g id="a_node9"><a xlink:href="structCoolBoardSensors_1_1airActive.html" target="_top" xlink:title="{CoolBoardSensors::airActive\n|+ temperature\l+ humidity\l+ pressure\l|}">
<polygon fill="white" stroke="black" points="241,-678 241,-757 384,-757 384,-678 241,-678"/>
<text text-anchor="middle" x="312.5" y="-745" font-family="Helvetica,sans-Serif" font-size="10.00">CoolBoardSensors::airActive</text>
<polyline fill="none" stroke="black" points="241,-738 384,-738 "/>
<text text-anchor="start" x="249" y="-726" font-family="Helvetica,sans-Serif" font-size="10.00">+ temperature</text>
<text text-anchor="start" x="249" y="-715" font-family="Helvetica,sans-Serif" font-size="10.00">+ humidity</text>
<text text-anchor="start" x="249" y="-704" font-family="Helvetica,sans-Serif" font-size="10.00">+ pressure</text>
<polyline fill="none" stroke="black" points="241,-697 384,-697 "/>
<text text-anchor="middle" x="312.5" y="-685" font-family="Helvetica,sans-Serif" font-size="10.00"> </text>
</a>
</g>
</g>
<!-- Node9&#45;&gt;Node8 -->
<g id="edge8" class="edge"><title>Node9&#45;&gt;Node8</title>
<path fill="none" stroke="#404040" d="M339.138,-677.949C357.331,-651.146 381.641,-614.379 401.5,-581 402.725,-578.941 403.953,-576.86 405.183,-574.762"/>
<polygon fill="none" stroke="#404040" points="405.322,-574.522 404.87,-567.325 411.339,-564.139 411.792,-571.336 405.322,-574.522"/>
<text text-anchor="middle" x="423.5" y="-613" font-family="Helvetica,sans-Serif" font-size="10.00"> &#45;airDataActive</text>
</g>
<!-- Node10 -->
<g id="node10" class="node"><title>Node10</title>
<g id="a_node10"><a xlink:href="structCoolBoardSensors_1_1lightActive.html" target="_top" xlink:title="{CoolBoardSensors::lightActive\n|+ visible\l+ ir\l+ uv\l|}">
<polygon fill="white" stroke="black" points="402.5,-678 402.5,-757 552.5,-757 552.5,-678 402.5,-678"/>
<text text-anchor="middle" x="477.5" y="-745" font-family="Helvetica,sans-Serif" font-size="10.00">CoolBoardSensors::lightActive</text>
<polyline fill="none" stroke="black" points="402.5,-738 552.5,-738 "/>
<text text-anchor="start" x="410.5" y="-726" font-family="Helvetica,sans-Serif" font-size="10.00">+ visible</text>
<text text-anchor="start" x="410.5" y="-715" font-family="Helvetica,sans-Serif" font-size="10.00">+ ir</text>
<text text-anchor="start" x="410.5" y="-704" font-family="Helvetica,sans-Serif" font-size="10.00">+ uv</text>
<polyline fill="none" stroke="black" points="402.5,-697 552.5,-697 "/>
<text text-anchor="middle" x="477.5" y="-685" font-family="Helvetica,sans-Serif" font-size="10.00"> </text>
</a>
</g>
</g>
<!-- Node10&#45;&gt;Node8 -->
<g id="edge9" class="edge"><title>Node10&#45;&gt;Node8</title>
<path fill="none" stroke="#404040" d="M477.218,-677.894C477.021,-650.989 476.746,-613.37 476.473,-576.111"/>
<polygon fill="none" stroke="#404040" points="476.473,-576.041 472.429,-570.07 476.385,-564.041 480.429,-570.012 476.473,-576.041"/>
<text text-anchor="middle" x="514" y="-613" font-family="Helvetica,sans-Serif" font-size="10.00"> &#45;lightDataActive</text>
</g>
<!-- Node11 -->
<g id="node11" class="node"><title>Node11</title>
<g id="a_node11"><a xlink:href="classIrene3000.html" target="_top" xlink:title="This class is provided to manage the Irene3000 Ph/Temperature Shield. ">
<polygon fill="white" stroke="black" points="558,-331 558,-553 671,-553 671,-331 558,-331"/>
<text text-anchor="middle" x="614.5" y="-541" font-family="Helvetica,sans-Serif" font-size="10.00">Irene3000</text>
<polyline fill="none" stroke="black" points="558,-534 671,-534 "/>
<text text-anchor="start" x="566" y="-522" font-family="Helvetica,sans-Serif" font-size="10.00">&#45; ads</text>
<text text-anchor="start" x="566" y="-511" font-family="Helvetica,sans-Serif" font-size="10.00">&#45; vRef</text>
<text text-anchor="start" x="566" y="-500" font-family="Helvetica,sans-Serif" font-size="10.00">&#45; opampGain</text>
<polyline fill="none" stroke="black" points="558,-493 671,-493 "/>
<text text-anchor="start" x="566" y="-481" font-family="Helvetica,sans-Serif" font-size="10.00">+ begin()</text>
<text text-anchor="start" x="566" y="-470" font-family="Helvetica,sans-Serif" font-size="10.00">+ config()</text>
<text text-anchor="start" x="566" y="-459" font-family="Helvetica,sans-Serif" font-size="10.00">+ printConf()</text>
<text text-anchor="start" x="566" y="-448" font-family="Helvetica,sans-Serif" font-size="10.00">+ read()</text>
<text text-anchor="start" x="566" y="-437" font-family="Helvetica,sans-Serif" font-size="10.00">+ readButton()</text>
<text text-anchor="start" x="566" y="-426" font-family="Helvetica,sans-Serif" font-size="10.00">+ setGain()</text>
<text text-anchor="start" x="566" y="-415" font-family="Helvetica,sans-Serif" font-size="10.00">+ readADSChannel2()</text>
<text text-anchor="start" x="566" y="-404" font-family="Helvetica,sans-Serif" font-size="10.00">+ readPh()</text>
<text text-anchor="start" x="566" y="-393" font-family="Helvetica,sans-Serif" font-size="10.00">+ readTemp()</text>
<text text-anchor="start" x="566" y="-382" font-family="Helvetica,sans-Serif" font-size="10.00">+ resetParams()</text>
<text text-anchor="start" x="566" y="-371" font-family="Helvetica,sans-Serif" font-size="10.00">+ calibratepH7()</text>
<text text-anchor="start" x="566" y="-360" font-family="Helvetica,sans-Serif" font-size="10.00">+ calibratepH4()</text>
<text text-anchor="start" x="566" y="-349" font-family="Helvetica,sans-Serif" font-size="10.00">+ calcpHSlope()</text>
<text text-anchor="start" x="566" y="-338" font-family="Helvetica,sans-Serif" font-size="10.00">+ gainConvert()</text>
</a>
</g>
</g>
<!-- Node11&#45;&gt;Node1 -->
<g id="edge10" class="edge"><title>Node11&#45;&gt;Node1</title>
<path fill="none" stroke="#404040" d="M586.76,-330.773C580.621,-311.52 573.516,-291.929 565.5,-274 558.785,-258.982 550.75,-243.658 542.282,-228.866"/>
<polygon fill="none" stroke="#404040" points="542.105,-228.563 535.625,-225.4 536.052,-218.202 542.533,-221.365 542.105,-228.563"/>
<text text-anchor="middle" x="594" y="-277" font-family="Helvetica,sans-Serif" font-size="10.00"> &#45;irene3000</text>
</g>
<!-- Node12 -->
<g id="node12" class="node"><title>Node12</title>
<g id="a_node12"><a xlink:href="structIrene3000_1_1state.html" target="_top" xlink:title="{Irene3000::state\n|+ active\l+ gain\l+ type\l|}">
<polygon fill="white" stroke="black" points="571,-678 571,-757 658,-757 658,-678 571,-678"/>
<text text-anchor="middle" x="614.5" y="-745" font-family="Helvetica,sans-Serif" font-size="10.00">Irene3000::state</text>
<polyline fill="none" stroke="black" points="571,-738 658,-738 "/>
<text text-anchor="start" x="579" y="-726" font-family="Helvetica,sans-Serif" font-size="10.00">+ active</text>
<text text-anchor="start" x="579" y="-715" font-family="Helvetica,sans-Serif" font-size="10.00">+ gain</text>
<text text-anchor="start" x="579" y="-704" font-family="Helvetica,sans-Serif" font-size="10.00">+ type</text>
<polyline fill="none" stroke="black" points="571,-697 658,-697 "/>
<text text-anchor="middle" x="614.5" y="-685" font-family="Helvetica,sans-Serif" font-size="10.00"> </text>
</a>
</g>
</g>
<!-- Node12&#45;&gt;Node11 -->
<g id="edge11" class="edge"><title>Node12&#45;&gt;Node11</title>
<path fill="none" stroke="#404040" d="M614.5,-677.894C614.5,-648.407 614.5,-606.051 614.5,-565.405"/>
<polygon fill="none" stroke="#404040" points="614.5,-565.148 610.5,-559.148 614.5,-553.148 618.5,-559.148 614.5,-565.148"/>
<text text-anchor="middle" x="642" y="-624" font-family="Helvetica,sans-Serif" font-size="10.00"> &#45;waterTemp</text>
<text text-anchor="middle" x="642" y="-613" font-family="Helvetica,sans-Serif" font-size="10.00">&#45;phProbe</text>
<text text-anchor="middle" x="642" y="-602" font-family="Helvetica,sans-Serif" font-size="10.00">&#45;adc2</text>
</g>
<!-- Node13 -->
<g id="node13" class="node"><title>Node13</title>
<g id="a_node13"><a xlink:href="structIrene3000_1_1parameters__T.html" target="_top" xlink:title="{Irene3000::parameters_T\n|+ WriteCheck\l+ pH7Cal\l+ pH4Cal\l+ pHStep\l|}">
<polygon fill="white" stroke="black" points="676,-672.5 676,-762.5 801,-762.5 801,-672.5 676,-672.5"/>
<text text-anchor="middle" x="738.5" y="-750.5" font-family="Helvetica,sans-Serif" font-size="10.00">Irene3000::parameters_T</text>
<polyline fill="none" stroke="black" points="676,-743.5 801,-743.5 "/>
<text text-anchor="start" x="684" y="-731.5" font-family="Helvetica,sans-Serif" font-size="10.00">+ WriteCheck</text>
<text text-anchor="start" x="684" y="-720.5" font-family="Helvetica,sans-Serif" font-size="10.00">+ pH7Cal</text>
<text text-anchor="start" x="684" y="-709.5" font-family="Helvetica,sans-Serif" font-size="10.00">+ pH4Cal</text>
<text text-anchor="start" x="684" y="-698.5" font-family="Helvetica,sans-Serif" font-size="10.00">+ pHStep</text>
<polyline fill="none" stroke="black" points="676,-691.5 801,-691.5 "/>
<text text-anchor="middle" x="738.5" y="-679.5" font-family="Helvetica,sans-Serif" font-size="10.00"> </text>
</a>
</g>
</g>
<!-- Node13&#45;&gt;Node11 -->
<g id="edge12" class="edge"><title>Node13&#45;&gt;Node11</title>
<path fill="none" stroke="#404040" d="M718.439,-672.254C705.151,-642.944 687.024,-602.963 669.628,-564.593"/>
<polygon fill="none" stroke="#404040" points="669.458,-564.218 663.338,-560.405 664.503,-553.289 670.624,-557.102 669.458,-564.218"/>
<text text-anchor="middle" x="718" y="-613" font-family="Helvetica,sans-Serif" font-size="10.00"> &#45;params</text>
</g>
<!-- Node14 -->
<g id="node14" class="node"><title>Node14</title>
<g id="a_node14"><a xlink:href="classCoolFileSystem.html" target="_top" xlink:title="This class handles the file system. ">
<polygon fill="white" stroke="black" points="689,-380.5 689,-503.5 814,-503.5 814,-380.5 689,-380.5"/>
<text text-anchor="middle" x="751.5" y="-491.5" font-family="Helvetica,sans-Serif" font-size="10.00">CoolFileSystem</text>
<polyline fill="none" stroke="black" points="689,-484.5 814,-484.5 "/>
<text text-anchor="start" x="697" y="-472.5" font-family="Helvetica,sans-Serif" font-size="10.00">&#45; savedData</text>
<polyline fill="none" stroke="black" points="689,-465.5 814,-465.5 "/>
<text text-anchor="start" x="697" y="-453.5" font-family="Helvetica,sans-Serif" font-size="10.00">+ begin()</text>
<text text-anchor="start" x="697" y="-442.5" font-family="Helvetica,sans-Serif" font-size="10.00">+ updateConfigFiles()</text>
<text text-anchor="start" x="697" y="-431.5" font-family="Helvetica,sans-Serif" font-size="10.00">+ fileUpdate()</text>
<text text-anchor="start" x="697" y="-420.5" font-family="Helvetica,sans-Serif" font-size="10.00">+ saveSensorData()</text>
<text text-anchor="start" x="697" y="-409.5" font-family="Helvetica,sans-Serif" font-size="10.00">+ saveSensorDataCSV()</text>
<text text-anchor="start" x="697" y="-398.5" font-family="Helvetica,sans-Serif" font-size="10.00">+ isDataSaved()</text>
<text text-anchor="start" x="697" y="-387.5" font-family="Helvetica,sans-Serif" font-size="10.00">+ getSensorSavedData()</text>
</a>
</g>
</g>
<!-- Node14&#45;&gt;Node1 -->
<g id="edge13" class="edge"><title>Node14&#45;&gt;Node1</title>
<path fill="none" stroke="#404040" d="M726.03,-380.227C713.921,-354.997 698.023,-326.249 679.5,-303 641.287,-255.038 588.381,-210.36 546.023,-178.288"/>
<polygon fill="none" stroke="#404040" points="545.933,-178.221 538.733,-177.826 536.328,-171.028 543.529,-171.423 545.933,-178.221"/>
<text text-anchor="middle" x="688" y="-277" font-family="Helvetica,sans-Serif" font-size="10.00"> &#45;fileSystem</text>
</g>
<!-- Node15 -->
<g id="node15" class="node"><title>Node15</title>
<g id="a_node15"><a xlink:href="classJetpack.html" target="_top" xlink:title="This class manages the Jetpack shield. ">
<polygon fill="white" stroke="black" points="832,-369.5 832,-514.5 903,-514.5 903,-369.5 832,-369.5"/>
<text text-anchor="middle" x="867.5" y="-502.5" font-family="Helvetica,sans-Serif" font-size="10.00">Jetpack</text>
<polyline fill="none" stroke="black" points="832,-495.5 903,-495.5 "/>
<text text-anchor="start" x="840" y="-483.5" font-family="Helvetica,sans-Serif" font-size="10.00">&#45; action</text>
<text text-anchor="start" x="840" y="-472.5" font-family="Helvetica,sans-Serif" font-size="10.00">&#45; clockPin</text>
<text text-anchor="start" x="840" y="-461.5" font-family="Helvetica,sans-Serif" font-size="10.00">&#45; dataPin</text>
<text text-anchor="start" x="840" y="-450.5" font-family="Helvetica,sans-Serif" font-size="10.00">&#45; EnI2C</text>
<polyline fill="none" stroke="black" points="832,-443.5 903,-443.5 "/>
<text text-anchor="start" x="840" y="-431.5" font-family="Helvetica,sans-Serif" font-size="10.00">+ begin()</text>
<text text-anchor="start" x="840" y="-420.5" font-family="Helvetica,sans-Serif" font-size="10.00">+ write()</text>
<text text-anchor="start" x="840" y="-409.5" font-family="Helvetica,sans-Serif" font-size="10.00">+ writeBit()</text>
<text text-anchor="start" x="840" y="-398.5" font-family="Helvetica,sans-Serif" font-size="10.00">+ doAction()</text>
<text text-anchor="start" x="840" y="-387.5" font-family="Helvetica,sans-Serif" font-size="10.00">+ config()</text>
<text text-anchor="start" x="840" y="-376.5" font-family="Helvetica,sans-Serif" font-size="10.00">+ printConf()</text>
</a>
</g>
</g>
<!-- Node15&#45;&gt;Node1 -->
<g id="edge14" class="edge"><title>Node15&#45;&gt;Node1</title>
<path fill="none" stroke="#404040" d="M855.541,-369.221C848.873,-346.078 838.527,-321.623 822.5,-303 749.849,-218.58 626.385,-170.641 547.992,-147.265"/>
<polygon fill="none" stroke="#404040" points="547.81,-147.212 540.931,-149.375 536.289,-143.857 543.168,-141.694 547.81,-147.212"/>
<text text-anchor="middle" x="821.5" y="-277" font-family="Helvetica,sans-Serif" font-size="10.00"> &#45;jetPack</text>
</g>
<!-- Node16 -->
<g id="node16" class="node"><title>Node16</title>
<g id="a_node16"><a xlink:href="structJetpack_1_1state.html" target="_top" xlink:title="{Jetpack::state\n|+ type\l+ actif\l+ low\l+ high\l+ temporal\l+ actifTime\l+ inactifTime\l+ inverted\l|}">
<polygon fill="white" stroke="black" points="828,-650.5 828,-784.5 907,-784.5 907,-650.5 828,-650.5"/>
<text text-anchor="middle" x="867.5" y="-772.5" font-family="Helvetica,sans-Serif" font-size="10.00">Jetpack::state</text>
<polyline fill="none" stroke="black" points="828,-765.5 907,-765.5 "/>
<text text-anchor="start" x="836" y="-753.5" font-family="Helvetica,sans-Serif" font-size="10.00">+ type</text>
<text text-anchor="start" x="836" y="-742.5" font-family="Helvetica,sans-Serif" font-size="10.00">+ actif</text>
<text text-anchor="start" x="836" y="-731.5" font-family="Helvetica,sans-Serif" font-size="10.00">+ low</text>
<text text-anchor="start" x="836" y="-720.5" font-family="Helvetica,sans-Serif" font-size="10.00">+ high</text>
<text text-anchor="start" x="836" y="-709.5" font-family="Helvetica,sans-Serif" font-size="10.00">+ temporal</text>
<text text-anchor="start" x="836" y="-698.5" font-family="Helvetica,sans-Serif" font-size="10.00">+ actifTime</text>
<text text-anchor="start" x="836" y="-687.5" font-family="Helvetica,sans-Serif" font-size="10.00">+ inactifTime</text>
<text text-anchor="start" x="836" y="-676.5" font-family="Helvetica,sans-Serif" font-size="10.00">+ inverted</text>
<polyline fill="none" stroke="black" points="828,-669.5 907,-669.5 "/>
<text text-anchor="middle" x="867.5" y="-657.5" font-family="Helvetica,sans-Serif" font-size="10.00"> </text>
</a>
</g>
</g>
<!-- Node16&#45;&gt;Node15 -->
<g id="edge15" class="edge"><title>Node16&#45;&gt;Node15</title>
<path fill="none" stroke="#404040" d="M867.5,-650.293C867.5,-613.186 867.5,-566.536 867.5,-526.891"/>
<polygon fill="none" stroke="#404040" points="867.5,-526.831 863.5,-520.831 867.5,-514.831 871.5,-520.831 867.5,-526.831"/>
<text text-anchor="middle" x="884.5" y="-613" font-family="Helvetica,sans-Serif" font-size="10.00"> &#45;actors</text>
</g>
<!-- Node17 -->
<g id="node17" class="node"><title>Node17</title>
<g id="a_node17"><a xlink:href="classCoolTime.html" target="_top" xlink:title="This class manages the DS1337 RTC . ">
<polygon fill="white" stroke="black" points="921.5,-309 921.5,-575 1029.5,-575 1029.5,-309 921.5,-309"/>
<text text-anchor="middle" x="975.5" y="-563" font-family="Helvetica,sans-Serif" font-size="10.00">CoolTime</text>
<polyline fill="none" stroke="black" points="921.5,-556 1029.5,-556 "/>
<text text-anchor="start" x="929.5" y="-544" font-family="Helvetica,sans-Serif" font-size="10.00">&#45; timeSync</text>
<text text-anchor="start" x="929.5" y="-533" font-family="Helvetica,sans-Serif" font-size="10.00">&#45; timeServer</text>
<text text-anchor="start" x="929.5" y="-522" font-family="Helvetica,sans-Serif" font-size="10.00">&#45; Udp</text>
<text text-anchor="start" x="929.5" y="-511" font-family="Helvetica,sans-Serif" font-size="10.00">&#45; localPort</text>
<text text-anchor="start" x="929.5" y="-500" font-family="Helvetica,sans-Serif" font-size="10.00">&#45; packetBuffer</text>
<text text-anchor="start" x="929.5" y="-489" font-family="Helvetica,sans-Serif" font-size="10.00">&#45; tmSet</text>
<text text-anchor="start" x="929.5" y="-478" font-family="Helvetica,sans-Serif" font-size="10.00">&#45; rtc</text>
<polyline fill="none" stroke="black" points="921.5,-471 1029.5,-471 "/>
<text text-anchor="start" x="929.5" y="-459" font-family="Helvetica,sans-Serif" font-size="10.00">+ begin()</text>
<text text-anchor="start" x="929.5" y="-448" font-family="Helvetica,sans-Serif" font-size="10.00">+ update()</text>
<text text-anchor="start" x="929.5" y="-437" font-family="Helvetica,sans-Serif" font-size="10.00">+ config()</text>
<text text-anchor="start" x="929.5" y="-426" font-family="Helvetica,sans-Serif" font-size="10.00">+ config()</text>
<text text-anchor="start" x="929.5" y="-415" font-family="Helvetica,sans-Serif" font-size="10.00">+ printConf()</text>
<text text-anchor="start" x="929.5" y="-404" font-family="Helvetica,sans-Serif" font-size="10.00">+ setDateTime()</text>
<text text-anchor="start" x="929.5" y="-393" font-family="Helvetica,sans-Serif" font-size="10.00">+ getTimeDate()</text>
<text text-anchor="start" x="929.5" y="-382" font-family="Helvetica,sans-Serif" font-size="10.00">+ getESDate()</text>
<text text-anchor="start" x="929.5" y="-371" font-family="Helvetica,sans-Serif" font-size="10.00">+ getLastSyncTime()</text>
<text text-anchor="start" x="929.5" y="-360" font-family="Helvetica,sans-Serif" font-size="10.00">+ isTimeSync()</text>
<text text-anchor="start" x="929.5" y="-349" font-family="Helvetica,sans-Serif" font-size="10.00">+ getNtpTime()</text>
<text text-anchor="start" x="929.5" y="-338" font-family="Helvetica,sans-Serif" font-size="10.00">+ sendNTPpacket()</text>
<text text-anchor="start" x="929.5" y="-327" font-family="Helvetica,sans-Serif" font-size="10.00">+ formatDigits()</text>
<text text-anchor="start" x="929.5" y="-316" font-family="Helvetica,sans-Serif" font-size="10.00">+ saveTimeSync()</text>
</a>
</g>
</g>
<!-- Node17&#45;&gt;Node1 -->
<g id="edge16" class="edge"><title>Node17&#45;&gt;Node1</title>
<path fill="none" stroke="#404040" d="M921.465,-313.888C918.309,-310.066 914.99,-306.42 911.5,-303 809.589,-203.132 643.15,-158.481 548.108,-140.231"/>
<polygon fill="none" stroke="#404040" points="547.83,-140.179 541.198,-143.012 536.033,-137.98 542.664,-135.147 547.83,-140.179"/>
<text text-anchor="middle" x="892.5" y="-277" font-family="Helvetica,sans-Serif" font-size="10.00"> &#45;rtc</text>
</g>
</g>
</svg>
