<?xml version="1.0" encoding="UTF-8" standalone="no"?>
<!DOCTYPE svg PUBLIC "-//W3C//DTD SVG 1.1//EN"
 "http://www.w3.org/Graphics/SVG/1.1/DTD/svg11.dtd">
<!-- Generated by graphviz version 2.38.0 (20140413.2041)
 -->
<!-- Title: CoolBoard::begin Pages: 1 -->
<svg width="797pt" height="1016pt"
 viewBox="0.00 0.00 797.00 1016.00" xmlns="http://www.w3.org/2000/svg" xmlns:xlink="http://www.w3.org/1999/xlink">
<g id="graph0" class="graph" transform="scale(1 1) rotate(0) translate(4 1012)">
<title>CoolBoard::begin</title>
<polygon fill="white" stroke="none" points="-4,4 -4,-1012 793,-1012 793,4 -4,4"/>
<!-- Node2 -->
<g id="node1" class="node"><title>Node2</title>
<polygon fill="#bfbfbf" stroke="black" points="0,-494.5 0,-513.5 92,-513.5 92,-494.5 0,-494.5"/>
<text text-anchor="middle" x="46" y="-501.5" font-family="Helvetica,sans-Serif" font-size="10.00">CoolBoard::begin</text>
</g>
<!-- Node3 -->
<g id="node2" class="node"><title>Node3</title>
<g id="a_node2"><a xlink:href="classJetpack.html#a5a53e1ebf7aaf3bf3e0d37ea64ca09a7" target="_top" xlink:title="Jetpack::begin">
<polygon fill="white" stroke="black" points="160,-988.5 160,-1007.5 240,-1007.5 240,-988.5 160,-988.5"/>
<text text-anchor="middle" x="200" y="-995.5" font-family="Helvetica,sans-Serif" font-size="10.00">Jetpack::begin</text>
</a>
</g>
</g>
<!-- Node2&#45;&gt;Node3 -->
<g id="edge1" class="edge"><title>Node2&#45;&gt;Node3</title>
<path fill="none" stroke="midnightblue" d="M47.2786,-513.851C49.2188,-575.44 62.6305,-907.28 128,-979 133.869,-985.439 141.659,-989.795 149.926,-992.721"/>
<polygon fill="midnightblue" stroke="midnightblue" points="149.188,-996.15 159.765,-995.538 151.115,-989.421 149.188,-996.15"/>
</g>
<!-- Node4 -->
<g id="node3" class="node"><title>Node4</title>
<g id="a_node3"><a xlink:href="classCoolMQTT.html#ac9248808641ebf3054ed0620ea9d0100" target="_top" xlink:title="CoolMQTT::begin">
<polygon fill="white" stroke="black" points="153,-950.5 153,-969.5 247,-969.5 247,-950.5 153,-950.5"/>
<text text-anchor="middle" x="200" y="-957.5" font-family="Helvetica,sans-Serif" font-size="10.00">CoolMQTT::begin</text>
</a>
</g>
</g>
<!-- Node2&#45;&gt;Node4 -->
<g id="edge2" class="edge"><title>Node2&#45;&gt;Node4</title>
<path fill="none" stroke="midnightblue" d="M47.4355,-513.817C50.2303,-572.404 67.4942,-875.567 128,-941 132.321,-945.673 137.653,-949.246 143.438,-951.97"/>
<polygon fill="midnightblue" stroke="midnightblue" points="142.233,-955.257 152.822,-955.59 144.752,-948.726 142.233,-955.257"/>
</g>
<!-- Node6 -->
<g id="node5" class="node"><title>Node6</title>
<g id="a_node5"><a xlink:href="classExternalSensors.html#a58ede0d786a86417254708870f04a21e" target="_top" xlink:title="ExternalSensors::begin">
<polygon fill="white" stroke="black" points="141,-912.5 141,-931.5 259,-931.5 259,-912.5 141,-912.5"/>
<text text-anchor="middle" x="200" y="-919.5" font-family="Helvetica,sans-Serif" font-size="10.00">ExternalSensors::begin</text>
</a>
</g>
</g>
<!-- Node2&#45;&gt;Node6 -->
<g id="edge4" class="edge"><title>Node2&#45;&gt;Node6</title>
<path fill="none" stroke="midnightblue" d="M47.6134,-513.679C51.305,-568.904 72.3071,-843.79 128,-903 129.377,-904.464 130.853,-905.82 132.411,-907.075"/>
<polygon fill="midnightblue" stroke="midnightblue" points="130.516,-910.017 140.804,-912.55 134.341,-904.155 130.516,-910.017"/>
</g>
<!-- Node8 -->
<g id="node7" class="node"><title>Node8</title>
<g id="a_node7"><a xlink:href="classCoolBoardSensors.html#a97095823ef7c8f5290812f1405b966b3" target="_top" xlink:title="CoolBoardSensors::begin">
<polygon fill="white" stroke="black" points="136,-874.5 136,-893.5 264,-893.5 264,-874.5 136,-874.5"/>
<text text-anchor="middle" x="200" y="-881.5" font-family="Helvetica,sans-Serif" font-size="10.00">CoolBoardSensors::begin</text>
</a>
</g>
</g>
<!-- Node2&#45;&gt;Node8 -->
<g id="edge6" class="edge"><title>Node2&#45;&gt;Node8</title>
<path fill="none" stroke="midnightblue" d="M47.8439,-513.77C52.5487,-566.02 77.1772,-812.062 128,-865 129.392,-866.45 130.881,-867.793 132.451,-869.037"/>
<polygon fill="midnightblue" stroke="midnightblue" points="130.585,-871.999 140.887,-874.471 134.375,-866.114 130.585,-871.999"/>
</g>
<!-- Node10 -->
<g id="node9" class="node"><title>Node10</title>
<g id="a_node9"><a xlink:href="classCoolWifi.html#a46942fed90e475112cc10b78a32e7aaa" target="_top" xlink:title="CoolWifi::begin">
<polygon fill="white" stroke="black" points="158.5,-836.5 158.5,-855.5 241.5,-855.5 241.5,-836.5 158.5,-836.5"/>
<text text-anchor="middle" x="200" y="-843.5" font-family="Helvetica,sans-Serif" font-size="10.00">CoolWifi::begin</text>
</a>
</g>
</g>
<!-- Node2&#45;&gt;Node10 -->
<g id="edge8" class="edge"><title>Node2&#45;&gt;Node10</title>
<path fill="none" stroke="midnightblue" d="M48.1107,-513.695C53.8832,-562.44 81.9688,-780.237 128,-827 133.727,-832.819 141.027,-836.915 148.756,-839.788"/>
<polygon fill="midnightblue" stroke="midnightblue" points="147.731,-843.135 158.318,-842.718 149.782,-836.442 147.731,-843.135"/>
</g>
<!-- Node11 -->
<g id="node10" class="node"><title>Node11</title>
<g id="a_node10"><a xlink:href="classCoolTime.html#ab1976cf718b950bc31e003c3323b8adb" target="_top" xlink:title="CoolTime::begin">
<polygon fill="white" stroke="black" points="156,-798.5 156,-817.5 244,-817.5 244,-798.5 156,-798.5"/>
<text text-anchor="middle" x="200" y="-805.5" font-family="Helvetica,sans-Serif" font-size="10.00">CoolTime::begin</text>
</a>
</g>
</g>
<!-- Node2&#45;&gt;Node11 -->
<g id="edge9" class="edge"><title>Node2&#45;&gt;Node11</title>
<path fill="none" stroke="midnightblue" d="M46.601,-513.506C45.4735,-553.394 46.6321,-708.878 128,-789 133.188,-794.109 139.591,-797.884 146.409,-800.666"/>
<polygon fill="midnightblue" stroke="midnightblue" points="145.295,-803.984 155.89,-803.877 147.541,-797.354 145.295,-803.984"/>
</g>
<!-- Node18 -->
<g id="node17" class="node"><title>Node18</title>
<g id="a_node17"><a xlink:href="classIrene3000.html#ad5891806c500ae1007afe52b9e304c2b" target="_top" xlink:title="Irene3000::begin">
<polygon fill="white" stroke="black" points="155.5,-760.5 155.5,-779.5 244.5,-779.5 244.5,-760.5 155.5,-760.5"/>
<text text-anchor="middle" x="200" y="-767.5" font-family="Helvetica,sans-Serif" font-size="10.00">Irene3000::begin</text>
</a>
</g>
</g>
<!-- Node2&#45;&gt;Node18 -->
<g id="edge16" class="edge"><title>Node2&#45;&gt;Node18</title>
<path fill="none" stroke="midnightblue" d="M47.3167,-513.892C49.0171,-550.206 59.8062,-677.603 128,-746 133,-751.015 139.082,-754.982 145.561,-758.12"/>
<polygon fill="midnightblue" stroke="midnightblue" points="144.681,-761.544 155.258,-762.151 147.367,-755.08 144.681,-761.544"/>
</g>
<!-- Node19 -->
<g id="node18" class="node"><title>Node19</title>
<g id="a_node18"><a xlink:href="classCoolBoardLed.html#a96e1ea13003eee34c9dbcef340404426" target="_top" xlink:title="CoolBoardLed::blink">
<polygon fill="white" stroke="black" points="323.5,-722.5 323.5,-741.5 427.5,-741.5 427.5,-722.5 323.5,-722.5"/>
<text text-anchor="middle" x="375.5" y="-729.5" font-family="Helvetica,sans-Serif" font-size="10.00">CoolBoardLed::blink</text>
</a>
</g>
</g>
<!-- Node2&#45;&gt;Node19 -->
<g id="edge17" class="edge"><title>Node2&#45;&gt;Node19</title>
<path fill="none" stroke="midnightblue" d="M47.5706,-513.594C50.0937,-546.569 63.2279,-655.922 128,-705 180.706,-744.935 258.905,-746.668 313.031,-741.665"/>
<polygon fill="midnightblue" stroke="midnightblue" points="313.593,-745.126 323.183,-740.622 312.878,-738.162 313.593,-745.126"/>
</g>
<!-- Node20 -->
<g id="node19" class="node"><title>Node20</title>
<g id="a_node19"><a xlink:href="classJetpack.html#ab065ee83e244265a2223a22f3ee4a719" target="_top" xlink:title="Jetpack::config">
<polygon fill="white" stroke="black" points="158.5,-608.5 158.5,-627.5 241.5,-627.5 241.5,-608.5 158.5,-608.5"/>
<text text-anchor="middle" x="200" y="-615.5" font-family="Helvetica,sans-Serif" font-size="10.00">Jetpack::config</text>
</a>
</g>
</g>
<!-- Node2&#45;&gt;Node20 -->
<g id="edge18" class="edge"><title>Node2&#45;&gt;Node20</title>
<path fill="none" stroke="midnightblue" d="M52.5178,-513.768C63.9708,-533.127 92.2613,-576.438 128,-599 134.231,-602.934 141.264,-606.06 148.42,-608.542"/>
<polygon fill="midnightblue" stroke="midnightblue" points="147.604,-611.953 158.19,-611.543 149.659,-605.261 147.604,-611.953"/>
</g>
<!-- Node21 -->
<g id="node20" class="node"><title>Node21</title>
<g id="a_node20"><a xlink:href="classExternalSensors.html#a862a4bd11346b37270d0244c2adabe5a" target="_top" xlink:title="ExternalSensors::config">
<polygon fill="white" stroke="black" points="139.5,-570.5 139.5,-589.5 260.5,-589.5 260.5,-570.5 139.5,-570.5"/>
<text text-anchor="middle" x="200" y="-577.5" font-family="Helvetica,sans-Serif" font-size="10.00">ExternalSensors::config</text>
</a>
</g>
</g>
<!-- Node2&#45;&gt;Node21 -->
<g id="edge19" class="edge"><title>Node2&#45;&gt;Node21</title>
<path fill="none" stroke="midnightblue" d="M58.0087,-513.68C72.8984,-526.299 100.74,-548.255 128,-561 133.057,-563.364 138.459,-565.476 143.941,-567.351"/>
<polygon fill="midnightblue" stroke="midnightblue" points="143.247,-570.802 153.837,-570.476 145.355,-564.127 143.247,-570.802"/>
</g>
<!-- Node22 -->
<g id="node21" class="node"><title>Node22</title>
<g id="a_node21"><a xlink:href="classCoolWifi.html#a4eb2f6b9b09dd588964b88b6c70122c0" target="_top" xlink:title="CoolWifi::config">
<polygon fill="white" stroke="black" points="157,-532.5 157,-551.5 243,-551.5 243,-532.5 157,-532.5"/>
<text text-anchor="middle" x="200" y="-539.5" font-family="Helvetica,sans-Serif" font-size="10.00">CoolWifi::config</text>
</a>
</g>
</g>
<!-- Node2&#45;&gt;Node22 -->
<g id="edge20" class="edge"><title>Node2&#45;&gt;Node22</title>
<path fill="none" stroke="midnightblue" d="M85.356,-513.589C105.324,-518.581 129.93,-524.732 151.133,-530.033"/>
<polygon fill="midnightblue" stroke="midnightblue" points="150.369,-533.45 160.92,-532.48 152.067,-526.659 150.369,-533.45"/>
</g>
<!-- Node23 -->
<g id="node22" class="node"><title>Node23</title>
<g id="a_node22"><a xlink:href="classCoolMQTT.html#a9b703de4f1358f0ee7a5e8c44979c648" target="_top" xlink:title="CoolMQTT::config">
<polygon fill="white" stroke="black" points="151.5,-494.5 151.5,-513.5 248.5,-513.5 248.5,-494.5 151.5,-494.5"/>
<text text-anchor="middle" x="200" y="-501.5" font-family="Helvetica,sans-Serif" font-size="10.00">CoolMQTT::config</text>
</a>
</g>
</g>
<!-- Node2&#45;&gt;Node23 -->
<g id="edge21" class="edge"><title>Node2&#45;&gt;Node23</title>
<path fill="none" stroke="midnightblue" d="M92.1935,-504C107.484,-504 124.777,-504 140.925,-504"/>
<polygon fill="midnightblue" stroke="midnightblue" points="141.339,-507.5 151.339,-504 141.339,-500.5 141.339,-507.5"/>
</g>
<!-- Node24 -->
<g id="node23" class="node"><title>Node24</title>
<g id="a_node23"><a xlink:href="classCoolTime.html#a87c28260c1bc77091162cbcf1ee2e129" target="_top" xlink:title="CoolTime::config">
<polygon fill="white" stroke="black" points="154.5,-456.5 154.5,-475.5 245.5,-475.5 245.5,-456.5 154.5,-456.5"/>
<text text-anchor="middle" x="200" y="-463.5" font-family="Helvetica,sans-Serif" font-size="10.00">CoolTime::config</text>
</a>
</g>
</g>
<!-- Node2&#45;&gt;Node24 -->
<g id="edge22" class="edge"><title>Node2&#45;&gt;Node24</title>
<path fill="none" stroke="midnightblue" d="M85.356,-494.411C105.324,-489.419 129.93,-483.268 151.133,-477.967"/>
<polygon fill="midnightblue" stroke="midnightblue" points="152.067,-481.341 160.92,-475.52 150.369,-474.55 152.067,-481.341"/>
</g>
<!-- Node25 -->
<g id="node24" class="node"><title>Node25</title>
<g id="a_node24"><a xlink:href="classIrene3000.html#afed5c35e4b23963c157847ef27c11e9c" target="_top" xlink:title="Irene3000::config">
<polygon fill="white" stroke="black" points="154,-418.5 154,-437.5 246,-437.5 246,-418.5 154,-418.5"/>
<text text-anchor="middle" x="200" y="-425.5" font-family="Helvetica,sans-Serif" font-size="10.00">Irene3000::config</text>
</a>
</g>
</g>
<!-- Node2&#45;&gt;Node25 -->
<g id="edge23" class="edge"><title>Node2&#45;&gt;Node25</title>
<path fill="none" stroke="midnightblue" d="M58.0087,-494.32C72.8984,-481.701 100.74,-459.745 128,-447 133.057,-444.636 138.459,-442.524 143.941,-440.649"/>
<polygon fill="midnightblue" stroke="midnightblue" points="145.355,-443.873 153.837,-437.524 143.247,-437.198 145.355,-443.873"/>
</g>
<!-- Node27 -->
<g id="node26" class="node"><title>Node27</title>
<g id="a_node26"><a xlink:href="classCoolBoardSensors.html#a9a218895c5423375c33c08f2c56fb23a" target="_top" xlink:title="CoolBoardSensors::config">
<polygon fill="white" stroke="black" points="134.5,-380.5 134.5,-399.5 265.5,-399.5 265.5,-380.5 134.5,-380.5"/>
<text text-anchor="middle" x="200" y="-387.5" font-family="Helvetica,sans-Serif" font-size="10.00">CoolBoardSensors::config</text>
</a>
</g>
</g>
<!-- Node2&#45;&gt;Node27 -->
<g id="edge25" class="edge"><title>Node2&#45;&gt;Node27</title>
<path fill="none" stroke="midnightblue" d="M52.5178,-494.232C63.9708,-474.873 92.2613,-431.562 128,-409 131.363,-406.877 134.96,-404.989 138.684,-403.31"/>
<polygon fill="midnightblue" stroke="midnightblue" points="140.139,-406.499 148.141,-399.555 137.555,-399.993 140.139,-406.499"/>
</g>
<!-- Node28 -->
<g id="node27" class="node"><title>Node28</title>
<g id="a_node27"><a xlink:href="classCoolBoard.html#a519de78b807f8ec6463ff484eb925918" target="_top" xlink:title="CoolBoard::connect">
<polygon fill="white" stroke="black" points="148.5,-646.5 148.5,-665.5 251.5,-665.5 251.5,-646.5 148.5,-646.5"/>
<text text-anchor="middle" x="200" y="-653.5" font-family="Helvetica,sans-Serif" font-size="10.00">CoolBoard::connect</text>
</a>
</g>
</g>
<!-- Node2&#45;&gt;Node28 -->
<g id="edge26" class="edge"><title>Node2&#45;&gt;Node28</title>
<path fill="none" stroke="midnightblue" d="M50.0808,-513.778C58.3811,-538.48 83.6327,-603.785 128,-637 131.39,-639.538 135.094,-641.737 138.974,-643.643"/>
<polygon fill="midnightblue" stroke="midnightblue" points="137.708,-646.907 148.282,-647.578 140.434,-640.46 137.708,-646.907"/>
</g>
<!-- Node29 -->
<g id="node28" class="node"><title>Node29</title>
<g id="a_node28"><a xlink:href="classCoolBoardLed.html#a30fadd4cbec17ceea428bf7a32207e87" target="_top" xlink:title="CoolBoardLed::write">
<polygon fill="white" stroke="black" points="323,-684.5 323,-703.5 428,-703.5 428,-684.5 323,-684.5"/>
<text text-anchor="middle" x="375.5" y="-691.5" font-family="Helvetica,sans-Serif" font-size="10.00">CoolBoardLed::write</text>
</a>
</g>
</g>
<!-- Node2&#45;&gt;Node29 -->
<g id="edge48" class="edge"><title>Node2&#45;&gt;Node29</title>
<path fill="none" stroke="midnightblue" d="M48.2714,-513.92C52.7293,-544.16 70.6279,-635.524 128,-675 183.31,-713.057 263.057,-711.701 316.729,-704.887"/>
<polygon fill="midnightblue" stroke="midnightblue" points="317.336,-708.337 326.768,-703.511 316.385,-701.402 317.336,-708.337"/>
</g>
<!-- Node38 -->
<g id="node37" class="node"><title>Node38</title>
<g id="a_node37"><a xlink:href="classCoolBoardLed.html#a93d545679237e8cc858324367149775c" target="_top" xlink:title="CoolBoardLed::fadeOut">
<polygon fill="white" stroke="black" points="140.5,-342.5 140.5,-361.5 259.5,-361.5 259.5,-342.5 140.5,-342.5"/>
<text text-anchor="middle" x="200" y="-349.5" font-family="Helvetica,sans-Serif" font-size="10.00">CoolBoardLed::fadeOut</text>
</a>
</g>
</g>
<!-- Node2&#45;&gt;Node38 -->
<g id="edge38" class="edge"><title>Node2&#45;&gt;Node38</title>
<path fill="none" stroke="midnightblue" d="M50.0808,-494.222C58.3811,-469.52 83.6327,-404.215 128,-371 130.523,-369.111 133.221,-367.41 136.035,-365.877"/>
<polygon fill="midnightblue" stroke="midnightblue" points="137.767,-368.932 145.353,-361.536 134.81,-362.587 137.767,-368.932"/>
</g>
<!-- Node39 -->
<g id="node38" class="node"><title>Node39</title>
<g id="a_node38"><a xlink:href="classCoolBoard.html#a397b46fadab8f530a8cf4d914c561366" target="_top" xlink:title="CoolBoard::initReadI2C">
<polygon fill="white" stroke="black" points="140,-304.5 140,-323.5 260,-323.5 260,-304.5 140,-304.5"/>
<text text-anchor="middle" x="200" y="-311.5" font-family="Helvetica,sans-Serif" font-size="10.00">CoolBoard::initReadI2C</text>
</a>
</g>
</g>
<!-- Node2&#45;&gt;Node39 -->
<g id="edge39" class="edge"><title>Node2&#45;&gt;Node39</title>
<path fill="none" stroke="midnightblue" d="M48.6935,-494.121C54.2572,-464.77 74.7618,-377.384 128,-333 130.015,-331.32 132.165,-329.787 134.414,-328.389"/>
<polygon fill="midnightblue" stroke="midnightblue" points="136.27,-331.368 143.512,-323.635 133.028,-325.164 136.27,-331.368"/>
</g>
<!-- Node40 -->
<g id="node39" class="node"><title>Node40</title>
<g id="a_node39"><a xlink:href="classCoolBoardLed.html#a8ed3053a36f0ed4a131f43b5b17efb61" target="_top" xlink:title="CoolBoardLed::printConf">
<polygon fill="white" stroke="black" points="138,-266.5 138,-285.5 262,-285.5 262,-266.5 138,-266.5"/>
<text text-anchor="middle" x="200" y="-273.5" font-family="Helvetica,sans-Serif" font-size="10.00">CoolBoardLed::printConf</text>
</a>
</g>
</g>
<!-- Node2&#45;&gt;Node40 -->
<g id="edge40" class="edge"><title>Node2&#45;&gt;Node40</title>
<path fill="none" stroke="midnightblue" d="M47.7323,-494.398C50.7835,-461.332 65.4354,-351.133 128,-295 129.736,-293.442 131.587,-292.01 133.526,-290.693"/>
<polygon fill="midnightblue" stroke="midnightblue" points="135.523,-293.586 142.521,-285.63 132.09,-287.486 135.523,-293.586"/>
</g>
<!-- Node41 -->
<g id="node40" class="node"><title>Node41</title>
<g id="a_node40"><a xlink:href="classJetpack.html#ac54a7bb4f9166bee32052253d9b1d306" target="_top" xlink:title="Jetpack::printConf">
<polygon fill="white" stroke="black" points="151.5,-228.5 151.5,-247.5 248.5,-247.5 248.5,-228.5 151.5,-228.5"/>
<text text-anchor="middle" x="200" y="-235.5" font-family="Helvetica,sans-Serif" font-size="10.00">Jetpack::printConf</text>
</a>
</g>
</g>
<!-- Node2&#45;&gt;Node41 -->
<g id="edge41" class="edge"><title>Node2&#45;&gt;Node41</title>
<path fill="none" stroke="midnightblue" d="M47.0878,-494.269C47.9691,-457.395 56.2061,-324.922 128,-257 132.055,-253.163 136.798,-250.083 141.875,-247.613"/>
<polygon fill="midnightblue" stroke="midnightblue" points="143.345,-250.794 151.298,-243.794 140.716,-244.306 143.345,-250.794"/>
</g>
<!-- Node42 -->
<g id="node41" class="node"><title>Node42</title>
<g id="a_node41"><a xlink:href="classExternalSensors.html#a78c2bf55084435dd51d3c559b2d3c6f3" target="_top" xlink:title="ExternalSensors::printConf">
<polygon fill="white" stroke="black" points="133,-190.5 133,-209.5 267,-209.5 267,-190.5 133,-190.5"/>
<text text-anchor="middle" x="200" y="-197.5" font-family="Helvetica,sans-Serif" font-size="10.00">ExternalSensors::printConf</text>
</a>
</g>
</g>
<!-- Node2&#45;&gt;Node42 -->
<g id="edge42" class="edge"><title>Node2&#45;&gt;Node42</title>
<path fill="none" stroke="midnightblue" d="M46.601,-494.494C45.4735,-454.606 46.6321,-299.122 128,-219 129.466,-217.556 131.029,-216.219 132.671,-214.981"/>
<polygon fill="midnightblue" stroke="midnightblue" points="134.773,-217.797 141.456,-209.577 131.105,-211.835 134.773,-217.797"/>
</g>
<!-- Node43 -->
<g id="node42" class="node"><title>Node43</title>
<g id="a_node42"><a xlink:href="classIrene3000.html#a7bc2414100b5e19eacc6630fa34b2654" target="_top" xlink:title="Irene3000::printConf">
<polygon fill="white" stroke="black" points="147.5,-152.5 147.5,-171.5 252.5,-171.5 252.5,-152.5 147.5,-152.5"/>
<text text-anchor="middle" x="200" y="-159.5" font-family="Helvetica,sans-Serif" font-size="10.00">Irene3000::printConf</text>
</a>
</g>
</g>
<!-- Node2&#45;&gt;Node43 -->
<g id="edge43" class="edge"><title>Node2&#45;&gt;Node43</title>
<path fill="none" stroke="midnightblue" d="M48.1107,-494.305C53.8832,-445.56 81.9688,-227.763 128,-181 131.021,-177.931 134.48,-175.341 138.208,-173.157"/>
<polygon fill="midnightblue" stroke="midnightblue" points="139.83,-176.26 147.317,-168.763 136.789,-169.955 139.83,-176.26"/>
</g>
<!-- Node44 -->
<g id="node43" class="node"><title>Node44</title>
<g id="a_node43"><a xlink:href="classCoolMQTT.html#a40553a0ad4b5ecf1cb4411ab54ca85fb" target="_top" xlink:title="CoolMQTT::printConf">
<polygon fill="white" stroke="black" points="145,-114.5 145,-133.5 255,-133.5 255,-114.5 145,-114.5"/>
<text text-anchor="middle" x="200" y="-121.5" font-family="Helvetica,sans-Serif" font-size="10.00">CoolMQTT::printConf</text>
</a>
</g>
</g>
<!-- Node2&#45;&gt;Node44 -->
<g id="edge44" class="edge"><title>Node2&#45;&gt;Node44</title>
<path fill="none" stroke="midnightblue" d="M47.8439,-494.23C52.5487,-441.98 77.1772,-195.938 128,-143 130.342,-140.561 132.96,-138.423 135.771,-136.55"/>
<polygon fill="midnightblue" stroke="midnightblue" points="137.592,-139.544 144.705,-131.691 134.248,-133.395 137.592,-139.544"/>
</g>
<!-- Node45 -->
<g id="node44" class="node"><title>Node45</title>
<g id="a_node44"><a xlink:href="classCoolTime.html#af355e7f9b3898211cd2ff25eab5933b1" target="_top" xlink:title="CoolTime::printConf">
<polygon fill="white" stroke="black" points="148,-76.5 148,-95.5 252,-95.5 252,-76.5 148,-76.5"/>
<text text-anchor="middle" x="200" y="-83.5" font-family="Helvetica,sans-Serif" font-size="10.00">CoolTime::printConf</text>
</a>
</g>
</g>
<!-- Node2&#45;&gt;Node45 -->
<g id="edge45" class="edge"><title>Node2&#45;&gt;Node45</title>
<path fill="none" stroke="midnightblue" d="M47.6134,-494.321C51.305,-439.096 72.3071,-164.21 128,-105 131.134,-101.668 134.782,-98.8974 138.739,-96.5951"/>
<polygon fill="midnightblue" stroke="midnightblue" points="140.294,-99.731 147.815,-92.2684 137.282,-93.4123 140.294,-99.731"/>
</g>
<!-- Node46 -->
<g id="node45" class="node"><title>Node46</title>
<g id="a_node45"><a xlink:href="classCoolBoardSensors.html#af6fd79505815b204c178617ecf54c873" target="_top" xlink:title="CoolBoardSensors::printConf">
<polygon fill="white" stroke="black" points="128,-38.5 128,-57.5 272,-57.5 272,-38.5 128,-38.5"/>
<text text-anchor="middle" x="200" y="-45.5" font-family="Helvetica,sans-Serif" font-size="10.00">CoolBoardSensors::printConf</text>
</a>
</g>
</g>
<!-- Node2&#45;&gt;Node46 -->
<g id="edge46" class="edge"><title>Node2&#45;&gt;Node46</title>
<path fill="none" stroke="midnightblue" d="M47.4355,-494.183C50.2303,-435.596 67.4942,-132.433 128,-67 129.221,-65.6796 130.523,-64.447 131.893,-63.2966"/>
<polygon fill="midnightblue" stroke="midnightblue" points="134.059,-66.0571 140.396,-57.5662 130.147,-60.2522 134.059,-66.0571"/>
</g>
<!-- Node47 -->
<g id="node46" class="node"><title>Node47</title>
<g id="a_node46"><a xlink:href="classCoolWifi.html#a9e6105c6d13d35ec510f6633da9e0223" target="_top" xlink:title="CoolWifi::printConf">
<polygon fill="white" stroke="black" points="150,-0.5 150,-19.5 250,-19.5 250,-0.5 150,-0.5"/>
<text text-anchor="middle" x="200" y="-7.5" font-family="Helvetica,sans-Serif" font-size="10.00">CoolWifi::printConf</text>
</a>
</g>
</g>
<!-- Node2&#45;&gt;Node47 -->
<g id="edge47" class="edge"><title>Node2&#45;&gt;Node47</title>
<path fill="none" stroke="midnightblue" d="M47.2786,-494.149C49.2188,-432.56 62.6305,-100.72 128,-29 131.562,-25.0922 135.831,-21.9517 140.485,-19.4324"/>
<polygon fill="midnightblue" stroke="midnightblue" points="142.086,-22.5517 149.824,-15.315 139.262,-16.1465 142.086,-22.5517"/>
</g>
<!-- Node5 -->
<g id="node4" class="node"><title>Node5</title>
<g id="a_node4"><a xlink:href="classCoolMQTT.html#a30d82ad665bfb603f46ecdbc290775df" target="_top" xlink:title="CoolMQTT::callback">
<polygon fill="white" stroke="black" points="322,-956.5 322,-975.5 429,-975.5 429,-956.5 322,-956.5"/>
<text text-anchor="middle" x="375.5" y="-963.5" font-family="Helvetica,sans-Serif" font-size="10.00">CoolMQTT::callback</text>
</a>
</g>
</g>
<!-- Node4&#45;&gt;Node5 -->
<g id="edge3" class="edge"><title>Node4&#45;&gt;Node5</title>
<path fill="none" stroke="midnightblue" d="M247.039,-961.592C266.796,-962.275 290.196,-963.085 311.52,-963.822"/>
<polygon fill="midnightblue" stroke="midnightblue" points="311.681,-967.33 321.796,-964.177 311.923,-960.334 311.681,-967.33"/>
</g>
<!-- Node7 -->
<g id="node6" class="node"><title>Node7</title>
<g id="a_node6"><a xlink:href="classBaseExternalSensor.html#a87d132803d4f4fdd4e66332809f0c9a0" target="_top" xlink:title="BaseExternalSensor\l::begin">
<polygon fill="white" stroke="black" points="322.5,-907 322.5,-937 428.5,-937 428.5,-907 322.5,-907"/>
<text text-anchor="start" x="330.5" y="-925" font-family="Helvetica,sans-Serif" font-size="10.00">BaseExternalSensor</text>
<text text-anchor="middle" x="375.5" y="-914" font-family="Helvetica,sans-Serif" font-size="10.00">::begin</text>
</a>
</g>
</g>
<!-- Node6&#45;&gt;Node7 -->
<g id="edge5" class="edge"><title>Node6&#45;&gt;Node7</title>
<path fill="none" stroke="midnightblue" d="M259.256,-922C276.131,-922 294.625,-922 311.762,-922"/>
<polygon fill="midnightblue" stroke="midnightblue" points="312.23,-925.5 322.23,-922 312.23,-918.5 312.23,-925.5"/>
</g>
<!-- Node9 -->
<g id="node8" class="node"><title>Node9</title>
<g id="a_node8"><a xlink:href="classCoolBoardSensors.html#a406307ffd70272282d91479c7ed8d66f" target="_top" xlink:title="CoolBoardSensors::setEnv\lSensorSettings">
<polygon fill="white" stroke="black" points="308,-858 308,-888 443,-888 443,-858 308,-858"/>
<text text-anchor="start" x="316" y="-876" font-family="Helvetica,sans-Serif" font-size="10.00">CoolBoardSensors::setEnv</text>
<text text-anchor="middle" x="375.5" y="-865" font-family="Helvetica,sans-Serif" font-size="10.00">SensorSettings</text>
</a>
</g>
</g>
<!-- Node8&#45;&gt;Node9 -->
<g id="edge7" class="edge"><title>Node8&#45;&gt;Node9</title>
<path fill="none" stroke="midnightblue" d="M264.128,-879.998C275.033,-879.306 286.477,-878.581 297.696,-877.869"/>
<polygon fill="midnightblue" stroke="midnightblue" points="298.155,-881.347 307.914,-877.222 297.712,-874.361 298.155,-881.347"/>
</g>
<!-- Node12 -->
<g id="node11" class="node"><title>Node12</title>
<g id="a_node11"><a xlink:href="classCoolTime.html#aae601f795452cfa48d9fb337aed483a8" target="_top" xlink:title="CoolTime::update">
<polygon fill="white" stroke="black" points="328.5,-798.5 328.5,-817.5 422.5,-817.5 422.5,-798.5 328.5,-798.5"/>
<text text-anchor="middle" x="375.5" y="-805.5" font-family="Helvetica,sans-Serif" font-size="10.00">CoolTime::update</text>
</a>
</g>
</g>
<!-- Node11&#45;&gt;Node12 -->
<g id="edge10" class="edge"><title>Node11&#45;&gt;Node12</title>
<path fill="none" stroke="midnightblue" d="M244.334,-808C266.729,-808 294.325,-808 318.336,-808"/>
<polygon fill="midnightblue" stroke="midnightblue" points="318.382,-811.5 328.382,-808 318.382,-804.5 318.382,-811.5"/>
</g>
<!-- Node13 -->
<g id="node12" class="node"><title>Node13</title>
<g id="a_node12"><a xlink:href="classCoolTime.html#a5ae038a4498602b189f76a10bf02adf8" target="_top" xlink:title="CoolTime::isTimeSync">
<polygon fill="white" stroke="black" points="487.5,-836.5 487.5,-855.5 603.5,-855.5 603.5,-836.5 487.5,-836.5"/>
<text text-anchor="middle" x="545.5" y="-843.5" font-family="Helvetica,sans-Serif" font-size="10.00">CoolTime::isTimeSync</text>
</a>
</g>
</g>
<!-- Node12&#45;&gt;Node13 -->
<g id="edge11" class="edge"><title>Node12&#45;&gt;Node13</title>
<path fill="none" stroke="midnightblue" d="M418.893,-817.589C441.263,-822.649 468.898,-828.9 492.547,-834.249"/>
<polygon fill="midnightblue" stroke="midnightblue" points="491.886,-837.687 502.411,-836.48 493.43,-830.86 491.886,-837.687"/>
</g>
<!-- Node15 -->
<g id="node14" class="node"><title>Node15</title>
<g id="a_node14"><a xlink:href="classCoolTime.html#a41fbbbfd651c2079f54d4b2911e4c705" target="_top" xlink:title="CoolTime::getNtpTime">
<polygon fill="white" stroke="black" points="487.5,-798.5 487.5,-817.5 603.5,-817.5 603.5,-798.5 487.5,-798.5"/>
<text text-anchor="middle" x="545.5" y="-805.5" font-family="Helvetica,sans-Serif" font-size="10.00">CoolTime::getNtpTime</text>
</a>
</g>
</g>
<!-- Node12&#45;&gt;Node15 -->
<g id="edge13" class="edge"><title>Node12&#45;&gt;Node15</title>
<path fill="none" stroke="midnightblue" d="M422.851,-808C439.573,-808 458.804,-808 476.966,-808"/>
<polygon fill="midnightblue" stroke="midnightblue" points="477.215,-811.5 487.215,-808 477.215,-804.5 477.215,-811.5"/>
</g>
<!-- Node17 -->
<g id="node16" class="node"><title>Node17</title>
<g id="a_node16"><a xlink:href="classCoolTime.html#ae9658c9b377510d469e3b88edf33ee85" target="_top" xlink:title="CoolTime::saveTimeSync">
<polygon fill="white" stroke="black" points="480.5,-760.5 480.5,-779.5 610.5,-779.5 610.5,-760.5 480.5,-760.5"/>
<text text-anchor="middle" x="545.5" y="-767.5" font-family="Helvetica,sans-Serif" font-size="10.00">CoolTime::saveTimeSync</text>
</a>
</g>
</g>
<!-- Node12&#45;&gt;Node17 -->
<g id="edge15" class="edge"><title>Node12&#45;&gt;Node17</title>
<path fill="none" stroke="midnightblue" d="M418.893,-798.411C441.263,-793.351 468.898,-787.1 492.547,-781.751"/>
<polygon fill="midnightblue" stroke="midnightblue" points="493.43,-785.14 502.411,-779.52 491.886,-778.313 493.43,-785.14"/>
</g>
<!-- Node14 -->
<g id="node13" class="node"><title>Node14</title>
<g id="a_node13"><a xlink:href="classCoolTime.html#a5d17f707a9d337720493b2bce9d41c21" target="_top" xlink:title="CoolTime::getLastSyncTime">
<polygon fill="white" stroke="black" points="648,-836.5 648,-855.5 789,-855.5 789,-836.5 648,-836.5"/>
<text text-anchor="middle" x="718.5" y="-843.5" font-family="Helvetica,sans-Serif" font-size="10.00">CoolTime::getLastSyncTime</text>
</a>
</g>
</g>
<!-- Node13&#45;&gt;Node14 -->
<g id="edge12" class="edge"><title>Node13&#45;&gt;Node14</title>
<path fill="none" stroke="midnightblue" d="M603.916,-846C614.688,-846 626.128,-846 637.441,-846"/>
<polygon fill="midnightblue" stroke="midnightblue" points="637.771,-849.5 647.771,-846 637.771,-842.5 637.771,-849.5"/>
</g>
<!-- Node16 -->
<g id="node15" class="node"><title>Node16</title>
<g id="a_node15"><a xlink:href="classCoolTime.html#a236a38d120dc53bc67456d763838c5a1" target="_top" xlink:title="CoolTime::sendNTPpacket">
<polygon fill="white" stroke="black" points="651,-798.5 651,-817.5 786,-817.5 786,-798.5 651,-798.5"/>
<text text-anchor="middle" x="718.5" y="-805.5" font-family="Helvetica,sans-Serif" font-size="10.00">CoolTime::sendNTPpacket</text>
</a>
</g>
</g>
<!-- Node15&#45;&gt;Node16 -->
<g id="edge14" class="edge"><title>Node15&#45;&gt;Node16</title>
<path fill="none" stroke="midnightblue" d="M603.916,-808C615.665,-808 628.211,-808 640.518,-808"/>
<polygon fill="midnightblue" stroke="midnightblue" points="640.778,-811.5 650.778,-808 640.778,-804.5 640.778,-811.5"/>
</g>
<!-- Node26 -->
<g id="node25" class="node"><title>Node26</title>
<g id="a_node25"><a xlink:href="classIrene3000.html#abcad62d1201a59f8dd3ba87048002728" target="_top" xlink:title="Irene3000::gainConvert">
<polygon fill="white" stroke="black" points="316.5,-418.5 316.5,-437.5 434.5,-437.5 434.5,-418.5 316.5,-418.5"/>
<text text-anchor="middle" x="375.5" y="-425.5" font-family="Helvetica,sans-Serif" font-size="10.00">Irene3000::gainConvert</text>
</a>
</g>
</g>
<!-- Node25&#45;&gt;Node26 -->
<g id="edge24" class="edge"><title>Node25&#45;&gt;Node26</title>
<path fill="none" stroke="midnightblue" d="M246.132,-428C264.513,-428 286.161,-428 306.39,-428"/>
<polygon fill="midnightblue" stroke="midnightblue" points="306.499,-431.5 316.499,-428 306.499,-424.5 306.499,-431.5"/>
</g>
<!-- Node28&#45;&gt;Node19 -->
<g id="edge37" class="edge"><title>Node28&#45;&gt;Node19</title>
<path fill="none" stroke="midnightblue" d="M216.45,-665.576C236.815,-677.88 274.042,-699.284 308,-713 313.772,-715.331 319.933,-717.498 326.09,-719.47"/>
<polygon fill="midnightblue" stroke="midnightblue" points="325.117,-722.833 335.703,-722.406 327.162,-716.138 325.117,-722.833"/>
</g>
<!-- Node28&#45;&gt;Node29 -->
<g id="edge27" class="edge"><title>Node28&#45;&gt;Node29</title>
<path fill="none" stroke="midnightblue" d="M244.781,-665.589C267.986,-670.671 296.678,-676.955 321.173,-682.32"/>
<polygon fill="midnightblue" stroke="midnightblue" points="320.516,-685.759 331.033,-684.48 322.014,-678.921 320.516,-685.759"/>
</g>
<!-- Node30 -->
<g id="node29" class="node"><title>Node30</title>
<g id="a_node29"><a xlink:href="classCoolWifi.html#ad060353050f40d032a2dbf9e54a768bf" target="_top" xlink:title="CoolWifi::connect">
<polygon fill="white" stroke="black" points="328,-494.5 328,-513.5 423,-513.5 423,-494.5 328,-494.5"/>
<text text-anchor="middle" x="375.5" y="-501.5" font-family="Helvetica,sans-Serif" font-size="10.00">CoolWifi::connect</text>
</a>
</g>
</g>
<!-- Node28&#45;&gt;Node30 -->
<g id="edge28" class="edge"><title>Node28&#45;&gt;Node30</title>
<path fill="none" stroke="midnightblue" d="M251.674,-649.225C259.171,-646.403 266.283,-642.469 272,-637 310.395,-600.273 269.915,-560.049 308,-523 311.098,-519.986 314.64,-517.444 318.44,-515.301"/>
<polygon fill="midnightblue" stroke="midnightblue" points="320.102,-518.387 327.686,-510.989 317.143,-512.043 320.102,-518.387"/>
</g>
<!-- Node34 -->
<g id="node33" class="node"><title>Node34</title>
<g id="a_node33"><a xlink:href="classCoolWifi.html#a1c7b4d82a4098d346e7593dce92039fa" target="_top" xlink:title="CoolWifi::state">
<polygon fill="white" stroke="black" points="334.5,-570.5 334.5,-589.5 416.5,-589.5 416.5,-570.5 334.5,-570.5"/>
<text text-anchor="middle" x="375.5" y="-577.5" font-family="Helvetica,sans-Serif" font-size="10.00">CoolWifi::state</text>
</a>
</g>
</g>
<!-- Node28&#45;&gt;Node34 -->
<g id="edge32" class="edge"><title>Node28&#45;&gt;Node34</title>
<path fill="none" stroke="midnightblue" d="M249.199,-646.478C257.073,-643.98 264.952,-640.866 272,-637 291.03,-626.561 289.43,-615.237 308,-604 314.867,-599.845 322.564,-596.247 330.22,-593.192"/>
<polygon fill="midnightblue" stroke="midnightblue" points="331.681,-596.383 339.83,-589.612 329.237,-589.823 331.681,-596.383"/>
</g>
<!-- Node35 -->
<g id="node34" class="node"><title>Node35</title>
<g id="a_node34"><a xlink:href="classCoolMQTT.html#a50075d0ab23a327ab897fd6adad20eda" target="_top" xlink:title="CoolMQTT::connect">
<polygon fill="white" stroke="black" points="323,-532.5 323,-551.5 428,-551.5 428,-532.5 323,-532.5"/>
<text text-anchor="middle" x="375.5" y="-539.5" font-family="Helvetica,sans-Serif" font-size="10.00">CoolMQTT::connect</text>
</a>
</g>
</g>
<!-- Node28&#45;&gt;Node35 -->
<g id="edge33" class="edge"><title>Node28&#45;&gt;Node35</title>
<path fill="none" stroke="midnightblue" d="M251.787,-648.263C259.095,-645.551 266.119,-641.903 272,-637 300.708,-613.067 279.495,-585.174 308,-561 310.003,-559.301 312.15,-557.754 314.4,-556.345"/>
<polygon fill="midnightblue" stroke="midnightblue" points="316.283,-559.31 323.514,-551.566 313.032,-553.11 316.283,-559.31"/>
</g>
<!-- Node36 -->
<g id="node35" class="node"><title>Node36</title>
<g id="a_node35"><a xlink:href="classCoolMQTT.html#a5d003307eff78efbd585e42b43b72b6d" target="_top" xlink:title="CoolMQTT::state">
<polygon fill="white" stroke="black" points="499.5,-579.5 499.5,-598.5 591.5,-598.5 591.5,-579.5 499.5,-579.5"/>
<text text-anchor="middle" x="545.5" y="-586.5" font-family="Helvetica,sans-Serif" font-size="10.00">CoolMQTT::state</text>
</a>
</g>
</g>
<!-- Node28&#45;&gt;Node36 -->
<g id="edge36" class="edge"><title>Node28&#45;&gt;Node36</title>
<path fill="none" stroke="midnightblue" d="M249.85,-646.472C313.187,-634.118 423.349,-612.631 489.54,-599.72"/>
<polygon fill="midnightblue" stroke="midnightblue" points="490.229,-603.152 499.374,-597.802 488.889,-596.281 490.229,-603.152"/>
</g>
<!-- Node37 -->
<g id="node36" class="node"><title>Node37</title>
<g id="a_node36"><a xlink:href="classCoolBoard.html#a7508e029f2ee17bb747ffab599285e0d" target="_top" xlink:title="CoolBoard::getLogInterval">
<polygon fill="white" stroke="black" points="310.5,-646.5 310.5,-665.5 440.5,-665.5 440.5,-646.5 310.5,-646.5"/>
<text text-anchor="middle" x="375.5" y="-653.5" font-family="Helvetica,sans-Serif" font-size="10.00">CoolBoard::getLogInterval</text>
</a>
</g>
</g>
<!-- Node28&#45;&gt;Node37 -->
<g id="edge35" class="edge"><title>Node28&#45;&gt;Node37</title>
<path fill="none" stroke="midnightblue" d="M251.65,-656C266.808,-656 283.755,-656 300.105,-656"/>
<polygon fill="midnightblue" stroke="midnightblue" points="300.187,-659.5 310.187,-656 300.187,-652.5 300.187,-659.5"/>
</g>
<!-- Node31 -->
<g id="node30" class="node"><title>Node31</title>
<g id="a_node30"><a xlink:href="classCoolWifi.html#a419de92d738f14b7444cf822b3ab0070" target="_top" xlink:title="CoolWifi::connectWifiMulti">
<polygon fill="white" stroke="black" points="479,-475.5 479,-494.5 612,-494.5 612,-475.5 479,-475.5"/>
<text text-anchor="middle" x="545.5" y="-482.5" font-family="Helvetica,sans-Serif" font-size="10.00">CoolWifi::connectWifiMulti</text>
</a>
</g>
</g>
<!-- Node30&#45;&gt;Node31 -->
<g id="edge29" class="edge"><title>Node30&#45;&gt;Node31</title>
<path fill="none" stroke="midnightblue" d="M423.297,-498.707C437.394,-497.113 453.243,-495.321 468.716,-493.571"/>
<polygon fill="midnightblue" stroke="midnightblue" points="469.265,-497.031 478.808,-492.429 468.478,-490.075 469.265,-497.031"/>
</g>
<!-- Node32 -->
<g id="node31" class="node"><title>Node32</title>
<g id="a_node31"><a xlink:href="classCoolWifi.html#a7c857f27161782f5ef1d62d552aff971" target="_top" xlink:title="CoolWifi::connectAP">
<polygon fill="white" stroke="black" points="491.5,-513.5 491.5,-532.5 599.5,-532.5 599.5,-513.5 491.5,-513.5"/>
<text text-anchor="middle" x="545.5" y="-520.5" font-family="Helvetica,sans-Serif" font-size="10.00">CoolWifi::connectAP</text>
</a>
</g>
</g>
<!-- Node30&#45;&gt;Node32 -->
<g id="edge30" class="edge"><title>Node30&#45;&gt;Node32</title>
<path fill="none" stroke="midnightblue" d="M423.297,-509.293C441.238,-511.322 462.017,-513.672 481.248,-515.846"/>
<polygon fill="midnightblue" stroke="midnightblue" points="481.111,-519.353 491.441,-516.999 481.898,-512.398 481.111,-519.353"/>
</g>
<!-- Node33 -->
<g id="node32" class="node"><title>Node33</title>
<g id="a_node32"><a xlink:href="classCoolWifi.html#a914d7a1df14dd6b75345fb614c34e9d6" target="_top" xlink:title="CoolWifi::addWifi">
<polygon fill="white" stroke="black" points="672,-513.5 672,-532.5 765,-532.5 765,-513.5 672,-513.5"/>
<text text-anchor="middle" x="718.5" y="-520.5" font-family="Helvetica,sans-Serif" font-size="10.00">CoolWifi::addWifi</text>
</a>
</g>
</g>
<!-- Node32&#45;&gt;Node33 -->
<g id="edge31" class="edge"><title>Node32&#45;&gt;Node33</title>
<path fill="none" stroke="midnightblue" d="M599.668,-523C619.371,-523 641.761,-523 661.693,-523"/>
<polygon fill="midnightblue" stroke="midnightblue" points="661.865,-526.5 671.865,-523 661.865,-519.5 661.865,-526.5"/>
</g>
<!-- Node35&#45;&gt;Node36 -->
<g id="edge34" class="edge"><title>Node35&#45;&gt;Node36</title>
<path fill="none" stroke="midnightblue" d="M410.497,-551.511C436.371,-558.75 472.197,-568.772 500.295,-576.633"/>
<polygon fill="midnightblue" stroke="midnightblue" points="499.692,-580.099 510.265,-579.422 501.578,-573.358 499.692,-580.099"/>
</g>
</g>
</svg>
