<?xml version="1.0" encoding="UTF-8" standalone="no"?>
<!DOCTYPE svg PUBLIC "-//W3C//DTD SVG 1.1//EN"
 "http://www.w3.org/Graphics/SVG/1.1/DTD/svg11.dtd">
<!-- Generated by graphviz version 2.38.0 (20140413.2041)
 -->
<!-- Title: CoolBoard::onLineMode Pages: 1 -->
<!--zoomable 914 -->
<svg id="main" version="1.1" xmlns="http://www.w3.org/2000/svg" xmlns:xlink="http://www.w3.org/1999/xlink" xml:space="preserve" onload="init(evt)">
<style type="text/css"><![CDATA[
.edge:hover path { stroke: red; }
.edge:hover polygon { stroke: red; fill: red; }
]]></style>
<script type="text/javascript"><![CDATA[
var edges = document.getElementsByTagName('g');
if (edges && edges.length) {
  for (var i=0;i<edges.length;i++) {
    if (edges[i].id.substr(0,4)=='edge') {
      edges[i].setAttribute('class','edge');
    }
  }
}
]]></script>
        <defs>
                <circle id="rim" cx="0" cy="0" r="7"/>
                <circle id="rim2" cx="0" cy="0" r="3.5"/>
                <g id="zoomPlus">
                        <use xlink:href="#rim" fill="#404040">
                                <set attributeName="fill" to="#808080" begin="zoomplus.mouseover" end="zoomplus.mouseout"/>
                        </use>
                        <path d="M-4,0h8M0,-4v8" fill="none" stroke="white" stroke-width="1.5" pointer-events="none"/>
                </g>
                <g id="zoomMin">
                        <use xlink:href="#rim" fill="#404040">
                                <set attributeName="fill" to="#808080" begin="zoomminus.mouseover" end="zoomminus.mouseout"/>
                        </use>
                        <path d="M-4,0h8" fill="none" stroke="white" stroke-width="1.5" pointer-events="none"/>
                </g>
                <g id="dirArrow">
                        <path fill="none" stroke="white" stroke-width="1.5" d="M0,-3.0v7 M-2.5,-0.5L0,-3.0L2.5,-0.5"/>
                </g>
               <g id="resetDef">
                       <use xlink:href="#rim2" fill="#404040">
                               <set attributeName="fill" to="#808080" begin="reset.mouseover" end="reset.mouseout"/>
                       </use>
               </g>
        </defs>

<script type="text/javascript">
var viewWidth = 851;
var viewHeight = 914;
var sectionId = 'dynsection-8';
</script>
<script xlink:href="svgpan.js"/>
<svg id="graph" class="graph">
<g id="viewport">
<title>CoolBoard::onLineMode</title>
<polygon fill="white" stroke="none" points="-4,4 -4,-910 847,-910 847,4 -4,4"/>
<!-- Node86 -->
<g id="node1" class="node"><title>Node86</title>
<polygon fill="#bfbfbf" stroke="black" points="0,-589.5 0,-608.5 121,-608.5 121,-589.5 0,-589.5"/>
<text text-anchor="middle" x="60.5" y="-596.5" font-family="Helvetica,sans-Serif" font-size="10.00">CoolBoard::onLineMode</text>
</g>
<!-- Node87 -->
<g id="node2" class="node"><title>Node87</title>
<g id="a_node2"><a xlink:href="classJetpack.html#a86d2e83436ef4b85f4c3a6e85ac785b0" target="_top" xlink:title="Jetpack::doAction">
<polygon fill="white" stroke="black" points="184,-848.5 184,-867.5 279,-867.5 279,-848.5 184,-848.5"/>
<text text-anchor="middle" x="231.5" y="-855.5" font-family="Helvetica,sans-Serif" font-size="10.00">Jetpack::doAction</text>
</a>
</g>
</g>
<!-- Node86&#45;&gt;Node87 -->
<g id="edge1" class="edge"><title>Node86&#45;&gt;Node87</title>
<path fill="none" stroke="midnightblue" d="M64.3002,-608.729C73.5121,-639.514 105.278,-736.566 157,-801 170.52,-817.843 189.976,-832.645 205.474,-842.942"/>
<polygon fill="midnightblue" stroke="midnightblue" points="203.763,-846.002 214.067,-848.465 207.547,-840.114 203.763,-846.002"/>
</g>
<!-- Node89 -->
<g id="node4" class="node"><title>Node89</title>
<g id="a_node4"><a xlink:href="classCoolBoard.html#aaa24480b273fc095a1356a589c333781" target="_top" xlink:title="CoolBoard::getLogInterval">
<polygon fill="white" stroke="black" points="166.5,-772.5 166.5,-791.5 296.5,-791.5 296.5,-772.5 166.5,-772.5"/>
<text text-anchor="middle" x="231.5" y="-779.5" font-family="Helvetica,sans-Serif" font-size="10.00">CoolBoard::getLogInterval</text>
</a>
</g>
</g>
<!-- Node86&#45;&gt;Node89 -->
<g id="edge3" class="edge"><title>Node86&#45;&gt;Node89</title>
<path fill="none" stroke="midnightblue" d="M64.178,-608.53C72.6403,-636.832 101.582,-721.026 157,-763 159.494,-764.889 162.157,-766.59 164.936,-768.124"/>
<polygon fill="midnightblue" stroke="midnightblue" points="163.608,-771.367 174.145,-772.47 166.596,-765.037 163.608,-771.367"/>
</g>
<!-- Node90 -->
<g id="node5" class="node"><title>Node90</title>
<g id="a_node5"><a xlink:href="classCoolFileSystem.html#a5c58bca3735c0ed3efb268d70ef998ef" target="_top" xlink:title="CoolFileSystem::getSensor\lSavedData">
<polygon fill="white" stroke="black" points="163,-723 163,-753 300,-753 300,-723 163,-723"/>
<text text-anchor="start" x="171" y="-741" font-family="Helvetica,sans-Serif" font-size="10.00">CoolFileSystem::getSensor</text>
<text text-anchor="middle" x="231.5" y="-730" font-family="Helvetica,sans-Serif" font-size="10.00">SavedData</text>
</a>
</g>
</g>
<!-- Node86&#45;&gt;Node90 -->
<g id="edge4" class="edge"><title>Node86&#45;&gt;Node90</title>
<path fill="none" stroke="midnightblue" d="M67.0949,-608.789C80.0745,-630.651 114.401,-683.815 157,-713 159.867,-714.964 162.901,-716.786 166.041,-718.475"/>
<polygon fill="midnightblue" stroke="midnightblue" points="164.592,-721.662 175.116,-722.888 167.654,-715.367 164.592,-721.662"/>
</g>
<!-- Node91 -->
<g id="node6" class="node"><title>Node91</title>
<g id="a_node6"><a xlink:href="classCoolFileSystem.html#a5a7eaeea7a9fbf8aaef651d862fa3b5b" target="_top" xlink:title="CoolFileSystem::isDataSaved">
<polygon fill="white" stroke="black" points="157,-684.5 157,-703.5 306,-703.5 306,-684.5 157,-684.5"/>
<text text-anchor="middle" x="231.5" y="-691.5" font-family="Helvetica,sans-Serif" font-size="10.00">CoolFileSystem::isDataSaved</text>
</a>
</g>
</g>
<!-- Node86&#45;&gt;Node91 -->
<g id="edge5" class="edge"><title>Node86&#45;&gt;Node91</title>
<path fill="none" stroke="midnightblue" d="M71.9013,-608.544C88.6729,-623.495 123.237,-652.532 157,-670 165.318,-674.303 174.561,-678.044 183.607,-681.208"/>
<polygon fill="midnightblue" stroke="midnightblue" points="182.699,-684.594 193.292,-684.415 184.899,-677.949 182.699,-684.594"/>
</g>
<!-- Node92 -->
<g id="node7" class="node"><title>Node92</title>
<g id="a_node7"><a xlink:href="classCoolMQTT.html#aa5eaae967b562b62cbcf2b8d81f6e5d5" target="_top" xlink:title="CoolMQTT::mqttLoop">
<polygon fill="white" stroke="black" points="361.5,-848.5 361.5,-867.5 472.5,-867.5 472.5,-848.5 361.5,-848.5"/>
<text text-anchor="middle" x="417" y="-855.5" font-family="Helvetica,sans-Serif" font-size="10.00">CoolMQTT::mqttLoop</text>
</a>
</g>
</g>
<!-- Node86&#45;&gt;Node92 -->
<g id="edge6" class="edge"><title>Node86&#45;&gt;Node92</title>
<path fill="none" stroke="midnightblue" d="M83.206,-608.568C102.374,-616.793 131.205,-628.617 157,-637 221.996,-658.122 258.494,-625.869 306,-675 357.873,-728.647 290.171,-785.311 342,-839 345.006,-842.113 348.447,-844.742 352.164,-846.958"/>
<polygon fill="midnightblue" stroke="midnightblue" points="350.743,-850.16 361.263,-851.417 353.823,-843.874 350.743,-850.16"/>
</g>
<!-- Node93 -->
<g id="node8" class="node"><title>Node93</title>
<g id="a_node8"><a xlink:href="classCoolMQTT.html#ace977b3e90ab14b1199fe5c4fb0a13ec" target="_top" xlink:title="CoolMQTT::publish">
<polygon fill="white" stroke="black" points="366.5,-810.5 366.5,-829.5 467.5,-829.5 467.5,-810.5 366.5,-810.5"/>
<text text-anchor="middle" x="417" y="-817.5" font-family="Helvetica,sans-Serif" font-size="10.00">CoolMQTT::publish</text>
</a>
</g>
</g>
<!-- Node86&#45;&gt;Node93 -->
<g id="edge7" class="edge"><title>Node86&#45;&gt;Node93</title>
<path fill="none" stroke="midnightblue" d="M121.018,-602.038C184.696,-606.539 280.059,-617.29 306,-642 358.463,-691.974 291.506,-749.037 342,-801 346.204,-805.327 351.251,-808.716 356.707,-811.364"/>
<polygon fill="midnightblue" stroke="midnightblue" points="355.616,-814.697 366.201,-815.155 358.212,-808.196 355.616,-814.697"/>
</g>
<!-- Node94 -->
<g id="node9" class="node"><title>Node94</title>
<g id="a_node9"><a xlink:href="classCoolMQTT.html#ae3c18f6ae9723746d32765f1c8f176ca" target="_top" xlink:title="CoolMQTT::read">
<polygon fill="white" stroke="black" points="187,-532.5 187,-551.5 276,-551.5 276,-532.5 187,-532.5"/>
<text text-anchor="middle" x="231.5" y="-539.5" font-family="Helvetica,sans-Serif" font-size="10.00">CoolMQTT::read</text>
</a>
</g>
</g>
<!-- Node86&#45;&gt;Node94 -->
<g id="edge8" class="edge"><title>Node86&#45;&gt;Node94</title>
<path fill="none" stroke="midnightblue" d="M83.2128,-589.452C102.385,-581.242 131.218,-569.425 157,-561 164.399,-558.582 172.297,-556.269 180.068,-554.14"/>
<polygon fill="midnightblue" stroke="midnightblue" points="181.036,-557.504 189.799,-551.549 179.235,-550.74 181.036,-557.504"/>
</g>
<!-- Node95 -->
<g id="node10" class="node"><title>Node95</title>
<g id="a_node10"><a xlink:href="classCoolBoard.html#ad03abdce2e65f520bbf2cff0f2d083cf" target="_top" xlink:title="CoolBoard::readSensors">
<polygon fill="white" stroke="black" points="170,-266.5 170,-285.5 293,-285.5 293,-266.5 170,-266.5"/>
<text text-anchor="middle" x="231.5" y="-273.5" font-family="Helvetica,sans-Serif" font-size="10.00">CoolBoard::readSensors</text>
</a>
</g>
</g>
<!-- Node86&#45;&gt;Node95 -->
<g id="edge9" class="edge"><title>Node86&#45;&gt;Node95</title>
<path fill="none" stroke="midnightblue" d="M66.5578,-589.333C90.0764,-544.383 188.937,-355.437 220.658,-294.81"/>
<polygon fill="midnightblue" stroke="midnightblue" points="223.927,-296.112 225.462,-285.629 217.725,-292.867 223.927,-296.112"/>
</g>
<!-- Node108 -->
<g id="node23" class="node"><title>Node108</title>
<g id="a_node23"><a xlink:href="classCoolBoard.html#a5d0c8ff93b615efd676be432de9f164a" target="_top" xlink:title="CoolBoard::sleep">
<polygon fill="white" stroke="black" points="185.5,-152.5 185.5,-171.5 277.5,-171.5 277.5,-152.5 185.5,-152.5"/>
<text text-anchor="middle" x="231.5" y="-159.5" font-family="Helvetica,sans-Serif" font-size="10.00">CoolBoard::sleep</text>
</a>
</g>
</g>
<!-- Node86&#45;&gt;Node108 -->
<g id="edge24" class="edge"><title>Node86&#45;&gt;Node108</title>
<path fill="none" stroke="midnightblue" d="M62.3739,-589.215C67.665,-532.129 97.2024,-242.517 157,-181 162.179,-175.672 168.641,-171.769 175.571,-168.923"/>
<polygon fill="midnightblue" stroke="midnightblue" points="176.878,-172.175 185.232,-165.66 174.638,-165.543 176.878,-172.175"/>
</g>
<!-- Node109 -->
<g id="node24" class="node"><title>Node109</title>
<g id="a_node24"><a xlink:href="classCoolTime.html#aae601f795452cfa48d9fb337aed483a8" target="_top" xlink:title="CoolTime::update">
<polygon fill="white" stroke="black" points="184.5,-57.5 184.5,-76.5 278.5,-76.5 278.5,-57.5 184.5,-57.5"/>
<text text-anchor="middle" x="231.5" y="-64.5" font-family="Helvetica,sans-Serif" font-size="10.00">CoolTime::update</text>
</a>
</g>
</g>
<!-- Node86&#45;&gt;Node109 -->
<g id="edge25" class="edge"><title>Node86&#45;&gt;Node109</title>
<path fill="none" stroke="midnightblue" d="M61.5821,-589.348C62.3861,-539.318 70.7955,-305.57 157,-143 169.741,-118.972 192.356,-97.2979 209.147,-83.3027"/>
<polygon fill="midnightblue" stroke="midnightblue" points="211.729,-85.7163 217.313,-76.7123 207.333,-80.2689 211.729,-85.7163"/>
</g>
<!-- Node115 -->
<g id="node30" class="node"><title>Node115</title>
<g id="a_node30"><a xlink:href="classCoolBoard.html#a8612756d3f73198cdde857a66f0fe690" target="_top" xlink:title="CoolBoard::update">
<polygon fill="white" stroke="black" points="182.5,-570.5 182.5,-589.5 280.5,-589.5 280.5,-570.5 182.5,-570.5"/>
<text text-anchor="middle" x="231.5" y="-577.5" font-family="Helvetica,sans-Serif" font-size="10.00">CoolBoard::update</text>
</a>
</g>
</g>
<!-- Node86&#45;&gt;Node115 -->
<g id="edge31" class="edge"><title>Node86&#45;&gt;Node115</title>
<path fill="none" stroke="midnightblue" d="M121.083,-592.301C137.688,-590.434 155.703,-588.409 172.232,-586.551"/>
<polygon fill="midnightblue" stroke="midnightblue" points="172.759,-590.014 182.305,-585.418 171.977,-583.058 172.759,-590.014"/>
</g>
<!-- Node131 -->
<g id="node46" class="node"><title>Node131</title>
<g id="a_node46"><a xlink:href="classCoolBoard.html#ae7358fb6e623cfc81b775f5f1734909b" target="_top" xlink:title="CoolBoard::userData">
<polygon fill="white" stroke="black" points="177.5,-190.5 177.5,-209.5 285.5,-209.5 285.5,-190.5 177.5,-190.5"/>
<text text-anchor="middle" x="231.5" y="-197.5" font-family="Helvetica,sans-Serif" font-size="10.00">CoolBoard::userData</text>
</a>
</g>
</g>
<!-- Node86&#45;&gt;Node131 -->
<g id="edge49" class="edge"><title>Node86&#45;&gt;Node131</title>
<path fill="none" stroke="midnightblue" d="M62.0108,-589.393C64.6952,-546.711 80.1461,-371.354 157,-257 168.821,-239.41 187.84,-224.875 203.569,-214.885"/>
<polygon fill="midnightblue" stroke="midnightblue" points="205.64,-217.722 212.37,-209.54 202.006,-211.739 205.64,-217.722"/>
</g>
<!-- Node88 -->
<g id="node3" class="node"><title>Node88</title>
<g id="a_node3"><a xlink:href="classJetpack.html#a338f1af8cbc6504ac69b47c7328569b5" target="_top" xlink:title="Jetpack::write">
<polygon fill="white" stroke="black" points="378,-886.5 378,-905.5 456,-905.5 456,-886.5 378,-886.5"/>
<text text-anchor="middle" x="417" y="-893.5" font-family="Helvetica,sans-Serif" font-size="10.00">Jetpack::write</text>
</a>
</g>
</g>
<!-- Node87&#45;&gt;Node88 -->
<g id="edge2" class="edge"><title>Node87&#45;&gt;Node88</title>
<path fill="none" stroke="midnightblue" d="M278.805,-867.589C306.038,-873.229 340.418,-880.348 367.949,-886.049"/>
<polygon fill="midnightblue" stroke="midnightblue" points="367.254,-889.48 377.756,-888.08 368.673,-882.625 367.254,-889.48"/>
</g>
<!-- Node96 -->
<g id="node11" class="node"><title>Node96</title>
<g id="a_node11"><a xlink:href="classCoolBoardSensors.html#a91badb2539d91fda8679f2a597874c48" target="_top" xlink:title="CoolBoardSensors::read">
<polygon fill="white" stroke="black" points="355.5,-304.5 355.5,-323.5 478.5,-323.5 478.5,-304.5 355.5,-304.5"/>
<text text-anchor="middle" x="417" y="-311.5" font-family="Helvetica,sans-Serif" font-size="10.00">CoolBoardSensors::read</text>
</a>
</g>
</g>
<!-- Node95&#45;&gt;Node96 -->
<g id="edge10" class="edge"><title>Node95&#45;&gt;Node96</title>
<path fill="none" stroke="midnightblue" d="M278.805,-285.589C303.456,-290.694 333.963,-297.011 359.945,-302.392"/>
<polygon fill="midnightblue" stroke="midnightblue" points="359.526,-305.879 370.028,-304.48 360.946,-299.025 359.526,-305.879"/>
</g>
<!-- Node100 -->
<g id="node15" class="node"><title>Node100</title>
<g id="a_node15"><a xlink:href="classExternalSensors.html#a53177b81eca3be89508b5511ddcd00fc" target="_top" xlink:title="ExternalSensors::read">
<polygon fill="white" stroke="black" points="360.5,-266.5 360.5,-285.5 473.5,-285.5 473.5,-266.5 360.5,-266.5"/>
<text text-anchor="middle" x="417" y="-273.5" font-family="Helvetica,sans-Serif" font-size="10.00">ExternalSensors::read</text>
</a>
</g>
</g>
<!-- Node95&#45;&gt;Node100 -->
<g id="edge14" class="edge"><title>Node95&#45;&gt;Node100</title>
<path fill="none" stroke="midnightblue" d="M293.093,-276C311.414,-276 331.616,-276 350.257,-276"/>
<polygon fill="midnightblue" stroke="midnightblue" points="350.43,-279.5 360.43,-276 350.43,-272.5 350.43,-279.5"/>
</g>
<!-- Node101 -->
<g id="node16" class="node"><title>Node101</title>
<g id="a_node16"><a xlink:href="classIrene3000.html#a852a170feea994ea1df01c6b245b5d9a" target="_top" xlink:title="Irene3000::read">
<polygon fill="white" stroke="black" points="375,-228.5 375,-247.5 459,-247.5 459,-228.5 375,-228.5"/>
<text text-anchor="middle" x="417" y="-235.5" font-family="Helvetica,sans-Serif" font-size="10.00">Irene3000::read</text>
</a>
</g>
</g>
<!-- Node95&#45;&gt;Node101 -->
<g id="edge15" class="edge"><title>Node95&#45;&gt;Node101</title>
<path fill="none" stroke="midnightblue" d="M278.805,-266.411C304.977,-260.991 337.75,-254.204 364.701,-248.623"/>
<polygon fill="midnightblue" stroke="midnightblue" points="365.636,-252.004 374.719,-246.549 364.217,-245.149 365.636,-252.004"/>
</g>
<!-- Node106 -->
<g id="node21" class="node"><title>Node106</title>
<g id="a_node21"><a xlink:href="classCoolTime.html#a7a7501c5ca77dd1248bea704c44f986c" target="_top" xlink:title="CoolTime::getTimeDate">
<polygon fill="white" stroke="black" points="548,-152.5 548,-171.5 669,-171.5 669,-152.5 548,-152.5"/>
<text text-anchor="middle" x="608.5" y="-159.5" font-family="Helvetica,sans-Serif" font-size="10.00">CoolTime::getTimeDate</text>
</a>
</g>
</g>
<!-- Node95&#45;&gt;Node106 -->
<g id="edge22" class="edge"><title>Node95&#45;&gt;Node106</title>
<path fill="none" stroke="midnightblue" d="M247.852,-266.309C268.501,-253.679 306.713,-231.71 342,-219 378.704,-205.78 478.919,-185.83 545.184,-173.377"/>
<polygon fill="midnightblue" stroke="midnightblue" points="545.922,-176.799 555.107,-171.52 544.634,-169.919 545.922,-176.799"/>
</g>
<!-- Node97 -->
<g id="node12" class="node"><title>Node97</title>
<g id="a_node12"><a xlink:href="classCoolBoardSensors.html#acad6a8418c66d36868caca23c844ecb6" target="_top" xlink:title="CoolBoardSensors::initReadI2C">
<polygon fill="white" stroke="black" points="530.5,-380.5 530.5,-399.5 686.5,-399.5 686.5,-380.5 530.5,-380.5"/>
<text text-anchor="middle" x="608.5" y="-387.5" font-family="Helvetica,sans-Serif" font-size="10.00">CoolBoardSensors::initReadI2C</text>
</a>
</g>
</g>
<!-- Node96&#45;&gt;Node97 -->
<g id="edge11" class="edge"><title>Node96&#45;&gt;Node97</title>
<path fill="none" stroke="midnightblue" d="M470.427,-323.514C477.945,-325.99 485.37,-329.098 492,-333 512.051,-344.799 507.851,-359.37 528,-371 531.908,-373.256 536.072,-375.244 540.367,-376.997"/>
<polygon fill="midnightblue" stroke="midnightblue" points="539.339,-380.347 549.933,-380.47 541.728,-373.768 539.339,-380.347"/>
</g>
<!-- Node98 -->
<g id="node13" class="node"><title>Node98</title>
<g id="a_node13"><a xlink:href="classCoolBoardSensors.html#a6944b6ea7bce8e2fce1b434acfd9d5f3" target="_top" xlink:title="CoolBoardSensors::readVBat">
<polygon fill="white" stroke="black" points="536,-342.5 536,-361.5 681,-361.5 681,-342.5 536,-342.5"/>
<text text-anchor="middle" x="608.5" y="-349.5" font-family="Helvetica,sans-Serif" font-size="10.00">CoolBoardSensors::readVBat</text>
</a>
</g>
</g>
<!-- Node96&#45;&gt;Node98 -->
<g id="edge12" class="edge"><title>Node96&#45;&gt;Node98</title>
<path fill="none" stroke="midnightblue" d="M465.819,-323.589C491.389,-328.716 523.059,-335.067 549.968,-340.463"/>
<polygon fill="midnightblue" stroke="midnightblue" points="549.532,-343.945 560.025,-342.48 550.908,-337.082 549.532,-343.945"/>
</g>
<!-- Node99 -->
<g id="node14" class="node"><title>Node99</title>
<g id="a_node14"><a xlink:href="classCoolBoardSensors.html#a8761bff50373c485f4465c8db47d0633" target="_top" xlink:title="CoolBoardSensors::readMoisture">
<polygon fill="white" stroke="black" points="528,-304.5 528,-323.5 689,-323.5 689,-304.5 528,-304.5"/>
<text text-anchor="middle" x="608.5" y="-311.5" font-family="Helvetica,sans-Serif" font-size="10.00">CoolBoardSensors::readMoisture</text>
</a>
</g>
</g>
<!-- Node96&#45;&gt;Node99 -->
<g id="edge13" class="edge"><title>Node96&#45;&gt;Node99</title>
<path fill="none" stroke="midnightblue" d="M478.741,-314C491.163,-314 504.485,-314 517.679,-314"/>
<polygon fill="midnightblue" stroke="midnightblue" points="517.727,-317.5 527.727,-314 517.727,-310.5 517.727,-317.5"/>
</g>
<!-- Node102 -->
<g id="node17" class="node"><title>Node102</title>
<g id="a_node17"><a xlink:href="classIrene3000.html#a94ad40f281d83ad1be20bf1edd6fe802" target="_top" xlink:title="Irene3000::readTemp">
<polygon fill="white" stroke="black" points="554,-266.5 554,-285.5 663,-285.5 663,-266.5 554,-266.5"/>
<text text-anchor="middle" x="608.5" y="-273.5" font-family="Helvetica,sans-Serif" font-size="10.00">Irene3000::readTemp</text>
</a>
</g>
</g>
<!-- Node101&#45;&gt;Node102 -->
<g id="edge16" class="edge"><title>Node101&#45;&gt;Node102</title>
<path fill="none" stroke="midnightblue" d="M459.119,-246.245C485.702,-251.576 520.683,-258.591 550.003,-264.47"/>
<polygon fill="midnightblue" stroke="midnightblue" points="549.622,-267.963 560.115,-266.498 550.998,-261.1 549.622,-267.963"/>
</g>
<!-- Node104 -->
<g id="node19" class="node"><title>Node104</title>
<g id="a_node19"><a xlink:href="classIrene3000.html#abf3db725fabb0634ec889b32068a5eec" target="_top" xlink:title="Irene3000::readPh">
<polygon fill="white" stroke="black" points="560.5,-228.5 560.5,-247.5 656.5,-247.5 656.5,-228.5 560.5,-228.5"/>
<text text-anchor="middle" x="608.5" y="-235.5" font-family="Helvetica,sans-Serif" font-size="10.00">Irene3000::readPh</text>
</a>
</g>
</g>
<!-- Node101&#45;&gt;Node104 -->
<g id="edge18" class="edge"><title>Node101&#45;&gt;Node104</title>
<path fill="none" stroke="midnightblue" d="M459.119,-238C485.799,-238 520.939,-238 550.325,-238"/>
<polygon fill="midnightblue" stroke="midnightblue" points="550.456,-241.5 560.456,-238 550.456,-234.5 550.456,-241.5"/>
</g>
<!-- Node105 -->
<g id="node20" class="node"><title>Node105</title>
<g id="a_node20"><a xlink:href="classIrene3000.html#ae73bd2ed14a199a7e83f4d6458476a7c" target="_top" xlink:title="Irene3000::readADSChannel2">
<polygon fill="white" stroke="black" points="535.5,-190.5 535.5,-209.5 681.5,-209.5 681.5,-190.5 535.5,-190.5"/>
<text text-anchor="middle" x="608.5" y="-197.5" font-family="Helvetica,sans-Serif" font-size="10.00">Irene3000::readADSChannel2</text>
</a>
</g>
</g>
<!-- Node101&#45;&gt;Node105 -->
<g id="edge20" class="edge"><title>Node101&#45;&gt;Node105</title>
<path fill="none" stroke="midnightblue" d="M459.119,-229.755C485.702,-224.424 520.683,-217.409 550.003,-211.53"/>
<polygon fill="midnightblue" stroke="midnightblue" points="550.998,-214.9 560.115,-209.502 549.622,-208.037 550.998,-214.9"/>
</g>
<!-- Node103 -->
<g id="node18" class="node"><title>Node103</title>
<g id="a_node18"><a xlink:href="classIrene3000.html#aff7c5da186b388e7272e63ff88a20c34" target="_top" xlink:title="Irene3000::setGain">
<polygon fill="white" stroke="black" points="734.5,-228.5 734.5,-247.5 833.5,-247.5 833.5,-228.5 734.5,-228.5"/>
<text text-anchor="middle" x="784" y="-235.5" font-family="Helvetica,sans-Serif" font-size="10.00">Irene3000::setGain</text>
</a>
</g>
</g>
<!-- Node102&#45;&gt;Node103 -->
<g id="edge17" class="edge"><title>Node102&#45;&gt;Node103</title>
<path fill="none" stroke="midnightblue" d="M653.281,-266.411C676.486,-261.329 705.178,-255.045 729.673,-249.68"/>
<polygon fill="midnightblue" stroke="midnightblue" points="730.514,-253.079 739.533,-247.52 729.016,-246.241 730.514,-253.079"/>
</g>
<!-- Node104&#45;&gt;Node103 -->
<g id="edge19" class="edge"><title>Node104&#45;&gt;Node103</title>
<path fill="none" stroke="midnightblue" d="M656.91,-238C677.697,-238 702.308,-238 724.245,-238"/>
<polygon fill="midnightblue" stroke="midnightblue" points="724.44,-241.5 734.44,-238 724.44,-234.5 724.44,-241.5"/>
</g>
<!-- Node105&#45;&gt;Node103 -->
<g id="edge21" class="edge"><title>Node105&#45;&gt;Node103</title>
<path fill="none" stroke="midnightblue" d="M653.281,-209.589C676.486,-214.671 705.178,-220.955 729.673,-226.32"/>
<polygon fill="midnightblue" stroke="midnightblue" points="729.016,-229.759 739.533,-228.48 730.514,-222.921 729.016,-229.759"/>
</g>
<!-- Node107 -->
<g id="node22" class="node"><title>Node107</title>
<g id="a_node22"><a xlink:href="classCoolTime.html#acd537cd4210d7bde4e1f5c47d2ac0456" target="_top" xlink:title="CoolTime::formatDigits">
<polygon fill="white" stroke="black" points="725,-133.5 725,-152.5 843,-152.5 843,-133.5 725,-133.5"/>
<text text-anchor="middle" x="784" y="-140.5" font-family="Helvetica,sans-Serif" font-size="10.00">CoolTime::formatDigits</text>
</a>
</g>
</g>
<!-- Node106&#45;&gt;Node107 -->
<g id="edge23" class="edge"><title>Node106&#45;&gt;Node107</title>
<path fill="none" stroke="midnightblue" d="M669.209,-155.461C683.863,-153.856 699.661,-152.126 714.686,-150.481"/>
<polygon fill="midnightblue" stroke="midnightblue" points="715.381,-153.926 724.941,-149.358 714.619,-146.968 715.381,-153.926"/>
</g>
<!-- Node110 -->
<g id="node25" class="node"><title>Node110</title>
<g id="a_node25"><a xlink:href="classCoolTime.html#a5ae038a4498602b189f76a10bf02adf8" target="_top" xlink:title="CoolTime::isTimeSync">
<polygon fill="white" stroke="black" points="359,-76.5 359,-95.5 475,-95.5 475,-76.5 359,-76.5"/>
<text text-anchor="middle" x="417" y="-83.5" font-family="Helvetica,sans-Serif" font-size="10.00">CoolTime::isTimeSync</text>
</a>
</g>
</g>
<!-- Node109&#45;&gt;Node110 -->
<g id="edge26" class="edge"><title>Node109&#45;&gt;Node110</title>
<path fill="none" stroke="midnightblue" d="M278.805,-71.7945C299.984,-73.9875 325.486,-76.628 348.727,-79.0344"/>
<polygon fill="midnightblue" stroke="midnightblue" points="348.567,-82.5365 358.875,-80.0851 349.288,-75.5737 348.567,-82.5365"/>
</g>
<!-- Node112 -->
<g id="node27" class="node"><title>Node112</title>
<g id="a_node27"><a xlink:href="classCoolTime.html#a41fbbbfd651c2079f54d4b2911e4c705" target="_top" xlink:title="CoolTime::getNtpTime">
<polygon fill="white" stroke="black" points="359,-38.5 359,-57.5 475,-57.5 475,-38.5 359,-38.5"/>
<text text-anchor="middle" x="417" y="-45.5" font-family="Helvetica,sans-Serif" font-size="10.00">CoolTime::getNtpTime</text>
</a>
</g>
</g>
<!-- Node109&#45;&gt;Node112 -->
<g id="edge28" class="edge"><title>Node109&#45;&gt;Node112</title>
<path fill="none" stroke="midnightblue" d="M278.805,-62.2055C299.984,-60.0125 325.486,-57.372 348.727,-54.9656"/>
<polygon fill="midnightblue" stroke="midnightblue" points="349.288,-58.4263 358.875,-53.9149 348.567,-51.4635 349.288,-58.4263"/>
</g>
<!-- Node114 -->
<g id="node29" class="node"><title>Node114</title>
<g id="a_node29"><a xlink:href="classCoolTime.html#ae9658c9b377510d469e3b88edf33ee85" target="_top" xlink:title="CoolTime::saveTimeSync">
<polygon fill="white" stroke="black" points="352,-0.5 352,-19.5 482,-19.5 482,-0.5 352,-0.5"/>
<text text-anchor="middle" x="417" y="-7.5" font-family="Helvetica,sans-Serif" font-size="10.00">CoolTime::saveTimeSync</text>
</a>
</g>
</g>
<!-- Node109&#45;&gt;Node114 -->
<g id="edge30" class="edge"><title>Node109&#45;&gt;Node114</title>
<path fill="none" stroke="midnightblue" d="M257.969,-57.4904C280.038,-49.4122 312.907,-37.7666 342,-29 349.855,-26.633 358.234,-24.3007 366.425,-22.1244"/>
<polygon fill="midnightblue" stroke="midnightblue" points="367.483,-25.4658 376.276,-19.5555 365.717,-18.6923 367.483,-25.4658"/>
</g>
<!-- Node111 -->
<g id="node26" class="node"><title>Node111</title>
<g id="a_node26"><a xlink:href="classCoolTime.html#a5d17f707a9d337720493b2bce9d41c21" target="_top" xlink:title="CoolTime::getLastSyncTime">
<polygon fill="white" stroke="black" points="538,-76.5 538,-95.5 679,-95.5 679,-76.5 538,-76.5"/>
<text text-anchor="middle" x="608.5" y="-83.5" font-family="Helvetica,sans-Serif" font-size="10.00">CoolTime::getLastSyncTime</text>
</a>
</g>
</g>
<!-- Node110&#45;&gt;Node111 -->
<g id="edge27" class="edge"><title>Node110&#45;&gt;Node111</title>
<path fill="none" stroke="midnightblue" d="M475.113,-86C491.602,-86 509.907,-86 527.514,-86"/>
<polygon fill="midnightblue" stroke="midnightblue" points="527.782,-89.5001 537.782,-86 527.782,-82.5001 527.782,-89.5001"/>
</g>
<!-- Node113 -->
<g id="node28" class="node"><title>Node113</title>
<g id="a_node28"><a xlink:href="classCoolTime.html#a236a38d120dc53bc67456d763838c5a1" target="_top" xlink:title="CoolTime::sendNTPpacket">
<polygon fill="white" stroke="black" points="541,-38.5 541,-57.5 676,-57.5 676,-38.5 541,-38.5"/>
<text text-anchor="middle" x="608.5" y="-45.5" font-family="Helvetica,sans-Serif" font-size="10.00">CoolTime::sendNTPpacket</text>
</a>
</g>
</g>
<!-- Node112&#45;&gt;Node113 -->
<g id="edge29" class="edge"><title>Node112&#45;&gt;Node113</title>
<path fill="none" stroke="midnightblue" d="M475.113,-48C492.584,-48 512.093,-48 530.651,-48"/>
<polygon fill="midnightblue" stroke="midnightblue" points="530.845,-51.5001 540.845,-48 530.844,-44.5001 530.845,-51.5001"/>
</g>
<!-- Node115&#45;&gt;Node92 -->
<g id="edge48" class="edge"><title>Node115&#45;&gt;Node92</title>
<path fill="none" stroke="midnightblue" d="M249.784,-589.671C266.924,-600.22 292.519,-618.748 306,-642 350.642,-719 281.323,-773.882 342,-839 345.001,-842.221 348.467,-844.925 352.228,-847.194"/>
<polygon fill="midnightblue" stroke="midnightblue" points="350.94,-850.461 361.458,-851.734 354.029,-844.179 350.94,-850.461"/>
</g>
<!-- Node115&#45;&gt;Node93 -->
<g id="edge47" class="edge"><title>Node115&#45;&gt;Node93</title>
<path fill="none" stroke="midnightblue" d="M280.838,-587.656C290.326,-591.218 299.377,-596.418 306,-604 364.552,-671.034 281.323,-735.882 342,-801 346.171,-805.476 351.241,-808.956 356.751,-811.653"/>
<polygon fill="midnightblue" stroke="midnightblue" points="355.773,-815.032 366.358,-815.492 358.37,-808.531 355.773,-815.032"/>
</g>
<!-- Node116 -->
<g id="node31" class="node"><title>Node116</title>
<g id="a_node31"><a xlink:href="classCoolFileSystem.html#a32dad79ae80182a83e2e8f52286b7c7b" target="_top" xlink:title="CoolFileSystem::updateConfig\lFiles">
<polygon fill="white" stroke="black" points="342,-761 342,-791 492,-791 492,-761 342,-761"/>
<text text-anchor="start" x="350" y="-779" font-family="Helvetica,sans-Serif" font-size="10.00">CoolFileSystem::updateConfig</text>
<text text-anchor="middle" x="417" y="-768" font-family="Helvetica,sans-Serif" font-size="10.00">Files</text>
</a>
</g>
</g>
<!-- Node115&#45;&gt;Node116 -->
<g id="edge32" class="edge"><title>Node115&#45;&gt;Node116</title>
<path fill="none" stroke="midnightblue" d="M280.505,-587.956C290.012,-591.501 299.155,-596.618 306,-604 351.735,-653.323 296.516,-701.445 342,-751 343.229,-752.339 344.533,-753.607 345.899,-754.807"/>
<polygon fill="midnightblue" stroke="midnightblue" points="344.196,-757.897 354.338,-760.962 348.322,-752.241 344.196,-757.897"/>
</g>
<!-- Node117 -->
<g id="node32" class="node"><title>Node117</title>
<g id="a_node32"><a xlink:href="classCoolBoard.html#a583a874c09c07e70a6eb9229fc4beddb" target="_top" xlink:title="CoolBoard::config">
<polygon fill="white" stroke="black" points="369.5,-722.5 369.5,-741.5 464.5,-741.5 464.5,-722.5 369.5,-722.5"/>
<text text-anchor="middle" x="417" y="-729.5" font-family="Helvetica,sans-Serif" font-size="10.00">CoolBoard::config</text>
</a>
</g>
</g>
<!-- Node115&#45;&gt;Node117 -->
<g id="edge33" class="edge"><title>Node115&#45;&gt;Node117</title>
<path fill="none" stroke="midnightblue" d="M280.839,-588.654C290.1,-592.159 299.059,-597.083 306,-604 342.136,-640.014 304.725,-678.166 342,-713 347.079,-717.746 353.179,-721.345 359.67,-724.068"/>
<polygon fill="midnightblue" stroke="midnightblue" points="358.791,-727.469 369.386,-727.462 361.1,-720.86 358.791,-727.469"/>
</g>
<!-- Node119 -->
<g id="node34" class="node"><title>Node119</title>
<g id="a_node34"><a xlink:href="classCoolBoardSensors.html#a9a218895c5423375c33c08f2c56fb23a" target="_top" xlink:title="CoolBoardSensors::config">
<polygon fill="white" stroke="black" points="351.5,-684.5 351.5,-703.5 482.5,-703.5 482.5,-684.5 351.5,-684.5"/>
<text text-anchor="middle" x="417" y="-691.5" font-family="Helvetica,sans-Serif" font-size="10.00">CoolBoardSensors::config</text>
</a>
</g>
</g>
<!-- Node115&#45;&gt;Node119 -->
<g id="edge35" class="edge"><title>Node115&#45;&gt;Node119</title>
<path fill="none" stroke="midnightblue" d="M280.455,-589.625C289.637,-593.06 298.662,-597.711 306,-604 332.864,-627.024 314.41,-652.852 342,-675 344.279,-676.829 346.713,-678.485 349.26,-679.982"/>
<polygon fill="midnightblue" stroke="midnightblue" points="347.777,-683.154 358.288,-684.49 350.904,-676.891 347.777,-683.154"/>
</g>
<!-- Node120 -->
<g id="node35" class="node"><title>Node120</title>
<g id="a_node35"><a xlink:href="classCoolTime.html#a87c28260c1bc77091162cbcf1ee2e129" target="_top" xlink:title="CoolTime::config">
<polygon fill="white" stroke="black" points="371.5,-646.5 371.5,-665.5 462.5,-665.5 462.5,-646.5 371.5,-646.5"/>
<text text-anchor="middle" x="417" y="-653.5" font-family="Helvetica,sans-Serif" font-size="10.00">CoolTime::config</text>
</a>
</g>
</g>
<!-- Node115&#45;&gt;Node120 -->
<g id="edge36" class="edge"><title>Node115&#45;&gt;Node120</title>
<path fill="none" stroke="midnightblue" d="M272.357,-589.62C283.658,-593.236 295.685,-597.973 306,-604 324.741,-614.95 322.917,-626.658 342,-637 348.033,-640.27 354.65,-642.994 361.368,-645.259"/>
<polygon fill="midnightblue" stroke="midnightblue" points="360.641,-648.696 371.227,-648.26 362.68,-642 360.641,-648.696"/>
</g>
<!-- Node121 -->
<g id="node36" class="node"><title>Node121</title>
<g id="a_node36"><a xlink:href="classCoolBoardLed.html#a1b60e5e30bea96c49ed62ed1bf1ffc8b" target="_top" xlink:title="CoolBoardLed::config">
<polygon fill="white" stroke="black" points="362,-608.5 362,-627.5 472,-627.5 472,-608.5 362,-608.5"/>
<text text-anchor="middle" x="417" y="-615.5" font-family="Helvetica,sans-Serif" font-size="10.00">CoolBoardLed::config</text>
</a>
</g>
</g>
<!-- Node115&#45;&gt;Node121 -->
<g id="edge37" class="edge"><title>Node115&#45;&gt;Node121</title>
<path fill="none" stroke="midnightblue" d="M278.805,-589.589C303.456,-594.694 333.963,-601.011 359.945,-606.392"/>
<polygon fill="midnightblue" stroke="midnightblue" points="359.526,-609.879 370.028,-608.48 360.946,-603.025 359.526,-609.879"/>
</g>
<!-- Node122 -->
<g id="node37" class="node"><title>Node122</title>
<g id="a_node37"><a xlink:href="classCoolWifi.html#a4eb2f6b9b09dd588964b88b6c70122c0" target="_top" xlink:title="CoolWifi::config">
<polygon fill="white" stroke="black" points="374,-570.5 374,-589.5 460,-589.5 460,-570.5 374,-570.5"/>
<text text-anchor="middle" x="417" y="-577.5" font-family="Helvetica,sans-Serif" font-size="10.00">CoolWifi::config</text>
</a>
</g>
</g>
<!-- Node115&#45;&gt;Node122 -->
<g id="edge38" class="edge"><title>Node115&#45;&gt;Node122</title>
<path fill="none" stroke="midnightblue" d="M280.712,-580C306.211,-580 337.549,-580 363.641,-580"/>
<polygon fill="midnightblue" stroke="midnightblue" points="363.729,-583.5 373.729,-580 363.729,-576.5 363.729,-583.5"/>
</g>
<!-- Node123 -->
<g id="node38" class="node"><title>Node123</title>
<g id="a_node38"><a xlink:href="classCoolMQTT.html#a9b703de4f1358f0ee7a5e8c44979c648" target="_top" xlink:title="CoolMQTT::config">
<polygon fill="white" stroke="black" points="368.5,-532.5 368.5,-551.5 465.5,-551.5 465.5,-532.5 368.5,-532.5"/>
<text text-anchor="middle" x="417" y="-539.5" font-family="Helvetica,sans-Serif" font-size="10.00">CoolMQTT::config</text>
</a>
</g>
</g>
<!-- Node115&#45;&gt;Node123 -->
<g id="edge39" class="edge"><title>Node115&#45;&gt;Node123</title>
<path fill="none" stroke="midnightblue" d="M278.805,-570.411C303.456,-565.306 333.963,-558.989 359.945,-553.608"/>
<polygon fill="midnightblue" stroke="midnightblue" points="360.946,-556.975 370.028,-551.52 359.526,-550.121 360.946,-556.975"/>
</g>
<!-- Node124 -->
<g id="node39" class="node"><title>Node124</title>
<g id="a_node39"><a xlink:href="classJetpack.html#ab065ee83e244265a2223a22f3ee4a719" target="_top" xlink:title="Jetpack::config">
<polygon fill="white" stroke="black" points="375.5,-494.5 375.5,-513.5 458.5,-513.5 458.5,-494.5 375.5,-494.5"/>
<text text-anchor="middle" x="417" y="-501.5" font-family="Helvetica,sans-Serif" font-size="10.00">Jetpack::config</text>
</a>
</g>
</g>
<!-- Node115&#45;&gt;Node124 -->
<g id="edge40" class="edge"><title>Node115&#45;&gt;Node124</title>
<path fill="none" stroke="midnightblue" d="M280.706,-571.674C289.475,-569.026 298.279,-565.552 306,-561 326.041,-549.185 321.949,-534.799 342,-523 349.152,-518.792 357.228,-515.505 365.349,-512.942"/>
<polygon fill="midnightblue" stroke="midnightblue" points="366.543,-516.242 375.218,-510.16 364.644,-509.504 366.543,-516.242"/>
</g>
<!-- Node125 -->
<g id="node40" class="node"><title>Node125</title>
<g id="a_node40"><a xlink:href="classIrene3000.html#afed5c35e4b23963c157847ef27c11e9c" target="_top" xlink:title="Irene3000::config">
<polygon fill="white" stroke="black" points="371,-456.5 371,-475.5 463,-475.5 463,-456.5 371,-456.5"/>
<text text-anchor="middle" x="417" y="-463.5" font-family="Helvetica,sans-Serif" font-size="10.00">Irene3000::config</text>
</a>
</g>
</g>
<!-- Node115&#45;&gt;Node125 -->
<g id="edge41" class="edge"><title>Node115&#45;&gt;Node125</title>
<path fill="none" stroke="midnightblue" d="M280.875,-573.914C289.921,-571.078 298.787,-566.962 306,-561 334.809,-537.189 313.171,-508.787 342,-485 347.627,-480.357 354.252,-476.832 361.186,-474.159"/>
<polygon fill="midnightblue" stroke="midnightblue" points="362.357,-477.459 370.769,-471.017 360.176,-470.807 362.357,-477.459"/>
</g>
<!-- Node127 -->
<g id="node42" class="node"><title>Node127</title>
<g id="a_node42"><a xlink:href="classExternalSensors.html#a862a4bd11346b37270d0244c2adabe5a" target="_top" xlink:title="ExternalSensors::config">
<polygon fill="white" stroke="black" points="356.5,-418.5 356.5,-437.5 477.5,-437.5 477.5,-418.5 356.5,-418.5"/>
<text text-anchor="middle" x="417" y="-425.5" font-family="Helvetica,sans-Serif" font-size="10.00">ExternalSensors::config</text>
</a>
</g>
</g>
<!-- Node115&#45;&gt;Node127 -->
<g id="edge43" class="edge"><title>Node115&#45;&gt;Node127</title>
<path fill="none" stroke="midnightblue" d="M280.777,-574.904C290.043,-572.011 299.019,-567.621 306,-561 344.551,-524.436 303.419,-483.532 342,-447 343.682,-445.407 345.48,-443.943 347.369,-442.597"/>
<polygon fill="midnightblue" stroke="midnightblue" points="349.316,-445.513 356.163,-437.428 345.769,-439.478 349.316,-445.513"/>
</g>
<!-- Node128 -->
<g id="node43" class="node"><title>Node128</title>
<g id="a_node43"><a xlink:href="classCoolWifi.html#a46942fed90e475112cc10b78a32e7aaa" target="_top" xlink:title="CoolWifi::begin">
<polygon fill="white" stroke="black" points="375.5,-380.5 375.5,-399.5 458.5,-399.5 458.5,-380.5 375.5,-380.5"/>
<text text-anchor="middle" x="417" y="-387.5" font-family="Helvetica,sans-Serif" font-size="10.00">CoolWifi::begin</text>
</a>
</g>
</g>
<!-- Node115&#45;&gt;Node128 -->
<g id="edge44" class="edge"><title>Node115&#45;&gt;Node128</title>
<path fill="none" stroke="midnightblue" d="M280.776,-575.408C290.153,-572.493 299.174,-567.967 306,-561 354.587,-511.411 293.372,-458.549 342,-409 348.482,-402.396 356.926,-397.98 365.783,-395.05"/>
<polygon fill="midnightblue" stroke="midnightblue" points="366.745,-398.416 375.481,-392.421 364.914,-391.659 366.745,-398.416"/>
</g>
<!-- Node129 -->
<g id="node44" class="node"><title>Node129</title>
<g id="a_node44"><a xlink:href="classCoolMQTT.html#ac9248808641ebf3054ed0620ea9d0100" target="_top" xlink:title="CoolMQTT::begin">
<polygon fill="white" stroke="black" points="370,-342.5 370,-361.5 464,-361.5 464,-342.5 370,-342.5"/>
<text text-anchor="middle" x="417" y="-349.5" font-family="Helvetica,sans-Serif" font-size="10.00">CoolMQTT::begin</text>
</a>
</g>
</g>
<!-- Node115&#45;&gt;Node129 -->
<g id="edge45" class="edge"><title>Node115&#45;&gt;Node129</title>
<path fill="none" stroke="midnightblue" d="M280.638,-575.758C290.138,-572.834 299.244,-568.216 306,-561 364.744,-498.263 283.204,-433.689 342,-371 347.053,-365.612 353.409,-361.67 360.263,-358.798"/>
<polygon fill="midnightblue" stroke="midnightblue" points="361.518,-362.068 369.841,-355.511 359.246,-355.447 361.518,-362.068"/>
</g>
<!-- Node118 -->
<g id="node33" class="node"><title>Node118</title>
<g id="a_node33"><a xlink:href="classCoolFileSystem.html#a6ba6f666ed4c530174f8569d2c636748" target="_top" xlink:title="CoolFileSystem::begin">
<polygon fill="white" stroke="black" points="550.5,-722.5 550.5,-741.5 666.5,-741.5 666.5,-722.5 550.5,-722.5"/>
<text text-anchor="middle" x="608.5" y="-729.5" font-family="Helvetica,sans-Serif" font-size="10.00">CoolFileSystem::begin</text>
</a>
</g>
</g>
<!-- Node117&#45;&gt;Node118 -->
<g id="edge34" class="edge"><title>Node117&#45;&gt;Node118</title>
<path fill="none" stroke="midnightblue" d="M464.843,-732C487.577,-732 515.304,-732 540.248,-732"/>
<polygon fill="midnightblue" stroke="midnightblue" points="540.379,-735.5 550.379,-732 540.379,-728.5 540.379,-735.5"/>
</g>
<!-- Node126 -->
<g id="node41" class="node"><title>Node126</title>
<g id="a_node41"><a xlink:href="classIrene3000.html#abcad62d1201a59f8dd3ba87048002728" target="_top" xlink:title="Irene3000::gainConvert">
<polygon fill="white" stroke="black" points="549.5,-456.5 549.5,-475.5 667.5,-475.5 667.5,-456.5 549.5,-456.5"/>
<text text-anchor="middle" x="608.5" y="-463.5" font-family="Helvetica,sans-Serif" font-size="10.00">Irene3000::gainConvert</text>
</a>
</g>
</g>
<!-- Node125&#45;&gt;Node126 -->
<g id="edge42" class="edge"><title>Node125&#45;&gt;Node126</title>
<path fill="none" stroke="midnightblue" d="M463.39,-466C486.006,-466 513.826,-466 538.973,-466"/>
<polygon fill="midnightblue" stroke="midnightblue" points="539.193,-469.5 549.193,-466 539.193,-462.5 539.193,-469.5"/>
</g>
<!-- Node130 -->
<g id="node45" class="node"><title>Node130</title>
<g id="a_node45"><a xlink:href="classCoolMQTT.html#a30d82ad665bfb603f46ecdbc290775df" target="_top" xlink:title="CoolMQTT::callback">
<polygon fill="white" stroke="black" points="555,-418.5 555,-437.5 662,-437.5 662,-418.5 555,-418.5"/>
<text text-anchor="middle" x="608.5" y="-425.5" font-family="Helvetica,sans-Serif" font-size="10.00">CoolMQTT::callback</text>
</a>
</g>
</g>
<!-- Node129&#45;&gt;Node130 -->
<g id="edge46" class="edge"><title>Node129&#45;&gt;Node130</title>
<path fill="none" stroke="midnightblue" d="M464.198,-359.607C473.789,-362.335 483.541,-366.022 492,-371 512.051,-382.799 507.851,-397.37 528,-409 533.404,-412.119 539.297,-414.728 545.351,-416.908"/>
<polygon fill="midnightblue" stroke="midnightblue" points="544.36,-420.266 554.951,-419.995 546.502,-413.602 544.36,-420.266"/>
</g>
<!-- Node132 -->
<g id="node47" class="node"><title>Node132</title>
<g id="a_node47"><a xlink:href="classCoolMQTT.html#a373cc92fca7760d886f02d8a6e5b3f63" target="_top" xlink:title="CoolMQTT::getUser">
<polygon fill="white" stroke="black" points="364.5,-114.5 364.5,-133.5 469.5,-133.5 469.5,-114.5 364.5,-114.5"/>
<text text-anchor="middle" x="417" y="-121.5" font-family="Helvetica,sans-Serif" font-size="10.00">CoolMQTT::getUser</text>
</a>
</g>
</g>
<!-- Node131&#45;&gt;Node132 -->
<g id="edge50" class="edge"><title>Node131&#45;&gt;Node132</title>
<path fill="none" stroke="midnightblue" d="M284.573,-190.451C292.041,-187.981 299.415,-184.882 306,-181 326.041,-169.185 321.949,-154.799 342,-143 345.965,-140.667 350.215,-138.617 354.598,-136.816"/>
<polygon fill="midnightblue" stroke="midnightblue" points="356.155,-139.974 364.351,-133.261 353.757,-133.398 356.155,-139.974"/>
</g>
<!-- Node133 -->
<g id="node48" class="node"><title>Node133</title>
<g id="a_node48"><a xlink:href="classCoolTime.html#ac4f32ee513c1328d984306645e8785a4" target="_top" xlink:title="CoolTime::getESDate">
<polygon fill="white" stroke="black" points="360.5,-152.5 360.5,-171.5 473.5,-171.5 473.5,-152.5 360.5,-152.5"/>
<text text-anchor="middle" x="417" y="-159.5" font-family="Helvetica,sans-Serif" font-size="10.00">CoolTime::getESDate</text>
</a>
</g>
</g>
<!-- Node131&#45;&gt;Node133 -->
<g id="edge51" class="edge"><title>Node131&#45;&gt;Node133</title>
<path fill="none" stroke="midnightblue" d="M278.805,-190.411C303.456,-185.306 333.963,-178.989 359.945,-173.608"/>
<polygon fill="midnightblue" stroke="midnightblue" points="360.946,-176.975 370.028,-171.52 359.526,-170.121 360.946,-176.975"/>
</g>
<!-- Node133&#45;&gt;Node106 -->
<g id="edge52" class="edge"><title>Node133&#45;&gt;Node106</title>
<path fill="none" stroke="midnightblue" d="M473.576,-162C493.66,-162 516.595,-162 537.742,-162"/>
<polygon fill="midnightblue" stroke="midnightblue" points="537.959,-165.5 547.958,-162 537.958,-158.5 537.959,-165.5"/>
</g>
<!-- Node133&#45;&gt;Node107 -->
<g id="edge53" class="edge"><title>Node133&#45;&gt;Node107</title>
<path fill="none" stroke="midnightblue" d="M462.731,-152.488C482.616,-148.722 506.374,-144.854 528,-143 591.166,-137.585 663.456,-138.228 714.898,-139.846"/>
<polygon fill="midnightblue" stroke="midnightblue" points="714.787,-143.344 724.899,-140.181 715.022,-136.348 714.787,-143.344"/>
</g>
</g>
</svg>
        <g id="navigator" transform="translate(0 0)" fill="#404254">
                <rect fill="#f2f5e9" fill-opacity="0.5" stroke="#606060" stroke-width=".5" x="0" y="0" width="60" height="60"/>
                <use id="zoomplus" xlink:href="#zoomPlus" x="17" y="9" onmousedown="handleZoom(evt,'in')"/>
                <use id="zoomminus" xlink:href="#zoomMin" x="42" y="9" onmousedown="handleZoom(evt,'out')"/>
                <use id="reset" xlink:href="#resetDef" x="30" y="36" onmousedown="handleReset()"/>
                <g id="arrowUp" xlink:href="#dirArrow" transform="translate(30 24)" onmousedown="handlePan(0,-1)">
                  <use xlink:href="#rim" fill="#404040">
                        <set attributeName="fill" to="#808080" begin="arrowUp.mouseover" end="arrowUp.mouseout"/>
                  </use>
                  <path fill="none" stroke="white" stroke-width="1.5" d="M0,-3.0v7 M-2.5,-0.5L0,-3.0L2.5,-0.5"/>
                </g>
                <g id="arrowRight" xlink:href="#dirArrow" transform="rotate(90) translate(36 -43)" onmousedown="handlePan(1,0)">
                  <use xlink:href="#rim" fill="#404040">
                        <set attributeName="fill" to="#808080" begin="arrowRight.mouseover" end="arrowRight.mouseout"/>
                  </use>
                  <path fill="none" stroke="white" stroke-width="1.5" d="M0,-3.0v7 M-2.5,-0.5L0,-3.0L2.5,-0.5"/>
                </g>
                <g id="arrowDown" xlink:href="#dirArrow" transform="rotate(180) translate(-30 -48)" onmousedown="handlePan(0,1)">
                  <use xlink:href="#rim" fill="#404040">
                        <set attributeName="fill" to="#808080" begin="arrowDown.mouseover" end="arrowDown.mouseout"/>
                  </use>
                  <path fill="none" stroke="white" stroke-width="1.5" d="M0,-3.0v7 M-2.5,-0.5L0,-3.0L2.5,-0.5"/>
                </g>
                <g id="arrowLeft" xlink:href="#dirArrow" transform="rotate(270) translate(-36 17)" onmousedown="handlePan(-1,0)">
                  <use xlink:href="#rim" fill="#404040">
                        <set attributeName="fill" to="#808080" begin="arrowLeft.mouseover" end="arrowLeft.mouseout"/>
                  </use>
                  <path fill="none" stroke="white" stroke-width="1.5" d="M0,-3.0v7 M-2.5,-0.5L0,-3.0L2.5,-0.5"/>
                </g>
        </g>
        <svg viewBox="0 0 15 15" width="100%" height="30px" preserveAspectRatio="xMaxYMin meet">
         <g id="arrow_out" transform="scale(0.3 0.3)">
          <a xlink:href="classCoolBoard_aa0bbc4bc605e35618d18e68795c61363_cgraph_org.svg" target="_base">
           <rect id="button" ry="5" rx="5" y="6" x="6" height="38" width="38"
                fill="#f2f5e9" fill-opacity="0.5" stroke="#606060" stroke-width="1.0"/>
           <path id="arrow"
             d="M 11.500037,31.436501 C 11.940474,20.09759 22.043105,11.32322 32.158766,21.979434 L 37.068811,17.246167 C 37.068811,17.246167 37.088388,32 37.088388,32 L 22.160133,31.978069 C 22.160133,31.978069 26.997745,27.140456 26.997745,27.140456 C 18.528582,18.264221 13.291696,25.230495 11.500037,31.436501 z"
             style="fill:#404040;"/>
          </a>
         </g>
        </svg>
</svg>
