<?xml version="1.0" encoding="UTF-8" standalone="no"?>
<!DOCTYPE svg PUBLIC "-//W3C//DTD SVG 1.1//EN"
 "http://www.w3.org/Graphics/SVG/1.1/DTD/svg11.dtd">
<!-- Generated by graphviz version 2.38.0 (20140413.2041)
 -->
<!-- Title: CoolTime::saveTimeSync Pages: 1 -->
<svg width="559pt" height="91pt"
 viewBox="0.00 0.00 559.00 91.08" xmlns="http://www.w3.org/2000/svg" xmlns:xlink="http://www.w3.org/1999/xlink">
<g id="graph0" class="graph" transform="scale(1 1) rotate(0) translate(4 87.0829)">
<title>CoolTime::saveTimeSync</title>
<polygon fill="white" stroke="none" points="-4,4 -4,-87.0829 555,-87.0829 555,4 -4,4"/>
<!-- Node74 -->
<g id="node1" class="node"><title>Node74</title>
<polygon fill="#bfbfbf" stroke="black" points="0,-32.0414 0,-51.0414 130,-51.0414 130,-32.0414 0,-32.0414"/>
<text text-anchor="middle" x="65" y="-39.0414" font-family="Helvetica,sans-Serif" font-size="10.00">CoolTime::saveTimeSync</text>
</g>
<!-- Node75 -->
<g id="node2" class="node"><title>Node75</title>
<g id="a_node2"><a xlink:href="classCoolTime.html#a87c28260c1bc77091162cbcf1ee2e129" target="_top" xlink:title="CoolTime::config">
<polygon fill="white" stroke="black" points="167.5,-51.0414 167.5,-70.0414 258.5,-70.0414 258.5,-51.0414 167.5,-51.0414"/>
<text text-anchor="middle" x="213" y="-58.0414" font-family="Helvetica,sans-Serif" font-size="10.00">CoolTime::config</text>
</a>
</g>
</g>
<!-- Node74&#45;&gt;Node75 -->
<g id="edge1" class="edge"><title>Node74&#45;&gt;Node75</title>
<path fill="none" stroke="midnightblue" d="M140.098,-51.1844C149.388,-52.3933 158.653,-53.599 167.293,-54.7234"/>
<polygon fill="midnightblue" stroke="midnightblue" points="140.406,-47.695 130.038,-49.8751 139.502,-54.6364 140.406,-47.695"/>
</g>
<!-- Node79 -->
<g id="node6" class="node"><title>Node79</title>
<g id="a_node6"><a xlink:href="classCoolTime.html#aae601f795452cfa48d9fb337aed483a8" target="_top" xlink:title="CoolTime::update">
<polygon fill="white" stroke="black" points="166,-13.0414 166,-32.0414 260,-32.0414 260,-13.0414 166,-13.0414"/>
<text text-anchor="middle" x="213" y="-20.0414" font-family="Helvetica,sans-Serif" font-size="10.00">CoolTime::update</text>
</a>
</g>
</g>
<!-- Node74&#45;&gt;Node79 -->
<g id="edge5" class="edge"><title>Node74&#45;&gt;Node79</title>
<path fill="none" stroke="midnightblue" d="M140.015,-31.9093C148.87,-30.757 157.704,-29.6074 165.997,-28.5281"/>
<polygon fill="midnightblue" stroke="midnightblue" points="139.502,-28.4465 130.038,-33.2078 140.406,-35.3879 139.502,-28.4465"/>
</g>
<!-- Node76 -->
<g id="node3" class="node"><title>Node76</title>
<g id="a_node3"><a xlink:href="classCoolBoard.html#acba7c5aef7268b2c0044bdb54d3b9d76" target="_top" xlink:title="CoolBoard::begin">
<polygon fill="white" stroke="black" points="444.5,-51.0414 444.5,-70.0414 536.5,-70.0414 536.5,-51.0414 444.5,-51.0414"/>
<text text-anchor="middle" x="490.5" y="-58.0414" font-family="Helvetica,sans-Serif" font-size="10.00">CoolBoard::begin</text>
</a>
</g>
</g>
<!-- Node75&#45;&gt;Node76 -->
<g id="edge2" class="edge"><title>Node75&#45;&gt;Node76</title>
<path fill="none" stroke="midnightblue" d="M256.927,-72.4249C269.425,-75.3559 283.169,-78.0744 296,-79.5414 339.274,-84.4893 350.654,-83.8115 394,-79.5414 412.842,-77.6853 433.477,-73.8165 450.729,-70.0515"/>
<polygon fill="midnightblue" stroke="midnightblue" points="257.758,-69.025 247.212,-70.0486 256.094,-75.8245 257.758,-69.025"/>
</g>
<!-- Node77 -->
<g id="node4" class="node"><title>Node77</title>
<g id="a_node4"><a xlink:href="classCoolBoard.html#a8612756d3f73198cdde857a66f0fe690" target="_top" xlink:title="CoolBoard::update">
<polygon fill="white" stroke="black" points="296,-51.0414 296,-70.0414 394,-70.0414 394,-51.0414 296,-51.0414"/>
<text text-anchor="middle" x="345" y="-58.0414" font-family="Helvetica,sans-Serif" font-size="10.00">CoolBoard::update</text>
</a>
</g>
</g>
<!-- Node75&#45;&gt;Node77 -->
<g id="edge3" class="edge"><title>Node75&#45;&gt;Node77</title>
<path fill="none" stroke="midnightblue" d="M268.976,-60.5414C277.831,-60.5414 286.94,-60.5414 295.625,-60.5414"/>
<polygon fill="midnightblue" stroke="midnightblue" points="268.739,-57.0415 258.739,-60.5414 268.739,-64.0415 268.739,-57.0415"/>
</g>
<!-- Node78 -->
<g id="node5" class="node"><title>Node78</title>
<g id="a_node5"><a xlink:href="classCoolBoard.html#aa0bbc4bc605e35618d18e68795c61363" target="_top" xlink:title="CoolBoard::onLineMode">
<polygon fill="white" stroke="black" points="430,-13.0414 430,-32.0414 551,-32.0414 551,-13.0414 430,-13.0414"/>
<text text-anchor="middle" x="490.5" y="-20.0414" font-family="Helvetica,sans-Serif" font-size="10.00">CoolBoard::onLineMode</text>
</a>
</g>
</g>
<!-- Node77&#45;&gt;Node78 -->
<g id="edge4" class="edge"><title>Node77&#45;&gt;Node78</title>
<path fill="none" stroke="midnightblue" d="M391.973,-48.3673C411.816,-43.1127 434.693,-37.0548 453.3,-32.1274"/>
<polygon fill="midnightblue" stroke="midnightblue" points="390.982,-45.0091 382.211,-50.9524 392.774,-51.7759 390.982,-45.0091"/>
</g>
<!-- Node79&#45;&gt;Node78 -->
<g id="edge6" class="edge"><title>Node79&#45;&gt;Node78</title>
<path fill="none" stroke="midnightblue" d="M256.927,-10.658C269.425,-7.72697 283.169,-5.00851 296,-3.54144 339.274,1.40642 350.654,0.728595 394,-3.54144 412.842,-5.3976 433.477,-9.26634 450.729,-13.0314"/>
<polygon fill="midnightblue" stroke="midnightblue" points="256.094,-7.25838 247.212,-13.0343 257.758,-14.0579 256.094,-7.25838"/>
</g>
<!-- Node80 -->
<g id="node7" class="node"><title>Node80</title>
<g id="a_node7"><a xlink:href="classCoolTime.html#ab1976cf718b950bc31e003c3323b8adb" target="_top" xlink:title="CoolTime::begin">
<polygon fill="white" stroke="black" points="301,-13.0414 301,-32.0414 389,-32.0414 389,-13.0414 301,-13.0414"/>
<text text-anchor="middle" x="345" y="-20.0414" font-family="Helvetica,sans-Serif" font-size="10.00">CoolTime::begin</text>
</a>
</g>
</g>
<!-- Node79&#45;&gt;Node80 -->
<g id="edge7" class="edge"><title>Node79&#45;&gt;Node80</title>
<path fill="none" stroke="midnightblue" d="M270.337,-22.5414C280.612,-22.5414 291.18,-22.5414 300.991,-22.5414"/>
<polygon fill="midnightblue" stroke="midnightblue" points="270.199,-19.0415 260.199,-22.5414 270.199,-26.0415 270.199,-19.0415"/>
</g>
<!-- Node80&#45;&gt;Node76 -->
<g id="edge8" class="edge"><title>Node80&#45;&gt;Node76</title>
<path fill="none" stroke="midnightblue" d="M391.973,-34.7156C411.816,-39.9702 434.693,-46.028 453.3,-50.9555"/>
<polygon fill="midnightblue" stroke="midnightblue" points="392.774,-31.307 382.211,-32.1304 390.982,-38.0738 392.774,-31.307"/>
</g>
</g>
</svg>
