<?xml version="1.0" encoding="UTF-8" standalone="no"?>
<!DOCTYPE svg PUBLIC "-//W3C//DTD SVG 1.1//EN"
 "http://www.w3.org/Graphics/SVG/1.1/DTD/svg11.dtd">
<!-- Generated by graphviz version 2.38.0 (20140413.2041)
 -->
<!-- Title: CoolBoard::begin Pages: 1 -->
<svg width="472pt" height="826pt"
 viewBox="0.00 0.00 472.00 826.00" xmlns="http://www.w3.org/2000/svg" xmlns:xlink="http://www.w3.org/1999/xlink">
<g id="graph0" class="graph" transform="scale(1 1) rotate(0) translate(4 822)">
<title>CoolBoard::begin</title>
<polygon fill="white" stroke="none" points="-4,4 -4,-822 468,-822 468,4 -4,4"/>
<!-- Node0 -->
<g id="node1" class="node"><title>Node0</title>
<polygon fill="#bfbfbf" stroke="black" points="0,-399.5 0,-418.5 92,-418.5 92,-399.5 0,-399.5"/>
<text text-anchor="middle" x="46" y="-406.5" font-family="Helvetica,sans-Serif" font-size="10.00">CoolBoard::begin</text>
</g>
<!-- Node1 -->
<g id="node2" class="node"><title>Node1</title>
<g id="a_node2"><a xlink:href="classJetpack.html#a5a53e1ebf7aaf3bf3e0d37ea64ca09a7" target="_top" xlink:title="Jetpack::begin">
<polygon fill="white" stroke="black" points="160,-798.5 160,-817.5 240,-817.5 240,-798.5 160,-798.5"/>
<text text-anchor="middle" x="200" y="-805.5" font-family="Helvetica,sans-Serif" font-size="10.00">Jetpack::begin</text>
</a>
</g>
</g>
<!-- Node0&#45;&gt;Node1 -->
<g id="edge1" class="edge"><title>Node0&#45;&gt;Node1</title>
<path fill="none" stroke="midnightblue" d="M47.7106,-418.568C51.8655,-471.981 74.6936,-732.877 128,-789 134,-795.317 141.851,-799.616 150.138,-802.524"/>
<polygon fill="midnightblue" stroke="midnightblue" points="149.405,-805.955 159.981,-805.337 151.328,-799.224 149.405,-805.955"/>
</g>
<!-- Node2 -->
<g id="node3" class="node"><title>Node2</title>
<g id="a_node3"><a xlink:href="classCoolFileSystem.html#a6ba6f666ed4c530174f8569d2c636748" target="_top" xlink:title="CoolFileSystem::begin">
<polygon fill="white" stroke="black" points="142,-760.5 142,-779.5 258,-779.5 258,-760.5 142,-760.5"/>
<text text-anchor="middle" x="200" y="-767.5" font-family="Helvetica,sans-Serif" font-size="10.00">CoolFileSystem::begin</text>
</a>
</g>
</g>
<!-- Node0&#45;&gt;Node2 -->
<g id="edge2" class="edge"><title>Node0&#45;&gt;Node2</title>
<path fill="none" stroke="midnightblue" d="M47.9555,-418.588C53.1469,-468.807 79.53,-701.108 128,-751 129.625,-752.673 131.381,-754.204 133.239,-755.605"/>
<polygon fill="midnightblue" stroke="midnightblue" points="131.609,-758.711 141.965,-760.948 135.265,-752.741 131.609,-758.711"/>
</g>
<!-- Node3 -->
<g id="node4" class="node"><title>Node3</title>
<g id="a_node4"><a xlink:href="classCoolBoardLed.html#ae3cbde8affcc6f011cbd698c8ef911f6" target="_top" xlink:title="CoolBoardLed::begin">
<polygon fill="white" stroke="black" points="146.5,-722.5 146.5,-741.5 253.5,-741.5 253.5,-722.5 146.5,-722.5"/>
<text text-anchor="middle" x="200" y="-729.5" font-family="Helvetica,sans-Serif" font-size="10.00">CoolBoardLed::begin</text>
</a>
</g>
</g>
<!-- Node0&#45;&gt;Node3 -->
<g id="edge3" class="edge"><title>Node0&#45;&gt;Node3</title>
<path fill="none" stroke="midnightblue" d="M48.2793,-418.747C54.6489,-465.841 84.3813,-669.334 128,-713 130.731,-715.734 133.809,-718.086 137.114,-720.11"/>
<polygon fill="midnightblue" stroke="midnightblue" points="135.804,-723.369 146.31,-724.735 138.949,-717.115 135.804,-723.369"/>
</g>
<!-- Node4 -->
<g id="node5" class="node"><title>Node4</title>
<g id="a_node5"><a xlink:href="classCoolMQTT.html#ac9248808641ebf3054ed0620ea9d0100" target="_top" xlink:title="CoolMQTT::begin">
<polygon fill="white" stroke="black" points="153,-684.5 153,-703.5 247,-703.5 247,-684.5 153,-684.5"/>
<text text-anchor="middle" x="200" y="-691.5" font-family="Helvetica,sans-Serif" font-size="10.00">CoolMQTT::begin</text>
</a>
</g>
</g>
<!-- Node0&#45;&gt;Node4 -->
<g id="edge4" class="edge"><title>Node0&#45;&gt;Node4</title>
<path fill="none" stroke="midnightblue" d="M46.8253,-418.659C46.6792,-457.142 51.4596,-601.027 128,-675 132.35,-679.204 137.523,-682.502 143.066,-685.086"/>
<polygon fill="midnightblue" stroke="midnightblue" points="142.074,-688.455 152.663,-688.795 144.597,-681.926 142.074,-688.455"/>
</g>
<!-- Node6 -->
<g id="node7" class="node"><title>Node6</title>
<g id="a_node7"><a xlink:href="classExternalSensors.html#a58ede0d786a86417254708870f04a21e" target="_top" xlink:title="ExternalSensors::begin">
<polygon fill="white" stroke="black" points="141,-646.5 141,-665.5 259,-665.5 259,-646.5 141,-646.5"/>
<text text-anchor="middle" x="200" y="-653.5" font-family="Helvetica,sans-Serif" font-size="10.00">ExternalSensors::begin</text>
</a>
</g>
</g>
<!-- Node0&#45;&gt;Node6 -->
<g id="edge6" class="edge"><title>Node0&#45;&gt;Node6</title>
<path fill="none" stroke="midnightblue" d="M47.4035,-418.957C49.3922,-454.338 61.0212,-575.168 128,-637 129.714,-638.582 131.545,-640.036 133.468,-641.37"/>
<polygon fill="midnightblue" stroke="midnightblue" points="131.992,-644.558 142.409,-646.493 135.472,-638.484 131.992,-644.558"/>
</g>
<!-- Node8 -->
<g id="node9" class="node"><title>Node8</title>
<g id="a_node9"><a xlink:href="classCoolBoardSensors.html#a97095823ef7c8f5290812f1405b966b3" target="_top" xlink:title="CoolBoardSensors::begin">
<polygon fill="white" stroke="black" points="136,-608.5 136,-627.5 264,-627.5 264,-608.5 136,-608.5"/>
<text text-anchor="middle" x="200" y="-615.5" font-family="Helvetica,sans-Serif" font-size="10.00">CoolBoardSensors::begin</text>
</a>
</g>
</g>
<!-- Node0&#45;&gt;Node8 -->
<g id="edge8" class="edge"><title>Node0&#45;&gt;Node8</title>
<path fill="none" stroke="midnightblue" d="M48.1449,-418.603C52.3792,-449.728 70.0383,-548.71 128,-599 129.94,-600.683 132.013,-602.219 134.187,-603.62"/>
<polygon fill="midnightblue" stroke="midnightblue" points="132.542,-606.709 143.003,-608.385 135.871,-600.551 132.542,-606.709"/>
</g>
<!-- Node11 -->
<g id="node12" class="node"><title>Node11</title>
<g id="a_node12"><a xlink:href="classCoolTime.html#ab1976cf718b950bc31e003c3323b8adb" target="_top" xlink:title="CoolTime::begin">
<polygon fill="white" stroke="black" points="156,-570.5 156,-589.5 244,-589.5 244,-570.5 156,-570.5"/>
<text text-anchor="middle" x="200" y="-577.5" font-family="Helvetica,sans-Serif" font-size="10.00">CoolTime::begin</text>
</a>
</g>
</g>
<!-- Node0&#45;&gt;Node11 -->
<g id="edge11" class="edge"><title>Node0&#45;&gt;Node11</title>
<path fill="none" stroke="midnightblue" d="M49.2401,-418.558C56.0442,-445.415 79.0666,-522.126 128,-561 133.37,-565.266 139.615,-568.579 146.131,-571.149"/>
<polygon fill="midnightblue" stroke="midnightblue" points="145.207,-574.531 155.801,-574.41 147.444,-567.898 145.207,-574.531"/>
</g>
<!-- Node12 -->
<g id="node13" class="node"><title>Node12</title>
<g id="a_node13"><a xlink:href="classIrene3000.html#ad5891806c500ae1007afe52b9e304c2b" target="_top" xlink:title="Irene3000::begin">
<polygon fill="white" stroke="black" points="155.5,-532.5 155.5,-551.5 244.5,-551.5 244.5,-532.5 155.5,-532.5"/>
<text text-anchor="middle" x="200" y="-539.5" font-family="Helvetica,sans-Serif" font-size="10.00">Irene3000::begin</text>
</a>
</g>
</g>
<!-- Node0&#45;&gt;Node12 -->
<g id="edge12" class="edge"><title>Node0&#45;&gt;Node12</title>
<path fill="none" stroke="midnightblue" d="M51.0604,-418.669C60.8459,-440.757 87.9243,-495.153 128,-523 133.295,-526.679 139.266,-529.646 145.44,-532.039"/>
<polygon fill="midnightblue" stroke="midnightblue" points="144.646,-535.465 155.24,-535.346 146.884,-528.832 144.646,-535.465"/>
</g>
<!-- Node13 -->
<g id="node14" class="node"><title>Node13</title>
<g id="a_node14"><a xlink:href="classCoolBoardLed.html#a1b60e5e30bea96c49ed62ed1bf1ffc8b" target="_top" xlink:title="CoolBoardLed::config">
<polygon fill="white" stroke="black" points="145,-494.5 145,-513.5 255,-513.5 255,-494.5 145,-494.5"/>
<text text-anchor="middle" x="200" y="-501.5" font-family="Helvetica,sans-Serif" font-size="10.00">CoolBoardLed::config</text>
</a>
</g>
</g>
<!-- Node0&#45;&gt;Node13 -->
<g id="edge13" class="edge"><title>Node0&#45;&gt;Node13</title>
<path fill="none" stroke="midnightblue" d="M54.4028,-418.509C67.4845,-434.652 96.3169,-467.381 128,-485 131.997,-487.223 136.267,-489.196 140.655,-490.945"/>
<polygon fill="midnightblue" stroke="midnightblue" points="139.794,-494.354 150.388,-494.428 142.152,-487.763 139.794,-494.354"/>
</g>
<!-- Node14 -->
<g id="node15" class="node"><title>Node14</title>
<g id="a_node15"><a xlink:href="classJetpack.html#ab065ee83e244265a2223a22f3ee4a719" target="_top" xlink:title="Jetpack::config">
<polygon fill="white" stroke="black" points="158.5,-456.5 158.5,-475.5 241.5,-475.5 241.5,-456.5 158.5,-456.5"/>
<text text-anchor="middle" x="200" y="-463.5" font-family="Helvetica,sans-Serif" font-size="10.00">Jetpack::config</text>
</a>
</g>
</g>
<!-- Node0&#45;&gt;Node14 -->
<g id="edge14" class="edge"><title>Node0&#45;&gt;Node14</title>
<path fill="none" stroke="midnightblue" d="M64.9441,-418.546C81.1033,-426.868 105.676,-438.849 128,-447 134.523,-449.382 141.481,-451.609 148.395,-453.641"/>
<polygon fill="midnightblue" stroke="midnightblue" points="147.862,-457.127 158.437,-456.472 149.762,-450.39 147.862,-457.127"/>
</g>
<!-- Node15 -->
<g id="node16" class="node"><title>Node15</title>
<g id="a_node16"><a xlink:href="classExternalSensors.html#a862a4bd11346b37270d0244c2adabe5a" target="_top" xlink:title="ExternalSensors::config">
<polygon fill="white" stroke="black" points="139.5,-418.5 139.5,-437.5 260.5,-437.5 260.5,-418.5 139.5,-418.5"/>
<text text-anchor="middle" x="200" y="-425.5" font-family="Helvetica,sans-Serif" font-size="10.00">ExternalSensors::config</text>
</a>
</g>
</g>
<!-- Node0&#45;&gt;Node15 -->
<g id="edge15" class="edge"><title>Node0&#45;&gt;Node15</title>
<path fill="none" stroke="midnightblue" d="M92.1935,-414.649C103.863,-416.108 116.699,-417.712 129.303,-419.288"/>
<polygon fill="midnightblue" stroke="midnightblue" points="128.977,-422.774 139.334,-420.542 129.845,-415.828 128.977,-422.774"/>
</g>
<!-- Node16 -->
<g id="node17" class="node"><title>Node16</title>
<g id="a_node17"><a xlink:href="classCoolMQTT.html#a9b703de4f1358f0ee7a5e8c44979c648" target="_top" xlink:title="CoolMQTT::config">
<polygon fill="white" stroke="black" points="151.5,-380.5 151.5,-399.5 248.5,-399.5 248.5,-380.5 151.5,-380.5"/>
<text text-anchor="middle" x="200" y="-387.5" font-family="Helvetica,sans-Serif" font-size="10.00">CoolMQTT::config</text>
</a>
</g>
</g>
<!-- Node0&#45;&gt;Node16 -->
<g id="edge16" class="edge"><title>Node0&#45;&gt;Node16</title>
<path fill="none" stroke="midnightblue" d="M92.1935,-403.351C107.63,-401.421 125.107,-399.237 141.386,-397.202"/>
<polygon fill="midnightblue" stroke="midnightblue" points="141.85,-400.671 151.339,-395.958 140.982,-393.725 141.85,-400.671"/>
</g>
<!-- Node17 -->
<g id="node18" class="node"><title>Node17</title>
<g id="a_node18"><a xlink:href="classCoolTime.html#a87c28260c1bc77091162cbcf1ee2e129" target="_top" xlink:title="CoolTime::config">
<polygon fill="white" stroke="black" points="154.5,-342.5 154.5,-361.5 245.5,-361.5 245.5,-342.5 154.5,-342.5"/>
<text text-anchor="middle" x="200" y="-349.5" font-family="Helvetica,sans-Serif" font-size="10.00">CoolTime::config</text>
</a>
</g>
</g>
<!-- Node0&#45;&gt;Node17 -->
<g id="edge17" class="edge"><title>Node0&#45;&gt;Node17</title>
<path fill="none" stroke="midnightblue" d="M64.9441,-399.454C81.1033,-391.132 105.676,-379.151 128,-371 134.523,-368.618 141.481,-366.391 148.395,-364.359"/>
<polygon fill="midnightblue" stroke="midnightblue" points="149.762,-367.61 158.437,-361.528 147.862,-360.873 149.762,-367.61"/>
</g>
<!-- Node18 -->
<g id="node19" class="node"><title>Node18</title>
<g id="a_node19"><a xlink:href="classIrene3000.html#afed5c35e4b23963c157847ef27c11e9c" target="_top" xlink:title="Irene3000::config">
<polygon fill="white" stroke="black" points="154,-304.5 154,-323.5 246,-323.5 246,-304.5 154,-304.5"/>
<text text-anchor="middle" x="200" y="-311.5" font-family="Helvetica,sans-Serif" font-size="10.00">Irene3000::config</text>
</a>
</g>
</g>
<!-- Node0&#45;&gt;Node18 -->
<g id="edge18" class="edge"><title>Node0&#45;&gt;Node18</title>
<path fill="none" stroke="midnightblue" d="M54.4028,-399.491C67.4845,-383.348 96.3169,-350.619 128,-333 133.072,-330.179 138.583,-327.761 144.217,-325.691"/>
<polygon fill="midnightblue" stroke="midnightblue" points="145.369,-328.997 153.759,-322.528 143.166,-322.353 145.369,-328.997"/>
</g>
<!-- Node20 -->
<g id="node21" class="node"><title>Node20</title>
<g id="a_node21"><a xlink:href="classCoolBoardSensors.html#a9a218895c5423375c33c08f2c56fb23a" target="_top" xlink:title="CoolBoardSensors::config">
<polygon fill="white" stroke="black" points="134.5,-266.5 134.5,-285.5 265.5,-285.5 265.5,-266.5 134.5,-266.5"/>
<text text-anchor="middle" x="200" y="-273.5" font-family="Helvetica,sans-Serif" font-size="10.00">CoolBoardSensors::config</text>
</a>
</g>
</g>
<!-- Node0&#45;&gt;Node20 -->
<g id="edge20" class="edge"><title>Node0&#45;&gt;Node20</title>
<path fill="none" stroke="midnightblue" d="M51.0604,-399.331C60.8459,-377.243 87.9243,-322.847 128,-295 130.864,-293.01 133.925,-291.229 137.109,-289.634"/>
<polygon fill="midnightblue" stroke="midnightblue" points="138.573,-292.814 146.346,-285.614 135.78,-286.395 138.573,-292.814"/>
</g>
<!-- Node21 -->
<g id="node22" class="node"><title>Node21</title>
<g id="a_node22"><a xlink:href="classCoolBoardLed.html#a8ed3053a36f0ed4a131f43b5b17efb61" target="_top" xlink:title="CoolBoardLed::printConf">
<polygon fill="white" stroke="black" points="138,-228.5 138,-247.5 262,-247.5 262,-228.5 138,-228.5"/>
<text text-anchor="middle" x="200" y="-235.5" font-family="Helvetica,sans-Serif" font-size="10.00">CoolBoardLed::printConf</text>
</a>
</g>
</g>
<!-- Node0&#45;&gt;Node21 -->
<g id="edge21" class="edge"><title>Node0&#45;&gt;Node21</title>
<path fill="none" stroke="midnightblue" d="M49.2401,-399.442C56.0442,-372.585 79.0666,-295.874 128,-257 130.295,-255.177 132.749,-253.528 135.317,-252.037"/>
<polygon fill="midnightblue" stroke="midnightblue" points="136.991,-255.113 144.41,-247.55 133.894,-248.836 136.991,-255.113"/>
</g>
<!-- Node22 -->
<g id="node23" class="node"><title>Node22</title>
<g id="a_node23"><a xlink:href="classJetpack.html#ac54a7bb4f9166bee32052253d9b1d306" target="_top" xlink:title="Jetpack::printConf">
<polygon fill="white" stroke="black" points="151.5,-190.5 151.5,-209.5 248.5,-209.5 248.5,-190.5 151.5,-190.5"/>
<text text-anchor="middle" x="200" y="-197.5" font-family="Helvetica,sans-Serif" font-size="10.00">Jetpack::printConf</text>
</a>
</g>
</g>
<!-- Node0&#45;&gt;Node22 -->
<g id="edge22" class="edge"><title>Node0&#45;&gt;Node22</title>
<path fill="none" stroke="midnightblue" d="M48.1449,-399.397C52.3792,-368.272 70.0383,-269.29 128,-219 132.156,-215.394 136.927,-212.463 141.988,-210.083"/>
<polygon fill="midnightblue" stroke="midnightblue" points="143.339,-213.313 151.339,-206.367 140.753,-206.808 143.339,-213.313"/>
</g>
<!-- Node23 -->
<g id="node24" class="node"><title>Node23</title>
<g id="a_node24"><a xlink:href="classExternalSensors.html#a78c2bf55084435dd51d3c559b2d3c6f3" target="_top" xlink:title="ExternalSensors::printConf">
<polygon fill="white" stroke="black" points="133,-152.5 133,-171.5 267,-171.5 267,-152.5 133,-152.5"/>
<text text-anchor="middle" x="200" y="-159.5" font-family="Helvetica,sans-Serif" font-size="10.00">ExternalSensors::printConf</text>
</a>
</g>
</g>
<!-- Node0&#45;&gt;Node23 -->
<g id="edge23" class="edge"><title>Node0&#45;&gt;Node23</title>
<path fill="none" stroke="midnightblue" d="M47.4035,-399.043C49.3922,-363.662 61.0212,-242.832 128,-181 129.714,-179.418 131.545,-177.964 133.468,-176.63"/>
<polygon fill="midnightblue" stroke="midnightblue" points="135.472,-179.516 142.409,-171.507 131.992,-173.442 135.472,-179.516"/>
</g>
<!-- Node24 -->
<g id="node25" class="node"><title>Node24</title>
<g id="a_node25"><a xlink:href="classCoolMQTT.html#a40553a0ad4b5ecf1cb4411ab54ca85fb" target="_top" xlink:title="CoolMQTT::printConf">
<polygon fill="white" stroke="black" points="145,-114.5 145,-133.5 255,-133.5 255,-114.5 145,-114.5"/>
<text text-anchor="middle" x="200" y="-121.5" font-family="Helvetica,sans-Serif" font-size="10.00">CoolMQTT::printConf</text>
</a>
</g>
</g>
<!-- Node0&#45;&gt;Node24 -->
<g id="edge24" class="edge"><title>Node0&#45;&gt;Node24</title>
<path fill="none" stroke="midnightblue" d="M46.8253,-399.341C46.6792,-360.858 51.4596,-216.973 128,-143 130.386,-140.694 133.019,-138.661 135.825,-136.869"/>
<polygon fill="midnightblue" stroke="midnightblue" points="137.484,-139.951 144.687,-132.182 134.211,-133.763 137.484,-139.951"/>
</g>
<!-- Node25 -->
<g id="node26" class="node"><title>Node25</title>
<g id="a_node26"><a xlink:href="classIrene3000.html#a7bc2414100b5e19eacc6630fa34b2654" target="_top" xlink:title="Irene3000::printConf">
<polygon fill="white" stroke="black" points="147.5,-76.5 147.5,-95.5 252.5,-95.5 252.5,-76.5 147.5,-76.5"/>
<text text-anchor="middle" x="200" y="-83.5" font-family="Helvetica,sans-Serif" font-size="10.00">Irene3000::printConf</text>
</a>
</g>
</g>
<!-- Node0&#45;&gt;Node25 -->
<g id="edge25" class="edge"><title>Node0&#45;&gt;Node25</title>
<path fill="none" stroke="midnightblue" d="M48.2793,-399.253C54.6489,-352.159 84.3813,-148.666 128,-105 131.044,-101.953 134.519,-99.3795 138.259,-97.2071"/>
<polygon fill="midnightblue" stroke="midnightblue" points="139.882,-100.311 147.387,-92.8328 136.857,-93.9978 139.882,-100.311"/>
</g>
<!-- Node26 -->
<g id="node27" class="node"><title>Node26</title>
<g id="a_node27"><a xlink:href="classCoolTime.html#af355e7f9b3898211cd2ff25eab5933b1" target="_top" xlink:title="CoolTime::printConf">
<polygon fill="white" stroke="black" points="148,-38.5 148,-57.5 252,-57.5 252,-38.5 148,-38.5"/>
<text text-anchor="middle" x="200" y="-45.5" font-family="Helvetica,sans-Serif" font-size="10.00">CoolTime::printConf</text>
</a>
</g>
</g>
<!-- Node0&#45;&gt;Node26 -->
<g id="edge26" class="edge"><title>Node0&#45;&gt;Node26</title>
<path fill="none" stroke="midnightblue" d="M47.9555,-399.412C53.1469,-349.193 79.53,-116.892 128,-67 131.187,-63.7195 134.873,-60.9851 138.857,-58.7083"/>
<polygon fill="midnightblue" stroke="midnightblue" points="140.414,-61.8437 147.974,-54.4204 137.435,-55.5093 140.414,-61.8437"/>
</g>
<!-- Node27 -->
<g id="node28" class="node"><title>Node27</title>
<g id="a_node28"><a xlink:href="classCoolBoardSensors.html#af6fd79505815b204c178617ecf54c873" target="_top" xlink:title="CoolBoardSensors::printConf">
<polygon fill="white" stroke="black" points="128,-0.5 128,-19.5 272,-19.5 272,-0.5 128,-0.5"/>
<text text-anchor="middle" x="200" y="-7.5" font-family="Helvetica,sans-Serif" font-size="10.00">CoolBoardSensors::printConf</text>
</a>
</g>
</g>
<!-- Node0&#45;&gt;Node27 -->
<g id="edge27" class="edge"><title>Node0&#45;&gt;Node27</title>
<path fill="none" stroke="midnightblue" d="M47.7106,-399.432C51.8655,-346.019 74.6936,-85.1229 128,-29 129.239,-27.6961 130.556,-26.4781 131.94,-25.3406"/>
<polygon fill="midnightblue" stroke="midnightblue" points="134.1,-28.1078 140.504,-19.6674 130.234,-22.272 134.1,-28.1078"/>
</g>
<!-- Node5 -->
<g id="node6" class="node"><title>Node5</title>
<g id="a_node6"><a xlink:href="classCoolMQTT.html#a30d82ad665bfb603f46ecdbc290775df" target="_top" xlink:title="CoolMQTT::callback">
<polygon fill="white" stroke="black" points="332.5,-693.5 332.5,-712.5 439.5,-712.5 439.5,-693.5 332.5,-693.5"/>
<text text-anchor="middle" x="386" y="-700.5" font-family="Helvetica,sans-Serif" font-size="10.00">CoolMQTT::callback</text>
</a>
</g>
</g>
<!-- Node4&#45;&gt;Node5 -->
<g id="edge5" class="edge"><title>Node4&#45;&gt;Node5</title>
<path fill="none" stroke="midnightblue" d="M247.431,-696.271C270.067,-697.378 297.628,-698.726 322.119,-699.924"/>
<polygon fill="midnightblue" stroke="midnightblue" points="322.245,-703.435 332.404,-700.427 322.587,-696.443 322.245,-703.435"/>
</g>
<!-- Node7 -->
<g id="node8" class="node"><title>Node7</title>
<g id="a_node8"><a xlink:href="classBaseExternalSensor.html#a87d132803d4f4fdd4e66332809f0c9a0" target="_top" xlink:title="BaseExternalSensor\l::begin">
<polygon fill="white" stroke="black" points="333,-644 333,-674 439,-674 439,-644 333,-644"/>
<text text-anchor="start" x="341" y="-662" font-family="Helvetica,sans-Serif" font-size="10.00">BaseExternalSensor</text>
<text text-anchor="middle" x="386" y="-651" font-family="Helvetica,sans-Serif" font-size="10.00">::begin</text>
</a>
</g>
</g>
<!-- Node6&#45;&gt;Node7 -->
<g id="edge7" class="edge"><title>Node6&#45;&gt;Node7</title>
<path fill="none" stroke="midnightblue" d="M259.219,-656.949C279.394,-657.278 302.086,-657.648 322.586,-657.982"/>
<polygon fill="midnightblue" stroke="midnightblue" points="322.709,-661.485 332.765,-658.148 322.824,-654.486 322.709,-661.485"/>
</g>
<!-- Node9 -->
<g id="node10" class="node"><title>Node9</title>
<g id="a_node10"><a xlink:href="classCoolBoardSensors.html#acad6a8418c66d36868caca23c844ecb6" target="_top" xlink:title="CoolBoardSensors::initReadI2C">
<polygon fill="white" stroke="black" points="308,-605.5 308,-624.5 464,-624.5 464,-605.5 308,-605.5"/>
<text text-anchor="middle" x="386" y="-612.5" font-family="Helvetica,sans-Serif" font-size="10.00">CoolBoardSensors::initReadI2C</text>
</a>
</g>
</g>
<!-- Node8&#45;&gt;Node9 -->
<g id="edge9" class="edge"><title>Node8&#45;&gt;Node9</title>
<path fill="none" stroke="midnightblue" d="M264.065,-616.972C274.818,-616.796 286.157,-616.612 297.409,-616.428"/>
<polygon fill="midnightblue" stroke="midnightblue" points="297.756,-619.923 307.698,-616.26 297.642,-612.924 297.756,-619.923"/>
</g>
<!-- Node10 -->
<g id="node11" class="node"><title>Node10</title>
<g id="a_node11"><a xlink:href="classCoolBoardSensors.html#a406307ffd70272282d91479c7ed8d66f" target="_top" xlink:title="CoolBoardSensors::setEnv\lSensorSettings">
<polygon fill="white" stroke="black" points="318.5,-556 318.5,-586 453.5,-586 453.5,-556 318.5,-556"/>
<text text-anchor="start" x="326.5" y="-574" font-family="Helvetica,sans-Serif" font-size="10.00">CoolBoardSensors::setEnv</text>
<text text-anchor="middle" x="386" y="-563" font-family="Helvetica,sans-Serif" font-size="10.00">SensorSettings</text>
</a>
</g>
</g>
<!-- Node8&#45;&gt;Node10 -->
<g id="edge10" class="edge"><title>Node8&#45;&gt;Node10</title>
<path fill="none" stroke="midnightblue" d="M238.235,-608.489C260.583,-602.781 289.708,-595.341 316.117,-588.595"/>
<polygon fill="midnightblue" stroke="midnightblue" points="317.263,-591.915 326.085,-586.049 315.53,-585.133 317.263,-591.915"/>
</g>
<!-- Node19 -->
<g id="node20" class="node"><title>Node19</title>
<g id="a_node20"><a xlink:href="classIrene3000.html#abcad62d1201a59f8dd3ba87048002728" target="_top" xlink:title="Irene3000::gainConvert">
<polygon fill="white" stroke="black" points="327,-304.5 327,-323.5 445,-323.5 445,-304.5 327,-304.5"/>
<text text-anchor="middle" x="386" y="-311.5" font-family="Helvetica,sans-Serif" font-size="10.00">Irene3000::gainConvert</text>
</a>
</g>
</g>
<!-- Node18&#45;&gt;Node19 -->
<g id="edge19" class="edge"><title>Node18&#45;&gt;Node19</title>
<path fill="none" stroke="midnightblue" d="M246.011,-314C267.235,-314 293.018,-314 316.587,-314"/>
<polygon fill="midnightblue" stroke="midnightblue" points="316.883,-317.5 326.883,-314 316.883,-310.5 316.883,-317.5"/>
</g>
</g>
</svg>
