<?xml version="1.0" encoding="UTF-8" standalone="no"?>
<!DOCTYPE svg PUBLIC "-//W3C//DTD SVG 1.1//EN"
 "http://www.w3.org/Graphics/SVG/1.1/DTD/svg11.dtd">
<!-- Generated by graphviz version 2.38.0 (20140413.2041)
 -->
<!-- Title: CoolBoard::offLineMode Pages: 1 -->
<svg width="822pt" height="365pt"
 viewBox="0.00 0.00 822.00 365.00" xmlns="http://www.w3.org/2000/svg" xmlns:xlink="http://www.w3.org/1999/xlink">
<g id="graph0" class="graph" transform="scale(1 1) rotate(0) translate(4 361)">
<title>CoolBoard::offLineMode</title>
<polygon fill="white" stroke="none" points="-4,4 -4,-361 818,-361 818,4 -4,4"/>
<!-- Node44 -->
<g id="node1" class="node"><title>Node44</title>
<polygon fill="#bfbfbf" stroke="black" points="0,-171.5 0,-190.5 122,-190.5 122,-171.5 0,-171.5"/>
<text text-anchor="middle" x="61" y="-178.5" font-family="Helvetica,sans-Serif" font-size="10.00">CoolBoard::offLineMode</text>
</g>
<!-- Node45 -->
<g id="node2" class="node"><title>Node45</title>
<g id="a_node2"><a xlink:href="class_jetpack.html#a86d2e83436ef4b85f4c3a6e85ac785b0" target="_top" xlink:title="Jetpack::doAction">
<polygon fill="white" stroke="black" points="193,-275.5 193,-294.5 288,-294.5 288,-275.5 193,-275.5"/>
<text text-anchor="middle" x="240.5" y="-282.5" font-family="Helvetica,sans-Serif" font-size="10.00">Jetpack::doAction</text>
</a>
</g>
</g>
<!-- Node44&#45;&gt;Node45 -->
<g id="edge1" class="edge"><title>Node44&#45;&gt;Node45</title>
<path fill="none" stroke="midnightblue" d="M74.6008,-190.672C92.5416,-204.204 126.745,-229.134 158,-247 173.677,-255.961 191.825,-264.582 207.01,-271.341"/>
<polygon fill="midnightblue" stroke="midnightblue" points="205.942,-274.693 216.506,-275.498 208.749,-268.281 205.942,-274.693"/>
</g>
<!-- Node47 -->
<g id="node4" class="node"><title>Node47</title>
<g id="a_node4"><a xlink:href="class_cool_board.html#ad03abdce2e65f520bbf2cff0f2d083cf" target="_top" xlink:title="CoolBoard::readSensors">
<polygon fill="white" stroke="black" points="179,-218.5 179,-237.5 302,-237.5 302,-218.5 179,-218.5"/>
<text text-anchor="middle" x="240.5" y="-225.5" font-family="Helvetica,sans-Serif" font-size="10.00">CoolBoard::readSensors</text>
</a>
</g>
</g>
<!-- Node44&#45;&gt;Node47 -->
<g id="edge3" class="edge"><title>Node44&#45;&gt;Node47</title>
<path fill="none" stroke="midnightblue" d="M97.9198,-190.511C125.497,-197.813 163.773,-207.948 193.575,-215.84"/>
<polygon fill="midnightblue" stroke="midnightblue" points="192.767,-219.246 203.329,-218.422 194.559,-212.479 192.767,-219.246"/>
</g>
<!-- Node58 -->
<g id="node15" class="node"><title>Node58</title>
<g id="a_node15"><a xlink:href="class_cool_file_system.html#a4c560c2ddd40b74b7758e6ceb2c58957" target="_top" xlink:title="CoolFileSystem::saveSensorData">
<polygon fill="white" stroke="black" points="158,-171.5 158,-190.5 323,-190.5 323,-171.5 158,-171.5"/>
<text text-anchor="middle" x="240.5" y="-178.5" font-family="Helvetica,sans-Serif" font-size="10.00">CoolFileSystem::saveSensorData</text>
</a>
</g>
</g>
<!-- Node44&#45;&gt;Node58 -->
<g id="edge16" class="edge"><title>Node44&#45;&gt;Node58</title>
<path fill="none" stroke="midnightblue" d="M122.093,-181C130.334,-181 138.944,-181 147.594,-181"/>
<polygon fill="midnightblue" stroke="midnightblue" points="147.748,-184.5 157.748,-181 147.748,-177.5 147.748,-184.5"/>
</g>
<!-- Node59 -->
<g id="node16" class="node"><title>Node59</title>
<g id="a_node16"><a xlink:href="class_cool_time.html#aae601f795452cfa48d9fb337aed483a8" target="_top" xlink:title="CoolTime::update">
<polygon fill="white" stroke="black" points="193.5,-114.5 193.5,-133.5 287.5,-133.5 287.5,-114.5 193.5,-114.5"/>
<text text-anchor="middle" x="240.5" y="-121.5" font-family="Helvetica,sans-Serif" font-size="10.00">CoolTime::update</text>
</a>
</g>
</g>
<!-- Node44&#45;&gt;Node59 -->
<g id="edge17" class="edge"><title>Node44&#45;&gt;Node59</title>
<path fill="none" stroke="midnightblue" d="M91.7095,-171.459C121.403,-161.924 167.234,-147.206 199.983,-136.69"/>
<polygon fill="midnightblue" stroke="midnightblue" points="201.243,-139.962 209.694,-133.572 199.102,-133.297 201.243,-139.962"/>
</g>
<!-- Node64 -->
<g id="node21" class="node"><title>Node64</title>
<g id="a_node21"><a xlink:href="class_cool_board.html#ae7358fb6e623cfc81b775f5f1734909b" target="_top" xlink:title="CoolBoard::userData">
<polygon fill="white" stroke="black" points="186.5,-38.5 186.5,-57.5 294.5,-57.5 294.5,-38.5 186.5,-38.5"/>
<text text-anchor="middle" x="240.5" y="-45.5" font-family="Helvetica,sans-Serif" font-size="10.00">CoolBoard::userData</text>
</a>
</g>
</g>
<!-- Node44&#45;&gt;Node64 -->
<g id="edge22" class="edge"><title>Node44&#45;&gt;Node64</title>
<path fill="none" stroke="midnightblue" d="M73.6481,-171.412C91.538,-156.77 126.968,-128.104 158,-105 177.515,-90.471 200.238,-74.6674 216.726,-63.394"/>
<polygon fill="midnightblue" stroke="midnightblue" points="218.889,-66.1556 225.184,-57.634 214.949,-60.3698 218.889,-66.1556"/>
</g>
<!-- Node46 -->
<g id="node3" class="node"><title>Node46</title>
<g id="a_node3"><a xlink:href="class_jetpack.html#a338f1af8cbc6504ac69b47c7328569b5" target="_top" xlink:title="Jetpack::write">
<polygon fill="white" stroke="black" points="381.5,-299.5 381.5,-318.5 459.5,-318.5 459.5,-299.5 381.5,-299.5"/>
<text text-anchor="middle" x="420.5" y="-306.5" font-family="Helvetica,sans-Serif" font-size="10.00">Jetpack::write</text>
</a>
</g>
</g>
<!-- Node45&#45;&gt;Node46 -->
<g id="edge2" class="edge"><title>Node45&#45;&gt;Node46</title>
<path fill="none" stroke="midnightblue" d="M288.267,-291.306C313.911,-294.763 345.643,-299.042 371.481,-302.526"/>
<polygon fill="midnightblue" stroke="midnightblue" points="371.053,-305.999 381.431,-303.867 371.988,-299.062 371.053,-305.999"/>
</g>
<!-- Node48 -->
<g id="node5" class="node"><title>Node48</title>
<g id="a_node5"><a xlink:href="class_cool_board_sensors.html#a91badb2539d91fda8679f2a597874c48" target="_top" xlink:title="CoolBoardSensors::read">
<polygon fill="white" stroke="black" points="359,-261.5 359,-280.5 482,-280.5 482,-261.5 359,-261.5"/>
<text text-anchor="middle" x="420.5" y="-268.5" font-family="Helvetica,sans-Serif" font-size="10.00">CoolBoardSensors::read</text>
</a>
</g>
</g>
<!-- Node47&#45;&gt;Node48 -->
<g id="edge4" class="edge"><title>Node47&#45;&gt;Node48</title>
<path fill="none" stroke="midnightblue" d="M281.004,-237.543C307.275,-243.89 341.983,-252.274 370.081,-259.062"/>
<polygon fill="midnightblue" stroke="midnightblue" points="369.564,-262.537 380.106,-261.484 371.208,-255.733 369.564,-262.537"/>
</g>
<!-- Node52 -->
<g id="node9" class="node"><title>Node52</title>
<g id="a_node9"><a xlink:href="class_external_sensors.html#a53177b81eca3be89508b5511ddcd00fc" target="_top" xlink:title="ExternalSensors::read">
<polygon fill="white" stroke="black" points="364,-223.5 364,-242.5 477,-242.5 477,-223.5 364,-223.5"/>
<text text-anchor="middle" x="420.5" y="-230.5" font-family="Helvetica,sans-Serif" font-size="10.00">ExternalSensors::read</text>
</a>
</g>
</g>
<!-- Node47&#45;&gt;Node52 -->
<g id="edge8" class="edge"><title>Node47&#45;&gt;Node52</title>
<path fill="none" stroke="midnightblue" d="M302.26,-229.707C318.773,-230.171 336.734,-230.675 353.522,-231.147"/>
<polygon fill="midnightblue" stroke="midnightblue" points="353.705,-234.653 363.8,-231.435 353.902,-227.656 353.705,-234.653"/>
</g>
<!-- Node53 -->
<g id="node10" class="node"><title>Node53</title>
<g id="a_node10"><a xlink:href="class_irene3000.html#a852a170feea994ea1df01c6b245b5d9a" target="_top" xlink:title="Irene3000::read">
<polygon fill="white" stroke="black" points="378.5,-185.5 378.5,-204.5 462.5,-204.5 462.5,-185.5 378.5,-185.5"/>
<text text-anchor="middle" x="420.5" y="-192.5" font-family="Helvetica,sans-Serif" font-size="10.00">Irene3000::read</text>
</a>
</g>
</g>
<!-- Node47&#45;&gt;Node53 -->
<g id="edge9" class="edge"><title>Node47&#45;&gt;Node53</title>
<path fill="none" stroke="midnightblue" d="M292.985,-218.455C316.703,-214.058 344.772,-208.854 368.438,-204.466"/>
<polygon fill="midnightblue" stroke="midnightblue" points="369.091,-207.905 378.286,-202.641 367.815,-201.022 369.091,-207.905"/>
</g>
<!-- Node49 -->
<g id="node6" class="node"><title>Node49</title>
<g id="a_node6"><a xlink:href="class_cool_board_sensors.html#acad6a8418c66d36868caca23c844ecb6" target="_top" xlink:title="CoolBoardSensors::initReadI2C">
<polygon fill="white" stroke="black" points="520.5,-337.5 520.5,-356.5 676.5,-356.5 676.5,-337.5 520.5,-337.5"/>
<text text-anchor="middle" x="598.5" y="-344.5" font-family="Helvetica,sans-Serif" font-size="10.00">CoolBoardSensors::initReadI2C</text>
</a>
</g>
</g>
<!-- Node48&#45;&gt;Node49 -->
<g id="edge5" class="edge"><title>Node48&#45;&gt;Node49</title>
<path fill="none" stroke="midnightblue" d="M461.826,-280.501C468.831,-283.023 475.837,-286.15 482,-290 501.731,-302.325 497.851,-316.37 518,-328 521.908,-330.256 526.072,-332.244 530.367,-333.997"/>
<polygon fill="midnightblue" stroke="midnightblue" points="529.339,-337.347 539.933,-337.47 531.728,-330.768 529.339,-337.347"/>
</g>
<!-- Node50 -->
<g id="node7" class="node"><title>Node50</title>
<g id="a_node7"><a xlink:href="class_cool_board_sensors.html#a6944b6ea7bce8e2fce1b434acfd9d5f3" target="_top" xlink:title="CoolBoardSensors::readVBat">
<polygon fill="white" stroke="black" points="526,-299.5 526,-318.5 671,-318.5 671,-299.5 526,-299.5"/>
<text text-anchor="middle" x="598.5" y="-306.5" font-family="Helvetica,sans-Serif" font-size="10.00">CoolBoardSensors::readVBat</text>
</a>
</g>
</g>
<!-- Node48&#45;&gt;Node50 -->
<g id="edge6" class="edge"><title>Node48&#45;&gt;Node50</title>
<path fill="none" stroke="midnightblue" d="M465.912,-280.589C489.451,-285.671 518.557,-291.955 543.405,-297.32"/>
<polygon fill="midnightblue" stroke="midnightblue" points="542.894,-300.791 553.407,-299.48 544.371,-293.948 542.894,-300.791"/>
</g>
<!-- Node51 -->
<g id="node8" class="node"><title>Node51</title>
<g id="a_node8"><a xlink:href="class_cool_board_sensors.html#a8761bff50373c485f4465c8db47d0633" target="_top" xlink:title="CoolBoardSensors::readMoisture">
<polygon fill="white" stroke="black" points="518,-261.5 518,-280.5 679,-280.5 679,-261.5 518,-261.5"/>
<text text-anchor="middle" x="598.5" y="-268.5" font-family="Helvetica,sans-Serif" font-size="10.00">CoolBoardSensors::readMoisture</text>
</a>
</g>
</g>
<!-- Node48&#45;&gt;Node51 -->
<g id="edge7" class="edge"><title>Node48&#45;&gt;Node51</title>
<path fill="none" stroke="midnightblue" d="M482.069,-271C490.36,-271 499.011,-271 507.686,-271"/>
<polygon fill="midnightblue" stroke="midnightblue" points="507.86,-274.5 517.86,-271 507.86,-267.5 507.86,-274.5"/>
</g>
<!-- Node54 -->
<g id="node11" class="node"><title>Node54</title>
<g id="a_node11"><a xlink:href="class_irene3000.html#a94ad40f281d83ad1be20bf1edd6fe802" target="_top" xlink:title="Irene3000::readTemp">
<polygon fill="white" stroke="black" points="544,-223.5 544,-242.5 653,-242.5 653,-223.5 544,-223.5"/>
<text text-anchor="middle" x="598.5" y="-230.5" font-family="Helvetica,sans-Serif" font-size="10.00">Irene3000::readTemp</text>
</a>
</g>
</g>
<!-- Node53&#45;&gt;Node54 -->
<g id="edge10" class="edge"><title>Node53&#45;&gt;Node54</title>
<path fill="none" stroke="midnightblue" d="M462.764,-203.909C486.803,-209.099 517.396,-215.705 543.352,-221.309"/>
<polygon fill="midnightblue" stroke="midnightblue" points="542.904,-224.793 553.418,-223.482 544.382,-217.951 542.904,-224.793"/>
</g>
<!-- Node56 -->
<g id="node13" class="node"><title>Node56</title>
<g id="a_node13"><a xlink:href="class_irene3000.html#abf3db725fabb0634ec889b32068a5eec" target="_top" xlink:title="Irene3000::readPh">
<polygon fill="white" stroke="black" points="550.5,-185.5 550.5,-204.5 646.5,-204.5 646.5,-185.5 550.5,-185.5"/>
<text text-anchor="middle" x="598.5" y="-192.5" font-family="Helvetica,sans-Serif" font-size="10.00">Irene3000::readPh</text>
</a>
</g>
</g>
<!-- Node53&#45;&gt;Node56 -->
<g id="edge12" class="edge"><title>Node53&#45;&gt;Node56</title>
<path fill="none" stroke="midnightblue" d="M462.764,-195C485.803,-195 514.863,-195 540.092,-195"/>
<polygon fill="midnightblue" stroke="midnightblue" points="540.276,-198.5 550.276,-195 540.276,-191.5 540.276,-198.5"/>
</g>
<!-- Node57 -->
<g id="node14" class="node"><title>Node57</title>
<g id="a_node14"><a xlink:href="class_irene3000.html#ae73bd2ed14a199a7e83f4d6458476a7c" target="_top" xlink:title="Irene3000::readADSChannel2">
<polygon fill="white" stroke="black" points="525.5,-147.5 525.5,-166.5 671.5,-166.5 671.5,-147.5 525.5,-147.5"/>
<text text-anchor="middle" x="598.5" y="-154.5" font-family="Helvetica,sans-Serif" font-size="10.00">Irene3000::readADSChannel2</text>
</a>
</g>
</g>
<!-- Node53&#45;&gt;Node57 -->
<g id="edge14" class="edge"><title>Node53&#45;&gt;Node57</title>
<path fill="none" stroke="midnightblue" d="M462.764,-186.091C486.803,-180.901 517.396,-174.295 543.352,-168.691"/>
<polygon fill="midnightblue" stroke="midnightblue" points="544.382,-172.049 553.418,-166.518 542.904,-165.207 544.382,-172.049"/>
</g>
<!-- Node55 -->
<g id="node12" class="node"><title>Node55</title>
<g id="a_node12"><a xlink:href="class_irene3000.html#aff7c5da186b388e7272e63ff88a20c34" target="_top" xlink:title="Irene3000::setGain">
<polygon fill="white" stroke="black" points="715,-185.5 715,-204.5 814,-204.5 814,-185.5 715,-185.5"/>
<text text-anchor="middle" x="764.5" y="-192.5" font-family="Helvetica,sans-Serif" font-size="10.00">Irene3000::setGain</text>
</a>
</g>
</g>
<!-- Node54&#45;&gt;Node55 -->
<g id="edge11" class="edge"><title>Node54&#45;&gt;Node55</title>
<path fill="none" stroke="midnightblue" d="M640.884,-223.411C662.623,-218.374 689.457,-212.156 712.475,-206.823"/>
<polygon fill="midnightblue" stroke="midnightblue" points="713.462,-210.187 722.413,-204.52 711.881,-203.368 713.462,-210.187"/>
</g>
<!-- Node56&#45;&gt;Node55 -->
<g id="edge13" class="edge"><title>Node56&#45;&gt;Node55</title>
<path fill="none" stroke="midnightblue" d="M646.936,-195C664.978,-195 685.753,-195 704.722,-195"/>
<polygon fill="midnightblue" stroke="midnightblue" points="704.747,-198.5 714.747,-195 704.747,-191.5 704.747,-198.5"/>
</g>
<!-- Node57&#45;&gt;Node55 -->
<g id="edge15" class="edge"><title>Node57&#45;&gt;Node55</title>
<path fill="none" stroke="midnightblue" d="M640.884,-166.589C662.623,-171.626 689.457,-177.844 712.475,-183.177"/>
<polygon fill="midnightblue" stroke="midnightblue" points="711.881,-186.632 722.413,-185.48 713.462,-179.813 711.881,-186.632"/>
</g>
<!-- Node60 -->
<g id="node17" class="node"><title>Node60</title>
<g id="a_node17"><a xlink:href="class_cool_time.html#a5ae038a4498602b189f76a10bf02adf8" target="_top" xlink:title="CoolTime::isTimeSync">
<polygon fill="white" stroke="black" points="362.5,-114.5 362.5,-133.5 478.5,-133.5 478.5,-114.5 362.5,-114.5"/>
<text text-anchor="middle" x="420.5" y="-121.5" font-family="Helvetica,sans-Serif" font-size="10.00">CoolTime::isTimeSync</text>
</a>
</g>
</g>
<!-- Node59&#45;&gt;Node60 -->
<g id="edge18" class="edge"><title>Node59&#45;&gt;Node60</title>
<path fill="none" stroke="midnightblue" d="M287.803,-124C307.455,-124 330.748,-124 352.239,-124"/>
<polygon fill="midnightblue" stroke="midnightblue" points="352.293,-127.5 362.293,-124 352.293,-120.5 352.293,-127.5"/>
</g>
<!-- Node62 -->
<g id="node19" class="node"><title>Node62</title>
<g id="a_node19"><a xlink:href="class_cool_time.html#a41fbbbfd651c2079f54d4b2911e4c705" target="_top" xlink:title="CoolTime::getNtpTime">
<polygon fill="white" stroke="black" points="362.5,-76.5 362.5,-95.5 478.5,-95.5 478.5,-76.5 362.5,-76.5"/>
<text text-anchor="middle" x="420.5" y="-83.5" font-family="Helvetica,sans-Serif" font-size="10.00">CoolTime::getNtpTime</text>
</a>
</g>
</g>
<!-- Node59&#45;&gt;Node62 -->
<g id="edge20" class="edge"><title>Node59&#45;&gt;Node62</title>
<path fill="none" stroke="midnightblue" d="M286.417,-114.411C310.329,-109.306 339.921,-102.989 365.125,-97.6082"/>
<polygon fill="midnightblue" stroke="midnightblue" points="365.857,-101.031 374.906,-95.5201 364.396,-94.185 365.857,-101.031"/>
</g>
<!-- Node61 -->
<g id="node18" class="node"><title>Node61</title>
<g id="a_node18"><a xlink:href="class_cool_time.html#a5d17f707a9d337720493b2bce9d41c21" target="_top" xlink:title="CoolTime::getLastSyncTime">
<polygon fill="white" stroke="black" points="528,-109.5 528,-128.5 669,-128.5 669,-109.5 528,-109.5"/>
<text text-anchor="middle" x="598.5" y="-116.5" font-family="Helvetica,sans-Serif" font-size="10.00">CoolTime::getLastSyncTime</text>
</a>
</g>
</g>
<!-- Node60&#45;&gt;Node61 -->
<g id="edge19" class="edge"><title>Node60&#45;&gt;Node61</title>
<path fill="none" stroke="midnightblue" d="M478.642,-122.377C491.12,-122.022 504.545,-121.641 517.722,-121.266"/>
<polygon fill="midnightblue" stroke="midnightblue" points="517.834,-124.765 527.731,-120.982 517.635,-117.768 517.834,-124.765"/>
</g>
<!-- Node63 -->
<g id="node20" class="node"><title>Node63</title>
<g id="a_node20"><a xlink:href="class_cool_time.html#a236a38d120dc53bc67456d763838c5a1" target="_top" xlink:title="CoolTime::sendNTPpacket">
<polygon fill="white" stroke="black" points="531,-71.5 531,-90.5 666,-90.5 666,-71.5 531,-71.5"/>
<text text-anchor="middle" x="598.5" y="-78.5" font-family="Helvetica,sans-Serif" font-size="10.00">CoolTime::sendNTPpacket</text>
</a>
</g>
</g>
<!-- Node62&#45;&gt;Node63 -->
<g id="edge21" class="edge"><title>Node62&#45;&gt;Node63</title>
<path fill="none" stroke="midnightblue" d="M478.642,-84.3766C492.05,-83.9957 506.552,-83.5838 520.664,-83.1828"/>
<polygon fill="midnightblue" stroke="midnightblue" points="520.954,-86.6761 530.85,-82.8935 520.755,-79.6789 520.954,-86.6761"/>
</g>
<!-- Node65 -->
<g id="node22" class="node"><title>Node65</title>
<g id="a_node22"><a xlink:href="class_cool_m_q_t_t.html#a373cc92fca7760d886f02d8a6e5b3f63" target="_top" xlink:title="CoolMQTT::getUser">
<polygon fill="white" stroke="black" points="368,-38.5 368,-57.5 473,-57.5 473,-38.5 368,-38.5"/>
<text text-anchor="middle" x="420.5" y="-45.5" font-family="Helvetica,sans-Serif" font-size="10.00">CoolMQTT::getUser</text>
</a>
</g>
</g>
<!-- Node64&#45;&gt;Node65 -->
<g id="edge23" class="edge"><title>Node64&#45;&gt;Node65</title>
<path fill="none" stroke="midnightblue" d="M294.906,-48C314.704,-48 337.316,-48 357.794,-48"/>
<polygon fill="midnightblue" stroke="midnightblue" points="357.967,-51.5001 367.966,-48 357.966,-44.5001 357.967,-51.5001"/>
</g>
<!-- Node66 -->
<g id="node23" class="node"><title>Node66</title>
<g id="a_node23"><a xlink:href="class_cool_time.html#ac4f32ee513c1328d984306645e8785a4" target="_top" xlink:title="CoolTime::getESDate">
<polygon fill="white" stroke="black" points="364,-0.5 364,-19.5 477,-19.5 477,-0.5 364,-0.5"/>
<text text-anchor="middle" x="420.5" y="-7.5" font-family="Helvetica,sans-Serif" font-size="10.00">CoolTime::getESDate</text>
</a>
</g>
</g>
<!-- Node64&#45;&gt;Node66 -->
<g id="edge24" class="edge"><title>Node64&#45;&gt;Node66</title>
<path fill="none" stroke="midnightblue" d="M286.417,-38.411C310.329,-33.3061 339.921,-26.9887 365.125,-21.6082"/>
<polygon fill="midnightblue" stroke="midnightblue" points="365.857,-25.0308 374.906,-19.5201 364.396,-18.185 365.857,-25.0308"/>
</g>
<!-- Node67 -->
<g id="node24" class="node"><title>Node67</title>
<g id="a_node24"><a xlink:href="class_cool_time.html#a7a7501c5ca77dd1248bea704c44f986c" target="_top" xlink:title="CoolTime::getTimeDate">
<polygon fill="white" stroke="black" points="538,-0.5 538,-19.5 659,-19.5 659,-0.5 538,-0.5"/>
<text text-anchor="middle" x="598.5" y="-7.5" font-family="Helvetica,sans-Serif" font-size="10.00">CoolTime::getTimeDate</text>
</a>
</g>
</g>
<!-- Node66&#45;&gt;Node67 -->
<g id="edge25" class="edge"><title>Node66&#45;&gt;Node67</title>
<path fill="none" stroke="midnightblue" d="M477.188,-10C493.2,-10 510.87,-10 527.624,-10"/>
<polygon fill="midnightblue" stroke="midnightblue" points="527.914,-13.5001 537.914,-10 527.914,-6.5001 527.914,-13.5001"/>
</g>
</g>
</svg>
