<?xml version="1.0" encoding="UTF-8" standalone="no"?>
<!DOCTYPE svg PUBLIC "-//W3C//DTD SVG 1.1//EN"
 "http://www.w3.org/Graphics/SVG/1.1/DTD/svg11.dtd">
<!-- Generated by graphviz version 2.38.0 (20140413.2041)
 -->
<!-- Title: /home/ashiroji/Arduino/libraries/CoolBoard/CoolBoard.cpp Pages: 1 -->
<!--zoomable 263 -->
<svg id="main" version="1.1" xmlns="http://www.w3.org/2000/svg" xmlns:xlink="http://www.w3.org/1999/xlink" xml:space="preserve" onload="init(evt)">
<style type="text/css"><![CDATA[
.edge:hover path { stroke: red; }
.edge:hover polygon { stroke: red; fill: red; }
]]></style>
<script type="text/javascript"><![CDATA[
var edges = document.getElementsByTagName('g');
if (edges && edges.length) {
  for (var i=0;i<edges.length;i++) {
    if (edges[i].id.substr(0,4)=='edge') {
      edges[i].setAttribute('class','edge');
    }
  }
}
]]></script>
        <defs>
                <circle id="rim" cx="0" cy="0" r="7"/>
                <circle id="rim2" cx="0" cy="0" r="3.5"/>
                <g id="zoomPlus">
                        <use xlink:href="#rim" fill="#404040">
                                <set attributeName="fill" to="#808080" begin="zoomplus.mouseover" end="zoomplus.mouseout"/>
                        </use>
                        <path d="M-4,0h8M0,-4v8" fill="none" stroke="white" stroke-width="1.5" pointer-events="none"/>
                </g>
                <g id="zoomMin">
                        <use xlink:href="#rim" fill="#404040">
                                <set attributeName="fill" to="#808080" begin="zoomminus.mouseover" end="zoomminus.mouseout"/>
                        </use>
                        <path d="M-4,0h8" fill="none" stroke="white" stroke-width="1.5" pointer-events="none"/>
                </g>
                <g id="dirArrow">
                        <path fill="none" stroke="white" stroke-width="1.5" d="M0,-3.0v7 M-2.5,-0.5L0,-3.0L2.5,-0.5"/>
                </g>
               <g id="resetDef">
                       <use xlink:href="#rim2" fill="#404040">
                               <set attributeName="fill" to="#808080" begin="reset.mouseover" end="reset.mouseout"/>
                       </use>
               </g>
        </defs>

<script type="text/javascript">
var viewWidth = 2127;
var viewHeight = 263;
var sectionId = 'dynsection-0';
</script>
<script xlink:href="svgpan.js"/>
<svg id="graph" class="graph">
<g id="viewport">
<title>/home/ashiroji/Arduino/libraries/CoolBoard/CoolBoard.cpp</title>
<polygon fill="white" stroke="none" points="-4,4 -4,-259 2123,-259 2123,4 -4,4"/>
<!-- Node0 -->
<g id="node1" class="node"><title>Node0</title>
<polygon fill="#bfbfbf" stroke="black" points="274,-224.5 274,-254.5 444,-254.5 444,-224.5 274,-224.5"/>
<text text-anchor="start" x="282" y="-242.5" font-family="Helvetica,sans-Serif" font-size="10.00">/home/ashiroji/Arduino</text>
<text text-anchor="middle" x="359" y="-231.5" font-family="Helvetica,sans-Serif" font-size="10.00">/libraries/CoolBoard/CoolBoard.cpp</text>
</g>
<!-- Node1 -->
<g id="node2" class="node"><title>Node1</title>
<polygon fill="white" stroke="#bfbfbf" points="0,-168.5 0,-187.5 38,-187.5 38,-168.5 0,-168.5"/>
<text text-anchor="middle" x="19" y="-175.5" font-family="Helvetica,sans-Serif" font-size="10.00">FS.h</text>
</g>
<!-- Node0&#45;&gt;Node1 -->
<g id="edge1" class="edge"><title>Node0&#45;&gt;Node1</title>
<path fill="none" stroke="midnightblue" d="M273.854,-226.904C211.987,-217.894 126.413,-204.222 52,-188 50.7272,-187.723 49.4301,-187.427 48.1224,-187.117"/>
<polygon fill="midnightblue" stroke="midnightblue" points="48.6665,-183.644 38.1123,-184.572 46.9413,-190.428 48.6665,-183.644"/>
</g>
<!-- Node2 -->
<g id="node3" class="node"><title>Node2</title>
<polygon fill="white" stroke="#bfbfbf" points="864,-0.5 864,-19.5 922,-19.5 922,-0.5 864,-0.5"/>
<text text-anchor="middle" x="893" y="-7.5" font-family="Helvetica,sans-Serif" font-size="10.00">Arduino.h</text>
</g>
<!-- Node0&#45;&gt;Node2 -->
<g id="edge2" class="edge"><title>Node0&#45;&gt;Node2</title>
<path fill="none" stroke="midnightblue" d="M308.28,-224.448C216.572,-196.748 38.9847,-131.214 110,-56 135.786,-28.6897 698.958,-15.0247 853.87,-11.7738"/>
<polygon fill="midnightblue" stroke="midnightblue" points="853.965,-15.2727 863.89,-11.5662 853.82,-8.27423 853.965,-15.2727"/>
</g>
<!-- Node3 -->
<g id="node4" class="node"><title>Node3</title>
<g id="a_node4"><a xlink:href="CoolBoard_8h.html" target="_top" xlink:title="CoolBoard Header file. ">
<polygon fill="white" stroke="black" points="546.5,-168.5 546.5,-187.5 617.5,-187.5 617.5,-168.5 546.5,-168.5"/>
<text text-anchor="middle" x="582" y="-175.5" font-family="Helvetica,sans-Serif" font-size="10.00">CoolBoard.h</text>
</a>
</g>
</g>
<!-- Node0&#45;&gt;Node3 -->
<g id="edge3" class="edge"><title>Node0&#45;&gt;Node3</title>
<path fill="none" stroke="midnightblue" d="M411.566,-224.475C450.878,-213.986 503.906,-199.837 540.316,-190.122"/>
<polygon fill="midnightblue" stroke="midnightblue" points="541.359,-193.466 550.119,-187.506 539.555,-186.703 541.359,-193.466"/>
</g>
<!-- Node31 -->
<g id="node32" class="node"><title>Node31</title>
<polygon fill="white" stroke="#bfbfbf" points="635.5,-168.5 635.5,-187.5 714.5,-187.5 714.5,-168.5 635.5,-168.5"/>
<text text-anchor="middle" x="675" y="-175.5" font-family="Helvetica,sans-Serif" font-size="10.00">ArduinoJson.h</text>
</g>
<!-- Node0&#45;&gt;Node31 -->
<g id="edge43" class="edge"><title>Node0&#45;&gt;Node31</title>
<path fill="none" stroke="midnightblue" d="M433.487,-224.475C492.675,-213.33 573.805,-198.054 625.317,-188.355"/>
<polygon fill="midnightblue" stroke="midnightblue" points="626.03,-191.782 635.21,-186.492 624.735,-184.903 626.03,-191.782"/>
</g>
<!-- Node3&#45;&gt;Node2 -->
<g id="edge42" class="edge"><title>Node3&#45;&gt;Node2</title>
<path fill="none" stroke="midnightblue" d="M546.279,-177.212C480.127,-176.599 334.833,-170.517 220,-132 168.075,-114.584 85.42,-95.8403 123,-56 148.293,-29.1859 699.847,-15.205 853.552,-11.8202"/>
<polygon fill="midnightblue" stroke="midnightblue" points="853.996,-15.3115 863.918,-11.5948 853.844,-8.31313 853.996,-15.3115"/>
</g>
<!-- Node4 -->
<g id="node5" class="node"><title>Node4</title>
<g id="a_node5"><a xlink:href="CoolFileSystem_8h.html" target="_top" xlink:title="CoolFileSystem Header File. ">
<polygon fill="white" stroke="black" points="354.5,-112.5 354.5,-131.5 449.5,-131.5 449.5,-112.5 354.5,-112.5"/>
<text text-anchor="middle" x="402" y="-119.5" font-family="Helvetica,sans-Serif" font-size="10.00">CoolFileSystem.h</text>
</a>
</g>
</g>
<!-- Node3&#45;&gt;Node4 -->
<g id="edge4" class="edge"><title>Node3&#45;&gt;Node4</title>
<path fill="none" stroke="midnightblue" d="M553.478,-168.444C522.934,-159.28 474.292,-144.688 440.397,-134.519"/>
<polygon fill="midnightblue" stroke="midnightblue" points="440.972,-131.038 430.388,-131.516 438.961,-137.742 440.972,-131.038"/>
</g>
<!-- Node5 -->
<g id="node6" class="node"><title>Node5</title>
<g id="a_node6"><a xlink:href="CoolBoardSensors_8h.html" target="_top" xlink:title="CoolBoardSensors Header File. ">
<polygon fill="white" stroke="black" points="229.5,-112.5 229.5,-131.5 336.5,-131.5 336.5,-112.5 229.5,-112.5"/>
<text text-anchor="middle" x="283" y="-119.5" font-family="Helvetica,sans-Serif" font-size="10.00">CoolBoardSensors.h</text>
</a>
</g>
</g>
<!-- Node3&#45;&gt;Node5 -->
<g id="edge6" class="edge"><title>Node3&#45;&gt;Node5</title>
<path fill="none" stroke="midnightblue" d="M546.231,-170.54C495.238,-161.331 401.103,-144.33 340.317,-133.352"/>
<polygon fill="midnightblue" stroke="midnightblue" points="340.58,-129.843 330.117,-131.509 339.336,-136.731 340.58,-129.843"/>
</g>
<!-- Node8 -->
<g id="node9" class="node"><title>Node8</title>
<g id="a_node9"><a xlink:href="CoolBoardLed_8h.html" target="_top" xlink:title="CoolBoardLed Header File. ">
<polygon fill="white" stroke="black" points="468,-112.5 468,-131.5 554,-131.5 554,-112.5 468,-112.5"/>
<text text-anchor="middle" x="511" y="-119.5" font-family="Helvetica,sans-Serif" font-size="10.00">CoolBoardLed.h</text>
</a>
</g>
</g>
<!-- Node3&#45;&gt;Node8 -->
<g id="edge10" class="edge"><title>Node3&#45;&gt;Node8</title>
<path fill="none" stroke="midnightblue" d="M570.593,-168.324C559.891,-160.185 543.659,-147.839 530.837,-138.087"/>
<polygon fill="midnightblue" stroke="midnightblue" points="532.693,-135.102 522.615,-131.834 528.456,-140.673 532.693,-135.102"/>
</g>
<!-- Node10 -->
<g id="node11" class="node"><title>Node10</title>
<g id="a_node11"><a xlink:href="CoolTime_8h.html" target="_top" xlink:title="CoolTime Header File. ">
<polygon fill="white" stroke="black" points="619.5,-112.5 619.5,-131.5 686.5,-131.5 686.5,-112.5 619.5,-112.5"/>
<text text-anchor="middle" x="653" y="-119.5" font-family="Helvetica,sans-Serif" font-size="10.00">CoolTime.h</text>
</a>
</g>
</g>
<!-- Node3&#45;&gt;Node10 -->
<g id="edge13" class="edge"><title>Node3&#45;&gt;Node10</title>
<path fill="none" stroke="midnightblue" d="M593.407,-168.324C604.109,-160.185 620.341,-147.839 633.163,-138.087"/>
<polygon fill="midnightblue" stroke="midnightblue" points="635.544,-140.673 641.385,-131.834 631.307,-135.102 635.544,-140.673"/>
</g>
<!-- Node14 -->
<g id="node15" class="node"><title>Node14</title>
<g id="a_node15"><a xlink:href="CoolMQTT_8h.html" target="_top" xlink:title="CoolMQTT Header File. ">
<polygon fill="white" stroke="black" points="1058.5,-112.5 1058.5,-131.5 1131.5,-131.5 1131.5,-112.5 1058.5,-112.5"/>
<text text-anchor="middle" x="1095" y="-119.5" font-family="Helvetica,sans-Serif" font-size="10.00">CoolMQTT.h</text>
</a>
</g>
</g>
<!-- Node3&#45;&gt;Node14 -->
<g id="edge18" class="edge"><title>Node3&#45;&gt;Node14</title>
<path fill="none" stroke="midnightblue" d="M617.959,-169.296C620.674,-168.821 623.377,-168.382 626,-168 807.453,-141.584 854.967,-154.071 1037,-132 1040.65,-131.557 1044.43,-131.06 1048.23,-130.532"/>
<polygon fill="midnightblue" stroke="midnightblue" points="1048.84,-133.98 1058.23,-129.083 1047.83,-127.053 1048.84,-133.98"/>
</g>
<!-- Node17 -->
<g id="node18" class="node"><title>Node17</title>
<g id="a_node18"><a xlink:href="Jetpack_8h.html" target="_top" xlink:title="Jetpack Header File. ">
<polygon fill="white" stroke="black" points="969.5,-112.5 969.5,-131.5 1028.5,-131.5 1028.5,-112.5 969.5,-112.5"/>
<text text-anchor="middle" x="999" y="-119.5" font-family="Helvetica,sans-Serif" font-size="10.00">Jetpack.h</text>
</a>
</g>
</g>
<!-- Node3&#45;&gt;Node17 -->
<g id="edge22" class="edge"><title>Node3&#45;&gt;Node17</title>
<path fill="none" stroke="midnightblue" d="M617.972,-169.379C620.684,-168.885 623.382,-168.419 626,-168 762.961,-146.082 798.444,-149.809 936,-132 943.542,-131.023 951.584,-129.921 959.31,-128.832"/>
<polygon fill="midnightblue" stroke="midnightblue" points="959.812,-132.296 969.218,-127.418 958.824,-125.366 959.812,-132.296"/>
</g>
<!-- Node18 -->
<g id="node19" class="node"><title>Node18</title>
<g id="a_node19"><a xlink:href="Irene3000_8h.html" target="_top" xlink:title="Irene3000 Header File. ">
<polygon fill="white" stroke="black" points="859,-112.5 859,-131.5 927,-131.5 927,-112.5 859,-112.5"/>
<text text-anchor="middle" x="893" y="-119.5" font-family="Helvetica,sans-Serif" font-size="10.00">Irene3000.h</text>
</a>
</g>
</g>
<!-- Node3&#45;&gt;Node18 -->
<g id="edge24" class="edge"><title>Node3&#45;&gt;Node18</title>
<path fill="none" stroke="midnightblue" d="M617.521,-169.624C620.387,-169.062 623.241,-168.515 626,-168 704.198,-153.417 795.678,-138.451 848.714,-129.98"/>
<polygon fill="midnightblue" stroke="midnightblue" points="849.468,-133.404 858.793,-128.375 848.367,-126.491 849.468,-133.404"/>
</g>
<!-- Node20 -->
<g id="node21" class="node"><title>Node20</title>
<g id="a_node21"><a xlink:href="ExternalSensors_8h.html" target="_top" xlink:title="ExternalSensors Header File. ">
<polygon fill="white" stroke="black" points="1194.5,-112.5 1194.5,-131.5 1291.5,-131.5 1291.5,-112.5 1194.5,-112.5"/>
<text text-anchor="middle" x="1243" y="-119.5" font-family="Helvetica,sans-Serif" font-size="10.00">ExternalSensors.h</text>
</a>
</g>
</g>
<!-- Node3&#45;&gt;Node20 -->
<g id="edge27" class="edge"><title>Node3&#45;&gt;Node20</title>
<path fill="none" stroke="midnightblue" d="M617.952,-169.244C620.668,-168.781 623.373,-168.359 626,-168 852.894,-136.987 911.702,-149.968 1140,-132 1154.26,-130.878 1169.61,-129.583 1184.01,-128.331"/>
<polygon fill="midnightblue" stroke="midnightblue" points="1184.63,-131.79 1194.29,-127.43 1184.02,-124.816 1184.63,-131.79"/>
</g>
<!-- Node26 -->
<g id="node27" class="node"><title>Node26</title>
<g id="a_node27"><a xlink:href="CoolWifi_8h.html" target="_top" xlink:title="CoolWifi Header File. ">
<polygon fill="white" stroke="black" points="1641,-112.5 1641,-131.5 1703,-131.5 1703,-112.5 1641,-112.5"/>
<text text-anchor="middle" x="1672" y="-119.5" font-family="Helvetica,sans-Serif" font-size="10.00">CoolWifi.h</text>
</a>
</g>
</g>
<!-- Node3&#45;&gt;Node26 -->
<g id="edge35" class="edge"><title>Node3&#45;&gt;Node26</title>
<path fill="none" stroke="midnightblue" d="M617.942,-169.164C620.66,-168.72 623.369,-168.324 626,-168 825.578,-143.453 1461.51,-127.723 1630.46,-123.905"/>
<polygon fill="midnightblue" stroke="midnightblue" points="1630.75,-127.4 1640.67,-123.676 1630.6,-120.401 1630.75,-127.4"/>
</g>
<!-- Node4&#45;&gt;Node2 -->
<g id="edge5" class="edge"><title>Node4&#45;&gt;Node2</title>
<path fill="none" stroke="midnightblue" d="M402.427,-112.141C403.638,-97.7821 408.277,-69.6577 426,-56 459.565,-30.1333 747.158,-16.5843 853.599,-12.4199"/>
<polygon fill="midnightblue" stroke="midnightblue" points="854.049,-15.9053 863.907,-12.0239 853.78,-8.91042 854.049,-15.9053"/>
</g>
<!-- Node5&#45;&gt;Node2 -->
<g id="edge7" class="edge"><title>Node5&#45;&gt;Node2</title>
<path fill="none" stroke="midnightblue" d="M295.435,-112.424C317.15,-97.9474 363.883,-68.974 408,-56 491.363,-31.4843 753.443,-17.3295 853.575,-12.6999"/>
<polygon fill="midnightblue" stroke="midnightblue" points="854.029,-16.1829 863.859,-12.2317 853.71,-9.19017 854.029,-16.1829"/>
</g>
<!-- Node6 -->
<g id="node7" class="node"><title>Node6</title>
<polygon fill="white" stroke="#bfbfbf" points="254.5,-56.5 254.5,-75.5 311.5,-75.5 311.5,-56.5 254.5,-56.5"/>
<text text-anchor="middle" x="283" y="-63.5" font-family="Helvetica,sans-Serif" font-size="10.00">SI114X.h</text>
</g>
<!-- Node5&#45;&gt;Node6 -->
<g id="edge8" class="edge"><title>Node5&#45;&gt;Node6</title>
<path fill="none" stroke="midnightblue" d="M283,-112.083C283,-105.006 283,-94.8611 283,-85.9865"/>
<polygon fill="midnightblue" stroke="midnightblue" points="286.5,-85.751 283,-75.7511 279.5,-85.7511 286.5,-85.751"/>
</g>
<!-- Node7 -->
<g id="node8" class="node"><title>Node7</title>
<polygon fill="white" stroke="#bfbfbf" points="132,-56.5 132,-75.5 236,-75.5 236,-56.5 132,-56.5"/>
<text text-anchor="middle" x="184" y="-63.5" font-family="Helvetica,sans-Serif" font-size="10.00">SparkFunBME280.h</text>
</g>
<!-- Node5&#45;&gt;Node7 -->
<g id="edge9" class="edge"><title>Node5&#45;&gt;Node7</title>
<path fill="none" stroke="midnightblue" d="M267.094,-112.324C251.362,-103.743 227.058,-90.486 208.791,-80.5224"/>
<polygon fill="midnightblue" stroke="midnightblue" points="210.322,-77.3704 199.867,-75.6545 206.97,-83.5157 210.322,-77.3704"/>
</g>
<!-- Node8&#45;&gt;Node2 -->
<g id="edge11" class="edge"><title>Node8&#45;&gt;Node2</title>
<path fill="none" stroke="midnightblue" d="M487.111,-112.457C457.847,-100.746 414.535,-78.5746 435,-56 462.886,-25.24 747.436,-14.7642 853.464,-11.9121"/>
<polygon fill="midnightblue" stroke="midnightblue" points="853.834,-15.4038 863.739,-11.6448 853.652,-8.40619 853.834,-15.4038"/>
</g>
<!-- Node9 -->
<g id="node10" class="node"><title>Node9</title>
<polygon fill="white" stroke="#bfbfbf" points="444,-56.5 444,-75.5 526,-75.5 526,-56.5 444,-56.5"/>
<text text-anchor="middle" x="485" y="-63.5" font-family="Helvetica,sans-Serif" font-size="10.00">NeoPixelBus.h</text>
</g>
<!-- Node8&#45;&gt;Node9 -->
<g id="edge12" class="edge"><title>Node8&#45;&gt;Node9</title>
<path fill="none" stroke="midnightblue" d="M506.707,-112.083C503.148,-104.691 497.978,-93.9533 493.576,-84.8111"/>
<polygon fill="midnightblue" stroke="midnightblue" points="496.705,-83.2427 489.213,-75.7511 490.398,-86.2795 496.705,-83.2427"/>
</g>
<!-- Node10&#45;&gt;Node2 -->
<g id="edge14" class="edge"><title>Node10&#45;&gt;Node2</title>
<path fill="none" stroke="midnightblue" d="M686.501,-112.776C715.246,-105.109 757.387,-92.3994 792,-76 822.068,-61.7539 853.891,-40.0148 873.601,-25.6578"/>
<polygon fill="midnightblue" stroke="midnightblue" points="875.791,-28.3914 881.754,-19.6342 871.631,-22.7612 875.791,-28.3914"/>
</g>
<!-- Node11 -->
<g id="node12" class="node"><title>Node11</title>
<polygon fill="white" stroke="#bfbfbf" points="544.5,-56.5 544.5,-75.5 603.5,-75.5 603.5,-56.5 544.5,-56.5"/>
<text text-anchor="middle" x="574" y="-63.5" font-family="Helvetica,sans-Serif" font-size="10.00">TimeLib.h</text>
</g>
<!-- Node10&#45;&gt;Node11 -->
<g id="edge15" class="edge"><title>Node10&#45;&gt;Node11</title>
<path fill="none" stroke="midnightblue" d="M640.307,-112.324C628.099,-103.979 609.422,-91.2122 594.997,-81.3524"/>
<polygon fill="midnightblue" stroke="midnightblue" points="596.892,-78.4082 586.661,-75.6545 592.942,-84.1871 596.892,-78.4082"/>
</g>
<!-- Node12 -->
<g id="node13" class="node"><title>Node12</title>
<polygon fill="white" stroke="#bfbfbf" points="621.5,-56.5 621.5,-75.5 684.5,-75.5 684.5,-56.5 621.5,-56.5"/>
<text text-anchor="middle" x="653" y="-63.5" font-family="Helvetica,sans-Serif" font-size="10.00">WiFiUdp.h</text>
</g>
<!-- Node10&#45;&gt;Node12 -->
<g id="edge16" class="edge"><title>Node10&#45;&gt;Node12</title>
<path fill="none" stroke="midnightblue" d="M653,-112.083C653,-105.006 653,-94.8611 653,-85.9865"/>
<polygon fill="midnightblue" stroke="midnightblue" points="656.5,-85.751 653,-75.7511 649.5,-85.7511 656.5,-85.751"/>
</g>
<!-- Node13 -->
<g id="node14" class="node"><title>Node13</title>
<polygon fill="white" stroke="#bfbfbf" points="702.5,-56.5 702.5,-75.5 783.5,-75.5 783.5,-56.5 702.5,-56.5"/>
<text text-anchor="middle" x="743" y="-63.5" font-family="Helvetica,sans-Serif" font-size="10.00">DS1337RTC.h</text>
</g>
<!-- Node10&#45;&gt;Node13 -->
<g id="edge17" class="edge"><title>Node10&#45;&gt;Node13</title>
<path fill="none" stroke="midnightblue" d="M667.46,-112.324C681.5,-103.9 703.048,-90.9709 719.543,-81.0741"/>
<polygon fill="midnightblue" stroke="midnightblue" points="721.802,-83.8007 728.576,-75.6545 718.2,-77.7983 721.802,-83.8007"/>
</g>
<!-- Node14&#45;&gt;Node2 -->
<g id="edge19" class="edge"><title>Node14&#45;&gt;Node2</title>
<path fill="none" stroke="midnightblue" d="M1106.73,-112.465C1123.14,-99.5051 1149.3,-74.4251 1134,-56 1108.81,-25.6669 993.84,-15.6693 932.245,-12.4605"/>
<polygon fill="midnightblue" stroke="midnightblue" points="932.276,-8.958 922.118,-11.9691 931.937,-15.9498 932.276,-8.958"/>
</g>
<!-- Node15 -->
<g id="node16" class="node"><title>Node15</title>
<polygon fill="white" stroke="#bfbfbf" points="1284,-56.5 1284,-75.5 1370,-75.5 1370,-56.5 1284,-56.5"/>
<text text-anchor="middle" x="1327" y="-63.5" font-family="Helvetica,sans-Serif" font-size="10.00">ESP8266WiFi.h</text>
</g>
<!-- Node14&#45;&gt;Node15 -->
<g id="edge20" class="edge"><title>Node14&#45;&gt;Node15</title>
<path fill="none" stroke="midnightblue" d="M1131.51,-112.503C1171.76,-103.134 1236.61,-88.0387 1280.48,-77.8285"/>
<polygon fill="midnightblue" stroke="midnightblue" points="1281.38,-81.2124 1290.32,-75.5364 1279.79,-74.3946 1281.38,-81.2124"/>
</g>
<!-- Node16 -->
<g id="node17" class="node"><title>Node16</title>
<polygon fill="white" stroke="#bfbfbf" points="1040.5,-56.5 1040.5,-75.5 1125.5,-75.5 1125.5,-56.5 1040.5,-56.5"/>
<text text-anchor="middle" x="1083" y="-63.5" font-family="Helvetica,sans-Serif" font-size="10.00">PubSubClient.h</text>
</g>
<!-- Node14&#45;&gt;Node16 -->
<g id="edge21" class="edge"><title>Node14&#45;&gt;Node16</title>
<path fill="none" stroke="midnightblue" d="M1093.02,-112.083C1091.43,-104.927 1089.14,-94.6353 1087.15,-85.6911"/>
<polygon fill="midnightblue" stroke="midnightblue" points="1090.53,-84.7537 1084.94,-75.7511 1083.7,-86.2722 1090.53,-84.7537"/>
</g>
<!-- Node17&#45;&gt;Node2 -->
<g id="edge23" class="edge"><title>Node17&#45;&gt;Node2</title>
<path fill="none" stroke="midnightblue" d="M997.168,-112.476C993.918,-99.08 986.029,-72.8904 971,-56 958.607,-42.072 940.835,-31.3554 925.384,-23.8806"/>
<polygon fill="midnightblue" stroke="midnightblue" points="926.682,-20.6254 916.133,-19.6456 923.768,-26.9903 926.682,-20.6254"/>
</g>
<!-- Node18&#45;&gt;Node2 -->
<g id="edge26" class="edge"><title>Node18&#45;&gt;Node2</title>
<path fill="none" stroke="midnightblue" d="M912.58,-112.316C935.008,-101.024 967.183,-79.897 955,-56 948,-42.2698 934.634,-31.7496 922.1,-24.3465"/>
<polygon fill="midnightblue" stroke="midnightblue" points="923.678,-21.2204 913.223,-19.5055 920.326,-27.366 923.678,-21.2204"/>
</g>
<!-- Node19 -->
<g id="node20" class="node"><title>Node19</title>
<polygon fill="white" stroke="#bfbfbf" points="840,-56.5 840,-75.5 946,-75.5 946,-56.5 840,-56.5"/>
<text text-anchor="middle" x="893" y="-63.5" font-family="Helvetica,sans-Serif" font-size="10.00">Adafruit_ADS1015.h</text>
</g>
<!-- Node18&#45;&gt;Node19 -->
<g id="edge25" class="edge"><title>Node18&#45;&gt;Node19</title>
<path fill="none" stroke="midnightblue" d="M893,-112.083C893,-105.006 893,-94.8611 893,-85.9865"/>
<polygon fill="midnightblue" stroke="midnightblue" points="896.5,-85.751 893,-75.7511 889.5,-85.7511 896.5,-85.751"/>
</g>
<!-- Node20&#45;&gt;Node2 -->
<g id="edge28" class="edge"><title>Node20&#45;&gt;Node2</title>
<path fill="none" stroke="midnightblue" d="M1233.91,-112.438C1218.29,-98.2488 1184.77,-70.0351 1151,-56 1077.55,-25.4723 983.996,-15.6533 932.122,-12.4958"/>
<polygon fill="midnightblue" stroke="midnightblue" points="932.193,-8.99446 922.014,-11.9335 931.804,-15.9837 932.193,-8.99446"/>
</g>
<!-- Node21 -->
<g id="node22" class="node"><title>Node21</title>
<polygon fill="white" stroke="#bfbfbf" points="1220.5,-56.5 1220.5,-75.5 1265.5,-75.5 1265.5,-56.5 1220.5,-56.5"/>
<text text-anchor="middle" x="1243" y="-63.5" font-family="Helvetica,sans-Serif" font-size="10.00">Wire.h</text>
</g>
<!-- Node20&#45;&gt;Node21 -->
<g id="edge29" class="edge"><title>Node20&#45;&gt;Node21</title>
<path fill="none" stroke="midnightblue" d="M1243,-112.083C1243,-105.006 1243,-94.8611 1243,-85.9865"/>
<polygon fill="midnightblue" stroke="midnightblue" points="1246.5,-85.751 1243,-75.7511 1239.5,-85.7511 1246.5,-85.751"/>
</g>
<!-- Node22 -->
<g id="node23" class="node"><title>Node22</title>
<polygon fill="white" stroke="#bfbfbf" points="1388.5,-56.5 1388.5,-75.5 1451.5,-75.5 1451.5,-56.5 1388.5,-56.5"/>
<text text-anchor="middle" x="1420" y="-63.5" font-family="Helvetica,sans-Serif" font-size="10.00">OneWire.h</text>
</g>
<!-- Node20&#45;&gt;Node22 -->
<g id="edge30" class="edge"><title>Node20&#45;&gt;Node22</title>
<path fill="none" stroke="midnightblue" d="M1271.05,-112.444C1301.08,-103.28 1348.91,-88.6876 1382.24,-78.5192"/>
<polygon fill="midnightblue" stroke="midnightblue" points="1383.54,-81.7822 1392.09,-75.5164 1381.5,-75.0869 1383.54,-81.7822"/>
</g>
<!-- Node23 -->
<g id="node24" class="node"><title>Node23</title>
<g id="a_node24"><a xlink:href="ExternalSensor_8h.html" target="_top" xlink:title="ExternalSensor Header File. ">
<polygon fill="white" stroke="black" points="1508,-56.5 1508,-75.5 1600,-75.5 1600,-56.5 1508,-56.5"/>
<text text-anchor="middle" x="1554" y="-63.5" font-family="Helvetica,sans-Serif" font-size="10.00">ExternalSensor.h</text>
</a>
</g>
</g>
<!-- Node20&#45;&gt;Node23 -->
<g id="edge31" class="edge"><title>Node20&#45;&gt;Node23</title>
<path fill="none" stroke="midnightblue" d="M1291.59,-112.562C1347.47,-102.86 1439.04,-86.9602 1497.9,-76.7404"/>
<polygon fill="midnightblue" stroke="midnightblue" points="1498.52,-80.1853 1507.78,-75.026 1497.32,-73.2885 1498.52,-80.1853"/>
</g>
<!-- Node23&#45;&gt;Node2 -->
<g id="edge34" class="edge"><title>Node23&#45;&gt;Node2</title>
<path fill="none" stroke="midnightblue" d="M1507.86,-57.726C1503.18,-57.0949 1498.5,-56.5054 1494,-56 1282.78,-32.2842 1028.35,-17.8716 932.28,-12.9304"/>
<polygon fill="midnightblue" stroke="midnightblue" points="932.319,-9.4279 922.154,-12.4146 931.963,-16.4188 932.319,-9.4279"/>
</g>
<!-- Node24 -->
<g id="node25" class="node"><title>Node24</title>
<polygon fill="white" stroke="#bfbfbf" points="1464.5,-0.5 1464.5,-19.5 1535.5,-19.5 1535.5,-0.5 1464.5,-0.5"/>
<text text-anchor="middle" x="1500" y="-7.5" font-family="Helvetica,sans-Serif" font-size="10.00">NDIR_I2C.h</text>
</g>
<!-- Node23&#45;&gt;Node24 -->
<g id="edge32" class="edge"><title>Node23&#45;&gt;Node24</title>
<path fill="none" stroke="midnightblue" d="M1545.08,-56.083C1537.22,-48.2195 1525.57,-36.5688 1516.08,-27.0813"/>
<polygon fill="midnightblue" stroke="midnightblue" points="1518.3,-24.3473 1508.75,-19.7511 1513.35,-29.2971 1518.3,-24.3473"/>
</g>
<!-- Node25 -->
<g id="node26" class="node"><title>Node25</title>
<polygon fill="white" stroke="#bfbfbf" points="1553.5,-0.5 1553.5,-19.5 1660.5,-19.5 1660.5,-0.5 1553.5,-0.5"/>
<text text-anchor="middle" x="1607" y="-7.5" font-family="Helvetica,sans-Serif" font-size="10.00">DallasTemperature.h</text>
</g>
<!-- Node23&#45;&gt;Node25 -->
<g id="edge33" class="edge"><title>Node23&#45;&gt;Node25</title>
<path fill="none" stroke="midnightblue" d="M1562.75,-56.083C1570.47,-48.2195 1581.9,-36.5688 1591.22,-27.0813"/>
<polygon fill="midnightblue" stroke="midnightblue" points="1593.9,-29.3396 1598.41,-19.7511 1588.91,-24.4363 1593.9,-29.3396"/>
</g>
<!-- Node26&#45;&gt;Node2 -->
<g id="edge36" class="edge"><title>Node26&#45;&gt;Node2</title>
<path fill="none" stroke="midnightblue" d="M1640.74,-115.029C1605.59,-107.823 1547.14,-94.3486 1499,-76 1480.8,-69.062 1478.74,-61.3182 1460,-56 1360.5,-27.7611 1044.15,-15.6048 932.489,-12.1199"/>
<polygon fill="midnightblue" stroke="midnightblue" points="932.439,-8.61686 922.336,-11.8095 932.225,-15.6136 932.439,-8.61686"/>
</g>
<!-- Node26&#45;&gt;Node15 -->
<g id="edge37" class="edge"><title>Node26&#45;&gt;Node15</title>
<path fill="none" stroke="midnightblue" d="M1640.75,-116.399C1588.87,-108.719 1481.45,-92.6338 1380.21,-76.1732"/>
<polygon fill="midnightblue" stroke="midnightblue" points="1380.55,-72.6829 1370.12,-74.5279 1379.43,-79.5916 1380.55,-72.6829"/>
</g>
<!-- Node27 -->
<g id="node28" class="node"><title>Node27</title>
<polygon fill="white" stroke="#bfbfbf" points="1618.5,-56.5 1618.5,-75.5 1725.5,-75.5 1725.5,-56.5 1618.5,-56.5"/>
<text text-anchor="middle" x="1672" y="-63.5" font-family="Helvetica,sans-Serif" font-size="10.00">ESP8266WiFiMulti.h</text>
</g>
<!-- Node26&#45;&gt;Node27 -->
<g id="edge38" class="edge"><title>Node26&#45;&gt;Node27</title>
<path fill="none" stroke="midnightblue" d="M1672,-112.083C1672,-105.006 1672,-94.8611 1672,-85.9865"/>
<polygon fill="midnightblue" stroke="midnightblue" points="1675.5,-85.751 1672,-75.7511 1668.5,-85.7511 1675.5,-85.751"/>
</g>
<!-- Node28 -->
<g id="node29" class="node"><title>Node28</title>
<polygon fill="white" stroke="#bfbfbf" points="1743.5,-56.5 1743.5,-75.5 1818.5,-75.5 1818.5,-56.5 1743.5,-56.5"/>
<text text-anchor="middle" x="1781" y="-63.5" font-family="Helvetica,sans-Serif" font-size="10.00">DNSServer.h</text>
</g>
<!-- Node26&#45;&gt;Node28 -->
<g id="edge39" class="edge"><title>Node26&#45;&gt;Node28</title>
<path fill="none" stroke="midnightblue" d="M1689.51,-112.324C1707.07,-103.625 1734.33,-90.1202 1754.53,-80.113"/>
<polygon fill="midnightblue" stroke="midnightblue" points="1756.12,-83.23 1763.53,-75.6545 1753.02,-76.9575 1756.12,-83.23"/>
</g>
<!-- Node29 -->
<g id="node30" class="node"><title>Node29</title>
<polygon fill="white" stroke="#bfbfbf" points="1836.5,-56.5 1836.5,-75.5 1951.5,-75.5 1951.5,-56.5 1836.5,-56.5"/>
<text text-anchor="middle" x="1894" y="-63.5" font-family="Helvetica,sans-Serif" font-size="10.00">ESP8266WebServer.h</text>
</g>
<!-- Node26&#45;&gt;Node29 -->
<g id="edge40" class="edge"><title>Node26&#45;&gt;Node29</title>
<path fill="none" stroke="midnightblue" d="M1703.34,-113.378C1741.29,-104.146 1805.5,-88.5261 1848.81,-77.993"/>
<polygon fill="midnightblue" stroke="midnightblue" points="1849.9,-81.3281 1858.79,-75.5637 1848.25,-74.5264 1849.9,-81.3281"/>
</g>
<!-- Node30 -->
<g id="node31" class="node"><title>Node30</title>
<polygon fill="white" stroke="#bfbfbf" points="1969,-56.5 1969,-75.5 2119,-75.5 2119,-56.5 1969,-56.5"/>
<text text-anchor="middle" x="2044" y="-63.5" font-family="Helvetica,sans-Serif" font-size="10.00">WiFiManagerReadFileButton.h</text>
</g>
<!-- Node26&#45;&gt;Node30 -->
<g id="edge41" class="edge"><title>Node26&#45;&gt;Node30</title>
<path fill="none" stroke="midnightblue" d="M1703.08,-116.489C1762.61,-107.847 1894.01,-88.772 1975.18,-76.9893"/>
<polygon fill="midnightblue" stroke="midnightblue" points="1975.92,-80.4192 1985.31,-75.5189 1974.92,-73.4918 1975.92,-80.4192"/>
</g>
</g>
</svg>
        <g id="navigator" transform="translate(0 0)" fill="#404254">
                <rect fill="#f2f5e9" fill-opacity="0.5" stroke="#606060" stroke-width=".5" x="0" y="0" width="60" height="60"/>
                <use id="zoomplus" xlink:href="#zoomPlus" x="17" y="9" onmousedown="handleZoom(evt,'in')"/>
                <use id="zoomminus" xlink:href="#zoomMin" x="42" y="9" onmousedown="handleZoom(evt,'out')"/>
                <use id="reset" xlink:href="#resetDef" x="30" y="36" onmousedown="handleReset()"/>
                <g id="arrowUp" xlink:href="#dirArrow" transform="translate(30 24)" onmousedown="handlePan(0,-1)">
                  <use xlink:href="#rim" fill="#404040">
                        <set attributeName="fill" to="#808080" begin="arrowUp.mouseover" end="arrowUp.mouseout"/>
                  </use>
                  <path fill="none" stroke="white" stroke-width="1.5" d="M0,-3.0v7 M-2.5,-0.5L0,-3.0L2.5,-0.5"/>
                </g>
                <g id="arrowRight" xlink:href="#dirArrow" transform="rotate(90) translate(36 -43)" onmousedown="handlePan(1,0)">
                  <use xlink:href="#rim" fill="#404040">
                        <set attributeName="fill" to="#808080" begin="arrowRight.mouseover" end="arrowRight.mouseout"/>
                  </use>
                  <path fill="none" stroke="white" stroke-width="1.5" d="M0,-3.0v7 M-2.5,-0.5L0,-3.0L2.5,-0.5"/>
                </g>
                <g id="arrowDown" xlink:href="#dirArrow" transform="rotate(180) translate(-30 -48)" onmousedown="handlePan(0,1)">
                  <use xlink:href="#rim" fill="#404040">
                        <set attributeName="fill" to="#808080" begin="arrowDown.mouseover" end="arrowDown.mouseout"/>
                  </use>
                  <path fill="none" stroke="white" stroke-width="1.5" d="M0,-3.0v7 M-2.5,-0.5L0,-3.0L2.5,-0.5"/>
                </g>
                <g id="arrowLeft" xlink:href="#dirArrow" transform="rotate(270) translate(-36 17)" onmousedown="handlePan(-1,0)">
                  <use xlink:href="#rim" fill="#404040">
                        <set attributeName="fill" to="#808080" begin="arrowLeft.mouseover" end="arrowLeft.mouseout"/>
                  </use>
                  <path fill="none" stroke="white" stroke-width="1.5" d="M0,-3.0v7 M-2.5,-0.5L0,-3.0L2.5,-0.5"/>
                </g>
        </g>
        <svg viewBox="0 0 15 15" width="100%" height="30px" preserveAspectRatio="xMaxYMin meet">
         <g id="arrow_out" transform="scale(0.3 0.3)">
          <a xlink:href="CoolBoard_8cpp__incl_org.svg" target="_base">
           <rect id="button" ry="5" rx="5" y="6" x="6" height="38" width="38"
                fill="#f2f5e9" fill-opacity="0.5" stroke="#606060" stroke-width="1.0"/>
           <path id="arrow"
             d="M 11.500037,31.436501 C 11.940474,20.09759 22.043105,11.32322 32.158766,21.979434 L 37.068811,17.246167 C 37.068811,17.246167 37.088388,32 37.088388,32 L 22.160133,31.978069 C 22.160133,31.978069 26.997745,27.140456 26.997745,27.140456 C 18.528582,18.264221 13.291696,25.230495 11.500037,31.436501 z"
             style="fill:#404040;"/>
          </a>
         </g>
        </svg>
</svg>
