<?xml version="1.0" encoding="UTF-8" standalone="no"?>
<!DOCTYPE svg PUBLIC "-//W3C//DTD SVG 1.1//EN"
 "http://www.w3.org/Graphics/SVG/1.1/DTD/svg11.dtd">
<!-- Generated by graphviz version 2.38.0 (20140413.2041)
 -->
<!-- Title: /home/ashiroji/Arduino/libraries/CoolBoard/CoolMQTT.h Pages: 1 -->
<svg width="363pt" height="173pt"
 viewBox="0.00 0.00 363.00 173.00" xmlns="http://www.w3.org/2000/svg" xmlns:xlink="http://www.w3.org/1999/xlink">
<g id="graph0" class="graph" transform="scale(1 1) rotate(0) translate(4 169)">
<title>/home/ashiroji/Arduino/libraries/CoolBoard/CoolMQTT.h</title>
<polygon fill="white" stroke="none" points="-4,4 -4,-169 359,-169 359,4 -4,4"/>
<!-- Node4 -->
<g id="node1" class="node"><title>Node4</title>
<polygon fill="#bfbfbf" stroke="black" points="96.5,-134.5 96.5,-164.5 257.5,-164.5 257.5,-134.5 96.5,-134.5"/>
<text text-anchor="start" x="104.5" y="-152.5" font-family="Helvetica,sans-Serif" font-size="10.00">/home/ashiroji/Arduino</text>
<text text-anchor="middle" x="177" y="-141.5" font-family="Helvetica,sans-Serif" font-size="10.00">/libraries/CoolBoard/CoolMQTT.h</text>
</g>
<!-- Node5 -->
<g id="node2" class="node"><title>Node5</title>
<g id="a_node2"><a xlink:href="CoolBoard_8h.html" target="_top" xlink:title="CoolBoard Header file. ">
<polygon fill="white" stroke="black" points="5.5,-67.5 5.5,-97.5 164.5,-97.5 164.5,-67.5 5.5,-67.5"/>
<text text-anchor="start" x="13.5" y="-85.5" font-family="Helvetica,sans-Serif" font-size="10.00">/home/ashiroji/Arduino</text>
<text text-anchor="middle" x="85" y="-74.5" font-family="Helvetica,sans-Serif" font-size="10.00">/libraries/CoolBoard/CoolBoard.h</text>
</a>
</g>
</g>
<!-- Node4&#45;&gt;Node5 -->
<g id="edge1" class="edge"><title>Node4&#45;&gt;Node5</title>
<path fill="none" stroke="midnightblue" d="M148.623,-128.451C134.47,-118.452 117.695,-106.6 104.924,-97.5765"/>
<polygon fill="midnightblue" stroke="midnightblue" points="146.851,-131.484 157.037,-134.396 150.89,-125.767 146.851,-131.484"/>
</g>
<!-- Node7 -->
<g id="node4" class="node"><title>Node7</title>
<g id="a_node4"><a xlink:href="CoolMQTT_8cpp.html" target="_top" xlink:title="CoolMQTT Source File. ">
<polygon fill="white" stroke="black" points="183,-67.5 183,-97.5 355,-97.5 355,-67.5 183,-67.5"/>
<text text-anchor="start" x="191" y="-85.5" font-family="Helvetica,sans-Serif" font-size="10.00">/home/ashiroji/Arduino</text>
<text text-anchor="middle" x="269" y="-74.5" font-family="Helvetica,sans-Serif" font-size="10.00">/libraries/CoolBoard/CoolMQTT.cpp</text>
</a>
</g>
</g>
<!-- Node4&#45;&gt;Node7 -->
<g id="edge3" class="edge"><title>Node4&#45;&gt;Node7</title>
<path fill="none" stroke="midnightblue" d="M205.377,-128.451C219.53,-118.452 236.305,-106.6 249.076,-97.5765"/>
<polygon fill="midnightblue" stroke="midnightblue" points="203.11,-125.767 196.963,-134.396 207.149,-131.484 203.11,-125.767"/>
</g>
<!-- Node6 -->
<g id="node3" class="node"><title>Node6</title>
<g id="a_node3"><a xlink:href="CoolBoard_8cpp.html" target="_top" xlink:title="CoolBoard Source file. ">
<polygon fill="white" stroke="black" points="0,-0.5 0,-30.5 170,-30.5 170,-0.5 0,-0.5"/>
<text text-anchor="start" x="8" y="-18.5" font-family="Helvetica,sans-Serif" font-size="10.00">/home/ashiroji/Arduino</text>
<text text-anchor="middle" x="85" y="-7.5" font-family="Helvetica,sans-Serif" font-size="10.00">/libraries/CoolBoard/CoolBoard.cpp</text>
</a>
</g>
</g>
<!-- Node5&#45;&gt;Node6 -->
<g id="edge2" class="edge"><title>Node5&#45;&gt;Node6</title>
<path fill="none" stroke="midnightblue" d="M85,-57.1081C85,-48.1539 85,-38.3227 85,-30.5765"/>
<polygon fill="midnightblue" stroke="midnightblue" points="81.5001,-57.3959 85,-67.396 88.5001,-57.396 81.5001,-57.3959"/>
</g>
</g>
</svg>
