<?xml version="1.0" encoding="UTF-8" standalone="no"?>
<!DOCTYPE svg PUBLIC "-//W3C//DTD SVG 1.1//EN"
 "http://www.w3.org/Graphics/SVG/1.1/DTD/svg11.dtd">
<!-- Generated by graphviz version 2.38.0 (20140413.2041)
 -->
<!-- Title: CoolBoard.cpp Pages: 1 -->
<!--zoomable 252 -->
<svg id="main" version="1.1" xmlns="http://www.w3.org/2000/svg" xmlns:xlink="http://www.w3.org/1999/xlink" xml:space="preserve" onload="init(evt)">
<style type="text/css"><![CDATA[
.edge:hover path { stroke: red; }
.edge:hover polygon { stroke: red; fill: red; }
]]></style>
<script type="text/javascript"><![CDATA[
var edges = document.getElementsByTagName('g');
if (edges && edges.length) {
  for (var i=0;i<edges.length;i++) {
    if (edges[i].id.substr(0,4)=='edge') {
      edges[i].setAttribute('class','edge');
    }
  }
}
]]></script>
        <defs>
                <circle id="rim" cx="0" cy="0" r="7"/>
                <circle id="rim2" cx="0" cy="0" r="3.5"/>
                <g id="zoomPlus">
                        <use xlink:href="#rim" fill="#404040">
                                <set attributeName="fill" to="#808080" begin="zoomplus.mouseover" end="zoomplus.mouseout"/>
                        </use>
                        <path d="M-4,0h8M0,-4v8" fill="none" stroke="white" stroke-width="1.5" pointer-events="none"/>
                </g>
                <g id="zoomMin">
                        <use xlink:href="#rim" fill="#404040">
                                <set attributeName="fill" to="#808080" begin="zoomminus.mouseover" end="zoomminus.mouseout"/>
                        </use>
                        <path d="M-4,0h8" fill="none" stroke="white" stroke-width="1.5" pointer-events="none"/>
                </g>
                <g id="dirArrow">
                        <path fill="none" stroke="white" stroke-width="1.5" d="M0,-3.0v7 M-2.5,-0.5L0,-3.0L2.5,-0.5"/>
                </g>
               <g id="resetDef">
                       <use xlink:href="#rim2" fill="#404040">
                               <set attributeName="fill" to="#808080" begin="reset.mouseover" end="reset.mouseout"/>
                       </use>
               </g>
        </defs>

<script type="text/javascript">
var viewWidth = 1649;
var viewHeight = 252;
var sectionId = 'dynsection-0';
</script>
<script xlink:href="svgpan.js"/>
<svg id="graph" class="graph">
<g id="viewport">
<title>CoolBoard.cpp</title>
<polygon fill="white" stroke="none" points="-4,4 -4,-248 1644.5,-248 1644.5,4 -4,4"/>
<!-- Node0 -->
<g id="node1" class="node"><title>Node0</title>
<polygon fill="#bfbfbf" stroke="black" points="452.5,-224.5 452.5,-243.5 533.5,-243.5 533.5,-224.5 452.5,-224.5"/>
<text text-anchor="middle" x="493" y="-231.5" font-family="Helvetica,sans-Serif" font-size="10.00">CoolBoard.cpp</text>
</g>
<!-- Node1 -->
<g id="node2" class="node"><title>Node1</title>
<polygon fill="white" stroke="#bfbfbf" points="0,-168.5 0,-187.5 38,-187.5 38,-168.5 0,-168.5"/>
<text text-anchor="middle" x="19" y="-175.5" font-family="Helvetica,sans-Serif" font-size="10.00">FS.h</text>
</g>
<!-- Node0&#45;&gt;Node1 -->
<g id="edge1" class="edge"><title>Node0&#45;&gt;Node1</title>
<path fill="none" stroke="midnightblue" d="M452.249,-231.086C374.068,-226.92 197.837,-215.137 52,-188 50.7192,-187.762 49.4157,-187.498 48.1026,-187.215"/>
<polygon fill="midnightblue" stroke="midnightblue" points="48.6156,-183.738 38.0715,-184.774 46.96,-190.54 48.6156,-183.738"/>
</g>
<!-- Node2 -->
<g id="node3" class="node"><title>Node2</title>
<polygon fill="white" stroke="#bfbfbf" points="525,-0.5 525,-19.5 583,-19.5 583,-0.5 525,-0.5"/>
<text text-anchor="middle" x="554" y="-7.5" font-family="Helvetica,sans-Serif" font-size="10.00">Arduino.h</text>
</g>
<!-- Node0&#45;&gt;Node2 -->
<g id="edge2" class="edge"><title>Node0&#45;&gt;Node2</title>
<path fill="none" stroke="midnightblue" d="M452.349,-228.196C364.136,-216.849 159.789,-185.265 119,-132 113.596,-124.943 117.213,-120.707 119,-112 124.445,-85.4747 121.24,-72.1162 143,-56 201.26,-12.8506 423.479,-9.77857 514.632,-10.4024"/>
<polygon fill="midnightblue" stroke="midnightblue" points="514.795,-13.9039 524.825,-10.4916 514.856,-6.90412 514.795,-13.9039"/>
</g>
<!-- Node3 -->
<g id="node4" class="node"><title>Node3</title>
<g id="a_node4"><a xlink:href="CoolBoard_8h.html" target="_top" xlink:title="CoolBoard Header file. ">
<polygon fill="white" stroke="black" points="885.5,-168.5 885.5,-187.5 956.5,-187.5 956.5,-168.5 885.5,-168.5"/>
<text text-anchor="middle" x="921" y="-175.5" font-family="Helvetica,sans-Serif" font-size="10.00">CoolBoard.h</text>
</a>
</g>
</g>
<!-- Node0&#45;&gt;Node3 -->
<g id="edge3" class="edge"><title>Node0&#45;&gt;Node3</title>
<path fill="none" stroke="midnightblue" d="M533.651,-227.871C613.775,-217.762 791.584,-195.328 875.49,-184.742"/>
<polygon fill="midnightblue" stroke="midnightblue" points="876.002,-188.205 885.485,-183.481 875.126,-181.26 876.002,-188.205"/>
</g>
<!-- Node29 -->
<g id="node30" class="node"><title>Node29</title>
<polygon fill="white" stroke="#bfbfbf" points="974.5,-168.5 974.5,-187.5 1053.5,-187.5 1053.5,-168.5 974.5,-168.5"/>
<text text-anchor="middle" x="1014" y="-175.5" font-family="Helvetica,sans-Serif" font-size="10.00">ArduinoJson.h</text>
</g>
<!-- Node0&#45;&gt;Node29 -->
<g id="edge40" class="edge"><title>Node0&#45;&gt;Node29</title>
<path fill="none" stroke="midnightblue" d="M533.546,-230.323C613.695,-224.775 798.244,-210.729 964.077,-188.004"/>
<polygon fill="midnightblue" stroke="midnightblue" points="965.042,-191.403 974.467,-186.565 964.082,-184.47 965.042,-191.403"/>
</g>
<!-- Node3&#45;&gt;Node2 -->
<g id="edge39" class="edge"><title>Node3&#45;&gt;Node2</title>
<path fill="none" stroke="midnightblue" d="M885.394,-176.313C735.108,-173.244 159.169,-159.706 133,-132 104.487,-101.812 141.148,-76.4444 178,-56 235.13,-24.306 430.184,-14.7008 514.568,-11.9898"/>
<polygon fill="midnightblue" stroke="midnightblue" points="514.88,-15.482 524.769,-11.6786 514.667,-8.48525 514.88,-15.482"/>
</g>
<!-- Node4 -->
<g id="node5" class="node"><title>Node4</title>
<g id="a_node5"><a xlink:href="CoolFileSystem_8h.html" target="_top" xlink:title="CoolFileSystem Header File. ">
<polygon fill="white" stroke="black" points="142.5,-112.5 142.5,-131.5 237.5,-131.5 237.5,-112.5 142.5,-112.5"/>
<text text-anchor="middle" x="190" y="-119.5" font-family="Helvetica,sans-Serif" font-size="10.00">CoolFileSystem.h</text>
</a>
</g>
</g>
<!-- Node3&#45;&gt;Node4 -->
<g id="edge4" class="edge"><title>Node3&#45;&gt;Node4</title>
<path fill="none" stroke="midnightblue" d="M885.337,-175.219C786.5,-170.14 500.74,-154.488 264,-132 258.818,-131.508 253.438,-130.948 248.05,-130.354"/>
<polygon fill="midnightblue" stroke="midnightblue" points="248.06,-126.833 237.728,-129.179 247.268,-133.788 248.06,-126.833"/>
</g>
<!-- Node5 -->
<g id="node6" class="node"><title>Node5</title>
<g id="a_node6"><a xlink:href="CoolBoardSensors_8h.html" target="_top" xlink:title="CoolBoardSensors Header File. ">
<polygon fill="white" stroke="black" points="273.5,-112.5 273.5,-131.5 380.5,-131.5 380.5,-112.5 273.5,-112.5"/>
<text text-anchor="middle" x="327" y="-119.5" font-family="Helvetica,sans-Serif" font-size="10.00">CoolBoardSensors.h</text>
</a>
</g>
</g>
<!-- Node3&#45;&gt;Node5 -->
<g id="edge6" class="edge"><title>Node3&#45;&gt;Node5</title>
<path fill="none" stroke="midnightblue" d="M885.18,-173.744C787.471,-164.861 515.328,-140.121 390.743,-128.795"/>
<polygon fill="midnightblue" stroke="midnightblue" points="390.869,-125.292 380.593,-127.872 390.235,-132.263 390.869,-125.292"/>
</g>
<!-- Node8 -->
<g id="node9" class="node"><title>Node8</title>
<g id="a_node9"><a xlink:href="CoolBoardLed_8h.html" target="_top" xlink:title="CoolBoardLed Header File. ">
<polygon fill="white" stroke="black" points="442,-112.5 442,-131.5 528,-131.5 528,-112.5 442,-112.5"/>
<text text-anchor="middle" x="485" y="-119.5" font-family="Helvetica,sans-Serif" font-size="10.00">CoolBoardLed.h</text>
</a>
</g>
</g>
<!-- Node3&#45;&gt;Node8 -->
<g id="edge10" class="edge"><title>Node3&#45;&gt;Node8</title>
<path fill="none" stroke="midnightblue" d="M885.32,-172.581C808.75,-163.098 628.33,-140.752 538.191,-129.588"/>
<polygon fill="midnightblue" stroke="midnightblue" points="538.538,-126.104 528.183,-128.348 537.677,-133.051 538.538,-126.104"/>
</g>
<!-- Node10 -->
<g id="node11" class="node"><title>Node10</title>
<g id="a_node11"><a xlink:href="CoolTime_8h.html" target="_top" xlink:title="CoolTime Header File. ">
<polygon fill="white" stroke="black" points="657.5,-112.5 657.5,-131.5 724.5,-131.5 724.5,-112.5 657.5,-112.5"/>
<text text-anchor="middle" x="691" y="-119.5" font-family="Helvetica,sans-Serif" font-size="10.00">CoolTime.h</text>
</a>
</g>
</g>
<!-- Node3&#45;&gt;Node10 -->
<g id="edge13" class="edge"><title>Node3&#45;&gt;Node10</title>
<path fill="none" stroke="midnightblue" d="M885.315,-168.622C844.578,-159.058 777.953,-143.415 734.286,-133.163"/>
<polygon fill="midnightblue" stroke="midnightblue" points="735.058,-129.749 724.523,-130.871 733.458,-136.564 735.058,-129.749"/>
</g>
<!-- Node14 -->
<g id="node15" class="node"><title>Node14</title>
<g id="a_node15"><a xlink:href="CoolMQTT_8h.html" target="_top" xlink:title="CoolMQTT Header File. ">
<polygon fill="white" stroke="black" points="884.5,-112.5 884.5,-131.5 957.5,-131.5 957.5,-112.5 884.5,-112.5"/>
<text text-anchor="middle" x="921" y="-119.5" font-family="Helvetica,sans-Serif" font-size="10.00">CoolMQTT.h</text>
</a>
</g>
</g>
<!-- Node3&#45;&gt;Node14 -->
<g id="edge18" class="edge"><title>Node3&#45;&gt;Node14</title>
<path fill="none" stroke="midnightblue" d="M921,-168.083C921,-161.006 921,-150.861 921,-141.986"/>
<polygon fill="midnightblue" stroke="midnightblue" points="924.5,-141.751 921,-131.751 917.5,-141.751 924.5,-141.751"/>
</g>
<!-- Node15 -->
<g id="node16" class="node"><title>Node15</title>
<polygon fill="white" stroke="#bfbfbf" points="982,-56.5 982,-75.5 1068,-75.5 1068,-56.5 982,-56.5"/>
<text text-anchor="middle" x="1025" y="-63.5" font-family="Helvetica,sans-Serif" font-size="10.00">ESP8266WiFi.h</text>
</g>
<!-- Node3&#45;&gt;Node15 -->
<g id="edge35" class="edge"><title>Node3&#45;&gt;Node15</title>
<path fill="none" stroke="midnightblue" d="M929.752,-168.495C938.913,-159.537 953.653,-144.958 966,-132 981.523,-115.708 998.767,-96.5857 1010.58,-83.3182"/>
<polygon fill="midnightblue" stroke="midnightblue" points="1013.47,-85.3363 1017.49,-75.5335 1008.24,-80.6901 1013.47,-85.3363"/>
</g>
<!-- Node17 -->
<g id="node18" class="node"><title>Node17</title>
<g id="a_node18"><a xlink:href="Jetpack_8h.html" target="_top" xlink:title="Jetpack Header File. ">
<polygon fill="white" stroke="black" points="1020.5,-112.5 1020.5,-131.5 1079.5,-131.5 1079.5,-112.5 1020.5,-112.5"/>
<text text-anchor="middle" x="1050" y="-119.5" font-family="Helvetica,sans-Serif" font-size="10.00">Jetpack.h</text>
</a>
</g>
</g>
<!-- Node3&#45;&gt;Node17 -->
<g id="edge22" class="edge"><title>Node3&#45;&gt;Node17</title>
<path fill="none" stroke="midnightblue" d="M941.44,-168.444C962.67,-159.557 996.099,-145.563 1020.25,-135.451"/>
<polygon fill="midnightblue" stroke="midnightblue" points="1021.78,-138.606 1029.66,-131.516 1019.08,-132.149 1021.78,-138.606"/>
</g>
<!-- Node18 -->
<g id="node19" class="node"><title>Node18</title>
<g id="a_node19"><a xlink:href="Irene3000_8h.html" target="_top" xlink:title="Irene3000 Header File. ">
<polygon fill="white" stroke="black" points="1100,-112.5 1100,-131.5 1168,-131.5 1168,-112.5 1100,-112.5"/>
<text text-anchor="middle" x="1134" y="-119.5" font-family="Helvetica,sans-Serif" font-size="10.00">Irene3000.h</text>
</a>
</g>
</g>
<!-- Node3&#45;&gt;Node18 -->
<g id="edge24" class="edge"><title>Node3&#45;&gt;Node18</title>
<path fill="none" stroke="midnightblue" d="M954.75,-168.444C991.518,-159.122 1050.45,-144.183 1090.62,-133.997"/>
<polygon fill="midnightblue" stroke="midnightblue" points="1091.57,-137.367 1100.41,-131.516 1089.85,-130.581 1091.57,-137.367"/>
</g>
<!-- Node20 -->
<g id="node21" class="node"><title>Node20</title>
<g id="a_node21"><a xlink:href="ExternalSensors_8h.html" target="_top" xlink:title="ExternalSensors Header File. ">
<polygon fill="white" stroke="black" points="1216.5,-112.5 1216.5,-131.5 1313.5,-131.5 1313.5,-112.5 1216.5,-112.5"/>
<text text-anchor="middle" x="1265" y="-119.5" font-family="Helvetica,sans-Serif" font-size="10.00">ExternalSensors.h</text>
</a>
</g>
</g>
<!-- Node3&#45;&gt;Node20 -->
<g id="edge27" class="edge"><title>Node3&#45;&gt;Node20</title>
<path fill="none" stroke="midnightblue" d="M956.511,-169.569C959.379,-169.019 962.236,-168.49 965,-168 1048.46,-153.215 1145.55,-139.235 1206.15,-130.891"/>
<polygon fill="midnightblue" stroke="midnightblue" points="1206.86,-134.326 1216.29,-129.5 1205.91,-127.391 1206.86,-134.326"/>
</g>
<!-- Node26 -->
<g id="node27" class="node"><title>Node26</title>
<polygon fill="white" stroke="#bfbfbf" points="1331.5,-112.5 1331.5,-131.5 1406.5,-131.5 1406.5,-112.5 1331.5,-112.5"/>
<text text-anchor="middle" x="1369" y="-119.5" font-family="Helvetica,sans-Serif" font-size="10.00">DNSServer.h</text>
</g>
<!-- Node3&#45;&gt;Node26 -->
<g id="edge36" class="edge"><title>Node3&#45;&gt;Node26</title>
<path fill="none" stroke="midnightblue" d="M956.965,-169.335C959.678,-168.851 962.379,-168.399 965,-168 1119.42,-144.483 1162.45,-154.581 1321.21,-131.979"/>
<polygon fill="midnightblue" stroke="midnightblue" points="1321.94,-135.41 1331.34,-130.516 1320.94,-128.482 1321.94,-135.41"/>
</g>
<!-- Node27 -->
<g id="node28" class="node"><title>Node27</title>
<polygon fill="white" stroke="#bfbfbf" points="1424.5,-112.5 1424.5,-131.5 1539.5,-131.5 1539.5,-112.5 1424.5,-112.5"/>
<text text-anchor="middle" x="1482" y="-119.5" font-family="Helvetica,sans-Serif" font-size="10.00">ESP8266WebServer.h</text>
</g>
<!-- Node3&#45;&gt;Node27 -->
<g id="edge37" class="edge"><title>Node3&#45;&gt;Node27</title>
<path fill="none" stroke="midnightblue" d="M956.956,-169.273C959.672,-168.804 962.375,-168.372 965,-168 1160.45,-140.298 1213.79,-152.939 1414.31,-132.009"/>
<polygon fill="midnightblue" stroke="midnightblue" points="1414.7,-135.487 1424.28,-130.954 1413.97,-128.526 1414.7,-135.487"/>
</g>
<!-- Node28 -->
<g id="node29" class="node"><title>Node28</title>
<polygon fill="white" stroke="#bfbfbf" points="1557.5,-112.5 1557.5,-131.5 1640.5,-131.5 1640.5,-112.5 1557.5,-112.5"/>
<text text-anchor="middle" x="1599" y="-119.5" font-family="Helvetica,sans-Serif" font-size="10.00">WiFiManager.h</text>
</g>
<!-- Node3&#45;&gt;Node28 -->
<g id="edge38" class="edge"><title>Node3&#45;&gt;Node28</title>
<path fill="none" stroke="midnightblue" d="M956.949,-169.22C959.666,-168.763 962.372,-168.348 965,-168 1219.09,-134.337 1288.45,-161.888 1547.23,-131.937"/>
<polygon fill="midnightblue" stroke="midnightblue" points="1547.79,-135.396 1557.31,-130.753 1546.97,-128.444 1547.79,-135.396"/>
</g>
<!-- Node4&#45;&gt;Node2 -->
<g id="edge5" class="edge"><title>Node4&#45;&gt;Node2</title>
<path fill="none" stroke="midnightblue" d="M186.543,-112.159C181.779,-98.3296 175.244,-71.5565 189,-56 210.334,-31.8745 424.76,-17.8254 514.663,-12.9551"/>
<polygon fill="midnightblue" stroke="midnightblue" points="514.936,-16.4456 524.736,-12.4198 514.564,-9.45551 514.936,-16.4456"/>
</g>
<!-- Node5&#45;&gt;Node2 -->
<g id="edge7" class="edge"><title>Node5&#45;&gt;Node2</title>
<path fill="none" stroke="midnightblue" d="M273.207,-112.616C227.478,-103.266 173.047,-85.4505 199,-56 219.648,-32.5699 426.873,-18.1841 514.841,-13.0898"/>
<polygon fill="midnightblue" stroke="midnightblue" points="515.172,-16.5767 524.957,-12.5146 514.774,-9.58801 515.172,-16.5767"/>
</g>
<!-- Node6 -->
<g id="node7" class="node"><title>Node6</title>
<polygon fill="white" stroke="#bfbfbf" points="208.5,-56.5 208.5,-75.5 265.5,-75.5 265.5,-56.5 208.5,-56.5"/>
<text text-anchor="middle" x="237" y="-63.5" font-family="Helvetica,sans-Serif" font-size="10.00">SI114X.h</text>
</g>
<!-- Node5&#45;&gt;Node6 -->
<g id="edge8" class="edge"><title>Node5&#45;&gt;Node6</title>
<path fill="none" stroke="midnightblue" d="M312.54,-112.324C298.5,-103.9 276.952,-90.9709 260.457,-81.0741"/>
<polygon fill="midnightblue" stroke="midnightblue" points="261.8,-77.7983 251.424,-75.6545 258.198,-83.8007 261.8,-77.7983"/>
</g>
<!-- Node7 -->
<g id="node8" class="node"><title>Node7</title>
<polygon fill="white" stroke="#bfbfbf" points="284,-56.5 284,-75.5 388,-75.5 388,-56.5 284,-56.5"/>
<text text-anchor="middle" x="336" y="-63.5" font-family="Helvetica,sans-Serif" font-size="10.00">SparkFunBME280.h</text>
</g>
<!-- Node5&#45;&gt;Node7 -->
<g id="edge9" class="edge"><title>Node5&#45;&gt;Node7</title>
<path fill="none" stroke="midnightblue" d="M328.486,-112.083C329.679,-104.927 331.394,-94.6353 332.885,-85.6911"/>
<polygon fill="midnightblue" stroke="midnightblue" points="336.35,-86.1904 334.541,-75.7511 329.445,-85.0396 336.35,-86.1904"/>
</g>
<!-- Node8&#45;&gt;Node2 -->
<g id="edge11" class="edge"><title>Node8&#45;&gt;Node2</title>
<path fill="none" stroke="midnightblue" d="M469.891,-112.381C450.394,-100.13 420.594,-76.8493 435,-56 452.814,-30.219 487.432,-19.1924 514.757,-14.4848"/>
<polygon fill="midnightblue" stroke="midnightblue" points="515.454,-17.9196 524.823,-12.9724 514.414,-10.9973 515.454,-17.9196"/>
</g>
<!-- Node9 -->
<g id="node10" class="node"><title>Node9</title>
<polygon fill="white" stroke="#bfbfbf" points="444,-56.5 444,-75.5 526,-75.5 526,-56.5 444,-56.5"/>
<text text-anchor="middle" x="485" y="-63.5" font-family="Helvetica,sans-Serif" font-size="10.00">NeoPixelBus.h</text>
</g>
<!-- Node8&#45;&gt;Node9 -->
<g id="edge12" class="edge"><title>Node8&#45;&gt;Node9</title>
<path fill="none" stroke="midnightblue" d="M485,-112.083C485,-105.006 485,-94.8611 485,-85.9865"/>
<polygon fill="midnightblue" stroke="midnightblue" points="488.5,-85.751 485,-75.7511 481.5,-85.7511 488.5,-85.751"/>
</g>
<!-- Node10&#45;&gt;Node2 -->
<g id="edge14" class="edge"><title>Node10&#45;&gt;Node2</title>
<path fill="none" stroke="midnightblue" d="M657.467,-116.462C631.01,-111.158 595.01,-99.8438 573,-76 561.422,-63.4572 556.865,-44.2344 555.09,-29.943"/>
<polygon fill="midnightblue" stroke="midnightblue" points="558.556,-29.4098 554.181,-19.7605 551.584,-30.032 558.556,-29.4098"/>
</g>
<!-- Node11 -->
<g id="node12" class="node"><title>Node11</title>
<polygon fill="white" stroke="#bfbfbf" points="582.5,-56.5 582.5,-75.5 641.5,-75.5 641.5,-56.5 582.5,-56.5"/>
<text text-anchor="middle" x="612" y="-63.5" font-family="Helvetica,sans-Serif" font-size="10.00">TimeLib.h</text>
</g>
<!-- Node10&#45;&gt;Node11 -->
<g id="edge15" class="edge"><title>Node10&#45;&gt;Node11</title>
<path fill="none" stroke="midnightblue" d="M678.307,-112.324C666.099,-103.979 647.422,-91.2122 632.997,-81.3524"/>
<polygon fill="midnightblue" stroke="midnightblue" points="634.892,-78.4082 624.661,-75.6545 630.942,-84.1871 634.892,-78.4082"/>
</g>
<!-- Node12 -->
<g id="node13" class="node"><title>Node12</title>
<polygon fill="white" stroke="#bfbfbf" points="659.5,-56.5 659.5,-75.5 722.5,-75.5 722.5,-56.5 659.5,-56.5"/>
<text text-anchor="middle" x="691" y="-63.5" font-family="Helvetica,sans-Serif" font-size="10.00">WiFiUdp.h</text>
</g>
<!-- Node10&#45;&gt;Node12 -->
<g id="edge16" class="edge"><title>Node10&#45;&gt;Node12</title>
<path fill="none" stroke="midnightblue" d="M691,-112.083C691,-105.006 691,-94.8611 691,-85.9865"/>
<polygon fill="midnightblue" stroke="midnightblue" points="694.5,-85.751 691,-75.7511 687.5,-85.7511 694.5,-85.751"/>
</g>
<!-- Node13 -->
<g id="node14" class="node"><title>Node13</title>
<polygon fill="white" stroke="#bfbfbf" points="740.5,-56.5 740.5,-75.5 821.5,-75.5 821.5,-56.5 740.5,-56.5"/>
<text text-anchor="middle" x="781" y="-63.5" font-family="Helvetica,sans-Serif" font-size="10.00">DS1337RTC.h</text>
</g>
<!-- Node10&#45;&gt;Node13 -->
<g id="edge17" class="edge"><title>Node10&#45;&gt;Node13</title>
<path fill="none" stroke="midnightblue" d="M705.46,-112.324C719.5,-103.9 741.048,-90.9709 757.543,-81.0741"/>
<polygon fill="midnightblue" stroke="midnightblue" points="759.802,-83.8007 766.576,-75.6545 756.2,-77.7983 759.802,-83.8007"/>
</g>
<!-- Node14&#45;&gt;Node2 -->
<g id="edge19" class="edge"><title>Node14&#45;&gt;Node2</title>
<path fill="none" stroke="midnightblue" d="M911.798,-112.165C896.297,-97.8383 863.387,-69.7605 830,-56 750.301,-23.1522 648.386,-14.2222 593.412,-11.8337"/>
<polygon fill="midnightblue" stroke="midnightblue" points="593.514,-8.33506 583.387,-11.4487 593.245,-15.3299 593.514,-8.33506"/>
</g>
<!-- Node14&#45;&gt;Node15 -->
<g id="edge20" class="edge"><title>Node14&#45;&gt;Node15</title>
<path fill="none" stroke="midnightblue" d="M937.709,-112.324C954.312,-103.703 980.002,-90.3643 999.22,-80.3855"/>
<polygon fill="midnightblue" stroke="midnightblue" points="1001.07,-83.3689 1008.33,-75.6545 997.844,-77.1565 1001.07,-83.3689"/>
</g>
<!-- Node16 -->
<g id="node17" class="node"><title>Node16</title>
<polygon fill="white" stroke="#bfbfbf" points="878.5,-56.5 878.5,-75.5 963.5,-75.5 963.5,-56.5 878.5,-56.5"/>
<text text-anchor="middle" x="921" y="-63.5" font-family="Helvetica,sans-Serif" font-size="10.00">PubSubClient.h</text>
</g>
<!-- Node14&#45;&gt;Node16 -->
<g id="edge21" class="edge"><title>Node14&#45;&gt;Node16</title>
<path fill="none" stroke="midnightblue" d="M921,-112.083C921,-105.006 921,-94.8611 921,-85.9865"/>
<polygon fill="midnightblue" stroke="midnightblue" points="924.5,-85.751 921,-75.7511 917.5,-85.7511 924.5,-85.751"/>
</g>
<!-- Node17&#45;&gt;Node2 -->
<g id="edge23" class="edge"><title>Node17&#45;&gt;Node2</title>
<path fill="none" stroke="midnightblue" d="M1058.81,-112.399C1071.6,-98.8975 1092.2,-72.566 1077,-56 1044.47,-20.5535 709.779,-12.9662 593.525,-11.3957"/>
<polygon fill="midnightblue" stroke="midnightblue" points="593.335,-7.89307 583.292,-11.2655 593.246,-14.8925 593.335,-7.89307"/>
</g>
<!-- Node18&#45;&gt;Node2 -->
<g id="edge26" class="edge"><title>Node18&#45;&gt;Node2</title>
<path fill="none" stroke="midnightblue" d="M1131.52,-112.439C1126.85,-97.9849 1115.22,-69.0447 1094,-56 1051.64,-29.9643 711.006,-16.242 593.602,-12.2509"/>
<polygon fill="midnightblue" stroke="midnightblue" points="593.387,-8.74182 583.275,-11.9055 593.152,-15.7379 593.387,-8.74182"/>
</g>
<!-- Node19 -->
<g id="node20" class="node"><title>Node19</title>
<polygon fill="white" stroke="#bfbfbf" points="1162,-56.5 1162,-75.5 1268,-75.5 1268,-56.5 1162,-56.5"/>
<text text-anchor="middle" x="1215" y="-63.5" font-family="Helvetica,sans-Serif" font-size="10.00">Adafruit_ADS1015.h</text>
</g>
<!-- Node18&#45;&gt;Node19 -->
<g id="edge25" class="edge"><title>Node18&#45;&gt;Node19</title>
<path fill="none" stroke="midnightblue" d="M1147.01,-112.324C1159.53,-103.979 1178.68,-91.2122 1193.47,-81.3524"/>
<polygon fill="midnightblue" stroke="midnightblue" points="1195.64,-84.1137 1202.02,-75.6545 1191.76,-78.2894 1195.64,-84.1137"/>
</g>
<!-- Node20&#45;&gt;Node2 -->
<g id="edge28" class="edge"><title>Node20&#45;&gt;Node2</title>
<path fill="none" stroke="midnightblue" d="M1270.74,-112.119C1278.93,-98.2344 1291.46,-71.3872 1277,-56 1253.42,-30.9089 740.985,-15.8129 593.427,-11.9751"/>
<polygon fill="midnightblue" stroke="midnightblue" points="593.135,-8.46648 583.048,-11.7081 592.955,-15.4642 593.135,-8.46648"/>
</g>
<!-- Node21 -->
<g id="node22" class="node"><title>Node21</title>
<polygon fill="white" stroke="#bfbfbf" points="1324.5,-56.5 1324.5,-75.5 1369.5,-75.5 1369.5,-56.5 1324.5,-56.5"/>
<text text-anchor="middle" x="1347" y="-63.5" font-family="Helvetica,sans-Serif" font-size="10.00">Wire.h</text>
</g>
<!-- Node20&#45;&gt;Node21 -->
<g id="edge29" class="edge"><title>Node20&#45;&gt;Node21</title>
<path fill="none" stroke="midnightblue" d="M1278.17,-112.324C1290.85,-103.979 1310.23,-91.2122 1325.21,-81.3524"/>
<polygon fill="midnightblue" stroke="midnightblue" points="1327.43,-84.0776 1333.86,-75.6545 1323.58,-78.2313 1327.43,-84.0776"/>
</g>
<!-- Node22 -->
<g id="node23" class="node"><title>Node22</title>
<polygon fill="white" stroke="#bfbfbf" points="1387.5,-56.5 1387.5,-75.5 1450.5,-75.5 1450.5,-56.5 1387.5,-56.5"/>
<text text-anchor="middle" x="1419" y="-63.5" font-family="Helvetica,sans-Serif" font-size="10.00">OneWire.h</text>
</g>
<!-- Node20&#45;&gt;Node22 -->
<g id="edge30" class="edge"><title>Node20&#45;&gt;Node22</title>
<path fill="none" stroke="midnightblue" d="M1289.4,-112.444C1315.2,-103.399 1356.08,-89.064 1385.02,-78.9158"/>
<polygon fill="midnightblue" stroke="midnightblue" points="1386.43,-82.1283 1394.71,-75.5164 1384.12,-75.5226 1386.43,-82.1283"/>
</g>
<!-- Node23 -->
<g id="node24" class="node"><title>Node23</title>
<g id="a_node24"><a xlink:href="ExternalSensor_8h.html" target="_top" xlink:title="ExternalSensor Header File. ">
<polygon fill="white" stroke="black" points="1469,-56.5 1469,-75.5 1561,-75.5 1561,-56.5 1469,-56.5"/>
<text text-anchor="middle" x="1515" y="-63.5" font-family="Helvetica,sans-Serif" font-size="10.00">ExternalSensor.h</text>
</a>
</g>
</g>
<!-- Node20&#45;&gt;Node23 -->
<g id="edge31" class="edge"><title>Node20&#45;&gt;Node23</title>
<path fill="none" stroke="midnightblue" d="M1304.61,-112.444C1348.23,-103.023 1418.4,-87.8656 1465.58,-77.6752"/>
<polygon fill="midnightblue" stroke="midnightblue" points="1466.54,-81.0489 1475.57,-75.5164 1465.06,-74.2067 1466.54,-81.0489"/>
</g>
<!-- Node23&#45;&gt;Node2 -->
<g id="edge34" class="edge"><title>Node23&#45;&gt;Node2</title>
<path fill="none" stroke="midnightblue" d="M1468.91,-57.1818C1465.56,-56.7402 1462.23,-56.339 1459,-56 1125.31,-20.9961 719.461,-13.083 593.311,-11.4168"/>
<polygon fill="midnightblue" stroke="midnightblue" points="593.046,-7.91329 583.002,-11.2865 592.957,-14.9127 593.046,-7.91329"/>
</g>
<!-- Node24 -->
<g id="node25" class="node"><title>Node24</title>
<polygon fill="white" stroke="#bfbfbf" points="1425.5,-0.5 1425.5,-19.5 1496.5,-19.5 1496.5,-0.5 1425.5,-0.5"/>
<text text-anchor="middle" x="1461" y="-7.5" font-family="Helvetica,sans-Serif" font-size="10.00">NDIR_I2C.h</text>
</g>
<!-- Node23&#45;&gt;Node24 -->
<g id="edge32" class="edge"><title>Node23&#45;&gt;Node24</title>
<path fill="none" stroke="midnightblue" d="M1506.08,-56.083C1498.22,-48.2195 1486.57,-36.5688 1477.08,-27.0813"/>
<polygon fill="midnightblue" stroke="midnightblue" points="1479.3,-24.3473 1469.75,-19.7511 1474.35,-29.2971 1479.3,-24.3473"/>
</g>
<!-- Node25 -->
<g id="node26" class="node"><title>Node25</title>
<polygon fill="white" stroke="#bfbfbf" points="1514.5,-0.5 1514.5,-19.5 1621.5,-19.5 1621.5,-0.5 1514.5,-0.5"/>
<text text-anchor="middle" x="1568" y="-7.5" font-family="Helvetica,sans-Serif" font-size="10.00">DallasTemperature.h</text>
</g>
<!-- Node23&#45;&gt;Node25 -->
<g id="edge33" class="edge"><title>Node23&#45;&gt;Node25</title>
<path fill="none" stroke="midnightblue" d="M1523.75,-56.083C1531.47,-48.2195 1542.9,-36.5688 1552.22,-27.0813"/>
<polygon fill="midnightblue" stroke="midnightblue" points="1554.9,-29.3396 1559.41,-19.7511 1549.91,-24.4363 1554.9,-29.3396"/>
</g>
</g>
</svg>
        <g id="navigator" transform="translate(0 0)" fill="#404254">
                <rect fill="#f2f5e9" fill-opacity="0.5" stroke="#606060" stroke-width=".5" x="0" y="0" width="60" height="60"/>
                <use id="zoomplus" xlink:href="#zoomPlus" x="17" y="9" onmousedown="handleZoom(evt,'in')"/>
                <use id="zoomminus" xlink:href="#zoomMin" x="42" y="9" onmousedown="handleZoom(evt,'out')"/>
                <use id="reset" xlink:href="#resetDef" x="30" y="36" onmousedown="handleReset()"/>
                <g id="arrowUp" xlink:href="#dirArrow" transform="translate(30 24)" onmousedown="handlePan(0,-1)">
                  <use xlink:href="#rim" fill="#404040">
                        <set attributeName="fill" to="#808080" begin="arrowUp.mouseover" end="arrowUp.mouseout"/>
                  </use>
                  <path fill="none" stroke="white" stroke-width="1.5" d="M0,-3.0v7 M-2.5,-0.5L0,-3.0L2.5,-0.5"/>
                </g>
                <g id="arrowRight" xlink:href="#dirArrow" transform="rotate(90) translate(36 -43)" onmousedown="handlePan(1,0)">
                  <use xlink:href="#rim" fill="#404040">
                        <set attributeName="fill" to="#808080" begin="arrowRight.mouseover" end="arrowRight.mouseout"/>
                  </use>
                  <path fill="none" stroke="white" stroke-width="1.5" d="M0,-3.0v7 M-2.5,-0.5L0,-3.0L2.5,-0.5"/>
                </g>
                <g id="arrowDown" xlink:href="#dirArrow" transform="rotate(180) translate(-30 -48)" onmousedown="handlePan(0,1)">
                  <use xlink:href="#rim" fill="#404040">
                        <set attributeName="fill" to="#808080" begin="arrowDown.mouseover" end="arrowDown.mouseout"/>
                  </use>
                  <path fill="none" stroke="white" stroke-width="1.5" d="M0,-3.0v7 M-2.5,-0.5L0,-3.0L2.5,-0.5"/>
                </g>
                <g id="arrowLeft" xlink:href="#dirArrow" transform="rotate(270) translate(-36 17)" onmousedown="handlePan(-1,0)">
                  <use xlink:href="#rim" fill="#404040">
                        <set attributeName="fill" to="#808080" begin="arrowLeft.mouseover" end="arrowLeft.mouseout"/>
                  </use>
                  <path fill="none" stroke="white" stroke-width="1.5" d="M0,-3.0v7 M-2.5,-0.5L0,-3.0L2.5,-0.5"/>
                </g>
        </g>
        <svg viewBox="0 0 15 15" width="100%" height="30px" preserveAspectRatio="xMaxYMin meet">
         <g id="arrow_out" transform="scale(0.3 0.3)">
          <a xlink:href="CoolBoard_8cpp__incl_org.svg" target="_base">
           <rect id="button" ry="5" rx="5" y="6" x="6" height="38" width="38"
                fill="#f2f5e9" fill-opacity="0.5" stroke="#606060" stroke-width="1.0"/>
           <path id="arrow"
             d="M 11.500037,31.436501 C 11.940474,20.09759 22.043105,11.32322 32.158766,21.979434 L 37.068811,17.246167 C 37.068811,17.246167 37.088388,32 37.088388,32 L 22.160133,31.978069 C 22.160133,31.978069 26.997745,27.140456 26.997745,27.140456 C 18.528582,18.264221 13.291696,25.230495 11.500037,31.436501 z"
             style="fill:#404040;"/>
          </a>
         </g>
        </svg>
</svg>
