<?xml version="1.0" encoding="UTF-8" standalone="no"?>
<!DOCTYPE svg PUBLIC "-//W3C//DTD SVG 1.1//EN"
 "http://www.w3.org/Graphics/SVG/1.1/DTD/svg11.dtd">
<!-- Generated by graphviz version 2.38.0 (20140413.2041)
 -->
<!-- Title: /home/ashiroji/Arduino/libraries/CoolBoard/CoolBoard.cpp Pages: 1 -->
<!--zoomable 263 -->
<svg id="main" version="1.1" xmlns="http://www.w3.org/2000/svg" xmlns:xlink="http://www.w3.org/1999/xlink" xml:space="preserve" onload="init(evt)">
<style type="text/css"><![CDATA[
.edge:hover path { stroke: red; }
.edge:hover polygon { stroke: red; fill: red; }
]]></style>
<script type="text/javascript"><![CDATA[
var edges = document.getElementsByTagName('g');
if (edges && edges.length) {
  for (var i=0;i<edges.length;i++) {
    if (edges[i].id.substr(0,4)=='edge') {
      edges[i].setAttribute('class','edge');
    }
  }
}
]]></script>
        <defs>
                <circle id="rim" cx="0" cy="0" r="7"/>
                <circle id="rim2" cx="0" cy="0" r="3.5"/>
                <g id="zoomPlus">
                        <use xlink:href="#rim" fill="#404040">
                                <set attributeName="fill" to="#808080" begin="zoomplus.mouseover" end="zoomplus.mouseout"/>
                        </use>
                        <path d="M-4,0h8M0,-4v8" fill="none" stroke="white" stroke-width="1.5" pointer-events="none"/>
                </g>
                <g id="zoomMin">
                        <use xlink:href="#rim" fill="#404040">
                                <set attributeName="fill" to="#808080" begin="zoomminus.mouseover" end="zoomminus.mouseout"/>
                        </use>
                        <path d="M-4,0h8" fill="none" stroke="white" stroke-width="1.5" pointer-events="none"/>
                </g>
                <g id="dirArrow">
                        <path fill="none" stroke="white" stroke-width="1.5" d="M0,-3.0v7 M-2.5,-0.5L0,-3.0L2.5,-0.5"/>
                </g>
               <g id="resetDef">
                       <use xlink:href="#rim2" fill="#404040">
                               <set attributeName="fill" to="#808080" begin="reset.mouseover" end="reset.mouseout"/>
                       </use>
               </g>
        </defs>

<script type="text/javascript">
var viewWidth = 2218;
var viewHeight = 263;
var sectionId = 'dynsection-0';
</script>
<script xlink:href="svgpan.js"/>
<svg id="graph" class="graph">
<g id="viewport">
<title>/home/ashiroji/Arduino/libraries/CoolBoard/CoolBoard.cpp</title>
<polygon fill="white" stroke="none" points="-4,4 -4,-259 2213.5,-259 2213.5,4 -4,4"/>
<!-- Node0 -->
<g id="node1" class="node"><title>Node0</title>
<polygon fill="#bfbfbf" stroke="black" points="1946.5,-224.5 1946.5,-254.5 2116.5,-254.5 2116.5,-224.5 1946.5,-224.5"/>
<text text-anchor="start" x="1954.5" y="-242.5" font-family="Helvetica,sans-Serif" font-size="10.00">/home/ashiroji/Arduino</text>
<text text-anchor="middle" x="2031.5" y="-231.5" font-family="Helvetica,sans-Serif" font-size="10.00">/libraries/CoolBoard/CoolBoard.cpp</text>
</g>
<!-- Node1 -->
<g id="node2" class="node"><title>Node1</title>
<polygon fill="white" stroke="#bfbfbf" points="755.5,-168.5 755.5,-187.5 793.5,-187.5 793.5,-168.5 755.5,-168.5"/>
<text text-anchor="middle" x="774.5" y="-175.5" font-family="Helvetica,sans-Serif" font-size="10.00">FS.h</text>
</g>
<!-- Node0&#45;&gt;Node1 -->
<g id="edge1" class="edge"><title>Node0&#45;&gt;Node1</title>
<path fill="none" stroke="midnightblue" d="M1946.38,-237.984C1708.99,-236.079 1041.98,-227.424 803.611,-187.627"/>
<polygon fill="midnightblue" stroke="midnightblue" points="804.058,-184.152 793.607,-185.893 802.862,-191.049 804.058,-184.152"/>
</g>
<!-- Node2 -->
<g id="node3" class="node"><title>Node2</title>
<g id="a_node3"><a xlink:href="CoolBoard_8h.html" target="_top" xlink:title="CoolBoard Header file. ">
<polygon fill="white" stroke="black" points="812,-168.5 812,-187.5 883,-187.5 883,-168.5 812,-168.5"/>
<text text-anchor="middle" x="847.5" y="-175.5" font-family="Helvetica,sans-Serif" font-size="10.00">CoolBoard.h</text>
</a>
</g>
</g>
<!-- Node0&#45;&gt;Node2 -->
<g id="edge2" class="edge"><title>Node0&#45;&gt;Node2</title>
<path fill="none" stroke="midnightblue" d="M1946.35,-234.221C1713.18,-222.504 1069.96,-190.18 893.051,-181.289"/>
<polygon fill="midnightblue" stroke="midnightblue" points="893.204,-177.792 883.04,-180.786 892.852,-184.784 893.204,-177.792"/>
</g>
<!-- Node4 -->
<g id="node5" class="node"><title>Node4</title>
<polygon fill="white" stroke="#bfbfbf" points="849.5,-0.5 849.5,-19.5 907.5,-19.5 907.5,-0.5 849.5,-0.5"/>
<text text-anchor="middle" x="878.5" y="-7.5" font-family="Helvetica,sans-Serif" font-size="10.00">Arduino.h</text>
</g>
<!-- Node0&#45;&gt;Node4 -->
<g id="edge43" class="edge"><title>Node0&#45;&gt;Node4</title>
<path fill="none" stroke="midnightblue" d="M2035.33,-224.472C2043.82,-189.949 2059.9,-100.456 2012.5,-56 1992.1,-36.871 1115.69,-16.2722 917.886,-11.8612"/>
<polygon fill="midnightblue" stroke="midnightblue" points="917.742,-8.3572 907.666,-11.6342 917.586,-15.3555 917.742,-8.3572"/>
</g>
<!-- Node31 -->
<g id="node32" class="node"><title>Node31</title>
<polygon fill="white" stroke="#bfbfbf" points="2060,-168.5 2060,-187.5 2139,-187.5 2139,-168.5 2060,-168.5"/>
<text text-anchor="middle" x="2099.5" y="-175.5" font-family="Helvetica,sans-Serif" font-size="10.00">ArduinoJson.h</text>
</g>
<!-- Node0&#45;&gt;Node31 -->
<g id="edge42" class="edge"><title>Node0&#45;&gt;Node31</title>
<path fill="none" stroke="midnightblue" d="M2047.62,-224.399C2057.9,-215.397 2071.25,-203.721 2081.83,-194.465"/>
<polygon fill="midnightblue" stroke="midnightblue" points="2084.38,-196.877 2089.61,-187.658 2079.77,-191.609 2084.38,-196.877"/>
</g>
<!-- Node32 -->
<g id="node33" class="node"><title>Node32</title>
<polygon fill="white" stroke="#bfbfbf" points="2157.5,-168.5 2157.5,-187.5 2209.5,-187.5 2209.5,-168.5 2157.5,-168.5"/>
<text text-anchor="middle" x="2183.5" y="-175.5" font-family="Helvetica,sans-Serif" font-size="10.00">memory</text>
</g>
<!-- Node0&#45;&gt;Node32 -->
<g id="edge44" class="edge"><title>Node0&#45;&gt;Node32</title>
<path fill="none" stroke="midnightblue" d="M2067.52,-224.399C2093.14,-214.372 2127.23,-201.028 2151.81,-191.405"/>
<polygon fill="midnightblue" stroke="midnightblue" points="2153.35,-194.562 2161.38,-187.658 2150.79,-188.044 2153.35,-194.562"/>
</g>
<!-- Node3 -->
<g id="node4" class="node"><title>Node3</title>
<g id="a_node4"><a xlink:href="CoolFileSystem_8h.html" target="_top" xlink:title="CoolFileSystem Header File. ">
<polygon fill="white" stroke="black" points="854,-112.5 854,-131.5 949,-131.5 949,-112.5 854,-112.5"/>
<text text-anchor="middle" x="901.5" y="-119.5" font-family="Helvetica,sans-Serif" font-size="10.00">CoolFileSystem.h</text>
</a>
</g>
</g>
<!-- Node2&#45;&gt;Node3 -->
<g id="edge3" class="edge"><title>Node2&#45;&gt;Node3</title>
<path fill="none" stroke="midnightblue" d="M856.417,-168.083C864.28,-160.22 875.931,-148.569 885.419,-139.081"/>
<polygon fill="midnightblue" stroke="midnightblue" points="888.153,-141.297 892.749,-131.751 883.203,-136.347 888.153,-141.297"/>
</g>
<!-- Node2&#45;&gt;Node4 -->
<g id="edge41" class="edge"><title>Node2&#45;&gt;Node4</title>
<path fill="none" stroke="midnightblue" d="M817.408,-168.427C788.987,-159.65 749.421,-145.429 740.5,-132 721.81,-103.864 720.66,-83.3373 740.5,-56 762.871,-25.1745 806.93,-15.062 839.269,-11.9495"/>
<polygon fill="midnightblue" stroke="midnightblue" points="839.616,-15.4331 849.314,-11.1675 839.073,-8.45425 839.616,-15.4331"/>
</g>
<!-- Node5 -->
<g id="node6" class="node"><title>Node5</title>
<g id="a_node6"><a xlink:href="CoolBoardSensors_8h.html" target="_top" xlink:title="CoolBoardSensors Header File. ">
<polygon fill="white" stroke="black" points="144,-112.5 144,-131.5 251,-131.5 251,-112.5 144,-112.5"/>
<text text-anchor="middle" x="197.5" y="-119.5" font-family="Helvetica,sans-Serif" font-size="10.00">CoolBoardSensors.h</text>
</a>
</g>
</g>
<!-- Node2&#45;&gt;Node5 -->
<g id="edge5" class="edge"><title>Node2&#45;&gt;Node5</title>
<path fill="none" stroke="midnightblue" d="M811.707,-169.42C808.601,-168.89 805.5,-168.406 802.5,-168 581.277,-138.05 524.044,-149.624 301.5,-132 288.471,-130.968 274.529,-129.803 261.223,-128.663"/>
<polygon fill="midnightblue" stroke="midnightblue" points="261.461,-125.17 251.198,-127.797 260.86,-132.144 261.461,-125.17"/>
</g>
<!-- Node8 -->
<g id="node9" class="node"><title>Node8</title>
<g id="a_node9"><a xlink:href="CoolBoardLed_8h.html" target="_top" xlink:title="CoolBoardLed Header File. ">
<polygon fill="white" stroke="black" points="749.5,-112.5 749.5,-131.5 835.5,-131.5 835.5,-112.5 749.5,-112.5"/>
<text text-anchor="middle" x="792.5" y="-119.5" font-family="Helvetica,sans-Serif" font-size="10.00">CoolBoardLed.h</text>
</a>
</g>
</g>
<!-- Node2&#45;&gt;Node8 -->
<g id="edge9" class="edge"><title>Node2&#45;&gt;Node8</title>
<path fill="none" stroke="midnightblue" d="M838.418,-168.083C830.329,-160.141 818.305,-148.335 808.59,-138.797"/>
<polygon fill="midnightblue" stroke="midnightblue" points="811.001,-136.26 801.413,-131.751 806.097,-141.254 811.001,-136.26"/>
</g>
<!-- Node10 -->
<g id="node11" class="node"><title>Node10</title>
<g id="a_node11"><a xlink:href="CoolTime_8h.html" target="_top" xlink:title="CoolTime Header File. ">
<polygon fill="white" stroke="black" points="592,-112.5 592,-131.5 659,-131.5 659,-112.5 592,-112.5"/>
<text text-anchor="middle" x="625.5" y="-119.5" font-family="Helvetica,sans-Serif" font-size="10.00">CoolTime.h</text>
</a>
</g>
</g>
<!-- Node2&#45;&gt;Node10 -->
<g id="edge12" class="edge"><title>Node2&#45;&gt;Node10</title>
<path fill="none" stroke="midnightblue" d="M812.323,-168.444C773.469,-158.992 710.872,-143.766 668.975,-133.575"/>
<polygon fill="midnightblue" stroke="midnightblue" points="669.603,-130.126 659.059,-131.163 667.948,-136.927 669.603,-130.126"/>
</g>
<!-- Node14 -->
<g id="node15" class="node"><title>Node14</title>
<g id="a_node15"><a xlink:href="CoolMQTT_8h.html" target="_top" xlink:title="CoolMQTT Header File. ">
<polygon fill="white" stroke="black" points="983,-112.5 983,-131.5 1056,-131.5 1056,-112.5 983,-112.5"/>
<text text-anchor="middle" x="1019.5" y="-119.5" font-family="Helvetica,sans-Serif" font-size="10.00">CoolMQTT.h</text>
</a>
</g>
</g>
<!-- Node2&#45;&gt;Node14 -->
<g id="edge17" class="edge"><title>Node2&#45;&gt;Node14</title>
<path fill="none" stroke="midnightblue" d="M874.754,-168.444C903.941,-159.28 950.421,-144.688 982.809,-134.519"/>
<polygon fill="midnightblue" stroke="midnightblue" points="983.881,-137.851 992.374,-131.516 981.784,-131.173 983.881,-137.851"/>
</g>
<!-- Node17 -->
<g id="node18" class="node"><title>Node17</title>
<g id="a_node18"><a xlink:href="Jetpack_8h.html" target="_top" xlink:title="Jetpack Header File. ">
<polygon fill="white" stroke="black" points="0,-112.5 0,-131.5 59,-131.5 59,-112.5 0,-112.5"/>
<text text-anchor="middle" x="29.5" y="-119.5" font-family="Helvetica,sans-Serif" font-size="10.00">Jetpack.h</text>
</a>
</g>
</g>
<!-- Node2&#45;&gt;Node17 -->
<g id="edge21" class="edge"><title>Node2&#45;&gt;Node17</title>
<path fill="none" stroke="midnightblue" d="M811.715,-169.361C808.607,-168.844 805.504,-168.379 802.5,-168 507.523,-130.749 431.098,-152.698 134.5,-132 112.995,-130.499 89.0433,-128.473 69.4524,-126.724"/>
<polygon fill="midnightblue" stroke="midnightblue" points="69.6258,-123.225 59.3516,-125.812 68.9963,-130.197 69.6258,-123.225"/>
</g>
<!-- Node18 -->
<g id="node19" class="node"><title>Node18</title>
<g id="a_node19"><a xlink:href="Irene3000_8h.html" target="_top" xlink:title="Irene3000 Header File. ">
<polygon fill="white" stroke="black" points="310.5,-112.5 310.5,-131.5 378.5,-131.5 378.5,-112.5 310.5,-112.5"/>
<text text-anchor="middle" x="344.5" y="-119.5" font-family="Helvetica,sans-Serif" font-size="10.00">Irene3000.h</text>
</a>
</g>
</g>
<!-- Node2&#45;&gt;Node18 -->
<g id="edge23" class="edge"><title>Node2&#45;&gt;Node18</title>
<path fill="none" stroke="midnightblue" d="M811.695,-169.505C808.592,-168.957 805.495,-168.445 802.5,-168 651.461,-145.533 470.669,-131.531 388.735,-125.877"/>
<polygon fill="midnightblue" stroke="midnightblue" points="388.756,-122.37 378.541,-125.181 388.28,-129.354 388.756,-122.37"/>
</g>
<!-- Node20 -->
<g id="node21" class="node"><title>Node20</title>
<g id="a_node21"><a xlink:href="ExternalSensors_8h.html" target="_top" xlink:title="ExternalSensors Header File. ">
<polygon fill="white" stroke="black" points="1089,-112.5 1089,-131.5 1186,-131.5 1186,-112.5 1089,-112.5"/>
<text text-anchor="middle" x="1137.5" y="-119.5" font-family="Helvetica,sans-Serif" font-size="10.00">ExternalSensors.h</text>
</a>
</g>
</g>
<!-- Node2&#45;&gt;Node20 -->
<g id="edge26" class="edge"><title>Node2&#45;&gt;Node20</title>
<path fill="none" stroke="midnightblue" d="M883.06,-170.379C932.672,-161.14 1023.15,-144.292 1081.77,-133.377"/>
<polygon fill="midnightblue" stroke="midnightblue" points="1082.42,-136.817 1091.61,-131.545 1081.14,-129.935 1082.42,-136.817"/>
</g>
<!-- Node26 -->
<g id="node27" class="node"><title>Node26</title>
<g id="a_node27"><a xlink:href="CoolWifi_8h.html" target="_top" xlink:title="CoolWifi Header File. ">
<polygon fill="white" stroke="black" points="1525.5,-112.5 1525.5,-131.5 1587.5,-131.5 1587.5,-112.5 1525.5,-112.5"/>
<text text-anchor="middle" x="1556.5" y="-119.5" font-family="Helvetica,sans-Serif" font-size="10.00">CoolWifi.h</text>
</a>
</g>
</g>
<!-- Node2&#45;&gt;Node26 -->
<g id="edge34" class="edge"><title>Node2&#45;&gt;Node26</title>
<path fill="none" stroke="midnightblue" d="M883.145,-174.285C1002.5,-165.194 1387.76,-135.852 1515.16,-126.148"/>
<polygon fill="midnightblue" stroke="midnightblue" points="1515.58,-129.627 1525.29,-125.377 1515.05,-122.647 1515.58,-129.627"/>
</g>
<!-- Node3&#45;&gt;Node4 -->
<g id="edge4" class="edge"><title>Node3&#45;&gt;Node4</title>
<path fill="none" stroke="midnightblue" d="M899.695,-112.368C895.984,-94.617 887.421,-53.6664 882.389,-29.5974"/>
<polygon fill="midnightblue" stroke="midnightblue" points="885.769,-28.6634 880.296,-19.5914 878.917,-30.0961 885.769,-28.6634"/>
</g>
<!-- Node5&#45;&gt;Node4 -->
<g id="edge6" class="edge"><title>Node5&#45;&gt;Node4</title>
<path fill="none" stroke="midnightblue" d="M204.35,-112.31C216.48,-97.6618 243.322,-68.4365 273.5,-56 376.431,-13.5823 721.925,-10.5339 839.182,-10.7592"/>
<polygon fill="midnightblue" stroke="midnightblue" points="839.473,-14.26 849.483,-10.7888 839.493,-7.26001 839.473,-14.26"/>
</g>
<!-- Node6 -->
<g id="node7" class="node"><title>Node6</title>
<polygon fill="white" stroke="#bfbfbf" points="140,-56.5 140,-75.5 197,-75.5 197,-56.5 140,-56.5"/>
<text text-anchor="middle" x="168.5" y="-63.5" font-family="Helvetica,sans-Serif" font-size="10.00">SI114X.h</text>
</g>
<!-- Node5&#45;&gt;Node6 -->
<g id="edge7" class="edge"><title>Node5&#45;&gt;Node6</title>
<path fill="none" stroke="midnightblue" d="M192.711,-112.083C188.742,-104.691 182.975,-93.9533 178.065,-84.8111"/>
<polygon fill="midnightblue" stroke="midnightblue" points="181.014,-82.9051 173.2,-75.7511 174.847,-86.217 181.014,-82.9051"/>
</g>
<!-- Node7 -->
<g id="node8" class="node"><title>Node7</title>
<polygon fill="white" stroke="#bfbfbf" points="17.5,-56.5 17.5,-75.5 121.5,-75.5 121.5,-56.5 17.5,-56.5"/>
<text text-anchor="middle" x="69.5" y="-63.5" font-family="Helvetica,sans-Serif" font-size="10.00">SparkFunBME280.h</text>
</g>
<!-- Node5&#45;&gt;Node7 -->
<g id="edge8" class="edge"><title>Node5&#45;&gt;Node7</title>
<path fill="none" stroke="midnightblue" d="M177.218,-112.444C156.153,-103.557 122.983,-89.5632 99.0145,-79.4514"/>
<polygon fill="midnightblue" stroke="midnightblue" points="100.261,-76.1787 89.6871,-75.5164 97.5403,-82.6283 100.261,-76.1787"/>
</g>
<!-- Node8&#45;&gt;Node4 -->
<g id="edge10" class="edge"><title>Node8&#45;&gt;Node4</title>
<path fill="none" stroke="midnightblue" d="M803.269,-112.468C813.599,-103.944 829.245,-90.1089 840.5,-76 852.192,-61.3426 862.712,-42.7043 869.702,-29.1477"/>
<polygon fill="midnightblue" stroke="midnightblue" points="872.974,-30.4304 874.321,-19.9215 866.714,-27.2969 872.974,-30.4304"/>
</g>
<!-- Node9 -->
<g id="node10" class="node"><title>Node9</title>
<polygon fill="white" stroke="#bfbfbf" points="749.5,-56.5 749.5,-75.5 831.5,-75.5 831.5,-56.5 749.5,-56.5"/>
<text text-anchor="middle" x="790.5" y="-63.5" font-family="Helvetica,sans-Serif" font-size="10.00">NeoPixelBus.h</text>
</g>
<!-- Node8&#45;&gt;Node9 -->
<g id="edge11" class="edge"><title>Node8&#45;&gt;Node9</title>
<path fill="none" stroke="midnightblue" d="M792.17,-112.083C791.908,-105.006 791.532,-94.8611 791.203,-85.9865"/>
<polygon fill="midnightblue" stroke="midnightblue" points="794.692,-85.6147 790.824,-75.7511 787.697,-85.8738 794.692,-85.6147"/>
</g>
<!-- Node10&#45;&gt;Node4 -->
<g id="edge13" class="edge"><title>Node10&#45;&gt;Node4</title>
<path fill="none" stroke="midnightblue" d="M633.762,-112.468C647.686,-98.5793 677.28,-71.1154 707.5,-56 749.981,-34.7519 803.577,-22.75 839.334,-16.5795"/>
<polygon fill="midnightblue" stroke="midnightblue" points="840.079,-20.0039 849.374,-14.9193 838.937,-13.0977 840.079,-20.0039"/>
</g>
<!-- Node11 -->
<g id="node12" class="node"><title>Node11</title>
<polygon fill="white" stroke="#bfbfbf" points="596,-56.5 596,-75.5 655,-75.5 655,-56.5 596,-56.5"/>
<text text-anchor="middle" x="625.5" y="-63.5" font-family="Helvetica,sans-Serif" font-size="10.00">TimeLib.h</text>
</g>
<!-- Node10&#45;&gt;Node11 -->
<g id="edge14" class="edge"><title>Node10&#45;&gt;Node11</title>
<path fill="none" stroke="midnightblue" d="M625.5,-112.083C625.5,-105.006 625.5,-94.8611 625.5,-85.9865"/>
<polygon fill="midnightblue" stroke="midnightblue" points="629,-85.751 625.5,-75.7511 622,-85.7511 629,-85.751"/>
</g>
<!-- Node12 -->
<g id="node13" class="node"><title>Node12</title>
<polygon fill="white" stroke="#bfbfbf" points="416,-56.5 416,-75.5 479,-75.5 479,-56.5 416,-56.5"/>
<text text-anchor="middle" x="447.5" y="-63.5" font-family="Helvetica,sans-Serif" font-size="10.00">WiFiUdp.h</text>
</g>
<!-- Node10&#45;&gt;Node12 -->
<g id="edge15" class="edge"><title>Node10&#45;&gt;Node12</title>
<path fill="none" stroke="midnightblue" d="M597.295,-112.444C567.09,-103.28 518.989,-88.6876 485.471,-78.5192"/>
<polygon fill="midnightblue" stroke="midnightblue" points="486.158,-75.0703 475.573,-75.5164 484.126,-81.7688 486.158,-75.0703"/>
</g>
<!-- Node13 -->
<g id="node14" class="node"><title>Node13</title>
<polygon fill="white" stroke="#bfbfbf" points="497,-56.5 497,-75.5 578,-75.5 578,-56.5 497,-56.5"/>
<text text-anchor="middle" x="537.5" y="-63.5" font-family="Helvetica,sans-Serif" font-size="10.00">DS1337RTC.h</text>
</g>
<!-- Node10&#45;&gt;Node13 -->
<g id="edge16" class="edge"><title>Node10&#45;&gt;Node13</title>
<path fill="none" stroke="midnightblue" d="M611.361,-112.324C597.634,-103.9 576.564,-90.9709 560.436,-81.0741"/>
<polygon fill="midnightblue" stroke="midnightblue" points="561.957,-77.9016 551.604,-75.6545 558.296,-83.8678 561.957,-77.9016"/>
</g>
<!-- Node14&#45;&gt;Node4 -->
<g id="edge18" class="edge"><title>Node14&#45;&gt;Node4</title>
<path fill="none" stroke="midnightblue" d="M1022.41,-112.446C1026.39,-99.0102 1031.75,-72.7664 1019.5,-56 996.453,-24.4528 951.045,-14.5053 917.967,-11.6285"/>
<polygon fill="midnightblue" stroke="midnightblue" points="917.921,-8.11721 907.705,-10.9245 917.442,-15.1008 917.921,-8.11721"/>
</g>
<!-- Node15 -->
<g id="node16" class="node"><title>Node15</title>
<polygon fill="white" stroke="#bfbfbf" points="1250.5,-56.5 1250.5,-75.5 1336.5,-75.5 1336.5,-56.5 1250.5,-56.5"/>
<text text-anchor="middle" x="1293.5" y="-63.5" font-family="Helvetica,sans-Serif" font-size="10.00">ESP8266WiFi.h</text>
</g>
<!-- Node14&#45;&gt;Node15 -->
<g id="edge19" class="edge"><title>Node14&#45;&gt;Node15</title>
<path fill="none" stroke="midnightblue" d="M1056.17,-113.773C1103.43,-104.459 1185.96,-88.1936 1240.17,-77.5104"/>
<polygon fill="midnightblue" stroke="midnightblue" points="1241.15,-80.8853 1250.28,-75.5177 1239.79,-74.0174 1241.15,-80.8853"/>
</g>
<!-- Node16 -->
<g id="node17" class="node"><title>Node16</title>
<polygon fill="white" stroke="#bfbfbf" points="926,-56.5 926,-75.5 1011,-75.5 1011,-56.5 926,-56.5"/>
<text text-anchor="middle" x="968.5" y="-63.5" font-family="Helvetica,sans-Serif" font-size="10.00">PubSubClient.h</text>
</g>
<!-- Node14&#45;&gt;Node16 -->
<g id="edge20" class="edge"><title>Node14&#45;&gt;Node16</title>
<path fill="none" stroke="midnightblue" d="M1011.08,-112.083C1003.65,-104.22 992.648,-92.5688 983.688,-83.0813"/>
<polygon fill="midnightblue" stroke="midnightblue" points="986.176,-80.618 976.765,-75.7511 981.087,-85.4244 986.176,-80.618"/>
</g>
<!-- Node17&#45;&gt;Node4 -->
<g id="edge22" class="edge"><title>Node17&#45;&gt;Node4</title>
<path fill="none" stroke="midnightblue" d="M21.8853,-112.222C10.8967,-98.4796 -6.52574,-71.823 8.5,-56 37.4485,-25.5154 672.528,-14.0373 838.897,-11.5475"/>
<polygon fill="midnightblue" stroke="midnightblue" points="839.218,-15.0433 849.166,-11.3964 839.115,-8.04402 839.218,-15.0433"/>
</g>
<!-- Node18&#45;&gt;Node4 -->
<g id="edge25" class="edge"><title>Node18&#45;&gt;Node4</title>
<path fill="none" stroke="midnightblue" d="M325.895,-112.451C301.394,-100.092 263.519,-76.4686 282.5,-56 320.289,-15.2506 712.198,-11.189 839.091,-10.9485"/>
<polygon fill="midnightblue" stroke="midnightblue" points="839.154,-14.4485 849.15,-10.9366 839.146,-7.44854 839.154,-14.4485"/>
</g>
<!-- Node19 -->
<g id="node20" class="node"><title>Node19</title>
<polygon fill="white" stroke="#bfbfbf" points="291.5,-56.5 291.5,-75.5 397.5,-75.5 397.5,-56.5 291.5,-56.5"/>
<text text-anchor="middle" x="344.5" y="-63.5" font-family="Helvetica,sans-Serif" font-size="10.00">Adafruit_ADS1015.h</text>
</g>
<!-- Node18&#45;&gt;Node19 -->
<g id="edge24" class="edge"><title>Node18&#45;&gt;Node19</title>
<path fill="none" stroke="midnightblue" d="M344.5,-112.083C344.5,-105.006 344.5,-94.8611 344.5,-85.9865"/>
<polygon fill="midnightblue" stroke="midnightblue" points="348,-85.751 344.5,-75.7511 341,-85.7511 348,-85.751"/>
</g>
<!-- Node20&#45;&gt;Node4 -->
<g id="edge27" class="edge"><title>Node20&#45;&gt;Node4</title>
<path fill="none" stroke="midnightblue" d="M1126.74,-112.428C1109.07,-98.7273 1072.38,-71.8327 1037.5,-56 998.37,-38.239 950.596,-25.8563 917.69,-18.6387"/>
<polygon fill="midnightblue" stroke="midnightblue" points="918.069,-15.1408 907.559,-16.4765 916.608,-21.9866 918.069,-15.1408"/>
</g>
<!-- Node21 -->
<g id="node22" class="node"><title>Node21</title>
<polygon fill="white" stroke="#bfbfbf" points="1187,-56.5 1187,-75.5 1232,-75.5 1232,-56.5 1187,-56.5"/>
<text text-anchor="middle" x="1209.5" y="-63.5" font-family="Helvetica,sans-Serif" font-size="10.00">Wire.h</text>
</g>
<!-- Node20&#45;&gt;Node21 -->
<g id="edge28" class="edge"><title>Node20&#45;&gt;Node21</title>
<path fill="none" stroke="midnightblue" d="M1149.07,-112.324C1159.92,-104.185 1176.38,-91.8395 1189.38,-82.0874"/>
<polygon fill="midnightblue" stroke="midnightblue" points="1191.82,-84.6339 1197.72,-75.8339 1187.62,-79.0339 1191.82,-84.6339"/>
</g>
<!-- Node22 -->
<g id="node23" class="node"><title>Node22</title>
<polygon fill="white" stroke="#bfbfbf" points="1106,-56.5 1106,-75.5 1169,-75.5 1169,-56.5 1106,-56.5"/>
<text text-anchor="middle" x="1137.5" y="-63.5" font-family="Helvetica,sans-Serif" font-size="10.00">OneWire.h</text>
</g>
<!-- Node20&#45;&gt;Node22 -->
<g id="edge29" class="edge"><title>Node20&#45;&gt;Node22</title>
<path fill="none" stroke="midnightblue" d="M1137.5,-112.083C1137.5,-105.006 1137.5,-94.8611 1137.5,-85.9865"/>
<polygon fill="midnightblue" stroke="midnightblue" points="1141,-85.751 1137.5,-75.7511 1134,-85.7511 1141,-85.751"/>
</g>
<!-- Node23 -->
<g id="node24" class="node"><title>Node23</title>
<g id="a_node24"><a xlink:href="ExternalSensor_8h.html" target="_top" xlink:title="ExternalSensor Header File. ">
<polygon fill="white" stroke="black" points="1392.5,-56.5 1392.5,-75.5 1484.5,-75.5 1484.5,-56.5 1392.5,-56.5"/>
<text text-anchor="middle" x="1438.5" y="-63.5" font-family="Helvetica,sans-Serif" font-size="10.00">ExternalSensor.h</text>
</a>
</g>
</g>
<!-- Node20&#45;&gt;Node23 -->
<g id="edge30" class="edge"><title>Node20&#45;&gt;Node23</title>
<path fill="none" stroke="midnightblue" d="M1185.19,-112.444C1238.68,-102.849 1325.34,-87.3017 1382.13,-77.1137"/>
<polygon fill="midnightblue" stroke="midnightblue" points="1382.79,-80.5499 1392.02,-75.339 1381.56,-73.6599 1382.79,-80.5499"/>
</g>
<!-- Node23&#45;&gt;Node4 -->
<g id="edge33" class="edge"><title>Node23&#45;&gt;Node4</title>
<path fill="none" stroke="midnightblue" d="M1392.35,-57.7962C1387.68,-57.1511 1383,-56.5392 1378.5,-56 1207.34,-35.4788 1002.19,-19.8054 917.749,-13.7388"/>
<polygon fill="midnightblue" stroke="midnightblue" points="917.812,-10.2345 907.588,-13.0135 917.314,-17.2167 917.812,-10.2345"/>
</g>
<!-- Node24 -->
<g id="node25" class="node"><title>Node24</title>
<polygon fill="white" stroke="#bfbfbf" points="1456,-0.5 1456,-19.5 1527,-19.5 1527,-0.5 1456,-0.5"/>
<text text-anchor="middle" x="1491.5" y="-7.5" font-family="Helvetica,sans-Serif" font-size="10.00">NDIR_I2C.h</text>
</g>
<!-- Node23&#45;&gt;Node24 -->
<g id="edge31" class="edge"><title>Node23&#45;&gt;Node24</title>
<path fill="none" stroke="midnightblue" d="M1447.25,-56.083C1454.97,-48.2195 1466.4,-36.5688 1475.72,-27.0813"/>
<polygon fill="midnightblue" stroke="midnightblue" points="1478.4,-29.3396 1482.91,-19.7511 1473.41,-24.4363 1478.4,-29.3396"/>
</g>
<!-- Node25 -->
<g id="node26" class="node"><title>Node25</title>
<polygon fill="white" stroke="#bfbfbf" points="1331,-0.5 1331,-19.5 1438,-19.5 1438,-0.5 1331,-0.5"/>
<text text-anchor="middle" x="1384.5" y="-7.5" font-family="Helvetica,sans-Serif" font-size="10.00">DallasTemperature.h</text>
</g>
<!-- Node23&#45;&gt;Node25 -->
<g id="edge32" class="edge"><title>Node23&#45;&gt;Node25</title>
<path fill="none" stroke="midnightblue" d="M1429.58,-56.083C1421.72,-48.2195 1410.07,-36.5688 1400.58,-27.0813"/>
<polygon fill="midnightblue" stroke="midnightblue" points="1402.8,-24.3473 1393.25,-19.7511 1397.85,-29.2971 1402.8,-24.3473"/>
</g>
<!-- Node26&#45;&gt;Node4 -->
<g id="edge35" class="edge"><title>Node26&#45;&gt;Node4</title>
<path fill="none" stroke="midnightblue" d="M1525.2,-115.123C1490.02,-108.002 1431.54,-94.6041 1383.5,-76 1365.7,-69.1078 1363.79,-61.4624 1345.5,-56 1265.68,-32.1575 1015.27,-17.687 917.839,-12.8333"/>
<polygon fill="midnightblue" stroke="midnightblue" points="917.973,-9.33579 907.813,-12.3411 917.629,-16.3274 917.973,-9.33579"/>
</g>
<!-- Node26&#45;&gt;Node15 -->
<g id="edge36" class="edge"><title>Node26&#45;&gt;Node15</title>
<path fill="none" stroke="midnightblue" d="M1525.3,-114.593C1480.81,-105.46 1398.63,-88.5854 1345.03,-77.5797"/>
<polygon fill="midnightblue" stroke="midnightblue" points="1345.54,-74.1114 1335.04,-75.5285 1344.13,-80.9684 1345.54,-74.1114"/>
</g>
<!-- Node27 -->
<g id="node28" class="node"><title>Node27</title>
<polygon fill="white" stroke="#bfbfbf" points="1503,-56.5 1503,-75.5 1610,-75.5 1610,-56.5 1503,-56.5"/>
<text text-anchor="middle" x="1556.5" y="-63.5" font-family="Helvetica,sans-Serif" font-size="10.00">ESP8266WiFiMulti.h</text>
</g>
<!-- Node26&#45;&gt;Node27 -->
<g id="edge37" class="edge"><title>Node26&#45;&gt;Node27</title>
<path fill="none" stroke="midnightblue" d="M1556.5,-112.083C1556.5,-105.006 1556.5,-94.8611 1556.5,-85.9865"/>
<polygon fill="midnightblue" stroke="midnightblue" points="1560,-85.751 1556.5,-75.7511 1553,-85.7511 1560,-85.751"/>
</g>
<!-- Node28 -->
<g id="node29" class="node"><title>Node28</title>
<polygon fill="white" stroke="#bfbfbf" points="1628,-56.5 1628,-75.5 1703,-75.5 1703,-56.5 1628,-56.5"/>
<text text-anchor="middle" x="1665.5" y="-63.5" font-family="Helvetica,sans-Serif" font-size="10.00">DNSServer.h</text>
</g>
<!-- Node26&#45;&gt;Node28 -->
<g id="edge38" class="edge"><title>Node26&#45;&gt;Node28</title>
<path fill="none" stroke="midnightblue" d="M1574.01,-112.324C1591.57,-103.625 1618.83,-90.1202 1639.03,-80.113"/>
<polygon fill="midnightblue" stroke="midnightblue" points="1640.62,-83.23 1648.03,-75.6545 1637.52,-76.9575 1640.62,-83.23"/>
</g>
<!-- Node29 -->
<g id="node30" class="node"><title>Node29</title>
<polygon fill="white" stroke="#bfbfbf" points="1721,-56.5 1721,-75.5 1836,-75.5 1836,-56.5 1721,-56.5"/>
<text text-anchor="middle" x="1778.5" y="-63.5" font-family="Helvetica,sans-Serif" font-size="10.00">ESP8266WebServer.h</text>
</g>
<!-- Node26&#45;&gt;Node29 -->
<g id="edge39" class="edge"><title>Node26&#45;&gt;Node29</title>
<path fill="none" stroke="midnightblue" d="M1587.84,-113.378C1625.79,-104.146 1690,-88.5261 1733.31,-77.993"/>
<polygon fill="midnightblue" stroke="midnightblue" points="1734.4,-81.3281 1743.29,-75.5637 1732.75,-74.5264 1734.4,-81.3281"/>
</g>
<!-- Node30 -->
<g id="node31" class="node"><title>Node30</title>
<polygon fill="white" stroke="#bfbfbf" points="1853.5,-56.5 1853.5,-75.5 2003.5,-75.5 2003.5,-56.5 1853.5,-56.5"/>
<text text-anchor="middle" x="1928.5" y="-63.5" font-family="Helvetica,sans-Serif" font-size="10.00">WiFiManagerReadFileButton.h</text>
</g>
<!-- Node26&#45;&gt;Node30 -->
<g id="edge40" class="edge"><title>Node26&#45;&gt;Node30</title>
<path fill="none" stroke="midnightblue" d="M1587.58,-116.489C1647.11,-107.847 1778.51,-88.772 1859.68,-76.9893"/>
<polygon fill="midnightblue" stroke="midnightblue" points="1860.42,-80.4192 1869.81,-75.5189 1859.42,-73.4918 1860.42,-80.4192"/>
</g>
</g>
</svg>
        <g id="navigator" transform="translate(0 0)" fill="#404254">
                <rect fill="#f2f5e9" fill-opacity="0.5" stroke="#606060" stroke-width=".5" x="0" y="0" width="60" height="60"/>
                <use id="zoomplus" xlink:href="#zoomPlus" x="17" y="9" onmousedown="handleZoom(evt,'in')"/>
                <use id="zoomminus" xlink:href="#zoomMin" x="42" y="9" onmousedown="handleZoom(evt,'out')"/>
                <use id="reset" xlink:href="#resetDef" x="30" y="36" onmousedown="handleReset()"/>
                <g id="arrowUp" xlink:href="#dirArrow" transform="translate(30 24)" onmousedown="handlePan(0,-1)">
                  <use xlink:href="#rim" fill="#404040">
                        <set attributeName="fill" to="#808080" begin="arrowUp.mouseover" end="arrowUp.mouseout"/>
                  </use>
                  <path fill="none" stroke="white" stroke-width="1.5" d="M0,-3.0v7 M-2.5,-0.5L0,-3.0L2.5,-0.5"/>
                </g>
                <g id="arrowRight" xlink:href="#dirArrow" transform="rotate(90) translate(36 -43)" onmousedown="handlePan(1,0)">
                  <use xlink:href="#rim" fill="#404040">
                        <set attributeName="fill" to="#808080" begin="arrowRight.mouseover" end="arrowRight.mouseout"/>
                  </use>
                  <path fill="none" stroke="white" stroke-width="1.5" d="M0,-3.0v7 M-2.5,-0.5L0,-3.0L2.5,-0.5"/>
                </g>
                <g id="arrowDown" xlink:href="#dirArrow" transform="rotate(180) translate(-30 -48)" onmousedown="handlePan(0,1)">
                  <use xlink:href="#rim" fill="#404040">
                        <set attributeName="fill" to="#808080" begin="arrowDown.mouseover" end="arrowDown.mouseout"/>
                  </use>
                  <path fill="none" stroke="white" stroke-width="1.5" d="M0,-3.0v7 M-2.5,-0.5L0,-3.0L2.5,-0.5"/>
                </g>
                <g id="arrowLeft" xlink:href="#dirArrow" transform="rotate(270) translate(-36 17)" onmousedown="handlePan(-1,0)">
                  <use xlink:href="#rim" fill="#404040">
                        <set attributeName="fill" to="#808080" begin="arrowLeft.mouseover" end="arrowLeft.mouseout"/>
                  </use>
                  <path fill="none" stroke="white" stroke-width="1.5" d="M0,-3.0v7 M-2.5,-0.5L0,-3.0L2.5,-0.5"/>
                </g>
        </g>
        <svg viewBox="0 0 15 15" width="100%" height="30px" preserveAspectRatio="xMaxYMin meet">
         <g id="arrow_out" transform="scale(0.3 0.3)">
          <a xlink:href="CoolBoard_8cpp__incl_org.svg" target="_base">
           <rect id="button" ry="5" rx="5" y="6" x="6" height="38" width="38"
                fill="#f2f5e9" fill-opacity="0.5" stroke="#606060" stroke-width="1.0"/>
           <path id="arrow"
             d="M 11.500037,31.436501 C 11.940474,20.09759 22.043105,11.32322 32.158766,21.979434 L 37.068811,17.246167 C 37.068811,17.246167 37.088388,32 37.088388,32 L 22.160133,31.978069 C 22.160133,31.978069 26.997745,27.140456 26.997745,27.140456 C 18.528582,18.264221 13.291696,25.230495 11.500037,31.436501 z"
             style="fill:#404040;"/>
          </a>
         </g>
        </svg>
</svg>
