<?xml version="1.0" encoding="UTF-8" standalone="no"?>
<!DOCTYPE svg PUBLIC "-//W3C//DTD SVG 1.1//EN"
 "http://www.w3.org/Graphics/SVG/1.1/DTD/svg11.dtd">
<!-- Generated by graphviz version 2.38.0 (20140413.2041)
 -->
<!-- Title: /home/ashiroji/Arduino/libraries/CoolBoard/CoolMQTT.h Pages: 1 -->
<svg width="274pt" height="95pt"
 viewBox="0.00 0.00 273.50 95.00" xmlns="http://www.w3.org/2000/svg" xmlns:xlink="http://www.w3.org/1999/xlink">
<g id="graph0" class="graph" transform="scale(1 1) rotate(0) translate(4 91)">
<title>/home/ashiroji/Arduino/libraries/CoolBoard/CoolMQTT.h</title>
<polygon fill="white" stroke="none" points="-4,4 -4,-91 269.5,-91 269.5,4 -4,4"/>
<!-- Node0 -->
<g id="node1" class="node"><title>Node0</title>
<polygon fill="#bfbfbf" stroke="black" points="38.5,-56.5 38.5,-86.5 199.5,-86.5 199.5,-56.5 38.5,-56.5"/>
<text text-anchor="start" x="46.5" y="-74.5" font-family="Helvetica,sans-Serif" font-size="10.00">/home/ashiroji/Arduino</text>
<text text-anchor="middle" x="119" y="-63.5" font-family="Helvetica,sans-Serif" font-size="10.00">/libraries/CoolBoard/CoolMQTT.h</text>
</g>
<!-- Node1 -->
<g id="node2" class="node"><title>Node1</title>
<polygon fill="white" stroke="#bfbfbf" points="0,-0.5 0,-19.5 58,-19.5 58,-0.5 0,-0.5"/>
<text text-anchor="middle" x="29" y="-7.5" font-family="Helvetica,sans-Serif" font-size="10.00">Arduino.h</text>
</g>
<!-- Node0&#45;&gt;Node1 -->
<g id="edge1" class="edge"><title>Node0&#45;&gt;Node1</title>
<path fill="none" stroke="midnightblue" d="M97.6713,-56.3993C83.5146,-47.0402 64.9885,-34.7924 50.7469,-25.3771"/>
<polygon fill="midnightblue" stroke="midnightblue" points="52.3679,-22.2531 42.0958,-19.6578 48.5074,-28.0923 52.3679,-22.2531"/>
</g>
<!-- Node2 -->
<g id="node3" class="node"><title>Node2</title>
<polygon fill="white" stroke="#bfbfbf" points="76,-0.5 76,-19.5 162,-19.5 162,-0.5 76,-0.5"/>
<text text-anchor="middle" x="119" y="-7.5" font-family="Helvetica,sans-Serif" font-size="10.00">ESP8266WiFi.h</text>
</g>
<!-- Node0&#45;&gt;Node2 -->
<g id="edge2" class="edge"><title>Node0&#45;&gt;Node2</title>
<path fill="none" stroke="midnightblue" d="M119,-56.3993C119,-48.4664 119,-38.458 119,-29.8583"/>
<polygon fill="midnightblue" stroke="midnightblue" points="122.5,-29.6577 119,-19.6578 115.5,-29.6578 122.5,-29.6577"/>
</g>
<!-- Node3 -->
<g id="node4" class="node"><title>Node3</title>
<polygon fill="white" stroke="#bfbfbf" points="180.5,-0.5 180.5,-19.5 265.5,-19.5 265.5,-0.5 180.5,-0.5"/>
<text text-anchor="middle" x="223" y="-7.5" font-family="Helvetica,sans-Serif" font-size="10.00">PubSubClient.h</text>
</g>
<!-- Node0&#45;&gt;Node3 -->
<g id="edge3" class="edge"><title>Node0&#45;&gt;Node3</title>
<path fill="none" stroke="midnightblue" d="M143.647,-56.3993C160.317,-46.8619 182.231,-34.3248 198.805,-24.8422"/>
<polygon fill="midnightblue" stroke="midnightblue" points="200.925,-27.6617 207.867,-19.6578 197.449,-21.5858 200.925,-27.6617"/>
</g>
</g>
</svg>
