<?xml version="1.0" encoding="UTF-8" standalone="no"?>
<!DOCTYPE svg PUBLIC "-//W3C//DTD SVG 1.1//EN"
 "http://www.w3.org/Graphics/SVG/1.1/DTD/svg11.dtd">
<!-- Generated by graphviz version 2.38.0 (20140413.2041)
 -->
<!-- Title: ExternalSensors.h Pages: 1 -->
<svg width="322pt" height="140pt"
 viewBox="0.00 0.00 321.50 140.00" xmlns="http://www.w3.org/2000/svg" xmlns:xlink="http://www.w3.org/1999/xlink">
<g id="graph0" class="graph" transform="scale(1 1) rotate(0) translate(4 136)">
<title>ExternalSensors.h</title>
<polygon fill="white" stroke="none" points="-4,4 -4,-136 317.5,-136 317.5,4 -4,4"/>
<!-- Node0 -->
<g id="node1" class="node"><title>Node0</title>
<polygon fill="#bfbfbf" stroke="black" points="26.5,-112.5 26.5,-131.5 123.5,-131.5 123.5,-112.5 26.5,-112.5"/>
<text text-anchor="middle" x="75" y="-119.5" font-family="Helvetica,sans-Serif" font-size="10.00">ExternalSensors.h</text>
</g>
<!-- Node1 -->
<g id="node2" class="node"><title>Node1</title>
<polygon fill="white" stroke="#bfbfbf" points="0,-0.5 0,-19.5 58,-19.5 58,-0.5 0,-0.5"/>
<text text-anchor="middle" x="29" y="-7.5" font-family="Helvetica,sans-Serif" font-size="10.00">Arduino.h</text>
</g>
<!-- Node0&#45;&gt;Node1 -->
<g id="edge1" class="edge"><title>Node0&#45;&gt;Node1</title>
<path fill="none" stroke="midnightblue" d="M51.5459,-112.408C35.8389,-105.28 16.3815,-93.4581 7,-76 -1.24757,-60.6521 7.10852,-41.6262 15.7891,-28.1339"/>
<polygon fill="midnightblue" stroke="midnightblue" points="18.766,-29.9849 21.6504,-19.7903 13.0381,-25.9611 18.766,-29.9849"/>
</g>
<!-- Node2 -->
<g id="node3" class="node"><title>Node2</title>
<polygon fill="white" stroke="#bfbfbf" points="16.5,-56.5 16.5,-75.5 61.5,-75.5 61.5,-56.5 16.5,-56.5"/>
<text text-anchor="middle" x="39" y="-63.5" font-family="Helvetica,sans-Serif" font-size="10.00">Wire.h</text>
</g>
<!-- Node0&#45;&gt;Node2 -->
<g id="edge2" class="edge"><title>Node0&#45;&gt;Node2</title>
<path fill="none" stroke="midnightblue" d="M69.0553,-112.083C64.0227,-104.534 56.6632,-93.4948 50.4865,-84.2298"/>
<polygon fill="midnightblue" stroke="midnightblue" points="53.2933,-82.1301 44.8341,-75.7511 47.4689,-86.0131 53.2933,-82.1301"/>
</g>
<!-- Node3 -->
<g id="node4" class="node"><title>Node3</title>
<polygon fill="white" stroke="#bfbfbf" points="79.5,-56.5 79.5,-75.5 142.5,-75.5 142.5,-56.5 79.5,-56.5"/>
<text text-anchor="middle" x="111" y="-63.5" font-family="Helvetica,sans-Serif" font-size="10.00">OneWire.h</text>
</g>
<!-- Node0&#45;&gt;Node3 -->
<g id="edge3" class="edge"><title>Node0&#45;&gt;Node3</title>
<path fill="none" stroke="midnightblue" d="M80.9447,-112.083C85.9773,-104.534 93.3368,-93.4948 99.5135,-84.2298"/>
<polygon fill="midnightblue" stroke="midnightblue" points="102.531,-86.0131 105.166,-75.7511 96.7067,-82.1301 102.531,-86.0131"/>
</g>
<!-- Node4 -->
<g id="node5" class="node"><title>Node4</title>
<g id="a_node5"><a xlink:href="ExternalSensor_8h.html" target="_top" xlink:title="ExternalSensor Header File. ">
<polygon fill="white" stroke="black" points="161,-56.5 161,-75.5 253,-75.5 253,-56.5 161,-56.5"/>
<text text-anchor="middle" x="207" y="-63.5" font-family="Helvetica,sans-Serif" font-size="10.00">ExternalSensor.h</text>
</a>
</g>
</g>
<!-- Node0&#45;&gt;Node4 -->
<g id="edge4" class="edge"><title>Node0&#45;&gt;Node4</title>
<path fill="none" stroke="midnightblue" d="M95.9158,-112.444C117.736,-103.517 152.15,-89.4387 176.892,-79.3168"/>
<polygon fill="midnightblue" stroke="midnightblue" points="178.252,-82.5422 186.182,-75.5164 175.601,-76.0634 178.252,-82.5422"/>
</g>
<!-- Node4&#45;&gt;Node1 -->
<g id="edge7" class="edge"><title>Node4&#45;&gt;Node1</title>
<path fill="none" stroke="midnightblue" d="M178.795,-56.4435C148.59,-47.2801 100.489,-32.6876 66.9707,-22.5192"/>
<polygon fill="midnightblue" stroke="midnightblue" points="67.6581,-19.0703 57.0727,-19.5164 65.6259,-25.7688 67.6581,-19.0703"/>
</g>
<!-- Node5 -->
<g id="node6" class="node"><title>Node5</title>
<polygon fill="white" stroke="#bfbfbf" points="117.5,-0.5 117.5,-19.5 188.5,-19.5 188.5,-0.5 117.5,-0.5"/>
<text text-anchor="middle" x="153" y="-7.5" font-family="Helvetica,sans-Serif" font-size="10.00">NDIR_I2C.h</text>
</g>
<!-- Node4&#45;&gt;Node5 -->
<g id="edge5" class="edge"><title>Node4&#45;&gt;Node5</title>
<path fill="none" stroke="midnightblue" d="M198.083,-56.083C190.22,-48.2195 178.569,-36.5688 169.081,-27.0813"/>
<polygon fill="midnightblue" stroke="midnightblue" points="171.297,-24.3473 161.751,-19.7511 166.347,-29.2971 171.297,-24.3473"/>
</g>
<!-- Node6 -->
<g id="node7" class="node"><title>Node6</title>
<polygon fill="white" stroke="#bfbfbf" points="206.5,-0.5 206.5,-19.5 313.5,-19.5 313.5,-0.5 206.5,-0.5"/>
<text text-anchor="middle" x="260" y="-7.5" font-family="Helvetica,sans-Serif" font-size="10.00">DallasTemperature.h</text>
</g>
<!-- Node4&#45;&gt;Node6 -->
<g id="edge6" class="edge"><title>Node4&#45;&gt;Node6</title>
<path fill="none" stroke="midnightblue" d="M215.752,-56.083C223.47,-48.2195 234.905,-36.5688 244.217,-27.0813"/>
<polygon fill="midnightblue" stroke="midnightblue" points="246.904,-29.3396 251.411,-19.7511 241.908,-24.4363 246.904,-29.3396"/>
</g>
</g>
</svg>
