<?xml version="1.0" encoding="UTF-8" standalone="no"?>
<!DOCTYPE svg PUBLIC "-//W3C//DTD SVG 1.1//EN"
 "http://www.w3.org/Graphics/SVG/1.1/DTD/svg11.dtd">
<!-- Generated by graphviz version 2.38.0 (20140413.2041)
 -->
<!-- Title: /home/ashiroji/Arduino/libraries/CoolBoard/ExternalSensors.cpp Pages: 1 -->
<svg width="492pt" height="218pt"
 viewBox="0.00 0.00 491.50 218.00" xmlns="http://www.w3.org/2000/svg" xmlns:xlink="http://www.w3.org/1999/xlink">
<g id="graph0" class="graph" transform="scale(1 1) rotate(0) translate(4 214)">
<title>/home/ashiroji/Arduino/libraries/CoolBoard/ExternalSensors.cpp</title>
<polygon fill="white" stroke="none" points="-4,4 -4,-214 487.5,-214 487.5,4 -4,4"/>
<!-- Node0 -->
<g id="node1" class="node"><title>Node0</title>
<polygon fill="#bfbfbf" stroke="black" points="84.5,-168.5 84.5,-209.5 225.5,-209.5 225.5,-168.5 84.5,-168.5"/>
<text text-anchor="start" x="92.5" y="-197.5" font-family="Helvetica,sans-Serif" font-size="10.00">/home/ashiroji/Arduino</text>
<text text-anchor="start" x="92.5" y="-186.5" font-family="Helvetica,sans-Serif" font-size="10.00">/libraries/CoolBoard/External</text>
<text text-anchor="middle" x="155" y="-175.5" font-family="Helvetica,sans-Serif" font-size="10.00">Sensors.cpp</text>
</g>
<!-- Node1 -->
<g id="node2" class="node"><title>Node1</title>
<polygon fill="white" stroke="#bfbfbf" points="0,-112.5 0,-131.5 38,-131.5 38,-112.5 0,-112.5"/>
<text text-anchor="middle" x="19" y="-119.5" font-family="Helvetica,sans-Serif" font-size="10.00">FS.h</text>
</g>
<!-- Node0&#45;&gt;Node1 -->
<g id="edge1" class="edge"><title>Node0&#45;&gt;Node1</title>
<path fill="none" stroke="midnightblue" d="M114.196,-168.498C92.2414,-158.005 65.7593,-145.348 46.306,-136.051"/>
<polygon fill="midnightblue" stroke="midnightblue" points="47.6354,-132.807 37.1037,-131.652 44.6169,-139.123 47.6354,-132.807"/>
</g>
<!-- Node2 -->
<g id="node3" class="node"><title>Node2</title>
<polygon fill="white" stroke="#bfbfbf" points="211,-0.5 211,-19.5 269,-19.5 269,-0.5 211,-0.5"/>
<text text-anchor="middle" x="240" y="-7.5" font-family="Helvetica,sans-Serif" font-size="10.00">Arduino.h</text>
</g>
<!-- Node0&#45;&gt;Node2 -->
<g id="edge2" class="edge"><title>Node0&#45;&gt;Node2</title>
<path fill="none" stroke="midnightblue" d="M130.986,-168.308C101.199,-141.484 57.5073,-92.6097 85,-56 98.9219,-37.4614 159.608,-24.0872 200.786,-16.9468"/>
<polygon fill="midnightblue" stroke="midnightblue" points="201.512,-20.374 210.794,-15.2664 200.353,-13.4706 201.512,-20.374"/>
</g>
<!-- Node3 -->
<g id="node4" class="node"><title>Node3</title>
<polygon fill="white" stroke="#bfbfbf" points="94.5,-56.5 94.5,-75.5 139.5,-75.5 139.5,-56.5 94.5,-56.5"/>
<text text-anchor="middle" x="117" y="-63.5" font-family="Helvetica,sans-Serif" font-size="10.00">Wire.h</text>
</g>
<!-- Node0&#45;&gt;Node3 -->
<g id="edge3" class="edge"><title>Node0&#45;&gt;Node3</title>
<path fill="none" stroke="midnightblue" d="M148.81,-168.29C141.581,-145.27 129.72,-107.503 122.706,-85.1677"/>
<polygon fill="midnightblue" stroke="midnightblue" points="126.028,-84.0667 119.693,-75.5748 119.35,-86.1641 126.028,-84.0667"/>
</g>
<!-- Node4 -->
<g id="node5" class="node"><title>Node4</title>
<polygon fill="white" stroke="#bfbfbf" points="157.5,-56.5 157.5,-75.5 220.5,-75.5 220.5,-56.5 157.5,-56.5"/>
<text text-anchor="middle" x="189" y="-63.5" font-family="Helvetica,sans-Serif" font-size="10.00">OneWire.h</text>
</g>
<!-- Node0&#45;&gt;Node4 -->
<g id="edge4" class="edge"><title>Node0&#45;&gt;Node4</title>
<path fill="none" stroke="midnightblue" d="M159.509,-168.205C163.123,-152.802 168.486,-130.934 174,-112 176.593,-103.094 179.809,-93.3131 182.596,-85.1516"/>
<polygon fill="midnightblue" stroke="midnightblue" points="185.951,-86.1599 185.927,-75.5651 179.339,-83.8628 185.951,-86.1599"/>
</g>
<!-- Node5 -->
<g id="node6" class="node"><title>Node5</title>
<g id="a_node6"><a xlink:href="ExternalSensors_8h.html" target="_top" xlink:title="ExternalSensors Header File. ">
<polygon fill="white" stroke="black" points="183.5,-112.5 183.5,-131.5 280.5,-131.5 280.5,-112.5 183.5,-112.5"/>
<text text-anchor="middle" x="232" y="-119.5" font-family="Helvetica,sans-Serif" font-size="10.00">ExternalSensors.h</text>
</a>
</g>
</g>
<!-- Node0&#45;&gt;Node5 -->
<g id="edge5" class="edge"><title>Node0&#45;&gt;Node5</title>
<path fill="none" stroke="midnightblue" d="M178.103,-168.498C189.568,-158.82 203.214,-147.3 213.906,-138.274"/>
<polygon fill="midnightblue" stroke="midnightblue" points="216.366,-140.778 221.75,-131.652 211.851,-135.429 216.366,-140.778"/>
</g>
<!-- Node6 -->
<g id="node7" class="node"><title>Node6</title>
<g id="a_node7"><a xlink:href="ExternalSensor_8h.html" target="_top" xlink:title="ExternalSensor Header File. ">
<polygon fill="white" stroke="black" points="277,-56.5 277,-75.5 369,-75.5 369,-56.5 277,-56.5"/>
<text text-anchor="middle" x="323" y="-63.5" font-family="Helvetica,sans-Serif" font-size="10.00">ExternalSensor.h</text>
</a>
</g>
</g>
<!-- Node0&#45;&gt;Node6 -->
<g id="edge14" class="edge"><title>Node0&#45;&gt;Node6</title>
<path fill="none" stroke="midnightblue" d="M225.7,-168.894C247.861,-160.329 271.164,-148.363 289,-132 302.76,-119.377 311.911,-99.8903 317.219,-85.5437"/>
<polygon fill="midnightblue" stroke="midnightblue" points="320.636,-86.3679 320.542,-75.7735 314.009,-84.114 320.636,-86.3679"/>
</g>
<!-- Node9 -->
<g id="node10" class="node"><title>Node9</title>
<polygon fill="white" stroke="#bfbfbf" points="337.5,-112.5 337.5,-131.5 416.5,-131.5 416.5,-112.5 337.5,-112.5"/>
<text text-anchor="middle" x="377" y="-119.5" font-family="Helvetica,sans-Serif" font-size="10.00">ArduinoJson.h</text>
</g>
<!-- Node0&#45;&gt;Node9 -->
<g id="edge13" class="edge"><title>Node0&#45;&gt;Node9</title>
<path fill="none" stroke="midnightblue" d="M221.607,-168.498C259.523,-157.396 305.712,-143.872 337.834,-134.468"/>
<polygon fill="midnightblue" stroke="midnightblue" points="339.127,-137.736 347.74,-131.567 337.16,-131.018 339.127,-137.736"/>
</g>
<!-- Node5&#45;&gt;Node2 -->
<g id="edge6" class="edge"><title>Node5&#45;&gt;Node2</title>
<path fill="none" stroke="midnightblue" d="M232.628,-112.368C233.919,-94.617 236.897,-53.6664 238.647,-29.5974"/>
<polygon fill="midnightblue" stroke="midnightblue" points="242.141,-29.819 239.375,-19.5914 235.159,-29.3112 242.141,-29.819"/>
</g>
<!-- Node5&#45;&gt;Node3 -->
<g id="edge7" class="edge"><title>Node5&#45;&gt;Node3</title>
<path fill="none" stroke="midnightblue" d="M213.778,-112.444C195.104,-103.675 165.844,-89.9355 144.383,-79.8579"/>
<polygon fill="midnightblue" stroke="midnightblue" points="145.676,-76.5988 135.137,-75.5164 142.701,-82.935 145.676,-76.5988"/>
</g>
<!-- Node5&#45;&gt;Node4 -->
<g id="edge8" class="edge"><title>Node5&#45;&gt;Node4</title>
<path fill="none" stroke="midnightblue" d="M224.899,-112.083C218.763,-104.377 209.73,-93.0333 202.261,-83.6531"/>
<polygon fill="midnightblue" stroke="midnightblue" points="204.936,-81.3936 195.968,-75.7511 199.46,-85.7542 204.936,-81.3936"/>
</g>
<!-- Node5&#45;&gt;Node6 -->
<g id="edge9" class="edge"><title>Node5&#45;&gt;Node6</title>
<path fill="none" stroke="midnightblue" d="M246.621,-112.324C260.949,-103.822 283.013,-90.7288 299.749,-80.7975"/>
<polygon fill="midnightblue" stroke="midnightblue" points="301.602,-83.7677 308.416,-75.6545 298.03,-77.7478 301.602,-83.7677"/>
</g>
<!-- Node6&#45;&gt;Node2 -->
<g id="edge12" class="edge"><title>Node6&#45;&gt;Node2</title>
<path fill="none" stroke="midnightblue" d="M309.665,-56.324C296.838,-47.979 277.215,-35.2122 262.06,-25.3524"/>
<polygon fill="midnightblue" stroke="midnightblue" points="263.593,-22.1742 253.302,-19.6545 259.776,-28.0417 263.593,-22.1742"/>
</g>
<!-- Node7 -->
<g id="node8" class="node"><title>Node7</title>
<polygon fill="white" stroke="#bfbfbf" points="287.5,-0.5 287.5,-19.5 358.5,-19.5 358.5,-0.5 287.5,-0.5"/>
<text text-anchor="middle" x="323" y="-7.5" font-family="Helvetica,sans-Serif" font-size="10.00">NDIR_I2C.h</text>
</g>
<!-- Node6&#45;&gt;Node7 -->
<g id="edge10" class="edge"><title>Node6&#45;&gt;Node7</title>
<path fill="none" stroke="midnightblue" d="M323,-56.083C323,-49.0059 323,-38.8611 323,-29.9865"/>
<polygon fill="midnightblue" stroke="midnightblue" points="326.5,-29.751 323,-19.7511 319.5,-29.7511 326.5,-29.751"/>
</g>
<!-- Node8 -->
<g id="node9" class="node"><title>Node8</title>
<polygon fill="white" stroke="#bfbfbf" points="376.5,-0.5 376.5,-19.5 483.5,-19.5 483.5,-0.5 376.5,-0.5"/>
<text text-anchor="middle" x="430" y="-7.5" font-family="Helvetica,sans-Serif" font-size="10.00">DallasTemperature.h</text>
</g>
<!-- Node6&#45;&gt;Node8 -->
<g id="edge11" class="edge"><title>Node6&#45;&gt;Node8</title>
<path fill="none" stroke="midnightblue" d="M340.191,-56.324C357.351,-47.6641 383.946,-34.2424 403.747,-24.249"/>
<polygon fill="midnightblue" stroke="midnightblue" points="405.501,-27.2847 412.851,-19.6545 402.347,-21.0354 405.501,-27.2847"/>
</g>
</g>
</svg>
