<?xml version="1.0" encoding="UTF-8" standalone="no"?>
<!DOCTYPE svg PUBLIC "-//W3C//DTD SVG 1.1//EN"
 "http://www.w3.org/Graphics/SVG/1.1/DTD/svg11.dtd">
<!-- Generated by graphviz version 2.38.0 (20140413.2041)
 -->
<!-- Title: /home/ashiroji/Arduino/libraries/CoolBoard/irene3000.cpp Pages: 1 -->
<svg width="346pt" height="151pt"
 viewBox="0.00 0.00 346.26 151.00" xmlns="http://www.w3.org/2000/svg" xmlns:xlink="http://www.w3.org/1999/xlink">
<g id="graph0" class="graph" transform="scale(1 1) rotate(0) translate(4 147)">
<title>/home/ashiroji/Arduino/libraries/CoolBoard/irene3000.cpp</title>
<polygon fill="white" stroke="none" points="-4,4 -4,-147 342.264,-147 342.264,4 -4,4"/>
<!-- Node0 -->
<g id="node1" class="node"><title>Node0</title>
<polygon fill="#bfbfbf" stroke="black" points="91,-112.5 91,-142.5 257,-142.5 257,-112.5 91,-112.5"/>
<text text-anchor="start" x="99" y="-130.5" font-family="Helvetica,sans-Serif" font-size="10.00">/home/ashiroji/Arduino</text>
<text text-anchor="middle" x="174" y="-119.5" font-family="Helvetica,sans-Serif" font-size="10.00">/libraries/CoolBoard/irene3000.cpp</text>
</g>
<!-- Node1 -->
<g id="node2" class="node"><title>Node1</title>
<polygon fill="white" stroke="#bfbfbf" points="0,-56.5 0,-75.5 38,-75.5 38,-56.5 0,-56.5"/>
<text text-anchor="middle" x="19" y="-63.5" font-family="Helvetica,sans-Serif" font-size="10.00">FS.h</text>
</g>
<!-- Node0&#45;&gt;Node1 -->
<g id="edge1" class="edge"><title>Node0&#45;&gt;Node1</title>
<path fill="none" stroke="midnightblue" d="M137.267,-112.399C109.764,-101.842 72.6854,-87.6083 47.4248,-77.9114"/>
<polygon fill="midnightblue" stroke="midnightblue" points="48.6301,-74.6252 38.04,-74.3089 46.1215,-81.1602 48.6301,-74.6252"/>
</g>
<!-- Node2 -->
<g id="node3" class="node"><title>Node2</title>
<polygon fill="white" stroke="#bfbfbf" points="44,-0.5 44,-19.5 150,-19.5 150,-0.5 44,-0.5"/>
<text text-anchor="middle" x="97" y="-7.5" font-family="Helvetica,sans-Serif" font-size="10.00">Adafruit_ADS1015.h</text>
</g>
<!-- Node0&#45;&gt;Node2 -->
<g id="edge2" class="edge"><title>Node0&#45;&gt;Node2</title>
<path fill="none" stroke="midnightblue" d="M129.771,-112.437C112.649,-104.586 94.8343,-92.8872 85,-76 76.6247,-61.618 81.5905,-42.6696 87.4693,-28.9447"/>
<polygon fill="midnightblue" stroke="midnightblue" points="90.7683,-30.1598 91.937,-19.6296 84.4567,-27.1326 90.7683,-30.1598"/>
</g>
<!-- Node3 -->
<g id="node4" class="node"><title>Node3</title>
<polygon fill="white" stroke="#bfbfbf" points="261,-0.5 261,-19.5 319,-19.5 319,-0.5 261,-0.5"/>
<text text-anchor="middle" x="290" y="-7.5" font-family="Helvetica,sans-Serif" font-size="10.00">Arduino.h</text>
</g>
<!-- Node0&#45;&gt;Node3 -->
<g id="edge3" class="edge"><title>Node0&#45;&gt;Node3</title>
<path fill="none" stroke="midnightblue" d="M257.295,-120.072C286.326,-113.348 316.091,-100.433 334,-76 346.349,-59.1533 328.135,-39.1777 311.531,-25.8598"/>
<polygon fill="midnightblue" stroke="midnightblue" points="313.258,-22.7783 303.165,-19.5541 309.044,-28.3682 313.258,-22.7783"/>
</g>
<!-- Node4 -->
<g id="node5" class="node"><title>Node4</title>
<polygon fill="white" stroke="#bfbfbf" points="180.5,-56.5 180.5,-75.5 259.5,-75.5 259.5,-56.5 180.5,-56.5"/>
<text text-anchor="middle" x="220" y="-63.5" font-family="Helvetica,sans-Serif" font-size="10.00">ArduinoJson.h</text>
</g>
<!-- Node0&#45;&gt;Node4 -->
<g id="edge4" class="edge"><title>Node0&#45;&gt;Node4</title>
<path fill="none" stroke="midnightblue" d="M184.901,-112.399C191.586,-103.753 200.176,-92.642 207.185,-83.576"/>
<polygon fill="midnightblue" stroke="midnightblue" points="209.959,-85.7099 213.307,-75.6578 204.421,-81.4284 209.959,-85.7099"/>
</g>
<!-- Node5 -->
<g id="node6" class="node"><title>Node5</title>
<polygon fill="white" stroke="#bfbfbf" points="277.5,-56.5 277.5,-75.5 324.5,-75.5 324.5,-56.5 277.5,-56.5"/>
<text text-anchor="middle" x="301" y="-63.5" font-family="Helvetica,sans-Serif" font-size="10.00">math.h</text>
</g>
<!-- Node0&#45;&gt;Node5 -->
<g id="edge5" class="edge"><title>Node0&#45;&gt;Node5</title>
<path fill="none" stroke="midnightblue" d="M204.097,-112.399C225.12,-102.55 252.972,-89.5014 273.419,-79.9217"/>
<polygon fill="midnightblue" stroke="midnightblue" points="274.95,-83.0698 282.52,-75.6578 271.98,-76.7309 274.95,-83.0698"/>
</g>
<!-- Node6 -->
<g id="node7" class="node"><title>Node6</title>
<g id="a_node7"><a xlink:href="Irene3000_8h.html" target="_top" xlink:title="Irene3000 Header File. ">
<polygon fill="white" stroke="black" points="94,-56.5 94,-75.5 162,-75.5 162,-56.5 94,-56.5"/>
<text text-anchor="middle" x="128" y="-63.5" font-family="Helvetica,sans-Serif" font-size="10.00">Irene3000.h</text>
</a>
</g>
</g>
<!-- Node0&#45;&gt;Node6 -->
<g id="edge6" class="edge"><title>Node0&#45;&gt;Node6</title>
<path fill="none" stroke="midnightblue" d="M163.099,-112.399C156.414,-103.753 147.824,-92.642 140.815,-83.576"/>
<polygon fill="midnightblue" stroke="midnightblue" points="143.579,-81.4284 134.693,-75.6578 138.041,-85.7099 143.579,-81.4284"/>
</g>
<!-- Node6&#45;&gt;Node2 -->
<g id="edge7" class="edge"><title>Node6&#45;&gt;Node2</title>
<path fill="none" stroke="midnightblue" d="M122.881,-56.083C118.592,-48.6127 112.342,-37.7244 107.058,-28.5199"/>
<polygon fill="midnightblue" stroke="midnightblue" points="110.038,-26.6811 102.024,-19.7511 103.967,-30.1662 110.038,-26.6811"/>
</g>
<!-- Node6&#45;&gt;Node3 -->
<g id="edge8" class="edge"><title>Node6&#45;&gt;Node3</title>
<path fill="none" stroke="midnightblue" d="M153.669,-56.4435C180.923,-47.3591 224.184,-32.9388 254.651,-22.7831"/>
<polygon fill="midnightblue" stroke="midnightblue" points="256.071,-25.9992 264.451,-19.5164 253.857,-19.3584 256.071,-25.9992"/>
</g>
</g>
</svg>
