<?xml version="1.0" encoding="UTF-8" standalone="no"?>
<!DOCTYPE svg PUBLIC "-//W3C//DTD SVG 1.1//EN"
 "http://www.w3.org/Graphics/SVG/1.1/DTD/svg11.dtd">
<!-- Generated by graphviz version 2.38.0 (20140413.2041)
 -->
<!-- Title: Irene3000.h Pages: 1 -->
<svg width="190pt" height="84pt"
 viewBox="0.00 0.00 190.00 84.00" xmlns="http://www.w3.org/2000/svg" xmlns:xlink="http://www.w3.org/1999/xlink">
<g id="graph0" class="graph" transform="scale(1 1) rotate(0) translate(4 80)">
<title>Irene3000.h</title>
<polygon fill="white" stroke="none" points="-4,4 -4,-80 186,-80 186,4 -4,4"/>
<!-- Node0 -->
<g id="node1" class="node"><title>Node0</title>
<polygon fill="#bfbfbf" stroke="black" points="69,-56.5 69,-75.5 137,-75.5 137,-56.5 69,-56.5"/>
<text text-anchor="middle" x="103" y="-63.5" font-family="Helvetica,sans-Serif" font-size="10.00">Irene3000.h</text>
</g>
<!-- Node1 -->
<g id="node2" class="node"><title>Node1</title>
<polygon fill="white" stroke="#bfbfbf" points="0,-0.5 0,-19.5 106,-19.5 106,-0.5 0,-0.5"/>
<text text-anchor="middle" x="53" y="-7.5" font-family="Helvetica,sans-Serif" font-size="10.00">Adafruit_ADS1015.h</text>
</g>
<!-- Node0&#45;&gt;Node1 -->
<g id="edge1" class="edge"><title>Node0&#45;&gt;Node1</title>
<path fill="none" stroke="midnightblue" d="M94.7435,-56.083C87.5353,-48.2982 76.8902,-36.8015 68.1542,-27.3665"/>
<polygon fill="midnightblue" stroke="midnightblue" points="70.4651,-24.7108 61.1028,-19.7511 65.3288,-29.4666 70.4651,-24.7108"/>
</g>
<!-- Node2 -->
<g id="node3" class="node"><title>Node2</title>
<polygon fill="white" stroke="#bfbfbf" points="124,-0.5 124,-19.5 182,-19.5 182,-0.5 124,-0.5"/>
<text text-anchor="middle" x="153" y="-7.5" font-family="Helvetica,sans-Serif" font-size="10.00">Arduino.h</text>
</g>
<!-- Node0&#45;&gt;Node2 -->
<g id="edge2" class="edge"><title>Node0&#45;&gt;Node2</title>
<path fill="none" stroke="midnightblue" d="M111.256,-56.083C118.465,-48.2982 129.11,-36.8015 137.846,-27.3665"/>
<polygon fill="midnightblue" stroke="midnightblue" points="140.671,-29.4666 144.897,-19.7511 135.535,-24.7108 140.671,-29.4666"/>
</g>
</g>
</svg>
