<?xml version="1.0" encoding="UTF-8" standalone="no"?>
<!DOCTYPE svg PUBLIC "-//W3C//DTD SVG 1.1//EN"
 "http://www.w3.org/Graphics/SVG/1.1/DTD/svg11.dtd">
<!-- Generated by graphviz version 2.38.0 (20140413.2041)
 -->
<!-- Title: writeRegister Pages: 1 -->
<svg width="916pt" height="276pt"
 viewBox="0.00 0.00 916.00 275.50" xmlns="http://www.w3.org/2000/svg" xmlns:xlink="http://www.w3.org/1999/xlink">
<g id="graph0" class="graph" transform="scale(1 1) rotate(0) translate(4 271.5)">
<title>writeRegister</title>
<polygon fill="white" stroke="none" points="-4,4 -4,-271.5 912,-271.5 912,4 -4,4"/>
<!-- Node62 -->
<g id="node1" class="node"><title>Node62</title>
<polygon fill="#bfbfbf" stroke="black" points="0,-79 0,-98 74,-98 74,-79 0,-79"/>
<text text-anchor="middle" x="37" y="-86" font-family="Helvetica,sans-Serif" font-size="10.00">writeRegister</text>
</g>
<!-- Node63 -->
<g id="node2" class="node"><title>Node63</title>
<g id="a_node2"><a xlink:href="../../df/df6/class_adafruit___a_d_s1015.html#a40f38b9e1f3ec397c0670dd632510235" target="_top" xlink:title="Gets a single&#45;ended ADC reading from the specified channel. ">
<polygon fill="white" stroke="black" points="125,-147.5 125,-177.5 269,-177.5 269,-147.5 125,-147.5"/>
<text text-anchor="start" x="133" y="-165.5" font-family="Helvetica,sans-Serif" font-size="10.00">Adafruit_ADS1015::readADC</text>
<text text-anchor="middle" x="197" y="-154.5" font-family="Helvetica,sans-Serif" font-size="10.00">_SingleEnded</text>
</a>
</g>
</g>
<!-- Node62&#45;&gt;Node63 -->
<g id="edge1" class="edge"><title>Node62&#45;&gt;Node63</title>
<path fill="none" stroke="midnightblue" d="M57.3379,-104.615C71.2404,-115.506 90.8401,-129.49 110,-138.5 117.154,-141.864 124.871,-144.84 132.642,-147.45"/>
<polygon fill="midnightblue" stroke="midnightblue" points="59.4631,-101.833 49.4726,-98.3058 55.083,-107.293 59.4631,-101.833"/>
</g>
<!-- Node76 -->
<g id="node15" class="node"><title>Node76</title>
<g id="a_node15"><a xlink:href="../../df/df6/class_adafruit___a_d_s1015.html#a56582333958e66efaccd3d4a8a47e3ff" target="_top" xlink:title="Reads the conversion results, measuring the voltage difference between the P (AIN0) and N (AIN1) inpu...">
<polygon fill="white" stroke="black" points="125,-98.5 125,-128.5 269,-128.5 269,-98.5 125,-98.5"/>
<text text-anchor="start" x="133" y="-116.5" font-family="Helvetica,sans-Serif" font-size="10.00">Adafruit_ADS1015::readADC</text>
<text text-anchor="middle" x="197" y="-105.5" font-family="Helvetica,sans-Serif" font-size="10.00">_Differential_0_1</text>
</a>
</g>
</g>
<!-- Node62&#45;&gt;Node76 -->
<g id="edge18" class="edge"><title>Node62&#45;&gt;Node76</title>
<path fill="none" stroke="midnightblue" d="M84.5016,-95.8578C97.1265,-97.8555 111.093,-100.065 124.747,-102.226"/>
<polygon fill="midnightblue" stroke="midnightblue" points="84.6725,-92.3414 74.2484,-94.2355 83.5785,-99.2554 84.6725,-92.3414"/>
</g>
<!-- Node77 -->
<g id="node16" class="node"><title>Node77</title>
<g id="a_node16"><a xlink:href="../../df/df6/class_adafruit___a_d_s1015.html#a38311881bcab46f7496c4bb6e4cad576" target="_top" xlink:title="Reads the conversion results, measuring the voltage difference between the P (AIN2) and N (AIN3) inpu...">
<polygon fill="white" stroke="black" points="125,-49.5 125,-79.5 269,-79.5 269,-49.5 125,-49.5"/>
<text text-anchor="start" x="133" y="-67.5" font-family="Helvetica,sans-Serif" font-size="10.00">Adafruit_ADS1015::readADC</text>
<text text-anchor="middle" x="197" y="-56.5" font-family="Helvetica,sans-Serif" font-size="10.00">_Differential_2_3</text>
</a>
</g>
</g>
<!-- Node62&#45;&gt;Node77 -->
<g id="edge19" class="edge"><title>Node62&#45;&gt;Node77</title>
<path fill="none" stroke="midnightblue" d="M84.5016,-81.4365C97.1265,-79.5188 111.093,-77.3973 124.747,-75.3233"/>
<polygon fill="midnightblue" stroke="midnightblue" points="83.6093,-78.0318 74.2484,-82.9939 84.6606,-84.9524 83.6093,-78.0318"/>
</g>
<!-- Node78 -->
<g id="node17" class="node"><title>Node78</title>
<g id="a_node17"><a xlink:href="../../df/df6/class_adafruit___a_d_s1015.html#aecd30775d943ea9d9cff0e3485926596" target="_top" xlink:title="Sets up the comparator to operate in basic mode, causing the ALERT/RDY pin to assert (go from high to...">
<polygon fill="white" stroke="black" points="110,-0.5 110,-30.5 284,-30.5 284,-0.5 110,-0.5"/>
<text text-anchor="start" x="118" y="-18.5" font-family="Helvetica,sans-Serif" font-size="10.00">Adafruit_ADS1015::startComparator</text>
<text text-anchor="middle" x="197" y="-7.5" font-family="Helvetica,sans-Serif" font-size="10.00">_SingleEnded</text>
</a>
</g>
</g>
<!-- Node62&#45;&gt;Node78 -->
<g id="edge20" class="edge"><title>Node62&#45;&gt;Node78</title>
<path fill="none" stroke="midnightblue" d="M57.389,-72.7273C71.3152,-62.0636 90.9219,-48.3619 110,-39.5 117.17,-36.1696 124.896,-33.2136 132.672,-30.6151"/>
<polygon fill="midnightblue" stroke="midnightblue" points="55.2196,-69.9807 49.5076,-78.904 59.5375,-75.4904 55.2196,-69.9807"/>
</g>
<!-- Node64 -->
<g id="node3" class="node"><title>Node64</title>
<g id="a_node3"><a xlink:href="../../d6/d03/class_irene3000.html#a78a87eb7cf295b95c12b2ebd51c2bb77" target="_top" xlink:title="Irene3000::readButton">
<polygon fill="white" stroke="black" points="336.5,-248 336.5,-267 449.5,-267 449.5,-248 336.5,-248"/>
<text text-anchor="middle" x="393" y="-255" font-family="Helvetica,sans-Serif" font-size="10.00">Irene3000::readButton</text>
</a>
</g>
</g>
<!-- Node63&#45;&gt;Node64 -->
<g id="edge2" class="edge"><title>Node63&#45;&gt;Node64</title>
<path fill="none" stroke="midnightblue" d="M226.36,-183.599C250.263,-200.517 285.925,-223.788 320,-238.5 328.664,-242.241 338.242,-245.393 347.507,-247.988"/>
<polygon fill="midnightblue" stroke="midnightblue" points="228.277,-180.666 218.111,-177.681 224.196,-186.354 228.277,-180.666"/>
</g>
<!-- Node67 -->
<g id="node6" class="node"><title>Node67</title>
<g id="a_node6"><a xlink:href="../../d6/d03/class_irene3000.html#ae73bd2ed14a199a7e83f4d6458476a7c" target="_top" xlink:title="Irene3000::readADSChannel2">
<polygon fill="white" stroke="black" points="320,-134 320,-153 466,-153 466,-134 320,-134"/>
<text text-anchor="middle" x="393" y="-141" font-family="Helvetica,sans-Serif" font-size="10.00">Irene3000::readADSChannel2</text>
</a>
</g>
</g>
<!-- Node63&#45;&gt;Node67 -->
<g id="edge5" class="edge"><title>Node63&#45;&gt;Node67</title>
<path fill="none" stroke="midnightblue" d="M279.335,-154.534C292.801,-153.215 306.68,-151.856 319.897,-150.562"/>
<polygon fill="midnightblue" stroke="midnightblue" points="278.748,-151.075 269.137,-155.533 279.43,-158.042 278.748,-151.075"/>
</g>
<!-- Node72 -->
<g id="node11" class="node"><title>Node72</title>
<g id="a_node11"><a xlink:href="../../d6/d03/class_irene3000.html#a436fc0a06681cd0784aba56b9707f19a" target="_top" xlink:title="Irene3000::readPh">
<polygon fill="white" stroke="black" points="345,-96 345,-115 441,-115 441,-96 345,-96"/>
<text text-anchor="middle" x="393" y="-103" font-family="Helvetica,sans-Serif" font-size="10.00">Irene3000::readPh</text>
</a>
</g>
</g>
<!-- Node63&#45;&gt;Node72 -->
<g id="edge10" class="edge"><title>Node63&#45;&gt;Node72</title>
<path fill="none" stroke="midnightblue" d="M265.17,-144.447C271.56,-142.522 277.92,-140.525 284,-138.5 300.288,-133.075 303.674,-129.81 320,-124.5 330.45,-121.101 341.898,-117.865 352.529,-115.058"/>
<polygon fill="midnightblue" stroke="midnightblue" points="263.741,-141.22 255.14,-147.407 265.722,-147.934 263.741,-141.22"/>
</g>
<!-- Node73 -->
<g id="node12" class="node"><title>Node73</title>
<g id="a_node12"><a xlink:href="../../d6/d03/class_irene3000.html#a80bc6dfea106dc3bc54fa20204d4d5dc" target="_top" xlink:title="Irene3000::readTemp">
<polygon fill="white" stroke="black" points="338.5,-58 338.5,-77 447.5,-77 447.5,-58 338.5,-58"/>
<text text-anchor="middle" x="393" y="-65" font-family="Helvetica,sans-Serif" font-size="10.00">Irene3000::readTemp</text>
</a>
</g>
</g>
<!-- Node63&#45;&gt;Node73 -->
<g id="edge12" class="edge"><title>Node63&#45;&gt;Node73</title>
<path fill="none" stroke="midnightblue" d="M277.452,-142.711C279.711,-141.396 281.901,-139.995 284,-138.5 306.899,-122.197 296.987,-102.64 320,-86.5 325.504,-82.6399 331.742,-79.5641 338.19,-77.1131"/>
<polygon fill="midnightblue" stroke="midnightblue" points="275.721,-139.666 268.439,-147.361 278.93,-145.887 275.721,-139.666"/>
</g>
<!-- Node74 -->
<g id="node13" class="node"><title>Node74</title>
<g id="a_node13"><a xlink:href="../../d6/d03/class_irene3000.html#a1d3299202e4cb7afcff9c9e3e95d94c1" target="_top" xlink:title="Irene3000::calibratepH7">
<polygon fill="white" stroke="black" points="333,-210 333,-229 453,-229 453,-210 333,-210"/>
<text text-anchor="middle" x="393" y="-217" font-family="Helvetica,sans-Serif" font-size="10.00">Irene3000::calibratepH7</text>
</a>
</g>
</g>
<!-- Node63&#45;&gt;Node74 -->
<g id="edge14" class="edge"><title>Node63&#45;&gt;Node74</title>
<path fill="none" stroke="midnightblue" d="M254.066,-180.529C274.731,-187.025 298.374,-194.282 320,-200.5 331.182,-203.715 343.401,-207.018 354.545,-209.95"/>
<polygon fill="midnightblue" stroke="midnightblue" points="255.081,-177.18 244.492,-177.508 252.974,-183.855 255.081,-177.18"/>
</g>
<!-- Node75 -->
<g id="node14" class="node"><title>Node75</title>
<g id="a_node14"><a xlink:href="../../d6/d03/class_irene3000.html#aa140dd026922a04981edfd04d46cabbe" target="_top" xlink:title="Irene3000::calibratepH4">
<polygon fill="white" stroke="black" points="333,-172 333,-191 453,-191 453,-172 333,-172"/>
<text text-anchor="middle" x="393" y="-179" font-family="Helvetica,sans-Serif" font-size="10.00">Irene3000::calibratepH4</text>
</a>
</g>
</g>
<!-- Node63&#45;&gt;Node75 -->
<g id="edge16" class="edge"><title>Node63&#45;&gt;Node75</title>
<path fill="none" stroke="midnightblue" d="M279.333,-170.466C297.327,-172.228 316.06,-174.063 332.966,-175.718"/>
<polygon fill="midnightblue" stroke="midnightblue" points="279.43,-166.958 269.137,-169.467 278.748,-173.925 279.43,-166.958"/>
</g>
<!-- Node65 -->
<g id="node4" class="node"><title>Node65</title>
<g id="a_node4"><a xlink:href="../../d6/d03/class_irene3000.html#ad5891806c500ae1007afe52b9e304c2b" target="_top" xlink:title="Irene3000::begin">
<polygon fill="white" stroke="black" points="502,-210 502,-229 591,-229 591,-210 502,-210"/>
<text text-anchor="middle" x="546.5" y="-217" font-family="Helvetica,sans-Serif" font-size="10.00">Irene3000::begin</text>
</a>
</g>
</g>
<!-- Node64&#45;&gt;Node65 -->
<g id="edge3" class="edge"><title>Node64&#45;&gt;Node65</title>
<path fill="none" stroke="midnightblue" d="M442.002,-245.46C463.167,-240.151 487.686,-234.001 507.545,-229.02"/>
<polygon fill="midnightblue" stroke="midnightblue" points="441.078,-242.083 432.23,-247.911 442.781,-248.873 441.078,-242.083"/>
</g>
<!-- Node66 -->
<g id="node5" class="node"><title>Node66</title>
<g id="a_node5"><a xlink:href="../../d7/df9/class_cool_board.html#acba7c5aef7268b2c0044bdb54d3b9d76" target="_top" xlink:title="CoolBoard::begin">
<polygon fill="white" stroke="black" points="642.5,-210 642.5,-229 734.5,-229 734.5,-210 642.5,-210"/>
<text text-anchor="middle" x="688.5" y="-217" font-family="Helvetica,sans-Serif" font-size="10.00">CoolBoard::begin</text>
</a>
</g>
</g>
<!-- Node65&#45;&gt;Node66 -->
<g id="edge4" class="edge"><title>Node65&#45;&gt;Node66</title>
<path fill="none" stroke="midnightblue" d="M601.149,-219.5C614.649,-219.5 629.007,-219.5 642.061,-219.5"/>
<polygon fill="midnightblue" stroke="midnightblue" points="601.029,-216 591.029,-219.5 601.029,-223 601.029,-216"/>
</g>
<!-- Node68 -->
<g id="node7" class="node"><title>Node68</title>
<g id="a_node7"><a xlink:href="../../d6/d03/class_irene3000.html#a852a170feea994ea1df01c6b245b5d9a" target="_top" xlink:title="Irene3000::read">
<polygon fill="white" stroke="black" points="504.5,-96 504.5,-115 588.5,-115 588.5,-96 504.5,-96"/>
<text text-anchor="middle" x="546.5" y="-103" font-family="Helvetica,sans-Serif" font-size="10.00">Irene3000::read</text>
</a>
</g>
</g>
<!-- Node67&#45;&gt;Node68 -->
<g id="edge6" class="edge"><title>Node67&#45;&gt;Node68</title>
<path fill="none" stroke="midnightblue" d="M442.002,-131.46C463.167,-126.151 487.686,-120.001 507.545,-115.02"/>
<polygon fill="midnightblue" stroke="midnightblue" points="441.078,-128.083 432.23,-133.911 442.781,-134.873 441.078,-128.083"/>
</g>
<!-- Node69 -->
<g id="node8" class="node"><title>Node69</title>
<g id="a_node8"><a xlink:href="../../d7/df9/class_cool_board.html#ad03abdce2e65f520bbf2cff0f2d083cf" target="_top" xlink:title="CoolBoard::readSensors">
<polygon fill="white" stroke="black" points="627,-96 627,-115 750,-115 750,-96 627,-96"/>
<text text-anchor="middle" x="688.5" y="-103" font-family="Helvetica,sans-Serif" font-size="10.00">CoolBoard::readSensors</text>
</a>
</g>
</g>
<!-- Node68&#45;&gt;Node69 -->
<g id="edge7" class="edge"><title>Node68&#45;&gt;Node69</title>
<path fill="none" stroke="midnightblue" d="M598.806,-105.5C607.919,-105.5 617.489,-105.5 626.832,-105.5"/>
<polygon fill="midnightblue" stroke="midnightblue" points="598.747,-102 588.747,-105.5 598.747,-109 598.747,-102"/>
</g>
<!-- Node70 -->
<g id="node9" class="node"><title>Node70</title>
<g id="a_node9"><a xlink:href="../../d7/df9/class_cool_board.html#aa0bbc4bc605e35618d18e68795c61363" target="_top" xlink:title="CoolBoard::onLineMode">
<polygon fill="white" stroke="black" points="786.5,-115 786.5,-134 907.5,-134 907.5,-115 786.5,-115"/>
<text text-anchor="middle" x="847" y="-122" font-family="Helvetica,sans-Serif" font-size="10.00">CoolBoard::onLineMode</text>
</a>
</g>
</g>
<!-- Node69&#45;&gt;Node70 -->
<g id="edge8" class="edge"><title>Node69&#45;&gt;Node70</title>
<path fill="none" stroke="midnightblue" d="M760.207,-114.084C768.968,-115.148 777.856,-116.227 786.427,-117.267"/>
<polygon fill="midnightblue" stroke="midnightblue" points="760.356,-110.577 750.007,-112.846 759.512,-117.526 760.356,-110.577"/>
</g>
<!-- Node71 -->
<g id="node10" class="node"><title>Node71</title>
<g id="a_node10"><a xlink:href="../../d7/df9/class_cool_board.html#ae6b5e1274d760462290192acea4adca8" target="_top" xlink:title="CoolBoard::offLineMode">
<polygon fill="white" stroke="black" points="786,-77 786,-96 908,-96 908,-77 786,-77"/>
<text text-anchor="middle" x="847" y="-84" font-family="Helvetica,sans-Serif" font-size="10.00">CoolBoard::offLineMode</text>
</a>
</g>
</g>
<!-- Node69&#45;&gt;Node71 -->
<g id="edge9" class="edge"><title>Node69&#45;&gt;Node71</title>
<path fill="none" stroke="midnightblue" d="M760.059,-96.9338C768.692,-95.8856 777.452,-94.8221 785.912,-93.7951"/>
<polygon fill="midnightblue" stroke="midnightblue" points="759.512,-93.4743 750.007,-98.1541 760.356,-100.423 759.512,-93.4743"/>
</g>
<!-- Node72&#45;&gt;Node68 -->
<g id="edge11" class="edge"><title>Node72&#45;&gt;Node68</title>
<path fill="none" stroke="midnightblue" d="M451.293,-105.5C468.929,-105.5 487.987,-105.5 504.316,-105.5"/>
<polygon fill="midnightblue" stroke="midnightblue" points="451.105,-102 441.105,-105.5 451.105,-109 451.105,-102"/>
</g>
<!-- Node73&#45;&gt;Node68 -->
<g id="edge13" class="edge"><title>Node73&#45;&gt;Node68</title>
<path fill="none" stroke="midnightblue" d="M442.002,-79.54C463.167,-84.8488 487.686,-90.9988 507.545,-95.9799"/>
<polygon fill="midnightblue" stroke="midnightblue" points="442.781,-76.1271 432.23,-77.089 441.078,-82.9168 442.781,-76.1271"/>
</g>
<!-- Node74&#45;&gt;Node65 -->
<g id="edge15" class="edge"><title>Node74&#45;&gt;Node65</title>
<path fill="none" stroke="midnightblue" d="M463.038,-219.5C476.261,-219.5 489.758,-219.5 501.902,-219.5"/>
<polygon fill="midnightblue" stroke="midnightblue" points="463.008,-216 453.008,-219.5 463.008,-223 463.008,-216"/>
</g>
<!-- Node75&#45;&gt;Node65 -->
<g id="edge17" class="edge"><title>Node75&#45;&gt;Node65</title>
<path fill="none" stroke="midnightblue" d="M442.002,-193.54C463.167,-198.849 487.686,-204.999 507.545,-209.98"/>
<polygon fill="midnightblue" stroke="midnightblue" points="442.781,-190.127 432.23,-191.089 441.078,-196.917 442.781,-190.127"/>
</g>
</g>
</svg>
