<?xml version="1.0" encoding="UTF-8" standalone="no"?>
<!DOCTYPE svg PUBLIC "-//W3C//DTD SVG 1.1//EN"
 "http://www.w3.org/Graphics/SVG/1.1/DTD/svg11.dtd">
<!-- Generated by graphviz version 2.38.0 (20140413.2041)
 -->
<!-- Title: readRegister Pages: 1 -->
<svg width="884pt" height="276pt"
 viewBox="0.00 0.00 884.00 275.50" xmlns="http://www.w3.org/2000/svg" xmlns:xlink="http://www.w3.org/1999/xlink">
<g id="graph0" class="graph" transform="scale(1 1) rotate(0) translate(4 271.5)">
<title>readRegister</title>
<polygon fill="white" stroke="none" points="-4,4 -4,-271.5 880,-271.5 880,4 -4,4"/>
<!-- Node62 -->
<g id="node1" class="node"><title>Node62</title>
<polygon fill="#bfbfbf" stroke="black" points="0,-168.5 0,-187.5 72,-187.5 72,-168.5 0,-168.5"/>
<text text-anchor="middle" x="36" y="-175.5" font-family="Helvetica,sans-Serif" font-size="10.00">readRegister</text>
</g>
<!-- Node63 -->
<g id="node2" class="node"><title>Node63</title>
<g id="a_node2"><a xlink:href="../../df/df6/class_adafruit___a_d_s1015.html#ad8f36d80847020778425107f6451a8c2" target="_top" xlink:title="In order to clear the comparator, we need to read the conversion results. This function reads the las...">
<polygon fill="white" stroke="black" points="112,-237 112,-267 248,-267 248,-237 112,-237"/>
<text text-anchor="start" x="120" y="-255" font-family="Helvetica,sans-Serif" font-size="10.00">Adafruit_ADS1015::getLast</text>
<text text-anchor="middle" x="180" y="-244" font-family="Helvetica,sans-Serif" font-size="10.00">ConversionResults</text>
</a>
</g>
</g>
<!-- Node62&#45;&gt;Node63 -->
<g id="edge1" class="edge"><title>Node62&#45;&gt;Node63</title>
<path fill="none" stroke="midnightblue" d="M56.5798,-194.117C70.3182,-204.826 89.4738,-218.595 108,-228 114.497,-231.298 121.549,-234.302 128.603,-236.982"/>
<polygon fill="midnightblue" stroke="midnightblue" points="58.3978,-191.091 48.3951,-187.598 54.0368,-196.566 58.3978,-191.091"/>
</g>
<!-- Node64 -->
<g id="node3" class="node"><title>Node64</title>
<g id="a_node3"><a xlink:href="../../df/df6/class_adafruit___a_d_s1015.html#a56582333958e66efaccd3d4a8a47e3ff" target="_top" xlink:title="Reads the conversion results, measuring the voltage difference between the P (AIN0) and N (AIN1) inpu...">
<polygon fill="white" stroke="black" points="108,-188 108,-218 252,-218 252,-188 108,-188"/>
<text text-anchor="start" x="116" y="-206" font-family="Helvetica,sans-Serif" font-size="10.00">Adafruit_ADS1015::readADC</text>
<text text-anchor="middle" x="180" y="-195" font-family="Helvetica,sans-Serif" font-size="10.00">_Differential_0_1</text>
</a>
</g>
</g>
<!-- Node62&#45;&gt;Node64 -->
<g id="edge2" class="edge"><title>Node62&#45;&gt;Node64</title>
<path fill="none" stroke="midnightblue" d="M82.1962,-185.957C90.4236,-187.406 99.1861,-188.948 107.95,-190.491"/>
<polygon fill="midnightblue" stroke="midnightblue" points="82.5566,-182.467 72.1011,-184.18 81.3428,-189.361 82.5566,-182.467"/>
</g>
<!-- Node65 -->
<g id="node4" class="node"><title>Node65</title>
<g id="a_node4"><a xlink:href="../../df/df6/class_adafruit___a_d_s1015.html#a38311881bcab46f7496c4bb6e4cad576" target="_top" xlink:title="Reads the conversion results, measuring the voltage difference between the P (AIN2) and N (AIN3) inpu...">
<polygon fill="white" stroke="black" points="108,-139 108,-169 252,-169 252,-139 108,-139"/>
<text text-anchor="start" x="116" y="-157" font-family="Helvetica,sans-Serif" font-size="10.00">Adafruit_ADS1015::readADC</text>
<text text-anchor="middle" x="180" y="-146" font-family="Helvetica,sans-Serif" font-size="10.00">_Differential_2_3</text>
</a>
</g>
</g>
<!-- Node62&#45;&gt;Node65 -->
<g id="edge3" class="edge"><title>Node62&#45;&gt;Node65</title>
<path fill="none" stroke="midnightblue" d="M82.1962,-170.361C90.4236,-168.971 99.1861,-167.49 107.95,-166.009"/>
<polygon fill="midnightblue" stroke="midnightblue" points="81.378,-166.95 72.1011,-172.067 82.5446,-173.852 81.378,-166.95"/>
</g>
<!-- Node66 -->
<g id="node5" class="node"><title>Node66</title>
<g id="a_node5"><a xlink:href="../../df/df6/class_adafruit___a_d_s1015.html#a40f38b9e1f3ec397c0670dd632510235" target="_top" xlink:title="Gets a single&#45;ended ADC reading from the specified channel. ">
<polygon fill="white" stroke="black" points="108,-90 108,-120 252,-120 252,-90 108,-90"/>
<text text-anchor="start" x="116" y="-108" font-family="Helvetica,sans-Serif" font-size="10.00">Adafruit_ADS1015::readADC</text>
<text text-anchor="middle" x="180" y="-97" font-family="Helvetica,sans-Serif" font-size="10.00">_SingleEnded</text>
</a>
</g>
</g>
<!-- Node62&#45;&gt;Node66 -->
<g id="edge4" class="edge"><title>Node62&#45;&gt;Node66</title>
<path fill="none" stroke="midnightblue" d="M57.2107,-162.285C70.9706,-152.112 89.9041,-139.113 108,-130 115.236,-126.356 123.132,-123.01 130.944,-120.033"/>
<polygon fill="midnightblue" stroke="midnightblue" points="54.8546,-159.678 48.9763,-168.493 59.0684,-165.268 54.8546,-159.678"/>
</g>
<!-- Node67 -->
<g id="node6" class="node"><title>Node67</title>
<g id="a_node6"><a xlink:href="../../d6/d03/class_irene3000.html#a78a87eb7cf295b95c12b2ebd51c2bb77" target="_top" xlink:title="Irene3000::readButton">
<polygon fill="white" stroke="black" points="304.5,-190.5 304.5,-209.5 417.5,-209.5 417.5,-190.5 304.5,-190.5"/>
<text text-anchor="middle" x="361" y="-197.5" font-family="Helvetica,sans-Serif" font-size="10.00">Irene3000::readButton</text>
</a>
</g>
</g>
<!-- Node66&#45;&gt;Node67 -->
<g id="edge5" class="edge"><title>Node66&#45;&gt;Node67</title>
<path fill="none" stroke="midnightblue" d="M244.172,-124.776C246.9,-126.391 249.526,-128.129 252,-130 274.132,-146.732 265.213,-165.173 288,-181 293.628,-184.909 300.011,-188.013 306.596,-190.479"/>
<polygon fill="midnightblue" stroke="midnightblue" points="245.651,-121.599 235.173,-120.028 242.385,-127.79 245.651,-121.599"/>
</g>
<!-- Node70 -->
<g id="node9" class="node"><title>Node70</title>
<g id="a_node9"><a xlink:href="../../d6/d03/class_irene3000.html#ae73bd2ed14a199a7e83f4d6458476a7c" target="_top" xlink:title="Irene3000::readADSChannel2">
<polygon fill="white" stroke="black" points="288,-76.5 288,-95.5 434,-95.5 434,-76.5 288,-76.5"/>
<text text-anchor="middle" x="361" y="-83.5" font-family="Helvetica,sans-Serif" font-size="10.00">Irene3000::readADSChannel2</text>
</a>
</g>
</g>
<!-- Node66&#45;&gt;Node70 -->
<g id="edge8" class="edge"><title>Node66&#45;&gt;Node70</title>
<path fill="none" stroke="midnightblue" d="M262.055,-96.3964C270.676,-95.4813 279.403,-94.555 287.911,-93.6519"/>
<polygon fill="midnightblue" stroke="midnightblue" points="261.577,-92.9273 252.003,-97.4634 262.316,-99.8882 261.577,-92.9273"/>
</g>
<!-- Node75 -->
<g id="node14" class="node"><title>Node75</title>
<g id="a_node14"><a xlink:href="../../d6/d03/class_irene3000.html#a436fc0a06681cd0784aba56b9707f19a" target="_top" xlink:title="Irene3000::readPh">
<polygon fill="white" stroke="black" points="313,-38.5 313,-57.5 409,-57.5 409,-38.5 313,-38.5"/>
<text text-anchor="middle" x="361" y="-45.5" font-family="Helvetica,sans-Serif" font-size="10.00">Irene3000::readPh</text>
</a>
</g>
</g>
<!-- Node66&#45;&gt;Node75 -->
<g id="edge13" class="edge"><title>Node66&#45;&gt;Node75</title>
<path fill="none" stroke="midnightblue" d="M230.574,-86.4257C248.552,-79.9472 269.089,-72.8422 288,-67 298.746,-63.6802 310.504,-60.4225 321.344,-57.568"/>
<polygon fill="midnightblue" stroke="midnightblue" points="229.08,-83.2445 220.876,-89.9484 231.47,-89.8239 229.08,-83.2445"/>
</g>
<!-- Node76 -->
<g id="node15" class="node"><title>Node76</title>
<g id="a_node15"><a xlink:href="../../d6/d03/class_irene3000.html#a80bc6dfea106dc3bc54fa20204d4d5dc" target="_top" xlink:title="Irene3000::readTemp">
<polygon fill="white" stroke="black" points="306.5,-0.5 306.5,-19.5 415.5,-19.5 415.5,-0.5 306.5,-0.5"/>
<text text-anchor="middle" x="361" y="-7.5" font-family="Helvetica,sans-Serif" font-size="10.00">Irene3000::readTemp</text>
</a>
</g>
</g>
<!-- Node66&#45;&gt;Node76 -->
<g id="edge15" class="edge"><title>Node66&#45;&gt;Node76</title>
<path fill="none" stroke="midnightblue" d="M205.624,-83.5748C226.337,-66.562 257.394,-43.3267 288,-29 296.079,-25.2183 305.033,-22.0948 313.805,-19.5496"/>
<polygon fill="midnightblue" stroke="midnightblue" points="203.38,-80.8891 197.948,-89.9855 207.867,-86.2619 203.38,-80.8891"/>
</g>
<!-- Node77 -->
<g id="node16" class="node"><title>Node77</title>
<g id="a_node16"><a xlink:href="../../d6/d03/class_irene3000.html#a1d3299202e4cb7afcff9c9e3e95d94c1" target="_top" xlink:title="Irene3000::calibratepH7">
<polygon fill="white" stroke="black" points="301,-152.5 301,-171.5 421,-171.5 421,-152.5 301,-152.5"/>
<text text-anchor="middle" x="361" y="-159.5" font-family="Helvetica,sans-Serif" font-size="10.00">Irene3000::calibratepH7</text>
</a>
</g>
</g>
<!-- Node66&#45;&gt;Node77 -->
<g id="edge17" class="edge"><title>Node66&#45;&gt;Node77</title>
<path fill="none" stroke="midnightblue" d="M233.53,-123.444C239.758,-125.646 246.022,-127.868 252,-130 268.023,-135.714 271.76,-137.936 288,-143 298.737,-146.348 310.492,-149.615 321.333,-152.469"/>
<polygon fill="midnightblue" stroke="midnightblue" points="234.415,-120.045 223.821,-120.016 232.085,-126.645 234.415,-120.045"/>
</g>
<!-- Node78 -->
<g id="node17" class="node"><title>Node78</title>
<g id="a_node17"><a xlink:href="../../d6/d03/class_irene3000.html#aa140dd026922a04981edfd04d46cabbe" target="_top" xlink:title="Irene3000::calibratepH4">
<polygon fill="white" stroke="black" points="301,-114.5 301,-133.5 421,-133.5 421,-114.5 301,-114.5"/>
<text text-anchor="middle" x="361" y="-121.5" font-family="Helvetica,sans-Serif" font-size="10.00">Irene3000::calibratepH4</text>
</a>
</g>
</g>
<!-- Node66&#45;&gt;Node78 -->
<g id="edge19" class="edge"><title>Node66&#45;&gt;Node78</title>
<path fill="none" stroke="midnightblue" d="M261.962,-113.594C275.074,-114.985 288.432,-116.403 300.897,-117.727"/>
<polygon fill="midnightblue" stroke="midnightblue" points="262.316,-110.112 252.003,-112.537 261.577,-117.073 262.316,-110.112"/>
</g>
<!-- Node68 -->
<g id="node7" class="node"><title>Node68</title>
<g id="a_node7"><a xlink:href="../../d6/d03/class_irene3000.html#ad5891806c500ae1007afe52b9e304c2b" target="_top" xlink:title="Irene3000::begin">
<polygon fill="white" stroke="black" points="470,-152.5 470,-171.5 559,-171.5 559,-152.5 470,-152.5"/>
<text text-anchor="middle" x="514.5" y="-159.5" font-family="Helvetica,sans-Serif" font-size="10.00">Irene3000::begin</text>
</a>
</g>
</g>
<!-- Node67&#45;&gt;Node68 -->
<g id="edge6" class="edge"><title>Node67&#45;&gt;Node68</title>
<path fill="none" stroke="midnightblue" d="M410.002,-187.96C431.167,-182.651 455.686,-176.501 475.545,-171.52"/>
<polygon fill="midnightblue" stroke="midnightblue" points="409.078,-184.583 400.23,-190.411 410.781,-191.373 409.078,-184.583"/>
</g>
<!-- Node69 -->
<g id="node8" class="node"><title>Node69</title>
<g id="a_node8"><a xlink:href="../../d7/df9/class_cool_board.html#acba7c5aef7268b2c0044bdb54d3b9d76" target="_top" xlink:title="CoolBoard::begin">
<polygon fill="white" stroke="black" points="610.5,-152.5 610.5,-171.5 702.5,-171.5 702.5,-152.5 610.5,-152.5"/>
<text text-anchor="middle" x="656.5" y="-159.5" font-family="Helvetica,sans-Serif" font-size="10.00">CoolBoard::begin</text>
</a>
</g>
</g>
<!-- Node68&#45;&gt;Node69 -->
<g id="edge7" class="edge"><title>Node68&#45;&gt;Node69</title>
<path fill="none" stroke="midnightblue" d="M569.149,-162C582.649,-162 597.007,-162 610.061,-162"/>
<polygon fill="midnightblue" stroke="midnightblue" points="569.029,-158.5 559.029,-162 569.029,-165.5 569.029,-158.5"/>
</g>
<!-- Node71 -->
<g id="node10" class="node"><title>Node71</title>
<g id="a_node10"><a xlink:href="../../d6/d03/class_irene3000.html#a852a170feea994ea1df01c6b245b5d9a" target="_top" xlink:title="Irene3000::read">
<polygon fill="white" stroke="black" points="472.5,-38.5 472.5,-57.5 556.5,-57.5 556.5,-38.5 472.5,-38.5"/>
<text text-anchor="middle" x="514.5" y="-45.5" font-family="Helvetica,sans-Serif" font-size="10.00">Irene3000::read</text>
</a>
</g>
</g>
<!-- Node70&#45;&gt;Node71 -->
<g id="edge9" class="edge"><title>Node70&#45;&gt;Node71</title>
<path fill="none" stroke="midnightblue" d="M410.002,-73.96C431.167,-68.6512 455.686,-62.5012 475.545,-57.5201"/>
<polygon fill="midnightblue" stroke="midnightblue" points="409.078,-70.5832 400.23,-76.411 410.781,-77.3729 409.078,-70.5832"/>
</g>
<!-- Node72 -->
<g id="node11" class="node"><title>Node72</title>
<g id="a_node11"><a xlink:href="../../d7/df9/class_cool_board.html#ad03abdce2e65f520bbf2cff0f2d083cf" target="_top" xlink:title="CoolBoard::readSensors">
<polygon fill="white" stroke="black" points="595,-38.5 595,-57.5 718,-57.5 718,-38.5 595,-38.5"/>
<text text-anchor="middle" x="656.5" y="-45.5" font-family="Helvetica,sans-Serif" font-size="10.00">CoolBoard::readSensors</text>
</a>
</g>
</g>
<!-- Node71&#45;&gt;Node72 -->
<g id="edge10" class="edge"><title>Node71&#45;&gt;Node72</title>
<path fill="none" stroke="midnightblue" d="M566.806,-48C575.919,-48 585.489,-48 594.832,-48"/>
<polygon fill="midnightblue" stroke="midnightblue" points="566.747,-44.5001 556.747,-48 566.747,-51.5001 566.747,-44.5001"/>
</g>
<!-- Node73 -->
<g id="node12" class="node"><title>Node73</title>
<g id="a_node12"><a xlink:href="../../d7/df9/class_cool_board.html#aa0bbc4bc605e35618d18e68795c61363" target="_top" xlink:title="CoolBoard::onLineMode">
<polygon fill="white" stroke="black" points="754.5,-57.5 754.5,-76.5 875.5,-76.5 875.5,-57.5 754.5,-57.5"/>
<text text-anchor="middle" x="815" y="-64.5" font-family="Helvetica,sans-Serif" font-size="10.00">CoolBoard::onLineMode</text>
</a>
</g>
</g>
<!-- Node72&#45;&gt;Node73 -->
<g id="edge11" class="edge"><title>Node72&#45;&gt;Node73</title>
<path fill="none" stroke="midnightblue" d="M728.207,-56.5842C736.968,-57.6478 745.856,-58.7269 754.427,-59.7675"/>
<polygon fill="midnightblue" stroke="midnightblue" points="728.356,-53.0767 718.007,-55.3459 727.512,-60.0257 728.356,-53.0767"/>
</g>
<!-- Node74 -->
<g id="node13" class="node"><title>Node74</title>
<g id="a_node13"><a xlink:href="../../d7/df9/class_cool_board.html#ae6b5e1274d760462290192acea4adca8" target="_top" xlink:title="CoolBoard::offLineMode">
<polygon fill="white" stroke="black" points="754,-19.5 754,-38.5 876,-38.5 876,-19.5 754,-19.5"/>
<text text-anchor="middle" x="815" y="-26.5" font-family="Helvetica,sans-Serif" font-size="10.00">CoolBoard::offLineMode</text>
</a>
</g>
</g>
<!-- Node72&#45;&gt;Node74 -->
<g id="edge12" class="edge"><title>Node72&#45;&gt;Node74</title>
<path fill="none" stroke="midnightblue" d="M728.059,-39.4338C736.692,-38.3856 745.452,-37.3221 753.912,-36.2951"/>
<polygon fill="midnightblue" stroke="midnightblue" points="727.512,-35.9743 718.007,-40.6541 728.356,-42.9233 727.512,-35.9743"/>
</g>
<!-- Node75&#45;&gt;Node71 -->
<g id="edge14" class="edge"><title>Node75&#45;&gt;Node71</title>
<path fill="none" stroke="midnightblue" d="M419.293,-48C436.929,-48 455.987,-48 472.316,-48"/>
<polygon fill="midnightblue" stroke="midnightblue" points="419.105,-44.5001 409.105,-48 419.105,-51.5001 419.105,-44.5001"/>
</g>
<!-- Node76&#45;&gt;Node71 -->
<g id="edge16" class="edge"><title>Node76&#45;&gt;Node71</title>
<path fill="none" stroke="midnightblue" d="M410.002,-22.04C431.167,-27.3488 455.686,-33.4988 475.545,-38.4799"/>
<polygon fill="midnightblue" stroke="midnightblue" points="410.781,-18.6271 400.23,-19.589 409.078,-25.4168 410.781,-18.6271"/>
</g>
<!-- Node77&#45;&gt;Node68 -->
<g id="edge18" class="edge"><title>Node77&#45;&gt;Node68</title>
<path fill="none" stroke="midnightblue" d="M431.038,-162C444.261,-162 457.758,-162 469.902,-162"/>
<polygon fill="midnightblue" stroke="midnightblue" points="431.008,-158.5 421.008,-162 431.008,-165.5 431.008,-158.5"/>
</g>
<!-- Node78&#45;&gt;Node68 -->
<g id="edge20" class="edge"><title>Node78&#45;&gt;Node68</title>
<path fill="none" stroke="midnightblue" d="M410.002,-136.04C431.167,-141.349 455.686,-147.499 475.545,-152.48"/>
<polygon fill="midnightblue" stroke="midnightblue" points="410.781,-132.627 400.23,-133.589 409.078,-139.417 410.781,-132.627"/>
</g>
</g>
</svg>
