<?xml version="1.0" encoding="UTF-8" standalone="no"?>
<!DOCTYPE svg PUBLIC "-//W3C//DTD SVG 1.1//EN"
 "http://www.w3.org/Graphics/SVG/1.1/DTD/svg11.dtd">
<!-- Generated by graphviz version 2.38.0 (20140413.2041)
 -->
<!-- Title: i2cread Pages: 1 -->
<svg width="968pt" height="276pt"
 viewBox="0.00 0.00 968.00 275.50" xmlns="http://www.w3.org/2000/svg" xmlns:xlink="http://www.w3.org/1999/xlink">
<g id="graph0" class="graph" transform="scale(1 1) rotate(0) translate(4 271.5)">
<title>i2cread</title>
<polygon fill="white" stroke="none" points="-4,4 -4,-271.5 964,-271.5 964,4 -4,4"/>
<!-- Node1 -->
<g id="node1" class="node"><title>Node1</title>
<polygon fill="#bfbfbf" stroke="black" points="0,-79 0,-98 48,-98 48,-79 0,-79"/>
<text text-anchor="middle" x="24" y="-86" font-family="Helvetica,sans-Serif" font-size="10.00">i2cread</text>
</g>
<!-- Node2 -->
<g id="node2" class="node"><title>Node2</title>
<g id="a_node2"><a xlink:href="../../d8/daa/_cool_adafruit___a_d_s1015_8cpp.html#a319539381b7551b2f83a92b0b596e97d" target="_top" xlink:title="Writes 16&#45;bits to the specified destination register. ">
<polygon fill="white" stroke="black" points="84,-79 84,-98 156,-98 156,-79 84,-79"/>
<text text-anchor="middle" x="120" y="-86" font-family="Helvetica,sans-Serif" font-size="10.00">readRegister</text>
</a>
</g>
</g>
<!-- Node1&#45;&gt;Node2 -->
<g id="edge1" class="edge"><title>Node1&#45;&gt;Node2</title>
<path fill="none" stroke="midnightblue" d="M58.3323,-88.5C66.6355,-88.5 75.5622,-88.5 83.9457,-88.5"/>
<polygon fill="midnightblue" stroke="midnightblue" points="58.236,-85.0001 48.236,-88.5 58.2359,-92.0001 58.236,-85.0001"/>
</g>
<!-- Node3 -->
<g id="node3" class="node"><title>Node3</title>
<g id="a_node3"><a xlink:href="../../df/df6/class_adafruit___a_d_s1015.html#a40f38b9e1f3ec397c0670dd632510235" target="_top" xlink:title="Gets a single&#45;ended ADC reading from the specified channel. ">
<polygon fill="white" stroke="black" points="192,-147.5 192,-177.5 336,-177.5 336,-147.5 192,-147.5"/>
<text text-anchor="start" x="200" y="-165.5" font-family="Helvetica,sans-Serif" font-size="10.00">Adafruit_ADS1015::readADC</text>
<text text-anchor="middle" x="264" y="-154.5" font-family="Helvetica,sans-Serif" font-size="10.00">_SingleEnded</text>
</a>
</g>
</g>
<!-- Node2&#45;&gt;Node3 -->
<g id="edge2" class="edge"><title>Node2&#45;&gt;Node3</title>
<path fill="none" stroke="midnightblue" d="M140.58,-104.617C154.318,-115.326 173.474,-129.095 192,-138.5 198.497,-141.798 205.549,-144.802 212.603,-147.482"/>
<polygon fill="midnightblue" stroke="midnightblue" points="142.398,-101.591 132.395,-98.0983 138.037,-107.066 142.398,-101.591"/>
</g>
<!-- Node16 -->
<g id="node16" class="node"><title>Node16</title>
<g id="a_node16"><a xlink:href="../../df/df6/class_adafruit___a_d_s1015.html#a56582333958e66efaccd3d4a8a47e3ff" target="_top" xlink:title="Reads the conversion results, measuring the voltage difference between the P (AIN0) and N (AIN1) inpu...">
<polygon fill="white" stroke="black" points="192,-98.5 192,-128.5 336,-128.5 336,-98.5 192,-98.5"/>
<text text-anchor="start" x="200" y="-116.5" font-family="Helvetica,sans-Serif" font-size="10.00">Adafruit_ADS1015::readADC</text>
<text text-anchor="middle" x="264" y="-105.5" font-family="Helvetica,sans-Serif" font-size="10.00">_Differential_0_1</text>
</a>
</g>
</g>
<!-- Node2&#45;&gt;Node16 -->
<g id="edge19" class="edge"><title>Node2&#45;&gt;Node16</title>
<path fill="none" stroke="midnightblue" d="M166.196,-96.4571C174.424,-97.9056 183.186,-99.4483 191.95,-100.991"/>
<polygon fill="midnightblue" stroke="midnightblue" points="166.557,-92.9668 156.101,-94.6798 165.343,-99.8607 166.557,-92.9668"/>
</g>
<!-- Node17 -->
<g id="node17" class="node"><title>Node17</title>
<g id="a_node17"><a xlink:href="../../df/df6/class_adafruit___a_d_s1015.html#a38311881bcab46f7496c4bb6e4cad576" target="_top" xlink:title="Reads the conversion results, measuring the voltage difference between the P (AIN2) and N (AIN3) inpu...">
<polygon fill="white" stroke="black" points="192,-49.5 192,-79.5 336,-79.5 336,-49.5 192,-49.5"/>
<text text-anchor="start" x="200" y="-67.5" font-family="Helvetica,sans-Serif" font-size="10.00">Adafruit_ADS1015::readADC</text>
<text text-anchor="middle" x="264" y="-56.5" font-family="Helvetica,sans-Serif" font-size="10.00">_Differential_2_3</text>
</a>
</g>
</g>
<!-- Node2&#45;&gt;Node17 -->
<g id="edge20" class="edge"><title>Node2&#45;&gt;Node17</title>
<path fill="none" stroke="midnightblue" d="M166.196,-80.8612C174.424,-79.4707 183.186,-77.9897 191.95,-76.5085"/>
<polygon fill="midnightblue" stroke="midnightblue" points="165.378,-77.4498 156.101,-82.5674 166.545,-84.3519 165.378,-77.4498"/>
</g>
<!-- Node18 -->
<g id="node18" class="node"><title>Node18</title>
<g id="a_node18"><a xlink:href="../../df/df6/class_adafruit___a_d_s1015.html#ad8f36d80847020778425107f6451a8c2" target="_top" xlink:title="In order to clear the comparator, we need to read the conversion results. This function reads the las...">
<polygon fill="white" stroke="black" points="196,-0.5 196,-30.5 332,-30.5 332,-0.5 196,-0.5"/>
<text text-anchor="start" x="204" y="-18.5" font-family="Helvetica,sans-Serif" font-size="10.00">Adafruit_ADS1015::getLast</text>
<text text-anchor="middle" x="264" y="-7.5" font-family="Helvetica,sans-Serif" font-size="10.00">ConversionResults</text>
</a>
</g>
</g>
<!-- Node2&#45;&gt;Node18 -->
<g id="edge21" class="edge"><title>Node2&#45;&gt;Node18</title>
<path fill="none" stroke="midnightblue" d="M141.123,-72.3545C154.846,-61.9259 173.771,-48.6457 192,-39.5 198.513,-36.2324 205.574,-33.246 212.631,-30.574"/>
<polygon fill="midnightblue" stroke="midnightblue" points="138.671,-69.8276 132.916,-78.7236 142.962,-75.3577 138.671,-69.8276"/>
</g>
<!-- Node4 -->
<g id="node4" class="node"><title>Node4</title>
<g id="a_node4"><a xlink:href="../../d6/d03/class_irene3000.html#a78a87eb7cf295b95c12b2ebd51c2bb77" target="_top" xlink:title="Irene3000::readButton">
<polygon fill="white" stroke="black" points="388.5,-248 388.5,-267 501.5,-267 501.5,-248 388.5,-248"/>
<text text-anchor="middle" x="445" y="-255" font-family="Helvetica,sans-Serif" font-size="10.00">Irene3000::readButton</text>
</a>
</g>
</g>
<!-- Node3&#45;&gt;Node4 -->
<g id="edge3" class="edge"><title>Node3&#45;&gt;Node4</title>
<path fill="none" stroke="midnightblue" d="M289.624,-183.925C310.337,-200.938 341.394,-224.173 372,-238.5 380.079,-242.282 389.033,-245.405 397.805,-247.95"/>
<polygon fill="midnightblue" stroke="midnightblue" points="291.867,-181.238 281.948,-177.514 287.38,-186.611 291.867,-181.238"/>
</g>
<!-- Node7 -->
<g id="node7" class="node"><title>Node7</title>
<g id="a_node7"><a xlink:href="../../d6/d03/class_irene3000.html#ae73bd2ed14a199a7e83f4d6458476a7c" target="_top" xlink:title="Irene3000::readADSChannel2">
<polygon fill="white" stroke="black" points="372,-134 372,-153 518,-153 518,-134 372,-134"/>
<text text-anchor="middle" x="445" y="-141" font-family="Helvetica,sans-Serif" font-size="10.00">Irene3000::readADSChannel2</text>
</a>
</g>
</g>
<!-- Node3&#45;&gt;Node7 -->
<g id="edge6" class="edge"><title>Node3&#45;&gt;Node7</title>
<path fill="none" stroke="midnightblue" d="M346.055,-153.896C354.676,-152.981 363.403,-152.055 371.911,-151.152"/>
<polygon fill="midnightblue" stroke="midnightblue" points="345.577,-150.427 336.003,-154.963 346.316,-157.388 345.577,-150.427"/>
</g>
<!-- Node12 -->
<g id="node12" class="node"><title>Node12</title>
<g id="a_node12"><a xlink:href="../../d6/d03/class_irene3000.html#a436fc0a06681cd0784aba56b9707f19a" target="_top" xlink:title="Irene3000::readPh">
<polygon fill="white" stroke="black" points="397,-96 397,-115 493,-115 493,-96 397,-96"/>
<text text-anchor="middle" x="445" y="-103" font-family="Helvetica,sans-Serif" font-size="10.00">Irene3000::readPh</text>
</a>
</g>
</g>
<!-- Node3&#45;&gt;Node12 -->
<g id="edge11" class="edge"><title>Node3&#45;&gt;Node12</title>
<path fill="none" stroke="midnightblue" d="M320.174,-144.121C325.533,-142.254 330.879,-140.36 336,-138.5 352.136,-132.639 355.674,-129.81 372,-124.5 382.45,-121.101 393.898,-117.865 404.529,-115.058"/>
<polygon fill="midnightblue" stroke="midnightblue" points="318.869,-140.868 310.557,-147.438 321.152,-147.486 318.869,-140.868"/>
</g>
<!-- Node13 -->
<g id="node13" class="node"><title>Node13</title>
<g id="a_node13"><a xlink:href="../../d6/d03/class_irene3000.html#a80bc6dfea106dc3bc54fa20204d4d5dc" target="_top" xlink:title="Irene3000::readTemp">
<polygon fill="white" stroke="black" points="390.5,-58 390.5,-77 499.5,-77 499.5,-58 390.5,-58"/>
<text text-anchor="middle" x="445" y="-65" font-family="Helvetica,sans-Serif" font-size="10.00">Irene3000::readTemp</text>
</a>
</g>
</g>
<!-- Node3&#45;&gt;Node13 -->
<g id="edge13" class="edge"><title>Node3&#45;&gt;Node13</title>
<path fill="none" stroke="midnightblue" d="M330.188,-142.467C332.198,-141.22 334.142,-139.899 336,-138.5 358.452,-121.587 348.987,-102.64 372,-86.5 377.504,-82.6399 383.742,-79.5641 390.19,-77.1131"/>
<polygon fill="midnightblue" stroke="midnightblue" points="328.122,-139.607 321.021,-147.47 331.475,-145.752 328.122,-139.607"/>
</g>
<!-- Node14 -->
<g id="node14" class="node"><title>Node14</title>
<g id="a_node14"><a xlink:href="../../d6/d03/class_irene3000.html#a1d3299202e4cb7afcff9c9e3e95d94c1" target="_top" xlink:title="Irene3000::calibratepH7">
<polygon fill="white" stroke="black" points="385,-210 385,-229 505,-229 505,-210 385,-210"/>
<text text-anchor="middle" x="445" y="-217" font-family="Helvetica,sans-Serif" font-size="10.00">Irene3000::calibratepH7</text>
</a>
</g>
</g>
<!-- Node3&#45;&gt;Node14 -->
<g id="edge15" class="edge"><title>Node3&#45;&gt;Node14</title>
<path fill="none" stroke="midnightblue" d="M314.574,-181.074C332.552,-187.553 353.089,-194.658 372,-200.5 382.746,-203.82 394.504,-207.078 405.344,-209.932"/>
<polygon fill="midnightblue" stroke="midnightblue" points="315.47,-177.676 304.876,-177.552 313.08,-184.255 315.47,-177.676"/>
</g>
<!-- Node15 -->
<g id="node15" class="node"><title>Node15</title>
<g id="a_node15"><a xlink:href="../../d6/d03/class_irene3000.html#aa140dd026922a04981edfd04d46cabbe" target="_top" xlink:title="Irene3000::calibratepH4">
<polygon fill="white" stroke="black" points="385,-172 385,-191 505,-191 505,-172 385,-172"/>
<text text-anchor="middle" x="445" y="-179" font-family="Helvetica,sans-Serif" font-size="10.00">Irene3000::calibratepH4</text>
</a>
</g>
</g>
<!-- Node3&#45;&gt;Node15 -->
<g id="edge17" class="edge"><title>Node3&#45;&gt;Node15</title>
<path fill="none" stroke="midnightblue" d="M345.962,-171.094C359.074,-172.485 372.432,-173.903 384.897,-175.227"/>
<polygon fill="midnightblue" stroke="midnightblue" points="346.316,-167.612 336.003,-170.037 345.577,-174.573 346.316,-167.612"/>
</g>
<!-- Node5 -->
<g id="node5" class="node"><title>Node5</title>
<g id="a_node5"><a xlink:href="../../d6/d03/class_irene3000.html#ad5891806c500ae1007afe52b9e304c2b" target="_top" xlink:title="Irene3000::begin">
<polygon fill="white" stroke="black" points="554,-210 554,-229 643,-229 643,-210 554,-210"/>
<text text-anchor="middle" x="598.5" y="-217" font-family="Helvetica,sans-Serif" font-size="10.00">Irene3000::begin</text>
</a>
</g>
</g>
<!-- Node4&#45;&gt;Node5 -->
<g id="edge4" class="edge"><title>Node4&#45;&gt;Node5</title>
<path fill="none" stroke="midnightblue" d="M494.002,-245.46C515.167,-240.151 539.686,-234.001 559.545,-229.02"/>
<polygon fill="midnightblue" stroke="midnightblue" points="493.078,-242.083 484.23,-247.911 494.781,-248.873 493.078,-242.083"/>
</g>
<!-- Node6 -->
<g id="node6" class="node"><title>Node6</title>
<g id="a_node6"><a xlink:href="../../d7/df9/class_cool_board.html#acba7c5aef7268b2c0044bdb54d3b9d76" target="_top" xlink:title="CoolBoard::begin">
<polygon fill="white" stroke="black" points="694.5,-210 694.5,-229 786.5,-229 786.5,-210 694.5,-210"/>
<text text-anchor="middle" x="740.5" y="-217" font-family="Helvetica,sans-Serif" font-size="10.00">CoolBoard::begin</text>
</a>
</g>
</g>
<!-- Node5&#45;&gt;Node6 -->
<g id="edge5" class="edge"><title>Node5&#45;&gt;Node6</title>
<path fill="none" stroke="midnightblue" d="M653.149,-219.5C666.649,-219.5 681.007,-219.5 694.061,-219.5"/>
<polygon fill="midnightblue" stroke="midnightblue" points="653.029,-216 643.029,-219.5 653.029,-223 653.029,-216"/>
</g>
<!-- Node8 -->
<g id="node8" class="node"><title>Node8</title>
<g id="a_node8"><a xlink:href="../../d6/d03/class_irene3000.html#a852a170feea994ea1df01c6b245b5d9a" target="_top" xlink:title="Irene3000::read">
<polygon fill="white" stroke="black" points="556.5,-96 556.5,-115 640.5,-115 640.5,-96 556.5,-96"/>
<text text-anchor="middle" x="598.5" y="-103" font-family="Helvetica,sans-Serif" font-size="10.00">Irene3000::read</text>
</a>
</g>
</g>
<!-- Node7&#45;&gt;Node8 -->
<g id="edge7" class="edge"><title>Node7&#45;&gt;Node8</title>
<path fill="none" stroke="midnightblue" d="M494.002,-131.46C515.167,-126.151 539.686,-120.001 559.545,-115.02"/>
<polygon fill="midnightblue" stroke="midnightblue" points="493.078,-128.083 484.23,-133.911 494.781,-134.873 493.078,-128.083"/>
</g>
<!-- Node9 -->
<g id="node9" class="node"><title>Node9</title>
<g id="a_node9"><a xlink:href="../../d7/df9/class_cool_board.html#ad03abdce2e65f520bbf2cff0f2d083cf" target="_top" xlink:title="CoolBoard::readSensors">
<polygon fill="white" stroke="black" points="679,-96 679,-115 802,-115 802,-96 679,-96"/>
<text text-anchor="middle" x="740.5" y="-103" font-family="Helvetica,sans-Serif" font-size="10.00">CoolBoard::readSensors</text>
</a>
</g>
</g>
<!-- Node8&#45;&gt;Node9 -->
<g id="edge8" class="edge"><title>Node8&#45;&gt;Node9</title>
<path fill="none" stroke="midnightblue" d="M650.806,-105.5C659.919,-105.5 669.489,-105.5 678.832,-105.5"/>
<polygon fill="midnightblue" stroke="midnightblue" points="650.747,-102 640.747,-105.5 650.747,-109 650.747,-102"/>
</g>
<!-- Node10 -->
<g id="node10" class="node"><title>Node10</title>
<g id="a_node10"><a xlink:href="../../d7/df9/class_cool_board.html#aa0bbc4bc605e35618d18e68795c61363" target="_top" xlink:title="CoolBoard::onLineMode">
<polygon fill="white" stroke="black" points="838.5,-115 838.5,-134 959.5,-134 959.5,-115 838.5,-115"/>
<text text-anchor="middle" x="899" y="-122" font-family="Helvetica,sans-Serif" font-size="10.00">CoolBoard::onLineMode</text>
</a>
</g>
</g>
<!-- Node9&#45;&gt;Node10 -->
<g id="edge9" class="edge"><title>Node9&#45;&gt;Node10</title>
<path fill="none" stroke="midnightblue" d="M812.207,-114.084C820.968,-115.148 829.856,-116.227 838.427,-117.267"/>
<polygon fill="midnightblue" stroke="midnightblue" points="812.356,-110.577 802.007,-112.846 811.512,-117.526 812.356,-110.577"/>
</g>
<!-- Node11 -->
<g id="node11" class="node"><title>Node11</title>
<g id="a_node11"><a xlink:href="../../d7/df9/class_cool_board.html#ae6b5e1274d760462290192acea4adca8" target="_top" xlink:title="CoolBoard::offLineMode">
<polygon fill="white" stroke="black" points="838,-77 838,-96 960,-96 960,-77 838,-77"/>
<text text-anchor="middle" x="899" y="-84" font-family="Helvetica,sans-Serif" font-size="10.00">CoolBoard::offLineMode</text>
</a>
</g>
</g>
<!-- Node9&#45;&gt;Node11 -->
<g id="edge10" class="edge"><title>Node9&#45;&gt;Node11</title>
<path fill="none" stroke="midnightblue" d="M812.059,-96.9338C820.692,-95.8856 829.452,-94.8221 837.912,-93.7951"/>
<polygon fill="midnightblue" stroke="midnightblue" points="811.512,-93.4743 802.007,-98.1541 812.356,-100.423 811.512,-93.4743"/>
</g>
<!-- Node12&#45;&gt;Node8 -->
<g id="edge12" class="edge"><title>Node12&#45;&gt;Node8</title>
<path fill="none" stroke="midnightblue" d="M503.293,-105.5C520.929,-105.5 539.987,-105.5 556.316,-105.5"/>
<polygon fill="midnightblue" stroke="midnightblue" points="503.105,-102 493.105,-105.5 503.105,-109 503.105,-102"/>
</g>
<!-- Node13&#45;&gt;Node8 -->
<g id="edge14" class="edge"><title>Node13&#45;&gt;Node8</title>
<path fill="none" stroke="midnightblue" d="M494.002,-79.54C515.167,-84.8488 539.686,-90.9988 559.545,-95.9799"/>
<polygon fill="midnightblue" stroke="midnightblue" points="494.781,-76.1271 484.23,-77.089 493.078,-82.9168 494.781,-76.1271"/>
</g>
<!-- Node14&#45;&gt;Node5 -->
<g id="edge16" class="edge"><title>Node14&#45;&gt;Node5</title>
<path fill="none" stroke="midnightblue" d="M515.038,-219.5C528.261,-219.5 541.758,-219.5 553.902,-219.5"/>
<polygon fill="midnightblue" stroke="midnightblue" points="515.008,-216 505.008,-219.5 515.008,-223 515.008,-216"/>
</g>
<!-- Node15&#45;&gt;Node5 -->
<g id="edge18" class="edge"><title>Node15&#45;&gt;Node5</title>
<path fill="none" stroke="midnightblue" d="M494.002,-193.54C515.167,-198.849 539.686,-204.999 559.545,-209.98"/>
<polygon fill="midnightblue" stroke="midnightblue" points="494.781,-190.127 484.23,-191.089 493.078,-196.917 494.781,-190.127"/>
</g>
</g>
</svg>
