<?xml version="1.0" encoding="UTF-8" standalone="no"?>
<!DOCTYPE svg PUBLIC "-//W3C//DTD SVG 1.1//EN"
 "http://www.w3.org/Graphics/SVG/1.1/DTD/svg11.dtd">
<!-- Generated by graphviz version 2.38.0 (20140413.2041)
 -->
<!-- Title: CoolBoard::update Pages: 1 -->
<svg width="831pt" height="306pt"
 viewBox="0.00 0.00 831.00 306.00" xmlns="http://www.w3.org/2000/svg" xmlns:xlink="http://www.w3.org/1999/xlink">
<g id="graph0" class="graph" transform="scale(1 1) rotate(0) translate(4 302)">
<title>CoolBoard::update</title>
<polygon fill="white" stroke="none" points="-4,4 -4,-302 827,-302 827,4 -4,4"/>
<!-- Node349 -->
<g id="node1" class="node"><title>Node349</title>
<polygon fill="#bfbfbf" stroke="black" points="0,-136.5 0,-155.5 98,-155.5 98,-136.5 0,-136.5"/>
<text text-anchor="middle" x="49" y="-143.5" font-family="Helvetica,sans-Serif" font-size="10.00">CoolBoard::update</text>
</g>
<!-- Node350 -->
<g id="node2" class="node"><title>Node350</title>
<g id="a_node2"><a xlink:href="$de/dc0/class_cool_board_led.html#ab778f5e7bed0ab74e3906d82110493c3" xlink:title="CoolBoardLed::fadeIn">
<polygon fill="white" stroke="black" points="153.5,-278.5 153.5,-297.5 264.5,-297.5 264.5,-278.5 153.5,-278.5"/>
<text text-anchor="middle" x="209" y="-285.5" font-family="Helvetica,sans-Serif" font-size="10.00">CoolBoardLed::fadeIn</text>
</a>
</g>
</g>
<!-- Node349&#45;&gt;Node350 -->
<g id="edge1" class="edge"><title>Node349&#45;&gt;Node350</title>
<path fill="none" stroke="midnightblue" d="M53.7836,-155.758C63.3838,-179.18 91.0184,-238.865 134,-269 137.116,-271.184 140.462,-273.118 143.949,-274.829"/>
<polygon fill="midnightblue" stroke="midnightblue" points="142.871,-278.174 153.443,-278.86 145.606,-271.73 142.871,-278.174"/>
</g>
<!-- Node351 -->
<g id="node3" class="node"><title>Node351</title>
<g id="a_node3"><a xlink:href="$df/d1d/class_jetpack.html#a79ae7bc3c1828a0551a7c005c4f8bd00" xlink:title="Jetpack::writeBit">
<polygon fill="white" stroke="black" points="164,-240.5 164,-259.5 254,-259.5 254,-240.5 164,-240.5"/>
<text text-anchor="middle" x="209" y="-247.5" font-family="Helvetica,sans-Serif" font-size="10.00">Jetpack::writeBit</text>
</a>
</g>
</g>
<!-- Node349&#45;&gt;Node351 -->
<g id="edge2" class="edge"><title>Node349&#45;&gt;Node351</title>
<path fill="none" stroke="midnightblue" d="M56.6482,-155.562C69.4786,-173.268 99.4571,-211.161 134,-231 140.247,-234.588 147.174,-237.508 154.212,-239.883"/>
<polygon fill="midnightblue" stroke="midnightblue" points="153.238,-243.245 163.823,-242.795 155.268,-236.546 153.238,-243.245"/>
</g>
<!-- Node352 -->
<g id="node4" class="node"><title>Node352</title>
<g id="a_node4"><a xlink:href="$dc/d69/class_cool_board_actor.html#a958786ff01ea1056ee72c72d439f86da" xlink:title="CoolBoardActor::write">
<polygon fill="white" stroke="black" points="152.5,-202.5 152.5,-221.5 265.5,-221.5 265.5,-202.5 152.5,-202.5"/>
<text text-anchor="middle" x="209" y="-209.5" font-family="Helvetica,sans-Serif" font-size="10.00">CoolBoardActor::write</text>
</a>
</g>
</g>
<!-- Node349&#45;&gt;Node352 -->
<g id="edge3" class="edge"><title>Node349&#45;&gt;Node352</title>
<path fill="none" stroke="midnightblue" d="M64.2971,-155.52C80.5723,-165.99 108.246,-182.692 134,-193 140.205,-195.484 146.835,-197.726 153.481,-199.725"/>
<polygon fill="midnightblue" stroke="midnightblue" points="152.608,-203.115 163.183,-202.481 154.52,-196.382 152.608,-203.115"/>
</g>
<!-- Node353 -->
<g id="node5" class="node"><title>Node353</title>
<g id="a_node5"><a xlink:href="$db/d0c/class_cool_file_system.html#adfa8e2e80641ae6f0cceabd348a9b841" xlink:title="CoolFileSystem::updateConfig\lFiles">
<polygon fill="white" stroke="black" points="134,-153 134,-183 284,-183 284,-153 134,-153"/>
<text text-anchor="start" x="142" y="-171" font-family="Helvetica,sans-Serif" font-size="10.00">CoolFileSystem::updateConfig</text>
<text text-anchor="middle" x="209" y="-160" font-family="Helvetica,sans-Serif" font-size="10.00">Files</text>
</a>
</g>
</g>
<!-- Node349&#45;&gt;Node353 -->
<g id="edge4" class="edge"><title>Node349&#45;&gt;Node353</title>
<path fill="none" stroke="midnightblue" d="M98.2637,-152.72C106.44,-153.859 115.136,-155.07 123.917,-156.292"/>
<polygon fill="midnightblue" stroke="midnightblue" points="123.456,-159.762 133.843,-157.674 124.421,-152.829 123.456,-159.762"/>
</g>
<!-- Node355 -->
<g id="node7" class="node"><title>Node355</title>
<g id="a_node7"><a xlink:href="$d0/dd0/class_cool_m_q_t_t.html#ace977b3e90ab14b1199fe5c4fb0a13ec" xlink:title="CoolMQTT::publish">
<polygon fill="white" stroke="black" points="158.5,-114.5 158.5,-133.5 259.5,-133.5 259.5,-114.5 158.5,-114.5"/>
<text text-anchor="middle" x="209" y="-121.5" font-family="Helvetica,sans-Serif" font-size="10.00">CoolMQTT::publish</text>
</a>
</g>
</g>
<!-- Node349&#45;&gt;Node355 -->
<g id="edge6" class="edge"><title>Node349&#45;&gt;Node355</title>
<path fill="none" stroke="midnightblue" d="M98.2637,-139.28C114.046,-137.082 131.767,-134.615 148.29,-132.314"/>
<polygon fill="midnightblue" stroke="midnightblue" points="148.972,-135.753 158.394,-130.907 148.007,-128.82 148.972,-135.753"/>
</g>
<!-- Node357 -->
<g id="node9" class="node"><title>Node357</title>
<g id="a_node9"><a xlink:href="$d0/dd0/class_cool_m_q_t_t.html#aa5eaae967b562b62cbcf2b8d81f6e5d5" xlink:title="CoolMQTT::mqttLoop">
<polygon fill="white" stroke="black" points="153.5,-76.5 153.5,-95.5 264.5,-95.5 264.5,-76.5 153.5,-76.5"/>
<text text-anchor="middle" x="209" y="-83.5" font-family="Helvetica,sans-Serif" font-size="10.00">CoolMQTT::mqttLoop</text>
</a>
</g>
</g>
<!-- Node349&#45;&gt;Node357 -->
<g id="edge8" class="edge"><title>Node349&#45;&gt;Node357</title>
<path fill="none" stroke="midnightblue" d="M66.9264,-136.469C83.5806,-127.399 109.938,-113.857 134,-105 140.523,-102.599 147.477,-100.385 154.411,-98.3812"/>
<polygon fill="midnightblue" stroke="midnightblue" points="155.794,-101.631 164.505,-95.5999 153.934,-94.8822 155.794,-101.631"/>
</g>
<!-- Node362 -->
<g id="node14" class="node"><title>Node362</title>
<g id="a_node14"><a xlink:href="$de/dc0/class_cool_board_led.html#ad5f0de4c628cbfbf49896042831c64ad" xlink:title="CoolBoardLed::strobe">
<polygon fill="white" stroke="black" points="153.5,-38.5 153.5,-57.5 264.5,-57.5 264.5,-38.5 153.5,-38.5"/>
<text text-anchor="middle" x="209" y="-45.5" font-family="Helvetica,sans-Serif" font-size="10.00">CoolBoardLed::strobe</text>
</a>
</g>
</g>
<!-- Node349&#45;&gt;Node362 -->
<g id="edge13" class="edge"><title>Node349&#45;&gt;Node362</title>
<path fill="none" stroke="midnightblue" d="M57.4375,-136.347C70.8631,-119.607 100.85,-85.2405 134,-67 138.14,-64.722 142.561,-62.7101 147.104,-60.9343"/>
<polygon fill="midnightblue" stroke="midnightblue" points="148.279,-64.2313 156.551,-57.6113 145.956,-57.6279 148.279,-64.2313"/>
</g>
<!-- Node363 -->
<g id="node15" class="node"><title>Node363</title>
<g id="a_node15"><a xlink:href="$de/dc0/class_cool_board_led.html#a93d545679237e8cc858324367149775c" xlink:title="CoolBoardLed::fadeOut">
<polygon fill="white" stroke="black" points="149.5,-0.5 149.5,-19.5 268.5,-19.5 268.5,-0.5 149.5,-0.5"/>
<text text-anchor="middle" x="209" y="-7.5" font-family="Helvetica,sans-Serif" font-size="10.00">CoolBoardLed::fadeOut</text>
</a>
</g>
</g>
<!-- Node349&#45;&gt;Node363 -->
<g id="edge14" class="edge"><title>Node349&#45;&gt;Node363</title>
<path fill="none" stroke="midnightblue" d="M54.0701,-136.384C64.1093,-113.874 92.3037,-57.5092 134,-29 136.936,-26.9927 140.068,-25.1975 143.324,-23.5919"/>
<polygon fill="midnightblue" stroke="midnightblue" points="144.95,-26.7033 152.766,-19.5505 142.195,-20.268 144.95,-26.7033"/>
</g>
<!-- Node354 -->
<g id="node6" class="node"><title>Node354</title>
<g id="a_node6"><a xlink:href="$db/d0c/class_cool_file_system.html#a13f2958f5b87757c31fc53797a30d23a" xlink:title="CoolFileSystem::fileUpdate">
<polygon fill="white" stroke="black" points="320,-158.5 320,-177.5 457,-177.5 457,-158.5 320,-158.5"/>
<text text-anchor="middle" x="388.5" y="-165.5" font-family="Helvetica,sans-Serif" font-size="10.00">CoolFileSystem::fileUpdate</text>
</a>
</g>
</g>
<!-- Node353&#45;&gt;Node354 -->
<g id="edge5" class="edge"><title>Node353&#45;&gt;Node354</title>
<path fill="none" stroke="midnightblue" d="M284.248,-168C292.622,-168 301.174,-168 309.594,-168"/>
<polygon fill="midnightblue" stroke="midnightblue" points="309.778,-171.5 319.778,-168 309.778,-164.5 309.778,-171.5"/>
</g>
<!-- Node356 -->
<g id="node8" class="node"><title>Node356</title>
<g id="a_node8"><a xlink:href="$d8/d4b/class_cool_pub_sub_client.html#ab6ad5fa2d3db8f91454027257f225a89" xlink:title="CoolPubSubClient::publish">
<polygon fill="white" stroke="black" points="321.5,-114.5 321.5,-133.5 455.5,-133.5 455.5,-114.5 321.5,-114.5"/>
<text text-anchor="middle" x="388.5" y="-121.5" font-family="Helvetica,sans-Serif" font-size="10.00">CoolPubSubClient::publish</text>
</a>
</g>
</g>
<!-- Node355&#45;&gt;Node356 -->
<g id="edge7" class="edge"><title>Node355&#45;&gt;Node356</title>
<path fill="none" stroke="midnightblue" d="M259.916,-124C275.859,-124 293.885,-124 311.259,-124"/>
<polygon fill="midnightblue" stroke="midnightblue" points="311.392,-127.5 321.392,-124 311.392,-120.5 311.392,-127.5"/>
</g>
<!-- Node358 -->
<g id="node10" class="node"><title>Node358</title>
<g id="a_node10"><a xlink:href="$d8/d4b/class_cool_pub_sub_client.html#afc15900f0fc4886a19394508e61793b8" xlink:title="CoolPubSubClient::loop">
<polygon fill="white" stroke="black" points="328,-76.5 328,-95.5 449,-95.5 449,-76.5 328,-76.5"/>
<text text-anchor="middle" x="388.5" y="-83.5" font-family="Helvetica,sans-Serif" font-size="10.00">CoolPubSubClient::loop</text>
</a>
</g>
</g>
<!-- Node357&#45;&gt;Node358 -->
<g id="edge9" class="edge"><title>Node357&#45;&gt;Node358</title>
<path fill="none" stroke="midnightblue" d="M264.704,-86C281.394,-86 299.977,-86 317.532,-86"/>
<polygon fill="midnightblue" stroke="midnightblue" points="317.728,-89.5001 327.727,-86 317.727,-82.5001 317.728,-89.5001"/>
</g>
<!-- Node359 -->
<g id="node11" class="node"><title>Node359</title>
<g id="a_node11"><a xlink:href="$d8/d4b/class_cool_pub_sub_client.html#a3d5a5da4ddb1e5c1bea64d80c665d148" xlink:title="CoolPubSubClient::connected">
<polygon fill="white" stroke="black" points="495,-95.5 495,-114.5 643,-114.5 643,-95.5 495,-95.5"/>
<text text-anchor="middle" x="569" y="-102.5" font-family="Helvetica,sans-Serif" font-size="10.00">CoolPubSubClient::connected</text>
</a>
</g>
</g>
<!-- Node358&#45;&gt;Node359 -->
<g id="edge10" class="edge"><title>Node358&#45;&gt;Node359</title>
<path fill="none" stroke="midnightblue" d="M449.434,-92.3796C460.829,-93.5924 472.94,-94.8816 484.903,-96.1549"/>
<polygon fill="midnightblue" stroke="midnightblue" points="484.584,-99.6407 494.898,-97.2189 485.325,-92.68 484.584,-99.6407"/>
</g>
<!-- Node360 -->
<g id="node12" class="node"><title>Node360</title>
<g id="a_node12"><a xlink:href="$d8/d4b/class_cool_pub_sub_client.html#a25a8779149cfa809b7c06f63568b25cf" xlink:title="CoolPubSubClient::readPacket">
<polygon fill="white" stroke="black" points="493,-57.5 493,-76.5 645,-76.5 645,-57.5 493,-57.5"/>
<text text-anchor="middle" x="569" y="-64.5" font-family="Helvetica,sans-Serif" font-size="10.00">CoolPubSubClient::readPacket</text>
</a>
</g>
</g>
<!-- Node358&#45;&gt;Node360 -->
<g id="edge11" class="edge"><title>Node358&#45;&gt;Node360</title>
<path fill="none" stroke="midnightblue" d="M449.434,-79.6204C460.058,-78.4896 471.305,-77.2925 482.474,-76.1036"/>
<polygon fill="midnightblue" stroke="midnightblue" points="483.116,-79.5552 492.689,-75.0163 482.375,-72.5945 483.116,-79.5552"/>
</g>
<!-- Node361 -->
<g id="node13" class="node"><title>Node361</title>
<g id="a_node13"><a xlink:href="$d8/d4b/class_cool_pub_sub_client.html#ad409bbd287d5894f0cf082f62446c002" xlink:title="CoolPubSubClient::readByte">
<polygon fill="white" stroke="black" points="681,-57.5 681,-76.5 823,-76.5 823,-57.5 681,-57.5"/>
<text text-anchor="middle" x="752" y="-64.5" font-family="Helvetica,sans-Serif" font-size="10.00">CoolPubSubClient::readByte</text>
</a>
</g>
</g>
<!-- Node360&#45;&gt;Node361 -->
<g id="edge12" class="edge"><title>Node360&#45;&gt;Node361</title>
<path fill="none" stroke="midnightblue" d="M645.188,-67C653.612,-67 662.219,-67 670.704,-67"/>
<polygon fill="midnightblue" stroke="midnightblue" points="670.974,-70.5001 680.974,-67 670.974,-63.5001 670.974,-70.5001"/>
</g>
</g>
</svg>
