<?xml version="1.0" encoding="UTF-8" standalone="no"?>
<!DOCTYPE svg PUBLIC "-//W3C//DTD SVG 1.1//EN"
 "http://www.w3.org/Graphics/SVG/1.1/DTD/svg11.dtd">
<!-- Generated by graphviz version 2.38.0 (20140413.2041)
 -->
<!-- Title: CoolBoard::onLineMode Pages: 1 -->
<svg width="917pt" height="819pt"
 viewBox="0.00 0.00 917.00 819.00" xmlns="http://www.w3.org/2000/svg" xmlns:xlink="http://www.w3.org/1999/xlink">
<g id="graph0" class="graph" transform="scale(1 1) rotate(0) translate(4 815)">
<title>CoolBoard::onLineMode</title>
<polygon fill="white" stroke="none" points="-4,4 -4,-815 913,-815 913,4 -4,4"/>
<!-- Node194 -->
<g id="node1" class="node"><title>Node194</title>
<polygon fill="#bfbfbf" stroke="black" points="0,-437.5 0,-456.5 121,-456.5 121,-437.5 0,-437.5"/>
<text text-anchor="middle" x="60.5" y="-444.5" font-family="Helvetica,sans-Serif" font-size="10.00">CoolBoard::onLineMode</text>
</g>
<!-- Node195 -->
<g id="node2" class="node"><title>Node195</title>
<g id="a_node2"><a xlink:href="$de/dc0/class_cool_board_led.html#ab778f5e7bed0ab74e3906d82110493c3" xlink:title="CoolBoardLed::fadeIn">
<polygon fill="white" stroke="black" points="377.5,-437.5 377.5,-456.5 488.5,-456.5 488.5,-437.5 377.5,-437.5"/>
<text text-anchor="middle" x="433" y="-444.5" font-family="Helvetica,sans-Serif" font-size="10.00">CoolBoardLed::fadeIn</text>
</a>
</g>
</g>
<!-- Node194&#45;&gt;Node195 -->
<g id="edge1" class="edge"><title>Node194&#45;&gt;Node195</title>
<path fill="none" stroke="midnightblue" d="M72.8942,-456.646C89.8927,-470.335 123.495,-494.761 157,-504 220.84,-521.603 244.994,-529.761 306,-504 327.137,-495.075 321.963,-478.178 342,-467 349.904,-462.59 358.708,-459.153 367.627,-456.473"/>
<polygon fill="midnightblue" stroke="midnightblue" points="368.576,-459.843 377.315,-453.853 366.748,-453.086 368.576,-459.843"/>
</g>
<!-- Node196 -->
<g id="node3" class="node"><title>Node196</title>
<g id="a_node3"><a xlink:href="$db/d0c/class_cool_file_system.html#ac86a40e7c3a1842f7342f698d34324f9" xlink:title="CoolFileSystem::isDataSaved">
<polygon fill="white" stroke="black" points="157,-715.5 157,-734.5 306,-734.5 306,-715.5 157,-715.5"/>
<text text-anchor="middle" x="231.5" y="-722.5" font-family="Helvetica,sans-Serif" font-size="10.00">CoolFileSystem::isDataSaved</text>
</a>
</g>
</g>
<!-- Node194&#45;&gt;Node196 -->
<g id="edge2" class="edge"><title>Node194&#45;&gt;Node196</title>
<path fill="none" stroke="midnightblue" d="M61.9954,-456.729C64.4781,-494.831 78.8035,-635.278 157,-706 158.747,-707.58 160.609,-709.033 162.56,-710.367"/>
<polygon fill="midnightblue" stroke="midnightblue" points="161.19,-713.613 171.616,-715.494 164.638,-707.521 161.19,-713.613"/>
</g>
<!-- Node197 -->
<g id="node4" class="node"><title>Node197</title>
<g id="a_node4"><a xlink:href="$de/dc0/class_cool_board_led.html#ad5f0de4c628cbfbf49896042831c64ad" xlink:title="CoolBoardLed::strobe">
<polygon fill="white" stroke="black" points="377.5,-399.5 377.5,-418.5 488.5,-418.5 488.5,-399.5 377.5,-399.5"/>
<text text-anchor="middle" x="433" y="-406.5" font-family="Helvetica,sans-Serif" font-size="10.00">CoolBoardLed::strobe</text>
</a>
</g>
</g>
<!-- Node194&#45;&gt;Node197 -->
<g id="edge3" class="edge"><title>Node194&#45;&gt;Node197</title>
<path fill="none" stroke="midnightblue" d="M103.618,-437.418C120.179,-433.967 139.406,-430.348 157,-428 228.562,-418.449 311.282,-413.556 367.156,-411.149"/>
<polygon fill="midnightblue" stroke="midnightblue" points="367.423,-414.641 377.268,-410.728 367.131,-407.647 367.423,-414.641"/>
</g>
<!-- Node198 -->
<g id="node5" class="node"><title>Node198</title>
<g id="a_node5"><a xlink:href="$d0/dd0/class_cool_m_q_t_t.html#ace977b3e90ab14b1199fe5c4fb0a13ec" xlink:title="CoolMQTT::publish">
<polygon fill="white" stroke="black" points="382.5,-563.5 382.5,-582.5 483.5,-582.5 483.5,-563.5 382.5,-563.5"/>
<text text-anchor="middle" x="433" y="-570.5" font-family="Helvetica,sans-Serif" font-size="10.00">CoolMQTT::publish</text>
</a>
</g>
</g>
<!-- Node194&#45;&gt;Node198 -->
<g id="edge4" class="edge"><title>Node194&#45;&gt;Node198</title>
<path fill="none" stroke="midnightblue" d="M66.9159,-456.564C79.529,-477.789 113.154,-528.641 157,-550 225.159,-583.203 314.135,-584.145 372.147,-580.024"/>
<polygon fill="midnightblue" stroke="midnightblue" points="372.554,-583.503 382.25,-579.233 372.007,-576.524 372.554,-583.503"/>
</g>
<!-- Node200 -->
<g id="node7" class="node"><title>Node200</title>
<g id="a_node7"><a xlink:href="$d0/dd0/class_cool_m_q_t_t.html#aa5eaae967b562b62cbcf2b8d81f6e5d5" xlink:title="CoolMQTT::mqttLoop">
<polygon fill="white" stroke="black" points="377.5,-525.5 377.5,-544.5 488.5,-544.5 488.5,-525.5 377.5,-525.5"/>
<text text-anchor="middle" x="433" y="-532.5" font-family="Helvetica,sans-Serif" font-size="10.00">CoolMQTT::mqttLoop</text>
</a>
</g>
</g>
<!-- Node194&#45;&gt;Node200 -->
<g id="edge6" class="edge"><title>Node194&#45;&gt;Node200</title>
<path fill="none" stroke="midnightblue" d="M69.1774,-456.601C83.9627,-474.249 118.363,-511.372 157,-526 225.273,-551.848 310.035,-550.042 367.268,-544.388"/>
<polygon fill="midnightblue" stroke="midnightblue" points="367.692,-547.863 377.27,-543.333 366.958,-540.902 367.692,-547.863"/>
</g>
<!-- Node205 -->
<g id="node11" class="node"><title>Node205</title>
<g id="a_node11"><a xlink:href="$db/d0c/class_cool_file_system.html#a3223ffff4266a6300988fab956d6b4b2" xlink:title="CoolFileSystem::getSensor\lSavedData">
<polygon fill="white" stroke="black" points="163,-770 163,-800 300,-800 300,-770 163,-770"/>
<text text-anchor="start" x="171" y="-788" font-family="Helvetica,sans-Serif" font-size="10.00">CoolFileSystem::getSensor</text>
<text text-anchor="middle" x="231.5" y="-777" font-family="Helvetica,sans-Serif" font-size="10.00">SavedData</text>
</a>
</g>
</g>
<!-- Node194&#45;&gt;Node205 -->
<g id="edge10" class="edge"><title>Node194&#45;&gt;Node205</title>
<path fill="none" stroke="midnightblue" d="M62.0925,-456.673C65.0094,-496.647 80.9555,-651.21 157,-744 163.808,-752.307 172.766,-759.224 182.079,-764.864"/>
<polygon fill="midnightblue" stroke="midnightblue" points="180.621,-768.059 191.057,-769.885 184.037,-761.949 180.621,-768.059"/>
</g>
<!-- Node207 -->
<g id="node13" class="node"><title>Node207</title>
<g id="a_node13"><a xlink:href="$de/dc0/class_cool_board_led.html#a93d545679237e8cc858324367149775c" xlink:title="CoolBoardLed::fadeOut">
<polygon fill="white" stroke="black" points="373.5,-361.5 373.5,-380.5 492.5,-380.5 492.5,-361.5 373.5,-361.5"/>
<text text-anchor="middle" x="433" y="-368.5" font-family="Helvetica,sans-Serif" font-size="10.00">CoolBoardLed::fadeOut</text>
</a>
</g>
</g>
<!-- Node194&#45;&gt;Node207 -->
<g id="edge12" class="edge"><title>Node194&#45;&gt;Node207</title>
<path fill="none" stroke="midnightblue" d="M82.2828,-437.352C101.327,-428.899 130.505,-416.914 157,-410 225.961,-392.005 306.959,-381.789 363.108,-376.368"/>
<polygon fill="midnightblue" stroke="midnightblue" points="363.666,-379.831 373.295,-375.41 363.011,-372.861 363.666,-379.831"/>
</g>
<!-- Node208 -->
<g id="node14" class="node"><title>Node208</title>
<g id="a_node14"><a xlink:href="$de/dc0/class_cool_board_led.html#a96e1ea13003eee34c9dbcef340404426" xlink:title="CoolBoardLed::blink">
<polygon fill="white" stroke="black" points="179.5,-475.5 179.5,-494.5 283.5,-494.5 283.5,-475.5 179.5,-475.5"/>
<text text-anchor="middle" x="231.5" y="-482.5" font-family="Helvetica,sans-Serif" font-size="10.00">CoolBoardLed::blink</text>
</a>
</g>
</g>
<!-- Node194&#45;&gt;Node208 -->
<g id="edge13" class="edge"><title>Node194&#45;&gt;Node208</title>
<path fill="none" stroke="midnightblue" d="M104.146,-456.589C126.648,-461.649 154.448,-467.9 178.238,-473.249"/>
<polygon fill="midnightblue" stroke="midnightblue" points="177.637,-476.701 188.161,-475.48 179.172,-469.871 177.637,-476.701"/>
</g>
<!-- Node209 -->
<g id="node15" class="node"><title>Node209</title>
<g id="a_node15"><a xlink:href="$d6/d49/class_cool_time.html#aae601f795452cfa48d9fb337aed483a8" xlink:title="CoolTime::update">
<polygon fill="white" stroke="black" points="184.5,-677.5 184.5,-696.5 278.5,-696.5 278.5,-677.5 184.5,-677.5"/>
<text text-anchor="middle" x="231.5" y="-684.5" font-family="Helvetica,sans-Serif" font-size="10.00">CoolTime::update</text>
</a>
</g>
</g>
<!-- Node194&#45;&gt;Node209 -->
<g id="edge14" class="edge"><title>Node194&#45;&gt;Node209</title>
<path fill="none" stroke="midnightblue" d="M63.3289,-456.768C69.9295,-489.446 95.4638,-596.252 157,-656 164.605,-663.384 174.232,-669.124 183.993,-673.542"/>
<polygon fill="midnightblue" stroke="midnightblue" points="182.752,-676.816 193.331,-677.384 185.415,-670.342 182.752,-676.816"/>
</g>
<!-- Node215 -->
<g id="node21" class="node"><title>Node215</title>
<g id="a_node21"><a xlink:href="$d7/df9/class_cool_board.html#ae7358fb6e623cfc81b775f5f1734909b" xlink:title="CoolBoard::userData">
<polygon fill="white" stroke="black" points="177.5,-627.5 177.5,-646.5 285.5,-646.5 285.5,-627.5 177.5,-627.5"/>
<text text-anchor="middle" x="231.5" y="-634.5" font-family="Helvetica,sans-Serif" font-size="10.00">CoolBoard::userData</text>
</a>
</g>
</g>
<!-- Node194&#45;&gt;Node215 -->
<g id="edge20" class="edge"><title>Node194&#45;&gt;Node215</title>
<path fill="none" stroke="midnightblue" d="M64.3927,-456.889C73.2603,-485.476 102.804,-568.979 157,-613 162.25,-617.265 168.282,-620.78 174.583,-623.677"/>
<polygon fill="midnightblue" stroke="midnightblue" points="173.367,-626.961 183.948,-627.492 176.008,-620.478 173.367,-626.961"/>
</g>
<!-- Node220 -->
<g id="node26" class="node"><title>Node220</title>
<g id="a_node26"><a xlink:href="$d7/df9/class_cool_board.html#ad03abdce2e65f520bbf2cff0f2d083cf" xlink:title="CoolBoard::readSensors">
<polygon fill="white" stroke="black" points="170,-285.5 170,-304.5 293,-304.5 293,-285.5 170,-285.5"/>
<text text-anchor="middle" x="231.5" y="-292.5" font-family="Helvetica,sans-Serif" font-size="10.00">CoolBoard::readSensors</text>
</a>
</g>
</g>
<!-- Node194&#45;&gt;Node220 -->
<g id="edge26" class="edge"><title>Node194&#45;&gt;Node220</title>
<path fill="none" stroke="midnightblue" d="M65.636,-437.188C76.6043,-412.406 108.921,-346.929 157,-314 159.916,-312.003 163.027,-310.216 166.26,-308.617"/>
<polygon fill="midnightblue" stroke="midnightblue" points="167.831,-311.752 175.638,-304.589 165.068,-305.32 167.831,-311.752"/>
</g>
<!-- Node245 -->
<g id="node42" class="node"><title>Node245</title>
<g id="a_node42"><a xlink:href="$de/dc0/class_cool_board_led.html#af1cacbaa88db8bcf6042c1083ba41155" xlink:title="CoolBoardLed::fade">
<polygon fill="white" stroke="black" points="180,-323.5 180,-342.5 283,-342.5 283,-323.5 180,-323.5"/>
<text text-anchor="middle" x="231.5" y="-330.5" font-family="Helvetica,sans-Serif" font-size="10.00">CoolBoardLed::fade</text>
</a>
</g>
</g>
<!-- Node194&#45;&gt;Node245 -->
<g id="edge46" class="edge"><title>Node194&#45;&gt;Node245</title>
<path fill="none" stroke="midnightblue" d="M69.1348,-437.409C84.1104,-419.2 119.19,-379.444 157,-357 164.384,-352.617 172.667,-348.926 180.939,-345.855"/>
<polygon fill="midnightblue" stroke="midnightblue" points="182.275,-349.096 190.589,-342.53 179.995,-342.478 182.275,-349.096"/>
</g>
<!-- Node246 -->
<g id="node43" class="node"><title>Node246</title>
<g id="a_node43"><a xlink:href="$df/d1d/class_jetpack.html#a9e703197093094b963f9ad57817495b8" xlink:title="Jetpack::doAction">
<polygon fill="white" stroke="black" points="184,-209.5 184,-228.5 279,-228.5 279,-209.5 184,-209.5"/>
<text text-anchor="middle" x="231.5" y="-216.5" font-family="Helvetica,sans-Serif" font-size="10.00">Jetpack::doAction</text>
</a>
</g>
</g>
<!-- Node194&#45;&gt;Node246 -->
<g id="edge47" class="edge"><title>Node194&#45;&gt;Node246</title>
<path fill="none" stroke="midnightblue" d="M62.9291,-437.341C68.3746,-404.088 90.9596,-293.352 157,-238 162.158,-233.677 168.182,-230.323 174.523,-227.722"/>
<polygon fill="midnightblue" stroke="midnightblue" points="175.683,-231.024 183.973,-224.427 173.379,-224.415 175.683,-231.024"/>
</g>
<!-- Node248 -->
<g id="node45" class="node"><title>Node248</title>
<g id="a_node45"><a xlink:href="$d0/dd0/class_cool_m_q_t_t.html#ae3c18f6ae9723746d32765f1c8f176ca" xlink:title="CoolMQTT::read">
<polygon fill="white" stroke="black" points="187,-247.5 187,-266.5 276,-266.5 276,-247.5 187,-247.5"/>
<text text-anchor="middle" x="231.5" y="-254.5" font-family="Helvetica,sans-Serif" font-size="10.00">CoolMQTT::read</text>
</a>
</g>
</g>
<!-- Node194&#45;&gt;Node248 -->
<g id="edge49" class="edge"><title>Node194&#45;&gt;Node248</title>
<path fill="none" stroke="midnightblue" d="M63.9359,-437.485C71.8887,-408.409 99.9286,-320.039 157,-276 162.882,-271.461 169.738,-267.999 176.854,-265.361"/>
<polygon fill="midnightblue" stroke="midnightblue" points="178.179,-268.613 186.651,-262.25 176.06,-261.941 178.179,-268.613"/>
</g>
<!-- Node249 -->
<g id="node46" class="node"><title>Node249</title>
<g id="a_node46"><a xlink:href="$d7/df9/class_cool_board.html#a8612756d3f73198cdde857a66f0fe690" xlink:title="CoolBoard::update">
<polygon fill="white" stroke="black" points="182.5,-437.5 182.5,-456.5 280.5,-456.5 280.5,-437.5 182.5,-437.5"/>
<text text-anchor="middle" x="231.5" y="-444.5" font-family="Helvetica,sans-Serif" font-size="10.00">CoolBoard::update</text>
</a>
</g>
</g>
<!-- Node194&#45;&gt;Node249 -->
<g id="edge50" class="edge"><title>Node194&#45;&gt;Node249</title>
<path fill="none" stroke="midnightblue" d="M121.083,-447C137.688,-447 155.703,-447 172.232,-447"/>
<polygon fill="midnightblue" stroke="midnightblue" points="172.306,-450.5 182.305,-447 172.305,-443.5 172.306,-450.5"/>
</g>
<!-- Node252 -->
<g id="node49" class="node"><title>Node252</title>
<g id="a_node49"><a xlink:href="$d7/df9/class_cool_board.html#a7508e029f2ee17bb747ffab599285e0d" xlink:title="CoolBoard::getLogInterval">
<polygon fill="white" stroke="black" points="166.5,-171.5 166.5,-190.5 296.5,-190.5 296.5,-171.5 166.5,-171.5"/>
<text text-anchor="middle" x="231.5" y="-178.5" font-family="Helvetica,sans-Serif" font-size="10.00">CoolBoard::getLogInterval</text>
</a>
</g>
</g>
<!-- Node194&#45;&gt;Node252 -->
<g id="edge58" class="edge"><title>Node194&#45;&gt;Node252</title>
<path fill="none" stroke="midnightblue" d="M62.1738,-437.461C65.2976,-400.722 81.6259,-267.103 157,-200 158.76,-198.433 160.632,-196.993 162.592,-195.669"/>
<polygon fill="midnightblue" stroke="midnightblue" points="164.667,-198.518 171.679,-190.576 161.244,-192.412 164.667,-198.518"/>
</g>
<!-- Node253 -->
<g id="node50" class="node"><title>Node253</title>
<g id="a_node50"><a xlink:href="$d7/df9/class_cool_board.html#a069952cdcb2e7f68518aa429eceadb6e" xlink:title="CoolBoard::sleep">
<polygon fill="white" stroke="black" points="185.5,-133.5 185.5,-152.5 277.5,-152.5 277.5,-133.5 185.5,-133.5"/>
<text text-anchor="middle" x="231.5" y="-140.5" font-family="Helvetica,sans-Serif" font-size="10.00">CoolBoard::sleep</text>
</a>
</g>
</g>
<!-- Node194&#45;&gt;Node253 -->
<g id="edge59" class="edge"><title>Node194&#45;&gt;Node253</title>
<path fill="none" stroke="midnightblue" d="M61.6216,-437.433C62.6719,-397.304 72.2535,-240.984 157,-162 162.369,-156.996 168.88,-153.27 175.783,-150.503"/>
<polygon fill="midnightblue" stroke="midnightblue" points="176.996,-153.787 185.367,-147.293 174.773,-147.15 176.996,-153.787"/>
</g>
<!-- Node199 -->
<g id="node6" class="node"><title>Node199</title>
<g id="a_node6"><a xlink:href="$d8/d4b/class_cool_pub_sub_client.html#ab6ad5fa2d3db8f91454027257f225a89" xlink:title="CoolPubSubClient::publish">
<polygon fill="white" stroke="black" points="573.5,-563.5 573.5,-582.5 707.5,-582.5 707.5,-563.5 573.5,-563.5"/>
<text text-anchor="middle" x="640.5" y="-570.5" font-family="Helvetica,sans-Serif" font-size="10.00">CoolPubSubClient::publish</text>
</a>
</g>
</g>
<!-- Node198&#45;&gt;Node199 -->
<g id="edge5" class="edge"><title>Node198&#45;&gt;Node199</title>
<path fill="none" stroke="midnightblue" d="M483.746,-573C507.55,-573 536.581,-573 563.101,-573"/>
<polygon fill="midnightblue" stroke="midnightblue" points="563.126,-576.5 573.126,-573 563.126,-569.5 563.126,-576.5"/>
</g>
<!-- Node201 -->
<g id="node8" class="node"><title>Node201</title>
<g id="a_node8"><a xlink:href="$d8/d4b/class_cool_pub_sub_client.html#afc15900f0fc4886a19394508e61793b8" xlink:title="CoolPubSubClient::loop">
<polygon fill="white" stroke="black" points="580,-525.5 580,-544.5 701,-544.5 701,-525.5 580,-525.5"/>
<text text-anchor="middle" x="640.5" y="-532.5" font-family="Helvetica,sans-Serif" font-size="10.00">CoolPubSubClient::loop</text>
</a>
</g>
</g>
<!-- Node200&#45;&gt;Node201 -->
<g id="edge7" class="edge"><title>Node200&#45;&gt;Node201</title>
<path fill="none" stroke="midnightblue" d="M488.531,-535C513.304,-535 542.914,-535 569.323,-535"/>
<polygon fill="midnightblue" stroke="midnightblue" points="569.651,-538.5 579.651,-535 569.651,-531.5 569.651,-538.5"/>
</g>
<!-- Node202 -->
<g id="node9" class="node"><title>Node202</title>
<g id="a_node9"><a xlink:href="$d8/d4b/class_cool_pub_sub_client.html#a3d5a5da4ddb1e5c1bea64d80c665d148" xlink:title="CoolPubSubClient::connected">
<polygon fill="white" stroke="black" points="759,-506.5 759,-525.5 907,-525.5 907,-506.5 759,-506.5"/>
<text text-anchor="middle" x="833" y="-513.5" font-family="Helvetica,sans-Serif" font-size="10.00">CoolPubSubClient::connected</text>
</a>
</g>
</g>
<!-- Node201&#45;&gt;Node202 -->
<g id="edge8" class="edge"><title>Node201&#45;&gt;Node202</title>
<path fill="none" stroke="midnightblue" d="M701.253,-529.04C716.201,-527.55 732.51,-525.923 748.382,-524.34"/>
<polygon fill="midnightblue" stroke="midnightblue" points="749.127,-527.783 758.73,-523.308 748.432,-520.818 749.127,-527.783"/>
</g>
<!-- Node203 -->
<g id="node10" class="node"><title>Node203</title>
<g id="a_node10"><a xlink:href="$d8/d4b/class_cool_pub_sub_client.html#a25a8779149cfa809b7c06f63568b25cf" xlink:title="CoolPubSubClient::readPacket">
<polygon fill="white" stroke="red" points="757,-544.5 757,-563.5 909,-563.5 909,-544.5 757,-544.5"/>
<text text-anchor="middle" x="833" y="-551.5" font-family="Helvetica,sans-Serif" font-size="10.00">CoolPubSubClient::readPacket</text>
</a>
</g>
</g>
<!-- Node201&#45;&gt;Node203 -->
<g id="edge9" class="edge"><title>Node201&#45;&gt;Node203</title>
<path fill="none" stroke="midnightblue" d="M701.253,-540.96C715.664,-542.397 731.34,-543.96 746.669,-545.489"/>
<polygon fill="midnightblue" stroke="midnightblue" points="746.378,-548.978 756.676,-546.487 747.073,-542.012 746.378,-548.978"/>
</g>
<!-- Node206 -->
<g id="node12" class="node"><title>Node206</title>
<g id="a_node12"><a xlink:href="$db/d0c/class_cool_file_system.html#aae045125288f255f3e258073dcada2a6" xlink:title="CoolFileSystem::incrementsavedData">
<polygon fill="white" stroke="black" points="342,-791.5 342,-810.5 524,-810.5 524,-791.5 342,-791.5"/>
<text text-anchor="middle" x="433" y="-798.5" font-family="Helvetica,sans-Serif" font-size="10.00">CoolFileSystem::incrementsavedData</text>
</a>
</g>
</g>
<!-- Node205&#45;&gt;Node206 -->
<g id="edge11" class="edge"><title>Node205&#45;&gt;Node206</title>
<path fill="none" stroke="midnightblue" d="M300.042,-790.417C310.236,-791.234 320.932,-792.092 331.638,-792.951"/>
<polygon fill="midnightblue" stroke="midnightblue" points="331.642,-796.462 341.89,-793.773 332.201,-789.485 331.642,-796.462"/>
</g>
<!-- Node210 -->
<g id="node16" class="node"><title>Node210</title>
<g id="a_node16"><a xlink:href="$d6/d49/class_cool_time.html#a5ae038a4498602b189f76a10bf02adf8" xlink:title="CoolTime::isTimeSync">
<polygon fill="white" stroke="black" points="375,-753.5 375,-772.5 491,-772.5 491,-753.5 375,-753.5"/>
<text text-anchor="middle" x="433" y="-760.5" font-family="Helvetica,sans-Serif" font-size="10.00">CoolTime::isTimeSync</text>
</a>
</g>
</g>
<!-- Node209&#45;&gt;Node210 -->
<g id="edge15" class="edge"><title>Node209&#45;&gt;Node210</title>
<path fill="none" stroke="midnightblue" d="M278.773,-694.756C288.174,-697.469 297.712,-701.114 306,-706 326.041,-717.815 321.699,-732.638 342,-744 349.133,-747.992 357.012,-751.148 365.053,-753.641"/>
<polygon fill="midnightblue" stroke="midnightblue" points="364.332,-757.073 374.903,-756.366 366.198,-750.326 364.332,-757.073"/>
</g>
<!-- Node212 -->
<g id="node18" class="node"><title>Node212</title>
<g id="a_node18"><a xlink:href="$d6/d49/class_cool_time.html#a41fbbbfd651c2079f54d4b2911e4c705" xlink:title="CoolTime::getNtpTime">
<polygon fill="white" stroke="black" points="375,-715.5 375,-734.5 491,-734.5 491,-715.5 375,-715.5"/>
<text text-anchor="middle" x="433" y="-722.5" font-family="Helvetica,sans-Serif" font-size="10.00">CoolTime::getNtpTime</text>
</a>
</g>
</g>
<!-- Node209&#45;&gt;Node212 -->
<g id="edge17" class="edge"><title>Node209&#45;&gt;Node212</title>
<path fill="none" stroke="midnightblue" d="M278.771,-695.813C306.486,-701.093 342.022,-707.861 371.893,-713.551"/>
<polygon fill="midnightblue" stroke="midnightblue" points="371.308,-717.003 381.787,-715.436 372.618,-710.126 371.308,-717.003"/>
</g>
<!-- Node214 -->
<g id="node20" class="node"><title>Node214</title>
<g id="a_node20"><a xlink:href="$d6/d49/class_cool_time.html#ae9658c9b377510d469e3b88edf33ee85" xlink:title="CoolTime::saveTimeSync">
<polygon fill="white" stroke="black" points="368,-677.5 368,-696.5 498,-696.5 498,-677.5 368,-677.5"/>
<text text-anchor="middle" x="433" y="-684.5" font-family="Helvetica,sans-Serif" font-size="10.00">CoolTime::saveTimeSync</text>
</a>
</g>
</g>
<!-- Node209&#45;&gt;Node214 -->
<g id="edge19" class="edge"><title>Node209&#45;&gt;Node214</title>
<path fill="none" stroke="midnightblue" d="M278.771,-687C302.246,-687 331.332,-687 357.834,-687"/>
<polygon fill="midnightblue" stroke="midnightblue" points="357.848,-690.5 367.848,-687 357.848,-683.5 357.848,-690.5"/>
</g>
<!-- Node211 -->
<g id="node17" class="node"><title>Node211</title>
<g id="a_node17"><a xlink:href="$d6/d49/class_cool_time.html#a5d17f707a9d337720493b2bce9d41c21" xlink:title="CoolTime::getLastSyncTime">
<polygon fill="white" stroke="black" points="570,-753.5 570,-772.5 711,-772.5 711,-753.5 570,-753.5"/>
<text text-anchor="middle" x="640.5" y="-760.5" font-family="Helvetica,sans-Serif" font-size="10.00">CoolTime::getLastSyncTime</text>
</a>
</g>
</g>
<!-- Node210&#45;&gt;Node211 -->
<g id="edge16" class="edge"><title>Node210&#45;&gt;Node211</title>
<path fill="none" stroke="midnightblue" d="M491.243,-763C512.451,-763 536.9,-763 559.749,-763"/>
<polygon fill="midnightblue" stroke="midnightblue" points="559.773,-766.5 569.773,-763 559.772,-759.5 559.773,-766.5"/>
</g>
<!-- Node213 -->
<g id="node19" class="node"><title>Node213</title>
<g id="a_node19"><a xlink:href="$d6/d49/class_cool_time.html#a236a38d120dc53bc67456d763838c5a1" xlink:title="CoolTime::sendNTPpacket">
<polygon fill="white" stroke="black" points="573,-715.5 573,-734.5 708,-734.5 708,-715.5 573,-715.5"/>
<text text-anchor="middle" x="640.5" y="-722.5" font-family="Helvetica,sans-Serif" font-size="10.00">CoolTime::sendNTPpacket</text>
</a>
</g>
</g>
<!-- Node212&#45;&gt;Node213 -->
<g id="edge18" class="edge"><title>Node212&#45;&gt;Node213</title>
<path fill="none" stroke="midnightblue" d="M491.243,-725C513.377,-725 539.042,-725 562.734,-725"/>
<polygon fill="midnightblue" stroke="midnightblue" points="562.751,-728.5 572.751,-725 562.751,-721.5 562.751,-728.5"/>
</g>
<!-- Node216 -->
<g id="node22" class="node"><title>Node216</title>
<g id="a_node22"><a xlink:href="$d0/dd0/class_cool_m_q_t_t.html#a373cc92fca7760d886f02d8a6e5b3f63" xlink:title="CoolMQTT::getUser">
<polygon fill="white" stroke="black" points="380.5,-639.5 380.5,-658.5 485.5,-658.5 485.5,-639.5 380.5,-639.5"/>
<text text-anchor="middle" x="433" y="-646.5" font-family="Helvetica,sans-Serif" font-size="10.00">CoolMQTT::getUser</text>
</a>
</g>
</g>
<!-- Node215&#45;&gt;Node216 -->
<g id="edge21" class="edge"><title>Node215&#45;&gt;Node216</title>
<path fill="none" stroke="midnightblue" d="M285.7,-640.2C311.698,-641.764 343.133,-643.655 370.191,-645.282"/>
<polygon fill="midnightblue" stroke="midnightblue" points="370.135,-648.785 380.327,-645.892 370.555,-641.798 370.135,-648.785"/>
</g>
<!-- Node217 -->
<g id="node23" class="node"><title>Node217</title>
<g id="a_node23"><a xlink:href="$d6/d49/class_cool_time.html#ac4f32ee513c1328d984306645e8785a4" xlink:title="CoolTime::getESDate">
<polygon fill="white" stroke="black" points="376.5,-601.5 376.5,-620.5 489.5,-620.5 489.5,-601.5 376.5,-601.5"/>
<text text-anchor="middle" x="433" y="-608.5" font-family="Helvetica,sans-Serif" font-size="10.00">CoolTime::getESDate</text>
</a>
</g>
</g>
<!-- Node215&#45;&gt;Node217 -->
<g id="edge22" class="edge"><title>Node215&#45;&gt;Node217</title>
<path fill="none" stroke="midnightblue" d="M285.7,-630.067C310.36,-626.853 339.913,-623.001 365.982,-619.604"/>
<polygon fill="midnightblue" stroke="midnightblue" points="366.696,-623.04 376.16,-618.277 365.791,-616.099 366.696,-623.04"/>
</g>
<!-- Node218 -->
<g id="node24" class="node"><title>Node218</title>
<g id="a_node24"><a xlink:href="$d6/d49/class_cool_time.html#a7a7501c5ca77dd1248bea704c44f986c" xlink:title="CoolTime::getTimeDate">
<polygon fill="white" stroke="black" points="580,-601.5 580,-620.5 701,-620.5 701,-601.5 580,-601.5"/>
<text text-anchor="middle" x="640.5" y="-608.5" font-family="Helvetica,sans-Serif" font-size="10.00">CoolTime::getTimeDate</text>
</a>
</g>
</g>
<!-- Node217&#45;&gt;Node218 -->
<g id="edge23" class="edge"><title>Node217&#45;&gt;Node218</title>
<path fill="none" stroke="midnightblue" d="M489.611,-611C514.271,-611 543.557,-611 569.67,-611"/>
<polygon fill="midnightblue" stroke="midnightblue" points="569.883,-614.5 579.883,-611 569.883,-607.5 569.883,-614.5"/>
</g>
<!-- Node219 -->
<g id="node25" class="node"><title>Node219</title>
<g id="a_node25"><a xlink:href="$d6/d49/class_cool_time.html#acd537cd4210d7bde4e1f5c47d2ac0456" xlink:title="CoolTime::formatDigits">
<polygon fill="white" stroke="black" points="774,-601.5 774,-620.5 892,-620.5 892,-601.5 774,-601.5"/>
<text text-anchor="middle" x="833" y="-608.5" font-family="Helvetica,sans-Serif" font-size="10.00">CoolTime::formatDigits</text>
</a>
</g>
</g>
<!-- Node217&#45;&gt;Node219 -->
<g id="edge25" class="edge"><title>Node217&#45;&gt;Node219</title>
<path fill="none" stroke="midnightblue" d="M485.298,-620.514C508.087,-624.279 535.292,-628.148 560,-630 631.355,-635.35 649.701,-636.058 721,-630 739.239,-628.45 758.984,-625.493 776.693,-622.365"/>
<polygon fill="midnightblue" stroke="midnightblue" points="777.648,-625.748 786.859,-620.512 776.393,-618.862 777.648,-625.748"/>
</g>
<!-- Node218&#45;&gt;Node219 -->
<g id="edge24" class="edge"><title>Node218&#45;&gt;Node219</title>
<path fill="none" stroke="midnightblue" d="M701.253,-611C721.042,-611 743.217,-611 763.604,-611"/>
<polygon fill="midnightblue" stroke="midnightblue" points="763.764,-614.5 773.764,-611 763.764,-607.5 763.764,-614.5"/>
</g>
<!-- Node220&#45;&gt;Node195 -->
<g id="edge27" class="edge"><title>Node220&#45;&gt;Node195</title>
<path fill="none" stroke="midnightblue" d="M292.294,-304.648C297.307,-307.12 301.984,-310.191 306,-314 344.551,-350.564 302.637,-392.311 342,-428 349.2,-434.528 358.063,-439.026 367.392,-442.09"/>
<polygon fill="midnightblue" stroke="midnightblue" points="366.662,-445.519 377.232,-444.79 368.514,-438.769 366.662,-445.519"/>
</g>
<!-- Node220&#45;&gt;Node197 -->
<g id="edge28" class="edge"><title>Node220&#45;&gt;Node197</title>
<path fill="none" stroke="midnightblue" d="M290.299,-304.583C295.96,-307.05 301.327,-310.138 306,-314 334.809,-337.811 312.663,-366.842 342,-390 349.364,-395.813 358.088,-399.959 367.16,-402.896"/>
<polygon fill="midnightblue" stroke="midnightblue" points="366.523,-406.351 377.093,-405.631 368.381,-399.602 366.523,-406.351"/>
</g>
<!-- Node220&#45;&gt;Node207 -->
<g id="edge45" class="edge"><title>Node220&#45;&gt;Node207</title>
<path fill="none" stroke="midnightblue" d="M284.573,-304.549C292.041,-307.019 299.415,-310.118 306,-314 326.041,-325.815 321.699,-340.638 342,-352 348.761,-355.784 356.192,-358.816 363.795,-361.245"/>
<polygon fill="midnightblue" stroke="midnightblue" points="362.905,-364.631 373.482,-364.011 364.827,-357.9 362.905,-364.631"/>
</g>
<!-- Node220&#45;&gt;Node218 -->
<g id="edge44" class="edge"><title>Node220&#45;&gt;Node218</title>
<path fill="none" stroke="midnightblue" d="M293.16,-290.307C368.721,-285.882 491.823,-283.81 524,-314 614.857,-399.247 476.686,-499.368 560,-592 563.127,-595.477 566.767,-598.373 570.734,-600.782"/>
<polygon fill="midnightblue" stroke="midnightblue" points="569.36,-604.006 579.874,-605.309 572.467,-597.734 569.36,-604.006"/>
</g>
<!-- Node221 -->
<g id="node27" class="node"><title>Node221</title>
<g id="a_node27"><a xlink:href="$d7/df9/class_cool_board.html#a397b46fadab8f530a8cf4d914c561366" xlink:title="CoolBoard::initReadI2C">
<polygon fill="white" stroke="black" points="373,-323.5 373,-342.5 493,-342.5 493,-323.5 373,-323.5"/>
<text text-anchor="middle" x="433" y="-330.5" font-family="Helvetica,sans-Serif" font-size="10.00">CoolBoard::initReadI2C</text>
</a>
</g>
</g>
<!-- Node220&#45;&gt;Node221 -->
<g id="edge29" class="edge"><title>Node220&#45;&gt;Node221</title>
<path fill="none" stroke="midnightblue" d="M282.585,-304.54C309.739,-309.712 343.486,-316.14 372.033,-321.578"/>
<polygon fill="midnightblue" stroke="midnightblue" points="371.416,-325.023 381.895,-323.456 372.726,-318.147 371.416,-325.023"/>
</g>
<!-- Node222 -->
<g id="node28" class="node"><title>Node222</title>
<g id="a_node28"><a xlink:href="$de/d46/class_cool_board_sensors.html#a91badb2539d91fda8679f2a597874c48" xlink:title="CoolBoardSensors::read">
<polygon fill="white" stroke="black" points="371.5,-209.5 371.5,-228.5 494.5,-228.5 494.5,-209.5 371.5,-209.5"/>
<text text-anchor="middle" x="433" y="-216.5" font-family="Helvetica,sans-Serif" font-size="10.00">CoolBoardSensors::read</text>
</a>
</g>
</g>
<!-- Node220&#45;&gt;Node222 -->
<g id="edge30" class="edge"><title>Node220&#45;&gt;Node222</title>
<path fill="none" stroke="midnightblue" d="M284.573,-285.451C292.041,-282.981 299.415,-279.882 306,-276 326.041,-264.185 321.699,-249.362 342,-238 347.992,-234.646 354.511,-231.883 361.209,-229.607"/>
<polygon fill="midnightblue" stroke="midnightblue" points="362.556,-232.856 371.113,-226.608 360.527,-226.157 362.556,-232.856"/>
</g>
<!-- Node233 -->
<g id="node37" class="node"><title>Node233</title>
<g id="a_node37"><a xlink:href="$d1/d2f/class_external_sensors.html#a53177b81eca3be89508b5511ddcd00fc" xlink:title="ExternalSensors::read">
<polygon fill="white" stroke="black" points="376.5,-247.5 376.5,-266.5 489.5,-266.5 489.5,-247.5 376.5,-247.5"/>
<text text-anchor="middle" x="433" y="-254.5" font-family="Helvetica,sans-Serif" font-size="10.00">ExternalSensors::read</text>
</a>
</g>
</g>
<!-- Node220&#45;&gt;Node233 -->
<g id="edge39" class="edge"><title>Node220&#45;&gt;Node233</title>
<path fill="none" stroke="midnightblue" d="M282.585,-285.46C309.739,-280.288 343.486,-273.86 372.033,-268.422"/>
<polygon fill="midnightblue" stroke="midnightblue" points="372.726,-271.853 381.895,-266.544 371.416,-264.977 372.726,-271.853"/>
</g>
<!-- Node234 -->
<g id="node38" class="node"><title>Node234</title>
<g id="a_node38"><a xlink:href="$d6/d03/class_irene3000.html#a852a170feea994ea1df01c6b245b5d9a" xlink:title="Irene3000::read">
<polygon fill="white" stroke="black" points="391,-76.5 391,-95.5 475,-95.5 475,-76.5 391,-76.5"/>
<text text-anchor="middle" x="433" y="-83.5" font-family="Helvetica,sans-Serif" font-size="10.00">Irene3000::read</text>
</a>
</g>
</g>
<!-- Node220&#45;&gt;Node234 -->
<g id="edge40" class="edge"><title>Node220&#45;&gt;Node234</title>
<path fill="none" stroke="midnightblue" d="M290.299,-285.417C295.96,-282.95 301.327,-279.862 306,-276 334.809,-252.189 322.295,-231.759 342,-200 364.769,-163.303 397.354,-124.684 416.43,-103.139"/>
<polygon fill="midnightblue" stroke="midnightblue" points="419.2,-105.293 423.259,-95.5066 413.983,-100.626 419.2,-105.293"/>
</g>
<!-- Node223 -->
<g id="node29" class="node"><title>Node223</title>
<g id="a_node29"><a xlink:href="$dd/d67/class_cool_s_i114_x.html#a42e0e574256341443c647a4c0eda87d5" xlink:title="CoolSI114X::ReadVisible">
<polygon fill="white" stroke="red" points="576.5,-304.5 576.5,-323.5 704.5,-323.5 704.5,-304.5 576.5,-304.5"/>
<text text-anchor="middle" x="640.5" y="-311.5" font-family="Helvetica,sans-Serif" font-size="10.00">CoolSI114X::ReadVisible</text>
</a>
</g>
</g>
<!-- Node222&#45;&gt;Node223 -->
<g id="edge31" class="edge"><title>Node222&#45;&gt;Node223</title>
<path fill="none" stroke="midnightblue" d="M494.84,-224.917C505.175,-227.803 515.348,-231.981 524,-238 548.597,-255.11 535.632,-277.565 560,-295 562.712,-296.94 565.596,-298.685 568.598,-300.253"/>
<polygon fill="midnightblue" stroke="midnightblue" points="567.346,-303.528 577.901,-304.446 570.223,-297.146 567.346,-303.528"/>
</g>
<!-- Node225 -->
<g id="node30" class="node"><title>Node225</title>
<g id="a_node30"><a xlink:href="$dd/d67/class_cool_s_i114_x.html#abc536ee7ae8e3ba9d1069acc3889a2cf" xlink:title="CoolSI114X::ReadIR">
<polygon fill="white" stroke="red" points="586,-266.5 586,-285.5 695,-285.5 695,-266.5 586,-266.5"/>
<text text-anchor="middle" x="640.5" y="-273.5" font-family="Helvetica,sans-Serif" font-size="10.00">CoolSI114X::ReadIR</text>
</a>
</g>
</g>
<!-- Node222&#45;&gt;Node225 -->
<g id="edge32" class="edge"><title>Node222&#45;&gt;Node225</title>
<path fill="none" stroke="midnightblue" d="M491.322,-228.607C502.322,-231.148 513.637,-234.254 524,-238 541.014,-244.15 543.069,-250.625 560,-257 566.756,-259.544 573.967,-261.827 581.185,-263.853"/>
<polygon fill="midnightblue" stroke="midnightblue" points="580.426,-267.273 590.99,-266.456 582.222,-260.507 580.426,-267.273"/>
</g>
<!-- Node226 -->
<g id="node31" class="node"><title>Node226</title>
<g id="a_node31"><a xlink:href="$dd/d67/class_cool_s_i114_x.html#a14ced664d74e93438440b0274109c111" xlink:title="CoolSI114X::ReadUV">
<polygon fill="white" stroke="red" points="584,-228.5 584,-247.5 697,-247.5 697,-228.5 584,-228.5"/>
<text text-anchor="middle" x="640.5" y="-235.5" font-family="Helvetica,sans-Serif" font-size="10.00">CoolSI114X::ReadUV</text>
</a>
</g>
</g>
<!-- Node222&#45;&gt;Node226 -->
<g id="edge33" class="edge"><title>Node222&#45;&gt;Node226</title>
<path fill="none" stroke="midnightblue" d="M494.545,-224.598C519.415,-226.897 548.277,-229.566 573.67,-231.913"/>
<polygon fill="midnightblue" stroke="midnightblue" points="573.668,-235.428 583.948,-232.864 574.313,-228.458 573.668,-235.428"/>
</g>
<!-- Node227 -->
<g id="node32" class="node"><title>Node227</title>
<g id="a_node32"><a xlink:href="$df/dcf/class_b_m_e280.html#ada6e799917afb4f228e6253bc56ffe75" xlink:title="BME280::readFloatPressure">
<polygon fill="white" stroke="red" points="570.5,-190.5 570.5,-209.5 710.5,-209.5 710.5,-190.5 570.5,-190.5"/>
<text text-anchor="middle" x="640.5" y="-197.5" font-family="Helvetica,sans-Serif" font-size="10.00">BME280::readFloatPressure</text>
</a>
</g>
</g>
<!-- Node222&#45;&gt;Node227 -->
<g id="edge34" class="edge"><title>Node222&#45;&gt;Node227</title>
<path fill="none" stroke="midnightblue" d="M494.545,-213.402C515.089,-211.503 538.357,-209.351 560.143,-207.337"/>
<polygon fill="midnightblue" stroke="midnightblue" points="560.73,-210.798 570.366,-206.392 560.086,-203.828 560.73,-210.798"/>
</g>
<!-- Node229 -->
<g id="node33" class="node"><title>Node229</title>
<g id="a_node33"><a xlink:href="$df/dcf/class_b_m_e280.html#a42ea7232039eebf5aadb391ef6132c35" xlink:title="BME280::readFloatHumidity">
<polygon fill="white" stroke="red" points="570.5,-152.5 570.5,-171.5 710.5,-171.5 710.5,-152.5 570.5,-152.5"/>
<text text-anchor="middle" x="640.5" y="-159.5" font-family="Helvetica,sans-Serif" font-size="10.00">BME280::readFloatHumidity</text>
</a>
</g>
</g>
<!-- Node222&#45;&gt;Node229 -->
<g id="edge35" class="edge"><title>Node222&#45;&gt;Node229</title>
<path fill="none" stroke="midnightblue" d="M463.9,-209.446C489.341,-201.446 526.913,-189.935 560,-181 568.954,-178.582 578.518,-176.16 587.797,-173.894"/>
<polygon fill="midnightblue" stroke="midnightblue" points="588.81,-177.25 597.712,-171.504 587.17,-170.445 588.81,-177.25"/>
</g>
<!-- Node230 -->
<g id="node34" class="node"><title>Node230</title>
<g id="a_node34"><a xlink:href="$df/dcf/class_b_m_e280.html#afffdd1d7ded9e1f92200e70669019d97" xlink:title="BME280::readTempC">
<polygon fill="white" stroke="red" points="585,-114.5 585,-133.5 696,-133.5 696,-114.5 585,-114.5"/>
<text text-anchor="middle" x="640.5" y="-121.5" font-family="Helvetica,sans-Serif" font-size="10.00">BME280::readTempC</text>
</a>
</g>
</g>
<!-- Node222&#45;&gt;Node230 -->
<g id="edge36" class="edge"><title>Node222&#45;&gt;Node230</title>
<path fill="none" stroke="midnightblue" d="M446.891,-209.358C468.937,-193.311 515.792,-161.103 560,-143 566.176,-140.471 572.766,-138.23 579.41,-136.256"/>
<polygon fill="midnightblue" stroke="midnightblue" points="580.441,-139.602 589.14,-133.553 578.568,-132.857 580.441,-139.602"/>
</g>
<!-- Node231 -->
<g id="node35" class="node"><title>Node231</title>
<g id="a_node35"><a xlink:href="$de/d46/class_cool_board_sensors.html#a6944b6ea7bce8e2fce1b434acfd9d5f3" xlink:title="CoolBoardSensors::readVBat">
<polygon fill="white" stroke="black" points="568,-380.5 568,-399.5 713,-399.5 713,-380.5 568,-380.5"/>
<text text-anchor="middle" x="640.5" y="-387.5" font-family="Helvetica,sans-Serif" font-size="10.00">CoolBoardSensors::readVBat</text>
</a>
</g>
</g>
<!-- Node222&#45;&gt;Node231 -->
<g id="edge37" class="edge"><title>Node222&#45;&gt;Node231</title>
<path fill="none" stroke="midnightblue" d="M494.627,-222.354C505.466,-225.421 515.876,-230.321 524,-238 568.503,-280.066 516.059,-328.347 560,-371 561.489,-372.446 563.068,-373.788 564.72,-375.034"/>
<polygon fill="midnightblue" stroke="midnightblue" points="563.19,-378.203 573.533,-380.498 566.878,-372.254 563.19,-378.203"/>
</g>
<!-- Node232 -->
<g id="node36" class="node"><title>Node232</title>
<g id="a_node36"><a xlink:href="$de/d46/class_cool_board_sensors.html#a8761bff50373c485f4465c8db47d0633" xlink:title="CoolBoardSensors::readMoisture">
<polygon fill="white" stroke="black" points="560,-342.5 560,-361.5 721,-361.5 721,-342.5 560,-342.5"/>
<text text-anchor="middle" x="640.5" y="-349.5" font-family="Helvetica,sans-Serif" font-size="10.00">CoolBoardSensors::readMoisture</text>
</a>
</g>
</g>
<!-- Node222&#45;&gt;Node232 -->
<g id="edge38" class="edge"><title>Node222&#45;&gt;Node232</title>
<path fill="none" stroke="midnightblue" d="M494.514,-223.128C505.236,-226.147 515.632,-230.832 524,-238 558.291,-267.374 526.101,-303.174 560,-333 561.775,-334.561 563.655,-336 565.619,-337.325"/>
<polygon fill="midnightblue" stroke="midnightblue" points="564.276,-340.585 574.707,-342.439 567.708,-334.485 564.276,-340.585"/>
</g>
<!-- Node235 -->
<g id="node39" class="node"><title>Node235</title>
<g id="a_node39"><a xlink:href="$d6/d03/class_irene3000.html#a80bc6dfea106dc3bc54fa20204d4d5dc" xlink:title="Irene3000::readTemp">
<polygon fill="white" stroke="red" points="586,-76.5 586,-95.5 695,-95.5 695,-76.5 586,-76.5"/>
<text text-anchor="middle" x="640.5" y="-83.5" font-family="Helvetica,sans-Serif" font-size="10.00">Irene3000::readTemp</text>
</a>
</g>
</g>
<!-- Node234&#45;&gt;Node235 -->
<g id="edge41" class="edge"><title>Node234&#45;&gt;Node235</title>
<path fill="none" stroke="midnightblue" d="M475.092,-86C503.84,-86 542.806,-86 575.588,-86"/>
<polygon fill="midnightblue" stroke="midnightblue" points="575.994,-89.5001 585.994,-86 575.993,-82.5001 575.994,-89.5001"/>
</g>
<!-- Node243 -->
<g id="node40" class="node"><title>Node243</title>
<g id="a_node40"><a xlink:href="$d6/d03/class_irene3000.html#a436fc0a06681cd0784aba56b9707f19a" xlink:title="Irene3000::readPh">
<polygon fill="white" stroke="red" points="592.5,-38.5 592.5,-57.5 688.5,-57.5 688.5,-38.5 592.5,-38.5"/>
<text text-anchor="middle" x="640.5" y="-45.5" font-family="Helvetica,sans-Serif" font-size="10.00">Irene3000::readPh</text>
</a>
</g>
</g>
<!-- Node234&#45;&gt;Node243 -->
<g id="edge42" class="edge"><title>Node234&#45;&gt;Node243</title>
<path fill="none" stroke="midnightblue" d="M475.092,-78.4015C505.769,-72.7289 548.082,-64.9046 582.099,-58.6144"/>
<polygon fill="midnightblue" stroke="midnightblue" points="583.17,-61.9756 592.367,-56.7155 581.898,-55.0923 583.17,-61.9756"/>
</g>
<!-- Node244 -->
<g id="node41" class="node"><title>Node244</title>
<g id="a_node41"><a xlink:href="$d6/d03/class_irene3000.html#ae73bd2ed14a199a7e83f4d6458476a7c" xlink:title="Irene3000::readADSChannel2">
<polygon fill="white" stroke="red" points="567.5,-0.5 567.5,-19.5 713.5,-19.5 713.5,-0.5 567.5,-0.5"/>
<text text-anchor="middle" x="640.5" y="-7.5" font-family="Helvetica,sans-Serif" font-size="10.00">Irene3000::readADSChannel2</text>
</a>
</g>
</g>
<!-- Node234&#45;&gt;Node244 -->
<g id="edge43" class="edge"><title>Node234&#45;&gt;Node244</title>
<path fill="none" stroke="midnightblue" d="M475.273,-82.5898C491.259,-79.9456 509.229,-75.2672 524,-67 544.301,-55.638 539.851,-40.6304 560,-29 563.908,-26.7442 568.072,-24.7557 572.367,-23.0029"/>
<polygon fill="midnightblue" stroke="midnightblue" points="573.728,-26.2324 581.933,-19.5297 571.339,-19.6526 573.728,-26.2324"/>
</g>
<!-- Node247 -->
<g id="node44" class="node"><title>Node247</title>
<g id="a_node44"><a xlink:href="$df/d1d/class_jetpack.html#a338f1af8cbc6504ac69b47c7328569b5" xlink:title="Jetpack::write">
<polygon fill="white" stroke="black" points="394,-38.5 394,-57.5 472,-57.5 472,-38.5 394,-38.5"/>
<text text-anchor="middle" x="433" y="-45.5" font-family="Helvetica,sans-Serif" font-size="10.00">Jetpack::write</text>
</a>
</g>
</g>
<!-- Node246&#45;&gt;Node247 -->
<g id="edge48" class="edge"><title>Node246&#45;&gt;Node247</title>
<path fill="none" stroke="midnightblue" d="M279.085,-214.7C289.01,-211.815 298.689,-207.228 306,-200 349.548,-156.945 297.497,-109.066 342,-67 353.127,-56.4827 368.542,-51.1781 383.474,-48.6571"/>
<polygon fill="midnightblue" stroke="midnightblue" points="384.212,-52.0905 393.676,-47.3265 383.307,-45.1493 384.212,-52.0905"/>
</g>
<!-- Node249&#45;&gt;Node195 -->
<g id="edge51" class="edge"><title>Node249&#45;&gt;Node195</title>
<path fill="none" stroke="midnightblue" d="M280.539,-447C306.519,-447 338.967,-447 367.158,-447"/>
<polygon fill="midnightblue" stroke="midnightblue" points="367.332,-450.5 377.332,-447 367.332,-443.5 367.332,-450.5"/>
</g>
<!-- Node249&#45;&gt;Node197 -->
<g id="edge56" class="edge"><title>Node249&#45;&gt;Node197</title>
<path fill="none" stroke="midnightblue" d="M280.539,-437.85C307.973,-432.624 342.621,-426.025 371.852,-420.457"/>
<polygon fill="midnightblue" stroke="midnightblue" points="372.776,-423.844 381.944,-418.534 371.466,-416.967 372.776,-423.844"/>
</g>
<!-- Node249&#45;&gt;Node198 -->
<g id="edge54" class="edge"><title>Node249&#45;&gt;Node198</title>
<path fill="none" stroke="midnightblue" d="M280.75,-452.664C289.91,-455.526 298.851,-459.759 306,-466 337.833,-493.791 309.551,-526.93 342,-554 350.726,-561.279 361.554,-565.98 372.642,-568.973"/>
<polygon fill="midnightblue" stroke="midnightblue" points="371.88,-572.389 382.406,-571.185 373.427,-565.562 371.88,-572.389"/>
</g>
<!-- Node249&#45;&gt;Node200 -->
<g id="edge55" class="edge"><title>Node249&#45;&gt;Node200</title>
<path fill="none" stroke="midnightblue" d="M280.844,-454.385C289.694,-457.119 298.494,-460.866 306,-466 328.602,-481.459 319.056,-501.053 342,-516 349.664,-520.993 358.405,-524.703 367.356,-527.454"/>
<polygon fill="midnightblue" stroke="midnightblue" points="366.545,-530.86 377.111,-530.078 368.364,-524.101 366.545,-530.86"/>
</g>
<!-- Node249&#45;&gt;Node207 -->
<g id="edge57" class="edge"><title>Node249&#45;&gt;Node207</title>
<path fill="none" stroke="midnightblue" d="M247.846,-437.291C268.487,-424.641 306.692,-402.649 342,-390 349.482,-387.32 357.456,-384.963 365.448,-382.907"/>
<polygon fill="midnightblue" stroke="midnightblue" points="366.282,-386.306 375.173,-380.545 364.63,-379.504 366.282,-386.306"/>
</g>
<!-- Node250 -->
<g id="node47" class="node"><title>Node250</title>
<g id="a_node47"><a xlink:href="$db/d0c/class_cool_file_system.html#adfa8e2e80641ae6f0cceabd348a9b841" xlink:title="CoolFileSystem::updateConfig\lFiles">
<polygon fill="white" stroke="black" points="358,-476 358,-506 508,-506 508,-476 358,-476"/>
<text text-anchor="start" x="366" y="-494" font-family="Helvetica,sans-Serif" font-size="10.00">CoolFileSystem::updateConfig</text>
<text text-anchor="middle" x="433" y="-483" font-family="Helvetica,sans-Serif" font-size="10.00">Files</text>
</a>
</g>
</g>
<!-- Node249&#45;&gt;Node250 -->
<g id="edge52" class="edge"><title>Node249&#45;&gt;Node250</title>
<path fill="none" stroke="midnightblue" d="M275.789,-456.547C298.551,-461.568 327.162,-467.878 353.658,-473.721"/>
<polygon fill="midnightblue" stroke="midnightblue" points="353.173,-477.199 363.692,-475.935 354.681,-470.363 353.173,-477.199"/>
</g>
<!-- Node251 -->
<g id="node48" class="node"><title>Node251</title>
<g id="a_node48"><a xlink:href="$db/d0c/class_cool_file_system.html#a13f2958f5b87757c31fc53797a30d23a" xlink:title="CoolFileSystem::fileUpdate">
<polygon fill="white" stroke="black" points="572,-481.5 572,-500.5 709,-500.5 709,-481.5 572,-481.5"/>
<text text-anchor="middle" x="640.5" y="-488.5" font-family="Helvetica,sans-Serif" font-size="10.00">CoolFileSystem::fileUpdate</text>
</a>
</g>
</g>
<!-- Node250&#45;&gt;Node251 -->
<g id="edge53" class="edge"><title>Node250&#45;&gt;Node251</title>
<path fill="none" stroke="midnightblue" d="M508.19,-491C525.585,-491 544.167,-491 561.714,-491"/>
<polygon fill="midnightblue" stroke="midnightblue" points="561.909,-494.5 571.909,-491 561.909,-487.5 561.909,-494.5"/>
</g>
</g>
</svg>
