<?xml version="1.0" encoding="UTF-8" standalone="no"?>
<!DOCTYPE svg PUBLIC "-//W3C//DTD SVG 1.1//EN"
 "http://www.w3.org/Graphics/SVG/1.1/DTD/svg11.dtd">
<!-- Generated by graphviz version 2.38.0 (20140413.2041)
 -->
<!-- Title: CoolBoard::onLineMode Pages: 1 -->
<svg width="1063pt" height="768pt"
 viewBox="0.00 0.00 1063.00 768.00" xmlns="http://www.w3.org/2000/svg" xmlns:xlink="http://www.w3.org/1999/xlink">
<g id="graph0" class="graph" transform="scale(1 1) rotate(0) translate(4 764)">
<title>CoolBoard::onLineMode</title>
<polygon fill="white" stroke="none" points="-4,4 -4,-764 1059,-764 1059,4 -4,4"/>
<!-- Node192 -->
<g id="node1" class="node"><title>Node192</title>
<polygon fill="#bfbfbf" stroke="black" points="0,-386.5 0,-405.5 121,-405.5 121,-386.5 0,-386.5"/>
<text text-anchor="middle" x="60.5" y="-393.5" font-family="Helvetica,sans-Serif" font-size="10.00">CoolBoard::onLineMode</text>
</g>
<!-- Node193 -->
<g id="node2" class="node"><title>Node193</title>
<g id="a_node2"><a xlink:href="$de/dc0/class_cool_board_led.html#ab778f5e7bed0ab74e3906d82110493c3" xlink:title="CoolBoardLed::fadeIn">
<polygon fill="white" stroke="black" points="361.5,-393.5 361.5,-412.5 472.5,-412.5 472.5,-393.5 361.5,-393.5"/>
<text text-anchor="middle" x="417" y="-400.5" font-family="Helvetica,sans-Serif" font-size="10.00">CoolBoardLed::fadeIn</text>
</a>
</g>
</g>
<!-- Node192&#45;&gt;Node193 -->
<g id="edge1" class="edge"><title>Node192&#45;&gt;Node193</title>
<path fill="none" stroke="midnightblue" d="M121.235,-397.18C184.918,-398.437 285.436,-400.422 351.048,-401.717"/>
<polygon fill="midnightblue" stroke="midnightblue" points="351.201,-405.221 361.268,-401.919 351.339,-398.222 351.201,-405.221"/>
</g>
<!-- Node194 -->
<g id="node3" class="node"><title>Node194</title>
<g id="a_node3"><a xlink:href="$db/d0c/class_cool_file_system.html#a5a7eaeea7a9fbf8aaef651d862fa3b5b" xlink:title="CoolFileSystem::isDataSaved">
<polygon fill="white" stroke="black" points="157,-664.5 157,-683.5 306,-683.5 306,-664.5 157,-664.5"/>
<text text-anchor="middle" x="231.5" y="-671.5" font-family="Helvetica,sans-Serif" font-size="10.00">CoolFileSystem::isDataSaved</text>
</a>
</g>
</g>
<!-- Node192&#45;&gt;Node194 -->
<g id="edge2" class="edge"><title>Node192&#45;&gt;Node194</title>
<path fill="none" stroke="midnightblue" d="M62.2141,-405.658C65.4863,-442.879 82.2874,-578.506 157,-650 161.225,-654.043 166.14,-657.405 171.389,-660.2"/>
<polygon fill="midnightblue" stroke="midnightblue" points="169.926,-663.38 180.473,-664.391 172.858,-657.024 169.926,-663.38"/>
</g>
<!-- Node195 -->
<g id="node4" class="node"><title>Node195</title>
<g id="a_node4"><a xlink:href="$de/dc0/class_cool_board_led.html#ad5f0de4c628cbfbf49896042831c64ad" xlink:title="CoolBoardLed::strobe">
<polygon fill="white" stroke="black" points="361.5,-355.5 361.5,-374.5 472.5,-374.5 472.5,-355.5 361.5,-355.5"/>
<text text-anchor="middle" x="417" y="-362.5" font-family="Helvetica,sans-Serif" font-size="10.00">CoolBoardLed::strobe</text>
</a>
</g>
</g>
<!-- Node192&#45;&gt;Node195 -->
<g id="edge3" class="edge"><title>Node192&#45;&gt;Node195</title>
<path fill="none" stroke="midnightblue" d="M121.235,-390.776C184.918,-385.207 285.436,-376.417 351.048,-370.68"/>
<polygon fill="midnightblue" stroke="midnightblue" points="351.611,-374.144 361.268,-369.786 351.001,-367.171 351.611,-374.144"/>
</g>
<!-- Node196 -->
<g id="node5" class="node"><title>Node196</title>
<g id="a_node5"><a xlink:href="$d0/dd0/class_cool_m_q_t_t.html#ace977b3e90ab14b1199fe5c4fb0a13ec" xlink:title="CoolMQTT::publish">
<polygon fill="white" stroke="black" points="366.5,-506.5 366.5,-525.5 467.5,-525.5 467.5,-506.5 366.5,-506.5"/>
<text text-anchor="middle" x="417" y="-513.5" font-family="Helvetica,sans-Serif" font-size="10.00">CoolMQTT::publish</text>
</a>
</g>
</g>
<!-- Node192&#45;&gt;Node196 -->
<g id="edge4" class="edge"><title>Node192&#45;&gt;Node196</title>
<path fill="none" stroke="midnightblue" d="M64.3667,-405.846C72.9827,-433.383 101.539,-511.118 157,-541 215.299,-572.411 240.191,-548.384 306,-541 318.091,-539.643 344.357,-533.714 368.191,-527.971"/>
<polygon fill="midnightblue" stroke="midnightblue" points="369.318,-531.299 378.208,-525.535 367.664,-524.497 369.318,-531.299"/>
</g>
<!-- Node198 -->
<g id="node7" class="node"><title>Node198</title>
<g id="a_node7"><a xlink:href="$d0/dd0/class_cool_m_q_t_t.html#aa5eaae967b562b62cbcf2b8d81f6e5d5" xlink:title="CoolMQTT::mqttLoop">
<polygon fill="white" stroke="black" points="361.5,-626.5 361.5,-645.5 472.5,-645.5 472.5,-626.5 361.5,-626.5"/>
<text text-anchor="middle" x="417" y="-633.5" font-family="Helvetica,sans-Serif" font-size="10.00">CoolMQTT::mqttLoop</text>
</a>
</g>
</g>
<!-- Node192&#45;&gt;Node198 -->
<g id="edge6" class="edge"><title>Node192&#45;&gt;Node198</title>
<path fill="none" stroke="midnightblue" d="M62.2792,-405.673C65.7011,-441.065 82.739,-564.201 157,-617 216.844,-659.549 305.37,-655.65 361.863,-647.181"/>
<polygon fill="midnightblue" stroke="midnightblue" points="362.702,-650.591 372.024,-645.556 361.597,-643.679 362.702,-650.591"/>
</g>
<!-- Node203 -->
<g id="node12" class="node"><title>Node203</title>
<g id="a_node12"><a xlink:href="$db/d0c/class_cool_file_system.html#a3223ffff4266a6300988fab956d6b4b2" xlink:title="CoolFileSystem::getSensor\lSavedData">
<polygon fill="white" stroke="black" points="163,-501 163,-531 300,-531 300,-501 163,-501"/>
<text text-anchor="start" x="171" y="-519" font-family="Helvetica,sans-Serif" font-size="10.00">CoolFileSystem::getSensor</text>
<text text-anchor="middle" x="231.5" y="-508" font-family="Helvetica,sans-Serif" font-size="10.00">SavedData</text>
</a>
</g>
</g>
<!-- Node192&#45;&gt;Node203 -->
<g id="edge11" class="edge"><title>Node192&#45;&gt;Node203</title>
<path fill="none" stroke="midnightblue" d="M68.5823,-405.516C83.1224,-424.422 118.25,-466.958 157,-491 160.32,-493.06 163.83,-494.973 167.445,-496.748"/>
<polygon fill="midnightblue" stroke="midnightblue" points="166.042,-499.955 176.597,-500.875 168.92,-493.574 166.042,-499.955"/>
</g>
<!-- Node204 -->
<g id="node13" class="node"><title>Node204</title>
<g id="a_node13"><a xlink:href="$de/dc0/class_cool_board_led.html#a93d545679237e8cc858324367149775c" xlink:title="CoolBoardLed::fadeOut">
<polygon fill="white" stroke="black" points="357.5,-317.5 357.5,-336.5 476.5,-336.5 476.5,-317.5 357.5,-317.5"/>
<text text-anchor="middle" x="417" y="-324.5" font-family="Helvetica,sans-Serif" font-size="10.00">CoolBoardLed::fadeOut</text>
</a>
</g>
</g>
<!-- Node192&#45;&gt;Node204 -->
<g id="edge12" class="edge"><title>Node192&#45;&gt;Node204</title>
<path fill="none" stroke="midnightblue" d="M94.917,-386.484C113.169,-381.48 136.225,-375.475 157,-371 221.059,-357.202 294.792,-345.033 347.164,-337.01"/>
<polygon fill="midnightblue" stroke="midnightblue" points="347.985,-340.426 357.345,-335.462 346.932,-333.505 347.985,-340.426"/>
</g>
<!-- Node205 -->
<g id="node14" class="node"><title>Node205</title>
<g id="a_node14"><a xlink:href="$de/dc0/class_cool_board_led.html#a96e1ea13003eee34c9dbcef340404426" xlink:title="CoolBoardLed::blink">
<polygon fill="white" stroke="black" points="179.5,-424.5 179.5,-443.5 283.5,-443.5 283.5,-424.5 179.5,-424.5"/>
<text text-anchor="middle" x="231.5" y="-431.5" font-family="Helvetica,sans-Serif" font-size="10.00">CoolBoardLed::blink</text>
</a>
</g>
</g>
<!-- Node192&#45;&gt;Node205 -->
<g id="edge13" class="edge"><title>Node192&#45;&gt;Node205</title>
<path fill="none" stroke="midnightblue" d="M104.146,-405.589C126.648,-410.649 154.448,-416.9 178.238,-422.249"/>
<polygon fill="midnightblue" stroke="midnightblue" points="177.637,-425.701 188.161,-424.48 179.172,-418.871 177.637,-425.701"/>
</g>
<!-- Node206 -->
<g id="node15" class="node"><title>Node206</title>
<g id="a_node15"><a xlink:href="$d6/d49/class_cool_time.html#aae601f795452cfa48d9fb337aed483a8" xlink:title="CoolTime::update">
<polygon fill="white" stroke="black" points="184.5,-702.5 184.5,-721.5 278.5,-721.5 278.5,-702.5 184.5,-702.5"/>
<text text-anchor="middle" x="231.5" y="-709.5" font-family="Helvetica,sans-Serif" font-size="10.00">CoolTime::update</text>
</a>
</g>
</g>
<!-- Node192&#45;&gt;Node206 -->
<g id="edge14" class="edge"><title>Node192&#45;&gt;Node206</title>
<path fill="none" stroke="midnightblue" d="M61.475,-405.678C61.9177,-447 69.3445,-610.298 157,-693 162.024,-697.74 168.071,-701.336 174.512,-704.057"/>
<polygon fill="midnightblue" stroke="midnightblue" points="173.562,-707.433 184.157,-707.449 175.885,-700.829 173.562,-707.433"/>
</g>
<!-- Node212 -->
<g id="node21" class="node"><title>Node212</title>
<g id="a_node21"><a xlink:href="$d7/df9/class_cool_board.html#ae7358fb6e623cfc81b775f5f1734909b" xlink:title="CoolBoard::userData">
<polygon fill="white" stroke="black" points="177.5,-588.5 177.5,-607.5 285.5,-607.5 285.5,-588.5 177.5,-588.5"/>
<text text-anchor="middle" x="231.5" y="-595.5" font-family="Helvetica,sans-Serif" font-size="10.00">CoolBoard::userData</text>
</a>
</g>
</g>
<!-- Node192&#45;&gt;Node212 -->
<g id="edge20" class="edge"><title>Node192&#45;&gt;Node212</title>
<path fill="none" stroke="midnightblue" d="M63.9415,-405.738C71.9105,-435.524 99.992,-526.275 157,-574 161.931,-578.128 167.59,-581.551 173.533,-584.389"/>
<polygon fill="midnightblue" stroke="midnightblue" points="172.465,-587.737 183.04,-588.385 175.177,-581.284 172.465,-587.737"/>
</g>
<!-- Node217 -->
<g id="node26" class="node"><title>Node217</title>
<g id="a_node26"><a xlink:href="$d7/df9/class_cool_board.html#ad03abdce2e65f520bbf2cff0f2d083cf" xlink:title="CoolBoard::readSensors">
<polygon fill="white" stroke="black" points="170,-234.5 170,-253.5 293,-253.5 293,-234.5 170,-234.5"/>
<text text-anchor="middle" x="231.5" y="-241.5" font-family="Helvetica,sans-Serif" font-size="10.00">CoolBoard::readSensors</text>
</a>
</g>
</g>
<!-- Node192&#45;&gt;Node217 -->
<g id="edge26" class="edge"><title>Node192&#45;&gt;Node217</title>
<path fill="none" stroke="midnightblue" d="M65.636,-386.188C76.6043,-361.406 108.921,-295.929 157,-263 159.916,-261.003 163.027,-259.216 166.26,-257.617"/>
<polygon fill="midnightblue" stroke="midnightblue" points="167.831,-260.752 175.638,-253.589 165.068,-254.32 167.831,-260.752"/>
</g>
<!-- Node242 -->
<g id="node42" class="node"><title>Node242</title>
<g id="a_node42"><a xlink:href="$de/dc0/class_cool_board_led.html#af1cacbaa88db8bcf6042c1083ba41155" xlink:title="CoolBoardLed::fade">
<polygon fill="white" stroke="black" points="180,-272.5 180,-291.5 283,-291.5 283,-272.5 180,-272.5"/>
<text text-anchor="middle" x="231.5" y="-279.5" font-family="Helvetica,sans-Serif" font-size="10.00">CoolBoardLed::fade</text>
</a>
</g>
</g>
<!-- Node192&#45;&gt;Node242 -->
<g id="edge46" class="edge"><title>Node192&#45;&gt;Node242</title>
<path fill="none" stroke="midnightblue" d="M69.1348,-386.409C84.1104,-368.2 119.19,-328.444 157,-306 164.384,-301.617 172.667,-297.926 180.939,-294.855"/>
<polygon fill="midnightblue" stroke="midnightblue" points="182.275,-298.096 190.589,-291.53 179.995,-291.478 182.275,-298.096"/>
</g>
<!-- Node243 -->
<g id="node43" class="node"><title>Node243</title>
<g id="a_node43"><a xlink:href="$df/d1d/class_jetpack.html#a9e703197093094b963f9ad57817495b8" xlink:title="Jetpack::doAction">
<polygon fill="white" stroke="black" points="184,-158.5 184,-177.5 279,-177.5 279,-158.5 184,-158.5"/>
<text text-anchor="middle" x="231.5" y="-165.5" font-family="Helvetica,sans-Serif" font-size="10.00">Jetpack::doAction</text>
</a>
</g>
</g>
<!-- Node192&#45;&gt;Node243 -->
<g id="edge47" class="edge"><title>Node192&#45;&gt;Node243</title>
<path fill="none" stroke="midnightblue" d="M62.9291,-386.341C68.3746,-353.088 90.9596,-242.352 157,-187 162.158,-182.677 168.182,-179.323 174.523,-176.722"/>
<polygon fill="midnightblue" stroke="midnightblue" points="175.683,-180.024 183.973,-173.427 173.379,-173.415 175.683,-180.024"/>
</g>
<!-- Node245 -->
<g id="node45" class="node"><title>Node245</title>
<g id="a_node45"><a xlink:href="$d0/dd0/class_cool_m_q_t_t.html#ae3c18f6ae9723746d32765f1c8f176ca" xlink:title="CoolMQTT::read">
<polygon fill="white" stroke="black" points="187,-196.5 187,-215.5 276,-215.5 276,-196.5 187,-196.5"/>
<text text-anchor="middle" x="231.5" y="-203.5" font-family="Helvetica,sans-Serif" font-size="10.00">CoolMQTT::read</text>
</a>
</g>
</g>
<!-- Node192&#45;&gt;Node245 -->
<g id="edge49" class="edge"><title>Node192&#45;&gt;Node245</title>
<path fill="none" stroke="midnightblue" d="M63.9359,-386.485C71.8887,-357.409 99.9286,-269.039 157,-225 162.882,-220.461 169.738,-216.999 176.854,-214.361"/>
<polygon fill="midnightblue" stroke="midnightblue" points="178.179,-217.613 186.651,-211.25 176.06,-210.941 178.179,-217.613"/>
</g>
<!-- Node246 -->
<g id="node46" class="node"><title>Node246</title>
<g id="a_node46"><a xlink:href="$d7/df9/class_cool_board.html#a8612756d3f73198cdde857a66f0fe690" xlink:title="CoolBoard::update">
<polygon fill="white" stroke="black" points="182.5,-462.5 182.5,-481.5 280.5,-481.5 280.5,-462.5 182.5,-462.5"/>
<text text-anchor="middle" x="231.5" y="-469.5" font-family="Helvetica,sans-Serif" font-size="10.00">CoolBoard::update</text>
</a>
</g>
</g>
<!-- Node192&#45;&gt;Node246 -->
<g id="edge50" class="edge"><title>Node192&#45;&gt;Node246</title>
<path fill="none" stroke="midnightblue" d="M74.7673,-405.598C92.6411,-418.125 125.819,-439.981 157,-453 162.826,-455.433 169.046,-457.62 175.308,-459.569"/>
<polygon fill="midnightblue" stroke="midnightblue" points="174.552,-462.995 185.132,-462.437 176.513,-456.275 174.552,-462.995"/>
</g>
<!-- Node249 -->
<g id="node49" class="node"><title>Node249</title>
<g id="a_node49"><a xlink:href="$d7/df9/class_cool_board.html#a7508e029f2ee17bb747ffab599285e0d" xlink:title="CoolBoard::getLogInterval">
<polygon fill="white" stroke="black" points="166.5,-120.5 166.5,-139.5 296.5,-139.5 296.5,-120.5 166.5,-120.5"/>
<text text-anchor="middle" x="231.5" y="-127.5" font-family="Helvetica,sans-Serif" font-size="10.00">CoolBoard::getLogInterval</text>
</a>
</g>
</g>
<!-- Node192&#45;&gt;Node249 -->
<g id="edge58" class="edge"><title>Node192&#45;&gt;Node249</title>
<path fill="none" stroke="midnightblue" d="M62.1738,-386.461C65.2976,-349.722 81.6259,-216.103 157,-149 158.76,-147.433 160.632,-145.993 162.592,-144.669"/>
<polygon fill="midnightblue" stroke="midnightblue" points="164.667,-147.518 171.679,-139.576 161.244,-141.412 164.667,-147.518"/>
</g>
<!-- Node250 -->
<g id="node50" class="node"><title>Node250</title>
<g id="a_node50"><a xlink:href="$d7/df9/class_cool_board.html#a069952cdcb2e7f68518aa429eceadb6e" xlink:title="CoolBoard::sleep">
<polygon fill="white" stroke="black" points="185.5,-82.5 185.5,-101.5 277.5,-101.5 277.5,-82.5 185.5,-82.5"/>
<text text-anchor="middle" x="231.5" y="-89.5" font-family="Helvetica,sans-Serif" font-size="10.00">CoolBoard::sleep</text>
</a>
</g>
</g>
<!-- Node192&#45;&gt;Node250 -->
<g id="edge59" class="edge"><title>Node192&#45;&gt;Node250</title>
<path fill="none" stroke="midnightblue" d="M61.6216,-386.433C62.6719,-346.304 72.2535,-189.984 157,-111 162.369,-105.996 168.88,-102.27 175.783,-99.5026"/>
<polygon fill="midnightblue" stroke="midnightblue" points="176.996,-102.787 185.367,-96.2933 174.773,-96.1497 176.996,-102.787"/>
</g>
<!-- Node197 -->
<g id="node6" class="node"><title>Node197</title>
<g id="a_node6"><a xlink:href="$d8/d4b/class_cool_pub_sub_client.html#ab6ad5fa2d3db8f91454027257f225a89" xlink:title="CoolPubSubClient::publish">
<polygon fill="white" stroke="black" points="541.5,-506.5 541.5,-525.5 675.5,-525.5 675.5,-506.5 541.5,-506.5"/>
<text text-anchor="middle" x="608.5" y="-513.5" font-family="Helvetica,sans-Serif" font-size="10.00">CoolPubSubClient::publish</text>
</a>
</g>
</g>
<!-- Node196&#45;&gt;Node197 -->
<g id="edge5" class="edge"><title>Node196&#45;&gt;Node197</title>
<path fill="none" stroke="midnightblue" d="M467.789,-516C487.196,-516 509.878,-516 531.254,-516"/>
<polygon fill="midnightblue" stroke="midnightblue" points="531.293,-519.5 541.293,-516 531.293,-512.5 531.293,-519.5"/>
</g>
<!-- Node199 -->
<g id="node8" class="node"><title>Node199</title>
<g id="a_node8"><a xlink:href="$d8/d4b/class_cool_pub_sub_client.html#afc15900f0fc4886a19394508e61793b8" xlink:title="CoolPubSubClient::loop">
<polygon fill="white" stroke="black" points="548,-626.5 548,-645.5 669,-645.5 669,-626.5 548,-626.5"/>
<text text-anchor="middle" x="608.5" y="-633.5" font-family="Helvetica,sans-Serif" font-size="10.00">CoolPubSubClient::loop</text>
</a>
</g>
</g>
<!-- Node198&#45;&gt;Node199 -->
<g id="edge7" class="edge"><title>Node198&#45;&gt;Node199</title>
<path fill="none" stroke="midnightblue" d="M472.557,-636C492.851,-636 516.165,-636 537.642,-636"/>
<polygon fill="midnightblue" stroke="midnightblue" points="537.689,-639.5 547.689,-636 537.689,-632.5 537.689,-639.5"/>
</g>
<!-- Node200 -->
<g id="node9" class="node"><title>Node200</title>
<g id="a_node9"><a xlink:href="$d8/d4b/class_cool_pub_sub_client.html#a3d5a5da4ddb1e5c1bea64d80c665d148" xlink:title="CoolPubSubClient::connected">
<polygon fill="white" stroke="black" points="727,-645.5 727,-664.5 875,-664.5 875,-645.5 727,-645.5"/>
<text text-anchor="middle" x="801" y="-652.5" font-family="Helvetica,sans-Serif" font-size="10.00">CoolPubSubClient::connected</text>
</a>
</g>
</g>
<!-- Node199&#45;&gt;Node200 -->
<g id="edge8" class="edge"><title>Node199&#45;&gt;Node200</title>
<path fill="none" stroke="midnightblue" d="M669.253,-641.96C684.201,-643.45 700.51,-645.077 716.382,-646.66"/>
<polygon fill="midnightblue" stroke="midnightblue" points="716.432,-650.182 726.73,-647.692 717.127,-643.217 716.432,-650.182"/>
</g>
<!-- Node201 -->
<g id="node10" class="node"><title>Node201</title>
<g id="a_node10"><a xlink:href="$d8/d4b/class_cool_pub_sub_client.html#a25a8779149cfa809b7c06f63568b25cf" xlink:title="CoolPubSubClient::readPacket">
<polygon fill="white" stroke="black" points="725,-607.5 725,-626.5 877,-626.5 877,-607.5 725,-607.5"/>
<text text-anchor="middle" x="801" y="-614.5" font-family="Helvetica,sans-Serif" font-size="10.00">CoolPubSubClient::readPacket</text>
</a>
</g>
</g>
<!-- Node199&#45;&gt;Node201 -->
<g id="edge9" class="edge"><title>Node199&#45;&gt;Node201</title>
<path fill="none" stroke="midnightblue" d="M669.253,-630.04C683.664,-628.603 699.34,-627.04 714.669,-625.511"/>
<polygon fill="midnightblue" stroke="midnightblue" points="715.073,-628.988 724.676,-624.513 714.378,-622.022 715.073,-628.988"/>
</g>
<!-- Node202 -->
<g id="node11" class="node"><title>Node202</title>
<g id="a_node11"><a xlink:href="$d8/d4b/class_cool_pub_sub_client.html#ad409bbd287d5894f0cf082f62446c002" xlink:title="CoolPubSubClient::readByte">
<polygon fill="white" stroke="black" points="913,-607.5 913,-626.5 1055,-626.5 1055,-607.5 913,-607.5"/>
<text text-anchor="middle" x="984" y="-614.5" font-family="Helvetica,sans-Serif" font-size="10.00">CoolPubSubClient::readByte</text>
</a>
</g>
</g>
<!-- Node201&#45;&gt;Node202 -->
<g id="edge10" class="edge"><title>Node201&#45;&gt;Node202</title>
<path fill="none" stroke="midnightblue" d="M877.188,-617C885.612,-617 894.219,-617 902.704,-617"/>
<polygon fill="midnightblue" stroke="midnightblue" points="902.974,-620.5 912.974,-617 902.974,-613.5 902.974,-620.5"/>
</g>
<!-- Node207 -->
<g id="node16" class="node"><title>Node207</title>
<g id="a_node16"><a xlink:href="$d6/d49/class_cool_time.html#a5ae038a4498602b189f76a10bf02adf8" xlink:title="CoolTime::isTimeSync">
<polygon fill="white" stroke="black" points="359,-664.5 359,-683.5 475,-683.5 475,-664.5 359,-664.5"/>
<text text-anchor="middle" x="417" y="-671.5" font-family="Helvetica,sans-Serif" font-size="10.00">CoolTime::isTimeSync</text>
</a>
</g>
</g>
<!-- Node206&#45;&gt;Node207 -->
<g id="edge15" class="edge"><title>Node206&#45;&gt;Node207</title>
<path fill="none" stroke="midnightblue" d="M278.805,-702.411C303.456,-697.306 333.963,-690.989 359.945,-685.608"/>
<polygon fill="midnightblue" stroke="midnightblue" points="360.946,-688.975 370.028,-683.52 359.526,-682.121 360.946,-688.975"/>
</g>
<!-- Node209 -->
<g id="node18" class="node"><title>Node209</title>
<g id="a_node18"><a xlink:href="$d6/d49/class_cool_time.html#a41fbbbfd651c2079f54d4b2911e4c705" xlink:title="CoolTime::getNtpTime">
<polygon fill="white" stroke="black" points="359,-740.5 359,-759.5 475,-759.5 475,-740.5 359,-740.5"/>
<text text-anchor="middle" x="417" y="-747.5" font-family="Helvetica,sans-Serif" font-size="10.00">CoolTime::getNtpTime</text>
</a>
</g>
</g>
<!-- Node206&#45;&gt;Node209 -->
<g id="edge17" class="edge"><title>Node206&#45;&gt;Node209</title>
<path fill="none" stroke="midnightblue" d="M278.805,-721.589C303.456,-726.694 333.963,-733.011 359.945,-738.392"/>
<polygon fill="midnightblue" stroke="midnightblue" points="359.526,-741.879 370.028,-740.48 360.946,-735.025 359.526,-741.879"/>
</g>
<!-- Node211 -->
<g id="node20" class="node"><title>Node211</title>
<g id="a_node20"><a xlink:href="$d6/d49/class_cool_time.html#ae9658c9b377510d469e3b88edf33ee85" xlink:title="CoolTime::saveTimeSync">
<polygon fill="white" stroke="black" points="352,-702.5 352,-721.5 482,-721.5 482,-702.5 352,-702.5"/>
<text text-anchor="middle" x="417" y="-709.5" font-family="Helvetica,sans-Serif" font-size="10.00">CoolTime::saveTimeSync</text>
</a>
</g>
</g>
<!-- Node206&#45;&gt;Node211 -->
<g id="edge19" class="edge"><title>Node206&#45;&gt;Node211</title>
<path fill="none" stroke="midnightblue" d="M278.805,-712C297.783,-712 320.232,-712 341.415,-712"/>
<polygon fill="midnightblue" stroke="midnightblue" points="341.692,-715.5 351.692,-712 341.692,-708.5 341.692,-715.5"/>
</g>
<!-- Node208 -->
<g id="node17" class="node"><title>Node208</title>
<g id="a_node17"><a xlink:href="$d6/d49/class_cool_time.html#a5d17f707a9d337720493b2bce9d41c21" xlink:title="CoolTime::getLastSyncTime">
<polygon fill="white" stroke="black" points="538,-664.5 538,-683.5 679,-683.5 679,-664.5 538,-664.5"/>
<text text-anchor="middle" x="608.5" y="-671.5" font-family="Helvetica,sans-Serif" font-size="10.00">CoolTime::getLastSyncTime</text>
</a>
</g>
</g>
<!-- Node207&#45;&gt;Node208 -->
<g id="edge16" class="edge"><title>Node207&#45;&gt;Node208</title>
<path fill="none" stroke="midnightblue" d="M475.113,-674C491.602,-674 509.907,-674 527.514,-674"/>
<polygon fill="midnightblue" stroke="midnightblue" points="527.782,-677.5 537.782,-674 527.782,-670.5 527.782,-677.5"/>
</g>
<!-- Node210 -->
<g id="node19" class="node"><title>Node210</title>
<g id="a_node19"><a xlink:href="$d6/d49/class_cool_time.html#a236a38d120dc53bc67456d763838c5a1" xlink:title="CoolTime::sendNTPpacket">
<polygon fill="white" stroke="black" points="541,-740.5 541,-759.5 676,-759.5 676,-740.5 541,-740.5"/>
<text text-anchor="middle" x="608.5" y="-747.5" font-family="Helvetica,sans-Serif" font-size="10.00">CoolTime::sendNTPpacket</text>
</a>
</g>
</g>
<!-- Node209&#45;&gt;Node210 -->
<g id="edge18" class="edge"><title>Node209&#45;&gt;Node210</title>
<path fill="none" stroke="midnightblue" d="M475.113,-750C492.584,-750 512.093,-750 530.651,-750"/>
<polygon fill="midnightblue" stroke="midnightblue" points="530.845,-753.5 540.845,-750 530.844,-746.5 530.845,-753.5"/>
</g>
<!-- Node213 -->
<g id="node22" class="node"><title>Node213</title>
<g id="a_node22"><a xlink:href="$d0/dd0/class_cool_m_q_t_t.html#a373cc92fca7760d886f02d8a6e5b3f63" xlink:title="CoolMQTT::getUser">
<polygon fill="white" stroke="black" points="364.5,-588.5 364.5,-607.5 469.5,-607.5 469.5,-588.5 364.5,-588.5"/>
<text text-anchor="middle" x="417" y="-595.5" font-family="Helvetica,sans-Serif" font-size="10.00">CoolMQTT::getUser</text>
</a>
</g>
</g>
<!-- Node212&#45;&gt;Node213 -->
<g id="edge21" class="edge"><title>Node212&#45;&gt;Node213</title>
<path fill="none" stroke="midnightblue" d="M285.576,-598C307.055,-598 331.995,-598 354.279,-598"/>
<polygon fill="midnightblue" stroke="midnightblue" points="354.309,-601.5 364.309,-598 354.309,-594.5 354.309,-601.5"/>
</g>
<!-- Node214 -->
<g id="node23" class="node"><title>Node214</title>
<g id="a_node23"><a xlink:href="$d6/d49/class_cool_time.html#ac4f32ee513c1328d984306645e8785a4" xlink:title="CoolTime::getESDate">
<polygon fill="white" stroke="black" points="360.5,-544.5 360.5,-563.5 473.5,-563.5 473.5,-544.5 360.5,-544.5"/>
<text text-anchor="middle" x="417" y="-551.5" font-family="Helvetica,sans-Serif" font-size="10.00">CoolTime::getESDate</text>
</a>
</g>
</g>
<!-- Node212&#45;&gt;Node214 -->
<g id="edge22" class="edge"><title>Node212&#45;&gt;Node214</title>
<path fill="none" stroke="midnightblue" d="M272.317,-588.453C299.85,-581.851 336.686,-573.018 366.167,-565.949"/>
<polygon fill="midnightblue" stroke="midnightblue" points="367.353,-569.264 376.261,-563.529 365.72,-562.457 367.353,-569.264"/>
</g>
<!-- Node215 -->
<g id="node24" class="node"><title>Node215</title>
<g id="a_node24"><a xlink:href="$d6/d49/class_cool_time.html#a7a7501c5ca77dd1248bea704c44f986c" xlink:title="CoolTime::getTimeDate">
<polygon fill="white" stroke="black" points="548,-427.5 548,-446.5 669,-446.5 669,-427.5 548,-427.5"/>
<text text-anchor="middle" x="608.5" y="-434.5" font-family="Helvetica,sans-Serif" font-size="10.00">CoolTime::getTimeDate</text>
</a>
</g>
</g>
<!-- Node214&#45;&gt;Node215 -->
<g id="edge23" class="edge"><title>Node214&#45;&gt;Node215</title>
<path fill="none" stroke="midnightblue" d="M473.632,-545.621C480.281,-542.973 486.611,-539.514 492,-535 521.579,-510.224 498.215,-480.528 528,-456 531.266,-453.311 534.849,-450.99 538.632,-448.989"/>
<polygon fill="midnightblue" stroke="midnightblue" points="540.084,-452.173 547.764,-444.875 537.209,-445.791 540.084,-452.173"/>
</g>
<!-- Node216 -->
<g id="node25" class="node"><title>Node216</title>
<g id="a_node25"><a xlink:href="$d6/d49/class_cool_time.html#acd537cd4210d7bde4e1f5c47d2ac0456" xlink:title="CoolTime::formatDigits">
<polygon fill="white" stroke="black" points="742,-487.5 742,-506.5 860,-506.5 860,-487.5 742,-487.5"/>
<text text-anchor="middle" x="801" y="-494.5" font-family="Helvetica,sans-Serif" font-size="10.00">CoolTime::formatDigits</text>
</a>
</g>
</g>
<!-- Node214&#45;&gt;Node216 -->
<g id="edge25" class="edge"><title>Node214&#45;&gt;Node216</title>
<path fill="none" stroke="midnightblue" d="M473.582,-554.298C528.763,-553.615 615.503,-549.892 689,-535 716.353,-529.458 746.223,-518.963 768.08,-510.404"/>
<polygon fill="midnightblue" stroke="midnightblue" points="769.533,-513.593 777.521,-506.633 766.936,-507.092 769.533,-513.593"/>
</g>
<!-- Node215&#45;&gt;Node216 -->
<g id="edge24" class="edge"><title>Node215&#45;&gt;Node216</title>
<path fill="none" stroke="midnightblue" d="M653.489,-446.524C665.111,-449.309 677.592,-452.543 689,-456 715.597,-464.059 745.081,-475.05 766.974,-483.623"/>
<polygon fill="midnightblue" stroke="midnightblue" points="765.874,-486.952 776.46,-487.373 768.447,-480.442 765.874,-486.952"/>
</g>
<!-- Node217&#45;&gt;Node193 -->
<g id="edge27" class="edge"><title>Node217&#45;&gt;Node193</title>
<path fill="none" stroke="midnightblue" d="M292.361,-253.578C297.36,-256.064 302.016,-259.157 306,-263 346.386,-301.949 301.582,-345.084 342,-384 345.064,-386.95 348.52,-389.459 352.224,-391.591"/>
<polygon fill="midnightblue" stroke="midnightblue" points="350.714,-394.748 361.245,-395.912 353.739,-388.435 350.714,-394.748"/>
</g>
<!-- Node217&#45;&gt;Node195 -->
<g id="edge28" class="edge"><title>Node217&#45;&gt;Node195</title>
<path fill="none" stroke="midnightblue" d="M290.797,-253.591C296.297,-256.06 301.492,-259.146 306,-263 336.565,-289.126 311.414,-319.899 342,-346 345.09,-348.637 348.5,-350.915 352.108,-352.882"/>
<polygon fill="midnightblue" stroke="midnightblue" points="350.871,-356.165 361.42,-357.158 353.793,-349.804 350.871,-356.165"/>
</g>
<!-- Node217&#45;&gt;Node204 -->
<g id="edge45" class="edge"><title>Node217&#45;&gt;Node204</title>
<path fill="none" stroke="midnightblue" d="M286.409,-253.596C293.301,-256.051 300.025,-259.132 306,-263 327.501,-276.918 320.488,-294.099 342,-308 345.29,-310.126 348.806,-312.014 352.451,-313.691"/>
<polygon fill="midnightblue" stroke="midnightblue" points="351.143,-316.938 361.725,-317.441 353.766,-310.448 351.143,-316.938"/>
</g>
<!-- Node217&#45;&gt;Node215 -->
<g id="edge44" class="edge"><title>Node217&#45;&gt;Node215</title>
<path fill="none" stroke="midnightblue" d="M293.173,-242.33C360.39,-241.786 463.123,-245.249 492,-270 540.453,-311.53 484.838,-361.994 528,-409 533.428,-414.911 540.179,-419.575 547.437,-423.254"/>
<polygon fill="midnightblue" stroke="midnightblue" points="546.279,-426.569 556.84,-427.408 549.107,-420.166 546.279,-426.569"/>
</g>
<!-- Node218 -->
<g id="node27" class="node"><title>Node218</title>
<g id="a_node27"><a xlink:href="$d7/df9/class_cool_board.html#a397b46fadab8f530a8cf4d914c561366" xlink:title="CoolBoard::initReadI2C">
<polygon fill="white" stroke="black" points="357,-165.5 357,-184.5 477,-184.5 477,-165.5 357,-165.5"/>
<text text-anchor="middle" x="417" y="-172.5" font-family="Helvetica,sans-Serif" font-size="10.00">CoolBoard::initReadI2C</text>
</a>
</g>
</g>
<!-- Node217&#45;&gt;Node218 -->
<g id="edge29" class="edge"><title>Node217&#45;&gt;Node218</title>
<path fill="none" stroke="midnightblue" d="M282.291,-234.448C290.455,-231.954 298.642,-228.849 306,-225 324.71,-215.213 323.282,-203.771 342,-194 346.514,-191.644 351.338,-189.567 356.278,-187.738"/>
<polygon fill="midnightblue" stroke="midnightblue" points="357.502,-191.019 365.87,-184.521 355.276,-184.383 357.502,-191.019"/>
</g>
<!-- Node219 -->
<g id="node28" class="node"><title>Node219</title>
<g id="a_node28"><a xlink:href="$de/d46/class_cool_board_sensors.html#a91badb2539d91fda8679f2a597874c48" xlink:title="CoolBoardSensors::read">
<polygon fill="white" stroke="black" points="355.5,-203.5 355.5,-222.5 478.5,-222.5 478.5,-203.5 355.5,-203.5"/>
<text text-anchor="middle" x="417" y="-210.5" font-family="Helvetica,sans-Serif" font-size="10.00">CoolBoardSensors::read</text>
</a>
</g>
</g>
<!-- Node217&#45;&gt;Node219 -->
<g id="edge30" class="edge"><title>Node217&#45;&gt;Node219</title>
<path fill="none" stroke="midnightblue" d="M288.803,-234.488C308,-231.245 329.643,-227.589 349.56,-224.224"/>
<polygon fill="midnightblue" stroke="midnightblue" points="350.21,-227.664 359.487,-222.547 349.044,-220.762 350.21,-227.664"/>
</g>
<!-- Node230 -->
<g id="node37" class="node"><title>Node230</title>
<g id="a_node37"><a xlink:href="$d1/d2f/class_external_sensors.html#a53177b81eca3be89508b5511ddcd00fc" xlink:title="ExternalSensors::read">
<polygon fill="white" stroke="black" points="360.5,-279.5 360.5,-298.5 473.5,-298.5 473.5,-279.5 360.5,-279.5"/>
<text text-anchor="middle" x="417" y="-286.5" font-family="Helvetica,sans-Serif" font-size="10.00">ExternalSensors::read</text>
</a>
</g>
</g>
<!-- Node217&#45;&gt;Node230 -->
<g id="edge39" class="edge"><title>Node217&#45;&gt;Node230</title>
<path fill="none" stroke="midnightblue" d="M271.416,-253.543C299.393,-260.404 337.314,-269.704 367.301,-277.057"/>
<polygon fill="midnightblue" stroke="midnightblue" points="366.595,-280.488 377.14,-279.47 368.262,-273.689 366.595,-280.488"/>
</g>
<!-- Node231 -->
<g id="node38" class="node"><title>Node231</title>
<g id="a_node38"><a xlink:href="$d6/d03/class_irene3000.html#a852a170feea994ea1df01c6b245b5d9a" xlink:title="Irene3000::read">
<polygon fill="white" stroke="black" points="375,-76.5 375,-95.5 459,-95.5 459,-76.5 375,-76.5"/>
<text text-anchor="middle" x="417" y="-83.5" font-family="Helvetica,sans-Serif" font-size="10.00">Irene3000::read</text>
</a>
</g>
</g>
<!-- Node217&#45;&gt;Node231 -->
<g id="edge40" class="edge"><title>Node217&#45;&gt;Node231</title>
<path fill="none" stroke="midnightblue" d="M289.78,-234.392C295.604,-231.933 301.15,-228.854 306,-225 333.081,-203.481 321.149,-183.598 342,-156 357.561,-135.404 379.435,-115.537 395.364,-102.264"/>
<polygon fill="midnightblue" stroke="midnightblue" points="397.989,-104.639 403.524,-95.6055 393.563,-99.2159 397.989,-104.639"/>
</g>
<!-- Node220 -->
<g id="node29" class="node"><title>Node220</title>
<g id="a_node29"><a xlink:href="$dd/d67/class_cool_s_i114_x.html#a42e0e574256341443c647a4c0eda87d5" xlink:title="CoolSI114X::ReadVisible">
<polygon fill="white" stroke="red" points="544.5,-190.5 544.5,-209.5 672.5,-209.5 672.5,-190.5 544.5,-190.5"/>
<text text-anchor="middle" x="608.5" y="-197.5" font-family="Helvetica,sans-Serif" font-size="10.00">CoolSI114X::ReadVisible</text>
</a>
</g>
</g>
<!-- Node219&#45;&gt;Node220 -->
<g id="edge31" class="edge"><title>Node219&#45;&gt;Node220</title>
<path fill="none" stroke="midnightblue" d="M478.741,-208.833C496.461,-207.617 516.012,-206.276 534.411,-205.014"/>
<polygon fill="midnightblue" stroke="midnightblue" points="534.758,-208.499 544.495,-204.322 534.279,-201.515 534.758,-208.499"/>
</g>
<!-- Node222 -->
<g id="node30" class="node"><title>Node222</title>
<g id="a_node30"><a xlink:href="$dd/d67/class_cool_s_i114_x.html#abc536ee7ae8e3ba9d1069acc3889a2cf" xlink:title="CoolSI114X::ReadIR">
<polygon fill="white" stroke="red" points="554,-152.5 554,-171.5 663,-171.5 663,-152.5 554,-152.5"/>
<text text-anchor="middle" x="608.5" y="-159.5" font-family="Helvetica,sans-Serif" font-size="10.00">CoolSI114X::ReadIR</text>
</a>
</g>
</g>
<!-- Node219&#45;&gt;Node222 -->
<g id="edge32" class="edge"><title>Node219&#45;&gt;Node222</title>
<path fill="none" stroke="midnightblue" d="M458.136,-203.436C469.171,-200.606 481.099,-197.359 492,-194 508.257,-188.99 511.702,-185.874 528,-181 536.209,-178.545 544.967,-176.192 553.56,-174.028"/>
<polygon fill="midnightblue" stroke="midnightblue" points="554.651,-177.364 563.528,-171.581 552.981,-170.566 554.651,-177.364"/>
</g>
<!-- Node223 -->
<g id="node31" class="node"><title>Node223</title>
<g id="a_node31"><a xlink:href="$dd/d67/class_cool_s_i114_x.html#a14ced664d74e93438440b0274109c111" xlink:title="CoolSI114X::ReadUV">
<polygon fill="white" stroke="red" points="552,-114.5 552,-133.5 665,-133.5 665,-114.5 552,-114.5"/>
<text text-anchor="middle" x="608.5" y="-121.5" font-family="Helvetica,sans-Serif" font-size="10.00">CoolSI114X::ReadUV</text>
</a>
</g>
</g>
<!-- Node219&#45;&gt;Node223 -->
<g id="edge33" class="edge"><title>Node219&#45;&gt;Node223</title>
<path fill="none" stroke="midnightblue" d="M473.264,-203.493C479.898,-201.025 486.322,-197.916 492,-194 514.84,-178.249 505.029,-158.56 528,-143 532.367,-140.042 537.143,-137.542 542.115,-135.43"/>
<polygon fill="midnightblue" stroke="midnightblue" points="543.698,-138.576 551.866,-131.828 541.272,-132.01 543.698,-138.576"/>
</g>
<!-- Node224 -->
<g id="node32" class="node"><title>Node224</title>
<g id="a_node32"><a xlink:href="$df/dcf/class_b_m_e280.html#ada6e799917afb4f228e6253bc56ffe75" xlink:title="BME280::readFloatPressure">
<polygon fill="white" stroke="red" points="538.5,-380.5 538.5,-399.5 678.5,-399.5 678.5,-380.5 538.5,-380.5"/>
<text text-anchor="middle" x="608.5" y="-387.5" font-family="Helvetica,sans-Serif" font-size="10.00">BME280::readFloatPressure</text>
</a>
</g>
</g>
<!-- Node219&#45;&gt;Node224 -->
<g id="edge34" class="edge"><title>Node219&#45;&gt;Node224</title>
<path fill="none" stroke="midnightblue" d="M470.013,-222.516C478.206,-225.956 485.953,-230.636 492,-237 534.476,-281.706 483.791,-328.006 528,-371 529.45,-372.41 530.984,-373.722 532.59,-374.942"/>
<polygon fill="midnightblue" stroke="midnightblue" points="530.814,-377.96 541.145,-380.311 534.535,-372.03 530.814,-377.96"/>
</g>
<!-- Node226 -->
<g id="node33" class="node"><title>Node226</title>
<g id="a_node33"><a xlink:href="$df/dcf/class_b_m_e280.html#a42ea7232039eebf5aadb391ef6132c35" xlink:title="BME280::readFloatHumidity">
<polygon fill="white" stroke="red" points="538.5,-342.5 538.5,-361.5 678.5,-361.5 678.5,-342.5 538.5,-342.5"/>
<text text-anchor="middle" x="608.5" y="-349.5" font-family="Helvetica,sans-Serif" font-size="10.00">BME280::readFloatHumidity</text>
</a>
</g>
</g>
<!-- Node219&#45;&gt;Node226 -->
<g id="edge35" class="edge"><title>Node219&#45;&gt;Node226</title>
<path fill="none" stroke="midnightblue" d="M468.369,-222.552C477.028,-225.986 485.361,-230.654 492,-237 524.941,-268.486 493.841,-302.84 528,-333 529.772,-334.564 531.65,-336.006 533.612,-337.333"/>
<polygon fill="midnightblue" stroke="midnightblue" points="532.264,-340.591 542.693,-342.455 535.702,-334.494 532.264,-340.591"/>
</g>
<!-- Node227 -->
<g id="node34" class="node"><title>Node227</title>
<g id="a_node34"><a xlink:href="$df/dcf/class_b_m_e280.html#afffdd1d7ded9e1f92200e70669019d97" xlink:title="BME280::readTempC">
<polygon fill="white" stroke="red" points="553,-304.5 553,-323.5 664,-323.5 664,-304.5 553,-304.5"/>
<text text-anchor="middle" x="608.5" y="-311.5" font-family="Helvetica,sans-Serif" font-size="10.00">BME280::readTempC</text>
</a>
</g>
</g>
<!-- Node219&#45;&gt;Node227 -->
<g id="edge36" class="edge"><title>Node219&#45;&gt;Node227</title>
<path fill="none" stroke="midnightblue" d="M464.321,-222.523C474.114,-225.984 483.919,-230.671 492,-237 515.885,-255.708 503.395,-277.25 528,-295 532.719,-298.404 537.965,-301.205 543.449,-303.509"/>
<polygon fill="midnightblue" stroke="midnightblue" points="542.257,-306.8 552.851,-306.935 544.654,-300.223 542.257,-306.8"/>
</g>
<!-- Node228 -->
<g id="node35" class="node"><title>Node228</title>
<g id="a_node35"><a xlink:href="$de/d46/class_cool_board_sensors.html#a6944b6ea7bce8e2fce1b434acfd9d5f3" xlink:title="CoolBoardSensors::readVBat">
<polygon fill="white" stroke="black" points="536,-266.5 536,-285.5 681,-285.5 681,-266.5 536,-266.5"/>
<text text-anchor="middle" x="608.5" y="-273.5" font-family="Helvetica,sans-Serif" font-size="10.00">CoolBoardSensors::readVBat</text>
</a>
</g>
</g>
<!-- Node219&#45;&gt;Node228 -->
<g id="edge37" class="edge"><title>Node219&#45;&gt;Node228</title>
<path fill="none" stroke="midnightblue" d="M452.033,-222.524C464.773,-226.481 479.244,-231.45 492,-237 508.784,-244.302 510.941,-250.367 528,-257 534.398,-259.488 541.217,-261.714 548.069,-263.688"/>
<polygon fill="midnightblue" stroke="midnightblue" points="547.52,-267.165 558.087,-266.402 549.35,-260.409 547.52,-267.165"/>
</g>
<!-- Node229 -->
<g id="node36" class="node"><title>Node229</title>
<g id="a_node36"><a xlink:href="$de/d46/class_cool_board_sensors.html#a8761bff50373c485f4465c8db47d0633" xlink:title="CoolBoardSensors::readMoisture">
<polygon fill="white" stroke="black" points="528,-228.5 528,-247.5 689,-247.5 689,-228.5 528,-228.5"/>
<text text-anchor="middle" x="608.5" y="-235.5" font-family="Helvetica,sans-Serif" font-size="10.00">CoolBoardSensors::readMoisture</text>
</a>
</g>
</g>
<!-- Node219&#45;&gt;Node229 -->
<g id="edge38" class="edge"><title>Node219&#45;&gt;Node229</title>
<path fill="none" stroke="midnightblue" d="M478.741,-221.013C493.483,-222.958 509.491,-225.07 525.049,-227.123"/>
<polygon fill="midnightblue" stroke="midnightblue" points="524.818,-230.622 535.19,-228.46 525.733,-223.682 524.818,-230.622"/>
</g>
<!-- Node232 -->
<g id="node39" class="node"><title>Node232</title>
<g id="a_node39"><a xlink:href="$d6/d03/class_irene3000.html#a80bc6dfea106dc3bc54fa20204d4d5dc" xlink:title="Irene3000::readTemp">
<polygon fill="white" stroke="red" points="554,-38.5 554,-57.5 663,-57.5 663,-38.5 554,-38.5"/>
<text text-anchor="middle" x="608.5" y="-45.5" font-family="Helvetica,sans-Serif" font-size="10.00">Irene3000::readTemp</text>
</a>
</g>
</g>
<!-- Node231&#45;&gt;Node232 -->
<g id="edge41" class="edge"><title>Node231&#45;&gt;Node232</title>
<path fill="none" stroke="midnightblue" d="M459.119,-77.7546C485.702,-72.4239 520.683,-65.4093 550.003,-59.5298"/>
<polygon fill="midnightblue" stroke="midnightblue" points="550.998,-62.9 560.115,-57.5021 549.622,-56.0366 550.998,-62.9"/>
</g>
<!-- Node240 -->
<g id="node40" class="node"><title>Node240</title>
<g id="a_node40"><a xlink:href="$d6/d03/class_irene3000.html#a436fc0a06681cd0784aba56b9707f19a" xlink:title="Irene3000::readPh">
<polygon fill="white" stroke="red" points="560.5,-0.5 560.5,-19.5 656.5,-19.5 656.5,-0.5 560.5,-0.5"/>
<text text-anchor="middle" x="608.5" y="-7.5" font-family="Helvetica,sans-Serif" font-size="10.00">Irene3000::readPh</text>
</a>
</g>
</g>
<!-- Node231&#45;&gt;Node240 -->
<g id="edge42" class="edge"><title>Node231&#45;&gt;Node240</title>
<path fill="none" stroke="midnightblue" d="M459.166,-79.7431C470.322,-76.9213 482.054,-72.8523 492,-67 512.051,-55.2015 507.851,-40.6304 528,-29 534.99,-24.9651 542.798,-21.7853 550.716,-19.2797"/>
<polygon fill="midnightblue" stroke="midnightblue" points="551.711,-22.6357 560.38,-16.5457 549.805,-15.9 551.711,-22.6357"/>
</g>
<!-- Node241 -->
<g id="node41" class="node"><title>Node241</title>
<g id="a_node41"><a xlink:href="$d6/d03/class_irene3000.html#ae73bd2ed14a199a7e83f4d6458476a7c" xlink:title="Irene3000::readADSChannel2">
<polygon fill="white" stroke="red" points="535.5,-76.5 535.5,-95.5 681.5,-95.5 681.5,-76.5 535.5,-76.5"/>
<text text-anchor="middle" x="608.5" y="-83.5" font-family="Helvetica,sans-Serif" font-size="10.00">Irene3000::readADSChannel2</text>
</a>
</g>
</g>
<!-- Node231&#45;&gt;Node241 -->
<g id="edge43" class="edge"><title>Node231&#45;&gt;Node241</title>
<path fill="none" stroke="midnightblue" d="M459.119,-86C478.462,-86 502.253,-86 525.073,-86"/>
<polygon fill="midnightblue" stroke="midnightblue" points="525.123,-89.5001 535.123,-86 525.123,-82.5001 525.123,-89.5001"/>
</g>
<!-- Node244 -->
<g id="node44" class="node"><title>Node244</title>
<g id="a_node44"><a xlink:href="$df/d1d/class_jetpack.html#a338f1af8cbc6504ac69b47c7328569b5" xlink:title="Jetpack::write">
<polygon fill="white" stroke="black" points="378,-38.5 378,-57.5 456,-57.5 456,-38.5 378,-38.5"/>
<text text-anchor="middle" x="417" y="-45.5" font-family="Helvetica,sans-Serif" font-size="10.00">Jetpack::write</text>
</a>
</g>
</g>
<!-- Node243&#45;&gt;Node244 -->
<g id="edge48" class="edge"><title>Node243&#45;&gt;Node244</title>
<path fill="none" stroke="midnightblue" d="M279.098,-162.657C288.794,-159.803 298.371,-155.491 306,-149 336.313,-123.206 311.666,-92.7693 342,-67 349.428,-60.6901 358.687,-56.4372 368.116,-53.5802"/>
<polygon fill="midnightblue" stroke="midnightblue" points="369.106,-56.9399 377.933,-51.0805 367.378,-50.1563 369.106,-56.9399"/>
</g>
<!-- Node246&#45;&gt;Node193 -->
<g id="edge51" class="edge"><title>Node246&#45;&gt;Node193</title>
<path fill="none" stroke="midnightblue" d="M274.471,-462.491C284.881,-459.767 295.935,-456.558 306,-453 334.772,-442.829 366.364,-428.072 388.281,-417.225"/>
<polygon fill="midnightblue" stroke="midnightblue" points="389.959,-420.299 397.335,-412.694 386.826,-414.04 389.959,-420.299"/>
</g>
<!-- Node246&#45;&gt;Node195 -->
<g id="edge56" class="edge"><title>Node246&#45;&gt;Node195</title>
<path fill="none" stroke="midnightblue" d="M280.697,-465.694C289.757,-462.875 298.674,-458.822 306,-453 333.081,-431.481 314.901,-405.496 342,-384 345.126,-381.521 348.538,-379.362 352.127,-377.482"/>
<polygon fill="midnightblue" stroke="midnightblue" points="353.647,-380.636 361.349,-373.361 350.791,-374.245 353.647,-380.636"/>
</g>
<!-- Node246&#45;&gt;Node196 -->
<g id="edge54" class="edge"><title>Node246&#45;&gt;Node196</title>
<path fill="none" stroke="midnightblue" d="M272.317,-481.547C299.85,-488.149 336.686,-496.982 366.167,-504.051"/>
<polygon fill="midnightblue" stroke="midnightblue" points="365.72,-507.543 376.261,-506.471 367.353,-500.736 365.72,-507.543"/>
</g>
<!-- Node246&#45;&gt;Node198 -->
<g id="edge55" class="edge"><title>Node246&#45;&gt;Node198</title>
<path fill="none" stroke="midnightblue" d="M280.557,-477.538C289.947,-480.563 299.029,-485.131 306,-492 347.181,-532.578 300.529,-576.718 342,-617 344.966,-619.881 348.307,-622.342 351.887,-624.442"/>
<polygon fill="midnightblue" stroke="midnightblue" points="350.678,-627.746 361.203,-628.956 353.73,-621.446 350.678,-627.746"/>
</g>
<!-- Node246&#45;&gt;Node204 -->
<g id="edge57" class="edge"><title>Node246&#45;&gt;Node204</title>
<path fill="none" stroke="midnightblue" d="M280.683,-466.803C289.955,-463.917 298.958,-459.555 306,-453 342.726,-418.813 305.246,-380.157 342,-346 343.955,-344.183 346.061,-342.534 348.28,-341.038"/>
<polygon fill="midnightblue" stroke="midnightblue" points="350.299,-343.92 357.332,-335.995 346.893,-337.805 350.299,-343.92"/>
</g>
<!-- Node247 -->
<g id="node47" class="node"><title>Node247</title>
<g id="a_node47"><a xlink:href="$db/d0c/class_cool_file_system.html#adfa8e2e80641ae6f0cceabd348a9b841" xlink:title="CoolFileSystem::updateConfig\lFiles">
<polygon fill="white" stroke="black" points="342,-457 342,-487 492,-487 492,-457 342,-457"/>
<text text-anchor="start" x="350" y="-475" font-family="Helvetica,sans-Serif" font-size="10.00">CoolFileSystem::updateConfig</text>
<text text-anchor="middle" x="417" y="-464" font-family="Helvetica,sans-Serif" font-size="10.00">Files</text>
</a>
</g>
</g>
<!-- Node246&#45;&gt;Node247 -->
<g id="edge52" class="edge"><title>Node246&#45;&gt;Node247</title>
<path fill="none" stroke="midnightblue" d="M280.712,-472C296.335,-472 314.151,-472 331.608,-472"/>
<polygon fill="midnightblue" stroke="midnightblue" points="331.826,-475.5 341.826,-472 331.826,-468.5 331.826,-475.5"/>
</g>
<!-- Node248 -->
<g id="node48" class="node"><title>Node248</title>
<g id="a_node48"><a xlink:href="$db/d0c/class_cool_file_system.html#a13f2958f5b87757c31fc53797a30d23a" xlink:title="CoolFileSystem::fileUpdate">
<polygon fill="white" stroke="black" points="540,-465.5 540,-484.5 677,-484.5 677,-465.5 540,-465.5"/>
<text text-anchor="middle" x="608.5" y="-472.5" font-family="Helvetica,sans-Serif" font-size="10.00">CoolFileSystem::fileUpdate</text>
</a>
</g>
</g>
<!-- Node247&#45;&gt;Node248 -->
<g id="edge53" class="edge"><title>Node247&#45;&gt;Node248</title>
<path fill="none" stroke="midnightblue" d="M492.08,-473.173C504.407,-473.368 517.225,-473.571 529.642,-473.767"/>
<polygon fill="midnightblue" stroke="midnightblue" points="529.906,-477.272 539.96,-473.931 530.016,-470.273 529.906,-477.272"/>
</g>
</g>
</svg>
