<?xml version="1.0" encoding="UTF-8" standalone="no"?>
<!DOCTYPE svg PUBLIC "-//W3C//DTD SVG 1.1//EN"
 "http://www.w3.org/Graphics/SVG/1.1/DTD/svg11.dtd">
<!-- Generated by graphviz version 2.38.0 (20140413.2041)
 -->
<!-- Title: CoolMQTT.cpp Pages: 1 -->
<svg width="350pt" height="140pt"
 viewBox="0.00 0.00 349.50 140.00" xmlns="http://www.w3.org/2000/svg" xmlns:xlink="http://www.w3.org/1999/xlink">
<g id="graph0" class="graph" transform="scale(1 1) rotate(0) translate(4 136)">
<title>CoolMQTT.cpp</title>
<polygon fill="white" stroke="none" points="-4,4 -4,-136 345.5,-136 345.5,4 -4,4"/>
<!-- Node0 -->
<g id="node1" class="node"><title>Node0</title>
<polygon fill="#bfbfbf" stroke="black" points="121.5,-112.5 121.5,-131.5 204.5,-131.5 204.5,-112.5 121.5,-112.5"/>
<text text-anchor="middle" x="163" y="-119.5" font-family="Helvetica,sans-Serif" font-size="10.00">CoolMQTT.cpp</text>
</g>
<!-- Node1 -->
<g id="node2" class="node"><title>Node1</title>
<polygon fill="white" stroke="#bfbfbf" points="0,-56.5 0,-75.5 38,-75.5 38,-56.5 0,-56.5"/>
<text text-anchor="middle" x="19" y="-63.5" font-family="Helvetica,sans-Serif" font-size="10.00">FS.h</text>
</g>
<!-- Node0&#45;&gt;Node1 -->
<g id="edge1" class="edge"><title>Node0&#45;&gt;Node1</title>
<path fill="none" stroke="midnightblue" d="M140.183,-112.444C115.148,-103.056 74.9186,-87.9695 47.747,-77.7801"/>
<polygon fill="midnightblue" stroke="midnightblue" points="48.6238,-74.371 38.0315,-74.1368 46.1659,-80.9253 48.6238,-74.371"/>
</g>
<!-- Node2 -->
<g id="node3" class="node"><title>Node2</title>
<polygon fill="white" stroke="#bfbfbf" points="25,-0.5 25,-19.5 83,-19.5 83,-0.5 25,-0.5"/>
<text text-anchor="middle" x="54" y="-7.5" font-family="Helvetica,sans-Serif" font-size="10.00">Arduino.h</text>
</g>
<!-- Node0&#45;&gt;Node2 -->
<g id="edge2" class="edge"><title>Node0&#45;&gt;Node2</title>
<path fill="none" stroke="midnightblue" d="M140.756,-112.497C123.687,-105.039 100.496,-92.7589 85,-76 72.5546,-62.5404 64.196,-43.1758 59.3255,-29.0858"/>
<polygon fill="midnightblue" stroke="midnightblue" points="62.6482,-27.985 56.2709,-19.5245 55.9802,-30.1153 62.6482,-27.985"/>
</g>
<!-- Node3 -->
<g id="node4" class="node"><title>Node3</title>
<polygon fill="white" stroke="#bfbfbf" points="101,-0.5 101,-19.5 187,-19.5 187,-0.5 101,-0.5"/>
<text text-anchor="middle" x="144" y="-7.5" font-family="Helvetica,sans-Serif" font-size="10.00">ESP8266WiFi.h</text>
</g>
<!-- Node0&#45;&gt;Node3 -->
<g id="edge3" class="edge"><title>Node0&#45;&gt;Node3</title>
<path fill="none" stroke="midnightblue" d="M167.423,-112.433C173.314,-99.8516 182.301,-75.7332 176,-56 172.659,-45.538 165.9,-35.4277 159.451,-27.4496"/>
<polygon fill="midnightblue" stroke="midnightblue" points="161.944,-24.9815 152.751,-19.7136 156.652,-29.5641 161.944,-24.9815"/>
</g>
<!-- Node4 -->
<g id="node5" class="node"><title>Node4</title>
<polygon fill="white" stroke="#bfbfbf" points="205.5,-0.5 205.5,-19.5 290.5,-19.5 290.5,-0.5 205.5,-0.5"/>
<text text-anchor="middle" x="248" y="-7.5" font-family="Helvetica,sans-Serif" font-size="10.00">PubSubClient.h</text>
</g>
<!-- Node0&#45;&gt;Node4 -->
<g id="edge4" class="edge"><title>Node0&#45;&gt;Node4</title>
<path fill="none" stroke="midnightblue" d="M169.67,-112.368C183.759,-94.135 216.762,-51.4257 235.115,-27.6752"/>
<polygon fill="midnightblue" stroke="midnightblue" points="238.016,-29.6444 241.361,-19.5914 232.477,-25.3642 238.016,-29.6444"/>
</g>
<!-- Node5 -->
<g id="node6" class="node"><title>Node5</title>
<g id="a_node6"><a xlink:href="../../de/d2e/_cool_m_q_t_t_8h.html" target="_top" xlink:title="CoolMQTT Header File. ">
<polygon fill="white" stroke="black" points="94.5,-56.5 94.5,-75.5 167.5,-75.5 167.5,-56.5 94.5,-56.5"/>
<text text-anchor="middle" x="131" y="-63.5" font-family="Helvetica,sans-Serif" font-size="10.00">CoolMQTT.h</text>
</a>
</g>
</g>
<!-- Node0&#45;&gt;Node5 -->
<g id="edge5" class="edge"><title>Node0&#45;&gt;Node5</title>
<path fill="none" stroke="midnightblue" d="M157.716,-112.083C153.289,-104.613 146.837,-93.7244 141.382,-84.5199"/>
<polygon fill="midnightblue" stroke="midnightblue" points="144.295,-82.5697 136.186,-75.7511 138.273,-86.1383 144.295,-82.5697"/>
</g>
<!-- Node6 -->
<g id="node7" class="node"><title>Node6</title>
<polygon fill="white" stroke="#bfbfbf" points="262.5,-56.5 262.5,-75.5 341.5,-75.5 341.5,-56.5 262.5,-56.5"/>
<text text-anchor="middle" x="302" y="-63.5" font-family="Helvetica,sans-Serif" font-size="10.00">ArduinoJson.h</text>
</g>
<!-- Node0&#45;&gt;Node6 -->
<g id="edge9" class="edge"><title>Node0&#45;&gt;Node6</title>
<path fill="none" stroke="midnightblue" d="M185.025,-112.444C208.104,-103.478 244.562,-89.314 270.641,-79.1827"/>
<polygon fill="midnightblue" stroke="midnightblue" points="272.024,-82.4002 280.078,-75.5164 269.489,-75.8753 272.024,-82.4002"/>
</g>
<!-- Node5&#45;&gt;Node2 -->
<g id="edge6" class="edge"><title>Node5&#45;&gt;Node2</title>
<path fill="none" stroke="midnightblue" d="M118.629,-56.324C106.842,-48.0577 88.8677,-35.4527 74.8645,-25.6322"/>
<polygon fill="midnightblue" stroke="midnightblue" points="76.5376,-22.5307 66.3407,-19.6545 72.5184,-28.2619 76.5376,-22.5307"/>
</g>
<!-- Node5&#45;&gt;Node3 -->
<g id="edge7" class="edge"><title>Node5&#45;&gt;Node3</title>
<path fill="none" stroke="midnightblue" d="M133.147,-56.083C134.869,-48.9272 137.347,-38.6353 139.5,-29.6911"/>
<polygon fill="midnightblue" stroke="midnightblue" points="142.955,-30.2925 141.893,-19.7511 136.15,-28.6541 142.955,-30.2925"/>
</g>
<!-- Node5&#45;&gt;Node4 -->
<g id="edge8" class="edge"><title>Node5&#45;&gt;Node4</title>
<path fill="none" stroke="midnightblue" d="M149.539,-56.4435C168.623,-47.6356 198.575,-33.8116 220.436,-23.722"/>
<polygon fill="midnightblue" stroke="midnightblue" points="221.935,-26.8849 229.548,-19.5164 219.001,-20.5292 221.935,-26.8849"/>
</g>
</g>
</svg>
