<?xml version="1.0" encoding="UTF-8" standalone="no"?>
<!DOCTYPE svg PUBLIC "-//W3C//DTD SVG 1.1//EN"
 "http://www.w3.org/Graphics/SVG/1.1/DTD/svg11.dtd">
<!-- Generated by graphviz version 2.38.0 (20140413.2041)
 -->
<!-- Title: irene3000.cpp Pages: 1 -->
<svg width="306pt" height="140pt"
 viewBox="0.00 0.00 305.50 140.00" xmlns="http://www.w3.org/2000/svg" xmlns:xlink="http://www.w3.org/1999/xlink">
<g id="graph0" class="graph" transform="scale(1 1) rotate(0) translate(4 136)">
<title>irene3000.cpp</title>
<polygon fill="white" stroke="none" points="-4,4 -4,-136 301.5,-136 301.5,4 -4,4"/>
<!-- Node0 -->
<g id="node1" class="node"><title>Node0</title>
<polygon fill="#bfbfbf" stroke="black" points="89.5,-112.5 89.5,-131.5 166.5,-131.5 166.5,-112.5 89.5,-112.5"/>
<text text-anchor="middle" x="128" y="-119.5" font-family="Helvetica,sans-Serif" font-size="10.00">irene3000.cpp</text>
</g>
<!-- Node1 -->
<g id="node2" class="node"><title>Node1</title>
<polygon fill="white" stroke="#bfbfbf" points="0,-56.5 0,-75.5 38,-75.5 38,-56.5 0,-56.5"/>
<text text-anchor="middle" x="19" y="-63.5" font-family="Helvetica,sans-Serif" font-size="10.00">FS.h</text>
</g>
<!-- Node0&#45;&gt;Node1 -->
<g id="edge1" class="edge"><title>Node0&#45;&gt;Node1</title>
<path fill="none" stroke="midnightblue" d="M110.487,-112.324C92.9276,-103.625 65.6686,-90.1202 45.4688,-80.113"/>
<polygon fill="midnightblue" stroke="midnightblue" points="46.9837,-76.9575 36.4693,-75.6545 43.8762,-83.23 46.9837,-76.9575"/>
</g>
<!-- Node2 -->
<g id="node3" class="node"><title>Node2</title>
<polygon fill="white" stroke="#bfbfbf" points="19,-0.5 19,-19.5 125,-19.5 125,-0.5 19,-0.5"/>
<text text-anchor="middle" x="72" y="-7.5" font-family="Helvetica,sans-Serif" font-size="10.00">Adafruit_ADS1015.h</text>
</g>
<!-- Node0&#45;&gt;Node2 -->
<g id="edge2" class="edge"><title>Node0&#45;&gt;Node2</title>
<path fill="none" stroke="midnightblue" d="M116.621,-112.291C106.685,-104.046 92.685,-90.7602 85,-76 77.5263,-61.6457 74.3408,-43.4478 72.9874,-29.9605"/>
<polygon fill="midnightblue" stroke="midnightblue" points="76.4728,-29.6339 72.2276,-19.9268 69.4928,-30.1625 76.4728,-29.6339"/>
</g>
<!-- Node3 -->
<g id="node4" class="node"><title>Node3</title>
<polygon fill="white" stroke="#bfbfbf" points="155,-0.5 155,-19.5 213,-19.5 213,-0.5 155,-0.5"/>
<text text-anchor="middle" x="184" y="-7.5" font-family="Helvetica,sans-Serif" font-size="10.00">Arduino.h</text>
</g>
<!-- Node0&#45;&gt;Node3 -->
<g id="edge3" class="edge"><title>Node0&#45;&gt;Node3</title>
<path fill="none" stroke="midnightblue" d="M139.379,-112.291C149.315,-104.046 163.315,-90.7602 171,-76 178.474,-61.6457 181.659,-43.4478 183.013,-29.9605"/>
<polygon fill="midnightblue" stroke="midnightblue" points="186.507,-30.1625 183.772,-19.9268 179.527,-29.6339 186.507,-30.1625"/>
</g>
<!-- Node4 -->
<g id="node5" class="node"><title>Node4</title>
<g id="a_node5"><a xlink:href="../../d7/d31/_irene3000_8h.html" target="_top" xlink:title="Irene3000 Header File. ">
<polygon fill="white" stroke="black" points="94,-56.5 94,-75.5 162,-75.5 162,-56.5 94,-56.5"/>
<text text-anchor="middle" x="128" y="-63.5" font-family="Helvetica,sans-Serif" font-size="10.00">Irene3000.h</text>
</a>
</g>
</g>
<!-- Node0&#45;&gt;Node4 -->
<g id="edge4" class="edge"><title>Node0&#45;&gt;Node4</title>
<path fill="none" stroke="midnightblue" d="M128,-112.083C128,-105.006 128,-94.8611 128,-85.9865"/>
<polygon fill="midnightblue" stroke="midnightblue" points="131.5,-85.751 128,-75.7511 124.5,-85.7511 131.5,-85.751"/>
</g>
<!-- Node5 -->
<g id="node6" class="node"><title>Node5</title>
<polygon fill="white" stroke="#bfbfbf" points="218.5,-56.5 218.5,-75.5 297.5,-75.5 297.5,-56.5 218.5,-56.5"/>
<text text-anchor="middle" x="258" y="-63.5" font-family="Helvetica,sans-Serif" font-size="10.00">ArduinoJson.h</text>
</g>
<!-- Node0&#45;&gt;Node5 -->
<g id="edge7" class="edge"><title>Node0&#45;&gt;Node5</title>
<path fill="none" stroke="midnightblue" d="M148.599,-112.444C169.993,-103.557 203.681,-89.5632 228.024,-79.4514"/>
<polygon fill="midnightblue" stroke="midnightblue" points="229.605,-82.5848 237.497,-75.5164 226.92,-76.1203 229.605,-82.5848"/>
</g>
<!-- Node4&#45;&gt;Node2 -->
<g id="edge5" class="edge"><title>Node4&#45;&gt;Node2</title>
<path fill="none" stroke="midnightblue" d="M119.003,-56.324C110.806,-48.4196 98.4945,-36.5482 88.528,-26.9377"/>
<polygon fill="midnightblue" stroke="midnightblue" points="90.789,-24.2558 81.1611,-19.8339 85.9301,-29.2947 90.789,-24.2558"/>
</g>
<!-- Node4&#45;&gt;Node3 -->
<g id="edge6" class="edge"><title>Node4&#45;&gt;Node3</title>
<path fill="none" stroke="midnightblue" d="M136.997,-56.324C145.194,-48.4196 157.506,-36.5482 167.472,-26.9377"/>
<polygon fill="midnightblue" stroke="midnightblue" points="170.07,-29.2947 174.839,-19.8339 165.211,-24.2558 170.07,-29.2947"/>
</g>
</g>
</svg>
