<?xml version="1.0" encoding="UTF-8" standalone="no"?>
<!DOCTYPE svg PUBLIC "-//W3C//DTD SVG 1.1//EN"
 "http://www.w3.org/Graphics/SVG/1.1/DTD/svg11.dtd">
<!-- Generated by graphviz version 2.38.0 (20140413.2041)
 -->
<!-- Title: Irene3000::readPh Pages: 1 -->
<svg width="382pt" height="66pt"
 viewBox="0.00 0.00 382.00 66.00" xmlns="http://www.w3.org/2000/svg" xmlns:xlink="http://www.w3.org/1999/xlink">
<g id="graph0" class="graph" transform="scale(1 1) rotate(0) translate(4 62)">
<title>Irene3000::readPh</title>
<polygon fill="white" stroke="none" points="-4,4 -4,-62 378,-62 378,4 -4,4"/>
<!-- Node49 -->
<g id="node1" class="node"><title>Node49</title>
<polygon fill="#bfbfbf" stroke="black" points="0,-19.5 0,-38.5 96,-38.5 96,-19.5 0,-19.5"/>
<text text-anchor="middle" x="48" y="-26.5" font-family="Helvetica,sans-Serif" font-size="10.00">Irene3000::readPh</text>
</g>
<!-- Node50 -->
<g id="node2" class="node"><title>Node50</title>
<g id="a_node2"><a xlink:href="$d6/d03/class_irene3000.html#a852a170feea994ea1df01c6b245b5d9a" xlink:title="Irene3000::read">
<polygon fill="white" stroke="black" points="132,-19.5 132,-38.5 216,-38.5 216,-19.5 132,-19.5"/>
<text text-anchor="middle" x="174" y="-26.5" font-family="Helvetica,sans-Serif" font-size="10.00">Irene3000::read</text>
</a>
</g>
</g>
<!-- Node49&#45;&gt;Node50 -->
<g id="edge1" class="edge"><title>Node49&#45;&gt;Node50</title>
<path fill="none" stroke="midnightblue" d="M106.304,-29C114.965,-29 123.75,-29 131.976,-29"/>
<polygon fill="midnightblue" stroke="midnightblue" points="106.233,-25.5001 96.2328,-29 106.233,-32.5001 106.233,-25.5001"/>
</g>
<!-- Node51 -->
<g id="node3" class="node"><title>Node51</title>
<g id="a_node3"><a xlink:href="$d7/df9/class_cool_board.html#aa0bbc4bc605e35618d18e68795c61363" xlink:title="CoolBoard::onLineMode">
<polygon fill="white" stroke="black" points="252.5,-38.5 252.5,-57.5 373.5,-57.5 373.5,-38.5 252.5,-38.5"/>
<text text-anchor="middle" x="313" y="-45.5" font-family="Helvetica,sans-Serif" font-size="10.00">CoolBoard::onLineMode</text>
</a>
</g>
</g>
<!-- Node50&#45;&gt;Node51 -->
<g id="edge2" class="edge"><title>Node50&#45;&gt;Node51</title>
<path fill="none" stroke="midnightblue" d="M226.282,-36.1121C234.812,-37.2951 243.723,-38.5309 252.437,-39.7395"/>
<polygon fill="midnightblue" stroke="midnightblue" points="226.491,-32.6076 216.105,-34.7006 225.529,-39.5412 226.491,-32.6076"/>
</g>
<!-- Node52 -->
<g id="node4" class="node"><title>Node52</title>
<g id="a_node4"><a xlink:href="$d7/df9/class_cool_board.html#ae6b5e1274d760462290192acea4adca8" xlink:title="CoolBoard::offLineMode">
<polygon fill="white" stroke="black" points="252,-0.5 252,-19.5 374,-19.5 374,-0.5 252,-0.5"/>
<text text-anchor="middle" x="313" y="-7.5" font-family="Helvetica,sans-Serif" font-size="10.00">CoolBoard::offLineMode</text>
</a>
</g>
</g>
<!-- Node50&#45;&gt;Node52 -->
<g id="edge3" class="edge"><title>Node50&#45;&gt;Node52</title>
<path fill="none" stroke="midnightblue" d="M226.138,-21.9078C234.546,-20.7417 243.328,-19.5238 251.93,-18.3309"/>
<polygon fill="midnightblue" stroke="midnightblue" points="225.529,-18.4588 216.105,-23.2994 226.491,-25.3924 225.529,-18.4588"/>
</g>
</g>
</svg>
