<?xml version="1.0" encoding="UTF-8" standalone="no"?>
<!DOCTYPE svg PUBLIC "-//W3C//DTD SVG 1.1//EN"
 "http://www.w3.org/Graphics/SVG/1.1/DTD/svg11.dtd">
<!-- Generated by graphviz version 2.38.0 (20140413.2041)
 -->
<!-- Title: Adafruit_ADS1015::setGain Pages: 1 -->
<svg width="904pt" height="218pt"
 viewBox="0.00 0.00 904.00 218.00" xmlns="http://www.w3.org/2000/svg" xmlns:xlink="http://www.w3.org/1999/xlink">
<g id="graph0" class="graph" transform="scale(1 1) rotate(0) translate(4 214)">
<title>Adafruit_ADS1015::setGain</title>
<polygon fill="white" stroke="none" points="-4,4 -4,-214 900,-214 900,4 -4,4"/>
<!-- Node44 -->
<g id="node1" class="node"><title>Node44</title>
<polygon fill="#bfbfbf" stroke="black" points="0,-95.5 0,-114.5 137,-114.5 137,-95.5 0,-95.5"/>
<text text-anchor="middle" x="68.5" y="-102.5" font-family="Helvetica,sans-Serif" font-size="10.00">Adafruit_ADS1015::setGain</text>
</g>
<!-- Node45 -->
<g id="node2" class="node"><title>Node45</title>
<g id="a_node2"><a xlink:href="../../d6/d03/class_irene3000.html#aff7c5da186b388e7272e63ff88a20c34" target="_top" xlink:title="Irene3000::setGain">
<polygon fill="white" stroke="black" points="173,-95.5 173,-114.5 272,-114.5 272,-95.5 173,-95.5"/>
<text text-anchor="middle" x="222.5" y="-102.5" font-family="Helvetica,sans-Serif" font-size="10.00">Irene3000::setGain</text>
</a>
</g>
</g>
<!-- Node44&#45;&gt;Node45 -->
<g id="edge1" class="edge"><title>Node44&#45;&gt;Node45</title>
<path fill="none" stroke="midnightblue" d="M147.264,-105C155.972,-105 164.649,-105 172.838,-105"/>
<polygon fill="midnightblue" stroke="midnightblue" points="147.055,-101.5 137.055,-105 147.055,-108.5 147.055,-101.5"/>
</g>
<!-- Node46 -->
<g id="node3" class="node"><title>Node46</title>
<g id="a_node3"><a xlink:href="../../d6/d03/class_irene3000.html#a78a87eb7cf295b95c12b2ebd51c2bb77" target="_top" xlink:title="Irene3000::readButton">
<polygon fill="white" stroke="black" points="324.5,-190.5 324.5,-209.5 437.5,-209.5 437.5,-190.5 324.5,-190.5"/>
<text text-anchor="middle" x="381" y="-197.5" font-family="Helvetica,sans-Serif" font-size="10.00">Irene3000::readButton</text>
</a>
</g>
</g>
<!-- Node45&#45;&gt;Node46 -->
<g id="edge2" class="edge"><title>Node45&#45;&gt;Node46</title>
<path fill="none" stroke="midnightblue" d="M238.063,-122.212C253.651,-139.552 279.952,-165.85 308,-181 315.166,-184.871 323.165,-187.987 331.154,-190.486"/>
<polygon fill="midnightblue" stroke="midnightblue" points="240.534,-119.721 231.31,-114.507 235.269,-124.334 240.534,-119.721"/>
</g>
<!-- Node49 -->
<g id="node6" class="node"><title>Node49</title>
<g id="a_node6"><a xlink:href="../../d6/d03/class_irene3000.html#ae73bd2ed14a199a7e83f4d6458476a7c" target="_top" xlink:title="Irene3000::readADSChannel2">
<polygon fill="white" stroke="black" points="308,-76.5 308,-95.5 454,-95.5 454,-76.5 308,-76.5"/>
<text text-anchor="middle" x="381" y="-83.5" font-family="Helvetica,sans-Serif" font-size="10.00">Irene3000::readADSChannel2</text>
</a>
</g>
</g>
<!-- Node45&#45;&gt;Node49 -->
<g id="edge5" class="edge"><title>Node45&#45;&gt;Node49</title>
<path fill="none" stroke="midnightblue" d="M282.178,-97.8761C290.544,-96.8605 299.229,-95.806 307.816,-94.7635"/>
<polygon fill="midnightblue" stroke="midnightblue" points="281.665,-94.4126 272.16,-99.0924 282.509,-101.362 281.665,-94.4126"/>
</g>
<!-- Node54 -->
<g id="node11" class="node"><title>Node54</title>
<g id="a_node11"><a xlink:href="../../d6/d03/class_irene3000.html#a436fc0a06681cd0784aba56b9707f19a" target="_top" xlink:title="Irene3000::readPh">
<polygon fill="white" stroke="black" points="333,-38.5 333,-57.5 429,-57.5 429,-38.5 333,-38.5"/>
<text text-anchor="middle" x="381" y="-45.5" font-family="Helvetica,sans-Serif" font-size="10.00">Irene3000::readPh</text>
</a>
</g>
</g>
<!-- Node45&#45;&gt;Node54 -->
<g id="edge10" class="edge"><title>Node45&#45;&gt;Node54</title>
<path fill="none" stroke="midnightblue" d="M251.69,-90.9171C267.894,-83.18 288.788,-73.8026 308,-67 317.871,-63.5048 328.704,-60.3193 338.901,-57.5974"/>
<polygon fill="midnightblue" stroke="midnightblue" points="249.736,-87.9745 242.263,-95.4849 252.788,-94.2739 249.736,-87.9745"/>
</g>
<!-- Node55 -->
<g id="node12" class="node"><title>Node55</title>
<g id="a_node12"><a xlink:href="../../d6/d03/class_irene3000.html#a80bc6dfea106dc3bc54fa20204d4d5dc" target="_top" xlink:title="Irene3000::readTemp">
<polygon fill="white" stroke="black" points="326.5,-0.5 326.5,-19.5 435.5,-19.5 435.5,-0.5 326.5,-0.5"/>
<text text-anchor="middle" x="381" y="-7.5" font-family="Helvetica,sans-Serif" font-size="10.00">Irene3000::readTemp</text>
</a>
</g>
</g>
<!-- Node45&#45;&gt;Node55 -->
<g id="edge12" class="edge"><title>Node45&#45;&gt;Node55</title>
<path fill="none" stroke="midnightblue" d="M238.063,-87.7883C253.651,-70.4476 279.952,-44.1498 308,-29 315.166,-25.1293 323.165,-22.013 331.154,-19.5143"/>
<polygon fill="midnightblue" stroke="midnightblue" points="235.269,-85.6658 231.31,-95.4933 240.534,-90.2794 235.269,-85.6658"/>
</g>
<!-- Node56 -->
<g id="node13" class="node"><title>Node56</title>
<g id="a_node13"><a xlink:href="../../d6/d03/class_irene3000.html#a1d3299202e4cb7afcff9c9e3e95d94c1" target="_top" xlink:title="Irene3000::calibratepH7">
<polygon fill="white" stroke="black" points="321,-152.5 321,-171.5 441,-171.5 441,-152.5 321,-152.5"/>
<text text-anchor="middle" x="381" y="-159.5" font-family="Helvetica,sans-Serif" font-size="10.00">Irene3000::calibratepH7</text>
</a>
</g>
</g>
<!-- Node45&#45;&gt;Node56 -->
<g id="edge14" class="edge"><title>Node45&#45;&gt;Node56</title>
<path fill="none" stroke="midnightblue" d="M251.69,-119.083C267.894,-126.82 288.788,-136.197 308,-143 317.871,-146.495 328.704,-149.681 338.901,-152.403"/>
<polygon fill="midnightblue" stroke="midnightblue" points="252.788,-115.726 242.263,-114.515 249.736,-122.025 252.788,-115.726"/>
</g>
<!-- Node57 -->
<g id="node14" class="node"><title>Node57</title>
<g id="a_node14"><a xlink:href="../../d6/d03/class_irene3000.html#aa140dd026922a04981edfd04d46cabbe" target="_top" xlink:title="Irene3000::calibratepH4">
<polygon fill="white" stroke="black" points="321,-114.5 321,-133.5 441,-133.5 441,-114.5 321,-114.5"/>
<text text-anchor="middle" x="381" y="-121.5" font-family="Helvetica,sans-Serif" font-size="10.00">Irene3000::calibratepH4</text>
</a>
</g>
</g>
<!-- Node45&#45;&gt;Node57 -->
<g id="edge16" class="edge"><title>Node45&#45;&gt;Node57</title>
<path fill="none" stroke="midnightblue" d="M282.139,-112.119C294.812,-113.658 308.22,-115.285 320.911,-116.826"/>
<polygon fill="midnightblue" stroke="midnightblue" points="282.509,-108.638 272.16,-110.908 281.665,-115.587 282.509,-108.638"/>
</g>
<!-- Node47 -->
<g id="node4" class="node"><title>Node47</title>
<g id="a_node4"><a xlink:href="../../d6/d03/class_irene3000.html#ad5891806c500ae1007afe52b9e304c2b" target="_top" xlink:title="Irene3000::begin">
<polygon fill="white" stroke="black" points="490,-152.5 490,-171.5 579,-171.5 579,-152.5 490,-152.5"/>
<text text-anchor="middle" x="534.5" y="-159.5" font-family="Helvetica,sans-Serif" font-size="10.00">Irene3000::begin</text>
</a>
</g>
</g>
<!-- Node46&#45;&gt;Node47 -->
<g id="edge3" class="edge"><title>Node46&#45;&gt;Node47</title>
<path fill="none" stroke="midnightblue" d="M430.002,-187.96C451.167,-182.651 475.686,-176.501 495.545,-171.52"/>
<polygon fill="midnightblue" stroke="midnightblue" points="429.078,-184.583 420.23,-190.411 430.781,-191.373 429.078,-184.583"/>
</g>
<!-- Node48 -->
<g id="node5" class="node"><title>Node48</title>
<g id="a_node5"><a xlink:href="../../d7/df9/class_cool_board.html#acba7c5aef7268b2c0044bdb54d3b9d76" target="_top" xlink:title="CoolBoard::begin">
<polygon fill="white" stroke="black" points="630.5,-152.5 630.5,-171.5 722.5,-171.5 722.5,-152.5 630.5,-152.5"/>
<text text-anchor="middle" x="676.5" y="-159.5" font-family="Helvetica,sans-Serif" font-size="10.00">CoolBoard::begin</text>
</a>
</g>
</g>
<!-- Node47&#45;&gt;Node48 -->
<g id="edge4" class="edge"><title>Node47&#45;&gt;Node48</title>
<path fill="none" stroke="midnightblue" d="M589.149,-162C602.649,-162 617.007,-162 630.061,-162"/>
<polygon fill="midnightblue" stroke="midnightblue" points="589.029,-158.5 579.029,-162 589.029,-165.5 589.029,-158.5"/>
</g>
<!-- Node50 -->
<g id="node7" class="node"><title>Node50</title>
<g id="a_node7"><a xlink:href="../../d6/d03/class_irene3000.html#a852a170feea994ea1df01c6b245b5d9a" target="_top" xlink:title="Irene3000::read">
<polygon fill="white" stroke="black" points="492.5,-38.5 492.5,-57.5 576.5,-57.5 576.5,-38.5 492.5,-38.5"/>
<text text-anchor="middle" x="534.5" y="-45.5" font-family="Helvetica,sans-Serif" font-size="10.00">Irene3000::read</text>
</a>
</g>
</g>
<!-- Node49&#45;&gt;Node50 -->
<g id="edge6" class="edge"><title>Node49&#45;&gt;Node50</title>
<path fill="none" stroke="midnightblue" d="M430.002,-73.96C451.167,-68.6512 475.686,-62.5012 495.545,-57.5201"/>
<polygon fill="midnightblue" stroke="midnightblue" points="429.078,-70.5832 420.23,-76.411 430.781,-77.3729 429.078,-70.5832"/>
</g>
<!-- Node51 -->
<g id="node8" class="node"><title>Node51</title>
<g id="a_node8"><a xlink:href="../../d7/df9/class_cool_board.html#ad03abdce2e65f520bbf2cff0f2d083cf" target="_top" xlink:title="CoolBoard::readSensors">
<polygon fill="white" stroke="black" points="615,-38.5 615,-57.5 738,-57.5 738,-38.5 615,-38.5"/>
<text text-anchor="middle" x="676.5" y="-45.5" font-family="Helvetica,sans-Serif" font-size="10.00">CoolBoard::readSensors</text>
</a>
</g>
</g>
<!-- Node50&#45;&gt;Node51 -->
<g id="edge7" class="edge"><title>Node50&#45;&gt;Node51</title>
<path fill="none" stroke="midnightblue" d="M586.806,-48C595.919,-48 605.489,-48 614.832,-48"/>
<polygon fill="midnightblue" stroke="midnightblue" points="586.747,-44.5001 576.747,-48 586.747,-51.5001 586.747,-44.5001"/>
</g>
<!-- Node52 -->
<g id="node9" class="node"><title>Node52</title>
<g id="a_node9"><a xlink:href="../../d7/df9/class_cool_board.html#aa0bbc4bc605e35618d18e68795c61363" target="_top" xlink:title="CoolBoard::onLineMode">
<polygon fill="white" stroke="black" points="774.5,-57.5 774.5,-76.5 895.5,-76.5 895.5,-57.5 774.5,-57.5"/>
<text text-anchor="middle" x="835" y="-64.5" font-family="Helvetica,sans-Serif" font-size="10.00">CoolBoard::onLineMode</text>
</a>
</g>
</g>
<!-- Node51&#45;&gt;Node52 -->
<g id="edge8" class="edge"><title>Node51&#45;&gt;Node52</title>
<path fill="none" stroke="midnightblue" d="M748.207,-56.5842C756.968,-57.6478 765.856,-58.7269 774.427,-59.7675"/>
<polygon fill="midnightblue" stroke="midnightblue" points="748.356,-53.0767 738.007,-55.3459 747.512,-60.0257 748.356,-53.0767"/>
</g>
<!-- Node53 -->
<g id="node10" class="node"><title>Node53</title>
<g id="a_node10"><a xlink:href="../../d7/df9/class_cool_board.html#ae6b5e1274d760462290192acea4adca8" target="_top" xlink:title="CoolBoard::offLineMode">
<polygon fill="white" stroke="black" points="774,-19.5 774,-38.5 896,-38.5 896,-19.5 774,-19.5"/>
<text text-anchor="middle" x="835" y="-26.5" font-family="Helvetica,sans-Serif" font-size="10.00">CoolBoard::offLineMode</text>
</a>
</g>
</g>
<!-- Node51&#45;&gt;Node53 -->
<g id="edge9" class="edge"><title>Node51&#45;&gt;Node53</title>
<path fill="none" stroke="midnightblue" d="M748.059,-39.4338C756.692,-38.3856 765.452,-37.3221 773.912,-36.2951"/>
<polygon fill="midnightblue" stroke="midnightblue" points="747.512,-35.9743 738.007,-40.6541 748.356,-42.9233 747.512,-35.9743"/>
</g>
<!-- Node54&#45;&gt;Node50 -->
<g id="edge11" class="edge"><title>Node54&#45;&gt;Node50</title>
<path fill="none" stroke="midnightblue" d="M439.293,-48C456.929,-48 475.987,-48 492.316,-48"/>
<polygon fill="midnightblue" stroke="midnightblue" points="439.105,-44.5001 429.105,-48 439.105,-51.5001 439.105,-44.5001"/>
</g>
<!-- Node55&#45;&gt;Node50 -->
<g id="edge13" class="edge"><title>Node55&#45;&gt;Node50</title>
<path fill="none" stroke="midnightblue" d="M430.002,-22.04C451.167,-27.3488 475.686,-33.4988 495.545,-38.4799"/>
<polygon fill="midnightblue" stroke="midnightblue" points="430.781,-18.6271 420.23,-19.589 429.078,-25.4168 430.781,-18.6271"/>
</g>
<!-- Node56&#45;&gt;Node47 -->
<g id="edge15" class="edge"><title>Node56&#45;&gt;Node47</title>
<path fill="none" stroke="midnightblue" d="M451.038,-162C464.261,-162 477.758,-162 489.902,-162"/>
<polygon fill="midnightblue" stroke="midnightblue" points="451.008,-158.5 441.008,-162 451.008,-165.5 451.008,-158.5"/>
</g>
<!-- Node57&#45;&gt;Node47 -->
<g id="edge17" class="edge"><title>Node57&#45;&gt;Node47</title>
<path fill="none" stroke="midnightblue" d="M430.002,-136.04C451.167,-141.349 475.686,-147.499 495.545,-152.48"/>
<polygon fill="midnightblue" stroke="midnightblue" points="430.781,-132.627 420.23,-133.589 429.078,-139.417 430.781,-132.627"/>
</g>
</g>
</svg>
