<?xml version="1.0" encoding="UTF-8" standalone="no"?>
<!DOCTYPE svg PUBLIC "-//W3C//DTD SVG 1.1//EN"
 "http://www.w3.org/Graphics/SVG/1.1/DTD/svg11.dtd">
<!-- Generated by graphviz version 2.38.0 (20140413.2041)
 -->
<!-- Title: Adafruit_ADS1015::readADC_SingleEnded Pages: 1 -->
<svg width="776pt" height="218pt"
 viewBox="0.00 0.00 776.00 218.00" xmlns="http://www.w3.org/2000/svg" xmlns:xlink="http://www.w3.org/1999/xlink">
<g id="graph0" class="graph" transform="scale(1 1) rotate(0) translate(4 214)">
<title>Adafruit_ADS1015::readADC_SingleEnded</title>
<polygon fill="white" stroke="none" points="-4,4 -4,-214 772,-214 772,4 -4,4"/>
<!-- Node11 -->
<g id="node1" class="node"><title>Node11</title>
<polygon fill="#bfbfbf" stroke="black" points="0,-90 0,-120 144,-120 144,-90 0,-90"/>
<text text-anchor="start" x="8" y="-108" font-family="Helvetica,sans-Serif" font-size="10.00">Adafruit_ADS1015::readADC</text>
<text text-anchor="middle" x="72" y="-97" font-family="Helvetica,sans-Serif" font-size="10.00">_SingleEnded</text>
</g>
<!-- Node12 -->
<g id="node2" class="node"><title>Node12</title>
<g id="a_node2"><a xlink:href="../../d6/d03/class_irene3000.html#aa140dd026922a04981edfd04d46cabbe" target="_top" xlink:title="Irene3000::calibratepH4">
<polygon fill="white" stroke="black" points="193,-190.5 193,-209.5 313,-209.5 313,-190.5 193,-190.5"/>
<text text-anchor="middle" x="253" y="-197.5" font-family="Helvetica,sans-Serif" font-size="10.00">Irene3000::calibratepH4</text>
</a>
</g>
</g>
<!-- Node11&#45;&gt;Node12 -->
<g id="edge1" class="edge"><title>Node11&#45;&gt;Node12</title>
<path fill="none" stroke="midnightblue" d="M97.6245,-126.425C118.337,-143.438 149.394,-166.673 180,-181 188.079,-184.782 197.033,-187.905 205.805,-190.45"/>
<polygon fill="midnightblue" stroke="midnightblue" points="99.8672,-123.738 89.9482,-120.014 95.3801,-129.111 99.8672,-123.738"/>
</g>
<!-- Node15 -->
<g id="node5" class="node"><title>Node15</title>
<g id="a_node5"><a xlink:href="../../d6/d03/class_irene3000.html#a1d3299202e4cb7afcff9c9e3e95d94c1" target="_top" xlink:title="Irene3000::calibratepH7">
<polygon fill="white" stroke="black" points="193,-152.5 193,-171.5 313,-171.5 313,-152.5 193,-152.5"/>
<text text-anchor="middle" x="253" y="-159.5" font-family="Helvetica,sans-Serif" font-size="10.00">Irene3000::calibratepH7</text>
</a>
</g>
</g>
<!-- Node11&#45;&gt;Node15 -->
<g id="edge4" class="edge"><title>Node11&#45;&gt;Node15</title>
<path fill="none" stroke="midnightblue" d="M122.574,-123.574C140.552,-130.053 161.089,-137.158 180,-143 190.746,-146.32 202.504,-149.578 213.344,-152.432"/>
<polygon fill="midnightblue" stroke="midnightblue" points="123.47,-120.176 112.876,-120.052 121.08,-126.755 123.47,-120.176"/>
</g>
<!-- Node16 -->
<g id="node6" class="node"><title>Node16</title>
<g id="a_node6"><a xlink:href="../../d6/d03/class_irene3000.html#ae73bd2ed14a199a7e83f4d6458476a7c" target="_top" xlink:title="Irene3000::readADSChannel2">
<polygon fill="white" stroke="black" points="180,-76.5 180,-95.5 326,-95.5 326,-76.5 180,-76.5"/>
<text text-anchor="middle" x="253" y="-83.5" font-family="Helvetica,sans-Serif" font-size="10.00">Irene3000::readADSChannel2</text>
</a>
</g>
</g>
<!-- Node11&#45;&gt;Node16 -->
<g id="edge6" class="edge"><title>Node11&#45;&gt;Node16</title>
<path fill="none" stroke="midnightblue" d="M154.055,-96.3964C162.676,-95.4813 171.403,-94.555 179.911,-93.6519"/>
<polygon fill="midnightblue" stroke="midnightblue" points="153.577,-92.9273 144.003,-97.4634 154.316,-99.8882 153.577,-92.9273"/>
</g>
<!-- Node21 -->
<g id="node11" class="node"><title>Node21</title>
<g id="a_node11"><a xlink:href="../../d6/d03/class_irene3000.html#a78a87eb7cf295b95c12b2ebd51c2bb77" target="_top" xlink:title="Irene3000::readButton">
<polygon fill="white" stroke="black" points="196.5,-114.5 196.5,-133.5 309.5,-133.5 309.5,-114.5 196.5,-114.5"/>
<text text-anchor="middle" x="253" y="-121.5" font-family="Helvetica,sans-Serif" font-size="10.00">Irene3000::readButton</text>
</a>
</g>
</g>
<!-- Node11&#45;&gt;Node21 -->
<g id="edge11" class="edge"><title>Node11&#45;&gt;Node21</title>
<path fill="none" stroke="midnightblue" d="M154.274,-113.627C168.475,-115.134 182.955,-116.671 196.267,-118.084"/>
<polygon fill="midnightblue" stroke="midnightblue" points="154.316,-110.112 144.003,-112.537 153.577,-117.073 154.316,-110.112"/>
</g>
<!-- Node22 -->
<g id="node12" class="node"><title>Node22</title>
<g id="a_node12"><a xlink:href="../../d6/d03/class_irene3000.html#a436fc0a06681cd0784aba56b9707f19a" target="_top" xlink:title="Irene3000::readPh">
<polygon fill="white" stroke="black" points="205,-38.5 205,-57.5 301,-57.5 301,-38.5 205,-38.5"/>
<text text-anchor="middle" x="253" y="-45.5" font-family="Helvetica,sans-Serif" font-size="10.00">Irene3000::readPh</text>
</a>
</g>
</g>
<!-- Node11&#45;&gt;Node22 -->
<g id="edge13" class="edge"><title>Node11&#45;&gt;Node22</title>
<path fill="none" stroke="midnightblue" d="M122.574,-86.4257C140.552,-79.9472 161.089,-72.8422 180,-67 190.746,-63.6802 202.504,-60.4225 213.344,-57.568"/>
<polygon fill="midnightblue" stroke="midnightblue" points="121.08,-83.2445 112.876,-89.9484 123.47,-89.8239 121.08,-83.2445"/>
</g>
<!-- Node23 -->
<g id="node13" class="node"><title>Node23</title>
<g id="a_node13"><a xlink:href="../../d6/d03/class_irene3000.html#a80bc6dfea106dc3bc54fa20204d4d5dc" target="_top" xlink:title="Irene3000::readTemp">
<polygon fill="white" stroke="black" points="198.5,-0.5 198.5,-19.5 307.5,-19.5 307.5,-0.5 198.5,-0.5"/>
<text text-anchor="middle" x="253" y="-7.5" font-family="Helvetica,sans-Serif" font-size="10.00">Irene3000::readTemp</text>
</a>
</g>
</g>
<!-- Node11&#45;&gt;Node23 -->
<g id="edge15" class="edge"><title>Node11&#45;&gt;Node23</title>
<path fill="none" stroke="midnightblue" d="M97.6245,-83.5748C118.337,-66.562 149.394,-43.3267 180,-29 188.079,-25.2183 197.033,-22.0948 205.805,-19.5496"/>
<polygon fill="midnightblue" stroke="midnightblue" points="95.3801,-80.8891 89.9482,-89.9855 99.8672,-86.2619 95.3801,-80.8891"/>
</g>
<!-- Node13 -->
<g id="node3" class="node"><title>Node13</title>
<g id="a_node3"><a xlink:href="../../d6/d03/class_irene3000.html#ad5891806c500ae1007afe52b9e304c2b" target="_top" xlink:title="Irene3000::begin">
<polygon fill="white" stroke="black" points="362,-152.5 362,-171.5 451,-171.5 451,-152.5 362,-152.5"/>
<text text-anchor="middle" x="406.5" y="-159.5" font-family="Helvetica,sans-Serif" font-size="10.00">Irene3000::begin</text>
</a>
</g>
</g>
<!-- Node12&#45;&gt;Node13 -->
<g id="edge2" class="edge"><title>Node12&#45;&gt;Node13</title>
<path fill="none" stroke="midnightblue" d="M302.002,-187.96C323.167,-182.651 347.686,-176.501 367.545,-171.52"/>
<polygon fill="midnightblue" stroke="midnightblue" points="301.078,-184.583 292.23,-190.411 302.781,-191.373 301.078,-184.583"/>
</g>
<!-- Node14 -->
<g id="node4" class="node"><title>Node14</title>
<g id="a_node4"><a xlink:href="../../d7/df9/class_cool_board.html#acba7c5aef7268b2c0044bdb54d3b9d76" target="_top" xlink:title="CoolBoard::begin">
<polygon fill="white" stroke="black" points="502.5,-152.5 502.5,-171.5 594.5,-171.5 594.5,-152.5 502.5,-152.5"/>
<text text-anchor="middle" x="548.5" y="-159.5" font-family="Helvetica,sans-Serif" font-size="10.00">CoolBoard::begin</text>
</a>
</g>
</g>
<!-- Node13&#45;&gt;Node14 -->
<g id="edge3" class="edge"><title>Node13&#45;&gt;Node14</title>
<path fill="none" stroke="midnightblue" d="M461.149,-162C474.649,-162 489.007,-162 502.061,-162"/>
<polygon fill="midnightblue" stroke="midnightblue" points="461.029,-158.5 451.029,-162 461.029,-165.5 461.029,-158.5"/>
</g>
<!-- Node15&#45;&gt;Node13 -->
<g id="edge5" class="edge"><title>Node15&#45;&gt;Node13</title>
<path fill="none" stroke="midnightblue" d="M323.038,-162C336.261,-162 349.758,-162 361.902,-162"/>
<polygon fill="midnightblue" stroke="midnightblue" points="323.008,-158.5 313.008,-162 323.008,-165.5 323.008,-158.5"/>
</g>
<!-- Node17 -->
<g id="node7" class="node"><title>Node17</title>
<g id="a_node7"><a xlink:href="../../d6/d03/class_irene3000.html#a852a170feea994ea1df01c6b245b5d9a" target="_top" xlink:title="Irene3000::read">
<polygon fill="white" stroke="black" points="364.5,-38.5 364.5,-57.5 448.5,-57.5 448.5,-38.5 364.5,-38.5"/>
<text text-anchor="middle" x="406.5" y="-45.5" font-family="Helvetica,sans-Serif" font-size="10.00">Irene3000::read</text>
</a>
</g>
</g>
<!-- Node16&#45;&gt;Node17 -->
<g id="edge7" class="edge"><title>Node16&#45;&gt;Node17</title>
<path fill="none" stroke="midnightblue" d="M302.002,-73.96C323.167,-68.6512 347.686,-62.5012 367.545,-57.5201"/>
<polygon fill="midnightblue" stroke="midnightblue" points="301.078,-70.5832 292.23,-76.411 302.781,-77.3729 301.078,-70.5832"/>
</g>
<!-- Node18 -->
<g id="node8" class="node"><title>Node18</title>
<g id="a_node8"><a xlink:href="../../d7/df9/class_cool_board.html#ad03abdce2e65f520bbf2cff0f2d083cf" target="_top" xlink:title="CoolBoard::readSensors">
<polygon fill="white" stroke="black" points="487,-38.5 487,-57.5 610,-57.5 610,-38.5 487,-38.5"/>
<text text-anchor="middle" x="548.5" y="-45.5" font-family="Helvetica,sans-Serif" font-size="10.00">CoolBoard::readSensors</text>
</a>
</g>
</g>
<!-- Node17&#45;&gt;Node18 -->
<g id="edge8" class="edge"><title>Node17&#45;&gt;Node18</title>
<path fill="none" stroke="midnightblue" d="M458.806,-48C467.919,-48 477.489,-48 486.832,-48"/>
<polygon fill="midnightblue" stroke="midnightblue" points="458.747,-44.5001 448.747,-48 458.747,-51.5001 458.747,-44.5001"/>
</g>
<!-- Node19 -->
<g id="node9" class="node"><title>Node19</title>
<g id="a_node9"><a xlink:href="../../d7/df9/class_cool_board.html#aa0bbc4bc605e35618d18e68795c61363" target="_top" xlink:title="CoolBoard::onLineMode">
<polygon fill="white" stroke="black" points="646.5,-57.5 646.5,-76.5 767.5,-76.5 767.5,-57.5 646.5,-57.5"/>
<text text-anchor="middle" x="707" y="-64.5" font-family="Helvetica,sans-Serif" font-size="10.00">CoolBoard::onLineMode</text>
</a>
</g>
</g>
<!-- Node18&#45;&gt;Node19 -->
<g id="edge9" class="edge"><title>Node18&#45;&gt;Node19</title>
<path fill="none" stroke="midnightblue" d="M620.207,-56.5842C628.968,-57.6478 637.856,-58.7269 646.427,-59.7675"/>
<polygon fill="midnightblue" stroke="midnightblue" points="620.356,-53.0767 610.007,-55.3459 619.512,-60.0257 620.356,-53.0767"/>
</g>
<!-- Node20 -->
<g id="node10" class="node"><title>Node20</title>
<g id="a_node10"><a xlink:href="../../d7/df9/class_cool_board.html#ae6b5e1274d760462290192acea4adca8" target="_top" xlink:title="CoolBoard::offLineMode">
<polygon fill="white" stroke="black" points="646,-19.5 646,-38.5 768,-38.5 768,-19.5 646,-19.5"/>
<text text-anchor="middle" x="707" y="-26.5" font-family="Helvetica,sans-Serif" font-size="10.00">CoolBoard::offLineMode</text>
</a>
</g>
</g>
<!-- Node18&#45;&gt;Node20 -->
<g id="edge10" class="edge"><title>Node18&#45;&gt;Node20</title>
<path fill="none" stroke="midnightblue" d="M620.059,-39.4338C628.692,-38.3856 637.452,-37.3221 645.912,-36.2951"/>
<polygon fill="midnightblue" stroke="midnightblue" points="619.512,-35.9743 610.007,-40.6541 620.356,-42.9233 619.512,-35.9743"/>
</g>
<!-- Node21&#45;&gt;Node13 -->
<g id="edge12" class="edge"><title>Node21&#45;&gt;Node13</title>
<path fill="none" stroke="midnightblue" d="M302.002,-136.04C323.167,-141.349 347.686,-147.499 367.545,-152.48"/>
<polygon fill="midnightblue" stroke="midnightblue" points="302.781,-132.627 292.23,-133.589 301.078,-139.417 302.781,-132.627"/>
</g>
<!-- Node22&#45;&gt;Node17 -->
<g id="edge14" class="edge"><title>Node22&#45;&gt;Node17</title>
<path fill="none" stroke="midnightblue" d="M311.293,-48C328.929,-48 347.987,-48 364.316,-48"/>
<polygon fill="midnightblue" stroke="midnightblue" points="311.105,-44.5001 301.105,-48 311.105,-51.5001 311.105,-44.5001"/>
</g>
<!-- Node23&#45;&gt;Node17 -->
<g id="edge16" class="edge"><title>Node23&#45;&gt;Node17</title>
<path fill="none" stroke="midnightblue" d="M302.002,-22.04C323.167,-27.3488 347.686,-33.4988 367.545,-38.4799"/>
<polygon fill="midnightblue" stroke="midnightblue" points="302.781,-18.6271 292.23,-19.589 301.078,-25.4168 302.781,-18.6271"/>
</g>
</g>
</svg>
