<?xml version="1.0" encoding="UTF-8" standalone="no"?>
<!DOCTYPE svg PUBLIC "-//W3C//DTD SVG 1.1//EN"
 "http://www.w3.org/Graphics/SVG/1.1/DTD/svg11.dtd">
<!-- Generated by graphviz version 2.38.0 (20140413.2041)
 -->
<!-- Title: /home/ashiroji/Arduino/libraries/CoolBoard/src/CoolBoard.cpp Pages: 1 -->
<svg width="1942pt" height="296pt"
 viewBox="0.00 0.00 1941.50 296.00" xmlns="http://www.w3.org/2000/svg" xmlns:xlink="http://www.w3.org/1999/xlink">
<g id="graph0" class="graph" transform="scale(1 1) rotate(0) translate(4 292)">
<title>/home/ashiroji/Arduino/libraries/CoolBoard/src/CoolBoard.cpp</title>
<polygon fill="white" stroke="none" points="-4,4 -4,-292 1937.5,-292 1937.5,4 -4,4"/>
<!-- Node0 -->
<g id="node1" class="node"><title>Node0</title>
<polygon fill="#bfbfbf" stroke="black" points="806.5,-246.5 806.5,-287.5 925.5,-287.5 925.5,-246.5 806.5,-246.5"/>
<text text-anchor="start" x="814.5" y="-275.5" font-family="Helvetica,sans-Serif" font-size="10.00">/home/ashiroji/Arduino</text>
<text text-anchor="start" x="814.5" y="-264.5" font-family="Helvetica,sans-Serif" font-size="10.00">/libraries/CoolBoard/src</text>
<text text-anchor="middle" x="866" y="-253.5" font-family="Helvetica,sans-Serif" font-size="10.00">/CoolBoard.cpp</text>
</g>
<!-- Node1 -->
<g id="node2" class="node"><title>Node1</title>
<polygon fill="white" stroke="#bfbfbf" points="126,-190.5 126,-209.5 164,-209.5 164,-190.5 126,-190.5"/>
<text text-anchor="middle" x="145" y="-197.5" font-family="Helvetica,sans-Serif" font-size="10.00">FS.h</text>
</g>
<!-- Node0&#45;&gt;Node1 -->
<g id="edge1" class="edge"><title>Node0&#45;&gt;Node1</title>
<path fill="none" stroke="midnightblue" d="M806.171,-264.845C686.164,-261.714 407.874,-250.344 178,-210 176.717,-209.775 175.411,-209.522 174.097,-209.248"/>
<polygon fill="midnightblue" stroke="midnightblue" points="174.6,-205.77 164.059,-206.841 172.967,-212.577 174.6,-205.77"/>
</g>
<!-- Node2 -->
<g id="node3" class="node"><title>Node2</title>
<g id="a_node3"><a xlink:href="$d5/d51/_cool_board_8h.html" xlink:title="CoolBoard Header file. ">
<polygon fill="white" stroke="black" points="784.5,-190.5 784.5,-209.5 855.5,-209.5 855.5,-190.5 784.5,-190.5"/>
<text text-anchor="middle" x="820" y="-197.5" font-family="Helvetica,sans-Serif" font-size="10.00">CoolBoard.h</text>
</a>
</g>
</g>
<!-- Node0&#45;&gt;Node2 -->
<g id="edge2" class="edge"><title>Node0&#45;&gt;Node2</title>
<path fill="none" stroke="midnightblue" d="M852.198,-246.498C845.756,-237.395 838.161,-226.662 831.966,-217.908"/>
<polygon fill="midnightblue" stroke="midnightblue" points="834.757,-215.793 826.123,-209.652 829.043,-219.837 834.757,-215.793"/>
</g>
<!-- Node4 -->
<g id="node5" class="node"><title>Node4</title>
<polygon fill="white" stroke="#bfbfbf" points="930,-6 930,-25 988,-25 988,-6 930,-6"/>
<text text-anchor="middle" x="959" y="-13" font-family="Helvetica,sans-Serif" font-size="10.00">Arduino.h</text>
</g>
<!-- Node0&#45;&gt;Node4 -->
<g id="edge47" class="edge"><title>Node0&#45;&gt;Node4</title>
<path fill="none" stroke="midnightblue" d="M806.217,-266.689C614.408,-267.091 36.9155,-253.234 211,-67 259.612,-14.995 771.42,-14.9945 919.236,-16.094"/>
<polygon fill="midnightblue" stroke="midnightblue" points="919.609,-19.597 929.637,-16.1778 919.665,-12.5973 919.609,-19.597"/>
</g>
<!-- Node32 -->
<g id="node33" class="node"><title>Node32</title>
<polygon fill="white" stroke="#bfbfbf" points="873.5,-190.5 873.5,-209.5 952.5,-209.5 952.5,-190.5 873.5,-190.5"/>
<text text-anchor="middle" x="913" y="-197.5" font-family="Helvetica,sans-Serif" font-size="10.00">ArduinoJson.h</text>
</g>
<!-- Node0&#45;&gt;Node32 -->
<g id="edge46" class="edge"><title>Node0&#45;&gt;Node32</title>
<path fill="none" stroke="midnightblue" d="M880.102,-246.498C886.684,-237.395 894.444,-226.662 900.774,-217.908"/>
<polygon fill="midnightblue" stroke="midnightblue" points="903.72,-219.807 906.744,-209.652 898.048,-215.705 903.72,-219.807"/>
</g>
<!-- Node33 -->
<g id="node34" class="node"><title>Node33</title>
<polygon fill="white" stroke="#bfbfbf" points="970.5,-190.5 970.5,-209.5 1015.5,-209.5 1015.5,-190.5 970.5,-190.5"/>
<text text-anchor="middle" x="993" y="-197.5" font-family="Helvetica,sans-Serif" font-size="10.00">Wire.h</text>
</g>
<!-- Node0&#45;&gt;Node33 -->
<g id="edge48" class="edge"><title>Node0&#45;&gt;Node33</title>
<path fill="none" stroke="midnightblue" d="M904.104,-246.498C924.325,-236.149 948.658,-223.695 966.751,-214.435"/>
<polygon fill="midnightblue" stroke="midnightblue" points="968.787,-217.324 976.094,-209.652 965.598,-211.093 968.787,-217.324"/>
</g>
<!-- Node34 -->
<g id="node35" class="node"><title>Node34</title>
<polygon fill="white" stroke="#bfbfbf" points="1034,-190.5 1034,-209.5 1086,-209.5 1086,-190.5 1034,-190.5"/>
<text text-anchor="middle" x="1060" y="-197.5" font-family="Helvetica,sans-Serif" font-size="10.00">memory</text>
</g>
<!-- Node0&#45;&gt;Node34 -->
<g id="edge49" class="edge"><title>Node0&#45;&gt;Node34</title>
<path fill="none" stroke="midnightblue" d="M924.206,-246.498C956.91,-235.541 996.657,-222.223 1024.67,-212.836"/>
<polygon fill="midnightblue" stroke="midnightblue" points="1026.06,-216.063 1034.43,-209.567 1023.84,-209.425 1026.06,-216.063"/>
</g>
<!-- Node3 -->
<g id="node4" class="node"><title>Node3</title>
<g id="a_node4"><a xlink:href="$d9/d41/_cool_file_system_8h.html" xlink:title="CoolFileSystem Header File. ">
<polygon fill="white" stroke="black" points="1006.5,-134.5 1006.5,-153.5 1101.5,-153.5 1101.5,-134.5 1006.5,-134.5"/>
<text text-anchor="middle" x="1054" y="-141.5" font-family="Helvetica,sans-Serif" font-size="10.00">CoolFileSystem.h</text>
</a>
</g>
</g>
<!-- Node2&#45;&gt;Node3 -->
<g id="edge3" class="edge"><title>Node2&#45;&gt;Node3</title>
<path fill="none" stroke="midnightblue" d="M855.54,-190.799C896.072,-181.445 962.498,-166.116 1007.21,-155.797"/>
<polygon fill="midnightblue" stroke="midnightblue" points="1008.01,-159.206 1016.96,-153.547 1006.43,-152.385 1008.01,-159.206"/>
</g>
<!-- Node2&#45;&gt;Node4 -->
<g id="edge45" class="edge"><title>Node2&#45;&gt;Node4</title>
<path fill="none" stroke="midnightblue" d="M784.221,-198.808C668.532,-197.062 318.005,-182.352 423,-67 456.323,-30.3903 801.577,-19.7888 919.656,-17.2212"/>
<polygon fill="midnightblue" stroke="midnightblue" points="919.787,-20.7193 929.711,-17.0102 919.64,-13.7209 919.787,-20.7193"/>
</g>
<!-- Node5 -->
<g id="node6" class="node"><title>Node5</title>
<g id="a_node6"><a xlink:href="$d7/df3/_cool_board_sensors_8h.html" xlink:title="CoolBoardSensors Header File. ">
<polygon fill="white" stroke="black" points="247.5,-134.5 247.5,-153.5 354.5,-153.5 354.5,-134.5 247.5,-134.5"/>
<text text-anchor="middle" x="301" y="-141.5" font-family="Helvetica,sans-Serif" font-size="10.00">CoolBoardSensors.h</text>
</a>
</g>
</g>
<!-- Node2&#45;&gt;Node5 -->
<g id="edge5" class="edge"><title>Node2&#45;&gt;Node5</title>
<path fill="none" stroke="midnightblue" d="M784.327,-195.288C697.603,-186.265 474.774,-163.081 364.608,-151.618"/>
<polygon fill="midnightblue" stroke="midnightblue" points="364.936,-148.133 354.627,-150.58 364.211,-155.096 364.936,-148.133"/>
</g>
<!-- Node9 -->
<g id="node10" class="node"><title>Node9</title>
<g id="a_node10"><a xlink:href="$d0/da6/_cool_board_led_8h.html" xlink:title="CoolBoardLed Header File. ">
<polygon fill="white" stroke="black" points="499,-134.5 499,-153.5 585,-153.5 585,-134.5 499,-134.5"/>
<text text-anchor="middle" x="542" y="-141.5" font-family="Helvetica,sans-Serif" font-size="10.00">CoolBoardLed.h</text>
</a>
</g>
</g>
<!-- Node2&#45;&gt;Node9 -->
<g id="edge11" class="edge"><title>Node2&#45;&gt;Node9</title>
<path fill="none" stroke="midnightblue" d="M784.225,-192.051C736.321,-182.746 650.941,-166.161 595.407,-155.374"/>
<polygon fill="midnightblue" stroke="midnightblue" points="595.884,-151.901 585.401,-153.43 594.55,-158.773 595.884,-151.901"/>
</g>
<!-- Node11 -->
<g id="node12" class="node"><title>Node11</title>
<g id="a_node12"><a xlink:href="$d4/daa/_cool_time_8h.html" xlink:title="CoolTime Header File. ">
<polygon fill="white" stroke="black" points="744.5,-134.5 744.5,-153.5 811.5,-153.5 811.5,-134.5 744.5,-134.5"/>
<text text-anchor="middle" x="778" y="-141.5" font-family="Helvetica,sans-Serif" font-size="10.00">CoolTime.h</text>
</a>
</g>
</g>
<!-- Node2&#45;&gt;Node11 -->
<g id="edge14" class="edge"><title>Node2&#45;&gt;Node11</title>
<path fill="none" stroke="midnightblue" d="M813.065,-190.083C807.071,-182.377 798.248,-171.033 790.952,-161.653"/>
<polygon fill="midnightblue" stroke="midnightblue" points="793.709,-159.496 784.806,-153.751 788.183,-163.793 793.709,-159.496"/>
</g>
<!-- Node15 -->
<g id="node16" class="node"><title>Node15</title>
<g id="a_node16"><a xlink:href="$de/d2e/_cool_m_q_t_t_8h.html" xlink:title="CoolMQTT Header File. ">
<polygon fill="white" stroke="black" points="1299.5,-134.5 1299.5,-153.5 1372.5,-153.5 1372.5,-134.5 1299.5,-134.5"/>
<text text-anchor="middle" x="1336" y="-141.5" font-family="Helvetica,sans-Serif" font-size="10.00">CoolMQTT.h</text>
</a>
</g>
</g>
<!-- Node2&#45;&gt;Node15 -->
<g id="edge19" class="edge"><title>Node2&#45;&gt;Node15</title>
<path fill="none" stroke="midnightblue" d="M855.963,-191.318C858.677,-190.839 861.378,-190.392 864,-190 945.266,-177.85 1186.84,-157.283 1289.26,-148.816"/>
<polygon fill="midnightblue" stroke="midnightblue" points="1289.63,-152.297 1299.31,-147.987 1289.06,-145.321 1289.63,-152.297"/>
</g>
<!-- Node21 -->
<g id="node22" class="node"><title>Node21</title>
<g id="a_node22"><a xlink:href="$db/d6c/_jetpack_8h.html" xlink:title="Jetpack Header File. ">
<polygon fill="white" stroke="black" points="833.5,-134.5 833.5,-153.5 892.5,-153.5 892.5,-134.5 833.5,-134.5"/>
<text text-anchor="middle" x="863" y="-141.5" font-family="Helvetica,sans-Serif" font-size="10.00">Jetpack.h</text>
</a>
</g>
</g>
<!-- Node2&#45;&gt;Node21 -->
<g id="edge27" class="edge"><title>Node2&#45;&gt;Node21</title>
<path fill="none" stroke="midnightblue" d="M827.101,-190.083C833.237,-182.377 842.27,-171.033 849.739,-161.653"/>
<polygon fill="midnightblue" stroke="midnightblue" points="852.54,-163.754 856.032,-153.751 847.064,-159.394 852.54,-163.754"/>
</g>
<!-- Node22 -->
<g id="node23" class="node"><title>Node22</title>
<g id="a_node23"><a xlink:href="$d7/d31/_irene3000_8h.html" xlink:title="Irene3000 Header File. ">
<polygon fill="white" stroke="black" points="920,-134.5 920,-153.5 988,-153.5 988,-134.5 920,-134.5"/>
<text text-anchor="middle" x="954" y="-141.5" font-family="Helvetica,sans-Serif" font-size="10.00">Irene3000.h</text>
</a>
</g>
</g>
<!-- Node2&#45;&gt;Node22 -->
<g id="edge29" class="edge"><title>Node2&#45;&gt;Node22</title>
<path fill="none" stroke="midnightblue" d="M841.233,-190.444C863.384,-181.517 898.319,-167.439 923.436,-157.317"/>
<polygon fill="midnightblue" stroke="midnightblue" points="924.9,-160.501 932.867,-153.516 922.283,-154.008 924.9,-160.501"/>
</g>
<!-- Node24 -->
<g id="node25" class="node"><title>Node24</title>
<g id="a_node25"><a xlink:href="$d7/dcc/_external_sensors_8h.html" xlink:title="ExternalSensors Header File. ">
<polygon fill="white" stroke="black" points="1119.5,-134.5 1119.5,-153.5 1216.5,-153.5 1216.5,-134.5 1119.5,-134.5"/>
<text text-anchor="middle" x="1168" y="-141.5" font-family="Helvetica,sans-Serif" font-size="10.00">ExternalSensors.h</text>
</a>
</g>
</g>
<!-- Node2&#45;&gt;Node24 -->
<g id="edge33" class="edge"><title>Node2&#45;&gt;Node24</title>
<path fill="none" stroke="midnightblue" d="M855.509,-191.558C858.378,-191.011 861.235,-190.485 864,-190 969.65,-171.48 999.033,-170.514 1109.08,-154.12"/>
<polygon fill="midnightblue" stroke="midnightblue" points="1109.9,-157.537 1119.27,-152.593 1108.86,-150.614 1109.9,-157.537"/>
</g>
<!-- Node28 -->
<g id="node29" class="node"><title>Node28</title>
<g id="a_node29"><a xlink:href="$dc/d38/_cool_wifi_8h.html" xlink:title="CoolWifi Header File. ">
<polygon fill="white" stroke="black" points="1565,-134.5 1565,-153.5 1627,-153.5 1627,-134.5 1565,-134.5"/>
<text text-anchor="middle" x="1596" y="-141.5" font-family="Helvetica,sans-Serif" font-size="10.00">CoolWifi.h</text>
</a>
</g>
</g>
<!-- Node2&#45;&gt;Node28 -->
<g id="edge39" class="edge"><title>Node2&#45;&gt;Node28</title>
<path fill="none" stroke="midnightblue" d="M855.949,-191.219C858.666,-190.762 861.372,-190.348 864,-190 999.184,-172.109 1420.62,-152.653 1554.64,-146.777"/>
<polygon fill="midnightblue" stroke="midnightblue" points="1555.04,-150.262 1564.88,-146.329 1554.74,-143.269 1555.04,-150.262"/>
</g>
<!-- Node3&#45;&gt;Node4 -->
<g id="edge4" class="edge"><title>Node3&#45;&gt;Node4</title>
<path fill="none" stroke="midnightblue" d="M1054.57,-134.175C1055.09,-119.064 1054.19,-87.8495 1040,-67 1028.35,-49.8942 1008.8,-37.4605 991.817,-29.2111"/>
<polygon fill="midnightblue" stroke="midnightblue" points="993.266,-26.0252 982.715,-25.0554 990.358,-32.3928 993.266,-26.0252"/>
</g>
<!-- Node5&#45;&gt;Node4 -->
<g id="edge6" class="edge"><title>Node5&#45;&gt;Node4</title>
<path fill="none" stroke="midnightblue" d="M309.779,-134.264C328.356,-115.993 371.454,-74.7896 390,-67 485.996,-26.6796 807.318,-18.528 919.749,-16.9002"/>
<polygon fill="midnightblue" stroke="midnightblue" points="920.011,-20.397 929.963,-16.7621 919.917,-13.3977 920.011,-20.397"/>
</g>
<!-- Node6 -->
<g id="node7" class="node"><title>Node6</title>
<g id="a_node7"><a xlink:href="$d1/dd7/_cool_s_i114_x_8h.html" xlink:title="internals/CoolSI114X.h">
<polygon fill="white" stroke="black" points="220.5,-73 220.5,-92 337.5,-92 337.5,-73 220.5,-73"/>
<text text-anchor="middle" x="279" y="-80" font-family="Helvetica,sans-Serif" font-size="10.00">internals/CoolSI114X.h</text>
</a>
</g>
</g>
<!-- Node5&#45;&gt;Node6 -->
<g id="edge7" class="edge"><title>Node5&#45;&gt;Node6</title>
<path fill="none" stroke="midnightblue" d="M297.848,-134.475C294.679,-125.904 289.696,-112.427 285.649,-101.483"/>
<polygon fill="midnightblue" stroke="midnightblue" points="288.897,-100.175 282.146,-92.0091 282.332,-102.602 288.897,-100.175"/>
</g>
<!-- Node7 -->
<g id="node8" class="node"><title>Node7</title>
<g id="a_node8"><a xlink:href="$d2/d3a/_cool_spark_fun_b_m_e280_8h.html" xlink:title="internals/CoolSparkFunBME280.h">
<polygon fill="white" stroke="black" points="0,-73 0,-92 164,-92 164,-73 0,-73"/>
<text text-anchor="middle" x="82" y="-80" font-family="Helvetica,sans-Serif" font-size="10.00">internals/CoolSparkFunBME280.h</text>
</a>
</g>
</g>
<!-- Node5&#45;&gt;Node7 -->
<g id="edge9" class="edge"><title>Node5&#45;&gt;Node7</title>
<path fill="none" stroke="midnightblue" d="M269.623,-134.475C231.081,-124.004 165.595,-106.212 123.076,-94.6601"/>
<polygon fill="midnightblue" stroke="midnightblue" points="123.887,-91.2534 113.319,-92.0091 122.052,-98.0086 123.887,-91.2534"/>
</g>
<!-- Node6&#45;&gt;Node4 -->
<g id="edge8" class="edge"><title>Node6&#45;&gt;Node4</title>
<path fill="none" stroke="midnightblue" d="M317.883,-72.93C328.871,-70.7391 340.868,-68.5636 352,-67 564.972,-37.0872 822.654,-22.83 919.595,-18.2325"/>
<polygon fill="midnightblue" stroke="midnightblue" points="919.983,-21.7183 929.809,-17.7559 919.656,-14.7259 919.983,-21.7183"/>
</g>
<!-- Node8 -->
<g id="node9" class="node"><title>Node8</title>
<polygon fill="white" stroke="#bfbfbf" points="57.5,-6 57.5,-25 106.5,-25 106.5,-6 57.5,-6"/>
<text text-anchor="middle" x="82" y="-13" font-family="Helvetica,sans-Serif" font-size="10.00">stdint.h</text>
</g>
<!-- Node7&#45;&gt;Node8 -->
<g id="edge10" class="edge"><title>Node7&#45;&gt;Node8</title>
<path fill="none" stroke="midnightblue" d="M82,-72.7338C82,-63.1826 82,-47.6183 82,-35.2829"/>
<polygon fill="midnightblue" stroke="midnightblue" points="85.5001,-35.1273 82,-25.1273 78.5001,-35.1273 85.5001,-35.1273"/>
</g>
<!-- Node9&#45;&gt;Node4 -->
<g id="edge12" class="edge"><title>Node9&#45;&gt;Node4</title>
<path fill="none" stroke="midnightblue" d="M541.307,-134.376C540.548,-118.418 541.472,-84.3363 561,-67 613.483,-20.4073 829.967,-15.876 919.729,-16.0575"/>
<polygon fill="midnightblue" stroke="midnightblue" points="919.762,-19.5575 929.777,-16.0989 919.791,-12.5576 919.762,-19.5575"/>
</g>
<!-- Node10 -->
<g id="node11" class="node"><title>Node10</title>
<polygon fill="white" stroke="#bfbfbf" points="432,-73 432,-92 514,-92 514,-73 432,-73"/>
<text text-anchor="middle" x="473" y="-80" font-family="Helvetica,sans-Serif" font-size="10.00">NeoPixelBus.h</text>
</g>
<!-- Node9&#45;&gt;Node10 -->
<g id="edge13" class="edge"><title>Node9&#45;&gt;Node10</title>
<path fill="none" stroke="midnightblue" d="M532.114,-134.475C521.354,-125.197 503.929,-110.171 490.779,-98.831"/>
<polygon fill="midnightblue" stroke="midnightblue" points="492.727,-95.889 482.868,-92.0091 488.155,-101.19 492.727,-95.889"/>
</g>
<!-- Node11&#45;&gt;Node4 -->
<g id="edge15" class="edge"><title>Node11&#45;&gt;Node4</title>
<path fill="none" stroke="midnightblue" d="M788.16,-134.357C805.479,-119.782 842.048,-89.6864 875,-67 894.512,-53.5664 917.644,-39.8088 934.689,-30.0524"/>
<polygon fill="midnightblue" stroke="midnightblue" points="936.499,-33.0497 943.47,-25.0714 933.045,-26.961 936.499,-33.0497"/>
</g>
<!-- Node12 -->
<g id="node13" class="node"><title>Node12</title>
<polygon fill="white" stroke="#bfbfbf" points="669.5,-73 669.5,-92 728.5,-92 728.5,-73 669.5,-73"/>
<text text-anchor="middle" x="699" y="-80" font-family="Helvetica,sans-Serif" font-size="10.00">TimeLib.h</text>
</g>
<!-- Node11&#45;&gt;Node12 -->
<g id="edge16" class="edge"><title>Node11&#45;&gt;Node12</title>
<path fill="none" stroke="midnightblue" d="M766.681,-134.475C754.127,-125.02 733.649,-109.596 718.501,-98.1871"/>
<polygon fill="midnightblue" stroke="midnightblue" points="720.391,-95.2295 710.298,-92.0091 716.18,-100.821 720.391,-95.2295"/>
</g>
<!-- Node13 -->
<g id="node14" class="node"><title>Node13</title>
<polygon fill="white" stroke="#bfbfbf" points="746.5,-73 746.5,-92 809.5,-92 809.5,-73 746.5,-73"/>
<text text-anchor="middle" x="778" y="-80" font-family="Helvetica,sans-Serif" font-size="10.00">WiFiUdp.h</text>
</g>
<!-- Node11&#45;&gt;Node13 -->
<g id="edge17" class="edge"><title>Node11&#45;&gt;Node13</title>
<path fill="none" stroke="midnightblue" d="M778,-134.475C778,-126.08 778,-112.981 778,-102.163"/>
<polygon fill="midnightblue" stroke="midnightblue" points="781.5,-102.009 778,-92.0091 774.5,-102.009 781.5,-102.009"/>
</g>
<!-- Node14 -->
<g id="node15" class="node"><title>Node14</title>
<polygon fill="white" stroke="#bfbfbf" points="570.5,-73 570.5,-92 651.5,-92 651.5,-73 570.5,-73"/>
<text text-anchor="middle" x="611" y="-80" font-family="Helvetica,sans-Serif" font-size="10.00">DS1337RTC.h</text>
</g>
<!-- Node11&#45;&gt;Node14 -->
<g id="edge18" class="edge"><title>Node11&#45;&gt;Node14</title>
<path fill="none" stroke="midnightblue" d="M754.073,-134.475C725.303,-124.225 676.844,-106.959 644.398,-95.3994"/>
<polygon fill="midnightblue" stroke="midnightblue" points="645.477,-92.0684 634.883,-92.0091 643.128,-98.6624 645.477,-92.0684"/>
</g>
<!-- Node15&#45;&gt;Node4 -->
<g id="edge20" class="edge"><title>Node15&#45;&gt;Node4</title>
<path fill="none" stroke="midnightblue" d="M1303.81,-134.49C1272.11,-125.928 1222.42,-112.018 1180,-98 1142.61,-85.645 1133.93,-80.6552 1097,-67 1061.2,-53.7628 1020.1,-38.748 992.135,-28.5554"/>
<polygon fill="midnightblue" stroke="midnightblue" points="993.052,-25.1647 982.458,-25.0306 990.656,-31.742 993.052,-25.1647"/>
</g>
<!-- Node16 -->
<g id="node17" class="node"><title>Node16</title>
<polygon fill="white" stroke="#bfbfbf" points="1496,-73 1496,-92 1582,-92 1582,-73 1496,-73"/>
<text text-anchor="middle" x="1539" y="-80" font-family="Helvetica,sans-Serif" font-size="10.00">ESP8266WiFi.h</text>
</g>
<!-- Node15&#45;&gt;Node16 -->
<g id="edge21" class="edge"><title>Node15&#45;&gt;Node16</title>
<path fill="none" stroke="midnightblue" d="M1365.08,-134.475C1400.58,-124.07 1460.75,-106.437 1500.17,-94.8801"/>
<polygon fill="midnightblue" stroke="midnightblue" points="1501.36,-98.1806 1509.97,-92.0091 1499.39,-91.4632 1501.36,-98.1806"/>
</g>
<!-- Node17 -->
<g id="node18" class="node"><title>Node17</title>
<g id="a_node18"><a xlink:href="$d5/dfb/_cool_pub_sub_client_8h.html" xlink:title="internals/CoolPubSubClient.h">
<polygon fill="white" stroke="black" points="1332.5,-73 1332.5,-92 1477.5,-92 1477.5,-73 1332.5,-73"/>
<text text-anchor="middle" x="1405" y="-80" font-family="Helvetica,sans-Serif" font-size="10.00">internals/CoolPubSubClient.h</text>
</a>
</g>
</g>
<!-- Node15&#45;&gt;Node17 -->
<g id="edge22" class="edge"><title>Node15&#45;&gt;Node17</title>
<path fill="none" stroke="midnightblue" d="M1345.89,-134.475C1356.65,-125.197 1374.07,-110.171 1387.22,-98.831"/>
<polygon fill="midnightblue" stroke="midnightblue" points="1389.84,-101.19 1395.13,-92.0091 1385.27,-95.889 1389.84,-101.19"/>
</g>
<!-- Node17&#45;&gt;Node4 -->
<g id="edge23" class="edge"><title>Node17&#45;&gt;Node4</title>
<path fill="none" stroke="midnightblue" d="M1358.65,-72.994C1347.02,-70.946 1334.57,-68.8245 1323,-67 1205.15,-48.4125 1065.25,-30.0347 998.396,-21.4779"/>
<polygon fill="midnightblue" stroke="midnightblue" points="998.67,-17.9845 988.308,-20.1903 997.784,-24.9282 998.67,-17.9845"/>
</g>
<!-- Node18 -->
<g id="node19" class="node"><title>Node18</title>
<polygon fill="white" stroke="#bfbfbf" points="1337.5,-6 1337.5,-25 1408.5,-25 1408.5,-6 1337.5,-6"/>
<text text-anchor="middle" x="1373" y="-13" font-family="Helvetica,sans-Serif" font-size="10.00">IPAddress.h</text>
</g>
<!-- Node17&#45;&gt;Node18 -->
<g id="edge24" class="edge"><title>Node17&#45;&gt;Node18</title>
<path fill="none" stroke="midnightblue" d="M1400.68,-72.7338C1395.84,-62.8903 1387.85,-46.6598 1381.69,-34.1594"/>
<polygon fill="midnightblue" stroke="midnightblue" points="1384.8,-32.5531 1377.25,-25.1273 1378.52,-35.6449 1384.8,-32.5531"/>
</g>
<!-- Node19 -->
<g id="node20" class="node"><title>Node19</title>
<polygon fill="white" stroke="#bfbfbf" points="1427,-6 1427,-25 1477,-25 1477,-6 1427,-6"/>
<text text-anchor="middle" x="1452" y="-13" font-family="Helvetica,sans-Serif" font-size="10.00">Client.h</text>
</g>
<!-- Node17&#45;&gt;Node19 -->
<g id="edge25" class="edge"><title>Node17&#45;&gt;Node19</title>
<path fill="none" stroke="midnightblue" d="M1411.34,-72.7338C1418.6,-62.6953 1430.66,-46.0145 1439.76,-33.4213"/>
<polygon fill="midnightblue" stroke="midnightblue" points="1442.74,-35.2816 1445.76,-25.1273 1437.07,-31.18 1442.74,-35.2816"/>
</g>
<!-- Node20 -->
<g id="node21" class="node"><title>Node20</title>
<polygon fill="white" stroke="#bfbfbf" points="1495,-6 1495,-25 1551,-25 1551,-6 1495,-6"/>
<text text-anchor="middle" x="1523" y="-13" font-family="Helvetica,sans-Serif" font-size="10.00">Stream.h</text>
</g>
<!-- Node17&#45;&gt;Node20 -->
<g id="edge26" class="edge"><title>Node17&#45;&gt;Node20</title>
<path fill="none" stroke="midnightblue" d="M1420.91,-72.7338C1440.82,-61.7695 1475.11,-42.8809 1498.4,-30.0495"/>
<polygon fill="midnightblue" stroke="midnightblue" points="1500.27,-33.0179 1507.34,-25.1273 1496.89,-26.8866 1500.27,-33.0179"/>
</g>
<!-- Node21&#45;&gt;Node4 -->
<g id="edge28" class="edge"><title>Node21&#45;&gt;Node4</title>
<path fill="none" stroke="midnightblue" d="M865.123,-134.295C869.082,-119.365 878.698,-88.4159 895,-67 906.075,-52.451 922.27,-39.7256 935.598,-30.6884"/>
<polygon fill="midnightblue" stroke="midnightblue" points="937.797,-33.433 944.269,-25.044 933.978,-27.5665 937.797,-33.433"/>
</g>
<!-- Node22&#45;&gt;Node4 -->
<g id="edge32" class="edge"><title>Node22&#45;&gt;Node4</title>
<path fill="none" stroke="midnightblue" d="M977.788,-134.499C993.721,-127.413 1013.46,-115.605 1023,-98 1029.56,-85.8855 1029.01,-79.3979 1023,-67 1015.3,-51.1198 999.92,-38.7288 986.166,-30.1953"/>
<polygon fill="midnightblue" stroke="midnightblue" points="987.866,-27.1353 977.459,-25.1468 984.354,-33.1909 987.866,-27.1353"/>
</g>
<!-- Node23 -->
<g id="node24" class="node"><title>Node23</title>
<g id="a_node24"><a xlink:href="$df/d06/_cool_adafruit___a_d_s1015_8h.html" xlink:title="internals/CoolAdafruit\l_ADS1015.h">
<polygon fill="white" stroke="black" points="904,-67.5 904,-97.5 1014,-97.5 1014,-67.5 904,-67.5"/>
<text text-anchor="start" x="912" y="-85.5" font-family="Helvetica,sans-Serif" font-size="10.00">internals/CoolAdafruit</text>
<text text-anchor="middle" x="959" y="-74.5" font-family="Helvetica,sans-Serif" font-size="10.00">_ADS1015.h</text>
</a>
</g>
</g>
<!-- Node22&#45;&gt;Node23 -->
<g id="edge30" class="edge"><title>Node22&#45;&gt;Node23</title>
<path fill="none" stroke="midnightblue" d="M954.716,-134.475C955.305,-127.471 956.169,-117.192 956.967,-107.696"/>
<polygon fill="midnightblue" stroke="midnightblue" points="960.472,-107.781 957.822,-97.523 953.496,-107.195 960.472,-107.781"/>
</g>
<!-- Node23&#45;&gt;Node4 -->
<g id="edge31" class="edge"><title>Node23&#45;&gt;Node4</title>
<path fill="none" stroke="midnightblue" d="M959,-67.396C959,-58.0638 959,-45.7143 959,-35.5173"/>
<polygon fill="midnightblue" stroke="midnightblue" points="962.5,-35.1945 959,-25.1945 955.5,-35.1946 962.5,-35.1945"/>
</g>
<!-- Node24&#45;&gt;Node4 -->
<g id="edge34" class="edge"><title>Node24&#45;&gt;Node4</title>
<path fill="none" stroke="midnightblue" d="M1157.02,-134.44C1137.9,-119.729 1097,-89.1027 1060,-67 1036.32,-52.8541 1008.15,-39.0015 987.591,-29.3937"/>
<polygon fill="midnightblue" stroke="midnightblue" points="988.987,-26.1833 978.442,-25.164 986.05,-32.5372 988.987,-26.1833"/>
</g>
<!-- Node25 -->
<g id="node26" class="node"><title>Node25</title>
<g id="a_node26"><a xlink:href="$d6/d20/_external_sensor_8h.html" xlink:title="ExternalSensor Header File. ">
<polygon fill="white" stroke="black" points="1222,-73 1222,-92 1314,-92 1314,-73 1222,-73"/>
<text text-anchor="middle" x="1268" y="-80" font-family="Helvetica,sans-Serif" font-size="10.00">ExternalSensor.h</text>
</a>
</g>
</g>
<!-- Node24&#45;&gt;Node25 -->
<g id="edge35" class="edge"><title>Node24&#45;&gt;Node25</title>
<path fill="none" stroke="midnightblue" d="M1182.33,-134.475C1198.66,-124.755 1225.6,-108.727 1244.91,-97.2372"/>
<polygon fill="midnightblue" stroke="midnightblue" points="1246.89,-100.13 1253.7,-92.0091 1243.32,-94.1146 1246.89,-100.13"/>
</g>
<!-- Node25&#45;&gt;Node4 -->
<g id="edge38" class="edge"><title>Node25&#45;&gt;Node4</title>
<path fill="none" stroke="midnightblue" d="M1233.78,-72.9995C1225.37,-70.9725 1216.37,-68.8593 1208,-67 1134.03,-50.5673 1047.22,-33.4494 998.099,-23.965"/>
<polygon fill="midnightblue" stroke="midnightblue" points="998.69,-20.5146 988.208,-22.06 997.366,-27.3882 998.69,-20.5146"/>
</g>
<!-- Node26 -->
<g id="node27" class="node"><title>Node26</title>
<g id="a_node27"><a xlink:href="$d0/d08/_cool_n_d_i_r___i2_c_8h.html" xlink:title="internals/CoolNDIR\l_I2C.h">
<polygon fill="white" stroke="black" points="1217,-0.5 1217,-30.5 1319,-30.5 1319,-0.5 1217,-0.5"/>
<text text-anchor="start" x="1225" y="-18.5" font-family="Helvetica,sans-Serif" font-size="10.00">internals/CoolNDIR</text>
<text text-anchor="middle" x="1268" y="-7.5" font-family="Helvetica,sans-Serif" font-size="10.00">_I2C.h</text>
</a>
</g>
</g>
<!-- Node25&#45;&gt;Node26 -->
<g id="edge36" class="edge"><title>Node25&#45;&gt;Node26</title>
<path fill="none" stroke="midnightblue" d="M1268,-72.7338C1268,-64.5406 1268,-51.9225 1268,-40.7136"/>
<polygon fill="midnightblue" stroke="midnightblue" points="1271.5,-40.589 1268,-30.589 1264.5,-40.5891 1271.5,-40.589"/>
</g>
<!-- Node27 -->
<g id="node28" class="node"><title>Node27</title>
<polygon fill="white" stroke="#bfbfbf" points="1092.5,-6 1092.5,-25 1199.5,-25 1199.5,-6 1092.5,-6"/>
<text text-anchor="middle" x="1146" y="-13" font-family="Helvetica,sans-Serif" font-size="10.00">DallasTemperature.h</text>
</g>
<!-- Node25&#45;&gt;Node27 -->
<g id="edge37" class="edge"><title>Node25&#45;&gt;Node27</title>
<path fill="none" stroke="midnightblue" d="M1251.8,-72.8685C1231.2,-61.8932 1195.41,-42.8243 1171.22,-29.9385"/>
<polygon fill="midnightblue" stroke="midnightblue" points="1172.74,-26.7804 1162.27,-25.1672 1169.45,-32.9583 1172.74,-26.7804"/>
</g>
<!-- Node28&#45;&gt;Node4 -->
<g id="edge40" class="edge"><title>Node28&#45;&gt;Node4</title>
<path fill="none" stroke="midnightblue" d="M1564.95,-143.085C1498.74,-142.465 1339.44,-136.687 1213,-98 1184.3,-89.218 1181.03,-77.7358 1153,-67 1100.83,-47.0176 1037.8,-32.2388 998.053,-23.9948"/>
<polygon fill="midnightblue" stroke="midnightblue" points="998.721,-20.559 988.224,-21.9913 997.323,-27.418 998.721,-20.559"/>
</g>
<!-- Node28&#45;&gt;Node16 -->
<g id="edge41" class="edge"><title>Node28&#45;&gt;Node16</title>
<path fill="none" stroke="midnightblue" d="M1587.83,-134.475C1579.11,-125.373 1565.1,-110.741 1554.31,-99.483"/>
<polygon fill="midnightblue" stroke="midnightblue" points="1556.6,-96.809 1547.15,-92.0091 1551.54,-101.651 1556.6,-96.809"/>
</g>
<!-- Node29 -->
<g id="node30" class="node"><title>Node29</title>
<polygon fill="white" stroke="#bfbfbf" points="1600.5,-73 1600.5,-92 1707.5,-92 1707.5,-73 1600.5,-73"/>
<text text-anchor="middle" x="1654" y="-80" font-family="Helvetica,sans-Serif" font-size="10.00">ESP8266WiFiMulti.h</text>
</g>
<!-- Node28&#45;&gt;Node29 -->
<g id="edge42" class="edge"><title>Node28&#45;&gt;Node29</title>
<path fill="none" stroke="midnightblue" d="M1604.31,-134.475C1613.18,-125.373 1627.45,-110.741 1638.42,-99.483"/>
<polygon fill="midnightblue" stroke="midnightblue" points="1641.23,-101.613 1645.71,-92.0091 1636.22,-96.7268 1641.23,-101.613"/>
</g>
<!-- Node30 -->
<g id="node31" class="node"><title>Node30</title>
<polygon fill="white" stroke="#bfbfbf" points="1725.5,-73 1725.5,-92 1800.5,-92 1800.5,-73 1725.5,-73"/>
<text text-anchor="middle" x="1763" y="-80" font-family="Helvetica,sans-Serif" font-size="10.00">DNSServer.h</text>
</g>
<!-- Node28&#45;&gt;Node30 -->
<g id="edge43" class="edge"><title>Node28&#45;&gt;Node30</title>
<path fill="none" stroke="midnightblue" d="M1619.93,-134.475C1648.7,-124.225 1697.16,-106.959 1729.6,-95.3994"/>
<polygon fill="midnightblue" stroke="midnightblue" points="1730.87,-98.6624 1739.12,-92.0091 1728.52,-92.0684 1730.87,-98.6624"/>
</g>
<!-- Node31 -->
<g id="node32" class="node"><title>Node31</title>
<polygon fill="white" stroke="#bfbfbf" points="1818.5,-73 1818.5,-92 1933.5,-92 1933.5,-73 1818.5,-73"/>
<text text-anchor="middle" x="1876" y="-80" font-family="Helvetica,sans-Serif" font-size="10.00">ESP8266WebServer.h</text>
</g>
<!-- Node28&#45;&gt;Node31 -->
<g id="edge44" class="edge"><title>Node28&#45;&gt;Node31</title>
<path fill="none" stroke="midnightblue" d="M1627.05,-136.49C1668.53,-127.781 1744.32,-111.831 1809,-98 1814.74,-96.7724 1820.76,-95.4795 1826.73,-94.192"/>
<polygon fill="midnightblue" stroke="midnightblue" points="1827.65,-97.5748 1836.68,-92.043 1826.17,-90.7325 1827.65,-97.5748"/>
</g>
</g>
</svg>
