<?xml version="1.0" encoding="UTF-8" standalone="no"?>
<!DOCTYPE svg PUBLIC "-//W3C//DTD SVG 1.1//EN"
 "http://www.w3.org/Graphics/SVG/1.1/DTD/svg11.dtd">
<!-- Generated by graphviz version 2.38.0 (20140413.2041)
 -->
<!-- Title: CoolBoard.cpp Pages: 1 -->
<svg width="2111pt" height="274pt"
 viewBox="0.00 0.00 2111.00 274.00" xmlns="http://www.w3.org/2000/svg" xmlns:xlink="http://www.w3.org/1999/xlink">
<g id="graph0" class="graph" transform="scale(1 1) rotate(0) translate(4 270)">
<title>CoolBoard.cpp</title>
<polygon fill="white" stroke="none" points="-4,4 -4,-270 2107,-270 2107,4 -4,4"/>
<!-- Node0 -->
<g id="node1" class="node"><title>Node0</title>
<polygon fill="#bfbfbf" stroke="black" points="644.5,-246.5 644.5,-265.5 725.5,-265.5 725.5,-246.5 644.5,-246.5"/>
<text text-anchor="middle" x="685" y="-253.5" font-family="Helvetica,sans-Serif" font-size="10.00">CoolBoard.cpp</text>
</g>
<!-- Node1 -->
<g id="node2" class="node"><title>Node1</title>
<polygon fill="white" stroke="#bfbfbf" points="0,-190.5 0,-209.5 38,-209.5 38,-190.5 0,-190.5"/>
<text text-anchor="middle" x="19" y="-197.5" font-family="Helvetica,sans-Serif" font-size="10.00">FS.h</text>
</g>
<!-- Node0&#45;&gt;Node1 -->
<g id="edge1" class="edge"><title>Node0&#45;&gt;Node1</title>
<path fill="none" stroke="midnightblue" d="M644.312,-254.849C543.31,-253.883 273.294,-247.67 52,-210 50.7157,-209.781 49.4092,-209.534 48.0938,-209.265"/>
<polygon fill="midnightblue" stroke="midnightblue" points="48.5921,-205.786 38.0534,-206.875 46.9713,-212.595 48.5921,-205.786"/>
</g>
<!-- Node2 -->
<g id="node3" class="node"><title>Node2</title>
<g id="a_node3"><a xlink:href="$d5/d51/_cool_board_8h.html" xlink:title="CoolBoard Header file. ">
<polygon fill="white" stroke="black" points="603.5,-190.5 603.5,-209.5 674.5,-209.5 674.5,-190.5 603.5,-190.5"/>
<text text-anchor="middle" x="639" y="-197.5" font-family="Helvetica,sans-Serif" font-size="10.00">CoolBoard.h</text>
</a>
</g>
</g>
<!-- Node0&#45;&gt;Node2 -->
<g id="edge2" class="edge"><title>Node0&#45;&gt;Node2</title>
<path fill="none" stroke="midnightblue" d="M677.404,-246.083C670.773,-238.298 660.979,-226.801 652.942,-217.367"/>
<polygon fill="midnightblue" stroke="midnightblue" points="655.604,-215.094 646.455,-209.751 650.275,-219.633 655.604,-215.094"/>
</g>
<!-- Node4 -->
<g id="node5" class="node"><title>Node4</title>
<polygon fill="white" stroke="#bfbfbf" points="960,-6 960,-25 1018,-25 1018,-6 960,-6"/>
<text text-anchor="middle" x="989" y="-13" font-family="Helvetica,sans-Serif" font-size="10.00">Arduino.h</text>
</g>
<!-- Node0&#45;&gt;Node4 -->
<g id="edge49" class="edge"><title>Node0&#45;&gt;Node4</title>
<path fill="none" stroke="midnightblue" d="M644.317,-255.246C484.904,-254.992 -80.4788,-241.981 85,-67 115.134,-35.1359 779.922,-20.4463 949.771,-17.2053"/>
<polygon fill="midnightblue" stroke="midnightblue" points="949.846,-20.7046 959.778,-17.0167 949.714,-13.7058 949.846,-20.7046"/>
</g>
<!-- Node33 -->
<g id="node34" class="node"><title>Node33</title>
<polygon fill="white" stroke="#bfbfbf" points="692.5,-190.5 692.5,-209.5 771.5,-209.5 771.5,-190.5 692.5,-190.5"/>
<text text-anchor="middle" x="732" y="-197.5" font-family="Helvetica,sans-Serif" font-size="10.00">ArduinoJson.h</text>
</g>
<!-- Node0&#45;&gt;Node33 -->
<g id="edge48" class="edge"><title>Node0&#45;&gt;Node33</title>
<path fill="none" stroke="midnightblue" d="M692.761,-246.083C699.537,-238.298 709.543,-226.801 717.755,-217.367"/>
<polygon fill="midnightblue" stroke="midnightblue" points="720.458,-219.592 724.383,-209.751 715.178,-214.996 720.458,-219.592"/>
</g>
<!-- Node34 -->
<g id="node35" class="node"><title>Node34</title>
<polygon fill="white" stroke="#bfbfbf" points="789.5,-190.5 789.5,-209.5 834.5,-209.5 834.5,-190.5 789.5,-190.5"/>
<text text-anchor="middle" x="812" y="-197.5" font-family="Helvetica,sans-Serif" font-size="10.00">Wire.h</text>
</g>
<!-- Node0&#45;&gt;Node34 -->
<g id="edge50" class="edge"><title>Node0&#45;&gt;Node34</title>
<path fill="none" stroke="midnightblue" d="M705.124,-246.444C726.024,-237.557 758.935,-223.563 782.716,-213.451"/>
<polygon fill="midnightblue" stroke="midnightblue" points="784.138,-216.65 791.971,-209.516 781.398,-210.208 784.138,-216.65"/>
</g>
<!-- Node35 -->
<g id="node36" class="node"><title>Node35</title>
<polygon fill="white" stroke="#bfbfbf" points="853,-190.5 853,-209.5 905,-209.5 905,-190.5 853,-190.5"/>
<text text-anchor="middle" x="879" y="-197.5" font-family="Helvetica,sans-Serif" font-size="10.00">memory</text>
</g>
<!-- Node0&#45;&gt;Node35 -->
<g id="edge51" class="edge"><title>Node0&#45;&gt;Node35</title>
<path fill="none" stroke="midnightblue" d="M715.74,-246.444C750.311,-236.821 806.393,-221.21 842.988,-211.024"/>
<polygon fill="midnightblue" stroke="midnightblue" points="844.064,-214.358 852.759,-208.304 842.187,-207.614 844.064,-214.358"/>
</g>
<!-- Node3 -->
<g id="node4" class="node"><title>Node3</title>
<g id="a_node4"><a xlink:href="$d9/d41/_cool_file_system_8h.html" xlink:title="CoolFileSystem Header file. ">
<polygon fill="white" stroke="black" points="163.5,-134.5 163.5,-153.5 258.5,-153.5 258.5,-134.5 163.5,-134.5"/>
<text text-anchor="middle" x="211" y="-141.5" font-family="Helvetica,sans-Serif" font-size="10.00">CoolFileSystem.h</text>
</a>
</g>
</g>
<!-- Node2&#45;&gt;Node3 -->
<g id="edge3" class="edge"><title>Node2&#45;&gt;Node3</title>
<path fill="none" stroke="midnightblue" d="M603.39,-195.111C538.908,-187.976 398.275,-171.989 268.672,-154.047"/>
<polygon fill="midnightblue" stroke="midnightblue" points="268.954,-150.553 258.567,-152.641 267.989,-157.486 268.954,-150.553"/>
</g>
<!-- Node2&#45;&gt;Node4 -->
<g id="edge47" class="edge"><title>Node2&#45;&gt;Node4</title>
<path fill="none" stroke="midnightblue" d="M603.354,-196.357C548.246,-191.522 446.087,-179.329 421,-154 393.574,-126.309 383.665,-95.7315 410,-67 446.395,-27.2926 824.889,-18.6911 949.48,-16.93"/>
<polygon fill="midnightblue" stroke="midnightblue" points="949.76,-20.4266 959.712,-16.7928 949.666,-13.4273 949.76,-20.4266"/>
</g>
<!-- Node5 -->
<g id="node6" class="node"><title>Node5</title>
<g id="a_node6"><a xlink:href="$d7/df3/_cool_board_sensors_8h.html" xlink:title="CoolBoardSensors Header file. ">
<polygon fill="white" stroke="black" points="430.5,-134.5 430.5,-153.5 537.5,-153.5 537.5,-134.5 430.5,-134.5"/>
<text text-anchor="middle" x="484" y="-141.5" font-family="Helvetica,sans-Serif" font-size="10.00">CoolBoardSensors.h</text>
</a>
</g>
</g>
<!-- Node2&#45;&gt;Node5 -->
<g id="edge5" class="edge"><title>Node2&#45;&gt;Node5</title>
<path fill="none" stroke="midnightblue" d="M614.44,-190.444C588.477,-181.399 547.332,-167.064 518.203,-156.916"/>
<polygon fill="midnightblue" stroke="midnightblue" points="519.04,-153.501 508.445,-153.516 516.737,-160.112 519.04,-153.501"/>
</g>
<!-- Node9 -->
<g id="node10" class="node"><title>Node9</title>
<g id="a_node10"><a xlink:href="$d0/da6/_cool_board_led_8h.html" xlink:title="CoolBoardLed Header file. ">
<polygon fill="white" stroke="black" points="596,-134.5 596,-153.5 682,-153.5 682,-134.5 596,-134.5"/>
<text text-anchor="middle" x="639" y="-141.5" font-family="Helvetica,sans-Serif" font-size="10.00">CoolBoardLed.h</text>
</a>
</g>
</g>
<!-- Node2&#45;&gt;Node9 -->
<g id="edge11" class="edge"><title>Node2&#45;&gt;Node9</title>
<path fill="none" stroke="midnightblue" d="M639,-190.083C639,-183.006 639,-172.861 639,-163.986"/>
<polygon fill="midnightblue" stroke="midnightblue" points="642.5,-163.751 639,-153.751 635.5,-163.751 642.5,-163.751"/>
</g>
<!-- Node11 -->
<g id="node12" class="node"><title>Node11</title>
<g id="a_node12"><a xlink:href="$d4/daa/_cool_time_8h.html" xlink:title="CoolTime Header file. ">
<polygon fill="white" stroke="black" points="797.5,-134.5 797.5,-153.5 864.5,-153.5 864.5,-134.5 797.5,-134.5"/>
<text text-anchor="middle" x="831" y="-141.5" font-family="Helvetica,sans-Serif" font-size="10.00">CoolTime.h</text>
</a>
</g>
</g>
<!-- Node2&#45;&gt;Node11 -->
<g id="edge14" class="edge"><title>Node2&#45;&gt;Node11</title>
<path fill="none" stroke="midnightblue" d="M669.423,-190.444C702.285,-181.201 754.785,-166.436 790.974,-156.257"/>
<polygon fill="midnightblue" stroke="midnightblue" points="792.04,-159.593 800.719,-153.516 790.145,-152.855 792.04,-159.593"/>
</g>
<!-- Node15 -->
<g id="node16" class="node"><title>Node15</title>
<g id="a_node16"><a xlink:href="$de/d2e/_cool_m_q_t_t_8h.html" xlink:title="CoolMQTT Header file. ">
<polygon fill="white" stroke="black" points="1601.5,-134.5 1601.5,-153.5 1674.5,-153.5 1674.5,-134.5 1601.5,-134.5"/>
<text text-anchor="middle" x="1638" y="-141.5" font-family="Helvetica,sans-Serif" font-size="10.00">CoolMQTT.h</text>
</a>
</g>
</g>
<!-- Node2&#45;&gt;Node15 -->
<g id="edge19" class="edge"><title>Node2&#45;&gt;Node15</title>
<path fill="none" stroke="midnightblue" d="M674.943,-191.176C677.662,-190.729 680.369,-190.329 683,-190 773.43,-178.69 1411.59,-153.665 1591.11,-146.782"/>
<polygon fill="midnightblue" stroke="midnightblue" points="1591.43,-150.273 1601.29,-146.393 1591.16,-143.278 1591.43,-150.273"/>
</g>
<!-- Node21 -->
<g id="node22" class="node"><title>Node21</title>
<g id="a_node22"><a xlink:href="$db/d6c/_jetpack_8h.html" xlink:title="Jetpack Header file. ">
<polygon fill="white" stroke="black" points="908.5,-134.5 908.5,-153.5 967.5,-153.5 967.5,-134.5 908.5,-134.5"/>
<text text-anchor="middle" x="938" y="-141.5" font-family="Helvetica,sans-Serif" font-size="10.00">Jetpack.h</text>
</a>
</g>
</g>
<!-- Node2&#45;&gt;Node21 -->
<g id="edge27" class="edge"><title>Node2&#45;&gt;Node21</title>
<path fill="none" stroke="midnightblue" d="M674.525,-191.648C677.391,-191.081 680.243,-190.525 683,-190 758.86,-175.551 847.731,-160.231 897.995,-151.715"/>
<polygon fill="midnightblue" stroke="midnightblue" points="898.839,-155.122 908.116,-150.004 897.672,-148.22 898.839,-155.122"/>
</g>
<!-- Node22 -->
<g id="node23" class="node"><title>Node22</title>
<g id="a_node23"><a xlink:href="$d7/d31/_irene3000_8h.html" xlink:title="Irene3000 Header file. ">
<polygon fill="white" stroke="black" points="1012,-134.5 1012,-153.5 1080,-153.5 1080,-134.5 1012,-134.5"/>
<text text-anchor="middle" x="1046" y="-141.5" font-family="Helvetica,sans-Serif" font-size="10.00">Irene3000.h</text>
</a>
</g>
</g>
<!-- Node2&#45;&gt;Node22 -->
<g id="edge29" class="edge"><title>Node2&#45;&gt;Node22</title>
<path fill="none" stroke="midnightblue" d="M674.975,-191.399C677.686,-190.9 680.384,-190.428 683,-190 812.483,-168.837 845.823,-170.366 976,-154 984.297,-152.957 993.146,-151.83 1001.66,-150.739"/>
<polygon fill="midnightblue" stroke="midnightblue" points="1002.35,-154.179 1011.83,-149.433 1001.46,-147.236 1002.35,-154.179"/>
</g>
<!-- Node24 -->
<g id="node25" class="node"><title>Node24</title>
<g id="a_node25"><a xlink:href="$d7/dcc/_external_sensors_8h.html" xlink:title="ExternalSensors header file. ">
<polygon fill="white" stroke="black" points="1695.5,-134.5 1695.5,-153.5 1792.5,-153.5 1792.5,-134.5 1695.5,-134.5"/>
<text text-anchor="middle" x="1744" y="-141.5" font-family="Helvetica,sans-Serif" font-size="10.00">ExternalSensors.h</text>
</a>
</g>
</g>
<!-- Node2&#45;&gt;Node24 -->
<g id="edge33" class="edge"><title>Node2&#45;&gt;Node24</title>
<path fill="none" stroke="midnightblue" d="M674.939,-191.143C677.658,-190.704 680.368,-190.314 683,-190 1125.04,-137.213 1240.72,-195.084 1684,-154 1684.34,-153.968 1684.69,-153.936 1685.04,-153.902"/>
<polygon fill="midnightblue" stroke="midnightblue" points="1685.71,-157.35 1695.27,-152.781 1684.94,-150.392 1685.71,-157.35"/>
</g>
<!-- Node28 -->
<g id="node29" class="node"><title>Node28</title>
<g id="a_node29"><a xlink:href="$dc/d38/_cool_wifi_8h.html" xlink:title="CoolWifi Header file. ">
<polygon fill="white" stroke="black" points="1317,-134.5 1317,-153.5 1379,-153.5 1379,-134.5 1317,-134.5"/>
<text text-anchor="middle" x="1348" y="-141.5" font-family="Helvetica,sans-Serif" font-size="10.00">CoolWifi.h</text>
</a>
</g>
</g>
<!-- Node2&#45;&gt;Node28 -->
<g id="edge39" class="edge"><title>Node2&#45;&gt;Node28</title>
<path fill="none" stroke="midnightblue" d="M674.951,-191.237C677.668,-190.776 680.373,-190.356 683,-190 917.47,-158.233 1201.64,-148.504 1306.53,-145.874"/>
<polygon fill="midnightblue" stroke="midnightblue" points="1306.78,-149.369 1316.69,-145.628 1306.61,-142.371 1306.78,-149.369"/>
</g>
<!-- Node32 -->
<g id="node33" class="node"><title>Node32</title>
<g id="a_node33"><a xlink:href="$d1/d25/_cool_board_actor_8h.html" xlink:title="CoolBoardActor Header file. ">
<polygon fill="white" stroke="black" points="277,-134.5 277,-153.5 371,-153.5 371,-134.5 277,-134.5"/>
<text text-anchor="middle" x="324" y="-141.5" font-family="Helvetica,sans-Serif" font-size="10.00">CoolBoardActor.h</text>
</a>
</g>
</g>
<!-- Node2&#45;&gt;Node32 -->
<g id="edge45" class="edge"><title>Node2&#45;&gt;Node32</title>
<path fill="none" stroke="midnightblue" d="M603.478,-192.91C549.412,-183.642 445.935,-165.903 381.19,-154.804"/>
<polygon fill="midnightblue" stroke="midnightblue" points="381.593,-151.322 371.145,-153.082 380.41,-158.221 381.593,-151.322"/>
</g>
<!-- Node3&#45;&gt;Node4 -->
<g id="edge4" class="edge"><title>Node3&#45;&gt;Node4</title>
<path fill="none" stroke="midnightblue" d="M222.583,-134.247C247.05,-115.942 303.586,-74.6772 326,-67 442.462,-27.1087 825.068,-18.6343 949.509,-16.9169"/>
<polygon fill="midnightblue" stroke="midnightblue" points="949.766,-20.4139 959.719,-16.7833 949.674,-13.4145 949.766,-20.4139"/>
</g>
<!-- Node5&#45;&gt;Node4 -->
<g id="edge6" class="edge"><title>Node5&#45;&gt;Node4</title>
<path fill="none" stroke="midnightblue" d="M462.192,-134.447C447.055,-127.221 428.045,-115.264 419,-98 412.606,-85.7959 409.697,-77.1632 419,-67 454.766,-27.9251 826.585,-18.9068 949.673,-16.9851"/>
<polygon fill="midnightblue" stroke="midnightblue" points="949.84,-20.4831 959.787,-16.8346 949.736,-13.4839 949.84,-20.4831"/>
</g>
<!-- Node6 -->
<g id="node7" class="node"><title>Node6</title>
<g id="a_node7"><a xlink:href="$d1/dd7/_cool_s_i114_x_8h.html" xlink:title="internals/CoolSI114X.h">
<polygon fill="white" stroke="black" points="428.5,-73 428.5,-92 545.5,-92 545.5,-73 428.5,-73"/>
<text text-anchor="middle" x="487" y="-80" font-family="Helvetica,sans-Serif" font-size="10.00">internals/CoolSI114X.h</text>
</a>
</g>
</g>
<!-- Node5&#45;&gt;Node6 -->
<g id="edge7" class="edge"><title>Node5&#45;&gt;Node6</title>
<path fill="none" stroke="midnightblue" d="M484.43,-134.475C484.853,-126.08 485.514,-112.981 486.059,-102.163"/>
<polygon fill="midnightblue" stroke="midnightblue" points="489.563,-102.173 486.571,-92.0091 482.572,-101.82 489.563,-102.173"/>
</g>
<!-- Node7 -->
<g id="node8" class="node"><title>Node7</title>
<g id="a_node8"><a xlink:href="$d2/d3a/_cool_spark_fun_b_m_e280_8h.html" xlink:title="internals/CoolSparkFunBME280.h">
<polygon fill="white" stroke="black" points="94,-73 94,-92 258,-92 258,-73 94,-73"/>
<text text-anchor="middle" x="176" y="-80" font-family="Helvetica,sans-Serif" font-size="10.00">internals/CoolSparkFunBME280.h</text>
</a>
</g>
</g>
<!-- Node5&#45;&gt;Node7 -->
<g id="edge9" class="edge"><title>Node5&#45;&gt;Node7</title>
<path fill="none" stroke="midnightblue" d="M439.871,-134.475C384.522,-123.783 289.664,-105.458 230.029,-93.9374"/>
<polygon fill="midnightblue" stroke="midnightblue" points="230.529,-90.4694 220.047,-92.0091 229.202,-97.3424 230.529,-90.4694"/>
</g>
<!-- Node6&#45;&gt;Node4 -->
<g id="edge8" class="edge"><title>Node6&#45;&gt;Node4</title>
<path fill="none" stroke="midnightblue" d="M523.936,-72.9623C533.978,-70.8224 544.876,-68.6647 555,-67 699.763,-43.1977 873.501,-26.5368 949.81,-19.8121"/>
<polygon fill="midnightblue" stroke="midnightblue" points="950.26,-23.2862 959.918,-18.9295 949.651,-16.3128 950.26,-23.2862"/>
</g>
<!-- Node8 -->
<g id="node9" class="node"><title>Node8</title>
<polygon fill="white" stroke="#bfbfbf" points="151.5,-6 151.5,-25 200.5,-25 200.5,-6 151.5,-6"/>
<text text-anchor="middle" x="176" y="-13" font-family="Helvetica,sans-Serif" font-size="10.00">stdint.h</text>
</g>
<!-- Node7&#45;&gt;Node8 -->
<g id="edge10" class="edge"><title>Node7&#45;&gt;Node8</title>
<path fill="none" stroke="midnightblue" d="M176,-72.7338C176,-63.1826 176,-47.6183 176,-35.2829"/>
<polygon fill="midnightblue" stroke="midnightblue" points="179.5,-35.1273 176,-25.1273 172.5,-35.1273 179.5,-35.1273"/>
</g>
<!-- Node9&#45;&gt;Node4 -->
<g id="edge12" class="edge"><title>Node9&#45;&gt;Node4</title>
<path fill="none" stroke="midnightblue" d="M642.504,-134.225C649.468,-118.017 666.687,-83.5343 693,-67 735.09,-40.5522 878.739,-25.4837 949.274,-19.5179"/>
<polygon fill="midnightblue" stroke="midnightblue" points="949.857,-22.9818 959.535,-18.6708 949.281,-16.0056 949.857,-22.9818"/>
</g>
<!-- Node10 -->
<g id="node11" class="node"><title>Node10</title>
<polygon fill="white" stroke="#bfbfbf" points="564,-73 564,-92 646,-92 646,-73 564,-73"/>
<text text-anchor="middle" x="605" y="-80" font-family="Helvetica,sans-Serif" font-size="10.00">NeoPixelBus.h</text>
</g>
<!-- Node9&#45;&gt;Node10 -->
<g id="edge13" class="edge"><title>Node9&#45;&gt;Node10</title>
<path fill="none" stroke="midnightblue" d="M634.129,-134.475C629.13,-125.727 621.211,-111.869 614.891,-100.809"/>
<polygon fill="midnightblue" stroke="midnightblue" points="617.863,-98.955 609.862,-92.0091 611.785,-102.428 617.863,-98.955"/>
</g>
<!-- Node11&#45;&gt;Node4 -->
<g id="edge15" class="edge"><title>Node11&#45;&gt;Node4</title>
<path fill="none" stroke="midnightblue" d="M864.611,-137.359C890.643,-131.464 926.17,-119.89 950,-98 968.454,-81.0481 979.063,-53.5164 984.432,-35.2102"/>
<polygon fill="midnightblue" stroke="midnightblue" points="987.85,-35.98 987.065,-25.4142 981.089,-34.1632 987.85,-35.98"/>
</g>
<!-- Node12 -->
<g id="node13" class="node"><title>Node12</title>
<polygon fill="white" stroke="#bfbfbf" points="801.5,-73 801.5,-92 860.5,-92 860.5,-73 801.5,-73"/>
<text text-anchor="middle" x="831" y="-80" font-family="Helvetica,sans-Serif" font-size="10.00">TimeLib.h</text>
</g>
<!-- Node11&#45;&gt;Node12 -->
<g id="edge16" class="edge"><title>Node11&#45;&gt;Node12</title>
<path fill="none" stroke="midnightblue" d="M831,-134.475C831,-126.08 831,-112.981 831,-102.163"/>
<polygon fill="midnightblue" stroke="midnightblue" points="834.5,-102.009 831,-92.0091 827.5,-102.009 834.5,-102.009"/>
</g>
<!-- Node13 -->
<g id="node14" class="node"><title>Node13</title>
<polygon fill="white" stroke="#bfbfbf" points="878.5,-73 878.5,-92 941.5,-92 941.5,-73 878.5,-73"/>
<text text-anchor="middle" x="910" y="-80" font-family="Helvetica,sans-Serif" font-size="10.00">WiFiUdp.h</text>
</g>
<!-- Node11&#45;&gt;Node13 -->
<g id="edge17" class="edge"><title>Node11&#45;&gt;Node13</title>
<path fill="none" stroke="midnightblue" d="M842.319,-134.475C854.873,-125.02 875.351,-109.596 890.499,-98.1871"/>
<polygon fill="midnightblue" stroke="midnightblue" points="892.82,-100.821 898.702,-92.0091 888.609,-95.2295 892.82,-100.821"/>
</g>
<!-- Node14 -->
<g id="node15" class="node"><title>Node14</title>
<polygon fill="white" stroke="#bfbfbf" points="702.5,-73 702.5,-92 783.5,-92 783.5,-73 702.5,-73"/>
<text text-anchor="middle" x="743" y="-80" font-family="Helvetica,sans-Serif" font-size="10.00">DS1337RTC.h</text>
</g>
<!-- Node11&#45;&gt;Node14 -->
<g id="edge18" class="edge"><title>Node11&#45;&gt;Node14</title>
<path fill="none" stroke="midnightblue" d="M818.392,-134.475C804.277,-124.931 781.169,-109.307 764.251,-97.8683"/>
<polygon fill="midnightblue" stroke="midnightblue" points="765.829,-94.7109 755.585,-92.0091 761.909,-100.51 765.829,-94.7109"/>
</g>
<!-- Node15&#45;&gt;Node4 -->
<g id="edge20" class="edge"><title>Node15&#45;&gt;Node4</title>
<path fill="none" stroke="midnightblue" d="M1650.79,-134.336C1671.25,-119.467 1707.1,-88.6096 1687,-67 1641.99,-18.6113 1169.27,-15.9964 1028.4,-16.3013"/>
<polygon fill="midnightblue" stroke="midnightblue" points="1028.07,-12.8021 1018.08,-16.3303 1028.09,-19.8021 1028.07,-12.8021"/>
</g>
<!-- Node16 -->
<g id="node17" class="node"><title>Node16</title>
<polygon fill="white" stroke="#bfbfbf" points="1592,-73 1592,-92 1678,-92 1678,-73 1592,-73"/>
<text text-anchor="middle" x="1635" y="-80" font-family="Helvetica,sans-Serif" font-size="10.00">ESP8266WiFi.h</text>
</g>
<!-- Node15&#45;&gt;Node16 -->
<g id="edge21" class="edge"><title>Node15&#45;&gt;Node16</title>
<path fill="none" stroke="midnightblue" d="M1637.57,-134.475C1637.15,-126.08 1636.49,-112.981 1635.94,-102.163"/>
<polygon fill="midnightblue" stroke="midnightblue" points="1639.43,-101.82 1635.43,-92.0091 1632.44,-102.173 1639.43,-101.82"/>
</g>
<!-- Node17 -->
<g id="node18" class="node"><title>Node17</title>
<g id="a_node18"><a xlink:href="$d5/dfb/_cool_pub_sub_client_8h.html" xlink:title="internals/CoolPubSubClient.h">
<polygon fill="white" stroke="black" points="1882.5,-73 1882.5,-92 2027.5,-92 2027.5,-73 1882.5,-73"/>
<text text-anchor="middle" x="1955" y="-80" font-family="Helvetica,sans-Serif" font-size="10.00">internals/CoolPubSubClient.h</text>
</a>
</g>
</g>
<!-- Node15&#45;&gt;Node17 -->
<g id="edge22" class="edge"><title>Node15&#45;&gt;Node17</title>
<path fill="none" stroke="midnightblue" d="M1674.67,-136.116C1729.9,-125.75 1834.82,-106.057 1899.46,-93.9241"/>
<polygon fill="midnightblue" stroke="midnightblue" points="1900.3,-97.3291 1909.48,-92.0443 1899,-90.4492 1900.3,-97.3291"/>
</g>
<!-- Node17&#45;&gt;Node4 -->
<g id="edge23" class="edge"><title>Node17&#45;&gt;Node4</title>
<path fill="none" stroke="midnightblue" d="M1912.16,-72.9409C1899.59,-70.6962 1885.78,-68.4897 1873,-67 1548.08,-29.1256 1152.52,-19.3231 1028.27,-17.0933"/>
<polygon fill="midnightblue" stroke="midnightblue" points="1028.16,-13.591 1018.11,-16.9171 1028.04,-20.59 1028.16,-13.591"/>
</g>
<!-- Node18 -->
<g id="node19" class="node"><title>Node18</title>
<polygon fill="white" stroke="#bfbfbf" points="1963.5,-6 1963.5,-25 2034.5,-25 2034.5,-6 1963.5,-6"/>
<text text-anchor="middle" x="1999" y="-13" font-family="Helvetica,sans-Serif" font-size="10.00">IPAddress.h</text>
</g>
<!-- Node17&#45;&gt;Node18 -->
<g id="edge24" class="edge"><title>Node17&#45;&gt;Node18</title>
<path fill="none" stroke="midnightblue" d="M1960.93,-72.7338C1967.73,-62.6953 1979.02,-46.0145 1987.55,-33.4213"/>
<polygon fill="midnightblue" stroke="midnightblue" points="1990.45,-35.3704 1993.16,-25.1273 1984.66,-31.4464 1990.45,-35.3704"/>
</g>
<!-- Node19 -->
<g id="node20" class="node"><title>Node19</title>
<polygon fill="white" stroke="#bfbfbf" points="2053,-6 2053,-25 2103,-25 2103,-6 2053,-6"/>
<text text-anchor="middle" x="2078" y="-13" font-family="Helvetica,sans-Serif" font-size="10.00">Client.h</text>
</g>
<!-- Node17&#45;&gt;Node19 -->
<g id="edge25" class="edge"><title>Node17&#45;&gt;Node19</title>
<path fill="none" stroke="midnightblue" d="M1971.33,-72.8685C1992.1,-61.8932 2028.19,-42.8243 2052.57,-29.9385"/>
<polygon fill="midnightblue" stroke="midnightblue" points="2054.39,-32.934 2061.6,-25.1672 2051.12,-26.745 2054.39,-32.934"/>
</g>
<!-- Node20 -->
<g id="node21" class="node"><title>Node20</title>
<polygon fill="white" stroke="#bfbfbf" points="1889,-6 1889,-25 1945,-25 1945,-6 1889,-6"/>
<text text-anchor="middle" x="1917" y="-13" font-family="Helvetica,sans-Serif" font-size="10.00">Stream.h</text>
</g>
<!-- Node17&#45;&gt;Node20 -->
<g id="edge26" class="edge"><title>Node17&#45;&gt;Node20</title>
<path fill="none" stroke="midnightblue" d="M1949.88,-72.7338C1944.06,-62.7928 1934.44,-46.3377 1927.11,-33.7892"/>
<polygon fill="midnightblue" stroke="midnightblue" points="1930.11,-31.9938 1922.04,-25.1273 1924.07,-35.5267 1930.11,-31.9938"/>
</g>
<!-- Node21&#45;&gt;Node4 -->
<g id="edge28" class="edge"><title>Node21&#45;&gt;Node4</title>
<path fill="none" stroke="midnightblue" d="M951.111,-134.4C962.046,-126.412 976.939,-113.444 984,-98 993.1,-78.0975 993.043,-52.5617 991.564,-35.424"/>
<polygon fill="midnightblue" stroke="midnightblue" points="994.996,-34.6233 990.408,-25.0736 988.039,-35.4004 994.996,-34.6233"/>
</g>
<!-- Node22&#45;&gt;Node4 -->
<g id="edge32" class="edge"><title>Node22&#45;&gt;Node4</title>
<path fill="none" stroke="midnightblue" d="M1042.08,-134.305C1032.85,-113.813 1009.57,-62.1451 997.129,-34.5416"/>
<polygon fill="midnightblue" stroke="midnightblue" points="1000.24,-32.935 992.945,-25.2557 993.862,-35.8108 1000.24,-32.935"/>
</g>
<!-- Node23 -->
<g id="node24" class="node"><title>Node23</title>
<g id="a_node24"><a xlink:href="$df/d06/_cool_adafruit___a_d_s1015_8h.html" xlink:title="internals/CoolAdafruit\l_ADS1015.h">
<polygon fill="white" stroke="black" points="1074,-67.5 1074,-97.5 1184,-97.5 1184,-67.5 1074,-67.5"/>
<text text-anchor="start" x="1082" y="-85.5" font-family="Helvetica,sans-Serif" font-size="10.00">internals/CoolAdafruit</text>
<text text-anchor="middle" x="1129" y="-74.5" font-family="Helvetica,sans-Serif" font-size="10.00">_ADS1015.h</text>
</a>
</g>
</g>
<!-- Node22&#45;&gt;Node23 -->
<g id="edge30" class="edge"><title>Node22&#45;&gt;Node23</title>
<path fill="none" stroke="midnightblue" d="M1057.89,-134.475C1069.13,-126.417 1086.42,-114.023 1101.14,-103.474"/>
<polygon fill="midnightblue" stroke="midnightblue" points="1103.35,-106.194 1109.44,-97.523 1099.27,-100.505 1103.35,-106.194"/>
</g>
<!-- Node23&#45;&gt;Node4 -->
<g id="edge31" class="edge"><title>Node23&#45;&gt;Node4</title>
<path fill="none" stroke="midnightblue" d="M1098.62,-67.396C1074.17,-56.0414 1040.09,-40.2201 1016.45,-29.2437"/>
<polygon fill="midnightblue" stroke="midnightblue" points="1017.87,-26.0436 1007.32,-25.007 1014.92,-32.3927 1017.87,-26.0436"/>
</g>
<!-- Node24&#45;&gt;Node4 -->
<g id="edge34" class="edge"><title>Node24&#45;&gt;Node4</title>
<path fill="none" stroke="midnightblue" d="M1742.13,-134.053C1738.15,-117.557 1727.18,-82.614 1703,-67 1646.21,-30.3331 1170.18,-19.5146 1028.58,-17.0933"/>
<polygon fill="midnightblue" stroke="midnightblue" points="1028.26,-13.5876 1018.21,-16.9208 1028.15,-20.5867 1028.26,-13.5876"/>
</g>
<!-- Node25 -->
<g id="node26" class="node"><title>Node25</title>
<g id="a_node26"><a xlink:href="$d6/d20/_external_sensor_8h.html" xlink:title="ExternalSensor Header file. ">
<polygon fill="white" stroke="black" points="1772,-73 1772,-92 1864,-92 1864,-73 1772,-73"/>
<text text-anchor="middle" x="1818" y="-80" font-family="Helvetica,sans-Serif" font-size="10.00">ExternalSensor.h</text>
</a>
</g>
</g>
<!-- Node24&#45;&gt;Node25 -->
<g id="edge35" class="edge"><title>Node24&#45;&gt;Node25</title>
<path fill="none" stroke="midnightblue" d="M1754.6,-134.475C1766.25,-125.108 1785.19,-109.884 1799.33,-98.5081"/>
<polygon fill="midnightblue" stroke="midnightblue" points="1801.82,-101.003 1807.42,-92.0091 1797.43,-95.5477 1801.82,-101.003"/>
</g>
<!-- Node25&#45;&gt;Node4 -->
<g id="edge38" class="edge"><title>Node25&#45;&gt;Node4</title>
<path fill="none" stroke="midnightblue" d="M1787.06,-72.9506C1777.78,-70.678 1767.53,-68.4542 1758,-67 1480.92,-24.7406 1142.35,-17.8274 1028.48,-16.7103"/>
<polygon fill="midnightblue" stroke="midnightblue" points="1028.21,-13.2078 1018.18,-16.6193 1028.14,-20.2076 1028.21,-13.2078"/>
</g>
<!-- Node26 -->
<g id="node27" class="node"><title>Node26</title>
<g id="a_node27"><a xlink:href="$d0/d08/_cool_n_d_i_r___i2_c_8h.html" xlink:title="internals/CoolNDIR\l_I2C.h">
<polygon fill="white" stroke="black" points="1645,-0.5 1645,-30.5 1747,-30.5 1747,-0.5 1645,-0.5"/>
<text text-anchor="start" x="1653" y="-18.5" font-family="Helvetica,sans-Serif" font-size="10.00">internals/CoolNDIR</text>
<text text-anchor="middle" x="1696" y="-7.5" font-family="Helvetica,sans-Serif" font-size="10.00">_I2C.h</text>
</a>
</g>
</g>
<!-- Node25&#45;&gt;Node26 -->
<g id="edge36" class="edge"><title>Node25&#45;&gt;Node26</title>
<path fill="none" stroke="midnightblue" d="M1801.8,-72.8685C1783.95,-63.3566 1754.68,-47.7655 1731.45,-35.3888"/>
<polygon fill="midnightblue" stroke="midnightblue" points="1733.03,-32.2649 1722.56,-30.6516 1729.74,-38.4427 1733.03,-32.2649"/>
</g>
<!-- Node27 -->
<g id="node28" class="node"><title>Node27</title>
<polygon fill="white" stroke="#bfbfbf" points="1764.5,-6 1764.5,-25 1871.5,-25 1871.5,-6 1764.5,-6"/>
<text text-anchor="middle" x="1818" y="-13" font-family="Helvetica,sans-Serif" font-size="10.00">DallasTemperature.h</text>
</g>
<!-- Node25&#45;&gt;Node27 -->
<g id="edge37" class="edge"><title>Node25&#45;&gt;Node27</title>
<path fill="none" stroke="midnightblue" d="M1818,-72.7338C1818,-63.1826 1818,-47.6183 1818,-35.2829"/>
<polygon fill="midnightblue" stroke="midnightblue" points="1821.5,-35.1273 1818,-25.1273 1814.5,-35.1273 1821.5,-35.1273"/>
</g>
<!-- Node28&#45;&gt;Node4 -->
<g id="edge40" class="edge"><title>Node28&#45;&gt;Node4</title>
<path fill="none" stroke="midnightblue" d="M1318.78,-134.381C1294.63,-126.632 1259.92,-114.016 1232,-98 1212.79,-86.982 1212.87,-76.7731 1193,-67 1139.16,-40.5181 1070.32,-27.2205 1027.96,-21.0962"/>
<polygon fill="midnightblue" stroke="midnightblue" points="1028.43,-17.6281 1018.04,-19.7242 1027.47,-24.562 1028.43,-17.6281"/>
</g>
<!-- Node28&#45;&gt;Node16 -->
<g id="edge41" class="edge"><title>Node28&#45;&gt;Node16</title>
<path fill="none" stroke="midnightblue" d="M1379.34,-137.848C1424.56,-130.223 1510.61,-114.993 1583,-98 1587.33,-96.9846 1591.83,-95.8481 1596.3,-94.6701"/>
<polygon fill="midnightblue" stroke="midnightblue" points="1597.22,-98.0484 1605.96,-92.0558 1595.39,-91.2918 1597.22,-98.0484"/>
</g>
<!-- Node29 -->
<g id="node30" class="node"><title>Node29</title>
<polygon fill="white" stroke="#bfbfbf" points="1240.5,-73 1240.5,-92 1347.5,-92 1347.5,-73 1240.5,-73"/>
<text text-anchor="middle" x="1294" y="-80" font-family="Helvetica,sans-Serif" font-size="10.00">ESP8266WiFiMulti.h</text>
</g>
<!-- Node28&#45;&gt;Node29 -->
<g id="edge42" class="edge"><title>Node28&#45;&gt;Node29</title>
<path fill="none" stroke="midnightblue" d="M1340.26,-134.475C1332,-125.373 1318.72,-110.741 1308.51,-99.483"/>
<polygon fill="midnightblue" stroke="midnightblue" points="1311.03,-97.0619 1301.72,-92.0091 1305.85,-101.766 1311.03,-97.0619"/>
</g>
<!-- Node30 -->
<g id="node31" class="node"><title>Node30</title>
<polygon fill="white" stroke="#bfbfbf" points="1365.5,-73 1365.5,-92 1440.5,-92 1440.5,-73 1365.5,-73"/>
<text text-anchor="middle" x="1403" y="-80" font-family="Helvetica,sans-Serif" font-size="10.00">DNSServer.h</text>
</g>
<!-- Node28&#45;&gt;Node30 -->
<g id="edge43" class="edge"><title>Node28&#45;&gt;Node30</title>
<path fill="none" stroke="midnightblue" d="M1355.88,-134.475C1364.29,-125.373 1377.82,-110.741 1388.23,-99.483"/>
<polygon fill="midnightblue" stroke="midnightblue" points="1390.92,-101.728 1395.13,-92.0091 1385.78,-96.9766 1390.92,-101.728"/>
</g>
<!-- Node31 -->
<g id="node32" class="node"><title>Node31</title>
<polygon fill="white" stroke="#bfbfbf" points="1458.5,-73 1458.5,-92 1573.5,-92 1573.5,-73 1458.5,-73"/>
<text text-anchor="middle" x="1516" y="-80" font-family="Helvetica,sans-Serif" font-size="10.00">ESP8266WebServer.h</text>
</g>
<!-- Node28&#45;&gt;Node31 -->
<g id="edge44" class="edge"><title>Node28&#45;&gt;Node31</title>
<path fill="none" stroke="midnightblue" d="M1372.07,-134.475C1401.01,-124.225 1449.76,-106.959 1482.4,-95.3994"/>
<polygon fill="midnightblue" stroke="midnightblue" points="1483.72,-98.6468 1491.97,-92.0091 1481.38,-92.0484 1483.72,-98.6468"/>
</g>
<!-- Node32&#45;&gt;Node4 -->
<g id="edge46" class="edge"><title>Node32&#45;&gt;Node4</title>
<path fill="none" stroke="midnightblue" d="M323.851,-134.225C324.103,-118.017 327.206,-83.5342 348,-67 395.108,-29.5426 817.747,-19.3565 949.775,-17.0764"/>
<polygon fill="midnightblue" stroke="midnightblue" points="949.909,-20.5747 959.849,-16.9082 949.792,-13.5757 949.909,-20.5747"/>
</g>
</g>
</svg>
