<?xml version="1.0" encoding="UTF-8" standalone="no"?>
<!DOCTYPE svg PUBLIC "-//W3C//DTD SVG 1.1//EN"
 "http://www.w3.org/Graphics/SVG/1.1/DTD/svg11.dtd">
<!-- Generated by graphviz version 2.38.0 (20140413.2041)
 -->
<!-- Title: ExternalSensors.cpp Pages: 1 -->
<svg width="492pt" height="196pt"
 viewBox="0.00 0.00 491.50 196.00" xmlns="http://www.w3.org/2000/svg" xmlns:xlink="http://www.w3.org/1999/xlink">
<g id="graph0" class="graph" transform="scale(1 1) rotate(0) translate(4 192)">
<title>ExternalSensors.cpp</title>
<polygon fill="white" stroke="none" points="-4,4 -4,-192 487.5,-192 487.5,4 -4,4"/>
<!-- Node0 -->
<g id="node1" class="node"><title>Node0</title>
<polygon fill="#bfbfbf" stroke="black" points="101.5,-168.5 101.5,-187.5 208.5,-187.5 208.5,-168.5 101.5,-168.5"/>
<text text-anchor="middle" x="155" y="-175.5" font-family="Helvetica,sans-Serif" font-size="10.00">ExternalSensors.cpp</text>
</g>
<!-- Node1 -->
<g id="node2" class="node"><title>Node1</title>
<polygon fill="white" stroke="#bfbfbf" points="0,-112.5 0,-131.5 38,-131.5 38,-112.5 0,-112.5"/>
<text text-anchor="middle" x="19" y="-119.5" font-family="Helvetica,sans-Serif" font-size="10.00">FS.h</text>
</g>
<!-- Node0&#45;&gt;Node1 -->
<g id="edge1" class="edge"><title>Node0&#45;&gt;Node1</title>
<path fill="none" stroke="midnightblue" d="M133.45,-168.444C110.308,-159.255 73.4154,-144.606 47.7973,-134.434"/>
<polygon fill="midnightblue" stroke="midnightblue" points="48.8357,-131.081 38.2499,-130.643 46.2524,-137.587 48.8357,-131.081"/>
</g>
<!-- Node2 -->
<g id="node3" class="node"><title>Node2</title>
<polygon fill="white" stroke="#bfbfbf" points="211,-0.5 211,-19.5 269,-19.5 269,-0.5 211,-0.5"/>
<text text-anchor="middle" x="240" y="-7.5" font-family="Helvetica,sans-Serif" font-size="10.00">Arduino.h</text>
</g>
<!-- Node0&#45;&gt;Node2 -->
<g id="edge2" class="edge"><title>Node0&#45;&gt;Node2</title>
<path fill="none" stroke="midnightblue" d="M143.041,-168.352C116.164,-147.875 55.5617,-95.2004 85,-56 98.9219,-37.4614 159.608,-24.0872 200.786,-16.9468"/>
<polygon fill="midnightblue" stroke="midnightblue" points="201.512,-20.374 210.794,-15.2664 200.353,-13.4706 201.512,-20.374"/>
</g>
<!-- Node3 -->
<g id="node4" class="node"><title>Node3</title>
<polygon fill="white" stroke="#bfbfbf" points="94.5,-56.5 94.5,-75.5 139.5,-75.5 139.5,-56.5 94.5,-56.5"/>
<text text-anchor="middle" x="117" y="-63.5" font-family="Helvetica,sans-Serif" font-size="10.00">Wire.h</text>
</g>
<!-- Node0&#45;&gt;Node3 -->
<g id="edge3" class="edge"><title>Node0&#45;&gt;Node3</title>
<path fill="none" stroke="midnightblue" d="M152.018,-168.368C145.858,-150.537 131.611,-109.295 123.312,-85.2717"/>
<polygon fill="midnightblue" stroke="midnightblue" points="126.541,-83.9005 119.968,-75.5914 119.925,-86.1862 126.541,-83.9005"/>
</g>
<!-- Node4 -->
<g id="node5" class="node"><title>Node4</title>
<polygon fill="white" stroke="#bfbfbf" points="157.5,-56.5 157.5,-75.5 220.5,-75.5 220.5,-56.5 157.5,-56.5"/>
<text text-anchor="middle" x="189" y="-63.5" font-family="Helvetica,sans-Serif" font-size="10.00">OneWire.h</text>
</g>
<!-- Node0&#45;&gt;Node4 -->
<g id="edge4" class="edge"><title>Node0&#45;&gt;Node4</title>
<path fill="none" stroke="midnightblue" d="M157.477,-168.137C161.008,-155.596 167.754,-131.974 174,-112 176.768,-103.147 180.005,-93.3722 182.761,-85.2013"/>
<polygon fill="midnightblue" stroke="midnightblue" points="186.122,-86.1902 186.028,-75.5958 179.494,-83.9359 186.122,-86.1902"/>
</g>
<!-- Node5 -->
<g id="node6" class="node"><title>Node5</title>
<g id="a_node6"><a xlink:href="$d7/dcc/_external_sensors_8h.html" xlink:title="ExternalSensors Header File. ">
<polygon fill="white" stroke="black" points="183.5,-112.5 183.5,-131.5 280.5,-131.5 280.5,-112.5 183.5,-112.5"/>
<text text-anchor="middle" x="232" y="-119.5" font-family="Helvetica,sans-Serif" font-size="10.00">ExternalSensors.h</text>
</a>
</g>
</g>
<!-- Node0&#45;&gt;Node5 -->
<g id="edge5" class="edge"><title>Node0&#45;&gt;Node5</title>
<path fill="none" stroke="midnightblue" d="M167.371,-168.324C179.158,-160.058 197.132,-147.453 211.136,-137.632"/>
<polygon fill="midnightblue" stroke="midnightblue" points="213.482,-140.262 219.659,-131.655 209.462,-134.531 213.482,-140.262"/>
</g>
<!-- Node6 -->
<g id="node7" class="node"><title>Node6</title>
<g id="a_node7"><a xlink:href="$d6/d20/_external_sensor_8h.html" xlink:title="ExternalSensor Header File. ">
<polygon fill="white" stroke="black" points="277,-56.5 277,-75.5 369,-75.5 369,-56.5 277,-56.5"/>
<text text-anchor="middle" x="323" y="-63.5" font-family="Helvetica,sans-Serif" font-size="10.00">ExternalSensor.h</text>
</a>
</g>
</g>
<!-- Node0&#45;&gt;Node6 -->
<g id="edge14" class="edge"><title>Node0&#45;&gt;Node6</title>
<path fill="none" stroke="midnightblue" d="M208.646,-168.737C235.241,-162.382 266.412,-151.275 289,-132 303.204,-119.879 312.291,-100.32 317.463,-85.8189"/>
<polygon fill="midnightblue" stroke="midnightblue" points="320.917,-86.5151 320.674,-75.9231 314.258,-84.3543 320.917,-86.5151"/>
</g>
<!-- Node9 -->
<g id="node10" class="node"><title>Node9</title>
<polygon fill="white" stroke="#bfbfbf" points="337.5,-112.5 337.5,-131.5 416.5,-131.5 416.5,-112.5 337.5,-112.5"/>
<text text-anchor="middle" x="377" y="-119.5" font-family="Helvetica,sans-Serif" font-size="10.00">ArduinoJson.h</text>
</g>
<!-- Node0&#45;&gt;Node9 -->
<g id="edge13" class="edge"><title>Node0&#45;&gt;Node9</title>
<path fill="none" stroke="midnightblue" d="M190.177,-168.444C228.579,-159.102 290.176,-144.119 332.055,-133.933"/>
<polygon fill="midnightblue" stroke="midnightblue" points="333.099,-137.281 341.988,-131.516 331.444,-130.479 333.099,-137.281"/>
</g>
<!-- Node5&#45;&gt;Node2 -->
<g id="edge6" class="edge"><title>Node5&#45;&gt;Node2</title>
<path fill="none" stroke="midnightblue" d="M232.628,-112.368C233.919,-94.617 236.897,-53.6664 238.647,-29.5974"/>
<polygon fill="midnightblue" stroke="midnightblue" points="242.141,-29.819 239.375,-19.5914 235.159,-29.3112 242.141,-29.819"/>
</g>
<!-- Node5&#45;&gt;Node3 -->
<g id="edge7" class="edge"><title>Node5&#45;&gt;Node3</title>
<path fill="none" stroke="midnightblue" d="M213.778,-112.444C195.104,-103.675 165.844,-89.9355 144.383,-79.8579"/>
<polygon fill="midnightblue" stroke="midnightblue" points="145.676,-76.5988 135.137,-75.5164 142.701,-82.935 145.676,-76.5988"/>
</g>
<!-- Node5&#45;&gt;Node4 -->
<g id="edge8" class="edge"><title>Node5&#45;&gt;Node4</title>
<path fill="none" stroke="midnightblue" d="M224.899,-112.083C218.763,-104.377 209.73,-93.0333 202.261,-83.6531"/>
<polygon fill="midnightblue" stroke="midnightblue" points="204.936,-81.3936 195.968,-75.7511 199.46,-85.7542 204.936,-81.3936"/>
</g>
<!-- Node5&#45;&gt;Node6 -->
<g id="edge9" class="edge"><title>Node5&#45;&gt;Node6</title>
<path fill="none" stroke="midnightblue" d="M246.621,-112.324C260.949,-103.822 283.013,-90.7288 299.749,-80.7975"/>
<polygon fill="midnightblue" stroke="midnightblue" points="301.602,-83.7677 308.416,-75.6545 298.03,-77.7478 301.602,-83.7677"/>
</g>
<!-- Node6&#45;&gt;Node2 -->
<g id="edge12" class="edge"><title>Node6&#45;&gt;Node2</title>
<path fill="none" stroke="midnightblue" d="M309.665,-56.324C296.838,-47.979 277.215,-35.2122 262.06,-25.3524"/>
<polygon fill="midnightblue" stroke="midnightblue" points="263.593,-22.1742 253.302,-19.6545 259.776,-28.0417 263.593,-22.1742"/>
</g>
<!-- Node7 -->
<g id="node8" class="node"><title>Node7</title>
<polygon fill="white" stroke="#bfbfbf" points="287.5,-0.5 287.5,-19.5 358.5,-19.5 358.5,-0.5 287.5,-0.5"/>
<text text-anchor="middle" x="323" y="-7.5" font-family="Helvetica,sans-Serif" font-size="10.00">NDIR_I2C.h</text>
</g>
<!-- Node6&#45;&gt;Node7 -->
<g id="edge10" class="edge"><title>Node6&#45;&gt;Node7</title>
<path fill="none" stroke="midnightblue" d="M323,-56.083C323,-49.0059 323,-38.8611 323,-29.9865"/>
<polygon fill="midnightblue" stroke="midnightblue" points="326.5,-29.751 323,-19.7511 319.5,-29.7511 326.5,-29.751"/>
</g>
<!-- Node8 -->
<g id="node9" class="node"><title>Node8</title>
<polygon fill="white" stroke="#bfbfbf" points="376.5,-0.5 376.5,-19.5 483.5,-19.5 483.5,-0.5 376.5,-0.5"/>
<text text-anchor="middle" x="430" y="-7.5" font-family="Helvetica,sans-Serif" font-size="10.00">DallasTemperature.h</text>
</g>
<!-- Node6&#45;&gt;Node8 -->
<g id="edge11" class="edge"><title>Node6&#45;&gt;Node8</title>
<path fill="none" stroke="midnightblue" d="M340.191,-56.324C357.351,-47.6641 383.946,-34.2424 403.747,-24.249"/>
<polygon fill="midnightblue" stroke="midnightblue" points="405.501,-27.2847 412.851,-19.6545 402.347,-21.0354 405.501,-27.2847"/>
</g>
</g>
</svg>
