<?xml version="1.0" encoding="UTF-8" standalone="no"?>
<!DOCTYPE svg PUBLIC "-//W3C//DTD SVG 1.1//EN"
 "http://www.w3.org/Graphics/SVG/1.1/DTD/svg11.dtd">
<!-- Generated by graphviz version 2.38.0 (20140413.2041)
 -->
<!-- Title: CoolBoardActor::write Pages: 1 -->
<svg width="445pt" height="66pt"
 viewBox="0.00 0.00 445.00 66.00" xmlns="http://www.w3.org/2000/svg" xmlns:xlink="http://www.w3.org/1999/xlink">
<g id="graph0" class="graph" transform="scale(1 1) rotate(0) translate(4 62)">
<title>CoolBoardActor::write</title>
<polygon fill="white" stroke="none" points="-4,4 -4,-62 441,-62 441,4 -4,4"/>
<!-- Node15 -->
<g id="node1" class="node"><title>Node15</title>
<polygon fill="#bfbfbf" stroke="black" points="0,-19.5 0,-38.5 113,-38.5 113,-19.5 0,-19.5"/>
<text text-anchor="middle" x="56.5" y="-26.5" font-family="Helvetica,sans-Serif" font-size="10.00">CoolBoardActor::write</text>
</g>
<!-- Node16 -->
<g id="node2" class="node"><title>Node16</title>
<g id="a_node2"><a xlink:href="../../d7/df9/class_cool_board.html#a8612756d3f73198cdde857a66f0fe690" target="_top" xlink:title="CoolBoard::update">
<polygon fill="white" stroke="black" points="165,-38.5 165,-57.5 263,-57.5 263,-38.5 165,-38.5"/>
<text text-anchor="middle" x="214" y="-45.5" font-family="Helvetica,sans-Serif" font-size="10.00">CoolBoard::update</text>
</a>
</g>
</g>
<!-- Node15&#45;&gt;Node16 -->
<g id="edge1" class="edge"><title>Node15&#45;&gt;Node16</title>
<path fill="none" stroke="midnightblue" d="M123.253,-37.0341C137.224,-38.7412 151.725,-40.513 164.892,-42.1218"/>
<polygon fill="midnightblue" stroke="midnightblue" points="123.551,-33.5445 113.2,-35.8058 122.702,-40.4929 123.551,-33.5445"/>
</g>
<!-- Node18 -->
<g id="node4" class="node"><title>Node18</title>
<g id="a_node4"><a xlink:href="../../dc/d69/class_cool_board_actor.html#a96a45658d32c6b95caa2f385c7da32cd" target="_top" xlink:title="CoolBoardActor::doAction">
<polygon fill="white" stroke="black" points="149,-0.5 149,-19.5 279,-19.5 279,-0.5 149,-0.5"/>
<text text-anchor="middle" x="214" y="-7.5" font-family="Helvetica,sans-Serif" font-size="10.00">CoolBoardActor::doAction</text>
</a>
</g>
</g>
<!-- Node15&#45;&gt;Node18 -->
<g id="edge3" class="edge"><title>Node15&#45;&gt;Node18</title>
<path fill="none" stroke="midnightblue" d="M123.402,-20.9477C131.866,-19.9134 140.523,-18.8557 148.957,-17.8252"/>
<polygon fill="midnightblue" stroke="midnightblue" points="122.702,-17.5071 113.2,-22.1942 123.551,-24.4555 122.702,-17.5071"/>
</g>
<!-- Node17 -->
<g id="node3" class="node"><title>Node17</title>
<g id="a_node3"><a xlink:href="../../d7/df9/class_cool_board.html#aa0bbc4bc605e35618d18e68795c61363" target="_top" xlink:title="CoolBoard::onLineMode">
<polygon fill="white" stroke="black" points="315.5,-38.5 315.5,-57.5 436.5,-57.5 436.5,-38.5 315.5,-38.5"/>
<text text-anchor="middle" x="376" y="-45.5" font-family="Helvetica,sans-Serif" font-size="10.00">CoolBoard::onLineMode</text>
</a>
</g>
</g>
<!-- Node16&#45;&gt;Node17 -->
<g id="edge2" class="edge"><title>Node16&#45;&gt;Node17</title>
<path fill="none" stroke="midnightblue" d="M273.285,-48C287,-48 301.637,-48 315.409,-48"/>
<polygon fill="midnightblue" stroke="midnightblue" points="273.005,-44.5001 263.005,-48 273.005,-51.5001 273.005,-44.5001"/>
</g>
<!-- Node18&#45;&gt;Node17 -->
<g id="edge4" class="edge"><title>Node18&#45;&gt;Node17</title>
<path fill="none" stroke="midnightblue" d="M265.392,-21.968C287.813,-27.2931 313.847,-33.4762 334.916,-38.4799"/>
<polygon fill="midnightblue" stroke="midnightblue" points="265.913,-18.4945 255.375,-19.589 264.295,-25.3051 265.913,-18.4945"/>
</g>
<!-- Node19 -->
<g id="node5" class="node"><title>Node19</title>
<g id="a_node5"><a xlink:href="../../d7/df9/class_cool_board.html#ae6b5e1274d760462290192acea4adca8" target="_top" xlink:title="CoolBoard::offLineMode">
<polygon fill="white" stroke="black" points="315,-0.5 315,-19.5 437,-19.5 437,-0.5 315,-0.5"/>
<text text-anchor="middle" x="376" y="-7.5" font-family="Helvetica,sans-Serif" font-size="10.00">CoolBoard::offLineMode</text>
</a>
</g>
</g>
<!-- Node18&#45;&gt;Node19 -->
<g id="edge5" class="edge"><title>Node18&#45;&gt;Node19</title>
<path fill="none" stroke="midnightblue" d="M289.222,-10C297.853,-10 306.574,-10 314.981,-10"/>
<polygon fill="midnightblue" stroke="midnightblue" points="289.156,-6.5001 279.156,-10 289.156,-13.5001 289.156,-6.5001"/>
</g>
</g>
</svg>
