<?xml version="1.0" encoding="UTF-8" standalone="no"?>
<!DOCTYPE svg PUBLIC "-//W3C//DTD SVG 1.1//EN"
 "http://www.w3.org/Graphics/SVG/1.1/DTD/svg11.dtd">
<!-- Generated by graphviz version 2.38.0 (20140413.2041)
 -->
<!-- Title: ExternalSensors.cpp Pages: 1 -->
<svg width="506pt" height="263pt"
 viewBox="0.00 0.00 506.00 263.00" xmlns="http://www.w3.org/2000/svg" xmlns:xlink="http://www.w3.org/1999/xlink">
<g id="graph0" class="graph" transform="scale(1 1) rotate(0) translate(4 259)">
<title>ExternalSensors.cpp</title>
<polygon fill="white" stroke="none" points="-4,4 -4,-259 502,-259 502,4 -4,4"/>
<!-- Node0 -->
<g id="node1" class="node"><title>Node0</title>
<polygon fill="#bfbfbf" stroke="black" points="121.5,-235.5 121.5,-254.5 228.5,-254.5 228.5,-235.5 121.5,-235.5"/>
<text text-anchor="middle" x="175" y="-242.5" font-family="Helvetica,sans-Serif" font-size="10.00">ExternalSensors.cpp</text>
</g>
<!-- Node1 -->
<g id="node2" class="node"><title>Node1</title>
<polygon fill="white" stroke="#bfbfbf" points="0,-179.5 0,-198.5 38,-198.5 38,-179.5 0,-179.5"/>
<text text-anchor="middle" x="19" y="-186.5" font-family="Helvetica,sans-Serif" font-size="10.00">FS.h</text>
</g>
<!-- Node0&#45;&gt;Node1 -->
<g id="edge1" class="edge"><title>Node0&#45;&gt;Node1</title>
<path fill="none" stroke="midnightblue" d="M150.281,-235.444C122.461,-225.813 77.3175,-210.187 47.8919,-200.001"/>
<polygon fill="midnightblue" stroke="midnightblue" points="48.7882,-196.608 38.1934,-196.644 46.4983,-203.222 48.7882,-196.608"/>
</g>
<!-- Node2 -->
<g id="node3" class="node"><title>Node2</title>
<polygon fill="white" stroke="#bfbfbf" points="67,-62 67,-81 125,-81 125,-62 67,-62"/>
<text text-anchor="middle" x="96" y="-69" font-family="Helvetica,sans-Serif" font-size="10.00">Arduino.h</text>
</g>
<!-- Node0&#45;&gt;Node2 -->
<g id="edge2" class="edge"><title>Node0&#45;&gt;Node2</title>
<path fill="none" stroke="midnightblue" d="M137.898,-235.458C118.555,-228.918 96.572,-217.724 85,-199 64.2203,-165.378 77.9437,-116.8 88.0329,-90.7086"/>
<polygon fill="midnightblue" stroke="midnightblue" points="91.3344,-91.8825 91.8963,-81.3026 84.8593,-89.2229 91.3344,-91.8825"/>
</g>
<!-- Node3 -->
<g id="node4" class="node"><title>Node3</title>
<polygon fill="white" stroke="#bfbfbf" points="94.5,-179.5 94.5,-198.5 157.5,-198.5 157.5,-179.5 94.5,-179.5"/>
<text text-anchor="middle" x="126" y="-186.5" font-family="Helvetica,sans-Serif" font-size="10.00">OneWire.h</text>
</g>
<!-- Node0&#45;&gt;Node3 -->
<g id="edge3" class="edge"><title>Node0&#45;&gt;Node3</title>
<path fill="none" stroke="midnightblue" d="M166.909,-235.083C159.845,-227.298 149.412,-215.801 140.851,-206.367"/>
<polygon fill="midnightblue" stroke="midnightblue" points="143.253,-203.805 133.941,-198.751 138.069,-208.509 143.253,-203.805"/>
</g>
<!-- Node4 -->
<g id="node5" class="node"><title>Node4</title>
<g id="a_node5"><a xlink:href="$d7/dcc/_external_sensors_8h.html" xlink:title="ExternalSensors header file. ">
<polygon fill="white" stroke="black" points="175.5,-179.5 175.5,-198.5 272.5,-198.5 272.5,-179.5 175.5,-179.5"/>
<text text-anchor="middle" x="224" y="-186.5" font-family="Helvetica,sans-Serif" font-size="10.00">ExternalSensors.h</text>
</a>
</g>
</g>
<!-- Node0&#45;&gt;Node4 -->
<g id="edge4" class="edge"><title>Node0&#45;&gt;Node4</title>
<path fill="none" stroke="midnightblue" d="M183.091,-235.083C190.155,-227.298 200.588,-215.801 209.149,-206.367"/>
<polygon fill="midnightblue" stroke="midnightblue" points="211.931,-208.509 216.059,-198.751 206.747,-203.805 211.931,-208.509"/>
</g>
<!-- Node5 -->
<g id="node6" class="node"><title>Node5</title>
<g id="a_node6"><a xlink:href="$d6/d20/_external_sensor_8h.html" xlink:title="ExternalSensor Header file. ">
<polygon fill="white" stroke="black" points="216,-123.5 216,-142.5 308,-142.5 308,-123.5 216,-123.5"/>
<text text-anchor="middle" x="262" y="-130.5" font-family="Helvetica,sans-Serif" font-size="10.00">ExternalSensor.h</text>
</a>
</g>
</g>
<!-- Node0&#45;&gt;Node5 -->
<g id="edge13" class="edge"><title>Node0&#45;&gt;Node5</title>
<path fill="none" stroke="midnightblue" d="M225.509,-235.487C246.679,-229.153 269.288,-218.136 282,-199 291.661,-184.457 283.487,-165.027 274.86,-151.208"/>
<polygon fill="midnightblue" stroke="midnightblue" points="277.557,-148.952 269.028,-142.667 271.776,-152.899 277.557,-148.952"/>
</g>
<!-- Node10 -->
<g id="node11" class="node"><title>Node10</title>
<polygon fill="white" stroke="#bfbfbf" points="329.5,-179.5 329.5,-198.5 408.5,-198.5 408.5,-179.5 329.5,-179.5"/>
<text text-anchor="middle" x="369" y="-186.5" font-family="Helvetica,sans-Serif" font-size="10.00">ArduinoJson.h</text>
</g>
<!-- Node0&#45;&gt;Node10 -->
<g id="edge12" class="edge"><title>Node0&#45;&gt;Node10</title>
<path fill="none" stroke="midnightblue" d="M205.74,-235.444C238.944,-226.201 291.991,-211.436 328.557,-201.257"/>
<polygon fill="midnightblue" stroke="midnightblue" points="329.709,-204.57 338.404,-198.516 327.832,-197.826 329.709,-204.57"/>
</g>
<!-- Node4&#45;&gt;Node2 -->
<g id="edge5" class="edge"><title>Node4&#45;&gt;Node2</title>
<path fill="none" stroke="midnightblue" d="M214.379,-179.319C192.882,-159.921 140.696,-112.831 113.358,-88.1625"/>
<polygon fill="midnightblue" stroke="midnightblue" points="115.502,-85.3828 105.732,-81.282 110.812,-90.5798 115.502,-85.3828"/>
</g>
<!-- Node4&#45;&gt;Node5 -->
<g id="edge6" class="edge"><title>Node4&#45;&gt;Node5</title>
<path fill="none" stroke="midnightblue" d="M230.275,-179.083C235.642,-171.455 243.518,-160.264 250.079,-150.941"/>
<polygon fill="midnightblue" stroke="midnightblue" points="252.949,-152.943 255.842,-142.751 247.225,-148.915 252.949,-152.943"/>
</g>
<!-- Node5&#45;&gt;Node2 -->
<g id="edge11" class="edge"><title>Node5&#45;&gt;Node2</title>
<path fill="none" stroke="midnightblue" d="M236.913,-123.4C211.055,-114.484 169.608,-100.05 134,-87 131.899,-86.23 129.736,-85.4285 127.559,-84.6151"/>
<polygon fill="midnightblue" stroke="midnightblue" points="128.658,-81.289 118.066,-81.0331 126.186,-87.8383 128.658,-81.289"/>
</g>
<!-- Node6 -->
<g id="node7" class="node"><title>Node6</title>
<g id="a_node7"><a xlink:href="$d0/d08/_cool_n_d_i_r___i2_c_8h.html" xlink:title="internals/CoolNDIR\l_I2C.h">
<polygon fill="white" stroke="black" points="143,-56.5 143,-86.5 245,-86.5 245,-56.5 143,-56.5"/>
<text text-anchor="start" x="151" y="-74.5" font-family="Helvetica,sans-Serif" font-size="10.00">internals/CoolNDIR</text>
<text text-anchor="middle" x="194" y="-63.5" font-family="Helvetica,sans-Serif" font-size="10.00">_I2C.h</text>
</a>
</g>
</g>
<!-- Node5&#45;&gt;Node6 -->
<g id="edge7" class="edge"><title>Node5&#45;&gt;Node6</title>
<path fill="none" stroke="midnightblue" d="M252.257,-123.475C243.306,-115.643 229.674,-103.714 217.846,-93.3656"/>
<polygon fill="midnightblue" stroke="midnightblue" points="219.857,-90.474 210.026,-86.523 215.247,-95.7421 219.857,-90.474"/>
</g>
<!-- Node7 -->
<g id="node8" class="node"><title>Node7</title>
<polygon fill="white" stroke="#bfbfbf" points="262.5,-62 262.5,-81 369.5,-81 369.5,-62 262.5,-62"/>
<text text-anchor="middle" x="316" y="-69" font-family="Helvetica,sans-Serif" font-size="10.00">DallasTemperature.h</text>
</g>
<!-- Node5&#45;&gt;Node7 -->
<g id="edge8" class="edge"><title>Node5&#45;&gt;Node7</title>
<path fill="none" stroke="midnightblue" d="M269.737,-123.475C277.997,-114.373 291.277,-99.741 301.494,-88.483"/>
<polygon fill="midnightblue" stroke="midnightblue" points="304.149,-90.7663 308.277,-81.0091 298.965,-86.0619 304.149,-90.7663"/>
</g>
<!-- Node8 -->
<g id="node9" class="node"><title>Node8</title>
<g id="a_node9"><a xlink:href="$d3/d18/_cool_adafruit___t_c_s34725_8h.html" xlink:title="internals/CoolAdafruit\l_TCS34725.h">
<polygon fill="white" stroke="black" points="388,-56.5 388,-86.5 498,-86.5 498,-56.5 388,-56.5"/>
<text text-anchor="start" x="396" y="-74.5" font-family="Helvetica,sans-Serif" font-size="10.00">internals/CoolAdafruit</text>
<text text-anchor="middle" x="443" y="-63.5" font-family="Helvetica,sans-Serif" font-size="10.00">_TCS34725.h</text>
</a>
</g>
</g>
<!-- Node5&#45;&gt;Node8 -->
<g id="edge9" class="edge"><title>Node5&#45;&gt;Node8</title>
<path fill="none" stroke="midnightblue" d="M287.933,-123.475C314.623,-114.701 356.948,-100.788 390.64,-89.7123"/>
<polygon fill="midnightblue" stroke="midnightblue" points="391.935,-92.9709 400.342,-86.523 389.749,-86.321 391.935,-92.9709"/>
</g>
<!-- Node9 -->
<g id="node10" class="node"><title>Node9</title>
<polygon fill="white" stroke="#bfbfbf" points="407.5,-0.5 407.5,-19.5 478.5,-19.5 478.5,-0.5 407.5,-0.5"/>
<text text-anchor="middle" x="443" y="-7.5" font-family="Helvetica,sans-Serif" font-size="10.00">WProgram.h</text>
</g>
<!-- Node8&#45;&gt;Node9 -->
<g id="edge10" class="edge"><title>Node8&#45;&gt;Node9</title>
<path fill="none" stroke="midnightblue" d="M443,-56.3993C443,-48.4664 443,-38.458 443,-29.8583"/>
<polygon fill="midnightblue" stroke="midnightblue" points="446.5,-29.6577 443,-19.6578 439.5,-29.6578 446.5,-29.6577"/>
</g>
</g>
</svg>
